<svg width="1024" height="768" viewBox="0 0 1024 768" xmlns="http://www.w3.org/2000/svg">
<rect x="0" y="0" width="1024" height="768" opacity="1" fill="#FFFFFF" stroke="none"/>
<polygon opacity="1" fill="#E6194B" points="78,693 78,605 79,605 80,601 81,608 82,606 83,607 84,611 85,605 86,606 86,602 87,600 88,603 89,603 90,609 91,607 92,610 93,605 94,634 95,632 95,631 96,627 97,628 98,628 99,633 100,635 101,631 102,632 103,630 103,633 104,629 105,633 106,639 107,626 108,631 109,635 110,629 111,637 112,636 112,634 113,630 114,638 115,637 116,638 117,633 118,639 119,637 120,626 120,628 121,634 122,637 123,628 124,630 125,629 126,631 127,633 128,636 129,619 129,635 130,633 131,635 132,637 133,637 134,639 135,636 136,633 137,638 137,639 138,635 139,635 140,630 141,632 142,637 143,631 144,635 145,632 146,629 146,634 147,632 148,635 149,635 150,638 151,633 152,632 153,630 154,631 154,639 155,630 156,628 157,633 158,633 159,635 160,637 161,631 162,628 163,634 163,634 164,633 165,634 166,633 167,635 168,630 169,631 170,629 171,631 171,627 172,623 173,631 174,634 175,630 176,634 177,629 178,632 179,629 180,631 180,626 181,636 182,629 183,632 184,633 185,632 186,628 187,634 188,633 188,637 189,627 190,631 191,631 192,630 193,634 194,626 195,627 196,630 197,635 197,637 198,629 199,634 200,630 201,632 202,630 203,632 204,633 205,632 205,629 206,632 207,636 208,632 209,632 210,633 211,627 212,625 213,634 214,631 214,641 215,629 216,621 217,630 218,624 219,632 220,633 221,633 222,634 222,633 223,627 224,636 225,627 226,623 227,625 228,635 229,630 230,636 231,635 231,633 232,636 233,638 234,637 235,637 236,639 237,632 238,630 239,633 239,628 240,633 241,634 242,628 243,629 244,635 245,635 246,635 247,625 248,634 248,633 249,629 250,638 251,633 252,635 253,632 254,632 255,634 256,634 257,636 257,633 258,632 259,629 260,630 261,635 262,632 263,626 264,630 265,630 265,628 266,629 267,632 268,623 269,629 270,632 271,633 272,629 273,640 274,639 274,634 275,638 276,634 277,634 278,630 279,628 280,627 281,625 282,638 282,639 283,632 284,632 285,629 286,631 287,626 288,623 289,634 290,629 291,631 291,639 292,635 293,634 294,629 295,625 296,632 297,633 298,636 299,628 299,636 300,638 301,637 302,638 303,632 304,622 305,630 306,633 307,632 308,623 308,631 309,623 310,632 311,634 312,633 313,633 314,626 315,629 316,632 316,636 317,634 318,635 319,636 320,631 321,634 322,630 323,632 324,626 325,630 325,635 326,635 327,639 328,638 329,636 330,633 331,632 332,630 333,619 333,632 334,635 335,634 336,638 337,633 338,632 339,630 340,639 341,643 342,632 342,627 343,631 344,636 345,639 346,630 347,631 348,636 349,634 350,637 350,633 351,641 352,633 353,635 354,626 355,628 356,634 357,628 358,627 359,629 359,633 360,632 361,627 362,639 363,633 364,632 365,634 366,630 367,628 367,629 368,634 369,630 370,630 371,635 372,637 373,636 374,640 375,639 376,639 376,634 377,636 378,633 379,635 380,636 381,635 382,634 383,634 384,629 384,630 385,635 386,637 387,630 388,635 389,630 390,639 391,632 392,629 393,633 393,639 394,630 395,629 396,629 397,640 398,622 399,617 400,606 401,606 401,618 402,608 403,613 404,605 405,607 406,603 407,602 408,603 409,604 410,603 410,599 411,607 412,610 413,605 414,605 415,599 416,604 417,603 418,600 418,607 419,599 420,606 421,604 422,605 423,609 424,601 425,591 426,613 427,603 427,604 428,602 429,602 430,604 431,603 432,603 433,613 434,599 435,613 436,608 436,607 437,608 438,603 439,612 440,605 441,598 442,613 443,605 444,600 444,596 445,610 446,608 447,609 448,610 449,597 450,608 451,610 452,593 453,608 453,607 454,599 455,606 456,607 457,609 458,613 459,611 460,605 461,608 461,609 462,602 463,607 464,608 465,604 466,600 467,609 468,604 469,604 470,606 470,601 471,608 472,612 473,600 474,608 475,600 476,600 477,600 478,606 478,607 479,607 480,611 481,597 482,609 483,605 484,600 485,607 486,607 487,595 487,603 488,622 489,622 490,631 491,625 492,642 493,633 494,614 495,602 495,603 496,616 497,613 498,596 499,603 500,602 501,612 502,608 503,605 504,604 504,603 505,608 506,603 507,611 508,607 509,615 510,604 511,591 512,605 512,602 513,600 514,607 515,604 516,603 517,605 518,602 519,596 520,607 521,599 521,611 522,608 523,602 524,608 525,610 526,605 527,601 528,594 529,608 529,595 530,599 531,609 532,608 533,605 534,606 535,616 536,611 537,625 538,628 538,635 539,636 540,626 541,625 542,625 543,620 544,626 545,631 546,629 546,624 547,631 548,633 549,627 550,614 551,595 552,595 553,599 554,599 555,602 555,600 556,593 557,599 558,610 559,631 560,631 561,634 562,633 563,636 563,634 564,627 565,630 566,627 567,620 568,632 569,633 570,635 571,633 572,627 572,629 573,636 574,632 575,632 576,634 577,630 578,636 579,633 580,634 580,631 581,645 582,636 583,638 584,633 585,632 586,634 587,627 588,633 589,638 589,633 590,631 591,625 592,629 593,630 594,629 595,632 596,633 597,641 597,639 598,631 599,627 600,634 601,633 602,637 603,638 604,632 605,634 606,637 606,639 607,640 608,626 609,640 610,633 611,638 612,635 613,623 614,629 615,633 615,636 616,632 617,635 618,618 619,617 620,626 621,619 622,626 623,624 623,634 624,634 625,626 626,631 627,628 628,632 629,631 630,630 631,632 632,638 632,634 633,633 634,628 635,633 636,632 637,635 638,633 639,629 640,635 640,632 641,634 642,629 643,635 644,632 645,625 646,628 647,628 648,629 649,634 649,633 650,629 651,631 652,635 653,622 654,631 655,631 656,629 657,633 657,623 658,634 659,628 660,633 661,632 662,636 663,627 664,631 665,628 666,627 666,636 667,633 668,632 669,635 670,635 671,629 672,631 673,626 674,631 674,631 675,634 676,632 677,631 678,640 679,634 680,636 681,635 682,631 683,627 683,631 684,631 685,633 686,636 687,639 688,630 689,639 690,632 691,633 691,624 692,639 693,634 694,633 695,639 696,630 697,638 698,634 699,636 700,625 700,624 701,622 702,636 703,636 704,634 705,642 706,634 707,633 708,637 708,633 709,629 710,632 711,638 712,634 713,634 714,632 715,633 716,632 717,634 717,633 718,632 719,634 720,631 721,640 722,638 723,639 724,635 725,631 725,644 726,633 727,639 728,631 729,637 730,631 731,636 732,634 733,631 734,631 734,634 735,636 736,630 737,633 738,632 739,626 740,629 741,632 742,639 742,628 743,627 744,625 745,623 746,625 747,620 748,631 749,626 750,622 751,625 751,616 752,616 753,618 754,619 755,626 756,611 757,609 758,602 759,598 759,605 760,611 761,604 762,611 763,600 764,603 765,614 766,610 767,604 768,609 768,600 769,602 770,611 771,606 772,603 773,608 774,608 775,598 776,597 776,605 777,612 778,605 779,605 780,602 781,611 782,603 783,602 784,597 785,601 785,602 786,611 787,606 788,609 789,611 790,613 791,600 792,610 793,600 794,611 794,603 795,603 796,605 797,610 798,599 799,602 800,597 801,599 802,599 802,603 803,603 804,609 805,602 806,605 807,606 808,590 809,601 810,611 811,608 811,603 812,601 813,607 814,600 815,600 816,609 817,602 818,607 819,594 819,606 820,617 821,633 822,627 823,630 824,635 825,630 826,627 827,630 828,616 828,623 829,622 830,628 831,623 832,617 833,622 834,625 835,610 836,614 836,605 837,605 838,598 839,612 840,597 841,601 842,612 843,615 844,635 845,631 845,625 846,615 847,620 848,623 849,619 850,616 851,621 852,625 853,630 853,633 854,623 855,618 856,624 857,622 858,623 859,616 860,629 861,620 862,629 862,633 863,620 864,620 865,618 866,617 867,627 868,625 869,625 870,624 870,629 871,630 872,621 873,614 874,617 875,620 876,624 877,619 878,610 879,620 879,626 880,629 881,624 882,623 883,625 884,626 885,622 886,627 887,618 887,617 888,623 889,629 890,629 891,622 892,622 893,620 894,624 895,616 896,624 896,619 897,618 898,624 899,635 900,634 901,631 902,632 903,633 904,638 904,633 905,632 906,626 907,626 908,618 909,627 910,633 911,625 912,629 913,636 913,624 914,629 915,629 916,627 917,624 918,620 919,629 920,622 921,627 921,625 922,625 923,641 924,623 925,635 926,626 927,620 928,627 929,632 930,630 930,631 931,632 932,631 933,623 934,620 935,619 936,623 937,625 938,622 938,622 939,622 940,613 941,624 942,626 943,619 944,610 945,626 946,621 947,627 947,619 948,633 949,617 950,646 951,613 952,601 953,605 954,600 955,600 955,606 956,598 957,601 958,609 959,609 960,605 961,605 962,605 963,601 964,603 964,606 965,599 966,605 967,605 968,605 969,604 970,604 971,615 972,609 973,68 973,699 973,699 973,699 78,699 "/>
<polyline fill="none" opacity="1" stroke="#E6194B" stroke-width="1" points="78,693 78,605 79,605 80,601 81,608 82,606 83,607 84,611 85,605 86,606 86,602 87,600 88,603 89,603 90,609 91,607 92,610 93,605 94,634 95,632 95,631 96,627 97,628 98,628 99,633 100,635 101,631 102,632 103,630 103,633 104,629 105,633 106,639 107,626 108,631 109,635 110,629 111,637 112,636 112,634 113,630 114,638 115,637 116,638 117,633 118,639 119,637 120,626 120,628 121,634 122,637 123,628 124,630 125,629 126,631 127,633 128,636 129,619 129,635 130,633 131,635 132,637 133,637 134,639 135,636 136,633 137,638 137,639 138,635 139,635 140,630 141,632 142,637 143,631 144,635 145,632 146,629 146,634 147,632 148,635 149,635 150,638 151,633 152,632 153,630 154,631 154,639 155,630 156,628 157,633 158,633 159,635 160,637 161,631 162,628 163,634 163,634 164,633 165,634 166,633 167,635 168,630 169,631 170,629 171,631 171,627 172,623 173,631 174,634 175,630 176,634 177,629 178,632 179,629 180,631 180,626 181,636 182,629 183,632 184,633 185,632 186,628 187,634 188,633 188,637 189,627 190,631 191,631 192,630 193,634 194,626 195,627 196,630 197,635 197,637 198,629 199,634 200,630 201,632 202,630 203,632 204,633 205,632 205,629 206,632 207,636 208,632 209,632 210,633 211,627 212,625 213,634 214,631 214,641 215,629 216,621 217,630 218,624 219,632 220,633 221,633 222,634 222,633 223,627 224,636 225,627 226,623 227,625 228,635 229,630 230,636 231,635 231,633 232,636 233,638 234,637 235,637 236,639 237,632 238,630 239,633 239,628 240,633 241,634 242,628 243,629 244,635 245,635 246,635 247,625 248,634 248,633 249,629 250,638 251,633 252,635 253,632 254,632 255,634 256,634 257,636 257,633 258,632 259,629 260,630 261,635 262,632 263,626 264,630 265,630 265,628 266,629 267,632 268,623 269,629 270,632 271,633 272,629 273,640 274,639 274,634 275,638 276,634 277,634 278,630 279,628 280,627 281,625 282,638 282,639 283,632 284,632 285,629 286,631 287,626 288,623 289,634 290,629 291,631 291,639 292,635 293,634 294,629 295,625 296,632 297,633 298,636 299,628 299,636 300,638 301,637 302,638 303,632 304,622 305,630 306,633 307,632 308,623 308,631 309,623 310,632 311,634 312,633 313,633 314,626 315,629 316,632 316,636 317,634 318,635 319,636 320,631 321,634 322,630 323,632 324,626 325,630 325,635 326,635 327,639 328,638 329,636 330,633 331,632 332,630 333,619 333,632 334,635 335,634 336,638 337,633 338,632 339,630 340,639 341,643 342,632 342,627 343,631 344,636 345,639 346,630 347,631 348,636 349,634 350,637 350,633 351,641 352,633 353,635 354,626 355,628 356,634 357,628 358,627 359,629 359,633 360,632 361,627 362,639 363,633 364,632 365,634 366,630 367,628 367,629 368,634 369,630 370,630 371,635 372,637 373,636 374,640 375,639 376,639 376,634 377,636 378,633 379,635 380,636 381,635 382,634 383,634 384,629 384,630 385,635 386,637 387,630 388,635 389,630 390,639 391,632 392,629 393,633 393,639 394,630 395,629 396,629 397,640 398,622 399,617 400,606 401,606 401,618 402,608 403,613 404,605 405,607 406,603 407,602 408,603 409,604 410,603 410,599 411,607 412,610 413,605 414,605 415,599 416,604 417,603 418,600 418,607 419,599 420,606 421,604 422,605 423,609 424,601 425,591 426,613 427,603 427,604 428,602 429,602 430,604 431,603 432,603 433,613 434,599 435,613 436,608 436,607 437,608 438,603 439,612 440,605 441,598 442,613 443,605 444,600 444,596 445,610 446,608 447,609 448,610 449,597 450,608 451,610 452,593 453,608 453,607 454,599 455,606 456,607 457,609 458,613 459,611 460,605 461,608 461,609 462,602 463,607 464,608 465,604 466,600 467,609 468,604 469,604 470,606 470,601 471,608 472,612 473,600 474,608 475,600 476,600 477,600 478,606 478,607 479,607 480,611 481,597 482,609 483,605 484,600 485,607 486,607 487,595 487,603 488,622 489,622 490,631 491,625 492,642 493,633 494,614 495,602 495,603 496,616 497,613 498,596 499,603 500,602 501,612 502,608 503,605 504,604 504,603 505,608 506,603 507,611 508,607 509,615 510,604 511,591 512,605 512,602 513,600 514,607 515,604 516,603 517,605 518,602 519,596 520,607 521,599 521,611 522,608 523,602 524,608 525,610 526,605 527,601 528,594 529,608 529,595 530,599 531,609 532,608 533,605 534,606 535,616 536,611 537,625 538,628 538,635 539,636 540,626 541,625 542,625 543,620 544,626 545,631 546,629 546,624 547,631 548,633 549,627 550,614 551,595 552,595 553,599 554,599 555,602 555,600 556,593 557,599 558,610 559,631 560,631 561,634 562,633 563,636 563,634 564,627 565,630 566,627 567,620 568,632 569,633 570,635 571,633 572,627 572,629 573,636 574,632 575,632 576,634 577,630 578,636 579,633 580,634 580,631 581,645 582,636 583,638 584,633 585,632 586,634 587,627 588,633 589,638 589,633 590,631 591,625 592,629 593,630 594,629 595,632 596,633 597,641 597,639 598,631 599,627 600,634 601,633 602,637 603,638 604,632 605,634 606,637 606,639 607,640 608,626 609,640 610,633 611,638 612,635 613,623 614,629 615,633 615,636 616,632 617,635 618,618 619,617 620,626 621,619 622,626 623,624 623,634 624,634 625,626 626,631 627,628 628,632 629,631 630,630 631,632 632,638 632,634 633,633 634,628 635,633 636,632 637,635 638,633 639,629 640,635 640,632 641,634 642,629 643,635 644,632 645,625 646,628 647,628 648,629 649,634 649,633 650,629 651,631 652,635 653,622 654,631 655,631 656,629 657,633 657,623 658,634 659,628 660,633 661,632 662,636 663,627 664,631 665,628 666,627 666,636 667,633 668,632 669,635 670,635 671,629 672,631 673,626 674,631 674,631 675,634 676,632 677,631 678,640 679,634 680,636 681,635 682,631 683,627 683,631 684,631 685,633 686,636 687,639 688,630 689,639 690,632 691,633 691,624 692,639 693,634 694,633 695,639 696,630 697,638 698,634 699,636 700,625 700,624 701,622 702,636 703,636 704,634 705,642 706,634 707,633 708,637 708,633 709,629 710,632 711,638 712,634 713,634 714,632 715,633 716,632 717,634 717,633 718,632 719,634 720,631 721,640 722,638 723,639 724,635 725,631 725,644 726,633 727,639 728,631 729,637 730,631 731,636 732,634 733,631 734,631 734,634 735,636 736,630 737,633 738,632 739,626 740,629 741,632 742,639 742,628 743,627 744,625 745,623 746,625 747,620 748,631 749,626 750,622 751,625 751,616 752,616 753,618 754,619 755,626 756,611 757,609 758,602 759,598 759,605 760,611 761,604 762,611 763,600 764,603 765,614 766,610 767,604 768,609 768,600 769,602 770,611 771,606 772,603 773,608 774,608 775,598 776,597 776,605 777,612 778,605 779,605 780,602 781,611 782,603 783,602 784,597 785,601 785,602 786,611 787,606 788,609 789,611 790,613 791,600 792,610 793,600 794,611 794,603 795,603 796,605 797,610 798,599 799,602 800,597 801,599 802,599 802,603 803,603 804,609 805,602 806,605 807,606 808,590 809,601 810,611 811,608 811,603 812,601 813,607 814,600 815,600 816,609 817,602 818,607 819,594 819,606 820,617 821,633 822,627 823,630 824,635 825,630 826,627 827,630 828,616 828,623 829,622 830,628 831,623 832,617 833,622 834,625 835,610 836,614 836,605 837,605 838,598 839,612 840,597 841,601 842,612 843,615 844,635 845,631 845,625 846,615 847,620 848,623 849,619 850,616 851,621 852,625 853,630 853,633 854,623 855,618 856,624 857,622 858,623 859,616 860,629 861,620 862,629 862,633 863,620 864,620 865,618 866,617 867,627 868,625 869,625 870,624 870,629 871,630 872,621 873,614 874,617 875,620 876,624 877,619 878,610 879,620 879,626 880,629 881,624 882,623 883,625 884,626 885,622 886,627 887,618 887,617 888,623 889,629 890,629 891,622 892,622 893,620 894,624 895,616 896,624 896,619 897,618 898,624 899,635 900,634 901,631 902,632 903,633 904,638 904,633 905,632 906,626 907,626 908,618 909,627 910,633 911,625 912,629 913,636 913,624 914,629 915,629 916,627 917,624 918,620 919,629 920,622 921,627 921,625 922,625 923,641 924,623 925,635 926,626 927,620 928,627 929,632 930,630 930,631 931,632 932,631 933,623 934,620 935,619 936,623 937,625 938,622 938,622 939,622 940,613 941,624 942,626 943,619 944,610 945,626 946,621 947,627 947,619 948,633 949,617 950,646 951,613 952,601 953,605 954,600 955,600 955,606 956,598 957,601 958,609 959,609 960,605 961,605 962,605 963,601 964,603 964,606 965,599 966,605 967,605 968,605 969,604 970,604 971,615 972,609 973,68 973,699 973,699 "/>
<line opacity="0.1" stroke="#000000" stroke-width="1" x1="79" y1="699" x2="79" y2="68"/>
<line opacity="0.1" stroke="#000000" stroke-width="1" x1="87" y1="699" x2="87" y2="68"/>
<line opacity="0.1" stroke="#000000" stroke-width="1" x1="96" y1="699" x2="96" y2="68"/>
<line opacity="0.1" stroke="#000000" stroke-width="1" x1="105" y1="699" x2="105" y2="68"/>
<line opacity="0.1" stroke="#000000" stroke-width="1" x1="114" y1="699" x2="114" y2="68"/>
<line opacity="0.1" stroke="#000000" stroke-width="1" x1="123" y1="699" x2="123" y2="68"/>
<line opacity="0.1" stroke="#000000" stroke-width="1" x1="132" y1="699" x2="132" y2="68"/>
<line opacity="0.1" stroke="#000000" stroke-width="1" x1="141" y1="699" x2="141" y2="68"/>
<line opacity="0.1" stroke="#000000" stroke-width="1" x1="150" y1="699" x2="150" y2="68"/>
<line opacity="0.1" stroke="#000000" stroke-width="1" x1="159" y1="699" x2="159" y2="68"/>
<line opacity="0.1" stroke="#000000" stroke-width="1" x1="168" y1="699" x2="168" y2="68"/>
<line opacity="0.1" stroke="#000000" stroke-width="1" x1="177" y1="699" x2="177" y2="68"/>
<line opacity="0.1" stroke="#000000" stroke-width="1" x1="186" y1="699" x2="186" y2="68"/>
<line opacity="0.1" stroke="#000000" stroke-width="1" x1="195" y1="699" x2="195" y2="68"/>
<line opacity="0.1" stroke="#000000" stroke-width="1" x1="204" y1="699" x2="204" y2="68"/>
<line opacity="0.1" stroke="#000000" stroke-width="1" x1="213" y1="699" x2="213" y2="68"/>
<line opacity="0.1" stroke="#000000" stroke-width="1" x1="222" y1="699" x2="222" y2="68"/>
<line opacity="0.1" stroke="#000000" stroke-width="1" x1="231" y1="699" x2="231" y2="68"/>
<line opacity="0.1" stroke="#000000" stroke-width="1" x1="240" y1="699" x2="240" y2="68"/>
<line opacity="0.1" stroke="#000000" stroke-width="1" x1="249" y1="699" x2="249" y2="68"/>
<line opacity="0.1" stroke="#000000" stroke-width="1" x1="257" y1="699" x2="257" y2="68"/>
<line opacity="0.1" stroke="#000000" stroke-width="1" x1="266" y1="699" x2="266" y2="68"/>
<line opacity="0.1" stroke="#000000" stroke-width="1" x1="275" y1="699" x2="275" y2="68"/>
<line opacity="0.1" stroke="#000000" stroke-width="1" x1="284" y1="699" x2="284" y2="68"/>
<line opacity="0.1" stroke="#000000" stroke-width="1" x1="293" y1="699" x2="293" y2="68"/>
<line opacity="0.1" stroke="#000000" stroke-width="1" x1="302" y1="699" x2="302" y2="68"/>
<line opacity="0.1" stroke="#000000" stroke-width="1" x1="311" y1="699" x2="311" y2="68"/>
<line opacity="0.1" stroke="#000000" stroke-width="1" x1="320" y1="699" x2="320" y2="68"/>
<line opacity="0.1" stroke="#000000" stroke-width="1" x1="329" y1="699" x2="329" y2="68"/>
<line opacity="0.1" stroke="#000000" stroke-width="1" x1="338" y1="699" x2="338" y2="68"/>
<line opacity="0.1" stroke="#000000" stroke-width="1" x1="347" y1="699" x2="347" y2="68"/>
<line opacity="0.1" stroke="#000000" stroke-width="1" x1="356" y1="699" x2="356" y2="68"/>
<line opacity="0.1" stroke="#000000" stroke-width="1" x1="365" y1="699" x2="365" y2="68"/>
<line opacity="0.1" stroke="#000000" stroke-width="1" x1="374" y1="699" x2="374" y2="68"/>
<line opacity="0.1" stroke="#000000" stroke-width="1" x1="383" y1="699" x2="383" y2="68"/>
<line opacity="0.1" stroke="#000000" stroke-width="1" x1="392" y1="699" x2="392" y2="68"/>
<line opacity="0.1" stroke="#000000" stroke-width="1" x1="401" y1="699" x2="401" y2="68"/>
<line opacity="0.1" stroke="#000000" stroke-width="1" x1="410" y1="699" x2="410" y2="68"/>
<line opacity="0.1" stroke="#000000" stroke-width="1" x1="419" y1="699" x2="419" y2="68"/>
<line opacity="0.1" stroke="#000000" stroke-width="1" x1="427" y1="699" x2="427" y2="68"/>
<line opacity="0.1" stroke="#000000" stroke-width="1" x1="436" y1="699" x2="436" y2="68"/>
<line opacity="0.1" stroke="#000000" stroke-width="1" x1="445" y1="699" x2="445" y2="68"/>
<line opacity="0.1" stroke="#000000" stroke-width="1" x1="454" y1="699" x2="454" y2="68"/>
<line opacity="0.1" stroke="#000000" stroke-width="1" x1="463" y1="699" x2="463" y2="68"/>
<line opacity="0.1" stroke="#000000" stroke-width="1" x1="472" y1="699" x2="472" y2="68"/>
<line opacity="0.1" stroke="#000000" stroke-width="1" x1="481" y1="699" x2="481" y2="68"/>
<line opacity="0.1" stroke="#000000" stroke-width="1" x1="490" y1="699" x2="490" y2="68"/>
<line opacity="0.1" stroke="#000000" stroke-width="1" x1="499" y1="699" x2="499" y2="68"/>
<line opacity="0.1" stroke="#000000" stroke-width="1" x1="508" y1="699" x2="508" y2="68"/>
<line opacity="0.1" stroke="#000000" stroke-width="1" x1="517" y1="699" x2="517" y2="68"/>
<line opacity="0.1" stroke="#000000" stroke-width="1" x1="526" y1="699" x2="526" y2="68"/>
<line opacity="0.1" stroke="#000000" stroke-width="1" x1="535" y1="699" x2="535" y2="68"/>
<line opacity="0.1" stroke="#000000" stroke-width="1" x1="544" y1="699" x2="544" y2="68"/>
<line opacity="0.1" stroke="#000000" stroke-width="1" x1="553" y1="699" x2="553" y2="68"/>
<line opacity="0.1" stroke="#000000" stroke-width="1" x1="562" y1="699" x2="562" y2="68"/>
<line opacity="0.1" stroke="#000000" stroke-width="1" x1="571" y1="699" x2="571" y2="68"/>
<line opacity="0.1" stroke="#000000" stroke-width="1" x1="580" y1="699" x2="580" y2="68"/>
<line opacity="0.1" stroke="#000000" stroke-width="1" x1="589" y1="699" x2="589" y2="68"/>
<line opacity="0.1" stroke="#000000" stroke-width="1" x1="598" y1="699" x2="598" y2="68"/>
<line opacity="0.1" stroke="#000000" stroke-width="1" x1="606" y1="699" x2="606" y2="68"/>
<line opacity="0.1" stroke="#000000" stroke-width="1" x1="615" y1="699" x2="615" y2="68"/>
<line opacity="0.1" stroke="#000000" stroke-width="1" x1="624" y1="699" x2="624" y2="68"/>
<line opacity="0.1" stroke="#000000" stroke-width="1" x1="633" y1="699" x2="633" y2="68"/>
<line opacity="0.1" stroke="#000000" stroke-width="1" x1="642" y1="699" x2="642" y2="68"/>
<line opacity="0.1" stroke="#000000" stroke-width="1" x1="651" y1="699" x2="651" y2="68"/>
<line opacity="0.1" stroke="#000000" stroke-width="1" x1="660" y1="699" x2="660" y2="68"/>
<line opacity="0.1" stroke="#000000" stroke-width="1" x1="669" y1="699" x2="669" y2="68"/>
<line opacity="0.1" stroke="#000000" stroke-width="1" x1="678" y1="699" x2="678" y2="68"/>
<line opacity="0.1" stroke="#000000" stroke-width="1" x1="687" y1="699" x2="687" y2="68"/>
<line opacity="0.1" stroke="#000000" stroke-width="1" x1="696" y1="699" x2="696" y2="68"/>
<line opacity="0.1" stroke="#000000" stroke-width="1" x1="705" y1="699" x2="705" y2="68"/>
<line opacity="0.1" stroke="#000000" stroke-width="1" x1="714" y1="699" x2="714" y2="68"/>
<line opacity="0.1" stroke="#000000" stroke-width="1" x1="723" y1="699" x2="723" y2="68"/>
<line opacity="0.1" stroke="#000000" stroke-width="1" x1="732" y1="699" x2="732" y2="68"/>
<line opacity="0.1" stroke="#000000" stroke-width="1" x1="741" y1="699" x2="741" y2="68"/>
<line opacity="0.1" stroke="#000000" stroke-width="1" x1="750" y1="699" x2="750" y2="68"/>
<line opacity="0.1" stroke="#000000" stroke-width="1" x1="759" y1="699" x2="759" y2="68"/>
<line opacity="0.1" stroke="#000000" stroke-width="1" x1="768" y1="699" x2="768" y2="68"/>
<line opacity="0.1" stroke="#000000" stroke-width="1" x1="776" y1="699" x2="776" y2="68"/>
<line opacity="0.1" stroke="#000000" stroke-width="1" x1="785" y1="699" x2="785" y2="68"/>
<line opacity="0.1" stroke="#000000" stroke-width="1" x1="794" y1="699" x2="794" y2="68"/>
<line opacity="0.1" stroke="#000000" stroke-width="1" x1="803" y1="699" x2="803" y2="68"/>
<line opacity="0.1" stroke="#000000" stroke-width="1" x1="812" y1="699" x2="812" y2="68"/>
<line opacity="0.1" stroke="#000000" stroke-width="1" x1="821" y1="699" x2="821" y2="68"/>
<line opacity="0.1" stroke="#000000" stroke-width="1" x1="830" y1="699" x2="830" y2="68"/>
<line opacity="0.1" stroke="#000000" stroke-width="1" x1="839" y1="699" x2="839" y2="68"/>
<line opacity="0.1" stroke="#000000" stroke-width="1" x1="848" y1="699" x2="848" y2="68"/>
<line opacity="0.1" stroke="#000000" stroke-width="1" x1="857" y1="699" x2="857" y2="68"/>
<line opacity="0.1" stroke="#000000" stroke-width="1" x1="866" y1="699" x2="866" y2="68"/>
<line opacity="0.1" stroke="#000000" stroke-width="1" x1="875" y1="699" x2="875" y2="68"/>
<line opacity="0.1" stroke="#000000" stroke-width="1" x1="884" y1="699" x2="884" y2="68"/>
<line opacity="0.1" stroke="#000000" stroke-width="1" x1="893" y1="699" x2="893" y2="68"/>
<line opacity="0.1" stroke="#000000" stroke-width="1" x1="902" y1="699" x2="902" y2="68"/>
<line opacity="0.1" stroke="#000000" stroke-width="1" x1="911" y1="699" x2="911" y2="68"/>
<line opacity="0.1" stroke="#000000" stroke-width="1" x1="920" y1="699" x2="920" y2="68"/>
<line opacity="0.1" stroke="#000000" stroke-width="1" x1="929" y1="699" x2="929" y2="68"/>
<line opacity="0.1" stroke="#000000" stroke-width="1" x1="938" y1="699" x2="938" y2="68"/>
<line opacity="0.1" stroke="#000000" stroke-width="1" x1="946" y1="699" x2="946" y2="68"/>
<line opacity="0.1" stroke="#000000" stroke-width="1" x1="955" y1="699" x2="955" y2="68"/>
<line opacity="0.1" stroke="#000000" stroke-width="1" x1="964" y1="699" x2="964" y2="68"/>
<line opacity="0.1" stroke="#000000" stroke-width="1" x1="78" y1="699" x2="973" y2="699"/>
<line opacity="0.1" stroke="#000000" stroke-width="1" x1="78" y1="687" x2="973" y2="687"/>
<line opacity="0.1" stroke="#000000" stroke-width="1" x1="78" y1="675" x2="973" y2="675"/>
<line opacity="0.1" stroke="#000000" stroke-width="1" x1="78" y1="663" x2="973" y2="663"/>
<line opacity="0.1" stroke="#000000" stroke-width="1" x1="78" y1="651" x2="973" y2="651"/>
<line opacity="0.1" stroke="#000000" stroke-width="1" x1="78" y1="639" x2="973" y2="639"/>
<line opacity="0.1" stroke="#000000" stroke-width="1" x1="78" y1="627" x2="973" y2="627"/>
<line opacity="0.1" stroke="#000000" stroke-width="1" x1="78" y1="615" x2="973" y2="615"/>
<line opacity="0.1" stroke="#000000" stroke-width="1" x1="78" y1="603" x2="973" y2="603"/>
<line opacity="0.1" stroke="#000000" stroke-width="1" x1="78" y1="591" x2="973" y2="591"/>
<line opacity="0.1" stroke="#000000" stroke-width="1" x1="78" y1="579" x2="973" y2="579"/>
<line opacity="0.1" stroke="#000000" stroke-width="1" x1="78" y1="567" x2="973" y2="567"/>
<line opacity="0.1" stroke="#000000" stroke-width="1" x1="78" y1="555" x2="973" y2="555"/>
<line opacity="0.1" stroke="#000000" stroke-width="1" x1="78" y1="543" x2="973" y2="543"/>
<line opacity="0.1" stroke="#000000" stroke-width="1" x1="78" y1="531" x2="973" y2="531"/>
<line opacity="0.1" stroke="#000000" stroke-width="1" x1="78" y1="519" x2="973" y2="519"/>
<line opacity="0.1" stroke="#000000" stroke-width="1" x1="78" y1="507" x2="973" y2="507"/>
<line opacity="0.1" stroke="#000000" stroke-width="1" x1="78" y1="495" x2="973" y2="495"/>
<line opacity="0.1" stroke="#000000" stroke-width="1" x1="78" y1="483" x2="973" y2="483"/>
<line opacity="0.1" stroke="#000000" stroke-width="1" x1="78" y1="471" x2="973" y2="471"/>
<line opacity="0.1" stroke="#000000" stroke-width="1" x1="78" y1="459" x2="973" y2="459"/>
<line opacity="0.1" stroke="#000000" stroke-width="1" x1="78" y1="447" x2="973" y2="447"/>
<line opacity="0.1" stroke="#000000" stroke-width="1" x1="78" y1="435" x2="973" y2="435"/>
<line opacity="0.1" stroke="#000000" stroke-width="1" x1="78" y1="424" x2="973" y2="424"/>
<line opacity="0.1" stroke="#000000" stroke-width="1" x1="78" y1="412" x2="973" y2="412"/>
<line opacity="0.1" stroke="#000000" stroke-width="1" x1="78" y1="400" x2="973" y2="400"/>
<line opacity="0.1" stroke="#000000" stroke-width="1" x1="78" y1="388" x2="973" y2="388"/>
<line opacity="0.1" stroke="#000000" stroke-width="1" x1="78" y1="376" x2="973" y2="376"/>
<line opacity="0.1" stroke="#000000" stroke-width="1" x1="78" y1="364" x2="973" y2="364"/>
<line opacity="0.1" stroke="#000000" stroke-width="1" x1="78" y1="352" x2="973" y2="352"/>
<line opacity="0.1" stroke="#000000" stroke-width="1" x1="78" y1="340" x2="973" y2="340"/>
<line opacity="0.1" stroke="#000000" stroke-width="1" x1="78" y1="328" x2="973" y2="328"/>
<line opacity="0.1" stroke="#000000" stroke-width="1" x1="78" y1="316" x2="973" y2="316"/>
<line opacity="0.1" stroke="#000000" stroke-width="1" x1="78" y1="304" x2="973" y2="304"/>
<line opacity="0.1" stroke="#000000" stroke-width="1" x1="78" y1="292" x2="973" y2="292"/>
<line opacity="0.1" stroke="#000000" stroke-width="1" x1="78" y1="280" x2="973" y2="280"/>
<line opacity="0.1" stroke="#000000" stroke-width="1" x1="78" y1="268" x2="973" y2="268"/>
<line opacity="0.1" stroke="#000000" stroke-width="1" x1="78" y1="256" x2="973" y2="256"/>
<line opacity="0.1" stroke="#000000" stroke-width="1" x1="78" y1="244" x2="973" y2="244"/>
<line opacity="0.1" stroke="#000000" stroke-width="1" x1="78" y1="232" x2="973" y2="232"/>
<line opacity="0.1" stroke="#000000" stroke-width="1" x1="78" y1="220" x2="973" y2="220"/>
<line opacity="0.1" stroke="#000000" stroke-width="1" x1="78" y1="208" x2="973" y2="208"/>
<line opacity="0.1" stroke="#000000" stroke-width="1" x1="78" y1="196" x2="973" y2="196"/>
<line opacity="0.1" stroke="#000000" stroke-width="1" x1="78" y1="184" x2="973" y2="184"/>
<line opacity="0.1" stroke="#000000" stroke-width="1" x1="78" y1="172" x2="973" y2="172"/>
<line opacity="0.1" stroke="#000000" stroke-width="1" x1="78" y1="161" x2="973" y2="161"/>
<line opacity="0.1" stroke="#000000" stroke-width="1" x1="78" y1="149" x2="973" y2="149"/>
<line opacity="0.1" stroke="#000000" stroke-width="1" x1="78" y1="137" x2="973" y2="137"/>
<line opacity="0.1" stroke="#000000" stroke-width="1" x1="78" y1="125" x2="973" y2="125"/>
<line opacity="0.1" stroke="#000000" stroke-width="1" x1="78" y1="113" x2="973" y2="113"/>
<line opacity="0.1" stroke="#000000" stroke-width="1" x1="78" y1="101" x2="973" y2="101"/>
<line opacity="0.1" stroke="#000000" stroke-width="1" x1="78" y1="89" x2="973" y2="89"/>
<line opacity="0.1" stroke="#000000" stroke-width="1" x1="78" y1="77" x2="973" y2="77"/>
<text x="8" y="384" dy="0.76em" text-anchor="middle" font-family="sans-serif" font-size="9.67741935483871" opacity="1" fill="#000000" transform="rotate(270, 8, 384)">
Deallocations
</text>
<text x="526" y="760" dy="-0.5ex" text-anchor="middle" font-family="sans-serif" font-size="9.67741935483871" opacity="1" fill="#000000">
Time
</text>
<line opacity="0.2" stroke="#000000" stroke-width="1" x1="96" y1="699" x2="96" y2="68"/>
<line opacity="0.2" stroke="#000000" stroke-width="1" x1="186" y1="699" x2="186" y2="68"/>
<line opacity="0.2" stroke="#000000" stroke-width="1" x1="275" y1="699" x2="275" y2="68"/>
<line opacity="0.2" stroke="#000000" stroke-width="1" x1="365" y1="699" x2="365" y2="68"/>
<line opacity="0.2" stroke="#000000" stroke-width="1" x1="454" y1="699" x2="454" y2="68"/>
<line opacity="0.2" stroke="#000000" stroke-width="1" x1="544" y1="699" x2="544" y2="68"/>
<line opacity="0.2" stroke="#000000" stroke-width="1" x1="633" y1="699" x2="633" y2="68"/>
<line opacity="0.2" stroke="#000000" stroke-width="1" x1="723" y1="699" x2="723" y2="68"/>
<line opacity="0.2" stroke="#000000" stroke-width="1" x1="812" y1="699" x2="812" y2="68"/>
<line opacity="0.2" stroke="#000000" stroke-width="1" x1="902" y1="699" x2="902" y2="68"/>
<line opacity="0.2" stroke="#000000" stroke-width="1" x1="78" y1="699" x2="973" y2="699"/>
<line opacity="0.2" stroke="#000000" stroke-width="1" x1="78" y1="579" x2="973" y2="579"/>
<line opacity="0.2" stroke="#000000" stroke-width="1" x1="78" y1="459" x2="973" y2="459"/>
<line opacity="0.2" stroke="#000000" stroke-width="1" x1="78" y1="340" x2="973" y2="340"/>
<line opacity="0.2" stroke="#000000" stroke-width="1" x1="78" y1="220" x2="973" y2="220"/>
<line opacity="0.2" stroke="#000000" stroke-width="1" x1="78" y1="101" x2="973" y2="101"/>
<polyline fill="none" opacity="1" stroke="#000000" stroke-width="1" points="77,68 77,699 "/>
<text x="68" y="699" dy="0.5ex" text-anchor="end" font-family="sans-serif" font-size="9.67741935483871" opacity="1" fill="#000000">
0.00 K
</text>
<polyline fill="none" opacity="1" stroke="#000000" stroke-width="1" points="72,699 77,699 "/>
<text x="68" y="579" dy="0.5ex" text-anchor="end" font-family="sans-serif" font-size="9.67741935483871" opacity="1" fill="#000000">
0.50 K
</text>
<polyline fill="none" opacity="1" stroke="#000000" stroke-width="1" points="72,579 77,579 "/>
<text x="68" y="459" dy="0.5ex" text-anchor="end" font-family="sans-serif" font-size="9.67741935483871" opacity="1" fill="#000000">
1.00 K
</text>
<polyline fill="none" opacity="1" stroke="#000000" stroke-width="1" points="72,459 77,459 "/>
<text x="68" y="340" dy="0.5ex" text-anchor="end" font-family="sans-serif" font-size="9.67741935483871" opacity="1" fill="#000000">
1.50 K
</text>
<polyline fill="none" opacity="1" stroke="#000000" stroke-width="1" points="72,340 77,340 "/>
<text x="68" y="220" dy="0.5ex" text-anchor="end" font-family="sans-serif" font-size="9.67741935483871" opacity="1" fill="#000000">
2.00 K
</text>
<polyline fill="none" opacity="1" stroke="#000000" stroke-width="1" points="72,220 77,220 "/>
<text x="68" y="101" dy="0.5ex" text-anchor="end" font-family="sans-serif" font-size="9.67741935483871" opacity="1" fill="#000000">
2.50 K
</text>
<polyline fill="none" opacity="1" stroke="#000000" stroke-width="1" points="72,101 77,101 "/>
<polyline fill="none" opacity="1" stroke="#000000" stroke-width="1" points="78,700 973,700 "/>
<text x="96" y="710" dy="0.76em" text-anchor="middle" font-family="sans-serif" font-size="9.67741935483871" opacity="1" fill="#000000">
02:04:17
</text>
<polyline fill="none" opacity="1" stroke="#000000" stroke-width="1" points="96,700 96,705 "/>
<text x="186" y="710" dy="0.76em" text-anchor="middle" font-family="sans-serif" font-size="9.67741935483871" opacity="1" fill="#000000">
02:04:18
</text>
<polyline fill="none" opacity="1" stroke="#000000" stroke-width="1" points="186,700 186,705 "/>
<text x="275" y="710" dy="0.76em" text-anchor="middle" font-family="sans-serif" font-size="9.67741935483871" opacity="1" fill="#000000">
02:04:19
</text>
<polyline fill="none" opacity="1" stroke="#000000" stroke-width="1" points="275,700 275,705 "/>
<text x="365" y="710" dy="0.76em" text-anchor="middle" font-family="sans-serif" font-size="9.67741935483871" opacity="1" fill="#000000">
02:04:20
</text>
<polyline fill="none" opacity="1" stroke="#000000" stroke-width="1" points="365,700 365,705 "/>
<text x="454" y="710" dy="0.76em" text-anchor="middle" font-family="sans-serif" font-size="9.67741935483871" opacity="1" fill="#000000">
02:04:21
</text>
<polyline fill="none" opacity="1" stroke="#000000" stroke-width="1" points="454,700 454,705 "/>
<text x="544" y="710" dy="0.76em" text-anchor="middle" font-family="sans-serif" font-size="9.67741935483871" opacity="1" fill="#000000">
02:04:22
</text>
<polyline fill="none" opacity="1" stroke="#000000" stroke-width="1" points="544,700 544,705 "/>
<text x="633" y="710" dy="0.76em" text-anchor="middle" font-family="sans-serif" font-size="9.67741935483871" opacity="1" fill="#000000">
02:04:23
</text>
<polyline fill="none" opacity="1" stroke="#000000" stroke-width="1" points="633,700 633,705 "/>
<text x="723" y="710" dy="0.76em" text-anchor="middle" font-family="sans-serif" font-size="9.67741935483871" opacity="1" fill="#000000">
02:04:24
</text>
<polyline fill="none" opacity="1" stroke="#000000" stroke-width="1" points="723,700 723,705 "/>
<text x="812" y="710" dy="0.76em" text-anchor="middle" font-family="sans-serif" font-size="9.67741935483871" opacity="1" fill="#000000">
02:04:25
</text>
<polyline fill="none" opacity="1" stroke="#000000" stroke-width="1" points="812,700 812,705 "/>
<text x="902" y="710" dy="0.76em" text-anchor="middle" font-family="sans-serif" font-size="9.67741935483871" opacity="1" fill="#000000">
02:04:26
</text>
<polyline fill="none" opacity="1" stroke="#000000" stroke-width="1" points="902,700 902,705 "/>
<polyline fill="none" opacity="1" stroke="#000000" stroke-width="1" points="78,67 974,67 "/>
<text x="96" y="58" dy="-0.5ex" text-anchor="middle" font-family="sans-serif" font-size="9.67741935483871" opacity="1" fill="#000000">
+265ms
</text>
<polyline fill="none" opacity="1" stroke="#000000" stroke-width="1" points="96,62 96,67 "/>
<text x="186" y="58" dy="-0.5ex" text-anchor="middle" font-family="sans-serif" font-size="9.67741935483871" opacity="1" fill="#000000">
+1s
</text>
<polyline fill="none" opacity="1" stroke="#000000" stroke-width="1" points="186,62 186,67 "/>
<text x="276" y="58" dy="-0.5ex" text-anchor="middle" font-family="sans-serif" font-size="9.67741935483871" opacity="1" fill="#000000">
+2s
</text>
<polyline fill="none" opacity="1" stroke="#000000" stroke-width="1" points="276,62 276,67 "/>
<text x="365" y="58" dy="-0.5ex" text-anchor="middle" font-family="sans-serif" font-size="9.67741935483871" opacity="1" fill="#000000">
+3s
</text>
<polyline fill="none" opacity="1" stroke="#000000" stroke-width="1" points="365,62 365,67 "/>
<text x="455" y="58" dy="-0.5ex" text-anchor="middle" font-family="sans-serif" font-size="9.67741935483871" opacity="1" fill="#000000">
+4s
</text>
<polyline fill="none" opacity="1" stroke="#000000" stroke-width="1" points="455,62 455,67 "/>
<text x="544" y="58" dy="-0.5ex" text-anchor="middle" font-family="sans-serif" font-size="9.67741935483871" opacity="1" fill="#000000">
+5s
</text>
<polyline fill="none" opacity="1" stroke="#000000" stroke-width="1" points="544,62 544,67 "/>
<text x="634" y="58" dy="-0.5ex" text-anchor="middle" font-family="sans-serif" font-size="9.67741935483871" opacity="1" fill="#000000">
+6s
</text>
<polyline fill="none" opacity="1" stroke="#000000" stroke-width="1" points="634,62 634,67 "/>
<text x="724" y="58" dy="-0.5ex" text-anchor="middle" font-family="sans-serif" font-size="9.67741935483871" opacity="1" fill="#000000">
+7s
</text>
<polyline fill="none" opacity="1" stroke="#000000" stroke-width="1" points="724,62 724,67 "/>
<text x="813" y="58" dy="-0.5ex" text-anchor="middle" font-family="sans-serif" font-size="9.67741935483871" opacity="1" fill="#000000">
+8s
</text>
<polyline fill="none" opacity="1" stroke="#000000" stroke-width="1" points="813,62 813,67 "/>
<text x="903" y="58" dy="-0.5ex" text-anchor="middle" font-family="sans-serif" font-size="9.67741935483871" opacity="1" fill="#000000">
+9s
</text>
<polyline fill="none" opacity="1" stroke="#000000" stroke-width="1" points="903,62 903,67 "/>
</svg>
