<svg width="1024" height="768" viewBox="0 0 1024 768" xmlns="http://www.w3.org/2000/svg">
<rect x="0" y="0" width="1023" height="767" opacity="1" fill="#FFFFFF" stroke="none"/>
<polygon opacity="1" fill="#E6194B" points="78,629 78,629 79,614 80,602 80,607 81,602 82,598 82,587 83,594 84,601 85,595 85,597 86,600 87,611 87,610 88,612 89,613 90,618 90,618 91,613 92,616 92,623 93,615 94,614 95,611 95,611 96,612 97,612 97,604 98,600 99,590 100,583 100,588 101,593 102,596 102,601 103,595 104,590 105,577 105,561 106,556 107,571 107,581 108,588 109,591 109,589 110,587 111,570 112,562 112,556 113,557 114,556 114,555 115,555 116,568 117,567 117,559 118,554 119,551 119,552 120,556 121,547 122,534 122,530 123,527 124,529 124,518 125,516 126,508 127,501 127,502 128,497 129,484 129,478 130,475 131,467 132,455 132,455 133,453 134,462 134,459 135,456 136,450 136,456 137,453 138,447 139,441 139,436 140,433 141,440 141,450 142,446 143,435 144,428 144,428 145,425 146,417 146,413 147,404 148,409 149,410 149,415 150,420 151,418 151,423 152,413 153,402 154,397 154,397 155,398 156,401 156,397 157,400 158,393 159,386 159,384 160,383 161,397 161,403 162,401 163,400 163,386 164,380 165,377 166,376 166,378 167,384 168,375 168,376 169,379 170,376 171,371 171,365 172,364 173,362 173,357 174,361 175,366 176,363 176,356 177,354 178,356 178,354 179,357 180,356 181,364 181,368 182,374 183,384 183,386 184,372 185,369 186,358 186,351 187,365 188,382 188,388 189,378 190,378 190,390 191,383 192,384 193,385 193,381 194,363 195,358 195,358 196,366 197,363 198,362 198,362 199,369 200,374 200,383 201,384 202,373 203,377 203,375 204,369 205,371 205,380 206,379 207,372 208,374 208,380 209,379 210,380 210,382 211,383 212,379 213,370 213,373 214,365 215,356 215,358 216,373 217,369 218,365 218,376 219,371 220,377 220,381 221,378 222,385 222,382 223,375 224,379 225,382 225,377 226,372 227,367 227,360 228,362 229,368 230,366 230,373 231,366 232,357 232,352 233,352 234,360 235,357 235,360 236,365 237,364 237,349 238,344 239,347 240,350 240,348 241,344 242,352 242,350 243,347 244,340 245,336 245,331 246,332 247,335 247,338 248,334 249,327 249,331 250,330 251,331 252,336 252,342 253,334 254,340 254,338 255,323 256,323 257,324 257,321 258,322 259,329 259,332 260,324 261,327 262,328 262,331 263,339 264,332 264,344 265,349 266,352 267,344 267,339 268,343 269,336 269,327 270,321 271,325 272,327 272,331 273,330 274,322 274,314 275,321 276,325 276,323 277,329 278,339 279,336 279,337 280,343 281,342 281,345 282,352 283,350 284,345 284,345 285,343 286,336 286,332 287,338 288,333 289,339 289,335 290,340 291,337 291,334 292,317 293,313 294,307 294,309 295,302 296,300 296,295 297,300 298,300 299,297 299,286 300,279 301,277 301,267 302,277 303,285 303,290 304,289 305,290 306,291 306,294 307,282 308,283 308,283 309,271 310,272 311,282 311,284 312,292 313,292 313,281 314,279 315,290 316,287 316,291 317,293 318,297 318,302 319,305 320,307 321,316 321,311 322,314 323,303 323,302 324,305 325,310 326,316 326,315 327,316 328,327 328,334 329,329 330,336 330,338 331,332 332,333 333,335 333,340 334,337 335,336 335,336 336,332 337,323 338,318 338,321 339,317 340,322 340,327 341,333 342,327 343,324 343,321 344,317 345,310 345,314 346,312 347,316 348,322 348,321 349,325 350,320 350,319 351,317 352,313 353,307 353,302 354,296 355,295 355,295 356,306 357,303 358,297 358,298 359,300 360,301 360,303 361,303 362,296 362,286 363,279 364,278 365,277 365,266 366,264 367,264 367,275 368,277 369,289 370,299 370,299 371,316 372,326 372,317 373,311 374,312 375,312 375,301 376,296 377,297 377,312 378,321 379,320 380,317 380,313 381,310 382,316 382,310 383,308 384,298 385,292 385,288 386,285 387,293 387,290 388,295 389,300 389,304 390,299 391,297 392,296 392,297 393,298 394,309 394,314 395,313 396,309 397,308 397,305 398,303 399,309 399,302 400,305 401,310 402,304 402,304 403,305 404,311 404,316 405,312 406,315 407,306 407,306 408,309 409,316 409,319 410,318 411,317 412,318 412,315 413,306 414,307 414,312 415,300 416,297 416,306 417,303 418,302 419,298 419,301 420,307 421,303 421,312 422,315 423,307 424,292 424,289 425,285 426,288 426,296 427,287 428,278 429,271 429,269 430,258 431,258 431,263 432,266 433,259 434,251 434,251 435,249 436,249 436,254 437,261 438,258 439,249 439,253 440,250 441,247 441,252 442,257 443,259 443,258 444,248 445,247 446,242 446,236 447,236 448,240 448,238 449,236 450,241 451,246 451,248 452,248 453,251 453,251 454,251 455,248 456,251 456,252 457,253 458,254 458,265 459,264 460,255 461,249 461,254 462,255 463,235 463,231 464,231 465,232 466,230 466,230 467,232 468,234 468,224 469,221 470,219 471,219 471,224 472,216 473,215 473,220 474,221 475,222 475,223 476,234 477,237 478,228 478,215 479,218 480,216 480,206 481,208 482,219 483,213 483,210 484,212 485,215 485,208 486,200 487,205 488,202 488,201 489,207 490,212 490,218 491,220 492,219 493,212 493,207 494,201 495,206 495,204 496,201 497,204 498,199 498,204 499,216 500,223 500,219 501,219 502,220 502,224 503,220 504,226 505,228 505,224 506,225 507,229 507,231 508,229 509,230 510,232 510,230 511,223 512,228 512,237 513,230 514,230 515,238 515,234 516,228 517,217 517,228 518,233 519,231 520,231 520,238 521,233 522,232 522,227 523,226 524,229 525,228 525,231 526,238 527,231 527,224 528,221 529,217 529,222 530,234 531,233 532,225 532,221 533,221 534,221 534,226 535,223 536,217 537,210 537,211 538,224 539,228 539,217 540,220 541,216 542,213 542,211 543,214 544,208 544,196 545,203 546,206 547,224 547,218 548,219 549,216 549,213 550,210 551,213 552,219 552,220 553,212 554,206 554,207 555,211 556,207 556,216 557,218 558,215 559,207 559,210 560,208 561,209 561,206 562,208 563,218 564,219 564,216 565,220 566,222 566,217 567,224 568,222 569,224 569,230 570,247 571,246 571,241 572,238 573,238 574,228 574,229 575,247 576,232 576,231 577,239 578,235 579,231 579,232 580,234 581,242 581,246 582,242 583,244 583,244 584,245 585,246 586,237 586,236 587,232 588,231 588,235 589,226 590,234 591,238 591,237 592,232 593,235 593,231 594,237 595,235 596,246 596,239 597,238 598,237 598,238 599,244 600,245 601,252 601,254 602,263 603,264 603,268 604,265 605,274 606,274 606,274 607,262 608,252 608,255 609,255 610,252 611,251 611,251 612,252 613,255 613,253 614,254 615,259 615,250 616,248 617,249 618,250 618,257 619,254 620,255 620,248 621,252 622,251 623,255 623,254 624,251 625,248 625,245 626,243 627,248 628,244 628,232 629,227 630,217 630,223 631,221 632,221 633,221 633,217 634,208 635,201 635,200 636,194 637,200 638,199 638,202 639,197 640,199 640,201 641,199 642,199 642,198 643,198 644,202 645,206 645,198 646,192 647,189 647,190 648,195 649,203 650,205 650,206 651,202 652,198 652,203 653,209 654,204 655,196 655,188 656,196 657,199 657,198 658,206 659,214 660,212 660,212 661,206 662,205 662,207 663,206 664,201 665,199 665,185 666,180 667,184 667,185 668,175 669,176 669,176 670,168 671,181 672,181 672,177 673,166 674,166 674,168 675,168 676,165 677,160 677,156 678,170 679,173 679,170 680,148 681,141 682,144 682,139 683,142 684,152 684,139 685,134 686,133 687,133 687,126 688,130 689,137 689,145 690,145 691,140 692,141 692,147 693,148 694,126 694,125 695,127 696,123 696,131 697,143 698,141 699,141 699,133 700,132 701,129 701,138 702,140 703,147 704,142 704,139 705,134 706,141 706,134 707,136 708,134 709,135 709,134 710,136 711,147 711,136 712,121 713,120 714,118 714,120 715,122 716,113 716,106 717,103 718,113 719,107 719,107 720,104 721,98 721,105 722,110 723,115 723,108 724,110 725,115 726,113 726,114 727,123 728,116 728,115 729,112 730,103 731,103 731,102 732,107 733,103 733,112 734,113 735,113 736,105 736,104 737,107 738,96 738,94 739,95 740,95 741,92 741,92 742,93 743,102 743,112 744,106 745,105 746,116 746,120 747,114 748,107 748,112 749,108 750,109 751,110 751,109 752,108 753,104 753,94 754,80 755,77 755,88 756,84 757,79 758,85 758,83 759,84 760,84 760,76 761,75 762,83 763,75 763,70 764,71 765,78 765,68 766,68 767,68 768,79 768,95 769,102 770,100 770,104 771,101 772,105 773,110 773,113 774,111 775,106 775,98 776,92 777,89 778,85 778,89 779,93 780,94 780,92 781,91 782,85 782,75 783,83 784,91 785,105 785,111 786,120 787,117 787,103 788,108 788,108 974,108 974,699 78,699 "/>
<polyline fill="none" opacity="1" stroke="#E6194B" stroke-width="1" points="78,629 78,629 79,614 80,602 80,607 81,602 82,598 82,587 83,594 84,601 85,595 85,597 86,600 87,611 87,610 88,612 89,613 90,618 90,618 91,613 92,616 92,623 93,615 94,614 95,611 95,611 96,612 97,612 97,604 98,600 99,590 100,583 100,588 101,593 102,596 102,601 103,595 104,590 105,577 105,561 106,556 107,571 107,581 108,588 109,591 109,589 110,587 111,570 112,562 112,556 113,557 114,556 114,555 115,555 116,568 117,567 117,559 118,554 119,551 119,552 120,556 121,547 122,534 122,530 123,527 124,529 124,518 125,516 126,508 127,501 127,502 128,497 129,484 129,478 130,475 131,467 132,455 132,455 133,453 134,462 134,459 135,456 136,450 136,456 137,453 138,447 139,441 139,436 140,433 141,440 141,450 142,446 143,435 144,428 144,428 145,425 146,417 146,413 147,404 148,409 149,410 149,415 150,420 151,418 151,423 152,413 153,402 154,397 154,397 155,398 156,401 156,397 157,400 158,393 159,386 159,384 160,383 161,397 161,403 162,401 163,400 163,386 164,380 165,377 166,376 166,378 167,384 168,375 168,376 169,379 170,376 171,371 171,365 172,364 173,362 173,357 174,361 175,366 176,363 176,356 177,354 178,356 178,354 179,357 180,356 181,364 181,368 182,374 183,384 183,386 184,372 185,369 186,358 186,351 187,365 188,382 188,388 189,378 190,378 190,390 191,383 192,384 193,385 193,381 194,363 195,358 195,358 196,366 197,363 198,362 198,362 199,369 200,374 200,383 201,384 202,373 203,377 203,375 204,369 205,371 205,380 206,379 207,372 208,374 208,380 209,379 210,380 210,382 211,383 212,379 213,370 213,373 214,365 215,356 215,358 216,373 217,369 218,365 218,376 219,371 220,377 220,381 221,378 222,385 222,382 223,375 224,379 225,382 225,377 226,372 227,367 227,360 228,362 229,368 230,366 230,373 231,366 232,357 232,352 233,352 234,360 235,357 235,360 236,365 237,364 237,349 238,344 239,347 240,350 240,348 241,344 242,352 242,350 243,347 244,340 245,336 245,331 246,332 247,335 247,338 248,334 249,327 249,331 250,330 251,331 252,336 252,342 253,334 254,340 254,338 255,323 256,323 257,324 257,321 258,322 259,329 259,332 260,324 261,327 262,328 262,331 263,339 264,332 264,344 265,349 266,352 267,344 267,339 268,343 269,336 269,327 270,321 271,325 272,327 272,331 273,330 274,322 274,314 275,321 276,325 276,323 277,329 278,339 279,336 279,337 280,343 281,342 281,345 282,352 283,350 284,345 284,345 285,343 286,336 286,332 287,338 288,333 289,339 289,335 290,340 291,337 291,334 292,317 293,313 294,307 294,309 295,302 296,300 296,295 297,300 298,300 299,297 299,286 300,279 301,277 301,267 302,277 303,285 303,290 304,289 305,290 306,291 306,294 307,282 308,283 308,283 309,271 310,272 311,282 311,284 312,292 313,292 313,281 314,279 315,290 316,287 316,291 317,293 318,297 318,302 319,305 320,307 321,316 321,311 322,314 323,303 323,302 324,305 325,310 326,316 326,315 327,316 328,327 328,334 329,329 330,336 330,338 331,332 332,333 333,335 333,340 334,337 335,336 335,336 336,332 337,323 338,318 338,321 339,317 340,322 340,327 341,333 342,327 343,324 343,321 344,317 345,310 345,314 346,312 347,316 348,322 348,321 349,325 350,320 350,319 351,317 352,313 353,307 353,302 354,296 355,295 355,295 356,306 357,303 358,297 358,298 359,300 360,301 360,303 361,303 362,296 362,286 363,279 364,278 365,277 365,266 366,264 367,264 367,275 368,277 369,289 370,299 370,299 371,316 372,326 372,317 373,311 374,312 375,312 375,301 376,296 377,297 377,312 378,321 379,320 380,317 380,313 381,310 382,316 382,310 383,308 384,298 385,292 385,288 386,285 387,293 387,290 388,295 389,300 389,304 390,299 391,297 392,296 392,297 393,298 394,309 394,314 395,313 396,309 397,308 397,305 398,303 399,309 399,302 400,305 401,310 402,304 402,304 403,305 404,311 404,316 405,312 406,315 407,306 407,306 408,309 409,316 409,319 410,318 411,317 412,318 412,315 413,306 414,307 414,312 415,300 416,297 416,306 417,303 418,302 419,298 419,301 420,307 421,303 421,312 422,315 423,307 424,292 424,289 425,285 426,288 426,296 427,287 428,278 429,271 429,269 430,258 431,258 431,263 432,266 433,259 434,251 434,251 435,249 436,249 436,254 437,261 438,258 439,249 439,253 440,250 441,247 441,252 442,257 443,259 443,258 444,248 445,247 446,242 446,236 447,236 448,240 448,238 449,236 450,241 451,246 451,248 452,248 453,251 453,251 454,251 455,248 456,251 456,252 457,253 458,254 458,265 459,264 460,255 461,249 461,254 462,255 463,235 463,231 464,231 465,232 466,230 466,230 467,232 468,234 468,224 469,221 470,219 471,219 471,224 472,216 473,215 473,220 474,221 475,222 475,223 476,234 477,237 478,228 478,215 479,218 480,216 480,206 481,208 482,219 483,213 483,210 484,212 485,215 485,208 486,200 487,205 488,202 488,201 489,207 490,212 490,218 491,220 492,219 493,212 493,207 494,201 495,206 495,204 496,201 497,204 498,199 498,204 499,216 500,223 500,219 501,219 502,220 502,224 503,220 504,226 505,228 505,224 506,225 507,229 507,231 508,229 509,230 510,232 510,230 511,223 512,228 512,237 513,230 514,230 515,238 515,234 516,228 517,217 517,228 518,233 519,231 520,231 520,238 521,233 522,232 522,227 523,226 524,229 525,228 525,231 526,238 527,231 527,224 528,221 529,217 529,222 530,234 531,233 532,225 532,221 533,221 534,221 534,226 535,223 536,217 537,210 537,211 538,224 539,228 539,217 540,220 541,216 542,213 542,211 543,214 544,208 544,196 545,203 546,206 547,224 547,218 548,219 549,216 549,213 550,210 551,213 552,219 552,220 553,212 554,206 554,207 555,211 556,207 556,216 557,218 558,215 559,207 559,210 560,208 561,209 561,206 562,208 563,218 564,219 564,216 565,220 566,222 566,217 567,224 568,222 569,224 569,230 570,247 571,246 571,241 572,238 573,238 574,228 574,229 575,247 576,232 576,231 577,239 578,235 579,231 579,232 580,234 581,242 581,246 582,242 583,244 583,244 584,245 585,246 586,237 586,236 587,232 588,231 588,235 589,226 590,234 591,238 591,237 592,232 593,235 593,231 594,237 595,235 596,246 596,239 597,238 598,237 598,238 599,244 600,245 601,252 601,254 602,263 603,264 603,268 604,265 605,274 606,274 606,274 607,262 608,252 608,255 609,255 610,252 611,251 611,251 612,252 613,255 613,253 614,254 615,259 615,250 616,248 617,249 618,250 618,257 619,254 620,255 620,248 621,252 622,251 623,255 623,254 624,251 625,248 625,245 626,243 627,248 628,244 628,232 629,227 630,217 630,223 631,221 632,221 633,221 633,217 634,208 635,201 635,200 636,194 637,200 638,199 638,202 639,197 640,199 640,201 641,199 642,199 642,198 643,198 644,202 645,206 645,198 646,192 647,189 647,190 648,195 649,203 650,205 650,206 651,202 652,198 652,203 653,209 654,204 655,196 655,188 656,196 657,199 657,198 658,206 659,214 660,212 660,212 661,206 662,205 662,207 663,206 664,201 665,199 665,185 666,180 667,184 667,185 668,175 669,176 669,176 670,168 671,181 672,181 672,177 673,166 674,166 674,168 675,168 676,165 677,160 677,156 678,170 679,173 679,170 680,148 681,141 682,144 682,139 683,142 684,152 684,139 685,134 686,133 687,133 687,126 688,130 689,137 689,145 690,145 691,140 692,141 692,147 693,148 694,126 694,125 695,127 696,123 696,131 697,143 698,141 699,141 699,133 700,132 701,129 701,138 702,140 703,147 704,142 704,139 705,134 706,141 706,134 707,136 708,134 709,135 709,134 710,136 711,147 711,136 712,121 713,120 714,118 714,120 715,122 716,113 716,106 717,103 718,113 719,107 719,107 720,104 721,98 721,105 722,110 723,115 723,108 724,110 725,115 726,113 726,114 727,123 728,116 728,115 729,112 730,103 731,103 731,102 732,107 733,103 733,112 734,113 735,113 736,105 736,104 737,107 738,96 738,94 739,95 740,95 741,92 741,92 742,93 743,102 743,112 744,106 745,105 746,116 746,120 747,114 748,107 748,112 749,108 750,109 751,110 751,109 752,108 753,104 753,94 754,80 755,77 755,88 756,84 757,79 758,85 758,83 759,84 760,84 760,76 761,75 762,83 763,75 763,70 764,71 765,78 765,68 766,68 767,68 768,79 768,95 769,102 770,100 770,104 771,101 772,105 773,110 773,113 774,111 775,106 775,98 776,92 777,89 778,85 778,89 779,93 780,94 780,92 781,91 782,85 782,75 783,83 784,91 785,105 785,111 786,120 787,117 787,103 788,108 788,108 974,108 "/>
<line opacity="0.1" stroke="#000000" stroke-width="1" x1="83" y1="699" x2="83" y2="67"/>
<line opacity="0.1" stroke="#000000" stroke-width="1" x1="92" y1="699" x2="92" y2="67"/>
<line opacity="0.1" stroke="#000000" stroke-width="1" x1="101" y1="699" x2="101" y2="67"/>
<line opacity="0.1" stroke="#000000" stroke-width="1" x1="110" y1="699" x2="110" y2="67"/>
<line opacity="0.1" stroke="#000000" stroke-width="1" x1="120" y1="699" x2="120" y2="67"/>
<line opacity="0.1" stroke="#000000" stroke-width="1" x1="129" y1="699" x2="129" y2="67"/>
<line opacity="0.1" stroke="#000000" stroke-width="1" x1="138" y1="699" x2="138" y2="67"/>
<line opacity="0.1" stroke="#000000" stroke-width="1" x1="147" y1="699" x2="147" y2="67"/>
<line opacity="0.1" stroke="#000000" stroke-width="1" x1="157" y1="699" x2="157" y2="67"/>
<line opacity="0.1" stroke="#000000" stroke-width="1" x1="166" y1="699" x2="166" y2="67"/>
<line opacity="0.1" stroke="#000000" stroke-width="1" x1="175" y1="699" x2="175" y2="67"/>
<line opacity="0.1" stroke="#000000" stroke-width="1" x1="184" y1="699" x2="184" y2="67"/>
<line opacity="0.1" stroke="#000000" stroke-width="1" x1="194" y1="699" x2="194" y2="67"/>
<line opacity="0.1" stroke="#000000" stroke-width="1" x1="203" y1="699" x2="203" y2="67"/>
<line opacity="0.1" stroke="#000000" stroke-width="1" x1="212" y1="699" x2="212" y2="67"/>
<line opacity="0.1" stroke="#000000" stroke-width="1" x1="221" y1="699" x2="221" y2="67"/>
<line opacity="0.1" stroke="#000000" stroke-width="1" x1="231" y1="699" x2="231" y2="67"/>
<line opacity="0.1" stroke="#000000" stroke-width="1" x1="240" y1="699" x2="240" y2="67"/>
<line opacity="0.1" stroke="#000000" stroke-width="1" x1="249" y1="699" x2="249" y2="67"/>
<line opacity="0.1" stroke="#000000" stroke-width="1" x1="258" y1="699" x2="258" y2="67"/>
<line opacity="0.1" stroke="#000000" stroke-width="1" x1="268" y1="699" x2="268" y2="67"/>
<line opacity="0.1" stroke="#000000" stroke-width="1" x1="277" y1="699" x2="277" y2="67"/>
<line opacity="0.1" stroke="#000000" stroke-width="1" x1="286" y1="699" x2="286" y2="67"/>
<line opacity="0.1" stroke="#000000" stroke-width="1" x1="296" y1="699" x2="296" y2="67"/>
<line opacity="0.1" stroke="#000000" stroke-width="1" x1="305" y1="699" x2="305" y2="67"/>
<line opacity="0.1" stroke="#000000" stroke-width="1" x1="314" y1="699" x2="314" y2="67"/>
<line opacity="0.1" stroke="#000000" stroke-width="1" x1="323" y1="699" x2="323" y2="67"/>
<line opacity="0.1" stroke="#000000" stroke-width="1" x1="333" y1="699" x2="333" y2="67"/>
<line opacity="0.1" stroke="#000000" stroke-width="1" x1="342" y1="699" x2="342" y2="67"/>
<line opacity="0.1" stroke="#000000" stroke-width="1" x1="351" y1="699" x2="351" y2="67"/>
<line opacity="0.1" stroke="#000000" stroke-width="1" x1="360" y1="699" x2="360" y2="67"/>
<line opacity="0.1" stroke="#000000" stroke-width="1" x1="370" y1="699" x2="370" y2="67"/>
<line opacity="0.1" stroke="#000000" stroke-width="1" x1="379" y1="699" x2="379" y2="67"/>
<line opacity="0.1" stroke="#000000" stroke-width="1" x1="388" y1="699" x2="388" y2="67"/>
<line opacity="0.1" stroke="#000000" stroke-width="1" x1="397" y1="699" x2="397" y2="67"/>
<line opacity="0.1" stroke="#000000" stroke-width="1" x1="407" y1="699" x2="407" y2="67"/>
<line opacity="0.1" stroke="#000000" stroke-width="1" x1="416" y1="699" x2="416" y2="67"/>
<line opacity="0.1" stroke="#000000" stroke-width="1" x1="425" y1="699" x2="425" y2="67"/>
<line opacity="0.1" stroke="#000000" stroke-width="1" x1="434" y1="699" x2="434" y2="67"/>
<line opacity="0.1" stroke="#000000" stroke-width="1" x1="444" y1="699" x2="444" y2="67"/>
<line opacity="0.1" stroke="#000000" stroke-width="1" x1="453" y1="699" x2="453" y2="67"/>
<line opacity="0.1" stroke="#000000" stroke-width="1" x1="462" y1="699" x2="462" y2="67"/>
<line opacity="0.1" stroke="#000000" stroke-width="1" x1="472" y1="699" x2="472" y2="67"/>
<line opacity="0.1" stroke="#000000" stroke-width="1" x1="481" y1="699" x2="481" y2="67"/>
<line opacity="0.1" stroke="#000000" stroke-width="1" x1="490" y1="699" x2="490" y2="67"/>
<line opacity="0.1" stroke="#000000" stroke-width="1" x1="499" y1="699" x2="499" y2="67"/>
<line opacity="0.1" stroke="#000000" stroke-width="1" x1="509" y1="699" x2="509" y2="67"/>
<line opacity="0.1" stroke="#000000" stroke-width="1" x1="518" y1="699" x2="518" y2="67"/>
<line opacity="0.1" stroke="#000000" stroke-width="1" x1="527" y1="699" x2="527" y2="67"/>
<line opacity="0.1" stroke="#000000" stroke-width="1" x1="536" y1="699" x2="536" y2="67"/>
<line opacity="0.1" stroke="#000000" stroke-width="1" x1="546" y1="699" x2="546" y2="67"/>
<line opacity="0.1" stroke="#000000" stroke-width="1" x1="555" y1="699" x2="555" y2="67"/>
<line opacity="0.1" stroke="#000000" stroke-width="1" x1="564" y1="699" x2="564" y2="67"/>
<line opacity="0.1" stroke="#000000" stroke-width="1" x1="573" y1="699" x2="573" y2="67"/>
<line opacity="0.1" stroke="#000000" stroke-width="1" x1="583" y1="699" x2="583" y2="67"/>
<line opacity="0.1" stroke="#000000" stroke-width="1" x1="592" y1="699" x2="592" y2="67"/>
<line opacity="0.1" stroke="#000000" stroke-width="1" x1="601" y1="699" x2="601" y2="67"/>
<line opacity="0.1" stroke="#000000" stroke-width="1" x1="610" y1="699" x2="610" y2="67"/>
<line opacity="0.1" stroke="#000000" stroke-width="1" x1="620" y1="699" x2="620" y2="67"/>
<line opacity="0.1" stroke="#000000" stroke-width="1" x1="629" y1="699" x2="629" y2="67"/>
<line opacity="0.1" stroke="#000000" stroke-width="1" x1="638" y1="699" x2="638" y2="67"/>
<line opacity="0.1" stroke="#000000" stroke-width="1" x1="647" y1="699" x2="647" y2="67"/>
<line opacity="0.1" stroke="#000000" stroke-width="1" x1="657" y1="699" x2="657" y2="67"/>
<line opacity="0.1" stroke="#000000" stroke-width="1" x1="666" y1="699" x2="666" y2="67"/>
<line opacity="0.1" stroke="#000000" stroke-width="1" x1="675" y1="699" x2="675" y2="67"/>
<line opacity="0.1" stroke="#000000" stroke-width="1" x1="685" y1="699" x2="685" y2="67"/>
<line opacity="0.1" stroke="#000000" stroke-width="1" x1="694" y1="699" x2="694" y2="67"/>
<line opacity="0.1" stroke="#000000" stroke-width="1" x1="703" y1="699" x2="703" y2="67"/>
<line opacity="0.1" stroke="#000000" stroke-width="1" x1="712" y1="699" x2="712" y2="67"/>
<line opacity="0.1" stroke="#000000" stroke-width="1" x1="722" y1="699" x2="722" y2="67"/>
<line opacity="0.1" stroke="#000000" stroke-width="1" x1="731" y1="699" x2="731" y2="67"/>
<line opacity="0.1" stroke="#000000" stroke-width="1" x1="740" y1="699" x2="740" y2="67"/>
<line opacity="0.1" stroke="#000000" stroke-width="1" x1="749" y1="699" x2="749" y2="67"/>
<line opacity="0.1" stroke="#000000" stroke-width="1" x1="759" y1="699" x2="759" y2="67"/>
<line opacity="0.1" stroke="#000000" stroke-width="1" x1="768" y1="699" x2="768" y2="67"/>
<line opacity="0.1" stroke="#000000" stroke-width="1" x1="777" y1="699" x2="777" y2="67"/>
<line opacity="0.1" stroke="#000000" stroke-width="1" x1="786" y1="699" x2="786" y2="67"/>
<line opacity="0.1" stroke="#000000" stroke-width="1" x1="796" y1="699" x2="796" y2="67"/>
<line opacity="0.1" stroke="#000000" stroke-width="1" x1="805" y1="699" x2="805" y2="67"/>
<line opacity="0.1" stroke="#000000" stroke-width="1" x1="814" y1="699" x2="814" y2="67"/>
<line opacity="0.1" stroke="#000000" stroke-width="1" x1="823" y1="699" x2="823" y2="67"/>
<line opacity="0.1" stroke="#000000" stroke-width="1" x1="833" y1="699" x2="833" y2="67"/>
<line opacity="0.1" stroke="#000000" stroke-width="1" x1="842" y1="699" x2="842" y2="67"/>
<line opacity="0.1" stroke="#000000" stroke-width="1" x1="851" y1="699" x2="851" y2="67"/>
<line opacity="0.1" stroke="#000000" stroke-width="1" x1="861" y1="699" x2="861" y2="67"/>
<line opacity="0.1" stroke="#000000" stroke-width="1" x1="870" y1="699" x2="870" y2="67"/>
<line opacity="0.1" stroke="#000000" stroke-width="1" x1="879" y1="699" x2="879" y2="67"/>
<line opacity="0.1" stroke="#000000" stroke-width="1" x1="888" y1="699" x2="888" y2="67"/>
<line opacity="0.1" stroke="#000000" stroke-width="1" x1="898" y1="699" x2="898" y2="67"/>
<line opacity="0.1" stroke="#000000" stroke-width="1" x1="907" y1="699" x2="907" y2="67"/>
<line opacity="0.1" stroke="#000000" stroke-width="1" x1="916" y1="699" x2="916" y2="67"/>
<line opacity="0.1" stroke="#000000" stroke-width="1" x1="925" y1="699" x2="925" y2="67"/>
<line opacity="0.1" stroke="#000000" stroke-width="1" x1="935" y1="699" x2="935" y2="67"/>
<line opacity="0.1" stroke="#000000" stroke-width="1" x1="944" y1="699" x2="944" y2="67"/>
<line opacity="0.1" stroke="#000000" stroke-width="1" x1="953" y1="699" x2="953" y2="67"/>
<line opacity="0.1" stroke="#000000" stroke-width="1" x1="962" y1="699" x2="962" y2="67"/>
<line opacity="0.1" stroke="#000000" stroke-width="1" x1="972" y1="699" x2="972" y2="67"/>
<line opacity="0.1" stroke="#000000" stroke-width="1" x1="78" y1="699" x2="974" y2="699"/>
<line opacity="0.1" stroke="#000000" stroke-width="1" x1="78" y1="691" x2="974" y2="691"/>
<line opacity="0.1" stroke="#000000" stroke-width="1" x1="78" y1="684" x2="974" y2="684"/>
<line opacity="0.1" stroke="#000000" stroke-width="1" x1="78" y1="677" x2="974" y2="677"/>
<line opacity="0.1" stroke="#000000" stroke-width="1" x1="78" y1="670" x2="974" y2="670"/>
<line opacity="0.1" stroke="#000000" stroke-width="1" x1="78" y1="662" x2="974" y2="662"/>
<line opacity="0.1" stroke="#000000" stroke-width="1" x1="78" y1="655" x2="974" y2="655"/>
<line opacity="0.1" stroke="#000000" stroke-width="1" x1="78" y1="648" x2="974" y2="648"/>
<line opacity="0.1" stroke="#000000" stroke-width="1" x1="78" y1="641" x2="974" y2="641"/>
<line opacity="0.1" stroke="#000000" stroke-width="1" x1="78" y1="634" x2="974" y2="634"/>
<line opacity="0.1" stroke="#000000" stroke-width="1" x1="78" y1="626" x2="974" y2="626"/>
<line opacity="0.1" stroke="#000000" stroke-width="1" x1="78" y1="619" x2="974" y2="619"/>
<line opacity="0.1" stroke="#000000" stroke-width="1" x1="78" y1="612" x2="974" y2="612"/>
<line opacity="0.1" stroke="#000000" stroke-width="1" x1="78" y1="605" x2="974" y2="605"/>
<line opacity="0.1" stroke="#000000" stroke-width="1" x1="78" y1="597" x2="974" y2="597"/>
<line opacity="0.1" stroke="#000000" stroke-width="1" x1="78" y1="590" x2="974" y2="590"/>
<line opacity="0.1" stroke="#000000" stroke-width="1" x1="78" y1="583" x2="974" y2="583"/>
<line opacity="0.1" stroke="#000000" stroke-width="1" x1="78" y1="576" x2="974" y2="576"/>
<line opacity="0.1" stroke="#000000" stroke-width="1" x1="78" y1="569" x2="974" y2="569"/>
<line opacity="0.1" stroke="#000000" stroke-width="1" x1="78" y1="561" x2="974" y2="561"/>
<line opacity="0.1" stroke="#000000" stroke-width="1" x1="78" y1="554" x2="974" y2="554"/>
<line opacity="0.1" stroke="#000000" stroke-width="1" x1="78" y1="547" x2="974" y2="547"/>
<line opacity="0.1" stroke="#000000" stroke-width="1" x1="78" y1="540" x2="974" y2="540"/>
<line opacity="0.1" stroke="#000000" stroke-width="1" x1="78" y1="533" x2="974" y2="533"/>
<line opacity="0.1" stroke="#000000" stroke-width="1" x1="78" y1="525" x2="974" y2="525"/>
<line opacity="0.1" stroke="#000000" stroke-width="1" x1="78" y1="518" x2="974" y2="518"/>
<line opacity="0.1" stroke="#000000" stroke-width="1" x1="78" y1="511" x2="974" y2="511"/>
<line opacity="0.1" stroke="#000000" stroke-width="1" x1="78" y1="504" x2="974" y2="504"/>
<line opacity="0.1" stroke="#000000" stroke-width="1" x1="78" y1="496" x2="974" y2="496"/>
<line opacity="0.1" stroke="#000000" stroke-width="1" x1="78" y1="489" x2="974" y2="489"/>
<line opacity="0.1" stroke="#000000" stroke-width="1" x1="78" y1="482" x2="974" y2="482"/>
<line opacity="0.1" stroke="#000000" stroke-width="1" x1="78" y1="475" x2="974" y2="475"/>
<line opacity="0.1" stroke="#000000" stroke-width="1" x1="78" y1="468" x2="974" y2="468"/>
<line opacity="0.1" stroke="#000000" stroke-width="1" x1="78" y1="460" x2="974" y2="460"/>
<line opacity="0.1" stroke="#000000" stroke-width="1" x1="78" y1="453" x2="974" y2="453"/>
<line opacity="0.1" stroke="#000000" stroke-width="1" x1="78" y1="446" x2="974" y2="446"/>
<line opacity="0.1" stroke="#000000" stroke-width="1" x1="78" y1="439" x2="974" y2="439"/>
<line opacity="0.1" stroke="#000000" stroke-width="1" x1="78" y1="432" x2="974" y2="432"/>
<line opacity="0.1" stroke="#000000" stroke-width="1" x1="78" y1="424" x2="974" y2="424"/>
<line opacity="0.1" stroke="#000000" stroke-width="1" x1="78" y1="417" x2="974" y2="417"/>
<line opacity="0.1" stroke="#000000" stroke-width="1" x1="78" y1="410" x2="974" y2="410"/>
<line opacity="0.1" stroke="#000000" stroke-width="1" x1="78" y1="403" x2="974" y2="403"/>
<line opacity="0.1" stroke="#000000" stroke-width="1" x1="78" y1="395" x2="974" y2="395"/>
<line opacity="0.1" stroke="#000000" stroke-width="1" x1="78" y1="388" x2="974" y2="388"/>
<line opacity="0.1" stroke="#000000" stroke-width="1" x1="78" y1="381" x2="974" y2="381"/>
<line opacity="0.1" stroke="#000000" stroke-width="1" x1="78" y1="374" x2="974" y2="374"/>
<line opacity="0.1" stroke="#000000" stroke-width="1" x1="78" y1="367" x2="974" y2="367"/>
<line opacity="0.1" stroke="#000000" stroke-width="1" x1="78" y1="359" x2="974" y2="359"/>
<line opacity="0.1" stroke="#000000" stroke-width="1" x1="78" y1="352" x2="974" y2="352"/>
<line opacity="0.1" stroke="#000000" stroke-width="1" x1="78" y1="345" x2="974" y2="345"/>
<line opacity="0.1" stroke="#000000" stroke-width="1" x1="78" y1="338" x2="974" y2="338"/>
<line opacity="0.1" stroke="#000000" stroke-width="1" x1="78" y1="331" x2="974" y2="331"/>
<line opacity="0.1" stroke="#000000" stroke-width="1" x1="78" y1="323" x2="974" y2="323"/>
<line opacity="0.1" stroke="#000000" stroke-width="1" x1="78" y1="316" x2="974" y2="316"/>
<line opacity="0.1" stroke="#000000" stroke-width="1" x1="78" y1="309" x2="974" y2="309"/>
<line opacity="0.1" stroke="#000000" stroke-width="1" x1="78" y1="302" x2="974" y2="302"/>
<line opacity="0.1" stroke="#000000" stroke-width="1" x1="78" y1="294" x2="974" y2="294"/>
<line opacity="0.1" stroke="#000000" stroke-width="1" x1="78" y1="287" x2="974" y2="287"/>
<line opacity="0.1" stroke="#000000" stroke-width="1" x1="78" y1="280" x2="974" y2="280"/>
<line opacity="0.1" stroke="#000000" stroke-width="1" x1="78" y1="273" x2="974" y2="273"/>
<line opacity="0.1" stroke="#000000" stroke-width="1" x1="78" y1="266" x2="974" y2="266"/>
<line opacity="0.1" stroke="#000000" stroke-width="1" x1="78" y1="258" x2="974" y2="258"/>
<line opacity="0.1" stroke="#000000" stroke-width="1" x1="78" y1="251" x2="974" y2="251"/>
<line opacity="0.1" stroke="#000000" stroke-width="1" x1="78" y1="244" x2="974" y2="244"/>
<line opacity="0.1" stroke="#000000" stroke-width="1" x1="78" y1="237" x2="974" y2="237"/>
<line opacity="0.1" stroke="#000000" stroke-width="1" x1="78" y1="229" x2="974" y2="229"/>
<line opacity="0.1" stroke="#000000" stroke-width="1" x1="78" y1="222" x2="974" y2="222"/>
<line opacity="0.1" stroke="#000000" stroke-width="1" x1="78" y1="215" x2="974" y2="215"/>
<line opacity="0.1" stroke="#000000" stroke-width="1" x1="78" y1="208" x2="974" y2="208"/>
<line opacity="0.1" stroke="#000000" stroke-width="1" x1="78" y1="201" x2="974" y2="201"/>
<line opacity="0.1" stroke="#000000" stroke-width="1" x1="78" y1="193" x2="974" y2="193"/>
<line opacity="0.1" stroke="#000000" stroke-width="1" x1="78" y1="186" x2="974" y2="186"/>
<line opacity="0.1" stroke="#000000" stroke-width="1" x1="78" y1="179" x2="974" y2="179"/>
<line opacity="0.1" stroke="#000000" stroke-width="1" x1="78" y1="172" x2="974" y2="172"/>
<line opacity="0.1" stroke="#000000" stroke-width="1" x1="78" y1="165" x2="974" y2="165"/>
<line opacity="0.1" stroke="#000000" stroke-width="1" x1="78" y1="157" x2="974" y2="157"/>
<line opacity="0.1" stroke="#000000" stroke-width="1" x1="78" y1="150" x2="974" y2="150"/>
<line opacity="0.1" stroke="#000000" stroke-width="1" x1="78" y1="143" x2="974" y2="143"/>
<line opacity="0.1" stroke="#000000" stroke-width="1" x1="78" y1="136" x2="974" y2="136"/>
<line opacity="0.1" stroke="#000000" stroke-width="1" x1="78" y1="128" x2="974" y2="128"/>
<line opacity="0.1" stroke="#000000" stroke-width="1" x1="78" y1="121" x2="974" y2="121"/>
<line opacity="0.1" stroke="#000000" stroke-width="1" x1="78" y1="114" x2="974" y2="114"/>
<line opacity="0.1" stroke="#000000" stroke-width="1" x1="78" y1="107" x2="974" y2="107"/>
<line opacity="0.1" stroke="#000000" stroke-width="1" x1="78" y1="100" x2="974" y2="100"/>
<line opacity="0.1" stroke="#000000" stroke-width="1" x1="78" y1="92" x2="974" y2="92"/>
<line opacity="0.1" stroke="#000000" stroke-width="1" x1="78" y1="85" x2="974" y2="85"/>
<line opacity="0.1" stroke="#000000" stroke-width="1" x1="78" y1="78" x2="974" y2="78"/>
<line opacity="0.1" stroke="#000000" stroke-width="1" x1="78" y1="71" x2="974" y2="71"/>
<text x="8" y="384" dy="0.76em" text-anchor="middle" font-family="sans-serif" font-size="9.67741935483871" opacity="1" fill="#000000" transform="rotate(270, 8, 384)">
Memory usage
</text>
<text x="526" y="760" dy="-0.5ex" text-anchor="middle" font-family="sans-serif" font-size="9.67741935483871" opacity="1" fill="#000000">
Time
</text>
<line opacity="0.2" stroke="#000000" stroke-width="1" x1="166" y1="699" x2="166" y2="67"/>
<line opacity="0.2" stroke="#000000" stroke-width="1" x1="258" y1="699" x2="258" y2="67"/>
<line opacity="0.2" stroke="#000000" stroke-width="1" x1="351" y1="699" x2="351" y2="67"/>
<line opacity="0.2" stroke="#000000" stroke-width="1" x1="444" y1="699" x2="444" y2="67"/>
<line opacity="0.2" stroke="#000000" stroke-width="1" x1="536" y1="699" x2="536" y2="67"/>
<line opacity="0.2" stroke="#000000" stroke-width="1" x1="629" y1="699" x2="629" y2="67"/>
<line opacity="0.2" stroke="#000000" stroke-width="1" x1="722" y1="699" x2="722" y2="67"/>
<line opacity="0.2" stroke="#000000" stroke-width="1" x1="814" y1="699" x2="814" y2="67"/>
<line opacity="0.2" stroke="#000000" stroke-width="1" x1="907" y1="699" x2="907" y2="67"/>
<line opacity="0.2" stroke="#000000" stroke-width="1" x1="78" y1="699" x2="974" y2="699"/>
<line opacity="0.2" stroke="#000000" stroke-width="1" x1="78" y1="626" x2="974" y2="626"/>
<line opacity="0.2" stroke="#000000" stroke-width="1" x1="78" y1="554" x2="974" y2="554"/>
<line opacity="0.2" stroke="#000000" stroke-width="1" x1="78" y1="482" x2="974" y2="482"/>
<line opacity="0.2" stroke="#000000" stroke-width="1" x1="78" y1="410" x2="974" y2="410"/>
<line opacity="0.2" stroke="#000000" stroke-width="1" x1="78" y1="338" x2="974" y2="338"/>
<line opacity="0.2" stroke="#000000" stroke-width="1" x1="78" y1="266" x2="974" y2="266"/>
<line opacity="0.2" stroke="#000000" stroke-width="1" x1="78" y1="193" x2="974" y2="193"/>
<line opacity="0.2" stroke="#000000" stroke-width="1" x1="78" y1="121" x2="974" y2="121"/>
<polyline fill="none" opacity="1" stroke="#000000" stroke-width="1" points="77,68 77,700 "/>
<text x="68" y="699" dy="0.5ex" text-anchor="end" font-family="sans-serif" font-size="9.67741935483871" opacity="1" fill="#000000">
0 KB
</text>
<polyline fill="none" opacity="1" stroke="#000000" stroke-width="1" points="72,699 77,699 "/>
<text x="68" y="626" dy="0.5ex" text-anchor="end" font-family="sans-serif" font-size="9.67741935483871" opacity="1" fill="#000000">
97 KB
</text>
<polyline fill="none" opacity="1" stroke="#000000" stroke-width="1" points="72,626 77,626 "/>
<text x="68" y="554" dy="0.5ex" text-anchor="end" font-family="sans-serif" font-size="9.67741935483871" opacity="1" fill="#000000">
195 KB
</text>
<polyline fill="none" opacity="1" stroke="#000000" stroke-width="1" points="72,554 77,554 "/>
<text x="68" y="482" dy="0.5ex" text-anchor="end" font-family="sans-serif" font-size="9.67741935483871" opacity="1" fill="#000000">
292 KB
</text>
<polyline fill="none" opacity="1" stroke="#000000" stroke-width="1" points="72,482 77,482 "/>
<text x="68" y="410" dy="0.5ex" text-anchor="end" font-family="sans-serif" font-size="9.67741935483871" opacity="1" fill="#000000">
390 KB
</text>
<polyline fill="none" opacity="1" stroke="#000000" stroke-width="1" points="72,410 77,410 "/>
<text x="68" y="338" dy="0.5ex" text-anchor="end" font-family="sans-serif" font-size="9.67741935483871" opacity="1" fill="#000000">
488 KB
</text>
<polyline fill="none" opacity="1" stroke="#000000" stroke-width="1" points="72,338 77,338 "/>
<text x="68" y="266" dy="0.5ex" text-anchor="end" font-family="sans-serif" font-size="9.67741935483871" opacity="1" fill="#000000">
585 KB
</text>
<polyline fill="none" opacity="1" stroke="#000000" stroke-width="1" points="72,266 77,266 "/>
<text x="68" y="193" dy="0.5ex" text-anchor="end" font-family="sans-serif" font-size="9.67741935483871" opacity="1" fill="#000000">
683 KB
</text>
<polyline fill="none" opacity="1" stroke="#000000" stroke-width="1" points="72,193 77,193 "/>
<text x="68" y="121" dy="0.5ex" text-anchor="end" font-family="sans-serif" font-size="9.67741935483871" opacity="1" fill="#000000">
781 KB
</text>
<polyline fill="none" opacity="1" stroke="#000000" stroke-width="1" points="72,121 77,121 "/>
<polyline fill="none" opacity="1" stroke="#000000" stroke-width="1" points="78,700 974,700 "/>
<text x="166" y="710" dy="0.76em" text-anchor="middle" font-family="sans-serif" font-size="9.67741935483871" opacity="1" fill="#000000">
06:26:08
</text>
<polyline fill="none" opacity="1" stroke="#000000" stroke-width="1" points="166,700 166,705 "/>
<text x="258" y="710" dy="0.76em" text-anchor="middle" font-family="sans-serif" font-size="9.67741935483871" opacity="1" fill="#000000">
06:26:09
</text>
<polyline fill="none" opacity="1" stroke="#000000" stroke-width="1" points="258,700 258,705 "/>
<text x="351" y="710" dy="0.76em" text-anchor="middle" font-family="sans-serif" font-size="9.67741935483871" opacity="1" fill="#000000">
06:26:10
</text>
<polyline fill="none" opacity="1" stroke="#000000" stroke-width="1" points="351,700 351,705 "/>
<text x="444" y="710" dy="0.76em" text-anchor="middle" font-family="sans-serif" font-size="9.67741935483871" opacity="1" fill="#000000">
06:26:11
</text>
<polyline fill="none" opacity="1" stroke="#000000" stroke-width="1" points="444,700 444,705 "/>
<text x="536" y="710" dy="0.76em" text-anchor="middle" font-family="sans-serif" font-size="9.67741935483871" opacity="1" fill="#000000">
06:26:12
</text>
<polyline fill="none" opacity="1" stroke="#000000" stroke-width="1" points="536,700 536,705 "/>
<text x="629" y="710" dy="0.76em" text-anchor="middle" font-family="sans-serif" font-size="9.67741935483871" opacity="1" fill="#000000">
06:26:13
</text>
<polyline fill="none" opacity="1" stroke="#000000" stroke-width="1" points="629,700 629,705 "/>
<text x="722" y="710" dy="0.76em" text-anchor="middle" font-family="sans-serif" font-size="9.67741935483871" opacity="1" fill="#000000">
06:26:14
</text>
<polyline fill="none" opacity="1" stroke="#000000" stroke-width="1" points="722,700 722,705 "/>
<text x="814" y="710" dy="0.76em" text-anchor="middle" font-family="sans-serif" font-size="9.67741935483871" opacity="1" fill="#000000">
06:26:15
</text>
<polyline fill="none" opacity="1" stroke="#000000" stroke-width="1" points="814,700 814,705 "/>
<text x="907" y="710" dy="0.76em" text-anchor="middle" font-family="sans-serif" font-size="9.67741935483871" opacity="1" fill="#000000">
06:26:16
</text>
<polyline fill="none" opacity="1" stroke="#000000" stroke-width="1" points="907,700 907,705 "/>
<polyline fill="none" opacity="1" stroke="#000000" stroke-width="1" points="78,67 974,67 "/>
<text x="166" y="58" dy="-0.5ex" text-anchor="middle" font-family="sans-serif" font-size="9.67741935483871" opacity="1" fill="#000000">
+954ms
</text>
<polyline fill="none" opacity="1" stroke="#000000" stroke-width="1" points="166,62 166,67 "/>
<text x="258" y="58" dy="-0.5ex" text-anchor="middle" font-family="sans-serif" font-size="9.67741935483871" opacity="1" fill="#000000">
+1s
</text>
<polyline fill="none" opacity="1" stroke="#000000" stroke-width="1" points="258,62 258,67 "/>
<text x="351" y="58" dy="-0.5ex" text-anchor="middle" font-family="sans-serif" font-size="9.67741935483871" opacity="1" fill="#000000">
+2s
</text>
<polyline fill="none" opacity="1" stroke="#000000" stroke-width="1" points="351,62 351,67 "/>
<text x="444" y="58" dy="-0.5ex" text-anchor="middle" font-family="sans-serif" font-size="9.67741935483871" opacity="1" fill="#000000">
+3s
</text>
<polyline fill="none" opacity="1" stroke="#000000" stroke-width="1" points="444,62 444,67 "/>
<text x="536" y="58" dy="-0.5ex" text-anchor="middle" font-family="sans-serif" font-size="9.67741935483871" opacity="1" fill="#000000">
+4s
</text>
<polyline fill="none" opacity="1" stroke="#000000" stroke-width="1" points="536,62 536,67 "/>
<text x="629" y="58" dy="-0.5ex" text-anchor="middle" font-family="sans-serif" font-size="9.67741935483871" opacity="1" fill="#000000">
+5s
</text>
<polyline fill="none" opacity="1" stroke="#000000" stroke-width="1" points="629,62 629,67 "/>
<text x="722" y="58" dy="-0.5ex" text-anchor="middle" font-family="sans-serif" font-size="9.67741935483871" opacity="1" fill="#000000">
+6s
</text>
<polyline fill="none" opacity="1" stroke="#000000" stroke-width="1" points="722,62 722,67 "/>
<text x="814" y="58" dy="-0.5ex" text-anchor="middle" font-family="sans-serif" font-size="9.67741935483871" opacity="1" fill="#000000">
+7s
</text>
<polyline fill="none" opacity="1" stroke="#000000" stroke-width="1" points="814,62 814,67 "/>
<text x="907" y="58" dy="-0.5ex" text-anchor="middle" font-family="sans-serif" font-size="9.67741935483871" opacity="1" fill="#000000">
+8s
</text>
<polyline fill="none" opacity="1" stroke="#000000" stroke-width="1" points="907,62 907,67 "/>
</svg>
