<svg width="1024" height="768" viewBox="0 0 1024 768" xmlns="http://www.w3.org/2000/svg">
<rect x="0" y="0" width="1023" height="767" opacity="1" fill="#FFFFFF" stroke="none"/>
<polygon opacity="1" fill="#3CB44B" points="107,644 108,643 108,623 109,622 110,621 111,610 112,610 113,619 114,616 115,618 115,625 116,628 117,630 118,632 119,634 120,631 121,632 121,634 122,632 123,629 124,629 125,630 126,624 127,620 128,609 128,607 129,615 130,617 131,619 132,613 133,604 134,589 134,586 135,604 136,609 137,613 138,612 139,601 140,592 141,586 141,586 142,584 143,585 144,595 145,592 146,585 147,582 147,582 148,582 149,571 150,565 151,562 152,563 153,554 154,545 154,542 155,543 156,531 157,524 158,522 159,510 160,505 160,504 161,509 162,507 163,501 164,507 165,504 166,495 166,491 167,488 168,496 169,498 170,490 171,484 172,483 173,478 173,472 174,465 175,469 176,470 177,476 178,476 179,476 179,463 180,459 181,460 182,461 183,460 184,460 185,456 186,450 186,449 187,458 188,463 189,463 190,451 191,446 192,444 192,443 193,449 194,442 195,442 196,446 197,439 198,434 199,432 199,428 200,431 201,435 202,427 203,425 204,426 205,425 205,427 206,428 207,436 208,443 209,449 210,440 211,435 212,424 212,426 213,447 214,452 215,444 216,453 217,448 218,449 218,447 219,432 220,428 221,428 222,433 223,432 224,432 225,439 225,445 226,449 227,440 228,442 229,437 230,439 231,445 231,445 232,440 233,446 234,445 235,448 236,448 237,445 238,438 238,438 239,427 240,428 241,440 242,434 243,440 244,439 244,445 245,444 246,452 247,448 248,442 249,446 250,444 251,438 251,433 252,430 253,437 254,435 255,443 256,429 257,424 257,423 258,428 259,429 260,433 261,431 262,418 263,417 264,421 264,418 265,423 266,422 267,418 268,414 269,408 270,407 270,411 271,410 272,404 273,407 274,406 275,407 276,415 277,410 277,414 278,406 279,401 280,401 281,399 282,401 283,408 283,402 284,404 285,408 286,413 287,408 288,419 289,422 290,418 290,413 291,411 292,409 293,399 294,402 295,404 296,406 296,400 297,393 298,401 299,401 300,401 301,411 302,411 303,418 303,416 304,418 305,423 306,419 307,417 308,414 309,408 309,413 310,409 311,411 312,411 313,412 314,402 315,395 316,388 316,388 317,385 318,379 319,382 320,383 321,378 322,366 322,364 323,357 324,364 325,371 326,374 327,375 328,376 329,374 329,368 330,368 331,360 332,364 333,370 334,376 335,367 335,366 336,367 337,373 338,375 339,380 340,381 341,386 342,392 342,392 343,391 344,384 345,387 346,389 347,395 348,395 348,400 349,414 350,405 351,416 352,408 353,408 354,409 355,415 355,411 356,410 357,407 358,398 359,397 360,396 361,400 361,406 362,404 363,402 364,400 365,393 366,390 367,392 368,395 368,399 369,402 370,399 371,397 372,393 373,388 374,380 374,379 375,379 376,385 377,384 378,380 379,385 380,383 381,385 381,380 382,373 383,366 384,364 385,362 386,354 387,354 387,362 388,369 389,382 390,382 391,395 392,400 393,392 394,393 394,390 395,379 396,380 397,392 398,399 399,397 400,393 400,390 401,392 402,389 403,376 404,376 405,371 406,378 407,375 407,380 408,383 409,382 410,380 411,380 412,381 413,386 413,393 414,392 415,390 416,387 417,386 418,384 419,385 420,391 420,386 421,386 422,387 423,396 424,393 425,389 426,387 426,390 427,398 428,399 429,396 430,397 431,388 432,388 433,390 433,380 434,380 435,385 436,384 437,381 438,387 439,385 439,392 440,391 441,377 442,375 443,371 444,381 445,377 446,368 446,360 447,358 448,350 449,354 450,355 451,344 452,343 452,342 453,342 454,346 455,352 456,342 457,343 458,342 459,341 459,349 460,349 461,350 462,342 463,337 464,332 465,334 465,334 466,332 467,336 468,339 469,341 470,343 471,344 472,341 472,342 473,345 474,346 475,353 476,354 477,342 478,342 478,348 479,331 480,328 481,328 482,328 483,327 484,329 485,327 485,322 486,318 487,318 488,318 489,315 490,319 491,321 491,321 492,324 493,326 494,322 495,315 496,316 497,308 497,310 498,315 499,311 500,312 501,315 502,303 503,306 504,304 504,305 505,310 506,317 507,319 508,315 509,312 510,304 510,308 511,304 512,306 513,303 514,307 515,316 516,318 517,318 517,321 518,319 519,324 520,326 521,322 522,326 523,328 523,327 524,328 525,328 526,322 527,329 528,330 529,327 530,332 530,329 531,317 532,319 533,329 534,328 535,328 536,330 536,328 537,325 538,324 539,325 540,328 541,329 542,322 543,320 543,317 544,324 545,330 546,323 547,320 548,320 549,322 549,320 550,313 551,311 552,319 553,325 554,317 555,316 556,314 556,312 557,314 558,300 559,304 560,308 561,318 562,318 562,316 563,311 564,314 565,316 566,320 567,313 568,308 569,313 569,309 570,317 571,318 572,309 573,309 574,311 575,309 575,310 576,318 577,316 578,318 579,321 580,317 581,323 582,321 582,327 583,340 584,337 585,335 586,332 587,326 588,336 588,329 589,328 590,331 591,329 592,328 593,330 594,336 595,337 595,338 596,338 597,339 598,337 599,332 600,328 601,328 601,324 602,330 603,333 604,329 605,330 606,328 607,333 608,331 608,335 609,334 610,333 611,337 612,339 613,342 614,346 614,354 615,357 616,355 617,363 618,362 619,353 620,344 621,347 621,346 622,344 623,344 624,346 625,346 626,345 627,346 627,342 628,342 629,342 630,350 631,347 632,342 633,342 634,344 634,347 635,344 636,339 637,338 638,341 639,338 640,329 640,320 641,317 642,320 643,319 644,320 645,310 646,305 647,303 647,298 648,303 649,304 650,301 651,302 652,305 653,302 653,302 654,305 655,308 656,297 657,296 658,295 659,298 660,306 660,308 661,305 662,302 663,306 664,311 665,300 666,294 666,300 667,302 668,303 669,313 670,313 671,311 672,307 673,309 673,306 674,303 675,292 676,288 677,290 678,284 679,284 679,278 680,278 681,288 682,286 683,276 684,281 685,278 686,276 686,268 687,268 688,282 689,280 690,257 691,258 692,255 692,255 693,266 694,252 695,251 696,250 697,245 698,251 699,259 699,260 700,256 701,261 702,262 703,244 704,246 705,243 705,247 706,257 707,257 708,250 709,250 710,247 711,254 712,259 712,257 713,252 714,251 715,252 716,252 717,251 718,251 718,252 719,259 720,241 721,240 722,239 723,240 724,239 725,229 725,226 726,234 727,230 728,227 729,223 730,230 731,235 731,231 732,232 733,236 734,235 735,240 736,237 737,234 738,227 738,226 739,226 740,226 741,229 742,234 743,235 744,227 744,230 745,221 746,220 747,224 748,218 749,218 750,219 751,227 751,229 752,228 753,237 754,236 755,229 756,233 757,231 757,231 758,231 759,231 760,221 761,212 762,206 763,214 764,208 764,210 765,211 766,212 767,208 768,205 769,209 770,204 770,200 771,207 772,198 773,198 774,202 775,213 776,226 777,224 777,225 778,227 779,232 780,233 781,229 782,223 783,218 783,213 784,213 785,219 786,218 787,217 788,212 789,204 790,211 790,221 791,233 792,240 793,231 794,227 795,219 796,215 796,210 797,210 798,207 799,203 800,199 801,204 802,200 803,195 803,194 804,193 805,194 806,205 807,198 808,195 809,188 809,194 810,195 811,200 812,197 813,201 814,206 815,204 816,202 816,201 817,202 818,199 819,194 820,200 821,197 822,190 822,183 823,177 824,178 825,179 826,179 827,185 828,185 829,199 829,199 830,193 831,191 832,191 833,192 834,195 835,205 835,215 836,226 837,232 838,225 839,215 840,208 841,210 841,202 842,198 843,189 844,183 845,183 846,179 847,183 848,179 848,174 849,177 850,181 851,182 852,191 853,190 854,186 854,182 855,184 856,183 857,178 858,179 859,174 860,174 861,179 861,173 862,166 863,162 864,159 865,164 866,167 867,162 867,173 868,169 869,164 870,165 871,170 872,176 873,178 874,173 874,175 875,181 876,179 877,179 878,166 879,159 880,160 880,161 881,164 882,160 883,159 884,160 885,161 886,160 887,156 887,154 888,148 889,140 890,138 891,143 892,135 893,132 893,127 894,131 895,127 896,127 897,131 898,129 899,134 900,136 900,145 901,146 902,152 903,147 904,149 905,142 906,149 906,146 907,143 908,147 909,148 910,148 911,154 912,154 913,151 913,149 914,147 915,149 916,149 917,142 918,135 919,143 919,138 920,135 921,141 922,143 923,146 924,139 925,128 926,119 926,128 927,133 928,136 929,136 930,128 931,122 932,123 932,129 933,128 934,122 935,123 936,137 937,141 938,144 939,139 939,137 940,134 941,129 942,133 943,132 944,119 945,119 945,114 946,111 947,102 948,101 949,100 950,94 951,91 952,96 952,98 953,104 954,111 955,113 956,117 957,114 958,108 958,105 959,104 960,102 961,97 962,91 963,91 964,92 965,98 965,91 966,84 967,85 968,95 969,99 970,92 971,90 971,91 972,70 973,68 973,412 974,412 974,699 107,699 "/>
<polyline fill="none" opacity="1" stroke="#3CB44B" stroke-width="1" points="107,644 108,643 108,623 109,622 110,621 111,610 112,610 113,619 114,616 115,618 115,625 116,628 117,630 118,632 119,634 120,631 121,632 121,634 122,632 123,629 124,629 125,630 126,624 127,620 128,609 128,607 129,615 130,617 131,619 132,613 133,604 134,589 134,586 135,604 136,609 137,613 138,612 139,601 140,592 141,586 141,586 142,584 143,585 144,595 145,592 146,585 147,582 147,582 148,582 149,571 150,565 151,562 152,563 153,554 154,545 154,542 155,543 156,531 157,524 158,522 159,510 160,505 160,504 161,509 162,507 163,501 164,507 165,504 166,495 166,491 167,488 168,496 169,498 170,490 171,484 172,483 173,478 173,472 174,465 175,469 176,470 177,476 178,476 179,476 179,463 180,459 181,460 182,461 183,460 184,460 185,456 186,450 186,449 187,458 188,463 189,463 190,451 191,446 192,444 192,443 193,449 194,442 195,442 196,446 197,439 198,434 199,432 199,428 200,431 201,435 202,427 203,425 204,426 205,425 205,427 206,428 207,436 208,443 209,449 210,440 211,435 212,424 212,426 213,447 214,452 215,444 216,453 217,448 218,449 218,447 219,432 220,428 221,428 222,433 223,432 224,432 225,439 225,445 226,449 227,440 228,442 229,437 230,439 231,445 231,445 232,440 233,446 234,445 235,448 236,448 237,445 238,438 238,438 239,427 240,428 241,440 242,434 243,440 244,439 244,445 245,444 246,452 247,448 248,442 249,446 250,444 251,438 251,433 252,430 253,437 254,435 255,443 256,429 257,424 257,423 258,428 259,429 260,433 261,431 262,418 263,417 264,421 264,418 265,423 266,422 267,418 268,414 269,408 270,407 270,411 271,410 272,404 273,407 274,406 275,407 276,415 277,410 277,414 278,406 279,401 280,401 281,399 282,401 283,408 283,402 284,404 285,408 286,413 287,408 288,419 289,422 290,418 290,413 291,411 292,409 293,399 294,402 295,404 296,406 296,400 297,393 298,401 299,401 300,401 301,411 302,411 303,418 303,416 304,418 305,423 306,419 307,417 308,414 309,408 309,413 310,409 311,411 312,411 313,412 314,402 315,395 316,388 316,388 317,385 318,379 319,382 320,383 321,378 322,366 322,364 323,357 324,364 325,371 326,374 327,375 328,376 329,374 329,368 330,368 331,360 332,364 333,370 334,376 335,367 335,366 336,367 337,373 338,375 339,380 340,381 341,386 342,392 342,392 343,391 344,384 345,387 346,389 347,395 348,395 348,400 349,414 350,405 351,416 352,408 353,408 354,409 355,415 355,411 356,410 357,407 358,398 359,397 360,396 361,400 361,406 362,404 363,402 364,400 365,393 366,390 367,392 368,395 368,399 369,402 370,399 371,397 372,393 373,388 374,380 374,379 375,379 376,385 377,384 378,380 379,385 380,383 381,385 381,380 382,373 383,366 384,364 385,362 386,354 387,354 387,362 388,369 389,382 390,382 391,395 392,400 393,392 394,393 394,390 395,379 396,380 397,392 398,399 399,397 400,393 400,390 401,392 402,389 403,376 404,376 405,371 406,378 407,375 407,380 408,383 409,382 410,380 411,380 412,381 413,386 413,393 414,392 415,390 416,387 417,386 418,384 419,385 420,391 420,386 421,386 422,387 423,396 424,393 425,389 426,387 426,390 427,398 428,399 429,396 430,397 431,388 432,388 433,390 433,380 434,380 435,385 436,384 437,381 438,387 439,385 439,392 440,391 441,377 442,375 443,371 444,381 445,377 446,368 446,360 447,358 448,350 449,354 450,355 451,344 452,343 452,342 453,342 454,346 455,352 456,342 457,343 458,342 459,341 459,349 460,349 461,350 462,342 463,337 464,332 465,334 465,334 466,332 467,336 468,339 469,341 470,343 471,344 472,341 472,342 473,345 474,346 475,353 476,354 477,342 478,342 478,348 479,331 480,328 481,328 482,328 483,327 484,329 485,327 485,322 486,318 487,318 488,318 489,315 490,319 491,321 491,321 492,324 493,326 494,322 495,315 496,316 497,308 497,310 498,315 499,311 500,312 501,315 502,303 503,306 504,304 504,305 505,310 506,317 507,319 508,315 509,312 510,304 510,308 511,304 512,306 513,303 514,307 515,316 516,318 517,318 517,321 518,319 519,324 520,326 521,322 522,326 523,328 523,327 524,328 525,328 526,322 527,329 528,330 529,327 530,332 530,329 531,317 532,319 533,329 534,328 535,328 536,330 536,328 537,325 538,324 539,325 540,328 541,329 542,322 543,320 543,317 544,324 545,330 546,323 547,320 548,320 549,322 549,320 550,313 551,311 552,319 553,325 554,317 555,316 556,314 556,312 557,314 558,300 559,304 560,308 561,318 562,318 562,316 563,311 564,314 565,316 566,320 567,313 568,308 569,313 569,309 570,317 571,318 572,309 573,309 574,311 575,309 575,310 576,318 577,316 578,318 579,321 580,317 581,323 582,321 582,327 583,340 584,337 585,335 586,332 587,326 588,336 588,329 589,328 590,331 591,329 592,328 593,330 594,336 595,337 595,338 596,338 597,339 598,337 599,332 600,328 601,328 601,324 602,330 603,333 604,329 605,330 606,328 607,333 608,331 608,335 609,334 610,333 611,337 612,339 613,342 614,346 614,354 615,357 616,355 617,363 618,362 619,353 620,344 621,347 621,346 622,344 623,344 624,346 625,346 626,345 627,346 627,342 628,342 629,342 630,350 631,347 632,342 633,342 634,344 634,347 635,344 636,339 637,338 638,341 639,338 640,329 640,320 641,317 642,320 643,319 644,320 645,310 646,305 647,303 647,298 648,303 649,304 650,301 651,302 652,305 653,302 653,302 654,305 655,308 656,297 657,296 658,295 659,298 660,306 660,308 661,305 662,302 663,306 664,311 665,300 666,294 666,300 667,302 668,303 669,313 670,313 671,311 672,307 673,309 673,306 674,303 675,292 676,288 677,290 678,284 679,284 679,278 680,278 681,288 682,286 683,276 684,281 685,278 686,276 686,268 687,268 688,282 689,280 690,257 691,258 692,255 692,255 693,266 694,252 695,251 696,250 697,245 698,251 699,259 699,260 700,256 701,261 702,262 703,244 704,246 705,243 705,247 706,257 707,257 708,250 709,250 710,247 711,254 712,259 712,257 713,252 714,251 715,252 716,252 717,251 718,251 718,252 719,259 720,241 721,240 722,239 723,240 724,239 725,229 725,226 726,234 727,230 728,227 729,223 730,230 731,235 731,231 732,232 733,236 734,235 735,240 736,237 737,234 738,227 738,226 739,226 740,226 741,229 742,234 743,235 744,227 744,230 745,221 746,220 747,224 748,218 749,218 750,219 751,227 751,229 752,228 753,237 754,236 755,229 756,233 757,231 757,231 758,231 759,231 760,221 761,212 762,206 763,214 764,208 764,210 765,211 766,212 767,208 768,205 769,209 770,204 770,200 771,207 772,198 773,198 774,202 775,213 776,226 777,224 777,225 778,227 779,232 780,233 781,229 782,223 783,218 783,213 784,213 785,219 786,218 787,217 788,212 789,204 790,211 790,221 791,233 792,240 793,231 794,227 795,219 796,215 796,210 797,210 798,207 799,203 800,199 801,204 802,200 803,195 803,194 804,193 805,194 806,205 807,198 808,195 809,188 809,194 810,195 811,200 812,197 813,201 814,206 815,204 816,202 816,201 817,202 818,199 819,194 820,200 821,197 822,190 822,183 823,177 824,178 825,179 826,179 827,185 828,185 829,199 829,199 830,193 831,191 832,191 833,192 834,195 835,205 835,215 836,226 837,232 838,225 839,215 840,208 841,210 841,202 842,198 843,189 844,183 845,183 846,179 847,183 848,179 848,174 849,177 850,181 851,182 852,191 853,190 854,186 854,182 855,184 856,183 857,178 858,179 859,174 860,174 861,179 861,173 862,166 863,162 864,159 865,164 866,167 867,162 867,173 868,169 869,164 870,165 871,170 872,176 873,178 874,173 874,175 875,181 876,179 877,179 878,166 879,159 880,160 880,161 881,164 882,160 883,159 884,160 885,161 886,160 887,156 887,154 888,148 889,140 890,138 891,143 892,135 893,132 893,127 894,131 895,127 896,127 897,131 898,129 899,134 900,136 900,145 901,146 902,152 903,147 904,149 905,142 906,149 906,146 907,143 908,147 909,148 910,148 911,154 912,154 913,151 913,149 914,147 915,149 916,149 917,142 918,135 919,143 919,138 920,135 921,141 922,143 923,146 924,139 925,128 926,119 926,128 927,133 928,136 929,136 930,128 931,122 932,123 932,129 933,128 934,122 935,123 936,137 937,141 938,144 939,139 939,137 940,134 941,129 942,133 943,132 944,119 945,119 945,114 946,111 947,102 948,101 949,100 950,94 951,91 952,96 952,98 953,104 954,111 955,113 956,117 957,114 958,108 958,105 959,104 960,102 961,97 962,91 963,91 964,92 965,98 965,91 966,84 967,85 968,95 969,99 970,92 971,90 971,91 972,70 973,68 973,412 974,412 "/>
<polygon opacity="1" fill="#E6194B" points="107,654 108,654 108,653 109,653 110,652 111,652 112,652 113,651 114,650 115,650 115,650 116,650 117,649 118,649 119,649 120,649 121,649 121,648 122,648 123,648 124,648 125,648 126,647 127,647 128,647 128,646 129,646 130,645 131,645 132,645 133,645 134,645 134,645 135,645 136,645 137,645 138,644 139,644 140,644 141,644 141,644 142,643 143,643 144,643 145,643 146,643 147,642 147,642 148,642 149,642 150,642 151,641 152,641 153,641 154,641 154,640 155,640 156,640 157,639 158,639 159,639 160,639 160,639 161,638 162,638 163,638 164,637 165,637 166,637 166,637 167,637 168,636 169,636 170,636 171,636 172,635 173,635 173,635 174,635 175,634 176,633 177,632 178,632 179,632 179,632 180,632 181,631 182,631 183,631 184,630 185,630 186,630 186,629 187,629 188,629 189,628 190,628 191,628 192,628 192,627 193,627 194,626 195,626 196,626 197,625 198,625 199,625 199,625 200,624 201,624 202,624 203,623 204,622 205,622 205,622 206,622 207,621 208,621 209,621 210,621 211,620 212,620 212,620 213,619 214,619 215,618 216,617 217,617 218,617 218,617 219,617 220,617 221,617 222,616 223,616 224,616 225,616 225,616 226,615 227,615 228,614 229,614 230,614 231,613 231,613 232,613 233,613 234,613 235,612 236,612 237,611 238,611 238,611 239,611 240,611 241,610 242,610 243,609 244,609 244,609 245,609 246,609 247,608 248,607 249,607 250,607 251,607 251,607 252,607 253,606 254,606 255,605 256,605 257,605 257,604 258,604 259,604 260,604 261,604 262,603 263,602 264,602 264,602 265,602 266,601 267,601 268,600 269,600 270,600 270,600 271,600 272,599 273,599 274,599 275,598 276,598 277,598 277,598 278,597 279,597 280,597 281,597 282,596 283,596 283,596 284,595 285,595 286,595 287,595 288,595 289,594 290,594 290,594 291,594 292,594 293,593 294,593 295,593 296,593 296,593 297,593 298,592 299,592 300,592 301,592 302,592 303,592 303,591 304,591 305,591 306,591 307,591 308,590 309,590 309,590 310,590 311,590 312,590 313,589 314,589 315,589 316,588 316,588 317,588 318,588 319,586 320,586 321,586 322,586 322,585 323,585 324,585 325,585 326,584 327,584 328,584 329,584 329,584 330,583 331,583 332,583 333,583 334,582 335,582 335,582 336,582 337,582 338,582 339,581 340,581 341,581 342,581 342,581 343,580 344,580 345,580 346,580 347,579 348,578 348,578 349,578 350,578 351,577 352,577 353,576 354,576 355,576 355,575 356,575 357,574 358,574 359,574 360,574 361,574 361,573 362,573 363,573 364,572 365,572 366,572 367,571 368,571 368,570 369,570 370,570 371,570 372,570 373,569 374,569 374,569 375,568 376,568 377,568 378,567 379,567 380,567 381,567 381,566 382,566 383,566 384,566 385,566 386,566 387,566 387,565 388,565 389,564 390,564 391,564 392,564 393,564 394,563 394,563 395,563 396,563 397,563 398,563 399,562 400,562 400,562 401,561 402,561 403,561 404,560 405,560 406,560 407,560 407,560 408,560 409,560 410,559 411,559 412,559 413,559 413,559 414,559 415,559 416,559 417,559 418,559 419,558 420,558 420,558 421,558 422,557 423,557 424,557 425,557 426,556 426,556 427,556 428,555 429,555 430,555 431,555 432,555 433,555 433,554 434,554 435,554 436,554 437,553 438,553 439,553 439,553 440,552 441,552 442,552 443,552 444,551 445,551 446,550 446,550 447,549 448,549 449,549 450,549 451,549 452,548 452,548 453,548 454,547 455,547 456,547 457,546 458,546 459,546 459,546 460,546 461,546 462,545 463,545 464,545 465,545 465,544 466,544 467,544 468,544 469,543 470,543 471,542 472,542 472,542 473,542 474,542 475,542 476,541 477,541 478,541 478,540 479,540 480,540 481,540 482,539 483,539 484,539 485,539 485,539 486,539 487,539 488,538 489,538 490,538 491,538 491,538 492,538 493,538 494,538 495,537 496,537 497,536 497,536 498,536 499,536 500,535 501,535 502,535 503,535 504,535 504,535 505,535 506,534 507,534 508,534 509,534 510,534 510,533 511,533 512,533 513,533 514,533 515,532 516,532 517,531 517,531 518,530 519,530 520,530 521,530 522,530 523,529 523,529 524,529 525,529 526,529 527,528 528,528 529,528 530,527 530,527 531,527 532,527 533,527 534,527 535,527 536,527 536,526 537,526 538,526 539,526 540,526 541,526 542,526 543,526 543,526 544,526 545,525 546,525 547,525 548,525 549,524 549,524 550,524 551,523 552,523 553,522 554,522 555,522 556,522 556,522 557,521 558,521 559,520 560,520 561,520 562,520 562,520 563,519 564,519 565,519 566,519 567,518 568,518 569,518 569,518 570,517 571,517 572,517 573,517 574,516 575,516 575,516 576,516 577,516 578,516 579,516 580,516 581,516 582,516 582,515 583,515 584,515 585,515 586,514 587,514 588,514 588,513 589,513 590,513 591,512 592,512 593,511 594,511 595,511 595,511 596,510 597,510 598,510 599,509 600,509 601,509 601,509 602,509 603,508 604,508 605,508 606,508 607,508 608,508 608,508 609,508 610,507 611,507 612,507 613,507 614,506 614,506 615,506 616,506 617,505 618,505 619,505 620,504 621,504 621,504 622,504 623,503 624,503 625,503 626,503 627,503 627,503 628,503 629,502 630,502 631,502 632,502 633,502 634,502 634,502 635,501 636,501 637,501 638,501 639,501 640,501 640,500 641,500 642,500 643,499 644,499 645,499 646,498 647,498 647,498 648,497 649,497 650,497 651,497 652,496 653,496 653,496 654,496 655,495 656,494 657,494 658,494 659,494 660,494 660,494 661,493 662,493 663,493 664,492 665,492 666,492 666,491 667,491 668,491 669,491 670,490 671,490 672,490 673,490 673,489 674,489 675,489 676,489 677,488 678,487 679,487 679,487 680,487 681,486 682,486 683,486 684,486 685,486 686,486 686,485 687,485 688,485 689,485 690,484 691,484 692,484 692,484 693,484 694,484 695,483 696,483 697,483 698,482 699,482 699,482 700,481 701,481 702,481 703,481 704,481 705,481 705,481 706,481 707,481 708,480 709,480 710,480 711,479 712,479 712,479 713,479 714,479 715,478 716,478 717,478 718,477 718,477 719,477 720,477 721,477 722,477 723,476 724,476 725,476 725,476 726,475 727,475 728,475 729,475 730,475 731,475 731,474 732,474 733,474 734,474 735,474 736,473 737,473 738,473 738,473 739,472 740,472 741,472 742,472 743,472 744,471 744,471 745,471 746,471 747,471 748,470 749,470 750,470 751,470 751,470 752,469 753,469 754,469 755,468 756,468 757,468 757,468 758,468 759,467 760,467 761,467 762,467 763,467 764,466 764,465 765,465 766,465 767,465 768,464 769,464 770,464 770,464 771,464 772,463 773,463 774,463 775,463 776,463 777,462 777,462 778,461 779,461 780,461 781,461 782,460 783,460 783,460 784,459 785,459 786,459 787,459 788,459 789,459 790,459 790,458 791,458 792,458 793,458 794,457 795,457 796,457 796,457 797,457 798,456 799,456 800,456 801,456 802,455 803,455 803,455 804,455 805,454 806,454 807,454 808,454 809,454 809,454 810,454 811,453 812,453 813,453 814,453 815,453 816,452 816,452 817,452 818,452 819,451 820,451 821,451 822,451 822,451 823,451 824,450 825,450 826,450 827,450 828,450 829,449 829,449 830,449 831,449 832,448 833,448 834,448 835,447 835,447 836,447 837,447 838,447 839,447 840,447 841,447 841,446 842,446 843,446 844,445 845,445 846,445 847,445 848,445 848,445 849,444 850,444 851,444 852,443 853,443 854,443 854,443 855,442 856,442 857,442 858,441 859,441 860,441 861,440 861,440 862,440 863,440 864,439 865,439 866,439 867,439 867,438 868,438 869,438 870,437 871,437 872,437 873,437 874,437 874,436 875,436 876,436 877,436 878,436 879,435 880,435 880,435 881,435 882,435 883,434 884,434 885,434 886,434 887,434 887,434 888,433 889,433 890,433 891,433 892,433 893,432 893,432 894,432 895,432 896,432 897,432 898,432 899,432 900,431 900,431 901,431 902,431 903,431 904,431 905,431 906,430 906,430 907,430 908,430 909,430 910,429 911,429 912,429 913,429 913,429 914,428 915,428 916,428 917,428 918,427 919,427 919,427 920,426 921,426 922,425 923,425 924,424 925,424 926,424 926,424 927,423 928,423 929,423 930,423 931,423 932,422 932,422 933,422 934,422 935,421 936,421 937,420 938,420 939,419 939,419 940,419 941,419 942,419 943,418 944,418 945,418 945,418 946,417 947,417 948,417 949,417 950,417 951,416 952,416 952,416 953,416 954,415 955,415 956,415 957,415 958,415 958,415 959,415 960,415 961,415 962,415 963,415 964,414 965,414 965,414 966,413 967,413 968,413 969,413 970,413 971,412 971,412 972,412 973,412 973,412 974,412 974,699 107,699 "/>
<polyline fill="none" opacity="1" stroke="#E6194B" stroke-width="1" points="107,654 108,654 108,653 109,653 110,652 111,652 112,652 113,651 114,650 115,650 115,650 116,650 117,649 118,649 119,649 120,649 121,649 121,648 122,648 123,648 124,648 125,648 126,647 127,647 128,647 128,646 129,646 130,645 131,645 132,645 133,645 134,645 134,645 135,645 136,645 137,645 138,644 139,644 140,644 141,644 141,644 142,643 143,643 144,643 145,643 146,643 147,642 147,642 148,642 149,642 150,642 151,641 152,641 153,641 154,641 154,640 155,640 156,640 157,639 158,639 159,639 160,639 160,639 161,638 162,638 163,638 164,637 165,637 166,637 166,637 167,637 168,636 169,636 170,636 171,636 172,635 173,635 173,635 174,635 175,634 176,633 177,632 178,632 179,632 179,632 180,632 181,631 182,631 183,631 184,630 185,630 186,630 186,629 187,629 188,629 189,628 190,628 191,628 192,628 192,627 193,627 194,626 195,626 196,626 197,625 198,625 199,625 199,625 200,624 201,624 202,624 203,623 204,622 205,622 205,622 206,622 207,621 208,621 209,621 210,621 211,620 212,620 212,620 213,619 214,619 215,618 216,617 217,617 218,617 218,617 219,617 220,617 221,617 222,616 223,616 224,616 225,616 225,616 226,615 227,615 228,614 229,614 230,614 231,613 231,613 232,613 233,613 234,613 235,612 236,612 237,611 238,611 238,611 239,611 240,611 241,610 242,610 243,609 244,609 244,609 245,609 246,609 247,608 248,607 249,607 250,607 251,607 251,607 252,607 253,606 254,606 255,605 256,605 257,605 257,604 258,604 259,604 260,604 261,604 262,603 263,602 264,602 264,602 265,602 266,601 267,601 268,600 269,600 270,600 270,600 271,600 272,599 273,599 274,599 275,598 276,598 277,598 277,598 278,597 279,597 280,597 281,597 282,596 283,596 283,596 284,595 285,595 286,595 287,595 288,595 289,594 290,594 290,594 291,594 292,594 293,593 294,593 295,593 296,593 296,593 297,593 298,592 299,592 300,592 301,592 302,592 303,592 303,591 304,591 305,591 306,591 307,591 308,590 309,590 309,590 310,590 311,590 312,590 313,589 314,589 315,589 316,588 316,588 317,588 318,588 319,586 320,586 321,586 322,586 322,585 323,585 324,585 325,585 326,584 327,584 328,584 329,584 329,584 330,583 331,583 332,583 333,583 334,582 335,582 335,582 336,582 337,582 338,582 339,581 340,581 341,581 342,581 342,581 343,580 344,580 345,580 346,580 347,579 348,578 348,578 349,578 350,578 351,577 352,577 353,576 354,576 355,576 355,575 356,575 357,574 358,574 359,574 360,574 361,574 361,573 362,573 363,573 364,572 365,572 366,572 367,571 368,571 368,570 369,570 370,570 371,570 372,570 373,569 374,569 374,569 375,568 376,568 377,568 378,567 379,567 380,567 381,567 381,566 382,566 383,566 384,566 385,566 386,566 387,566 387,565 388,565 389,564 390,564 391,564 392,564 393,564 394,563 394,563 395,563 396,563 397,563 398,563 399,562 400,562 400,562 401,561 402,561 403,561 404,560 405,560 406,560 407,560 407,560 408,560 409,560 410,559 411,559 412,559 413,559 413,559 414,559 415,559 416,559 417,559 418,559 419,558 420,558 420,558 421,558 422,557 423,557 424,557 425,557 426,556 426,556 427,556 428,555 429,555 430,555 431,555 432,555 433,555 433,554 434,554 435,554 436,554 437,553 438,553 439,553 439,553 440,552 441,552 442,552 443,552 444,551 445,551 446,550 446,550 447,549 448,549 449,549 450,549 451,549 452,548 452,548 453,548 454,547 455,547 456,547 457,546 458,546 459,546 459,546 460,546 461,546 462,545 463,545 464,545 465,545 465,544 466,544 467,544 468,544 469,543 470,543 471,542 472,542 472,542 473,542 474,542 475,542 476,541 477,541 478,541 478,540 479,540 480,540 481,540 482,539 483,539 484,539 485,539 485,539 486,539 487,539 488,538 489,538 490,538 491,538 491,538 492,538 493,538 494,538 495,537 496,537 497,536 497,536 498,536 499,536 500,535 501,535 502,535 503,535 504,535 504,535 505,535 506,534 507,534 508,534 509,534 510,534 510,533 511,533 512,533 513,533 514,533 515,532 516,532 517,531 517,531 518,530 519,530 520,530 521,530 522,530 523,529 523,529 524,529 525,529 526,529 527,528 528,528 529,528 530,527 530,527 531,527 532,527 533,527 534,527 535,527 536,527 536,526 537,526 538,526 539,526 540,526 541,526 542,526 543,526 543,526 544,526 545,525 546,525 547,525 548,525 549,524 549,524 550,524 551,523 552,523 553,522 554,522 555,522 556,522 556,522 557,521 558,521 559,520 560,520 561,520 562,520 562,520 563,519 564,519 565,519 566,519 567,518 568,518 569,518 569,518 570,517 571,517 572,517 573,517 574,516 575,516 575,516 576,516 577,516 578,516 579,516 580,516 581,516 582,516 582,515 583,515 584,515 585,515 586,514 587,514 588,514 588,513 589,513 590,513 591,512 592,512 593,511 594,511 595,511 595,511 596,510 597,510 598,510 599,509 600,509 601,509 601,509 602,509 603,508 604,508 605,508 606,508 607,508 608,508 608,508 609,508 610,507 611,507 612,507 613,507 614,506 614,506 615,506 616,506 617,505 618,505 619,505 620,504 621,504 621,504 622,504 623,503 624,503 625,503 626,503 627,503 627,503 628,503 629,502 630,502 631,502 632,502 633,502 634,502 634,502 635,501 636,501 637,501 638,501 639,501 640,501 640,500 641,500 642,500 643,499 644,499 645,499 646,498 647,498 647,498 648,497 649,497 650,497 651,497 652,496 653,496 653,496 654,496 655,495 656,494 657,494 658,494 659,494 660,494 660,494 661,493 662,493 663,493 664,492 665,492 666,492 666,491 667,491 668,491 669,491 670,490 671,490 672,490 673,490 673,489 674,489 675,489 676,489 677,488 678,487 679,487 679,487 680,487 681,486 682,486 683,486 684,486 685,486 686,486 686,485 687,485 688,485 689,485 690,484 691,484 692,484 692,484 693,484 694,484 695,483 696,483 697,483 698,482 699,482 699,482 700,481 701,481 702,481 703,481 704,481 705,481 705,481 706,481 707,481 708,480 709,480 710,480 711,479 712,479 712,479 713,479 714,479 715,478 716,478 717,478 718,477 718,477 719,477 720,477 721,477 722,477 723,476 724,476 725,476 725,476 726,475 727,475 728,475 729,475 730,475 731,475 731,474 732,474 733,474 734,474 735,474 736,473 737,473 738,473 738,473 739,472 740,472 741,472 742,472 743,472 744,471 744,471 745,471 746,471 747,471 748,470 749,470 750,470 751,470 751,470 752,469 753,469 754,469 755,468 756,468 757,468 757,468 758,468 759,467 760,467 761,467 762,467 763,467 764,466 764,465 765,465 766,465 767,465 768,464 769,464 770,464 770,464 771,464 772,463 773,463 774,463 775,463 776,463 777,462 777,462 778,461 779,461 780,461 781,461 782,460 783,460 783,460 784,459 785,459 786,459 787,459 788,459 789,459 790,459 790,458 791,458 792,458 793,458 794,457 795,457 796,457 796,457 797,457 798,456 799,456 800,456 801,456 802,455 803,455 803,455 804,455 805,454 806,454 807,454 808,454 809,454 809,454 810,454 811,453 812,453 813,453 814,453 815,453 816,452 816,452 817,452 818,452 819,451 820,451 821,451 822,451 822,451 823,451 824,450 825,450 826,450 827,450 828,450 829,449 829,449 830,449 831,449 832,448 833,448 834,448 835,447 835,447 836,447 837,447 838,447 839,447 840,447 841,447 841,446 842,446 843,446 844,445 845,445 846,445 847,445 848,445 848,445 849,444 850,444 851,444 852,443 853,443 854,443 854,443 855,442 856,442 857,442 858,441 859,441 860,441 861,440 861,440 862,440 863,440 864,439 865,439 866,439 867,439 867,438 868,438 869,438 870,437 871,437 872,437 873,437 874,437 874,436 875,436 876,436 877,436 878,436 879,435 880,435 880,435 881,435 882,435 883,434 884,434 885,434 886,434 887,434 887,434 888,433 889,433 890,433 891,433 892,433 893,432 893,432 894,432 895,432 896,432 897,432 898,432 899,432 900,431 900,431 901,431 902,431 903,431 904,431 905,431 906,430 906,430 907,430 908,430 909,430 910,429 911,429 912,429 913,429 913,429 914,428 915,428 916,428 917,428 918,427 919,427 919,427 920,426 921,426 922,425 923,425 924,424 925,424 926,424 926,424 927,423 928,423 929,423 930,423 931,423 932,422 932,422 933,422 934,422 935,421 936,421 937,420 938,420 939,419 939,419 940,419 941,419 942,419 943,418 944,418 945,418 945,418 946,417 947,417 948,417 949,417 950,417 951,416 952,416 952,416 953,416 954,415 955,415 956,415 957,415 958,415 958,415 959,415 960,415 961,415 962,415 963,415 964,414 965,414 965,414 966,413 967,413 968,413 969,413 970,413 971,412 971,412 972,412 973,412 973,412 974,412 "/>
<line opacity="0.1" stroke="#000000" stroke-width="1" x1="85" y1="699" x2="85" y2="67"/>
<line opacity="0.1" stroke="#000000" stroke-width="1" x1="103" y1="699" x2="103" y2="67"/>
<line opacity="0.1" stroke="#000000" stroke-width="1" x1="121" y1="699" x2="121" y2="67"/>
<line opacity="0.1" stroke="#000000" stroke-width="1" x1="139" y1="699" x2="139" y2="67"/>
<line opacity="0.1" stroke="#000000" stroke-width="1" x1="157" y1="699" x2="157" y2="67"/>
<line opacity="0.1" stroke="#000000" stroke-width="1" x1="174" y1="699" x2="174" y2="67"/>
<line opacity="0.1" stroke="#000000" stroke-width="1" x1="192" y1="699" x2="192" y2="67"/>
<line opacity="0.1" stroke="#000000" stroke-width="1" x1="210" y1="699" x2="210" y2="67"/>
<line opacity="0.1" stroke="#000000" stroke-width="1" x1="228" y1="699" x2="228" y2="67"/>
<line opacity="0.1" stroke="#000000" stroke-width="1" x1="246" y1="699" x2="246" y2="67"/>
<line opacity="0.1" stroke="#000000" stroke-width="1" x1="264" y1="699" x2="264" y2="67"/>
<line opacity="0.1" stroke="#000000" stroke-width="1" x1="282" y1="699" x2="282" y2="67"/>
<line opacity="0.1" stroke="#000000" stroke-width="1" x1="300" y1="699" x2="300" y2="67"/>
<line opacity="0.1" stroke="#000000" stroke-width="1" x1="318" y1="699" x2="318" y2="67"/>
<line opacity="0.1" stroke="#000000" stroke-width="1" x1="336" y1="699" x2="336" y2="67"/>
<line opacity="0.1" stroke="#000000" stroke-width="1" x1="354" y1="699" x2="354" y2="67"/>
<line opacity="0.1" stroke="#000000" stroke-width="1" x1="372" y1="699" x2="372" y2="67"/>
<line opacity="0.1" stroke="#000000" stroke-width="1" x1="389" y1="699" x2="389" y2="67"/>
<line opacity="0.1" stroke="#000000" stroke-width="1" x1="407" y1="699" x2="407" y2="67"/>
<line opacity="0.1" stroke="#000000" stroke-width="1" x1="425" y1="699" x2="425" y2="67"/>
<line opacity="0.1" stroke="#000000" stroke-width="1" x1="443" y1="699" x2="443" y2="67"/>
<line opacity="0.1" stroke="#000000" stroke-width="1" x1="461" y1="699" x2="461" y2="67"/>
<line opacity="0.1" stroke="#000000" stroke-width="1" x1="479" y1="699" x2="479" y2="67"/>
<line opacity="0.1" stroke="#000000" stroke-width="1" x1="497" y1="699" x2="497" y2="67"/>
<line opacity="0.1" stroke="#000000" stroke-width="1" x1="515" y1="699" x2="515" y2="67"/>
<line opacity="0.1" stroke="#000000" stroke-width="1" x1="533" y1="699" x2="533" y2="67"/>
<line opacity="0.1" stroke="#000000" stroke-width="1" x1="551" y1="699" x2="551" y2="67"/>
<line opacity="0.1" stroke="#000000" stroke-width="1" x1="569" y1="699" x2="569" y2="67"/>
<line opacity="0.1" stroke="#000000" stroke-width="1" x1="587" y1="699" x2="587" y2="67"/>
<line opacity="0.1" stroke="#000000" stroke-width="1" x1="604" y1="699" x2="604" y2="67"/>
<line opacity="0.1" stroke="#000000" stroke-width="1" x1="622" y1="699" x2="622" y2="67"/>
<line opacity="0.1" stroke="#000000" stroke-width="1" x1="640" y1="699" x2="640" y2="67"/>
<line opacity="0.1" stroke="#000000" stroke-width="1" x1="658" y1="699" x2="658" y2="67"/>
<line opacity="0.1" stroke="#000000" stroke-width="1" x1="676" y1="699" x2="676" y2="67"/>
<line opacity="0.1" stroke="#000000" stroke-width="1" x1="694" y1="699" x2="694" y2="67"/>
<line opacity="0.1" stroke="#000000" stroke-width="1" x1="712" y1="699" x2="712" y2="67"/>
<line opacity="0.1" stroke="#000000" stroke-width="1" x1="730" y1="699" x2="730" y2="67"/>
<line opacity="0.1" stroke="#000000" stroke-width="1" x1="748" y1="699" x2="748" y2="67"/>
<line opacity="0.1" stroke="#000000" stroke-width="1" x1="766" y1="699" x2="766" y2="67"/>
<line opacity="0.1" stroke="#000000" stroke-width="1" x1="784" y1="699" x2="784" y2="67"/>
<line opacity="0.1" stroke="#000000" stroke-width="1" x1="802" y1="699" x2="802" y2="67"/>
<line opacity="0.1" stroke="#000000" stroke-width="1" x1="819" y1="699" x2="819" y2="67"/>
<line opacity="0.1" stroke="#000000" stroke-width="1" x1="837" y1="699" x2="837" y2="67"/>
<line opacity="0.1" stroke="#000000" stroke-width="1" x1="855" y1="699" x2="855" y2="67"/>
<line opacity="0.1" stroke="#000000" stroke-width="1" x1="873" y1="699" x2="873" y2="67"/>
<line opacity="0.1" stroke="#000000" stroke-width="1" x1="891" y1="699" x2="891" y2="67"/>
<line opacity="0.1" stroke="#000000" stroke-width="1" x1="909" y1="699" x2="909" y2="67"/>
<line opacity="0.1" stroke="#000000" stroke-width="1" x1="927" y1="699" x2="927" y2="67"/>
<line opacity="0.1" stroke="#000000" stroke-width="1" x1="945" y1="699" x2="945" y2="67"/>
<line opacity="0.1" stroke="#000000" stroke-width="1" x1="963" y1="699" x2="963" y2="67"/>
<line opacity="0.1" stroke="#000000" stroke-width="1" x1="78" y1="699" x2="974" y2="699"/>
<line opacity="0.1" stroke="#000000" stroke-width="1" x1="78" y1="687" x2="974" y2="687"/>
<line opacity="0.1" stroke="#000000" stroke-width="1" x1="78" y1="676" x2="974" y2="676"/>
<line opacity="0.1" stroke="#000000" stroke-width="1" x1="78" y1="664" x2="974" y2="664"/>
<line opacity="0.1" stroke="#000000" stroke-width="1" x1="78" y1="653" x2="974" y2="653"/>
<line opacity="0.1" stroke="#000000" stroke-width="1" x1="78" y1="641" x2="974" y2="641"/>
<line opacity="0.1" stroke="#000000" stroke-width="1" x1="78" y1="630" x2="974" y2="630"/>
<line opacity="0.1" stroke="#000000" stroke-width="1" x1="78" y1="618" x2="974" y2="618"/>
<line opacity="0.1" stroke="#000000" stroke-width="1" x1="78" y1="607" x2="974" y2="607"/>
<line opacity="0.1" stroke="#000000" stroke-width="1" x1="78" y1="596" x2="974" y2="596"/>
<line opacity="0.1" stroke="#000000" stroke-width="1" x1="78" y1="584" x2="974" y2="584"/>
<line opacity="0.1" stroke="#000000" stroke-width="1" x1="78" y1="573" x2="974" y2="573"/>
<line opacity="0.1" stroke="#000000" stroke-width="1" x1="78" y1="561" x2="974" y2="561"/>
<line opacity="0.1" stroke="#000000" stroke-width="1" x1="78" y1="550" x2="974" y2="550"/>
<line opacity="0.1" stroke="#000000" stroke-width="1" x1="78" y1="538" x2="974" y2="538"/>
<line opacity="0.1" stroke="#000000" stroke-width="1" x1="78" y1="527" x2="974" y2="527"/>
<line opacity="0.1" stroke="#000000" stroke-width="1" x1="78" y1="516" x2="974" y2="516"/>
<line opacity="0.1" stroke="#000000" stroke-width="1" x1="78" y1="504" x2="974" y2="504"/>
<line opacity="0.1" stroke="#000000" stroke-width="1" x1="78" y1="493" x2="974" y2="493"/>
<line opacity="0.1" stroke="#000000" stroke-width="1" x1="78" y1="481" x2="974" y2="481"/>
<line opacity="0.1" stroke="#000000" stroke-width="1" x1="78" y1="470" x2="974" y2="470"/>
<line opacity="0.1" stroke="#000000" stroke-width="1" x1="78" y1="458" x2="974" y2="458"/>
<line opacity="0.1" stroke="#000000" stroke-width="1" x1="78" y1="447" x2="974" y2="447"/>
<line opacity="0.1" stroke="#000000" stroke-width="1" x1="78" y1="436" x2="974" y2="436"/>
<line opacity="0.1" stroke="#000000" stroke-width="1" x1="78" y1="424" x2="974" y2="424"/>
<line opacity="0.1" stroke="#000000" stroke-width="1" x1="78" y1="413" x2="974" y2="413"/>
<line opacity="0.1" stroke="#000000" stroke-width="1" x1="78" y1="401" x2="974" y2="401"/>
<line opacity="0.1" stroke="#000000" stroke-width="1" x1="78" y1="390" x2="974" y2="390"/>
<line opacity="0.1" stroke="#000000" stroke-width="1" x1="78" y1="378" x2="974" y2="378"/>
<line opacity="0.1" stroke="#000000" stroke-width="1" x1="78" y1="367" x2="974" y2="367"/>
<line opacity="0.1" stroke="#000000" stroke-width="1" x1="78" y1="356" x2="974" y2="356"/>
<line opacity="0.1" stroke="#000000" stroke-width="1" x1="78" y1="344" x2="974" y2="344"/>
<line opacity="0.1" stroke="#000000" stroke-width="1" x1="78" y1="333" x2="974" y2="333"/>
<line opacity="0.1" stroke="#000000" stroke-width="1" x1="78" y1="321" x2="974" y2="321"/>
<line opacity="0.1" stroke="#000000" stroke-width="1" x1="78" y1="310" x2="974" y2="310"/>
<line opacity="0.1" stroke="#000000" stroke-width="1" x1="78" y1="298" x2="974" y2="298"/>
<line opacity="0.1" stroke="#000000" stroke-width="1" x1="78" y1="287" x2="974" y2="287"/>
<line opacity="0.1" stroke="#000000" stroke-width="1" x1="78" y1="275" x2="974" y2="275"/>
<line opacity="0.1" stroke="#000000" stroke-width="1" x1="78" y1="264" x2="974" y2="264"/>
<line opacity="0.1" stroke="#000000" stroke-width="1" x1="78" y1="253" x2="974" y2="253"/>
<line opacity="0.1" stroke="#000000" stroke-width="1" x1="78" y1="241" x2="974" y2="241"/>
<line opacity="0.1" stroke="#000000" stroke-width="1" x1="78" y1="230" x2="974" y2="230"/>
<line opacity="0.1" stroke="#000000" stroke-width="1" x1="78" y1="218" x2="974" y2="218"/>
<line opacity="0.1" stroke="#000000" stroke-width="1" x1="78" y1="207" x2="974" y2="207"/>
<line opacity="0.1" stroke="#000000" stroke-width="1" x1="78" y1="195" x2="974" y2="195"/>
<line opacity="0.1" stroke="#000000" stroke-width="1" x1="78" y1="184" x2="974" y2="184"/>
<line opacity="0.1" stroke="#000000" stroke-width="1" x1="78" y1="173" x2="974" y2="173"/>
<line opacity="0.1" stroke="#000000" stroke-width="1" x1="78" y1="161" x2="974" y2="161"/>
<line opacity="0.1" stroke="#000000" stroke-width="1" x1="78" y1="150" x2="974" y2="150"/>
<line opacity="0.1" stroke="#000000" stroke-width="1" x1="78" y1="138" x2="974" y2="138"/>
<line opacity="0.1" stroke="#000000" stroke-width="1" x1="78" y1="127" x2="974" y2="127"/>
<line opacity="0.1" stroke="#000000" stroke-width="1" x1="78" y1="115" x2="974" y2="115"/>
<line opacity="0.1" stroke="#000000" stroke-width="1" x1="78" y1="104" x2="974" y2="104"/>
<line opacity="0.1" stroke="#000000" stroke-width="1" x1="78" y1="93" x2="974" y2="93"/>
<line opacity="0.1" stroke="#000000" stroke-width="1" x1="78" y1="81" x2="974" y2="81"/>
<line opacity="0.1" stroke="#000000" stroke-width="1" x1="78" y1="70" x2="974" y2="70"/>
<text x="8" y="384" dy="0.76em" text-anchor="middle" font-family="sans-serif" font-size="9.67741935483871" opacity="1" fill="#000000" transform="rotate(270, 8, 384)">
Memory usage
</text>
<text x="526" y="760" dy="-0.5ex" text-anchor="middle" font-family="sans-serif" font-size="9.67741935483871" opacity="1" fill="#000000">
Time
</text>
<line opacity="0.2" stroke="#000000" stroke-width="1" x1="192" y1="699" x2="192" y2="67"/>
<line opacity="0.2" stroke="#000000" stroke-width="1" x1="372" y1="699" x2="372" y2="67"/>
<line opacity="0.2" stroke="#000000" stroke-width="1" x1="551" y1="699" x2="551" y2="67"/>
<line opacity="0.2" stroke="#000000" stroke-width="1" x1="730" y1="699" x2="730" y2="67"/>
<line opacity="0.2" stroke="#000000" stroke-width="1" x1="909" y1="699" x2="909" y2="67"/>
<line opacity="0.2" stroke="#000000" stroke-width="1" x1="78" y1="699" x2="974" y2="699"/>
<line opacity="0.2" stroke="#000000" stroke-width="1" x1="78" y1="584" x2="974" y2="584"/>
<line opacity="0.2" stroke="#000000" stroke-width="1" x1="78" y1="470" x2="974" y2="470"/>
<line opacity="0.2" stroke="#000000" stroke-width="1" x1="78" y1="356" x2="974" y2="356"/>
<line opacity="0.2" stroke="#000000" stroke-width="1" x1="78" y1="241" x2="974" y2="241"/>
<line opacity="0.2" stroke="#000000" stroke-width="1" x1="78" y1="127" x2="974" y2="127"/>
<polyline fill="none" opacity="1" stroke="#000000" stroke-width="1" points="77,68 77,700 "/>
<text x="68" y="699" dy="0.5ex" text-anchor="end" font-family="sans-serif" font-size="9.67741935483871" opacity="1" fill="#000000">
0.00 MB
</text>
<polyline fill="none" opacity="1" stroke="#000000" stroke-width="1" points="72,699 77,699 "/>
<text x="68" y="584" dy="0.5ex" text-anchor="end" font-family="sans-serif" font-size="9.67741935483871" opacity="1" fill="#000000">
0.19 MB
</text>
<polyline fill="none" opacity="1" stroke="#000000" stroke-width="1" points="72,584 77,584 "/>
<text x="68" y="470" dy="0.5ex" text-anchor="end" font-family="sans-serif" font-size="9.67741935483871" opacity="1" fill="#000000">
0.38 MB
</text>
<polyline fill="none" opacity="1" stroke="#000000" stroke-width="1" points="72,470 77,470 "/>
<text x="68" y="356" dy="0.5ex" text-anchor="end" font-family="sans-serif" font-size="9.67741935483871" opacity="1" fill="#000000">
0.57 MB
</text>
<polyline fill="none" opacity="1" stroke="#000000" stroke-width="1" points="72,356 77,356 "/>
<text x="68" y="241" dy="0.5ex" text-anchor="end" font-family="sans-serif" font-size="9.67741935483871" opacity="1" fill="#000000">
0.76 MB
</text>
<polyline fill="none" opacity="1" stroke="#000000" stroke-width="1" points="72,241 77,241 "/>
<text x="68" y="127" dy="0.5ex" text-anchor="end" font-family="sans-serif" font-size="9.67741935483871" opacity="1" fill="#000000">
0.95 MB
</text>
<polyline fill="none" opacity="1" stroke="#000000" stroke-width="1" points="72,127 77,127 "/>
<polyline fill="none" opacity="1" stroke="#000000" stroke-width="1" points="78,700 974,700 "/>
<text x="192" y="710" dy="0.76em" text-anchor="middle" font-family="sans-serif" font-size="9.67741935483871" opacity="1" fill="#000000">
06:26:08
</text>
<polyline fill="none" opacity="1" stroke="#000000" stroke-width="1" points="192,700 192,705 "/>
<text x="372" y="710" dy="0.76em" text-anchor="middle" font-family="sans-serif" font-size="9.67741935483871" opacity="1" fill="#000000">
06:26:10
</text>
<polyline fill="none" opacity="1" stroke="#000000" stroke-width="1" points="372,700 372,705 "/>
<text x="551" y="710" dy="0.76em" text-anchor="middle" font-family="sans-serif" font-size="9.67741935483871" opacity="1" fill="#000000">
06:26:12
</text>
<polyline fill="none" opacity="1" stroke="#000000" stroke-width="1" points="551,700 551,705 "/>
<text x="730" y="710" dy="0.76em" text-anchor="middle" font-family="sans-serif" font-size="9.67741935483871" opacity="1" fill="#000000">
06:26:14
</text>
<polyline fill="none" opacity="1" stroke="#000000" stroke-width="1" points="730,700 730,705 "/>
<text x="909" y="710" dy="0.76em" text-anchor="middle" font-family="sans-serif" font-size="9.67741935483871" opacity="1" fill="#000000">
06:26:16
</text>
<polyline fill="none" opacity="1" stroke="#000000" stroke-width="1" points="909,700 909,705 "/>
<polyline fill="none" opacity="1" stroke="#000000" stroke-width="1" points="78,67 974,67 "/>
<text x="192" y="58" dy="-0.5ex" text-anchor="middle" font-family="sans-serif" font-size="9.67741935483871" opacity="1" fill="#000000">
+1s
</text>
<polyline fill="none" opacity="1" stroke="#000000" stroke-width="1" points="192,62 192,67 "/>
<text x="372" y="58" dy="-0.5ex" text-anchor="middle" font-family="sans-serif" font-size="9.67741935483871" opacity="1" fill="#000000">
+3s
</text>
<polyline fill="none" opacity="1" stroke="#000000" stroke-width="1" points="372,62 372,67 "/>
<text x="551" y="58" dy="-0.5ex" text-anchor="middle" font-family="sans-serif" font-size="9.67741935483871" opacity="1" fill="#000000">
+5s
</text>
<polyline fill="none" opacity="1" stroke="#000000" stroke-width="1" points="551,62 551,67 "/>
<text x="730" y="58" dy="-0.5ex" text-anchor="middle" font-family="sans-serif" font-size="9.67741935483871" opacity="1" fill="#000000">
+7s
</text>
<polyline fill="none" opacity="1" stroke="#000000" stroke-width="1" points="730,62 730,67 "/>
<text x="909" y="58" dy="-0.5ex" text-anchor="middle" font-family="sans-serif" font-size="9.67741935483871" opacity="1" fill="#000000">
+9s
</text>
<polyline fill="none" opacity="1" stroke="#000000" stroke-width="1" points="909,62 909,67 "/>
<rect x="83" y="73" width="99" height="45" opacity="0.75" fill="#FFFFFF" stroke="none"/>
<rect x="83" y="73" width="99" height="45" opacity="1" fill="none" stroke="#000000"/>
<text x="123" y="83" dy="0.76em" text-anchor="start" font-family="sans-serif" font-size="9.67741935483871" opacity="1" fill="#000000">
Temporary
</text>
<text x="123" y="98" dy="0.76em" text-anchor="start" font-family="sans-serif" font-size="9.67741935483871" opacity="1" fill="#000000">
Leaked
</text>
<rect x="93" y="83" width="10" height="10" opacity="1" fill="#3CB44B" stroke="none"/>
<rect x="93" y="98" width="10" height="10" opacity="1" fill="#E6194B" stroke="none"/>
</svg>
