<svg width="1024" height="768" viewBox="0 0 1024 768" xmlns="http://www.w3.org/2000/svg">
<rect x="0" y="0" width="1023" height="767" opacity="1" fill="#FFFFFF" stroke="none"/>
<polygon opacity="1" fill="#E6194B" points="78,644 78,643 79,623 79,622 80,621 80,610 81,611 82,620 82,617 83,618 83,625 84,629 85,630 85,632 86,634 86,631 87,632 88,634 88,632 89,629 89,629 90,630 90,624 91,620 92,609 92,607 93,615 93,618 94,619 95,613 95,604 96,589 96,586 97,604 98,609 98,614 99,612 99,601 100,592 101,586 101,586 102,584 102,585 103,595 103,592 104,585 105,582 105,582 106,582 106,571 107,565 108,563 108,563 109,554 109,545 110,542 111,543 111,531 112,524 112,522 113,510 114,505 114,504 115,509 115,507 116,501 116,507 117,504 118,495 118,491 119,488 119,496 120,499 121,490 121,484 122,483 122,478 123,472 124,465 124,469 125,470 125,477 126,476 127,476 127,463 128,460 128,460 129,462 129,460 130,460 131,456 131,450 132,449 132,459 133,463 134,463 134,451 135,447 135,444 136,443 137,449 137,443 138,443 138,446 139,439 140,435 140,432 141,428 141,431 142,435 142,427 143,425 144,427 144,425 145,427 145,429 146,436 147,443 147,449 148,440 148,435 149,424 150,427 150,448 151,453 151,444 152,453 153,448 153,449 154,447 154,432 155,428 155,429 156,433 157,432 157,432 158,439 158,445 159,449 160,440 160,442 161,438 161,439 162,446 163,445 163,440 164,446 164,445 165,448 165,448 166,445 167,438 167,438 168,427 168,428 169,440 170,434 170,441 171,439 171,445 172,444 173,453 173,448 174,442 174,447 175,444 176,438 176,433 177,430 177,437 178,435 178,443 179,429 180,424 180,424 181,428 181,429 182,433 183,431 183,418 184,417 184,421 185,418 186,423 186,422 187,418 187,414 188,408 189,408 189,411 190,410 190,404 191,408 191,407 192,407 193,415 193,410 194,414 194,406 195,401 196,401 196,399 197,401 197,408 198,402 199,404 199,408 200,413 200,408 201,419 202,422 202,418 203,413 203,411 204,409 204,399 205,402 206,404 206,406 207,400 207,394 208,401 209,401 209,401 210,411 210,411 211,419 212,416 212,418 213,423 213,419 214,417 215,414 215,408 216,413 216,409 217,411 217,412 218,412 219,402 219,395 220,388 220,388 221,385 222,379 222,383 223,383 223,378 224,366 225,365 225,357 226,364 226,372 227,374 227,375 228,376 229,374 229,368 230,368 230,360 231,364 232,370 232,376 233,367 233,366 234,367 235,373 235,376 236,380 236,381 237,387 238,392 238,392 239,391 239,384 240,387 240,389 241,395 242,395 242,400 243,415 243,406 244,417 245,408 245,409 246,409 246,415 247,411 248,410 248,407 249,398 249,397 250,396 251,400 251,406 252,404 252,402 253,400 253,393 254,391 255,392 255,396 256,399 256,403 257,399 258,397 258,393 259,388 259,380 260,379 261,379 261,385 262,384 262,381 263,385 264,383 264,385 265,380 265,373 266,366 266,364 267,362 268,354 268,354 269,363 269,370 270,382 271,382 271,395 272,400 272,392 273,393 274,390 274,379 275,380 275,392 276,399 277,397 277,393 278,391 278,392 279,389 279,376 280,376 281,371 281,378 282,375 282,380 283,383 284,382 284,380 285,380 285,381 286,386 287,393 287,392 288,390 288,387 289,386 290,384 290,385 291,391 291,386 292,386 292,388 293,396 294,393 294,389 295,387 295,390 296,398 297,399 297,396 298,397 298,388 299,389 300,390 300,380 301,380 301,385 302,384 302,381 303,387 304,385 304,392 305,391 305,377 306,375 307,371 307,381 308,377 308,368 309,360 310,358 310,350 311,354 311,355 312,344 313,344 313,342 314,343 314,347 315,352 315,342 316,343 317,342 317,341 318,349 318,349 319,350 320,342 320,337 321,332 321,334 322,334 323,332 323,336 324,340 324,341 325,344 326,344 326,341 327,342 327,345 328,347 328,353 329,354 330,342 330,343 331,348 331,331 332,328 333,328 333,328 334,327 334,329 335,327 336,322 336,318 337,318 337,318 338,315 339,319 339,321 340,321 340,324 341,326 341,322 342,316 343,316 343,308 344,311 344,315 345,311 346,313 346,315 347,303 347,306 348,304 349,305 349,310 350,317 350,319 351,315 352,312 352,304 353,308 353,304 354,306 354,303 355,307 356,317 356,318 357,319 357,322 358,320 359,324 359,326 360,322 360,326 361,328 362,327 362,328 363,328 363,322 364,329 365,330 365,327 366,332 366,329 367,317 367,319 368,329 369,328 369,328 370,330 370,329 371,325 372,324 372,326 373,328 373,329 374,322 375,320 375,317 376,324 376,330 377,323 377,320 378,320 379,323 379,320 380,313 380,312 381,320 382,325 382,317 383,316 383,314 384,312 385,314 385,300 386,304 386,308 387,318 388,318 388,316 389,311 389,314 390,316 390,320 391,313 392,308 392,313 393,309 393,317 394,318 395,309 395,310 396,311 396,309 397,310 398,318 398,316 399,318 399,321 400,317 401,323 401,321 402,327 402,340 403,337 403,335 404,332 405,326 405,336 406,329 406,328 407,331 408,329 408,328 409,331 409,337 410,337 411,338 411,339 412,339 412,337 413,332 414,328 414,328 415,324 415,330 416,334 416,329 417,330 418,328 418,333 419,331 419,335 420,334 421,333 421,337 422,339 422,343 423,347 424,354 424,357 425,355 425,363 426,362 427,353 427,344 428,347 428,347 429,344 429,344 430,346 431,346 431,346 432,346 432,342 433,342 434,342 434,350 435,347 435,342 436,342 437,344 437,347 438,344 438,339 439,338 440,341 440,338 441,329 441,320 442,317 442,320 443,320 444,320 444,310 445,305 445,303 446,299 447,303 447,304 448,301 448,303 449,305 450,302 450,302 451,305 451,309 452,297 452,297 453,295 454,298 454,306 455,308 455,305 456,302 457,306 457,311 458,300 458,294 459,300 460,302 460,303 461,314 461,313 462,311 463,307 463,309 464,306 464,303 465,292 465,288 466,291 467,284 467,285 468,278 468,279 469,288 470,286 470,276 471,281 471,278 472,276 473,268 473,268 474,282 474,280 475,257 476,259 476,255 477,255 477,266 478,252 478,251 479,251 480,245 480,252 481,259 481,260 482,256 483,261 483,262 484,244 484,246 485,243 486,247 486,257 487,257 487,250 488,250 489,247 489,254 490,259 490,258 491,252 491,252 492,252 493,252 493,251 494,251 494,252 495,259 496,241 496,240 497,239 497,240 498,239 499,229 499,226 500,234 500,230 501,227 502,223 502,230 503,235 503,231 504,232 504,236 505,235 506,240 506,237 507,234 507,227 508,226 509,226 509,226 510,229 510,234 511,235 512,227 512,230 513,221 513,220 514,224 515,218 515,218 516,219 516,228 517,229 517,228 518,238 519,236 519,230 520,233 520,231 521,231 522,231 522,231 523,221 523,212 524,206 525,215 525,208 526,211 526,211 527,212 527,208 528,205 529,209 529,204 530,200 530,207 531,198 532,198 532,203 533,213 533,226 534,224 535,225 535,227 536,232 536,233 537,229 538,223 538,218 539,213 539,213 540,219 540,218 541,217 542,212 542,204 543,211 543,221 544,233 545,240 545,231 546,227 546,219 547,215 548,210 548,210 549,207 549,203 550,199 551,204 551,200 552,195 552,194 553,193 553,194 554,205 555,198 555,195 556,188 556,194 557,195 558,200 558,197 559,201 559,206 560,204 561,202 561,202 562,202 562,199 563,194 564,200 564,197 565,190 565,183 566,177 566,178 567,179 568,179 568,185 569,185 569,199 570,199 571,193 571,191 572,191 572,192 573,195 574,206 574,215 575,226 575,232 576,225 577,215 577,208 578,210 578,202 579,198 579,189 580,183 581,183 581,179 582,183 582,179 583,174 584,177 584,182 585,182 585,191 586,190 587,186 587,182 588,184 588,183 589,178 590,179 590,174 591,175 591,179 592,173 592,166 593,162 594,159 594,164 595,167 595,163 596,173 597,169 597,164 598,165 598,170 599,176 600,178 600,173 601,175 601,181 602,179 602,179 603,166 604,159 604,160 605,161 605,164 606,160 607,159 607,160 608,161 608,160 609,156 610,154 610,148 611,140 611,138 612,143 613,135 613,132 614,127 614,131 615,127 615,127 616,131 617,129 617,135 618,136 618,145 619,146 620,152 620,147 621,149 621,142 622,149 623,146 623,143 624,147 624,148 625,149 626,154 626,154 627,151 627,149 628,148 628,149 629,149 630,142 630,135 631,143 631,138 632,135 633,141 633,143 634,146 634,139 635,128 636,119 636,128 637,133 637,136 638,136 639,128 639,123 640,123 640,129 641,128 641,122 642,124 643,138 643,141 644,145 644,139 645,137 646,134 646,129 647,133 647,133 648,119 649,119 649,114 650,111 650,102 651,101 652,100 652,94 653,91 653,96 654,98 654,104 655,112 656,113 656,117 657,114 657,108 658,105 659,104 659,102 660,97 660,91 661,91 662,92 662,98 663,91 663,84 664,85 665,95 665,99 666,92 666,90 667,91 667,70 668,68 668,412 974,412 974,699 78,699 "/>
<polyline fill="none" opacity="1" stroke="#E6194B" stroke-width="1" points="78,644 78,643 79,623 79,622 80,621 80,610 81,611 82,620 82,617 83,618 83,625 84,629 85,630 85,632 86,634 86,631 87,632 88,634 88,632 89,629 89,629 90,630 90,624 91,620 92,609 92,607 93,615 93,618 94,619 95,613 95,604 96,589 96,586 97,604 98,609 98,614 99,612 99,601 100,592 101,586 101,586 102,584 102,585 103,595 103,592 104,585 105,582 105,582 106,582 106,571 107,565 108,563 108,563 109,554 109,545 110,542 111,543 111,531 112,524 112,522 113,510 114,505 114,504 115,509 115,507 116,501 116,507 117,504 118,495 118,491 119,488 119,496 120,499 121,490 121,484 122,483 122,478 123,472 124,465 124,469 125,470 125,477 126,476 127,476 127,463 128,460 128,460 129,462 129,460 130,460 131,456 131,450 132,449 132,459 133,463 134,463 134,451 135,447 135,444 136,443 137,449 137,443 138,443 138,446 139,439 140,435 140,432 141,428 141,431 142,435 142,427 143,425 144,427 144,425 145,427 145,429 146,436 147,443 147,449 148,440 148,435 149,424 150,427 150,448 151,453 151,444 152,453 153,448 153,449 154,447 154,432 155,428 155,429 156,433 157,432 157,432 158,439 158,445 159,449 160,440 160,442 161,438 161,439 162,446 163,445 163,440 164,446 164,445 165,448 165,448 166,445 167,438 167,438 168,427 168,428 169,440 170,434 170,441 171,439 171,445 172,444 173,453 173,448 174,442 174,447 175,444 176,438 176,433 177,430 177,437 178,435 178,443 179,429 180,424 180,424 181,428 181,429 182,433 183,431 183,418 184,417 184,421 185,418 186,423 186,422 187,418 187,414 188,408 189,408 189,411 190,410 190,404 191,408 191,407 192,407 193,415 193,410 194,414 194,406 195,401 196,401 196,399 197,401 197,408 198,402 199,404 199,408 200,413 200,408 201,419 202,422 202,418 203,413 203,411 204,409 204,399 205,402 206,404 206,406 207,400 207,394 208,401 209,401 209,401 210,411 210,411 211,419 212,416 212,418 213,423 213,419 214,417 215,414 215,408 216,413 216,409 217,411 217,412 218,412 219,402 219,395 220,388 220,388 221,385 222,379 222,383 223,383 223,378 224,366 225,365 225,357 226,364 226,372 227,374 227,375 228,376 229,374 229,368 230,368 230,360 231,364 232,370 232,376 233,367 233,366 234,367 235,373 235,376 236,380 236,381 237,387 238,392 238,392 239,391 239,384 240,387 240,389 241,395 242,395 242,400 243,415 243,406 244,417 245,408 245,409 246,409 246,415 247,411 248,410 248,407 249,398 249,397 250,396 251,400 251,406 252,404 252,402 253,400 253,393 254,391 255,392 255,396 256,399 256,403 257,399 258,397 258,393 259,388 259,380 260,379 261,379 261,385 262,384 262,381 263,385 264,383 264,385 265,380 265,373 266,366 266,364 267,362 268,354 268,354 269,363 269,370 270,382 271,382 271,395 272,400 272,392 273,393 274,390 274,379 275,380 275,392 276,399 277,397 277,393 278,391 278,392 279,389 279,376 280,376 281,371 281,378 282,375 282,380 283,383 284,382 284,380 285,380 285,381 286,386 287,393 287,392 288,390 288,387 289,386 290,384 290,385 291,391 291,386 292,386 292,388 293,396 294,393 294,389 295,387 295,390 296,398 297,399 297,396 298,397 298,388 299,389 300,390 300,380 301,380 301,385 302,384 302,381 303,387 304,385 304,392 305,391 305,377 306,375 307,371 307,381 308,377 308,368 309,360 310,358 310,350 311,354 311,355 312,344 313,344 313,342 314,343 314,347 315,352 315,342 316,343 317,342 317,341 318,349 318,349 319,350 320,342 320,337 321,332 321,334 322,334 323,332 323,336 324,340 324,341 325,344 326,344 326,341 327,342 327,345 328,347 328,353 329,354 330,342 330,343 331,348 331,331 332,328 333,328 333,328 334,327 334,329 335,327 336,322 336,318 337,318 337,318 338,315 339,319 339,321 340,321 340,324 341,326 341,322 342,316 343,316 343,308 344,311 344,315 345,311 346,313 346,315 347,303 347,306 348,304 349,305 349,310 350,317 350,319 351,315 352,312 352,304 353,308 353,304 354,306 354,303 355,307 356,317 356,318 357,319 357,322 358,320 359,324 359,326 360,322 360,326 361,328 362,327 362,328 363,328 363,322 364,329 365,330 365,327 366,332 366,329 367,317 367,319 368,329 369,328 369,328 370,330 370,329 371,325 372,324 372,326 373,328 373,329 374,322 375,320 375,317 376,324 376,330 377,323 377,320 378,320 379,323 379,320 380,313 380,312 381,320 382,325 382,317 383,316 383,314 384,312 385,314 385,300 386,304 386,308 387,318 388,318 388,316 389,311 389,314 390,316 390,320 391,313 392,308 392,313 393,309 393,317 394,318 395,309 395,310 396,311 396,309 397,310 398,318 398,316 399,318 399,321 400,317 401,323 401,321 402,327 402,340 403,337 403,335 404,332 405,326 405,336 406,329 406,328 407,331 408,329 408,328 409,331 409,337 410,337 411,338 411,339 412,339 412,337 413,332 414,328 414,328 415,324 415,330 416,334 416,329 417,330 418,328 418,333 419,331 419,335 420,334 421,333 421,337 422,339 422,343 423,347 424,354 424,357 425,355 425,363 426,362 427,353 427,344 428,347 428,347 429,344 429,344 430,346 431,346 431,346 432,346 432,342 433,342 434,342 434,350 435,347 435,342 436,342 437,344 437,347 438,344 438,339 439,338 440,341 440,338 441,329 441,320 442,317 442,320 443,320 444,320 444,310 445,305 445,303 446,299 447,303 447,304 448,301 448,303 449,305 450,302 450,302 451,305 451,309 452,297 452,297 453,295 454,298 454,306 455,308 455,305 456,302 457,306 457,311 458,300 458,294 459,300 460,302 460,303 461,314 461,313 462,311 463,307 463,309 464,306 464,303 465,292 465,288 466,291 467,284 467,285 468,278 468,279 469,288 470,286 470,276 471,281 471,278 472,276 473,268 473,268 474,282 474,280 475,257 476,259 476,255 477,255 477,266 478,252 478,251 479,251 480,245 480,252 481,259 481,260 482,256 483,261 483,262 484,244 484,246 485,243 486,247 486,257 487,257 487,250 488,250 489,247 489,254 490,259 490,258 491,252 491,252 492,252 493,252 493,251 494,251 494,252 495,259 496,241 496,240 497,239 497,240 498,239 499,229 499,226 500,234 500,230 501,227 502,223 502,230 503,235 503,231 504,232 504,236 505,235 506,240 506,237 507,234 507,227 508,226 509,226 509,226 510,229 510,234 511,235 512,227 512,230 513,221 513,220 514,224 515,218 515,218 516,219 516,228 517,229 517,228 518,238 519,236 519,230 520,233 520,231 521,231 522,231 522,231 523,221 523,212 524,206 525,215 525,208 526,211 526,211 527,212 527,208 528,205 529,209 529,204 530,200 530,207 531,198 532,198 532,203 533,213 533,226 534,224 535,225 535,227 536,232 536,233 537,229 538,223 538,218 539,213 539,213 540,219 540,218 541,217 542,212 542,204 543,211 543,221 544,233 545,240 545,231 546,227 546,219 547,215 548,210 548,210 549,207 549,203 550,199 551,204 551,200 552,195 552,194 553,193 553,194 554,205 555,198 555,195 556,188 556,194 557,195 558,200 558,197 559,201 559,206 560,204 561,202 561,202 562,202 562,199 563,194 564,200 564,197 565,190 565,183 566,177 566,178 567,179 568,179 568,185 569,185 569,199 570,199 571,193 571,191 572,191 572,192 573,195 574,206 574,215 575,226 575,232 576,225 577,215 577,208 578,210 578,202 579,198 579,189 580,183 581,183 581,179 582,183 582,179 583,174 584,177 584,182 585,182 585,191 586,190 587,186 587,182 588,184 588,183 589,178 590,179 590,174 591,175 591,179 592,173 592,166 593,162 594,159 594,164 595,167 595,163 596,173 597,169 597,164 598,165 598,170 599,176 600,178 600,173 601,175 601,181 602,179 602,179 603,166 604,159 604,160 605,161 605,164 606,160 607,159 607,160 608,161 608,160 609,156 610,154 610,148 611,140 611,138 612,143 613,135 613,132 614,127 614,131 615,127 615,127 616,131 617,129 617,135 618,136 618,145 619,146 620,152 620,147 621,149 621,142 622,149 623,146 623,143 624,147 624,148 625,149 626,154 626,154 627,151 627,149 628,148 628,149 629,149 630,142 630,135 631,143 631,138 632,135 633,141 633,143 634,146 634,139 635,128 636,119 636,128 637,133 637,136 638,136 639,128 639,123 640,123 640,129 641,128 641,122 642,124 643,138 643,141 644,145 644,139 645,137 646,134 646,129 647,133 647,133 648,119 649,119 649,114 650,111 650,102 651,101 652,100 652,94 653,91 653,96 654,98 654,104 655,112 656,113 656,117 657,114 657,108 658,105 659,104 659,102 660,97 660,91 661,91 662,92 662,98 663,91 663,84 664,85 665,95 665,99 666,92 666,90 667,91 667,70 668,68 668,412 974,412 "/>
<line opacity="0.1" stroke="#000000" stroke-width="1" x1="87" y1="699" x2="87" y2="67"/>
<line opacity="0.1" stroke="#000000" stroke-width="1" x1="99" y1="699" x2="99" y2="67"/>
<line opacity="0.1" stroke="#000000" stroke-width="1" x1="111" y1="699" x2="111" y2="67"/>
<line opacity="0.1" stroke="#000000" stroke-width="1" x1="124" y1="699" x2="124" y2="67"/>
<line opacity="0.1" stroke="#000000" stroke-width="1" x1="136" y1="699" x2="136" y2="67"/>
<line opacity="0.1" stroke="#000000" stroke-width="1" x1="148" y1="699" x2="148" y2="67"/>
<line opacity="0.1" stroke="#000000" stroke-width="1" x1="160" y1="699" x2="160" y2="67"/>
<line opacity="0.1" stroke="#000000" stroke-width="1" x1="173" y1="699" x2="173" y2="67"/>
<line opacity="0.1" stroke="#000000" stroke-width="1" x1="185" y1="699" x2="185" y2="67"/>
<line opacity="0.1" stroke="#000000" stroke-width="1" x1="197" y1="699" x2="197" y2="67"/>
<line opacity="0.1" stroke="#000000" stroke-width="1" x1="209" y1="699" x2="209" y2="67"/>
<line opacity="0.1" stroke="#000000" stroke-width="1" x1="221" y1="699" x2="221" y2="67"/>
<line opacity="0.1" stroke="#000000" stroke-width="1" x1="234" y1="699" x2="234" y2="67"/>
<line opacity="0.1" stroke="#000000" stroke-width="1" x1="246" y1="699" x2="246" y2="67"/>
<line opacity="0.1" stroke="#000000" stroke-width="1" x1="258" y1="699" x2="258" y2="67"/>
<line opacity="0.1" stroke="#000000" stroke-width="1" x1="270" y1="699" x2="270" y2="67"/>
<line opacity="0.1" stroke="#000000" stroke-width="1" x1="282" y1="699" x2="282" y2="67"/>
<line opacity="0.1" stroke="#000000" stroke-width="1" x1="295" y1="699" x2="295" y2="67"/>
<line opacity="0.1" stroke="#000000" stroke-width="1" x1="307" y1="699" x2="307" y2="67"/>
<line opacity="0.1" stroke="#000000" stroke-width="1" x1="319" y1="699" x2="319" y2="67"/>
<line opacity="0.1" stroke="#000000" stroke-width="1" x1="331" y1="699" x2="331" y2="67"/>
<line opacity="0.1" stroke="#000000" stroke-width="1" x1="343" y1="699" x2="343" y2="67"/>
<line opacity="0.1" stroke="#000000" stroke-width="1" x1="356" y1="699" x2="356" y2="67"/>
<line opacity="0.1" stroke="#000000" stroke-width="1" x1="368" y1="699" x2="368" y2="67"/>
<line opacity="0.1" stroke="#000000" stroke-width="1" x1="380" y1="699" x2="380" y2="67"/>
<line opacity="0.1" stroke="#000000" stroke-width="1" x1="392" y1="699" x2="392" y2="67"/>
<line opacity="0.1" stroke="#000000" stroke-width="1" x1="405" y1="699" x2="405" y2="67"/>
<line opacity="0.1" stroke="#000000" stroke-width="1" x1="417" y1="699" x2="417" y2="67"/>
<line opacity="0.1" stroke="#000000" stroke-width="1" x1="429" y1="699" x2="429" y2="67"/>
<line opacity="0.1" stroke="#000000" stroke-width="1" x1="441" y1="699" x2="441" y2="67"/>
<line opacity="0.1" stroke="#000000" stroke-width="1" x1="453" y1="699" x2="453" y2="67"/>
<line opacity="0.1" stroke="#000000" stroke-width="1" x1="466" y1="699" x2="466" y2="67"/>
<line opacity="0.1" stroke="#000000" stroke-width="1" x1="478" y1="699" x2="478" y2="67"/>
<line opacity="0.1" stroke="#000000" stroke-width="1" x1="490" y1="699" x2="490" y2="67"/>
<line opacity="0.1" stroke="#000000" stroke-width="1" x1="502" y1="699" x2="502" y2="67"/>
<line opacity="0.1" stroke="#000000" stroke-width="1" x1="514" y1="699" x2="514" y2="67"/>
<line opacity="0.1" stroke="#000000" stroke-width="1" x1="527" y1="699" x2="527" y2="67"/>
<line opacity="0.1" stroke="#000000" stroke-width="1" x1="539" y1="699" x2="539" y2="67"/>
<line opacity="0.1" stroke="#000000" stroke-width="1" x1="551" y1="699" x2="551" y2="67"/>
<line opacity="0.1" stroke="#000000" stroke-width="1" x1="563" y1="699" x2="563" y2="67"/>
<line opacity="0.1" stroke="#000000" stroke-width="1" x1="575" y1="699" x2="575" y2="67"/>
<line opacity="0.1" stroke="#000000" stroke-width="1" x1="588" y1="699" x2="588" y2="67"/>
<line opacity="0.1" stroke="#000000" stroke-width="1" x1="600" y1="699" x2="600" y2="67"/>
<line opacity="0.1" stroke="#000000" stroke-width="1" x1="612" y1="699" x2="612" y2="67"/>
<line opacity="0.1" stroke="#000000" stroke-width="1" x1="624" y1="699" x2="624" y2="67"/>
<line opacity="0.1" stroke="#000000" stroke-width="1" x1="637" y1="699" x2="637" y2="67"/>
<line opacity="0.1" stroke="#000000" stroke-width="1" x1="649" y1="699" x2="649" y2="67"/>
<line opacity="0.1" stroke="#000000" stroke-width="1" x1="661" y1="699" x2="661" y2="67"/>
<line opacity="0.1" stroke="#000000" stroke-width="1" x1="673" y1="699" x2="673" y2="67"/>
<line opacity="0.1" stroke="#000000" stroke-width="1" x1="685" y1="699" x2="685" y2="67"/>
<line opacity="0.1" stroke="#000000" stroke-width="1" x1="698" y1="699" x2="698" y2="67"/>
<line opacity="0.1" stroke="#000000" stroke-width="1" x1="710" y1="699" x2="710" y2="67"/>
<line opacity="0.1" stroke="#000000" stroke-width="1" x1="722" y1="699" x2="722" y2="67"/>
<line opacity="0.1" stroke="#000000" stroke-width="1" x1="734" y1="699" x2="734" y2="67"/>
<line opacity="0.1" stroke="#000000" stroke-width="1" x1="746" y1="699" x2="746" y2="67"/>
<line opacity="0.1" stroke="#000000" stroke-width="1" x1="759" y1="699" x2="759" y2="67"/>
<line opacity="0.1" stroke="#000000" stroke-width="1" x1="771" y1="699" x2="771" y2="67"/>
<line opacity="0.1" stroke="#000000" stroke-width="1" x1="783" y1="699" x2="783" y2="67"/>
<line opacity="0.1" stroke="#000000" stroke-width="1" x1="795" y1="699" x2="795" y2="67"/>
<line opacity="0.1" stroke="#000000" stroke-width="1" x1="807" y1="699" x2="807" y2="67"/>
<line opacity="0.1" stroke="#000000" stroke-width="1" x1="820" y1="699" x2="820" y2="67"/>
<line opacity="0.1" stroke="#000000" stroke-width="1" x1="832" y1="699" x2="832" y2="67"/>
<line opacity="0.1" stroke="#000000" stroke-width="1" x1="844" y1="699" x2="844" y2="67"/>
<line opacity="0.1" stroke="#000000" stroke-width="1" x1="856" y1="699" x2="856" y2="67"/>
<line opacity="0.1" stroke="#000000" stroke-width="1" x1="869" y1="699" x2="869" y2="67"/>
<line opacity="0.1" stroke="#000000" stroke-width="1" x1="881" y1="699" x2="881" y2="67"/>
<line opacity="0.1" stroke="#000000" stroke-width="1" x1="893" y1="699" x2="893" y2="67"/>
<line opacity="0.1" stroke="#000000" stroke-width="1" x1="905" y1="699" x2="905" y2="67"/>
<line opacity="0.1" stroke="#000000" stroke-width="1" x1="917" y1="699" x2="917" y2="67"/>
<line opacity="0.1" stroke="#000000" stroke-width="1" x1="930" y1="699" x2="930" y2="67"/>
<line opacity="0.1" stroke="#000000" stroke-width="1" x1="942" y1="699" x2="942" y2="67"/>
<line opacity="0.1" stroke="#000000" stroke-width="1" x1="954" y1="699" x2="954" y2="67"/>
<line opacity="0.1" stroke="#000000" stroke-width="1" x1="966" y1="699" x2="966" y2="67"/>
<line opacity="0.1" stroke="#000000" stroke-width="1" x1="78" y1="699" x2="974" y2="699"/>
<line opacity="0.1" stroke="#000000" stroke-width="1" x1="78" y1="687" x2="974" y2="687"/>
<line opacity="0.1" stroke="#000000" stroke-width="1" x1="78" y1="676" x2="974" y2="676"/>
<line opacity="0.1" stroke="#000000" stroke-width="1" x1="78" y1="664" x2="974" y2="664"/>
<line opacity="0.1" stroke="#000000" stroke-width="1" x1="78" y1="653" x2="974" y2="653"/>
<line opacity="0.1" stroke="#000000" stroke-width="1" x1="78" y1="641" x2="974" y2="641"/>
<line opacity="0.1" stroke="#000000" stroke-width="1" x1="78" y1="630" x2="974" y2="630"/>
<line opacity="0.1" stroke="#000000" stroke-width="1" x1="78" y1="618" x2="974" y2="618"/>
<line opacity="0.1" stroke="#000000" stroke-width="1" x1="78" y1="607" x2="974" y2="607"/>
<line opacity="0.1" stroke="#000000" stroke-width="1" x1="78" y1="596" x2="974" y2="596"/>
<line opacity="0.1" stroke="#000000" stroke-width="1" x1="78" y1="584" x2="974" y2="584"/>
<line opacity="0.1" stroke="#000000" stroke-width="1" x1="78" y1="573" x2="974" y2="573"/>
<line opacity="0.1" stroke="#000000" stroke-width="1" x1="78" y1="561" x2="974" y2="561"/>
<line opacity="0.1" stroke="#000000" stroke-width="1" x1="78" y1="550" x2="974" y2="550"/>
<line opacity="0.1" stroke="#000000" stroke-width="1" x1="78" y1="538" x2="974" y2="538"/>
<line opacity="0.1" stroke="#000000" stroke-width="1" x1="78" y1="527" x2="974" y2="527"/>
<line opacity="0.1" stroke="#000000" stroke-width="1" x1="78" y1="516" x2="974" y2="516"/>
<line opacity="0.1" stroke="#000000" stroke-width="1" x1="78" y1="504" x2="974" y2="504"/>
<line opacity="0.1" stroke="#000000" stroke-width="1" x1="78" y1="493" x2="974" y2="493"/>
<line opacity="0.1" stroke="#000000" stroke-width="1" x1="78" y1="481" x2="974" y2="481"/>
<line opacity="0.1" stroke="#000000" stroke-width="1" x1="78" y1="470" x2="974" y2="470"/>
<line opacity="0.1" stroke="#000000" stroke-width="1" x1="78" y1="458" x2="974" y2="458"/>
<line opacity="0.1" stroke="#000000" stroke-width="1" x1="78" y1="447" x2="974" y2="447"/>
<line opacity="0.1" stroke="#000000" stroke-width="1" x1="78" y1="436" x2="974" y2="436"/>
<line opacity="0.1" stroke="#000000" stroke-width="1" x1="78" y1="424" x2="974" y2="424"/>
<line opacity="0.1" stroke="#000000" stroke-width="1" x1="78" y1="413" x2="974" y2="413"/>
<line opacity="0.1" stroke="#000000" stroke-width="1" x1="78" y1="401" x2="974" y2="401"/>
<line opacity="0.1" stroke="#000000" stroke-width="1" x1="78" y1="390" x2="974" y2="390"/>
<line opacity="0.1" stroke="#000000" stroke-width="1" x1="78" y1="378" x2="974" y2="378"/>
<line opacity="0.1" stroke="#000000" stroke-width="1" x1="78" y1="367" x2="974" y2="367"/>
<line opacity="0.1" stroke="#000000" stroke-width="1" x1="78" y1="356" x2="974" y2="356"/>
<line opacity="0.1" stroke="#000000" stroke-width="1" x1="78" y1="344" x2="974" y2="344"/>
<line opacity="0.1" stroke="#000000" stroke-width="1" x1="78" y1="333" x2="974" y2="333"/>
<line opacity="0.1" stroke="#000000" stroke-width="1" x1="78" y1="321" x2="974" y2="321"/>
<line opacity="0.1" stroke="#000000" stroke-width="1" x1="78" y1="310" x2="974" y2="310"/>
<line opacity="0.1" stroke="#000000" stroke-width="1" x1="78" y1="298" x2="974" y2="298"/>
<line opacity="0.1" stroke="#000000" stroke-width="1" x1="78" y1="287" x2="974" y2="287"/>
<line opacity="0.1" stroke="#000000" stroke-width="1" x1="78" y1="275" x2="974" y2="275"/>
<line opacity="0.1" stroke="#000000" stroke-width="1" x1="78" y1="264" x2="974" y2="264"/>
<line opacity="0.1" stroke="#000000" stroke-width="1" x1="78" y1="253" x2="974" y2="253"/>
<line opacity="0.1" stroke="#000000" stroke-width="1" x1="78" y1="241" x2="974" y2="241"/>
<line opacity="0.1" stroke="#000000" stroke-width="1" x1="78" y1="230" x2="974" y2="230"/>
<line opacity="0.1" stroke="#000000" stroke-width="1" x1="78" y1="218" x2="974" y2="218"/>
<line opacity="0.1" stroke="#000000" stroke-width="1" x1="78" y1="207" x2="974" y2="207"/>
<line opacity="0.1" stroke="#000000" stroke-width="1" x1="78" y1="195" x2="974" y2="195"/>
<line opacity="0.1" stroke="#000000" stroke-width="1" x1="78" y1="184" x2="974" y2="184"/>
<line opacity="0.1" stroke="#000000" stroke-width="1" x1="78" y1="173" x2="974" y2="173"/>
<line opacity="0.1" stroke="#000000" stroke-width="1" x1="78" y1="161" x2="974" y2="161"/>
<line opacity="0.1" stroke="#000000" stroke-width="1" x1="78" y1="150" x2="974" y2="150"/>
<line opacity="0.1" stroke="#000000" stroke-width="1" x1="78" y1="138" x2="974" y2="138"/>
<line opacity="0.1" stroke="#000000" stroke-width="1" x1="78" y1="127" x2="974" y2="127"/>
<line opacity="0.1" stroke="#000000" stroke-width="1" x1="78" y1="115" x2="974" y2="115"/>
<line opacity="0.1" stroke="#000000" stroke-width="1" x1="78" y1="104" x2="974" y2="104"/>
<line opacity="0.1" stroke="#000000" stroke-width="1" x1="78" y1="93" x2="974" y2="93"/>
<line opacity="0.1" stroke="#000000" stroke-width="1" x1="78" y1="81" x2="974" y2="81"/>
<line opacity="0.1" stroke="#000000" stroke-width="1" x1="78" y1="70" x2="974" y2="70"/>
<text x="8" y="384" dy="0.76em" text-anchor="middle" font-family="sans-serif" font-size="9.67741935483871" opacity="1" fill="#000000" transform="rotate(270, 8, 384)">
Memory usage
</text>
<text x="526" y="760" dy="-0.5ex" text-anchor="middle" font-family="sans-serif" font-size="9.67741935483871" opacity="1" fill="#000000">
Time
</text>
<line opacity="0.2" stroke="#000000" stroke-width="1" x1="136" y1="699" x2="136" y2="67"/>
<line opacity="0.2" stroke="#000000" stroke-width="1" x1="258" y1="699" x2="258" y2="67"/>
<line opacity="0.2" stroke="#000000" stroke-width="1" x1="380" y1="699" x2="380" y2="67"/>
<line opacity="0.2" stroke="#000000" stroke-width="1" x1="502" y1="699" x2="502" y2="67"/>
<line opacity="0.2" stroke="#000000" stroke-width="1" x1="624" y1="699" x2="624" y2="67"/>
<line opacity="0.2" stroke="#000000" stroke-width="1" x1="746" y1="699" x2="746" y2="67"/>
<line opacity="0.2" stroke="#000000" stroke-width="1" x1="869" y1="699" x2="869" y2="67"/>
<line opacity="0.2" stroke="#000000" stroke-width="1" x1="78" y1="699" x2="974" y2="699"/>
<line opacity="0.2" stroke="#000000" stroke-width="1" x1="78" y1="584" x2="974" y2="584"/>
<line opacity="0.2" stroke="#000000" stroke-width="1" x1="78" y1="470" x2="974" y2="470"/>
<line opacity="0.2" stroke="#000000" stroke-width="1" x1="78" y1="356" x2="974" y2="356"/>
<line opacity="0.2" stroke="#000000" stroke-width="1" x1="78" y1="241" x2="974" y2="241"/>
<line opacity="0.2" stroke="#000000" stroke-width="1" x1="78" y1="127" x2="974" y2="127"/>
<polyline fill="none" opacity="1" stroke="#000000" stroke-width="1" points="77,68 77,700 "/>
<text x="68" y="699" dy="0.5ex" text-anchor="end" font-family="sans-serif" font-size="9.67741935483871" opacity="1" fill="#000000">
0.00 MB
</text>
<polyline fill="none" opacity="1" stroke="#000000" stroke-width="1" points="72,699 77,699 "/>
<text x="68" y="584" dy="0.5ex" text-anchor="end" font-family="sans-serif" font-size="9.67741935483871" opacity="1" fill="#000000">
0.19 MB
</text>
<polyline fill="none" opacity="1" stroke="#000000" stroke-width="1" points="72,584 77,584 "/>
<text x="68" y="470" dy="0.5ex" text-anchor="end" font-family="sans-serif" font-size="9.67741935483871" opacity="1" fill="#000000">
0.38 MB
</text>
<polyline fill="none" opacity="1" stroke="#000000" stroke-width="1" points="72,470 77,470 "/>
<text x="68" y="356" dy="0.5ex" text-anchor="end" font-family="sans-serif" font-size="9.67741935483871" opacity="1" fill="#000000">
0.57 MB
</text>
<polyline fill="none" opacity="1" stroke="#000000" stroke-width="1" points="72,356 77,356 "/>
<text x="68" y="241" dy="0.5ex" text-anchor="end" font-family="sans-serif" font-size="9.67741935483871" opacity="1" fill="#000000">
0.76 MB
</text>
<polyline fill="none" opacity="1" stroke="#000000" stroke-width="1" points="72,241 77,241 "/>
<text x="68" y="127" dy="0.5ex" text-anchor="end" font-family="sans-serif" font-size="9.67741935483871" opacity="1" fill="#000000">
0.95 MB
</text>
<polyline fill="none" opacity="1" stroke="#000000" stroke-width="1" points="72,127 77,127 "/>
<polyline fill="none" opacity="1" stroke="#000000" stroke-width="1" points="78,700 974,700 "/>
<text x="136" y="710" dy="0.76em" text-anchor="middle" font-family="sans-serif" font-size="9.67741935483871" opacity="1" fill="#000000">
06:26:08
</text>
<polyline fill="none" opacity="1" stroke="#000000" stroke-width="1" points="136,700 136,705 "/>
<text x="258" y="710" dy="0.76em" text-anchor="middle" font-family="sans-serif" font-size="9.67741935483871" opacity="1" fill="#000000">
06:26:10
</text>
<polyline fill="none" opacity="1" stroke="#000000" stroke-width="1" points="258,700 258,705 "/>
<text x="380" y="710" dy="0.76em" text-anchor="middle" font-family="sans-serif" font-size="9.67741935483871" opacity="1" fill="#000000">
06:26:12
</text>
<polyline fill="none" opacity="1" stroke="#000000" stroke-width="1" points="380,700 380,705 "/>
<text x="502" y="710" dy="0.76em" text-anchor="middle" font-family="sans-serif" font-size="9.67741935483871" opacity="1" fill="#000000">
06:26:14
</text>
<polyline fill="none" opacity="1" stroke="#000000" stroke-width="1" points="502,700 502,705 "/>
<text x="624" y="710" dy="0.76em" text-anchor="middle" font-family="sans-serif" font-size="9.67741935483871" opacity="1" fill="#000000">
06:26:16
</text>
<polyline fill="none" opacity="1" stroke="#000000" stroke-width="1" points="624,700 624,705 "/>
<text x="746" y="710" dy="0.76em" text-anchor="middle" font-family="sans-serif" font-size="9.67741935483871" opacity="1" fill="#000000">
06:26:18
</text>
<polyline fill="none" opacity="1" stroke="#000000" stroke-width="1" points="746,700 746,705 "/>
<text x="869" y="710" dy="0.76em" text-anchor="middle" font-family="sans-serif" font-size="9.67741935483871" opacity="1" fill="#000000">
06:26:20
</text>
<polyline fill="none" opacity="1" stroke="#000000" stroke-width="1" points="869,700 869,705 "/>
<polyline fill="none" opacity="1" stroke="#000000" stroke-width="1" points="78,67 974,67 "/>
<text x="136" y="58" dy="-0.5ex" text-anchor="middle" font-family="sans-serif" font-size="9.67741935483871" opacity="1" fill="#000000">
+956ms
</text>
<polyline fill="none" opacity="1" stroke="#000000" stroke-width="1" points="136,62 136,67 "/>
<text x="258" y="58" dy="-0.5ex" text-anchor="middle" font-family="sans-serif" font-size="9.67741935483871" opacity="1" fill="#000000">
+2s
</text>
<polyline fill="none" opacity="1" stroke="#000000" stroke-width="1" points="258,62 258,67 "/>
<text x="380" y="58" dy="-0.5ex" text-anchor="middle" font-family="sans-serif" font-size="9.67741935483871" opacity="1" fill="#000000">
+4s
</text>
<polyline fill="none" opacity="1" stroke="#000000" stroke-width="1" points="380,62 380,67 "/>
<text x="502" y="58" dy="-0.5ex" text-anchor="middle" font-family="sans-serif" font-size="9.67741935483871" opacity="1" fill="#000000">
+6s
</text>
<polyline fill="none" opacity="1" stroke="#000000" stroke-width="1" points="502,62 502,67 "/>
<text x="624" y="58" dy="-0.5ex" text-anchor="middle" font-family="sans-serif" font-size="9.67741935483871" opacity="1" fill="#000000">
+8s
</text>
<polyline fill="none" opacity="1" stroke="#000000" stroke-width="1" points="624,62 624,67 "/>
<text x="746" y="58" dy="-0.5ex" text-anchor="middle" font-family="sans-serif" font-size="9.67741935483871" opacity="1" fill="#000000">
+10s
</text>
<polyline fill="none" opacity="1" stroke="#000000" stroke-width="1" points="746,62 746,67 "/>
<text x="869" y="58" dy="-0.5ex" text-anchor="middle" font-family="sans-serif" font-size="9.67741935483871" opacity="1" fill="#000000">
+12s
</text>
<polyline fill="none" opacity="1" stroke="#000000" stroke-width="1" points="869,62 869,67 "/>
</svg>
