<svg width="1024" height="768" viewBox="0 0 1024 768" xmlns="http://www.w3.org/2000/svg">
<rect x="0" y="0" width="1024" height="768" opacity="1" fill="#FFFFFF" stroke="none"/>
<polygon opacity="1" fill="#3CB44B" points="83,684 84,659 85,652 86,635 87,626 87,631 88,628 89,634 90,636 91,634 92,648 93,656 94,660 95,666 95,662 96,673 97,678 98,667 99,668 100,663 101,662 102,664 103,661 103,672 104,669 105,673 106,673 107,671 108,668 109,656 110,664 111,674 111,665 112,674 113,668 114,659 115,650 116,634 117,633 118,627 119,626 119,633 120,611 121,603 122,623 123,619 124,621 125,612 126,608 127,609 127,597 128,598 129,595 130,599 131,595 132,590 133,590 134,596 135,600 135,598 136,595 137,604 138,595 139,574 140,580 141,580 142,574 143,572 143,587 144,603 145,624 146,624 147,620 148,610 149,601 150,600 151,597 151,593 152,577 153,581 154,578 155,576 156,570 157,568 158,574 159,560 159,544 160,547 161,542 162,548 163,554 164,534 165,531 166,537 167,527 167,532 168,541 169,539 170,527 171,519 172,515 173,519 174,522 175,524 175,524 176,528 177,528 178,513 179,500 180,509 181,510 182,509 183,527 183,533 184,545 185,548 186,551 187,563 188,562 189,553 190,553 191,555 191,541 192,555 193,543 194,551 195,578 196,589 197,574 198,570 199,580 199,586 200,589 201,592 202,602 203,606 204,605 205,609 206,607 207,596 207,594 208,596 209,593 210,590 211,592 212,588 213,594 214,611 215,614 215,635 216,630 217,632 218,639 219,641 220,634 221,640 222,627 223,620 223,633 224,619 225,599 226,604 227,612 228,611 229,610 230,613 231,638 231,638 232,637 233,640 234,641 235,634 236,632 237,609 238,607 239,604 239,601 240,604 241,593 242,596 243,595 244,593 245,576 246,561 247,578 247,583 248,571 249,558 250,554 251,529 252,528 253,517 254,512 255,494 255,495 256,495 257,478 258,476 259,480 260,492 261,500 262,494 263,503 263,494 264,506 265,512 266,521 267,526 268,534 269,535 270,542 271,541 271,540 272,538 273,539 274,541 275,538 276,544 277,538 278,533 279,530 279,531 280,526 281,526 282,540 283,542 284,572 285,580 286,583 287,577 287,581 288,584 289,588 290,594 291,608 292,605 293,593 294,598 295,618 295,615 296,612 297,607 298,606 299,621 300,613 301,606 302,597 303,586 303,597 304,586 305,589 306,587 307,581 308,600 309,588 310,593 311,599 311,610 312,616 313,617 314,611 315,609 316,588 317,588 318,599 319,579 319,581 320,574 321,560 322,559 323,582 324,596 325,596 326,598 327,601 327,614 328,601 329,602 330,601 331,593 332,593 333,578 334,579 335,566 335,570 336,591 337,585 338,573 339,560 340,559 341,566 342,567 343,557 343,552 344,534 345,524 346,519 347,510 348,491 349,503 350,489 351,503 351,505 352,499 353,483 354,471 355,468 356,474 357,497 358,497 359,506 359,504 360,521 361,527 362,544 363,548 364,538 365,538 366,531 367,517 368,517 368,514 369,516 370,528 371,544 372,543 373,554 374,550 375,523 376,523 376,521 377,517 378,512 379,512 380,511 381,510 382,511 383,517 384,524 384,526 385,529 386,544 387,552 388,536 389,532 390,526 391,524 392,521 392,504 393,496 394,480 395,482 396,481 397,465 398,450 399,450 400,454 400,452 401,457 402,455 403,480 404,460 405,462 406,457 407,444 408,445 408,442 409,451 410,456 411,445 412,459 413,466 414,475 415,498 416,487 416,455 417,440 418,459 419,457 420,452 421,443 422,429 423,429 424,428 424,428 425,424 426,400 427,394 428,387 429,388 430,395 431,395 432,405 432,404 433,403 434,413 435,395 436,401 437,397 438,379 439,381 440,378 440,385 441,387 442,399 443,402 444,406 445,407 446,399 447,386 448,404 448,401 449,394 450,412 451,373 452,349 453,344 454,343 455,351 456,333 456,324 457,333 458,313 459,314 460,320 461,301 462,288 463,277 464,276 464,275 465,280 466,275 467,271 468,276 469,290 470,286 471,291 472,305 472,307 473,308 474,318 475,306 476,313 477,307 478,288 479,285 480,306 480,310 481,333 482,316 483,309 484,297 485,293 486,307 487,315 488,323 488,325 489,350 490,370 491,382 492,382 493,363 494,358 495,357 496,351 496,346 497,355 498,353 499,298 500,297 501,319 502,298 503,315 504,317 504,320 505,322 506,319 507,336 508,348 509,356 510,347 511,337 512,334 512,333 513,329 514,335 515,328 516,327 517,337 518,345 519,343 520,345 520,343 521,362 522,358 523,364 524,346 525,334 526,321 527,321 528,320 528,315 529,309 530,315 531,321 532,311 533,306 534,321 535,323 536,313 536,321 537,307 538,306 539,310 540,315 541,321 542,317 543,315 544,323 544,307 545,307 546,287 547,257 548,249 549,250 550,246 551,240 552,244 552,241 553,241 554,254 555,253 556,263 557,287 558,288 559,307 560,307 560,301 561,287 562,275 563,276 564,273 565,249 566,247 567,252 568,261 568,267 569,288 570,290 571,290 572,289 573,278 574,281 575,287 576,298 576,303 577,298 578,273 579,270 580,283 581,287 582,272 583,279 584,262 584,266 585,259 586,259 587,252 588,237 589,229 590,231 591,234 592,258 592,254 593,270 594,284 595,284 596,293 597,286 598,271 599,252 600,243 600,244 601,246 602,238 603,238 604,234 605,237 606,255 607,274 608,271 608,276 609,262 610,271 611,270 612,265 613,262 614,271 615,309 616,343 616,340 617,328 618,327 619,341 620,350 621,349 622,335 623,333 624,333 624,340 625,337 626,322 627,315 628,316 629,320 630,323 631,314 632,290 632,281 633,270 634,267 635,268 636,261 637,263 638,267 639,259 640,249 640,242 641,221 642,215 643,219 644,216 645,210 646,202 647,217 648,233 648,228 649,229 650,228 651,240 652,241 653,242 654,244 655,265 656,264 656,266 657,275 658,278 659,267 660,263 661,263 662,270 663,284 664,256 664,246 665,243 666,249 667,253 668,235 669,243 670,253 671,267 672,268 672,258 673,253 674,252 675,239 676,225 677,224 678,230 679,246 680,251 680,258 681,262 682,262 683,266 684,273 685,266 686,235 687,233 688,229 688,230 689,228 690,229 691,232 692,235 693,254 694,257 695,253 696,248 696,263 697,271 698,277 699,255 700,239 701,238 702,246 703,257 704,234 704,225 705,227 706,225 707,231 708,238 709,222 710,214 711,216 712,202 712,193 713,183 714,169 715,175 716,169 717,157 718,160 719,161 720,173 720,179 721,178 722,173 723,178 724,176 725,181 726,189 727,174 728,164 728,155 729,152 730,150 731,157 732,159 733,166 734,164 735,163 736,188 736,221 737,223 738,239 739,243 740,248 741,253 742,250 743,248 744,248 744,249 745,246 746,250 747,255 748,250 749,245 750,250 751,249 752,218 752,221 753,236 754,240 755,251 756,244 757,240 758,252 759,252 760,259 760,257 761,274 762,269 763,285 764,284 765,280 766,276 767,275 768,274 768,267 769,290 770,290 771,277 772,275 773,285 774,289 775,279 776,281 776,298 777,305 778,292 779,291 780,292 781,298 782,300 783,306 784,315 784,317 785,326 786,323 787,328 788,324 789,303 790,307 791,313 792,308 792,304 793,304 794,333 795,355 796,336 797,337 798,330 799,338 800,328 800,327 801,350 802,337 803,326 804,336 805,326 806,324 807,325 808,321 808,315 809,321 810,313 811,316 812,316 813,303 814,306 815,308 816,301 816,299 817,295 818,288 819,289 820,294 821,289 822,294 823,299 824,276 824,252 825,240 826,224 827,205 828,209 829,228 830,229 831,193 832,191 832,200 833,207 834,193 835,224 836,240 837,251 838,264 839,269 840,251 841,245 841,240 842,216 843,207 844,189 845,192 846,187 847,191 848,192 849,206 849,207 850,198 851,187 852,180 853,181 854,174 855,194 856,192 857,199 857,203 858,213 859,194 860,173 861,173 862,140 863,144 864,128 865,113 865,116 866,109 867,102 868,103 869,110 870,127 871,116 872,98 873,99 873,106 874,106 875,107 876,120 877,109 878,113 879,114 880,121 881,128 881,132 882,144 883,153 884,130 885,124 886,115 887,119 888,123 889,122 889,119 890,99 891,104 892,110 893,122 894,127 895,125 896,92 897,86 897,107 898,118 899,113 900,96 901,100 902,95 903,88 904,85 905,68 905,70 906,86 907,110 908,134 909,139 910,144 911,153 912,169 913,152 913,173 914,182 915,197 916,204 917,211 918,201 919,195 920,194 921,204 921,205 922,237 923,250 924,255 925,243 926,241 927,255 928,265 929,263 929,244 930,233 931,234 932,208 933,205 934,195 935,205 936,184 937,195 937,196 938,194 939,195 940,200 941,184 942,179 943,185 944,193 945,201 945,194 946,194 947,192 948,187 949,218 950,229 951,240 952,254 953,259 953,258 954,265 955,261 956,255 957,260 958,262 959,266 960,257 961,259 961,270 962,268 963,264 963,264 964,293 965,309 966,322 967,318 968,328 969,320 969,328 970,316 971,315 972,320 972,414 973,414 973,699 83,699 "/>
<polyline fill="none" opacity="1" stroke="#3CB44B" stroke-width="1" points="83,684 84,659 85,652 86,635 87,626 87,631 88,628 89,634 90,636 91,634 92,648 93,656 94,660 95,666 95,662 96,673 97,678 98,667 99,668 100,663 101,662 102,664 103,661 103,672 104,669 105,673 106,673 107,671 108,668 109,656 110,664 111,674 111,665 112,674 113,668 114,659 115,650 116,634 117,633 118,627 119,626 119,633 120,611 121,603 122,623 123,619 124,621 125,612 126,608 127,609 127,597 128,598 129,595 130,599 131,595 132,590 133,590 134,596 135,600 135,598 136,595 137,604 138,595 139,574 140,580 141,580 142,574 143,572 143,587 144,603 145,624 146,624 147,620 148,610 149,601 150,600 151,597 151,593 152,577 153,581 154,578 155,576 156,570 157,568 158,574 159,560 159,544 160,547 161,542 162,548 163,554 164,534 165,531 166,537 167,527 167,532 168,541 169,539 170,527 171,519 172,515 173,519 174,522 175,524 175,524 176,528 177,528 178,513 179,500 180,509 181,510 182,509 183,527 183,533 184,545 185,548 186,551 187,563 188,562 189,553 190,553 191,555 191,541 192,555 193,543 194,551 195,578 196,589 197,574 198,570 199,580 199,586 200,589 201,592 202,602 203,606 204,605 205,609 206,607 207,596 207,594 208,596 209,593 210,590 211,592 212,588 213,594 214,611 215,614 215,635 216,630 217,632 218,639 219,641 220,634 221,640 222,627 223,620 223,633 224,619 225,599 226,604 227,612 228,611 229,610 230,613 231,638 231,638 232,637 233,640 234,641 235,634 236,632 237,609 238,607 239,604 239,601 240,604 241,593 242,596 243,595 244,593 245,576 246,561 247,578 247,583 248,571 249,558 250,554 251,529 252,528 253,517 254,512 255,494 255,495 256,495 257,478 258,476 259,480 260,492 261,500 262,494 263,503 263,494 264,506 265,512 266,521 267,526 268,534 269,535 270,542 271,541 271,540 272,538 273,539 274,541 275,538 276,544 277,538 278,533 279,530 279,531 280,526 281,526 282,540 283,542 284,572 285,580 286,583 287,577 287,581 288,584 289,588 290,594 291,608 292,605 293,593 294,598 295,618 295,615 296,612 297,607 298,606 299,621 300,613 301,606 302,597 303,586 303,597 304,586 305,589 306,587 307,581 308,600 309,588 310,593 311,599 311,610 312,616 313,617 314,611 315,609 316,588 317,588 318,599 319,579 319,581 320,574 321,560 322,559 323,582 324,596 325,596 326,598 327,601 327,614 328,601 329,602 330,601 331,593 332,593 333,578 334,579 335,566 335,570 336,591 337,585 338,573 339,560 340,559 341,566 342,567 343,557 343,552 344,534 345,524 346,519 347,510 348,491 349,503 350,489 351,503 351,505 352,499 353,483 354,471 355,468 356,474 357,497 358,497 359,506 359,504 360,521 361,527 362,544 363,548 364,538 365,538 366,531 367,517 368,517 368,514 369,516 370,528 371,544 372,543 373,554 374,550 375,523 376,523 376,521 377,517 378,512 379,512 380,511 381,510 382,511 383,517 384,524 384,526 385,529 386,544 387,552 388,536 389,532 390,526 391,524 392,521 392,504 393,496 394,480 395,482 396,481 397,465 398,450 399,450 400,454 400,452 401,457 402,455 403,480 404,460 405,462 406,457 407,444 408,445 408,442 409,451 410,456 411,445 412,459 413,466 414,475 415,498 416,487 416,455 417,440 418,459 419,457 420,452 421,443 422,429 423,429 424,428 424,428 425,424 426,400 427,394 428,387 429,388 430,395 431,395 432,405 432,404 433,403 434,413 435,395 436,401 437,397 438,379 439,381 440,378 440,385 441,387 442,399 443,402 444,406 445,407 446,399 447,386 448,404 448,401 449,394 450,412 451,373 452,349 453,344 454,343 455,351 456,333 456,324 457,333 458,313 459,314 460,320 461,301 462,288 463,277 464,276 464,275 465,280 466,275 467,271 468,276 469,290 470,286 471,291 472,305 472,307 473,308 474,318 475,306 476,313 477,307 478,288 479,285 480,306 480,310 481,333 482,316 483,309 484,297 485,293 486,307 487,315 488,323 488,325 489,350 490,370 491,382 492,382 493,363 494,358 495,357 496,351 496,346 497,355 498,353 499,298 500,297 501,319 502,298 503,315 504,317 504,320 505,322 506,319 507,336 508,348 509,356 510,347 511,337 512,334 512,333 513,329 514,335 515,328 516,327 517,337 518,345 519,343 520,345 520,343 521,362 522,358 523,364 524,346 525,334 526,321 527,321 528,320 528,315 529,309 530,315 531,321 532,311 533,306 534,321 535,323 536,313 536,321 537,307 538,306 539,310 540,315 541,321 542,317 543,315 544,323 544,307 545,307 546,287 547,257 548,249 549,250 550,246 551,240 552,244 552,241 553,241 554,254 555,253 556,263 557,287 558,288 559,307 560,307 560,301 561,287 562,275 563,276 564,273 565,249 566,247 567,252 568,261 568,267 569,288 570,290 571,290 572,289 573,278 574,281 575,287 576,298 576,303 577,298 578,273 579,270 580,283 581,287 582,272 583,279 584,262 584,266 585,259 586,259 587,252 588,237 589,229 590,231 591,234 592,258 592,254 593,270 594,284 595,284 596,293 597,286 598,271 599,252 600,243 600,244 601,246 602,238 603,238 604,234 605,237 606,255 607,274 608,271 608,276 609,262 610,271 611,270 612,265 613,262 614,271 615,309 616,343 616,340 617,328 618,327 619,341 620,350 621,349 622,335 623,333 624,333 624,340 625,337 626,322 627,315 628,316 629,320 630,323 631,314 632,290 632,281 633,270 634,267 635,268 636,261 637,263 638,267 639,259 640,249 640,242 641,221 642,215 643,219 644,216 645,210 646,202 647,217 648,233 648,228 649,229 650,228 651,240 652,241 653,242 654,244 655,265 656,264 656,266 657,275 658,278 659,267 660,263 661,263 662,270 663,284 664,256 664,246 665,243 666,249 667,253 668,235 669,243 670,253 671,267 672,268 672,258 673,253 674,252 675,239 676,225 677,224 678,230 679,246 680,251 680,258 681,262 682,262 683,266 684,273 685,266 686,235 687,233 688,229 688,230 689,228 690,229 691,232 692,235 693,254 694,257 695,253 696,248 696,263 697,271 698,277 699,255 700,239 701,238 702,246 703,257 704,234 704,225 705,227 706,225 707,231 708,238 709,222 710,214 711,216 712,202 712,193 713,183 714,169 715,175 716,169 717,157 718,160 719,161 720,173 720,179 721,178 722,173 723,178 724,176 725,181 726,189 727,174 728,164 728,155 729,152 730,150 731,157 732,159 733,166 734,164 735,163 736,188 736,221 737,223 738,239 739,243 740,248 741,253 742,250 743,248 744,248 744,249 745,246 746,250 747,255 748,250 749,245 750,250 751,249 752,218 752,221 753,236 754,240 755,251 756,244 757,240 758,252 759,252 760,259 760,257 761,274 762,269 763,285 764,284 765,280 766,276 767,275 768,274 768,267 769,290 770,290 771,277 772,275 773,285 774,289 775,279 776,281 776,298 777,305 778,292 779,291 780,292 781,298 782,300 783,306 784,315 784,317 785,326 786,323 787,328 788,324 789,303 790,307 791,313 792,308 792,304 793,304 794,333 795,355 796,336 797,337 798,330 799,338 800,328 800,327 801,350 802,337 803,326 804,336 805,326 806,324 807,325 808,321 808,315 809,321 810,313 811,316 812,316 813,303 814,306 815,308 816,301 816,299 817,295 818,288 819,289 820,294 821,289 822,294 823,299 824,276 824,252 825,240 826,224 827,205 828,209 829,228 830,229 831,193 832,191 832,200 833,207 834,193 835,224 836,240 837,251 838,264 839,269 840,251 841,245 841,240 842,216 843,207 844,189 845,192 846,187 847,191 848,192 849,206 849,207 850,198 851,187 852,180 853,181 854,174 855,194 856,192 857,199 857,203 858,213 859,194 860,173 861,173 862,140 863,144 864,128 865,113 865,116 866,109 867,102 868,103 869,110 870,127 871,116 872,98 873,99 873,106 874,106 875,107 876,120 877,109 878,113 879,114 880,121 881,128 881,132 882,144 883,153 884,130 885,124 886,115 887,119 888,123 889,122 889,119 890,99 891,104 892,110 893,122 894,127 895,125 896,92 897,86 897,107 898,118 899,113 900,96 901,100 902,95 903,88 904,85 905,68 905,70 906,86 907,110 908,134 909,139 910,144 911,153 912,169 913,152 913,173 914,182 915,197 916,204 917,211 918,201 919,195 920,194 921,204 921,205 922,237 923,250 924,255 925,243 926,241 927,255 928,265 929,263 929,244 930,233 931,234 932,208 933,205 934,195 935,205 936,184 937,195 937,196 938,194 939,195 940,200 941,184 942,179 943,185 944,193 945,201 945,194 946,194 947,192 948,187 949,218 950,229 951,240 952,254 953,259 953,258 954,265 955,261 956,255 957,260 958,262 959,266 960,257 961,259 961,270 962,268 963,264 963,264 964,293 965,309 966,322 967,318 968,328 969,320 969,328 970,316 971,315 972,320 972,414 973,414 "/>
<polygon opacity="1" fill="#E6194B" points="83,699 84,699 85,698 86,696 87,696 87,696 88,696 89,696 90,696 91,694 92,694 93,694 94,694 95,694 95,694 96,694 97,694 98,694 99,694 100,694 101,694 102,693 103,690 103,689 104,688 105,688 106,688 107,688 108,688 109,688 110,688 111,688 111,688 112,688 113,688 114,688 115,688 116,685 117,685 118,685 119,685 119,685 120,685 121,685 122,685 123,684 124,684 125,684 126,684 127,684 127,684 128,683 129,683 130,683 131,683 132,683 133,683 134,683 135,683 135,682 136,682 137,682 138,682 139,678 140,678 141,678 142,678 143,678 143,678 144,678 145,678 146,678 147,675 148,675 149,673 150,671 151,671 151,671 152,671 153,671 154,671 155,670 156,670 157,670 158,670 159,670 159,667 160,667 161,667 162,667 163,667 164,665 165,665 166,665 167,665 167,665 168,665 169,665 170,665 171,665 172,665 173,663 174,663 175,663 175,663 176,663 177,663 178,663 179,663 180,663 181,663 182,663 183,663 183,663 184,663 185,663 186,663 187,663 188,663 189,663 190,663 191,663 191,663 192,663 193,663 194,663 195,663 196,663 197,661 198,661 199,661 199,661 200,661 201,661 202,661 203,661 204,661 205,661 206,661 207,661 207,661 208,661 209,661 210,661 211,661 212,661 213,661 214,661 215,661 215,661 216,661 217,661 218,657 219,657 220,657 221,657 222,657 223,657 223,657 224,657 225,657 226,657 227,657 228,657 229,657 230,657 231,657 231,657 232,657 233,657 234,657 235,655 236,655 237,652 238,652 239,652 239,652 240,652 241,651 242,651 243,651 244,649 245,649 246,649 247,649 247,649 248,647 249,647 250,647 251,647 252,647 253,647 254,647 255,647 255,647 256,647 257,647 258,647 259,647 260,646 261,646 262,646 263,646 263,646 264,644 265,644 266,644 267,641 268,641 269,641 270,641 271,641 271,637 272,637 273,637 274,637 275,637 276,637 277,634 278,634 279,634 279,634 280,634 281,634 282,634 283,631 284,631 285,631 286,631 287,631 287,631 288,631 289,631 290,631 291,631 292,631 293,631 294,631 295,631 295,631 296,631 297,631 298,631 299,631 300,631 301,631 302,631 303,631 303,629 304,629 305,629 306,629 307,629 308,629 309,628 310,628 311,628 311,628 312,628 313,628 314,628 315,628 316,628 317,628 318,628 319,626 319,626 320,625 321,625 322,625 323,625 324,625 325,625 326,625 327,625 327,625 328,625 329,625 330,621 331,621 332,621 333,621 334,621 335,621 335,621 336,619 337,619 338,619 339,619 340,619 341,619 342,616 343,616 343,616 344,616 345,616 346,615 347,615 348,615 349,615 350,615 351,615 351,615 352,615 353,615 354,615 355,615 356,615 357,615 358,615 359,615 359,612 360,612 361,612 362,612 363,612 364,612 365,612 366,612 367,612 368,611 368,611 369,611 370,611 371,610 372,608 373,606 374,606 375,606 376,606 376,606 377,606 378,606 379,606 380,606 381,606 382,606 383,606 384,606 384,606 385,606 386,606 387,605 388,602 389,601 390,601 391,599 392,599 392,599 393,599 394,599 395,599 396,599 397,596 398,596 399,596 400,593 400,593 401,593 402,593 403,593 404,593 405,593 406,591 407,588 408,588 408,587 409,587 410,587 411,587 412,587 413,587 414,587 415,587 416,587 416,587 417,585 418,585 419,585 420,585 421,585 422,585 423,584 424,584 424,584 425,584 426,584 427,584 428,584 429,584 430,584 431,584 432,584 432,584 433,584 434,584 435,584 436,584 437,583 438,583 439,583 440,583 440,581 441,581 442,579 443,577 444,577 445,577 446,577 447,577 448,577 448,577 449,575 450,575 451,575 452,575 453,575 454,572 455,572 456,572 456,572 457,572 458,572 459,572 460,572 461,572 462,572 463,572 464,572 464,572 465,572 466,572 467,572 468,569 469,569 470,569 471,569 472,567 472,565 473,562 474,562 475,561 476,559 477,559 478,558 479,558 480,558 480,558 481,558 482,558 483,558 484,556 485,556 486,556 487,556 488,556 488,556 489,556 490,554 491,554 492,554 493,554 494,554 495,554 496,551 496,551 497,551 498,551 499,551 500,551 501,551 502,551 503,551 504,551 504,551 505,550 506,550 507,550 508,550 509,550 510,550 511,550 512,550 512,550 513,547 514,547 515,546 516,546 517,546 518,546 519,546 520,546 520,546 521,544 522,544 523,544 524,544 525,544 526,540 527,540 528,540 528,538 529,538 530,538 531,538 532,536 533,536 534,536 535,536 536,534 536,534 537,534 538,533 539,533 540,533 541,532 542,532 543,532 544,532 544,532 545,532 546,532 547,532 548,532 549,532 550,532 551,531 552,531 552,531 553,531 554,531 555,528 556,527 557,526 558,526 559,526 560,524 560,524 561,522 562,522 563,522 564,522 565,522 566,522 567,522 568,522 568,522 569,522 570,522 571,522 572,522 573,522 574,522 575,522 576,522 576,522 577,522 578,520 579,520 580,520 581,520 582,520 583,520 584,520 584,520 585,520 586,520 587,520 588,520 589,519 590,519 591,519 592,519 592,519 593,519 594,519 595,519 596,519 597,519 598,519 599,519 600,519 600,519 601,519 602,519 603,519 604,517 605,517 606,517 607,517 608,517 608,517 609,515 610,515 611,515 612,515 613,515 614,515 615,515 616,515 616,515 617,515 618,515 619,515 620,515 621,515 622,515 623,515 624,515 624,513 625,513 626,511 627,511 628,511 629,511 630,511 631,511 632,509 632,506 633,504 634,504 635,504 636,504 637,504 638,504 639,504 640,504 640,504 641,504 642,504 643,504 644,504 645,504 646,503 647,503 648,503 648,501 649,501 650,499 651,499 652,499 653,499 654,499 655,499 656,499 656,499 657,499 658,499 659,499 660,499 661,499 662,499 663,499 664,499 664,499 665,497 666,497 667,497 668,495 669,495 670,495 671,495 672,495 672,495 673,495 674,495 675,495 676,495 677,495 678,495 679,495 680,495 680,495 681,495 682,495 683,495 684,491 685,489 686,489 687,489 688,489 688,489 689,489 690,489 691,489 692,489 693,489 694,489 695,489 696,489 696,489 697,489 698,489 699,486 700,486 701,483 702,483 703,483 704,483 704,483 705,483 706,483 707,483 708,483 709,483 710,483 711,483 712,483 712,483 713,483 714,483 715,483 716,482 717,482 718,482 719,482 720,482 720,482 721,480 722,480 723,480 724,480 725,480 726,480 727,477 728,477 728,477 729,477 730,477 731,477 732,477 733,477 734,477 735,477 736,477 736,477 737,477 738,477 739,477 740,477 741,477 742,475 743,475 744,475 744,475 745,475 746,475 747,475 748,475 749,475 750,475 751,475 752,475 752,475 753,475 754,475 755,475 756,475 757,475 758,475 759,475 760,474 760,474 761,474 762,474 763,474 764,474 765,474 766,474 767,474 768,474 768,471 769,471 770,468 771,468 772,466 773,466 774,464 775,464 776,464 776,464 777,464 778,464 779,463 780,463 781,463 782,463 783,463 784,463 784,463 785,463 786,461 787,461 788,461 789,456 790,456 791,456 792,453 792,453 793,453 794,452 795,452 796,452 797,452 798,450 799,450 800,450 800,450 801,450 802,450 803,449 804,449 805,449 806,449 807,449 808,449 808,449 809,449 810,449 811,449 812,449 813,449 814,446 815,446 816,444 816,444 817,444 818,444 819,444 820,444 821,444 822,444 823,444 824,444 824,444 825,444 826,444 827,444 828,444 829,444 830,444 831,444 832,442 832,440 833,440 834,440 835,440 836,438 837,438 838,438 839,436 840,436 841,436 841,436 842,436 843,436 844,436 845,436 846,436 847,436 848,436 849,436 849,436 850,436 851,436 852,436 853,436 854,436 855,436 856,436 857,436 857,436 858,436 859,434 860,434 861,434 862,434 863,434 864,434 865,434 865,434 866,434 867,434 868,434 869,434 870,434 871,434 872,434 873,434 873,434 874,434 875,434 876,434 877,434 878,434 879,434 880,434 881,432 881,432 882,432 883,432 884,432 885,432 886,432 887,432 888,432 889,431 889,431 890,431 891,431 892,431 893,431 894,431 895,431 896,431 897,431 897,429 898,429 899,429 900,429 901,427 902,427 903,427 904,427 905,427 905,427 906,427 907,427 908,427 909,425 910,425 911,425 912,425 913,425 913,425 914,425 915,425 916,425 917,425 918,423 919,423 920,423 921,423 921,423 922,423 923,423 924,423 925,423 926,423 927,422 928,422 929,422 929,422 930,422 931,422 932,422 933,422 934,422 935,422 936,422 937,422 937,422 938,419 939,419 940,419 941,417 942,417 943,417 944,417 945,417 945,417 946,417 947,417 948,417 949,417 950,417 951,417 952,417 953,417 953,417 954,417 955,417 956,417 957,416 958,416 959,416 960,415 961,415 961,415 962,415 963,414 963,414 964,414 965,414 966,414 967,414 968,414 969,414 969,414 970,414 971,414 972,414 972,414 973,414 973,699 83,699 "/>
<polyline fill="none" opacity="1" stroke="#E6194B" stroke-width="1" points="83,699 84,699 85,698 86,696 87,696 87,696 88,696 89,696 90,696 91,694 92,694 93,694 94,694 95,694 95,694 96,694 97,694 98,694 99,694 100,694 101,694 102,693 103,690 103,689 104,688 105,688 106,688 107,688 108,688 109,688 110,688 111,688 111,688 112,688 113,688 114,688 115,688 116,685 117,685 118,685 119,685 119,685 120,685 121,685 122,685 123,684 124,684 125,684 126,684 127,684 127,684 128,683 129,683 130,683 131,683 132,683 133,683 134,683 135,683 135,682 136,682 137,682 138,682 139,678 140,678 141,678 142,678 143,678 143,678 144,678 145,678 146,678 147,675 148,675 149,673 150,671 151,671 151,671 152,671 153,671 154,671 155,670 156,670 157,670 158,670 159,670 159,667 160,667 161,667 162,667 163,667 164,665 165,665 166,665 167,665 167,665 168,665 169,665 170,665 171,665 172,665 173,663 174,663 175,663 175,663 176,663 177,663 178,663 179,663 180,663 181,663 182,663 183,663 183,663 184,663 185,663 186,663 187,663 188,663 189,663 190,663 191,663 191,663 192,663 193,663 194,663 195,663 196,663 197,661 198,661 199,661 199,661 200,661 201,661 202,661 203,661 204,661 205,661 206,661 207,661 207,661 208,661 209,661 210,661 211,661 212,661 213,661 214,661 215,661 215,661 216,661 217,661 218,657 219,657 220,657 221,657 222,657 223,657 223,657 224,657 225,657 226,657 227,657 228,657 229,657 230,657 231,657 231,657 232,657 233,657 234,657 235,655 236,655 237,652 238,652 239,652 239,652 240,652 241,651 242,651 243,651 244,649 245,649 246,649 247,649 247,649 248,647 249,647 250,647 251,647 252,647 253,647 254,647 255,647 255,647 256,647 257,647 258,647 259,647 260,646 261,646 262,646 263,646 263,646 264,644 265,644 266,644 267,641 268,641 269,641 270,641 271,641 271,637 272,637 273,637 274,637 275,637 276,637 277,634 278,634 279,634 279,634 280,634 281,634 282,634 283,631 284,631 285,631 286,631 287,631 287,631 288,631 289,631 290,631 291,631 292,631 293,631 294,631 295,631 295,631 296,631 297,631 298,631 299,631 300,631 301,631 302,631 303,631 303,629 304,629 305,629 306,629 307,629 308,629 309,628 310,628 311,628 311,628 312,628 313,628 314,628 315,628 316,628 317,628 318,628 319,626 319,626 320,625 321,625 322,625 323,625 324,625 325,625 326,625 327,625 327,625 328,625 329,625 330,621 331,621 332,621 333,621 334,621 335,621 335,621 336,619 337,619 338,619 339,619 340,619 341,619 342,616 343,616 343,616 344,616 345,616 346,615 347,615 348,615 349,615 350,615 351,615 351,615 352,615 353,615 354,615 355,615 356,615 357,615 358,615 359,615 359,612 360,612 361,612 362,612 363,612 364,612 365,612 366,612 367,612 368,611 368,611 369,611 370,611 371,610 372,608 373,606 374,606 375,606 376,606 376,606 377,606 378,606 379,606 380,606 381,606 382,606 383,606 384,606 384,606 385,606 386,606 387,605 388,602 389,601 390,601 391,599 392,599 392,599 393,599 394,599 395,599 396,599 397,596 398,596 399,596 400,593 400,593 401,593 402,593 403,593 404,593 405,593 406,591 407,588 408,588 408,587 409,587 410,587 411,587 412,587 413,587 414,587 415,587 416,587 416,587 417,585 418,585 419,585 420,585 421,585 422,585 423,584 424,584 424,584 425,584 426,584 427,584 428,584 429,584 430,584 431,584 432,584 432,584 433,584 434,584 435,584 436,584 437,583 438,583 439,583 440,583 440,581 441,581 442,579 443,577 444,577 445,577 446,577 447,577 448,577 448,577 449,575 450,575 451,575 452,575 453,575 454,572 455,572 456,572 456,572 457,572 458,572 459,572 460,572 461,572 462,572 463,572 464,572 464,572 465,572 466,572 467,572 468,569 469,569 470,569 471,569 472,567 472,565 473,562 474,562 475,561 476,559 477,559 478,558 479,558 480,558 480,558 481,558 482,558 483,558 484,556 485,556 486,556 487,556 488,556 488,556 489,556 490,554 491,554 492,554 493,554 494,554 495,554 496,551 496,551 497,551 498,551 499,551 500,551 501,551 502,551 503,551 504,551 504,551 505,550 506,550 507,550 508,550 509,550 510,550 511,550 512,550 512,550 513,547 514,547 515,546 516,546 517,546 518,546 519,546 520,546 520,546 521,544 522,544 523,544 524,544 525,544 526,540 527,540 528,540 528,538 529,538 530,538 531,538 532,536 533,536 534,536 535,536 536,534 536,534 537,534 538,533 539,533 540,533 541,532 542,532 543,532 544,532 544,532 545,532 546,532 547,532 548,532 549,532 550,532 551,531 552,531 552,531 553,531 554,531 555,528 556,527 557,526 558,526 559,526 560,524 560,524 561,522 562,522 563,522 564,522 565,522 566,522 567,522 568,522 568,522 569,522 570,522 571,522 572,522 573,522 574,522 575,522 576,522 576,522 577,522 578,520 579,520 580,520 581,520 582,520 583,520 584,520 584,520 585,520 586,520 587,520 588,520 589,519 590,519 591,519 592,519 592,519 593,519 594,519 595,519 596,519 597,519 598,519 599,519 600,519 600,519 601,519 602,519 603,519 604,517 605,517 606,517 607,517 608,517 608,517 609,515 610,515 611,515 612,515 613,515 614,515 615,515 616,515 616,515 617,515 618,515 619,515 620,515 621,515 622,515 623,515 624,515 624,513 625,513 626,511 627,511 628,511 629,511 630,511 631,511 632,509 632,506 633,504 634,504 635,504 636,504 637,504 638,504 639,504 640,504 640,504 641,504 642,504 643,504 644,504 645,504 646,503 647,503 648,503 648,501 649,501 650,499 651,499 652,499 653,499 654,499 655,499 656,499 656,499 657,499 658,499 659,499 660,499 661,499 662,499 663,499 664,499 664,499 665,497 666,497 667,497 668,495 669,495 670,495 671,495 672,495 672,495 673,495 674,495 675,495 676,495 677,495 678,495 679,495 680,495 680,495 681,495 682,495 683,495 684,491 685,489 686,489 687,489 688,489 688,489 689,489 690,489 691,489 692,489 693,489 694,489 695,489 696,489 696,489 697,489 698,489 699,486 700,486 701,483 702,483 703,483 704,483 704,483 705,483 706,483 707,483 708,483 709,483 710,483 711,483 712,483 712,483 713,483 714,483 715,483 716,482 717,482 718,482 719,482 720,482 720,482 721,480 722,480 723,480 724,480 725,480 726,480 727,477 728,477 728,477 729,477 730,477 731,477 732,477 733,477 734,477 735,477 736,477 736,477 737,477 738,477 739,477 740,477 741,477 742,475 743,475 744,475 744,475 745,475 746,475 747,475 748,475 749,475 750,475 751,475 752,475 752,475 753,475 754,475 755,475 756,475 757,475 758,475 759,475 760,474 760,474 761,474 762,474 763,474 764,474 765,474 766,474 767,474 768,474 768,471 769,471 770,468 771,468 772,466 773,466 774,464 775,464 776,464 776,464 777,464 778,464 779,463 780,463 781,463 782,463 783,463 784,463 784,463 785,463 786,461 787,461 788,461 789,456 790,456 791,456 792,453 792,453 793,453 794,452 795,452 796,452 797,452 798,450 799,450 800,450 800,450 801,450 802,450 803,449 804,449 805,449 806,449 807,449 808,449 808,449 809,449 810,449 811,449 812,449 813,449 814,446 815,446 816,444 816,444 817,444 818,444 819,444 820,444 821,444 822,444 823,444 824,444 824,444 825,444 826,444 827,444 828,444 829,444 830,444 831,444 832,442 832,440 833,440 834,440 835,440 836,438 837,438 838,438 839,436 840,436 841,436 841,436 842,436 843,436 844,436 845,436 846,436 847,436 848,436 849,436 849,436 850,436 851,436 852,436 853,436 854,436 855,436 856,436 857,436 857,436 858,436 859,434 860,434 861,434 862,434 863,434 864,434 865,434 865,434 866,434 867,434 868,434 869,434 870,434 871,434 872,434 873,434 873,434 874,434 875,434 876,434 877,434 878,434 879,434 880,434 881,432 881,432 882,432 883,432 884,432 885,432 886,432 887,432 888,432 889,431 889,431 890,431 891,431 892,431 893,431 894,431 895,431 896,431 897,431 897,429 898,429 899,429 900,429 901,427 902,427 903,427 904,427 905,427 905,427 906,427 907,427 908,427 909,425 910,425 911,425 912,425 913,425 913,425 914,425 915,425 916,425 917,425 918,423 919,423 920,423 921,423 921,423 922,423 923,423 924,423 925,423 926,423 927,422 928,422 929,422 929,422 930,422 931,422 932,422 933,422 934,422 935,422 936,422 937,422 937,422 938,419 939,419 940,419 941,417 942,417 943,417 944,417 945,417 945,417 946,417 947,417 948,417 949,417 950,417 951,417 952,417 953,417 953,417 954,417 955,417 956,417 957,416 958,416 959,416 960,415 961,415 961,415 962,415 963,414 963,414 964,414 965,414 966,414 967,414 968,414 969,414 969,414 970,414 971,414 972,414 972,414 973,414 "/>
<line opacity="0.1" stroke="#000000" stroke-width="1" x1="83" y1="699" x2="83" y2="68"/>
<line opacity="0.1" stroke="#000000" stroke-width="1" x1="92" y1="699" x2="92" y2="68"/>
<line opacity="0.1" stroke="#000000" stroke-width="1" x1="101" y1="699" x2="101" y2="68"/>
<line opacity="0.1" stroke="#000000" stroke-width="1" x1="110" y1="699" x2="110" y2="68"/>
<line opacity="0.1" stroke="#000000" stroke-width="1" x1="119" y1="699" x2="119" y2="68"/>
<line opacity="0.1" stroke="#000000" stroke-width="1" x1="128" y1="699" x2="128" y2="68"/>
<line opacity="0.1" stroke="#000000" stroke-width="1" x1="137" y1="699" x2="137" y2="68"/>
<line opacity="0.1" stroke="#000000" stroke-width="1" x1="146" y1="699" x2="146" y2="68"/>
<line opacity="0.1" stroke="#000000" stroke-width="1" x1="154" y1="699" x2="154" y2="68"/>
<line opacity="0.1" stroke="#000000" stroke-width="1" x1="163" y1="699" x2="163" y2="68"/>
<line opacity="0.1" stroke="#000000" stroke-width="1" x1="172" y1="699" x2="172" y2="68"/>
<line opacity="0.1" stroke="#000000" stroke-width="1" x1="181" y1="699" x2="181" y2="68"/>
<line opacity="0.1" stroke="#000000" stroke-width="1" x1="190" y1="699" x2="190" y2="68"/>
<line opacity="0.1" stroke="#000000" stroke-width="1" x1="199" y1="699" x2="199" y2="68"/>
<line opacity="0.1" stroke="#000000" stroke-width="1" x1="208" y1="699" x2="208" y2="68"/>
<line opacity="0.1" stroke="#000000" stroke-width="1" x1="217" y1="699" x2="217" y2="68"/>
<line opacity="0.1" stroke="#000000" stroke-width="1" x1="226" y1="699" x2="226" y2="68"/>
<line opacity="0.1" stroke="#000000" stroke-width="1" x1="234" y1="699" x2="234" y2="68"/>
<line opacity="0.1" stroke="#000000" stroke-width="1" x1="243" y1="699" x2="243" y2="68"/>
<line opacity="0.1" stroke="#000000" stroke-width="1" x1="252" y1="699" x2="252" y2="68"/>
<line opacity="0.1" stroke="#000000" stroke-width="1" x1="261" y1="699" x2="261" y2="68"/>
<line opacity="0.1" stroke="#000000" stroke-width="1" x1="270" y1="699" x2="270" y2="68"/>
<line opacity="0.1" stroke="#000000" stroke-width="1" x1="279" y1="699" x2="279" y2="68"/>
<line opacity="0.1" stroke="#000000" stroke-width="1" x1="288" y1="699" x2="288" y2="68"/>
<line opacity="0.1" stroke="#000000" stroke-width="1" x1="297" y1="699" x2="297" y2="68"/>
<line opacity="0.1" stroke="#000000" stroke-width="1" x1="306" y1="699" x2="306" y2="68"/>
<line opacity="0.1" stroke="#000000" stroke-width="1" x1="315" y1="699" x2="315" y2="68"/>
<line opacity="0.1" stroke="#000000" stroke-width="1" x1="323" y1="699" x2="323" y2="68"/>
<line opacity="0.1" stroke="#000000" stroke-width="1" x1="332" y1="699" x2="332" y2="68"/>
<line opacity="0.1" stroke="#000000" stroke-width="1" x1="341" y1="699" x2="341" y2="68"/>
<line opacity="0.1" stroke="#000000" stroke-width="1" x1="350" y1="699" x2="350" y2="68"/>
<line opacity="0.1" stroke="#000000" stroke-width="1" x1="359" y1="699" x2="359" y2="68"/>
<line opacity="0.1" stroke="#000000" stroke-width="1" x1="368" y1="699" x2="368" y2="68"/>
<line opacity="0.1" stroke="#000000" stroke-width="1" x1="377" y1="699" x2="377" y2="68"/>
<line opacity="0.1" stroke="#000000" stroke-width="1" x1="386" y1="699" x2="386" y2="68"/>
<line opacity="0.1" stroke="#000000" stroke-width="1" x1="395" y1="699" x2="395" y2="68"/>
<line opacity="0.1" stroke="#000000" stroke-width="1" x1="403" y1="699" x2="403" y2="68"/>
<line opacity="0.1" stroke="#000000" stroke-width="1" x1="412" y1="699" x2="412" y2="68"/>
<line opacity="0.1" stroke="#000000" stroke-width="1" x1="421" y1="699" x2="421" y2="68"/>
<line opacity="0.1" stroke="#000000" stroke-width="1" x1="430" y1="699" x2="430" y2="68"/>
<line opacity="0.1" stroke="#000000" stroke-width="1" x1="439" y1="699" x2="439" y2="68"/>
<line opacity="0.1" stroke="#000000" stroke-width="1" x1="448" y1="699" x2="448" y2="68"/>
<line opacity="0.1" stroke="#000000" stroke-width="1" x1="457" y1="699" x2="457" y2="68"/>
<line opacity="0.1" stroke="#000000" stroke-width="1" x1="466" y1="699" x2="466" y2="68"/>
<line opacity="0.1" stroke="#000000" stroke-width="1" x1="475" y1="699" x2="475" y2="68"/>
<line opacity="0.1" stroke="#000000" stroke-width="1" x1="483" y1="699" x2="483" y2="68"/>
<line opacity="0.1" stroke="#000000" stroke-width="1" x1="492" y1="699" x2="492" y2="68"/>
<line opacity="0.1" stroke="#000000" stroke-width="1" x1="501" y1="699" x2="501" y2="68"/>
<line opacity="0.1" stroke="#000000" stroke-width="1" x1="510" y1="699" x2="510" y2="68"/>
<line opacity="0.1" stroke="#000000" stroke-width="1" x1="519" y1="699" x2="519" y2="68"/>
<line opacity="0.1" stroke="#000000" stroke-width="1" x1="528" y1="699" x2="528" y2="68"/>
<line opacity="0.1" stroke="#000000" stroke-width="1" x1="537" y1="699" x2="537" y2="68"/>
<line opacity="0.1" stroke="#000000" stroke-width="1" x1="546" y1="699" x2="546" y2="68"/>
<line opacity="0.1" stroke="#000000" stroke-width="1" x1="555" y1="699" x2="555" y2="68"/>
<line opacity="0.1" stroke="#000000" stroke-width="1" x1="563" y1="699" x2="563" y2="68"/>
<line opacity="0.1" stroke="#000000" stroke-width="1" x1="572" y1="699" x2="572" y2="68"/>
<line opacity="0.1" stroke="#000000" stroke-width="1" x1="581" y1="699" x2="581" y2="68"/>
<line opacity="0.1" stroke="#000000" stroke-width="1" x1="590" y1="699" x2="590" y2="68"/>
<line opacity="0.1" stroke="#000000" stroke-width="1" x1="599" y1="699" x2="599" y2="68"/>
<line opacity="0.1" stroke="#000000" stroke-width="1" x1="608" y1="699" x2="608" y2="68"/>
<line opacity="0.1" stroke="#000000" stroke-width="1" x1="617" y1="699" x2="617" y2="68"/>
<line opacity="0.1" stroke="#000000" stroke-width="1" x1="626" y1="699" x2="626" y2="68"/>
<line opacity="0.1" stroke="#000000" stroke-width="1" x1="635" y1="699" x2="635" y2="68"/>
<line opacity="0.1" stroke="#000000" stroke-width="1" x1="644" y1="699" x2="644" y2="68"/>
<line opacity="0.1" stroke="#000000" stroke-width="1" x1="652" y1="699" x2="652" y2="68"/>
<line opacity="0.1" stroke="#000000" stroke-width="1" x1="661" y1="699" x2="661" y2="68"/>
<line opacity="0.1" stroke="#000000" stroke-width="1" x1="670" y1="699" x2="670" y2="68"/>
<line opacity="0.1" stroke="#000000" stroke-width="1" x1="679" y1="699" x2="679" y2="68"/>
<line opacity="0.1" stroke="#000000" stroke-width="1" x1="688" y1="699" x2="688" y2="68"/>
<line opacity="0.1" stroke="#000000" stroke-width="1" x1="697" y1="699" x2="697" y2="68"/>
<line opacity="0.1" stroke="#000000" stroke-width="1" x1="706" y1="699" x2="706" y2="68"/>
<line opacity="0.1" stroke="#000000" stroke-width="1" x1="715" y1="699" x2="715" y2="68"/>
<line opacity="0.1" stroke="#000000" stroke-width="1" x1="724" y1="699" x2="724" y2="68"/>
<line opacity="0.1" stroke="#000000" stroke-width="1" x1="732" y1="699" x2="732" y2="68"/>
<line opacity="0.1" stroke="#000000" stroke-width="1" x1="741" y1="699" x2="741" y2="68"/>
<line opacity="0.1" stroke="#000000" stroke-width="1" x1="750" y1="699" x2="750" y2="68"/>
<line opacity="0.1" stroke="#000000" stroke-width="1" x1="759" y1="699" x2="759" y2="68"/>
<line opacity="0.1" stroke="#000000" stroke-width="1" x1="768" y1="699" x2="768" y2="68"/>
<line opacity="0.1" stroke="#000000" stroke-width="1" x1="777" y1="699" x2="777" y2="68"/>
<line opacity="0.1" stroke="#000000" stroke-width="1" x1="786" y1="699" x2="786" y2="68"/>
<line opacity="0.1" stroke="#000000" stroke-width="1" x1="795" y1="699" x2="795" y2="68"/>
<line opacity="0.1" stroke="#000000" stroke-width="1" x1="804" y1="699" x2="804" y2="68"/>
<line opacity="0.1" stroke="#000000" stroke-width="1" x1="812" y1="699" x2="812" y2="68"/>
<line opacity="0.1" stroke="#000000" stroke-width="1" x1="821" y1="699" x2="821" y2="68"/>
<line opacity="0.1" stroke="#000000" stroke-width="1" x1="830" y1="699" x2="830" y2="68"/>
<line opacity="0.1" stroke="#000000" stroke-width="1" x1="839" y1="699" x2="839" y2="68"/>
<line opacity="0.1" stroke="#000000" stroke-width="1" x1="848" y1="699" x2="848" y2="68"/>
<line opacity="0.1" stroke="#000000" stroke-width="1" x1="857" y1="699" x2="857" y2="68"/>
<line opacity="0.1" stroke="#000000" stroke-width="1" x1="866" y1="699" x2="866" y2="68"/>
<line opacity="0.1" stroke="#000000" stroke-width="1" x1="875" y1="699" x2="875" y2="68"/>
<line opacity="0.1" stroke="#000000" stroke-width="1" x1="884" y1="699" x2="884" y2="68"/>
<line opacity="0.1" stroke="#000000" stroke-width="1" x1="892" y1="699" x2="892" y2="68"/>
<line opacity="0.1" stroke="#000000" stroke-width="1" x1="901" y1="699" x2="901" y2="68"/>
<line opacity="0.1" stroke="#000000" stroke-width="1" x1="910" y1="699" x2="910" y2="68"/>
<line opacity="0.1" stroke="#000000" stroke-width="1" x1="919" y1="699" x2="919" y2="68"/>
<line opacity="0.1" stroke="#000000" stroke-width="1" x1="928" y1="699" x2="928" y2="68"/>
<line opacity="0.1" stroke="#000000" stroke-width="1" x1="937" y1="699" x2="937" y2="68"/>
<line opacity="0.1" stroke="#000000" stroke-width="1" x1="946" y1="699" x2="946" y2="68"/>
<line opacity="0.1" stroke="#000000" stroke-width="1" x1="955" y1="699" x2="955" y2="68"/>
<line opacity="0.1" stroke="#000000" stroke-width="1" x1="964" y1="699" x2="964" y2="68"/>
<line opacity="0.1" stroke="#000000" stroke-width="1" x1="78" y1="699" x2="973" y2="699"/>
<line opacity="0.1" stroke="#000000" stroke-width="1" x1="78" y1="687" x2="973" y2="687"/>
<line opacity="0.1" stroke="#000000" stroke-width="1" x1="78" y1="675" x2="973" y2="675"/>
<line opacity="0.1" stroke="#000000" stroke-width="1" x1="78" y1="664" x2="973" y2="664"/>
<line opacity="0.1" stroke="#000000" stroke-width="1" x1="78" y1="652" x2="973" y2="652"/>
<line opacity="0.1" stroke="#000000" stroke-width="1" x1="78" y1="640" x2="973" y2="640"/>
<line opacity="0.1" stroke="#000000" stroke-width="1" x1="78" y1="629" x2="973" y2="629"/>
<line opacity="0.1" stroke="#000000" stroke-width="1" x1="78" y1="617" x2="973" y2="617"/>
<line opacity="0.1" stroke="#000000" stroke-width="1" x1="78" y1="606" x2="973" y2="606"/>
<line opacity="0.1" stroke="#000000" stroke-width="1" x1="78" y1="594" x2="973" y2="594"/>
<line opacity="0.1" stroke="#000000" stroke-width="1" x1="78" y1="582" x2="973" y2="582"/>
<line opacity="0.1" stroke="#000000" stroke-width="1" x1="78" y1="571" x2="973" y2="571"/>
<line opacity="0.1" stroke="#000000" stroke-width="1" x1="78" y1="559" x2="973" y2="559"/>
<line opacity="0.1" stroke="#000000" stroke-width="1" x1="78" y1="548" x2="973" y2="548"/>
<line opacity="0.1" stroke="#000000" stroke-width="1" x1="78" y1="536" x2="973" y2="536"/>
<line opacity="0.1" stroke="#000000" stroke-width="1" x1="78" y1="524" x2="973" y2="524"/>
<line opacity="0.1" stroke="#000000" stroke-width="1" x1="78" y1="513" x2="973" y2="513"/>
<line opacity="0.1" stroke="#000000" stroke-width="1" x1="78" y1="501" x2="973" y2="501"/>
<line opacity="0.1" stroke="#000000" stroke-width="1" x1="78" y1="489" x2="973" y2="489"/>
<line opacity="0.1" stroke="#000000" stroke-width="1" x1="78" y1="478" x2="973" y2="478"/>
<line opacity="0.1" stroke="#000000" stroke-width="1" x1="78" y1="466" x2="973" y2="466"/>
<line opacity="0.1" stroke="#000000" stroke-width="1" x1="78" y1="455" x2="973" y2="455"/>
<line opacity="0.1" stroke="#000000" stroke-width="1" x1="78" y1="443" x2="973" y2="443"/>
<line opacity="0.1" stroke="#000000" stroke-width="1" x1="78" y1="431" x2="973" y2="431"/>
<line opacity="0.1" stroke="#000000" stroke-width="1" x1="78" y1="420" x2="973" y2="420"/>
<line opacity="0.1" stroke="#000000" stroke-width="1" x1="78" y1="408" x2="973" y2="408"/>
<line opacity="0.1" stroke="#000000" stroke-width="1" x1="78" y1="397" x2="973" y2="397"/>
<line opacity="0.1" stroke="#000000" stroke-width="1" x1="78" y1="385" x2="973" y2="385"/>
<line opacity="0.1" stroke="#000000" stroke-width="1" x1="78" y1="373" x2="973" y2="373"/>
<line opacity="0.1" stroke="#000000" stroke-width="1" x1="78" y1="362" x2="973" y2="362"/>
<line opacity="0.1" stroke="#000000" stroke-width="1" x1="78" y1="350" x2="973" y2="350"/>
<line opacity="0.1" stroke="#000000" stroke-width="1" x1="78" y1="339" x2="973" y2="339"/>
<line opacity="0.1" stroke="#000000" stroke-width="1" x1="78" y1="327" x2="973" y2="327"/>
<line opacity="0.1" stroke="#000000" stroke-width="1" x1="78" y1="315" x2="973" y2="315"/>
<line opacity="0.1" stroke="#000000" stroke-width="1" x1="78" y1="304" x2="973" y2="304"/>
<line opacity="0.1" stroke="#000000" stroke-width="1" x1="78" y1="292" x2="973" y2="292"/>
<line opacity="0.1" stroke="#000000" stroke-width="1" x1="78" y1="280" x2="973" y2="280"/>
<line opacity="0.1" stroke="#000000" stroke-width="1" x1="78" y1="269" x2="973" y2="269"/>
<line opacity="0.1" stroke="#000000" stroke-width="1" x1="78" y1="257" x2="973" y2="257"/>
<line opacity="0.1" stroke="#000000" stroke-width="1" x1="78" y1="246" x2="973" y2="246"/>
<line opacity="0.1" stroke="#000000" stroke-width="1" x1="78" y1="234" x2="973" y2="234"/>
<line opacity="0.1" stroke="#000000" stroke-width="1" x1="78" y1="222" x2="973" y2="222"/>
<line opacity="0.1" stroke="#000000" stroke-width="1" x1="78" y1="211" x2="973" y2="211"/>
<line opacity="0.1" stroke="#000000" stroke-width="1" x1="78" y1="199" x2="973" y2="199"/>
<line opacity="0.1" stroke="#000000" stroke-width="1" x1="78" y1="188" x2="973" y2="188"/>
<line opacity="0.1" stroke="#000000" stroke-width="1" x1="78" y1="176" x2="973" y2="176"/>
<line opacity="0.1" stroke="#000000" stroke-width="1" x1="78" y1="164" x2="973" y2="164"/>
<line opacity="0.1" stroke="#000000" stroke-width="1" x1="78" y1="153" x2="973" y2="153"/>
<line opacity="0.1" stroke="#000000" stroke-width="1" x1="78" y1="141" x2="973" y2="141"/>
<line opacity="0.1" stroke="#000000" stroke-width="1" x1="78" y1="130" x2="973" y2="130"/>
<line opacity="0.1" stroke="#000000" stroke-width="1" x1="78" y1="118" x2="973" y2="118"/>
<line opacity="0.1" stroke="#000000" stroke-width="1" x1="78" y1="106" x2="973" y2="106"/>
<line opacity="0.1" stroke="#000000" stroke-width="1" x1="78" y1="95" x2="973" y2="95"/>
<line opacity="0.1" stroke="#000000" stroke-width="1" x1="78" y1="83" x2="973" y2="83"/>
<line opacity="0.1" stroke="#000000" stroke-width="1" x1="78" y1="71" x2="973" y2="71"/>
<text x="8" y="384" dy="0.76em" text-anchor="middle" font-family="sans-serif" font-size="9.67741935483871" opacity="1" fill="#000000" transform="rotate(270, 8, 384)">
Memory usage
</text>
<text x="526" y="760" dy="-0.5ex" text-anchor="middle" font-family="sans-serif" font-size="9.67741935483871" opacity="1" fill="#000000">
Time
</text>
<line opacity="0.2" stroke="#000000" stroke-width="1" x1="101" y1="699" x2="101" y2="68"/>
<line opacity="0.2" stroke="#000000" stroke-width="1" x1="190" y1="699" x2="190" y2="68"/>
<line opacity="0.2" stroke="#000000" stroke-width="1" x1="279" y1="699" x2="279" y2="68"/>
<line opacity="0.2" stroke="#000000" stroke-width="1" x1="368" y1="699" x2="368" y2="68"/>
<line opacity="0.2" stroke="#000000" stroke-width="1" x1="457" y1="699" x2="457" y2="68"/>
<line opacity="0.2" stroke="#000000" stroke-width="1" x1="546" y1="699" x2="546" y2="68"/>
<line opacity="0.2" stroke="#000000" stroke-width="1" x1="635" y1="699" x2="635" y2="68"/>
<line opacity="0.2" stroke="#000000" stroke-width="1" x1="724" y1="699" x2="724" y2="68"/>
<line opacity="0.2" stroke="#000000" stroke-width="1" x1="812" y1="699" x2="812" y2="68"/>
<line opacity="0.2" stroke="#000000" stroke-width="1" x1="901" y1="699" x2="901" y2="68"/>
<line opacity="0.2" stroke="#000000" stroke-width="1" x1="78" y1="699" x2="973" y2="699"/>
<line opacity="0.2" stroke="#000000" stroke-width="1" x1="78" y1="582" x2="973" y2="582"/>
<line opacity="0.2" stroke="#000000" stroke-width="1" x1="78" y1="466" x2="973" y2="466"/>
<line opacity="0.2" stroke="#000000" stroke-width="1" x1="78" y1="350" x2="973" y2="350"/>
<line opacity="0.2" stroke="#000000" stroke-width="1" x1="78" y1="234" x2="973" y2="234"/>
<line opacity="0.2" stroke="#000000" stroke-width="1" x1="78" y1="118" x2="973" y2="118"/>
<polyline fill="none" opacity="1" stroke="#000000" stroke-width="1" points="77,68 77,699 "/>
<text x="68" y="699" dy="0.5ex" text-anchor="end" font-family="sans-serif" font-size="9.67741935483871" opacity="1" fill="#000000">
0.0 KB
</text>
<polyline fill="none" opacity="1" stroke="#000000" stroke-width="1" points="72,699 77,699 "/>
<text x="68" y="582" dy="0.5ex" text-anchor="end" font-family="sans-serif" font-size="9.67741935483871" opacity="1" fill="#000000">
4.9 KB
</text>
<polyline fill="none" opacity="1" stroke="#000000" stroke-width="1" points="72,582 77,582 "/>
<text x="68" y="466" dy="0.5ex" text-anchor="end" font-family="sans-serif" font-size="9.67741935483871" opacity="1" fill="#000000">
9.8 KB
</text>
<polyline fill="none" opacity="1" stroke="#000000" stroke-width="1" points="72,466 77,466 "/>
<text x="68" y="350" dy="0.5ex" text-anchor="end" font-family="sans-serif" font-size="9.67741935483871" opacity="1" fill="#000000">
14.6 KB
</text>
<polyline fill="none" opacity="1" stroke="#000000" stroke-width="1" points="72,350 77,350 "/>
<text x="68" y="234" dy="0.5ex" text-anchor="end" font-family="sans-serif" font-size="9.67741935483871" opacity="1" fill="#000000">
19.5 KB
</text>
<polyline fill="none" opacity="1" stroke="#000000" stroke-width="1" points="72,234 77,234 "/>
<text x="68" y="118" dy="0.5ex" text-anchor="end" font-family="sans-serif" font-size="9.67741935483871" opacity="1" fill="#000000">
24.4 KB
</text>
<polyline fill="none" opacity="1" stroke="#000000" stroke-width="1" points="72,118 77,118 "/>
<polyline fill="none" opacity="1" stroke="#000000" stroke-width="1" points="78,700 973,700 "/>
<text x="101" y="710" dy="0.76em" text-anchor="middle" font-family="sans-serif" font-size="9.67741935483871" opacity="1" fill="#000000">
02:04:17
</text>
<polyline fill="none" opacity="1" stroke="#000000" stroke-width="1" points="101,700 101,705 "/>
<text x="190" y="710" dy="0.76em" text-anchor="middle" font-family="sans-serif" font-size="9.67741935483871" opacity="1" fill="#000000">
02:04:18
</text>
<polyline fill="none" opacity="1" stroke="#000000" stroke-width="1" points="190,700 190,705 "/>
<text x="279" y="710" dy="0.76em" text-anchor="middle" font-family="sans-serif" font-size="9.67741935483871" opacity="1" fill="#000000">
02:04:19
</text>
<polyline fill="none" opacity="1" stroke="#000000" stroke-width="1" points="279,700 279,705 "/>
<text x="368" y="710" dy="0.76em" text-anchor="middle" font-family="sans-serif" font-size="9.67741935483871" opacity="1" fill="#000000">
02:04:20
</text>
<polyline fill="none" opacity="1" stroke="#000000" stroke-width="1" points="368,700 368,705 "/>
<text x="457" y="710" dy="0.76em" text-anchor="middle" font-family="sans-serif" font-size="9.67741935483871" opacity="1" fill="#000000">
02:04:21
</text>
<polyline fill="none" opacity="1" stroke="#000000" stroke-width="1" points="457,700 457,705 "/>
<text x="546" y="710" dy="0.76em" text-anchor="middle" font-family="sans-serif" font-size="9.67741935483871" opacity="1" fill="#000000">
02:04:22
</text>
<polyline fill="none" opacity="1" stroke="#000000" stroke-width="1" points="546,700 546,705 "/>
<text x="635" y="710" dy="0.76em" text-anchor="middle" font-family="sans-serif" font-size="9.67741935483871" opacity="1" fill="#000000">
02:04:23
</text>
<polyline fill="none" opacity="1" stroke="#000000" stroke-width="1" points="635,700 635,705 "/>
<text x="724" y="710" dy="0.76em" text-anchor="middle" font-family="sans-serif" font-size="9.67741935483871" opacity="1" fill="#000000">
02:04:24
</text>
<polyline fill="none" opacity="1" stroke="#000000" stroke-width="1" points="724,700 724,705 "/>
<text x="812" y="710" dy="0.76em" text-anchor="middle" font-family="sans-serif" font-size="9.67741935483871" opacity="1" fill="#000000">
02:04:25
</text>
<polyline fill="none" opacity="1" stroke="#000000" stroke-width="1" points="812,700 812,705 "/>
<text x="901" y="710" dy="0.76em" text-anchor="middle" font-family="sans-serif" font-size="9.67741935483871" opacity="1" fill="#000000">
02:04:26
</text>
<polyline fill="none" opacity="1" stroke="#000000" stroke-width="1" points="901,700 901,705 "/>
<polyline fill="none" opacity="1" stroke="#000000" stroke-width="1" points="78,67 974,67 "/>
<text x="101" y="58" dy="-0.5ex" text-anchor="middle" font-family="sans-serif" font-size="9.67741935483871" opacity="1" fill="#000000">
+265ms
</text>
<polyline fill="none" opacity="1" stroke="#000000" stroke-width="1" points="101,62 101,67 "/>
<text x="190" y="58" dy="-0.5ex" text-anchor="middle" font-family="sans-serif" font-size="9.67741935483871" opacity="1" fill="#000000">
+1s
</text>
<polyline fill="none" opacity="1" stroke="#000000" stroke-width="1" points="190,62 190,67 "/>
<text x="279" y="58" dy="-0.5ex" text-anchor="middle" font-family="sans-serif" font-size="9.67741935483871" opacity="1" fill="#000000">
+2s
</text>
<polyline fill="none" opacity="1" stroke="#000000" stroke-width="1" points="279,62 279,67 "/>
<text x="368" y="58" dy="-0.5ex" text-anchor="middle" font-family="sans-serif" font-size="9.67741935483871" opacity="1" fill="#000000">
+3s
</text>
<polyline fill="none" opacity="1" stroke="#000000" stroke-width="1" points="368,62 368,67 "/>
<text x="457" y="58" dy="-0.5ex" text-anchor="middle" font-family="sans-serif" font-size="9.67741935483871" opacity="1" fill="#000000">
+4s
</text>
<polyline fill="none" opacity="1" stroke="#000000" stroke-width="1" points="457,62 457,67 "/>
<text x="546" y="58" dy="-0.5ex" text-anchor="middle" font-family="sans-serif" font-size="9.67741935483871" opacity="1" fill="#000000">
+5s
</text>
<polyline fill="none" opacity="1" stroke="#000000" stroke-width="1" points="546,62 546,67 "/>
<text x="635" y="58" dy="-0.5ex" text-anchor="middle" font-family="sans-serif" font-size="9.67741935483871" opacity="1" fill="#000000">
+6s
</text>
<polyline fill="none" opacity="1" stroke="#000000" stroke-width="1" points="635,62 635,67 "/>
<text x="724" y="58" dy="-0.5ex" text-anchor="middle" font-family="sans-serif" font-size="9.67741935483871" opacity="1" fill="#000000">
+7s
</text>
<polyline fill="none" opacity="1" stroke="#000000" stroke-width="1" points="724,62 724,67 "/>
<text x="813" y="58" dy="-0.5ex" text-anchor="middle" font-family="sans-serif" font-size="9.67741935483871" opacity="1" fill="#000000">
+8s
</text>
<polyline fill="none" opacity="1" stroke="#000000" stroke-width="1" points="813,62 813,67 "/>
<text x="902" y="58" dy="-0.5ex" text-anchor="middle" font-family="sans-serif" font-size="9.67741935483871" opacity="1" fill="#000000">
+9s
</text>
<polyline fill="none" opacity="1" stroke="#000000" stroke-width="1" points="902,62 902,67 "/>
<rect x="83" y="73" width="99" height="45" opacity="0.75" fill="#FFFFFF" stroke="none"/>
<rect x="83" y="73" width="99" height="45" opacity="1" fill="none" stroke="#000000"/>
<text x="123" y="83" dy="0.76em" text-anchor="start" font-family="sans-serif" font-size="9.67741935483871" opacity="1" fill="#000000">
Temporary
</text>
<text x="123" y="98" dy="0.76em" text-anchor="start" font-family="sans-serif" font-size="9.67741935483871" opacity="1" fill="#000000">
Leaked
</text>
<rect x="93" y="83" width="10" height="10" opacity="1" fill="#3CB44B" stroke="none"/>
<rect x="93" y="98" width="10" height="10" opacity="1" fill="#E6194B" stroke="none"/>
</svg>
