<svg width="1024" height="768" viewBox="0 0 1024 768" xmlns="http://www.w3.org/2000/svg">
<rect x="0" y="0" width="1024" height="768" opacity="1" fill="#FFFFFF" stroke="none"/>
<polygon opacity="1" fill="#3CB44B" points="82,698 83,692 84,684 85,684 86,680 87,683 88,684 89,687 89,685 90,686 91,688 92,685 93,686 94,667 95,671 96,664 97,658 97,664 98,663 99,663 100,666 101,673 102,673 103,674 104,676 105,676 105,678 106,676 107,680 108,678 109,676 110,676 111,674 112,674 113,675 113,668 114,666 115,660 116,655 117,658 118,661 119,667 120,667 121,664 121,655 122,651 123,640 124,637 125,647 126,656 127,659 128,660 129,659 129,651 130,645 131,640 132,637 133,637 134,636 135,637 136,645 137,644 137,641 138,636 139,634 140,634 141,638 142,632 143,623 144,619 145,618 145,619 146,612 147,609 148,603 149,599 150,600 151,595 152,586 153,584 153,582 154,572 155,569 156,568 157,576 158,571 159,568 160,566 161,568 161,569 162,562 163,561 164,555 165,555 166,561 167,563 168,561 169,555 169,551 170,551 171,549 172,541 173,534 174,541 175,537 176,539 177,545 177,544 178,549 179,543 180,533 181,530 182,530 183,531 184,532 185,530 185,530 186,527 187,520 188,521 189,525 190,532 191,532 192,533 193,523 193,519 194,516 195,515 196,518 197,520 198,514 199,515 200,518 201,517 202,509 202,508 203,507 204,503 205,504 206,510 207,508 208,502 209,500 210,499 210,501 211,503 212,501 213,506 214,511 215,515 216,520 217,521 218,512 218,509 219,499 220,501 221,520 222,524 223,521 224,515 225,525 226,523 226,520 227,522 228,519 229,506 230,503 231,507 232,506 233,506 234,513 234,517 235,521 236,514 237,515 238,512 239,513 240,519 241,518 242,514 242,518 243,517 244,519 245,520 246,514 247,512 248,510 249,503 250,504 250,510 251,509 252,516 253,513 254,518 255,517 256,520 257,515 258,517 258,518 259,516 260,508 261,504 262,511 263,510 264,512 265,505 266,499 266,499 267,504 268,502 269,508 270,502 271,494 272,494 273,497 274,494 274,498 275,498 276,491 277,488 278,485 279,488 280,490 281,485 282,483 282,485 283,486 284,490 285,488 286,490 287,488 288,479 289,479 290,479 290,484 291,486 292,480 293,482 294,486 295,488 296,487 297,496 298,499 298,492 299,491 300,489 301,481 302,479 303,482 304,485 305,483 306,474 306,477 307,481 308,481 309,490 310,488 311,489 312,494 313,494 314,499 314,496 315,493 316,491 317,487 318,490 319,487 320,489 321,489 322,489 322,479 323,474 324,469 325,468 326,464 327,461 328,465 329,464 330,456 330,451 331,442 332,442 333,453 334,457 335,457 336,458 337,458 338,453 338,453 339,445 340,449 341,454 342,454 343,458 344,452 345,450 346,456 346,458 347,459 348,462 349,463 350,469 351,469 352,474 353,472 354,471 354,467 355,466 356,469 357,471 358,474 359,474 360,474 361,481 362,492 362,484 363,489 364,491 365,485 366,487 367,492 368,488 369,487 370,482 370,477 371,478 372,476 373,482 374,485 375,480 376,479 377,472 378,471 378,473 379,475 380,478 381,481 382,479 383,476 384,473 385,467 386,462 386,461 387,464 388,468 389,463 390,467 391,465 392,466 393,461 394,454 394,450 395,448 396,439 397,441 398,448 399,454 400,463 401,464 402,476 402,472 403,473 404,461 405,462 406,479 407,477 408,471 409,471 410,460 411,456 411,456 412,459 413,465 414,462 415,461 416,464 417,473 418,471 419,467 419,466 420,467 421,468 422,467 423,476 424,472 425,468 426,472 427,477 427,474 428,468 429,470 430,462 431,467 432,463 433,465 434,467 435,469 435,458 436,455 437,458 438,445 439,441 440,437 441,438 442,430 443,429 443,432 444,432 445,430 446,429 447,435 448,435 449,428 450,422 451,424 451,421 452,427 453,429 454,431 455,429 456,431 457,432 458,440 459,430 459,433 460,418 461,418 462,417 463,419 464,414 465,410 466,409 467,408 467,411 468,412 469,416 470,408 471,402 472,401 473,405 474,405 475,397 475,396 476,398 477,401 478,409 479,404 480,398 481,397 482,397 483,398 483,409 484,409 485,411 486,411 487,413 488,415 489,417 490,418 491,412 491,415 492,416 493,418 494,420 495,411 496,410 497,415 498,413 499,415 499,411 500,409 501,417 502,413 503,411 504,411 505,420 506,417 507,415 507,415 508,408 509,410 510,413 511,405 512,405 513,404 514,399 515,399 515,401 516,400 517,399 518,405 519,403 520,400 521,398 522,408 523,395 523,399 524,397 525,402 526,405 527,399 528,398 529,404 530,411 531,419 531,418 532,413 533,413 534,413 535,415 536,415 537,421 538,420 539,422 539,429 540,428 541,424 542,422 543,422 544,419 545,422 546,423 547,421 547,418 548,424 549,421 550,417 551,418 552,421 553,422 554,430 555,435 555,434 556,436 557,427 558,427 559,430 560,429 561,429 562,430 563,428 563,421 564,422 565,429 566,429 567,426 568,428 569,428 570,431 571,430 571,426 572,422 573,426 574,427 575,415 576,414 577,412 578,417 579,411 579,406 580,400 581,396 582,403 583,404 584,401 585,398 586,403 587,401 587,399 588,406 589,403 590,391 591,391 592,388 593,397 594,400 595,405 595,401 596,400 597,404 598,396 599,392 600,396 601,395 602,403 603,403 603,401 604,398 605,398 606,395 607,393 608,383 609,377 610,379 611,376 611,374 612,369 613,368 614,380 615,378 616,377 617,379 618,377 619,370 620,366 620,377 621,375 622,372 623,372 624,380 625,376 626,355 627,357 628,356 628,361 629,362 630,360 631,356 632,364 633,357 634,353 635,353 636,355 636,364 637,366 638,361 639,360 640,359 641,363 642,364 643,364 644,361 644,366 645,363 646,367 647,365 648,368 649,368 650,358 651,354 652,353 652,348 653,343 654,340 655,343 656,342 657,342 658,339 659,340 660,342 660,342 661,339 662,337 663,340 664,344 665,338 666,333 667,331 668,332 668,332 669,331 670,333 671,330 672,329 673,328 674,326 675,328 676,328 676,324 677,320 678,325 679,324 680,330 681,331 682,327 683,322 684,320 684,320 685,319 686,319 687,310 688,299 689,302 690,301 691,300 692,302 692,299 693,300 694,296 695,299 696,288 697,287 698,295 699,288 700,288 700,298 701,309 702,309 703,310 704,312 705,322 706,317 707,316 708,311 708,307 709,305 710,309 711,307 712,305 713,300 714,295 715,287 716,288 716,294 717,305 718,307 719,309 720,301 721,300 722,295 723,290 724,288 724,287 725,288 726,287 727,284 728,284 729,285 730,282 731,280 732,278 732,275 733,280 734,284 735,280 736,272 737,272 738,272 739,277 740,272 740,275 741,280 742,283 743,284 744,287 745,287 746,282 747,282 748,280 748,273 749,265 750,266 751,271 752,273 753,273 754,280 755,281 756,275 756,279 757,282 758,285 759,293 760,303 761,294 762,285 763,282 764,275 764,265 765,263 766,265 767,263 768,261 769,264 770,266 771,271 772,265 772,269 773,265 774,266 775,261 776,256 777,252 778,249 779,249 780,250 780,256 781,254 782,254 783,261 784,264 785,266 786,264 787,252 788,250 788,262 789,263 790,258 791,254 792,249 793,251 794,244 795,239 796,240 796,237 797,229 798,231 799,232 800,227 801,228 802,230 803,240 804,244 804,242 805,248 806,244 807,248 808,250 809,252 810,248 811,248 812,247 812,251 813,240 814,235 815,233 816,239 817,236 818,227 819,226 820,233 820,240 821,235 822,234 823,233 824,233 825,221 826,218 827,225 828,229 829,232 829,228 830,228 831,225 832,222 833,219 834,212 835,204 836,198 837,196 837,189 838,186 839,187 840,189 841,201 842,206 843,200 844,198 845,190 845,189 846,189 847,196 848,193 849,187 850,196 851,194 852,189 853,190 853,172 854,174 855,175 856,174 857,170 858,160 859,160 860,159 861,158 861,159 862,169 863,172 864,177 865,178 866,177 867,174 868,168 869,170 869,156 870,151 871,154 872,160 873,159 874,164 875,161 876,150 877,151 877,157 878,157 879,154 880,155 881,153 882,151 883,156 884,156 885,162 885,156 886,153 887,148 888,149 889,144 890,148 891,148 892,145 893,137 893,138 894,148 895,134 896,133 897,138 898,140 899,144 900,145 901,146 901,153 902,153 903,150 904,142 905,151 906,162 907,165 908,163 909,159 909,155 910,150 911,146 912,141 913,139 914,136 915,125 916,123 917,135 917,136 918,135 919,141 920,140 921,142 922,142 923,141 924,139 925,127 925,126 926,125 927,129 928,133 929,137 930,132 931,128 932,116 933,118 933,117 934,122 935,130 936,118 937,114 938,110 939,104 940,105 941,110 941,118 942,117 943,121 944,121 945,114 946,104 947,103 948,98 949,96 949,97 950,97 951,104 952,106 953,102 954,98 955,98 956,105 957,111 957,109 958,94 959,86 960,80 961,71 962,71 963,72 964,70 965,68 965,68 966,76 967,76 968,84 969,91 970,82 971,74 972,75 972,459 973,459 973,699 82,699 "/>
<polyline fill="none" opacity="1" stroke="#3CB44B" stroke-width="1" points="82,698 83,692 84,684 85,684 86,680 87,683 88,684 89,687 89,685 90,686 91,688 92,685 93,686 94,667 95,671 96,664 97,658 97,664 98,663 99,663 100,666 101,673 102,673 103,674 104,676 105,676 105,678 106,676 107,680 108,678 109,676 110,676 111,674 112,674 113,675 113,668 114,666 115,660 116,655 117,658 118,661 119,667 120,667 121,664 121,655 122,651 123,640 124,637 125,647 126,656 127,659 128,660 129,659 129,651 130,645 131,640 132,637 133,637 134,636 135,637 136,645 137,644 137,641 138,636 139,634 140,634 141,638 142,632 143,623 144,619 145,618 145,619 146,612 147,609 148,603 149,599 150,600 151,595 152,586 153,584 153,582 154,572 155,569 156,568 157,576 158,571 159,568 160,566 161,568 161,569 162,562 163,561 164,555 165,555 166,561 167,563 168,561 169,555 169,551 170,551 171,549 172,541 173,534 174,541 175,537 176,539 177,545 177,544 178,549 179,543 180,533 181,530 182,530 183,531 184,532 185,530 185,530 186,527 187,520 188,521 189,525 190,532 191,532 192,533 193,523 193,519 194,516 195,515 196,518 197,520 198,514 199,515 200,518 201,517 202,509 202,508 203,507 204,503 205,504 206,510 207,508 208,502 209,500 210,499 210,501 211,503 212,501 213,506 214,511 215,515 216,520 217,521 218,512 218,509 219,499 220,501 221,520 222,524 223,521 224,515 225,525 226,523 226,520 227,522 228,519 229,506 230,503 231,507 232,506 233,506 234,513 234,517 235,521 236,514 237,515 238,512 239,513 240,519 241,518 242,514 242,518 243,517 244,519 245,520 246,514 247,512 248,510 249,503 250,504 250,510 251,509 252,516 253,513 254,518 255,517 256,520 257,515 258,517 258,518 259,516 260,508 261,504 262,511 263,510 264,512 265,505 266,499 266,499 267,504 268,502 269,508 270,502 271,494 272,494 273,497 274,494 274,498 275,498 276,491 277,488 278,485 279,488 280,490 281,485 282,483 282,485 283,486 284,490 285,488 286,490 287,488 288,479 289,479 290,479 290,484 291,486 292,480 293,482 294,486 295,488 296,487 297,496 298,499 298,492 299,491 300,489 301,481 302,479 303,482 304,485 305,483 306,474 306,477 307,481 308,481 309,490 310,488 311,489 312,494 313,494 314,499 314,496 315,493 316,491 317,487 318,490 319,487 320,489 321,489 322,489 322,479 323,474 324,469 325,468 326,464 327,461 328,465 329,464 330,456 330,451 331,442 332,442 333,453 334,457 335,457 336,458 337,458 338,453 338,453 339,445 340,449 341,454 342,454 343,458 344,452 345,450 346,456 346,458 347,459 348,462 349,463 350,469 351,469 352,474 353,472 354,471 354,467 355,466 356,469 357,471 358,474 359,474 360,474 361,481 362,492 362,484 363,489 364,491 365,485 366,487 367,492 368,488 369,487 370,482 370,477 371,478 372,476 373,482 374,485 375,480 376,479 377,472 378,471 378,473 379,475 380,478 381,481 382,479 383,476 384,473 385,467 386,462 386,461 387,464 388,468 389,463 390,467 391,465 392,466 393,461 394,454 394,450 395,448 396,439 397,441 398,448 399,454 400,463 401,464 402,476 402,472 403,473 404,461 405,462 406,479 407,477 408,471 409,471 410,460 411,456 411,456 412,459 413,465 414,462 415,461 416,464 417,473 418,471 419,467 419,466 420,467 421,468 422,467 423,476 424,472 425,468 426,472 427,477 427,474 428,468 429,470 430,462 431,467 432,463 433,465 434,467 435,469 435,458 436,455 437,458 438,445 439,441 440,437 441,438 442,430 443,429 443,432 444,432 445,430 446,429 447,435 448,435 449,428 450,422 451,424 451,421 452,427 453,429 454,431 455,429 456,431 457,432 458,440 459,430 459,433 460,418 461,418 462,417 463,419 464,414 465,410 466,409 467,408 467,411 468,412 469,416 470,408 471,402 472,401 473,405 474,405 475,397 475,396 476,398 477,401 478,409 479,404 480,398 481,397 482,397 483,398 483,409 484,409 485,411 486,411 487,413 488,415 489,417 490,418 491,412 491,415 492,416 493,418 494,420 495,411 496,410 497,415 498,413 499,415 499,411 500,409 501,417 502,413 503,411 504,411 505,420 506,417 507,415 507,415 508,408 509,410 510,413 511,405 512,405 513,404 514,399 515,399 515,401 516,400 517,399 518,405 519,403 520,400 521,398 522,408 523,395 523,399 524,397 525,402 526,405 527,399 528,398 529,404 530,411 531,419 531,418 532,413 533,413 534,413 535,415 536,415 537,421 538,420 539,422 539,429 540,428 541,424 542,422 543,422 544,419 545,422 546,423 547,421 547,418 548,424 549,421 550,417 551,418 552,421 553,422 554,430 555,435 555,434 556,436 557,427 558,427 559,430 560,429 561,429 562,430 563,428 563,421 564,422 565,429 566,429 567,426 568,428 569,428 570,431 571,430 571,426 572,422 573,426 574,427 575,415 576,414 577,412 578,417 579,411 579,406 580,400 581,396 582,403 583,404 584,401 585,398 586,403 587,401 587,399 588,406 589,403 590,391 591,391 592,388 593,397 594,400 595,405 595,401 596,400 597,404 598,396 599,392 600,396 601,395 602,403 603,403 603,401 604,398 605,398 606,395 607,393 608,383 609,377 610,379 611,376 611,374 612,369 613,368 614,380 615,378 616,377 617,379 618,377 619,370 620,366 620,377 621,375 622,372 623,372 624,380 625,376 626,355 627,357 628,356 628,361 629,362 630,360 631,356 632,364 633,357 634,353 635,353 636,355 636,364 637,366 638,361 639,360 640,359 641,363 642,364 643,364 644,361 644,366 645,363 646,367 647,365 648,368 649,368 650,358 651,354 652,353 652,348 653,343 654,340 655,343 656,342 657,342 658,339 659,340 660,342 660,342 661,339 662,337 663,340 664,344 665,338 666,333 667,331 668,332 668,332 669,331 670,333 671,330 672,329 673,328 674,326 675,328 676,328 676,324 677,320 678,325 679,324 680,330 681,331 682,327 683,322 684,320 684,320 685,319 686,319 687,310 688,299 689,302 690,301 691,300 692,302 692,299 693,300 694,296 695,299 696,288 697,287 698,295 699,288 700,288 700,298 701,309 702,309 703,310 704,312 705,322 706,317 707,316 708,311 708,307 709,305 710,309 711,307 712,305 713,300 714,295 715,287 716,288 716,294 717,305 718,307 719,309 720,301 721,300 722,295 723,290 724,288 724,287 725,288 726,287 727,284 728,284 729,285 730,282 731,280 732,278 732,275 733,280 734,284 735,280 736,272 737,272 738,272 739,277 740,272 740,275 741,280 742,283 743,284 744,287 745,287 746,282 747,282 748,280 748,273 749,265 750,266 751,271 752,273 753,273 754,280 755,281 756,275 756,279 757,282 758,285 759,293 760,303 761,294 762,285 763,282 764,275 764,265 765,263 766,265 767,263 768,261 769,264 770,266 771,271 772,265 772,269 773,265 774,266 775,261 776,256 777,252 778,249 779,249 780,250 780,256 781,254 782,254 783,261 784,264 785,266 786,264 787,252 788,250 788,262 789,263 790,258 791,254 792,249 793,251 794,244 795,239 796,240 796,237 797,229 798,231 799,232 800,227 801,228 802,230 803,240 804,244 804,242 805,248 806,244 807,248 808,250 809,252 810,248 811,248 812,247 812,251 813,240 814,235 815,233 816,239 817,236 818,227 819,226 820,233 820,240 821,235 822,234 823,233 824,233 825,221 826,218 827,225 828,229 829,232 829,228 830,228 831,225 832,222 833,219 834,212 835,204 836,198 837,196 837,189 838,186 839,187 840,189 841,201 842,206 843,200 844,198 845,190 845,189 846,189 847,196 848,193 849,187 850,196 851,194 852,189 853,190 853,172 854,174 855,175 856,174 857,170 858,160 859,160 860,159 861,158 861,159 862,169 863,172 864,177 865,178 866,177 867,174 868,168 869,170 869,156 870,151 871,154 872,160 873,159 874,164 875,161 876,150 877,151 877,157 878,157 879,154 880,155 881,153 882,151 883,156 884,156 885,162 885,156 886,153 887,148 888,149 889,144 890,148 891,148 892,145 893,137 893,138 894,148 895,134 896,133 897,138 898,140 899,144 900,145 901,146 901,153 902,153 903,150 904,142 905,151 906,162 907,165 908,163 909,159 909,155 910,150 911,146 912,141 913,139 914,136 915,125 916,123 917,135 917,136 918,135 919,141 920,140 921,142 922,142 923,141 924,139 925,127 925,126 926,125 927,129 928,133 929,137 930,132 931,128 932,116 933,118 933,117 934,122 935,130 936,118 937,114 938,110 939,104 940,105 941,110 941,118 942,117 943,121 944,121 945,114 946,104 947,103 948,98 949,96 949,97 950,97 951,104 952,106 953,102 954,98 955,98 956,105 957,111 957,109 958,94 959,86 960,80 961,71 962,71 963,72 964,70 965,68 965,68 966,76 967,76 968,84 969,91 970,82 971,74 972,75 972,459 973,459 "/>
<polygon opacity="1" fill="#E6194B" points="82,699 83,698 84,698 85,698 86,698 87,697 88,697 89,697 89,696 90,696 91,696 92,696 93,696 94,696 95,695 96,694 97,694 97,694 98,693 99,693 100,693 101,693 102,693 103,693 104,692 105,692 105,692 106,692 107,692 108,692 109,691 110,691 111,691 112,691 113,691 113,690 114,690 115,690 116,690 117,690 118,689 119,689 120,689 121,689 121,689 122,689 123,689 124,689 125,689 126,688 127,688 128,688 129,688 129,688 130,688 131,688 132,688 133,688 134,687 135,687 136,687 137,687 137,687 138,687 139,686 140,686 141,686 142,686 143,686 144,686 145,686 145,685 146,685 147,685 148,685 149,684 150,684 151,684 152,684 153,684 153,684 154,683 155,683 156,683 157,683 158,683 159,683 160,683 161,682 161,682 162,682 163,682 164,682 165,682 166,681 167,681 168,681 169,681 169,681 170,681 171,681 172,680 173,680 174,680 175,679 176,679 177,678 177,678 178,678 179,678 180,678 181,677 182,677 183,677 184,677 185,677 185,676 186,676 187,676 188,676 189,675 190,675 191,675 192,674 193,674 193,674 194,674 195,674 196,673 197,673 198,673 199,673 200,672 201,672 202,672 202,672 203,671 204,671 205,671 206,671 207,671 208,670 209,670 210,669 210,669 211,669 212,669 213,669 214,669 215,668 216,668 217,668 218,668 218,668 219,667 220,667 221,667 222,666 223,666 224,666 225,665 226,665 226,665 227,665 228,665 229,665 230,665 231,664 232,664 233,664 234,664 234,664 235,663 236,663 237,663 238,663 239,662 240,662 241,662 242,662 242,662 243,661 244,661 245,661 246,660 247,660 248,660 249,660 250,659 250,659 251,659 252,658 253,658 254,658 255,658 256,658 257,657 258,657 258,657 259,656 260,656 261,656 262,656 263,656 264,655 265,655 266,655 266,654 267,654 268,654 269,654 270,654 271,653 272,652 273,652 274,652 274,652 275,651 276,651 277,651 278,651 279,651 280,651 281,650 282,650 282,650 283,649 284,649 285,649 286,649 287,648 288,648 289,648 290,648 290,648 291,648 292,648 293,647 294,647 295,646 296,646 297,646 298,646 298,646 299,646 300,646 301,645 302,645 303,645 304,645 305,645 306,645 306,645 307,645 308,644 309,644 310,644 311,644 312,643 313,643 314,643 314,643 315,643 316,643 317,643 318,643 319,643 320,642 321,642 322,642 322,642 323,642 324,641 325,641 326,641 327,640 328,639 329,639 330,639 330,639 331,639 332,638 333,638 334,638 335,638 336,637 337,637 338,637 338,637 339,637 340,637 341,637 342,636 343,636 344,636 345,636 346,636 346,635 347,635 348,635 349,635 350,635 351,635 352,635 353,634 354,634 354,634 355,634 356,634 357,634 358,633 359,633 360,632 361,632 362,632 362,632 363,632 364,631 365,631 366,630 367,630 368,629 369,629 370,629 370,629 371,629 372,629 373,628 374,628 375,628 376,627 377,627 378,627 378,627 379,626 380,626 381,625 382,625 383,625 384,625 385,625 386,624 386,624 387,624 388,623 389,623 390,623 391,622 392,622 393,622 394,622 394,622 395,622 396,622 397,621 398,621 399,621 400,620 401,620 402,620 402,620 403,620 404,620 405,620 406,619 407,619 408,618 409,618 410,618 411,617 411,617 412,617 413,617 414,617 415,617 416,617 417,616 418,616 419,616 419,616 420,616 421,615 422,615 423,615 424,614 425,614 426,614 427,614 427,613 428,613 429,613 430,612 431,612 432,612 433,611 434,611 435,611 435,610 436,610 437,609 438,609 439,608 440,608 441,608 442,607 443,607 443,606 444,606 445,606 446,605 447,605 448,605 449,605 450,604 451,604 451,604 452,603 453,603 454,602 455,602 456,602 457,602 458,602 459,601 459,601 460,600 461,600 462,600 463,600 464,599 465,599 466,599 467,599 467,599 468,598 469,598 470,598 471,597 472,597 473,597 474,596 475,596 475,596 476,596 477,596 478,595 479,595 480,595 481,595 482,594 483,594 483,594 484,593 485,592 486,592 487,592 488,592 489,592 490,591 491,591 491,591 492,590 493,590 494,590 495,590 496,590 497,590 498,590 499,589 499,589 500,589 501,589 502,589 503,588 504,588 505,588 506,588 507,587 507,587 508,587 509,586 510,586 511,585 512,585 513,585 514,584 515,584 515,583 516,583 517,583 518,583 519,582 520,582 521,582 522,582 523,581 523,581 524,581 525,581 526,580 527,580 528,580 529,580 530,580 531,580 531,579 532,579 533,578 534,578 535,577 536,577 537,577 538,576 539,576 539,576 540,575 541,575 542,575 543,575 544,575 545,575 546,574 547,574 547,574 548,574 549,574 550,574 551,574 552,573 553,573 554,572 555,572 555,572 556,572 557,571 558,571 559,571 560,571 561,570 562,570 563,570 563,570 564,570 565,570 566,569 567,569 568,569 569,569 570,569 571,569 571,569 572,569 573,568 574,568 575,568 576,568 577,567 578,567 579,567 579,566 580,566 581,566 582,566 583,565 584,565 585,565 586,565 587,564 587,564 588,564 589,564 590,563 591,563 592,563 593,563 594,563 595,562 595,562 596,562 597,561 598,561 599,561 600,560 601,560 602,560 603,560 603,559 604,559 605,559 606,559 607,559 608,559 609,558 610,558 611,557 611,557 612,557 613,557 614,556 615,556 616,556 617,556 618,556 619,555 620,555 620,555 621,555 622,555 623,554 624,554 625,554 626,554 627,554 628,554 628,554 629,553 630,553 631,553 632,552 633,552 634,552 635,552 636,552 636,552 637,552 638,552 639,551 640,551 641,551 642,550 643,550 644,550 644,550 645,549 646,549 647,549 648,549 649,549 650,549 651,549 652,548 652,548 653,548 654,548 655,547 656,547 657,547 658,547 659,547 660,547 660,547 661,547 662,547 663,546 664,546 665,546 666,546 667,546 668,546 668,545 669,545 670,545 671,545 672,545 673,545 674,545 675,544 676,544 676,544 677,544 678,544 679,543 680,543 681,543 682,542 683,542 684,542 684,542 685,542 686,541 687,541 688,541 689,541 690,540 691,540 692,539 692,539 693,539 694,539 695,539 696,538 697,538 698,538 699,538 700,538 700,537 701,537 702,537 703,537 704,536 705,536 706,536 707,536 708,536 708,536 709,535 710,535 711,535 712,535 713,535 714,534 715,534 716,534 716,534 717,534 718,534 719,534 720,533 721,533 722,533 723,533 724,533 724,532 725,532 726,532 727,532 728,532 729,532 730,532 731,531 732,531 732,531 733,531 734,531 735,531 736,530 737,530 738,530 739,530 740,530 740,530 741,529 742,529 743,529 744,529 745,528 746,528 747,528 748,528 748,528 749,528 750,527 751,527 752,527 753,527 754,527 755,526 756,526 756,526 757,525 758,525 759,525 760,525 761,525 762,524 763,524 764,524 764,523 765,523 766,523 767,523 768,522 769,522 770,522 771,521 772,521 772,521 773,520 774,520 775,519 776,519 777,519 778,518 779,518 780,518 780,517 781,517 782,517 783,516 784,516 785,516 786,516 787,515 788,515 788,515 789,515 790,514 791,514 792,514 793,514 794,513 795,513 796,513 796,513 797,512 798,512 799,512 800,512 801,512 802,512 803,511 804,511 804,511 805,511 806,511 807,510 808,510 809,510 810,509 811,509 812,509 812,509 813,509 814,508 815,507 816,507 817,506 818,506 819,505 820,505 820,505 821,505 822,504 823,504 824,504 825,504 826,503 827,503 828,503 829,502 829,502 830,502 831,501 832,501 833,501 834,501 835,500 836,500 837,500 837,500 838,500 839,500 840,499 841,498 842,498 843,498 844,498 845,498 845,498 846,498 847,497 848,497 849,497 850,497 851,497 852,497 853,497 853,496 854,495 855,495 856,495 857,495 858,494 859,494 860,494 861,493 861,493 862,493 863,493 864,492 865,492 866,491 867,490 868,490 869,490 869,490 870,490 871,489 872,489 873,489 874,489 875,488 876,488 877,488 877,488 878,487 879,487 880,487 881,487 882,487 883,486 884,486 885,486 885,486 886,486 887,485 888,485 889,485 890,485 891,485 892,485 893,484 893,484 894,484 895,483 896,483 897,483 898,483 899,483 900,482 901,482 901,482 902,482 903,482 904,482 905,482 906,482 907,482 908,481 909,481 909,481 910,480 911,480 912,479 913,479 914,479 915,479 916,479 917,478 917,478 918,478 919,477 920,477 921,477 922,477 923,477 924,476 925,476 925,476 926,476 927,476 928,475 929,475 930,475 931,475 932,475 933,475 933,474 934,474 935,474 936,474 937,473 938,473 939,473 940,472 941,472 941,472 942,471 943,471 944,471 945,470 946,470 947,470 948,470 949,469 949,469 950,469 951,469 952,468 953,468 954,468 955,468 956,468 957,467 957,467 958,466 959,465 960,465 961,464 962,463 963,463 964,462 965,461 965,461 966,461 967,461 968,460 969,460 970,459 971,459 972,459 972,459 973,459 973,699 82,699 "/>
<polyline fill="none" opacity="1" stroke="#E6194B" stroke-width="1" points="82,699 83,698 84,698 85,698 86,698 87,697 88,697 89,697 89,696 90,696 91,696 92,696 93,696 94,696 95,695 96,694 97,694 97,694 98,693 99,693 100,693 101,693 102,693 103,693 104,692 105,692 105,692 106,692 107,692 108,692 109,691 110,691 111,691 112,691 113,691 113,690 114,690 115,690 116,690 117,690 118,689 119,689 120,689 121,689 121,689 122,689 123,689 124,689 125,689 126,688 127,688 128,688 129,688 129,688 130,688 131,688 132,688 133,688 134,687 135,687 136,687 137,687 137,687 138,687 139,686 140,686 141,686 142,686 143,686 144,686 145,686 145,685 146,685 147,685 148,685 149,684 150,684 151,684 152,684 153,684 153,684 154,683 155,683 156,683 157,683 158,683 159,683 160,683 161,682 161,682 162,682 163,682 164,682 165,682 166,681 167,681 168,681 169,681 169,681 170,681 171,681 172,680 173,680 174,680 175,679 176,679 177,678 177,678 178,678 179,678 180,678 181,677 182,677 183,677 184,677 185,677 185,676 186,676 187,676 188,676 189,675 190,675 191,675 192,674 193,674 193,674 194,674 195,674 196,673 197,673 198,673 199,673 200,672 201,672 202,672 202,672 203,671 204,671 205,671 206,671 207,671 208,670 209,670 210,669 210,669 211,669 212,669 213,669 214,669 215,668 216,668 217,668 218,668 218,668 219,667 220,667 221,667 222,666 223,666 224,666 225,665 226,665 226,665 227,665 228,665 229,665 230,665 231,664 232,664 233,664 234,664 234,664 235,663 236,663 237,663 238,663 239,662 240,662 241,662 242,662 242,662 243,661 244,661 245,661 246,660 247,660 248,660 249,660 250,659 250,659 251,659 252,658 253,658 254,658 255,658 256,658 257,657 258,657 258,657 259,656 260,656 261,656 262,656 263,656 264,655 265,655 266,655 266,654 267,654 268,654 269,654 270,654 271,653 272,652 273,652 274,652 274,652 275,651 276,651 277,651 278,651 279,651 280,651 281,650 282,650 282,650 283,649 284,649 285,649 286,649 287,648 288,648 289,648 290,648 290,648 291,648 292,648 293,647 294,647 295,646 296,646 297,646 298,646 298,646 299,646 300,646 301,645 302,645 303,645 304,645 305,645 306,645 306,645 307,645 308,644 309,644 310,644 311,644 312,643 313,643 314,643 314,643 315,643 316,643 317,643 318,643 319,643 320,642 321,642 322,642 322,642 323,642 324,641 325,641 326,641 327,640 328,639 329,639 330,639 330,639 331,639 332,638 333,638 334,638 335,638 336,637 337,637 338,637 338,637 339,637 340,637 341,637 342,636 343,636 344,636 345,636 346,636 346,635 347,635 348,635 349,635 350,635 351,635 352,635 353,634 354,634 354,634 355,634 356,634 357,634 358,633 359,633 360,632 361,632 362,632 362,632 363,632 364,631 365,631 366,630 367,630 368,629 369,629 370,629 370,629 371,629 372,629 373,628 374,628 375,628 376,627 377,627 378,627 378,627 379,626 380,626 381,625 382,625 383,625 384,625 385,625 386,624 386,624 387,624 388,623 389,623 390,623 391,622 392,622 393,622 394,622 394,622 395,622 396,622 397,621 398,621 399,621 400,620 401,620 402,620 402,620 403,620 404,620 405,620 406,619 407,619 408,618 409,618 410,618 411,617 411,617 412,617 413,617 414,617 415,617 416,617 417,616 418,616 419,616 419,616 420,616 421,615 422,615 423,615 424,614 425,614 426,614 427,614 427,613 428,613 429,613 430,612 431,612 432,612 433,611 434,611 435,611 435,610 436,610 437,609 438,609 439,608 440,608 441,608 442,607 443,607 443,606 444,606 445,606 446,605 447,605 448,605 449,605 450,604 451,604 451,604 452,603 453,603 454,602 455,602 456,602 457,602 458,602 459,601 459,601 460,600 461,600 462,600 463,600 464,599 465,599 466,599 467,599 467,599 468,598 469,598 470,598 471,597 472,597 473,597 474,596 475,596 475,596 476,596 477,596 478,595 479,595 480,595 481,595 482,594 483,594 483,594 484,593 485,592 486,592 487,592 488,592 489,592 490,591 491,591 491,591 492,590 493,590 494,590 495,590 496,590 497,590 498,590 499,589 499,589 500,589 501,589 502,589 503,588 504,588 505,588 506,588 507,587 507,587 508,587 509,586 510,586 511,585 512,585 513,585 514,584 515,584 515,583 516,583 517,583 518,583 519,582 520,582 521,582 522,582 523,581 523,581 524,581 525,581 526,580 527,580 528,580 529,580 530,580 531,580 531,579 532,579 533,578 534,578 535,577 536,577 537,577 538,576 539,576 539,576 540,575 541,575 542,575 543,575 544,575 545,575 546,574 547,574 547,574 548,574 549,574 550,574 551,574 552,573 553,573 554,572 555,572 555,572 556,572 557,571 558,571 559,571 560,571 561,570 562,570 563,570 563,570 564,570 565,570 566,569 567,569 568,569 569,569 570,569 571,569 571,569 572,569 573,568 574,568 575,568 576,568 577,567 578,567 579,567 579,566 580,566 581,566 582,566 583,565 584,565 585,565 586,565 587,564 587,564 588,564 589,564 590,563 591,563 592,563 593,563 594,563 595,562 595,562 596,562 597,561 598,561 599,561 600,560 601,560 602,560 603,560 603,559 604,559 605,559 606,559 607,559 608,559 609,558 610,558 611,557 611,557 612,557 613,557 614,556 615,556 616,556 617,556 618,556 619,555 620,555 620,555 621,555 622,555 623,554 624,554 625,554 626,554 627,554 628,554 628,554 629,553 630,553 631,553 632,552 633,552 634,552 635,552 636,552 636,552 637,552 638,552 639,551 640,551 641,551 642,550 643,550 644,550 644,550 645,549 646,549 647,549 648,549 649,549 650,549 651,549 652,548 652,548 653,548 654,548 655,547 656,547 657,547 658,547 659,547 660,547 660,547 661,547 662,547 663,546 664,546 665,546 666,546 667,546 668,546 668,545 669,545 670,545 671,545 672,545 673,545 674,545 675,544 676,544 676,544 677,544 678,544 679,543 680,543 681,543 682,542 683,542 684,542 684,542 685,542 686,541 687,541 688,541 689,541 690,540 691,540 692,539 692,539 693,539 694,539 695,539 696,538 697,538 698,538 699,538 700,538 700,537 701,537 702,537 703,537 704,536 705,536 706,536 707,536 708,536 708,536 709,535 710,535 711,535 712,535 713,535 714,534 715,534 716,534 716,534 717,534 718,534 719,534 720,533 721,533 722,533 723,533 724,533 724,532 725,532 726,532 727,532 728,532 729,532 730,532 731,531 732,531 732,531 733,531 734,531 735,531 736,530 737,530 738,530 739,530 740,530 740,530 741,529 742,529 743,529 744,529 745,528 746,528 747,528 748,528 748,528 749,528 750,527 751,527 752,527 753,527 754,527 755,526 756,526 756,526 757,525 758,525 759,525 760,525 761,525 762,524 763,524 764,524 764,523 765,523 766,523 767,523 768,522 769,522 770,522 771,521 772,521 772,521 773,520 774,520 775,519 776,519 777,519 778,518 779,518 780,518 780,517 781,517 782,517 783,516 784,516 785,516 786,516 787,515 788,515 788,515 789,515 790,514 791,514 792,514 793,514 794,513 795,513 796,513 796,513 797,512 798,512 799,512 800,512 801,512 802,512 803,511 804,511 804,511 805,511 806,511 807,510 808,510 809,510 810,509 811,509 812,509 812,509 813,509 814,508 815,507 816,507 817,506 818,506 819,505 820,505 820,505 821,505 822,504 823,504 824,504 825,504 826,503 827,503 828,503 829,502 829,502 830,502 831,501 832,501 833,501 834,501 835,500 836,500 837,500 837,500 838,500 839,500 840,499 841,498 842,498 843,498 844,498 845,498 845,498 846,498 847,497 848,497 849,497 850,497 851,497 852,497 853,497 853,496 854,495 855,495 856,495 857,495 858,494 859,494 860,494 861,493 861,493 862,493 863,493 864,492 865,492 866,491 867,490 868,490 869,490 869,490 870,490 871,489 872,489 873,489 874,489 875,488 876,488 877,488 877,488 878,487 879,487 880,487 881,487 882,487 883,486 884,486 885,486 885,486 886,486 887,485 888,485 889,485 890,485 891,485 892,485 893,484 893,484 894,484 895,483 896,483 897,483 898,483 899,483 900,482 901,482 901,482 902,482 903,482 904,482 905,482 906,482 907,482 908,481 909,481 909,481 910,480 911,480 912,479 913,479 914,479 915,479 916,479 917,478 917,478 918,478 919,477 920,477 921,477 922,477 923,477 924,476 925,476 925,476 926,476 927,476 928,475 929,475 930,475 931,475 932,475 933,475 933,474 934,474 935,474 936,474 937,473 938,473 939,473 940,472 941,472 941,472 942,471 943,471 944,471 945,470 946,470 947,470 948,470 949,469 949,469 950,469 951,469 952,468 953,468 954,468 955,468 956,468 957,467 957,467 958,466 959,465 960,465 961,464 962,463 963,463 964,462 965,461 965,461 966,461 967,461 968,460 969,460 970,459 971,459 972,459 972,459 973,459 "/>
<line opacity="0.1" stroke="#000000" stroke-width="1" x1="83" y1="699" x2="83" y2="68"/>
<line opacity="0.1" stroke="#000000" stroke-width="1" x1="92" y1="699" x2="92" y2="68"/>
<line opacity="0.1" stroke="#000000" stroke-width="1" x1="101" y1="699" x2="101" y2="68"/>
<line opacity="0.1" stroke="#000000" stroke-width="1" x1="110" y1="699" x2="110" y2="68"/>
<line opacity="0.1" stroke="#000000" stroke-width="1" x1="119" y1="699" x2="119" y2="68"/>
<line opacity="0.1" stroke="#000000" stroke-width="1" x1="128" y1="699" x2="128" y2="68"/>
<line opacity="0.1" stroke="#000000" stroke-width="1" x1="137" y1="699" x2="137" y2="68"/>
<line opacity="0.1" stroke="#000000" stroke-width="1" x1="146" y1="699" x2="146" y2="68"/>
<line opacity="0.1" stroke="#000000" stroke-width="1" x1="154" y1="699" x2="154" y2="68"/>
<line opacity="0.1" stroke="#000000" stroke-width="1" x1="163" y1="699" x2="163" y2="68"/>
<line opacity="0.1" stroke="#000000" stroke-width="1" x1="172" y1="699" x2="172" y2="68"/>
<line opacity="0.1" stroke="#000000" stroke-width="1" x1="181" y1="699" x2="181" y2="68"/>
<line opacity="0.1" stroke="#000000" stroke-width="1" x1="190" y1="699" x2="190" y2="68"/>
<line opacity="0.1" stroke="#000000" stroke-width="1" x1="199" y1="699" x2="199" y2="68"/>
<line opacity="0.1" stroke="#000000" stroke-width="1" x1="208" y1="699" x2="208" y2="68"/>
<line opacity="0.1" stroke="#000000" stroke-width="1" x1="217" y1="699" x2="217" y2="68"/>
<line opacity="0.1" stroke="#000000" stroke-width="1" x1="226" y1="699" x2="226" y2="68"/>
<line opacity="0.1" stroke="#000000" stroke-width="1" x1="234" y1="699" x2="234" y2="68"/>
<line opacity="0.1" stroke="#000000" stroke-width="1" x1="243" y1="699" x2="243" y2="68"/>
<line opacity="0.1" stroke="#000000" stroke-width="1" x1="252" y1="699" x2="252" y2="68"/>
<line opacity="0.1" stroke="#000000" stroke-width="1" x1="261" y1="699" x2="261" y2="68"/>
<line opacity="0.1" stroke="#000000" stroke-width="1" x1="270" y1="699" x2="270" y2="68"/>
<line opacity="0.1" stroke="#000000" stroke-width="1" x1="279" y1="699" x2="279" y2="68"/>
<line opacity="0.1" stroke="#000000" stroke-width="1" x1="288" y1="699" x2="288" y2="68"/>
<line opacity="0.1" stroke="#000000" stroke-width="1" x1="297" y1="699" x2="297" y2="68"/>
<line opacity="0.1" stroke="#000000" stroke-width="1" x1="306" y1="699" x2="306" y2="68"/>
<line opacity="0.1" stroke="#000000" stroke-width="1" x1="315" y1="699" x2="315" y2="68"/>
<line opacity="0.1" stroke="#000000" stroke-width="1" x1="323" y1="699" x2="323" y2="68"/>
<line opacity="0.1" stroke="#000000" stroke-width="1" x1="332" y1="699" x2="332" y2="68"/>
<line opacity="0.1" stroke="#000000" stroke-width="1" x1="341" y1="699" x2="341" y2="68"/>
<line opacity="0.1" stroke="#000000" stroke-width="1" x1="350" y1="699" x2="350" y2="68"/>
<line opacity="0.1" stroke="#000000" stroke-width="1" x1="359" y1="699" x2="359" y2="68"/>
<line opacity="0.1" stroke="#000000" stroke-width="1" x1="368" y1="699" x2="368" y2="68"/>
<line opacity="0.1" stroke="#000000" stroke-width="1" x1="377" y1="699" x2="377" y2="68"/>
<line opacity="0.1" stroke="#000000" stroke-width="1" x1="386" y1="699" x2="386" y2="68"/>
<line opacity="0.1" stroke="#000000" stroke-width="1" x1="395" y1="699" x2="395" y2="68"/>
<line opacity="0.1" stroke="#000000" stroke-width="1" x1="403" y1="699" x2="403" y2="68"/>
<line opacity="0.1" stroke="#000000" stroke-width="1" x1="412" y1="699" x2="412" y2="68"/>
<line opacity="0.1" stroke="#000000" stroke-width="1" x1="421" y1="699" x2="421" y2="68"/>
<line opacity="0.1" stroke="#000000" stroke-width="1" x1="430" y1="699" x2="430" y2="68"/>
<line opacity="0.1" stroke="#000000" stroke-width="1" x1="439" y1="699" x2="439" y2="68"/>
<line opacity="0.1" stroke="#000000" stroke-width="1" x1="448" y1="699" x2="448" y2="68"/>
<line opacity="0.1" stroke="#000000" stroke-width="1" x1="457" y1="699" x2="457" y2="68"/>
<line opacity="0.1" stroke="#000000" stroke-width="1" x1="466" y1="699" x2="466" y2="68"/>
<line opacity="0.1" stroke="#000000" stroke-width="1" x1="475" y1="699" x2="475" y2="68"/>
<line opacity="0.1" stroke="#000000" stroke-width="1" x1="483" y1="699" x2="483" y2="68"/>
<line opacity="0.1" stroke="#000000" stroke-width="1" x1="492" y1="699" x2="492" y2="68"/>
<line opacity="0.1" stroke="#000000" stroke-width="1" x1="501" y1="699" x2="501" y2="68"/>
<line opacity="0.1" stroke="#000000" stroke-width="1" x1="510" y1="699" x2="510" y2="68"/>
<line opacity="0.1" stroke="#000000" stroke-width="1" x1="519" y1="699" x2="519" y2="68"/>
<line opacity="0.1" stroke="#000000" stroke-width="1" x1="528" y1="699" x2="528" y2="68"/>
<line opacity="0.1" stroke="#000000" stroke-width="1" x1="537" y1="699" x2="537" y2="68"/>
<line opacity="0.1" stroke="#000000" stroke-width="1" x1="546" y1="699" x2="546" y2="68"/>
<line opacity="0.1" stroke="#000000" stroke-width="1" x1="555" y1="699" x2="555" y2="68"/>
<line opacity="0.1" stroke="#000000" stroke-width="1" x1="563" y1="699" x2="563" y2="68"/>
<line opacity="0.1" stroke="#000000" stroke-width="1" x1="572" y1="699" x2="572" y2="68"/>
<line opacity="0.1" stroke="#000000" stroke-width="1" x1="581" y1="699" x2="581" y2="68"/>
<line opacity="0.1" stroke="#000000" stroke-width="1" x1="590" y1="699" x2="590" y2="68"/>
<line opacity="0.1" stroke="#000000" stroke-width="1" x1="599" y1="699" x2="599" y2="68"/>
<line opacity="0.1" stroke="#000000" stroke-width="1" x1="608" y1="699" x2="608" y2="68"/>
<line opacity="0.1" stroke="#000000" stroke-width="1" x1="617" y1="699" x2="617" y2="68"/>
<line opacity="0.1" stroke="#000000" stroke-width="1" x1="626" y1="699" x2="626" y2="68"/>
<line opacity="0.1" stroke="#000000" stroke-width="1" x1="635" y1="699" x2="635" y2="68"/>
<line opacity="0.1" stroke="#000000" stroke-width="1" x1="644" y1="699" x2="644" y2="68"/>
<line opacity="0.1" stroke="#000000" stroke-width="1" x1="652" y1="699" x2="652" y2="68"/>
<line opacity="0.1" stroke="#000000" stroke-width="1" x1="661" y1="699" x2="661" y2="68"/>
<line opacity="0.1" stroke="#000000" stroke-width="1" x1="670" y1="699" x2="670" y2="68"/>
<line opacity="0.1" stroke="#000000" stroke-width="1" x1="679" y1="699" x2="679" y2="68"/>
<line opacity="0.1" stroke="#000000" stroke-width="1" x1="688" y1="699" x2="688" y2="68"/>
<line opacity="0.1" stroke="#000000" stroke-width="1" x1="697" y1="699" x2="697" y2="68"/>
<line opacity="0.1" stroke="#000000" stroke-width="1" x1="706" y1="699" x2="706" y2="68"/>
<line opacity="0.1" stroke="#000000" stroke-width="1" x1="715" y1="699" x2="715" y2="68"/>
<line opacity="0.1" stroke="#000000" stroke-width="1" x1="724" y1="699" x2="724" y2="68"/>
<line opacity="0.1" stroke="#000000" stroke-width="1" x1="732" y1="699" x2="732" y2="68"/>
<line opacity="0.1" stroke="#000000" stroke-width="1" x1="741" y1="699" x2="741" y2="68"/>
<line opacity="0.1" stroke="#000000" stroke-width="1" x1="750" y1="699" x2="750" y2="68"/>
<line opacity="0.1" stroke="#000000" stroke-width="1" x1="759" y1="699" x2="759" y2="68"/>
<line opacity="0.1" stroke="#000000" stroke-width="1" x1="768" y1="699" x2="768" y2="68"/>
<line opacity="0.1" stroke="#000000" stroke-width="1" x1="777" y1="699" x2="777" y2="68"/>
<line opacity="0.1" stroke="#000000" stroke-width="1" x1="786" y1="699" x2="786" y2="68"/>
<line opacity="0.1" stroke="#000000" stroke-width="1" x1="795" y1="699" x2="795" y2="68"/>
<line opacity="0.1" stroke="#000000" stroke-width="1" x1="804" y1="699" x2="804" y2="68"/>
<line opacity="0.1" stroke="#000000" stroke-width="1" x1="812" y1="699" x2="812" y2="68"/>
<line opacity="0.1" stroke="#000000" stroke-width="1" x1="821" y1="699" x2="821" y2="68"/>
<line opacity="0.1" stroke="#000000" stroke-width="1" x1="830" y1="699" x2="830" y2="68"/>
<line opacity="0.1" stroke="#000000" stroke-width="1" x1="839" y1="699" x2="839" y2="68"/>
<line opacity="0.1" stroke="#000000" stroke-width="1" x1="848" y1="699" x2="848" y2="68"/>
<line opacity="0.1" stroke="#000000" stroke-width="1" x1="857" y1="699" x2="857" y2="68"/>
<line opacity="0.1" stroke="#000000" stroke-width="1" x1="866" y1="699" x2="866" y2="68"/>
<line opacity="0.1" stroke="#000000" stroke-width="1" x1="875" y1="699" x2="875" y2="68"/>
<line opacity="0.1" stroke="#000000" stroke-width="1" x1="884" y1="699" x2="884" y2="68"/>
<line opacity="0.1" stroke="#000000" stroke-width="1" x1="892" y1="699" x2="892" y2="68"/>
<line opacity="0.1" stroke="#000000" stroke-width="1" x1="901" y1="699" x2="901" y2="68"/>
<line opacity="0.1" stroke="#000000" stroke-width="1" x1="910" y1="699" x2="910" y2="68"/>
<line opacity="0.1" stroke="#000000" stroke-width="1" x1="919" y1="699" x2="919" y2="68"/>
<line opacity="0.1" stroke="#000000" stroke-width="1" x1="928" y1="699" x2="928" y2="68"/>
<line opacity="0.1" stroke="#000000" stroke-width="1" x1="937" y1="699" x2="937" y2="68"/>
<line opacity="0.1" stroke="#000000" stroke-width="1" x1="946" y1="699" x2="946" y2="68"/>
<line opacity="0.1" stroke="#000000" stroke-width="1" x1="955" y1="699" x2="955" y2="68"/>
<line opacity="0.1" stroke="#000000" stroke-width="1" x1="964" y1="699" x2="964" y2="68"/>
<line opacity="0.1" stroke="#000000" stroke-width="1" x1="78" y1="699" x2="973" y2="699"/>
<line opacity="0.1" stroke="#000000" stroke-width="1" x1="78" y1="689" x2="973" y2="689"/>
<line opacity="0.1" stroke="#000000" stroke-width="1" x1="78" y1="679" x2="973" y2="679"/>
<line opacity="0.1" stroke="#000000" stroke-width="1" x1="78" y1="669" x2="973" y2="669"/>
<line opacity="0.1" stroke="#000000" stroke-width="1" x1="78" y1="660" x2="973" y2="660"/>
<line opacity="0.1" stroke="#000000" stroke-width="1" x1="78" y1="650" x2="973" y2="650"/>
<line opacity="0.1" stroke="#000000" stroke-width="1" x1="78" y1="640" x2="973" y2="640"/>
<line opacity="0.1" stroke="#000000" stroke-width="1" x1="78" y1="631" x2="973" y2="631"/>
<line opacity="0.1" stroke="#000000" stroke-width="1" x1="78" y1="621" x2="973" y2="621"/>
<line opacity="0.1" stroke="#000000" stroke-width="1" x1="78" y1="611" x2="973" y2="611"/>
<line opacity="0.1" stroke="#000000" stroke-width="1" x1="78" y1="601" x2="973" y2="601"/>
<line opacity="0.1" stroke="#000000" stroke-width="1" x1="78" y1="592" x2="973" y2="592"/>
<line opacity="0.1" stroke="#000000" stroke-width="1" x1="78" y1="582" x2="973" y2="582"/>
<line opacity="0.1" stroke="#000000" stroke-width="1" x1="78" y1="572" x2="973" y2="572"/>
<line opacity="0.1" stroke="#000000" stroke-width="1" x1="78" y1="563" x2="973" y2="563"/>
<line opacity="0.1" stroke="#000000" stroke-width="1" x1="78" y1="553" x2="973" y2="553"/>
<line opacity="0.1" stroke="#000000" stroke-width="1" x1="78" y1="543" x2="973" y2="543"/>
<line opacity="0.1" stroke="#000000" stroke-width="1" x1="78" y1="533" x2="973" y2="533"/>
<line opacity="0.1" stroke="#000000" stroke-width="1" x1="78" y1="524" x2="973" y2="524"/>
<line opacity="0.1" stroke="#000000" stroke-width="1" x1="78" y1="514" x2="973" y2="514"/>
<line opacity="0.1" stroke="#000000" stroke-width="1" x1="78" y1="504" x2="973" y2="504"/>
<line opacity="0.1" stroke="#000000" stroke-width="1" x1="78" y1="495" x2="973" y2="495"/>
<line opacity="0.1" stroke="#000000" stroke-width="1" x1="78" y1="485" x2="973" y2="485"/>
<line opacity="0.1" stroke="#000000" stroke-width="1" x1="78" y1="475" x2="973" y2="475"/>
<line opacity="0.1" stroke="#000000" stroke-width="1" x1="78" y1="465" x2="973" y2="465"/>
<line opacity="0.1" stroke="#000000" stroke-width="1" x1="78" y1="456" x2="973" y2="456"/>
<line opacity="0.1" stroke="#000000" stroke-width="1" x1="78" y1="446" x2="973" y2="446"/>
<line opacity="0.1" stroke="#000000" stroke-width="1" x1="78" y1="436" x2="973" y2="436"/>
<line opacity="0.1" stroke="#000000" stroke-width="1" x1="78" y1="427" x2="973" y2="427"/>
<line opacity="0.1" stroke="#000000" stroke-width="1" x1="78" y1="417" x2="973" y2="417"/>
<line opacity="0.1" stroke="#000000" stroke-width="1" x1="78" y1="407" x2="973" y2="407"/>
<line opacity="0.1" stroke="#000000" stroke-width="1" x1="78" y1="397" x2="973" y2="397"/>
<line opacity="0.1" stroke="#000000" stroke-width="1" x1="78" y1="388" x2="973" y2="388"/>
<line opacity="0.1" stroke="#000000" stroke-width="1" x1="78" y1="378" x2="973" y2="378"/>
<line opacity="0.1" stroke="#000000" stroke-width="1" x1="78" y1="368" x2="973" y2="368"/>
<line opacity="0.1" stroke="#000000" stroke-width="1" x1="78" y1="359" x2="973" y2="359"/>
<line opacity="0.1" stroke="#000000" stroke-width="1" x1="78" y1="349" x2="973" y2="349"/>
<line opacity="0.1" stroke="#000000" stroke-width="1" x1="78" y1="339" x2="973" y2="339"/>
<line opacity="0.1" stroke="#000000" stroke-width="1" x1="78" y1="329" x2="973" y2="329"/>
<line opacity="0.1" stroke="#000000" stroke-width="1" x1="78" y1="320" x2="973" y2="320"/>
<line opacity="0.1" stroke="#000000" stroke-width="1" x1="78" y1="310" x2="973" y2="310"/>
<line opacity="0.1" stroke="#000000" stroke-width="1" x1="78" y1="300" x2="973" y2="300"/>
<line opacity="0.1" stroke="#000000" stroke-width="1" x1="78" y1="291" x2="973" y2="291"/>
<line opacity="0.1" stroke="#000000" stroke-width="1" x1="78" y1="281" x2="973" y2="281"/>
<line opacity="0.1" stroke="#000000" stroke-width="1" x1="78" y1="271" x2="973" y2="271"/>
<line opacity="0.1" stroke="#000000" stroke-width="1" x1="78" y1="262" x2="973" y2="262"/>
<line opacity="0.1" stroke="#000000" stroke-width="1" x1="78" y1="252" x2="973" y2="252"/>
<line opacity="0.1" stroke="#000000" stroke-width="1" x1="78" y1="242" x2="973" y2="242"/>
<line opacity="0.1" stroke="#000000" stroke-width="1" x1="78" y1="232" x2="973" y2="232"/>
<line opacity="0.1" stroke="#000000" stroke-width="1" x1="78" y1="223" x2="973" y2="223"/>
<line opacity="0.1" stroke="#000000" stroke-width="1" x1="78" y1="213" x2="973" y2="213"/>
<line opacity="0.1" stroke="#000000" stroke-width="1" x1="78" y1="203" x2="973" y2="203"/>
<line opacity="0.1" stroke="#000000" stroke-width="1" x1="78" y1="194" x2="973" y2="194"/>
<line opacity="0.1" stroke="#000000" stroke-width="1" x1="78" y1="184" x2="973" y2="184"/>
<line opacity="0.1" stroke="#000000" stroke-width="1" x1="78" y1="174" x2="973" y2="174"/>
<line opacity="0.1" stroke="#000000" stroke-width="1" x1="78" y1="164" x2="973" y2="164"/>
<line opacity="0.1" stroke="#000000" stroke-width="1" x1="78" y1="155" x2="973" y2="155"/>
<line opacity="0.1" stroke="#000000" stroke-width="1" x1="78" y1="145" x2="973" y2="145"/>
<line opacity="0.1" stroke="#000000" stroke-width="1" x1="78" y1="135" x2="973" y2="135"/>
<line opacity="0.1" stroke="#000000" stroke-width="1" x1="78" y1="126" x2="973" y2="126"/>
<line opacity="0.1" stroke="#000000" stroke-width="1" x1="78" y1="116" x2="973" y2="116"/>
<line opacity="0.1" stroke="#000000" stroke-width="1" x1="78" y1="106" x2="973" y2="106"/>
<line opacity="0.1" stroke="#000000" stroke-width="1" x1="78" y1="96" x2="973" y2="96"/>
<line opacity="0.1" stroke="#000000" stroke-width="1" x1="78" y1="87" x2="973" y2="87"/>
<line opacity="0.1" stroke="#000000" stroke-width="1" x1="78" y1="77" x2="973" y2="77"/>
<text x="8" y="384" dy="0.76em" text-anchor="middle" font-family="sans-serif" font-size="9.67741935483871" opacity="1" fill="#000000" transform="rotate(270, 8, 384)">
Memory usage
</text>
<text x="526" y="760" dy="-0.5ex" text-anchor="middle" font-family="sans-serif" font-size="9.67741935483871" opacity="1" fill="#000000">
Time
</text>
<line opacity="0.2" stroke="#000000" stroke-width="1" x1="101" y1="699" x2="101" y2="68"/>
<line opacity="0.2" stroke="#000000" stroke-width="1" x1="190" y1="699" x2="190" y2="68"/>
<line opacity="0.2" stroke="#000000" stroke-width="1" x1="279" y1="699" x2="279" y2="68"/>
<line opacity="0.2" stroke="#000000" stroke-width="1" x1="368" y1="699" x2="368" y2="68"/>
<line opacity="0.2" stroke="#000000" stroke-width="1" x1="457" y1="699" x2="457" y2="68"/>
<line opacity="0.2" stroke="#000000" stroke-width="1" x1="546" y1="699" x2="546" y2="68"/>
<line opacity="0.2" stroke="#000000" stroke-width="1" x1="635" y1="699" x2="635" y2="68"/>
<line opacity="0.2" stroke="#000000" stroke-width="1" x1="724" y1="699" x2="724" y2="68"/>
<line opacity="0.2" stroke="#000000" stroke-width="1" x1="812" y1="699" x2="812" y2="68"/>
<line opacity="0.2" stroke="#000000" stroke-width="1" x1="901" y1="699" x2="901" y2="68"/>
<line opacity="0.2" stroke="#000000" stroke-width="1" x1="78" y1="699" x2="973" y2="699"/>
<line opacity="0.2" stroke="#000000" stroke-width="1" x1="78" y1="601" x2="973" y2="601"/>
<line opacity="0.2" stroke="#000000" stroke-width="1" x1="78" y1="504" x2="973" y2="504"/>
<line opacity="0.2" stroke="#000000" stroke-width="1" x1="78" y1="407" x2="973" y2="407"/>
<line opacity="0.2" stroke="#000000" stroke-width="1" x1="78" y1="310" x2="973" y2="310"/>
<line opacity="0.2" stroke="#000000" stroke-width="1" x1="78" y1="213" x2="973" y2="213"/>
<line opacity="0.2" stroke="#000000" stroke-width="1" x1="78" y1="116" x2="973" y2="116"/>
<polyline fill="none" opacity="1" stroke="#000000" stroke-width="1" points="77,68 77,699 "/>
<text x="68" y="699" dy="0.5ex" text-anchor="end" font-family="sans-serif" font-size="9.67741935483871" opacity="1" fill="#000000">
0.00 MB
</text>
<polyline fill="none" opacity="1" stroke="#000000" stroke-width="1" points="72,699 77,699 "/>
<text x="68" y="601" dy="0.5ex" text-anchor="end" font-family="sans-serif" font-size="9.67741935483871" opacity="1" fill="#000000">
0.19 MB
</text>
<polyline fill="none" opacity="1" stroke="#000000" stroke-width="1" points="72,601 77,601 "/>
<text x="68" y="504" dy="0.5ex" text-anchor="end" font-family="sans-serif" font-size="9.67741935483871" opacity="1" fill="#000000">
0.38 MB
</text>
<polyline fill="none" opacity="1" stroke="#000000" stroke-width="1" points="72,504 77,504 "/>
<text x="68" y="407" dy="0.5ex" text-anchor="end" font-family="sans-serif" font-size="9.67741935483871" opacity="1" fill="#000000">
0.57 MB
</text>
<polyline fill="none" opacity="1" stroke="#000000" stroke-width="1" points="72,407 77,407 "/>
<text x="68" y="310" dy="0.5ex" text-anchor="end" font-family="sans-serif" font-size="9.67741935483871" opacity="1" fill="#000000">
0.76 MB
</text>
<polyline fill="none" opacity="1" stroke="#000000" stroke-width="1" points="72,310 77,310 "/>
<text x="68" y="213" dy="0.5ex" text-anchor="end" font-family="sans-serif" font-size="9.67741935483871" opacity="1" fill="#000000">
0.95 MB
</text>
<polyline fill="none" opacity="1" stroke="#000000" stroke-width="1" points="72,213 77,213 "/>
<text x="68" y="116" dy="0.5ex" text-anchor="end" font-family="sans-serif" font-size="9.67741935483871" opacity="1" fill="#000000">
1.14 MB
</text>
<polyline fill="none" opacity="1" stroke="#000000" stroke-width="1" points="72,116 77,116 "/>
<polyline fill="none" opacity="1" stroke="#000000" stroke-width="1" points="78,700 973,700 "/>
<text x="101" y="710" dy="0.76em" text-anchor="middle" font-family="sans-serif" font-size="9.67741935483871" opacity="1" fill="#000000">
02:04:17
</text>
<polyline fill="none" opacity="1" stroke="#000000" stroke-width="1" points="101,700 101,705 "/>
<text x="190" y="710" dy="0.76em" text-anchor="middle" font-family="sans-serif" font-size="9.67741935483871" opacity="1" fill="#000000">
02:04:18
</text>
<polyline fill="none" opacity="1" stroke="#000000" stroke-width="1" points="190,700 190,705 "/>
<text x="279" y="710" dy="0.76em" text-anchor="middle" font-family="sans-serif" font-size="9.67741935483871" opacity="1" fill="#000000">
02:04:19
</text>
<polyline fill="none" opacity="1" stroke="#000000" stroke-width="1" points="279,700 279,705 "/>
<text x="368" y="710" dy="0.76em" text-anchor="middle" font-family="sans-serif" font-size="9.67741935483871" opacity="1" fill="#000000">
02:04:20
</text>
<polyline fill="none" opacity="1" stroke="#000000" stroke-width="1" points="368,700 368,705 "/>
<text x="457" y="710" dy="0.76em" text-anchor="middle" font-family="sans-serif" font-size="9.67741935483871" opacity="1" fill="#000000">
02:04:21
</text>
<polyline fill="none" opacity="1" stroke="#000000" stroke-width="1" points="457,700 457,705 "/>
<text x="546" y="710" dy="0.76em" text-anchor="middle" font-family="sans-serif" font-size="9.67741935483871" opacity="1" fill="#000000">
02:04:22
</text>
<polyline fill="none" opacity="1" stroke="#000000" stroke-width="1" points="546,700 546,705 "/>
<text x="635" y="710" dy="0.76em" text-anchor="middle" font-family="sans-serif" font-size="9.67741935483871" opacity="1" fill="#000000">
02:04:23
</text>
<polyline fill="none" opacity="1" stroke="#000000" stroke-width="1" points="635,700 635,705 "/>
<text x="724" y="710" dy="0.76em" text-anchor="middle" font-family="sans-serif" font-size="9.67741935483871" opacity="1" fill="#000000">
02:04:24
</text>
<polyline fill="none" opacity="1" stroke="#000000" stroke-width="1" points="724,700 724,705 "/>
<text x="812" y="710" dy="0.76em" text-anchor="middle" font-family="sans-serif" font-size="9.67741935483871" opacity="1" fill="#000000">
02:04:25
</text>
<polyline fill="none" opacity="1" stroke="#000000" stroke-width="1" points="812,700 812,705 "/>
<text x="901" y="710" dy="0.76em" text-anchor="middle" font-family="sans-serif" font-size="9.67741935483871" opacity="1" fill="#000000">
02:04:26
</text>
<polyline fill="none" opacity="1" stroke="#000000" stroke-width="1" points="901,700 901,705 "/>
<polyline fill="none" opacity="1" stroke="#000000" stroke-width="1" points="78,67 974,67 "/>
<text x="101" y="58" dy="-0.5ex" text-anchor="middle" font-family="sans-serif" font-size="9.67741935483871" opacity="1" fill="#000000">
+265ms
</text>
<polyline fill="none" opacity="1" stroke="#000000" stroke-width="1" points="101,62 101,67 "/>
<text x="190" y="58" dy="-0.5ex" text-anchor="middle" font-family="sans-serif" font-size="9.67741935483871" opacity="1" fill="#000000">
+1s
</text>
<polyline fill="none" opacity="1" stroke="#000000" stroke-width="1" points="190,62 190,67 "/>
<text x="279" y="58" dy="-0.5ex" text-anchor="middle" font-family="sans-serif" font-size="9.67741935483871" opacity="1" fill="#000000">
+2s
</text>
<polyline fill="none" opacity="1" stroke="#000000" stroke-width="1" points="279,62 279,67 "/>
<text x="368" y="58" dy="-0.5ex" text-anchor="middle" font-family="sans-serif" font-size="9.67741935483871" opacity="1" fill="#000000">
+3s
</text>
<polyline fill="none" opacity="1" stroke="#000000" stroke-width="1" points="368,62 368,67 "/>
<text x="457" y="58" dy="-0.5ex" text-anchor="middle" font-family="sans-serif" font-size="9.67741935483871" opacity="1" fill="#000000">
+4s
</text>
<polyline fill="none" opacity="1" stroke="#000000" stroke-width="1" points="457,62 457,67 "/>
<text x="546" y="58" dy="-0.5ex" text-anchor="middle" font-family="sans-serif" font-size="9.67741935483871" opacity="1" fill="#000000">
+5s
</text>
<polyline fill="none" opacity="1" stroke="#000000" stroke-width="1" points="546,62 546,67 "/>
<text x="635" y="58" dy="-0.5ex" text-anchor="middle" font-family="sans-serif" font-size="9.67741935483871" opacity="1" fill="#000000">
+6s
</text>
<polyline fill="none" opacity="1" stroke="#000000" stroke-width="1" points="635,62 635,67 "/>
<text x="724" y="58" dy="-0.5ex" text-anchor="middle" font-family="sans-serif" font-size="9.67741935483871" opacity="1" fill="#000000">
+7s
</text>
<polyline fill="none" opacity="1" stroke="#000000" stroke-width="1" points="724,62 724,67 "/>
<text x="813" y="58" dy="-0.5ex" text-anchor="middle" font-family="sans-serif" font-size="9.67741935483871" opacity="1" fill="#000000">
+8s
</text>
<polyline fill="none" opacity="1" stroke="#000000" stroke-width="1" points="813,62 813,67 "/>
<text x="902" y="58" dy="-0.5ex" text-anchor="middle" font-family="sans-serif" font-size="9.67741935483871" opacity="1" fill="#000000">
+9s
</text>
<polyline fill="none" opacity="1" stroke="#000000" stroke-width="1" points="902,62 902,67 "/>
<rect x="83" y="73" width="99" height="45" opacity="0.75" fill="#FFFFFF" stroke="none"/>
<rect x="83" y="73" width="99" height="45" opacity="1" fill="none" stroke="#000000"/>
<text x="123" y="83" dy="0.76em" text-anchor="start" font-family="sans-serif" font-size="9.67741935483871" opacity="1" fill="#000000">
Temporary
</text>
<text x="123" y="98" dy="0.76em" text-anchor="start" font-family="sans-serif" font-size="9.67741935483871" opacity="1" fill="#000000">
Leaked
</text>
<rect x="93" y="83" width="10" height="10" opacity="1" fill="#3CB44B" stroke="none"/>
<rect x="93" y="98" width="10" height="10" opacity="1" fill="#E6194B" stroke="none"/>
</svg>
