<svg width="1024" height="768" viewBox="0 0 1024 768" xmlns="http://www.w3.org/2000/svg">
<rect x="0" y="0" width="1023" height="767" opacity="1" fill="#FFFFFF" stroke="none"/>
<polygon opacity="1" fill="#E6194B" points="436,679 436,614 436,564 436,533 437,490 437,466 437,453 437,448 437,422 437,410 438,408 438,390 438,377 438,364 438,357 439,357 439,376 439,370 439,335 439,337 439,353 440,356 440,357 440,358 440,360 440,358 441,361 441,369 441,352 441,344 441,333 441,335 442,329 442,314 442,284 442,284 442,278 442,280 443,283 443,275 443,278 443,263 443,262 444,266 444,271 444,315 444,334 444,333 444,332 445,338 445,334 445,300 445,306 445,290 446,292 446,258 446,260 446,255 446,241 446,231 447,222 447,221 447,222 447,229 447,216 447,218 448,232 448,216 448,220 448,202 448,180 449,181 449,197 449,205 449,198 449,205 449,198 450,204 450,212 450,207 450,208 450,209 451,208 451,208 451,186 451,187 451,183 451,160 452,170 452,159 452,160 452,190 452,193 453,191 453,175 453,161 453,157 453,157 453,168 454,165 454,168 454,173 454,178 454,226 454,229 455,231 455,218 455,204 455,204 455,217 456,213 456,215 456,194 456,169 456,171 456,163 457,169 457,183 457,183 457,178 457,169 458,172 458,175 458,191 458,180 458,182 458,160 459,162 459,168 459,192 459,193 459,201 459,205 460,195 460,206 460,208 460,232 460,232 461,213 461,203 461,199 461,202 461,210 461,209 462,208 462,201 462,175 462,169 462,174 463,181 463,175 463,163 463,167 463,157 463,149 464,153 464,171 464,141 464,132 464,132 465,139 465,154 465,146 465,148 465,151 465,159 466,166 466,154 466,146 466,140 466,140 466,135 467,149 467,157 467,152 467,153 467,170 468,194 468,187 468,182 468,170 468,185 468,188 469,178 469,180 469,202 469,179 469,180 470,184 470,204 470,213 470,211 470,201 470,192 471,199 471,216 471,206 471,195 471,195 471,197 472,200 472,200 472,185 472,187 472,190 473,201 473,196 473,208 473,209 473,202 473,211 474,214 474,218 474,206 474,210 474,221 475,234 475,212 475,217 475,240 475,245 475,248 476,254 476,255 476,266 476,269 476,262 477,247 477,241 477,228 477,216 477,220 477,196 478,200 478,208 478,215 478,218 478,245 478,251 479,240 479,237 479,232 479,226 479,201 480,187 480,160 480,164 480,149 480,143 480,145 481,182 481,173 481,169 481,153 481,144 482,148 482,163 482,170 482,154 482,145 482,147 483,152 483,154 483,157 483,161 483,145 483,154 484,159 484,168 484,158 484,156 484,166 485,173 485,162 485,160 485,145 485,132 485,125 486,128 486,141 486,126 486,115 486,115 487,109 487,115 487,120 487,143 487,134 487,109 488,121 488,128 488,137 488,134 488,140 489,127 489,107 489,102 489,100 489,100 489,104 490,115 490,124 490,119 490,117 490,124 490,125 491,126 491,128 491,124 491,131 491,126 492,133 492,126 492,130 492,135 492,141 492,155 493,173 493,178 493,193 493,187 493,180 494,181 494,185 494,149 494,150 494,152 494,151 495,155 495,122 495,105 495,106 495,118 495,132 496,131 496,133 496,124 496,122 496,118 497,94 497,89 497,81 497,78 497,78 497,89 498,96 498,105 498,123 498,132 498,135 499,128 499,119 499,120 499,111 499,104 499,94 500,96 500,109 500,103 500,106 500,123 500,123 501,116 501,116 501,126 501,126 501,121 502,114 502,111 502,95 502,90 502,68 502,68 503,70 503,86 503,86 503,88 503,100 504,98 504,91 504,87 504,73 504,73 504,77 505,107 505,96 505,97 505,94 505,97 506,111 506,112 506,114 506,131 506,134 506,137 507,139 507,149 507,147 507,156 507,154 507,142 508,148 508,140 508,139 508,141 508,142 509,122 509,114 509,121 509,125 509,115 509,110 510,93 510,82 510,81 510,94 510,111 511,104 511,106 511,97 511,97 511,98 511,92 512,106 512,91 512,83 512,85 512,104 512,104 513,117 513,95 513,97 513,79 513,83 514,95 514,98 514,96 514,102 514,122 514,134 515,141 515,138 515,143 515,162 515,161 516,169 516,180 516,197 516,177 516,154 516,150 517,155 517,160 517,154 517,156 517,160 518,170 518,168 518,183 518,192 518,196 518,172 519,177 519,161 519,169 519,188 519,188 519,182 520,186 520,192 520,191 520,214 520,209 521,209 521,214 521,193 521,180 521,177 521,181 522,193 522,193 522,197 522,201 522,198 523,203 523,203 523,204 523,216 523,208 523,204 524,199 524,199 524,214 524,234 524,219 524,214 525,203 525,209 525,223 525,223 525,219 526,215 526,208 526,208 526,205 526,183 526,185 527,199 527,195 527,213 527,226 527,221 528,232 528,237 528,246 528,252 528,230 528,230 529,213 529,211 529,216 529,236 529,229 530,237 530,254 530,246 530,238 530,231 530,226 531,234 531,233 531,238 531,219 531,205 531,206 532,179 532,170 532,168 532,175 532,206 533,214 533,220 533,220 533,243 533,229 533,225 534,227 534,222 534,224 534,224 534,216 535,234 535,218 535,223 535,235 535,246 535,245 536,253 536,253 536,256 536,252 536,227 536,223 537,228 537,233 537,229 537,224 537,214 538,215 538,209 538,210 538,213 538,206 538,214 539,223 539,218 539,215 539,212 539,216 540,232 540,223 540,230 540,233 540,222 540,227 541,250 541,250 541,251 541,247 541,228 542,228 542,224 542,216 542,214 542,208 542,199 543,205 543,205 543,195 543,196 543,192 543,195 544,179 544,189 544,189 544,208 544,208 545,221 545,237 545,260 545,264 545,266 545,246 546,247 546,249 546,236 546,245 546,224 547,219 547,209 547,209 547,198 547,214 547,220 548,216 548,196 548,197 548,201 548,199 548,203 549,215 549,214 549,226 549,226 549,233 550,235 550,239 550,226 550,210 550,196 550,191 551,188 551,171 551,169 551,173 551,177 552,166 552,185 552,186 552,203 552,208 552,226 553,225 553,231 553,230 553,245 553,241 554,236 554,227 554,221 554,204 554,196 554,206 555,207 555,220 555,217 555,197 555,195 555,192 556,190 556,190 556,187 556,192 556,183 557,177 557,177 557,180 557,190 557,194 557,198 558,193 558,209 558,187 558,172 558,162 559,151 559,132 559,135 559,147 559,178 559,185 560,169 560,169 560,170 560,166 560,196 560,210 561,229 561,232 561,239 561,239 561,233 562,211 562,214 562,212 562,213 562,215 562,214 563,204 563,205 563,207 563,210 563,207 564,195 564,197 564,197 564,184 564,205 564,205 565,197 565,199 565,199 565,212 565,217 566,218 566,229 566,233 566,235 566,231 566,231 567,224 567,219 567,215 567,201 567,198 567,215 568,211 568,186 568,179 568,184 568,205 569,210 569,215 569,209 569,198 569,198 569,189 570,186 570,198 570,206 570,215 570,231 571,222 571,218 571,233 571,225 571,226 571,227 572,229 572,241 572,214 572,205 572,189 572,188 573,187 573,194 573,200 573,215 573,202 574,196 574,201 574,210 574,206 574,211 574,206 575,202 575,201 575,194 575,191 575,194 576,200 576,209 576,196 576,197 576,231 576,231 577,232 577,237 577,234 577,236 577,243 577,237 578,239 578,227 578,227 578,236 578,244 579,244 579,238 579,247 579,246 579,248 579,252 580,260 580,252 580,235 580,231 580,256 581,255 581,259 581,269 581,273 581,258 581,253 582,247 582,251 582,255 582,268 582,284 583,275 583,280 583,314 583,331 583,332 583,335 584,337 584,342 584,349 584,338 584,333 584,340 585,321 585,320 585,315 585,315 585,314 586,317 586,308 586,306 586,313 586,320 586,309 587,301 587,281 587,281 587,274 587,279 588,315 588,322 588,328 588,343 588,340 588,347 589,342 589,334 589,328 589,308 589,292 589,300 590,293 590,296 590,307 590,318 590,319 591,322 591,306 591,311 591,323 591,319 591,311 592,315 592,298 592,295 592,299 592,299 593,301 593,306 593,314 593,318 593,319 593,322 594,335 594,359 594,371 594,379 594,371 595,356 595,350 595,347 595,348 595,337 595,360 596,348 596,348 596,356 596,345 596,348 596,351 597,351 597,350 597,354 597,351 597,352 598,362 598,376 598,363 598,356 598,356 598,365 599,347 599,337 599,328 599,334 599,327 600,330 600,329 600,334 600,328 600,314 600,308 601,310 601,317 601,331 601,323 601,345 601,334 602,330 602,297 602,293 602,293 602,318 603,331 603,323 603,325 603,353 603,339 603,345 604,358 604,354 604,347 604,346 604,336 605,321 605,328 605,327 605,330 605,340 605,343 606,347 606,332 606,335 606,323 606,322 607,332 607,344 607,345 607,349 607,349 607,338 608,342 608,371 608,375 608,375 608,384 608,384 609,373 609,376 609,374 609,351 609,349 610,353 610,363 610,361 610,346 610,346 610,352 611,352 611,357 611,368 611,382 611,377 612,381 612,391 612,396 612,390 612,402 612,389 613,400 613,404 613,422 613,437 613,438 613,437 614,458 614,466 614,492 614,519 614,554 615,576 615,608 615,647 615,699 974,699 974,699 436,699 "/>
<polyline fill="none" opacity="1" stroke="#E6194B" stroke-width="1" points="436,679 436,614 436,564 436,533 437,490 437,466 437,453 437,448 437,422 437,410 438,408 438,390 438,377 438,364 438,357 439,357 439,376 439,370 439,335 439,337 439,353 440,356 440,357 440,358 440,360 440,358 441,361 441,369 441,352 441,344 441,333 441,335 442,329 442,314 442,284 442,284 442,278 442,280 443,283 443,275 443,278 443,263 443,262 444,266 444,271 444,315 444,334 444,333 444,332 445,338 445,334 445,300 445,306 445,290 446,292 446,258 446,260 446,255 446,241 446,231 447,222 447,221 447,222 447,229 447,216 447,218 448,232 448,216 448,220 448,202 448,180 449,181 449,197 449,205 449,198 449,205 449,198 450,204 450,212 450,207 450,208 450,209 451,208 451,208 451,186 451,187 451,183 451,160 452,170 452,159 452,160 452,190 452,193 453,191 453,175 453,161 453,157 453,157 453,168 454,165 454,168 454,173 454,178 454,226 454,229 455,231 455,218 455,204 455,204 455,217 456,213 456,215 456,194 456,169 456,171 456,163 457,169 457,183 457,183 457,178 457,169 458,172 458,175 458,191 458,180 458,182 458,160 459,162 459,168 459,192 459,193 459,201 459,205 460,195 460,206 460,208 460,232 460,232 461,213 461,203 461,199 461,202 461,210 461,209 462,208 462,201 462,175 462,169 462,174 463,181 463,175 463,163 463,167 463,157 463,149 464,153 464,171 464,141 464,132 464,132 465,139 465,154 465,146 465,148 465,151 465,159 466,166 466,154 466,146 466,140 466,140 466,135 467,149 467,157 467,152 467,153 467,170 468,194 468,187 468,182 468,170 468,185 468,188 469,178 469,180 469,202 469,179 469,180 470,184 470,204 470,213 470,211 470,201 470,192 471,199 471,216 471,206 471,195 471,195 471,197 472,200 472,200 472,185 472,187 472,190 473,201 473,196 473,208 473,209 473,202 473,211 474,214 474,218 474,206 474,210 474,221 475,234 475,212 475,217 475,240 475,245 475,248 476,254 476,255 476,266 476,269 476,262 477,247 477,241 477,228 477,216 477,220 477,196 478,200 478,208 478,215 478,218 478,245 478,251 479,240 479,237 479,232 479,226 479,201 480,187 480,160 480,164 480,149 480,143 480,145 481,182 481,173 481,169 481,153 481,144 482,148 482,163 482,170 482,154 482,145 482,147 483,152 483,154 483,157 483,161 483,145 483,154 484,159 484,168 484,158 484,156 484,166 485,173 485,162 485,160 485,145 485,132 485,125 486,128 486,141 486,126 486,115 486,115 487,109 487,115 487,120 487,143 487,134 487,109 488,121 488,128 488,137 488,134 488,140 489,127 489,107 489,102 489,100 489,100 489,104 490,115 490,124 490,119 490,117 490,124 490,125 491,126 491,128 491,124 491,131 491,126 492,133 492,126 492,130 492,135 492,141 492,155 493,173 493,178 493,193 493,187 493,180 494,181 494,185 494,149 494,150 494,152 494,151 495,155 495,122 495,105 495,106 495,118 495,132 496,131 496,133 496,124 496,122 496,118 497,94 497,89 497,81 497,78 497,78 497,89 498,96 498,105 498,123 498,132 498,135 499,128 499,119 499,120 499,111 499,104 499,94 500,96 500,109 500,103 500,106 500,123 500,123 501,116 501,116 501,126 501,126 501,121 502,114 502,111 502,95 502,90 502,68 502,68 503,70 503,86 503,86 503,88 503,100 504,98 504,91 504,87 504,73 504,73 504,77 505,107 505,96 505,97 505,94 505,97 506,111 506,112 506,114 506,131 506,134 506,137 507,139 507,149 507,147 507,156 507,154 507,142 508,148 508,140 508,139 508,141 508,142 509,122 509,114 509,121 509,125 509,115 509,110 510,93 510,82 510,81 510,94 510,111 511,104 511,106 511,97 511,97 511,98 511,92 512,106 512,91 512,83 512,85 512,104 512,104 513,117 513,95 513,97 513,79 513,83 514,95 514,98 514,96 514,102 514,122 514,134 515,141 515,138 515,143 515,162 515,161 516,169 516,180 516,197 516,177 516,154 516,150 517,155 517,160 517,154 517,156 517,160 518,170 518,168 518,183 518,192 518,196 518,172 519,177 519,161 519,169 519,188 519,188 519,182 520,186 520,192 520,191 520,214 520,209 521,209 521,214 521,193 521,180 521,177 521,181 522,193 522,193 522,197 522,201 522,198 523,203 523,203 523,204 523,216 523,208 523,204 524,199 524,199 524,214 524,234 524,219 524,214 525,203 525,209 525,223 525,223 525,219 526,215 526,208 526,208 526,205 526,183 526,185 527,199 527,195 527,213 527,226 527,221 528,232 528,237 528,246 528,252 528,230 528,230 529,213 529,211 529,216 529,236 529,229 530,237 530,254 530,246 530,238 530,231 530,226 531,234 531,233 531,238 531,219 531,205 531,206 532,179 532,170 532,168 532,175 532,206 533,214 533,220 533,220 533,243 533,229 533,225 534,227 534,222 534,224 534,224 534,216 535,234 535,218 535,223 535,235 535,246 535,245 536,253 536,253 536,256 536,252 536,227 536,223 537,228 537,233 537,229 537,224 537,214 538,215 538,209 538,210 538,213 538,206 538,214 539,223 539,218 539,215 539,212 539,216 540,232 540,223 540,230 540,233 540,222 540,227 541,250 541,250 541,251 541,247 541,228 542,228 542,224 542,216 542,214 542,208 542,199 543,205 543,205 543,195 543,196 543,192 543,195 544,179 544,189 544,189 544,208 544,208 545,221 545,237 545,260 545,264 545,266 545,246 546,247 546,249 546,236 546,245 546,224 547,219 547,209 547,209 547,198 547,214 547,220 548,216 548,196 548,197 548,201 548,199 548,203 549,215 549,214 549,226 549,226 549,233 550,235 550,239 550,226 550,210 550,196 550,191 551,188 551,171 551,169 551,173 551,177 552,166 552,185 552,186 552,203 552,208 552,226 553,225 553,231 553,230 553,245 553,241 554,236 554,227 554,221 554,204 554,196 554,206 555,207 555,220 555,217 555,197 555,195 555,192 556,190 556,190 556,187 556,192 556,183 557,177 557,177 557,180 557,190 557,194 557,198 558,193 558,209 558,187 558,172 558,162 559,151 559,132 559,135 559,147 559,178 559,185 560,169 560,169 560,170 560,166 560,196 560,210 561,229 561,232 561,239 561,239 561,233 562,211 562,214 562,212 562,213 562,215 562,214 563,204 563,205 563,207 563,210 563,207 564,195 564,197 564,197 564,184 564,205 564,205 565,197 565,199 565,199 565,212 565,217 566,218 566,229 566,233 566,235 566,231 566,231 567,224 567,219 567,215 567,201 567,198 567,215 568,211 568,186 568,179 568,184 568,205 569,210 569,215 569,209 569,198 569,198 569,189 570,186 570,198 570,206 570,215 570,231 571,222 571,218 571,233 571,225 571,226 571,227 572,229 572,241 572,214 572,205 572,189 572,188 573,187 573,194 573,200 573,215 573,202 574,196 574,201 574,210 574,206 574,211 574,206 575,202 575,201 575,194 575,191 575,194 576,200 576,209 576,196 576,197 576,231 576,231 577,232 577,237 577,234 577,236 577,243 577,237 578,239 578,227 578,227 578,236 578,244 579,244 579,238 579,247 579,246 579,248 579,252 580,260 580,252 580,235 580,231 580,256 581,255 581,259 581,269 581,273 581,258 581,253 582,247 582,251 582,255 582,268 582,284 583,275 583,280 583,314 583,331 583,332 583,335 584,337 584,342 584,349 584,338 584,333 584,340 585,321 585,320 585,315 585,315 585,314 586,317 586,308 586,306 586,313 586,320 586,309 587,301 587,281 587,281 587,274 587,279 588,315 588,322 588,328 588,343 588,340 588,347 589,342 589,334 589,328 589,308 589,292 589,300 590,293 590,296 590,307 590,318 590,319 591,322 591,306 591,311 591,323 591,319 591,311 592,315 592,298 592,295 592,299 592,299 593,301 593,306 593,314 593,318 593,319 593,322 594,335 594,359 594,371 594,379 594,371 595,356 595,350 595,347 595,348 595,337 595,360 596,348 596,348 596,356 596,345 596,348 596,351 597,351 597,350 597,354 597,351 597,352 598,362 598,376 598,363 598,356 598,356 598,365 599,347 599,337 599,328 599,334 599,327 600,330 600,329 600,334 600,328 600,314 600,308 601,310 601,317 601,331 601,323 601,345 601,334 602,330 602,297 602,293 602,293 602,318 603,331 603,323 603,325 603,353 603,339 603,345 604,358 604,354 604,347 604,346 604,336 605,321 605,328 605,327 605,330 605,340 605,343 606,347 606,332 606,335 606,323 606,322 607,332 607,344 607,345 607,349 607,349 607,338 608,342 608,371 608,375 608,375 608,384 608,384 609,373 609,376 609,374 609,351 609,349 610,353 610,363 610,361 610,346 610,346 610,352 611,352 611,357 611,368 611,382 611,377 612,381 612,391 612,396 612,390 612,402 612,389 613,400 613,404 613,422 613,437 613,438 613,437 614,458 614,466 614,492 614,519 614,554 615,576 615,608 615,647 615,699 974,699 "/>
<line opacity="0.1" stroke="#000000" stroke-width="1" x1="85" y1="699" x2="85" y2="67"/>
<line opacity="0.1" stroke="#000000" stroke-width="1" x1="103" y1="699" x2="103" y2="67"/>
<line opacity="0.1" stroke="#000000" stroke-width="1" x1="121" y1="699" x2="121" y2="67"/>
<line opacity="0.1" stroke="#000000" stroke-width="1" x1="139" y1="699" x2="139" y2="67"/>
<line opacity="0.1" stroke="#000000" stroke-width="1" x1="157" y1="699" x2="157" y2="67"/>
<line opacity="0.1" stroke="#000000" stroke-width="1" x1="174" y1="699" x2="174" y2="67"/>
<line opacity="0.1" stroke="#000000" stroke-width="1" x1="192" y1="699" x2="192" y2="67"/>
<line opacity="0.1" stroke="#000000" stroke-width="1" x1="210" y1="699" x2="210" y2="67"/>
<line opacity="0.1" stroke="#000000" stroke-width="1" x1="228" y1="699" x2="228" y2="67"/>
<line opacity="0.1" stroke="#000000" stroke-width="1" x1="246" y1="699" x2="246" y2="67"/>
<line opacity="0.1" stroke="#000000" stroke-width="1" x1="264" y1="699" x2="264" y2="67"/>
<line opacity="0.1" stroke="#000000" stroke-width="1" x1="282" y1="699" x2="282" y2="67"/>
<line opacity="0.1" stroke="#000000" stroke-width="1" x1="300" y1="699" x2="300" y2="67"/>
<line opacity="0.1" stroke="#000000" stroke-width="1" x1="318" y1="699" x2="318" y2="67"/>
<line opacity="0.1" stroke="#000000" stroke-width="1" x1="336" y1="699" x2="336" y2="67"/>
<line opacity="0.1" stroke="#000000" stroke-width="1" x1="354" y1="699" x2="354" y2="67"/>
<line opacity="0.1" stroke="#000000" stroke-width="1" x1="372" y1="699" x2="372" y2="67"/>
<line opacity="0.1" stroke="#000000" stroke-width="1" x1="389" y1="699" x2="389" y2="67"/>
<line opacity="0.1" stroke="#000000" stroke-width="1" x1="407" y1="699" x2="407" y2="67"/>
<line opacity="0.1" stroke="#000000" stroke-width="1" x1="425" y1="699" x2="425" y2="67"/>
<line opacity="0.1" stroke="#000000" stroke-width="1" x1="443" y1="699" x2="443" y2="67"/>
<line opacity="0.1" stroke="#000000" stroke-width="1" x1="461" y1="699" x2="461" y2="67"/>
<line opacity="0.1" stroke="#000000" stroke-width="1" x1="479" y1="699" x2="479" y2="67"/>
<line opacity="0.1" stroke="#000000" stroke-width="1" x1="497" y1="699" x2="497" y2="67"/>
<line opacity="0.1" stroke="#000000" stroke-width="1" x1="515" y1="699" x2="515" y2="67"/>
<line opacity="0.1" stroke="#000000" stroke-width="1" x1="533" y1="699" x2="533" y2="67"/>
<line opacity="0.1" stroke="#000000" stroke-width="1" x1="551" y1="699" x2="551" y2="67"/>
<line opacity="0.1" stroke="#000000" stroke-width="1" x1="569" y1="699" x2="569" y2="67"/>
<line opacity="0.1" stroke="#000000" stroke-width="1" x1="587" y1="699" x2="587" y2="67"/>
<line opacity="0.1" stroke="#000000" stroke-width="1" x1="604" y1="699" x2="604" y2="67"/>
<line opacity="0.1" stroke="#000000" stroke-width="1" x1="622" y1="699" x2="622" y2="67"/>
<line opacity="0.1" stroke="#000000" stroke-width="1" x1="640" y1="699" x2="640" y2="67"/>
<line opacity="0.1" stroke="#000000" stroke-width="1" x1="658" y1="699" x2="658" y2="67"/>
<line opacity="0.1" stroke="#000000" stroke-width="1" x1="676" y1="699" x2="676" y2="67"/>
<line opacity="0.1" stroke="#000000" stroke-width="1" x1="694" y1="699" x2="694" y2="67"/>
<line opacity="0.1" stroke="#000000" stroke-width="1" x1="712" y1="699" x2="712" y2="67"/>
<line opacity="0.1" stroke="#000000" stroke-width="1" x1="730" y1="699" x2="730" y2="67"/>
<line opacity="0.1" stroke="#000000" stroke-width="1" x1="748" y1="699" x2="748" y2="67"/>
<line opacity="0.1" stroke="#000000" stroke-width="1" x1="766" y1="699" x2="766" y2="67"/>
<line opacity="0.1" stroke="#000000" stroke-width="1" x1="784" y1="699" x2="784" y2="67"/>
<line opacity="0.1" stroke="#000000" stroke-width="1" x1="802" y1="699" x2="802" y2="67"/>
<line opacity="0.1" stroke="#000000" stroke-width="1" x1="819" y1="699" x2="819" y2="67"/>
<line opacity="0.1" stroke="#000000" stroke-width="1" x1="837" y1="699" x2="837" y2="67"/>
<line opacity="0.1" stroke="#000000" stroke-width="1" x1="855" y1="699" x2="855" y2="67"/>
<line opacity="0.1" stroke="#000000" stroke-width="1" x1="873" y1="699" x2="873" y2="67"/>
<line opacity="0.1" stroke="#000000" stroke-width="1" x1="891" y1="699" x2="891" y2="67"/>
<line opacity="0.1" stroke="#000000" stroke-width="1" x1="909" y1="699" x2="909" y2="67"/>
<line opacity="0.1" stroke="#000000" stroke-width="1" x1="927" y1="699" x2="927" y2="67"/>
<line opacity="0.1" stroke="#000000" stroke-width="1" x1="945" y1="699" x2="945" y2="67"/>
<line opacity="0.1" stroke="#000000" stroke-width="1" x1="963" y1="699" x2="963" y2="67"/>
<line opacity="0.1" stroke="#000000" stroke-width="1" x1="78" y1="699" x2="974" y2="699"/>
<line opacity="0.1" stroke="#000000" stroke-width="1" x1="78" y1="686" x2="974" y2="686"/>
<line opacity="0.1" stroke="#000000" stroke-width="1" x1="78" y1="674" x2="974" y2="674"/>
<line opacity="0.1" stroke="#000000" stroke-width="1" x1="78" y1="662" x2="974" y2="662"/>
<line opacity="0.1" stroke="#000000" stroke-width="1" x1="78" y1="649" x2="974" y2="649"/>
<line opacity="0.1" stroke="#000000" stroke-width="1" x1="78" y1="637" x2="974" y2="637"/>
<line opacity="0.1" stroke="#000000" stroke-width="1" x1="78" y1="625" x2="974" y2="625"/>
<line opacity="0.1" stroke="#000000" stroke-width="1" x1="78" y1="613" x2="974" y2="613"/>
<line opacity="0.1" stroke="#000000" stroke-width="1" x1="78" y1="600" x2="974" y2="600"/>
<line opacity="0.1" stroke="#000000" stroke-width="1" x1="78" y1="588" x2="974" y2="588"/>
<line opacity="0.1" stroke="#000000" stroke-width="1" x1="78" y1="576" x2="974" y2="576"/>
<line opacity="0.1" stroke="#000000" stroke-width="1" x1="78" y1="564" x2="974" y2="564"/>
<line opacity="0.1" stroke="#000000" stroke-width="1" x1="78" y1="551" x2="974" y2="551"/>
<line opacity="0.1" stroke="#000000" stroke-width="1" x1="78" y1="539" x2="974" y2="539"/>
<line opacity="0.1" stroke="#000000" stroke-width="1" x1="78" y1="527" x2="974" y2="527"/>
<line opacity="0.1" stroke="#000000" stroke-width="1" x1="78" y1="515" x2="974" y2="515"/>
<line opacity="0.1" stroke="#000000" stroke-width="1" x1="78" y1="502" x2="974" y2="502"/>
<line opacity="0.1" stroke="#000000" stroke-width="1" x1="78" y1="490" x2="974" y2="490"/>
<line opacity="0.1" stroke="#000000" stroke-width="1" x1="78" y1="478" x2="974" y2="478"/>
<line opacity="0.1" stroke="#000000" stroke-width="1" x1="78" y1="466" x2="974" y2="466"/>
<line opacity="0.1" stroke="#000000" stroke-width="1" x1="78" y1="453" x2="974" y2="453"/>
<line opacity="0.1" stroke="#000000" stroke-width="1" x1="78" y1="441" x2="974" y2="441"/>
<line opacity="0.1" stroke="#000000" stroke-width="1" x1="78" y1="429" x2="974" y2="429"/>
<line opacity="0.1" stroke="#000000" stroke-width="1" x1="78" y1="417" x2="974" y2="417"/>
<line opacity="0.1" stroke="#000000" stroke-width="1" x1="78" y1="404" x2="974" y2="404"/>
<line opacity="0.1" stroke="#000000" stroke-width="1" x1="78" y1="392" x2="974" y2="392"/>
<line opacity="0.1" stroke="#000000" stroke-width="1" x1="78" y1="380" x2="974" y2="380"/>
<line opacity="0.1" stroke="#000000" stroke-width="1" x1="78" y1="368" x2="974" y2="368"/>
<line opacity="0.1" stroke="#000000" stroke-width="1" x1="78" y1="355" x2="974" y2="355"/>
<line opacity="0.1" stroke="#000000" stroke-width="1" x1="78" y1="343" x2="974" y2="343"/>
<line opacity="0.1" stroke="#000000" stroke-width="1" x1="78" y1="331" x2="974" y2="331"/>
<line opacity="0.1" stroke="#000000" stroke-width="1" x1="78" y1="319" x2="974" y2="319"/>
<line opacity="0.1" stroke="#000000" stroke-width="1" x1="78" y1="306" x2="974" y2="306"/>
<line opacity="0.1" stroke="#000000" stroke-width="1" x1="78" y1="294" x2="974" y2="294"/>
<line opacity="0.1" stroke="#000000" stroke-width="1" x1="78" y1="282" x2="974" y2="282"/>
<line opacity="0.1" stroke="#000000" stroke-width="1" x1="78" y1="270" x2="974" y2="270"/>
<line opacity="0.1" stroke="#000000" stroke-width="1" x1="78" y1="257" x2="974" y2="257"/>
<line opacity="0.1" stroke="#000000" stroke-width="1" x1="78" y1="245" x2="974" y2="245"/>
<line opacity="0.1" stroke="#000000" stroke-width="1" x1="78" y1="233" x2="974" y2="233"/>
<line opacity="0.1" stroke="#000000" stroke-width="1" x1="78" y1="221" x2="974" y2="221"/>
<line opacity="0.1" stroke="#000000" stroke-width="1" x1="78" y1="208" x2="974" y2="208"/>
<line opacity="0.1" stroke="#000000" stroke-width="1" x1="78" y1="196" x2="974" y2="196"/>
<line opacity="0.1" stroke="#000000" stroke-width="1" x1="78" y1="184" x2="974" y2="184"/>
<line opacity="0.1" stroke="#000000" stroke-width="1" x1="78" y1="172" x2="974" y2="172"/>
<line opacity="0.1" stroke="#000000" stroke-width="1" x1="78" y1="159" x2="974" y2="159"/>
<line opacity="0.1" stroke="#000000" stroke-width="1" x1="78" y1="147" x2="974" y2="147"/>
<line opacity="0.1" stroke="#000000" stroke-width="1" x1="78" y1="135" x2="974" y2="135"/>
<line opacity="0.1" stroke="#000000" stroke-width="1" x1="78" y1="123" x2="974" y2="123"/>
<line opacity="0.1" stroke="#000000" stroke-width="1" x1="78" y1="110" x2="974" y2="110"/>
<line opacity="0.1" stroke="#000000" stroke-width="1" x1="78" y1="98" x2="974" y2="98"/>
<line opacity="0.1" stroke="#000000" stroke-width="1" x1="78" y1="86" x2="974" y2="86"/>
<line opacity="0.1" stroke="#000000" stroke-width="1" x1="78" y1="74" x2="974" y2="74"/>
<text x="8" y="384" dy="0.76em" text-anchor="middle" font-family="sans-serif" font-size="9.67741935483871" opacity="1" fill="#000000" transform="rotate(270, 8, 384)">
Memory usage
</text>
<text x="526" y="760" dy="-0.5ex" text-anchor="middle" font-family="sans-serif" font-size="9.67741935483871" opacity="1" fill="#000000">
Time
</text>
<line opacity="0.2" stroke="#000000" stroke-width="1" x1="192" y1="699" x2="192" y2="67"/>
<line opacity="0.2" stroke="#000000" stroke-width="1" x1="372" y1="699" x2="372" y2="67"/>
<line opacity="0.2" stroke="#000000" stroke-width="1" x1="551" y1="699" x2="551" y2="67"/>
<line opacity="0.2" stroke="#000000" stroke-width="1" x1="730" y1="699" x2="730" y2="67"/>
<line opacity="0.2" stroke="#000000" stroke-width="1" x1="909" y1="699" x2="909" y2="67"/>
<line opacity="0.2" stroke="#000000" stroke-width="1" x1="78" y1="699" x2="974" y2="699"/>
<line opacity="0.2" stroke="#000000" stroke-width="1" x1="78" y1="576" x2="974" y2="576"/>
<line opacity="0.2" stroke="#000000" stroke-width="1" x1="78" y1="453" x2="974" y2="453"/>
<line opacity="0.2" stroke="#000000" stroke-width="1" x1="78" y1="331" x2="974" y2="331"/>
<line opacity="0.2" stroke="#000000" stroke-width="1" x1="78" y1="208" x2="974" y2="208"/>
<line opacity="0.2" stroke="#000000" stroke-width="1" x1="78" y1="86" x2="974" y2="86"/>
<polyline fill="none" opacity="1" stroke="#000000" stroke-width="1" points="77,68 77,700 "/>
<text x="68" y="699" dy="0.5ex" text-anchor="end" font-family="sans-serif" font-size="9.67741935483871" opacity="1" fill="#000000">
0 KB
</text>
<polyline fill="none" opacity="1" stroke="#000000" stroke-width="1" points="72,699 77,699 "/>
<text x="68" y="576" dy="0.5ex" text-anchor="end" font-family="sans-serif" font-size="9.67741935483871" opacity="1" fill="#000000">
48 KB
</text>
<polyline fill="none" opacity="1" stroke="#000000" stroke-width="1" points="72,576 77,576 "/>
<text x="68" y="453" dy="0.5ex" text-anchor="end" font-family="sans-serif" font-size="9.67741935483871" opacity="1" fill="#000000">
97 KB
</text>
<polyline fill="none" opacity="1" stroke="#000000" stroke-width="1" points="72,453 77,453 "/>
<text x="68" y="331" dy="0.5ex" text-anchor="end" font-family="sans-serif" font-size="9.67741935483871" opacity="1" fill="#000000">
146 KB
</text>
<polyline fill="none" opacity="1" stroke="#000000" stroke-width="1" points="72,331 77,331 "/>
<text x="68" y="208" dy="0.5ex" text-anchor="end" font-family="sans-serif" font-size="9.67741935483871" opacity="1" fill="#000000">
195 KB
</text>
<polyline fill="none" opacity="1" stroke="#000000" stroke-width="1" points="72,208 77,208 "/>
<text x="68" y="86" dy="0.5ex" text-anchor="end" font-family="sans-serif" font-size="9.67741935483871" opacity="1" fill="#000000">
244 KB
</text>
<polyline fill="none" opacity="1" stroke="#000000" stroke-width="1" points="72,86 77,86 "/>
<polyline fill="none" opacity="1" stroke="#000000" stroke-width="1" points="78,700 974,700 "/>
<text x="192" y="710" dy="0.76em" text-anchor="middle" font-family="sans-serif" font-size="9.67741935483871" opacity="1" fill="#000000">
06:26:08
</text>
<polyline fill="none" opacity="1" stroke="#000000" stroke-width="1" points="192,700 192,705 "/>
<text x="372" y="710" dy="0.76em" text-anchor="middle" font-family="sans-serif" font-size="9.67741935483871" opacity="1" fill="#000000">
06:26:10
</text>
<polyline fill="none" opacity="1" stroke="#000000" stroke-width="1" points="372,700 372,705 "/>
<text x="551" y="710" dy="0.76em" text-anchor="middle" font-family="sans-serif" font-size="9.67741935483871" opacity="1" fill="#000000">
06:26:12
</text>
<polyline fill="none" opacity="1" stroke="#000000" stroke-width="1" points="551,700 551,705 "/>
<text x="730" y="710" dy="0.76em" text-anchor="middle" font-family="sans-serif" font-size="9.67741935483871" opacity="1" fill="#000000">
06:26:14
</text>
<polyline fill="none" opacity="1" stroke="#000000" stroke-width="1" points="730,700 730,705 "/>
<text x="909" y="710" dy="0.76em" text-anchor="middle" font-family="sans-serif" font-size="9.67741935483871" opacity="1" fill="#000000">
06:26:16
</text>
<polyline fill="none" opacity="1" stroke="#000000" stroke-width="1" points="909,700 909,705 "/>
<polyline fill="none" opacity="1" stroke="#000000" stroke-width="1" points="78,67 974,67 "/>
<text x="192" y="58" dy="-0.5ex" text-anchor="middle" font-family="sans-serif" font-size="9.67741935483871" opacity="1" fill="#000000">
+1s
</text>
<polyline fill="none" opacity="1" stroke="#000000" stroke-width="1" points="192,62 192,67 "/>
<text x="372" y="58" dy="-0.5ex" text-anchor="middle" font-family="sans-serif" font-size="9.67741935483871" opacity="1" fill="#000000">
+3s
</text>
<polyline fill="none" opacity="1" stroke="#000000" stroke-width="1" points="372,62 372,67 "/>
<text x="551" y="58" dy="-0.5ex" text-anchor="middle" font-family="sans-serif" font-size="9.67741935483871" opacity="1" fill="#000000">
+5s
</text>
<polyline fill="none" opacity="1" stroke="#000000" stroke-width="1" points="551,62 551,67 "/>
<text x="730" y="58" dy="-0.5ex" text-anchor="middle" font-family="sans-serif" font-size="9.67741935483871" opacity="1" fill="#000000">
+7s
</text>
<polyline fill="none" opacity="1" stroke="#000000" stroke-width="1" points="730,62 730,67 "/>
<text x="909" y="58" dy="-0.5ex" text-anchor="middle" font-family="sans-serif" font-size="9.67741935483871" opacity="1" fill="#000000">
+9s
</text>
<polyline fill="none" opacity="1" stroke="#000000" stroke-width="1" points="909,62 909,67 "/>
</svg>
