<svg width="1024" height="768" viewBox="0 0 1024 768" xmlns="http://www.w3.org/2000/svg">
<rect x="0" y="0" width="1024" height="768" opacity="1" fill="#FFFFFF" stroke="none"/>
<polygon opacity="1" fill="#3CB44B" points="973,699 973,699 973,699 "/>
<polyline fill="none" opacity="1" stroke="#3CB44B" stroke-width="1" points="973,699 "/>
<polygon opacity="1" fill="#E6194B" points="84,697 85,697 86,696 87,696 88,695 89,694 90,693 90,692 91,692 92,692 93,692 94,691 95,690 96,690 97,690 98,688 98,687 99,687 100,686 101,685 102,684 103,684 104,683 105,682 106,682 106,682 107,681 108,681 109,681 110,681 111,680 112,680 113,678 114,678 114,677 115,677 116,677 117,677 118,676 119,676 120,676 121,675 122,675 122,675 123,674 124,673 125,672 126,672 127,671 128,671 129,670 130,670 130,669 131,668 132,667 133,667 134,667 135,667 136,667 137,666 137,664 138,662 139,662 140,661 141,661 142,661 143,660 144,659 145,658 145,658 146,657 147,657 148,656 149,656 150,656 151,656 152,655 153,655 153,654 154,652 155,652 156,651 157,651 158,650 159,650 160,649 161,649 161,649 162,648 163,647 164,647 165,646 166,645 167,645 168,645 169,645 169,644 170,644 171,644 172,643 173,643 174,643 175,642 176,642 177,641 177,641 178,641 179,641 180,641 181,641 182,640 183,639 184,638 185,638 185,638 186,638 187,637 188,636 189,636 190,635 191,635 192,634 193,634 193,633 194,632 195,631 196,630 197,629 198,629 199,628 200,627 201,626 201,625 202,625 203,624 204,623 205,623 206,623 207,621 208,621 209,620 209,619 210,619 211,619 212,619 213,619 214,619 215,619 216,618 217,618 217,616 218,616 219,615 220,613 221,613 222,611 223,611 224,609 225,609 225,609 226,609 227,608 228,608 229,608 230,608 231,606 232,606 233,606 233,606 234,606 235,605 236,605 237,604 238,604 239,603 240,602 240,601 241,601 242,601 243,601 244,600 245,599 246,599 247,598 248,597 248,597 249,596 250,596 251,595 252,595 253,595 254,595 255,595 256,594 256,594 257,594 258,592 259,592 260,591 261,590 262,590 263,590 264,589 264,587 265,587 266,587 267,585 268,585 269,585 270,584 271,584 272,583 272,582 273,582 274,582 275,582 276,581 277,581 278,580 279,580 280,580 280,579 281,579 282,579 283,578 284,577 285,577 286,576 287,576 288,576 288,576 289,574 290,573 291,573 292,571 293,571 294,570 295,569 296,568 296,567 297,567 298,567 299,566 300,565 301,565 302,565 303,564 304,564 304,563 305,563 306,562 307,562 308,561 309,560 310,560 311,560 312,560 312,560 313,559 314,558 315,558 316,558 317,558 318,556 319,556 320,555 320,555 321,555 322,555 323,553 324,553 325,552 326,551 327,551 328,550 328,550 329,550 330,549 331,549 332,549 333,549 334,549 335,548 336,548 336,548 337,547 338,547 339,546 340,546 341,545 342,544 343,544 343,543 344,543 345,542 346,542 347,541 348,540 349,540 350,538 351,536 351,536 352,535 353,535 354,535 355,534 356,534 357,534 358,534 359,532 359,532 360,532 361,532 362,532 363,531 364,530 365,530 366,530 367,530 367,529 368,529 369,527 370,527 371,527 372,526 373,526 374,525 375,524 375,523 376,523 377,523 378,523 379,522 380,522 381,521 382,520 383,520 383,519 384,519 385,519 386,518 387,518 388,517 389,517 390,516 391,516 391,515 392,515 393,515 394,514 395,513 396,513 397,512 398,512 399,512 399,512 400,512 401,510 402,509 403,508 404,507 405,506 406,506 407,506 407,506 408,504 409,503 410,502 411,500 412,499 413,499 414,498 415,498 415,498 416,497 417,496 418,496 419,495 420,495 421,494 422,494 423,494 423,492 424,491 425,490 426,490 427,489 428,489 429,488 430,487 431,487 431,486 432,486 433,486 434,485 435,485 436,484 437,484 438,482 439,481 439,481 440,480 441,479 442,477 443,477 444,476 445,475 446,475 447,473 447,472 448,472 449,471 450,469 451,468 452,467 453,466 454,463 454,461 455,461 456,460 457,459 458,456 459,455 460,454 461,453 462,452 462,450 463,449 464,449 465,448 466,448 467,446 468,445 469,445 470,445 470,444 471,443 472,442 473,440 474,438 475,438 476,437 477,436 478,434 478,434 479,432 480,432 481,431 482,430 483,430 484,428 485,427 486,427 486,425 487,425 488,424 489,424 490,424 491,422 492,421 493,421 494,420 494,420 495,419 496,419 497,418 498,417 499,416 500,415 501,414 502,414 502,413 503,411 504,410 505,409 506,408 507,408 508,406 509,406 510,405 510,404 511,404 512,402 513,401 514,400 515,400 516,399 517,398 518,398 518,397 519,396 520,395 521,395 522,395 523,393 524,391 525,390 526,390 526,389 527,389 528,389 529,388 530,388 531,388 532,388 533,387 534,386 534,385 535,385 536,385 537,385 538,384 539,383 540,382 541,381 542,380 542,379 543,379 544,378 545,377 546,376 547,376 548,375 549,375 550,375 550,374 551,374 552,374 553,374 554,373 555,373 556,372 557,372 557,371 558,370 559,370 560,368 561,368 562,368 563,367 564,366 565,365 565,365 566,364 567,363 568,363 569,363 570,363 571,362 572,361 573,361 573,361 574,360 575,360 576,360 577,359 578,358 579,358 580,357 581,357 581,356 582,356 583,356 584,355 585,355 586,354 587,354 588,354 589,353 589,351 590,349 591,349 592,349 593,348 594,348 595,346 596,345 597,344 597,344 598,343 599,343 600,342 601,342 602,342 603,341 604,341 605,339 605,337 606,337 607,337 608,336 609,336 610,335 611,333 612,333 613,333 613,333 614,333 615,331 616,331 617,330 618,330 619,329 620,329 621,328 621,327 622,327 623,327 624,325 625,323 626,323 627,322 628,321 629,321 629,320 630,320 631,319 632,318 633,318 634,317 635,317 636,316 637,315 637,315 638,315 639,315 640,315 641,314 642,314 643,314 644,313 645,312 645,312 646,312 647,311 648,310 649,310 650,310 651,309 652,309 653,309 653,308 654,308 655,307 656,307 657,306 658,306 659,304 660,304 660,303 661,303 662,301 663,300 664,299 665,298 666,297 667,297 668,297 668,297 669,296 670,296 671,295 672,295 673,295 674,294 675,293 676,293 676,292 677,292 678,291 679,291 680,290 681,290 682,290 683,288 684,288 684,288 685,287 686,285 687,284 688,284 689,284 690,283 691,282 692,281 692,281 693,279 694,278 695,278 696,278 697,277 698,276 699,276 700,275 700,275 701,274 702,273 703,272 704,272 705,272 706,270 707,269 708,269 708,269 709,268 710,268 711,268 712,268 713,267 714,266 715,265 716,265 716,264 717,264 718,264 719,264 720,263 721,263 722,263 723,262 724,262 724,260 725,257 726,257 727,257 728,256 729,256 730,255 731,255 732,255 732,255 733,255 734,254 735,253 736,253 737,250 738,250 739,249 740,249 740,249 741,248 742,247 743,246 744,245 745,245 746,244 747,244 748,244 748,243 749,242 750,242 751,240 752,239 753,239 754,238 755,237 756,236 756,236 757,235 758,234 759,233 760,232 761,231 762,231 763,230 763,228 764,228 765,228 766,227 767,227 768,227 769,226 770,225 771,224 771,224 772,224 773,221 774,220 775,220 776,219 777,218 778,217 779,217 779,216 780,216 781,214 782,214 783,213 784,213 785,212 786,210 787,210 787,209 788,209 789,208 790,207 791,206 792,206 793,206 794,206 795,205 795,205 796,204 797,204 798,203 799,203 800,202 801,201 802,200 803,200 803,199 804,199 805,199 806,199 807,199 808,198 809,196 810,196 811,195 811,193 812,192 813,192 814,192 815,190 816,190 817,189 818,188 819,188 819,187 820,186 821,186 822,185 823,185 824,185 825,184 826,184 827,184 827,182 828,182 829,181 830,180 831,179 832,179 833,179 834,179 835,178 835,178 836,178 837,176 838,176 839,175 840,175 841,175 842,175 843,174 843,172 844,171 845,171 846,171 847,169 848,169 849,169 850,168 851,165 851,165 852,164 853,164 854,164 855,164 856,162 857,161 858,161 859,160 859,160 860,160 861,159 862,159 863,159 864,157 865,156 866,156 866,156 867,154 868,153 869,151 870,150 871,148 872,148 873,147 874,145 874,145 875,145 876,142 877,142 878,141 879,140 880,140 881,140 882,139 882,139 883,138 884,137 885,137 886,136 887,136 888,135 889,134 890,133 890,132 891,132 892,130 893,129 894,128 895,128 896,128 897,127 898,127 898,126 899,125 900,125 901,125 902,124 903,123 904,122 905,122 906,120 906,119 907,118 908,118 909,117 910,116 911,115 912,114 913,113 914,112 914,111 915,111 916,111 917,110 918,110 919,109 920,109 921,108 922,108 922,108 923,107 924,106 925,105 926,105 927,105 928,104 929,104 930,103 930,103 931,102 932,100 933,99 934,97 935,97 936,96 937,96 938,94 938,94 939,92 940,92 941,90 942,90 943,90 944,88 945,88 946,88 946,88 947,88 948,87 949,86 950,84 951,83 952,82 953,81 954,80 954,79 955,78 956,77 957,77 958,77 959,76 960,75 961,74 962,74 962,72 963,72 964,71 965,71 966,71 967,70 968,69 969,69 969,68 970,68 971,68 972,68 972,699 973,699 973,699 84,699 "/>
<polyline fill="none" opacity="1" stroke="#E6194B" stroke-width="1" points="84,697 85,697 86,696 87,696 88,695 89,694 90,693 90,692 91,692 92,692 93,692 94,691 95,690 96,690 97,690 98,688 98,687 99,687 100,686 101,685 102,684 103,684 104,683 105,682 106,682 106,682 107,681 108,681 109,681 110,681 111,680 112,680 113,678 114,678 114,677 115,677 116,677 117,677 118,676 119,676 120,676 121,675 122,675 122,675 123,674 124,673 125,672 126,672 127,671 128,671 129,670 130,670 130,669 131,668 132,667 133,667 134,667 135,667 136,667 137,666 137,664 138,662 139,662 140,661 141,661 142,661 143,660 144,659 145,658 145,658 146,657 147,657 148,656 149,656 150,656 151,656 152,655 153,655 153,654 154,652 155,652 156,651 157,651 158,650 159,650 160,649 161,649 161,649 162,648 163,647 164,647 165,646 166,645 167,645 168,645 169,645 169,644 170,644 171,644 172,643 173,643 174,643 175,642 176,642 177,641 177,641 178,641 179,641 180,641 181,641 182,640 183,639 184,638 185,638 185,638 186,638 187,637 188,636 189,636 190,635 191,635 192,634 193,634 193,633 194,632 195,631 196,630 197,629 198,629 199,628 200,627 201,626 201,625 202,625 203,624 204,623 205,623 206,623 207,621 208,621 209,620 209,619 210,619 211,619 212,619 213,619 214,619 215,619 216,618 217,618 217,616 218,616 219,615 220,613 221,613 222,611 223,611 224,609 225,609 225,609 226,609 227,608 228,608 229,608 230,608 231,606 232,606 233,606 233,606 234,606 235,605 236,605 237,604 238,604 239,603 240,602 240,601 241,601 242,601 243,601 244,600 245,599 246,599 247,598 248,597 248,597 249,596 250,596 251,595 252,595 253,595 254,595 255,595 256,594 256,594 257,594 258,592 259,592 260,591 261,590 262,590 263,590 264,589 264,587 265,587 266,587 267,585 268,585 269,585 270,584 271,584 272,583 272,582 273,582 274,582 275,582 276,581 277,581 278,580 279,580 280,580 280,579 281,579 282,579 283,578 284,577 285,577 286,576 287,576 288,576 288,576 289,574 290,573 291,573 292,571 293,571 294,570 295,569 296,568 296,567 297,567 298,567 299,566 300,565 301,565 302,565 303,564 304,564 304,563 305,563 306,562 307,562 308,561 309,560 310,560 311,560 312,560 312,560 313,559 314,558 315,558 316,558 317,558 318,556 319,556 320,555 320,555 321,555 322,555 323,553 324,553 325,552 326,551 327,551 328,550 328,550 329,550 330,549 331,549 332,549 333,549 334,549 335,548 336,548 336,548 337,547 338,547 339,546 340,546 341,545 342,544 343,544 343,543 344,543 345,542 346,542 347,541 348,540 349,540 350,538 351,536 351,536 352,535 353,535 354,535 355,534 356,534 357,534 358,534 359,532 359,532 360,532 361,532 362,532 363,531 364,530 365,530 366,530 367,530 367,529 368,529 369,527 370,527 371,527 372,526 373,526 374,525 375,524 375,523 376,523 377,523 378,523 379,522 380,522 381,521 382,520 383,520 383,519 384,519 385,519 386,518 387,518 388,517 389,517 390,516 391,516 391,515 392,515 393,515 394,514 395,513 396,513 397,512 398,512 399,512 399,512 400,512 401,510 402,509 403,508 404,507 405,506 406,506 407,506 407,506 408,504 409,503 410,502 411,500 412,499 413,499 414,498 415,498 415,498 416,497 417,496 418,496 419,495 420,495 421,494 422,494 423,494 423,492 424,491 425,490 426,490 427,489 428,489 429,488 430,487 431,487 431,486 432,486 433,486 434,485 435,485 436,484 437,484 438,482 439,481 439,481 440,480 441,479 442,477 443,477 444,476 445,475 446,475 447,473 447,472 448,472 449,471 450,469 451,468 452,467 453,466 454,463 454,461 455,461 456,460 457,459 458,456 459,455 460,454 461,453 462,452 462,450 463,449 464,449 465,448 466,448 467,446 468,445 469,445 470,445 470,444 471,443 472,442 473,440 474,438 475,438 476,437 477,436 478,434 478,434 479,432 480,432 481,431 482,430 483,430 484,428 485,427 486,427 486,425 487,425 488,424 489,424 490,424 491,422 492,421 493,421 494,420 494,420 495,419 496,419 497,418 498,417 499,416 500,415 501,414 502,414 502,413 503,411 504,410 505,409 506,408 507,408 508,406 509,406 510,405 510,404 511,404 512,402 513,401 514,400 515,400 516,399 517,398 518,398 518,397 519,396 520,395 521,395 522,395 523,393 524,391 525,390 526,390 526,389 527,389 528,389 529,388 530,388 531,388 532,388 533,387 534,386 534,385 535,385 536,385 537,385 538,384 539,383 540,382 541,381 542,380 542,379 543,379 544,378 545,377 546,376 547,376 548,375 549,375 550,375 550,374 551,374 552,374 553,374 554,373 555,373 556,372 557,372 557,371 558,370 559,370 560,368 561,368 562,368 563,367 564,366 565,365 565,365 566,364 567,363 568,363 569,363 570,363 571,362 572,361 573,361 573,361 574,360 575,360 576,360 577,359 578,358 579,358 580,357 581,357 581,356 582,356 583,356 584,355 585,355 586,354 587,354 588,354 589,353 589,351 590,349 591,349 592,349 593,348 594,348 595,346 596,345 597,344 597,344 598,343 599,343 600,342 601,342 602,342 603,341 604,341 605,339 605,337 606,337 607,337 608,336 609,336 610,335 611,333 612,333 613,333 613,333 614,333 615,331 616,331 617,330 618,330 619,329 620,329 621,328 621,327 622,327 623,327 624,325 625,323 626,323 627,322 628,321 629,321 629,320 630,320 631,319 632,318 633,318 634,317 635,317 636,316 637,315 637,315 638,315 639,315 640,315 641,314 642,314 643,314 644,313 645,312 645,312 646,312 647,311 648,310 649,310 650,310 651,309 652,309 653,309 653,308 654,308 655,307 656,307 657,306 658,306 659,304 660,304 660,303 661,303 662,301 663,300 664,299 665,298 666,297 667,297 668,297 668,297 669,296 670,296 671,295 672,295 673,295 674,294 675,293 676,293 676,292 677,292 678,291 679,291 680,290 681,290 682,290 683,288 684,288 684,288 685,287 686,285 687,284 688,284 689,284 690,283 691,282 692,281 692,281 693,279 694,278 695,278 696,278 697,277 698,276 699,276 700,275 700,275 701,274 702,273 703,272 704,272 705,272 706,270 707,269 708,269 708,269 709,268 710,268 711,268 712,268 713,267 714,266 715,265 716,265 716,264 717,264 718,264 719,264 720,263 721,263 722,263 723,262 724,262 724,260 725,257 726,257 727,257 728,256 729,256 730,255 731,255 732,255 732,255 733,255 734,254 735,253 736,253 737,250 738,250 739,249 740,249 740,249 741,248 742,247 743,246 744,245 745,245 746,244 747,244 748,244 748,243 749,242 750,242 751,240 752,239 753,239 754,238 755,237 756,236 756,236 757,235 758,234 759,233 760,232 761,231 762,231 763,230 763,228 764,228 765,228 766,227 767,227 768,227 769,226 770,225 771,224 771,224 772,224 773,221 774,220 775,220 776,219 777,218 778,217 779,217 779,216 780,216 781,214 782,214 783,213 784,213 785,212 786,210 787,210 787,209 788,209 789,208 790,207 791,206 792,206 793,206 794,206 795,205 795,205 796,204 797,204 798,203 799,203 800,202 801,201 802,200 803,200 803,199 804,199 805,199 806,199 807,199 808,198 809,196 810,196 811,195 811,193 812,192 813,192 814,192 815,190 816,190 817,189 818,188 819,188 819,187 820,186 821,186 822,185 823,185 824,185 825,184 826,184 827,184 827,182 828,182 829,181 830,180 831,179 832,179 833,179 834,179 835,178 835,178 836,178 837,176 838,176 839,175 840,175 841,175 842,175 843,174 843,172 844,171 845,171 846,171 847,169 848,169 849,169 850,168 851,165 851,165 852,164 853,164 854,164 855,164 856,162 857,161 858,161 859,160 859,160 860,160 861,159 862,159 863,159 864,157 865,156 866,156 866,156 867,154 868,153 869,151 870,150 871,148 872,148 873,147 874,145 874,145 875,145 876,142 877,142 878,141 879,140 880,140 881,140 882,139 882,139 883,138 884,137 885,137 886,136 887,136 888,135 889,134 890,133 890,132 891,132 892,130 893,129 894,128 895,128 896,128 897,127 898,127 898,126 899,125 900,125 901,125 902,124 903,123 904,122 905,122 906,120 906,119 907,118 908,118 909,117 910,116 911,115 912,114 913,113 914,112 914,111 915,111 916,111 917,110 918,110 919,109 920,109 921,108 922,108 922,108 923,107 924,106 925,105 926,105 927,105 928,104 929,104 930,103 930,103 931,102 932,100 933,99 934,97 935,97 936,96 937,96 938,94 938,94 939,92 940,92 941,90 942,90 943,90 944,88 945,88 946,88 946,88 947,88 948,87 949,86 950,84 951,83 952,82 953,81 954,80 954,79 955,78 956,77 957,77 958,77 959,76 960,75 961,74 962,74 962,72 963,72 964,71 965,71 966,71 967,70 968,69 969,69 969,68 970,68 971,68 972,68 972,699 973,699 "/>
<line opacity="0.1" stroke="#000000" stroke-width="1" x1="83" y1="699" x2="83" y2="68"/>
<line opacity="0.1" stroke="#000000" stroke-width="1" x1="92" y1="699" x2="92" y2="68"/>
<line opacity="0.1" stroke="#000000" stroke-width="1" x1="101" y1="699" x2="101" y2="68"/>
<line opacity="0.1" stroke="#000000" stroke-width="1" x1="110" y1="699" x2="110" y2="68"/>
<line opacity="0.1" stroke="#000000" stroke-width="1" x1="119" y1="699" x2="119" y2="68"/>
<line opacity="0.1" stroke="#000000" stroke-width="1" x1="128" y1="699" x2="128" y2="68"/>
<line opacity="0.1" stroke="#000000" stroke-width="1" x1="137" y1="699" x2="137" y2="68"/>
<line opacity="0.1" stroke="#000000" stroke-width="1" x1="146" y1="699" x2="146" y2="68"/>
<line opacity="0.1" stroke="#000000" stroke-width="1" x1="154" y1="699" x2="154" y2="68"/>
<line opacity="0.1" stroke="#000000" stroke-width="1" x1="163" y1="699" x2="163" y2="68"/>
<line opacity="0.1" stroke="#000000" stroke-width="1" x1="172" y1="699" x2="172" y2="68"/>
<line opacity="0.1" stroke="#000000" stroke-width="1" x1="181" y1="699" x2="181" y2="68"/>
<line opacity="0.1" stroke="#000000" stroke-width="1" x1="190" y1="699" x2="190" y2="68"/>
<line opacity="0.1" stroke="#000000" stroke-width="1" x1="199" y1="699" x2="199" y2="68"/>
<line opacity="0.1" stroke="#000000" stroke-width="1" x1="208" y1="699" x2="208" y2="68"/>
<line opacity="0.1" stroke="#000000" stroke-width="1" x1="217" y1="699" x2="217" y2="68"/>
<line opacity="0.1" stroke="#000000" stroke-width="1" x1="226" y1="699" x2="226" y2="68"/>
<line opacity="0.1" stroke="#000000" stroke-width="1" x1="234" y1="699" x2="234" y2="68"/>
<line opacity="0.1" stroke="#000000" stroke-width="1" x1="243" y1="699" x2="243" y2="68"/>
<line opacity="0.1" stroke="#000000" stroke-width="1" x1="252" y1="699" x2="252" y2="68"/>
<line opacity="0.1" stroke="#000000" stroke-width="1" x1="261" y1="699" x2="261" y2="68"/>
<line opacity="0.1" stroke="#000000" stroke-width="1" x1="270" y1="699" x2="270" y2="68"/>
<line opacity="0.1" stroke="#000000" stroke-width="1" x1="279" y1="699" x2="279" y2="68"/>
<line opacity="0.1" stroke="#000000" stroke-width="1" x1="288" y1="699" x2="288" y2="68"/>
<line opacity="0.1" stroke="#000000" stroke-width="1" x1="297" y1="699" x2="297" y2="68"/>
<line opacity="0.1" stroke="#000000" stroke-width="1" x1="306" y1="699" x2="306" y2="68"/>
<line opacity="0.1" stroke="#000000" stroke-width="1" x1="315" y1="699" x2="315" y2="68"/>
<line opacity="0.1" stroke="#000000" stroke-width="1" x1="323" y1="699" x2="323" y2="68"/>
<line opacity="0.1" stroke="#000000" stroke-width="1" x1="332" y1="699" x2="332" y2="68"/>
<line opacity="0.1" stroke="#000000" stroke-width="1" x1="341" y1="699" x2="341" y2="68"/>
<line opacity="0.1" stroke="#000000" stroke-width="1" x1="350" y1="699" x2="350" y2="68"/>
<line opacity="0.1" stroke="#000000" stroke-width="1" x1="359" y1="699" x2="359" y2="68"/>
<line opacity="0.1" stroke="#000000" stroke-width="1" x1="368" y1="699" x2="368" y2="68"/>
<line opacity="0.1" stroke="#000000" stroke-width="1" x1="377" y1="699" x2="377" y2="68"/>
<line opacity="0.1" stroke="#000000" stroke-width="1" x1="386" y1="699" x2="386" y2="68"/>
<line opacity="0.1" stroke="#000000" stroke-width="1" x1="395" y1="699" x2="395" y2="68"/>
<line opacity="0.1" stroke="#000000" stroke-width="1" x1="403" y1="699" x2="403" y2="68"/>
<line opacity="0.1" stroke="#000000" stroke-width="1" x1="412" y1="699" x2="412" y2="68"/>
<line opacity="0.1" stroke="#000000" stroke-width="1" x1="421" y1="699" x2="421" y2="68"/>
<line opacity="0.1" stroke="#000000" stroke-width="1" x1="430" y1="699" x2="430" y2="68"/>
<line opacity="0.1" stroke="#000000" stroke-width="1" x1="439" y1="699" x2="439" y2="68"/>
<line opacity="0.1" stroke="#000000" stroke-width="1" x1="448" y1="699" x2="448" y2="68"/>
<line opacity="0.1" stroke="#000000" stroke-width="1" x1="457" y1="699" x2="457" y2="68"/>
<line opacity="0.1" stroke="#000000" stroke-width="1" x1="466" y1="699" x2="466" y2="68"/>
<line opacity="0.1" stroke="#000000" stroke-width="1" x1="475" y1="699" x2="475" y2="68"/>
<line opacity="0.1" stroke="#000000" stroke-width="1" x1="483" y1="699" x2="483" y2="68"/>
<line opacity="0.1" stroke="#000000" stroke-width="1" x1="492" y1="699" x2="492" y2="68"/>
<line opacity="0.1" stroke="#000000" stroke-width="1" x1="501" y1="699" x2="501" y2="68"/>
<line opacity="0.1" stroke="#000000" stroke-width="1" x1="510" y1="699" x2="510" y2="68"/>
<line opacity="0.1" stroke="#000000" stroke-width="1" x1="519" y1="699" x2="519" y2="68"/>
<line opacity="0.1" stroke="#000000" stroke-width="1" x1="528" y1="699" x2="528" y2="68"/>
<line opacity="0.1" stroke="#000000" stroke-width="1" x1="537" y1="699" x2="537" y2="68"/>
<line opacity="0.1" stroke="#000000" stroke-width="1" x1="546" y1="699" x2="546" y2="68"/>
<line opacity="0.1" stroke="#000000" stroke-width="1" x1="555" y1="699" x2="555" y2="68"/>
<line opacity="0.1" stroke="#000000" stroke-width="1" x1="563" y1="699" x2="563" y2="68"/>
<line opacity="0.1" stroke="#000000" stroke-width="1" x1="572" y1="699" x2="572" y2="68"/>
<line opacity="0.1" stroke="#000000" stroke-width="1" x1="581" y1="699" x2="581" y2="68"/>
<line opacity="0.1" stroke="#000000" stroke-width="1" x1="590" y1="699" x2="590" y2="68"/>
<line opacity="0.1" stroke="#000000" stroke-width="1" x1="599" y1="699" x2="599" y2="68"/>
<line opacity="0.1" stroke="#000000" stroke-width="1" x1="608" y1="699" x2="608" y2="68"/>
<line opacity="0.1" stroke="#000000" stroke-width="1" x1="617" y1="699" x2="617" y2="68"/>
<line opacity="0.1" stroke="#000000" stroke-width="1" x1="626" y1="699" x2="626" y2="68"/>
<line opacity="0.1" stroke="#000000" stroke-width="1" x1="635" y1="699" x2="635" y2="68"/>
<line opacity="0.1" stroke="#000000" stroke-width="1" x1="644" y1="699" x2="644" y2="68"/>
<line opacity="0.1" stroke="#000000" stroke-width="1" x1="652" y1="699" x2="652" y2="68"/>
<line opacity="0.1" stroke="#000000" stroke-width="1" x1="661" y1="699" x2="661" y2="68"/>
<line opacity="0.1" stroke="#000000" stroke-width="1" x1="670" y1="699" x2="670" y2="68"/>
<line opacity="0.1" stroke="#000000" stroke-width="1" x1="679" y1="699" x2="679" y2="68"/>
<line opacity="0.1" stroke="#000000" stroke-width="1" x1="688" y1="699" x2="688" y2="68"/>
<line opacity="0.1" stroke="#000000" stroke-width="1" x1="697" y1="699" x2="697" y2="68"/>
<line opacity="0.1" stroke="#000000" stroke-width="1" x1="706" y1="699" x2="706" y2="68"/>
<line opacity="0.1" stroke="#000000" stroke-width="1" x1="715" y1="699" x2="715" y2="68"/>
<line opacity="0.1" stroke="#000000" stroke-width="1" x1="724" y1="699" x2="724" y2="68"/>
<line opacity="0.1" stroke="#000000" stroke-width="1" x1="732" y1="699" x2="732" y2="68"/>
<line opacity="0.1" stroke="#000000" stroke-width="1" x1="741" y1="699" x2="741" y2="68"/>
<line opacity="0.1" stroke="#000000" stroke-width="1" x1="750" y1="699" x2="750" y2="68"/>
<line opacity="0.1" stroke="#000000" stroke-width="1" x1="759" y1="699" x2="759" y2="68"/>
<line opacity="0.1" stroke="#000000" stroke-width="1" x1="768" y1="699" x2="768" y2="68"/>
<line opacity="0.1" stroke="#000000" stroke-width="1" x1="777" y1="699" x2="777" y2="68"/>
<line opacity="0.1" stroke="#000000" stroke-width="1" x1="786" y1="699" x2="786" y2="68"/>
<line opacity="0.1" stroke="#000000" stroke-width="1" x1="795" y1="699" x2="795" y2="68"/>
<line opacity="0.1" stroke="#000000" stroke-width="1" x1="804" y1="699" x2="804" y2="68"/>
<line opacity="0.1" stroke="#000000" stroke-width="1" x1="812" y1="699" x2="812" y2="68"/>
<line opacity="0.1" stroke="#000000" stroke-width="1" x1="821" y1="699" x2="821" y2="68"/>
<line opacity="0.1" stroke="#000000" stroke-width="1" x1="830" y1="699" x2="830" y2="68"/>
<line opacity="0.1" stroke="#000000" stroke-width="1" x1="839" y1="699" x2="839" y2="68"/>
<line opacity="0.1" stroke="#000000" stroke-width="1" x1="848" y1="699" x2="848" y2="68"/>
<line opacity="0.1" stroke="#000000" stroke-width="1" x1="857" y1="699" x2="857" y2="68"/>
<line opacity="0.1" stroke="#000000" stroke-width="1" x1="866" y1="699" x2="866" y2="68"/>
<line opacity="0.1" stroke="#000000" stroke-width="1" x1="875" y1="699" x2="875" y2="68"/>
<line opacity="0.1" stroke="#000000" stroke-width="1" x1="884" y1="699" x2="884" y2="68"/>
<line opacity="0.1" stroke="#000000" stroke-width="1" x1="892" y1="699" x2="892" y2="68"/>
<line opacity="0.1" stroke="#000000" stroke-width="1" x1="901" y1="699" x2="901" y2="68"/>
<line opacity="0.1" stroke="#000000" stroke-width="1" x1="910" y1="699" x2="910" y2="68"/>
<line opacity="0.1" stroke="#000000" stroke-width="1" x1="919" y1="699" x2="919" y2="68"/>
<line opacity="0.1" stroke="#000000" stroke-width="1" x1="928" y1="699" x2="928" y2="68"/>
<line opacity="0.1" stroke="#000000" stroke-width="1" x1="937" y1="699" x2="937" y2="68"/>
<line opacity="0.1" stroke="#000000" stroke-width="1" x1="946" y1="699" x2="946" y2="68"/>
<line opacity="0.1" stroke="#000000" stroke-width="1" x1="955" y1="699" x2="955" y2="68"/>
<line opacity="0.1" stroke="#000000" stroke-width="1" x1="964" y1="699" x2="964" y2="68"/>
<line opacity="0.1" stroke="#000000" stroke-width="1" x1="78" y1="699" x2="973" y2="699"/>
<line opacity="0.1" stroke="#000000" stroke-width="1" x1="78" y1="693" x2="973" y2="693"/>
<line opacity="0.1" stroke="#000000" stroke-width="1" x1="78" y1="687" x2="973" y2="687"/>
<line opacity="0.1" stroke="#000000" stroke-width="1" x1="78" y1="681" x2="973" y2="681"/>
<line opacity="0.1" stroke="#000000" stroke-width="1" x1="78" y1="676" x2="973" y2="676"/>
<line opacity="0.1" stroke="#000000" stroke-width="1" x1="78" y1="670" x2="973" y2="670"/>
<line opacity="0.1" stroke="#000000" stroke-width="1" x1="78" y1="664" x2="973" y2="664"/>
<line opacity="0.1" stroke="#000000" stroke-width="1" x1="78" y1="658" x2="973" y2="658"/>
<line opacity="0.1" stroke="#000000" stroke-width="1" x1="78" y1="653" x2="973" y2="653"/>
<line opacity="0.1" stroke="#000000" stroke-width="1" x1="78" y1="647" x2="973" y2="647"/>
<line opacity="0.1" stroke="#000000" stroke-width="1" x1="78" y1="641" x2="973" y2="641"/>
<line opacity="0.1" stroke="#000000" stroke-width="1" x1="78" y1="635" x2="973" y2="635"/>
<line opacity="0.1" stroke="#000000" stroke-width="1" x1="78" y1="630" x2="973" y2="630"/>
<line opacity="0.1" stroke="#000000" stroke-width="1" x1="78" y1="624" x2="973" y2="624"/>
<line opacity="0.1" stroke="#000000" stroke-width="1" x1="78" y1="618" x2="973" y2="618"/>
<line opacity="0.1" stroke="#000000" stroke-width="1" x1="78" y1="612" x2="973" y2="612"/>
<line opacity="0.1" stroke="#000000" stroke-width="1" x1="78" y1="607" x2="973" y2="607"/>
<line opacity="0.1" stroke="#000000" stroke-width="1" x1="78" y1="601" x2="973" y2="601"/>
<line opacity="0.1" stroke="#000000" stroke-width="1" x1="78" y1="595" x2="973" y2="595"/>
<line opacity="0.1" stroke="#000000" stroke-width="1" x1="78" y1="590" x2="973" y2="590"/>
<line opacity="0.1" stroke="#000000" stroke-width="1" x1="78" y1="584" x2="973" y2="584"/>
<line opacity="0.1" stroke="#000000" stroke-width="1" x1="78" y1="578" x2="973" y2="578"/>
<line opacity="0.1" stroke="#000000" stroke-width="1" x1="78" y1="572" x2="973" y2="572"/>
<line opacity="0.1" stroke="#000000" stroke-width="1" x1="78" y1="567" x2="973" y2="567"/>
<line opacity="0.1" stroke="#000000" stroke-width="1" x1="78" y1="561" x2="973" y2="561"/>
<line opacity="0.1" stroke="#000000" stroke-width="1" x1="78" y1="555" x2="973" y2="555"/>
<line opacity="0.1" stroke="#000000" stroke-width="1" x1="78" y1="549" x2="973" y2="549"/>
<line opacity="0.1" stroke="#000000" stroke-width="1" x1="78" y1="544" x2="973" y2="544"/>
<line opacity="0.1" stroke="#000000" stroke-width="1" x1="78" y1="538" x2="973" y2="538"/>
<line opacity="0.1" stroke="#000000" stroke-width="1" x1="78" y1="532" x2="973" y2="532"/>
<line opacity="0.1" stroke="#000000" stroke-width="1" x1="78" y1="526" x2="973" y2="526"/>
<line opacity="0.1" stroke="#000000" stroke-width="1" x1="78" y1="521" x2="973" y2="521"/>
<line opacity="0.1" stroke="#000000" stroke-width="1" x1="78" y1="515" x2="973" y2="515"/>
<line opacity="0.1" stroke="#000000" stroke-width="1" x1="78" y1="509" x2="973" y2="509"/>
<line opacity="0.1" stroke="#000000" stroke-width="1" x1="78" y1="503" x2="973" y2="503"/>
<line opacity="0.1" stroke="#000000" stroke-width="1" x1="78" y1="498" x2="973" y2="498"/>
<line opacity="0.1" stroke="#000000" stroke-width="1" x1="78" y1="492" x2="973" y2="492"/>
<line opacity="0.1" stroke="#000000" stroke-width="1" x1="78" y1="486" x2="973" y2="486"/>
<line opacity="0.1" stroke="#000000" stroke-width="1" x1="78" y1="481" x2="973" y2="481"/>
<line opacity="0.1" stroke="#000000" stroke-width="1" x1="78" y1="475" x2="973" y2="475"/>
<line opacity="0.1" stroke="#000000" stroke-width="1" x1="78" y1="469" x2="973" y2="469"/>
<line opacity="0.1" stroke="#000000" stroke-width="1" x1="78" y1="463" x2="973" y2="463"/>
<line opacity="0.1" stroke="#000000" stroke-width="1" x1="78" y1="458" x2="973" y2="458"/>
<line opacity="0.1" stroke="#000000" stroke-width="1" x1="78" y1="452" x2="973" y2="452"/>
<line opacity="0.1" stroke="#000000" stroke-width="1" x1="78" y1="446" x2="973" y2="446"/>
<line opacity="0.1" stroke="#000000" stroke-width="1" x1="78" y1="440" x2="973" y2="440"/>
<line opacity="0.1" stroke="#000000" stroke-width="1" x1="78" y1="435" x2="973" y2="435"/>
<line opacity="0.1" stroke="#000000" stroke-width="1" x1="78" y1="429" x2="973" y2="429"/>
<line opacity="0.1" stroke="#000000" stroke-width="1" x1="78" y1="423" x2="973" y2="423"/>
<line opacity="0.1" stroke="#000000" stroke-width="1" x1="78" y1="417" x2="973" y2="417"/>
<line opacity="0.1" stroke="#000000" stroke-width="1" x1="78" y1="412" x2="973" y2="412"/>
<line opacity="0.1" stroke="#000000" stroke-width="1" x1="78" y1="406" x2="973" y2="406"/>
<line opacity="0.1" stroke="#000000" stroke-width="1" x1="78" y1="400" x2="973" y2="400"/>
<line opacity="0.1" stroke="#000000" stroke-width="1" x1="78" y1="394" x2="973" y2="394"/>
<line opacity="0.1" stroke="#000000" stroke-width="1" x1="78" y1="389" x2="973" y2="389"/>
<line opacity="0.1" stroke="#000000" stroke-width="1" x1="78" y1="383" x2="973" y2="383"/>
<line opacity="0.1" stroke="#000000" stroke-width="1" x1="78" y1="377" x2="973" y2="377"/>
<line opacity="0.1" stroke="#000000" stroke-width="1" x1="78" y1="372" x2="973" y2="372"/>
<line opacity="0.1" stroke="#000000" stroke-width="1" x1="78" y1="366" x2="973" y2="366"/>
<line opacity="0.1" stroke="#000000" stroke-width="1" x1="78" y1="360" x2="973" y2="360"/>
<line opacity="0.1" stroke="#000000" stroke-width="1" x1="78" y1="354" x2="973" y2="354"/>
<line opacity="0.1" stroke="#000000" stroke-width="1" x1="78" y1="349" x2="973" y2="349"/>
<line opacity="0.1" stroke="#000000" stroke-width="1" x1="78" y1="343" x2="973" y2="343"/>
<line opacity="0.1" stroke="#000000" stroke-width="1" x1="78" y1="337" x2="973" y2="337"/>
<line opacity="0.1" stroke="#000000" stroke-width="1" x1="78" y1="331" x2="973" y2="331"/>
<line opacity="0.1" stroke="#000000" stroke-width="1" x1="78" y1="326" x2="973" y2="326"/>
<line opacity="0.1" stroke="#000000" stroke-width="1" x1="78" y1="320" x2="973" y2="320"/>
<line opacity="0.1" stroke="#000000" stroke-width="1" x1="78" y1="314" x2="973" y2="314"/>
<line opacity="0.1" stroke="#000000" stroke-width="1" x1="78" y1="308" x2="973" y2="308"/>
<line opacity="0.1" stroke="#000000" stroke-width="1" x1="78" y1="303" x2="973" y2="303"/>
<line opacity="0.1" stroke="#000000" stroke-width="1" x1="78" y1="297" x2="973" y2="297"/>
<line opacity="0.1" stroke="#000000" stroke-width="1" x1="78" y1="291" x2="973" y2="291"/>
<line opacity="0.1" stroke="#000000" stroke-width="1" x1="78" y1="285" x2="973" y2="285"/>
<line opacity="0.1" stroke="#000000" stroke-width="1" x1="78" y1="280" x2="973" y2="280"/>
<line opacity="0.1" stroke="#000000" stroke-width="1" x1="78" y1="274" x2="973" y2="274"/>
<line opacity="0.1" stroke="#000000" stroke-width="1" x1="78" y1="268" x2="973" y2="268"/>
<line opacity="0.1" stroke="#000000" stroke-width="1" x1="78" y1="263" x2="973" y2="263"/>
<line opacity="0.1" stroke="#000000" stroke-width="1" x1="78" y1="257" x2="973" y2="257"/>
<line opacity="0.1" stroke="#000000" stroke-width="1" x1="78" y1="251" x2="973" y2="251"/>
<line opacity="0.1" stroke="#000000" stroke-width="1" x1="78" y1="245" x2="973" y2="245"/>
<line opacity="0.1" stroke="#000000" stroke-width="1" x1="78" y1="240" x2="973" y2="240"/>
<line opacity="0.1" stroke="#000000" stroke-width="1" x1="78" y1="234" x2="973" y2="234"/>
<line opacity="0.1" stroke="#000000" stroke-width="1" x1="78" y1="228" x2="973" y2="228"/>
<line opacity="0.1" stroke="#000000" stroke-width="1" x1="78" y1="222" x2="973" y2="222"/>
<line opacity="0.1" stroke="#000000" stroke-width="1" x1="78" y1="217" x2="973" y2="217"/>
<line opacity="0.1" stroke="#000000" stroke-width="1" x1="78" y1="211" x2="973" y2="211"/>
<line opacity="0.1" stroke="#000000" stroke-width="1" x1="78" y1="205" x2="973" y2="205"/>
<line opacity="0.1" stroke="#000000" stroke-width="1" x1="78" y1="199" x2="973" y2="199"/>
<line opacity="0.1" stroke="#000000" stroke-width="1" x1="78" y1="194" x2="973" y2="194"/>
<line opacity="0.1" stroke="#000000" stroke-width="1" x1="78" y1="188" x2="973" y2="188"/>
<line opacity="0.1" stroke="#000000" stroke-width="1" x1="78" y1="182" x2="973" y2="182"/>
<line opacity="0.1" stroke="#000000" stroke-width="1" x1="78" y1="176" x2="973" y2="176"/>
<line opacity="0.1" stroke="#000000" stroke-width="1" x1="78" y1="171" x2="973" y2="171"/>
<line opacity="0.1" stroke="#000000" stroke-width="1" x1="78" y1="165" x2="973" y2="165"/>
<line opacity="0.1" stroke="#000000" stroke-width="1" x1="78" y1="159" x2="973" y2="159"/>
<line opacity="0.1" stroke="#000000" stroke-width="1" x1="78" y1="154" x2="973" y2="154"/>
<line opacity="0.1" stroke="#000000" stroke-width="1" x1="78" y1="148" x2="973" y2="148"/>
<line opacity="0.1" stroke="#000000" stroke-width="1" x1="78" y1="142" x2="973" y2="142"/>
<line opacity="0.1" stroke="#000000" stroke-width="1" x1="78" y1="136" x2="973" y2="136"/>
<line opacity="0.1" stroke="#000000" stroke-width="1" x1="78" y1="131" x2="973" y2="131"/>
<line opacity="0.1" stroke="#000000" stroke-width="1" x1="78" y1="125" x2="973" y2="125"/>
<line opacity="0.1" stroke="#000000" stroke-width="1" x1="78" y1="119" x2="973" y2="119"/>
<line opacity="0.1" stroke="#000000" stroke-width="1" x1="78" y1="113" x2="973" y2="113"/>
<line opacity="0.1" stroke="#000000" stroke-width="1" x1="78" y1="108" x2="973" y2="108"/>
<line opacity="0.1" stroke="#000000" stroke-width="1" x1="78" y1="102" x2="973" y2="102"/>
<line opacity="0.1" stroke="#000000" stroke-width="1" x1="78" y1="96" x2="973" y2="96"/>
<line opacity="0.1" stroke="#000000" stroke-width="1" x1="78" y1="90" x2="973" y2="90"/>
<line opacity="0.1" stroke="#000000" stroke-width="1" x1="78" y1="85" x2="973" y2="85"/>
<line opacity="0.1" stroke="#000000" stroke-width="1" x1="78" y1="79" x2="973" y2="79"/>
<line opacity="0.1" stroke="#000000" stroke-width="1" x1="78" y1="73" x2="973" y2="73"/>
<text x="8" y="384" dy="0.76em" text-anchor="middle" font-family="sans-serif" font-size="9.67741935483871" opacity="1" fill="#000000" transform="rotate(270, 8, 384)">
Memory usage
</text>
<text x="526" y="760" dy="-0.5ex" text-anchor="middle" font-family="sans-serif" font-size="9.67741935483871" opacity="1" fill="#000000">
Time
</text>
<line opacity="0.2" stroke="#000000" stroke-width="1" x1="101" y1="699" x2="101" y2="68"/>
<line opacity="0.2" stroke="#000000" stroke-width="1" x1="190" y1="699" x2="190" y2="68"/>
<line opacity="0.2" stroke="#000000" stroke-width="1" x1="279" y1="699" x2="279" y2="68"/>
<line opacity="0.2" stroke="#000000" stroke-width="1" x1="368" y1="699" x2="368" y2="68"/>
<line opacity="0.2" stroke="#000000" stroke-width="1" x1="457" y1="699" x2="457" y2="68"/>
<line opacity="0.2" stroke="#000000" stroke-width="1" x1="546" y1="699" x2="546" y2="68"/>
<line opacity="0.2" stroke="#000000" stroke-width="1" x1="635" y1="699" x2="635" y2="68"/>
<line opacity="0.2" stroke="#000000" stroke-width="1" x1="724" y1="699" x2="724" y2="68"/>
<line opacity="0.2" stroke="#000000" stroke-width="1" x1="812" y1="699" x2="812" y2="68"/>
<line opacity="0.2" stroke="#000000" stroke-width="1" x1="901" y1="699" x2="901" y2="68"/>
<line opacity="0.2" stroke="#000000" stroke-width="1" x1="78" y1="699" x2="973" y2="699"/>
<line opacity="0.2" stroke="#000000" stroke-width="1" x1="78" y1="641" x2="973" y2="641"/>
<line opacity="0.2" stroke="#000000" stroke-width="1" x1="78" y1="584" x2="973" y2="584"/>
<line opacity="0.2" stroke="#000000" stroke-width="1" x1="78" y1="526" x2="973" y2="526"/>
<line opacity="0.2" stroke="#000000" stroke-width="1" x1="78" y1="469" x2="973" y2="469"/>
<line opacity="0.2" stroke="#000000" stroke-width="1" x1="78" y1="412" x2="973" y2="412"/>
<line opacity="0.2" stroke="#000000" stroke-width="1" x1="78" y1="354" x2="973" y2="354"/>
<line opacity="0.2" stroke="#000000" stroke-width="1" x1="78" y1="297" x2="973" y2="297"/>
<line opacity="0.2" stroke="#000000" stroke-width="1" x1="78" y1="240" x2="973" y2="240"/>
<line opacity="0.2" stroke="#000000" stroke-width="1" x1="78" y1="182" x2="973" y2="182"/>
<line opacity="0.2" stroke="#000000" stroke-width="1" x1="78" y1="125" x2="973" y2="125"/>
<polyline fill="none" opacity="1" stroke="#000000" stroke-width="1" points="77,68 77,699 "/>
<text x="68" y="699" dy="0.5ex" text-anchor="end" font-family="sans-serif" font-size="9.67741935483871" opacity="1" fill="#000000">
0 KB
</text>
<polyline fill="none" opacity="1" stroke="#000000" stroke-width="1" points="72,699 77,699 "/>
<text x="68" y="641" dy="0.5ex" text-anchor="end" font-family="sans-serif" font-size="9.67741935483871" opacity="1" fill="#000000">
9 KB
</text>
<polyline fill="none" opacity="1" stroke="#000000" stroke-width="1" points="72,641 77,641 "/>
<text x="68" y="584" dy="0.5ex" text-anchor="end" font-family="sans-serif" font-size="9.67741935483871" opacity="1" fill="#000000">
19 KB
</text>
<polyline fill="none" opacity="1" stroke="#000000" stroke-width="1" points="72,584 77,584 "/>
<text x="68" y="526" dy="0.5ex" text-anchor="end" font-family="sans-serif" font-size="9.67741935483871" opacity="1" fill="#000000">
29 KB
</text>
<polyline fill="none" opacity="1" stroke="#000000" stroke-width="1" points="72,526 77,526 "/>
<text x="68" y="469" dy="0.5ex" text-anchor="end" font-family="sans-serif" font-size="9.67741935483871" opacity="1" fill="#000000">
39 KB
</text>
<polyline fill="none" opacity="1" stroke="#000000" stroke-width="1" points="72,469 77,469 "/>
<text x="68" y="412" dy="0.5ex" text-anchor="end" font-family="sans-serif" font-size="9.67741935483871" opacity="1" fill="#000000">
48 KB
</text>
<polyline fill="none" opacity="1" stroke="#000000" stroke-width="1" points="72,412 77,412 "/>
<text x="68" y="354" dy="0.5ex" text-anchor="end" font-family="sans-serif" font-size="9.67741935483871" opacity="1" fill="#000000">
58 KB
</text>
<polyline fill="none" opacity="1" stroke="#000000" stroke-width="1" points="72,354 77,354 "/>
<text x="68" y="297" dy="0.5ex" text-anchor="end" font-family="sans-serif" font-size="9.67741935483871" opacity="1" fill="#000000">
68 KB
</text>
<polyline fill="none" opacity="1" stroke="#000000" stroke-width="1" points="72,297 77,297 "/>
<text x="68" y="240" dy="0.5ex" text-anchor="end" font-family="sans-serif" font-size="9.67741935483871" opacity="1" fill="#000000">
78 KB
</text>
<polyline fill="none" opacity="1" stroke="#000000" stroke-width="1" points="72,240 77,240 "/>
<text x="68" y="182" dy="0.5ex" text-anchor="end" font-family="sans-serif" font-size="9.67741935483871" opacity="1" fill="#000000">
87 KB
</text>
<polyline fill="none" opacity="1" stroke="#000000" stroke-width="1" points="72,182 77,182 "/>
<text x="68" y="125" dy="0.5ex" text-anchor="end" font-family="sans-serif" font-size="9.67741935483871" opacity="1" fill="#000000">
97 KB
</text>
<polyline fill="none" opacity="1" stroke="#000000" stroke-width="1" points="72,125 77,125 "/>
<polyline fill="none" opacity="1" stroke="#000000" stroke-width="1" points="78,700 973,700 "/>
<text x="101" y="710" dy="0.76em" text-anchor="middle" font-family="sans-serif" font-size="9.67741935483871" opacity="1" fill="#000000">
02:04:17
</text>
<polyline fill="none" opacity="1" stroke="#000000" stroke-width="1" points="101,700 101,705 "/>
<text x="190" y="710" dy="0.76em" text-anchor="middle" font-family="sans-serif" font-size="9.67741935483871" opacity="1" fill="#000000">
02:04:18
</text>
<polyline fill="none" opacity="1" stroke="#000000" stroke-width="1" points="190,700 190,705 "/>
<text x="279" y="710" dy="0.76em" text-anchor="middle" font-family="sans-serif" font-size="9.67741935483871" opacity="1" fill="#000000">
02:04:19
</text>
<polyline fill="none" opacity="1" stroke="#000000" stroke-width="1" points="279,700 279,705 "/>
<text x="368" y="710" dy="0.76em" text-anchor="middle" font-family="sans-serif" font-size="9.67741935483871" opacity="1" fill="#000000">
02:04:20
</text>
<polyline fill="none" opacity="1" stroke="#000000" stroke-width="1" points="368,700 368,705 "/>
<text x="457" y="710" dy="0.76em" text-anchor="middle" font-family="sans-serif" font-size="9.67741935483871" opacity="1" fill="#000000">
02:04:21
</text>
<polyline fill="none" opacity="1" stroke="#000000" stroke-width="1" points="457,700 457,705 "/>
<text x="546" y="710" dy="0.76em" text-anchor="middle" font-family="sans-serif" font-size="9.67741935483871" opacity="1" fill="#000000">
02:04:22
</text>
<polyline fill="none" opacity="1" stroke="#000000" stroke-width="1" points="546,700 546,705 "/>
<text x="635" y="710" dy="0.76em" text-anchor="middle" font-family="sans-serif" font-size="9.67741935483871" opacity="1" fill="#000000">
02:04:23
</text>
<polyline fill="none" opacity="1" stroke="#000000" stroke-width="1" points="635,700 635,705 "/>
<text x="724" y="710" dy="0.76em" text-anchor="middle" font-family="sans-serif" font-size="9.67741935483871" opacity="1" fill="#000000">
02:04:24
</text>
<polyline fill="none" opacity="1" stroke="#000000" stroke-width="1" points="724,700 724,705 "/>
<text x="812" y="710" dy="0.76em" text-anchor="middle" font-family="sans-serif" font-size="9.67741935483871" opacity="1" fill="#000000">
02:04:25
</text>
<polyline fill="none" opacity="1" stroke="#000000" stroke-width="1" points="812,700 812,705 "/>
<text x="901" y="710" dy="0.76em" text-anchor="middle" font-family="sans-serif" font-size="9.67741935483871" opacity="1" fill="#000000">
02:04:26
</text>
<polyline fill="none" opacity="1" stroke="#000000" stroke-width="1" points="901,700 901,705 "/>
<polyline fill="none" opacity="1" stroke="#000000" stroke-width="1" points="78,67 974,67 "/>
<text x="101" y="58" dy="-0.5ex" text-anchor="middle" font-family="sans-serif" font-size="9.67741935483871" opacity="1" fill="#000000">
+265ms
</text>
<polyline fill="none" opacity="1" stroke="#000000" stroke-width="1" points="101,62 101,67 "/>
<text x="190" y="58" dy="-0.5ex" text-anchor="middle" font-family="sans-serif" font-size="9.67741935483871" opacity="1" fill="#000000">
+1s
</text>
<polyline fill="none" opacity="1" stroke="#000000" stroke-width="1" points="190,62 190,67 "/>
<text x="279" y="58" dy="-0.5ex" text-anchor="middle" font-family="sans-serif" font-size="9.67741935483871" opacity="1" fill="#000000">
+2s
</text>
<polyline fill="none" opacity="1" stroke="#000000" stroke-width="1" points="279,62 279,67 "/>
<text x="368" y="58" dy="-0.5ex" text-anchor="middle" font-family="sans-serif" font-size="9.67741935483871" opacity="1" fill="#000000">
+3s
</text>
<polyline fill="none" opacity="1" stroke="#000000" stroke-width="1" points="368,62 368,67 "/>
<text x="457" y="58" dy="-0.5ex" text-anchor="middle" font-family="sans-serif" font-size="9.67741935483871" opacity="1" fill="#000000">
+4s
</text>
<polyline fill="none" opacity="1" stroke="#000000" stroke-width="1" points="457,62 457,67 "/>
<text x="546" y="58" dy="-0.5ex" text-anchor="middle" font-family="sans-serif" font-size="9.67741935483871" opacity="1" fill="#000000">
+5s
</text>
<polyline fill="none" opacity="1" stroke="#000000" stroke-width="1" points="546,62 546,67 "/>
<text x="635" y="58" dy="-0.5ex" text-anchor="middle" font-family="sans-serif" font-size="9.67741935483871" opacity="1" fill="#000000">
+6s
</text>
<polyline fill="none" opacity="1" stroke="#000000" stroke-width="1" points="635,62 635,67 "/>
<text x="724" y="58" dy="-0.5ex" text-anchor="middle" font-family="sans-serif" font-size="9.67741935483871" opacity="1" fill="#000000">
+7s
</text>
<polyline fill="none" opacity="1" stroke="#000000" stroke-width="1" points="724,62 724,67 "/>
<text x="813" y="58" dy="-0.5ex" text-anchor="middle" font-family="sans-serif" font-size="9.67741935483871" opacity="1" fill="#000000">
+8s
</text>
<polyline fill="none" opacity="1" stroke="#000000" stroke-width="1" points="813,62 813,67 "/>
<text x="902" y="58" dy="-0.5ex" text-anchor="middle" font-family="sans-serif" font-size="9.67741935483871" opacity="1" fill="#000000">
+9s
</text>
<polyline fill="none" opacity="1" stroke="#000000" stroke-width="1" points="902,62 902,67 "/>
<rect x="83" y="73" width="170" height="45" opacity="0.75" fill="#FFFFFF" stroke="none"/>
<rect x="83" y="73" width="170" height="45" opacity="1" fill="none" stroke="#000000"/>
<text x="123" y="83" dy="0.76em" text-anchor="start" font-family="sans-serif" font-size="9.67741935483871" opacity="1" fill="#000000">
Deallocated before 98%
</text>
<text x="123" y="98" dy="0.76em" text-anchor="start" font-family="sans-serif" font-size="9.67741935483871" opacity="1" fill="#000000">
Deallocated after 98%
</text>
<rect x="93" y="83" width="10" height="10" opacity="1" fill="#3CB44B" stroke="none"/>
<rect x="93" y="98" width="10" height="10" opacity="1" fill="#E6194B" stroke="none"/>
</svg>
