<svg width="1024" height="768" viewBox="0 0 1024 768" xmlns="http://www.w3.org/2000/svg">
<rect x="0" y="0" width="1023" height="767" opacity="1" fill="#FFFFFF" stroke="none"/>
<polygon opacity="1" fill="#3CB44B" points="974,699 974,699 974,699 "/>
<polyline fill="none" opacity="1" stroke="#3CB44B" stroke-width="1" points="974,699 "/>
<polygon opacity="1" fill="#E6194B" points="107,691 108,691 108,690 109,689 110,689 111,688 112,688 113,686 114,685 115,685 115,684 116,682 117,682 118,680 119,679 120,679 121,679 121,678 122,678 123,678 124,677 125,676 126,675 127,674 128,673 128,673 129,673 130,672 131,672 132,671 133,670 134,670 134,668 135,667 136,666 137,666 138,665 139,665 140,664 141,663 141,661 142,661 143,661 144,661 145,659 146,656 147,655 147,655 148,655 149,653 150,652 151,651 152,651 153,650 154,649 154,649 155,649 156,648 157,647 158,646 159,644 160,643 160,642 161,642 162,641 163,641 164,640 165,640 166,638 166,637 167,636 168,636 169,636 170,635 171,635 172,635 173,634 173,633 174,633 175,633 176,632 177,631 178,631 179,631 179,630 180,630 181,629 182,627 183,627 184,627 185,627 186,626 186,624 187,624 188,623 189,623 190,622 191,621 192,619 192,618 193,617 194,617 195,614 196,614 197,613 198,611 199,610 199,610 200,610 201,608 202,607 203,606 204,605 205,604 205,604 206,604 207,604 208,604 209,603 210,602 211,601 212,600 212,598 213,597 214,595 215,593 216,593 217,593 218,592 218,592 219,591 220,591 221,590 222,590 223,590 224,590 225,590 225,590 226,588 227,588 228,587 229,587 230,586 231,584 231,584 232,584 233,584 234,583 235,583 236,581 237,581 238,580 238,579 239,579 240,578 241,577 242,577 243,577 244,577 244,576 245,576 246,576 247,575 248,575 249,574 250,573 251,573 251,572 252,571 253,571 254,570 255,570 256,568 257,567 257,567 258,565 259,565 260,565 261,564 262,564 263,563 264,562 264,561 265,561 266,561 267,560 268,560 269,559 270,559 270,559 271,558 272,558 273,557 274,557 275,556 276,555 277,555 277,554 278,554 279,554 280,554 281,552 282,551 283,550 283,549 284,548 285,547 286,546 287,545 288,544 289,543 290,543 290,542 291,541 292,541 293,541 294,541 295,540 296,540 296,539 297,538 298,538 299,537 300,536 301,535 302,535 303,535 303,535 304,534 305,533 306,533 307,533 308,533 309,532 309,531 310,531 311,530 312,529 313,529 314,529 315,527 316,527 316,526 317,525 318,525 319,524 320,524 321,524 322,523 322,522 323,522 324,522 325,522 326,522 327,521 328,521 329,520 329,519 330,519 331,519 332,517 333,517 334,517 335,517 335,516 336,514 337,514 338,513 339,511 340,510 341,508 342,507 342,506 343,506 344,505 345,504 346,504 347,503 348,503 348,503 349,502 350,501 351,500 352,500 353,500 354,500 355,499 355,498 356,498 357,496 358,496 359,496 360,496 361,496 361,495 362,493 363,492 364,492 365,492 366,492 367,492 368,491 368,490 369,489 370,488 371,488 372,488 373,487 374,487 374,486 375,486 376,485 377,484 378,484 379,484 380,483 381,483 381,482 382,482 383,481 384,480 385,480 386,478 387,478 387,478 388,478 389,478 390,478 391,477 392,476 393,474 394,473 394,473 395,472 396,472 397,472 398,472 399,472 400,472 400,470 401,469 402,468 403,467 404,467 405,465 406,465 407,463 407,463 408,463 409,463 410,463 411,462 412,462 413,461 413,461 414,460 415,460 416,459 417,459 418,458 419,458 420,458 420,458 421,457 422,457 423,456 424,455 425,454 426,453 426,453 427,452 428,452 429,451 430,451 431,451 432,451 433,450 433,450 434,449 435,449 436,448 437,448 438,448 439,448 439,447 440,447 441,447 442,447 443,446 444,445 445,445 446,444 446,442 447,442 448,442 449,442 450,441 451,440 452,438 452,437 453,437 454,437 455,436 456,435 457,435 458,435 459,433 459,433 460,432 461,432 462,432 463,430 464,429 465,428 465,427 466,427 467,426 468,425 469,422 470,421 471,420 472,419 472,419 473,418 474,418 475,416 476,416 477,413 478,412 478,412 479,411 480,409 481,408 482,408 483,406 484,405 485,405 485,405 486,405 487,404 488,404 489,401 490,401 491,401 491,400 492,400 493,400 494,399 495,399 496,399 497,398 497,397 498,397 499,395 500,393 501,392 502,392 503,391 504,390 504,390 505,389 506,387 507,387 508,386 509,386 510,385 510,384 511,384 512,383 513,382 514,382 515,382 516,380 517,380 517,379 518,379 519,377 520,377 521,376 522,376 523,375 523,375 524,375 525,375 526,373 527,372 528,371 529,370 530,370 530,370 531,369 532,369 533,369 534,368 535,367 536,366 536,365 537,364 538,364 539,364 540,363 541,363 542,363 543,361 543,360 544,360 545,358 546,358 547,356 548,356 549,356 549,354 550,354 551,354 552,354 553,352 554,352 555,352 556,351 556,350 557,349 558,348 559,347 560,347 561,346 562,345 562,345 563,343 564,343 565,343 566,343 567,341 568,341 569,340 569,340 570,340 571,339 572,339 573,337 574,337 575,335 575,334 576,334 577,333 578,333 579,333 580,332 581,332 582,331 582,331 583,331 584,330 585,330 586,330 587,329 588,329 588,329 589,328 590,327 591,327 592,327 593,327 594,327 595,327 595,326 596,325 597,325 598,323 599,322 600,321 601,320 601,320 602,319 603,318 604,318 605,316 606,316 607,315 608,315 608,315 609,315 610,314 611,314 612,313 613,312 614,312 614,312 615,311 616,311 617,311 618,310 619,310 620,310 621,309 621,308 622,307 623,307 624,306 625,305 626,305 627,305 627,304 628,303 629,302 630,302 631,300 632,300 633,299 634,299 634,299 635,299 636,298 637,297 638,296 639,296 640,296 640,295 641,295 642,293 643,292 644,291 645,291 646,291 647,290 647,290 648,290 649,289 650,289 651,288 652,287 653,287 653,286 654,285 655,284 656,283 657,280 658,280 659,280 660,280 660,279 661,277 662,275 663,275 664,274 665,274 666,274 666,274 667,273 668,273 669,272 670,271 671,271 672,269 673,267 673,266 674,266 675,266 676,266 677,264 678,262 679,262 679,262 680,262 681,261 682,261 683,261 684,259 685,259 686,259 686,258 687,258 688,257 689,257 690,255 691,255 692,255 692,253 693,252 694,250 695,250 696,249 697,248 698,248 699,247 699,247 700,246 701,244 702,244 703,243 704,243 705,243 705,242 706,241 707,241 708,241 709,241 710,241 711,240 712,240 712,239 713,239 714,238 715,237 716,237 717,237 718,236 718,235 719,235 720,234 721,234 722,233 723,233 724,233 725,232 725,232 726,231 727,231 728,231 729,230 730,230 731,228 731,227 732,227 733,225 734,225 735,224 736,222 737,221 738,221 738,220 739,220 740,220 741,219 742,219 743,218 744,217 744,217 745,217 746,216 747,215 748,214 749,214 750,214 751,213 751,212 752,212 753,211 754,211 755,211 756,209 757,209 757,209 758,207 759,206 760,204 761,204 762,203 763,203 764,201 764,201 765,200 766,200 767,198 768,197 769,196 770,196 770,196 771,194 772,194 773,193 774,193 775,193 776,192 777,191 777,191 778,190 779,190 780,188 781,187 782,186 783,186 783,186 784,186 785,186 786,185 787,184 788,184 789,182 790,182 790,182 791,181 792,181 793,180 794,180 795,180 796,179 796,176 797,173 798,172 799,172 800,171 801,170 802,170 803,169 803,169 804,169 805,169 806,169 807,167 808,167 809,165 809,164 810,163 811,163 812,162 813,162 814,161 815,160 816,159 816,158 817,158 818,158 819,158 820,158 821,157 822,156 822,156 823,155 824,154 825,153 826,152 827,152 828,150 829,150 829,149 830,148 831,148 832,148 833,147 834,147 835,146 835,146 836,145 837,144 838,144 839,143 840,142 841,142 841,141 842,139 843,139 844,139 845,139 846,139 847,139 848,138 848,138 849,138 850,138 851,136 852,136 853,135 854,135 854,135 855,135 856,133 857,132 858,132 859,131 860,131 861,131 861,131 862,129 863,129 864,128 865,128 866,127 867,127 867,126 868,126 869,126 870,126 871,126 872,125 873,125 874,124 874,124 875,122 876,121 877,121 878,120 879,120 880,120 880,119 881,119 882,118 883,117 884,117 885,116 886,116 887,116 887,116 888,116 889,116 890,115 891,115 892,115 893,115 893,114 894,113 895,113 896,113 897,112 898,112 899,111 900,111 900,110 901,110 902,109 903,109 904,109 905,108 906,108 906,108 907,108 908,108 909,107 910,107 911,105 912,105 913,105 913,104 914,102 915,101 916,100 917,100 918,99 919,99 919,99 920,98 921,96 922,96 923,96 924,96 925,95 926,95 926,94 927,93 928,92 929,92 930,91 931,91 932,91 932,91 933,90 934,90 935,90 936,88 937,87 938,86 939,86 939,85 940,84 941,83 942,83 943,83 944,83 945,83 945,81 946,81 947,81 948,81 949,80 950,79 951,79 952,78 952,78 953,78 954,78 955,78 956,78 957,78 958,77 958,74 959,74 960,74 961,74 962,73 963,72 964,71 965,71 965,71 966,71 967,70 968,69 969,68 970,68 971,68 971,68 972,68 973,68 973,699 974,699 974,699 107,699 "/>
<polyline fill="none" opacity="1" stroke="#E6194B" stroke-width="1" points="107,691 108,691 108,690 109,689 110,689 111,688 112,688 113,686 114,685 115,685 115,684 116,682 117,682 118,680 119,679 120,679 121,679 121,678 122,678 123,678 124,677 125,676 126,675 127,674 128,673 128,673 129,673 130,672 131,672 132,671 133,670 134,670 134,668 135,667 136,666 137,666 138,665 139,665 140,664 141,663 141,661 142,661 143,661 144,661 145,659 146,656 147,655 147,655 148,655 149,653 150,652 151,651 152,651 153,650 154,649 154,649 155,649 156,648 157,647 158,646 159,644 160,643 160,642 161,642 162,641 163,641 164,640 165,640 166,638 166,637 167,636 168,636 169,636 170,635 171,635 172,635 173,634 173,633 174,633 175,633 176,632 177,631 178,631 179,631 179,630 180,630 181,629 182,627 183,627 184,627 185,627 186,626 186,624 187,624 188,623 189,623 190,622 191,621 192,619 192,618 193,617 194,617 195,614 196,614 197,613 198,611 199,610 199,610 200,610 201,608 202,607 203,606 204,605 205,604 205,604 206,604 207,604 208,604 209,603 210,602 211,601 212,600 212,598 213,597 214,595 215,593 216,593 217,593 218,592 218,592 219,591 220,591 221,590 222,590 223,590 224,590 225,590 225,590 226,588 227,588 228,587 229,587 230,586 231,584 231,584 232,584 233,584 234,583 235,583 236,581 237,581 238,580 238,579 239,579 240,578 241,577 242,577 243,577 244,577 244,576 245,576 246,576 247,575 248,575 249,574 250,573 251,573 251,572 252,571 253,571 254,570 255,570 256,568 257,567 257,567 258,565 259,565 260,565 261,564 262,564 263,563 264,562 264,561 265,561 266,561 267,560 268,560 269,559 270,559 270,559 271,558 272,558 273,557 274,557 275,556 276,555 277,555 277,554 278,554 279,554 280,554 281,552 282,551 283,550 283,549 284,548 285,547 286,546 287,545 288,544 289,543 290,543 290,542 291,541 292,541 293,541 294,541 295,540 296,540 296,539 297,538 298,538 299,537 300,536 301,535 302,535 303,535 303,535 304,534 305,533 306,533 307,533 308,533 309,532 309,531 310,531 311,530 312,529 313,529 314,529 315,527 316,527 316,526 317,525 318,525 319,524 320,524 321,524 322,523 322,522 323,522 324,522 325,522 326,522 327,521 328,521 329,520 329,519 330,519 331,519 332,517 333,517 334,517 335,517 335,516 336,514 337,514 338,513 339,511 340,510 341,508 342,507 342,506 343,506 344,505 345,504 346,504 347,503 348,503 348,503 349,502 350,501 351,500 352,500 353,500 354,500 355,499 355,498 356,498 357,496 358,496 359,496 360,496 361,496 361,495 362,493 363,492 364,492 365,492 366,492 367,492 368,491 368,490 369,489 370,488 371,488 372,488 373,487 374,487 374,486 375,486 376,485 377,484 378,484 379,484 380,483 381,483 381,482 382,482 383,481 384,480 385,480 386,478 387,478 387,478 388,478 389,478 390,478 391,477 392,476 393,474 394,473 394,473 395,472 396,472 397,472 398,472 399,472 400,472 400,470 401,469 402,468 403,467 404,467 405,465 406,465 407,463 407,463 408,463 409,463 410,463 411,462 412,462 413,461 413,461 414,460 415,460 416,459 417,459 418,458 419,458 420,458 420,458 421,457 422,457 423,456 424,455 425,454 426,453 426,453 427,452 428,452 429,451 430,451 431,451 432,451 433,450 433,450 434,449 435,449 436,448 437,448 438,448 439,448 439,447 440,447 441,447 442,447 443,446 444,445 445,445 446,444 446,442 447,442 448,442 449,442 450,441 451,440 452,438 452,437 453,437 454,437 455,436 456,435 457,435 458,435 459,433 459,433 460,432 461,432 462,432 463,430 464,429 465,428 465,427 466,427 467,426 468,425 469,422 470,421 471,420 472,419 472,419 473,418 474,418 475,416 476,416 477,413 478,412 478,412 479,411 480,409 481,408 482,408 483,406 484,405 485,405 485,405 486,405 487,404 488,404 489,401 490,401 491,401 491,400 492,400 493,400 494,399 495,399 496,399 497,398 497,397 498,397 499,395 500,393 501,392 502,392 503,391 504,390 504,390 505,389 506,387 507,387 508,386 509,386 510,385 510,384 511,384 512,383 513,382 514,382 515,382 516,380 517,380 517,379 518,379 519,377 520,377 521,376 522,376 523,375 523,375 524,375 525,375 526,373 527,372 528,371 529,370 530,370 530,370 531,369 532,369 533,369 534,368 535,367 536,366 536,365 537,364 538,364 539,364 540,363 541,363 542,363 543,361 543,360 544,360 545,358 546,358 547,356 548,356 549,356 549,354 550,354 551,354 552,354 553,352 554,352 555,352 556,351 556,350 557,349 558,348 559,347 560,347 561,346 562,345 562,345 563,343 564,343 565,343 566,343 567,341 568,341 569,340 569,340 570,340 571,339 572,339 573,337 574,337 575,335 575,334 576,334 577,333 578,333 579,333 580,332 581,332 582,331 582,331 583,331 584,330 585,330 586,330 587,329 588,329 588,329 589,328 590,327 591,327 592,327 593,327 594,327 595,327 595,326 596,325 597,325 598,323 599,322 600,321 601,320 601,320 602,319 603,318 604,318 605,316 606,316 607,315 608,315 608,315 609,315 610,314 611,314 612,313 613,312 614,312 614,312 615,311 616,311 617,311 618,310 619,310 620,310 621,309 621,308 622,307 623,307 624,306 625,305 626,305 627,305 627,304 628,303 629,302 630,302 631,300 632,300 633,299 634,299 634,299 635,299 636,298 637,297 638,296 639,296 640,296 640,295 641,295 642,293 643,292 644,291 645,291 646,291 647,290 647,290 648,290 649,289 650,289 651,288 652,287 653,287 653,286 654,285 655,284 656,283 657,280 658,280 659,280 660,280 660,279 661,277 662,275 663,275 664,274 665,274 666,274 666,274 667,273 668,273 669,272 670,271 671,271 672,269 673,267 673,266 674,266 675,266 676,266 677,264 678,262 679,262 679,262 680,262 681,261 682,261 683,261 684,259 685,259 686,259 686,258 687,258 688,257 689,257 690,255 691,255 692,255 692,253 693,252 694,250 695,250 696,249 697,248 698,248 699,247 699,247 700,246 701,244 702,244 703,243 704,243 705,243 705,242 706,241 707,241 708,241 709,241 710,241 711,240 712,240 712,239 713,239 714,238 715,237 716,237 717,237 718,236 718,235 719,235 720,234 721,234 722,233 723,233 724,233 725,232 725,232 726,231 727,231 728,231 729,230 730,230 731,228 731,227 732,227 733,225 734,225 735,224 736,222 737,221 738,221 738,220 739,220 740,220 741,219 742,219 743,218 744,217 744,217 745,217 746,216 747,215 748,214 749,214 750,214 751,213 751,212 752,212 753,211 754,211 755,211 756,209 757,209 757,209 758,207 759,206 760,204 761,204 762,203 763,203 764,201 764,201 765,200 766,200 767,198 768,197 769,196 770,196 770,196 771,194 772,194 773,193 774,193 775,193 776,192 777,191 777,191 778,190 779,190 780,188 781,187 782,186 783,186 783,186 784,186 785,186 786,185 787,184 788,184 789,182 790,182 790,182 791,181 792,181 793,180 794,180 795,180 796,179 796,176 797,173 798,172 799,172 800,171 801,170 802,170 803,169 803,169 804,169 805,169 806,169 807,167 808,167 809,165 809,164 810,163 811,163 812,162 813,162 814,161 815,160 816,159 816,158 817,158 818,158 819,158 820,158 821,157 822,156 822,156 823,155 824,154 825,153 826,152 827,152 828,150 829,150 829,149 830,148 831,148 832,148 833,147 834,147 835,146 835,146 836,145 837,144 838,144 839,143 840,142 841,142 841,141 842,139 843,139 844,139 845,139 846,139 847,139 848,138 848,138 849,138 850,138 851,136 852,136 853,135 854,135 854,135 855,135 856,133 857,132 858,132 859,131 860,131 861,131 861,131 862,129 863,129 864,128 865,128 866,127 867,127 867,126 868,126 869,126 870,126 871,126 872,125 873,125 874,124 874,124 875,122 876,121 877,121 878,120 879,120 880,120 880,119 881,119 882,118 883,117 884,117 885,116 886,116 887,116 887,116 888,116 889,116 890,115 891,115 892,115 893,115 893,114 894,113 895,113 896,113 897,112 898,112 899,111 900,111 900,110 901,110 902,109 903,109 904,109 905,108 906,108 906,108 907,108 908,108 909,107 910,107 911,105 912,105 913,105 913,104 914,102 915,101 916,100 917,100 918,99 919,99 919,99 920,98 921,96 922,96 923,96 924,96 925,95 926,95 926,94 927,93 928,92 929,92 930,91 931,91 932,91 932,91 933,90 934,90 935,90 936,88 937,87 938,86 939,86 939,85 940,84 941,83 942,83 943,83 944,83 945,83 945,81 946,81 947,81 948,81 949,80 950,79 951,79 952,78 952,78 953,78 954,78 955,78 956,78 957,78 958,77 958,74 959,74 960,74 961,74 962,73 963,72 964,71 965,71 965,71 966,71 967,70 968,69 969,68 970,68 971,68 971,68 972,68 973,68 973,699 974,699 "/>
<line opacity="0.1" stroke="#000000" stroke-width="1" x1="85" y1="699" x2="85" y2="67"/>
<line opacity="0.1" stroke="#000000" stroke-width="1" x1="103" y1="699" x2="103" y2="67"/>
<line opacity="0.1" stroke="#000000" stroke-width="1" x1="121" y1="699" x2="121" y2="67"/>
<line opacity="0.1" stroke="#000000" stroke-width="1" x1="139" y1="699" x2="139" y2="67"/>
<line opacity="0.1" stroke="#000000" stroke-width="1" x1="157" y1="699" x2="157" y2="67"/>
<line opacity="0.1" stroke="#000000" stroke-width="1" x1="174" y1="699" x2="174" y2="67"/>
<line opacity="0.1" stroke="#000000" stroke-width="1" x1="192" y1="699" x2="192" y2="67"/>
<line opacity="0.1" stroke="#000000" stroke-width="1" x1="210" y1="699" x2="210" y2="67"/>
<line opacity="0.1" stroke="#000000" stroke-width="1" x1="228" y1="699" x2="228" y2="67"/>
<line opacity="0.1" stroke="#000000" stroke-width="1" x1="246" y1="699" x2="246" y2="67"/>
<line opacity="0.1" stroke="#000000" stroke-width="1" x1="264" y1="699" x2="264" y2="67"/>
<line opacity="0.1" stroke="#000000" stroke-width="1" x1="282" y1="699" x2="282" y2="67"/>
<line opacity="0.1" stroke="#000000" stroke-width="1" x1="300" y1="699" x2="300" y2="67"/>
<line opacity="0.1" stroke="#000000" stroke-width="1" x1="318" y1="699" x2="318" y2="67"/>
<line opacity="0.1" stroke="#000000" stroke-width="1" x1="336" y1="699" x2="336" y2="67"/>
<line opacity="0.1" stroke="#000000" stroke-width="1" x1="354" y1="699" x2="354" y2="67"/>
<line opacity="0.1" stroke="#000000" stroke-width="1" x1="372" y1="699" x2="372" y2="67"/>
<line opacity="0.1" stroke="#000000" stroke-width="1" x1="389" y1="699" x2="389" y2="67"/>
<line opacity="0.1" stroke="#000000" stroke-width="1" x1="407" y1="699" x2="407" y2="67"/>
<line opacity="0.1" stroke="#000000" stroke-width="1" x1="425" y1="699" x2="425" y2="67"/>
<line opacity="0.1" stroke="#000000" stroke-width="1" x1="443" y1="699" x2="443" y2="67"/>
<line opacity="0.1" stroke="#000000" stroke-width="1" x1="461" y1="699" x2="461" y2="67"/>
<line opacity="0.1" stroke="#000000" stroke-width="1" x1="479" y1="699" x2="479" y2="67"/>
<line opacity="0.1" stroke="#000000" stroke-width="1" x1="497" y1="699" x2="497" y2="67"/>
<line opacity="0.1" stroke="#000000" stroke-width="1" x1="515" y1="699" x2="515" y2="67"/>
<line opacity="0.1" stroke="#000000" stroke-width="1" x1="533" y1="699" x2="533" y2="67"/>
<line opacity="0.1" stroke="#000000" stroke-width="1" x1="551" y1="699" x2="551" y2="67"/>
<line opacity="0.1" stroke="#000000" stroke-width="1" x1="569" y1="699" x2="569" y2="67"/>
<line opacity="0.1" stroke="#000000" stroke-width="1" x1="587" y1="699" x2="587" y2="67"/>
<line opacity="0.1" stroke="#000000" stroke-width="1" x1="604" y1="699" x2="604" y2="67"/>
<line opacity="0.1" stroke="#000000" stroke-width="1" x1="622" y1="699" x2="622" y2="67"/>
<line opacity="0.1" stroke="#000000" stroke-width="1" x1="640" y1="699" x2="640" y2="67"/>
<line opacity="0.1" stroke="#000000" stroke-width="1" x1="658" y1="699" x2="658" y2="67"/>
<line opacity="0.1" stroke="#000000" stroke-width="1" x1="676" y1="699" x2="676" y2="67"/>
<line opacity="0.1" stroke="#000000" stroke-width="1" x1="694" y1="699" x2="694" y2="67"/>
<line opacity="0.1" stroke="#000000" stroke-width="1" x1="712" y1="699" x2="712" y2="67"/>
<line opacity="0.1" stroke="#000000" stroke-width="1" x1="730" y1="699" x2="730" y2="67"/>
<line opacity="0.1" stroke="#000000" stroke-width="1" x1="748" y1="699" x2="748" y2="67"/>
<line opacity="0.1" stroke="#000000" stroke-width="1" x1="766" y1="699" x2="766" y2="67"/>
<line opacity="0.1" stroke="#000000" stroke-width="1" x1="784" y1="699" x2="784" y2="67"/>
<line opacity="0.1" stroke="#000000" stroke-width="1" x1="802" y1="699" x2="802" y2="67"/>
<line opacity="0.1" stroke="#000000" stroke-width="1" x1="819" y1="699" x2="819" y2="67"/>
<line opacity="0.1" stroke="#000000" stroke-width="1" x1="837" y1="699" x2="837" y2="67"/>
<line opacity="0.1" stroke="#000000" stroke-width="1" x1="855" y1="699" x2="855" y2="67"/>
<line opacity="0.1" stroke="#000000" stroke-width="1" x1="873" y1="699" x2="873" y2="67"/>
<line opacity="0.1" stroke="#000000" stroke-width="1" x1="891" y1="699" x2="891" y2="67"/>
<line opacity="0.1" stroke="#000000" stroke-width="1" x1="909" y1="699" x2="909" y2="67"/>
<line opacity="0.1" stroke="#000000" stroke-width="1" x1="927" y1="699" x2="927" y2="67"/>
<line opacity="0.1" stroke="#000000" stroke-width="1" x1="945" y1="699" x2="945" y2="67"/>
<line opacity="0.1" stroke="#000000" stroke-width="1" x1="963" y1="699" x2="963" y2="67"/>
<line opacity="0.1" stroke="#000000" stroke-width="1" x1="78" y1="699" x2="974" y2="699"/>
<line opacity="0.1" stroke="#000000" stroke-width="1" x1="78" y1="692" x2="974" y2="692"/>
<line opacity="0.1" stroke="#000000" stroke-width="1" x1="78" y1="685" x2="974" y2="685"/>
<line opacity="0.1" stroke="#000000" stroke-width="1" x1="78" y1="678" x2="974" y2="678"/>
<line opacity="0.1" stroke="#000000" stroke-width="1" x1="78" y1="671" x2="974" y2="671"/>
<line opacity="0.1" stroke="#000000" stroke-width="1" x1="78" y1="665" x2="974" y2="665"/>
<line opacity="0.1" stroke="#000000" stroke-width="1" x1="78" y1="658" x2="974" y2="658"/>
<line opacity="0.1" stroke="#000000" stroke-width="1" x1="78" y1="651" x2="974" y2="651"/>
<line opacity="0.1" stroke="#000000" stroke-width="1" x1="78" y1="644" x2="974" y2="644"/>
<line opacity="0.1" stroke="#000000" stroke-width="1" x1="78" y1="638" x2="974" y2="638"/>
<line opacity="0.1" stroke="#000000" stroke-width="1" x1="78" y1="631" x2="974" y2="631"/>
<line opacity="0.1" stroke="#000000" stroke-width="1" x1="78" y1="624" x2="974" y2="624"/>
<line opacity="0.1" stroke="#000000" stroke-width="1" x1="78" y1="617" x2="974" y2="617"/>
<line opacity="0.1" stroke="#000000" stroke-width="1" x1="78" y1="611" x2="974" y2="611"/>
<line opacity="0.1" stroke="#000000" stroke-width="1" x1="78" y1="604" x2="974" y2="604"/>
<line opacity="0.1" stroke="#000000" stroke-width="1" x1="78" y1="597" x2="974" y2="597"/>
<line opacity="0.1" stroke="#000000" stroke-width="1" x1="78" y1="590" x2="974" y2="590"/>
<line opacity="0.1" stroke="#000000" stroke-width="1" x1="78" y1="584" x2="974" y2="584"/>
<line opacity="0.1" stroke="#000000" stroke-width="1" x1="78" y1="577" x2="974" y2="577"/>
<line opacity="0.1" stroke="#000000" stroke-width="1" x1="78" y1="570" x2="974" y2="570"/>
<line opacity="0.1" stroke="#000000" stroke-width="1" x1="78" y1="563" x2="974" y2="563"/>
<line opacity="0.1" stroke="#000000" stroke-width="1" x1="78" y1="557" x2="974" y2="557"/>
<line opacity="0.1" stroke="#000000" stroke-width="1" x1="78" y1="550" x2="974" y2="550"/>
<line opacity="0.1" stroke="#000000" stroke-width="1" x1="78" y1="543" x2="974" y2="543"/>
<line opacity="0.1" stroke="#000000" stroke-width="1" x1="78" y1="536" x2="974" y2="536"/>
<line opacity="0.1" stroke="#000000" stroke-width="1" x1="78" y1="530" x2="974" y2="530"/>
<line opacity="0.1" stroke="#000000" stroke-width="1" x1="78" y1="523" x2="974" y2="523"/>
<line opacity="0.1" stroke="#000000" stroke-width="1" x1="78" y1="516" x2="974" y2="516"/>
<line opacity="0.1" stroke="#000000" stroke-width="1" x1="78" y1="509" x2="974" y2="509"/>
<line opacity="0.1" stroke="#000000" stroke-width="1" x1="78" y1="503" x2="974" y2="503"/>
<line opacity="0.1" stroke="#000000" stroke-width="1" x1="78" y1="496" x2="974" y2="496"/>
<line opacity="0.1" stroke="#000000" stroke-width="1" x1="78" y1="489" x2="974" y2="489"/>
<line opacity="0.1" stroke="#000000" stroke-width="1" x1="78" y1="482" x2="974" y2="482"/>
<line opacity="0.1" stroke="#000000" stroke-width="1" x1="78" y1="475" x2="974" y2="475"/>
<line opacity="0.1" stroke="#000000" stroke-width="1" x1="78" y1="469" x2="974" y2="469"/>
<line opacity="0.1" stroke="#000000" stroke-width="1" x1="78" y1="462" x2="974" y2="462"/>
<line opacity="0.1" stroke="#000000" stroke-width="1" x1="78" y1="455" x2="974" y2="455"/>
<line opacity="0.1" stroke="#000000" stroke-width="1" x1="78" y1="448" x2="974" y2="448"/>
<line opacity="0.1" stroke="#000000" stroke-width="1" x1="78" y1="442" x2="974" y2="442"/>
<line opacity="0.1" stroke="#000000" stroke-width="1" x1="78" y1="435" x2="974" y2="435"/>
<line opacity="0.1" stroke="#000000" stroke-width="1" x1="78" y1="428" x2="974" y2="428"/>
<line opacity="0.1" stroke="#000000" stroke-width="1" x1="78" y1="421" x2="974" y2="421"/>
<line opacity="0.1" stroke="#000000" stroke-width="1" x1="78" y1="415" x2="974" y2="415"/>
<line opacity="0.1" stroke="#000000" stroke-width="1" x1="78" y1="408" x2="974" y2="408"/>
<line opacity="0.1" stroke="#000000" stroke-width="1" x1="78" y1="401" x2="974" y2="401"/>
<line opacity="0.1" stroke="#000000" stroke-width="1" x1="78" y1="394" x2="974" y2="394"/>
<line opacity="0.1" stroke="#000000" stroke-width="1" x1="78" y1="388" x2="974" y2="388"/>
<line opacity="0.1" stroke="#000000" stroke-width="1" x1="78" y1="381" x2="974" y2="381"/>
<line opacity="0.1" stroke="#000000" stroke-width="1" x1="78" y1="374" x2="974" y2="374"/>
<line opacity="0.1" stroke="#000000" stroke-width="1" x1="78" y1="367" x2="974" y2="367"/>
<line opacity="0.1" stroke="#000000" stroke-width="1" x1="78" y1="361" x2="974" y2="361"/>
<line opacity="0.1" stroke="#000000" stroke-width="1" x1="78" y1="354" x2="974" y2="354"/>
<line opacity="0.1" stroke="#000000" stroke-width="1" x1="78" y1="347" x2="974" y2="347"/>
<line opacity="0.1" stroke="#000000" stroke-width="1" x1="78" y1="340" x2="974" y2="340"/>
<line opacity="0.1" stroke="#000000" stroke-width="1" x1="78" y1="334" x2="974" y2="334"/>
<line opacity="0.1" stroke="#000000" stroke-width="1" x1="78" y1="327" x2="974" y2="327"/>
<line opacity="0.1" stroke="#000000" stroke-width="1" x1="78" y1="320" x2="974" y2="320"/>
<line opacity="0.1" stroke="#000000" stroke-width="1" x1="78" y1="313" x2="974" y2="313"/>
<line opacity="0.1" stroke="#000000" stroke-width="1" x1="78" y1="307" x2="974" y2="307"/>
<line opacity="0.1" stroke="#000000" stroke-width="1" x1="78" y1="300" x2="974" y2="300"/>
<line opacity="0.1" stroke="#000000" stroke-width="1" x1="78" y1="293" x2="974" y2="293"/>
<line opacity="0.1" stroke="#000000" stroke-width="1" x1="78" y1="286" x2="974" y2="286"/>
<line opacity="0.1" stroke="#000000" stroke-width="1" x1="78" y1="279" x2="974" y2="279"/>
<line opacity="0.1" stroke="#000000" stroke-width="1" x1="78" y1="273" x2="974" y2="273"/>
<line opacity="0.1" stroke="#000000" stroke-width="1" x1="78" y1="266" x2="974" y2="266"/>
<line opacity="0.1" stroke="#000000" stroke-width="1" x1="78" y1="259" x2="974" y2="259"/>
<line opacity="0.1" stroke="#000000" stroke-width="1" x1="78" y1="252" x2="974" y2="252"/>
<line opacity="0.1" stroke="#000000" stroke-width="1" x1="78" y1="246" x2="974" y2="246"/>
<line opacity="0.1" stroke="#000000" stroke-width="1" x1="78" y1="239" x2="974" y2="239"/>
<line opacity="0.1" stroke="#000000" stroke-width="1" x1="78" y1="232" x2="974" y2="232"/>
<line opacity="0.1" stroke="#000000" stroke-width="1" x1="78" y1="225" x2="974" y2="225"/>
<line opacity="0.1" stroke="#000000" stroke-width="1" x1="78" y1="219" x2="974" y2="219"/>
<line opacity="0.1" stroke="#000000" stroke-width="1" x1="78" y1="212" x2="974" y2="212"/>
<line opacity="0.1" stroke="#000000" stroke-width="1" x1="78" y1="205" x2="974" y2="205"/>
<line opacity="0.1" stroke="#000000" stroke-width="1" x1="78" y1="198" x2="974" y2="198"/>
<line opacity="0.1" stroke="#000000" stroke-width="1" x1="78" y1="192" x2="974" y2="192"/>
<line opacity="0.1" stroke="#000000" stroke-width="1" x1="78" y1="185" x2="974" y2="185"/>
<line opacity="0.1" stroke="#000000" stroke-width="1" x1="78" y1="178" x2="974" y2="178"/>
<line opacity="0.1" stroke="#000000" stroke-width="1" x1="78" y1="171" x2="974" y2="171"/>
<line opacity="0.1" stroke="#000000" stroke-width="1" x1="78" y1="165" x2="974" y2="165"/>
<line opacity="0.1" stroke="#000000" stroke-width="1" x1="78" y1="158" x2="974" y2="158"/>
<line opacity="0.1" stroke="#000000" stroke-width="1" x1="78" y1="151" x2="974" y2="151"/>
<line opacity="0.1" stroke="#000000" stroke-width="1" x1="78" y1="144" x2="974" y2="144"/>
<line opacity="0.1" stroke="#000000" stroke-width="1" x1="78" y1="138" x2="974" y2="138"/>
<line opacity="0.1" stroke="#000000" stroke-width="1" x1="78" y1="131" x2="974" y2="131"/>
<line opacity="0.1" stroke="#000000" stroke-width="1" x1="78" y1="124" x2="974" y2="124"/>
<line opacity="0.1" stroke="#000000" stroke-width="1" x1="78" y1="117" x2="974" y2="117"/>
<line opacity="0.1" stroke="#000000" stroke-width="1" x1="78" y1="111" x2="974" y2="111"/>
<line opacity="0.1" stroke="#000000" stroke-width="1" x1="78" y1="104" x2="974" y2="104"/>
<line opacity="0.1" stroke="#000000" stroke-width="1" x1="78" y1="97" x2="974" y2="97"/>
<line opacity="0.1" stroke="#000000" stroke-width="1" x1="78" y1="90" x2="974" y2="90"/>
<line opacity="0.1" stroke="#000000" stroke-width="1" x1="78" y1="83" x2="974" y2="83"/>
<line opacity="0.1" stroke="#000000" stroke-width="1" x1="78" y1="77" x2="974" y2="77"/>
<line opacity="0.1" stroke="#000000" stroke-width="1" x1="78" y1="70" x2="974" y2="70"/>
<text x="8" y="384" dy="0.76em" text-anchor="middle" font-family="sans-serif" font-size="9.67741935483871" opacity="1" fill="#000000" transform="rotate(270, 8, 384)">
Memory usage
</text>
<text x="526" y="760" dy="-0.5ex" text-anchor="middle" font-family="sans-serif" font-size="9.67741935483871" opacity="1" fill="#000000">
Time
</text>
<line opacity="0.2" stroke="#000000" stroke-width="1" x1="192" y1="699" x2="192" y2="67"/>
<line opacity="0.2" stroke="#000000" stroke-width="1" x1="372" y1="699" x2="372" y2="67"/>
<line opacity="0.2" stroke="#000000" stroke-width="1" x1="551" y1="699" x2="551" y2="67"/>
<line opacity="0.2" stroke="#000000" stroke-width="1" x1="730" y1="699" x2="730" y2="67"/>
<line opacity="0.2" stroke="#000000" stroke-width="1" x1="909" y1="699" x2="909" y2="67"/>
<line opacity="0.2" stroke="#000000" stroke-width="1" x1="78" y1="699" x2="974" y2="699"/>
<line opacity="0.2" stroke="#000000" stroke-width="1" x1="78" y1="631" x2="974" y2="631"/>
<line opacity="0.2" stroke="#000000" stroke-width="1" x1="78" y1="563" x2="974" y2="563"/>
<line opacity="0.2" stroke="#000000" stroke-width="1" x1="78" y1="496" x2="974" y2="496"/>
<line opacity="0.2" stroke="#000000" stroke-width="1" x1="78" y1="428" x2="974" y2="428"/>
<line opacity="0.2" stroke="#000000" stroke-width="1" x1="78" y1="361" x2="974" y2="361"/>
<line opacity="0.2" stroke="#000000" stroke-width="1" x1="78" y1="293" x2="974" y2="293"/>
<line opacity="0.2" stroke="#000000" stroke-width="1" x1="78" y1="225" x2="974" y2="225"/>
<line opacity="0.2" stroke="#000000" stroke-width="1" x1="78" y1="158" x2="974" y2="158"/>
<line opacity="0.2" stroke="#000000" stroke-width="1" x1="78" y1="90" x2="974" y2="90"/>
<polyline fill="none" opacity="1" stroke="#000000" stroke-width="1" points="77,68 77,700 "/>
<text x="68" y="699" dy="0.5ex" text-anchor="end" font-family="sans-serif" font-size="9.67741935483871" opacity="1" fill="#000000">
0.0 KB
</text>
<polyline fill="none" opacity="1" stroke="#000000" stroke-width="1" points="72,699 77,699 "/>
<text x="68" y="631" dy="0.5ex" text-anchor="end" font-family="sans-serif" font-size="9.67741935483871" opacity="1" fill="#000000">
9.8 KB
</text>
<polyline fill="none" opacity="1" stroke="#000000" stroke-width="1" points="72,631 77,631 "/>
<text x="68" y="563" dy="0.5ex" text-anchor="end" font-family="sans-serif" font-size="9.67741935483871" opacity="1" fill="#000000">
19.5 KB
</text>
<polyline fill="none" opacity="1" stroke="#000000" stroke-width="1" points="72,563 77,563 "/>
<text x="68" y="496" dy="0.5ex" text-anchor="end" font-family="sans-serif" font-size="9.67741935483871" opacity="1" fill="#000000">
29.3 KB
</text>
<polyline fill="none" opacity="1" stroke="#000000" stroke-width="1" points="72,496 77,496 "/>
<text x="68" y="428" dy="0.5ex" text-anchor="end" font-family="sans-serif" font-size="9.67741935483871" opacity="1" fill="#000000">
39.1 KB
</text>
<polyline fill="none" opacity="1" stroke="#000000" stroke-width="1" points="72,428 77,428 "/>
<text x="68" y="361" dy="0.5ex" text-anchor="end" font-family="sans-serif" font-size="9.67741935483871" opacity="1" fill="#000000">
48.8 KB
</text>
<polyline fill="none" opacity="1" stroke="#000000" stroke-width="1" points="72,361 77,361 "/>
<text x="68" y="293" dy="0.5ex" text-anchor="end" font-family="sans-serif" font-size="9.67741935483871" opacity="1" fill="#000000">
58.6 KB
</text>
<polyline fill="none" opacity="1" stroke="#000000" stroke-width="1" points="72,293 77,293 "/>
<text x="68" y="225" dy="0.5ex" text-anchor="end" font-family="sans-serif" font-size="9.67741935483871" opacity="1" fill="#000000">
68.4 KB
</text>
<polyline fill="none" opacity="1" stroke="#000000" stroke-width="1" points="72,225 77,225 "/>
<text x="68" y="158" dy="0.5ex" text-anchor="end" font-family="sans-serif" font-size="9.67741935483871" opacity="1" fill="#000000">
78.1 KB
</text>
<polyline fill="none" opacity="1" stroke="#000000" stroke-width="1" points="72,158 77,158 "/>
<text x="68" y="90" dy="0.5ex" text-anchor="end" font-family="sans-serif" font-size="9.67741935483871" opacity="1" fill="#000000">
87.9 KB
</text>
<polyline fill="none" opacity="1" stroke="#000000" stroke-width="1" points="72,90 77,90 "/>
<polyline fill="none" opacity="1" stroke="#000000" stroke-width="1" points="78,700 974,700 "/>
<text x="192" y="710" dy="0.76em" text-anchor="middle" font-family="sans-serif" font-size="9.67741935483871" opacity="1" fill="#000000">
06:26:08
</text>
<polyline fill="none" opacity="1" stroke="#000000" stroke-width="1" points="192,700 192,705 "/>
<text x="372" y="710" dy="0.76em" text-anchor="middle" font-family="sans-serif" font-size="9.67741935483871" opacity="1" fill="#000000">
06:26:10
</text>
<polyline fill="none" opacity="1" stroke="#000000" stroke-width="1" points="372,700 372,705 "/>
<text x="551" y="710" dy="0.76em" text-anchor="middle" font-family="sans-serif" font-size="9.67741935483871" opacity="1" fill="#000000">
06:26:12
</text>
<polyline fill="none" opacity="1" stroke="#000000" stroke-width="1" points="551,700 551,705 "/>
<text x="730" y="710" dy="0.76em" text-anchor="middle" font-family="sans-serif" font-size="9.67741935483871" opacity="1" fill="#000000">
06:26:14
</text>
<polyline fill="none" opacity="1" stroke="#000000" stroke-width="1" points="730,700 730,705 "/>
<text x="909" y="710" dy="0.76em" text-anchor="middle" font-family="sans-serif" font-size="9.67741935483871" opacity="1" fill="#000000">
06:26:16
</text>
<polyline fill="none" opacity="1" stroke="#000000" stroke-width="1" points="909,700 909,705 "/>
<polyline fill="none" opacity="1" stroke="#000000" stroke-width="1" points="78,67 974,67 "/>
<text x="192" y="58" dy="-0.5ex" text-anchor="middle" font-family="sans-serif" font-size="9.67741935483871" opacity="1" fill="#000000">
+1s
</text>
<polyline fill="none" opacity="1" stroke="#000000" stroke-width="1" points="192,62 192,67 "/>
<text x="372" y="58" dy="-0.5ex" text-anchor="middle" font-family="sans-serif" font-size="9.67741935483871" opacity="1" fill="#000000">
+3s
</text>
<polyline fill="none" opacity="1" stroke="#000000" stroke-width="1" points="372,62 372,67 "/>
<text x="551" y="58" dy="-0.5ex" text-anchor="middle" font-family="sans-serif" font-size="9.67741935483871" opacity="1" fill="#000000">
+5s
</text>
<polyline fill="none" opacity="1" stroke="#000000" stroke-width="1" points="551,62 551,67 "/>
<text x="730" y="58" dy="-0.5ex" text-anchor="middle" font-family="sans-serif" font-size="9.67741935483871" opacity="1" fill="#000000">
+7s
</text>
<polyline fill="none" opacity="1" stroke="#000000" stroke-width="1" points="730,62 730,67 "/>
<text x="909" y="58" dy="-0.5ex" text-anchor="middle" font-family="sans-serif" font-size="9.67741935483871" opacity="1" fill="#000000">
+9s
</text>
<polyline fill="none" opacity="1" stroke="#000000" stroke-width="1" points="909,62 909,67 "/>
<rect x="83" y="73" width="170" height="45" opacity="0.75" fill="#FFFFFF" stroke="none"/>
<rect x="83" y="73" width="170" height="45" opacity="1" fill="none" stroke="#000000"/>
<text x="123" y="83" dy="0.76em" text-anchor="start" font-family="sans-serif" font-size="9.67741935483871" opacity="1" fill="#000000">
Deallocated before 98%
</text>
<text x="123" y="98" dy="0.76em" text-anchor="start" font-family="sans-serif" font-size="9.67741935483871" opacity="1" fill="#000000">
Deallocated after 98%
</text>
<rect x="93" y="83" width="10" height="10" opacity="1" fill="#3CB44B" stroke="none"/>
<rect x="93" y="98" width="10" height="10" opacity="1" fill="#E6194B" stroke="none"/>
</svg>
