<svg width="1024" height="768" viewBox="0 0 1024 768" xmlns="http://www.w3.org/2000/svg">
<rect x="0" y="0" width="1024" height="768" opacity="1" fill="#FFFFFF" stroke="none"/>
<polygon opacity="1" fill="#FFE119" points="973,699 973,699 973,699 "/>
<polyline fill="none" opacity="1" stroke="#FFE119" stroke-width="1" points="973,699 "/>
<polygon opacity="1" fill="#3CB44B" points="78,698 78,692 79,684 80,684 81,680 82,683 83,684 84,687 85,685 86,686 86,688 87,685 88,686 89,667 90,671 91,664 92,658 93,664 94,663 95,663 95,666 96,673 97,673 98,674 99,676 100,676 101,678 102,676 103,680 103,678 104,676 105,676 106,674 107,674 108,675 109,668 110,666 111,660 112,655 112,658 113,661 114,667 115,667 116,664 117,655 118,651 119,640 120,637 120,647 121,656 122,659 123,660 124,659 125,651 126,645 127,640 128,637 129,637 129,636 130,637 131,645 132,644 133,641 134,636 135,634 136,634 137,638 137,632 138,623 139,619 140,618 141,619 142,612 143,609 144,603 145,599 146,600 146,595 147,586 148,584 149,582 150,572 151,569 152,568 153,576 154,571 154,568 155,566 156,568 157,569 158,562 159,561 160,555 161,555 162,561 163,563 163,561 164,555 165,551 166,551 167,549 168,541 169,534 170,541 171,537 171,539 172,545 173,544 174,549 175,543 176,533 177,530 178,530 179,531 180,532 180,530 181,530 182,527 183,520 184,521 185,525 186,532 187,532 188,533 188,523 189,519 190,516 191,515 192,518 193,520 194,514 195,515 196,518 197,517 197,509 198,508 199,507 200,503 201,504 202,510 203,508 204,502 205,500 205,499 206,501 207,503 208,501 209,506 210,511 211,515 212,520 213,521 214,512 214,509 215,499 216,501 217,520 218,524 219,521 220,515 221,525 222,523 222,520 223,522 224,519 225,506 226,503 227,507 228,506 229,506 230,513 231,517 231,521 232,514 233,515 234,512 235,513 236,519 237,518 238,514 239,518 239,517 240,519 241,520 242,514 243,512 244,510 245,503 246,504 247,510 248,509 248,516 249,513 250,518 251,517 252,520 253,515 254,517 255,518 256,516 257,508 257,504 258,511 259,510 260,512 261,505 262,499 263,499 264,504 265,502 265,508 266,502 267,494 268,494 269,497 270,494 271,498 272,498 273,491 274,488 274,485 275,488 276,490 277,485 278,483 279,485 280,486 281,490 282,488 282,490 283,488 284,479 285,479 286,479 287,484 288,486 289,480 290,482 291,486 291,488 292,487 293,496 294,499 295,492 296,491 297,489 298,481 299,479 299,482 300,485 301,483 302,474 303,477 304,481 305,481 306,490 307,488 308,489 308,494 309,494 310,499 311,496 312,493 313,491 314,487 315,490 316,487 316,489 317,489 318,489 319,479 320,474 321,469 322,468 323,464 324,461 325,465 325,464 326,456 327,451 328,442 329,442 330,453 331,457 332,457 333,458 333,458 334,453 335,453 336,445 337,449 338,454 339,454 340,458 341,452 342,450 342,456 343,458 344,459 345,462 346,463 347,469 348,469 349,474 350,472 350,471 351,467 352,466 353,469 354,471 355,474 356,474 357,474 358,481 359,492 359,484 360,489 361,491 362,485 363,487 364,492 365,488 366,487 367,482 367,477 368,478 369,476 370,482 371,485 372,480 373,479 374,472 375,471 376,473 376,475 377,478 378,481 379,479 380,476 381,473 382,467 383,462 384,461 384,464 385,468 386,463 387,467 388,465 389,466 390,461 391,454 392,450 393,448 393,439 394,441 395,448 396,454 397,463 398,464 399,476 400,472 401,473 401,461 402,462 403,479 404,477 405,471 406,471 407,460 408,456 409,456 410,459 410,465 411,462 412,461 413,464 414,473 415,471 416,467 417,466 418,467 418,468 419,467 420,476 421,472 422,468 423,472 424,477 425,474 426,468 427,470 427,462 428,467 429,463 430,465 431,467 432,469 433,458 434,455 435,458 436,445 436,441 437,437 438,438 439,430 440,429 441,432 442,432 443,430 444,429 444,435 445,435 446,428 447,422 448,424 449,421 450,427 451,429 452,431 453,429 453,431 454,432 455,440 456,430 457,433 458,418 459,418 460,417 461,419 461,414 462,410 463,409 464,408 465,411 466,412 467,416 468,408 469,402 470,401 470,405 471,405 472,397 473,396 474,398 475,401 476,409 477,404 478,398 478,397 479,397 480,398 481,409 482,409 483,411 484,411 485,413 486,415 487,417 487,418 488,412 489,415 490,416 491,418 492,420 493,411 494,410 495,415 495,413 496,415 497,411 498,409 499,417 500,413 501,411 502,411 503,420 504,417 504,415 505,415 506,408 507,410 508,413 509,405 510,405 511,404 512,399 512,399 513,401 514,400 515,399 516,405 517,403 518,400 519,398 520,408 521,395 521,399 522,397 523,402 524,405 525,399 526,398 527,404 528,411 529,419 529,418 530,413 531,413 532,413 533,415 534,415 535,421 536,420 537,422 538,429 538,428 539,424 540,422 541,422 542,419 543,422 544,423 545,421 546,418 546,424 547,421 548,417 549,418 550,421 551,422 552,430 553,435 554,434 555,436 555,427 556,427 557,430 558,429 559,429 560,430 561,428 562,421 563,422 563,429 564,429 565,426 566,428 567,428 568,431 569,430 570,426 571,422 572,426 572,427 573,415 574,414 575,412 576,417 577,411 578,406 579,400 580,396 580,403 581,404 582,401 583,398 584,403 585,401 586,399 587,406 588,403 589,391 589,391 590,388 591,397 592,400 593,405 594,401 595,400 596,404 597,396 597,392 598,396 599,395 600,403 601,403 602,401 603,398 604,398 605,395 606,393 606,383 607,377 608,379 609,376 610,374 611,369 612,368 613,380 614,378 615,377 615,379 616,377 617,370 618,366 619,377 620,375 621,372 622,372 623,380 623,376 624,355 625,357 626,356 627,361 628,362 629,360 630,356 631,364 632,357 632,353 633,353 634,355 635,364 636,366 637,361 638,360 639,359 640,363 640,364 641,364 642,361 643,366 644,363 645,367 646,365 647,368 648,368 649,358 649,354 650,353 651,348 652,343 653,340 654,343 655,342 656,342 657,339 657,340 658,342 659,342 660,339 661,337 662,340 663,344 664,338 665,333 666,331 666,332 667,332 668,331 669,333 670,330 671,329 672,328 673,326 674,328 674,328 675,324 676,320 677,325 678,324 679,330 680,331 681,327 682,322 683,320 683,320 684,319 685,319 686,310 687,299 688,302 689,301 690,300 691,302 691,299 692,300 693,296 694,299 695,288 696,287 697,295 698,288 699,288 700,298 700,309 701,309 702,310 703,312 704,322 705,317 706,316 707,311 708,307 708,305 709,309 710,307 711,305 712,300 713,295 714,287 715,288 716,294 717,305 717,307 718,309 719,301 720,300 721,295 722,290 723,288 724,287 725,288 725,287 726,284 727,284 728,285 729,282 730,280 731,278 732,275 733,280 734,284 734,280 735,272 736,272 737,272 738,277 739,272 740,275 741,280 742,283 742,284 743,287 744,287 745,282 746,282 747,280 748,273 749,265 750,266 751,271 751,273 752,273 753,280 754,281 755,275 756,279 757,282 758,285 759,293 759,303 760,294 761,285 762,282 763,275 764,265 765,263 766,265 767,263 768,261 768,264 769,266 770,271 771,265 772,269 773,265 774,266 775,261 776,256 776,252 777,249 778,249 779,250 780,256 781,254 782,254 783,261 784,264 785,266 785,264 786,252 787,250 788,262 789,263 790,258 791,254 792,249 793,251 794,244 794,239 795,240 796,237 797,229 798,231 799,232 800,227 801,228 802,230 802,240 803,244 804,242 805,248 806,244 807,248 808,250 809,252 810,248 811,248 811,247 812,251 813,240 814,235 815,233 816,239 817,236 818,227 819,226 819,233 820,240 821,235 822,234 823,233 824,233 825,221 826,218 827,225 828,229 828,232 829,228 830,228 831,225 832,222 833,219 834,212 835,204 836,198 836,196 837,189 838,186 839,187 840,189 841,201 842,206 843,200 844,198 845,190 845,189 846,189 847,196 848,193 849,187 850,196 851,194 852,189 853,190 853,172 854,174 855,175 856,174 857,170 858,160 859,160 860,159 861,158 862,159 862,169 863,172 864,177 865,178 866,177 867,174 868,168 869,170 870,156 870,151 871,154 872,160 873,159 874,164 875,161 876,150 877,151 878,157 879,157 879,154 880,155 881,153 882,151 883,156 884,156 885,162 886,156 887,153 887,148 888,149 889,144 890,148 891,148 892,145 893,137 894,138 895,148 896,134 896,133 897,138 898,140 899,144 900,145 901,146 902,153 903,153 904,150 904,142 905,151 906,162 907,165 908,163 909,159 910,155 911,150 912,146 913,141 913,139 914,136 915,125 916,123 917,135 918,136 919,135 920,141 921,140 921,142 922,142 923,141 924,139 925,127 926,126 927,125 928,129 929,133 930,137 930,132 931,128 932,116 933,118 934,117 935,122 936,130 937,118 938,114 938,110 939,104 940,105 941,110 942,118 943,117 944,121 945,121 946,114 947,104 947,103 948,98 949,96 950,97 951,97 952,104 953,106 954,102 955,98 955,98 956,105 957,111 958,109 959,94 960,86 961,80 962,71 963,71 964,72 964,70 965,68 966,68 967,76 968,76 969,84 970,91 971,82 972,74 973,75 973,459 973,459 973,699 78,699 "/>
<polyline fill="none" opacity="1" stroke="#3CB44B" stroke-width="1" points="78,698 78,692 79,684 80,684 81,680 82,683 83,684 84,687 85,685 86,686 86,688 87,685 88,686 89,667 90,671 91,664 92,658 93,664 94,663 95,663 95,666 96,673 97,673 98,674 99,676 100,676 101,678 102,676 103,680 103,678 104,676 105,676 106,674 107,674 108,675 109,668 110,666 111,660 112,655 112,658 113,661 114,667 115,667 116,664 117,655 118,651 119,640 120,637 120,647 121,656 122,659 123,660 124,659 125,651 126,645 127,640 128,637 129,637 129,636 130,637 131,645 132,644 133,641 134,636 135,634 136,634 137,638 137,632 138,623 139,619 140,618 141,619 142,612 143,609 144,603 145,599 146,600 146,595 147,586 148,584 149,582 150,572 151,569 152,568 153,576 154,571 154,568 155,566 156,568 157,569 158,562 159,561 160,555 161,555 162,561 163,563 163,561 164,555 165,551 166,551 167,549 168,541 169,534 170,541 171,537 171,539 172,545 173,544 174,549 175,543 176,533 177,530 178,530 179,531 180,532 180,530 181,530 182,527 183,520 184,521 185,525 186,532 187,532 188,533 188,523 189,519 190,516 191,515 192,518 193,520 194,514 195,515 196,518 197,517 197,509 198,508 199,507 200,503 201,504 202,510 203,508 204,502 205,500 205,499 206,501 207,503 208,501 209,506 210,511 211,515 212,520 213,521 214,512 214,509 215,499 216,501 217,520 218,524 219,521 220,515 221,525 222,523 222,520 223,522 224,519 225,506 226,503 227,507 228,506 229,506 230,513 231,517 231,521 232,514 233,515 234,512 235,513 236,519 237,518 238,514 239,518 239,517 240,519 241,520 242,514 243,512 244,510 245,503 246,504 247,510 248,509 248,516 249,513 250,518 251,517 252,520 253,515 254,517 255,518 256,516 257,508 257,504 258,511 259,510 260,512 261,505 262,499 263,499 264,504 265,502 265,508 266,502 267,494 268,494 269,497 270,494 271,498 272,498 273,491 274,488 274,485 275,488 276,490 277,485 278,483 279,485 280,486 281,490 282,488 282,490 283,488 284,479 285,479 286,479 287,484 288,486 289,480 290,482 291,486 291,488 292,487 293,496 294,499 295,492 296,491 297,489 298,481 299,479 299,482 300,485 301,483 302,474 303,477 304,481 305,481 306,490 307,488 308,489 308,494 309,494 310,499 311,496 312,493 313,491 314,487 315,490 316,487 316,489 317,489 318,489 319,479 320,474 321,469 322,468 323,464 324,461 325,465 325,464 326,456 327,451 328,442 329,442 330,453 331,457 332,457 333,458 333,458 334,453 335,453 336,445 337,449 338,454 339,454 340,458 341,452 342,450 342,456 343,458 344,459 345,462 346,463 347,469 348,469 349,474 350,472 350,471 351,467 352,466 353,469 354,471 355,474 356,474 357,474 358,481 359,492 359,484 360,489 361,491 362,485 363,487 364,492 365,488 366,487 367,482 367,477 368,478 369,476 370,482 371,485 372,480 373,479 374,472 375,471 376,473 376,475 377,478 378,481 379,479 380,476 381,473 382,467 383,462 384,461 384,464 385,468 386,463 387,467 388,465 389,466 390,461 391,454 392,450 393,448 393,439 394,441 395,448 396,454 397,463 398,464 399,476 400,472 401,473 401,461 402,462 403,479 404,477 405,471 406,471 407,460 408,456 409,456 410,459 410,465 411,462 412,461 413,464 414,473 415,471 416,467 417,466 418,467 418,468 419,467 420,476 421,472 422,468 423,472 424,477 425,474 426,468 427,470 427,462 428,467 429,463 430,465 431,467 432,469 433,458 434,455 435,458 436,445 436,441 437,437 438,438 439,430 440,429 441,432 442,432 443,430 444,429 444,435 445,435 446,428 447,422 448,424 449,421 450,427 451,429 452,431 453,429 453,431 454,432 455,440 456,430 457,433 458,418 459,418 460,417 461,419 461,414 462,410 463,409 464,408 465,411 466,412 467,416 468,408 469,402 470,401 470,405 471,405 472,397 473,396 474,398 475,401 476,409 477,404 478,398 478,397 479,397 480,398 481,409 482,409 483,411 484,411 485,413 486,415 487,417 487,418 488,412 489,415 490,416 491,418 492,420 493,411 494,410 495,415 495,413 496,415 497,411 498,409 499,417 500,413 501,411 502,411 503,420 504,417 504,415 505,415 506,408 507,410 508,413 509,405 510,405 511,404 512,399 512,399 513,401 514,400 515,399 516,405 517,403 518,400 519,398 520,408 521,395 521,399 522,397 523,402 524,405 525,399 526,398 527,404 528,411 529,419 529,418 530,413 531,413 532,413 533,415 534,415 535,421 536,420 537,422 538,429 538,428 539,424 540,422 541,422 542,419 543,422 544,423 545,421 546,418 546,424 547,421 548,417 549,418 550,421 551,422 552,430 553,435 554,434 555,436 555,427 556,427 557,430 558,429 559,429 560,430 561,428 562,421 563,422 563,429 564,429 565,426 566,428 567,428 568,431 569,430 570,426 571,422 572,426 572,427 573,415 574,414 575,412 576,417 577,411 578,406 579,400 580,396 580,403 581,404 582,401 583,398 584,403 585,401 586,399 587,406 588,403 589,391 589,391 590,388 591,397 592,400 593,405 594,401 595,400 596,404 597,396 597,392 598,396 599,395 600,403 601,403 602,401 603,398 604,398 605,395 606,393 606,383 607,377 608,379 609,376 610,374 611,369 612,368 613,380 614,378 615,377 615,379 616,377 617,370 618,366 619,377 620,375 621,372 622,372 623,380 623,376 624,355 625,357 626,356 627,361 628,362 629,360 630,356 631,364 632,357 632,353 633,353 634,355 635,364 636,366 637,361 638,360 639,359 640,363 640,364 641,364 642,361 643,366 644,363 645,367 646,365 647,368 648,368 649,358 649,354 650,353 651,348 652,343 653,340 654,343 655,342 656,342 657,339 657,340 658,342 659,342 660,339 661,337 662,340 663,344 664,338 665,333 666,331 666,332 667,332 668,331 669,333 670,330 671,329 672,328 673,326 674,328 674,328 675,324 676,320 677,325 678,324 679,330 680,331 681,327 682,322 683,320 683,320 684,319 685,319 686,310 687,299 688,302 689,301 690,300 691,302 691,299 692,300 693,296 694,299 695,288 696,287 697,295 698,288 699,288 700,298 700,309 701,309 702,310 703,312 704,322 705,317 706,316 707,311 708,307 708,305 709,309 710,307 711,305 712,300 713,295 714,287 715,288 716,294 717,305 717,307 718,309 719,301 720,300 721,295 722,290 723,288 724,287 725,288 725,287 726,284 727,284 728,285 729,282 730,280 731,278 732,275 733,280 734,284 734,280 735,272 736,272 737,272 738,277 739,272 740,275 741,280 742,283 742,284 743,287 744,287 745,282 746,282 747,280 748,273 749,265 750,266 751,271 751,273 752,273 753,280 754,281 755,275 756,279 757,282 758,285 759,293 759,303 760,294 761,285 762,282 763,275 764,265 765,263 766,265 767,263 768,261 768,264 769,266 770,271 771,265 772,269 773,265 774,266 775,261 776,256 776,252 777,249 778,249 779,250 780,256 781,254 782,254 783,261 784,264 785,266 785,264 786,252 787,250 788,262 789,263 790,258 791,254 792,249 793,251 794,244 794,239 795,240 796,237 797,229 798,231 799,232 800,227 801,228 802,230 802,240 803,244 804,242 805,248 806,244 807,248 808,250 809,252 810,248 811,248 811,247 812,251 813,240 814,235 815,233 816,239 817,236 818,227 819,226 819,233 820,240 821,235 822,234 823,233 824,233 825,221 826,218 827,225 828,229 828,232 829,228 830,228 831,225 832,222 833,219 834,212 835,204 836,198 836,196 837,189 838,186 839,187 840,189 841,201 842,206 843,200 844,198 845,190 845,189 846,189 847,196 848,193 849,187 850,196 851,194 852,189 853,190 853,172 854,174 855,175 856,174 857,170 858,160 859,160 860,159 861,158 862,159 862,169 863,172 864,177 865,178 866,177 867,174 868,168 869,170 870,156 870,151 871,154 872,160 873,159 874,164 875,161 876,150 877,151 878,157 879,157 879,154 880,155 881,153 882,151 883,156 884,156 885,162 886,156 887,153 887,148 888,149 889,144 890,148 891,148 892,145 893,137 894,138 895,148 896,134 896,133 897,138 898,140 899,144 900,145 901,146 902,153 903,153 904,150 904,142 905,151 906,162 907,165 908,163 909,159 910,155 911,150 912,146 913,141 913,139 914,136 915,125 916,123 917,135 918,136 919,135 920,141 921,140 921,142 922,142 923,141 924,139 925,127 926,126 927,125 928,129 929,133 930,137 930,132 931,128 932,116 933,118 934,117 935,122 936,130 937,118 938,114 938,110 939,104 940,105 941,110 942,118 943,117 944,121 945,121 946,114 947,104 947,103 948,98 949,96 950,97 951,97 952,104 953,106 954,102 955,98 955,98 956,105 957,111 958,109 959,94 960,86 961,80 962,71 963,71 964,72 964,70 965,68 966,68 967,76 968,76 969,84 970,91 971,82 972,74 973,75 973,459 973,459 "/>
<polygon opacity="1" fill="#E6194B" points="78,699 78,698 79,698 80,698 81,698 82,697 83,697 84,697 85,696 86,696 86,696 87,696 88,696 89,696 90,695 91,694 92,694 93,694 94,693 95,693 95,693 96,693 97,693 98,693 99,692 100,692 101,692 102,692 103,692 103,692 104,691 105,691 106,691 107,691 108,691 109,690 110,690 111,690 112,690 112,690 113,689 114,689 115,689 116,689 117,689 118,689 119,689 120,689 120,689 121,688 122,688 123,688 124,688 125,688 126,688 127,688 128,688 129,688 129,687 130,687 131,687 132,687 133,687 134,687 135,686 136,686 137,686 137,686 138,686 139,686 140,686 141,685 142,685 143,685 144,685 145,684 146,684 146,684 147,684 148,684 149,684 150,683 151,683 152,683 153,683 154,683 154,683 155,683 156,682 157,682 158,682 159,682 160,682 161,682 162,681 163,681 163,681 164,681 165,681 166,681 167,681 168,680 169,680 170,680 171,679 171,679 172,678 173,678 174,678 175,678 176,678 177,677 178,677 179,677 180,677 180,677 181,676 182,676 183,676 184,676 185,675 186,675 187,675 188,674 188,674 189,674 190,674 191,674 192,673 193,673 194,673 195,673 196,672 197,672 197,672 198,672 199,671 200,671 201,671 202,671 203,671 204,670 205,670 205,669 206,669 207,669 208,669 209,669 210,669 211,668 212,668 213,668 214,668 214,668 215,667 216,667 217,667 218,666 219,666 220,666 221,665 222,665 222,665 223,665 224,665 225,665 226,665 227,664 228,664 229,664 230,664 231,664 231,663 232,663 233,663 234,663 235,662 236,662 237,662 238,662 239,662 239,661 240,661 241,661 242,660 243,660 244,660 245,660 246,659 247,659 248,659 248,658 249,658 250,658 251,658 252,658 253,657 254,657 255,657 256,656 257,656 257,656 258,656 259,656 260,655 261,655 262,655 263,654 264,654 265,654 265,654 266,654 267,653 268,652 269,652 270,652 271,652 272,651 273,651 274,651 274,651 275,651 276,651 277,650 278,650 279,650 280,649 281,649 282,649 282,649 283,648 284,648 285,648 286,648 287,648 288,648 289,648 290,647 291,647 291,646 292,646 293,646 294,646 295,646 296,646 297,646 298,645 299,645 299,645 300,645 301,645 302,645 303,645 304,645 305,644 306,644 307,644 308,644 308,643 309,643 310,643 311,643 312,643 313,643 314,643 315,643 316,643 316,642 317,642 318,642 319,642 320,642 321,641 322,641 323,641 324,640 325,639 325,639 326,639 327,639 328,639 329,638 330,638 331,638 332,638 333,637 333,637 334,637 335,637 336,637 337,637 338,637 339,636 340,636 341,636 342,636 342,636 343,635 344,635 345,635 346,635 347,635 348,635 349,635 350,634 350,634 351,634 352,634 353,634 354,634 355,633 356,633 357,632 358,632 359,632 359,632 360,632 361,631 362,631 363,630 364,630 365,629 366,629 367,629 367,629 368,629 369,629 370,628 371,628 372,628 373,627 374,627 375,627 376,627 376,626 377,626 378,625 379,625 380,625 381,625 382,625 383,624 384,624 384,624 385,623 386,623 387,623 388,622 389,622 390,622 391,622 392,622 393,622 393,622 394,621 395,621 396,621 397,620 398,620 399,620 400,620 401,620 401,620 402,620 403,619 404,619 405,618 406,618 407,618 408,617 409,617 410,617 410,617 411,617 412,617 413,617 414,616 415,616 416,616 417,616 418,616 418,615 419,615 420,615 421,614 422,614 423,614 424,614 425,613 426,613 427,613 427,612 428,612 429,612 430,611 431,611 432,611 433,610 434,610 435,609 436,609 436,608 437,608 438,608 439,607 440,607 441,606 442,606 443,606 444,605 444,605 445,605 446,605 447,604 448,604 449,604 450,603 451,603 452,602 453,602 453,602 454,602 455,602 456,601 457,601 458,600 459,600 460,600 461,600 461,599 462,599 463,599 464,599 465,599 466,598 467,598 468,598 469,597 470,597 470,597 471,596 472,596 473,596 474,596 475,596 476,595 477,595 478,595 478,595 479,594 480,594 481,594 482,593 483,592 484,592 485,592 486,592 487,592 487,591 488,591 489,591 490,590 491,590 492,590 493,590 494,590 495,590 495,590 496,589 497,589 498,589 499,589 500,589 501,588 502,588 503,588 504,588 504,587 505,587 506,587 507,586 508,586 509,585 510,585 511,585 512,584 512,584 513,583 514,583 515,583 516,583 517,582 518,582 519,582 520,582 521,581 521,581 522,581 523,581 524,580 525,580 526,580 527,580 528,580 529,580 529,579 530,579 531,578 532,578 533,577 534,577 535,577 536,576 537,576 538,576 538,575 539,575 540,575 541,575 542,575 543,575 544,574 545,574 546,574 546,574 547,574 548,574 549,574 550,573 551,573 552,572 553,572 554,572 555,572 555,571 556,571 557,571 558,571 559,570 560,570 561,570 562,570 563,570 563,570 564,569 565,569 566,569 567,569 568,569 569,569 570,569 571,569 572,568 572,568 573,568 574,568 575,567 576,567 577,567 578,566 579,566 580,566 580,566 581,565 582,565 583,565 584,565 585,564 586,564 587,564 588,564 589,563 589,563 590,563 591,563 592,563 593,562 594,562 595,562 596,561 597,561 597,561 598,560 599,560 600,560 601,560 602,559 603,559 604,559 605,559 606,559 606,559 607,558 608,558 609,557 610,557 611,557 612,557 613,556 614,556 615,556 615,556 616,556 617,555 618,555 619,555 620,555 621,555 622,554 623,554 623,554 624,554 625,554 626,554 627,554 628,553 629,553 630,553 631,552 632,552 632,552 633,552 634,552 635,552 636,552 637,552 638,551 639,551 640,551 640,550 641,550 642,550 643,550 644,549 645,549 646,549 647,549 648,549 649,549 649,549 650,548 651,548 652,548 653,548 654,547 655,547 656,547 657,547 657,547 658,547 659,547 660,547 661,547 662,546 663,546 664,546 665,546 666,546 666,546 667,545 668,545 669,545 670,545 671,545 672,545 673,545 674,544 674,544 675,544 676,544 677,544 678,543 679,543 680,543 681,542 682,542 683,542 683,542 684,542 685,541 686,541 687,541 688,541 689,540 690,540 691,539 691,539 692,539 693,539 694,539 695,538 696,538 697,538 698,538 699,538 700,537 700,537 701,537 702,537 703,536 704,536 705,536 706,536 707,536 708,536 708,535 709,535 710,535 711,535 712,535 713,534 714,534 715,534 716,534 717,534 717,534 718,534 719,533 720,533 721,533 722,533 723,533 724,532 725,532 725,532 726,532 727,532 728,532 729,532 730,531 731,531 732,531 733,531 734,531 734,531 735,530 736,530 737,530 738,530 739,530 740,530 741,529 742,529 742,529 743,529 744,528 745,528 746,528 747,528 748,528 749,528 750,527 751,527 751,527 752,527 753,527 754,526 755,526 756,526 757,525 758,525 759,525 759,525 760,525 761,524 762,524 763,524 764,523 765,523 766,523 767,523 768,522 768,522 769,522 770,521 771,521 772,521 773,520 774,520 775,519 776,519 776,519 777,518 778,518 779,518 780,517 781,517 782,517 783,516 784,516 785,516 785,516 786,515 787,515 788,515 789,515 790,514 791,514 792,514 793,514 794,513 794,513 795,513 796,513 797,512 798,512 799,512 800,512 801,512 802,512 802,511 803,511 804,511 805,511 806,511 807,510 808,510 809,510 810,509 811,509 811,509 812,509 813,509 814,508 815,507 816,507 817,506 818,506 819,505 819,505 820,505 821,505 822,504 823,504 824,504 825,504 826,503 827,503 828,503 828,502 829,502 830,502 831,501 832,501 833,501 834,501 835,500 836,500 836,500 837,500 838,500 839,500 840,499 841,498 842,498 843,498 844,498 845,498 845,498 846,498 847,497 848,497 849,497 850,497 851,497 852,497 853,497 853,496 854,495 855,495 856,495 857,495 858,494 859,494 860,494 861,493 862,493 862,493 863,493 864,492 865,492 866,491 867,490 868,490 869,490 870,490 870,490 871,489 872,489 873,489 874,489 875,488 876,488 877,488 878,488 879,487 879,487 880,487 881,487 882,487 883,486 884,486 885,486 886,486 887,486 887,485 888,485 889,485 890,485 891,485 892,485 893,484 894,484 895,484 896,483 896,483 897,483 898,483 899,483 900,482 901,482 902,482 903,482 904,482 904,482 905,482 906,482 907,482 908,481 909,481 910,481 911,480 912,480 913,479 913,479 914,479 915,479 916,479 917,478 918,478 919,478 920,477 921,477 921,477 922,477 923,477 924,476 925,476 926,476 927,476 928,476 929,475 930,475 930,475 931,475 932,475 933,475 934,474 935,474 936,474 937,474 938,473 938,473 939,473 940,472 941,472 942,472 943,471 944,471 945,471 946,470 947,470 947,470 948,470 949,469 950,469 951,469 952,469 953,468 954,468 955,468 955,468 956,468 957,467 958,467 959,466 960,465 961,465 962,464 963,463 964,463 964,462 965,461 966,461 967,461 968,461 969,460 970,460 971,459 972,459 973,459 973,459 973,459 973,699 78,699 "/>
<polyline fill="none" opacity="1" stroke="#E6194B" stroke-width="1" points="78,699 78,698 79,698 80,698 81,698 82,697 83,697 84,697 85,696 86,696 86,696 87,696 88,696 89,696 90,695 91,694 92,694 93,694 94,693 95,693 95,693 96,693 97,693 98,693 99,692 100,692 101,692 102,692 103,692 103,692 104,691 105,691 106,691 107,691 108,691 109,690 110,690 111,690 112,690 112,690 113,689 114,689 115,689 116,689 117,689 118,689 119,689 120,689 120,689 121,688 122,688 123,688 124,688 125,688 126,688 127,688 128,688 129,688 129,687 130,687 131,687 132,687 133,687 134,687 135,686 136,686 137,686 137,686 138,686 139,686 140,686 141,685 142,685 143,685 144,685 145,684 146,684 146,684 147,684 148,684 149,684 150,683 151,683 152,683 153,683 154,683 154,683 155,683 156,682 157,682 158,682 159,682 160,682 161,682 162,681 163,681 163,681 164,681 165,681 166,681 167,681 168,680 169,680 170,680 171,679 171,679 172,678 173,678 174,678 175,678 176,678 177,677 178,677 179,677 180,677 180,677 181,676 182,676 183,676 184,676 185,675 186,675 187,675 188,674 188,674 189,674 190,674 191,674 192,673 193,673 194,673 195,673 196,672 197,672 197,672 198,672 199,671 200,671 201,671 202,671 203,671 204,670 205,670 205,669 206,669 207,669 208,669 209,669 210,669 211,668 212,668 213,668 214,668 214,668 215,667 216,667 217,667 218,666 219,666 220,666 221,665 222,665 222,665 223,665 224,665 225,665 226,665 227,664 228,664 229,664 230,664 231,664 231,663 232,663 233,663 234,663 235,662 236,662 237,662 238,662 239,662 239,661 240,661 241,661 242,660 243,660 244,660 245,660 246,659 247,659 248,659 248,658 249,658 250,658 251,658 252,658 253,657 254,657 255,657 256,656 257,656 257,656 258,656 259,656 260,655 261,655 262,655 263,654 264,654 265,654 265,654 266,654 267,653 268,652 269,652 270,652 271,652 272,651 273,651 274,651 274,651 275,651 276,651 277,650 278,650 279,650 280,649 281,649 282,649 282,649 283,648 284,648 285,648 286,648 287,648 288,648 289,648 290,647 291,647 291,646 292,646 293,646 294,646 295,646 296,646 297,646 298,645 299,645 299,645 300,645 301,645 302,645 303,645 304,645 305,644 306,644 307,644 308,644 308,643 309,643 310,643 311,643 312,643 313,643 314,643 315,643 316,643 316,642 317,642 318,642 319,642 320,642 321,641 322,641 323,641 324,640 325,639 325,639 326,639 327,639 328,639 329,638 330,638 331,638 332,638 333,637 333,637 334,637 335,637 336,637 337,637 338,637 339,636 340,636 341,636 342,636 342,636 343,635 344,635 345,635 346,635 347,635 348,635 349,635 350,634 350,634 351,634 352,634 353,634 354,634 355,633 356,633 357,632 358,632 359,632 359,632 360,632 361,631 362,631 363,630 364,630 365,629 366,629 367,629 367,629 368,629 369,629 370,628 371,628 372,628 373,627 374,627 375,627 376,627 376,626 377,626 378,625 379,625 380,625 381,625 382,625 383,624 384,624 384,624 385,623 386,623 387,623 388,622 389,622 390,622 391,622 392,622 393,622 393,622 394,621 395,621 396,621 397,620 398,620 399,620 400,620 401,620 401,620 402,620 403,619 404,619 405,618 406,618 407,618 408,617 409,617 410,617 410,617 411,617 412,617 413,617 414,616 415,616 416,616 417,616 418,616 418,615 419,615 420,615 421,614 422,614 423,614 424,614 425,613 426,613 427,613 427,612 428,612 429,612 430,611 431,611 432,611 433,610 434,610 435,609 436,609 436,608 437,608 438,608 439,607 440,607 441,606 442,606 443,606 444,605 444,605 445,605 446,605 447,604 448,604 449,604 450,603 451,603 452,602 453,602 453,602 454,602 455,602 456,601 457,601 458,600 459,600 460,600 461,600 461,599 462,599 463,599 464,599 465,599 466,598 467,598 468,598 469,597 470,597 470,597 471,596 472,596 473,596 474,596 475,596 476,595 477,595 478,595 478,595 479,594 480,594 481,594 482,593 483,592 484,592 485,592 486,592 487,592 487,591 488,591 489,591 490,590 491,590 492,590 493,590 494,590 495,590 495,590 496,589 497,589 498,589 499,589 500,589 501,588 502,588 503,588 504,588 504,587 505,587 506,587 507,586 508,586 509,585 510,585 511,585 512,584 512,584 513,583 514,583 515,583 516,583 517,582 518,582 519,582 520,582 521,581 521,581 522,581 523,581 524,580 525,580 526,580 527,580 528,580 529,580 529,579 530,579 531,578 532,578 533,577 534,577 535,577 536,576 537,576 538,576 538,575 539,575 540,575 541,575 542,575 543,575 544,574 545,574 546,574 546,574 547,574 548,574 549,574 550,573 551,573 552,572 553,572 554,572 555,572 555,571 556,571 557,571 558,571 559,570 560,570 561,570 562,570 563,570 563,570 564,569 565,569 566,569 567,569 568,569 569,569 570,569 571,569 572,568 572,568 573,568 574,568 575,567 576,567 577,567 578,566 579,566 580,566 580,566 581,565 582,565 583,565 584,565 585,564 586,564 587,564 588,564 589,563 589,563 590,563 591,563 592,563 593,562 594,562 595,562 596,561 597,561 597,561 598,560 599,560 600,560 601,560 602,559 603,559 604,559 605,559 606,559 606,559 607,558 608,558 609,557 610,557 611,557 612,557 613,556 614,556 615,556 615,556 616,556 617,555 618,555 619,555 620,555 621,555 622,554 623,554 623,554 624,554 625,554 626,554 627,554 628,553 629,553 630,553 631,552 632,552 632,552 633,552 634,552 635,552 636,552 637,552 638,551 639,551 640,551 640,550 641,550 642,550 643,550 644,549 645,549 646,549 647,549 648,549 649,549 649,549 650,548 651,548 652,548 653,548 654,547 655,547 656,547 657,547 657,547 658,547 659,547 660,547 661,547 662,546 663,546 664,546 665,546 666,546 666,546 667,545 668,545 669,545 670,545 671,545 672,545 673,545 674,544 674,544 675,544 676,544 677,544 678,543 679,543 680,543 681,542 682,542 683,542 683,542 684,542 685,541 686,541 687,541 688,541 689,540 690,540 691,539 691,539 692,539 693,539 694,539 695,538 696,538 697,538 698,538 699,538 700,537 700,537 701,537 702,537 703,536 704,536 705,536 706,536 707,536 708,536 708,535 709,535 710,535 711,535 712,535 713,534 714,534 715,534 716,534 717,534 717,534 718,534 719,533 720,533 721,533 722,533 723,533 724,532 725,532 725,532 726,532 727,532 728,532 729,532 730,531 731,531 732,531 733,531 734,531 734,531 735,530 736,530 737,530 738,530 739,530 740,530 741,529 742,529 742,529 743,529 744,528 745,528 746,528 747,528 748,528 749,528 750,527 751,527 751,527 752,527 753,527 754,526 755,526 756,526 757,525 758,525 759,525 759,525 760,525 761,524 762,524 763,524 764,523 765,523 766,523 767,523 768,522 768,522 769,522 770,521 771,521 772,521 773,520 774,520 775,519 776,519 776,519 777,518 778,518 779,518 780,517 781,517 782,517 783,516 784,516 785,516 785,516 786,515 787,515 788,515 789,515 790,514 791,514 792,514 793,514 794,513 794,513 795,513 796,513 797,512 798,512 799,512 800,512 801,512 802,512 802,511 803,511 804,511 805,511 806,511 807,510 808,510 809,510 810,509 811,509 811,509 812,509 813,509 814,508 815,507 816,507 817,506 818,506 819,505 819,505 820,505 821,505 822,504 823,504 824,504 825,504 826,503 827,503 828,503 828,502 829,502 830,502 831,501 832,501 833,501 834,501 835,500 836,500 836,500 837,500 838,500 839,500 840,499 841,498 842,498 843,498 844,498 845,498 845,498 846,498 847,497 848,497 849,497 850,497 851,497 852,497 853,497 853,496 854,495 855,495 856,495 857,495 858,494 859,494 860,494 861,493 862,493 862,493 863,493 864,492 865,492 866,491 867,490 868,490 869,490 870,490 870,490 871,489 872,489 873,489 874,489 875,488 876,488 877,488 878,488 879,487 879,487 880,487 881,487 882,487 883,486 884,486 885,486 886,486 887,486 887,485 888,485 889,485 890,485 891,485 892,485 893,484 894,484 895,484 896,483 896,483 897,483 898,483 899,483 900,482 901,482 902,482 903,482 904,482 904,482 905,482 906,482 907,482 908,481 909,481 910,481 911,480 912,480 913,479 913,479 914,479 915,479 916,479 917,478 918,478 919,478 920,477 921,477 921,477 922,477 923,477 924,476 925,476 926,476 927,476 928,476 929,475 930,475 930,475 931,475 932,475 933,475 934,474 935,474 936,474 937,474 938,473 938,473 939,473 940,472 941,472 942,472 943,471 944,471 945,471 946,470 947,470 947,470 948,470 949,469 950,469 951,469 952,469 953,468 954,468 955,468 955,468 956,468 957,467 958,467 959,466 960,465 961,465 962,464 963,463 964,463 964,462 965,461 966,461 967,461 968,461 969,460 970,460 971,459 972,459 973,459 973,459 973,459 "/>
<line opacity="0.1" stroke="#000000" stroke-width="1" x1="79" y1="699" x2="79" y2="68"/>
<line opacity="0.1" stroke="#000000" stroke-width="1" x1="87" y1="699" x2="87" y2="68"/>
<line opacity="0.1" stroke="#000000" stroke-width="1" x1="96" y1="699" x2="96" y2="68"/>
<line opacity="0.1" stroke="#000000" stroke-width="1" x1="105" y1="699" x2="105" y2="68"/>
<line opacity="0.1" stroke="#000000" stroke-width="1" x1="114" y1="699" x2="114" y2="68"/>
<line opacity="0.1" stroke="#000000" stroke-width="1" x1="123" y1="699" x2="123" y2="68"/>
<line opacity="0.1" stroke="#000000" stroke-width="1" x1="132" y1="699" x2="132" y2="68"/>
<line opacity="0.1" stroke="#000000" stroke-width="1" x1="141" y1="699" x2="141" y2="68"/>
<line opacity="0.1" stroke="#000000" stroke-width="1" x1="150" y1="699" x2="150" y2="68"/>
<line opacity="0.1" stroke="#000000" stroke-width="1" x1="159" y1="699" x2="159" y2="68"/>
<line opacity="0.1" stroke="#000000" stroke-width="1" x1="168" y1="699" x2="168" y2="68"/>
<line opacity="0.1" stroke="#000000" stroke-width="1" x1="177" y1="699" x2="177" y2="68"/>
<line opacity="0.1" stroke="#000000" stroke-width="1" x1="186" y1="699" x2="186" y2="68"/>
<line opacity="0.1" stroke="#000000" stroke-width="1" x1="195" y1="699" x2="195" y2="68"/>
<line opacity="0.1" stroke="#000000" stroke-width="1" x1="204" y1="699" x2="204" y2="68"/>
<line opacity="0.1" stroke="#000000" stroke-width="1" x1="213" y1="699" x2="213" y2="68"/>
<line opacity="0.1" stroke="#000000" stroke-width="1" x1="222" y1="699" x2="222" y2="68"/>
<line opacity="0.1" stroke="#000000" stroke-width="1" x1="231" y1="699" x2="231" y2="68"/>
<line opacity="0.1" stroke="#000000" stroke-width="1" x1="240" y1="699" x2="240" y2="68"/>
<line opacity="0.1" stroke="#000000" stroke-width="1" x1="249" y1="699" x2="249" y2="68"/>
<line opacity="0.1" stroke="#000000" stroke-width="1" x1="257" y1="699" x2="257" y2="68"/>
<line opacity="0.1" stroke="#000000" stroke-width="1" x1="266" y1="699" x2="266" y2="68"/>
<line opacity="0.1" stroke="#000000" stroke-width="1" x1="275" y1="699" x2="275" y2="68"/>
<line opacity="0.1" stroke="#000000" stroke-width="1" x1="284" y1="699" x2="284" y2="68"/>
<line opacity="0.1" stroke="#000000" stroke-width="1" x1="293" y1="699" x2="293" y2="68"/>
<line opacity="0.1" stroke="#000000" stroke-width="1" x1="302" y1="699" x2="302" y2="68"/>
<line opacity="0.1" stroke="#000000" stroke-width="1" x1="311" y1="699" x2="311" y2="68"/>
<line opacity="0.1" stroke="#000000" stroke-width="1" x1="320" y1="699" x2="320" y2="68"/>
<line opacity="0.1" stroke="#000000" stroke-width="1" x1="329" y1="699" x2="329" y2="68"/>
<line opacity="0.1" stroke="#000000" stroke-width="1" x1="338" y1="699" x2="338" y2="68"/>
<line opacity="0.1" stroke="#000000" stroke-width="1" x1="347" y1="699" x2="347" y2="68"/>
<line opacity="0.1" stroke="#000000" stroke-width="1" x1="356" y1="699" x2="356" y2="68"/>
<line opacity="0.1" stroke="#000000" stroke-width="1" x1="365" y1="699" x2="365" y2="68"/>
<line opacity="0.1" stroke="#000000" stroke-width="1" x1="374" y1="699" x2="374" y2="68"/>
<line opacity="0.1" stroke="#000000" stroke-width="1" x1="383" y1="699" x2="383" y2="68"/>
<line opacity="0.1" stroke="#000000" stroke-width="1" x1="392" y1="699" x2="392" y2="68"/>
<line opacity="0.1" stroke="#000000" stroke-width="1" x1="401" y1="699" x2="401" y2="68"/>
<line opacity="0.1" stroke="#000000" stroke-width="1" x1="410" y1="699" x2="410" y2="68"/>
<line opacity="0.1" stroke="#000000" stroke-width="1" x1="419" y1="699" x2="419" y2="68"/>
<line opacity="0.1" stroke="#000000" stroke-width="1" x1="427" y1="699" x2="427" y2="68"/>
<line opacity="0.1" stroke="#000000" stroke-width="1" x1="436" y1="699" x2="436" y2="68"/>
<line opacity="0.1" stroke="#000000" stroke-width="1" x1="445" y1="699" x2="445" y2="68"/>
<line opacity="0.1" stroke="#000000" stroke-width="1" x1="454" y1="699" x2="454" y2="68"/>
<line opacity="0.1" stroke="#000000" stroke-width="1" x1="463" y1="699" x2="463" y2="68"/>
<line opacity="0.1" stroke="#000000" stroke-width="1" x1="472" y1="699" x2="472" y2="68"/>
<line opacity="0.1" stroke="#000000" stroke-width="1" x1="481" y1="699" x2="481" y2="68"/>
<line opacity="0.1" stroke="#000000" stroke-width="1" x1="490" y1="699" x2="490" y2="68"/>
<line opacity="0.1" stroke="#000000" stroke-width="1" x1="499" y1="699" x2="499" y2="68"/>
<line opacity="0.1" stroke="#000000" stroke-width="1" x1="508" y1="699" x2="508" y2="68"/>
<line opacity="0.1" stroke="#000000" stroke-width="1" x1="517" y1="699" x2="517" y2="68"/>
<line opacity="0.1" stroke="#000000" stroke-width="1" x1="526" y1="699" x2="526" y2="68"/>
<line opacity="0.1" stroke="#000000" stroke-width="1" x1="535" y1="699" x2="535" y2="68"/>
<line opacity="0.1" stroke="#000000" stroke-width="1" x1="544" y1="699" x2="544" y2="68"/>
<line opacity="0.1" stroke="#000000" stroke-width="1" x1="553" y1="699" x2="553" y2="68"/>
<line opacity="0.1" stroke="#000000" stroke-width="1" x1="562" y1="699" x2="562" y2="68"/>
<line opacity="0.1" stroke="#000000" stroke-width="1" x1="571" y1="699" x2="571" y2="68"/>
<line opacity="0.1" stroke="#000000" stroke-width="1" x1="580" y1="699" x2="580" y2="68"/>
<line opacity="0.1" stroke="#000000" stroke-width="1" x1="589" y1="699" x2="589" y2="68"/>
<line opacity="0.1" stroke="#000000" stroke-width="1" x1="598" y1="699" x2="598" y2="68"/>
<line opacity="0.1" stroke="#000000" stroke-width="1" x1="606" y1="699" x2="606" y2="68"/>
<line opacity="0.1" stroke="#000000" stroke-width="1" x1="615" y1="699" x2="615" y2="68"/>
<line opacity="0.1" stroke="#000000" stroke-width="1" x1="624" y1="699" x2="624" y2="68"/>
<line opacity="0.1" stroke="#000000" stroke-width="1" x1="633" y1="699" x2="633" y2="68"/>
<line opacity="0.1" stroke="#000000" stroke-width="1" x1="642" y1="699" x2="642" y2="68"/>
<line opacity="0.1" stroke="#000000" stroke-width="1" x1="651" y1="699" x2="651" y2="68"/>
<line opacity="0.1" stroke="#000000" stroke-width="1" x1="660" y1="699" x2="660" y2="68"/>
<line opacity="0.1" stroke="#000000" stroke-width="1" x1="669" y1="699" x2="669" y2="68"/>
<line opacity="0.1" stroke="#000000" stroke-width="1" x1="678" y1="699" x2="678" y2="68"/>
<line opacity="0.1" stroke="#000000" stroke-width="1" x1="687" y1="699" x2="687" y2="68"/>
<line opacity="0.1" stroke="#000000" stroke-width="1" x1="696" y1="699" x2="696" y2="68"/>
<line opacity="0.1" stroke="#000000" stroke-width="1" x1="705" y1="699" x2="705" y2="68"/>
<line opacity="0.1" stroke="#000000" stroke-width="1" x1="714" y1="699" x2="714" y2="68"/>
<line opacity="0.1" stroke="#000000" stroke-width="1" x1="723" y1="699" x2="723" y2="68"/>
<line opacity="0.1" stroke="#000000" stroke-width="1" x1="732" y1="699" x2="732" y2="68"/>
<line opacity="0.1" stroke="#000000" stroke-width="1" x1="741" y1="699" x2="741" y2="68"/>
<line opacity="0.1" stroke="#000000" stroke-width="1" x1="750" y1="699" x2="750" y2="68"/>
<line opacity="0.1" stroke="#000000" stroke-width="1" x1="759" y1="699" x2="759" y2="68"/>
<line opacity="0.1" stroke="#000000" stroke-width="1" x1="768" y1="699" x2="768" y2="68"/>
<line opacity="0.1" stroke="#000000" stroke-width="1" x1="776" y1="699" x2="776" y2="68"/>
<line opacity="0.1" stroke="#000000" stroke-width="1" x1="785" y1="699" x2="785" y2="68"/>
<line opacity="0.1" stroke="#000000" stroke-width="1" x1="794" y1="699" x2="794" y2="68"/>
<line opacity="0.1" stroke="#000000" stroke-width="1" x1="803" y1="699" x2="803" y2="68"/>
<line opacity="0.1" stroke="#000000" stroke-width="1" x1="812" y1="699" x2="812" y2="68"/>
<line opacity="0.1" stroke="#000000" stroke-width="1" x1="821" y1="699" x2="821" y2="68"/>
<line opacity="0.1" stroke="#000000" stroke-width="1" x1="830" y1="699" x2="830" y2="68"/>
<line opacity="0.1" stroke="#000000" stroke-width="1" x1="839" y1="699" x2="839" y2="68"/>
<line opacity="0.1" stroke="#000000" stroke-width="1" x1="848" y1="699" x2="848" y2="68"/>
<line opacity="0.1" stroke="#000000" stroke-width="1" x1="857" y1="699" x2="857" y2="68"/>
<line opacity="0.1" stroke="#000000" stroke-width="1" x1="866" y1="699" x2="866" y2="68"/>
<line opacity="0.1" stroke="#000000" stroke-width="1" x1="875" y1="699" x2="875" y2="68"/>
<line opacity="0.1" stroke="#000000" stroke-width="1" x1="884" y1="699" x2="884" y2="68"/>
<line opacity="0.1" stroke="#000000" stroke-width="1" x1="893" y1="699" x2="893" y2="68"/>
<line opacity="0.1" stroke="#000000" stroke-width="1" x1="902" y1="699" x2="902" y2="68"/>
<line opacity="0.1" stroke="#000000" stroke-width="1" x1="911" y1="699" x2="911" y2="68"/>
<line opacity="0.1" stroke="#000000" stroke-width="1" x1="920" y1="699" x2="920" y2="68"/>
<line opacity="0.1" stroke="#000000" stroke-width="1" x1="929" y1="699" x2="929" y2="68"/>
<line opacity="0.1" stroke="#000000" stroke-width="1" x1="938" y1="699" x2="938" y2="68"/>
<line opacity="0.1" stroke="#000000" stroke-width="1" x1="946" y1="699" x2="946" y2="68"/>
<line opacity="0.1" stroke="#000000" stroke-width="1" x1="955" y1="699" x2="955" y2="68"/>
<line opacity="0.1" stroke="#000000" stroke-width="1" x1="964" y1="699" x2="964" y2="68"/>
<line opacity="0.1" stroke="#000000" stroke-width="1" x1="78" y1="699" x2="973" y2="699"/>
<line opacity="0.1" stroke="#000000" stroke-width="1" x1="78" y1="689" x2="973" y2="689"/>
<line opacity="0.1" stroke="#000000" stroke-width="1" x1="78" y1="679" x2="973" y2="679"/>
<line opacity="0.1" stroke="#000000" stroke-width="1" x1="78" y1="669" x2="973" y2="669"/>
<line opacity="0.1" stroke="#000000" stroke-width="1" x1="78" y1="660" x2="973" y2="660"/>
<line opacity="0.1" stroke="#000000" stroke-width="1" x1="78" y1="650" x2="973" y2="650"/>
<line opacity="0.1" stroke="#000000" stroke-width="1" x1="78" y1="640" x2="973" y2="640"/>
<line opacity="0.1" stroke="#000000" stroke-width="1" x1="78" y1="631" x2="973" y2="631"/>
<line opacity="0.1" stroke="#000000" stroke-width="1" x1="78" y1="621" x2="973" y2="621"/>
<line opacity="0.1" stroke="#000000" stroke-width="1" x1="78" y1="611" x2="973" y2="611"/>
<line opacity="0.1" stroke="#000000" stroke-width="1" x1="78" y1="601" x2="973" y2="601"/>
<line opacity="0.1" stroke="#000000" stroke-width="1" x1="78" y1="592" x2="973" y2="592"/>
<line opacity="0.1" stroke="#000000" stroke-width="1" x1="78" y1="582" x2="973" y2="582"/>
<line opacity="0.1" stroke="#000000" stroke-width="1" x1="78" y1="572" x2="973" y2="572"/>
<line opacity="0.1" stroke="#000000" stroke-width="1" x1="78" y1="563" x2="973" y2="563"/>
<line opacity="0.1" stroke="#000000" stroke-width="1" x1="78" y1="553" x2="973" y2="553"/>
<line opacity="0.1" stroke="#000000" stroke-width="1" x1="78" y1="543" x2="973" y2="543"/>
<line opacity="0.1" stroke="#000000" stroke-width="1" x1="78" y1="533" x2="973" y2="533"/>
<line opacity="0.1" stroke="#000000" stroke-width="1" x1="78" y1="524" x2="973" y2="524"/>
<line opacity="0.1" stroke="#000000" stroke-width="1" x1="78" y1="514" x2="973" y2="514"/>
<line opacity="0.1" stroke="#000000" stroke-width="1" x1="78" y1="504" x2="973" y2="504"/>
<line opacity="0.1" stroke="#000000" stroke-width="1" x1="78" y1="495" x2="973" y2="495"/>
<line opacity="0.1" stroke="#000000" stroke-width="1" x1="78" y1="485" x2="973" y2="485"/>
<line opacity="0.1" stroke="#000000" stroke-width="1" x1="78" y1="475" x2="973" y2="475"/>
<line opacity="0.1" stroke="#000000" stroke-width="1" x1="78" y1="465" x2="973" y2="465"/>
<line opacity="0.1" stroke="#000000" stroke-width="1" x1="78" y1="456" x2="973" y2="456"/>
<line opacity="0.1" stroke="#000000" stroke-width="1" x1="78" y1="446" x2="973" y2="446"/>
<line opacity="0.1" stroke="#000000" stroke-width="1" x1="78" y1="436" x2="973" y2="436"/>
<line opacity="0.1" stroke="#000000" stroke-width="1" x1="78" y1="427" x2="973" y2="427"/>
<line opacity="0.1" stroke="#000000" stroke-width="1" x1="78" y1="417" x2="973" y2="417"/>
<line opacity="0.1" stroke="#000000" stroke-width="1" x1="78" y1="407" x2="973" y2="407"/>
<line opacity="0.1" stroke="#000000" stroke-width="1" x1="78" y1="397" x2="973" y2="397"/>
<line opacity="0.1" stroke="#000000" stroke-width="1" x1="78" y1="388" x2="973" y2="388"/>
<line opacity="0.1" stroke="#000000" stroke-width="1" x1="78" y1="378" x2="973" y2="378"/>
<line opacity="0.1" stroke="#000000" stroke-width="1" x1="78" y1="368" x2="973" y2="368"/>
<line opacity="0.1" stroke="#000000" stroke-width="1" x1="78" y1="359" x2="973" y2="359"/>
<line opacity="0.1" stroke="#000000" stroke-width="1" x1="78" y1="349" x2="973" y2="349"/>
<line opacity="0.1" stroke="#000000" stroke-width="1" x1="78" y1="339" x2="973" y2="339"/>
<line opacity="0.1" stroke="#000000" stroke-width="1" x1="78" y1="329" x2="973" y2="329"/>
<line opacity="0.1" stroke="#000000" stroke-width="1" x1="78" y1="320" x2="973" y2="320"/>
<line opacity="0.1" stroke="#000000" stroke-width="1" x1="78" y1="310" x2="973" y2="310"/>
<line opacity="0.1" stroke="#000000" stroke-width="1" x1="78" y1="300" x2="973" y2="300"/>
<line opacity="0.1" stroke="#000000" stroke-width="1" x1="78" y1="291" x2="973" y2="291"/>
<line opacity="0.1" stroke="#000000" stroke-width="1" x1="78" y1="281" x2="973" y2="281"/>
<line opacity="0.1" stroke="#000000" stroke-width="1" x1="78" y1="271" x2="973" y2="271"/>
<line opacity="0.1" stroke="#000000" stroke-width="1" x1="78" y1="262" x2="973" y2="262"/>
<line opacity="0.1" stroke="#000000" stroke-width="1" x1="78" y1="252" x2="973" y2="252"/>
<line opacity="0.1" stroke="#000000" stroke-width="1" x1="78" y1="242" x2="973" y2="242"/>
<line opacity="0.1" stroke="#000000" stroke-width="1" x1="78" y1="232" x2="973" y2="232"/>
<line opacity="0.1" stroke="#000000" stroke-width="1" x1="78" y1="223" x2="973" y2="223"/>
<line opacity="0.1" stroke="#000000" stroke-width="1" x1="78" y1="213" x2="973" y2="213"/>
<line opacity="0.1" stroke="#000000" stroke-width="1" x1="78" y1="203" x2="973" y2="203"/>
<line opacity="0.1" stroke="#000000" stroke-width="1" x1="78" y1="194" x2="973" y2="194"/>
<line opacity="0.1" stroke="#000000" stroke-width="1" x1="78" y1="184" x2="973" y2="184"/>
<line opacity="0.1" stroke="#000000" stroke-width="1" x1="78" y1="174" x2="973" y2="174"/>
<line opacity="0.1" stroke="#000000" stroke-width="1" x1="78" y1="164" x2="973" y2="164"/>
<line opacity="0.1" stroke="#000000" stroke-width="1" x1="78" y1="155" x2="973" y2="155"/>
<line opacity="0.1" stroke="#000000" stroke-width="1" x1="78" y1="145" x2="973" y2="145"/>
<line opacity="0.1" stroke="#000000" stroke-width="1" x1="78" y1="135" x2="973" y2="135"/>
<line opacity="0.1" stroke="#000000" stroke-width="1" x1="78" y1="126" x2="973" y2="126"/>
<line opacity="0.1" stroke="#000000" stroke-width="1" x1="78" y1="116" x2="973" y2="116"/>
<line opacity="0.1" stroke="#000000" stroke-width="1" x1="78" y1="106" x2="973" y2="106"/>
<line opacity="0.1" stroke="#000000" stroke-width="1" x1="78" y1="96" x2="973" y2="96"/>
<line opacity="0.1" stroke="#000000" stroke-width="1" x1="78" y1="87" x2="973" y2="87"/>
<line opacity="0.1" stroke="#000000" stroke-width="1" x1="78" y1="77" x2="973" y2="77"/>
<text x="8" y="384" dy="0.76em" text-anchor="middle" font-family="sans-serif" font-size="9.67741935483871" opacity="1" fill="#000000" transform="rotate(270, 8, 384)">
Memory usage
</text>
<text x="526" y="760" dy="-0.5ex" text-anchor="middle" font-family="sans-serif" font-size="9.67741935483871" opacity="1" fill="#000000">
Time
</text>
<line opacity="0.2" stroke="#000000" stroke-width="1" x1="96" y1="699" x2="96" y2="68"/>
<line opacity="0.2" stroke="#000000" stroke-width="1" x1="186" y1="699" x2="186" y2="68"/>
<line opacity="0.2" stroke="#000000" stroke-width="1" x1="275" y1="699" x2="275" y2="68"/>
<line opacity="0.2" stroke="#000000" stroke-width="1" x1="365" y1="699" x2="365" y2="68"/>
<line opacity="0.2" stroke="#000000" stroke-width="1" x1="454" y1="699" x2="454" y2="68"/>
<line opacity="0.2" stroke="#000000" stroke-width="1" x1="544" y1="699" x2="544" y2="68"/>
<line opacity="0.2" stroke="#000000" stroke-width="1" x1="633" y1="699" x2="633" y2="68"/>
<line opacity="0.2" stroke="#000000" stroke-width="1" x1="723" y1="699" x2="723" y2="68"/>
<line opacity="0.2" stroke="#000000" stroke-width="1" x1="812" y1="699" x2="812" y2="68"/>
<line opacity="0.2" stroke="#000000" stroke-width="1" x1="902" y1="699" x2="902" y2="68"/>
<line opacity="0.2" stroke="#000000" stroke-width="1" x1="78" y1="699" x2="973" y2="699"/>
<line opacity="0.2" stroke="#000000" stroke-width="1" x1="78" y1="601" x2="973" y2="601"/>
<line opacity="0.2" stroke="#000000" stroke-width="1" x1="78" y1="504" x2="973" y2="504"/>
<line opacity="0.2" stroke="#000000" stroke-width="1" x1="78" y1="407" x2="973" y2="407"/>
<line opacity="0.2" stroke="#000000" stroke-width="1" x1="78" y1="310" x2="973" y2="310"/>
<line opacity="0.2" stroke="#000000" stroke-width="1" x1="78" y1="213" x2="973" y2="213"/>
<line opacity="0.2" stroke="#000000" stroke-width="1" x1="78" y1="116" x2="973" y2="116"/>
<polyline fill="none" opacity="1" stroke="#000000" stroke-width="1" points="77,68 77,699 "/>
<text x="68" y="699" dy="0.5ex" text-anchor="end" font-family="sans-serif" font-size="9.67741935483871" opacity="1" fill="#000000">
0.00 MB
</text>
<polyline fill="none" opacity="1" stroke="#000000" stroke-width="1" points="72,699 77,699 "/>
<text x="68" y="601" dy="0.5ex" text-anchor="end" font-family="sans-serif" font-size="9.67741935483871" opacity="1" fill="#000000">
0.19 MB
</text>
<polyline fill="none" opacity="1" stroke="#000000" stroke-width="1" points="72,601 77,601 "/>
<text x="68" y="504" dy="0.5ex" text-anchor="end" font-family="sans-serif" font-size="9.67741935483871" opacity="1" fill="#000000">
0.38 MB
</text>
<polyline fill="none" opacity="1" stroke="#000000" stroke-width="1" points="72,504 77,504 "/>
<text x="68" y="407" dy="0.5ex" text-anchor="end" font-family="sans-serif" font-size="9.67741935483871" opacity="1" fill="#000000">
0.57 MB
</text>
<polyline fill="none" opacity="1" stroke="#000000" stroke-width="1" points="72,407 77,407 "/>
<text x="68" y="310" dy="0.5ex" text-anchor="end" font-family="sans-serif" font-size="9.67741935483871" opacity="1" fill="#000000">
0.76 MB
</text>
<polyline fill="none" opacity="1" stroke="#000000" stroke-width="1" points="72,310 77,310 "/>
<text x="68" y="213" dy="0.5ex" text-anchor="end" font-family="sans-serif" font-size="9.67741935483871" opacity="1" fill="#000000">
0.95 MB
</text>
<polyline fill="none" opacity="1" stroke="#000000" stroke-width="1" points="72,213 77,213 "/>
<text x="68" y="116" dy="0.5ex" text-anchor="end" font-family="sans-serif" font-size="9.67741935483871" opacity="1" fill="#000000">
1.14 MB
</text>
<polyline fill="none" opacity="1" stroke="#000000" stroke-width="1" points="72,116 77,116 "/>
<polyline fill="none" opacity="1" stroke="#000000" stroke-width="1" points="78,700 973,700 "/>
<text x="96" y="710" dy="0.76em" text-anchor="middle" font-family="sans-serif" font-size="9.67741935483871" opacity="1" fill="#000000">
02:04:17
</text>
<polyline fill="none" opacity="1" stroke="#000000" stroke-width="1" points="96,700 96,705 "/>
<text x="186" y="710" dy="0.76em" text-anchor="middle" font-family="sans-serif" font-size="9.67741935483871" opacity="1" fill="#000000">
02:04:18
</text>
<polyline fill="none" opacity="1" stroke="#000000" stroke-width="1" points="186,700 186,705 "/>
<text x="275" y="710" dy="0.76em" text-anchor="middle" font-family="sans-serif" font-size="9.67741935483871" opacity="1" fill="#000000">
02:04:19
</text>
<polyline fill="none" opacity="1" stroke="#000000" stroke-width="1" points="275,700 275,705 "/>
<text x="365" y="710" dy="0.76em" text-anchor="middle" font-family="sans-serif" font-size="9.67741935483871" opacity="1" fill="#000000">
02:04:20
</text>
<polyline fill="none" opacity="1" stroke="#000000" stroke-width="1" points="365,700 365,705 "/>
<text x="454" y="710" dy="0.76em" text-anchor="middle" font-family="sans-serif" font-size="9.67741935483871" opacity="1" fill="#000000">
02:04:21
</text>
<polyline fill="none" opacity="1" stroke="#000000" stroke-width="1" points="454,700 454,705 "/>
<text x="544" y="710" dy="0.76em" text-anchor="middle" font-family="sans-serif" font-size="9.67741935483871" opacity="1" fill="#000000">
02:04:22
</text>
<polyline fill="none" opacity="1" stroke="#000000" stroke-width="1" points="544,700 544,705 "/>
<text x="633" y="710" dy="0.76em" text-anchor="middle" font-family="sans-serif" font-size="9.67741935483871" opacity="1" fill="#000000">
02:04:23
</text>
<polyline fill="none" opacity="1" stroke="#000000" stroke-width="1" points="633,700 633,705 "/>
<text x="723" y="710" dy="0.76em" text-anchor="middle" font-family="sans-serif" font-size="9.67741935483871" opacity="1" fill="#000000">
02:04:24
</text>
<polyline fill="none" opacity="1" stroke="#000000" stroke-width="1" points="723,700 723,705 "/>
<text x="812" y="710" dy="0.76em" text-anchor="middle" font-family="sans-serif" font-size="9.67741935483871" opacity="1" fill="#000000">
02:04:25
</text>
<polyline fill="none" opacity="1" stroke="#000000" stroke-width="1" points="812,700 812,705 "/>
<text x="902" y="710" dy="0.76em" text-anchor="middle" font-family="sans-serif" font-size="9.67741935483871" opacity="1" fill="#000000">
02:04:26
</text>
<polyline fill="none" opacity="1" stroke="#000000" stroke-width="1" points="902,700 902,705 "/>
<polyline fill="none" opacity="1" stroke="#000000" stroke-width="1" points="78,67 974,67 "/>
<text x="96" y="58" dy="-0.5ex" text-anchor="middle" font-family="sans-serif" font-size="9.67741935483871" opacity="1" fill="#000000">
+265ms
</text>
<polyline fill="none" opacity="1" stroke="#000000" stroke-width="1" points="96,62 96,67 "/>
<text x="186" y="58" dy="-0.5ex" text-anchor="middle" font-family="sans-serif" font-size="9.67741935483871" opacity="1" fill="#000000">
+1s
</text>
<polyline fill="none" opacity="1" stroke="#000000" stroke-width="1" points="186,62 186,67 "/>
<text x="276" y="58" dy="-0.5ex" text-anchor="middle" font-family="sans-serif" font-size="9.67741935483871" opacity="1" fill="#000000">
+2s
</text>
<polyline fill="none" opacity="1" stroke="#000000" stroke-width="1" points="276,62 276,67 "/>
<text x="365" y="58" dy="-0.5ex" text-anchor="middle" font-family="sans-serif" font-size="9.67741935483871" opacity="1" fill="#000000">
+3s
</text>
<polyline fill="none" opacity="1" stroke="#000000" stroke-width="1" points="365,62 365,67 "/>
<text x="455" y="58" dy="-0.5ex" text-anchor="middle" font-family="sans-serif" font-size="9.67741935483871" opacity="1" fill="#000000">
+4s
</text>
<polyline fill="none" opacity="1" stroke="#000000" stroke-width="1" points="455,62 455,67 "/>
<text x="544" y="58" dy="-0.5ex" text-anchor="middle" font-family="sans-serif" font-size="9.67741935483871" opacity="1" fill="#000000">
+5s
</text>
<polyline fill="none" opacity="1" stroke="#000000" stroke-width="1" points="544,62 544,67 "/>
<text x="634" y="58" dy="-0.5ex" text-anchor="middle" font-family="sans-serif" font-size="9.67741935483871" opacity="1" fill="#000000">
+6s
</text>
<polyline fill="none" opacity="1" stroke="#000000" stroke-width="1" points="634,62 634,67 "/>
<text x="724" y="58" dy="-0.5ex" text-anchor="middle" font-family="sans-serif" font-size="9.67741935483871" opacity="1" fill="#000000">
+7s
</text>
<polyline fill="none" opacity="1" stroke="#000000" stroke-width="1" points="724,62 724,67 "/>
<text x="813" y="58" dy="-0.5ex" text-anchor="middle" font-family="sans-serif" font-size="9.67741935483871" opacity="1" fill="#000000">
+8s
</text>
<polyline fill="none" opacity="1" stroke="#000000" stroke-width="1" points="813,62 813,67 "/>
<text x="903" y="58" dy="-0.5ex" text-anchor="middle" font-family="sans-serif" font-size="9.67741935483871" opacity="1" fill="#000000">
+9s
</text>
<polyline fill="none" opacity="1" stroke="#000000" stroke-width="1" points="903,62 903,67 "/>
<rect x="83" y="73" width="99" height="45" opacity="0.75" fill="#FFFFFF" stroke="none"/>
<rect x="83" y="73" width="99" height="45" opacity="1" fill="none" stroke="#000000"/>
<text x="123" y="83" dy="0.76em" text-anchor="start" font-family="sans-serif" font-size="9.67741935483871" opacity="1" fill="#000000">
Temporary
</text>
<text x="123" y="98" dy="0.76em" text-anchor="start" font-family="sans-serif" font-size="9.67741935483871" opacity="1" fill="#000000">
Leaked
</text>
<rect x="93" y="83" width="10" height="10" opacity="1" fill="#3CB44B" stroke="none"/>
<rect x="93" y="98" width="10" height="10" opacity="1" fill="#E6194B" stroke="none"/>
</svg>
