<svg width="1024" height="768" viewBox="0 0 1024 768" xmlns="http://www.w3.org/2000/svg">
<rect x="0" y="0" width="1024" height="768" opacity="1" fill="#FFFFFF" stroke="none"/>
<polygon opacity="1" fill="#E6194B" points="78,697 78,690 79,682 80,678 81,678 82,673 83,677 84,678 85,681 86,684 86,680 87,682 88,684 89,685 90,680 91,677 92,655 93,657 94,655 94,643 95,644 96,654 97,656 98,649 99,653 100,660 101,663 102,664 103,668 103,665 104,670 105,667 106,671 107,667 108,667 109,679 110,672 111,667 111,668 112,665 113,665 114,665 115,666 116,661 117,655 118,654 119,645 120,638 120,639 121,647 122,647 123,655 124,656 125,650 126,644 127,636 128,633 128,620 129,614 130,620 131,638 132,640 133,643 134,646 135,645 136,644 137,635 137,626 138,618 139,614 140,613 141,613 142,612 143,611 144,621 145,624 145,623 146,620 147,616 148,610 149,611 150,609 151,615 152,612 153,604 154,593 154,588 155,587 156,589 157,587 158,578 159,574 160,572 161,563 162,560 162,565 163,554 164,544 165,542 166,537 167,536 168,524 169,518 170,517 171,518 171,529 172,521 173,517 174,514 175,517 176,518 177,518 178,519 179,507 179,504 180,499 181,499 182,505 183,512 184,510 185,503 186,500 187,493 188,494 188,491 189,491 190,480 191,471 192,470 193,475 194,475 195,480 196,485 196,486 197,484 198,489 199,484 200,468 201,464 202,465 203,464 204,466 204,469 205,465 206,470 207,465 208,461 209,450 210,455 211,452 212,461 213,471 213,468 214,468 215,466 216,454 217,449 218,451 219,444 220,445 221,453 221,451 222,445 223,442 224,449 225,448 226,445 227,439 228,433 229,439 230,432 230,426 231,429 232,430 233,437 234,434 235,427 236,426 237,422 238,426 238,424 239,427 240,423 241,428 242,437 243,439 244,446 245,451 246,454 247,446 247,440 248,435 249,426 250,421 251,431 252,450 253,456 254,462 255,444 255,446 256,457 257,456 258,451 259,456 260,452 261,447 262,430 263,426 264,435 264,432 265,430 266,431 267,439 268,446 269,450 270,450 271,441 272,444 272,439 273,440 274,441 275,449 276,447 277,442 278,447 279,450 280,447 281,449 281,451 282,451 283,442 284,440 285,440 286,427 287,429 288,436 289,441 289,435 290,444 291,441 292,440 293,453 294,447 295,457 296,450 297,444 298,447 298,447 299,445 300,440 301,433 302,429 303,437 304,437 305,437 306,445 306,431 307,422 308,422 309,426 310,426 311,428 312,433 313,435 314,417 314,414 315,415 316,420 317,417 318,415 319,421 320,420 321,413 322,410 323,405 323,402 324,405 325,408 326,406 327,400 328,402 329,401 330,403 331,407 331,412 332,406 333,412 334,409 335,395 336,393 337,397 338,393 339,396 340,404 340,399 341,395 342,400 343,403 344,407 345,405 346,411 347,418 348,421 348,419 349,410 350,415 351,407 352,399 353,394 354,399 355,398 356,401 357,402 357,393 358,386 359,394 360,396 361,396 362,408 363,406 364,407 365,412 365,414 366,414 367,418 368,421 369,421 370,417 371,413 372,408 373,404 374,409 374,404 375,411 376,407 377,408 378,407 379,397 380,390 381,381 382,380 382,379 383,375 384,370 385,374 386,378 387,373 388,367 389,355 390,351 391,342 391,343 392,357 393,363 394,366 395,362 396,365 397,367 398,357 399,364 399,355 400,347 401,350 402,355 403,360 404,366 405,365 406,356 407,353 408,355 408,362 409,364 410,366 411,369 412,369 413,374 414,379 415,380 416,387 416,384 417,386 418,382 419,377 420,375 421,376 422,380 423,382 424,386 424,389 425,386 426,391 427,396 428,411 429,400 430,402 431,414 432,411 433,403 433,404 434,408 435,412 436,407 437,408 438,404 439,394 440,390 441,392 441,390 442,393 443,403 444,401 445,395 446,394 447,391 448,383 449,386 450,384 450,388 451,393 452,393 453,396 454,393 455,389 456,386 457,389 458,377 458,370 459,368 460,369 461,377 462,376 463,371 464,376 465,375 466,376 467,377 467,369 468,363 469,355 470,352 471,350 472,338 473,340 474,346 475,350 475,362 476,372 477,373 478,387 479,397 480,383 481,385 482,371 483,368 484,377 484,393 485,390 486,383 487,387 488,382 489,366 490,362 491,361 492,365 492,369 493,373 494,370 495,369 496,372 497,380 498,385 499,382 500,378 501,376 501,375 502,382 503,378 504,378 505,384 506,385 507,382 508,378 509,383 509,392 510,386 511,389 512,378 513,380 514,370 515,370 516,377 517,372 518,374 518,378 519,384 520,378 521,364 522,360 523,373 524,356 525,346 526,343 526,335 527,340 528,330 529,326 530,324 531,328 532,337 533,326 534,327 534,325 535,333 536,332 537,325 538,322 539,314 540,316 541,313 542,317 543,324 543,324 544,327 545,327 546,324 547,328 548,330 549,336 550,330 551,326 551,329 552,309 553,309 554,308 555,308 556,310 557,303 558,297 559,298 560,294 560,298 561,298 562,299 563,312 564,306 565,295 566,288 567,286 568,295 568,290 569,293 570,282 571,278 572,281 573,285 574,291 575,298 576,289 577,281 577,282 578,280 579,281 580,280 581,292 582,297 583,298 584,300 585,298 585,305 586,302 587,307 588,307 589,309 590,306 591,300 592,310 593,306 594,309 594,311 595,313 596,299 597,297 598,310 599,301 600,305 601,304 602,298 602,296 603,302 604,307 605,302 606,298 607,299 608,310 609,311 610,306 611,305 611,310 612,296 613,295 614,306 615,304 616,296 617,291 618,294 619,284 619,282 620,283 621,285 622,286 623,283 624,283 625,292 626,290 627,283 628,284 628,281 629,294 630,278 631,277 632,283 633,280 634,284 635,292 636,283 636,285 637,281 638,289 639,298 640,314 641,310 642,310 643,302 644,311 644,302 645,303 646,305 647,304 648,309 649,312 650,314 651,315 652,325 653,330 653,318 654,317 655,314 656,314 657,309 658,316 659,314 660,315 661,314 661,308 662,319 663,316 664,316 665,308 666,308 667,310 668,313 669,314 670,320 670,332 671,332 672,341 673,338 674,322 675,321 676,326 677,325 678,324 678,324 679,326 680,325 681,320 682,312 683,313 684,322 685,324 686,324 687,320 687,321 688,323 689,332 690,327 691,325 692,321 693,315 694,318 695,320 695,323 696,308 697,303 698,300 699,304 700,307 701,307 702,294 703,291 704,284 704,279 705,291 706,287 707,289 708,284 709,282 710,286 711,290 712,282 712,287 713,294 714,297 715,281 716,271 717,268 718,267 719,276 720,284 721,288 721,286 722,285 723,284 724,288 725,290 726,275 727,273 728,279 729,277 729,284 730,290 731,288 732,285 733,283 734,281 735,281 736,276 737,277 738,268 738,255 739,252 740,256 741,253 742,249 743,246 744,240 745,242 746,256 746,261 747,253 748,251 749,254 750,252 751,251 752,236 753,239 754,252 754,252 755,245 756,248 757,245 758,258 759,260 760,223 761,220 762,224 763,222 763,229 764,233 765,231 766,228 767,223 768,234 769,237 770,221 771,219 771,218 772,221 773,224 774,237 775,239 776,229 777,229 778,227 779,232 780,232 780,233 781,237 782,229 783,236 784,232 785,232 786,237 787,235 788,236 788,241 789,241 790,225 791,225 792,220 793,217 794,212 795,205 796,201 797,203 797,202 798,203 799,203 800,198 801,201 802,200 803,203 804,204 805,203 805,197 806,196 807,200 808,208 809,201 810,196 811,190 812,188 813,189 814,189 814,190 815,188 816,191 817,186 818,186 819,189 820,184 821,181 822,184 822,185 823,178 824,178 825,172 826,179 827,178 828,178 829,192 830,188 831,182 831,177 832,172 833,174 834,173 835,170 836,170 837,166 838,154 839,143 839,148 840,152 841,145 842,150 843,147 844,144 845,146 846,145 847,139 848,144 848,130 849,127 850,132 851,134 852,128 853,128 854,139 855,147 856,161 856,157 857,159 858,159 859,164 860,175 861,168 862,167 863,167 864,157 864,153 865,152 866,158 867,154 868,152 869,153 870,145 871,138 872,126 873,127 873,132 874,139 875,149 876,154 877,159 878,153 879,150 880,145 881,140 881,136 882,130 883,128 884,127 885,128 886,129 887,127 888,125 889,122 890,125 890,124 891,119 892,116 893,113 894,111 895,112 896,118 897,122 898,118 898,113 899,105 900,109 901,105 902,110 903,108 904,105 905,112 906,119 907,121 907,122 908,123 909,126 910,126 911,126 912,120 913,124 914,110 915,109 915,99 916,96 917,102 918,104 919,108 920,107 921,114 922,122 923,112 924,110 924,116 925,116 926,123 927,125 928,135 929,149 930,139 931,127 932,123 932,120 933,109 934,99 935,93 936,97 937,96 938,96 939,90 940,97 941,94 941,101 942,104 943,99 944,96 945,110 946,96 947,100 948,90 949,97 949,83 950,78 951,73 952,73 953,79 954,75 955,84 956,80 957,80 957,88 958,90 959,95 960,96 961,102 962,95 963,75 964,78 965,92 966,92 966,98 967,85 968,81 969,79 970,74 971,74 972,68 972,68 973,68 973,699 78,699 "/>
<polyline fill="none" opacity="1" stroke="#E6194B" stroke-width="1" points="78,697 78,690 79,682 80,678 81,678 82,673 83,677 84,678 85,681 86,684 86,680 87,682 88,684 89,685 90,680 91,677 92,655 93,657 94,655 94,643 95,644 96,654 97,656 98,649 99,653 100,660 101,663 102,664 103,668 103,665 104,670 105,667 106,671 107,667 108,667 109,679 110,672 111,667 111,668 112,665 113,665 114,665 115,666 116,661 117,655 118,654 119,645 120,638 120,639 121,647 122,647 123,655 124,656 125,650 126,644 127,636 128,633 128,620 129,614 130,620 131,638 132,640 133,643 134,646 135,645 136,644 137,635 137,626 138,618 139,614 140,613 141,613 142,612 143,611 144,621 145,624 145,623 146,620 147,616 148,610 149,611 150,609 151,615 152,612 153,604 154,593 154,588 155,587 156,589 157,587 158,578 159,574 160,572 161,563 162,560 162,565 163,554 164,544 165,542 166,537 167,536 168,524 169,518 170,517 171,518 171,529 172,521 173,517 174,514 175,517 176,518 177,518 178,519 179,507 179,504 180,499 181,499 182,505 183,512 184,510 185,503 186,500 187,493 188,494 188,491 189,491 190,480 191,471 192,470 193,475 194,475 195,480 196,485 196,486 197,484 198,489 199,484 200,468 201,464 202,465 203,464 204,466 204,469 205,465 206,470 207,465 208,461 209,450 210,455 211,452 212,461 213,471 213,468 214,468 215,466 216,454 217,449 218,451 219,444 220,445 221,453 221,451 222,445 223,442 224,449 225,448 226,445 227,439 228,433 229,439 230,432 230,426 231,429 232,430 233,437 234,434 235,427 236,426 237,422 238,426 238,424 239,427 240,423 241,428 242,437 243,439 244,446 245,451 246,454 247,446 247,440 248,435 249,426 250,421 251,431 252,450 253,456 254,462 255,444 255,446 256,457 257,456 258,451 259,456 260,452 261,447 262,430 263,426 264,435 264,432 265,430 266,431 267,439 268,446 269,450 270,450 271,441 272,444 272,439 273,440 274,441 275,449 276,447 277,442 278,447 279,450 280,447 281,449 281,451 282,451 283,442 284,440 285,440 286,427 287,429 288,436 289,441 289,435 290,444 291,441 292,440 293,453 294,447 295,457 296,450 297,444 298,447 298,447 299,445 300,440 301,433 302,429 303,437 304,437 305,437 306,445 306,431 307,422 308,422 309,426 310,426 311,428 312,433 313,435 314,417 314,414 315,415 316,420 317,417 318,415 319,421 320,420 321,413 322,410 323,405 323,402 324,405 325,408 326,406 327,400 328,402 329,401 330,403 331,407 331,412 332,406 333,412 334,409 335,395 336,393 337,397 338,393 339,396 340,404 340,399 341,395 342,400 343,403 344,407 345,405 346,411 347,418 348,421 348,419 349,410 350,415 351,407 352,399 353,394 354,399 355,398 356,401 357,402 357,393 358,386 359,394 360,396 361,396 362,408 363,406 364,407 365,412 365,414 366,414 367,418 368,421 369,421 370,417 371,413 372,408 373,404 374,409 374,404 375,411 376,407 377,408 378,407 379,397 380,390 381,381 382,380 382,379 383,375 384,370 385,374 386,378 387,373 388,367 389,355 390,351 391,342 391,343 392,357 393,363 394,366 395,362 396,365 397,367 398,357 399,364 399,355 400,347 401,350 402,355 403,360 404,366 405,365 406,356 407,353 408,355 408,362 409,364 410,366 411,369 412,369 413,374 414,379 415,380 416,387 416,384 417,386 418,382 419,377 420,375 421,376 422,380 423,382 424,386 424,389 425,386 426,391 427,396 428,411 429,400 430,402 431,414 432,411 433,403 433,404 434,408 435,412 436,407 437,408 438,404 439,394 440,390 441,392 441,390 442,393 443,403 444,401 445,395 446,394 447,391 448,383 449,386 450,384 450,388 451,393 452,393 453,396 454,393 455,389 456,386 457,389 458,377 458,370 459,368 460,369 461,377 462,376 463,371 464,376 465,375 466,376 467,377 467,369 468,363 469,355 470,352 471,350 472,338 473,340 474,346 475,350 475,362 476,372 477,373 478,387 479,397 480,383 481,385 482,371 483,368 484,377 484,393 485,390 486,383 487,387 488,382 489,366 490,362 491,361 492,365 492,369 493,373 494,370 495,369 496,372 497,380 498,385 499,382 500,378 501,376 501,375 502,382 503,378 504,378 505,384 506,385 507,382 508,378 509,383 509,392 510,386 511,389 512,378 513,380 514,370 515,370 516,377 517,372 518,374 518,378 519,384 520,378 521,364 522,360 523,373 524,356 525,346 526,343 526,335 527,340 528,330 529,326 530,324 531,328 532,337 533,326 534,327 534,325 535,333 536,332 537,325 538,322 539,314 540,316 541,313 542,317 543,324 543,324 544,327 545,327 546,324 547,328 548,330 549,336 550,330 551,326 551,329 552,309 553,309 554,308 555,308 556,310 557,303 558,297 559,298 560,294 560,298 561,298 562,299 563,312 564,306 565,295 566,288 567,286 568,295 568,290 569,293 570,282 571,278 572,281 573,285 574,291 575,298 576,289 577,281 577,282 578,280 579,281 580,280 581,292 582,297 583,298 584,300 585,298 585,305 586,302 587,307 588,307 589,309 590,306 591,300 592,310 593,306 594,309 594,311 595,313 596,299 597,297 598,310 599,301 600,305 601,304 602,298 602,296 603,302 604,307 605,302 606,298 607,299 608,310 609,311 610,306 611,305 611,310 612,296 613,295 614,306 615,304 616,296 617,291 618,294 619,284 619,282 620,283 621,285 622,286 623,283 624,283 625,292 626,290 627,283 628,284 628,281 629,294 630,278 631,277 632,283 633,280 634,284 635,292 636,283 636,285 637,281 638,289 639,298 640,314 641,310 642,310 643,302 644,311 644,302 645,303 646,305 647,304 648,309 649,312 650,314 651,315 652,325 653,330 653,318 654,317 655,314 656,314 657,309 658,316 659,314 660,315 661,314 661,308 662,319 663,316 664,316 665,308 666,308 667,310 668,313 669,314 670,320 670,332 671,332 672,341 673,338 674,322 675,321 676,326 677,325 678,324 678,324 679,326 680,325 681,320 682,312 683,313 684,322 685,324 686,324 687,320 687,321 688,323 689,332 690,327 691,325 692,321 693,315 694,318 695,320 695,323 696,308 697,303 698,300 699,304 700,307 701,307 702,294 703,291 704,284 704,279 705,291 706,287 707,289 708,284 709,282 710,286 711,290 712,282 712,287 713,294 714,297 715,281 716,271 717,268 718,267 719,276 720,284 721,288 721,286 722,285 723,284 724,288 725,290 726,275 727,273 728,279 729,277 729,284 730,290 731,288 732,285 733,283 734,281 735,281 736,276 737,277 738,268 738,255 739,252 740,256 741,253 742,249 743,246 744,240 745,242 746,256 746,261 747,253 748,251 749,254 750,252 751,251 752,236 753,239 754,252 754,252 755,245 756,248 757,245 758,258 759,260 760,223 761,220 762,224 763,222 763,229 764,233 765,231 766,228 767,223 768,234 769,237 770,221 771,219 771,218 772,221 773,224 774,237 775,239 776,229 777,229 778,227 779,232 780,232 780,233 781,237 782,229 783,236 784,232 785,232 786,237 787,235 788,236 788,241 789,241 790,225 791,225 792,220 793,217 794,212 795,205 796,201 797,203 797,202 798,203 799,203 800,198 801,201 802,200 803,203 804,204 805,203 805,197 806,196 807,200 808,208 809,201 810,196 811,190 812,188 813,189 814,189 814,190 815,188 816,191 817,186 818,186 819,189 820,184 821,181 822,184 822,185 823,178 824,178 825,172 826,179 827,178 828,178 829,192 830,188 831,182 831,177 832,172 833,174 834,173 835,170 836,170 837,166 838,154 839,143 839,148 840,152 841,145 842,150 843,147 844,144 845,146 846,145 847,139 848,144 848,130 849,127 850,132 851,134 852,128 853,128 854,139 855,147 856,161 856,157 857,159 858,159 859,164 860,175 861,168 862,167 863,167 864,157 864,153 865,152 866,158 867,154 868,152 869,153 870,145 871,138 872,126 873,127 873,132 874,139 875,149 876,154 877,159 878,153 879,150 880,145 881,140 881,136 882,130 883,128 884,127 885,128 886,129 887,127 888,125 889,122 890,125 890,124 891,119 892,116 893,113 894,111 895,112 896,118 897,122 898,118 898,113 899,105 900,109 901,105 902,110 903,108 904,105 905,112 906,119 907,121 907,122 908,123 909,126 910,126 911,126 912,120 913,124 914,110 915,109 915,99 916,96 917,102 918,104 919,108 920,107 921,114 922,122 923,112 924,110 924,116 925,116 926,123 927,125 928,135 929,149 930,139 931,127 932,123 932,120 933,109 934,99 935,93 936,97 937,96 938,96 939,90 940,97 941,94 941,101 942,104 943,99 944,96 945,110 946,96 947,100 948,90 949,97 949,83 950,78 951,73 952,73 953,79 954,75 955,84 956,80 957,80 957,88 958,90 959,95 960,96 961,102 962,95 963,75 964,78 965,92 966,92 966,98 967,85 968,81 969,79 970,74 971,74 972,68 972,68 973,68 "/>
<line opacity="0.1" stroke="#000000" stroke-width="1" x1="78" y1="699" x2="78" y2="68"/>
<line opacity="0.1" stroke="#000000" stroke-width="1" x1="90" y1="699" x2="90" y2="68"/>
<line opacity="0.1" stroke="#000000" stroke-width="1" x1="101" y1="699" x2="101" y2="68"/>
<line opacity="0.1" stroke="#000000" stroke-width="1" x1="112" y1="699" x2="112" y2="68"/>
<line opacity="0.1" stroke="#000000" stroke-width="1" x1="123" y1="699" x2="123" y2="68"/>
<line opacity="0.1" stroke="#000000" stroke-width="1" x1="134" y1="699" x2="134" y2="68"/>
<line opacity="0.1" stroke="#000000" stroke-width="1" x1="145" y1="699" x2="145" y2="68"/>
<line opacity="0.1" stroke="#000000" stroke-width="1" x1="157" y1="699" x2="157" y2="68"/>
<line opacity="0.1" stroke="#000000" stroke-width="1" x1="168" y1="699" x2="168" y2="68"/>
<line opacity="0.1" stroke="#000000" stroke-width="1" x1="179" y1="699" x2="179" y2="68"/>
<line opacity="0.1" stroke="#000000" stroke-width="1" x1="190" y1="699" x2="190" y2="68"/>
<line opacity="0.1" stroke="#000000" stroke-width="1" x1="201" y1="699" x2="201" y2="68"/>
<line opacity="0.1" stroke="#000000" stroke-width="1" x1="213" y1="699" x2="213" y2="68"/>
<line opacity="0.1" stroke="#000000" stroke-width="1" x1="224" y1="699" x2="224" y2="68"/>
<line opacity="0.1" stroke="#000000" stroke-width="1" x1="235" y1="699" x2="235" y2="68"/>
<line opacity="0.1" stroke="#000000" stroke-width="1" x1="246" y1="699" x2="246" y2="68"/>
<line opacity="0.1" stroke="#000000" stroke-width="1" x1="257" y1="699" x2="257" y2="68"/>
<line opacity="0.1" stroke="#000000" stroke-width="1" x1="268" y1="699" x2="268" y2="68"/>
<line opacity="0.1" stroke="#000000" stroke-width="1" x1="280" y1="699" x2="280" y2="68"/>
<line opacity="0.1" stroke="#000000" stroke-width="1" x1="291" y1="699" x2="291" y2="68"/>
<line opacity="0.1" stroke="#000000" stroke-width="1" x1="302" y1="699" x2="302" y2="68"/>
<line opacity="0.1" stroke="#000000" stroke-width="1" x1="313" y1="699" x2="313" y2="68"/>
<line opacity="0.1" stroke="#000000" stroke-width="1" x1="324" y1="699" x2="324" y2="68"/>
<line opacity="0.1" stroke="#000000" stroke-width="1" x1="335" y1="699" x2="335" y2="68"/>
<line opacity="0.1" stroke="#000000" stroke-width="1" x1="347" y1="699" x2="347" y2="68"/>
<line opacity="0.1" stroke="#000000" stroke-width="1" x1="358" y1="699" x2="358" y2="68"/>
<line opacity="0.1" stroke="#000000" stroke-width="1" x1="369" y1="699" x2="369" y2="68"/>
<line opacity="0.1" stroke="#000000" stroke-width="1" x1="380" y1="699" x2="380" y2="68"/>
<line opacity="0.1" stroke="#000000" stroke-width="1" x1="391" y1="699" x2="391" y2="68"/>
<line opacity="0.1" stroke="#000000" stroke-width="1" x1="403" y1="699" x2="403" y2="68"/>
<line opacity="0.1" stroke="#000000" stroke-width="1" x1="414" y1="699" x2="414" y2="68"/>
<line opacity="0.1" stroke="#000000" stroke-width="1" x1="425" y1="699" x2="425" y2="68"/>
<line opacity="0.1" stroke="#000000" stroke-width="1" x1="436" y1="699" x2="436" y2="68"/>
<line opacity="0.1" stroke="#000000" stroke-width="1" x1="447" y1="699" x2="447" y2="68"/>
<line opacity="0.1" stroke="#000000" stroke-width="1" x1="458" y1="699" x2="458" y2="68"/>
<line opacity="0.1" stroke="#000000" stroke-width="1" x1="470" y1="699" x2="470" y2="68"/>
<line opacity="0.1" stroke="#000000" stroke-width="1" x1="481" y1="699" x2="481" y2="68"/>
<line opacity="0.1" stroke="#000000" stroke-width="1" x1="492" y1="699" x2="492" y2="68"/>
<line opacity="0.1" stroke="#000000" stroke-width="1" x1="503" y1="699" x2="503" y2="68"/>
<line opacity="0.1" stroke="#000000" stroke-width="1" x1="514" y1="699" x2="514" y2="68"/>
<line opacity="0.1" stroke="#000000" stroke-width="1" x1="525" y1="699" x2="525" y2="68"/>
<line opacity="0.1" stroke="#000000" stroke-width="1" x1="537" y1="699" x2="537" y2="68"/>
<line opacity="0.1" stroke="#000000" stroke-width="1" x1="548" y1="699" x2="548" y2="68"/>
<line opacity="0.1" stroke="#000000" stroke-width="1" x1="559" y1="699" x2="559" y2="68"/>
<line opacity="0.1" stroke="#000000" stroke-width="1" x1="570" y1="699" x2="570" y2="68"/>
<line opacity="0.1" stroke="#000000" stroke-width="1" x1="581" y1="699" x2="581" y2="68"/>
<line opacity="0.1" stroke="#000000" stroke-width="1" x1="593" y1="699" x2="593" y2="68"/>
<line opacity="0.1" stroke="#000000" stroke-width="1" x1="604" y1="699" x2="604" y2="68"/>
<line opacity="0.1" stroke="#000000" stroke-width="1" x1="615" y1="699" x2="615" y2="68"/>
<line opacity="0.1" stroke="#000000" stroke-width="1" x1="626" y1="699" x2="626" y2="68"/>
<line opacity="0.1" stroke="#000000" stroke-width="1" x1="637" y1="699" x2="637" y2="68"/>
<line opacity="0.1" stroke="#000000" stroke-width="1" x1="648" y1="699" x2="648" y2="68"/>
<line opacity="0.1" stroke="#000000" stroke-width="1" x1="660" y1="699" x2="660" y2="68"/>
<line opacity="0.1" stroke="#000000" stroke-width="1" x1="671" y1="699" x2="671" y2="68"/>
<line opacity="0.1" stroke="#000000" stroke-width="1" x1="682" y1="699" x2="682" y2="68"/>
<line opacity="0.1" stroke="#000000" stroke-width="1" x1="693" y1="699" x2="693" y2="68"/>
<line opacity="0.1" stroke="#000000" stroke-width="1" x1="704" y1="699" x2="704" y2="68"/>
<line opacity="0.1" stroke="#000000" stroke-width="1" x1="715" y1="699" x2="715" y2="68"/>
<line opacity="0.1" stroke="#000000" stroke-width="1" x1="727" y1="699" x2="727" y2="68"/>
<line opacity="0.1" stroke="#000000" stroke-width="1" x1="738" y1="699" x2="738" y2="68"/>
<line opacity="0.1" stroke="#000000" stroke-width="1" x1="749" y1="699" x2="749" y2="68"/>
<line opacity="0.1" stroke="#000000" stroke-width="1" x1="760" y1="699" x2="760" y2="68"/>
<line opacity="0.1" stroke="#000000" stroke-width="1" x1="771" y1="699" x2="771" y2="68"/>
<line opacity="0.1" stroke="#000000" stroke-width="1" x1="783" y1="699" x2="783" y2="68"/>
<line opacity="0.1" stroke="#000000" stroke-width="1" x1="794" y1="699" x2="794" y2="68"/>
<line opacity="0.1" stroke="#000000" stroke-width="1" x1="805" y1="699" x2="805" y2="68"/>
<line opacity="0.1" stroke="#000000" stroke-width="1" x1="816" y1="699" x2="816" y2="68"/>
<line opacity="0.1" stroke="#000000" stroke-width="1" x1="827" y1="699" x2="827" y2="68"/>
<line opacity="0.1" stroke="#000000" stroke-width="1" x1="838" y1="699" x2="838" y2="68"/>
<line opacity="0.1" stroke="#000000" stroke-width="1" x1="850" y1="699" x2="850" y2="68"/>
<line opacity="0.1" stroke="#000000" stroke-width="1" x1="861" y1="699" x2="861" y2="68"/>
<line opacity="0.1" stroke="#000000" stroke-width="1" x1="872" y1="699" x2="872" y2="68"/>
<line opacity="0.1" stroke="#000000" stroke-width="1" x1="883" y1="699" x2="883" y2="68"/>
<line opacity="0.1" stroke="#000000" stroke-width="1" x1="894" y1="699" x2="894" y2="68"/>
<line opacity="0.1" stroke="#000000" stroke-width="1" x1="905" y1="699" x2="905" y2="68"/>
<line opacity="0.1" stroke="#000000" stroke-width="1" x1="917" y1="699" x2="917" y2="68"/>
<line opacity="0.1" stroke="#000000" stroke-width="1" x1="928" y1="699" x2="928" y2="68"/>
<line opacity="0.1" stroke="#000000" stroke-width="1" x1="939" y1="699" x2="939" y2="68"/>
<line opacity="0.1" stroke="#000000" stroke-width="1" x1="950" y1="699" x2="950" y2="68"/>
<line opacity="0.1" stroke="#000000" stroke-width="1" x1="961" y1="699" x2="961" y2="68"/>
<line opacity="0.1" stroke="#000000" stroke-width="1" x1="78" y1="699" x2="973" y2="699"/>
<line opacity="0.1" stroke="#000000" stroke-width="1" x1="78" y1="692" x2="973" y2="692"/>
<line opacity="0.1" stroke="#000000" stroke-width="1" x1="78" y1="685" x2="973" y2="685"/>
<line opacity="0.1" stroke="#000000" stroke-width="1" x1="78" y1="678" x2="973" y2="678"/>
<line opacity="0.1" stroke="#000000" stroke-width="1" x1="78" y1="671" x2="973" y2="671"/>
<line opacity="0.1" stroke="#000000" stroke-width="1" x1="78" y1="665" x2="973" y2="665"/>
<line opacity="0.1" stroke="#000000" stroke-width="1" x1="78" y1="658" x2="973" y2="658"/>
<line opacity="0.1" stroke="#000000" stroke-width="1" x1="78" y1="651" x2="973" y2="651"/>
<line opacity="0.1" stroke="#000000" stroke-width="1" x1="78" y1="644" x2="973" y2="644"/>
<line opacity="0.1" stroke="#000000" stroke-width="1" x1="78" y1="638" x2="973" y2="638"/>
<line opacity="0.1" stroke="#000000" stroke-width="1" x1="78" y1="631" x2="973" y2="631"/>
<line opacity="0.1" stroke="#000000" stroke-width="1" x1="78" y1="624" x2="973" y2="624"/>
<line opacity="0.1" stroke="#000000" stroke-width="1" x1="78" y1="617" x2="973" y2="617"/>
<line opacity="0.1" stroke="#000000" stroke-width="1" x1="78" y1="611" x2="973" y2="611"/>
<line opacity="0.1" stroke="#000000" stroke-width="1" x1="78" y1="604" x2="973" y2="604"/>
<line opacity="0.1" stroke="#000000" stroke-width="1" x1="78" y1="597" x2="973" y2="597"/>
<line opacity="0.1" stroke="#000000" stroke-width="1" x1="78" y1="590" x2="973" y2="590"/>
<line opacity="0.1" stroke="#000000" stroke-width="1" x1="78" y1="584" x2="973" y2="584"/>
<line opacity="0.1" stroke="#000000" stroke-width="1" x1="78" y1="577" x2="973" y2="577"/>
<line opacity="0.1" stroke="#000000" stroke-width="1" x1="78" y1="570" x2="973" y2="570"/>
<line opacity="0.1" stroke="#000000" stroke-width="1" x1="78" y1="563" x2="973" y2="563"/>
<line opacity="0.1" stroke="#000000" stroke-width="1" x1="78" y1="557" x2="973" y2="557"/>
<line opacity="0.1" stroke="#000000" stroke-width="1" x1="78" y1="550" x2="973" y2="550"/>
<line opacity="0.1" stroke="#000000" stroke-width="1" x1="78" y1="543" x2="973" y2="543"/>
<line opacity="0.1" stroke="#000000" stroke-width="1" x1="78" y1="536" x2="973" y2="536"/>
<line opacity="0.1" stroke="#000000" stroke-width="1" x1="78" y1="530" x2="973" y2="530"/>
<line opacity="0.1" stroke="#000000" stroke-width="1" x1="78" y1="523" x2="973" y2="523"/>
<line opacity="0.1" stroke="#000000" stroke-width="1" x1="78" y1="516" x2="973" y2="516"/>
<line opacity="0.1" stroke="#000000" stroke-width="1" x1="78" y1="509" x2="973" y2="509"/>
<line opacity="0.1" stroke="#000000" stroke-width="1" x1="78" y1="503" x2="973" y2="503"/>
<line opacity="0.1" stroke="#000000" stroke-width="1" x1="78" y1="496" x2="973" y2="496"/>
<line opacity="0.1" stroke="#000000" stroke-width="1" x1="78" y1="489" x2="973" y2="489"/>
<line opacity="0.1" stroke="#000000" stroke-width="1" x1="78" y1="482" x2="973" y2="482"/>
<line opacity="0.1" stroke="#000000" stroke-width="1" x1="78" y1="476" x2="973" y2="476"/>
<line opacity="0.1" stroke="#000000" stroke-width="1" x1="78" y1="469" x2="973" y2="469"/>
<line opacity="0.1" stroke="#000000" stroke-width="1" x1="78" y1="462" x2="973" y2="462"/>
<line opacity="0.1" stroke="#000000" stroke-width="1" x1="78" y1="455" x2="973" y2="455"/>
<line opacity="0.1" stroke="#000000" stroke-width="1" x1="78" y1="449" x2="973" y2="449"/>
<line opacity="0.1" stroke="#000000" stroke-width="1" x1="78" y1="442" x2="973" y2="442"/>
<line opacity="0.1" stroke="#000000" stroke-width="1" x1="78" y1="435" x2="973" y2="435"/>
<line opacity="0.1" stroke="#000000" stroke-width="1" x1="78" y1="428" x2="973" y2="428"/>
<line opacity="0.1" stroke="#000000" stroke-width="1" x1="78" y1="422" x2="973" y2="422"/>
<line opacity="0.1" stroke="#000000" stroke-width="1" x1="78" y1="415" x2="973" y2="415"/>
<line opacity="0.1" stroke="#000000" stroke-width="1" x1="78" y1="408" x2="973" y2="408"/>
<line opacity="0.1" stroke="#000000" stroke-width="1" x1="78" y1="401" x2="973" y2="401"/>
<line opacity="0.1" stroke="#000000" stroke-width="1" x1="78" y1="395" x2="973" y2="395"/>
<line opacity="0.1" stroke="#000000" stroke-width="1" x1="78" y1="388" x2="973" y2="388"/>
<line opacity="0.1" stroke="#000000" stroke-width="1" x1="78" y1="381" x2="973" y2="381"/>
<line opacity="0.1" stroke="#000000" stroke-width="1" x1="78" y1="374" x2="973" y2="374"/>
<line opacity="0.1" stroke="#000000" stroke-width="1" x1="78" y1="368" x2="973" y2="368"/>
<line opacity="0.1" stroke="#000000" stroke-width="1" x1="78" y1="361" x2="973" y2="361"/>
<line opacity="0.1" stroke="#000000" stroke-width="1" x1="78" y1="354" x2="973" y2="354"/>
<line opacity="0.1" stroke="#000000" stroke-width="1" x1="78" y1="347" x2="973" y2="347"/>
<line opacity="0.1" stroke="#000000" stroke-width="1" x1="78" y1="341" x2="973" y2="341"/>
<line opacity="0.1" stroke="#000000" stroke-width="1" x1="78" y1="334" x2="973" y2="334"/>
<line opacity="0.1" stroke="#000000" stroke-width="1" x1="78" y1="327" x2="973" y2="327"/>
<line opacity="0.1" stroke="#000000" stroke-width="1" x1="78" y1="320" x2="973" y2="320"/>
<line opacity="0.1" stroke="#000000" stroke-width="1" x1="78" y1="314" x2="973" y2="314"/>
<line opacity="0.1" stroke="#000000" stroke-width="1" x1="78" y1="307" x2="973" y2="307"/>
<line opacity="0.1" stroke="#000000" stroke-width="1" x1="78" y1="300" x2="973" y2="300"/>
<line opacity="0.1" stroke="#000000" stroke-width="1" x1="78" y1="293" x2="973" y2="293"/>
<line opacity="0.1" stroke="#000000" stroke-width="1" x1="78" y1="287" x2="973" y2="287"/>
<line opacity="0.1" stroke="#000000" stroke-width="1" x1="78" y1="280" x2="973" y2="280"/>
<line opacity="0.1" stroke="#000000" stroke-width="1" x1="78" y1="273" x2="973" y2="273"/>
<line opacity="0.1" stroke="#000000" stroke-width="1" x1="78" y1="266" x2="973" y2="266"/>
<line opacity="0.1" stroke="#000000" stroke-width="1" x1="78" y1="260" x2="973" y2="260"/>
<line opacity="0.1" stroke="#000000" stroke-width="1" x1="78" y1="253" x2="973" y2="253"/>
<line opacity="0.1" stroke="#000000" stroke-width="1" x1="78" y1="246" x2="973" y2="246"/>
<line opacity="0.1" stroke="#000000" stroke-width="1" x1="78" y1="239" x2="973" y2="239"/>
<line opacity="0.1" stroke="#000000" stroke-width="1" x1="78" y1="233" x2="973" y2="233"/>
<line opacity="0.1" stroke="#000000" stroke-width="1" x1="78" y1="226" x2="973" y2="226"/>
<line opacity="0.1" stroke="#000000" stroke-width="1" x1="78" y1="219" x2="973" y2="219"/>
<line opacity="0.1" stroke="#000000" stroke-width="1" x1="78" y1="212" x2="973" y2="212"/>
<line opacity="0.1" stroke="#000000" stroke-width="1" x1="78" y1="206" x2="973" y2="206"/>
<line opacity="0.1" stroke="#000000" stroke-width="1" x1="78" y1="199" x2="973" y2="199"/>
<line opacity="0.1" stroke="#000000" stroke-width="1" x1="78" y1="192" x2="973" y2="192"/>
<line opacity="0.1" stroke="#000000" stroke-width="1" x1="78" y1="185" x2="973" y2="185"/>
<line opacity="0.1" stroke="#000000" stroke-width="1" x1="78" y1="179" x2="973" y2="179"/>
<line opacity="0.1" stroke="#000000" stroke-width="1" x1="78" y1="172" x2="973" y2="172"/>
<line opacity="0.1" stroke="#000000" stroke-width="1" x1="78" y1="165" x2="973" y2="165"/>
<line opacity="0.1" stroke="#000000" stroke-width="1" x1="78" y1="158" x2="973" y2="158"/>
<line opacity="0.1" stroke="#000000" stroke-width="1" x1="78" y1="152" x2="973" y2="152"/>
<line opacity="0.1" stroke="#000000" stroke-width="1" x1="78" y1="145" x2="973" y2="145"/>
<line opacity="0.1" stroke="#000000" stroke-width="1" x1="78" y1="138" x2="973" y2="138"/>
<line opacity="0.1" stroke="#000000" stroke-width="1" x1="78" y1="131" x2="973" y2="131"/>
<line opacity="0.1" stroke="#000000" stroke-width="1" x1="78" y1="125" x2="973" y2="125"/>
<line opacity="0.1" stroke="#000000" stroke-width="1" x1="78" y1="118" x2="973" y2="118"/>
<line opacity="0.1" stroke="#000000" stroke-width="1" x1="78" y1="111" x2="973" y2="111"/>
<line opacity="0.1" stroke="#000000" stroke-width="1" x1="78" y1="104" x2="973" y2="104"/>
<line opacity="0.1" stroke="#000000" stroke-width="1" x1="78" y1="98" x2="973" y2="98"/>
<line opacity="0.1" stroke="#000000" stroke-width="1" x1="78" y1="91" x2="973" y2="91"/>
<line opacity="0.1" stroke="#000000" stroke-width="1" x1="78" y1="84" x2="973" y2="84"/>
<line opacity="0.1" stroke="#000000" stroke-width="1" x1="78" y1="77" x2="973" y2="77"/>
<line opacity="0.1" stroke="#000000" stroke-width="1" x1="78" y1="71" x2="973" y2="71"/>
<text x="8" y="384" dy="0.76em" text-anchor="middle" font-family="sans-serif" font-size="9.67741935483871" opacity="1" fill="#000000" transform="rotate(270, 8, 384)">
Memory usage
</text>
<text x="526" y="760" dy="-0.5ex" text-anchor="middle" font-family="sans-serif" font-size="9.67741935483871" opacity="1" fill="#000000">
Time
</text>
<line opacity="0.2" stroke="#000000" stroke-width="1" x1="101" y1="699" x2="101" y2="68"/>
<line opacity="0.2" stroke="#000000" stroke-width="1" x1="213" y1="699" x2="213" y2="68"/>
<line opacity="0.2" stroke="#000000" stroke-width="1" x1="324" y1="699" x2="324" y2="68"/>
<line opacity="0.2" stroke="#000000" stroke-width="1" x1="436" y1="699" x2="436" y2="68"/>
<line opacity="0.2" stroke="#000000" stroke-width="1" x1="548" y1="699" x2="548" y2="68"/>
<line opacity="0.2" stroke="#000000" stroke-width="1" x1="660" y1="699" x2="660" y2="68"/>
<line opacity="0.2" stroke="#000000" stroke-width="1" x1="771" y1="699" x2="771" y2="68"/>
<line opacity="0.2" stroke="#000000" stroke-width="1" x1="883" y1="699" x2="883" y2="68"/>
<line opacity="0.2" stroke="#000000" stroke-width="1" x1="78" y1="699" x2="973" y2="699"/>
<line opacity="0.2" stroke="#000000" stroke-width="1" x1="78" y1="631" x2="973" y2="631"/>
<line opacity="0.2" stroke="#000000" stroke-width="1" x1="78" y1="563" x2="973" y2="563"/>
<line opacity="0.2" stroke="#000000" stroke-width="1" x1="78" y1="496" x2="973" y2="496"/>
<line opacity="0.2" stroke="#000000" stroke-width="1" x1="78" y1="428" x2="973" y2="428"/>
<line opacity="0.2" stroke="#000000" stroke-width="1" x1="78" y1="361" x2="973" y2="361"/>
<line opacity="0.2" stroke="#000000" stroke-width="1" x1="78" y1="293" x2="973" y2="293"/>
<line opacity="0.2" stroke="#000000" stroke-width="1" x1="78" y1="226" x2="973" y2="226"/>
<line opacity="0.2" stroke="#000000" stroke-width="1" x1="78" y1="158" x2="973" y2="158"/>
<line opacity="0.2" stroke="#000000" stroke-width="1" x1="78" y1="91" x2="973" y2="91"/>
<polyline fill="none" opacity="1" stroke="#000000" stroke-width="1" points="77,68 77,699 "/>
<text x="68" y="699" dy="0.5ex" text-anchor="end" font-family="sans-serif" font-size="9.67741935483871" opacity="1" fill="#000000">
0 KB
</text>
<polyline fill="none" opacity="1" stroke="#000000" stroke-width="1" points="72,699 77,699 "/>
<text x="68" y="631" dy="0.5ex" text-anchor="end" font-family="sans-serif" font-size="9.67741935483871" opacity="1" fill="#000000">
97 KB
</text>
<polyline fill="none" opacity="1" stroke="#000000" stroke-width="1" points="72,631 77,631 "/>
<text x="68" y="563" dy="0.5ex" text-anchor="end" font-family="sans-serif" font-size="9.67741935483871" opacity="1" fill="#000000">
195 KB
</text>
<polyline fill="none" opacity="1" stroke="#000000" stroke-width="1" points="72,563 77,563 "/>
<text x="68" y="496" dy="0.5ex" text-anchor="end" font-family="sans-serif" font-size="9.67741935483871" opacity="1" fill="#000000">
292 KB
</text>
<polyline fill="none" opacity="1" stroke="#000000" stroke-width="1" points="72,496 77,496 "/>
<text x="68" y="428" dy="0.5ex" text-anchor="end" font-family="sans-serif" font-size="9.67741935483871" opacity="1" fill="#000000">
390 KB
</text>
<polyline fill="none" opacity="1" stroke="#000000" stroke-width="1" points="72,428 77,428 "/>
<text x="68" y="361" dy="0.5ex" text-anchor="end" font-family="sans-serif" font-size="9.67741935483871" opacity="1" fill="#000000">
488 KB
</text>
<polyline fill="none" opacity="1" stroke="#000000" stroke-width="1" points="72,361 77,361 "/>
<text x="68" y="293" dy="0.5ex" text-anchor="end" font-family="sans-serif" font-size="9.67741935483871" opacity="1" fill="#000000">
585 KB
</text>
<polyline fill="none" opacity="1" stroke="#000000" stroke-width="1" points="72,293 77,293 "/>
<text x="68" y="226" dy="0.5ex" text-anchor="end" font-family="sans-serif" font-size="9.67741935483871" opacity="1" fill="#000000">
683 KB
</text>
<polyline fill="none" opacity="1" stroke="#000000" stroke-width="1" points="72,226 77,226 "/>
<text x="68" y="158" dy="0.5ex" text-anchor="end" font-family="sans-serif" font-size="9.67741935483871" opacity="1" fill="#000000">
781 KB
</text>
<polyline fill="none" opacity="1" stroke="#000000" stroke-width="1" points="72,158 77,158 "/>
<text x="68" y="91" dy="0.5ex" text-anchor="end" font-family="sans-serif" font-size="9.67741935483871" opacity="1" fill="#000000">
878 KB
</text>
<polyline fill="none" opacity="1" stroke="#000000" stroke-width="1" points="72,91 77,91 "/>
<polyline fill="none" opacity="1" stroke="#000000" stroke-width="1" points="78,700 973,700 "/>
<text x="101" y="710" dy="0.76em" text-anchor="middle" font-family="sans-serif" font-size="9.67741935483871" opacity="1" fill="#000000">
02:04:17
</text>
<polyline fill="none" opacity="1" stroke="#000000" stroke-width="1" points="101,700 101,705 "/>
<text x="213" y="710" dy="0.76em" text-anchor="middle" font-family="sans-serif" font-size="9.67741935483871" opacity="1" fill="#000000">
02:04:18
</text>
<polyline fill="none" opacity="1" stroke="#000000" stroke-width="1" points="213,700 213,705 "/>
<text x="324" y="710" dy="0.76em" text-anchor="middle" font-family="sans-serif" font-size="9.67741935483871" opacity="1" fill="#000000">
02:04:19
</text>
<polyline fill="none" opacity="1" stroke="#000000" stroke-width="1" points="324,700 324,705 "/>
<text x="436" y="710" dy="0.76em" text-anchor="middle" font-family="sans-serif" font-size="9.67741935483871" opacity="1" fill="#000000">
02:04:20
</text>
<polyline fill="none" opacity="1" stroke="#000000" stroke-width="1" points="436,700 436,705 "/>
<text x="548" y="710" dy="0.76em" text-anchor="middle" font-family="sans-serif" font-size="9.67741935483871" opacity="1" fill="#000000">
02:04:21
</text>
<polyline fill="none" opacity="1" stroke="#000000" stroke-width="1" points="548,700 548,705 "/>
<text x="660" y="710" dy="0.76em" text-anchor="middle" font-family="sans-serif" font-size="9.67741935483871" opacity="1" fill="#000000">
02:04:22
</text>
<polyline fill="none" opacity="1" stroke="#000000" stroke-width="1" points="660,700 660,705 "/>
<text x="771" y="710" dy="0.76em" text-anchor="middle" font-family="sans-serif" font-size="9.67741935483871" opacity="1" fill="#000000">
02:04:23
</text>
<polyline fill="none" opacity="1" stroke="#000000" stroke-width="1" points="771,700 771,705 "/>
<text x="883" y="710" dy="0.76em" text-anchor="middle" font-family="sans-serif" font-size="9.67741935483871" opacity="1" fill="#000000">
02:04:24
</text>
<polyline fill="none" opacity="1" stroke="#000000" stroke-width="1" points="883,700 883,705 "/>
<polyline fill="none" opacity="1" stroke="#000000" stroke-width="1" points="78,67 974,67 "/>
<text x="101" y="58" dy="-0.5ex" text-anchor="middle" font-family="sans-serif" font-size="9.67741935483871" opacity="1" fill="#000000">
+265ms
</text>
<polyline fill="none" opacity="1" stroke="#000000" stroke-width="1" points="101,62 101,67 "/>
<text x="213" y="58" dy="-0.5ex" text-anchor="middle" font-family="sans-serif" font-size="9.67741935483871" opacity="1" fill="#000000">
+1s
</text>
<polyline fill="none" opacity="1" stroke="#000000" stroke-width="1" points="213,62 213,67 "/>
<text x="325" y="58" dy="-0.5ex" text-anchor="middle" font-family="sans-serif" font-size="9.67741935483871" opacity="1" fill="#000000">
+2s
</text>
<polyline fill="none" opacity="1" stroke="#000000" stroke-width="1" points="325,62 325,67 "/>
<text x="436" y="58" dy="-0.5ex" text-anchor="middle" font-family="sans-serif" font-size="9.67741935483871" opacity="1" fill="#000000">
+3s
</text>
<polyline fill="none" opacity="1" stroke="#000000" stroke-width="1" points="436,62 436,67 "/>
<text x="548" y="58" dy="-0.5ex" text-anchor="middle" font-family="sans-serif" font-size="9.67741935483871" opacity="1" fill="#000000">
+4s
</text>
<polyline fill="none" opacity="1" stroke="#000000" stroke-width="1" points="548,62 548,67 "/>
<text x="660" y="58" dy="-0.5ex" text-anchor="middle" font-family="sans-serif" font-size="9.67741935483871" opacity="1" fill="#000000">
+5s
</text>
<polyline fill="none" opacity="1" stroke="#000000" stroke-width="1" points="660,62 660,67 "/>
<text x="772" y="58" dy="-0.5ex" text-anchor="middle" font-family="sans-serif" font-size="9.67741935483871" opacity="1" fill="#000000">
+6s
</text>
<polyline fill="none" opacity="1" stroke="#000000" stroke-width="1" points="772,62 772,67 "/>
<text x="884" y="58" dy="-0.5ex" text-anchor="middle" font-family="sans-serif" font-size="9.67741935483871" opacity="1" fill="#000000">
+7s
</text>
<polyline fill="none" opacity="1" stroke="#000000" stroke-width="1" points="884,62 884,67 "/>
</svg>
