<svg width="1024" height="768" viewBox="0 0 1024 768" xmlns="http://www.w3.org/2000/svg">
<rect x="0" y="0" width="1024" height="768" opacity="1" fill="#FFFFFF" stroke="none"/>
<polygon opacity="1" fill="#E6194B" points="78,698 78,695 79,692 80,690 81,688 82,687 83,688 84,688 85,686 86,686 86,687 87,686 88,686 89,681 90,681 91,679 92,678 93,679 94,677 95,677 95,676 96,677 97,676 98,676 99,677 100,677 101,676 102,675 103,675 103,675 104,672 105,673 106,672 107,672 108,672 109,668 110,666 111,663 112,662 112,662 113,663 114,663 115,662 116,659 117,658 118,656 119,653 120,653 120,653 121,655 122,655 123,654 124,653 125,652 126,649 127,648 128,646 129,646 129,646 130,646 131,646 132,646 133,645 134,642 135,641 136,641 137,640 137,638 138,637 139,637 140,637 141,638 142,634 143,634 144,631 145,630 146,630 146,627 147,625 148,623 149,622 150,619 151,618 152,617 153,616 154,615 154,613 155,612 156,612 157,611 158,611 159,610 160,608 161,607 162,607 163,606 163,606 164,603 165,603 166,601 167,600 168,598 169,597 170,596 171,594 171,594 172,593 173,594 174,593 175,593 176,590 177,589 178,589 179,590 180,590 180,589 181,589 182,589 183,590 184,587 185,585 186,586 187,586 188,585 188,584 189,582 190,583 191,584 192,583 193,580 194,581 195,581 196,580 197,579 197,578 198,579 199,577 200,577 201,577 202,578 203,575 204,575 205,572 205,572 206,572 207,572 208,571 209,574 210,573 211,573 212,575 213,575 214,573 214,573 215,572 216,572 217,575 218,573 219,572 220,571 221,569 222,568 222,568 223,567 224,565 225,565 226,565 227,568 228,567 229,568 230,566 231,566 231,565 232,564 233,564 234,563 235,563 236,562 237,560 238,560 239,560 239,560 240,559 241,557 242,556 243,555 244,554 245,550 246,550 247,549 248,546 248,546 249,547 250,543 251,543 252,541 253,539 254,539 255,539 256,539 257,539 257,538 258,538 259,538 260,537 261,535 262,534 263,535 264,536 265,536 265,535 266,535 267,532 268,531 269,531 270,530 271,530 272,529 273,527 274,526 274,525 275,525 276,525 277,524 278,523 279,522 280,524 281,526 282,525 282,524 283,523 284,522 285,521 286,521 287,522 288,524 289,522 290,520 291,521 291,521 292,521 293,521 294,520 295,519 296,519 297,517 298,513 299,513 299,513 300,513 301,511 302,509 303,509 304,509 305,511 306,510 307,510 308,511 308,512 309,512 310,511 311,509 312,508 313,506 314,506 315,506 316,505 316,504 317,503 318,501 319,501 320,500 321,499 322,498 323,496 324,495 325,495 325,493 326,491 327,490 328,487 329,488 330,487 331,486 332,485 333,485 333,485 334,484 335,481 336,478 337,479 338,480 339,480 340,481 341,478 342,476 342,476 343,476 344,476 345,474 346,475 347,474 348,476 349,476 350,476 350,475 351,471 352,471 353,473 354,474 355,474 356,474 357,474 358,476 359,479 359,478 360,479 361,479 362,477 363,477 364,474 365,472 366,471 367,472 367,472 368,471 369,471 370,472 371,469 372,467 373,466 374,466 375,465 376,464 376,463 377,462 378,462 379,461 380,460 381,460 382,459 383,459 384,460 384,460 385,458 386,456 387,456 388,456 389,455 390,450 391,448 392,446 393,446 393,444 394,443 395,443 396,444 397,445 398,445 399,446 400,446 401,446 401,443 402,444 403,444 404,443 405,442 406,440 407,438 408,436 409,435 410,435 410,436 411,436 412,435 413,435 414,433 415,432 416,432 417,430 418,429 418,428 419,428 420,428 421,427 422,426 423,424 424,423 425,421 426,419 427,419 427,416 428,415 429,415 430,416 431,417 432,415 433,412 434,413 435,408 436,405 436,402 437,402 438,402 439,401 440,398 441,398 442,397 443,396 444,396 444,396 445,396 446,392 447,392 448,390 449,387 450,384 451,383 452,383 453,381 453,378 454,378 455,379 456,377 457,377 458,374 459,371 460,369 461,368 461,366 462,365 463,364 464,363 465,363 466,364 467,364 468,363 469,363 470,361 470,360 471,360 472,356 473,357 474,356 475,355 476,354 477,354 478,353 478,354 479,352 480,351 481,351 482,350 483,350 484,351 485,352 486,351 487,351 487,353 488,353 489,353 490,352 491,352 492,349 493,347 494,347 495,347 495,348 496,343 497,338 498,338 499,340 500,340 501,338 502,338 503,339 504,339 504,338 505,338 506,338 507,336 508,335 509,333 510,331 511,331 512,327 512,327 513,325 514,327 515,326 516,327 517,325 518,325 519,326 520,325 521,323 521,320 522,320 523,319 524,319 525,319 526,318 527,318 528,320 529,321 529,319 530,320 531,320 532,320 533,318 534,319 535,319 536,318 537,318 538,318 538,318 539,317 540,316 541,316 542,315 543,314 544,313 545,311 546,309 546,308 547,309 548,307 549,307 550,307 551,309 552,310 553,311 554,311 555,312 555,311 556,310 557,313 558,312 559,310 560,309 561,308 562,307 563,306 563,305 564,305 565,305 566,305 567,306 568,307 569,307 570,306 571,305 572,305 572,304 573,303 574,303 575,301 576,299 577,297 578,296 579,295 580,294 580,294 581,294 582,292 583,291 584,291 585,291 586,289 587,290 588,288 589,285 589,287 590,287 591,288 592,289 593,288 594,288 595,289 596,288 597,284 597,282 598,282 599,281 600,284 601,281 602,280 603,279 604,280 605,281 606,279 606,278 607,277 608,276 609,275 610,275 611,272 612,273 613,273 614,278 615,279 615,277 616,276 617,277 618,276 619,278 620,275 621,274 622,274 623,275 623,274 624,272 625,269 626,270 627,270 628,270 629,270 630,268 631,266 632,264 632,264 633,264 634,265 635,265 636,265 637,262 638,261 639,262 640,259 640,258 641,258 642,259 643,258 644,258 645,258 646,260 647,261 648,261 649,258 649,257 650,255 651,255 652,254 653,253 654,255 655,255 656,255 657,255 657,255 658,254 659,254 660,252 661,253 662,253 663,249 664,247 665,246 666,247 666,247 667,246 668,246 669,246 670,245 671,246 672,245 673,245 674,245 674,243 675,242 676,241 677,241 678,240 679,241 680,242 681,241 682,240 683,240 683,239 684,237 685,235 686,233 687,231 688,231 689,230 690,230 691,229 691,228 692,229 693,228 694,228 695,227 696,228 697,228 698,228 699,225 700,226 700,228 701,229 702,229 703,227 704,227 705,225 706,224 707,225 708,223 708,221 709,221 710,220 711,218 712,216 713,216 714,213 715,214 716,216 717,216 717,216 718,217 719,217 720,217 721,216 722,215 723,214 724,213 725,212 725,212 726,211 727,209 728,207 729,206 730,205 731,205 732,205 733,205 734,204 734,206 735,206 736,207 737,207 738,209 739,208 740,209 741,209 742,207 742,207 743,206 744,206 745,206 746,206 747,205 748,202 749,202 750,203 751,201 751,200 752,201 753,203 754,203 755,201 756,200 757,200 758,202 759,203 759,205 760,205 761,201 762,201 763,199 764,198 765,196 766,196 767,195 768,195 768,195 769,196 770,195 771,194 772,194 773,192 774,191 775,190 776,189 776,189 777,187 778,189 779,188 780,188 781,189 782,188 783,190 784,189 785,189 785,190 786,189 787,189 788,188 789,188 790,187 791,185 792,183 793,183 794,183 794,183 795,181 796,179 797,176 798,175 799,176 800,175 801,177 802,178 802,176 803,177 804,175 805,176 806,173 807,175 808,174 809,174 810,173 811,172 811,172 812,170 813,168 814,168 815,168 816,166 817,165 818,163 819,163 819,162 820,161 821,160 822,160 823,159 824,155 825,154 826,153 827,152 828,152 828,152 829,152 830,149 831,148 832,148 833,146 834,144 835,143 836,145 836,145 837,144 838,144 839,144 840,143 841,144 842,142 843,138 844,137 845,137 845,135 846,135 847,136 848,136 849,136 850,137 851,136 852,134 853,132 853,127 854,127 855,128 856,127 857,126 858,125 859,125 860,122 861,122 862,119 862,117 863,118 864,116 865,117 866,116 867,115 868,114 869,112 870,112 870,112 871,110 872,110 873,111 874,110 875,110 876,110 877,109 878,109 879,109 879,109 880,110 881,110 882,110 883,111 884,111 885,110 886,106 887,106 887,106 888,106 889,107 890,104 891,103 892,102 893,101 894,102 895,102 896,99 896,98 897,99 898,101 899,100 900,99 901,99 902,99 903,98 904,97 904,96 905,96 906,97 907,98 908,99 909,100 910,98 911,97 912,98 913,94 913,95 914,95 915,95 916,96 917,98 918,99 919,97 920,97 921,97 921,98 922,98 923,98 924,98 925,95 926,95 927,94 928,95 929,95 930,94 930,91 931,90 932,88 933,87 934,85 935,85 936,86 937,84 938,83 938,83 939,81 940,82 941,83 942,81 943,81 944,82 945,83 946,80 947,79 947,78 948,77 949,77 950,79 951,79 952,80 953,80 954,80 955,80 955,80 956,79 957,77 958,75 959,73 960,71 961,70 962,69 963,69 964,68 964,68 965,68 966,70 967,72 968,72 969,72 970,73 971,71 972,70 973,69 973,361 973,361 973,699 78,699 "/>
<polyline fill="none" opacity="1" stroke="#E6194B" stroke-width="1" points="78,698 78,695 79,692 80,690 81,688 82,687 83,688 84,688 85,686 86,686 86,687 87,686 88,686 89,681 90,681 91,679 92,678 93,679 94,677 95,677 95,676 96,677 97,676 98,676 99,677 100,677 101,676 102,675 103,675 103,675 104,672 105,673 106,672 107,672 108,672 109,668 110,666 111,663 112,662 112,662 113,663 114,663 115,662 116,659 117,658 118,656 119,653 120,653 120,653 121,655 122,655 123,654 124,653 125,652 126,649 127,648 128,646 129,646 129,646 130,646 131,646 132,646 133,645 134,642 135,641 136,641 137,640 137,638 138,637 139,637 140,637 141,638 142,634 143,634 144,631 145,630 146,630 146,627 147,625 148,623 149,622 150,619 151,618 152,617 153,616 154,615 154,613 155,612 156,612 157,611 158,611 159,610 160,608 161,607 162,607 163,606 163,606 164,603 165,603 166,601 167,600 168,598 169,597 170,596 171,594 171,594 172,593 173,594 174,593 175,593 176,590 177,589 178,589 179,590 180,590 180,589 181,589 182,589 183,590 184,587 185,585 186,586 187,586 188,585 188,584 189,582 190,583 191,584 192,583 193,580 194,581 195,581 196,580 197,579 197,578 198,579 199,577 200,577 201,577 202,578 203,575 204,575 205,572 205,572 206,572 207,572 208,571 209,574 210,573 211,573 212,575 213,575 214,573 214,573 215,572 216,572 217,575 218,573 219,572 220,571 221,569 222,568 222,568 223,567 224,565 225,565 226,565 227,568 228,567 229,568 230,566 231,566 231,565 232,564 233,564 234,563 235,563 236,562 237,560 238,560 239,560 239,560 240,559 241,557 242,556 243,555 244,554 245,550 246,550 247,549 248,546 248,546 249,547 250,543 251,543 252,541 253,539 254,539 255,539 256,539 257,539 257,538 258,538 259,538 260,537 261,535 262,534 263,535 264,536 265,536 265,535 266,535 267,532 268,531 269,531 270,530 271,530 272,529 273,527 274,526 274,525 275,525 276,525 277,524 278,523 279,522 280,524 281,526 282,525 282,524 283,523 284,522 285,521 286,521 287,522 288,524 289,522 290,520 291,521 291,521 292,521 293,521 294,520 295,519 296,519 297,517 298,513 299,513 299,513 300,513 301,511 302,509 303,509 304,509 305,511 306,510 307,510 308,511 308,512 309,512 310,511 311,509 312,508 313,506 314,506 315,506 316,505 316,504 317,503 318,501 319,501 320,500 321,499 322,498 323,496 324,495 325,495 325,493 326,491 327,490 328,487 329,488 330,487 331,486 332,485 333,485 333,485 334,484 335,481 336,478 337,479 338,480 339,480 340,481 341,478 342,476 342,476 343,476 344,476 345,474 346,475 347,474 348,476 349,476 350,476 350,475 351,471 352,471 353,473 354,474 355,474 356,474 357,474 358,476 359,479 359,478 360,479 361,479 362,477 363,477 364,474 365,472 366,471 367,472 367,472 368,471 369,471 370,472 371,469 372,467 373,466 374,466 375,465 376,464 376,463 377,462 378,462 379,461 380,460 381,460 382,459 383,459 384,460 384,460 385,458 386,456 387,456 388,456 389,455 390,450 391,448 392,446 393,446 393,444 394,443 395,443 396,444 397,445 398,445 399,446 400,446 401,446 401,443 402,444 403,444 404,443 405,442 406,440 407,438 408,436 409,435 410,435 410,436 411,436 412,435 413,435 414,433 415,432 416,432 417,430 418,429 418,428 419,428 420,428 421,427 422,426 423,424 424,423 425,421 426,419 427,419 427,416 428,415 429,415 430,416 431,417 432,415 433,412 434,413 435,408 436,405 436,402 437,402 438,402 439,401 440,398 441,398 442,397 443,396 444,396 444,396 445,396 446,392 447,392 448,390 449,387 450,384 451,383 452,383 453,381 453,378 454,378 455,379 456,377 457,377 458,374 459,371 460,369 461,368 461,366 462,365 463,364 464,363 465,363 466,364 467,364 468,363 469,363 470,361 470,360 471,360 472,356 473,357 474,356 475,355 476,354 477,354 478,353 478,354 479,352 480,351 481,351 482,350 483,350 484,351 485,352 486,351 487,351 487,353 488,353 489,353 490,352 491,352 492,349 493,347 494,347 495,347 495,348 496,343 497,338 498,338 499,340 500,340 501,338 502,338 503,339 504,339 504,338 505,338 506,338 507,336 508,335 509,333 510,331 511,331 512,327 512,327 513,325 514,327 515,326 516,327 517,325 518,325 519,326 520,325 521,323 521,320 522,320 523,319 524,319 525,319 526,318 527,318 528,320 529,321 529,319 530,320 531,320 532,320 533,318 534,319 535,319 536,318 537,318 538,318 538,318 539,317 540,316 541,316 542,315 543,314 544,313 545,311 546,309 546,308 547,309 548,307 549,307 550,307 551,309 552,310 553,311 554,311 555,312 555,311 556,310 557,313 558,312 559,310 560,309 561,308 562,307 563,306 563,305 564,305 565,305 566,305 567,306 568,307 569,307 570,306 571,305 572,305 572,304 573,303 574,303 575,301 576,299 577,297 578,296 579,295 580,294 580,294 581,294 582,292 583,291 584,291 585,291 586,289 587,290 588,288 589,285 589,287 590,287 591,288 592,289 593,288 594,288 595,289 596,288 597,284 597,282 598,282 599,281 600,284 601,281 602,280 603,279 604,280 605,281 606,279 606,278 607,277 608,276 609,275 610,275 611,272 612,273 613,273 614,278 615,279 615,277 616,276 617,277 618,276 619,278 620,275 621,274 622,274 623,275 623,274 624,272 625,269 626,270 627,270 628,270 629,270 630,268 631,266 632,264 632,264 633,264 634,265 635,265 636,265 637,262 638,261 639,262 640,259 640,258 641,258 642,259 643,258 644,258 645,258 646,260 647,261 648,261 649,258 649,257 650,255 651,255 652,254 653,253 654,255 655,255 656,255 657,255 657,255 658,254 659,254 660,252 661,253 662,253 663,249 664,247 665,246 666,247 666,247 667,246 668,246 669,246 670,245 671,246 672,245 673,245 674,245 674,243 675,242 676,241 677,241 678,240 679,241 680,242 681,241 682,240 683,240 683,239 684,237 685,235 686,233 687,231 688,231 689,230 690,230 691,229 691,228 692,229 693,228 694,228 695,227 696,228 697,228 698,228 699,225 700,226 700,228 701,229 702,229 703,227 704,227 705,225 706,224 707,225 708,223 708,221 709,221 710,220 711,218 712,216 713,216 714,213 715,214 716,216 717,216 717,216 718,217 719,217 720,217 721,216 722,215 723,214 724,213 725,212 725,212 726,211 727,209 728,207 729,206 730,205 731,205 732,205 733,205 734,204 734,206 735,206 736,207 737,207 738,209 739,208 740,209 741,209 742,207 742,207 743,206 744,206 745,206 746,206 747,205 748,202 749,202 750,203 751,201 751,200 752,201 753,203 754,203 755,201 756,200 757,200 758,202 759,203 759,205 760,205 761,201 762,201 763,199 764,198 765,196 766,196 767,195 768,195 768,195 769,196 770,195 771,194 772,194 773,192 774,191 775,190 776,189 776,189 777,187 778,189 779,188 780,188 781,189 782,188 783,190 784,189 785,189 785,190 786,189 787,189 788,188 789,188 790,187 791,185 792,183 793,183 794,183 794,183 795,181 796,179 797,176 798,175 799,176 800,175 801,177 802,178 802,176 803,177 804,175 805,176 806,173 807,175 808,174 809,174 810,173 811,172 811,172 812,170 813,168 814,168 815,168 816,166 817,165 818,163 819,163 819,162 820,161 821,160 822,160 823,159 824,155 825,154 826,153 827,152 828,152 828,152 829,152 830,149 831,148 832,148 833,146 834,144 835,143 836,145 836,145 837,144 838,144 839,144 840,143 841,144 842,142 843,138 844,137 845,137 845,135 846,135 847,136 848,136 849,136 850,137 851,136 852,134 853,132 853,127 854,127 855,128 856,127 857,126 858,125 859,125 860,122 861,122 862,119 862,117 863,118 864,116 865,117 866,116 867,115 868,114 869,112 870,112 870,112 871,110 872,110 873,111 874,110 875,110 876,110 877,109 878,109 879,109 879,109 880,110 881,110 882,110 883,111 884,111 885,110 886,106 887,106 887,106 888,106 889,107 890,104 891,103 892,102 893,101 894,102 895,102 896,99 896,98 897,99 898,101 899,100 900,99 901,99 902,99 903,98 904,97 904,96 905,96 906,97 907,98 908,99 909,100 910,98 911,97 912,98 913,94 913,95 914,95 915,95 916,96 917,98 918,99 919,97 920,97 921,97 921,98 922,98 923,98 924,98 925,95 926,95 927,94 928,95 929,95 930,94 930,91 931,90 932,88 933,87 934,85 935,85 936,86 937,84 938,83 938,83 939,81 940,82 941,83 942,81 943,81 944,82 945,83 946,80 947,79 947,78 948,77 949,77 950,79 951,79 952,80 953,80 954,80 955,80 955,80 956,79 957,77 958,75 959,73 960,71 961,70 962,69 963,69 964,68 964,68 965,68 966,70 967,72 968,72 969,72 970,73 971,71 972,70 973,69 973,361 973,361 "/>
<line opacity="0.1" stroke="#000000" stroke-width="1" x1="79" y1="699" x2="79" y2="68"/>
<line opacity="0.1" stroke="#000000" stroke-width="1" x1="87" y1="699" x2="87" y2="68"/>
<line opacity="0.1" stroke="#000000" stroke-width="1" x1="96" y1="699" x2="96" y2="68"/>
<line opacity="0.1" stroke="#000000" stroke-width="1" x1="105" y1="699" x2="105" y2="68"/>
<line opacity="0.1" stroke="#000000" stroke-width="1" x1="114" y1="699" x2="114" y2="68"/>
<line opacity="0.1" stroke="#000000" stroke-width="1" x1="123" y1="699" x2="123" y2="68"/>
<line opacity="0.1" stroke="#000000" stroke-width="1" x1="132" y1="699" x2="132" y2="68"/>
<line opacity="0.1" stroke="#000000" stroke-width="1" x1="141" y1="699" x2="141" y2="68"/>
<line opacity="0.1" stroke="#000000" stroke-width="1" x1="150" y1="699" x2="150" y2="68"/>
<line opacity="0.1" stroke="#000000" stroke-width="1" x1="159" y1="699" x2="159" y2="68"/>
<line opacity="0.1" stroke="#000000" stroke-width="1" x1="168" y1="699" x2="168" y2="68"/>
<line opacity="0.1" stroke="#000000" stroke-width="1" x1="177" y1="699" x2="177" y2="68"/>
<line opacity="0.1" stroke="#000000" stroke-width="1" x1="186" y1="699" x2="186" y2="68"/>
<line opacity="0.1" stroke="#000000" stroke-width="1" x1="195" y1="699" x2="195" y2="68"/>
<line opacity="0.1" stroke="#000000" stroke-width="1" x1="204" y1="699" x2="204" y2="68"/>
<line opacity="0.1" stroke="#000000" stroke-width="1" x1="213" y1="699" x2="213" y2="68"/>
<line opacity="0.1" stroke="#000000" stroke-width="1" x1="222" y1="699" x2="222" y2="68"/>
<line opacity="0.1" stroke="#000000" stroke-width="1" x1="231" y1="699" x2="231" y2="68"/>
<line opacity="0.1" stroke="#000000" stroke-width="1" x1="240" y1="699" x2="240" y2="68"/>
<line opacity="0.1" stroke="#000000" stroke-width="1" x1="249" y1="699" x2="249" y2="68"/>
<line opacity="0.1" stroke="#000000" stroke-width="1" x1="257" y1="699" x2="257" y2="68"/>
<line opacity="0.1" stroke="#000000" stroke-width="1" x1="266" y1="699" x2="266" y2="68"/>
<line opacity="0.1" stroke="#000000" stroke-width="1" x1="275" y1="699" x2="275" y2="68"/>
<line opacity="0.1" stroke="#000000" stroke-width="1" x1="284" y1="699" x2="284" y2="68"/>
<line opacity="0.1" stroke="#000000" stroke-width="1" x1="293" y1="699" x2="293" y2="68"/>
<line opacity="0.1" stroke="#000000" stroke-width="1" x1="302" y1="699" x2="302" y2="68"/>
<line opacity="0.1" stroke="#000000" stroke-width="1" x1="311" y1="699" x2="311" y2="68"/>
<line opacity="0.1" stroke="#000000" stroke-width="1" x1="320" y1="699" x2="320" y2="68"/>
<line opacity="0.1" stroke="#000000" stroke-width="1" x1="329" y1="699" x2="329" y2="68"/>
<line opacity="0.1" stroke="#000000" stroke-width="1" x1="338" y1="699" x2="338" y2="68"/>
<line opacity="0.1" stroke="#000000" stroke-width="1" x1="347" y1="699" x2="347" y2="68"/>
<line opacity="0.1" stroke="#000000" stroke-width="1" x1="356" y1="699" x2="356" y2="68"/>
<line opacity="0.1" stroke="#000000" stroke-width="1" x1="365" y1="699" x2="365" y2="68"/>
<line opacity="0.1" stroke="#000000" stroke-width="1" x1="374" y1="699" x2="374" y2="68"/>
<line opacity="0.1" stroke="#000000" stroke-width="1" x1="383" y1="699" x2="383" y2="68"/>
<line opacity="0.1" stroke="#000000" stroke-width="1" x1="392" y1="699" x2="392" y2="68"/>
<line opacity="0.1" stroke="#000000" stroke-width="1" x1="401" y1="699" x2="401" y2="68"/>
<line opacity="0.1" stroke="#000000" stroke-width="1" x1="410" y1="699" x2="410" y2="68"/>
<line opacity="0.1" stroke="#000000" stroke-width="1" x1="419" y1="699" x2="419" y2="68"/>
<line opacity="0.1" stroke="#000000" stroke-width="1" x1="427" y1="699" x2="427" y2="68"/>
<line opacity="0.1" stroke="#000000" stroke-width="1" x1="436" y1="699" x2="436" y2="68"/>
<line opacity="0.1" stroke="#000000" stroke-width="1" x1="445" y1="699" x2="445" y2="68"/>
<line opacity="0.1" stroke="#000000" stroke-width="1" x1="454" y1="699" x2="454" y2="68"/>
<line opacity="0.1" stroke="#000000" stroke-width="1" x1="463" y1="699" x2="463" y2="68"/>
<line opacity="0.1" stroke="#000000" stroke-width="1" x1="472" y1="699" x2="472" y2="68"/>
<line opacity="0.1" stroke="#000000" stroke-width="1" x1="481" y1="699" x2="481" y2="68"/>
<line opacity="0.1" stroke="#000000" stroke-width="1" x1="490" y1="699" x2="490" y2="68"/>
<line opacity="0.1" stroke="#000000" stroke-width="1" x1="499" y1="699" x2="499" y2="68"/>
<line opacity="0.1" stroke="#000000" stroke-width="1" x1="508" y1="699" x2="508" y2="68"/>
<line opacity="0.1" stroke="#000000" stroke-width="1" x1="517" y1="699" x2="517" y2="68"/>
<line opacity="0.1" stroke="#000000" stroke-width="1" x1="526" y1="699" x2="526" y2="68"/>
<line opacity="0.1" stroke="#000000" stroke-width="1" x1="535" y1="699" x2="535" y2="68"/>
<line opacity="0.1" stroke="#000000" stroke-width="1" x1="544" y1="699" x2="544" y2="68"/>
<line opacity="0.1" stroke="#000000" stroke-width="1" x1="553" y1="699" x2="553" y2="68"/>
<line opacity="0.1" stroke="#000000" stroke-width="1" x1="562" y1="699" x2="562" y2="68"/>
<line opacity="0.1" stroke="#000000" stroke-width="1" x1="571" y1="699" x2="571" y2="68"/>
<line opacity="0.1" stroke="#000000" stroke-width="1" x1="580" y1="699" x2="580" y2="68"/>
<line opacity="0.1" stroke="#000000" stroke-width="1" x1="589" y1="699" x2="589" y2="68"/>
<line opacity="0.1" stroke="#000000" stroke-width="1" x1="598" y1="699" x2="598" y2="68"/>
<line opacity="0.1" stroke="#000000" stroke-width="1" x1="606" y1="699" x2="606" y2="68"/>
<line opacity="0.1" stroke="#000000" stroke-width="1" x1="615" y1="699" x2="615" y2="68"/>
<line opacity="0.1" stroke="#000000" stroke-width="1" x1="624" y1="699" x2="624" y2="68"/>
<line opacity="0.1" stroke="#000000" stroke-width="1" x1="633" y1="699" x2="633" y2="68"/>
<line opacity="0.1" stroke="#000000" stroke-width="1" x1="642" y1="699" x2="642" y2="68"/>
<line opacity="0.1" stroke="#000000" stroke-width="1" x1="651" y1="699" x2="651" y2="68"/>
<line opacity="0.1" stroke="#000000" stroke-width="1" x1="660" y1="699" x2="660" y2="68"/>
<line opacity="0.1" stroke="#000000" stroke-width="1" x1="669" y1="699" x2="669" y2="68"/>
<line opacity="0.1" stroke="#000000" stroke-width="1" x1="678" y1="699" x2="678" y2="68"/>
<line opacity="0.1" stroke="#000000" stroke-width="1" x1="687" y1="699" x2="687" y2="68"/>
<line opacity="0.1" stroke="#000000" stroke-width="1" x1="696" y1="699" x2="696" y2="68"/>
<line opacity="0.1" stroke="#000000" stroke-width="1" x1="705" y1="699" x2="705" y2="68"/>
<line opacity="0.1" stroke="#000000" stroke-width="1" x1="714" y1="699" x2="714" y2="68"/>
<line opacity="0.1" stroke="#000000" stroke-width="1" x1="723" y1="699" x2="723" y2="68"/>
<line opacity="0.1" stroke="#000000" stroke-width="1" x1="732" y1="699" x2="732" y2="68"/>
<line opacity="0.1" stroke="#000000" stroke-width="1" x1="741" y1="699" x2="741" y2="68"/>
<line opacity="0.1" stroke="#000000" stroke-width="1" x1="750" y1="699" x2="750" y2="68"/>
<line opacity="0.1" stroke="#000000" stroke-width="1" x1="759" y1="699" x2="759" y2="68"/>
<line opacity="0.1" stroke="#000000" stroke-width="1" x1="768" y1="699" x2="768" y2="68"/>
<line opacity="0.1" stroke="#000000" stroke-width="1" x1="776" y1="699" x2="776" y2="68"/>
<line opacity="0.1" stroke="#000000" stroke-width="1" x1="785" y1="699" x2="785" y2="68"/>
<line opacity="0.1" stroke="#000000" stroke-width="1" x1="794" y1="699" x2="794" y2="68"/>
<line opacity="0.1" stroke="#000000" stroke-width="1" x1="803" y1="699" x2="803" y2="68"/>
<line opacity="0.1" stroke="#000000" stroke-width="1" x1="812" y1="699" x2="812" y2="68"/>
<line opacity="0.1" stroke="#000000" stroke-width="1" x1="821" y1="699" x2="821" y2="68"/>
<line opacity="0.1" stroke="#000000" stroke-width="1" x1="830" y1="699" x2="830" y2="68"/>
<line opacity="0.1" stroke="#000000" stroke-width="1" x1="839" y1="699" x2="839" y2="68"/>
<line opacity="0.1" stroke="#000000" stroke-width="1" x1="848" y1="699" x2="848" y2="68"/>
<line opacity="0.1" stroke="#000000" stroke-width="1" x1="857" y1="699" x2="857" y2="68"/>
<line opacity="0.1" stroke="#000000" stroke-width="1" x1="866" y1="699" x2="866" y2="68"/>
<line opacity="0.1" stroke="#000000" stroke-width="1" x1="875" y1="699" x2="875" y2="68"/>
<line opacity="0.1" stroke="#000000" stroke-width="1" x1="884" y1="699" x2="884" y2="68"/>
<line opacity="0.1" stroke="#000000" stroke-width="1" x1="893" y1="699" x2="893" y2="68"/>
<line opacity="0.1" stroke="#000000" stroke-width="1" x1="902" y1="699" x2="902" y2="68"/>
<line opacity="0.1" stroke="#000000" stroke-width="1" x1="911" y1="699" x2="911" y2="68"/>
<line opacity="0.1" stroke="#000000" stroke-width="1" x1="920" y1="699" x2="920" y2="68"/>
<line opacity="0.1" stroke="#000000" stroke-width="1" x1="929" y1="699" x2="929" y2="68"/>
<line opacity="0.1" stroke="#000000" stroke-width="1" x1="938" y1="699" x2="938" y2="68"/>
<line opacity="0.1" stroke="#000000" stroke-width="1" x1="946" y1="699" x2="946" y2="68"/>
<line opacity="0.1" stroke="#000000" stroke-width="1" x1="955" y1="699" x2="955" y2="68"/>
<line opacity="0.1" stroke="#000000" stroke-width="1" x1="964" y1="699" x2="964" y2="68"/>
<line opacity="0.1" stroke="#000000" stroke-width="1" x1="78" y1="699" x2="973" y2="699"/>
<line opacity="0.1" stroke="#000000" stroke-width="1" x1="78" y1="692" x2="973" y2="692"/>
<line opacity="0.1" stroke="#000000" stroke-width="1" x1="78" y1="686" x2="973" y2="686"/>
<line opacity="0.1" stroke="#000000" stroke-width="1" x1="78" y1="680" x2="973" y2="680"/>
<line opacity="0.1" stroke="#000000" stroke-width="1" x1="78" y1="673" x2="973" y2="673"/>
<line opacity="0.1" stroke="#000000" stroke-width="1" x1="78" y1="667" x2="973" y2="667"/>
<line opacity="0.1" stroke="#000000" stroke-width="1" x1="78" y1="661" x2="973" y2="661"/>
<line opacity="0.1" stroke="#000000" stroke-width="1" x1="78" y1="655" x2="973" y2="655"/>
<line opacity="0.1" stroke="#000000" stroke-width="1" x1="78" y1="648" x2="973" y2="648"/>
<line opacity="0.1" stroke="#000000" stroke-width="1" x1="78" y1="642" x2="973" y2="642"/>
<line opacity="0.1" stroke="#000000" stroke-width="1" x1="78" y1="636" x2="973" y2="636"/>
<line opacity="0.1" stroke="#000000" stroke-width="1" x1="78" y1="630" x2="973" y2="630"/>
<line opacity="0.1" stroke="#000000" stroke-width="1" x1="78" y1="623" x2="973" y2="623"/>
<line opacity="0.1" stroke="#000000" stroke-width="1" x1="78" y1="617" x2="973" y2="617"/>
<line opacity="0.1" stroke="#000000" stroke-width="1" x1="78" y1="611" x2="973" y2="611"/>
<line opacity="0.1" stroke="#000000" stroke-width="1" x1="78" y1="605" x2="973" y2="605"/>
<line opacity="0.1" stroke="#000000" stroke-width="1" x1="78" y1="598" x2="973" y2="598"/>
<line opacity="0.1" stroke="#000000" stroke-width="1" x1="78" y1="592" x2="973" y2="592"/>
<line opacity="0.1" stroke="#000000" stroke-width="1" x1="78" y1="586" x2="973" y2="586"/>
<line opacity="0.1" stroke="#000000" stroke-width="1" x1="78" y1="579" x2="973" y2="579"/>
<line opacity="0.1" stroke="#000000" stroke-width="1" x1="78" y1="573" x2="973" y2="573"/>
<line opacity="0.1" stroke="#000000" stroke-width="1" x1="78" y1="567" x2="973" y2="567"/>
<line opacity="0.1" stroke="#000000" stroke-width="1" x1="78" y1="561" x2="973" y2="561"/>
<line opacity="0.1" stroke="#000000" stroke-width="1" x1="78" y1="554" x2="973" y2="554"/>
<line opacity="0.1" stroke="#000000" stroke-width="1" x1="78" y1="548" x2="973" y2="548"/>
<line opacity="0.1" stroke="#000000" stroke-width="1" x1="78" y1="542" x2="973" y2="542"/>
<line opacity="0.1" stroke="#000000" stroke-width="1" x1="78" y1="536" x2="973" y2="536"/>
<line opacity="0.1" stroke="#000000" stroke-width="1" x1="78" y1="529" x2="973" y2="529"/>
<line opacity="0.1" stroke="#000000" stroke-width="1" x1="78" y1="523" x2="973" y2="523"/>
<line opacity="0.1" stroke="#000000" stroke-width="1" x1="78" y1="517" x2="973" y2="517"/>
<line opacity="0.1" stroke="#000000" stroke-width="1" x1="78" y1="511" x2="973" y2="511"/>
<line opacity="0.1" stroke="#000000" stroke-width="1" x1="78" y1="504" x2="973" y2="504"/>
<line opacity="0.1" stroke="#000000" stroke-width="1" x1="78" y1="498" x2="973" y2="498"/>
<line opacity="0.1" stroke="#000000" stroke-width="1" x1="78" y1="492" x2="973" y2="492"/>
<line opacity="0.1" stroke="#000000" stroke-width="1" x1="78" y1="486" x2="973" y2="486"/>
<line opacity="0.1" stroke="#000000" stroke-width="1" x1="78" y1="479" x2="973" y2="479"/>
<line opacity="0.1" stroke="#000000" stroke-width="1" x1="78" y1="473" x2="973" y2="473"/>
<line opacity="0.1" stroke="#000000" stroke-width="1" x1="78" y1="467" x2="973" y2="467"/>
<line opacity="0.1" stroke="#000000" stroke-width="1" x1="78" y1="460" x2="973" y2="460"/>
<line opacity="0.1" stroke="#000000" stroke-width="1" x1="78" y1="454" x2="973" y2="454"/>
<line opacity="0.1" stroke="#000000" stroke-width="1" x1="78" y1="448" x2="973" y2="448"/>
<line opacity="0.1" stroke="#000000" stroke-width="1" x1="78" y1="442" x2="973" y2="442"/>
<line opacity="0.1" stroke="#000000" stroke-width="1" x1="78" y1="435" x2="973" y2="435"/>
<line opacity="0.1" stroke="#000000" stroke-width="1" x1="78" y1="429" x2="973" y2="429"/>
<line opacity="0.1" stroke="#000000" stroke-width="1" x1="78" y1="423" x2="973" y2="423"/>
<line opacity="0.1" stroke="#000000" stroke-width="1" x1="78" y1="417" x2="973" y2="417"/>
<line opacity="0.1" stroke="#000000" stroke-width="1" x1="78" y1="410" x2="973" y2="410"/>
<line opacity="0.1" stroke="#000000" stroke-width="1" x1="78" y1="404" x2="973" y2="404"/>
<line opacity="0.1" stroke="#000000" stroke-width="1" x1="78" y1="398" x2="973" y2="398"/>
<line opacity="0.1" stroke="#000000" stroke-width="1" x1="78" y1="392" x2="973" y2="392"/>
<line opacity="0.1" stroke="#000000" stroke-width="1" x1="78" y1="385" x2="973" y2="385"/>
<line opacity="0.1" stroke="#000000" stroke-width="1" x1="78" y1="379" x2="973" y2="379"/>
<line opacity="0.1" stroke="#000000" stroke-width="1" x1="78" y1="373" x2="973" y2="373"/>
<line opacity="0.1" stroke="#000000" stroke-width="1" x1="78" y1="367" x2="973" y2="367"/>
<line opacity="0.1" stroke="#000000" stroke-width="1" x1="78" y1="360" x2="973" y2="360"/>
<line opacity="0.1" stroke="#000000" stroke-width="1" x1="78" y1="354" x2="973" y2="354"/>
<line opacity="0.1" stroke="#000000" stroke-width="1" x1="78" y1="348" x2="973" y2="348"/>
<line opacity="0.1" stroke="#000000" stroke-width="1" x1="78" y1="341" x2="973" y2="341"/>
<line opacity="0.1" stroke="#000000" stroke-width="1" x1="78" y1="335" x2="973" y2="335"/>
<line opacity="0.1" stroke="#000000" stroke-width="1" x1="78" y1="329" x2="973" y2="329"/>
<line opacity="0.1" stroke="#000000" stroke-width="1" x1="78" y1="323" x2="973" y2="323"/>
<line opacity="0.1" stroke="#000000" stroke-width="1" x1="78" y1="316" x2="973" y2="316"/>
<line opacity="0.1" stroke="#000000" stroke-width="1" x1="78" y1="310" x2="973" y2="310"/>
<line opacity="0.1" stroke="#000000" stroke-width="1" x1="78" y1="304" x2="973" y2="304"/>
<line opacity="0.1" stroke="#000000" stroke-width="1" x1="78" y1="298" x2="973" y2="298"/>
<line opacity="0.1" stroke="#000000" stroke-width="1" x1="78" y1="291" x2="973" y2="291"/>
<line opacity="0.1" stroke="#000000" stroke-width="1" x1="78" y1="285" x2="973" y2="285"/>
<line opacity="0.1" stroke="#000000" stroke-width="1" x1="78" y1="279" x2="973" y2="279"/>
<line opacity="0.1" stroke="#000000" stroke-width="1" x1="78" y1="273" x2="973" y2="273"/>
<line opacity="0.1" stroke="#000000" stroke-width="1" x1="78" y1="266" x2="973" y2="266"/>
<line opacity="0.1" stroke="#000000" stroke-width="1" x1="78" y1="260" x2="973" y2="260"/>
<line opacity="0.1" stroke="#000000" stroke-width="1" x1="78" y1="254" x2="973" y2="254"/>
<line opacity="0.1" stroke="#000000" stroke-width="1" x1="78" y1="248" x2="973" y2="248"/>
<line opacity="0.1" stroke="#000000" stroke-width="1" x1="78" y1="241" x2="973" y2="241"/>
<line opacity="0.1" stroke="#000000" stroke-width="1" x1="78" y1="235" x2="973" y2="235"/>
<line opacity="0.1" stroke="#000000" stroke-width="1" x1="78" y1="229" x2="973" y2="229"/>
<line opacity="0.1" stroke="#000000" stroke-width="1" x1="78" y1="222" x2="973" y2="222"/>
<line opacity="0.1" stroke="#000000" stroke-width="1" x1="78" y1="216" x2="973" y2="216"/>
<line opacity="0.1" stroke="#000000" stroke-width="1" x1="78" y1="210" x2="973" y2="210"/>
<line opacity="0.1" stroke="#000000" stroke-width="1" x1="78" y1="204" x2="973" y2="204"/>
<line opacity="0.1" stroke="#000000" stroke-width="1" x1="78" y1="197" x2="973" y2="197"/>
<line opacity="0.1" stroke="#000000" stroke-width="1" x1="78" y1="191" x2="973" y2="191"/>
<line opacity="0.1" stroke="#000000" stroke-width="1" x1="78" y1="185" x2="973" y2="185"/>
<line opacity="0.1" stroke="#000000" stroke-width="1" x1="78" y1="179" x2="973" y2="179"/>
<line opacity="0.1" stroke="#000000" stroke-width="1" x1="78" y1="172" x2="973" y2="172"/>
<line opacity="0.1" stroke="#000000" stroke-width="1" x1="78" y1="166" x2="973" y2="166"/>
<line opacity="0.1" stroke="#000000" stroke-width="1" x1="78" y1="160" x2="973" y2="160"/>
<line opacity="0.1" stroke="#000000" stroke-width="1" x1="78" y1="154" x2="973" y2="154"/>
<line opacity="0.1" stroke="#000000" stroke-width="1" x1="78" y1="147" x2="973" y2="147"/>
<line opacity="0.1" stroke="#000000" stroke-width="1" x1="78" y1="141" x2="973" y2="141"/>
<line opacity="0.1" stroke="#000000" stroke-width="1" x1="78" y1="135" x2="973" y2="135"/>
<line opacity="0.1" stroke="#000000" stroke-width="1" x1="78" y1="129" x2="973" y2="129"/>
<line opacity="0.1" stroke="#000000" stroke-width="1" x1="78" y1="122" x2="973" y2="122"/>
<line opacity="0.1" stroke="#000000" stroke-width="1" x1="78" y1="116" x2="973" y2="116"/>
<line opacity="0.1" stroke="#000000" stroke-width="1" x1="78" y1="110" x2="973" y2="110"/>
<line opacity="0.1" stroke="#000000" stroke-width="1" x1="78" y1="103" x2="973" y2="103"/>
<line opacity="0.1" stroke="#000000" stroke-width="1" x1="78" y1="97" x2="973" y2="97"/>
<line opacity="0.1" stroke="#000000" stroke-width="1" x1="78" y1="91" x2="973" y2="91"/>
<line opacity="0.1" stroke="#000000" stroke-width="1" x1="78" y1="85" x2="973" y2="85"/>
<line opacity="0.1" stroke="#000000" stroke-width="1" x1="78" y1="78" x2="973" y2="78"/>
<line opacity="0.1" stroke="#000000" stroke-width="1" x1="78" y1="72" x2="973" y2="72"/>
<text x="8" y="384" dy="0.76em" text-anchor="middle" font-family="sans-serif" font-size="9.67741935483871" opacity="1" fill="#000000" transform="rotate(270, 8, 384)">
Live allocations
</text>
<text x="526" y="760" dy="-0.5ex" text-anchor="middle" font-family="sans-serif" font-size="9.67741935483871" opacity="1" fill="#000000">
Time
</text>
<line opacity="0.2" stroke="#000000" stroke-width="1" x1="96" y1="699" x2="96" y2="68"/>
<line opacity="0.2" stroke="#000000" stroke-width="1" x1="186" y1="699" x2="186" y2="68"/>
<line opacity="0.2" stroke="#000000" stroke-width="1" x1="275" y1="699" x2="275" y2="68"/>
<line opacity="0.2" stroke="#000000" stroke-width="1" x1="365" y1="699" x2="365" y2="68"/>
<line opacity="0.2" stroke="#000000" stroke-width="1" x1="454" y1="699" x2="454" y2="68"/>
<line opacity="0.2" stroke="#000000" stroke-width="1" x1="544" y1="699" x2="544" y2="68"/>
<line opacity="0.2" stroke="#000000" stroke-width="1" x1="633" y1="699" x2="633" y2="68"/>
<line opacity="0.2" stroke="#000000" stroke-width="1" x1="723" y1="699" x2="723" y2="68"/>
<line opacity="0.2" stroke="#000000" stroke-width="1" x1="812" y1="699" x2="812" y2="68"/>
<line opacity="0.2" stroke="#000000" stroke-width="1" x1="902" y1="699" x2="902" y2="68"/>
<line opacity="0.2" stroke="#000000" stroke-width="1" x1="78" y1="699" x2="973" y2="699"/>
<line opacity="0.2" stroke="#000000" stroke-width="1" x1="78" y1="573" x2="973" y2="573"/>
<line opacity="0.2" stroke="#000000" stroke-width="1" x1="78" y1="448" x2="973" y2="448"/>
<line opacity="0.2" stroke="#000000" stroke-width="1" x1="78" y1="323" x2="973" y2="323"/>
<line opacity="0.2" stroke="#000000" stroke-width="1" x1="78" y1="197" x2="973" y2="197"/>
<line opacity="0.2" stroke="#000000" stroke-width="1" x1="78" y1="72" x2="973" y2="72"/>
<polyline fill="none" opacity="1" stroke="#000000" stroke-width="1" points="77,68 77,699 "/>
<text x="68" y="699" dy="0.5ex" text-anchor="end" font-family="sans-serif" font-size="9.67741935483871" opacity="1" fill="#000000">
0.00 K
</text>
<polyline fill="none" opacity="1" stroke="#000000" stroke-width="1" points="72,699 77,699 "/>
<text x="68" y="573" dy="0.5ex" text-anchor="end" font-family="sans-serif" font-size="9.67741935483871" opacity="1" fill="#000000">
1.00 K
</text>
<polyline fill="none" opacity="1" stroke="#000000" stroke-width="1" points="72,573 77,573 "/>
<text x="68" y="448" dy="0.5ex" text-anchor="end" font-family="sans-serif" font-size="9.67741935483871" opacity="1" fill="#000000">
2.00 K
</text>
<polyline fill="none" opacity="1" stroke="#000000" stroke-width="1" points="72,448 77,448 "/>
<text x="68" y="323" dy="0.5ex" text-anchor="end" font-family="sans-serif" font-size="9.67741935483871" opacity="1" fill="#000000">
3.00 K
</text>
<polyline fill="none" opacity="1" stroke="#000000" stroke-width="1" points="72,323 77,323 "/>
<text x="68" y="197" dy="0.5ex" text-anchor="end" font-family="sans-serif" font-size="9.67741935483871" opacity="1" fill="#000000">
4.00 K
</text>
<polyline fill="none" opacity="1" stroke="#000000" stroke-width="1" points="72,197 77,197 "/>
<text x="68" y="72" dy="0.5ex" text-anchor="end" font-family="sans-serif" font-size="9.67741935483871" opacity="1" fill="#000000">
5.00 K
</text>
<polyline fill="none" opacity="1" stroke="#000000" stroke-width="1" points="72,72 77,72 "/>
<polyline fill="none" opacity="1" stroke="#000000" stroke-width="1" points="78,700 973,700 "/>
<text x="96" y="710" dy="0.76em" text-anchor="middle" font-family="sans-serif" font-size="9.67741935483871" opacity="1" fill="#000000">
02:04:17
</text>
<polyline fill="none" opacity="1" stroke="#000000" stroke-width="1" points="96,700 96,705 "/>
<text x="186" y="710" dy="0.76em" text-anchor="middle" font-family="sans-serif" font-size="9.67741935483871" opacity="1" fill="#000000">
02:04:18
</text>
<polyline fill="none" opacity="1" stroke="#000000" stroke-width="1" points="186,700 186,705 "/>
<text x="275" y="710" dy="0.76em" text-anchor="middle" font-family="sans-serif" font-size="9.67741935483871" opacity="1" fill="#000000">
02:04:19
</text>
<polyline fill="none" opacity="1" stroke="#000000" stroke-width="1" points="275,700 275,705 "/>
<text x="365" y="710" dy="0.76em" text-anchor="middle" font-family="sans-serif" font-size="9.67741935483871" opacity="1" fill="#000000">
02:04:20
</text>
<polyline fill="none" opacity="1" stroke="#000000" stroke-width="1" points="365,700 365,705 "/>
<text x="454" y="710" dy="0.76em" text-anchor="middle" font-family="sans-serif" font-size="9.67741935483871" opacity="1" fill="#000000">
02:04:21
</text>
<polyline fill="none" opacity="1" stroke="#000000" stroke-width="1" points="454,700 454,705 "/>
<text x="544" y="710" dy="0.76em" text-anchor="middle" font-family="sans-serif" font-size="9.67741935483871" opacity="1" fill="#000000">
02:04:22
</text>
<polyline fill="none" opacity="1" stroke="#000000" stroke-width="1" points="544,700 544,705 "/>
<text x="633" y="710" dy="0.76em" text-anchor="middle" font-family="sans-serif" font-size="9.67741935483871" opacity="1" fill="#000000">
02:04:23
</text>
<polyline fill="none" opacity="1" stroke="#000000" stroke-width="1" points="633,700 633,705 "/>
<text x="723" y="710" dy="0.76em" text-anchor="middle" font-family="sans-serif" font-size="9.67741935483871" opacity="1" fill="#000000">
02:04:24
</text>
<polyline fill="none" opacity="1" stroke="#000000" stroke-width="1" points="723,700 723,705 "/>
<text x="812" y="710" dy="0.76em" text-anchor="middle" font-family="sans-serif" font-size="9.67741935483871" opacity="1" fill="#000000">
02:04:25
</text>
<polyline fill="none" opacity="1" stroke="#000000" stroke-width="1" points="812,700 812,705 "/>
<text x="902" y="710" dy="0.76em" text-anchor="middle" font-family="sans-serif" font-size="9.67741935483871" opacity="1" fill="#000000">
02:04:26
</text>
<polyline fill="none" opacity="1" stroke="#000000" stroke-width="1" points="902,700 902,705 "/>
<polyline fill="none" opacity="1" stroke="#000000" stroke-width="1" points="78,67 974,67 "/>
<text x="96" y="58" dy="-0.5ex" text-anchor="middle" font-family="sans-serif" font-size="9.67741935483871" opacity="1" fill="#000000">
+265ms
</text>
<polyline fill="none" opacity="1" stroke="#000000" stroke-width="1" points="96,62 96,67 "/>
<text x="186" y="58" dy="-0.5ex" text-anchor="middle" font-family="sans-serif" font-size="9.67741935483871" opacity="1" fill="#000000">
+1s
</text>
<polyline fill="none" opacity="1" stroke="#000000" stroke-width="1" points="186,62 186,67 "/>
<text x="276" y="58" dy="-0.5ex" text-anchor="middle" font-family="sans-serif" font-size="9.67741935483871" opacity="1" fill="#000000">
+2s
</text>
<polyline fill="none" opacity="1" stroke="#000000" stroke-width="1" points="276,62 276,67 "/>
<text x="365" y="58" dy="-0.5ex" text-anchor="middle" font-family="sans-serif" font-size="9.67741935483871" opacity="1" fill="#000000">
+3s
</text>
<polyline fill="none" opacity="1" stroke="#000000" stroke-width="1" points="365,62 365,67 "/>
<text x="455" y="58" dy="-0.5ex" text-anchor="middle" font-family="sans-serif" font-size="9.67741935483871" opacity="1" fill="#000000">
+4s
</text>
<polyline fill="none" opacity="1" stroke="#000000" stroke-width="1" points="455,62 455,67 "/>
<text x="544" y="58" dy="-0.5ex" text-anchor="middle" font-family="sans-serif" font-size="9.67741935483871" opacity="1" fill="#000000">
+5s
</text>
<polyline fill="none" opacity="1" stroke="#000000" stroke-width="1" points="544,62 544,67 "/>
<text x="634" y="58" dy="-0.5ex" text-anchor="middle" font-family="sans-serif" font-size="9.67741935483871" opacity="1" fill="#000000">
+6s
</text>
<polyline fill="none" opacity="1" stroke="#000000" stroke-width="1" points="634,62 634,67 "/>
<text x="724" y="58" dy="-0.5ex" text-anchor="middle" font-family="sans-serif" font-size="9.67741935483871" opacity="1" fill="#000000">
+7s
</text>
<polyline fill="none" opacity="1" stroke="#000000" stroke-width="1" points="724,62 724,67 "/>
<text x="813" y="58" dy="-0.5ex" text-anchor="middle" font-family="sans-serif" font-size="9.67741935483871" opacity="1" fill="#000000">
+8s
</text>
<polyline fill="none" opacity="1" stroke="#000000" stroke-width="1" points="813,62 813,67 "/>
<text x="903" y="58" dy="-0.5ex" text-anchor="middle" font-family="sans-serif" font-size="9.67741935483871" opacity="1" fill="#000000">
+9s
</text>
<polyline fill="none" opacity="1" stroke="#000000" stroke-width="1" points="903,62 903,67 "/>
</svg>
