<svg width="1024" height="768" viewBox="0 0 1024 768" xmlns="http://www.w3.org/2000/svg">
<rect x="0" y="0" width="1023" height="767" opacity="1" fill="#FFFFFF" stroke="none"/>
<polygon opacity="1" fill="#E6194B" points="302,646 302,612 303,578 304,570 304,565 305,562 306,555 306,545 307,544 308,541 308,532 309,527 310,532 310,528 311,533 312,529 312,530 313,530 314,527 314,515 315,509 316,500 316,501 317,497 318,494 318,489 319,494 320,499 320,493 321,488 322,473 322,474 323,465 324,461 324,474 325,479 326,485 326,483 327,484 328,485 328,488 329,476 330,483 330,477 331,465 332,466 332,475 333,478 334,485 334,485 335,474 336,472 336,474 337,481 338,485 338,487 339,490 340,492 340,498 341,500 342,508 342,496 343,499 344,488 345,487 345,490 346,492 347,495 347,500 348,500 349,507 349,523 350,513 351,513 351,530 352,523 353,516 353,518 354,521 355,525 355,520 356,521 357,519 357,516 358,507 359,502 359,505 360,501 361,506 361,512 362,517 363,512 363,509 364,507 365,503 365,494 366,498 367,497 367,501 368,507 369,505 369,510 370,505 371,505 371,503 372,498 373,498 373,491 374,481 375,471 375,471 376,478 377,482 377,473 378,473 379,479 379,476 380,479 381,479 381,475 382,472 383,461 383,455 384,454 385,450 386,440 386,440 387,440 388,451 388,454 389,470 390,475 390,475 391,492 392,501 392,492 393,487 394,488 394,488 395,477 396,472 396,472 397,485 398,497 398,496 399,494 400,493 400,486 401,495 402,488 402,486 403,476 404,468 404,468 405,461 406,471 406,466 407,470 408,475 408,476 409,475 410,478 410,473 411,472 412,474 412,476 413,491 414,489 414,488 415,485 416,482 416,481 417,479 418,487 418,478 419,480 420,486 420,480 421,480 422,481 422,487 423,492 424,488 424,492 425,482 426,482 426,485 427,488 428,495 429,496 429,491 430,493 431,489 431,480 432,481 433,483 433,481 434,471 435,473 435,477 436,480 437,472 437,475 438,479 439,480 439,477 440,488 441,484 441,475 442,464 443,463 443,459 444,475 445,470 445,457 446,448 447,445 447,443 448,432 449,436 449,437 450,440 451,433 451,425 452,425 453,423 453,423 454,427 455,435 455,434 456,423 457,425 457,424 458,422 459,424 459,431 460,435 461,432 461,432 462,422 463,419 463,416 464,411 465,414 465,414 466,411 467,415 467,420 468,420 469,422 470,422 470,425 471,425 472,425 472,422 473,425 474,427 474,428 475,429 476,439 476,438 477,427 478,423 478,429 479,429 480,409 480,406 481,405 482,406 482,405 483,404 484,407 484,407 485,400 486,398 486,393 487,393 488,393 488,392 489,390 490,394 490,394 491,396 492,396 492,400 493,412 494,403 494,395 495,390 496,395 496,384 497,380 498,385 498,392 499,384 500,385 500,390 501,390 502,378 502,374 503,380 504,376 504,377 505,382 506,386 506,394 507,395 508,394 508,386 509,382 510,376 510,380 511,379 512,376 513,379 513,374 514,379 515,390 515,394 516,395 517,393 517,394 518,398 519,395 519,400 520,403 521,403 521,398 522,402 523,405 523,403 524,405 525,405 525,406 526,398 527,401 527,408 528,411 529,404 529,409 530,410 531,408 531,392 532,391 533,405 533,406 534,405 535,405 535,413 536,406 537,406 537,401 538,400 539,402 539,401 540,404 541,411 541,405 542,397 543,396 543,391 544,394 545,407 545,410 546,402 547,395 547,394 548,395 549,399 549,401 550,390 551,385 551,384 552,394 553,400 554,398 554,391 555,390 556,388 556,384 557,384 558,386 558,374 559,370 560,380 560,379 561,397 562,391 562,389 563,389 564,383 564,385 565,386 566,392 566,393 567,385 568,379 568,381 569,384 570,380 570,389 571,391 572,388 572,379 573,381 574,381 574,382 575,379 576,380 576,385 577,391 578,389 578,391 579,394 580,389 580,389 581,396 582,394 582,402 583,416 584,420 584,414 585,412 586,410 586,402 587,400 588,413 588,416 589,403 590,403 590,406 591,407 592,402 592,403 593,409 594,414 594,417 595,414 596,415 597,416 597,416 598,417 599,409 599,408 600,404 601,402 601,406 602,397 603,405 603,410 604,408 605,404 605,406 606,403 607,405 607,406 608,417 609,416 609,409 610,408 611,409 611,415 612,416 613,417 613,425 614,430 615,434 615,438 616,440 617,436 617,446 618,444 619,440 619,430 620,422 621,426 621,425 622,423 623,422 623,421 624,423 625,425 625,424 626,424 627,426 627,420 628,418 629,419 629,421 630,428 631,429 631,425 632,418 633,419 633,421 634,421 635,425 635,421 636,421 637,416 638,414 638,420 639,418 640,403 640,402 641,387 642,387 642,391 643,391 644,391 644,390 645,379 646,372 646,371 647,364 648,364 648,371 649,370 650,369 650,367 651,369 652,371 652,369 653,370 654,368 654,372 655,376 656,371 656,368 657,362 658,359 658,360 659,365 660,373 660,375 661,376 662,372 662,368 663,373 664,379 664,375 665,365 666,358 666,366 667,367 668,368 668,369 669,382 670,383 670,381 671,378 672,374 672,382 673,376 674,372 674,370 675,363 676,354 676,350 677,359 678,353 678,345 679,346 680,338 681,338 681,352 682,347 683,347 683,335 684,338 685,337 685,337 686,334 687,330 687,325 688,339 689,342 689,343 690,317 691,311 691,313 692,308 693,308 693,321 694,315 695,303 695,304 696,302 697,295 697,300 698,306 699,313 699,314 700,312 701,309 701,316 702,317 703,306 703,294 704,300 705,292 705,296 706,302 707,309 707,310 708,304 709,301 709,298 710,297 711,306 711,309 712,310 713,310 713,306 714,303 715,311 715,303 716,306 717,302 717,303 718,302 719,304 719,315 720,304 721,289 722,289 722,287 723,288 724,290 724,281 725,274 726,271 726,277 727,275 728,276 728,272 729,267 730,267 730,277 731,283 732,279 732,276 733,279 734,285 734,281 735,287 736,290 736,284 737,280 738,278 738,271 739,271 740,273 740,274 741,271 742,280 742,281 743,281 744,273 744,272 745,275 746,264 746,262 747,267 748,263 748,260 749,259 750,261 750,270 751,279 752,274 752,272 753,283 754,287 754,281 755,274 756,277 756,276 757,276 758,276 758,276 759,276 760,274 760,263 761,253 762,245 762,249 763,253 764,247 765,249 765,250 766,254 767,252 767,249 768,244 769,243 769,250 770,242 771,238 771,240 772,245 773,235 773,234 774,240 775,250 775,262 776,270 777,267 777,271 778,268 779,272 779,277 780,282 781,278 781,273 782,271 783,259 783,257 784,253 785,256 785,261 786,262 787,259 787,258 788,252 789,242 789,245 790,254 791,263 791,278 792,287 793,285 793,270 794,271 795,260 795,260 796,255 797,249 797,253 798,248 799,245 799,236 800,235 801,241 801,238 802,232 803,230 803,229 804,230 805,228 806,234 806,242 807,236 808,229 808,225 809,221 810,232 810,229 811,236 812,236 812,232 813,232 814,242 814,244 815,241 816,238 816,241 817,238 818,238 818,236 819,228 820,229 820,236 821,232 822,223 822,222 823,210 824,207 824,208 825,214 826,209 826,215 827,217 828,216 828,225 829,234 830,234 830,226 831,225 832,228 832,225 833,225 834,228 834,242 835,247 836,254 836,267 837,273 838,277 838,266 839,258 840,248 840,245 841,248 842,242 842,232 843,232 844,222 844,213 845,214 846,209 846,211 847,212 848,209 849,203 849,204 850,212 851,212 851,213 852,224 853,224 853,223 854,218 855,214 855,213 856,215 857,214 857,207 858,208 859,211 859,203 860,203 861,210 861,201 862,201 863,193 863,192 864,187 865,184 865,190 866,194 867,188 867,191 868,201 869,196 869,193 870,189 871,194 871,197 872,206 873,206 873,210 874,200 875,208 875,211 876,211 877,209 877,208 878,193 879,184 879,187 880,185 881,187 881,194 882,190 883,184 883,186 884,184 885,186 885,185 886,184 887,185 887,179 888,177 889,169 890,160 890,157 891,162 892,158 892,154 893,150 894,143 894,143 895,149 896,143 896,144 897,147 898,146 898,147 899,153 900,154 900,157 901,166 902,168 902,177 903,169 904,173 904,171 905,162 906,171 906,182 907,167 908,164 908,166 909,170 910,170 910,175 911,183 912,177 912,177 913,173 914,171 914,173 915,169 916,172 916,171 917,168 918,159 918,153 919,166 920,157 920,153 921,160 922,165 922,164 923,166 924,162 924,158 925,137 926,133 926,142 927,151 928,150 928,156 929,155 930,152 930,145 931,137 932,138 933,146 933,149 934,144 935,136 935,139 936,153 937,159 937,161 938,165 939,163 939,158 940,155 941,151 941,145 942,151 943,150 943,150 944,134 945,132 945,126 946,124 947,123 947,118 948,110 949,109 949,111 950,103 951,101 951,98 952,105 953,107 953,110 954,116 955,125 955,126 956,128 957,126 957,126 958,119 959,120 959,114 960,118 961,111 961,106 962,97 963,97 963,97 964,106 965,107 965,105 966,93 967,89 967,90 968,102 969,109 969,105 970,99 971,96 971,100 972,95 973,71 974,68 974,472 974,472 974,699 302,699 "/>
<polyline fill="none" opacity="1" stroke="#E6194B" stroke-width="1" points="302,646 302,612 303,578 304,570 304,565 305,562 306,555 306,545 307,544 308,541 308,532 309,527 310,532 310,528 311,533 312,529 312,530 313,530 314,527 314,515 315,509 316,500 316,501 317,497 318,494 318,489 319,494 320,499 320,493 321,488 322,473 322,474 323,465 324,461 324,474 325,479 326,485 326,483 327,484 328,485 328,488 329,476 330,483 330,477 331,465 332,466 332,475 333,478 334,485 334,485 335,474 336,472 336,474 337,481 338,485 338,487 339,490 340,492 340,498 341,500 342,508 342,496 343,499 344,488 345,487 345,490 346,492 347,495 347,500 348,500 349,507 349,523 350,513 351,513 351,530 352,523 353,516 353,518 354,521 355,525 355,520 356,521 357,519 357,516 358,507 359,502 359,505 360,501 361,506 361,512 362,517 363,512 363,509 364,507 365,503 365,494 366,498 367,497 367,501 368,507 369,505 369,510 370,505 371,505 371,503 372,498 373,498 373,491 374,481 375,471 375,471 376,478 377,482 377,473 378,473 379,479 379,476 380,479 381,479 381,475 382,472 383,461 383,455 384,454 385,450 386,440 386,440 387,440 388,451 388,454 389,470 390,475 390,475 391,492 392,501 392,492 393,487 394,488 394,488 395,477 396,472 396,472 397,485 398,497 398,496 399,494 400,493 400,486 401,495 402,488 402,486 403,476 404,468 404,468 405,461 406,471 406,466 407,470 408,475 408,476 409,475 410,478 410,473 411,472 412,474 412,476 413,491 414,489 414,488 415,485 416,482 416,481 417,479 418,487 418,478 419,480 420,486 420,480 421,480 422,481 422,487 423,492 424,488 424,492 425,482 426,482 426,485 427,488 428,495 429,496 429,491 430,493 431,489 431,480 432,481 433,483 433,481 434,471 435,473 435,477 436,480 437,472 437,475 438,479 439,480 439,477 440,488 441,484 441,475 442,464 443,463 443,459 444,475 445,470 445,457 446,448 447,445 447,443 448,432 449,436 449,437 450,440 451,433 451,425 452,425 453,423 453,423 454,427 455,435 455,434 456,423 457,425 457,424 458,422 459,424 459,431 460,435 461,432 461,432 462,422 463,419 463,416 464,411 465,414 465,414 466,411 467,415 467,420 468,420 469,422 470,422 470,425 471,425 472,425 472,422 473,425 474,427 474,428 475,429 476,439 476,438 477,427 478,423 478,429 479,429 480,409 480,406 481,405 482,406 482,405 483,404 484,407 484,407 485,400 486,398 486,393 487,393 488,393 488,392 489,390 490,394 490,394 491,396 492,396 492,400 493,412 494,403 494,395 495,390 496,395 496,384 497,380 498,385 498,392 499,384 500,385 500,390 501,390 502,378 502,374 503,380 504,376 504,377 505,382 506,386 506,394 507,395 508,394 508,386 509,382 510,376 510,380 511,379 512,376 513,379 513,374 514,379 515,390 515,394 516,395 517,393 517,394 518,398 519,395 519,400 520,403 521,403 521,398 522,402 523,405 523,403 524,405 525,405 525,406 526,398 527,401 527,408 528,411 529,404 529,409 530,410 531,408 531,392 532,391 533,405 533,406 534,405 535,405 535,413 536,406 537,406 537,401 538,400 539,402 539,401 540,404 541,411 541,405 542,397 543,396 543,391 544,394 545,407 545,410 546,402 547,395 547,394 548,395 549,399 549,401 550,390 551,385 551,384 552,394 553,400 554,398 554,391 555,390 556,388 556,384 557,384 558,386 558,374 559,370 560,380 560,379 561,397 562,391 562,389 563,389 564,383 564,385 565,386 566,392 566,393 567,385 568,379 568,381 569,384 570,380 570,389 571,391 572,388 572,379 573,381 574,381 574,382 575,379 576,380 576,385 577,391 578,389 578,391 579,394 580,389 580,389 581,396 582,394 582,402 583,416 584,420 584,414 585,412 586,410 586,402 587,400 588,413 588,416 589,403 590,403 590,406 591,407 592,402 592,403 593,409 594,414 594,417 595,414 596,415 597,416 597,416 598,417 599,409 599,408 600,404 601,402 601,406 602,397 603,405 603,410 604,408 605,404 605,406 606,403 607,405 607,406 608,417 609,416 609,409 610,408 611,409 611,415 612,416 613,417 613,425 614,430 615,434 615,438 616,440 617,436 617,446 618,444 619,440 619,430 620,422 621,426 621,425 622,423 623,422 623,421 624,423 625,425 625,424 626,424 627,426 627,420 628,418 629,419 629,421 630,428 631,429 631,425 632,418 633,419 633,421 634,421 635,425 635,421 636,421 637,416 638,414 638,420 639,418 640,403 640,402 641,387 642,387 642,391 643,391 644,391 644,390 645,379 646,372 646,371 647,364 648,364 648,371 649,370 650,369 650,367 651,369 652,371 652,369 653,370 654,368 654,372 655,376 656,371 656,368 657,362 658,359 658,360 659,365 660,373 660,375 661,376 662,372 662,368 663,373 664,379 664,375 665,365 666,358 666,366 667,367 668,368 668,369 669,382 670,383 670,381 671,378 672,374 672,382 673,376 674,372 674,370 675,363 676,354 676,350 677,359 678,353 678,345 679,346 680,338 681,338 681,352 682,347 683,347 683,335 684,338 685,337 685,337 686,334 687,330 687,325 688,339 689,342 689,343 690,317 691,311 691,313 692,308 693,308 693,321 694,315 695,303 695,304 696,302 697,295 697,300 698,306 699,313 699,314 700,312 701,309 701,316 702,317 703,306 703,294 704,300 705,292 705,296 706,302 707,309 707,310 708,304 709,301 709,298 710,297 711,306 711,309 712,310 713,310 713,306 714,303 715,311 715,303 716,306 717,302 717,303 718,302 719,304 719,315 720,304 721,289 722,289 722,287 723,288 724,290 724,281 725,274 726,271 726,277 727,275 728,276 728,272 729,267 730,267 730,277 731,283 732,279 732,276 733,279 734,285 734,281 735,287 736,290 736,284 737,280 738,278 738,271 739,271 740,273 740,274 741,271 742,280 742,281 743,281 744,273 744,272 745,275 746,264 746,262 747,267 748,263 748,260 749,259 750,261 750,270 751,279 752,274 752,272 753,283 754,287 754,281 755,274 756,277 756,276 757,276 758,276 758,276 759,276 760,274 760,263 761,253 762,245 762,249 763,253 764,247 765,249 765,250 766,254 767,252 767,249 768,244 769,243 769,250 770,242 771,238 771,240 772,245 773,235 773,234 774,240 775,250 775,262 776,270 777,267 777,271 778,268 779,272 779,277 780,282 781,278 781,273 782,271 783,259 783,257 784,253 785,256 785,261 786,262 787,259 787,258 788,252 789,242 789,245 790,254 791,263 791,278 792,287 793,285 793,270 794,271 795,260 795,260 796,255 797,249 797,253 798,248 799,245 799,236 800,235 801,241 801,238 802,232 803,230 803,229 804,230 805,228 806,234 806,242 807,236 808,229 808,225 809,221 810,232 810,229 811,236 812,236 812,232 813,232 814,242 814,244 815,241 816,238 816,241 817,238 818,238 818,236 819,228 820,229 820,236 821,232 822,223 822,222 823,210 824,207 824,208 825,214 826,209 826,215 827,217 828,216 828,225 829,234 830,234 830,226 831,225 832,228 832,225 833,225 834,228 834,242 835,247 836,254 836,267 837,273 838,277 838,266 839,258 840,248 840,245 841,248 842,242 842,232 843,232 844,222 844,213 845,214 846,209 846,211 847,212 848,209 849,203 849,204 850,212 851,212 851,213 852,224 853,224 853,223 854,218 855,214 855,213 856,215 857,214 857,207 858,208 859,211 859,203 860,203 861,210 861,201 862,201 863,193 863,192 864,187 865,184 865,190 866,194 867,188 867,191 868,201 869,196 869,193 870,189 871,194 871,197 872,206 873,206 873,210 874,200 875,208 875,211 876,211 877,209 877,208 878,193 879,184 879,187 880,185 881,187 881,194 882,190 883,184 883,186 884,184 885,186 885,185 886,184 887,185 887,179 888,177 889,169 890,160 890,157 891,162 892,158 892,154 893,150 894,143 894,143 895,149 896,143 896,144 897,147 898,146 898,147 899,153 900,154 900,157 901,166 902,168 902,177 903,169 904,173 904,171 905,162 906,171 906,182 907,167 908,164 908,166 909,170 910,170 910,175 911,183 912,177 912,177 913,173 914,171 914,173 915,169 916,172 916,171 917,168 918,159 918,153 919,166 920,157 920,153 921,160 922,165 922,164 923,166 924,162 924,158 925,137 926,133 926,142 927,151 928,150 928,156 929,155 930,152 930,145 931,137 932,138 933,146 933,149 934,144 935,136 935,139 936,153 937,159 937,161 938,165 939,163 939,158 940,155 941,151 941,145 942,151 943,150 943,150 944,134 945,132 945,126 946,124 947,123 947,118 948,110 949,109 949,111 950,103 951,101 951,98 952,105 953,107 953,110 954,116 955,125 955,126 956,128 957,126 957,126 958,119 959,120 959,114 960,118 961,111 961,106 962,97 963,97 963,97 964,106 965,107 965,105 966,93 967,89 967,90 968,102 969,109 969,105 970,99 971,96 971,100 972,95 973,71 974,68 974,472 974,472 "/>
<line opacity="0.1" stroke="#000000" stroke-width="1" x1="85" y1="699" x2="85" y2="67"/>
<line opacity="0.1" stroke="#000000" stroke-width="1" x1="103" y1="699" x2="103" y2="67"/>
<line opacity="0.1" stroke="#000000" stroke-width="1" x1="121" y1="699" x2="121" y2="67"/>
<line opacity="0.1" stroke="#000000" stroke-width="1" x1="139" y1="699" x2="139" y2="67"/>
<line opacity="0.1" stroke="#000000" stroke-width="1" x1="157" y1="699" x2="157" y2="67"/>
<line opacity="0.1" stroke="#000000" stroke-width="1" x1="174" y1="699" x2="174" y2="67"/>
<line opacity="0.1" stroke="#000000" stroke-width="1" x1="192" y1="699" x2="192" y2="67"/>
<line opacity="0.1" stroke="#000000" stroke-width="1" x1="210" y1="699" x2="210" y2="67"/>
<line opacity="0.1" stroke="#000000" stroke-width="1" x1="228" y1="699" x2="228" y2="67"/>
<line opacity="0.1" stroke="#000000" stroke-width="1" x1="246" y1="699" x2="246" y2="67"/>
<line opacity="0.1" stroke="#000000" stroke-width="1" x1="264" y1="699" x2="264" y2="67"/>
<line opacity="0.1" stroke="#000000" stroke-width="1" x1="282" y1="699" x2="282" y2="67"/>
<line opacity="0.1" stroke="#000000" stroke-width="1" x1="300" y1="699" x2="300" y2="67"/>
<line opacity="0.1" stroke="#000000" stroke-width="1" x1="318" y1="699" x2="318" y2="67"/>
<line opacity="0.1" stroke="#000000" stroke-width="1" x1="336" y1="699" x2="336" y2="67"/>
<line opacity="0.1" stroke="#000000" stroke-width="1" x1="354" y1="699" x2="354" y2="67"/>
<line opacity="0.1" stroke="#000000" stroke-width="1" x1="372" y1="699" x2="372" y2="67"/>
<line opacity="0.1" stroke="#000000" stroke-width="1" x1="390" y1="699" x2="390" y2="67"/>
<line opacity="0.1" stroke="#000000" stroke-width="1" x1="407" y1="699" x2="407" y2="67"/>
<line opacity="0.1" stroke="#000000" stroke-width="1" x1="425" y1="699" x2="425" y2="67"/>
<line opacity="0.1" stroke="#000000" stroke-width="1" x1="443" y1="699" x2="443" y2="67"/>
<line opacity="0.1" stroke="#000000" stroke-width="1" x1="461" y1="699" x2="461" y2="67"/>
<line opacity="0.1" stroke="#000000" stroke-width="1" x1="479" y1="699" x2="479" y2="67"/>
<line opacity="0.1" stroke="#000000" stroke-width="1" x1="497" y1="699" x2="497" y2="67"/>
<line opacity="0.1" stroke="#000000" stroke-width="1" x1="515" y1="699" x2="515" y2="67"/>
<line opacity="0.1" stroke="#000000" stroke-width="1" x1="533" y1="699" x2="533" y2="67"/>
<line opacity="0.1" stroke="#000000" stroke-width="1" x1="551" y1="699" x2="551" y2="67"/>
<line opacity="0.1" stroke="#000000" stroke-width="1" x1="569" y1="699" x2="569" y2="67"/>
<line opacity="0.1" stroke="#000000" stroke-width="1" x1="587" y1="699" x2="587" y2="67"/>
<line opacity="0.1" stroke="#000000" stroke-width="1" x1="605" y1="699" x2="605" y2="67"/>
<line opacity="0.1" stroke="#000000" stroke-width="1" x1="622" y1="699" x2="622" y2="67"/>
<line opacity="0.1" stroke="#000000" stroke-width="1" x1="640" y1="699" x2="640" y2="67"/>
<line opacity="0.1" stroke="#000000" stroke-width="1" x1="658" y1="699" x2="658" y2="67"/>
<line opacity="0.1" stroke="#000000" stroke-width="1" x1="676" y1="699" x2="676" y2="67"/>
<line opacity="0.1" stroke="#000000" stroke-width="1" x1="694" y1="699" x2="694" y2="67"/>
<line opacity="0.1" stroke="#000000" stroke-width="1" x1="712" y1="699" x2="712" y2="67"/>
<line opacity="0.1" stroke="#000000" stroke-width="1" x1="730" y1="699" x2="730" y2="67"/>
<line opacity="0.1" stroke="#000000" stroke-width="1" x1="748" y1="699" x2="748" y2="67"/>
<line opacity="0.1" stroke="#000000" stroke-width="1" x1="766" y1="699" x2="766" y2="67"/>
<line opacity="0.1" stroke="#000000" stroke-width="1" x1="784" y1="699" x2="784" y2="67"/>
<line opacity="0.1" stroke="#000000" stroke-width="1" x1="802" y1="699" x2="802" y2="67"/>
<line opacity="0.1" stroke="#000000" stroke-width="1" x1="820" y1="699" x2="820" y2="67"/>
<line opacity="0.1" stroke="#000000" stroke-width="1" x1="838" y1="699" x2="838" y2="67"/>
<line opacity="0.1" stroke="#000000" stroke-width="1" x1="855" y1="699" x2="855" y2="67"/>
<line opacity="0.1" stroke="#000000" stroke-width="1" x1="873" y1="699" x2="873" y2="67"/>
<line opacity="0.1" stroke="#000000" stroke-width="1" x1="891" y1="699" x2="891" y2="67"/>
<line opacity="0.1" stroke="#000000" stroke-width="1" x1="909" y1="699" x2="909" y2="67"/>
<line opacity="0.1" stroke="#000000" stroke-width="1" x1="927" y1="699" x2="927" y2="67"/>
<line opacity="0.1" stroke="#000000" stroke-width="1" x1="945" y1="699" x2="945" y2="67"/>
<line opacity="0.1" stroke="#000000" stroke-width="1" x1="963" y1="699" x2="963" y2="67"/>
<line opacity="0.1" stroke="#000000" stroke-width="1" x1="78" y1="699" x2="974" y2="699"/>
<line opacity="0.1" stroke="#000000" stroke-width="1" x1="78" y1="691" x2="974" y2="691"/>
<line opacity="0.1" stroke="#000000" stroke-width="1" x1="78" y1="684" x2="974" y2="684"/>
<line opacity="0.1" stroke="#000000" stroke-width="1" x1="78" y1="677" x2="974" y2="677"/>
<line opacity="0.1" stroke="#000000" stroke-width="1" x1="78" y1="670" x2="974" y2="670"/>
<line opacity="0.1" stroke="#000000" stroke-width="1" x1="78" y1="663" x2="974" y2="663"/>
<line opacity="0.1" stroke="#000000" stroke-width="1" x1="78" y1="656" x2="974" y2="656"/>
<line opacity="0.1" stroke="#000000" stroke-width="1" x1="78" y1="648" x2="974" y2="648"/>
<line opacity="0.1" stroke="#000000" stroke-width="1" x1="78" y1="641" x2="974" y2="641"/>
<line opacity="0.1" stroke="#000000" stroke-width="1" x1="78" y1="634" x2="974" y2="634"/>
<line opacity="0.1" stroke="#000000" stroke-width="1" x1="78" y1="627" x2="974" y2="627"/>
<line opacity="0.1" stroke="#000000" stroke-width="1" x1="78" y1="620" x2="974" y2="620"/>
<line opacity="0.1" stroke="#000000" stroke-width="1" x1="78" y1="613" x2="974" y2="613"/>
<line opacity="0.1" stroke="#000000" stroke-width="1" x1="78" y1="605" x2="974" y2="605"/>
<line opacity="0.1" stroke="#000000" stroke-width="1" x1="78" y1="598" x2="974" y2="598"/>
<line opacity="0.1" stroke="#000000" stroke-width="1" x1="78" y1="591" x2="974" y2="591"/>
<line opacity="0.1" stroke="#000000" stroke-width="1" x1="78" y1="584" x2="974" y2="584"/>
<line opacity="0.1" stroke="#000000" stroke-width="1" x1="78" y1="577" x2="974" y2="577"/>
<line opacity="0.1" stroke="#000000" stroke-width="1" x1="78" y1="570" x2="974" y2="570"/>
<line opacity="0.1" stroke="#000000" stroke-width="1" x1="78" y1="563" x2="974" y2="563"/>
<line opacity="0.1" stroke="#000000" stroke-width="1" x1="78" y1="555" x2="974" y2="555"/>
<line opacity="0.1" stroke="#000000" stroke-width="1" x1="78" y1="548" x2="974" y2="548"/>
<line opacity="0.1" stroke="#000000" stroke-width="1" x1="78" y1="541" x2="974" y2="541"/>
<line opacity="0.1" stroke="#000000" stroke-width="1" x1="78" y1="534" x2="974" y2="534"/>
<line opacity="0.1" stroke="#000000" stroke-width="1" x1="78" y1="527" x2="974" y2="527"/>
<line opacity="0.1" stroke="#000000" stroke-width="1" x1="78" y1="520" x2="974" y2="520"/>
<line opacity="0.1" stroke="#000000" stroke-width="1" x1="78" y1="512" x2="974" y2="512"/>
<line opacity="0.1" stroke="#000000" stroke-width="1" x1="78" y1="505" x2="974" y2="505"/>
<line opacity="0.1" stroke="#000000" stroke-width="1" x1="78" y1="498" x2="974" y2="498"/>
<line opacity="0.1" stroke="#000000" stroke-width="1" x1="78" y1="491" x2="974" y2="491"/>
<line opacity="0.1" stroke="#000000" stroke-width="1" x1="78" y1="484" x2="974" y2="484"/>
<line opacity="0.1" stroke="#000000" stroke-width="1" x1="78" y1="477" x2="974" y2="477"/>
<line opacity="0.1" stroke="#000000" stroke-width="1" x1="78" y1="470" x2="974" y2="470"/>
<line opacity="0.1" stroke="#000000" stroke-width="1" x1="78" y1="462" x2="974" y2="462"/>
<line opacity="0.1" stroke="#000000" stroke-width="1" x1="78" y1="455" x2="974" y2="455"/>
<line opacity="0.1" stroke="#000000" stroke-width="1" x1="78" y1="448" x2="974" y2="448"/>
<line opacity="0.1" stroke="#000000" stroke-width="1" x1="78" y1="441" x2="974" y2="441"/>
<line opacity="0.1" stroke="#000000" stroke-width="1" x1="78" y1="434" x2="974" y2="434"/>
<line opacity="0.1" stroke="#000000" stroke-width="1" x1="78" y1="427" x2="974" y2="427"/>
<line opacity="0.1" stroke="#000000" stroke-width="1" x1="78" y1="419" x2="974" y2="419"/>
<line opacity="0.1" stroke="#000000" stroke-width="1" x1="78" y1="412" x2="974" y2="412"/>
<line opacity="0.1" stroke="#000000" stroke-width="1" x1="78" y1="405" x2="974" y2="405"/>
<line opacity="0.1" stroke="#000000" stroke-width="1" x1="78" y1="398" x2="974" y2="398"/>
<line opacity="0.1" stroke="#000000" stroke-width="1" x1="78" y1="391" x2="974" y2="391"/>
<line opacity="0.1" stroke="#000000" stroke-width="1" x1="78" y1="384" x2="974" y2="384"/>
<line opacity="0.1" stroke="#000000" stroke-width="1" x1="78" y1="376" x2="974" y2="376"/>
<line opacity="0.1" stroke="#000000" stroke-width="1" x1="78" y1="369" x2="974" y2="369"/>
<line opacity="0.1" stroke="#000000" stroke-width="1" x1="78" y1="362" x2="974" y2="362"/>
<line opacity="0.1" stroke="#000000" stroke-width="1" x1="78" y1="355" x2="974" y2="355"/>
<line opacity="0.1" stroke="#000000" stroke-width="1" x1="78" y1="348" x2="974" y2="348"/>
<line opacity="0.1" stroke="#000000" stroke-width="1" x1="78" y1="341" x2="974" y2="341"/>
<line opacity="0.1" stroke="#000000" stroke-width="1" x1="78" y1="334" x2="974" y2="334"/>
<line opacity="0.1" stroke="#000000" stroke-width="1" x1="78" y1="326" x2="974" y2="326"/>
<line opacity="0.1" stroke="#000000" stroke-width="1" x1="78" y1="319" x2="974" y2="319"/>
<line opacity="0.1" stroke="#000000" stroke-width="1" x1="78" y1="312" x2="974" y2="312"/>
<line opacity="0.1" stroke="#000000" stroke-width="1" x1="78" y1="305" x2="974" y2="305"/>
<line opacity="0.1" stroke="#000000" stroke-width="1" x1="78" y1="298" x2="974" y2="298"/>
<line opacity="0.1" stroke="#000000" stroke-width="1" x1="78" y1="291" x2="974" y2="291"/>
<line opacity="0.1" stroke="#000000" stroke-width="1" x1="78" y1="283" x2="974" y2="283"/>
<line opacity="0.1" stroke="#000000" stroke-width="1" x1="78" y1="276" x2="974" y2="276"/>
<line opacity="0.1" stroke="#000000" stroke-width="1" x1="78" y1="269" x2="974" y2="269"/>
<line opacity="0.1" stroke="#000000" stroke-width="1" x1="78" y1="262" x2="974" y2="262"/>
<line opacity="0.1" stroke="#000000" stroke-width="1" x1="78" y1="255" x2="974" y2="255"/>
<line opacity="0.1" stroke="#000000" stroke-width="1" x1="78" y1="248" x2="974" y2="248"/>
<line opacity="0.1" stroke="#000000" stroke-width="1" x1="78" y1="241" x2="974" y2="241"/>
<line opacity="0.1" stroke="#000000" stroke-width="1" x1="78" y1="233" x2="974" y2="233"/>
<line opacity="0.1" stroke="#000000" stroke-width="1" x1="78" y1="226" x2="974" y2="226"/>
<line opacity="0.1" stroke="#000000" stroke-width="1" x1="78" y1="219" x2="974" y2="219"/>
<line opacity="0.1" stroke="#000000" stroke-width="1" x1="78" y1="212" x2="974" y2="212"/>
<line opacity="0.1" stroke="#000000" stroke-width="1" x1="78" y1="205" x2="974" y2="205"/>
<line opacity="0.1" stroke="#000000" stroke-width="1" x1="78" y1="198" x2="974" y2="198"/>
<line opacity="0.1" stroke="#000000" stroke-width="1" x1="78" y1="190" x2="974" y2="190"/>
<line opacity="0.1" stroke="#000000" stroke-width="1" x1="78" y1="183" x2="974" y2="183"/>
<line opacity="0.1" stroke="#000000" stroke-width="1" x1="78" y1="176" x2="974" y2="176"/>
<line opacity="0.1" stroke="#000000" stroke-width="1" x1="78" y1="169" x2="974" y2="169"/>
<line opacity="0.1" stroke="#000000" stroke-width="1" x1="78" y1="162" x2="974" y2="162"/>
<line opacity="0.1" stroke="#000000" stroke-width="1" x1="78" y1="155" x2="974" y2="155"/>
<line opacity="0.1" stroke="#000000" stroke-width="1" x1="78" y1="148" x2="974" y2="148"/>
<line opacity="0.1" stroke="#000000" stroke-width="1" x1="78" y1="140" x2="974" y2="140"/>
<line opacity="0.1" stroke="#000000" stroke-width="1" x1="78" y1="133" x2="974" y2="133"/>
<line opacity="0.1" stroke="#000000" stroke-width="1" x1="78" y1="126" x2="974" y2="126"/>
<line opacity="0.1" stroke="#000000" stroke-width="1" x1="78" y1="119" x2="974" y2="119"/>
<line opacity="0.1" stroke="#000000" stroke-width="1" x1="78" y1="112" x2="974" y2="112"/>
<line opacity="0.1" stroke="#000000" stroke-width="1" x1="78" y1="105" x2="974" y2="105"/>
<line opacity="0.1" stroke="#000000" stroke-width="1" x1="78" y1="97" x2="974" y2="97"/>
<line opacity="0.1" stroke="#000000" stroke-width="1" x1="78" y1="90" x2="974" y2="90"/>
<line opacity="0.1" stroke="#000000" stroke-width="1" x1="78" y1="83" x2="974" y2="83"/>
<line opacity="0.1" stroke="#000000" stroke-width="1" x1="78" y1="76" x2="974" y2="76"/>
<line opacity="0.1" stroke="#000000" stroke-width="1" x1="78" y1="69" x2="974" y2="69"/>
<text x="8" y="384" dy="0.76em" text-anchor="middle" font-family="sans-serif" font-size="9.67741935483871" opacity="1" fill="#000000" transform="rotate(270, 8, 384)">
Memory usage
</text>
<text x="526" y="760" dy="-0.5ex" text-anchor="middle" font-family="sans-serif" font-size="9.67741935483871" opacity="1" fill="#000000">
Time
</text>
<line opacity="0.2" stroke="#000000" stroke-width="1" x1="192" y1="699" x2="192" y2="67"/>
<line opacity="0.2" stroke="#000000" stroke-width="1" x1="372" y1="699" x2="372" y2="67"/>
<line opacity="0.2" stroke="#000000" stroke-width="1" x1="551" y1="699" x2="551" y2="67"/>
<line opacity="0.2" stroke="#000000" stroke-width="1" x1="730" y1="699" x2="730" y2="67"/>
<line opacity="0.2" stroke="#000000" stroke-width="1" x1="909" y1="699" x2="909" y2="67"/>
<line opacity="0.2" stroke="#000000" stroke-width="1" x1="78" y1="699" x2="974" y2="699"/>
<line opacity="0.2" stroke="#000000" stroke-width="1" x1="78" y1="627" x2="974" y2="627"/>
<line opacity="0.2" stroke="#000000" stroke-width="1" x1="78" y1="555" x2="974" y2="555"/>
<line opacity="0.2" stroke="#000000" stroke-width="1" x1="78" y1="484" x2="974" y2="484"/>
<line opacity="0.2" stroke="#000000" stroke-width="1" x1="78" y1="412" x2="974" y2="412"/>
<line opacity="0.2" stroke="#000000" stroke-width="1" x1="78" y1="341" x2="974" y2="341"/>
<line opacity="0.2" stroke="#000000" stroke-width="1" x1="78" y1="269" x2="974" y2="269"/>
<line opacity="0.2" stroke="#000000" stroke-width="1" x1="78" y1="198" x2="974" y2="198"/>
<line opacity="0.2" stroke="#000000" stroke-width="1" x1="78" y1="126" x2="974" y2="126"/>
<polyline fill="none" opacity="1" stroke="#000000" stroke-width="1" points="77,68 77,700 "/>
<text x="68" y="699" dy="0.5ex" text-anchor="end" font-family="sans-serif" font-size="9.67741935483871" opacity="1" fill="#000000">
0 KB
</text>
<polyline fill="none" opacity="1" stroke="#000000" stroke-width="1" points="72,699 77,699 "/>
<text x="68" y="627" dy="0.5ex" text-anchor="end" font-family="sans-serif" font-size="9.67741935483871" opacity="1" fill="#000000">
97 KB
</text>
<polyline fill="none" opacity="1" stroke="#000000" stroke-width="1" points="72,627 77,627 "/>
<text x="68" y="555" dy="0.5ex" text-anchor="end" font-family="sans-serif" font-size="9.67741935483871" opacity="1" fill="#000000">
195 KB
</text>
<polyline fill="none" opacity="1" stroke="#000000" stroke-width="1" points="72,555 77,555 "/>
<text x="68" y="484" dy="0.5ex" text-anchor="end" font-family="sans-serif" font-size="9.67741935483871" opacity="1" fill="#000000">
292 KB
</text>
<polyline fill="none" opacity="1" stroke="#000000" stroke-width="1" points="72,484 77,484 "/>
<text x="68" y="412" dy="0.5ex" text-anchor="end" font-family="sans-serif" font-size="9.67741935483871" opacity="1" fill="#000000">
390 KB
</text>
<polyline fill="none" opacity="1" stroke="#000000" stroke-width="1" points="72,412 77,412 "/>
<text x="68" y="341" dy="0.5ex" text-anchor="end" font-family="sans-serif" font-size="9.67741935483871" opacity="1" fill="#000000">
488 KB
</text>
<polyline fill="none" opacity="1" stroke="#000000" stroke-width="1" points="72,341 77,341 "/>
<text x="68" y="269" dy="0.5ex" text-anchor="end" font-family="sans-serif" font-size="9.67741935483871" opacity="1" fill="#000000">
585 KB
</text>
<polyline fill="none" opacity="1" stroke="#000000" stroke-width="1" points="72,269 77,269 "/>
<text x="68" y="198" dy="0.5ex" text-anchor="end" font-family="sans-serif" font-size="9.67741935483871" opacity="1" fill="#000000">
683 KB
</text>
<polyline fill="none" opacity="1" stroke="#000000" stroke-width="1" points="72,198 77,198 "/>
<text x="68" y="126" dy="0.5ex" text-anchor="end" font-family="sans-serif" font-size="9.67741935483871" opacity="1" fill="#000000">
781 KB
</text>
<polyline fill="none" opacity="1" stroke="#000000" stroke-width="1" points="72,126 77,126 "/>
<polyline fill="none" opacity="1" stroke="#000000" stroke-width="1" points="78,700 974,700 "/>
<text x="192" y="710" dy="0.76em" text-anchor="middle" font-family="sans-serif" font-size="9.67741935483871" opacity="1" fill="#000000">
06:26:08
</text>
<polyline fill="none" opacity="1" stroke="#000000" stroke-width="1" points="192,700 192,705 "/>
<text x="372" y="710" dy="0.76em" text-anchor="middle" font-family="sans-serif" font-size="9.67741935483871" opacity="1" fill="#000000">
06:26:10
</text>
<polyline fill="none" opacity="1" stroke="#000000" stroke-width="1" points="372,700 372,705 "/>
<text x="551" y="710" dy="0.76em" text-anchor="middle" font-family="sans-serif" font-size="9.67741935483871" opacity="1" fill="#000000">
06:26:12
</text>
<polyline fill="none" opacity="1" stroke="#000000" stroke-width="1" points="551,700 551,705 "/>
<text x="730" y="710" dy="0.76em" text-anchor="middle" font-family="sans-serif" font-size="9.67741935483871" opacity="1" fill="#000000">
06:26:14
</text>
<polyline fill="none" opacity="1" stroke="#000000" stroke-width="1" points="730,700 730,705 "/>
<text x="909" y="710" dy="0.76em" text-anchor="middle" font-family="sans-serif" font-size="9.67741935483871" opacity="1" fill="#000000">
06:26:16
</text>
<polyline fill="none" opacity="1" stroke="#000000" stroke-width="1" points="909,700 909,705 "/>
<polyline fill="none" opacity="1" stroke="#000000" stroke-width="1" points="78,67 974,67 "/>
<text x="192" y="58" dy="-0.5ex" text-anchor="middle" font-family="sans-serif" font-size="9.67741935483871" opacity="1" fill="#000000">
+1s
</text>
<polyline fill="none" opacity="1" stroke="#000000" stroke-width="1" points="192,62 192,67 "/>
<text x="372" y="58" dy="-0.5ex" text-anchor="middle" font-family="sans-serif" font-size="9.67741935483871" opacity="1" fill="#000000">
+3s
</text>
<polyline fill="none" opacity="1" stroke="#000000" stroke-width="1" points="372,62 372,67 "/>
<text x="551" y="58" dy="-0.5ex" text-anchor="middle" font-family="sans-serif" font-size="9.67741935483871" opacity="1" fill="#000000">
+5s
</text>
<polyline fill="none" opacity="1" stroke="#000000" stroke-width="1" points="551,62 551,67 "/>
<text x="730" y="58" dy="-0.5ex" text-anchor="middle" font-family="sans-serif" font-size="9.67741935483871" opacity="1" fill="#000000">
+7s
</text>
<polyline fill="none" opacity="1" stroke="#000000" stroke-width="1" points="730,62 730,67 "/>
<text x="909" y="58" dy="-0.5ex" text-anchor="middle" font-family="sans-serif" font-size="9.67741935483871" opacity="1" fill="#000000">
+9s
</text>
<polyline fill="none" opacity="1" stroke="#000000" stroke-width="1" points="909,62 909,67 "/>
</svg>
