<svg width="1024" height="768" viewBox="0 0 1024 768" xmlns="http://www.w3.org/2000/svg">
<rect x="0" y="0" width="1024" height="768" opacity="1" fill="#FFFFFF" stroke="none"/>
<polygon opacity="1" fill="#E6194B" points="78,678 78,674 79,648 80,647 80,645 81,637 82,651 82,653 83,659 84,669 84,659 85,665 86,672 86,675 87,662 88,663 88,617 89,599 90,617 90,603 91,572 92,580 92,606 93,607 94,591 94,603 95,614 96,635 96,630 97,645 98,638 98,640 99,645 100,655 100,656 101,646 102,650 102,678 103,658 104,650 104,652 105,648 106,646 106,646 107,650 108,649 108,634 109,621 110,608 110,590 111,580 112,591 112,606 113,606 114,629 114,631 115,617 116,617 116,598 117,576 118,539 118,525 119,523 120,556 120,587 121,592 122,607 122,608 123,604 124,597 124,579 125,559 126,538 126,531 127,527 128,528 128,527 129,525 130,534 130,559 131,568 132,556 132,545 133,534 134,525 134,526 135,524 136,540 136,536 137,516 138,494 138,475 139,472 140,470 140,472 141,464 142,439 142,434 143,420 144,406 144,409 145,418 146,391 146,371 147,359 148,347 148,345 149,330 150,301 151,300 151,299 152,320 153,321 153,311 154,299 155,293 155,300 156,306 157,305 157,308 158,278 159,276 159,269 160,258 161,258 161,288 162,294 163,289 163,263 164,258 165,247 165,248 166,241 167,243 167,215 168,204 169,191 169,210 170,204 171,207 171,235 172,239 173,233 173,239 174,239 175,224 175,194 176,184 177,188 177,185 178,192 179,201 179,190 180,205 181,195 181,182 182,177 183,168 183,190 184,185 185,215 185,238 186,228 187,230 187,229 188,194 189,182 189,187 190,169 191,173 191,181 192,196 193,177 193,169 194,174 195,189 195,189 196,184 197,167 197,153 198,170 199,151 199,136 200,149 201,144 201,167 202,165 203,160 203,140 204,136 205,132 205,144 206,140 207,148 207,140 208,151 209,178 209,182 210,192 211,215 211,223 212,220 213,187 213,190 214,177 215,142 215,146 216,197 217,220 217,238 218,253 219,207 219,215 220,246 221,246 222,231 222,247 223,235 224,227 224,195 225,167 226,170 226,192 227,184 228,180 228,184 229,204 230,221 230,235 231,242 232,215 232,225 233,221 234,210 234,214 235,225 236,238 236,236 237,222 238,238 238,244 239,235 240,243 240,248 241,251 242,239 242,223 243,229 244,209 244,192 245,196 246,230 246,221 247,215 248,242 248,233 249,231 250,267 250,250 251,281 252,262 252,247 253,255 254,265 254,255 255,254 256,230 256,222 257,211 258,239 258,235 259,234 260,259 260,226 261,200 262,202 262,201 263,224 264,214 264,226 265,238 266,220 266,194 267,188 268,200 268,204 269,194 270,195 270,210 271,209 272,199 272,185 273,176 274,167 274,173 275,176 276,185 276,177 277,163 278,175 278,169 279,174 280,186 280,200 281,185 282,195 282,196 283,162 284,152 284,158 285,156 286,156 286,176 287,187 288,164 288,173 289,178 290,187 290,199 291,194 292,207 292,228 293,238 294,241 295,215 295,210 296,205 297,203 297,177 298,171 299,193 299,182 300,193 301,193 301,172 302,154 303,176 303,182 304,181 305,195 305,213 306,208 307,214 307,234 308,232 309,233 309,251 310,253 311,244 311,242 312,232 313,219 313,210 314,225 315,211 315,227 316,219 317,222 317,226 318,221 319,188 319,171 320,155 321,155 321,153 322,145 323,130 323,141 324,156 325,145 325,131 326,109 327,99 327,88 328,68 329,90 329,112 330,123 331,129 331,124 332,132 333,137 333,115 334,128 335,120 335,96 336,90 337,105 337,127 338,124 339,144 339,128 340,117 341,111 341,137 342,134 343,142 343,147 344,154 345,158 345,170 346,181 347,187 347,193 348,208 349,216 349,249 350,239 351,228 351,223 352,229 353,235 353,243 354,252 355,260 355,257 356,262 357,276 357,318 358,316 359,296 359,312 360,336 361,328 361,307 362,313 363,322 363,334 364,323 365,327 366,318 366,296 367,283 368,294 368,283 369,293 370,305 370,328 371,307 372,301 372,299 373,288 374,272 374,280 375,278 376,288 376,303 377,302 378,315 378,306 379,306 380,297 380,287 381,279 382,265 382,250 383,246 384,248 384,280 385,273 386,259 386,267 387,272 388,276 388,277 389,268 390,258 390,232 391,218 392,215 392,211 393,183 394,190 394,208 395,216 396,247 396,275 397,278 398,301 398,343 399,311 400,307 400,302 401,270 402,275 402,325 403,336 404,332 404,313 405,326 406,314 406,274 407,272 408,262 408,274 409,284 410,299 410,297 411,290 412,287 412,297 413,334 414,333 414,325 415,314 416,310 416,311 417,317 418,326 418,321 419,328 420,352 420,344 421,328 422,340 422,353 423,365 424,365 424,372 425,344 426,351 426,331 427,326 428,346 428,333 429,341 430,352 430,351 431,369 432,326 432,314 433,309 434,337 434,303 435,278 436,268 436,251 437,266 438,239 439,231 439,231 440,234 441,267 441,243 442,240 443,243 443,238 444,260 445,258 445,241 446,234 447,216 447,221 448,216 449,214 449,245 450,248 451,251 451,258 452,252 453,261 453,267 454,274 455,297 455,268 456,261 457,268 457,223 458,224 459,223 459,224 460,229 461,211 461,197 462,199 463,198 463,192 464,204 465,204 465,210 466,243 467,210 467,198 468,181 469,176 469,206 470,190 471,195 471,198 472,164 473,176 473,171 474,184 475,210 475,219 476,197 477,176 477,187 478,176 479,186 479,177 480,198 481,233 481,226 482,235 483,234 483,246 484,252 485,247 485,259 486,262 487,265 487,258 488,246 489,272 489,266 490,264 491,278 491,280 492,264 493,242 493,263 494,255 495,256 495,272 496,264 497,250 497,246 498,271 499,275 499,261 500,254 501,257 501,280 502,289 503,288 503,275 504,284 505,274 505,256 506,253 507,283 507,273 508,248 509,248 510,257 510,247 511,232 512,234 512,261 513,241 514,257 514,237 515,262 516,261 516,253 517,243 518,241 518,239 519,275 520,235 520,233 521,249 522,242 522,246 523,274 524,272 524,252 525,249 526,270 526,280 527,295 528,333 528,326 529,327 530,307 530,333 531,312 532,316 532,320 533,320 534,330 534,350 535,343 536,353 536,377 537,381 538,391 538,366 539,365 540,356 540,357 541,346 542,365 542,360 543,373 544,365 544,347 545,354 546,369 546,379 547,349 548,348 548,350 549,359 550,368 550,369 551,384 552,423 552,418 553,443 554,442 554,405 555,396 556,395 556,408 557,403 558,417 558,404 559,409 560,421 560,397 561,379 562,382 562,400 563,417 564,410 564,401 565,403 566,420 566,410 567,424 568,418 568,416 569,408 570,391 570,401 571,411 572,414 572,383 573,364 574,359 574,358 575,383 576,379 576,355 577,345 578,331 578,308 579,311 580,336 581,332 581,335 582,326 583,319 583,332 584,345 585,330 585,325 586,347 587,363 587,337 588,299 589,304 589,292 590,292 591,326 591,338 592,348 593,346 593,343 594,342 595,358 595,355 596,342 597,316 597,335 598,334 599,331 599,352 600,365 601,360 601,354 602,349 603,344 603,346 604,335 605,336 605,318 606,295 607,274 607,282 608,288 609,275 609,272 610,264 611,249 611,269 612,291 613,306 613,285 614,282 615,289 615,284 616,285 617,257 617,246 618,288 619,289 619,283 620,273 621,282 621,275 622,309 623,312 623,262 624,300 625,310 625,306 626,314 627,328 627,334 628,339 629,316 629,326 630,347 631,339 631,308 632,316 633,307 633,314 634,323 635,356 635,364 636,337 637,339 637,333 638,356 639,349 639,355 640,353 641,360 641,344 642,366 643,354 643,360 644,369 645,367 645,365 646,377 647,393 647,341 648,339 649,327 649,327 650,311 651,308 651,290 652,281 653,288 654,287 654,291 655,291 656,278 656,285 657,283 658,293 658,291 659,293 660,282 660,277 661,282 662,295 662,304 663,282 664,278 664,263 665,259 666,262 666,263 667,266 668,262 668,269 669,264 670,256 670,264 671,263 672,251 672,246 673,254 674,259 674,243 675,243 676,229 676,247 677,245 678,245 678,276 679,279 680,265 680,259 681,243 682,234 682,239 683,236 684,234 684,240 685,225 686,196 686,165 687,179 688,206 688,175 689,172 690,196 690,174 691,175 692,186 692,165 693,166 694,178 694,142 695,135 696,157 696,157 697,141 698,142 698,170 699,189 700,221 700,223 701,221 702,226 702,234 703,247 704,270 704,252 705,250 706,251 706,226 707,220 708,214 708,229 709,224 710,225 710,218 711,206 712,198 712,179 713,152 714,158 714,170 715,188 716,217 716,227 717,244 718,235 718,227 719,206 720,206 720,187 721,180 722,163 722,173 723,163 724,167 725,169 725,166 726,155 727,154 727,163 728,160 729,148 729,141 730,136 731,134 731,128 732,145 733,157 733,163 734,147 735,144 735,128 736,138 737,128 737,152 738,142 739,132 739,149 740,170 741,182 741,205 742,201 743,229 743,251 744,273 745,324 745,359 746,440 747,533 747,669 747,699 973,699 973,699 78,699 "/>
<polyline fill="none" opacity="1" stroke="#E6194B" stroke-width="1" points="78,678 78,674 79,648 80,647 80,645 81,637 82,651 82,653 83,659 84,669 84,659 85,665 86,672 86,675 87,662 88,663 88,617 89,599 90,617 90,603 91,572 92,580 92,606 93,607 94,591 94,603 95,614 96,635 96,630 97,645 98,638 98,640 99,645 100,655 100,656 101,646 102,650 102,678 103,658 104,650 104,652 105,648 106,646 106,646 107,650 108,649 108,634 109,621 110,608 110,590 111,580 112,591 112,606 113,606 114,629 114,631 115,617 116,617 116,598 117,576 118,539 118,525 119,523 120,556 120,587 121,592 122,607 122,608 123,604 124,597 124,579 125,559 126,538 126,531 127,527 128,528 128,527 129,525 130,534 130,559 131,568 132,556 132,545 133,534 134,525 134,526 135,524 136,540 136,536 137,516 138,494 138,475 139,472 140,470 140,472 141,464 142,439 142,434 143,420 144,406 144,409 145,418 146,391 146,371 147,359 148,347 148,345 149,330 150,301 151,300 151,299 152,320 153,321 153,311 154,299 155,293 155,300 156,306 157,305 157,308 158,278 159,276 159,269 160,258 161,258 161,288 162,294 163,289 163,263 164,258 165,247 165,248 166,241 167,243 167,215 168,204 169,191 169,210 170,204 171,207 171,235 172,239 173,233 173,239 174,239 175,224 175,194 176,184 177,188 177,185 178,192 179,201 179,190 180,205 181,195 181,182 182,177 183,168 183,190 184,185 185,215 185,238 186,228 187,230 187,229 188,194 189,182 189,187 190,169 191,173 191,181 192,196 193,177 193,169 194,174 195,189 195,189 196,184 197,167 197,153 198,170 199,151 199,136 200,149 201,144 201,167 202,165 203,160 203,140 204,136 205,132 205,144 206,140 207,148 207,140 208,151 209,178 209,182 210,192 211,215 211,223 212,220 213,187 213,190 214,177 215,142 215,146 216,197 217,220 217,238 218,253 219,207 219,215 220,246 221,246 222,231 222,247 223,235 224,227 224,195 225,167 226,170 226,192 227,184 228,180 228,184 229,204 230,221 230,235 231,242 232,215 232,225 233,221 234,210 234,214 235,225 236,238 236,236 237,222 238,238 238,244 239,235 240,243 240,248 241,251 242,239 242,223 243,229 244,209 244,192 245,196 246,230 246,221 247,215 248,242 248,233 249,231 250,267 250,250 251,281 252,262 252,247 253,255 254,265 254,255 255,254 256,230 256,222 257,211 258,239 258,235 259,234 260,259 260,226 261,200 262,202 262,201 263,224 264,214 264,226 265,238 266,220 266,194 267,188 268,200 268,204 269,194 270,195 270,210 271,209 272,199 272,185 273,176 274,167 274,173 275,176 276,185 276,177 277,163 278,175 278,169 279,174 280,186 280,200 281,185 282,195 282,196 283,162 284,152 284,158 285,156 286,156 286,176 287,187 288,164 288,173 289,178 290,187 290,199 291,194 292,207 292,228 293,238 294,241 295,215 295,210 296,205 297,203 297,177 298,171 299,193 299,182 300,193 301,193 301,172 302,154 303,176 303,182 304,181 305,195 305,213 306,208 307,214 307,234 308,232 309,233 309,251 310,253 311,244 311,242 312,232 313,219 313,210 314,225 315,211 315,227 316,219 317,222 317,226 318,221 319,188 319,171 320,155 321,155 321,153 322,145 323,130 323,141 324,156 325,145 325,131 326,109 327,99 327,88 328,68 329,90 329,112 330,123 331,129 331,124 332,132 333,137 333,115 334,128 335,120 335,96 336,90 337,105 337,127 338,124 339,144 339,128 340,117 341,111 341,137 342,134 343,142 343,147 344,154 345,158 345,170 346,181 347,187 347,193 348,208 349,216 349,249 350,239 351,228 351,223 352,229 353,235 353,243 354,252 355,260 355,257 356,262 357,276 357,318 358,316 359,296 359,312 360,336 361,328 361,307 362,313 363,322 363,334 364,323 365,327 366,318 366,296 367,283 368,294 368,283 369,293 370,305 370,328 371,307 372,301 372,299 373,288 374,272 374,280 375,278 376,288 376,303 377,302 378,315 378,306 379,306 380,297 380,287 381,279 382,265 382,250 383,246 384,248 384,280 385,273 386,259 386,267 387,272 388,276 388,277 389,268 390,258 390,232 391,218 392,215 392,211 393,183 394,190 394,208 395,216 396,247 396,275 397,278 398,301 398,343 399,311 400,307 400,302 401,270 402,275 402,325 403,336 404,332 404,313 405,326 406,314 406,274 407,272 408,262 408,274 409,284 410,299 410,297 411,290 412,287 412,297 413,334 414,333 414,325 415,314 416,310 416,311 417,317 418,326 418,321 419,328 420,352 420,344 421,328 422,340 422,353 423,365 424,365 424,372 425,344 426,351 426,331 427,326 428,346 428,333 429,341 430,352 430,351 431,369 432,326 432,314 433,309 434,337 434,303 435,278 436,268 436,251 437,266 438,239 439,231 439,231 440,234 441,267 441,243 442,240 443,243 443,238 444,260 445,258 445,241 446,234 447,216 447,221 448,216 449,214 449,245 450,248 451,251 451,258 452,252 453,261 453,267 454,274 455,297 455,268 456,261 457,268 457,223 458,224 459,223 459,224 460,229 461,211 461,197 462,199 463,198 463,192 464,204 465,204 465,210 466,243 467,210 467,198 468,181 469,176 469,206 470,190 471,195 471,198 472,164 473,176 473,171 474,184 475,210 475,219 476,197 477,176 477,187 478,176 479,186 479,177 480,198 481,233 481,226 482,235 483,234 483,246 484,252 485,247 485,259 486,262 487,265 487,258 488,246 489,272 489,266 490,264 491,278 491,280 492,264 493,242 493,263 494,255 495,256 495,272 496,264 497,250 497,246 498,271 499,275 499,261 500,254 501,257 501,280 502,289 503,288 503,275 504,284 505,274 505,256 506,253 507,283 507,273 508,248 509,248 510,257 510,247 511,232 512,234 512,261 513,241 514,257 514,237 515,262 516,261 516,253 517,243 518,241 518,239 519,275 520,235 520,233 521,249 522,242 522,246 523,274 524,272 524,252 525,249 526,270 526,280 527,295 528,333 528,326 529,327 530,307 530,333 531,312 532,316 532,320 533,320 534,330 534,350 535,343 536,353 536,377 537,381 538,391 538,366 539,365 540,356 540,357 541,346 542,365 542,360 543,373 544,365 544,347 545,354 546,369 546,379 547,349 548,348 548,350 549,359 550,368 550,369 551,384 552,423 552,418 553,443 554,442 554,405 555,396 556,395 556,408 557,403 558,417 558,404 559,409 560,421 560,397 561,379 562,382 562,400 563,417 564,410 564,401 565,403 566,420 566,410 567,424 568,418 568,416 569,408 570,391 570,401 571,411 572,414 572,383 573,364 574,359 574,358 575,383 576,379 576,355 577,345 578,331 578,308 579,311 580,336 581,332 581,335 582,326 583,319 583,332 584,345 585,330 585,325 586,347 587,363 587,337 588,299 589,304 589,292 590,292 591,326 591,338 592,348 593,346 593,343 594,342 595,358 595,355 596,342 597,316 597,335 598,334 599,331 599,352 600,365 601,360 601,354 602,349 603,344 603,346 604,335 605,336 605,318 606,295 607,274 607,282 608,288 609,275 609,272 610,264 611,249 611,269 612,291 613,306 613,285 614,282 615,289 615,284 616,285 617,257 617,246 618,288 619,289 619,283 620,273 621,282 621,275 622,309 623,312 623,262 624,300 625,310 625,306 626,314 627,328 627,334 628,339 629,316 629,326 630,347 631,339 631,308 632,316 633,307 633,314 634,323 635,356 635,364 636,337 637,339 637,333 638,356 639,349 639,355 640,353 641,360 641,344 642,366 643,354 643,360 644,369 645,367 645,365 646,377 647,393 647,341 648,339 649,327 649,327 650,311 651,308 651,290 652,281 653,288 654,287 654,291 655,291 656,278 656,285 657,283 658,293 658,291 659,293 660,282 660,277 661,282 662,295 662,304 663,282 664,278 664,263 665,259 666,262 666,263 667,266 668,262 668,269 669,264 670,256 670,264 671,263 672,251 672,246 673,254 674,259 674,243 675,243 676,229 676,247 677,245 678,245 678,276 679,279 680,265 680,259 681,243 682,234 682,239 683,236 684,234 684,240 685,225 686,196 686,165 687,179 688,206 688,175 689,172 690,196 690,174 691,175 692,186 692,165 693,166 694,178 694,142 695,135 696,157 696,157 697,141 698,142 698,170 699,189 700,221 700,223 701,221 702,226 702,234 703,247 704,270 704,252 705,250 706,251 706,226 707,220 708,214 708,229 709,224 710,225 710,218 711,206 712,198 712,179 713,152 714,158 714,170 715,188 716,217 716,227 717,244 718,235 718,227 719,206 720,206 720,187 721,180 722,163 722,173 723,163 724,167 725,169 725,166 726,155 727,154 727,163 728,160 729,148 729,141 730,136 731,134 731,128 732,145 733,157 733,163 734,147 735,144 735,128 736,138 737,128 737,152 738,142 739,132 739,149 740,170 741,182 741,205 742,201 743,229 743,251 744,273 745,324 745,359 746,440 747,533 747,669 747,699 973,699 "/>
<line opacity="0.1" stroke="#000000" stroke-width="1" x1="78" y1="699" x2="78" y2="68"/>
<line opacity="0.1" stroke="#000000" stroke-width="1" x1="87" y1="699" x2="87" y2="68"/>
<line opacity="0.1" stroke="#000000" stroke-width="1" x1="96" y1="699" x2="96" y2="68"/>
<line opacity="0.1" stroke="#000000" stroke-width="1" x1="105" y1="699" x2="105" y2="68"/>
<line opacity="0.1" stroke="#000000" stroke-width="1" x1="114" y1="699" x2="114" y2="68"/>
<line opacity="0.1" stroke="#000000" stroke-width="1" x1="123" y1="699" x2="123" y2="68"/>
<line opacity="0.1" stroke="#000000" stroke-width="1" x1="132" y1="699" x2="132" y2="68"/>
<line opacity="0.1" stroke="#000000" stroke-width="1" x1="140" y1="699" x2="140" y2="68"/>
<line opacity="0.1" stroke="#000000" stroke-width="1" x1="149" y1="699" x2="149" y2="68"/>
<line opacity="0.1" stroke="#000000" stroke-width="1" x1="158" y1="699" x2="158" y2="68"/>
<line opacity="0.1" stroke="#000000" stroke-width="1" x1="167" y1="699" x2="167" y2="68"/>
<line opacity="0.1" stroke="#000000" stroke-width="1" x1="176" y1="699" x2="176" y2="68"/>
<line opacity="0.1" stroke="#000000" stroke-width="1" x1="185" y1="699" x2="185" y2="68"/>
<line opacity="0.1" stroke="#000000" stroke-width="1" x1="194" y1="699" x2="194" y2="68"/>
<line opacity="0.1" stroke="#000000" stroke-width="1" x1="203" y1="699" x2="203" y2="68"/>
<line opacity="0.1" stroke="#000000" stroke-width="1" x1="212" y1="699" x2="212" y2="68"/>
<line opacity="0.1" stroke="#000000" stroke-width="1" x1="221" y1="699" x2="221" y2="68"/>
<line opacity="0.1" stroke="#000000" stroke-width="1" x1="230" y1="699" x2="230" y2="68"/>
<line opacity="0.1" stroke="#000000" stroke-width="1" x1="239" y1="699" x2="239" y2="68"/>
<line opacity="0.1" stroke="#000000" stroke-width="1" x1="248" y1="699" x2="248" y2="68"/>
<line opacity="0.1" stroke="#000000" stroke-width="1" x1="257" y1="699" x2="257" y2="68"/>
<line opacity="0.1" stroke="#000000" stroke-width="1" x1="266" y1="699" x2="266" y2="68"/>
<line opacity="0.1" stroke="#000000" stroke-width="1" x1="275" y1="699" x2="275" y2="68"/>
<line opacity="0.1" stroke="#000000" stroke-width="1" x1="284" y1="699" x2="284" y2="68"/>
<line opacity="0.1" stroke="#000000" stroke-width="1" x1="293" y1="699" x2="293" y2="68"/>
<line opacity="0.1" stroke="#000000" stroke-width="1" x1="301" y1="699" x2="301" y2="68"/>
<line opacity="0.1" stroke="#000000" stroke-width="1" x1="310" y1="699" x2="310" y2="68"/>
<line opacity="0.1" stroke="#000000" stroke-width="1" x1="319" y1="699" x2="319" y2="68"/>
<line opacity="0.1" stroke="#000000" stroke-width="1" x1="328" y1="699" x2="328" y2="68"/>
<line opacity="0.1" stroke="#000000" stroke-width="1" x1="337" y1="699" x2="337" y2="68"/>
<line opacity="0.1" stroke="#000000" stroke-width="1" x1="346" y1="699" x2="346" y2="68"/>
<line opacity="0.1" stroke="#000000" stroke-width="1" x1="355" y1="699" x2="355" y2="68"/>
<line opacity="0.1" stroke="#000000" stroke-width="1" x1="364" y1="699" x2="364" y2="68"/>
<line opacity="0.1" stroke="#000000" stroke-width="1" x1="373" y1="699" x2="373" y2="68"/>
<line opacity="0.1" stroke="#000000" stroke-width="1" x1="382" y1="699" x2="382" y2="68"/>
<line opacity="0.1" stroke="#000000" stroke-width="1" x1="391" y1="699" x2="391" y2="68"/>
<line opacity="0.1" stroke="#000000" stroke-width="1" x1="400" y1="699" x2="400" y2="68"/>
<line opacity="0.1" stroke="#000000" stroke-width="1" x1="409" y1="699" x2="409" y2="68"/>
<line opacity="0.1" stroke="#000000" stroke-width="1" x1="418" y1="699" x2="418" y2="68"/>
<line opacity="0.1" stroke="#000000" stroke-width="1" x1="427" y1="699" x2="427" y2="68"/>
<line opacity="0.1" stroke="#000000" stroke-width="1" x1="436" y1="699" x2="436" y2="68"/>
<line opacity="0.1" stroke="#000000" stroke-width="1" x1="445" y1="699" x2="445" y2="68"/>
<line opacity="0.1" stroke="#000000" stroke-width="1" x1="454" y1="699" x2="454" y2="68"/>
<line opacity="0.1" stroke="#000000" stroke-width="1" x1="463" y1="699" x2="463" y2="68"/>
<line opacity="0.1" stroke="#000000" stroke-width="1" x1="471" y1="699" x2="471" y2="68"/>
<line opacity="0.1" stroke="#000000" stroke-width="1" x1="480" y1="699" x2="480" y2="68"/>
<line opacity="0.1" stroke="#000000" stroke-width="1" x1="489" y1="699" x2="489" y2="68"/>
<line opacity="0.1" stroke="#000000" stroke-width="1" x1="498" y1="699" x2="498" y2="68"/>
<line opacity="0.1" stroke="#000000" stroke-width="1" x1="507" y1="699" x2="507" y2="68"/>
<line opacity="0.1" stroke="#000000" stroke-width="1" x1="516" y1="699" x2="516" y2="68"/>
<line opacity="0.1" stroke="#000000" stroke-width="1" x1="525" y1="699" x2="525" y2="68"/>
<line opacity="0.1" stroke="#000000" stroke-width="1" x1="534" y1="699" x2="534" y2="68"/>
<line opacity="0.1" stroke="#000000" stroke-width="1" x1="543" y1="699" x2="543" y2="68"/>
<line opacity="0.1" stroke="#000000" stroke-width="1" x1="552" y1="699" x2="552" y2="68"/>
<line opacity="0.1" stroke="#000000" stroke-width="1" x1="561" y1="699" x2="561" y2="68"/>
<line opacity="0.1" stroke="#000000" stroke-width="1" x1="570" y1="699" x2="570" y2="68"/>
<line opacity="0.1" stroke="#000000" stroke-width="1" x1="579" y1="699" x2="579" y2="68"/>
<line opacity="0.1" stroke="#000000" stroke-width="1" x1="588" y1="699" x2="588" y2="68"/>
<line opacity="0.1" stroke="#000000" stroke-width="1" x1="597" y1="699" x2="597" y2="68"/>
<line opacity="0.1" stroke="#000000" stroke-width="1" x1="606" y1="699" x2="606" y2="68"/>
<line opacity="0.1" stroke="#000000" stroke-width="1" x1="615" y1="699" x2="615" y2="68"/>
<line opacity="0.1" stroke="#000000" stroke-width="1" x1="624" y1="699" x2="624" y2="68"/>
<line opacity="0.1" stroke="#000000" stroke-width="1" x1="633" y1="699" x2="633" y2="68"/>
<line opacity="0.1" stroke="#000000" stroke-width="1" x1="641" y1="699" x2="641" y2="68"/>
<line opacity="0.1" stroke="#000000" stroke-width="1" x1="650" y1="699" x2="650" y2="68"/>
<line opacity="0.1" stroke="#000000" stroke-width="1" x1="659" y1="699" x2="659" y2="68"/>
<line opacity="0.1" stroke="#000000" stroke-width="1" x1="668" y1="699" x2="668" y2="68"/>
<line opacity="0.1" stroke="#000000" stroke-width="1" x1="677" y1="699" x2="677" y2="68"/>
<line opacity="0.1" stroke="#000000" stroke-width="1" x1="686" y1="699" x2="686" y2="68"/>
<line opacity="0.1" stroke="#000000" stroke-width="1" x1="695" y1="699" x2="695" y2="68"/>
<line opacity="0.1" stroke="#000000" stroke-width="1" x1="704" y1="699" x2="704" y2="68"/>
<line opacity="0.1" stroke="#000000" stroke-width="1" x1="713" y1="699" x2="713" y2="68"/>
<line opacity="0.1" stroke="#000000" stroke-width="1" x1="722" y1="699" x2="722" y2="68"/>
<line opacity="0.1" stroke="#000000" stroke-width="1" x1="731" y1="699" x2="731" y2="68"/>
<line opacity="0.1" stroke="#000000" stroke-width="1" x1="740" y1="699" x2="740" y2="68"/>
<line opacity="0.1" stroke="#000000" stroke-width="1" x1="749" y1="699" x2="749" y2="68"/>
<line opacity="0.1" stroke="#000000" stroke-width="1" x1="758" y1="699" x2="758" y2="68"/>
<line opacity="0.1" stroke="#000000" stroke-width="1" x1="767" y1="699" x2="767" y2="68"/>
<line opacity="0.1" stroke="#000000" stroke-width="1" x1="776" y1="699" x2="776" y2="68"/>
<line opacity="0.1" stroke="#000000" stroke-width="1" x1="785" y1="699" x2="785" y2="68"/>
<line opacity="0.1" stroke="#000000" stroke-width="1" x1="794" y1="699" x2="794" y2="68"/>
<line opacity="0.1" stroke="#000000" stroke-width="1" x1="803" y1="699" x2="803" y2="68"/>
<line opacity="0.1" stroke="#000000" stroke-width="1" x1="811" y1="699" x2="811" y2="68"/>
<line opacity="0.1" stroke="#000000" stroke-width="1" x1="820" y1="699" x2="820" y2="68"/>
<line opacity="0.1" stroke="#000000" stroke-width="1" x1="829" y1="699" x2="829" y2="68"/>
<line opacity="0.1" stroke="#000000" stroke-width="1" x1="838" y1="699" x2="838" y2="68"/>
<line opacity="0.1" stroke="#000000" stroke-width="1" x1="847" y1="699" x2="847" y2="68"/>
<line opacity="0.1" stroke="#000000" stroke-width="1" x1="856" y1="699" x2="856" y2="68"/>
<line opacity="0.1" stroke="#000000" stroke-width="1" x1="865" y1="699" x2="865" y2="68"/>
<line opacity="0.1" stroke="#000000" stroke-width="1" x1="874" y1="699" x2="874" y2="68"/>
<line opacity="0.1" stroke="#000000" stroke-width="1" x1="883" y1="699" x2="883" y2="68"/>
<line opacity="0.1" stroke="#000000" stroke-width="1" x1="892" y1="699" x2="892" y2="68"/>
<line opacity="0.1" stroke="#000000" stroke-width="1" x1="901" y1="699" x2="901" y2="68"/>
<line opacity="0.1" stroke="#000000" stroke-width="1" x1="910" y1="699" x2="910" y2="68"/>
<line opacity="0.1" stroke="#000000" stroke-width="1" x1="919" y1="699" x2="919" y2="68"/>
<line opacity="0.1" stroke="#000000" stroke-width="1" x1="928" y1="699" x2="928" y2="68"/>
<line opacity="0.1" stroke="#000000" stroke-width="1" x1="937" y1="699" x2="937" y2="68"/>
<line opacity="0.1" stroke="#000000" stroke-width="1" x1="946" y1="699" x2="946" y2="68"/>
<line opacity="0.1" stroke="#000000" stroke-width="1" x1="955" y1="699" x2="955" y2="68"/>
<line opacity="0.1" stroke="#000000" stroke-width="1" x1="964" y1="699" x2="964" y2="68"/>
<line opacity="0.1" stroke="#000000" stroke-width="1" x1="78" y1="699" x2="973" y2="699"/>
<line opacity="0.1" stroke="#000000" stroke-width="1" x1="78" y1="690" x2="973" y2="690"/>
<line opacity="0.1" stroke="#000000" stroke-width="1" x1="78" y1="681" x2="973" y2="681"/>
<line opacity="0.1" stroke="#000000" stroke-width="1" x1="78" y1="672" x2="973" y2="672"/>
<line opacity="0.1" stroke="#000000" stroke-width="1" x1="78" y1="663" x2="973" y2="663"/>
<line opacity="0.1" stroke="#000000" stroke-width="1" x1="78" y1="654" x2="973" y2="654"/>
<line opacity="0.1" stroke="#000000" stroke-width="1" x1="78" y1="645" x2="973" y2="645"/>
<line opacity="0.1" stroke="#000000" stroke-width="1" x1="78" y1="637" x2="973" y2="637"/>
<line opacity="0.1" stroke="#000000" stroke-width="1" x1="78" y1="628" x2="973" y2="628"/>
<line opacity="0.1" stroke="#000000" stroke-width="1" x1="78" y1="619" x2="973" y2="619"/>
<line opacity="0.1" stroke="#000000" stroke-width="1" x1="78" y1="610" x2="973" y2="610"/>
<line opacity="0.1" stroke="#000000" stroke-width="1" x1="78" y1="601" x2="973" y2="601"/>
<line opacity="0.1" stroke="#000000" stroke-width="1" x1="78" y1="592" x2="973" y2="592"/>
<line opacity="0.1" stroke="#000000" stroke-width="1" x1="78" y1="584" x2="973" y2="584"/>
<line opacity="0.1" stroke="#000000" stroke-width="1" x1="78" y1="575" x2="973" y2="575"/>
<line opacity="0.1" stroke="#000000" stroke-width="1" x1="78" y1="566" x2="973" y2="566"/>
<line opacity="0.1" stroke="#000000" stroke-width="1" x1="78" y1="557" x2="973" y2="557"/>
<line opacity="0.1" stroke="#000000" stroke-width="1" x1="78" y1="548" x2="973" y2="548"/>
<line opacity="0.1" stroke="#000000" stroke-width="1" x1="78" y1="539" x2="973" y2="539"/>
<line opacity="0.1" stroke="#000000" stroke-width="1" x1="78" y1="531" x2="973" y2="531"/>
<line opacity="0.1" stroke="#000000" stroke-width="1" x1="78" y1="522" x2="973" y2="522"/>
<line opacity="0.1" stroke="#000000" stroke-width="1" x1="78" y1="513" x2="973" y2="513"/>
<line opacity="0.1" stroke="#000000" stroke-width="1" x1="78" y1="504" x2="973" y2="504"/>
<line opacity="0.1" stroke="#000000" stroke-width="1" x1="78" y1="495" x2="973" y2="495"/>
<line opacity="0.1" stroke="#000000" stroke-width="1" x1="78" y1="486" x2="973" y2="486"/>
<line opacity="0.1" stroke="#000000" stroke-width="1" x1="78" y1="478" x2="973" y2="478"/>
<line opacity="0.1" stroke="#000000" stroke-width="1" x1="78" y1="469" x2="973" y2="469"/>
<line opacity="0.1" stroke="#000000" stroke-width="1" x1="78" y1="460" x2="973" y2="460"/>
<line opacity="0.1" stroke="#000000" stroke-width="1" x1="78" y1="451" x2="973" y2="451"/>
<line opacity="0.1" stroke="#000000" stroke-width="1" x1="78" y1="442" x2="973" y2="442"/>
<line opacity="0.1" stroke="#000000" stroke-width="1" x1="78" y1="433" x2="973" y2="433"/>
<line opacity="0.1" stroke="#000000" stroke-width="1" x1="78" y1="425" x2="973" y2="425"/>
<line opacity="0.1" stroke="#000000" stroke-width="1" x1="78" y1="416" x2="973" y2="416"/>
<line opacity="0.1" stroke="#000000" stroke-width="1" x1="78" y1="407" x2="973" y2="407"/>
<line opacity="0.1" stroke="#000000" stroke-width="1" x1="78" y1="398" x2="973" y2="398"/>
<line opacity="0.1" stroke="#000000" stroke-width="1" x1="78" y1="389" x2="973" y2="389"/>
<line opacity="0.1" stroke="#000000" stroke-width="1" x1="78" y1="380" x2="973" y2="380"/>
<line opacity="0.1" stroke="#000000" stroke-width="1" x1="78" y1="372" x2="973" y2="372"/>
<line opacity="0.1" stroke="#000000" stroke-width="1" x1="78" y1="363" x2="973" y2="363"/>
<line opacity="0.1" stroke="#000000" stroke-width="1" x1="78" y1="354" x2="973" y2="354"/>
<line opacity="0.1" stroke="#000000" stroke-width="1" x1="78" y1="345" x2="973" y2="345"/>
<line opacity="0.1" stroke="#000000" stroke-width="1" x1="78" y1="336" x2="973" y2="336"/>
<line opacity="0.1" stroke="#000000" stroke-width="1" x1="78" y1="327" x2="973" y2="327"/>
<line opacity="0.1" stroke="#000000" stroke-width="1" x1="78" y1="319" x2="973" y2="319"/>
<line opacity="0.1" stroke="#000000" stroke-width="1" x1="78" y1="310" x2="973" y2="310"/>
<line opacity="0.1" stroke="#000000" stroke-width="1" x1="78" y1="301" x2="973" y2="301"/>
<line opacity="0.1" stroke="#000000" stroke-width="1" x1="78" y1="292" x2="973" y2="292"/>
<line opacity="0.1" stroke="#000000" stroke-width="1" x1="78" y1="283" x2="973" y2="283"/>
<line opacity="0.1" stroke="#000000" stroke-width="1" x1="78" y1="274" x2="973" y2="274"/>
<line opacity="0.1" stroke="#000000" stroke-width="1" x1="78" y1="266" x2="973" y2="266"/>
<line opacity="0.1" stroke="#000000" stroke-width="1" x1="78" y1="257" x2="973" y2="257"/>
<line opacity="0.1" stroke="#000000" stroke-width="1" x1="78" y1="248" x2="973" y2="248"/>
<line opacity="0.1" stroke="#000000" stroke-width="1" x1="78" y1="239" x2="973" y2="239"/>
<line opacity="0.1" stroke="#000000" stroke-width="1" x1="78" y1="230" x2="973" y2="230"/>
<line opacity="0.1" stroke="#000000" stroke-width="1" x1="78" y1="221" x2="973" y2="221"/>
<line opacity="0.1" stroke="#000000" stroke-width="1" x1="78" y1="213" x2="973" y2="213"/>
<line opacity="0.1" stroke="#000000" stroke-width="1" x1="78" y1="204" x2="973" y2="204"/>
<line opacity="0.1" stroke="#000000" stroke-width="1" x1="78" y1="195" x2="973" y2="195"/>
<line opacity="0.1" stroke="#000000" stroke-width="1" x1="78" y1="186" x2="973" y2="186"/>
<line opacity="0.1" stroke="#000000" stroke-width="1" x1="78" y1="177" x2="973" y2="177"/>
<line opacity="0.1" stroke="#000000" stroke-width="1" x1="78" y1="168" x2="973" y2="168"/>
<line opacity="0.1" stroke="#000000" stroke-width="1" x1="78" y1="160" x2="973" y2="160"/>
<line opacity="0.1" stroke="#000000" stroke-width="1" x1="78" y1="151" x2="973" y2="151"/>
<line opacity="0.1" stroke="#000000" stroke-width="1" x1="78" y1="142" x2="973" y2="142"/>
<line opacity="0.1" stroke="#000000" stroke-width="1" x1="78" y1="133" x2="973" y2="133"/>
<line opacity="0.1" stroke="#000000" stroke-width="1" x1="78" y1="124" x2="973" y2="124"/>
<line opacity="0.1" stroke="#000000" stroke-width="1" x1="78" y1="115" x2="973" y2="115"/>
<line opacity="0.1" stroke="#000000" stroke-width="1" x1="78" y1="107" x2="973" y2="107"/>
<line opacity="0.1" stroke="#000000" stroke-width="1" x1="78" y1="98" x2="973" y2="98"/>
<line opacity="0.1" stroke="#000000" stroke-width="1" x1="78" y1="89" x2="973" y2="89"/>
<line opacity="0.1" stroke="#000000" stroke-width="1" x1="78" y1="80" x2="973" y2="80"/>
<line opacity="0.1" stroke="#000000" stroke-width="1" x1="78" y1="71" x2="973" y2="71"/>
<text x="8" y="384" dy="0.76em" text-anchor="middle" font-family="sans-serif" font-size="9.67741935483871" opacity="1" fill="#000000" transform="rotate(270, 8, 384)">
Memory usage
</text>
<text x="526" y="760" dy="-0.5ex" text-anchor="middle" font-family="sans-serif" font-size="9.67741935483871" opacity="1" fill="#000000">
Time
</text>
<line opacity="0.2" stroke="#000000" stroke-width="1" x1="96" y1="699" x2="96" y2="68"/>
<line opacity="0.2" stroke="#000000" stroke-width="1" x1="185" y1="699" x2="185" y2="68"/>
<line opacity="0.2" stroke="#000000" stroke-width="1" x1="275" y1="699" x2="275" y2="68"/>
<line opacity="0.2" stroke="#000000" stroke-width="1" x1="364" y1="699" x2="364" y2="68"/>
<line opacity="0.2" stroke="#000000" stroke-width="1" x1="454" y1="699" x2="454" y2="68"/>
<line opacity="0.2" stroke="#000000" stroke-width="1" x1="543" y1="699" x2="543" y2="68"/>
<line opacity="0.2" stroke="#000000" stroke-width="1" x1="633" y1="699" x2="633" y2="68"/>
<line opacity="0.2" stroke="#000000" stroke-width="1" x1="722" y1="699" x2="722" y2="68"/>
<line opacity="0.2" stroke="#000000" stroke-width="1" x1="811" y1="699" x2="811" y2="68"/>
<line opacity="0.2" stroke="#000000" stroke-width="1" x1="901" y1="699" x2="901" y2="68"/>
<line opacity="0.2" stroke="#000000" stroke-width="1" x1="78" y1="699" x2="973" y2="699"/>
<line opacity="0.2" stroke="#000000" stroke-width="1" x1="78" y1="610" x2="973" y2="610"/>
<line opacity="0.2" stroke="#000000" stroke-width="1" x1="78" y1="522" x2="973" y2="522"/>
<line opacity="0.2" stroke="#000000" stroke-width="1" x1="78" y1="433" x2="973" y2="433"/>
<line opacity="0.2" stroke="#000000" stroke-width="1" x1="78" y1="345" x2="973" y2="345"/>
<line opacity="0.2" stroke="#000000" stroke-width="1" x1="78" y1="257" x2="973" y2="257"/>
<line opacity="0.2" stroke="#000000" stroke-width="1" x1="78" y1="168" x2="973" y2="168"/>
<line opacity="0.2" stroke="#000000" stroke-width="1" x1="78" y1="80" x2="973" y2="80"/>
<polyline fill="none" opacity="1" stroke="#000000" stroke-width="1" points="77,68 77,699 "/>
<text x="68" y="699" dy="0.5ex" text-anchor="end" font-family="sans-serif" font-size="9.67741935483871" opacity="1" fill="#000000">
0 KB
</text>
<polyline fill="none" opacity="1" stroke="#000000" stroke-width="1" points="72,699 77,699 "/>
<text x="68" y="610" dy="0.5ex" text-anchor="end" font-family="sans-serif" font-size="9.67741935483871" opacity="1" fill="#000000">
48 KB
</text>
<polyline fill="none" opacity="1" stroke="#000000" stroke-width="1" points="72,610 77,610 "/>
<text x="68" y="522" dy="0.5ex" text-anchor="end" font-family="sans-serif" font-size="9.67741935483871" opacity="1" fill="#000000">
97 KB
</text>
<polyline fill="none" opacity="1" stroke="#000000" stroke-width="1" points="72,522 77,522 "/>
<text x="68" y="433" dy="0.5ex" text-anchor="end" font-family="sans-serif" font-size="9.67741935483871" opacity="1" fill="#000000">
146 KB
</text>
<polyline fill="none" opacity="1" stroke="#000000" stroke-width="1" points="72,433 77,433 "/>
<text x="68" y="345" dy="0.5ex" text-anchor="end" font-family="sans-serif" font-size="9.67741935483871" opacity="1" fill="#000000">
195 KB
</text>
<polyline fill="none" opacity="1" stroke="#000000" stroke-width="1" points="72,345 77,345 "/>
<text x="68" y="257" dy="0.5ex" text-anchor="end" font-family="sans-serif" font-size="9.67741935483871" opacity="1" fill="#000000">
244 KB
</text>
<polyline fill="none" opacity="1" stroke="#000000" stroke-width="1" points="72,257 77,257 "/>
<text x="68" y="168" dy="0.5ex" text-anchor="end" font-family="sans-serif" font-size="9.67741935483871" opacity="1" fill="#000000">
292 KB
</text>
<polyline fill="none" opacity="1" stroke="#000000" stroke-width="1" points="72,168 77,168 "/>
<text x="68" y="80" dy="0.5ex" text-anchor="end" font-family="sans-serif" font-size="9.67741935483871" opacity="1" fill="#000000">
341 KB
</text>
<polyline fill="none" opacity="1" stroke="#000000" stroke-width="1" points="72,80 77,80 "/>
<polyline fill="none" opacity="1" stroke="#000000" stroke-width="1" points="78,700 973,700 "/>
<text x="96" y="710" dy="0.76em" text-anchor="middle" font-family="sans-serif" font-size="9.67741935483871" opacity="1" fill="#000000">
02:04:17
</text>
<polyline fill="none" opacity="1" stroke="#000000" stroke-width="1" points="96,700 96,705 "/>
<text x="185" y="710" dy="0.76em" text-anchor="middle" font-family="sans-serif" font-size="9.67741935483871" opacity="1" fill="#000000">
02:04:18
</text>
<polyline fill="none" opacity="1" stroke="#000000" stroke-width="1" points="185,700 185,705 "/>
<text x="275" y="710" dy="0.76em" text-anchor="middle" font-family="sans-serif" font-size="9.67741935483871" opacity="1" fill="#000000">
02:04:19
</text>
<polyline fill="none" opacity="1" stroke="#000000" stroke-width="1" points="275,700 275,705 "/>
<text x="364" y="710" dy="0.76em" text-anchor="middle" font-family="sans-serif" font-size="9.67741935483871" opacity="1" fill="#000000">
02:04:20
</text>
<polyline fill="none" opacity="1" stroke="#000000" stroke-width="1" points="364,700 364,705 "/>
<text x="454" y="710" dy="0.76em" text-anchor="middle" font-family="sans-serif" font-size="9.67741935483871" opacity="1" fill="#000000">
02:04:21
</text>
<polyline fill="none" opacity="1" stroke="#000000" stroke-width="1" points="454,700 454,705 "/>
<text x="543" y="710" dy="0.76em" text-anchor="middle" font-family="sans-serif" font-size="9.67741935483871" opacity="1" fill="#000000">
02:04:22
</text>
<polyline fill="none" opacity="1" stroke="#000000" stroke-width="1" points="543,700 543,705 "/>
<text x="633" y="710" dy="0.76em" text-anchor="middle" font-family="sans-serif" font-size="9.67741935483871" opacity="1" fill="#000000">
02:04:23
</text>
<polyline fill="none" opacity="1" stroke="#000000" stroke-width="1" points="633,700 633,705 "/>
<text x="722" y="710" dy="0.76em" text-anchor="middle" font-family="sans-serif" font-size="9.67741935483871" opacity="1" fill="#000000">
02:04:24
</text>
<polyline fill="none" opacity="1" stroke="#000000" stroke-width="1" points="722,700 722,705 "/>
<text x="811" y="710" dy="0.76em" text-anchor="middle" font-family="sans-serif" font-size="9.67741935483871" opacity="1" fill="#000000">
02:04:25
</text>
<polyline fill="none" opacity="1" stroke="#000000" stroke-width="1" points="811,700 811,705 "/>
<text x="901" y="710" dy="0.76em" text-anchor="middle" font-family="sans-serif" font-size="9.67741935483871" opacity="1" fill="#000000">
02:04:26
</text>
<polyline fill="none" opacity="1" stroke="#000000" stroke-width="1" points="901,700 901,705 "/>
<polyline fill="none" opacity="1" stroke="#000000" stroke-width="1" points="78,67 974,67 "/>
<text x="96" y="58" dy="-0.5ex" text-anchor="middle" font-family="sans-serif" font-size="9.67741935483871" opacity="1" fill="#000000">
+265ms
</text>
<polyline fill="none" opacity="1" stroke="#000000" stroke-width="1" points="96,62 96,67 "/>
<text x="185" y="58" dy="-0.5ex" text-anchor="middle" font-family="sans-serif" font-size="9.67741935483871" opacity="1" fill="#000000">
+1s
</text>
<polyline fill="none" opacity="1" stroke="#000000" stroke-width="1" points="185,62 185,67 "/>
<text x="275" y="58" dy="-0.5ex" text-anchor="middle" font-family="sans-serif" font-size="9.67741935483871" opacity="1" fill="#000000">
+2s
</text>
<polyline fill="none" opacity="1" stroke="#000000" stroke-width="1" points="275,62 275,67 "/>
<text x="364" y="58" dy="-0.5ex" text-anchor="middle" font-family="sans-serif" font-size="9.67741935483871" opacity="1" fill="#000000">
+3s
</text>
<polyline fill="none" opacity="1" stroke="#000000" stroke-width="1" points="364,62 364,67 "/>
<text x="454" y="58" dy="-0.5ex" text-anchor="middle" font-family="sans-serif" font-size="9.67741935483871" opacity="1" fill="#000000">
+4s
</text>
<polyline fill="none" opacity="1" stroke="#000000" stroke-width="1" points="454,62 454,67 "/>
<text x="544" y="58" dy="-0.5ex" text-anchor="middle" font-family="sans-serif" font-size="9.67741935483871" opacity="1" fill="#000000">
+5s
</text>
<polyline fill="none" opacity="1" stroke="#000000" stroke-width="1" points="544,62 544,67 "/>
<text x="633" y="58" dy="-0.5ex" text-anchor="middle" font-family="sans-serif" font-size="9.67741935483871" opacity="1" fill="#000000">
+6s
</text>
<polyline fill="none" opacity="1" stroke="#000000" stroke-width="1" points="633,62 633,67 "/>
<text x="723" y="58" dy="-0.5ex" text-anchor="middle" font-family="sans-serif" font-size="9.67741935483871" opacity="1" fill="#000000">
+7s
</text>
<polyline fill="none" opacity="1" stroke="#000000" stroke-width="1" points="723,62 723,67 "/>
<text x="812" y="58" dy="-0.5ex" text-anchor="middle" font-family="sans-serif" font-size="9.67741935483871" opacity="1" fill="#000000">
+8s
</text>
<polyline fill="none" opacity="1" stroke="#000000" stroke-width="1" points="812,62 812,67 "/>
<text x="902" y="58" dy="-0.5ex" text-anchor="middle" font-family="sans-serif" font-size="9.67741935483871" opacity="1" fill="#000000">
+9s
</text>
<polyline fill="none" opacity="1" stroke="#000000" stroke-width="1" points="902,62 902,67 "/>
</svg>
