<svg width="1024" height="768" viewBox="0 0 1024 768" xmlns="http://www.w3.org/2000/svg">
<rect x="0" y="0" width="1023" height="767" opacity="1" fill="#FFFFFF" stroke="none"/>
<polygon opacity="1" fill="#3CB44B" points="974,699 974,699 974,699 "/>
<polyline fill="none" opacity="1" stroke="#3CB44B" stroke-width="1" points="974,699 "/>
<polygon opacity="1" fill="#E6194B" points="106,691 107,691 108,690 109,688 110,687 111,685 112,684 113,683 113,682 114,681 115,681 116,681 117,681 118,679 119,679 119,679 120,679 121,678 122,676 123,675 124,675 125,675 126,674 126,673 127,672 128,671 129,671 130,669 131,669 132,668 132,668 133,668 134,668 135,668 136,667 137,667 138,667 138,666 139,666 140,665 141,665 142,664 143,663 144,663 145,663 145,662 146,662 147,661 148,660 149,659 150,659 151,659 151,658 152,658 153,657 154,655 155,654 156,654 157,653 158,653 158,652 159,652 160,651 161,651 162,651 163,650 164,648 164,648 165,647 166,647 167,647 168,646 169,646 170,645 171,644 171,644 172,643 173,642 174,642 175,640 176,638 177,636 177,636 178,635 179,635 180,635 181,634 182,632 183,632 184,630 184,630 185,628 186,628 187,626 188,625 189,624 190,624 190,624 191,623 192,623 193,621 194,620 195,619 196,618 196,616 197,616 198,615 199,615 200,612 201,612 202,612 203,612 203,608 204,608 205,607 206,607 207,606 208,606 209,605 209,604 210,604 211,603 212,602 213,601 214,599 215,597 216,595 216,595 217,594 218,594 219,594 220,594 221,593 222,593 222,592 223,592 224,591 225,591 226,590 227,588 228,588 229,588 229,588 230,585 231,584 232,583 233,583 234,583 235,583 235,582 236,581 237,580 238,579 239,577 240,577 241,576 242,575 242,574 243,573 244,573 245,572 246,572 247,570 248,568 248,568 249,567 250,566 251,566 252,566 253,566 254,564 255,561 255,560 256,560 257,559 258,559 259,559 260,559 261,559 261,557 262,556 263,554 264,553 265,553 266,551 267,550 267,550 268,549 269,548 270,548 271,548 272,547 273,546 274,545 274,544 275,544 276,544 277,543 278,542 279,541 280,540 280,540 281,539 282,539 283,539 284,537 285,536 286,535 287,535 287,534 288,533 289,533 290,533 291,533 292,533 293,532 293,531 294,531 295,530 296,530 297,529 298,529 299,529 300,528 300,528 301,528 302,527 303,525 304,525 305,525 306,524 306,524 307,523 308,523 309,523 310,523 311,522 312,522 313,521 313,520 314,520 315,519 316,518 317,517 318,517 319,513 319,512 320,511 321,511 322,511 323,511 324,510 325,510 325,508 326,508 327,507 328,507 329,506 330,505 331,505 332,505 332,505 333,503 334,503 335,502 336,502 337,502 338,501 338,501 339,499 340,499 341,499 342,498 343,497 344,496 345,495 345,495 346,495 347,492 348,492 349,491 350,490 351,490 351,487 352,486 353,486 354,485 355,484 356,482 357,482 358,481 358,481 359,481 360,480 361,479 362,478 363,478 364,476 364,475 365,474 366,473 367,471 368,471 369,470 370,468 371,468 371,468 372,467 373,466 374,465 375,464 376,463 377,463 377,462 378,461 379,459 380,459 381,459 382,458 383,458 384,458 384,458 385,458 386,457 387,456 388,455 389,453 390,453 390,453 391,453 392,453 393,451 394,451 395,451 396,451 396,451 397,450 398,449 399,448 400,448 401,446 402,446 403,445 403,445 404,443 405,443 406,443 407,443 408,442 409,442 409,441 410,441 411,441 412,441 413,440 414,440 415,440 416,440 416,440 417,440 418,439 419,438 420,438 421,437 422,436 422,434 423,434 424,434 425,432 426,432 427,432 428,431 429,431 429,430 430,430 431,429 432,429 433,427 434,426 435,425 435,425 436,425 437,424 438,423 439,423 440,422 441,421 442,420 442,420 443,420 444,418 445,417 446,416 447,415 448,414 448,414 449,413 450,413 451,412 452,410 453,409 454,408 454,407 455,407 456,406 457,405 458,405 459,404 460,404 461,403 461,402 462,402 463,402 464,401 465,401 466,400 467,399 467,399 468,398 469,397 470,395 471,395 472,394 473,394 474,394 474,393 475,392 476,392 477,392 478,390 479,389 480,388 480,387 481,386 482,386 483,385 484,385 485,385 486,385 487,385 487,385 488,383 489,383 490,383 491,383 492,382 493,382 493,382 494,382 495,380 496,378 497,378 498,378 499,377 500,377 500,376 501,375 502,374 503,374 504,374 505,374 506,373 506,373 507,373 508,373 509,371 510,371 511,370 512,370 513,370 513,369 514,368 515,368 516,366 517,364 518,364 519,363 519,363 520,361 521,361 522,361 523,360 524,360 525,360 525,358 526,358 527,357 528,355 529,355 530,355 531,355 532,355 532,355 533,354 534,354 535,354 536,353 537,352 538,352 538,352 539,351 540,351 541,351 542,351 543,350 544,350 545,349 545,349 546,348 547,348 548,346 549,345 550,345 551,345 551,343 552,342 553,342 554,340 555,340 556,340 557,338 558,337 558,337 559,336 560,335 561,335 562,334 563,334 564,332 564,332 565,332 566,331 567,330 568,329 569,329 570,328 571,328 571,327 572,327 573,326 574,326 575,325 576,325 577,325 577,325 578,324 579,324 580,324 581,324 582,324 583,324 583,323 584,322 585,322 586,320 587,320 588,320 589,317 590,316 590,316 591,314 592,314 593,312 594,312 595,312 596,310 596,309 597,308 598,308 599,307 600,307 601,306 602,306 603,306 603,305 604,305 605,305 606,304 607,303 608,303 609,303 609,302 610,302 611,302 612,301 613,300 614,299 615,298 616,298 616,298 617,295 618,295 619,295 620,294 621,293 622,293 622,293 623,292 624,292 625,292 626,292 627,291 628,290 629,290 629,290 630,290 631,289 632,289 633,289 634,288 635,288 635,287 636,287 637,287 638,287 639,286 640,285 641,284 642,283 642,283 643,281 644,281 645,280 646,279 647,279 648,278 648,277 649,277 650,276 651,275 652,274 653,273 654,273 654,272 655,271 656,269 657,267 658,267 659,267 660,266 661,266 661,266 662,265 663,264 664,263 665,262 666,262 667,259 667,259 668,259 669,259 670,257 671,257 672,257 673,256 674,255 674,254 675,254 676,253 677,251 678,250 679,249 680,249 680,247 681,247 682,246 683,246 684,246 685,246 686,245 687,243 687,242 688,242 689,241 690,241 691,240 692,239 693,239 693,239 694,239 695,239 696,239 697,238 698,236 699,235 700,235 700,234 701,234 702,233 703,233 704,233 705,233 706,233 706,233 707,233 708,232 709,231 710,230 711,230 712,229 713,229 713,228 714,227 715,227 716,226 717,225 718,225 719,225 719,225 720,224 721,224 722,223 723,223 724,223 725,222 725,221 726,220 727,220 728,220 729,220 730,219 731,219 732,218 732,218 733,217 734,217 735,216 736,216 737,216 738,215 738,214 739,213 740,213 741,212 742,212 743,212 744,211 745,211 745,211 746,210 747,209 748,208 749,208 750,207 751,207 751,206 752,205 753,205 754,203 755,202 756,202 757,202 758,202 758,201 759,199 760,199 761,199 762,198 763,198 764,198 764,195 765,193 766,193 767,192 768,192 769,191 770,191 771,191 771,189 772,189 773,189 774,189 775,188 776,187 777,187 777,186 778,184 779,184 780,184 781,183 782,182 783,181 783,180 784,179 785,179 786,179 787,179 788,178 789,178 790,178 790,178 791,177 792,177 793,176 794,176 795,176 796,174 796,173 797,173 798,173 799,172 800,172 801,171 802,171 803,170 803,170 804,169 805,168 806,168 807,167 808,167 809,167 809,167 810,167 811,165 812,165 813,165 814,164 815,163 816,163 816,163 817,163 818,162 819,161 820,161 821,160 822,160 822,160 823,159 824,159 825,159 826,159 827,158 828,158 829,157 829,155 830,155 831,154 832,153 833,153 834,152 835,151 835,151 836,151 837,150 838,150 839,150 840,149 841,149 842,148 842,148 843,147 844,146 845,146 846,145 847,144 848,144 848,144 849,143 850,142 851,141 852,141 853,139 854,139 854,139 855,138 856,138 857,137 858,136 859,136 860,135 861,133 861,133 862,131 863,131 864,131 865,130 866,130 867,129 867,129 868,129 869,127 870,126 871,126 872,125 873,125 874,125 874,124 875,124 876,124 877,123 878,122 879,122 880,121 880,121 881,121 882,121 883,120 884,120 885,120 886,119 887,119 887,119 888,118 889,118 890,117 891,117 892,116 893,115 893,115 894,115 895,114 896,114 897,114 898,114 899,114 900,113 900,113 901,113 902,111 903,111 904,111 905,111 906,110 906,109 907,108 908,108 909,108 910,106 911,106 912,105 912,105 913,105 914,104 915,104 916,104 917,103 918,103 919,102 919,102 920,100 921,99 922,97 923,96 924,95 925,94 925,93 926,93 927,92 928,91 929,91 930,91 931,91 932,90 932,89 933,89 934,88 935,86 936,86 937,86 938,85 938,83 939,82 940,82 941,81 942,81 943,80 944,80 945,79 945,79 946,78 947,78 948,78 949,78 950,76 951,76 951,76 952,76 953,75 954,75 955,74 956,74 957,74 958,74 958,73 959,73 960,73 961,73 962,72 963,72 964,71 964,71 965,70 966,69 967,69 968,69 969,68 970,68 971,68 971,68 972,68 972,68 974,68 974,699 106,699 "/>
<polyline fill="none" opacity="1" stroke="#E6194B" stroke-width="1" points="106,691 107,691 108,690 109,688 110,687 111,685 112,684 113,683 113,682 114,681 115,681 116,681 117,681 118,679 119,679 119,679 120,679 121,678 122,676 123,675 124,675 125,675 126,674 126,673 127,672 128,671 129,671 130,669 131,669 132,668 132,668 133,668 134,668 135,668 136,667 137,667 138,667 138,666 139,666 140,665 141,665 142,664 143,663 144,663 145,663 145,662 146,662 147,661 148,660 149,659 150,659 151,659 151,658 152,658 153,657 154,655 155,654 156,654 157,653 158,653 158,652 159,652 160,651 161,651 162,651 163,650 164,648 164,648 165,647 166,647 167,647 168,646 169,646 170,645 171,644 171,644 172,643 173,642 174,642 175,640 176,638 177,636 177,636 178,635 179,635 180,635 181,634 182,632 183,632 184,630 184,630 185,628 186,628 187,626 188,625 189,624 190,624 190,624 191,623 192,623 193,621 194,620 195,619 196,618 196,616 197,616 198,615 199,615 200,612 201,612 202,612 203,612 203,608 204,608 205,607 206,607 207,606 208,606 209,605 209,604 210,604 211,603 212,602 213,601 214,599 215,597 216,595 216,595 217,594 218,594 219,594 220,594 221,593 222,593 222,592 223,592 224,591 225,591 226,590 227,588 228,588 229,588 229,588 230,585 231,584 232,583 233,583 234,583 235,583 235,582 236,581 237,580 238,579 239,577 240,577 241,576 242,575 242,574 243,573 244,573 245,572 246,572 247,570 248,568 248,568 249,567 250,566 251,566 252,566 253,566 254,564 255,561 255,560 256,560 257,559 258,559 259,559 260,559 261,559 261,557 262,556 263,554 264,553 265,553 266,551 267,550 267,550 268,549 269,548 270,548 271,548 272,547 273,546 274,545 274,544 275,544 276,544 277,543 278,542 279,541 280,540 280,540 281,539 282,539 283,539 284,537 285,536 286,535 287,535 287,534 288,533 289,533 290,533 291,533 292,533 293,532 293,531 294,531 295,530 296,530 297,529 298,529 299,529 300,528 300,528 301,528 302,527 303,525 304,525 305,525 306,524 306,524 307,523 308,523 309,523 310,523 311,522 312,522 313,521 313,520 314,520 315,519 316,518 317,517 318,517 319,513 319,512 320,511 321,511 322,511 323,511 324,510 325,510 325,508 326,508 327,507 328,507 329,506 330,505 331,505 332,505 332,505 333,503 334,503 335,502 336,502 337,502 338,501 338,501 339,499 340,499 341,499 342,498 343,497 344,496 345,495 345,495 346,495 347,492 348,492 349,491 350,490 351,490 351,487 352,486 353,486 354,485 355,484 356,482 357,482 358,481 358,481 359,481 360,480 361,479 362,478 363,478 364,476 364,475 365,474 366,473 367,471 368,471 369,470 370,468 371,468 371,468 372,467 373,466 374,465 375,464 376,463 377,463 377,462 378,461 379,459 380,459 381,459 382,458 383,458 384,458 384,458 385,458 386,457 387,456 388,455 389,453 390,453 390,453 391,453 392,453 393,451 394,451 395,451 396,451 396,451 397,450 398,449 399,448 400,448 401,446 402,446 403,445 403,445 404,443 405,443 406,443 407,443 408,442 409,442 409,441 410,441 411,441 412,441 413,440 414,440 415,440 416,440 416,440 417,440 418,439 419,438 420,438 421,437 422,436 422,434 423,434 424,434 425,432 426,432 427,432 428,431 429,431 429,430 430,430 431,429 432,429 433,427 434,426 435,425 435,425 436,425 437,424 438,423 439,423 440,422 441,421 442,420 442,420 443,420 444,418 445,417 446,416 447,415 448,414 448,414 449,413 450,413 451,412 452,410 453,409 454,408 454,407 455,407 456,406 457,405 458,405 459,404 460,404 461,403 461,402 462,402 463,402 464,401 465,401 466,400 467,399 467,399 468,398 469,397 470,395 471,395 472,394 473,394 474,394 474,393 475,392 476,392 477,392 478,390 479,389 480,388 480,387 481,386 482,386 483,385 484,385 485,385 486,385 487,385 487,385 488,383 489,383 490,383 491,383 492,382 493,382 493,382 494,382 495,380 496,378 497,378 498,378 499,377 500,377 500,376 501,375 502,374 503,374 504,374 505,374 506,373 506,373 507,373 508,373 509,371 510,371 511,370 512,370 513,370 513,369 514,368 515,368 516,366 517,364 518,364 519,363 519,363 520,361 521,361 522,361 523,360 524,360 525,360 525,358 526,358 527,357 528,355 529,355 530,355 531,355 532,355 532,355 533,354 534,354 535,354 536,353 537,352 538,352 538,352 539,351 540,351 541,351 542,351 543,350 544,350 545,349 545,349 546,348 547,348 548,346 549,345 550,345 551,345 551,343 552,342 553,342 554,340 555,340 556,340 557,338 558,337 558,337 559,336 560,335 561,335 562,334 563,334 564,332 564,332 565,332 566,331 567,330 568,329 569,329 570,328 571,328 571,327 572,327 573,326 574,326 575,325 576,325 577,325 577,325 578,324 579,324 580,324 581,324 582,324 583,324 583,323 584,322 585,322 586,320 587,320 588,320 589,317 590,316 590,316 591,314 592,314 593,312 594,312 595,312 596,310 596,309 597,308 598,308 599,307 600,307 601,306 602,306 603,306 603,305 604,305 605,305 606,304 607,303 608,303 609,303 609,302 610,302 611,302 612,301 613,300 614,299 615,298 616,298 616,298 617,295 618,295 619,295 620,294 621,293 622,293 622,293 623,292 624,292 625,292 626,292 627,291 628,290 629,290 629,290 630,290 631,289 632,289 633,289 634,288 635,288 635,287 636,287 637,287 638,287 639,286 640,285 641,284 642,283 642,283 643,281 644,281 645,280 646,279 647,279 648,278 648,277 649,277 650,276 651,275 652,274 653,273 654,273 654,272 655,271 656,269 657,267 658,267 659,267 660,266 661,266 661,266 662,265 663,264 664,263 665,262 666,262 667,259 667,259 668,259 669,259 670,257 671,257 672,257 673,256 674,255 674,254 675,254 676,253 677,251 678,250 679,249 680,249 680,247 681,247 682,246 683,246 684,246 685,246 686,245 687,243 687,242 688,242 689,241 690,241 691,240 692,239 693,239 693,239 694,239 695,239 696,239 697,238 698,236 699,235 700,235 700,234 701,234 702,233 703,233 704,233 705,233 706,233 706,233 707,233 708,232 709,231 710,230 711,230 712,229 713,229 713,228 714,227 715,227 716,226 717,225 718,225 719,225 719,225 720,224 721,224 722,223 723,223 724,223 725,222 725,221 726,220 727,220 728,220 729,220 730,219 731,219 732,218 732,218 733,217 734,217 735,216 736,216 737,216 738,215 738,214 739,213 740,213 741,212 742,212 743,212 744,211 745,211 745,211 746,210 747,209 748,208 749,208 750,207 751,207 751,206 752,205 753,205 754,203 755,202 756,202 757,202 758,202 758,201 759,199 760,199 761,199 762,198 763,198 764,198 764,195 765,193 766,193 767,192 768,192 769,191 770,191 771,191 771,189 772,189 773,189 774,189 775,188 776,187 777,187 777,186 778,184 779,184 780,184 781,183 782,182 783,181 783,180 784,179 785,179 786,179 787,179 788,178 789,178 790,178 790,178 791,177 792,177 793,176 794,176 795,176 796,174 796,173 797,173 798,173 799,172 800,172 801,171 802,171 803,170 803,170 804,169 805,168 806,168 807,167 808,167 809,167 809,167 810,167 811,165 812,165 813,165 814,164 815,163 816,163 816,163 817,163 818,162 819,161 820,161 821,160 822,160 822,160 823,159 824,159 825,159 826,159 827,158 828,158 829,157 829,155 830,155 831,154 832,153 833,153 834,152 835,151 835,151 836,151 837,150 838,150 839,150 840,149 841,149 842,148 842,148 843,147 844,146 845,146 846,145 847,144 848,144 848,144 849,143 850,142 851,141 852,141 853,139 854,139 854,139 855,138 856,138 857,137 858,136 859,136 860,135 861,133 861,133 862,131 863,131 864,131 865,130 866,130 867,129 867,129 868,129 869,127 870,126 871,126 872,125 873,125 874,125 874,124 875,124 876,124 877,123 878,122 879,122 880,121 880,121 881,121 882,121 883,120 884,120 885,120 886,119 887,119 887,119 888,118 889,118 890,117 891,117 892,116 893,115 893,115 894,115 895,114 896,114 897,114 898,114 899,114 900,113 900,113 901,113 902,111 903,111 904,111 905,111 906,110 906,109 907,108 908,108 909,108 910,106 911,106 912,105 912,105 913,105 914,104 915,104 916,104 917,103 918,103 919,102 919,102 920,100 921,99 922,97 923,96 924,95 925,94 925,93 926,93 927,92 928,91 929,91 930,91 931,91 932,90 932,89 933,89 934,88 935,86 936,86 937,86 938,85 938,83 939,82 940,82 941,81 942,81 943,80 944,80 945,79 945,79 946,78 947,78 948,78 949,78 950,76 951,76 951,76 952,76 953,75 954,75 955,74 956,74 957,74 958,74 958,73 959,73 960,73 961,73 962,72 963,72 964,71 964,71 965,70 966,69 967,69 968,69 969,68 970,68 971,68 971,68 972,68 972,68 974,68 "/>
<line opacity="0.1" stroke="#000000" stroke-width="1" x1="85" y1="699" x2="85" y2="67"/>
<line opacity="0.1" stroke="#000000" stroke-width="1" x1="103" y1="699" x2="103" y2="67"/>
<line opacity="0.1" stroke="#000000" stroke-width="1" x1="121" y1="699" x2="121" y2="67"/>
<line opacity="0.1" stroke="#000000" stroke-width="1" x1="139" y1="699" x2="139" y2="67"/>
<line opacity="0.1" stroke="#000000" stroke-width="1" x1="157" y1="699" x2="157" y2="67"/>
<line opacity="0.1" stroke="#000000" stroke-width="1" x1="174" y1="699" x2="174" y2="67"/>
<line opacity="0.1" stroke="#000000" stroke-width="1" x1="192" y1="699" x2="192" y2="67"/>
<line opacity="0.1" stroke="#000000" stroke-width="1" x1="210" y1="699" x2="210" y2="67"/>
<line opacity="0.1" stroke="#000000" stroke-width="1" x1="228" y1="699" x2="228" y2="67"/>
<line opacity="0.1" stroke="#000000" stroke-width="1" x1="246" y1="699" x2="246" y2="67"/>
<line opacity="0.1" stroke="#000000" stroke-width="1" x1="264" y1="699" x2="264" y2="67"/>
<line opacity="0.1" stroke="#000000" stroke-width="1" x1="282" y1="699" x2="282" y2="67"/>
<line opacity="0.1" stroke="#000000" stroke-width="1" x1="300" y1="699" x2="300" y2="67"/>
<line opacity="0.1" stroke="#000000" stroke-width="1" x1="318" y1="699" x2="318" y2="67"/>
<line opacity="0.1" stroke="#000000" stroke-width="1" x1="336" y1="699" x2="336" y2="67"/>
<line opacity="0.1" stroke="#000000" stroke-width="1" x1="354" y1="699" x2="354" y2="67"/>
<line opacity="0.1" stroke="#000000" stroke-width="1" x1="372" y1="699" x2="372" y2="67"/>
<line opacity="0.1" stroke="#000000" stroke-width="1" x1="389" y1="699" x2="389" y2="67"/>
<line opacity="0.1" stroke="#000000" stroke-width="1" x1="407" y1="699" x2="407" y2="67"/>
<line opacity="0.1" stroke="#000000" stroke-width="1" x1="425" y1="699" x2="425" y2="67"/>
<line opacity="0.1" stroke="#000000" stroke-width="1" x1="443" y1="699" x2="443" y2="67"/>
<line opacity="0.1" stroke="#000000" stroke-width="1" x1="461" y1="699" x2="461" y2="67"/>
<line opacity="0.1" stroke="#000000" stroke-width="1" x1="479" y1="699" x2="479" y2="67"/>
<line opacity="0.1" stroke="#000000" stroke-width="1" x1="497" y1="699" x2="497" y2="67"/>
<line opacity="0.1" stroke="#000000" stroke-width="1" x1="515" y1="699" x2="515" y2="67"/>
<line opacity="0.1" stroke="#000000" stroke-width="1" x1="533" y1="699" x2="533" y2="67"/>
<line opacity="0.1" stroke="#000000" stroke-width="1" x1="551" y1="699" x2="551" y2="67"/>
<line opacity="0.1" stroke="#000000" stroke-width="1" x1="569" y1="699" x2="569" y2="67"/>
<line opacity="0.1" stroke="#000000" stroke-width="1" x1="587" y1="699" x2="587" y2="67"/>
<line opacity="0.1" stroke="#000000" stroke-width="1" x1="604" y1="699" x2="604" y2="67"/>
<line opacity="0.1" stroke="#000000" stroke-width="1" x1="622" y1="699" x2="622" y2="67"/>
<line opacity="0.1" stroke="#000000" stroke-width="1" x1="640" y1="699" x2="640" y2="67"/>
<line opacity="0.1" stroke="#000000" stroke-width="1" x1="658" y1="699" x2="658" y2="67"/>
<line opacity="0.1" stroke="#000000" stroke-width="1" x1="676" y1="699" x2="676" y2="67"/>
<line opacity="0.1" stroke="#000000" stroke-width="1" x1="694" y1="699" x2="694" y2="67"/>
<line opacity="0.1" stroke="#000000" stroke-width="1" x1="712" y1="699" x2="712" y2="67"/>
<line opacity="0.1" stroke="#000000" stroke-width="1" x1="730" y1="699" x2="730" y2="67"/>
<line opacity="0.1" stroke="#000000" stroke-width="1" x1="748" y1="699" x2="748" y2="67"/>
<line opacity="0.1" stroke="#000000" stroke-width="1" x1="766" y1="699" x2="766" y2="67"/>
<line opacity="0.1" stroke="#000000" stroke-width="1" x1="784" y1="699" x2="784" y2="67"/>
<line opacity="0.1" stroke="#000000" stroke-width="1" x1="802" y1="699" x2="802" y2="67"/>
<line opacity="0.1" stroke="#000000" stroke-width="1" x1="819" y1="699" x2="819" y2="67"/>
<line opacity="0.1" stroke="#000000" stroke-width="1" x1="837" y1="699" x2="837" y2="67"/>
<line opacity="0.1" stroke="#000000" stroke-width="1" x1="855" y1="699" x2="855" y2="67"/>
<line opacity="0.1" stroke="#000000" stroke-width="1" x1="873" y1="699" x2="873" y2="67"/>
<line opacity="0.1" stroke="#000000" stroke-width="1" x1="891" y1="699" x2="891" y2="67"/>
<line opacity="0.1" stroke="#000000" stroke-width="1" x1="909" y1="699" x2="909" y2="67"/>
<line opacity="0.1" stroke="#000000" stroke-width="1" x1="927" y1="699" x2="927" y2="67"/>
<line opacity="0.1" stroke="#000000" stroke-width="1" x1="945" y1="699" x2="945" y2="67"/>
<line opacity="0.1" stroke="#000000" stroke-width="1" x1="963" y1="699" x2="963" y2="67"/>
<line opacity="0.1" stroke="#000000" stroke-width="1" x1="78" y1="699" x2="974" y2="699"/>
<line opacity="0.1" stroke="#000000" stroke-width="1" x1="78" y1="690" x2="974" y2="690"/>
<line opacity="0.1" stroke="#000000" stroke-width="1" x1="78" y1="681" x2="974" y2="681"/>
<line opacity="0.1" stroke="#000000" stroke-width="1" x1="78" y1="673" x2="974" y2="673"/>
<line opacity="0.1" stroke="#000000" stroke-width="1" x1="78" y1="664" x2="974" y2="664"/>
<line opacity="0.1" stroke="#000000" stroke-width="1" x1="78" y1="655" x2="974" y2="655"/>
<line opacity="0.1" stroke="#000000" stroke-width="1" x1="78" y1="647" x2="974" y2="647"/>
<line opacity="0.1" stroke="#000000" stroke-width="1" x1="78" y1="638" x2="974" y2="638"/>
<line opacity="0.1" stroke="#000000" stroke-width="1" x1="78" y1="629" x2="974" y2="629"/>
<line opacity="0.1" stroke="#000000" stroke-width="1" x1="78" y1="621" x2="974" y2="621"/>
<line opacity="0.1" stroke="#000000" stroke-width="1" x1="78" y1="612" x2="974" y2="612"/>
<line opacity="0.1" stroke="#000000" stroke-width="1" x1="78" y1="604" x2="974" y2="604"/>
<line opacity="0.1" stroke="#000000" stroke-width="1" x1="78" y1="595" x2="974" y2="595"/>
<line opacity="0.1" stroke="#000000" stroke-width="1" x1="78" y1="586" x2="974" y2="586"/>
<line opacity="0.1" stroke="#000000" stroke-width="1" x1="78" y1="578" x2="974" y2="578"/>
<line opacity="0.1" stroke="#000000" stroke-width="1" x1="78" y1="569" x2="974" y2="569"/>
<line opacity="0.1" stroke="#000000" stroke-width="1" x1="78" y1="560" x2="974" y2="560"/>
<line opacity="0.1" stroke="#000000" stroke-width="1" x1="78" y1="552" x2="974" y2="552"/>
<line opacity="0.1" stroke="#000000" stroke-width="1" x1="78" y1="543" x2="974" y2="543"/>
<line opacity="0.1" stroke="#000000" stroke-width="1" x1="78" y1="535" x2="974" y2="535"/>
<line opacity="0.1" stroke="#000000" stroke-width="1" x1="78" y1="526" x2="974" y2="526"/>
<line opacity="0.1" stroke="#000000" stroke-width="1" x1="78" y1="517" x2="974" y2="517"/>
<line opacity="0.1" stroke="#000000" stroke-width="1" x1="78" y1="509" x2="974" y2="509"/>
<line opacity="0.1" stroke="#000000" stroke-width="1" x1="78" y1="500" x2="974" y2="500"/>
<line opacity="0.1" stroke="#000000" stroke-width="1" x1="78" y1="491" x2="974" y2="491"/>
<line opacity="0.1" stroke="#000000" stroke-width="1" x1="78" y1="483" x2="974" y2="483"/>
<line opacity="0.1" stroke="#000000" stroke-width="1" x1="78" y1="474" x2="974" y2="474"/>
<line opacity="0.1" stroke="#000000" stroke-width="1" x1="78" y1="466" x2="974" y2="466"/>
<line opacity="0.1" stroke="#000000" stroke-width="1" x1="78" y1="457" x2="974" y2="457"/>
<line opacity="0.1" stroke="#000000" stroke-width="1" x1="78" y1="448" x2="974" y2="448"/>
<line opacity="0.1" stroke="#000000" stroke-width="1" x1="78" y1="440" x2="974" y2="440"/>
<line opacity="0.1" stroke="#000000" stroke-width="1" x1="78" y1="431" x2="974" y2="431"/>
<line opacity="0.1" stroke="#000000" stroke-width="1" x1="78" y1="422" x2="974" y2="422"/>
<line opacity="0.1" stroke="#000000" stroke-width="1" x1="78" y1="414" x2="974" y2="414"/>
<line opacity="0.1" stroke="#000000" stroke-width="1" x1="78" y1="405" x2="974" y2="405"/>
<line opacity="0.1" stroke="#000000" stroke-width="1" x1="78" y1="397" x2="974" y2="397"/>
<line opacity="0.1" stroke="#000000" stroke-width="1" x1="78" y1="388" x2="974" y2="388"/>
<line opacity="0.1" stroke="#000000" stroke-width="1" x1="78" y1="379" x2="974" y2="379"/>
<line opacity="0.1" stroke="#000000" stroke-width="1" x1="78" y1="371" x2="974" y2="371"/>
<line opacity="0.1" stroke="#000000" stroke-width="1" x1="78" y1="362" x2="974" y2="362"/>
<line opacity="0.1" stroke="#000000" stroke-width="1" x1="78" y1="353" x2="974" y2="353"/>
<line opacity="0.1" stroke="#000000" stroke-width="1" x1="78" y1="345" x2="974" y2="345"/>
<line opacity="0.1" stroke="#000000" stroke-width="1" x1="78" y1="336" x2="974" y2="336"/>
<line opacity="0.1" stroke="#000000" stroke-width="1" x1="78" y1="328" x2="974" y2="328"/>
<line opacity="0.1" stroke="#000000" stroke-width="1" x1="78" y1="319" x2="974" y2="319"/>
<line opacity="0.1" stroke="#000000" stroke-width="1" x1="78" y1="310" x2="974" y2="310"/>
<line opacity="0.1" stroke="#000000" stroke-width="1" x1="78" y1="302" x2="974" y2="302"/>
<line opacity="0.1" stroke="#000000" stroke-width="1" x1="78" y1="293" x2="974" y2="293"/>
<line opacity="0.1" stroke="#000000" stroke-width="1" x1="78" y1="284" x2="974" y2="284"/>
<line opacity="0.1" stroke="#000000" stroke-width="1" x1="78" y1="276" x2="974" y2="276"/>
<line opacity="0.1" stroke="#000000" stroke-width="1" x1="78" y1="267" x2="974" y2="267"/>
<line opacity="0.1" stroke="#000000" stroke-width="1" x1="78" y1="258" x2="974" y2="258"/>
<line opacity="0.1" stroke="#000000" stroke-width="1" x1="78" y1="250" x2="974" y2="250"/>
<line opacity="0.1" stroke="#000000" stroke-width="1" x1="78" y1="241" x2="974" y2="241"/>
<line opacity="0.1" stroke="#000000" stroke-width="1" x1="78" y1="233" x2="974" y2="233"/>
<line opacity="0.1" stroke="#000000" stroke-width="1" x1="78" y1="224" x2="974" y2="224"/>
<line opacity="0.1" stroke="#000000" stroke-width="1" x1="78" y1="215" x2="974" y2="215"/>
<line opacity="0.1" stroke="#000000" stroke-width="1" x1="78" y1="207" x2="974" y2="207"/>
<line opacity="0.1" stroke="#000000" stroke-width="1" x1="78" y1="198" x2="974" y2="198"/>
<line opacity="0.1" stroke="#000000" stroke-width="1" x1="78" y1="189" x2="974" y2="189"/>
<line opacity="0.1" stroke="#000000" stroke-width="1" x1="78" y1="181" x2="974" y2="181"/>
<line opacity="0.1" stroke="#000000" stroke-width="1" x1="78" y1="172" x2="974" y2="172"/>
<line opacity="0.1" stroke="#000000" stroke-width="1" x1="78" y1="164" x2="974" y2="164"/>
<line opacity="0.1" stroke="#000000" stroke-width="1" x1="78" y1="155" x2="974" y2="155"/>
<line opacity="0.1" stroke="#000000" stroke-width="1" x1="78" y1="146" x2="974" y2="146"/>
<line opacity="0.1" stroke="#000000" stroke-width="1" x1="78" y1="138" x2="974" y2="138"/>
<line opacity="0.1" stroke="#000000" stroke-width="1" x1="78" y1="129" x2="974" y2="129"/>
<line opacity="0.1" stroke="#000000" stroke-width="1" x1="78" y1="120" x2="974" y2="120"/>
<line opacity="0.1" stroke="#000000" stroke-width="1" x1="78" y1="112" x2="974" y2="112"/>
<line opacity="0.1" stroke="#000000" stroke-width="1" x1="78" y1="103" x2="974" y2="103"/>
<line opacity="0.1" stroke="#000000" stroke-width="1" x1="78" y1="95" x2="974" y2="95"/>
<line opacity="0.1" stroke="#000000" stroke-width="1" x1="78" y1="86" x2="974" y2="86"/>
<line opacity="0.1" stroke="#000000" stroke-width="1" x1="78" y1="77" x2="974" y2="77"/>
<line opacity="0.1" stroke="#000000" stroke-width="1" x1="78" y1="69" x2="974" y2="69"/>
<text x="8" y="384" dy="0.76em" text-anchor="middle" font-family="sans-serif" font-size="9.67741935483871" opacity="1" fill="#000000" transform="rotate(270, 8, 384)">
Memory usage
</text>
<text x="526" y="760" dy="-0.5ex" text-anchor="middle" font-family="sans-serif" font-size="9.67741935483871" opacity="1" fill="#000000">
Time
</text>
<line opacity="0.2" stroke="#000000" stroke-width="1" x1="192" y1="699" x2="192" y2="67"/>
<line opacity="0.2" stroke="#000000" stroke-width="1" x1="372" y1="699" x2="372" y2="67"/>
<line opacity="0.2" stroke="#000000" stroke-width="1" x1="551" y1="699" x2="551" y2="67"/>
<line opacity="0.2" stroke="#000000" stroke-width="1" x1="730" y1="699" x2="730" y2="67"/>
<line opacity="0.2" stroke="#000000" stroke-width="1" x1="909" y1="699" x2="909" y2="67"/>
<line opacity="0.2" stroke="#000000" stroke-width="1" x1="78" y1="699" x2="974" y2="699"/>
<line opacity="0.2" stroke="#000000" stroke-width="1" x1="78" y1="612" x2="974" y2="612"/>
<line opacity="0.2" stroke="#000000" stroke-width="1" x1="78" y1="526" x2="974" y2="526"/>
<line opacity="0.2" stroke="#000000" stroke-width="1" x1="78" y1="440" x2="974" y2="440"/>
<line opacity="0.2" stroke="#000000" stroke-width="1" x1="78" y1="353" x2="974" y2="353"/>
<line opacity="0.2" stroke="#000000" stroke-width="1" x1="78" y1="267" x2="974" y2="267"/>
<line opacity="0.2" stroke="#000000" stroke-width="1" x1="78" y1="181" x2="974" y2="181"/>
<line opacity="0.2" stroke="#000000" stroke-width="1" x1="78" y1="95" x2="974" y2="95"/>
<polyline fill="none" opacity="1" stroke="#000000" stroke-width="1" points="77,68 77,700 "/>
<text x="68" y="699" dy="0.5ex" text-anchor="end" font-family="sans-serif" font-size="9.67741935483871" opacity="1" fill="#000000">
0 KB
</text>
<polyline fill="none" opacity="1" stroke="#000000" stroke-width="1" points="72,699 77,699 "/>
<text x="68" y="612" dy="0.5ex" text-anchor="end" font-family="sans-serif" font-size="9.67741935483871" opacity="1" fill="#000000">
48 KB
</text>
<polyline fill="none" opacity="1" stroke="#000000" stroke-width="1" points="72,612 77,612 "/>
<text x="68" y="526" dy="0.5ex" text-anchor="end" font-family="sans-serif" font-size="9.67741935483871" opacity="1" fill="#000000">
97 KB
</text>
<polyline fill="none" opacity="1" stroke="#000000" stroke-width="1" points="72,526 77,526 "/>
<text x="68" y="440" dy="0.5ex" text-anchor="end" font-family="sans-serif" font-size="9.67741935483871" opacity="1" fill="#000000">
146 KB
</text>
<polyline fill="none" opacity="1" stroke="#000000" stroke-width="1" points="72,440 77,440 "/>
<text x="68" y="353" dy="0.5ex" text-anchor="end" font-family="sans-serif" font-size="9.67741935483871" opacity="1" fill="#000000">
195 KB
</text>
<polyline fill="none" opacity="1" stroke="#000000" stroke-width="1" points="72,353 77,353 "/>
<text x="68" y="267" dy="0.5ex" text-anchor="end" font-family="sans-serif" font-size="9.67741935483871" opacity="1" fill="#000000">
244 KB
</text>
<polyline fill="none" opacity="1" stroke="#000000" stroke-width="1" points="72,267 77,267 "/>
<text x="68" y="181" dy="0.5ex" text-anchor="end" font-family="sans-serif" font-size="9.67741935483871" opacity="1" fill="#000000">
292 KB
</text>
<polyline fill="none" opacity="1" stroke="#000000" stroke-width="1" points="72,181 77,181 "/>
<text x="68" y="95" dy="0.5ex" text-anchor="end" font-family="sans-serif" font-size="9.67741935483871" opacity="1" fill="#000000">
341 KB
</text>
<polyline fill="none" opacity="1" stroke="#000000" stroke-width="1" points="72,95 77,95 "/>
<polyline fill="none" opacity="1" stroke="#000000" stroke-width="1" points="78,700 974,700 "/>
<text x="192" y="710" dy="0.76em" text-anchor="middle" font-family="sans-serif" font-size="9.67741935483871" opacity="1" fill="#000000">
06:26:08
</text>
<polyline fill="none" opacity="1" stroke="#000000" stroke-width="1" points="192,700 192,705 "/>
<text x="372" y="710" dy="0.76em" text-anchor="middle" font-family="sans-serif" font-size="9.67741935483871" opacity="1" fill="#000000">
06:26:10
</text>
<polyline fill="none" opacity="1" stroke="#000000" stroke-width="1" points="372,700 372,705 "/>
<text x="551" y="710" dy="0.76em" text-anchor="middle" font-family="sans-serif" font-size="9.67741935483871" opacity="1" fill="#000000">
06:26:12
</text>
<polyline fill="none" opacity="1" stroke="#000000" stroke-width="1" points="551,700 551,705 "/>
<text x="730" y="710" dy="0.76em" text-anchor="middle" font-family="sans-serif" font-size="9.67741935483871" opacity="1" fill="#000000">
06:26:14
</text>
<polyline fill="none" opacity="1" stroke="#000000" stroke-width="1" points="730,700 730,705 "/>
<text x="909" y="710" dy="0.76em" text-anchor="middle" font-family="sans-serif" font-size="9.67741935483871" opacity="1" fill="#000000">
06:26:16
</text>
<polyline fill="none" opacity="1" stroke="#000000" stroke-width="1" points="909,700 909,705 "/>
<polyline fill="none" opacity="1" stroke="#000000" stroke-width="1" points="78,67 974,67 "/>
<text x="192" y="58" dy="-0.5ex" text-anchor="middle" font-family="sans-serif" font-size="9.67741935483871" opacity="1" fill="#000000">
+1s
</text>
<polyline fill="none" opacity="1" stroke="#000000" stroke-width="1" points="192,62 192,67 "/>
<text x="372" y="58" dy="-0.5ex" text-anchor="middle" font-family="sans-serif" font-size="9.67741935483871" opacity="1" fill="#000000">
+3s
</text>
<polyline fill="none" opacity="1" stroke="#000000" stroke-width="1" points="372,62 372,67 "/>
<text x="551" y="58" dy="-0.5ex" text-anchor="middle" font-family="sans-serif" font-size="9.67741935483871" opacity="1" fill="#000000">
+5s
</text>
<polyline fill="none" opacity="1" stroke="#000000" stroke-width="1" points="551,62 551,67 "/>
<text x="730" y="58" dy="-0.5ex" text-anchor="middle" font-family="sans-serif" font-size="9.67741935483871" opacity="1" fill="#000000">
+7s
</text>
<polyline fill="none" opacity="1" stroke="#000000" stroke-width="1" points="730,62 730,67 "/>
<text x="909" y="58" dy="-0.5ex" text-anchor="middle" font-family="sans-serif" font-size="9.67741935483871" opacity="1" fill="#000000">
+9s
</text>
<polyline fill="none" opacity="1" stroke="#000000" stroke-width="1" points="909,62 909,67 "/>
<rect x="83" y="73" width="99" height="45" opacity="0.75" fill="#FFFFFF" stroke="none"/>
<rect x="83" y="73" width="99" height="45" opacity="1" fill="none" stroke="#000000"/>
<text x="123" y="83" dy="0.76em" text-anchor="start" font-family="sans-serif" font-size="9.67741935483871" opacity="1" fill="#000000">
Temporary
</text>
<text x="123" y="98" dy="0.76em" text-anchor="start" font-family="sans-serif" font-size="9.67741935483871" opacity="1" fill="#000000">
Leaked
</text>
<rect x="93" y="83" width="10" height="10" opacity="1" fill="#3CB44B" stroke="none"/>
<rect x="93" y="98" width="10" height="10" opacity="1" fill="#E6194B" stroke="none"/>
</svg>
