<svg width="1024" height="768" viewBox="0 0 1024 768" xmlns="http://www.w3.org/2000/svg">
<rect x="0" y="0" width="1024" height="768" opacity="1" fill="#FFFFFF" stroke="none"/>
<polygon opacity="1" fill="#E6194B" points="78,681 78,677 79,668 79,647 80,647 80,650 81,636 81,647 82,655 82,653 83,659 83,669 84,666 84,658 85,666 86,675 86,672 87,675 87,662 88,664 88,652 89,598 89,602 90,610 90,602 91,571 91,574 92,588 92,605 93,616 94,591 94,604 95,603 95,623 96,641 96,629 97,641 97,648 98,638 98,646 99,649 99,646 100,656 100,654 101,646 102,648 102,672 103,674 103,659 104,651 104,650 105,653 105,647 106,646 106,654 107,647 107,650 108,644 109,635 109,623 110,618 110,597 111,587 111,579 112,591 112,606 113,605 113,623 114,641 114,633 115,621 115,617 116,600 117,599 117,575 118,560 118,538 119,521 119,531 120,556 120,587 121,592 121,600 122,608 122,609 123,611 123,604 124,597 125,583 125,558 126,553 126,537 127,529 127,526 128,534 128,527 129,526 129,524 130,539 130,559 131,566 131,562 132,556 133,545 133,538 134,530 134,524 135,523 135,525 136,534 136,536 137,519 137,512 138,493 138,480 139,470 140,468 140,474 141,470 141,469 142,445 142,436 143,432 143,426 144,414 144,403 145,409 145,416 146,396 146,386 147,356 148,355 148,344 149,342 149,339 150,309 150,296 151,297 151,295 152,315 152,326 153,307 153,317 154,295 154,289 155,296 156,299 156,312 157,306 157,301 158,283 158,273 159,269 159,265 160,253 160,253 161,272 161,297 162,290 163,285 163,288 164,258 164,254 165,242 165,264 166,244 166,236 167,239 167,210 168,206 168,186 169,206 169,204 170,200 171,202 171,221 172,231 172,236 173,230 173,229 174,251 174,232 175,220 175,198 176,182 176,180 177,183 177,181 178,187 179,187 179,196 180,185 180,201 181,192 181,187 182,178 182,166 183,163 183,186 184,180 184,205 185,221 185,234 186,224 187,226 187,228 188,221 188,190 189,177 189,179 190,183 190,165 191,169 191,170 192,192 192,189 193,173 194,165 194,170 195,190 195,185 196,190 196,180 197,168 197,153 198,148 198,162 199,147 199,144 200,132 200,140 201,145 202,163 202,171 203,157 203,149 204,135 204,133 205,128 205,149 206,136 206,140 207,144 207,135 208,147 208,163 209,174 210,180 210,183 211,213 211,212 212,222 212,218 213,184 213,186 214,178 214,173 215,138 215,141 216,164 217,217 217,222 218,235 218,248 219,215 219,204 220,219 220,243 221,244 221,232 222,228 222,254 223,233 223,234 224,222 225,181 225,164 226,166 226,189 227,183 227,181 228,177 228,187 229,199 229,205 230,222 230,233 231,241 231,225 232,212 233,225 233,218 234,207 234,211 235,222 235,235 236,236 236,234 237,220 237,223 238,236 238,242 239,233 239,239 240,241 241,247 241,254 242,241 242,221 243,223 243,227 244,207 244,190 245,194 245,213 246,229 246,219 247,214 248,241 248,241 249,230 249,245 250,285 250,251 251,249 251,278 252,261 252,247 253,252 253,255 254,257 254,254 255,253 256,238 256,229 257,215 257,210 258,238 258,234 259,234 259,234 260,259 260,233 261,217 261,199 262,200 262,203 263,228 264,213 264,218 265,233 265,241 266,234 266,195 267,189 267,186 268,200 268,209 269,202 269,193 270,208 271,213 271,208 272,207 272,192 273,184 273,175 274,168 274,166 275,175 275,181 276,186 276,176 277,165 277,161 278,171 279,168 279,173 280,172 280,189 281,200 281,184 282,190 282,196 283,195 283,158 284,160 284,152 285,166 285,155 286,156 287,176 287,187 288,182 288,164 289,173 289,177 290,187 290,196 291,210 291,194 292,210 292,229 293,233 293,241 294,243 295,226 295,211 296,228 296,203 297,204 297,184 298,171 298,183 299,188 299,183 300,197 300,193 301,184 302,158 302,154 303,175 303,176 304,190 304,181 305,204 305,214 306,209 306,214 307,216 307,235 308,234 308,235 309,246 310,253 310,255 311,256 311,244 312,234 312,236 313,222 313,211 314,224 314,226 315,213 315,231 316,221 316,224 317,236 318,225 318,226 319,196 319,180 320,172 320,156 321,156 321,154 322,146 322,139 323,131 323,143 324,152 325,146 325,146 326,132 326,113 327,99 327,89 328,74 328,68 329,103 329,108 330,124 330,137 331,130 331,125 332,132 333,133 333,135 334,116 334,134 335,123 335,106 336,90 336,98 337,106 337,125 338,126 338,143 339,145 339,139 340,118 341,112 341,118 342,145 342,136 343,142 343,145 344,155 344,162 345,159 345,167 346,177 346,187 347,189 347,195 348,208 349,218 349,248 350,252 350,242 351,231 351,226 352,228 352,239 353,238 353,249 354,246 354,267 355,264 356,261 356,263 357,280 357,294 358,325 358,330 359,301 359,312 360,329 360,349 361,332 361,312 362,317 362,317 363,343 364,339 364,327 365,330 365,333 366,322 366,311 367,298 367,287 368,293 368,287 369,297 369,309 370,322 370,326 371,312 372,306 372,308 373,304 373,291 374,276 374,284 375,282 375,285 376,293 376,307 377,306 377,320 378,319 379,311 379,314 380,302 380,292 381,299 381,271 382,272 382,254 383,263 383,275 384,310 384,334 385,329 385,307 386,307 387,323 387,321 388,326 388,324 389,330 389,313 390,307 390,287 391,276 391,266 392,263 392,259 393,232 393,230 394,237 395,264 395,267 396,292 396,324 397,327 397,327 398,354 398,387 399,386 399,356 400,361 400,351 401,325 401,319 402,329 403,388 403,387 404,385 404,381 405,364 405,374 406,364 406,345 407,322 407,314 408,312 408,324 409,330 410,343 410,351 411,347 411,341 412,338 412,348 413,359 413,401 414,385 414,379 415,374 415,362 416,363 416,362 417,367 418,384 418,373 419,373 419,380 420,405 420,396 421,399 421,380 422,393 422,402 423,420 423,419 424,418 424,429 425,397 426,405 426,416 427,383 427,379 428,399 428,406 429,386 429,394 430,405 430,404 431,425 431,417 432,379 433,373 433,362 434,390 434,389 435,356 435,330 436,326 436,303 437,306 437,318 438,309 438,291 439,282 439,282 440,291 441,325 441,320 442,292 442,297 443,295 443,290 444,312 444,322 445,311 445,294 446,288 446,279 447,268 447,277 448,271 449,267 449,291 450,299 450,302 451,312 451,312 452,314 452,306 453,317 453,320 454,329 454,340 455,349 455,316 456,321 457,340 457,288 458,277 458,278 459,276 459,280 460,278 460,283 461,265 461,250 462,252 462,254 463,246 464,246 464,258 465,258 465,261 466,275 466,293 467,279 467,252 468,266 468,230 469,234 469,260 470,244 470,249 471,253 472,243 472,217 473,230 473,225 474,238 474,242 475,264 475,274 476,268 476,251 477,231 477,242 478,240 478,230 479,231 480,237 480,253 481,279 481,282 482,285 482,295 483,289 483,301 484,308 484,302 485,307 485,315 486,318 486,321 487,326 488,314 488,302 489,319 489,339 490,321 490,328 491,338 491,334 492,339 492,313 493,298 493,319 494,338 495,311 495,319 496,329 496,321 497,311 497,303 498,302 498,330 499,332 499,318 500,320 500,310 501,314 501,332 502,354 503,346 503,338 504,332 504,341 505,350 505,321 506,313 506,310 507,340 507,359 508,330 508,304 509,305 509,314 510,327 511,292 511,288 512,290 512,328 513,298 513,301 514,309 514,294 515,319 515,327 516,318 516,310 517,300 518,303 518,295 519,315 519,335 520,292 520,289 521,304 521,313 522,301 522,312 523,334 523,331 524,311 524,311 525,308 526,329 526,330 527,349 527,387 528,393 528,388 529,386 529,380 530,368 530,397 531,372 531,373 532,381 532,384 533,381 534,384 534,402 535,404 535,410 536,414 536,429 537,443 537,457 538,454 538,428 539,427 539,419 540,418 540,419 541,408 542,424 542,422 543,433 543,435 544,427 544,421 545,409 545,440 546,431 546,450 547,437 547,410 548,410 549,412 549,421 550,426 550,433 551,431 551,460 552,489 552,481 553,481 553,507 554,506 554,468 555,459 555,458 556,472 557,471 557,468 558,468 558,469 559,478 559,474 560,494 560,469 561,450 561,443 562,447 562,456 563,476 563,476 564,478 565,467 565,468 566,486 566,476 567,481 567,490 568,487 568,483 569,473 569,469 570,456 570,465 571,471 572,476 572,480 573,451 573,432 574,429 574,423 575,433 575,449 576,445 576,448 577,413 577,411 578,403 578,386 579,373 580,389 580,397 581,400 581,404 582,391 582,385 583,390 583,398 584,412 584,411 585,391 585,403 586,415 586,421 587,430 588,393 588,365 589,375 589,360 590,357 590,376 591,398 591,405 592,405 592,424 593,412 593,410 594,409 594,434 595,421 596,430 596,408 597,382 597,398 598,400 598,397 599,414 599,419 600,432 600,441 601,423 601,421 602,416 603,411 603,419 604,404 604,402 605,404 605,399 606,385 606,363 607,351 607,362 608,396 608,389 609,394 609,410 610,425 611,450 611,480 612,571 612,659 612,699 973,699 973,699 78,699 "/>
<polyline fill="none" opacity="1" stroke="#E6194B" stroke-width="1" points="78,681 78,677 79,668 79,647 80,647 80,650 81,636 81,647 82,655 82,653 83,659 83,669 84,666 84,658 85,666 86,675 86,672 87,675 87,662 88,664 88,652 89,598 89,602 90,610 90,602 91,571 91,574 92,588 92,605 93,616 94,591 94,604 95,603 95,623 96,641 96,629 97,641 97,648 98,638 98,646 99,649 99,646 100,656 100,654 101,646 102,648 102,672 103,674 103,659 104,651 104,650 105,653 105,647 106,646 106,654 107,647 107,650 108,644 109,635 109,623 110,618 110,597 111,587 111,579 112,591 112,606 113,605 113,623 114,641 114,633 115,621 115,617 116,600 117,599 117,575 118,560 118,538 119,521 119,531 120,556 120,587 121,592 121,600 122,608 122,609 123,611 123,604 124,597 125,583 125,558 126,553 126,537 127,529 127,526 128,534 128,527 129,526 129,524 130,539 130,559 131,566 131,562 132,556 133,545 133,538 134,530 134,524 135,523 135,525 136,534 136,536 137,519 137,512 138,493 138,480 139,470 140,468 140,474 141,470 141,469 142,445 142,436 143,432 143,426 144,414 144,403 145,409 145,416 146,396 146,386 147,356 148,355 148,344 149,342 149,339 150,309 150,296 151,297 151,295 152,315 152,326 153,307 153,317 154,295 154,289 155,296 156,299 156,312 157,306 157,301 158,283 158,273 159,269 159,265 160,253 160,253 161,272 161,297 162,290 163,285 163,288 164,258 164,254 165,242 165,264 166,244 166,236 167,239 167,210 168,206 168,186 169,206 169,204 170,200 171,202 171,221 172,231 172,236 173,230 173,229 174,251 174,232 175,220 175,198 176,182 176,180 177,183 177,181 178,187 179,187 179,196 180,185 180,201 181,192 181,187 182,178 182,166 183,163 183,186 184,180 184,205 185,221 185,234 186,224 187,226 187,228 188,221 188,190 189,177 189,179 190,183 190,165 191,169 191,170 192,192 192,189 193,173 194,165 194,170 195,190 195,185 196,190 196,180 197,168 197,153 198,148 198,162 199,147 199,144 200,132 200,140 201,145 202,163 202,171 203,157 203,149 204,135 204,133 205,128 205,149 206,136 206,140 207,144 207,135 208,147 208,163 209,174 210,180 210,183 211,213 211,212 212,222 212,218 213,184 213,186 214,178 214,173 215,138 215,141 216,164 217,217 217,222 218,235 218,248 219,215 219,204 220,219 220,243 221,244 221,232 222,228 222,254 223,233 223,234 224,222 225,181 225,164 226,166 226,189 227,183 227,181 228,177 228,187 229,199 229,205 230,222 230,233 231,241 231,225 232,212 233,225 233,218 234,207 234,211 235,222 235,235 236,236 236,234 237,220 237,223 238,236 238,242 239,233 239,239 240,241 241,247 241,254 242,241 242,221 243,223 243,227 244,207 244,190 245,194 245,213 246,229 246,219 247,214 248,241 248,241 249,230 249,245 250,285 250,251 251,249 251,278 252,261 252,247 253,252 253,255 254,257 254,254 255,253 256,238 256,229 257,215 257,210 258,238 258,234 259,234 259,234 260,259 260,233 261,217 261,199 262,200 262,203 263,228 264,213 264,218 265,233 265,241 266,234 266,195 267,189 267,186 268,200 268,209 269,202 269,193 270,208 271,213 271,208 272,207 272,192 273,184 273,175 274,168 274,166 275,175 275,181 276,186 276,176 277,165 277,161 278,171 279,168 279,173 280,172 280,189 281,200 281,184 282,190 282,196 283,195 283,158 284,160 284,152 285,166 285,155 286,156 287,176 287,187 288,182 288,164 289,173 289,177 290,187 290,196 291,210 291,194 292,210 292,229 293,233 293,241 294,243 295,226 295,211 296,228 296,203 297,204 297,184 298,171 298,183 299,188 299,183 300,197 300,193 301,184 302,158 302,154 303,175 303,176 304,190 304,181 305,204 305,214 306,209 306,214 307,216 307,235 308,234 308,235 309,246 310,253 310,255 311,256 311,244 312,234 312,236 313,222 313,211 314,224 314,226 315,213 315,231 316,221 316,224 317,236 318,225 318,226 319,196 319,180 320,172 320,156 321,156 321,154 322,146 322,139 323,131 323,143 324,152 325,146 325,146 326,132 326,113 327,99 327,89 328,74 328,68 329,103 329,108 330,124 330,137 331,130 331,125 332,132 333,133 333,135 334,116 334,134 335,123 335,106 336,90 336,98 337,106 337,125 338,126 338,143 339,145 339,139 340,118 341,112 341,118 342,145 342,136 343,142 343,145 344,155 344,162 345,159 345,167 346,177 346,187 347,189 347,195 348,208 349,218 349,248 350,252 350,242 351,231 351,226 352,228 352,239 353,238 353,249 354,246 354,267 355,264 356,261 356,263 357,280 357,294 358,325 358,330 359,301 359,312 360,329 360,349 361,332 361,312 362,317 362,317 363,343 364,339 364,327 365,330 365,333 366,322 366,311 367,298 367,287 368,293 368,287 369,297 369,309 370,322 370,326 371,312 372,306 372,308 373,304 373,291 374,276 374,284 375,282 375,285 376,293 376,307 377,306 377,320 378,319 379,311 379,314 380,302 380,292 381,299 381,271 382,272 382,254 383,263 383,275 384,310 384,334 385,329 385,307 386,307 387,323 387,321 388,326 388,324 389,330 389,313 390,307 390,287 391,276 391,266 392,263 392,259 393,232 393,230 394,237 395,264 395,267 396,292 396,324 397,327 397,327 398,354 398,387 399,386 399,356 400,361 400,351 401,325 401,319 402,329 403,388 403,387 404,385 404,381 405,364 405,374 406,364 406,345 407,322 407,314 408,312 408,324 409,330 410,343 410,351 411,347 411,341 412,338 412,348 413,359 413,401 414,385 414,379 415,374 415,362 416,363 416,362 417,367 418,384 418,373 419,373 419,380 420,405 420,396 421,399 421,380 422,393 422,402 423,420 423,419 424,418 424,429 425,397 426,405 426,416 427,383 427,379 428,399 428,406 429,386 429,394 430,405 430,404 431,425 431,417 432,379 433,373 433,362 434,390 434,389 435,356 435,330 436,326 436,303 437,306 437,318 438,309 438,291 439,282 439,282 440,291 441,325 441,320 442,292 442,297 443,295 443,290 444,312 444,322 445,311 445,294 446,288 446,279 447,268 447,277 448,271 449,267 449,291 450,299 450,302 451,312 451,312 452,314 452,306 453,317 453,320 454,329 454,340 455,349 455,316 456,321 457,340 457,288 458,277 458,278 459,276 459,280 460,278 460,283 461,265 461,250 462,252 462,254 463,246 464,246 464,258 465,258 465,261 466,275 466,293 467,279 467,252 468,266 468,230 469,234 469,260 470,244 470,249 471,253 472,243 472,217 473,230 473,225 474,238 474,242 475,264 475,274 476,268 476,251 477,231 477,242 478,240 478,230 479,231 480,237 480,253 481,279 481,282 482,285 482,295 483,289 483,301 484,308 484,302 485,307 485,315 486,318 486,321 487,326 488,314 488,302 489,319 489,339 490,321 490,328 491,338 491,334 492,339 492,313 493,298 493,319 494,338 495,311 495,319 496,329 496,321 497,311 497,303 498,302 498,330 499,332 499,318 500,320 500,310 501,314 501,332 502,354 503,346 503,338 504,332 504,341 505,350 505,321 506,313 506,310 507,340 507,359 508,330 508,304 509,305 509,314 510,327 511,292 511,288 512,290 512,328 513,298 513,301 514,309 514,294 515,319 515,327 516,318 516,310 517,300 518,303 518,295 519,315 519,335 520,292 520,289 521,304 521,313 522,301 522,312 523,334 523,331 524,311 524,311 525,308 526,329 526,330 527,349 527,387 528,393 528,388 529,386 529,380 530,368 530,397 531,372 531,373 532,381 532,384 533,381 534,384 534,402 535,404 535,410 536,414 536,429 537,443 537,457 538,454 538,428 539,427 539,419 540,418 540,419 541,408 542,424 542,422 543,433 543,435 544,427 544,421 545,409 545,440 546,431 546,450 547,437 547,410 548,410 549,412 549,421 550,426 550,433 551,431 551,460 552,489 552,481 553,481 553,507 554,506 554,468 555,459 555,458 556,472 557,471 557,468 558,468 558,469 559,478 559,474 560,494 560,469 561,450 561,443 562,447 562,456 563,476 563,476 564,478 565,467 565,468 566,486 566,476 567,481 567,490 568,487 568,483 569,473 569,469 570,456 570,465 571,471 572,476 572,480 573,451 573,432 574,429 574,423 575,433 575,449 576,445 576,448 577,413 577,411 578,403 578,386 579,373 580,389 580,397 581,400 581,404 582,391 582,385 583,390 583,398 584,412 584,411 585,391 585,403 586,415 586,421 587,430 588,393 588,365 589,375 589,360 590,357 590,376 591,398 591,405 592,405 592,424 593,412 593,410 594,409 594,434 595,421 596,430 596,408 597,382 597,398 598,400 598,397 599,414 599,419 600,432 600,441 601,423 601,421 602,416 603,411 603,419 604,404 604,402 605,404 605,399 606,385 606,363 607,351 607,362 608,396 608,389 609,394 609,410 610,425 611,450 611,480 612,571 612,659 612,699 973,699 "/>
<line opacity="0.1" stroke="#000000" stroke-width="1" x1="78" y1="699" x2="78" y2="68"/>
<line opacity="0.1" stroke="#000000" stroke-width="1" x1="87" y1="699" x2="87" y2="68"/>
<line opacity="0.1" stroke="#000000" stroke-width="1" x1="96" y1="699" x2="96" y2="68"/>
<line opacity="0.1" stroke="#000000" stroke-width="1" x1="105" y1="699" x2="105" y2="68"/>
<line opacity="0.1" stroke="#000000" stroke-width="1" x1="114" y1="699" x2="114" y2="68"/>
<line opacity="0.1" stroke="#000000" stroke-width="1" x1="123" y1="699" x2="123" y2="68"/>
<line opacity="0.1" stroke="#000000" stroke-width="1" x1="132" y1="699" x2="132" y2="68"/>
<line opacity="0.1" stroke="#000000" stroke-width="1" x1="141" y1="699" x2="141" y2="68"/>
<line opacity="0.1" stroke="#000000" stroke-width="1" x1="149" y1="699" x2="149" y2="68"/>
<line opacity="0.1" stroke="#000000" stroke-width="1" x1="158" y1="699" x2="158" y2="68"/>
<line opacity="0.1" stroke="#000000" stroke-width="1" x1="167" y1="699" x2="167" y2="68"/>
<line opacity="0.1" stroke="#000000" stroke-width="1" x1="176" y1="699" x2="176" y2="68"/>
<line opacity="0.1" stroke="#000000" stroke-width="1" x1="185" y1="699" x2="185" y2="68"/>
<line opacity="0.1" stroke="#000000" stroke-width="1" x1="194" y1="699" x2="194" y2="68"/>
<line opacity="0.1" stroke="#000000" stroke-width="1" x1="203" y1="699" x2="203" y2="68"/>
<line opacity="0.1" stroke="#000000" stroke-width="1" x1="212" y1="699" x2="212" y2="68"/>
<line opacity="0.1" stroke="#000000" stroke-width="1" x1="221" y1="699" x2="221" y2="68"/>
<line opacity="0.1" stroke="#000000" stroke-width="1" x1="230" y1="699" x2="230" y2="68"/>
<line opacity="0.1" stroke="#000000" stroke-width="1" x1="239" y1="699" x2="239" y2="68"/>
<line opacity="0.1" stroke="#000000" stroke-width="1" x1="248" y1="699" x2="248" y2="68"/>
<line opacity="0.1" stroke="#000000" stroke-width="1" x1="257" y1="699" x2="257" y2="68"/>
<line opacity="0.1" stroke="#000000" stroke-width="1" x1="266" y1="699" x2="266" y2="68"/>
<line opacity="0.1" stroke="#000000" stroke-width="1" x1="275" y1="699" x2="275" y2="68"/>
<line opacity="0.1" stroke="#000000" stroke-width="1" x1="284" y1="699" x2="284" y2="68"/>
<line opacity="0.1" stroke="#000000" stroke-width="1" x1="293" y1="699" x2="293" y2="68"/>
<line opacity="0.1" stroke="#000000" stroke-width="1" x1="302" y1="699" x2="302" y2="68"/>
<line opacity="0.1" stroke="#000000" stroke-width="1" x1="310" y1="699" x2="310" y2="68"/>
<line opacity="0.1" stroke="#000000" stroke-width="1" x1="319" y1="699" x2="319" y2="68"/>
<line opacity="0.1" stroke="#000000" stroke-width="1" x1="328" y1="699" x2="328" y2="68"/>
<line opacity="0.1" stroke="#000000" stroke-width="1" x1="337" y1="699" x2="337" y2="68"/>
<line opacity="0.1" stroke="#000000" stroke-width="1" x1="346" y1="699" x2="346" y2="68"/>
<line opacity="0.1" stroke="#000000" stroke-width="1" x1="355" y1="699" x2="355" y2="68"/>
<line opacity="0.1" stroke="#000000" stroke-width="1" x1="364" y1="699" x2="364" y2="68"/>
<line opacity="0.1" stroke="#000000" stroke-width="1" x1="373" y1="699" x2="373" y2="68"/>
<line opacity="0.1" stroke="#000000" stroke-width="1" x1="382" y1="699" x2="382" y2="68"/>
<line opacity="0.1" stroke="#000000" stroke-width="1" x1="391" y1="699" x2="391" y2="68"/>
<line opacity="0.1" stroke="#000000" stroke-width="1" x1="400" y1="699" x2="400" y2="68"/>
<line opacity="0.1" stroke="#000000" stroke-width="1" x1="409" y1="699" x2="409" y2="68"/>
<line opacity="0.1" stroke="#000000" stroke-width="1" x1="418" y1="699" x2="418" y2="68"/>
<line opacity="0.1" stroke="#000000" stroke-width="1" x1="427" y1="699" x2="427" y2="68"/>
<line opacity="0.1" stroke="#000000" stroke-width="1" x1="436" y1="699" x2="436" y2="68"/>
<line opacity="0.1" stroke="#000000" stroke-width="1" x1="445" y1="699" x2="445" y2="68"/>
<line opacity="0.1" stroke="#000000" stroke-width="1" x1="454" y1="699" x2="454" y2="68"/>
<line opacity="0.1" stroke="#000000" stroke-width="1" x1="463" y1="699" x2="463" y2="68"/>
<line opacity="0.1" stroke="#000000" stroke-width="1" x1="472" y1="699" x2="472" y2="68"/>
<line opacity="0.1" stroke="#000000" stroke-width="1" x1="480" y1="699" x2="480" y2="68"/>
<line opacity="0.1" stroke="#000000" stroke-width="1" x1="489" y1="699" x2="489" y2="68"/>
<line opacity="0.1" stroke="#000000" stroke-width="1" x1="498" y1="699" x2="498" y2="68"/>
<line opacity="0.1" stroke="#000000" stroke-width="1" x1="507" y1="699" x2="507" y2="68"/>
<line opacity="0.1" stroke="#000000" stroke-width="1" x1="516" y1="699" x2="516" y2="68"/>
<line opacity="0.1" stroke="#000000" stroke-width="1" x1="525" y1="699" x2="525" y2="68"/>
<line opacity="0.1" stroke="#000000" stroke-width="1" x1="534" y1="699" x2="534" y2="68"/>
<line opacity="0.1" stroke="#000000" stroke-width="1" x1="543" y1="699" x2="543" y2="68"/>
<line opacity="0.1" stroke="#000000" stroke-width="1" x1="552" y1="699" x2="552" y2="68"/>
<line opacity="0.1" stroke="#000000" stroke-width="1" x1="561" y1="699" x2="561" y2="68"/>
<line opacity="0.1" stroke="#000000" stroke-width="1" x1="570" y1="699" x2="570" y2="68"/>
<line opacity="0.1" stroke="#000000" stroke-width="1" x1="579" y1="699" x2="579" y2="68"/>
<line opacity="0.1" stroke="#000000" stroke-width="1" x1="588" y1="699" x2="588" y2="68"/>
<line opacity="0.1" stroke="#000000" stroke-width="1" x1="597" y1="699" x2="597" y2="68"/>
<line opacity="0.1" stroke="#000000" stroke-width="1" x1="606" y1="699" x2="606" y2="68"/>
<line opacity="0.1" stroke="#000000" stroke-width="1" x1="615" y1="699" x2="615" y2="68"/>
<line opacity="0.1" stroke="#000000" stroke-width="1" x1="624" y1="699" x2="624" y2="68"/>
<line opacity="0.1" stroke="#000000" stroke-width="1" x1="633" y1="699" x2="633" y2="68"/>
<line opacity="0.1" stroke="#000000" stroke-width="1" x1="642" y1="699" x2="642" y2="68"/>
<line opacity="0.1" stroke="#000000" stroke-width="1" x1="650" y1="699" x2="650" y2="68"/>
<line opacity="0.1" stroke="#000000" stroke-width="1" x1="659" y1="699" x2="659" y2="68"/>
<line opacity="0.1" stroke="#000000" stroke-width="1" x1="668" y1="699" x2="668" y2="68"/>
<line opacity="0.1" stroke="#000000" stroke-width="1" x1="677" y1="699" x2="677" y2="68"/>
<line opacity="0.1" stroke="#000000" stroke-width="1" x1="686" y1="699" x2="686" y2="68"/>
<line opacity="0.1" stroke="#000000" stroke-width="1" x1="695" y1="699" x2="695" y2="68"/>
<line opacity="0.1" stroke="#000000" stroke-width="1" x1="704" y1="699" x2="704" y2="68"/>
<line opacity="0.1" stroke="#000000" stroke-width="1" x1="713" y1="699" x2="713" y2="68"/>
<line opacity="0.1" stroke="#000000" stroke-width="1" x1="722" y1="699" x2="722" y2="68"/>
<line opacity="0.1" stroke="#000000" stroke-width="1" x1="731" y1="699" x2="731" y2="68"/>
<line opacity="0.1" stroke="#000000" stroke-width="1" x1="740" y1="699" x2="740" y2="68"/>
<line opacity="0.1" stroke="#000000" stroke-width="1" x1="749" y1="699" x2="749" y2="68"/>
<line opacity="0.1" stroke="#000000" stroke-width="1" x1="758" y1="699" x2="758" y2="68"/>
<line opacity="0.1" stroke="#000000" stroke-width="1" x1="767" y1="699" x2="767" y2="68"/>
<line opacity="0.1" stroke="#000000" stroke-width="1" x1="776" y1="699" x2="776" y2="68"/>
<line opacity="0.1" stroke="#000000" stroke-width="1" x1="785" y1="699" x2="785" y2="68"/>
<line opacity="0.1" stroke="#000000" stroke-width="1" x1="794" y1="699" x2="794" y2="68"/>
<line opacity="0.1" stroke="#000000" stroke-width="1" x1="803" y1="699" x2="803" y2="68"/>
<line opacity="0.1" stroke="#000000" stroke-width="1" x1="811" y1="699" x2="811" y2="68"/>
<line opacity="0.1" stroke="#000000" stroke-width="1" x1="820" y1="699" x2="820" y2="68"/>
<line opacity="0.1" stroke="#000000" stroke-width="1" x1="829" y1="699" x2="829" y2="68"/>
<line opacity="0.1" stroke="#000000" stroke-width="1" x1="838" y1="699" x2="838" y2="68"/>
<line opacity="0.1" stroke="#000000" stroke-width="1" x1="847" y1="699" x2="847" y2="68"/>
<line opacity="0.1" stroke="#000000" stroke-width="1" x1="856" y1="699" x2="856" y2="68"/>
<line opacity="0.1" stroke="#000000" stroke-width="1" x1="865" y1="699" x2="865" y2="68"/>
<line opacity="0.1" stroke="#000000" stroke-width="1" x1="874" y1="699" x2="874" y2="68"/>
<line opacity="0.1" stroke="#000000" stroke-width="1" x1="883" y1="699" x2="883" y2="68"/>
<line opacity="0.1" stroke="#000000" stroke-width="1" x1="892" y1="699" x2="892" y2="68"/>
<line opacity="0.1" stroke="#000000" stroke-width="1" x1="901" y1="699" x2="901" y2="68"/>
<line opacity="0.1" stroke="#000000" stroke-width="1" x1="910" y1="699" x2="910" y2="68"/>
<line opacity="0.1" stroke="#000000" stroke-width="1" x1="919" y1="699" x2="919" y2="68"/>
<line opacity="0.1" stroke="#000000" stroke-width="1" x1="928" y1="699" x2="928" y2="68"/>
<line opacity="0.1" stroke="#000000" stroke-width="1" x1="937" y1="699" x2="937" y2="68"/>
<line opacity="0.1" stroke="#000000" stroke-width="1" x1="946" y1="699" x2="946" y2="68"/>
<line opacity="0.1" stroke="#000000" stroke-width="1" x1="955" y1="699" x2="955" y2="68"/>
<line opacity="0.1" stroke="#000000" stroke-width="1" x1="964" y1="699" x2="964" y2="68"/>
<line opacity="0.1" stroke="#000000" stroke-width="1" x1="78" y1="699" x2="973" y2="699"/>
<line opacity="0.1" stroke="#000000" stroke-width="1" x1="78" y1="690" x2="973" y2="690"/>
<line opacity="0.1" stroke="#000000" stroke-width="1" x1="78" y1="681" x2="973" y2="681"/>
<line opacity="0.1" stroke="#000000" stroke-width="1" x1="78" y1="672" x2="973" y2="672"/>
<line opacity="0.1" stroke="#000000" stroke-width="1" x1="78" y1="663" x2="973" y2="663"/>
<line opacity="0.1" stroke="#000000" stroke-width="1" x1="78" y1="654" x2="973" y2="654"/>
<line opacity="0.1" stroke="#000000" stroke-width="1" x1="78" y1="645" x2="973" y2="645"/>
<line opacity="0.1" stroke="#000000" stroke-width="1" x1="78" y1="636" x2="973" y2="636"/>
<line opacity="0.1" stroke="#000000" stroke-width="1" x1="78" y1="627" x2="973" y2="627"/>
<line opacity="0.1" stroke="#000000" stroke-width="1" x1="78" y1="618" x2="973" y2="618"/>
<line opacity="0.1" stroke="#000000" stroke-width="1" x1="78" y1="609" x2="973" y2="609"/>
<line opacity="0.1" stroke="#000000" stroke-width="1" x1="78" y1="600" x2="973" y2="600"/>
<line opacity="0.1" stroke="#000000" stroke-width="1" x1="78" y1="591" x2="973" y2="591"/>
<line opacity="0.1" stroke="#000000" stroke-width="1" x1="78" y1="582" x2="973" y2="582"/>
<line opacity="0.1" stroke="#000000" stroke-width="1" x1="78" y1="573" x2="973" y2="573"/>
<line opacity="0.1" stroke="#000000" stroke-width="1" x1="78" y1="564" x2="973" y2="564"/>
<line opacity="0.1" stroke="#000000" stroke-width="1" x1="78" y1="555" x2="973" y2="555"/>
<line opacity="0.1" stroke="#000000" stroke-width="1" x1="78" y1="546" x2="973" y2="546"/>
<line opacity="0.1" stroke="#000000" stroke-width="1" x1="78" y1="537" x2="973" y2="537"/>
<line opacity="0.1" stroke="#000000" stroke-width="1" x1="78" y1="528" x2="973" y2="528"/>
<line opacity="0.1" stroke="#000000" stroke-width="1" x1="78" y1="519" x2="973" y2="519"/>
<line opacity="0.1" stroke="#000000" stroke-width="1" x1="78" y1="510" x2="973" y2="510"/>
<line opacity="0.1" stroke="#000000" stroke-width="1" x1="78" y1="501" x2="973" y2="501"/>
<line opacity="0.1" stroke="#000000" stroke-width="1" x1="78" y1="492" x2="973" y2="492"/>
<line opacity="0.1" stroke="#000000" stroke-width="1" x1="78" y1="483" x2="973" y2="483"/>
<line opacity="0.1" stroke="#000000" stroke-width="1" x1="78" y1="474" x2="973" y2="474"/>
<line opacity="0.1" stroke="#000000" stroke-width="1" x1="78" y1="465" x2="973" y2="465"/>
<line opacity="0.1" stroke="#000000" stroke-width="1" x1="78" y1="456" x2="973" y2="456"/>
<line opacity="0.1" stroke="#000000" stroke-width="1" x1="78" y1="447" x2="973" y2="447"/>
<line opacity="0.1" stroke="#000000" stroke-width="1" x1="78" y1="438" x2="973" y2="438"/>
<line opacity="0.1" stroke="#000000" stroke-width="1" x1="78" y1="429" x2="973" y2="429"/>
<line opacity="0.1" stroke="#000000" stroke-width="1" x1="78" y1="420" x2="973" y2="420"/>
<line opacity="0.1" stroke="#000000" stroke-width="1" x1="78" y1="411" x2="973" y2="411"/>
<line opacity="0.1" stroke="#000000" stroke-width="1" x1="78" y1="402" x2="973" y2="402"/>
<line opacity="0.1" stroke="#000000" stroke-width="1" x1="78" y1="393" x2="973" y2="393"/>
<line opacity="0.1" stroke="#000000" stroke-width="1" x1="78" y1="384" x2="973" y2="384"/>
<line opacity="0.1" stroke="#000000" stroke-width="1" x1="78" y1="375" x2="973" y2="375"/>
<line opacity="0.1" stroke="#000000" stroke-width="1" x1="78" y1="366" x2="973" y2="366"/>
<line opacity="0.1" stroke="#000000" stroke-width="1" x1="78" y1="357" x2="973" y2="357"/>
<line opacity="0.1" stroke="#000000" stroke-width="1" x1="78" y1="348" x2="973" y2="348"/>
<line opacity="0.1" stroke="#000000" stroke-width="1" x1="78" y1="339" x2="973" y2="339"/>
<line opacity="0.1" stroke="#000000" stroke-width="1" x1="78" y1="330" x2="973" y2="330"/>
<line opacity="0.1" stroke="#000000" stroke-width="1" x1="78" y1="321" x2="973" y2="321"/>
<line opacity="0.1" stroke="#000000" stroke-width="1" x1="78" y1="312" x2="973" y2="312"/>
<line opacity="0.1" stroke="#000000" stroke-width="1" x1="78" y1="303" x2="973" y2="303"/>
<line opacity="0.1" stroke="#000000" stroke-width="1" x1="78" y1="294" x2="973" y2="294"/>
<line opacity="0.1" stroke="#000000" stroke-width="1" x1="78" y1="285" x2="973" y2="285"/>
<line opacity="0.1" stroke="#000000" stroke-width="1" x1="78" y1="276" x2="973" y2="276"/>
<line opacity="0.1" stroke="#000000" stroke-width="1" x1="78" y1="267" x2="973" y2="267"/>
<line opacity="0.1" stroke="#000000" stroke-width="1" x1="78" y1="258" x2="973" y2="258"/>
<line opacity="0.1" stroke="#000000" stroke-width="1" x1="78" y1="249" x2="973" y2="249"/>
<line opacity="0.1" stroke="#000000" stroke-width="1" x1="78" y1="240" x2="973" y2="240"/>
<line opacity="0.1" stroke="#000000" stroke-width="1" x1="78" y1="231" x2="973" y2="231"/>
<line opacity="0.1" stroke="#000000" stroke-width="1" x1="78" y1="222" x2="973" y2="222"/>
<line opacity="0.1" stroke="#000000" stroke-width="1" x1="78" y1="213" x2="973" y2="213"/>
<line opacity="0.1" stroke="#000000" stroke-width="1" x1="78" y1="204" x2="973" y2="204"/>
<line opacity="0.1" stroke="#000000" stroke-width="1" x1="78" y1="195" x2="973" y2="195"/>
<line opacity="0.1" stroke="#000000" stroke-width="1" x1="78" y1="186" x2="973" y2="186"/>
<line opacity="0.1" stroke="#000000" stroke-width="1" x1="78" y1="177" x2="973" y2="177"/>
<line opacity="0.1" stroke="#000000" stroke-width="1" x1="78" y1="168" x2="973" y2="168"/>
<line opacity="0.1" stroke="#000000" stroke-width="1" x1="78" y1="159" x2="973" y2="159"/>
<line opacity="0.1" stroke="#000000" stroke-width="1" x1="78" y1="150" x2="973" y2="150"/>
<line opacity="0.1" stroke="#000000" stroke-width="1" x1="78" y1="141" x2="973" y2="141"/>
<line opacity="0.1" stroke="#000000" stroke-width="1" x1="78" y1="132" x2="973" y2="132"/>
<line opacity="0.1" stroke="#000000" stroke-width="1" x1="78" y1="123" x2="973" y2="123"/>
<line opacity="0.1" stroke="#000000" stroke-width="1" x1="78" y1="114" x2="973" y2="114"/>
<line opacity="0.1" stroke="#000000" stroke-width="1" x1="78" y1="105" x2="973" y2="105"/>
<line opacity="0.1" stroke="#000000" stroke-width="1" x1="78" y1="96" x2="973" y2="96"/>
<line opacity="0.1" stroke="#000000" stroke-width="1" x1="78" y1="87" x2="973" y2="87"/>
<line opacity="0.1" stroke="#000000" stroke-width="1" x1="78" y1="78" x2="973" y2="78"/>
<line opacity="0.1" stroke="#000000" stroke-width="1" x1="78" y1="69" x2="973" y2="69"/>
<text x="8" y="384" dy="0.76em" text-anchor="middle" font-family="sans-serif" font-size="9.67741935483871" opacity="1" fill="#000000" transform="rotate(270, 8, 384)">
Memory usage
</text>
<text x="526" y="760" dy="-0.5ex" text-anchor="middle" font-family="sans-serif" font-size="9.67741935483871" opacity="1" fill="#000000">
Time
</text>
<line opacity="0.2" stroke="#000000" stroke-width="1" x1="96" y1="699" x2="96" y2="68"/>
<line opacity="0.2" stroke="#000000" stroke-width="1" x1="185" y1="699" x2="185" y2="68"/>
<line opacity="0.2" stroke="#000000" stroke-width="1" x1="275" y1="699" x2="275" y2="68"/>
<line opacity="0.2" stroke="#000000" stroke-width="1" x1="364" y1="699" x2="364" y2="68"/>
<line opacity="0.2" stroke="#000000" stroke-width="1" x1="454" y1="699" x2="454" y2="68"/>
<line opacity="0.2" stroke="#000000" stroke-width="1" x1="543" y1="699" x2="543" y2="68"/>
<line opacity="0.2" stroke="#000000" stroke-width="1" x1="633" y1="699" x2="633" y2="68"/>
<line opacity="0.2" stroke="#000000" stroke-width="1" x1="722" y1="699" x2="722" y2="68"/>
<line opacity="0.2" stroke="#000000" stroke-width="1" x1="811" y1="699" x2="811" y2="68"/>
<line opacity="0.2" stroke="#000000" stroke-width="1" x1="901" y1="699" x2="901" y2="68"/>
<line opacity="0.2" stroke="#000000" stroke-width="1" x1="78" y1="699" x2="973" y2="699"/>
<line opacity="0.2" stroke="#000000" stroke-width="1" x1="78" y1="609" x2="973" y2="609"/>
<line opacity="0.2" stroke="#000000" stroke-width="1" x1="78" y1="519" x2="973" y2="519"/>
<line opacity="0.2" stroke="#000000" stroke-width="1" x1="78" y1="429" x2="973" y2="429"/>
<line opacity="0.2" stroke="#000000" stroke-width="1" x1="78" y1="339" x2="973" y2="339"/>
<line opacity="0.2" stroke="#000000" stroke-width="1" x1="78" y1="249" x2="973" y2="249"/>
<line opacity="0.2" stroke="#000000" stroke-width="1" x1="78" y1="159" x2="973" y2="159"/>
<line opacity="0.2" stroke="#000000" stroke-width="1" x1="78" y1="69" x2="973" y2="69"/>
<polyline fill="none" opacity="1" stroke="#000000" stroke-width="1" points="77,68 77,699 "/>
<text x="68" y="699" dy="0.5ex" text-anchor="end" font-family="sans-serif" font-size="9.67741935483871" opacity="1" fill="#000000">
0 KB
</text>
<polyline fill="none" opacity="1" stroke="#000000" stroke-width="1" points="72,699 77,699 "/>
<text x="68" y="609" dy="0.5ex" text-anchor="end" font-family="sans-serif" font-size="9.67741935483871" opacity="1" fill="#000000">
48 KB
</text>
<polyline fill="none" opacity="1" stroke="#000000" stroke-width="1" points="72,609 77,609 "/>
<text x="68" y="519" dy="0.5ex" text-anchor="end" font-family="sans-serif" font-size="9.67741935483871" opacity="1" fill="#000000">
97 KB
</text>
<polyline fill="none" opacity="1" stroke="#000000" stroke-width="1" points="72,519 77,519 "/>
<text x="68" y="429" dy="0.5ex" text-anchor="end" font-family="sans-serif" font-size="9.67741935483871" opacity="1" fill="#000000">
146 KB
</text>
<polyline fill="none" opacity="1" stroke="#000000" stroke-width="1" points="72,429 77,429 "/>
<text x="68" y="339" dy="0.5ex" text-anchor="end" font-family="sans-serif" font-size="9.67741935483871" opacity="1" fill="#000000">
195 KB
</text>
<polyline fill="none" opacity="1" stroke="#000000" stroke-width="1" points="72,339 77,339 "/>
<text x="68" y="249" dy="0.5ex" text-anchor="end" font-family="sans-serif" font-size="9.67741935483871" opacity="1" fill="#000000">
244 KB
</text>
<polyline fill="none" opacity="1" stroke="#000000" stroke-width="1" points="72,249 77,249 "/>
<text x="68" y="159" dy="0.5ex" text-anchor="end" font-family="sans-serif" font-size="9.67741935483871" opacity="1" fill="#000000">
292 KB
</text>
<polyline fill="none" opacity="1" stroke="#000000" stroke-width="1" points="72,159 77,159 "/>
<text x="68" y="69" dy="0.5ex" text-anchor="end" font-family="sans-serif" font-size="9.67741935483871" opacity="1" fill="#000000">
341 KB
</text>
<polyline fill="none" opacity="1" stroke="#000000" stroke-width="1" points="72,69 77,69 "/>
<polyline fill="none" opacity="1" stroke="#000000" stroke-width="1" points="78,700 973,700 "/>
<text x="96" y="710" dy="0.76em" text-anchor="middle" font-family="sans-serif" font-size="9.67741935483871" opacity="1" fill="#000000">
02:04:17
</text>
<polyline fill="none" opacity="1" stroke="#000000" stroke-width="1" points="96,700 96,705 "/>
<text x="185" y="710" dy="0.76em" text-anchor="middle" font-family="sans-serif" font-size="9.67741935483871" opacity="1" fill="#000000">
02:04:18
</text>
<polyline fill="none" opacity="1" stroke="#000000" stroke-width="1" points="185,700 185,705 "/>
<text x="275" y="710" dy="0.76em" text-anchor="middle" font-family="sans-serif" font-size="9.67741935483871" opacity="1" fill="#000000">
02:04:19
</text>
<polyline fill="none" opacity="1" stroke="#000000" stroke-width="1" points="275,700 275,705 "/>
<text x="364" y="710" dy="0.76em" text-anchor="middle" font-family="sans-serif" font-size="9.67741935483871" opacity="1" fill="#000000">
02:04:20
</text>
<polyline fill="none" opacity="1" stroke="#000000" stroke-width="1" points="364,700 364,705 "/>
<text x="454" y="710" dy="0.76em" text-anchor="middle" font-family="sans-serif" font-size="9.67741935483871" opacity="1" fill="#000000">
02:04:21
</text>
<polyline fill="none" opacity="1" stroke="#000000" stroke-width="1" points="454,700 454,705 "/>
<text x="543" y="710" dy="0.76em" text-anchor="middle" font-family="sans-serif" font-size="9.67741935483871" opacity="1" fill="#000000">
02:04:22
</text>
<polyline fill="none" opacity="1" stroke="#000000" stroke-width="1" points="543,700 543,705 "/>
<text x="633" y="710" dy="0.76em" text-anchor="middle" font-family="sans-serif" font-size="9.67741935483871" opacity="1" fill="#000000">
02:04:23
</text>
<polyline fill="none" opacity="1" stroke="#000000" stroke-width="1" points="633,700 633,705 "/>
<text x="722" y="710" dy="0.76em" text-anchor="middle" font-family="sans-serif" font-size="9.67741935483871" opacity="1" fill="#000000">
02:04:24
</text>
<polyline fill="none" opacity="1" stroke="#000000" stroke-width="1" points="722,700 722,705 "/>
<text x="811" y="710" dy="0.76em" text-anchor="middle" font-family="sans-serif" font-size="9.67741935483871" opacity="1" fill="#000000">
02:04:25
</text>
<polyline fill="none" opacity="1" stroke="#000000" stroke-width="1" points="811,700 811,705 "/>
<text x="901" y="710" dy="0.76em" text-anchor="middle" font-family="sans-serif" font-size="9.67741935483871" opacity="1" fill="#000000">
02:04:26
</text>
<polyline fill="none" opacity="1" stroke="#000000" stroke-width="1" points="901,700 901,705 "/>
<polyline fill="none" opacity="1" stroke="#000000" stroke-width="1" points="78,67 974,67 "/>
<text x="96" y="58" dy="-0.5ex" text-anchor="middle" font-family="sans-serif" font-size="9.67741935483871" opacity="1" fill="#000000">
+265ms
</text>
<polyline fill="none" opacity="1" stroke="#000000" stroke-width="1" points="96,62 96,67 "/>
<text x="185" y="58" dy="-0.5ex" text-anchor="middle" font-family="sans-serif" font-size="9.67741935483871" opacity="1" fill="#000000">
+1s
</text>
<polyline fill="none" opacity="1" stroke="#000000" stroke-width="1" points="185,62 185,67 "/>
<text x="275" y="58" dy="-0.5ex" text-anchor="middle" font-family="sans-serif" font-size="9.67741935483871" opacity="1" fill="#000000">
+2s
</text>
<polyline fill="none" opacity="1" stroke="#000000" stroke-width="1" points="275,62 275,67 "/>
<text x="364" y="58" dy="-0.5ex" text-anchor="middle" font-family="sans-serif" font-size="9.67741935483871" opacity="1" fill="#000000">
+3s
</text>
<polyline fill="none" opacity="1" stroke="#000000" stroke-width="1" points="364,62 364,67 "/>
<text x="454" y="58" dy="-0.5ex" text-anchor="middle" font-family="sans-serif" font-size="9.67741935483871" opacity="1" fill="#000000">
+4s
</text>
<polyline fill="none" opacity="1" stroke="#000000" stroke-width="1" points="454,62 454,67 "/>
<text x="544" y="58" dy="-0.5ex" text-anchor="middle" font-family="sans-serif" font-size="9.67741935483871" opacity="1" fill="#000000">
+5s
</text>
<polyline fill="none" opacity="1" stroke="#000000" stroke-width="1" points="544,62 544,67 "/>
<text x="633" y="58" dy="-0.5ex" text-anchor="middle" font-family="sans-serif" font-size="9.67741935483871" opacity="1" fill="#000000">
+6s
</text>
<polyline fill="none" opacity="1" stroke="#000000" stroke-width="1" points="633,62 633,67 "/>
<text x="723" y="58" dy="-0.5ex" text-anchor="middle" font-family="sans-serif" font-size="9.67741935483871" opacity="1" fill="#000000">
+7s
</text>
<polyline fill="none" opacity="1" stroke="#000000" stroke-width="1" points="723,62 723,67 "/>
<text x="812" y="58" dy="-0.5ex" text-anchor="middle" font-family="sans-serif" font-size="9.67741935483871" opacity="1" fill="#000000">
+8s
</text>
<polyline fill="none" opacity="1" stroke="#000000" stroke-width="1" points="812,62 812,67 "/>
<text x="902" y="58" dy="-0.5ex" text-anchor="middle" font-family="sans-serif" font-size="9.67741935483871" opacity="1" fill="#000000">
+9s
</text>
<polyline fill="none" opacity="1" stroke="#000000" stroke-width="1" points="902,62 902,67 "/>
</svg>
