<svg width="1024" height="768" viewBox="0 0 1024 768" xmlns="http://www.w3.org/2000/svg">
<rect x="0" y="0" width="1024" height="768" opacity="1" fill="#FFFFFF" stroke="none"/>
<polygon opacity="1" fill="#E6194B" points="78,695 78,677 79,670 79,647 80,647 81,644 81,637 82,647 82,653 83,659 84,668 84,662 85,658 86,665 86,672 87,675 87,662 88,665 89,612 89,598 90,616 91,602 91,571 92,579 92,600 93,605 94,591 94,602 95,603 96,624 96,629 97,632 97,645 98,638 99,645 99,645 100,653 101,657 101,646 102,647 102,679 103,670 104,655 104,650 105,652 106,647 106,646 107,646 107,650 108,650 109,634 109,621 110,608 111,597 111,580 112,585 112,609 113,605 114,629 114,641 115,628 116,617 116,601 117,586 117,575 118,538 119,531 119,522 120,556 121,587 121,592 122,601 122,608 123,611 124,604 124,597 125,574 126,556 126,538 127,531 127,526 128,529 129,526 129,524 130,529 131,549 131,559 132,557 132,556 133,543 134,533 134,524 135,524 136,525 136,540 137,536 137,517 138,501 139,480 139,471 140,469 141,474 141,471 142,447 142,437 143,433 144,417 144,405 145,409 146,417 146,395 147,378 147,358 148,354 149,344 149,345 150,312 151,299 151,300 152,298 152,328 153,310 154,312 154,298 155,292 156,299 156,303 157,309 157,304 158,276 159,280 159,268 160,256 161,257 161,274 162,293 162,292 163,288 164,262 164,257 165,246 166,248 166,239 167,242 167,216 168,209 169,189 169,210 170,203 171,205 171,220 172,234 172,239 173,232 174,239 174,238 175,233 176,201 176,183 177,190 177,186 178,184 179,191 179,199 180,189 181,204 181,193 182,181 182,175 183,166 184,190 184,183 185,213 186,235 186,227 187,229 187,230 188,213 189,183 189,181 190,186 191,168 191,172 192,192 192,195 193,183 194,168 194,173 195,191 196,188 196,190 197,179 197,157 198,151 199,160 199,150 200,135 201,149 201,143 202,166 202,169 203,159 204,139 204,143 205,131 206,152 206,139 207,148 207,138 208,148 209,157 209,177 210,183 211,196 211,214 212,222 212,220 213,186 214,189 214,176 215,157 216,141 216,167 217,219 217,237 218,237 219,250 219,206 220,214 221,245 221,246 222,230 222,241 223,244 224,235 224,220 225,176 226,167 226,175 227,191 227,183 228,180 229,194 229,206 230,220 230,229 231,243 232,217 232,214 233,220 234,209 234,210 235,213 235,237 236,244 237,236 237,222 238,238 239,244 239,235 240,243 240,248 241,248 242,242 242,222 243,225 244,223 244,202 245,191 245,198 246,229 247,220 247,215 248,242 249,233 249,231 250,283 250,250 251,260 252,261 252,261 253,247 254,255 254,257 255,254 255,252 256,230 257,222 257,211 258,238 259,234 259,234 260,254 260,233 261,215 262,200 262,201 263,223 264,214 264,218 265,232 265,239 266,219 267,193 267,187 268,192 269,207 269,202 270,193 270,208 271,208 272,208 272,193 273,185 274,176 274,167 275,176 275,176 276,187 277,177 277,162 278,174 279,169 279,175 280,173 280,193 281,200 282,185 282,196 283,196 284,158 284,152 285,159 285,156 286,156 287,176 287,187 288,173 289,164 289,174 290,191 290,187 291,209 292,194 292,218 293,229 294,238 294,242 295,216 295,211 296,207 297,203 297,184 298,171 299,183 299,182 300,189 300,193 301,191 302,158 302,154 303,176 304,182 304,181 305,191 305,214 306,208 307,214 307,232 308,232 309,234 309,240 310,252 310,255 311,242 312,244 312,232 313,219 314,210 314,225 315,212 315,224 316,220 317,223 317,226 318,224 319,215 319,180 320,171 320,155 321,156 322,153 322,145 323,130 324,135 324,151 325,145 325,139 326,128 327,99 327,93 328,73 329,68 329,103 330,113 330,124 331,129 332,124 332,132 333,137 334,120 334,116 335,123 335,105 336,90 337,105 337,111 338,125 339,130 339,144 340,125 340,117 341,111 342,137 342,135 343,141 344,144 344,154 345,161 345,158 346,172 347,185 347,188 348,204 349,212 349,216 350,250 350,240 351,229 352,224 352,227 353,236 354,240 354,244 355,261 355,271 356,258 357,277 357,285 358,321 359,310 359,298 360,314 360,338 361,329 362,309 362,314 363,321 364,335 364,327 365,324 365,326 366,319 367,295 367,284 368,290 369,284 369,294 370,306 370,319 371,317 372,302 372,303 373,298 374,280 374,273 375,291 375,279 376,290 377,303 377,304 378,317 379,307 379,307 380,298 380,289 381,298 382,268 382,253 383,251 383,247 384,264 385,287 385,274 386,260 387,276 387,273 388,278 388,277 389,282 390,259 390,242 391,226 392,219 392,216 393,199 393,183 394,190 395,217 395,223 396,253 397,276 397,279 398,300 398,338 399,312 400,308 400,316 401,280 402,271 402,281 403,340 403,338 404,334 405,315 405,327 406,315 407,289 407,273 408,264 408,278 409,275 410,295 410,298 411,292 412,292 412,289 413,303 413,338 414,335 415,327 415,319 416,313 417,313 417,317 418,334 418,324 419,323 420,345 420,346 421,344 422,330 422,345 423,366 423,368 424,367 425,374 425,347 426,354 427,356 427,329 428,348 428,355 429,336 430,354 430,354 431,371 432,366 432,325 433,316 433,311 434,339 435,305 435,280 436,276 437,253 437,262 438,272 438,241 439,233 440,232 440,242 441,269 442,244 442,242 443,245 443,240 444,262 445,260 445,250 446,238 447,229 447,219 448,229 448,217 449,228 450,248 450,251 451,261 452,263 452,255 453,263 453,269 454,277 455,299 455,282 456,264 457,279 457,237 458,226 458,227 459,225 460,227 460,231 461,213 462,199 462,201 463,212 463,195 464,206 465,206 465,209 466,236 467,227 467,200 468,206 468,179 469,183 470,211 470,192 471,197 472,202 472,166 473,178 473,174 474,186 475,201 475,222 476,213 477,199 477,179 478,190 478,178 479,180 480,179 480,201 481,235 482,229 482,236 483,236 483,248 484,255 485,250 485,262 486,263 487,268 487,269 488,256 488,249 489,275 490,269 490,267 491,285 492,281 492,273 493,249 493,245 494,283 495,258 495,265 496,273 497,258 497,254 498,249 498,274 499,278 500,264 500,260 501,257 502,264 502,300 503,292 503,282 504,278 505,296 505,267 506,256 507,263 507,290 508,276 508,257 509,251 510,260 510,260 511,235 512,237 512,246 513,244 513,247 514,241 515,240 515,265 516,264 517,256 517,246 518,244 518,242 519,278 520,248 520,236 521,250 522,258 522,245 523,274 523,278 524,255 525,255 525,252 526,273 527,283 527,298 528,337 528,329 529,331 530,311 530,334 531,319 532,316 532,324 533,325 533,324 534,339 535,348 535,347 536,357 536,381 537,385 538,400 538,370 539,369 540,361 540,360 541,358 541,350 542,364 543,366 543,369 544,371 545,351 545,362 546,373 546,388 547,363 548,352 548,352 549,354 550,367 550,375 551,373 551,413 552,422 553,422 553,448 554,447 555,409 555,400 556,400 556,413 557,409 558,408 558,409 559,420 560,414 560,408 561,392 561,383 562,386 563,413 563,421 564,415 565,406 565,407 566,429 566,415 567,438 568,426 568,422 569,412 570,401 570,395 571,408 571,415 572,419 573,387 573,372 574,369 575,362 575,386 576,384 576,369 577,352 578,346 578,325 579,312 580,323 580,336 581,342 581,334 582,330 583,324 583,337 584,349 585,347 585,329 586,342 586,360 587,369 588,331 588,304 589,309 590,296 590,308 591,336 591,343 592,353 593,362 593,348 594,347 595,366 595,359 596,363 596,322 597,321 598,338 598,335 599,352 600,361 600,370 601,365 601,359 602,354 603,349 603,351 604,341 605,339 605,337 606,319 606,286 607,278 608,290 608,285 609,276 610,280 610,268 611,254 611,273 612,296 613,310 613,291 614,286 615,302 615,294 616,289 616,288 617,250 618,253 618,294 619,295 620,287 620,278 621,287 621,280 622,314 623,321 623,284 624,267 625,310 625,322 626,311 626,333 627,339 628,339 628,345 629,321 630,331 630,353 631,353 631,318 632,313 633,322 633,313 634,319 635,363 635,362 636,366 636,343 637,344 638,339 638,362 639,355 640,360 640,359 641,370 641,350 642,362 643,379 643,360 644,376 645,375 645,371 646,375 646,390 647,399 648,350 648,345 649,335 650,333 650,328 651,314 651,296 652,287 653,293 653,300 654,293 655,296 655,297 656,284 656,291 657,289 658,299 658,297 659,299 660,292 660,283 661,283 661,292 662,313 663,310 663,288 664,280 665,266 665,265 666,268 666,269 667,271 668,268 668,275 669,273 670,263 670,262 671,272 671,259 672,252 673,260 673,260 674,265 675,249 675,251 676,235 676,253 677,255 678,251 678,269 679,286 680,282 680,266 681,262 681,241 682,248 683,245 683,242 684,240 685,246 685,233 686,212 686,171 687,175 688,194 688,185 689,178 689,204 690,190 691,181 691,181 692,186 693,171 693,177 694,192 694,165 695,160 696,175 696,205 697,185 698,194 698,229 699,264 699,312 700,378 701,429 701,518 702,598 702,699 973,699 973,699 78,699 "/>
<polyline fill="none" opacity="1" stroke="#E6194B" stroke-width="1" points="78,695 78,677 79,670 79,647 80,647 81,644 81,637 82,647 82,653 83,659 84,668 84,662 85,658 86,665 86,672 87,675 87,662 88,665 89,612 89,598 90,616 91,602 91,571 92,579 92,600 93,605 94,591 94,602 95,603 96,624 96,629 97,632 97,645 98,638 99,645 99,645 100,653 101,657 101,646 102,647 102,679 103,670 104,655 104,650 105,652 106,647 106,646 107,646 107,650 108,650 109,634 109,621 110,608 111,597 111,580 112,585 112,609 113,605 114,629 114,641 115,628 116,617 116,601 117,586 117,575 118,538 119,531 119,522 120,556 121,587 121,592 122,601 122,608 123,611 124,604 124,597 125,574 126,556 126,538 127,531 127,526 128,529 129,526 129,524 130,529 131,549 131,559 132,557 132,556 133,543 134,533 134,524 135,524 136,525 136,540 137,536 137,517 138,501 139,480 139,471 140,469 141,474 141,471 142,447 142,437 143,433 144,417 144,405 145,409 146,417 146,395 147,378 147,358 148,354 149,344 149,345 150,312 151,299 151,300 152,298 152,328 153,310 154,312 154,298 155,292 156,299 156,303 157,309 157,304 158,276 159,280 159,268 160,256 161,257 161,274 162,293 162,292 163,288 164,262 164,257 165,246 166,248 166,239 167,242 167,216 168,209 169,189 169,210 170,203 171,205 171,220 172,234 172,239 173,232 174,239 174,238 175,233 176,201 176,183 177,190 177,186 178,184 179,191 179,199 180,189 181,204 181,193 182,181 182,175 183,166 184,190 184,183 185,213 186,235 186,227 187,229 187,230 188,213 189,183 189,181 190,186 191,168 191,172 192,192 192,195 193,183 194,168 194,173 195,191 196,188 196,190 197,179 197,157 198,151 199,160 199,150 200,135 201,149 201,143 202,166 202,169 203,159 204,139 204,143 205,131 206,152 206,139 207,148 207,138 208,148 209,157 209,177 210,183 211,196 211,214 212,222 212,220 213,186 214,189 214,176 215,157 216,141 216,167 217,219 217,237 218,237 219,250 219,206 220,214 221,245 221,246 222,230 222,241 223,244 224,235 224,220 225,176 226,167 226,175 227,191 227,183 228,180 229,194 229,206 230,220 230,229 231,243 232,217 232,214 233,220 234,209 234,210 235,213 235,237 236,244 237,236 237,222 238,238 239,244 239,235 240,243 240,248 241,248 242,242 242,222 243,225 244,223 244,202 245,191 245,198 246,229 247,220 247,215 248,242 249,233 249,231 250,283 250,250 251,260 252,261 252,261 253,247 254,255 254,257 255,254 255,252 256,230 257,222 257,211 258,238 259,234 259,234 260,254 260,233 261,215 262,200 262,201 263,223 264,214 264,218 265,232 265,239 266,219 267,193 267,187 268,192 269,207 269,202 270,193 270,208 271,208 272,208 272,193 273,185 274,176 274,167 275,176 275,176 276,187 277,177 277,162 278,174 279,169 279,175 280,173 280,193 281,200 282,185 282,196 283,196 284,158 284,152 285,159 285,156 286,156 287,176 287,187 288,173 289,164 289,174 290,191 290,187 291,209 292,194 292,218 293,229 294,238 294,242 295,216 295,211 296,207 297,203 297,184 298,171 299,183 299,182 300,189 300,193 301,191 302,158 302,154 303,176 304,182 304,181 305,191 305,214 306,208 307,214 307,232 308,232 309,234 309,240 310,252 310,255 311,242 312,244 312,232 313,219 314,210 314,225 315,212 315,224 316,220 317,223 317,226 318,224 319,215 319,180 320,171 320,155 321,156 322,153 322,145 323,130 324,135 324,151 325,145 325,139 326,128 327,99 327,93 328,73 329,68 329,103 330,113 330,124 331,129 332,124 332,132 333,137 334,120 334,116 335,123 335,105 336,90 337,105 337,111 338,125 339,130 339,144 340,125 340,117 341,111 342,137 342,135 343,141 344,144 344,154 345,161 345,158 346,172 347,185 347,188 348,204 349,212 349,216 350,250 350,240 351,229 352,224 352,227 353,236 354,240 354,244 355,261 355,271 356,258 357,277 357,285 358,321 359,310 359,298 360,314 360,338 361,329 362,309 362,314 363,321 364,335 364,327 365,324 365,326 366,319 367,295 367,284 368,290 369,284 369,294 370,306 370,319 371,317 372,302 372,303 373,298 374,280 374,273 375,291 375,279 376,290 377,303 377,304 378,317 379,307 379,307 380,298 380,289 381,298 382,268 382,253 383,251 383,247 384,264 385,287 385,274 386,260 387,276 387,273 388,278 388,277 389,282 390,259 390,242 391,226 392,219 392,216 393,199 393,183 394,190 395,217 395,223 396,253 397,276 397,279 398,300 398,338 399,312 400,308 400,316 401,280 402,271 402,281 403,340 403,338 404,334 405,315 405,327 406,315 407,289 407,273 408,264 408,278 409,275 410,295 410,298 411,292 412,292 412,289 413,303 413,338 414,335 415,327 415,319 416,313 417,313 417,317 418,334 418,324 419,323 420,345 420,346 421,344 422,330 422,345 423,366 423,368 424,367 425,374 425,347 426,354 427,356 427,329 428,348 428,355 429,336 430,354 430,354 431,371 432,366 432,325 433,316 433,311 434,339 435,305 435,280 436,276 437,253 437,262 438,272 438,241 439,233 440,232 440,242 441,269 442,244 442,242 443,245 443,240 444,262 445,260 445,250 446,238 447,229 447,219 448,229 448,217 449,228 450,248 450,251 451,261 452,263 452,255 453,263 453,269 454,277 455,299 455,282 456,264 457,279 457,237 458,226 458,227 459,225 460,227 460,231 461,213 462,199 462,201 463,212 463,195 464,206 465,206 465,209 466,236 467,227 467,200 468,206 468,179 469,183 470,211 470,192 471,197 472,202 472,166 473,178 473,174 474,186 475,201 475,222 476,213 477,199 477,179 478,190 478,178 479,180 480,179 480,201 481,235 482,229 482,236 483,236 483,248 484,255 485,250 485,262 486,263 487,268 487,269 488,256 488,249 489,275 490,269 490,267 491,285 492,281 492,273 493,249 493,245 494,283 495,258 495,265 496,273 497,258 497,254 498,249 498,274 499,278 500,264 500,260 501,257 502,264 502,300 503,292 503,282 504,278 505,296 505,267 506,256 507,263 507,290 508,276 508,257 509,251 510,260 510,260 511,235 512,237 512,246 513,244 513,247 514,241 515,240 515,265 516,264 517,256 517,246 518,244 518,242 519,278 520,248 520,236 521,250 522,258 522,245 523,274 523,278 524,255 525,255 525,252 526,273 527,283 527,298 528,337 528,329 529,331 530,311 530,334 531,319 532,316 532,324 533,325 533,324 534,339 535,348 535,347 536,357 536,381 537,385 538,400 538,370 539,369 540,361 540,360 541,358 541,350 542,364 543,366 543,369 544,371 545,351 545,362 546,373 546,388 547,363 548,352 548,352 549,354 550,367 550,375 551,373 551,413 552,422 553,422 553,448 554,447 555,409 555,400 556,400 556,413 557,409 558,408 558,409 559,420 560,414 560,408 561,392 561,383 562,386 563,413 563,421 564,415 565,406 565,407 566,429 566,415 567,438 568,426 568,422 569,412 570,401 570,395 571,408 571,415 572,419 573,387 573,372 574,369 575,362 575,386 576,384 576,369 577,352 578,346 578,325 579,312 580,323 580,336 581,342 581,334 582,330 583,324 583,337 584,349 585,347 585,329 586,342 586,360 587,369 588,331 588,304 589,309 590,296 590,308 591,336 591,343 592,353 593,362 593,348 594,347 595,366 595,359 596,363 596,322 597,321 598,338 598,335 599,352 600,361 600,370 601,365 601,359 602,354 603,349 603,351 604,341 605,339 605,337 606,319 606,286 607,278 608,290 608,285 609,276 610,280 610,268 611,254 611,273 612,296 613,310 613,291 614,286 615,302 615,294 616,289 616,288 617,250 618,253 618,294 619,295 620,287 620,278 621,287 621,280 622,314 623,321 623,284 624,267 625,310 625,322 626,311 626,333 627,339 628,339 628,345 629,321 630,331 630,353 631,353 631,318 632,313 633,322 633,313 634,319 635,363 635,362 636,366 636,343 637,344 638,339 638,362 639,355 640,360 640,359 641,370 641,350 642,362 643,379 643,360 644,376 645,375 645,371 646,375 646,390 647,399 648,350 648,345 649,335 650,333 650,328 651,314 651,296 652,287 653,293 653,300 654,293 655,296 655,297 656,284 656,291 657,289 658,299 658,297 659,299 660,292 660,283 661,283 661,292 662,313 663,310 663,288 664,280 665,266 665,265 666,268 666,269 667,271 668,268 668,275 669,273 670,263 670,262 671,272 671,259 672,252 673,260 673,260 674,265 675,249 675,251 676,235 676,253 677,255 678,251 678,269 679,286 680,282 680,266 681,262 681,241 682,248 683,245 683,242 684,240 685,246 685,233 686,212 686,171 687,175 688,194 688,185 689,178 689,204 690,190 691,181 691,181 692,186 693,171 693,177 694,192 694,165 695,160 696,175 696,205 697,185 698,194 698,229 699,264 699,312 700,378 701,429 701,518 702,598 702,699 973,699 "/>
<line opacity="0.1" stroke="#000000" stroke-width="1" x1="78" y1="699" x2="78" y2="68"/>
<line opacity="0.1" stroke="#000000" stroke-width="1" x1="87" y1="699" x2="87" y2="68"/>
<line opacity="0.1" stroke="#000000" stroke-width="1" x1="96" y1="699" x2="96" y2="68"/>
<line opacity="0.1" stroke="#000000" stroke-width="1" x1="105" y1="699" x2="105" y2="68"/>
<line opacity="0.1" stroke="#000000" stroke-width="1" x1="114" y1="699" x2="114" y2="68"/>
<line opacity="0.1" stroke="#000000" stroke-width="1" x1="123" y1="699" x2="123" y2="68"/>
<line opacity="0.1" stroke="#000000" stroke-width="1" x1="132" y1="699" x2="132" y2="68"/>
<line opacity="0.1" stroke="#000000" stroke-width="1" x1="141" y1="699" x2="141" y2="68"/>
<line opacity="0.1" stroke="#000000" stroke-width="1" x1="150" y1="699" x2="150" y2="68"/>
<line opacity="0.1" stroke="#000000" stroke-width="1" x1="159" y1="699" x2="159" y2="68"/>
<line opacity="0.1" stroke="#000000" stroke-width="1" x1="168" y1="699" x2="168" y2="68"/>
<line opacity="0.1" stroke="#000000" stroke-width="1" x1="177" y1="699" x2="177" y2="68"/>
<line opacity="0.1" stroke="#000000" stroke-width="1" x1="186" y1="699" x2="186" y2="68"/>
<line opacity="0.1" stroke="#000000" stroke-width="1" x1="194" y1="699" x2="194" y2="68"/>
<line opacity="0.1" stroke="#000000" stroke-width="1" x1="203" y1="699" x2="203" y2="68"/>
<line opacity="0.1" stroke="#000000" stroke-width="1" x1="212" y1="699" x2="212" y2="68"/>
<line opacity="0.1" stroke="#000000" stroke-width="1" x1="221" y1="699" x2="221" y2="68"/>
<line opacity="0.1" stroke="#000000" stroke-width="1" x1="230" y1="699" x2="230" y2="68"/>
<line opacity="0.1" stroke="#000000" stroke-width="1" x1="239" y1="699" x2="239" y2="68"/>
<line opacity="0.1" stroke="#000000" stroke-width="1" x1="248" y1="699" x2="248" y2="68"/>
<line opacity="0.1" stroke="#000000" stroke-width="1" x1="257" y1="699" x2="257" y2="68"/>
<line opacity="0.1" stroke="#000000" stroke-width="1" x1="266" y1="699" x2="266" y2="68"/>
<line opacity="0.1" stroke="#000000" stroke-width="1" x1="275" y1="699" x2="275" y2="68"/>
<line opacity="0.1" stroke="#000000" stroke-width="1" x1="284" y1="699" x2="284" y2="68"/>
<line opacity="0.1" stroke="#000000" stroke-width="1" x1="293" y1="699" x2="293" y2="68"/>
<line opacity="0.1" stroke="#000000" stroke-width="1" x1="302" y1="699" x2="302" y2="68"/>
<line opacity="0.1" stroke="#000000" stroke-width="1" x1="311" y1="699" x2="311" y2="68"/>
<line opacity="0.1" stroke="#000000" stroke-width="1" x1="320" y1="699" x2="320" y2="68"/>
<line opacity="0.1" stroke="#000000" stroke-width="1" x1="329" y1="699" x2="329" y2="68"/>
<line opacity="0.1" stroke="#000000" stroke-width="1" x1="338" y1="699" x2="338" y2="68"/>
<line opacity="0.1" stroke="#000000" stroke-width="1" x1="347" y1="699" x2="347" y2="68"/>
<line opacity="0.1" stroke="#000000" stroke-width="1" x1="355" y1="699" x2="355" y2="68"/>
<line opacity="0.1" stroke="#000000" stroke-width="1" x1="364" y1="699" x2="364" y2="68"/>
<line opacity="0.1" stroke="#000000" stroke-width="1" x1="373" y1="699" x2="373" y2="68"/>
<line opacity="0.1" stroke="#000000" stroke-width="1" x1="382" y1="699" x2="382" y2="68"/>
<line opacity="0.1" stroke="#000000" stroke-width="1" x1="391" y1="699" x2="391" y2="68"/>
<line opacity="0.1" stroke="#000000" stroke-width="1" x1="400" y1="699" x2="400" y2="68"/>
<line opacity="0.1" stroke="#000000" stroke-width="1" x1="409" y1="699" x2="409" y2="68"/>
<line opacity="0.1" stroke="#000000" stroke-width="1" x1="418" y1="699" x2="418" y2="68"/>
<line opacity="0.1" stroke="#000000" stroke-width="1" x1="427" y1="699" x2="427" y2="68"/>
<line opacity="0.1" stroke="#000000" stroke-width="1" x1="436" y1="699" x2="436" y2="68"/>
<line opacity="0.1" stroke="#000000" stroke-width="1" x1="445" y1="699" x2="445" y2="68"/>
<line opacity="0.1" stroke="#000000" stroke-width="1" x1="454" y1="699" x2="454" y2="68"/>
<line opacity="0.1" stroke="#000000" stroke-width="1" x1="463" y1="699" x2="463" y2="68"/>
<line opacity="0.1" stroke="#000000" stroke-width="1" x1="472" y1="699" x2="472" y2="68"/>
<line opacity="0.1" stroke="#000000" stroke-width="1" x1="481" y1="699" x2="481" y2="68"/>
<line opacity="0.1" stroke="#000000" stroke-width="1" x1="490" y1="699" x2="490" y2="68"/>
<line opacity="0.1" stroke="#000000" stroke-width="1" x1="499" y1="699" x2="499" y2="68"/>
<line opacity="0.1" stroke="#000000" stroke-width="1" x1="507" y1="699" x2="507" y2="68"/>
<line opacity="0.1" stroke="#000000" stroke-width="1" x1="516" y1="699" x2="516" y2="68"/>
<line opacity="0.1" stroke="#000000" stroke-width="1" x1="525" y1="699" x2="525" y2="68"/>
<line opacity="0.1" stroke="#000000" stroke-width="1" x1="534" y1="699" x2="534" y2="68"/>
<line opacity="0.1" stroke="#000000" stroke-width="1" x1="543" y1="699" x2="543" y2="68"/>
<line opacity="0.1" stroke="#000000" stroke-width="1" x1="552" y1="699" x2="552" y2="68"/>
<line opacity="0.1" stroke="#000000" stroke-width="1" x1="561" y1="699" x2="561" y2="68"/>
<line opacity="0.1" stroke="#000000" stroke-width="1" x1="570" y1="699" x2="570" y2="68"/>
<line opacity="0.1" stroke="#000000" stroke-width="1" x1="579" y1="699" x2="579" y2="68"/>
<line opacity="0.1" stroke="#000000" stroke-width="1" x1="588" y1="699" x2="588" y2="68"/>
<line opacity="0.1" stroke="#000000" stroke-width="1" x1="597" y1="699" x2="597" y2="68"/>
<line opacity="0.1" stroke="#000000" stroke-width="1" x1="606" y1="699" x2="606" y2="68"/>
<line opacity="0.1" stroke="#000000" stroke-width="1" x1="615" y1="699" x2="615" y2="68"/>
<line opacity="0.1" stroke="#000000" stroke-width="1" x1="624" y1="699" x2="624" y2="68"/>
<line opacity="0.1" stroke="#000000" stroke-width="1" x1="633" y1="699" x2="633" y2="68"/>
<line opacity="0.1" stroke="#000000" stroke-width="1" x1="642" y1="699" x2="642" y2="68"/>
<line opacity="0.1" stroke="#000000" stroke-width="1" x1="651" y1="699" x2="651" y2="68"/>
<line opacity="0.1" stroke="#000000" stroke-width="1" x1="660" y1="699" x2="660" y2="68"/>
<line opacity="0.1" stroke="#000000" stroke-width="1" x1="668" y1="699" x2="668" y2="68"/>
<line opacity="0.1" stroke="#000000" stroke-width="1" x1="677" y1="699" x2="677" y2="68"/>
<line opacity="0.1" stroke="#000000" stroke-width="1" x1="686" y1="699" x2="686" y2="68"/>
<line opacity="0.1" stroke="#000000" stroke-width="1" x1="695" y1="699" x2="695" y2="68"/>
<line opacity="0.1" stroke="#000000" stroke-width="1" x1="704" y1="699" x2="704" y2="68"/>
<line opacity="0.1" stroke="#000000" stroke-width="1" x1="713" y1="699" x2="713" y2="68"/>
<line opacity="0.1" stroke="#000000" stroke-width="1" x1="722" y1="699" x2="722" y2="68"/>
<line opacity="0.1" stroke="#000000" stroke-width="1" x1="731" y1="699" x2="731" y2="68"/>
<line opacity="0.1" stroke="#000000" stroke-width="1" x1="740" y1="699" x2="740" y2="68"/>
<line opacity="0.1" stroke="#000000" stroke-width="1" x1="749" y1="699" x2="749" y2="68"/>
<line opacity="0.1" stroke="#000000" stroke-width="1" x1="758" y1="699" x2="758" y2="68"/>
<line opacity="0.1" stroke="#000000" stroke-width="1" x1="767" y1="699" x2="767" y2="68"/>
<line opacity="0.1" stroke="#000000" stroke-width="1" x1="776" y1="699" x2="776" y2="68"/>
<line opacity="0.1" stroke="#000000" stroke-width="1" x1="785" y1="699" x2="785" y2="68"/>
<line opacity="0.1" stroke="#000000" stroke-width="1" x1="794" y1="699" x2="794" y2="68"/>
<line opacity="0.1" stroke="#000000" stroke-width="1" x1="803" y1="699" x2="803" y2="68"/>
<line opacity="0.1" stroke="#000000" stroke-width="1" x1="812" y1="699" x2="812" y2="68"/>
<line opacity="0.1" stroke="#000000" stroke-width="1" x1="820" y1="699" x2="820" y2="68"/>
<line opacity="0.1" stroke="#000000" stroke-width="1" x1="829" y1="699" x2="829" y2="68"/>
<line opacity="0.1" stroke="#000000" stroke-width="1" x1="838" y1="699" x2="838" y2="68"/>
<line opacity="0.1" stroke="#000000" stroke-width="1" x1="847" y1="699" x2="847" y2="68"/>
<line opacity="0.1" stroke="#000000" stroke-width="1" x1="856" y1="699" x2="856" y2="68"/>
<line opacity="0.1" stroke="#000000" stroke-width="1" x1="865" y1="699" x2="865" y2="68"/>
<line opacity="0.1" stroke="#000000" stroke-width="1" x1="874" y1="699" x2="874" y2="68"/>
<line opacity="0.1" stroke="#000000" stroke-width="1" x1="883" y1="699" x2="883" y2="68"/>
<line opacity="0.1" stroke="#000000" stroke-width="1" x1="892" y1="699" x2="892" y2="68"/>
<line opacity="0.1" stroke="#000000" stroke-width="1" x1="901" y1="699" x2="901" y2="68"/>
<line opacity="0.1" stroke="#000000" stroke-width="1" x1="910" y1="699" x2="910" y2="68"/>
<line opacity="0.1" stroke="#000000" stroke-width="1" x1="919" y1="699" x2="919" y2="68"/>
<line opacity="0.1" stroke="#000000" stroke-width="1" x1="928" y1="699" x2="928" y2="68"/>
<line opacity="0.1" stroke="#000000" stroke-width="1" x1="937" y1="699" x2="937" y2="68"/>
<line opacity="0.1" stroke="#000000" stroke-width="1" x1="946" y1="699" x2="946" y2="68"/>
<line opacity="0.1" stroke="#000000" stroke-width="1" x1="955" y1="699" x2="955" y2="68"/>
<line opacity="0.1" stroke="#000000" stroke-width="1" x1="964" y1="699" x2="964" y2="68"/>
<line opacity="0.1" stroke="#000000" stroke-width="1" x1="78" y1="699" x2="973" y2="699"/>
<line opacity="0.1" stroke="#000000" stroke-width="1" x1="78" y1="690" x2="973" y2="690"/>
<line opacity="0.1" stroke="#000000" stroke-width="1" x1="78" y1="681" x2="973" y2="681"/>
<line opacity="0.1" stroke="#000000" stroke-width="1" x1="78" y1="672" x2="973" y2="672"/>
<line opacity="0.1" stroke="#000000" stroke-width="1" x1="78" y1="663" x2="973" y2="663"/>
<line opacity="0.1" stroke="#000000" stroke-width="1" x1="78" y1="654" x2="973" y2="654"/>
<line opacity="0.1" stroke="#000000" stroke-width="1" x1="78" y1="645" x2="973" y2="645"/>
<line opacity="0.1" stroke="#000000" stroke-width="1" x1="78" y1="636" x2="973" y2="636"/>
<line opacity="0.1" stroke="#000000" stroke-width="1" x1="78" y1="627" x2="973" y2="627"/>
<line opacity="0.1" stroke="#000000" stroke-width="1" x1="78" y1="619" x2="973" y2="619"/>
<line opacity="0.1" stroke="#000000" stroke-width="1" x1="78" y1="610" x2="973" y2="610"/>
<line opacity="0.1" stroke="#000000" stroke-width="1" x1="78" y1="601" x2="973" y2="601"/>
<line opacity="0.1" stroke="#000000" stroke-width="1" x1="78" y1="592" x2="973" y2="592"/>
<line opacity="0.1" stroke="#000000" stroke-width="1" x1="78" y1="583" x2="973" y2="583"/>
<line opacity="0.1" stroke="#000000" stroke-width="1" x1="78" y1="574" x2="973" y2="574"/>
<line opacity="0.1" stroke="#000000" stroke-width="1" x1="78" y1="565" x2="973" y2="565"/>
<line opacity="0.1" stroke="#000000" stroke-width="1" x1="78" y1="556" x2="973" y2="556"/>
<line opacity="0.1" stroke="#000000" stroke-width="1" x1="78" y1="547" x2="973" y2="547"/>
<line opacity="0.1" stroke="#000000" stroke-width="1" x1="78" y1="539" x2="973" y2="539"/>
<line opacity="0.1" stroke="#000000" stroke-width="1" x1="78" y1="530" x2="973" y2="530"/>
<line opacity="0.1" stroke="#000000" stroke-width="1" x1="78" y1="521" x2="973" y2="521"/>
<line opacity="0.1" stroke="#000000" stroke-width="1" x1="78" y1="512" x2="973" y2="512"/>
<line opacity="0.1" stroke="#000000" stroke-width="1" x1="78" y1="503" x2="973" y2="503"/>
<line opacity="0.1" stroke="#000000" stroke-width="1" x1="78" y1="494" x2="973" y2="494"/>
<line opacity="0.1" stroke="#000000" stroke-width="1" x1="78" y1="485" x2="973" y2="485"/>
<line opacity="0.1" stroke="#000000" stroke-width="1" x1="78" y1="476" x2="973" y2="476"/>
<line opacity="0.1" stroke="#000000" stroke-width="1" x1="78" y1="468" x2="973" y2="468"/>
<line opacity="0.1" stroke="#000000" stroke-width="1" x1="78" y1="459" x2="973" y2="459"/>
<line opacity="0.1" stroke="#000000" stroke-width="1" x1="78" y1="450" x2="973" y2="450"/>
<line opacity="0.1" stroke="#000000" stroke-width="1" x1="78" y1="441" x2="973" y2="441"/>
<line opacity="0.1" stroke="#000000" stroke-width="1" x1="78" y1="432" x2="973" y2="432"/>
<line opacity="0.1" stroke="#000000" stroke-width="1" x1="78" y1="423" x2="973" y2="423"/>
<line opacity="0.1" stroke="#000000" stroke-width="1" x1="78" y1="414" x2="973" y2="414"/>
<line opacity="0.1" stroke="#000000" stroke-width="1" x1="78" y1="405" x2="973" y2="405"/>
<line opacity="0.1" stroke="#000000" stroke-width="1" x1="78" y1="396" x2="973" y2="396"/>
<line opacity="0.1" stroke="#000000" stroke-width="1" x1="78" y1="388" x2="973" y2="388"/>
<line opacity="0.1" stroke="#000000" stroke-width="1" x1="78" y1="379" x2="973" y2="379"/>
<line opacity="0.1" stroke="#000000" stroke-width="1" x1="78" y1="370" x2="973" y2="370"/>
<line opacity="0.1" stroke="#000000" stroke-width="1" x1="78" y1="361" x2="973" y2="361"/>
<line opacity="0.1" stroke="#000000" stroke-width="1" x1="78" y1="352" x2="973" y2="352"/>
<line opacity="0.1" stroke="#000000" stroke-width="1" x1="78" y1="343" x2="973" y2="343"/>
<line opacity="0.1" stroke="#000000" stroke-width="1" x1="78" y1="334" x2="973" y2="334"/>
<line opacity="0.1" stroke="#000000" stroke-width="1" x1="78" y1="325" x2="973" y2="325"/>
<line opacity="0.1" stroke="#000000" stroke-width="1" x1="78" y1="317" x2="973" y2="317"/>
<line opacity="0.1" stroke="#000000" stroke-width="1" x1="78" y1="308" x2="973" y2="308"/>
<line opacity="0.1" stroke="#000000" stroke-width="1" x1="78" y1="299" x2="973" y2="299"/>
<line opacity="0.1" stroke="#000000" stroke-width="1" x1="78" y1="290" x2="973" y2="290"/>
<line opacity="0.1" stroke="#000000" stroke-width="1" x1="78" y1="281" x2="973" y2="281"/>
<line opacity="0.1" stroke="#000000" stroke-width="1" x1="78" y1="272" x2="973" y2="272"/>
<line opacity="0.1" stroke="#000000" stroke-width="1" x1="78" y1="263" x2="973" y2="263"/>
<line opacity="0.1" stroke="#000000" stroke-width="1" x1="78" y1="254" x2="973" y2="254"/>
<line opacity="0.1" stroke="#000000" stroke-width="1" x1="78" y1="245" x2="973" y2="245"/>
<line opacity="0.1" stroke="#000000" stroke-width="1" x1="78" y1="237" x2="973" y2="237"/>
<line opacity="0.1" stroke="#000000" stroke-width="1" x1="78" y1="228" x2="973" y2="228"/>
<line opacity="0.1" stroke="#000000" stroke-width="1" x1="78" y1="219" x2="973" y2="219"/>
<line opacity="0.1" stroke="#000000" stroke-width="1" x1="78" y1="210" x2="973" y2="210"/>
<line opacity="0.1" stroke="#000000" stroke-width="1" x1="78" y1="201" x2="973" y2="201"/>
<line opacity="0.1" stroke="#000000" stroke-width="1" x1="78" y1="192" x2="973" y2="192"/>
<line opacity="0.1" stroke="#000000" stroke-width="1" x1="78" y1="183" x2="973" y2="183"/>
<line opacity="0.1" stroke="#000000" stroke-width="1" x1="78" y1="174" x2="973" y2="174"/>
<line opacity="0.1" stroke="#000000" stroke-width="1" x1="78" y1="166" x2="973" y2="166"/>
<line opacity="0.1" stroke="#000000" stroke-width="1" x1="78" y1="157" x2="973" y2="157"/>
<line opacity="0.1" stroke="#000000" stroke-width="1" x1="78" y1="148" x2="973" y2="148"/>
<line opacity="0.1" stroke="#000000" stroke-width="1" x1="78" y1="139" x2="973" y2="139"/>
<line opacity="0.1" stroke="#000000" stroke-width="1" x1="78" y1="130" x2="973" y2="130"/>
<line opacity="0.1" stroke="#000000" stroke-width="1" x1="78" y1="121" x2="973" y2="121"/>
<line opacity="0.1" stroke="#000000" stroke-width="1" x1="78" y1="112" x2="973" y2="112"/>
<line opacity="0.1" stroke="#000000" stroke-width="1" x1="78" y1="103" x2="973" y2="103"/>
<line opacity="0.1" stroke="#000000" stroke-width="1" x1="78" y1="94" x2="973" y2="94"/>
<line opacity="0.1" stroke="#000000" stroke-width="1" x1="78" y1="86" x2="973" y2="86"/>
<line opacity="0.1" stroke="#000000" stroke-width="1" x1="78" y1="77" x2="973" y2="77"/>
<line opacity="0.1" stroke="#000000" stroke-width="1" x1="78" y1="68" x2="973" y2="68"/>
<text x="8" y="384" dy="0.76em" text-anchor="middle" font-family="sans-serif" font-size="9.67741935483871" opacity="1" fill="#000000" transform="rotate(270, 8, 384)">
Memory usage
</text>
<text x="526" y="760" dy="-0.5ex" text-anchor="middle" font-family="sans-serif" font-size="9.67741935483871" opacity="1" fill="#000000">
Time
</text>
<line opacity="0.2" stroke="#000000" stroke-width="1" x1="96" y1="699" x2="96" y2="68"/>
<line opacity="0.2" stroke="#000000" stroke-width="1" x1="186" y1="699" x2="186" y2="68"/>
<line opacity="0.2" stroke="#000000" stroke-width="1" x1="275" y1="699" x2="275" y2="68"/>
<line opacity="0.2" stroke="#000000" stroke-width="1" x1="364" y1="699" x2="364" y2="68"/>
<line opacity="0.2" stroke="#000000" stroke-width="1" x1="454" y1="699" x2="454" y2="68"/>
<line opacity="0.2" stroke="#000000" stroke-width="1" x1="543" y1="699" x2="543" y2="68"/>
<line opacity="0.2" stroke="#000000" stroke-width="1" x1="633" y1="699" x2="633" y2="68"/>
<line opacity="0.2" stroke="#000000" stroke-width="1" x1="722" y1="699" x2="722" y2="68"/>
<line opacity="0.2" stroke="#000000" stroke-width="1" x1="812" y1="699" x2="812" y2="68"/>
<line opacity="0.2" stroke="#000000" stroke-width="1" x1="901" y1="699" x2="901" y2="68"/>
<line opacity="0.2" stroke="#000000" stroke-width="1" x1="78" y1="699" x2="973" y2="699"/>
<line opacity="0.2" stroke="#000000" stroke-width="1" x1="78" y1="610" x2="973" y2="610"/>
<line opacity="0.2" stroke="#000000" stroke-width="1" x1="78" y1="521" x2="973" y2="521"/>
<line opacity="0.2" stroke="#000000" stroke-width="1" x1="78" y1="432" x2="973" y2="432"/>
<line opacity="0.2" stroke="#000000" stroke-width="1" x1="78" y1="343" x2="973" y2="343"/>
<line opacity="0.2" stroke="#000000" stroke-width="1" x1="78" y1="254" x2="973" y2="254"/>
<line opacity="0.2" stroke="#000000" stroke-width="1" x1="78" y1="166" x2="973" y2="166"/>
<line opacity="0.2" stroke="#000000" stroke-width="1" x1="78" y1="77" x2="973" y2="77"/>
<polyline fill="none" opacity="1" stroke="#000000" stroke-width="1" points="77,68 77,699 "/>
<text x="68" y="699" dy="0.5ex" text-anchor="end" font-family="sans-serif" font-size="9.67741935483871" opacity="1" fill="#000000">
0 KB
</text>
<polyline fill="none" opacity="1" stroke="#000000" stroke-width="1" points="72,699 77,699 "/>
<text x="68" y="610" dy="0.5ex" text-anchor="end" font-family="sans-serif" font-size="9.67741935483871" opacity="1" fill="#000000">
48 KB
</text>
<polyline fill="none" opacity="1" stroke="#000000" stroke-width="1" points="72,610 77,610 "/>
<text x="68" y="521" dy="0.5ex" text-anchor="end" font-family="sans-serif" font-size="9.67741935483871" opacity="1" fill="#000000">
97 KB
</text>
<polyline fill="none" opacity="1" stroke="#000000" stroke-width="1" points="72,521 77,521 "/>
<text x="68" y="432" dy="0.5ex" text-anchor="end" font-family="sans-serif" font-size="9.67741935483871" opacity="1" fill="#000000">
146 KB
</text>
<polyline fill="none" opacity="1" stroke="#000000" stroke-width="1" points="72,432 77,432 "/>
<text x="68" y="343" dy="0.5ex" text-anchor="end" font-family="sans-serif" font-size="9.67741935483871" opacity="1" fill="#000000">
195 KB
</text>
<polyline fill="none" opacity="1" stroke="#000000" stroke-width="1" points="72,343 77,343 "/>
<text x="68" y="254" dy="0.5ex" text-anchor="end" font-family="sans-serif" font-size="9.67741935483871" opacity="1" fill="#000000">
244 KB
</text>
<polyline fill="none" opacity="1" stroke="#000000" stroke-width="1" points="72,254 77,254 "/>
<text x="68" y="166" dy="0.5ex" text-anchor="end" font-family="sans-serif" font-size="9.67741935483871" opacity="1" fill="#000000">
292 KB
</text>
<polyline fill="none" opacity="1" stroke="#000000" stroke-width="1" points="72,166 77,166 "/>
<text x="68" y="77" dy="0.5ex" text-anchor="end" font-family="sans-serif" font-size="9.67741935483871" opacity="1" fill="#000000">
341 KB
</text>
<polyline fill="none" opacity="1" stroke="#000000" stroke-width="1" points="72,77 77,77 "/>
<polyline fill="none" opacity="1" stroke="#000000" stroke-width="1" points="78,700 973,700 "/>
<text x="96" y="710" dy="0.76em" text-anchor="middle" font-family="sans-serif" font-size="9.67741935483871" opacity="1" fill="#000000">
02:04:17
</text>
<polyline fill="none" opacity="1" stroke="#000000" stroke-width="1" points="96,700 96,705 "/>
<text x="186" y="710" dy="0.76em" text-anchor="middle" font-family="sans-serif" font-size="9.67741935483871" opacity="1" fill="#000000">
02:04:18
</text>
<polyline fill="none" opacity="1" stroke="#000000" stroke-width="1" points="186,700 186,705 "/>
<text x="275" y="710" dy="0.76em" text-anchor="middle" font-family="sans-serif" font-size="9.67741935483871" opacity="1" fill="#000000">
02:04:19
</text>
<polyline fill="none" opacity="1" stroke="#000000" stroke-width="1" points="275,700 275,705 "/>
<text x="364" y="710" dy="0.76em" text-anchor="middle" font-family="sans-serif" font-size="9.67741935483871" opacity="1" fill="#000000">
02:04:20
</text>
<polyline fill="none" opacity="1" stroke="#000000" stroke-width="1" points="364,700 364,705 "/>
<text x="454" y="710" dy="0.76em" text-anchor="middle" font-family="sans-serif" font-size="9.67741935483871" opacity="1" fill="#000000">
02:04:21
</text>
<polyline fill="none" opacity="1" stroke="#000000" stroke-width="1" points="454,700 454,705 "/>
<text x="543" y="710" dy="0.76em" text-anchor="middle" font-family="sans-serif" font-size="9.67741935483871" opacity="1" fill="#000000">
02:04:22
</text>
<polyline fill="none" opacity="1" stroke="#000000" stroke-width="1" points="543,700 543,705 "/>
<text x="633" y="710" dy="0.76em" text-anchor="middle" font-family="sans-serif" font-size="9.67741935483871" opacity="1" fill="#000000">
02:04:23
</text>
<polyline fill="none" opacity="1" stroke="#000000" stroke-width="1" points="633,700 633,705 "/>
<text x="722" y="710" dy="0.76em" text-anchor="middle" font-family="sans-serif" font-size="9.67741935483871" opacity="1" fill="#000000">
02:04:24
</text>
<polyline fill="none" opacity="1" stroke="#000000" stroke-width="1" points="722,700 722,705 "/>
<text x="812" y="710" dy="0.76em" text-anchor="middle" font-family="sans-serif" font-size="9.67741935483871" opacity="1" fill="#000000">
02:04:25
</text>
<polyline fill="none" opacity="1" stroke="#000000" stroke-width="1" points="812,700 812,705 "/>
<text x="901" y="710" dy="0.76em" text-anchor="middle" font-family="sans-serif" font-size="9.67741935483871" opacity="1" fill="#000000">
02:04:26
</text>
<polyline fill="none" opacity="1" stroke="#000000" stroke-width="1" points="901,700 901,705 "/>
<polyline fill="none" opacity="1" stroke="#000000" stroke-width="1" points="78,67 974,67 "/>
<text x="96" y="58" dy="-0.5ex" text-anchor="middle" font-family="sans-serif" font-size="9.67741935483871" opacity="1" fill="#000000">
+265ms
</text>
<polyline fill="none" opacity="1" stroke="#000000" stroke-width="1" points="96,62 96,67 "/>
<text x="186" y="58" dy="-0.5ex" text-anchor="middle" font-family="sans-serif" font-size="9.67741935483871" opacity="1" fill="#000000">
+1s
</text>
<polyline fill="none" opacity="1" stroke="#000000" stroke-width="1" points="186,62 186,67 "/>
<text x="275" y="58" dy="-0.5ex" text-anchor="middle" font-family="sans-serif" font-size="9.67741935483871" opacity="1" fill="#000000">
+2s
</text>
<polyline fill="none" opacity="1" stroke="#000000" stroke-width="1" points="275,62 275,67 "/>
<text x="365" y="58" dy="-0.5ex" text-anchor="middle" font-family="sans-serif" font-size="9.67741935483871" opacity="1" fill="#000000">
+3s
</text>
<polyline fill="none" opacity="1" stroke="#000000" stroke-width="1" points="365,62 365,67 "/>
<text x="454" y="58" dy="-0.5ex" text-anchor="middle" font-family="sans-serif" font-size="9.67741935483871" opacity="1" fill="#000000">
+4s
</text>
<polyline fill="none" opacity="1" stroke="#000000" stroke-width="1" points="454,62 454,67 "/>
<text x="544" y="58" dy="-0.5ex" text-anchor="middle" font-family="sans-serif" font-size="9.67741935483871" opacity="1" fill="#000000">
+5s
</text>
<polyline fill="none" opacity="1" stroke="#000000" stroke-width="1" points="544,62 544,67 "/>
<text x="633" y="58" dy="-0.5ex" text-anchor="middle" font-family="sans-serif" font-size="9.67741935483871" opacity="1" fill="#000000">
+6s
</text>
<polyline fill="none" opacity="1" stroke="#000000" stroke-width="1" points="633,62 633,67 "/>
<text x="723" y="58" dy="-0.5ex" text-anchor="middle" font-family="sans-serif" font-size="9.67741935483871" opacity="1" fill="#000000">
+7s
</text>
<polyline fill="none" opacity="1" stroke="#000000" stroke-width="1" points="723,62 723,67 "/>
<text x="812" y="58" dy="-0.5ex" text-anchor="middle" font-family="sans-serif" font-size="9.67741935483871" opacity="1" fill="#000000">
+8s
</text>
<polyline fill="none" opacity="1" stroke="#000000" stroke-width="1" points="812,62 812,67 "/>
<text x="902" y="58" dy="-0.5ex" text-anchor="middle" font-family="sans-serif" font-size="9.67741935483871" opacity="1" fill="#000000">
+9s
</text>
<polyline fill="none" opacity="1" stroke="#000000" stroke-width="1" points="902,62 902,67 "/>
</svg>
