<svg width="1024" height="768" viewBox="0 0 1024 768" xmlns="http://www.w3.org/2000/svg">
<rect x="0" y="0" width="1023" height="767" opacity="1" fill="#FFFFFF" stroke="none"/>
<polygon opacity="1" fill="#E6194B" points="78,687 78,669 79,669 79,666 80,631 80,604 81,612 81,619 82,604 82,603 83,572 83,581 84,589 84,610 85,612 85,595 86,607 86,606 87,637 87,635 88,636 89,647 89,642 90,656 90,658 91,661 91,657 92,648 92,654 93,680 93,663 94,657 94,654 95,653 95,646 96,649 96,651 97,658 97,645 98,634 99,623 99,601 100,590 100,584 101,592 101,610 102,608 102,632 103,640 103,625 104,617 104,605 105,580 105,558 106,533 106,522 107,561 107,586 108,598 108,604 109,612 110,614 110,608 111,605 111,578 112,562 112,547 113,541 113,528 114,529 114,529 115,525 115,526 116,550 116,559 117,561 117,559 118,540 118,533 119,528 120,523 120,530 121,544 121,525 122,512 122,482 123,472 123,465 124,465 124,471 125,467 125,438 126,439 126,435 127,411 127,407 128,413 128,399 129,382 129,354 130,351 131,344 131,346 132,326 132,296 133,294 133,290 134,318 134,329 135,308 135,306 136,285 136,295 137,304 137,311 138,296 138,283 139,268 139,268 140,256 141,257 141,248 142,281 142,294 143,285 143,269 144,258 144,241 145,259 145,238 146,233 146,216 147,207 147,183 148,186 148,198 149,201 149,206 150,227 150,233 151,228 152,233 152,241 153,228 153,201 154,185 154,177 155,179 155,180 156,187 156,191 157,182 157,199 158,184 158,173 159,170 159,158 160,184 160,175 161,208 162,227 162,227 163,223 163,225 164,210 164,173 165,173 165,183 166,167 166,166 167,185 167,192 168,179 168,168 169,169 169,183 170,181 170,186 171,176 171,149 172,151 173,153 173,142 174,130 174,144 175,142 175,157 176,156 176,149 177,130 177,133 178,128 178,139 179,130 179,138 180,139 180,142 181,158 181,169 182,177 183,192 183,211 184,217 184,216 185,184 185,184 186,170 186,148 187,135 187,162 188,214 188,234 189,233 189,229 190,208 190,218 191,245 191,243 192,226 192,239 193,231 194,237 194,216 195,176 195,166 196,164 196,174 197,186 197,179 198,178 198,178 199,183 199,196 200,201 200,220 201,234 201,235 202,231 202,210 203,222 204,216 204,202 205,205 205,208 206,219 206,233 207,245 207,227 208,215 208,234 209,246 209,239 210,233 210,243 211,243 211,245 212,246 212,239 213,216 213,224 214,231 215,207 215,184 216,188 216,203 217,227 217,219 218,211 218,213 219,240 219,229 220,229 220,264 221,267 221,246 222,273 222,266 223,260 223,244 224,253 225,256 225,262 226,258 226,253 227,239 227,232 228,218 228,209 229,235 229,237 230,232 230,228 231,249 231,255 232,227 232,199 233,199 233,198 234,216 234,227 235,214 236,219 236,229 237,239 237,237 238,201 238,189 239,184 239,192 240,218 240,200 241,199 241,190 242,209 242,211 243,207 243,206 244,192 244,183 245,173 246,166 246,163 247,171 247,177 248,182 248,173 249,174 249,157 250,168 250,166 251,170 251,169 252,182 252,194 253,198 253,179 254,181 254,195 255,195 256,155 256,156 257,156 257,159 258,151 258,152 259,171 259,179 260,184 260,175 261,162 261,172 262,172 262,189 263,185 263,205 264,189 264,199 265,228 265,232 266,237 267,241 267,222 268,208 268,219 269,203 269,201 270,197 270,178 271,166 271,176 272,182 272,185 273,194 273,190 274,179 274,154 275,151 275,171 276,176 277,188 277,176 278,192 278,216 279,210 279,209 280,213 280,233 281,229 281,229 282,237 282,247 283,254 283,252 284,258 284,239 285,244 285,235 286,224 286,206 287,211 288,224 288,213 289,214 289,231 290,218 290,223 291,231 291,225 292,218 292,193 293,176 293,168 294,153 294,157 295,155 295,144 296,138 296,126 297,137 298,148 298,162 299,144 299,136 300,129 300,93 301,97 301,90 302,68 302,69 303,105 303,113 304,124 304,131 305,124 305,128 306,133 306,131 307,140 307,116 308,111 309,133 309,116 310,90 310,86 311,100 311,124 312,120 312,140 313,141 313,144 314,113 314,109 315,111 315,142 316,131 316,143 317,142 317,156 318,160 319,160 319,173 320,181 320,187 321,207 321,218 322,248 322,256 323,227 323,225 324,225 324,233 325,238 325,245 326,261 326,273 327,262 327,280 328,288 328,327 329,305 330,300 330,319 331,348 331,327 332,311 332,315 333,317 333,326 334,335 334,338 335,326 335,331 336,328 336,318 337,316 337,297 338,285 338,295 339,290 340,283 340,295 341,304 341,321 342,335 342,318 343,306 343,307 344,304 344,301 345,283 345,273 346,283 346,281 347,283 347,293 348,309 348,306 349,318 349,319 350,307 351,307 351,303 352,300 352,290 353,304 353,276 354,265 354,251 355,259 355,287 356,301 356,322 357,330 357,319 358,306 358,307 359,323 359,316 360,325 361,324 361,326 362,326 362,308 363,305 363,281 364,268 364,264 365,262 365,256 366,249 366,230 367,231 367,234 368,260 368,266 369,290 369,314 370,325 370,324 371,349 372,371 372,393 373,396 373,363 374,358 374,362 375,364 375,353 376,334 376,321 377,322 377,328 378,383 378,387 379,385 379,385 380,380 380,379 381,362 382,371 382,388 383,370 383,366 384,362 384,343 385,322 385,322 386,307 386,310 387,331 387,320 388,325 388,334 389,347 389,346 390,358 390,346 391,352 391,340 392,339 393,341 393,345 394,351 394,382 395,410 395,385 396,387 396,378 397,377 397,370 398,366 398,362 399,372 399,386 400,361 400,368 401,383 401,401 402,379 403,370 403,370 404,377 404,393 405,405 405,411 406,396 406,407 407,385 407,383 408,394 408,392 409,400 409,419 410,423 410,423 411,426 411,427 412,430 412,423 413,401 414,403 414,404 415,415 415,404 416,381 416,380 417,403 417,398 418,398 418,394 419,385 419,394 420,406 420,409 421,401 421,403 422,429 422,432 423,413 424,399 424,377 425,373 425,362 426,361 426,393 427,413 427,389 428,358 428,356 429,331 429,327 430,327 430,317 431,300 431,313 432,314 432,320 433,305 434,285 434,285 435,285 435,286 436,283 436,289 437,298 437,329 438,318 438,315 439,292 439,288 440,292 440,295 441,286 441,287 442,310 442,311 443,332 443,314 444,316 445,309 445,292 446,288 446,277 447,271 447,265 448,270 448,279 449,275 449,267 450,277 450,280 451,293 451,296 452,300 452,299 453,318 453,309 454,315 455,312 455,304 456,306 456,313 457,317 457,320 458,324 458,325 459,351 459,358 460,346 460,327 461,312 461,326 462,345 462,331 463,286 463,273 464,274 464,280 465,274 466,275 466,276 467,274 467,281 468,282 468,287 469,265 469,260 470,252 470,247 471,247 471,248 472,267 472,242 473,241 473,252 474,254 474,259 475,260 476,260 476,267 477,295 477,300 478,277 478,279 479,245 479,252 480,259 480,249 481,225 481,225 482,241 482,262 483,249 483,237 484,243 484,255 485,253 485,251 486,234 487,216 487,230 488,233 488,221 489,224 489,237 490,239 490,252 491,269 491,276 492,272 492,270 493,251 493,252 494,228 494,227 495,240 495,239 496,234 497,229 497,244 498,226 498,231 499,238 499,266 500,273 500,292 501,278 501,281 502,281 502,292 503,295 503,286 504,295 504,302 505,308 505,310 506,298 506,310 507,314 508,318 508,318 509,315 509,325 510,317 510,326 511,321 511,303 512,312 512,331 513,343 513,331 514,324 514,338 515,344 515,336 516,330 516,300 517,292 518,303 518,330 519,335 519,333 520,328 520,330 521,349 521,355 522,334 522,336 523,326 523,322 524,322 524,326 525,329 525,334 526,337 526,341 527,336 527,318 528,319 529,312 529,303 530,311 530,326 531,362 531,353 532,343 532,325 533,317 533,316 534,318 534,327 535,338 535,338 536,313 536,298 537,296 537,294 538,322 539,338 539,343 540,336 540,317 541,325 541,315 542,311 542,304 543,303 543,313 544,310 544,284 545,270 545,288 546,295 546,296 547,343 547,329 548,330 548,325 549,325 550,318 550,309 551,322 551,319 552,334 552,346 553,340 553,322 554,320 554,306 555,315 555,321 556,312 556,324 557,336 557,341 558,343 558,316 559,313 560,316 560,320 561,327 561,324 562,317 562,319 563,321 563,347 564,348 564,343 565,344 565,352 566,358 566,362 567,347 567,365 568,366 568,359 569,368 569,380 570,422 571,426 571,423 572,410 572,410 573,404 573,406 574,385 574,380 575,414 575,430 576,421 576,394 577,395 577,414 578,404 578,408 579,397 579,399 580,404 581,414 581,426 582,442 582,436 583,428 583,434 584,436 584,438 585,439 585,442 586,435 586,422 587,421 587,422 588,407 588,413 589,423 589,396 590,414 590,419 591,432 592,435 592,417 593,421 593,425 594,418 594,426 595,435 595,430 596,458 596,456 597,439 597,442 598,436 598,441 599,453 599,463 600,469 600,471 601,504 602,506 602,551 603,608 603,674 603,699 974,699 974,699 78,699 "/>
<polyline fill="none" opacity="1" stroke="#E6194B" stroke-width="1" points="78,687 78,669 79,669 79,666 80,631 80,604 81,612 81,619 82,604 82,603 83,572 83,581 84,589 84,610 85,612 85,595 86,607 86,606 87,637 87,635 88,636 89,647 89,642 90,656 90,658 91,661 91,657 92,648 92,654 93,680 93,663 94,657 94,654 95,653 95,646 96,649 96,651 97,658 97,645 98,634 99,623 99,601 100,590 100,584 101,592 101,610 102,608 102,632 103,640 103,625 104,617 104,605 105,580 105,558 106,533 106,522 107,561 107,586 108,598 108,604 109,612 110,614 110,608 111,605 111,578 112,562 112,547 113,541 113,528 114,529 114,529 115,525 115,526 116,550 116,559 117,561 117,559 118,540 118,533 119,528 120,523 120,530 121,544 121,525 122,512 122,482 123,472 123,465 124,465 124,471 125,467 125,438 126,439 126,435 127,411 127,407 128,413 128,399 129,382 129,354 130,351 131,344 131,346 132,326 132,296 133,294 133,290 134,318 134,329 135,308 135,306 136,285 136,295 137,304 137,311 138,296 138,283 139,268 139,268 140,256 141,257 141,248 142,281 142,294 143,285 143,269 144,258 144,241 145,259 145,238 146,233 146,216 147,207 147,183 148,186 148,198 149,201 149,206 150,227 150,233 151,228 152,233 152,241 153,228 153,201 154,185 154,177 155,179 155,180 156,187 156,191 157,182 157,199 158,184 158,173 159,170 159,158 160,184 160,175 161,208 162,227 162,227 163,223 163,225 164,210 164,173 165,173 165,183 166,167 166,166 167,185 167,192 168,179 168,168 169,169 169,183 170,181 170,186 171,176 171,149 172,151 173,153 173,142 174,130 174,144 175,142 175,157 176,156 176,149 177,130 177,133 178,128 178,139 179,130 179,138 180,139 180,142 181,158 181,169 182,177 183,192 183,211 184,217 184,216 185,184 185,184 186,170 186,148 187,135 187,162 188,214 188,234 189,233 189,229 190,208 190,218 191,245 191,243 192,226 192,239 193,231 194,237 194,216 195,176 195,166 196,164 196,174 197,186 197,179 198,178 198,178 199,183 199,196 200,201 200,220 201,234 201,235 202,231 202,210 203,222 204,216 204,202 205,205 205,208 206,219 206,233 207,245 207,227 208,215 208,234 209,246 209,239 210,233 210,243 211,243 211,245 212,246 212,239 213,216 213,224 214,231 215,207 215,184 216,188 216,203 217,227 217,219 218,211 218,213 219,240 219,229 220,229 220,264 221,267 221,246 222,273 222,266 223,260 223,244 224,253 225,256 225,262 226,258 226,253 227,239 227,232 228,218 228,209 229,235 229,237 230,232 230,228 231,249 231,255 232,227 232,199 233,199 233,198 234,216 234,227 235,214 236,219 236,229 237,239 237,237 238,201 238,189 239,184 239,192 240,218 240,200 241,199 241,190 242,209 242,211 243,207 243,206 244,192 244,183 245,173 246,166 246,163 247,171 247,177 248,182 248,173 249,174 249,157 250,168 250,166 251,170 251,169 252,182 252,194 253,198 253,179 254,181 254,195 255,195 256,155 256,156 257,156 257,159 258,151 258,152 259,171 259,179 260,184 260,175 261,162 261,172 262,172 262,189 263,185 263,205 264,189 264,199 265,228 265,232 266,237 267,241 267,222 268,208 268,219 269,203 269,201 270,197 270,178 271,166 271,176 272,182 272,185 273,194 273,190 274,179 274,154 275,151 275,171 276,176 277,188 277,176 278,192 278,216 279,210 279,209 280,213 280,233 281,229 281,229 282,237 282,247 283,254 283,252 284,258 284,239 285,244 285,235 286,224 286,206 287,211 288,224 288,213 289,214 289,231 290,218 290,223 291,231 291,225 292,218 292,193 293,176 293,168 294,153 294,157 295,155 295,144 296,138 296,126 297,137 298,148 298,162 299,144 299,136 300,129 300,93 301,97 301,90 302,68 302,69 303,105 303,113 304,124 304,131 305,124 305,128 306,133 306,131 307,140 307,116 308,111 309,133 309,116 310,90 310,86 311,100 311,124 312,120 312,140 313,141 313,144 314,113 314,109 315,111 315,142 316,131 316,143 317,142 317,156 318,160 319,160 319,173 320,181 320,187 321,207 321,218 322,248 322,256 323,227 323,225 324,225 324,233 325,238 325,245 326,261 326,273 327,262 327,280 328,288 328,327 329,305 330,300 330,319 331,348 331,327 332,311 332,315 333,317 333,326 334,335 334,338 335,326 335,331 336,328 336,318 337,316 337,297 338,285 338,295 339,290 340,283 340,295 341,304 341,321 342,335 342,318 343,306 343,307 344,304 344,301 345,283 345,273 346,283 346,281 347,283 347,293 348,309 348,306 349,318 349,319 350,307 351,307 351,303 352,300 352,290 353,304 353,276 354,265 354,251 355,259 355,287 356,301 356,322 357,330 357,319 358,306 358,307 359,323 359,316 360,325 361,324 361,326 362,326 362,308 363,305 363,281 364,268 364,264 365,262 365,256 366,249 366,230 367,231 367,234 368,260 368,266 369,290 369,314 370,325 370,324 371,349 372,371 372,393 373,396 373,363 374,358 374,362 375,364 375,353 376,334 376,321 377,322 377,328 378,383 378,387 379,385 379,385 380,380 380,379 381,362 382,371 382,388 383,370 383,366 384,362 384,343 385,322 385,322 386,307 386,310 387,331 387,320 388,325 388,334 389,347 389,346 390,358 390,346 391,352 391,340 392,339 393,341 393,345 394,351 394,382 395,410 395,385 396,387 396,378 397,377 397,370 398,366 398,362 399,372 399,386 400,361 400,368 401,383 401,401 402,379 403,370 403,370 404,377 404,393 405,405 405,411 406,396 406,407 407,385 407,383 408,394 408,392 409,400 409,419 410,423 410,423 411,426 411,427 412,430 412,423 413,401 414,403 414,404 415,415 415,404 416,381 416,380 417,403 417,398 418,398 418,394 419,385 419,394 420,406 420,409 421,401 421,403 422,429 422,432 423,413 424,399 424,377 425,373 425,362 426,361 426,393 427,413 427,389 428,358 428,356 429,331 429,327 430,327 430,317 431,300 431,313 432,314 432,320 433,305 434,285 434,285 435,285 435,286 436,283 436,289 437,298 437,329 438,318 438,315 439,292 439,288 440,292 440,295 441,286 441,287 442,310 442,311 443,332 443,314 444,316 445,309 445,292 446,288 446,277 447,271 447,265 448,270 448,279 449,275 449,267 450,277 450,280 451,293 451,296 452,300 452,299 453,318 453,309 454,315 455,312 455,304 456,306 456,313 457,317 457,320 458,324 458,325 459,351 459,358 460,346 460,327 461,312 461,326 462,345 462,331 463,286 463,273 464,274 464,280 465,274 466,275 466,276 467,274 467,281 468,282 468,287 469,265 469,260 470,252 470,247 471,247 471,248 472,267 472,242 473,241 473,252 474,254 474,259 475,260 476,260 476,267 477,295 477,300 478,277 478,279 479,245 479,252 480,259 480,249 481,225 481,225 482,241 482,262 483,249 483,237 484,243 484,255 485,253 485,251 486,234 487,216 487,230 488,233 488,221 489,224 489,237 490,239 490,252 491,269 491,276 492,272 492,270 493,251 493,252 494,228 494,227 495,240 495,239 496,234 497,229 497,244 498,226 498,231 499,238 499,266 500,273 500,292 501,278 501,281 502,281 502,292 503,295 503,286 504,295 504,302 505,308 505,310 506,298 506,310 507,314 508,318 508,318 509,315 509,325 510,317 510,326 511,321 511,303 512,312 512,331 513,343 513,331 514,324 514,338 515,344 515,336 516,330 516,300 517,292 518,303 518,330 519,335 519,333 520,328 520,330 521,349 521,355 522,334 522,336 523,326 523,322 524,322 524,326 525,329 525,334 526,337 526,341 527,336 527,318 528,319 529,312 529,303 530,311 530,326 531,362 531,353 532,343 532,325 533,317 533,316 534,318 534,327 535,338 535,338 536,313 536,298 537,296 537,294 538,322 539,338 539,343 540,336 540,317 541,325 541,315 542,311 542,304 543,303 543,313 544,310 544,284 545,270 545,288 546,295 546,296 547,343 547,329 548,330 548,325 549,325 550,318 550,309 551,322 551,319 552,334 552,346 553,340 553,322 554,320 554,306 555,315 555,321 556,312 556,324 557,336 557,341 558,343 558,316 559,313 560,316 560,320 561,327 561,324 562,317 562,319 563,321 563,347 564,348 564,343 565,344 565,352 566,358 566,362 567,347 567,365 568,366 568,359 569,368 569,380 570,422 571,426 571,423 572,410 572,410 573,404 573,406 574,385 574,380 575,414 575,430 576,421 576,394 577,395 577,414 578,404 578,408 579,397 579,399 580,404 581,414 581,426 582,442 582,436 583,428 583,434 584,436 584,438 585,439 585,442 586,435 586,422 587,421 587,422 588,407 588,413 589,423 589,396 590,414 590,419 591,432 592,435 592,417 593,421 593,425 594,418 594,426 595,435 595,430 596,458 596,456 597,439 597,442 598,436 598,441 599,453 599,463 600,469 600,471 601,504 602,506 602,551 603,608 603,674 603,699 974,699 "/>
<line opacity="0.1" stroke="#000000" stroke-width="1" x1="83" y1="699" x2="83" y2="67"/>
<line opacity="0.1" stroke="#000000" stroke-width="1" x1="92" y1="699" x2="92" y2="67"/>
<line opacity="0.1" stroke="#000000" stroke-width="1" x1="101" y1="699" x2="101" y2="67"/>
<line opacity="0.1" stroke="#000000" stroke-width="1" x1="111" y1="699" x2="111" y2="67"/>
<line opacity="0.1" stroke="#000000" stroke-width="1" x1="120" y1="699" x2="120" y2="67"/>
<line opacity="0.1" stroke="#000000" stroke-width="1" x1="129" y1="699" x2="129" y2="67"/>
<line opacity="0.1" stroke="#000000" stroke-width="1" x1="139" y1="699" x2="139" y2="67"/>
<line opacity="0.1" stroke="#000000" stroke-width="1" x1="148" y1="699" x2="148" y2="67"/>
<line opacity="0.1" stroke="#000000" stroke-width="1" x1="157" y1="699" x2="157" y2="67"/>
<line opacity="0.1" stroke="#000000" stroke-width="1" x1="166" y1="699" x2="166" y2="67"/>
<line opacity="0.1" stroke="#000000" stroke-width="1" x1="176" y1="699" x2="176" y2="67"/>
<line opacity="0.1" stroke="#000000" stroke-width="1" x1="185" y1="699" x2="185" y2="67"/>
<line opacity="0.1" stroke="#000000" stroke-width="1" x1="194" y1="699" x2="194" y2="67"/>
<line opacity="0.1" stroke="#000000" stroke-width="1" x1="203" y1="699" x2="203" y2="67"/>
<line opacity="0.1" stroke="#000000" stroke-width="1" x1="213" y1="699" x2="213" y2="67"/>
<line opacity="0.1" stroke="#000000" stroke-width="1" x1="222" y1="699" x2="222" y2="67"/>
<line opacity="0.1" stroke="#000000" stroke-width="1" x1="231" y1="699" x2="231" y2="67"/>
<line opacity="0.1" stroke="#000000" stroke-width="1" x1="240" y1="699" x2="240" y2="67"/>
<line opacity="0.1" stroke="#000000" stroke-width="1" x1="250" y1="699" x2="250" y2="67"/>
<line opacity="0.1" stroke="#000000" stroke-width="1" x1="259" y1="699" x2="259" y2="67"/>
<line opacity="0.1" stroke="#000000" stroke-width="1" x1="268" y1="699" x2="268" y2="67"/>
<line opacity="0.1" stroke="#000000" stroke-width="1" x1="277" y1="699" x2="277" y2="67"/>
<line opacity="0.1" stroke="#000000" stroke-width="1" x1="287" y1="699" x2="287" y2="67"/>
<line opacity="0.1" stroke="#000000" stroke-width="1" x1="296" y1="699" x2="296" y2="67"/>
<line opacity="0.1" stroke="#000000" stroke-width="1" x1="305" y1="699" x2="305" y2="67"/>
<line opacity="0.1" stroke="#000000" stroke-width="1" x1="314" y1="699" x2="314" y2="67"/>
<line opacity="0.1" stroke="#000000" stroke-width="1" x1="324" y1="699" x2="324" y2="67"/>
<line opacity="0.1" stroke="#000000" stroke-width="1" x1="333" y1="699" x2="333" y2="67"/>
<line opacity="0.1" stroke="#000000" stroke-width="1" x1="342" y1="699" x2="342" y2="67"/>
<line opacity="0.1" stroke="#000000" stroke-width="1" x1="351" y1="699" x2="351" y2="67"/>
<line opacity="0.1" stroke="#000000" stroke-width="1" x1="361" y1="699" x2="361" y2="67"/>
<line opacity="0.1" stroke="#000000" stroke-width="1" x1="370" y1="699" x2="370" y2="67"/>
<line opacity="0.1" stroke="#000000" stroke-width="1" x1="379" y1="699" x2="379" y2="67"/>
<line opacity="0.1" stroke="#000000" stroke-width="1" x1="388" y1="699" x2="388" y2="67"/>
<line opacity="0.1" stroke="#000000" stroke-width="1" x1="398" y1="699" x2="398" y2="67"/>
<line opacity="0.1" stroke="#000000" stroke-width="1" x1="407" y1="699" x2="407" y2="67"/>
<line opacity="0.1" stroke="#000000" stroke-width="1" x1="416" y1="699" x2="416" y2="67"/>
<line opacity="0.1" stroke="#000000" stroke-width="1" x1="425" y1="699" x2="425" y2="67"/>
<line opacity="0.1" stroke="#000000" stroke-width="1" x1="435" y1="699" x2="435" y2="67"/>
<line opacity="0.1" stroke="#000000" stroke-width="1" x1="444" y1="699" x2="444" y2="67"/>
<line opacity="0.1" stroke="#000000" stroke-width="1" x1="453" y1="699" x2="453" y2="67"/>
<line opacity="0.1" stroke="#000000" stroke-width="1" x1="463" y1="699" x2="463" y2="67"/>
<line opacity="0.1" stroke="#000000" stroke-width="1" x1="472" y1="699" x2="472" y2="67"/>
<line opacity="0.1" stroke="#000000" stroke-width="1" x1="481" y1="699" x2="481" y2="67"/>
<line opacity="0.1" stroke="#000000" stroke-width="1" x1="490" y1="699" x2="490" y2="67"/>
<line opacity="0.1" stroke="#000000" stroke-width="1" x1="500" y1="699" x2="500" y2="67"/>
<line opacity="0.1" stroke="#000000" stroke-width="1" x1="509" y1="699" x2="509" y2="67"/>
<line opacity="0.1" stroke="#000000" stroke-width="1" x1="518" y1="699" x2="518" y2="67"/>
<line opacity="0.1" stroke="#000000" stroke-width="1" x1="527" y1="699" x2="527" y2="67"/>
<line opacity="0.1" stroke="#000000" stroke-width="1" x1="537" y1="699" x2="537" y2="67"/>
<line opacity="0.1" stroke="#000000" stroke-width="1" x1="546" y1="699" x2="546" y2="67"/>
<line opacity="0.1" stroke="#000000" stroke-width="1" x1="555" y1="699" x2="555" y2="67"/>
<line opacity="0.1" stroke="#000000" stroke-width="1" x1="564" y1="699" x2="564" y2="67"/>
<line opacity="0.1" stroke="#000000" stroke-width="1" x1="574" y1="699" x2="574" y2="67"/>
<line opacity="0.1" stroke="#000000" stroke-width="1" x1="583" y1="699" x2="583" y2="67"/>
<line opacity="0.1" stroke="#000000" stroke-width="1" x1="592" y1="699" x2="592" y2="67"/>
<line opacity="0.1" stroke="#000000" stroke-width="1" x1="601" y1="699" x2="601" y2="67"/>
<line opacity="0.1" stroke="#000000" stroke-width="1" x1="611" y1="699" x2="611" y2="67"/>
<line opacity="0.1" stroke="#000000" stroke-width="1" x1="620" y1="699" x2="620" y2="67"/>
<line opacity="0.1" stroke="#000000" stroke-width="1" x1="629" y1="699" x2="629" y2="67"/>
<line opacity="0.1" stroke="#000000" stroke-width="1" x1="638" y1="699" x2="638" y2="67"/>
<line opacity="0.1" stroke="#000000" stroke-width="1" x1="648" y1="699" x2="648" y2="67"/>
<line opacity="0.1" stroke="#000000" stroke-width="1" x1="657" y1="699" x2="657" y2="67"/>
<line opacity="0.1" stroke="#000000" stroke-width="1" x1="666" y1="699" x2="666" y2="67"/>
<line opacity="0.1" stroke="#000000" stroke-width="1" x1="675" y1="699" x2="675" y2="67"/>
<line opacity="0.1" stroke="#000000" stroke-width="1" x1="685" y1="699" x2="685" y2="67"/>
<line opacity="0.1" stroke="#000000" stroke-width="1" x1="694" y1="699" x2="694" y2="67"/>
<line opacity="0.1" stroke="#000000" stroke-width="1" x1="703" y1="699" x2="703" y2="67"/>
<line opacity="0.1" stroke="#000000" stroke-width="1" x1="712" y1="699" x2="712" y2="67"/>
<line opacity="0.1" stroke="#000000" stroke-width="1" x1="722" y1="699" x2="722" y2="67"/>
<line opacity="0.1" stroke="#000000" stroke-width="1" x1="731" y1="699" x2="731" y2="67"/>
<line opacity="0.1" stroke="#000000" stroke-width="1" x1="740" y1="699" x2="740" y2="67"/>
<line opacity="0.1" stroke="#000000" stroke-width="1" x1="749" y1="699" x2="749" y2="67"/>
<line opacity="0.1" stroke="#000000" stroke-width="1" x1="759" y1="699" x2="759" y2="67"/>
<line opacity="0.1" stroke="#000000" stroke-width="1" x1="768" y1="699" x2="768" y2="67"/>
<line opacity="0.1" stroke="#000000" stroke-width="1" x1="777" y1="699" x2="777" y2="67"/>
<line opacity="0.1" stroke="#000000" stroke-width="1" x1="787" y1="699" x2="787" y2="67"/>
<line opacity="0.1" stroke="#000000" stroke-width="1" x1="796" y1="699" x2="796" y2="67"/>
<line opacity="0.1" stroke="#000000" stroke-width="1" x1="805" y1="699" x2="805" y2="67"/>
<line opacity="0.1" stroke="#000000" stroke-width="1" x1="814" y1="699" x2="814" y2="67"/>
<line opacity="0.1" stroke="#000000" stroke-width="1" x1="824" y1="699" x2="824" y2="67"/>
<line opacity="0.1" stroke="#000000" stroke-width="1" x1="833" y1="699" x2="833" y2="67"/>
<line opacity="0.1" stroke="#000000" stroke-width="1" x1="842" y1="699" x2="842" y2="67"/>
<line opacity="0.1" stroke="#000000" stroke-width="1" x1="851" y1="699" x2="851" y2="67"/>
<line opacity="0.1" stroke="#000000" stroke-width="1" x1="861" y1="699" x2="861" y2="67"/>
<line opacity="0.1" stroke="#000000" stroke-width="1" x1="870" y1="699" x2="870" y2="67"/>
<line opacity="0.1" stroke="#000000" stroke-width="1" x1="879" y1="699" x2="879" y2="67"/>
<line opacity="0.1" stroke="#000000" stroke-width="1" x1="888" y1="699" x2="888" y2="67"/>
<line opacity="0.1" stroke="#000000" stroke-width="1" x1="898" y1="699" x2="898" y2="67"/>
<line opacity="0.1" stroke="#000000" stroke-width="1" x1="907" y1="699" x2="907" y2="67"/>
<line opacity="0.1" stroke="#000000" stroke-width="1" x1="916" y1="699" x2="916" y2="67"/>
<line opacity="0.1" stroke="#000000" stroke-width="1" x1="925" y1="699" x2="925" y2="67"/>
<line opacity="0.1" stroke="#000000" stroke-width="1" x1="935" y1="699" x2="935" y2="67"/>
<line opacity="0.1" stroke="#000000" stroke-width="1" x1="944" y1="699" x2="944" y2="67"/>
<line opacity="0.1" stroke="#000000" stroke-width="1" x1="953" y1="699" x2="953" y2="67"/>
<line opacity="0.1" stroke="#000000" stroke-width="1" x1="962" y1="699" x2="962" y2="67"/>
<line opacity="0.1" stroke="#000000" stroke-width="1" x1="972" y1="699" x2="972" y2="67"/>
<line opacity="0.1" stroke="#000000" stroke-width="1" x1="78" y1="699" x2="974" y2="699"/>
<line opacity="0.1" stroke="#000000" stroke-width="1" x1="78" y1="689" x2="974" y2="689"/>
<line opacity="0.1" stroke="#000000" stroke-width="1" x1="78" y1="680" x2="974" y2="680"/>
<line opacity="0.1" stroke="#000000" stroke-width="1" x1="78" y1="671" x2="974" y2="671"/>
<line opacity="0.1" stroke="#000000" stroke-width="1" x1="78" y1="662" x2="974" y2="662"/>
<line opacity="0.1" stroke="#000000" stroke-width="1" x1="78" y1="653" x2="974" y2="653"/>
<line opacity="0.1" stroke="#000000" stroke-width="1" x1="78" y1="644" x2="974" y2="644"/>
<line opacity="0.1" stroke="#000000" stroke-width="1" x1="78" y1="635" x2="974" y2="635"/>
<line opacity="0.1" stroke="#000000" stroke-width="1" x1="78" y1="626" x2="974" y2="626"/>
<line opacity="0.1" stroke="#000000" stroke-width="1" x1="78" y1="617" x2="974" y2="617"/>
<line opacity="0.1" stroke="#000000" stroke-width="1" x1="78" y1="608" x2="974" y2="608"/>
<line opacity="0.1" stroke="#000000" stroke-width="1" x1="78" y1="599" x2="974" y2="599"/>
<line opacity="0.1" stroke="#000000" stroke-width="1" x1="78" y1="589" x2="974" y2="589"/>
<line opacity="0.1" stroke="#000000" stroke-width="1" x1="78" y1="580" x2="974" y2="580"/>
<line opacity="0.1" stroke="#000000" stroke-width="1" x1="78" y1="571" x2="974" y2="571"/>
<line opacity="0.1" stroke="#000000" stroke-width="1" x1="78" y1="562" x2="974" y2="562"/>
<line opacity="0.1" stroke="#000000" stroke-width="1" x1="78" y1="553" x2="974" y2="553"/>
<line opacity="0.1" stroke="#000000" stroke-width="1" x1="78" y1="544" x2="974" y2="544"/>
<line opacity="0.1" stroke="#000000" stroke-width="1" x1="78" y1="535" x2="974" y2="535"/>
<line opacity="0.1" stroke="#000000" stroke-width="1" x1="78" y1="526" x2="974" y2="526"/>
<line opacity="0.1" stroke="#000000" stroke-width="1" x1="78" y1="517" x2="974" y2="517"/>
<line opacity="0.1" stroke="#000000" stroke-width="1" x1="78" y1="508" x2="974" y2="508"/>
<line opacity="0.1" stroke="#000000" stroke-width="1" x1="78" y1="499" x2="974" y2="499"/>
<line opacity="0.1" stroke="#000000" stroke-width="1" x1="78" y1="490" x2="974" y2="490"/>
<line opacity="0.1" stroke="#000000" stroke-width="1" x1="78" y1="480" x2="974" y2="480"/>
<line opacity="0.1" stroke="#000000" stroke-width="1" x1="78" y1="471" x2="974" y2="471"/>
<line opacity="0.1" stroke="#000000" stroke-width="1" x1="78" y1="462" x2="974" y2="462"/>
<line opacity="0.1" stroke="#000000" stroke-width="1" x1="78" y1="453" x2="974" y2="453"/>
<line opacity="0.1" stroke="#000000" stroke-width="1" x1="78" y1="444" x2="974" y2="444"/>
<line opacity="0.1" stroke="#000000" stroke-width="1" x1="78" y1="435" x2="974" y2="435"/>
<line opacity="0.1" stroke="#000000" stroke-width="1" x1="78" y1="426" x2="974" y2="426"/>
<line opacity="0.1" stroke="#000000" stroke-width="1" x1="78" y1="417" x2="974" y2="417"/>
<line opacity="0.1" stroke="#000000" stroke-width="1" x1="78" y1="408" x2="974" y2="408"/>
<line opacity="0.1" stroke="#000000" stroke-width="1" x1="78" y1="399" x2="974" y2="399"/>
<line opacity="0.1" stroke="#000000" stroke-width="1" x1="78" y1="390" x2="974" y2="390"/>
<line opacity="0.1" stroke="#000000" stroke-width="1" x1="78" y1="380" x2="974" y2="380"/>
<line opacity="0.1" stroke="#000000" stroke-width="1" x1="78" y1="371" x2="974" y2="371"/>
<line opacity="0.1" stroke="#000000" stroke-width="1" x1="78" y1="362" x2="974" y2="362"/>
<line opacity="0.1" stroke="#000000" stroke-width="1" x1="78" y1="353" x2="974" y2="353"/>
<line opacity="0.1" stroke="#000000" stroke-width="1" x1="78" y1="344" x2="974" y2="344"/>
<line opacity="0.1" stroke="#000000" stroke-width="1" x1="78" y1="335" x2="974" y2="335"/>
<line opacity="0.1" stroke="#000000" stroke-width="1" x1="78" y1="326" x2="974" y2="326"/>
<line opacity="0.1" stroke="#000000" stroke-width="1" x1="78" y1="317" x2="974" y2="317"/>
<line opacity="0.1" stroke="#000000" stroke-width="1" x1="78" y1="308" x2="974" y2="308"/>
<line opacity="0.1" stroke="#000000" stroke-width="1" x1="78" y1="299" x2="974" y2="299"/>
<line opacity="0.1" stroke="#000000" stroke-width="1" x1="78" y1="290" x2="974" y2="290"/>
<line opacity="0.1" stroke="#000000" stroke-width="1" x1="78" y1="281" x2="974" y2="281"/>
<line opacity="0.1" stroke="#000000" stroke-width="1" x1="78" y1="271" x2="974" y2="271"/>
<line opacity="0.1" stroke="#000000" stroke-width="1" x1="78" y1="262" x2="974" y2="262"/>
<line opacity="0.1" stroke="#000000" stroke-width="1" x1="78" y1="253" x2="974" y2="253"/>
<line opacity="0.1" stroke="#000000" stroke-width="1" x1="78" y1="244" x2="974" y2="244"/>
<line opacity="0.1" stroke="#000000" stroke-width="1" x1="78" y1="235" x2="974" y2="235"/>
<line opacity="0.1" stroke="#000000" stroke-width="1" x1="78" y1="226" x2="974" y2="226"/>
<line opacity="0.1" stroke="#000000" stroke-width="1" x1="78" y1="217" x2="974" y2="217"/>
<line opacity="0.1" stroke="#000000" stroke-width="1" x1="78" y1="208" x2="974" y2="208"/>
<line opacity="0.1" stroke="#000000" stroke-width="1" x1="78" y1="199" x2="974" y2="199"/>
<line opacity="0.1" stroke="#000000" stroke-width="1" x1="78" y1="190" x2="974" y2="190"/>
<line opacity="0.1" stroke="#000000" stroke-width="1" x1="78" y1="181" x2="974" y2="181"/>
<line opacity="0.1" stroke="#000000" stroke-width="1" x1="78" y1="171" x2="974" y2="171"/>
<line opacity="0.1" stroke="#000000" stroke-width="1" x1="78" y1="162" x2="974" y2="162"/>
<line opacity="0.1" stroke="#000000" stroke-width="1" x1="78" y1="153" x2="974" y2="153"/>
<line opacity="0.1" stroke="#000000" stroke-width="1" x1="78" y1="144" x2="974" y2="144"/>
<line opacity="0.1" stroke="#000000" stroke-width="1" x1="78" y1="135" x2="974" y2="135"/>
<line opacity="0.1" stroke="#000000" stroke-width="1" x1="78" y1="126" x2="974" y2="126"/>
<line opacity="0.1" stroke="#000000" stroke-width="1" x1="78" y1="117" x2="974" y2="117"/>
<line opacity="0.1" stroke="#000000" stroke-width="1" x1="78" y1="108" x2="974" y2="108"/>
<line opacity="0.1" stroke="#000000" stroke-width="1" x1="78" y1="99" x2="974" y2="99"/>
<line opacity="0.1" stroke="#000000" stroke-width="1" x1="78" y1="90" x2="974" y2="90"/>
<line opacity="0.1" stroke="#000000" stroke-width="1" x1="78" y1="81" x2="974" y2="81"/>
<line opacity="0.1" stroke="#000000" stroke-width="1" x1="78" y1="72" x2="974" y2="72"/>
<text x="8" y="384" dy="0.76em" text-anchor="middle" font-family="sans-serif" font-size="9.67741935483871" opacity="1" fill="#000000" transform="rotate(270, 8, 384)">
Memory usage
</text>
<text x="526" y="760" dy="-0.5ex" text-anchor="middle" font-family="sans-serif" font-size="9.67741935483871" opacity="1" fill="#000000">
Time
</text>
<line opacity="0.2" stroke="#000000" stroke-width="1" x1="166" y1="699" x2="166" y2="67"/>
<line opacity="0.2" stroke="#000000" stroke-width="1" x1="259" y1="699" x2="259" y2="67"/>
<line opacity="0.2" stroke="#000000" stroke-width="1" x1="351" y1="699" x2="351" y2="67"/>
<line opacity="0.2" stroke="#000000" stroke-width="1" x1="444" y1="699" x2="444" y2="67"/>
<line opacity="0.2" stroke="#000000" stroke-width="1" x1="537" y1="699" x2="537" y2="67"/>
<line opacity="0.2" stroke="#000000" stroke-width="1" x1="629" y1="699" x2="629" y2="67"/>
<line opacity="0.2" stroke="#000000" stroke-width="1" x1="722" y1="699" x2="722" y2="67"/>
<line opacity="0.2" stroke="#000000" stroke-width="1" x1="814" y1="699" x2="814" y2="67"/>
<line opacity="0.2" stroke="#000000" stroke-width="1" x1="907" y1="699" x2="907" y2="67"/>
<line opacity="0.2" stroke="#000000" stroke-width="1" x1="78" y1="699" x2="974" y2="699"/>
<line opacity="0.2" stroke="#000000" stroke-width="1" x1="78" y1="608" x2="974" y2="608"/>
<line opacity="0.2" stroke="#000000" stroke-width="1" x1="78" y1="517" x2="974" y2="517"/>
<line opacity="0.2" stroke="#000000" stroke-width="1" x1="78" y1="426" x2="974" y2="426"/>
<line opacity="0.2" stroke="#000000" stroke-width="1" x1="78" y1="335" x2="974" y2="335"/>
<line opacity="0.2" stroke="#000000" stroke-width="1" x1="78" y1="244" x2="974" y2="244"/>
<line opacity="0.2" stroke="#000000" stroke-width="1" x1="78" y1="153" x2="974" y2="153"/>
<polyline fill="none" opacity="1" stroke="#000000" stroke-width="1" points="77,68 77,700 "/>
<text x="68" y="699" dy="0.5ex" text-anchor="end" font-family="sans-serif" font-size="9.67741935483871" opacity="1" fill="#000000">
0 KB
</text>
<polyline fill="none" opacity="1" stroke="#000000" stroke-width="1" points="72,699 77,699 "/>
<text x="68" y="608" dy="0.5ex" text-anchor="end" font-family="sans-serif" font-size="9.67741935483871" opacity="1" fill="#000000">
48 KB
</text>
<polyline fill="none" opacity="1" stroke="#000000" stroke-width="1" points="72,608 77,608 "/>
<text x="68" y="517" dy="0.5ex" text-anchor="end" font-family="sans-serif" font-size="9.67741935483871" opacity="1" fill="#000000">
97 KB
</text>
<polyline fill="none" opacity="1" stroke="#000000" stroke-width="1" points="72,517 77,517 "/>
<text x="68" y="426" dy="0.5ex" text-anchor="end" font-family="sans-serif" font-size="9.67741935483871" opacity="1" fill="#000000">
146 KB
</text>
<polyline fill="none" opacity="1" stroke="#000000" stroke-width="1" points="72,426 77,426 "/>
<text x="68" y="335" dy="0.5ex" text-anchor="end" font-family="sans-serif" font-size="9.67741935483871" opacity="1" fill="#000000">
195 KB
</text>
<polyline fill="none" opacity="1" stroke="#000000" stroke-width="1" points="72,335 77,335 "/>
<text x="68" y="244" dy="0.5ex" text-anchor="end" font-family="sans-serif" font-size="9.67741935483871" opacity="1" fill="#000000">
244 KB
</text>
<polyline fill="none" opacity="1" stroke="#000000" stroke-width="1" points="72,244 77,244 "/>
<text x="68" y="153" dy="0.5ex" text-anchor="end" font-family="sans-serif" font-size="9.67741935483871" opacity="1" fill="#000000">
292 KB
</text>
<polyline fill="none" opacity="1" stroke="#000000" stroke-width="1" points="72,153 77,153 "/>
<polyline fill="none" opacity="1" stroke="#000000" stroke-width="1" points="78,700 974,700 "/>
<text x="166" y="710" dy="0.76em" text-anchor="middle" font-family="sans-serif" font-size="9.67741935483871" opacity="1" fill="#000000">
06:26:08
</text>
<polyline fill="none" opacity="1" stroke="#000000" stroke-width="1" points="166,700 166,705 "/>
<text x="259" y="710" dy="0.76em" text-anchor="middle" font-family="sans-serif" font-size="9.67741935483871" opacity="1" fill="#000000">
06:26:09
</text>
<polyline fill="none" opacity="1" stroke="#000000" stroke-width="1" points="259,700 259,705 "/>
<text x="351" y="710" dy="0.76em" text-anchor="middle" font-family="sans-serif" font-size="9.67741935483871" opacity="1" fill="#000000">
06:26:10
</text>
<polyline fill="none" opacity="1" stroke="#000000" stroke-width="1" points="351,700 351,705 "/>
<text x="444" y="710" dy="0.76em" text-anchor="middle" font-family="sans-serif" font-size="9.67741935483871" opacity="1" fill="#000000">
06:26:11
</text>
<polyline fill="none" opacity="1" stroke="#000000" stroke-width="1" points="444,700 444,705 "/>
<text x="537" y="710" dy="0.76em" text-anchor="middle" font-family="sans-serif" font-size="9.67741935483871" opacity="1" fill="#000000">
06:26:12
</text>
<polyline fill="none" opacity="1" stroke="#000000" stroke-width="1" points="537,700 537,705 "/>
<text x="629" y="710" dy="0.76em" text-anchor="middle" font-family="sans-serif" font-size="9.67741935483871" opacity="1" fill="#000000">
06:26:13
</text>
<polyline fill="none" opacity="1" stroke="#000000" stroke-width="1" points="629,700 629,705 "/>
<text x="722" y="710" dy="0.76em" text-anchor="middle" font-family="sans-serif" font-size="9.67741935483871" opacity="1" fill="#000000">
06:26:14
</text>
<polyline fill="none" opacity="1" stroke="#000000" stroke-width="1" points="722,700 722,705 "/>
<text x="814" y="710" dy="0.76em" text-anchor="middle" font-family="sans-serif" font-size="9.67741935483871" opacity="1" fill="#000000">
06:26:15
</text>
<polyline fill="none" opacity="1" stroke="#000000" stroke-width="1" points="814,700 814,705 "/>
<text x="907" y="710" dy="0.76em" text-anchor="middle" font-family="sans-serif" font-size="9.67741935483871" opacity="1" fill="#000000">
06:26:16
</text>
<polyline fill="none" opacity="1" stroke="#000000" stroke-width="1" points="907,700 907,705 "/>
<polyline fill="none" opacity="1" stroke="#000000" stroke-width="1" points="78,67 974,67 "/>
<text x="166" y="58" dy="-0.5ex" text-anchor="middle" font-family="sans-serif" font-size="9.67741935483871" opacity="1" fill="#000000">
+959ms
</text>
<polyline fill="none" opacity="1" stroke="#000000" stroke-width="1" points="166,62 166,67 "/>
<text x="259" y="58" dy="-0.5ex" text-anchor="middle" font-family="sans-serif" font-size="9.67741935483871" opacity="1" fill="#000000">
+1s
</text>
<polyline fill="none" opacity="1" stroke="#000000" stroke-width="1" points="259,62 259,67 "/>
<text x="351" y="58" dy="-0.5ex" text-anchor="middle" font-family="sans-serif" font-size="9.67741935483871" opacity="1" fill="#000000">
+2s
</text>
<polyline fill="none" opacity="1" stroke="#000000" stroke-width="1" points="351,62 351,67 "/>
<text x="444" y="58" dy="-0.5ex" text-anchor="middle" font-family="sans-serif" font-size="9.67741935483871" opacity="1" fill="#000000">
+3s
</text>
<polyline fill="none" opacity="1" stroke="#000000" stroke-width="1" points="444,62 444,67 "/>
<text x="537" y="58" dy="-0.5ex" text-anchor="middle" font-family="sans-serif" font-size="9.67741935483871" opacity="1" fill="#000000">
+4s
</text>
<polyline fill="none" opacity="1" stroke="#000000" stroke-width="1" points="537,62 537,67 "/>
<text x="629" y="58" dy="-0.5ex" text-anchor="middle" font-family="sans-serif" font-size="9.67741935483871" opacity="1" fill="#000000">
+5s
</text>
<polyline fill="none" opacity="1" stroke="#000000" stroke-width="1" points="629,62 629,67 "/>
<text x="722" y="58" dy="-0.5ex" text-anchor="middle" font-family="sans-serif" font-size="9.67741935483871" opacity="1" fill="#000000">
+6s
</text>
<polyline fill="none" opacity="1" stroke="#000000" stroke-width="1" points="722,62 722,67 "/>
<text x="814" y="58" dy="-0.5ex" text-anchor="middle" font-family="sans-serif" font-size="9.67741935483871" opacity="1" fill="#000000">
+7s
</text>
<polyline fill="none" opacity="1" stroke="#000000" stroke-width="1" points="814,62 814,67 "/>
<text x="907" y="58" dy="-0.5ex" text-anchor="middle" font-family="sans-serif" font-size="9.67741935483871" opacity="1" fill="#000000">
+8s
</text>
<polyline fill="none" opacity="1" stroke="#000000" stroke-width="1" points="907,62 907,67 "/>
</svg>
