<svg width="1024" height="768" viewBox="0 0 1024 768" xmlns="http://www.w3.org/2000/svg">
<rect x="0" y="0" width="1024" height="768" opacity="1" fill="#FFFFFF" stroke="none"/>
<polygon opacity="1" fill="#3CB44B" points="973,699 973,699 973,699 "/>
<polyline fill="none" opacity="1" stroke="#3CB44B" stroke-width="1" points="973,699 "/>
<polygon opacity="1" fill="#E6194B" points="83,698 84,697 85,696 86,696 87,695 88,694 89,693 90,693 90,692 91,692 92,692 93,691 94,690 95,688 96,687 97,686 98,684 98,684 99,684 100,684 101,684 102,683 103,682 104,682 105,682 106,682 106,682 107,681 108,680 109,679 110,678 111,678 112,678 113,677 114,677 114,675 115,675 116,675 117,675 118,673 119,673 120,673 121,672 122,672 122,672 123,672 124,672 125,672 126,672 127,671 128,671 129,671 130,671 130,670 131,670 132,670 133,670 134,668 135,668 136,668 137,668 137,667 138,667 139,667 140,667 141,666 142,666 143,665 144,665 145,664 145,663 146,663 147,663 148,662 149,661 150,660 151,660 152,660 153,659 153,659 154,659 155,658 156,658 157,658 158,658 159,657 160,657 161,655 161,655 162,654 163,654 164,654 165,654 166,653 167,653 168,652 169,652 169,652 170,651 171,651 172,650 173,650 174,649 175,648 176,646 177,644 177,644 178,644 179,644 180,644 181,643 182,643 183,641 184,641 185,640 185,639 186,638 187,638 188,637 189,636 190,635 191,635 192,634 193,634 193,634 194,633 195,633 196,632 197,632 198,631 199,630 200,629 201,628 201,628 202,627 203,627 204,627 205,625 206,624 207,624 208,624 209,623 209,621 210,621 211,621 212,620 213,619 214,619 215,619 216,618 217,617 217,617 218,617 219,616 220,615 221,614 222,613 223,613 224,610 225,609 225,609 226,608 227,608 228,608 229,608 230,608 231,607 232,607 233,606 233,606 234,605 235,604 236,603 237,603 238,603 239,602 240,600 240,600 241,599 242,599 243,599 244,598 245,597 246,596 247,596 248,595 248,594 249,593 250,592 251,592 252,590 253,590 254,589 255,589 256,588 256,586 257,586 258,586 259,585 260,585 261,585 262,584 263,583 264,580 264,580 265,580 266,578 267,578 268,578 269,578 270,578 271,576 272,575 272,573 273,573 274,573 275,571 276,570 277,570 278,569 279,568 280,568 280,568 281,567 282,566 283,566 284,566 285,565 286,564 287,563 288,563 288,562 289,562 290,561 291,561 292,560 293,559 294,558 295,557 296,557 296,557 297,556 298,556 299,556 300,556 301,555 302,554 303,554 304,554 304,554 305,553 306,552 307,552 308,552 309,552 310,552 311,551 312,549 312,549 313,548 314,548 315,548 316,547 317,547 318,547 319,547 320,547 320,546 321,545 322,545 323,544 324,543 325,543 326,542 327,541 328,538 328,537 329,537 330,537 331,536 332,536 333,536 334,535 335,535 336,534 336,533 337,533 338,532 339,532 340,532 341,532 342,530 343,530 343,530 344,530 345,529 346,529 347,528 348,528 349,527 350,527 351,527 351,527 352,526 353,525 354,524 355,523 356,523 357,523 358,523 359,521 359,521 360,520 361,520 362,519 363,519 364,517 365,516 366,515 367,514 367,513 368,512 369,511 370,511 371,511 372,510 373,510 374,509 375,508 375,506 376,506 377,505 378,504 379,503 380,502 381,501 382,500 383,500 383,500 384,499 385,497 386,497 387,496 388,495 389,494 390,493 391,492 391,492 392,492 393,492 394,491 395,491 396,491 397,490 398,489 399,488 399,487 400,487 401,487 402,486 403,485 404,485 405,485 406,485 407,483 407,482 408,481 409,480 410,479 411,479 412,478 413,477 414,477 415,477 415,476 416,476 417,476 418,476 419,475 420,475 421,474 422,473 423,471 423,471 424,469 425,468 426,468 427,467 428,466 429,466 430,464 431,463 431,463 432,462 433,461 434,460 435,459 436,458 437,457 438,456 439,454 439,453 440,453 441,452 442,449 443,448 444,447 445,446 446,446 447,445 447,445 448,443 449,443 450,442 451,442 452,440 453,439 454,437 454,437 455,436 456,436 457,435 458,435 459,433 460,431 461,430 462,429 462,429 463,429 464,428 465,428 466,426 467,426 468,426 469,426 470,426 470,424 471,423 472,422 473,421 474,420 475,419 476,419 477,419 478,418 478,418 479,416 480,416 481,415 482,414 483,414 484,413 485,410 486,409 486,409 487,407 488,406 489,406 490,405 491,405 492,404 493,403 494,403 494,403 495,403 496,403 497,402 498,402 499,400 500,400 501,400 502,400 502,399 503,399 504,398 505,398 506,397 507,394 508,394 509,393 510,392 510,391 511,391 512,388 513,387 514,386 515,386 516,385 517,384 518,383 518,382 519,382 520,380 521,380 522,379 523,378 524,378 525,377 526,377 526,376 527,376 528,376 529,376 530,376 531,375 532,374 533,374 534,370 534,370 535,368 536,366 537,366 538,365 539,364 540,363 541,362 542,362 542,362 543,361 544,361 545,360 546,360 547,360 548,359 549,359 550,359 550,358 551,357 552,357 553,355 554,355 555,354 556,352 557,352 557,351 558,350 559,350 560,350 561,349 562,349 563,348 564,348 565,347 565,347 566,346 567,346 568,346 569,346 570,345 571,344 572,344 573,344 573,343 574,343 575,342 576,342 577,340 578,339 579,339 580,338 581,338 581,338 582,336 583,336 584,336 585,334 586,334 587,333 588,333 589,332 589,331 590,329 591,328 592,328 593,328 594,328 595,327 596,326 597,325 597,325 598,323 599,322 600,321 601,320 602,320 603,320 604,318 605,318 605,318 606,317 607,317 608,317 609,316 610,314 611,313 612,312 613,312 613,311 614,311 615,311 616,310 617,310 618,310 619,308 620,307 621,306 621,306 622,306 623,305 624,305 625,305 626,305 627,305 628,304 629,303 629,302 630,302 631,300 632,300 633,300 634,299 635,299 636,299 637,299 637,299 638,298 639,297 640,296 641,296 642,296 643,295 644,294 645,294 645,293 646,292 647,292 648,292 649,292 650,292 651,291 652,291 653,291 653,290 654,289 655,288 656,288 657,288 658,288 659,287 660,286 660,286 661,286 662,286 663,286 664,285 665,285 666,284 667,283 668,283 668,283 669,283 670,283 671,283 672,281 673,281 674,280 675,279 676,279 676,278 677,277 678,277 679,276 680,276 681,274 682,273 683,273 684,273 684,273 685,272 686,270 687,270 688,270 689,269 690,269 691,267 692,265 692,265 693,264 694,264 695,263 696,263 697,263 698,261 699,261 700,261 700,261 701,260 702,259 703,258 704,258 705,258 706,258 707,257 708,257 708,256 709,255 710,254 711,254 712,254 713,254 714,253 715,253 716,253 716,253 717,253 718,252 719,251 720,250 721,250 722,250 723,250 724,249 724,248 725,248 726,248 727,247 728,247 729,247 730,246 731,246 732,245 732,244 733,244 734,244 735,243 736,243 737,243 738,243 739,242 740,241 740,241 741,240 742,240 743,240 744,239 745,239 746,238 747,238 748,237 748,237 749,237 750,236 751,236 752,235 753,234 754,234 755,232 756,232 756,231 757,230 758,229 759,229 760,228 761,228 762,227 763,227 763,226 764,225 765,224 766,223 767,223 768,222 769,221 770,220 771,219 771,219 772,218 773,218 774,217 775,215 776,214 777,212 778,212 779,212 779,211 780,210 781,209 782,208 783,207 784,206 785,205 786,205 787,204 787,204 788,203 789,203 790,202 791,202 792,201 793,201 794,200 795,200 795,199 796,198 797,198 798,197 799,197 800,197 801,196 802,196 803,195 803,194 804,194 805,193 806,192 807,192 808,191 809,190 810,189 811,189 811,188 812,188 813,187 814,186 815,184 816,182 817,180 818,179 819,178 819,177 820,177 821,176 822,176 823,176 824,175 825,175 826,174 827,172 827,172 828,170 829,168 830,168 831,168 832,168 833,167 834,167 835,166 835,165 836,165 837,164 838,164 839,164 840,163 841,161 842,161 843,160 843,160 844,160 845,160 846,160 847,158 848,158 849,157 850,157 851,157 851,157 852,156 853,156 854,154 855,153 856,152 857,152 858,151 859,151 859,151 860,150 861,148 862,147 863,147 864,146 865,144 866,142 866,141 867,140 868,138 869,138 870,138 871,138 872,137 873,137 874,136 874,135 875,135 876,134 877,134 878,134 879,133 880,133 881,132 882,132 882,132 883,131 884,130 885,130 886,130 887,130 888,130 889,129 890,129 890,129 891,128 892,127 893,126 894,126 895,126 896,125 897,124 898,124 898,124 899,123 900,123 901,123 902,123 903,123 904,123 905,123 906,123 906,123 907,122 908,121 909,120 910,120 911,119 912,117 913,117 914,116 914,115 915,115 916,114 917,113 918,113 919,112 920,112 921,112 922,111 922,111 923,110 924,110 925,110 926,110 927,110 928,108 929,108 930,107 930,107 931,107 932,107 933,105 934,105 935,105 936,104 937,103 938,103 938,102 939,100 940,99 941,99 942,98 943,97 944,96 945,96 946,96 946,96 947,96 948,94 949,94 950,93 951,92 952,91 953,91 954,90 954,90 955,90 956,90 957,88 958,87 959,85 960,83 961,82 962,81 962,78 963,77 964,75 965,74 966,74 967,74 968,72 969,71 969,69 970,68 971,68 971,68 973,68 973,699 83,699 "/>
<polyline fill="none" opacity="1" stroke="#E6194B" stroke-width="1" points="83,698 84,697 85,696 86,696 87,695 88,694 89,693 90,693 90,692 91,692 92,692 93,691 94,690 95,688 96,687 97,686 98,684 98,684 99,684 100,684 101,684 102,683 103,682 104,682 105,682 106,682 106,682 107,681 108,680 109,679 110,678 111,678 112,678 113,677 114,677 114,675 115,675 116,675 117,675 118,673 119,673 120,673 121,672 122,672 122,672 123,672 124,672 125,672 126,672 127,671 128,671 129,671 130,671 130,670 131,670 132,670 133,670 134,668 135,668 136,668 137,668 137,667 138,667 139,667 140,667 141,666 142,666 143,665 144,665 145,664 145,663 146,663 147,663 148,662 149,661 150,660 151,660 152,660 153,659 153,659 154,659 155,658 156,658 157,658 158,658 159,657 160,657 161,655 161,655 162,654 163,654 164,654 165,654 166,653 167,653 168,652 169,652 169,652 170,651 171,651 172,650 173,650 174,649 175,648 176,646 177,644 177,644 178,644 179,644 180,644 181,643 182,643 183,641 184,641 185,640 185,639 186,638 187,638 188,637 189,636 190,635 191,635 192,634 193,634 193,634 194,633 195,633 196,632 197,632 198,631 199,630 200,629 201,628 201,628 202,627 203,627 204,627 205,625 206,624 207,624 208,624 209,623 209,621 210,621 211,621 212,620 213,619 214,619 215,619 216,618 217,617 217,617 218,617 219,616 220,615 221,614 222,613 223,613 224,610 225,609 225,609 226,608 227,608 228,608 229,608 230,608 231,607 232,607 233,606 233,606 234,605 235,604 236,603 237,603 238,603 239,602 240,600 240,600 241,599 242,599 243,599 244,598 245,597 246,596 247,596 248,595 248,594 249,593 250,592 251,592 252,590 253,590 254,589 255,589 256,588 256,586 257,586 258,586 259,585 260,585 261,585 262,584 263,583 264,580 264,580 265,580 266,578 267,578 268,578 269,578 270,578 271,576 272,575 272,573 273,573 274,573 275,571 276,570 277,570 278,569 279,568 280,568 280,568 281,567 282,566 283,566 284,566 285,565 286,564 287,563 288,563 288,562 289,562 290,561 291,561 292,560 293,559 294,558 295,557 296,557 296,557 297,556 298,556 299,556 300,556 301,555 302,554 303,554 304,554 304,554 305,553 306,552 307,552 308,552 309,552 310,552 311,551 312,549 312,549 313,548 314,548 315,548 316,547 317,547 318,547 319,547 320,547 320,546 321,545 322,545 323,544 324,543 325,543 326,542 327,541 328,538 328,537 329,537 330,537 331,536 332,536 333,536 334,535 335,535 336,534 336,533 337,533 338,532 339,532 340,532 341,532 342,530 343,530 343,530 344,530 345,529 346,529 347,528 348,528 349,527 350,527 351,527 351,527 352,526 353,525 354,524 355,523 356,523 357,523 358,523 359,521 359,521 360,520 361,520 362,519 363,519 364,517 365,516 366,515 367,514 367,513 368,512 369,511 370,511 371,511 372,510 373,510 374,509 375,508 375,506 376,506 377,505 378,504 379,503 380,502 381,501 382,500 383,500 383,500 384,499 385,497 386,497 387,496 388,495 389,494 390,493 391,492 391,492 392,492 393,492 394,491 395,491 396,491 397,490 398,489 399,488 399,487 400,487 401,487 402,486 403,485 404,485 405,485 406,485 407,483 407,482 408,481 409,480 410,479 411,479 412,478 413,477 414,477 415,477 415,476 416,476 417,476 418,476 419,475 420,475 421,474 422,473 423,471 423,471 424,469 425,468 426,468 427,467 428,466 429,466 430,464 431,463 431,463 432,462 433,461 434,460 435,459 436,458 437,457 438,456 439,454 439,453 440,453 441,452 442,449 443,448 444,447 445,446 446,446 447,445 447,445 448,443 449,443 450,442 451,442 452,440 453,439 454,437 454,437 455,436 456,436 457,435 458,435 459,433 460,431 461,430 462,429 462,429 463,429 464,428 465,428 466,426 467,426 468,426 469,426 470,426 470,424 471,423 472,422 473,421 474,420 475,419 476,419 477,419 478,418 478,418 479,416 480,416 481,415 482,414 483,414 484,413 485,410 486,409 486,409 487,407 488,406 489,406 490,405 491,405 492,404 493,403 494,403 494,403 495,403 496,403 497,402 498,402 499,400 500,400 501,400 502,400 502,399 503,399 504,398 505,398 506,397 507,394 508,394 509,393 510,392 510,391 511,391 512,388 513,387 514,386 515,386 516,385 517,384 518,383 518,382 519,382 520,380 521,380 522,379 523,378 524,378 525,377 526,377 526,376 527,376 528,376 529,376 530,376 531,375 532,374 533,374 534,370 534,370 535,368 536,366 537,366 538,365 539,364 540,363 541,362 542,362 542,362 543,361 544,361 545,360 546,360 547,360 548,359 549,359 550,359 550,358 551,357 552,357 553,355 554,355 555,354 556,352 557,352 557,351 558,350 559,350 560,350 561,349 562,349 563,348 564,348 565,347 565,347 566,346 567,346 568,346 569,346 570,345 571,344 572,344 573,344 573,343 574,343 575,342 576,342 577,340 578,339 579,339 580,338 581,338 581,338 582,336 583,336 584,336 585,334 586,334 587,333 588,333 589,332 589,331 590,329 591,328 592,328 593,328 594,328 595,327 596,326 597,325 597,325 598,323 599,322 600,321 601,320 602,320 603,320 604,318 605,318 605,318 606,317 607,317 608,317 609,316 610,314 611,313 612,312 613,312 613,311 614,311 615,311 616,310 617,310 618,310 619,308 620,307 621,306 621,306 622,306 623,305 624,305 625,305 626,305 627,305 628,304 629,303 629,302 630,302 631,300 632,300 633,300 634,299 635,299 636,299 637,299 637,299 638,298 639,297 640,296 641,296 642,296 643,295 644,294 645,294 645,293 646,292 647,292 648,292 649,292 650,292 651,291 652,291 653,291 653,290 654,289 655,288 656,288 657,288 658,288 659,287 660,286 660,286 661,286 662,286 663,286 664,285 665,285 666,284 667,283 668,283 668,283 669,283 670,283 671,283 672,281 673,281 674,280 675,279 676,279 676,278 677,277 678,277 679,276 680,276 681,274 682,273 683,273 684,273 684,273 685,272 686,270 687,270 688,270 689,269 690,269 691,267 692,265 692,265 693,264 694,264 695,263 696,263 697,263 698,261 699,261 700,261 700,261 701,260 702,259 703,258 704,258 705,258 706,258 707,257 708,257 708,256 709,255 710,254 711,254 712,254 713,254 714,253 715,253 716,253 716,253 717,253 718,252 719,251 720,250 721,250 722,250 723,250 724,249 724,248 725,248 726,248 727,247 728,247 729,247 730,246 731,246 732,245 732,244 733,244 734,244 735,243 736,243 737,243 738,243 739,242 740,241 740,241 741,240 742,240 743,240 744,239 745,239 746,238 747,238 748,237 748,237 749,237 750,236 751,236 752,235 753,234 754,234 755,232 756,232 756,231 757,230 758,229 759,229 760,228 761,228 762,227 763,227 763,226 764,225 765,224 766,223 767,223 768,222 769,221 770,220 771,219 771,219 772,218 773,218 774,217 775,215 776,214 777,212 778,212 779,212 779,211 780,210 781,209 782,208 783,207 784,206 785,205 786,205 787,204 787,204 788,203 789,203 790,202 791,202 792,201 793,201 794,200 795,200 795,199 796,198 797,198 798,197 799,197 800,197 801,196 802,196 803,195 803,194 804,194 805,193 806,192 807,192 808,191 809,190 810,189 811,189 811,188 812,188 813,187 814,186 815,184 816,182 817,180 818,179 819,178 819,177 820,177 821,176 822,176 823,176 824,175 825,175 826,174 827,172 827,172 828,170 829,168 830,168 831,168 832,168 833,167 834,167 835,166 835,165 836,165 837,164 838,164 839,164 840,163 841,161 842,161 843,160 843,160 844,160 845,160 846,160 847,158 848,158 849,157 850,157 851,157 851,157 852,156 853,156 854,154 855,153 856,152 857,152 858,151 859,151 859,151 860,150 861,148 862,147 863,147 864,146 865,144 866,142 866,141 867,140 868,138 869,138 870,138 871,138 872,137 873,137 874,136 874,135 875,135 876,134 877,134 878,134 879,133 880,133 881,132 882,132 882,132 883,131 884,130 885,130 886,130 887,130 888,130 889,129 890,129 890,129 891,128 892,127 893,126 894,126 895,126 896,125 897,124 898,124 898,124 899,123 900,123 901,123 902,123 903,123 904,123 905,123 906,123 906,123 907,122 908,121 909,120 910,120 911,119 912,117 913,117 914,116 914,115 915,115 916,114 917,113 918,113 919,112 920,112 921,112 922,111 922,111 923,110 924,110 925,110 926,110 927,110 928,108 929,108 930,107 930,107 931,107 932,107 933,105 934,105 935,105 936,104 937,103 938,103 938,102 939,100 940,99 941,99 942,98 943,97 944,96 945,96 946,96 946,96 947,96 948,94 949,94 950,93 951,92 952,91 953,91 954,90 954,90 955,90 956,90 957,88 958,87 959,85 960,83 961,82 962,81 962,78 963,77 964,75 965,74 966,74 967,74 968,72 969,71 969,69 970,68 971,68 971,68 973,68 "/>
<line opacity="0.1" stroke="#000000" stroke-width="1" x1="83" y1="699" x2="83" y2="68"/>
<line opacity="0.1" stroke="#000000" stroke-width="1" x1="92" y1="699" x2="92" y2="68"/>
<line opacity="0.1" stroke="#000000" stroke-width="1" x1="101" y1="699" x2="101" y2="68"/>
<line opacity="0.1" stroke="#000000" stroke-width="1" x1="110" y1="699" x2="110" y2="68"/>
<line opacity="0.1" stroke="#000000" stroke-width="1" x1="119" y1="699" x2="119" y2="68"/>
<line opacity="0.1" stroke="#000000" stroke-width="1" x1="128" y1="699" x2="128" y2="68"/>
<line opacity="0.1" stroke="#000000" stroke-width="1" x1="137" y1="699" x2="137" y2="68"/>
<line opacity="0.1" stroke="#000000" stroke-width="1" x1="146" y1="699" x2="146" y2="68"/>
<line opacity="0.1" stroke="#000000" stroke-width="1" x1="154" y1="699" x2="154" y2="68"/>
<line opacity="0.1" stroke="#000000" stroke-width="1" x1="163" y1="699" x2="163" y2="68"/>
<line opacity="0.1" stroke="#000000" stroke-width="1" x1="172" y1="699" x2="172" y2="68"/>
<line opacity="0.1" stroke="#000000" stroke-width="1" x1="181" y1="699" x2="181" y2="68"/>
<line opacity="0.1" stroke="#000000" stroke-width="1" x1="190" y1="699" x2="190" y2="68"/>
<line opacity="0.1" stroke="#000000" stroke-width="1" x1="199" y1="699" x2="199" y2="68"/>
<line opacity="0.1" stroke="#000000" stroke-width="1" x1="208" y1="699" x2="208" y2="68"/>
<line opacity="0.1" stroke="#000000" stroke-width="1" x1="217" y1="699" x2="217" y2="68"/>
<line opacity="0.1" stroke="#000000" stroke-width="1" x1="226" y1="699" x2="226" y2="68"/>
<line opacity="0.1" stroke="#000000" stroke-width="1" x1="234" y1="699" x2="234" y2="68"/>
<line opacity="0.1" stroke="#000000" stroke-width="1" x1="243" y1="699" x2="243" y2="68"/>
<line opacity="0.1" stroke="#000000" stroke-width="1" x1="252" y1="699" x2="252" y2="68"/>
<line opacity="0.1" stroke="#000000" stroke-width="1" x1="261" y1="699" x2="261" y2="68"/>
<line opacity="0.1" stroke="#000000" stroke-width="1" x1="270" y1="699" x2="270" y2="68"/>
<line opacity="0.1" stroke="#000000" stroke-width="1" x1="279" y1="699" x2="279" y2="68"/>
<line opacity="0.1" stroke="#000000" stroke-width="1" x1="288" y1="699" x2="288" y2="68"/>
<line opacity="0.1" stroke="#000000" stroke-width="1" x1="297" y1="699" x2="297" y2="68"/>
<line opacity="0.1" stroke="#000000" stroke-width="1" x1="306" y1="699" x2="306" y2="68"/>
<line opacity="0.1" stroke="#000000" stroke-width="1" x1="315" y1="699" x2="315" y2="68"/>
<line opacity="0.1" stroke="#000000" stroke-width="1" x1="323" y1="699" x2="323" y2="68"/>
<line opacity="0.1" stroke="#000000" stroke-width="1" x1="332" y1="699" x2="332" y2="68"/>
<line opacity="0.1" stroke="#000000" stroke-width="1" x1="341" y1="699" x2="341" y2="68"/>
<line opacity="0.1" stroke="#000000" stroke-width="1" x1="350" y1="699" x2="350" y2="68"/>
<line opacity="0.1" stroke="#000000" stroke-width="1" x1="359" y1="699" x2="359" y2="68"/>
<line opacity="0.1" stroke="#000000" stroke-width="1" x1="368" y1="699" x2="368" y2="68"/>
<line opacity="0.1" stroke="#000000" stroke-width="1" x1="377" y1="699" x2="377" y2="68"/>
<line opacity="0.1" stroke="#000000" stroke-width="1" x1="386" y1="699" x2="386" y2="68"/>
<line opacity="0.1" stroke="#000000" stroke-width="1" x1="395" y1="699" x2="395" y2="68"/>
<line opacity="0.1" stroke="#000000" stroke-width="1" x1="403" y1="699" x2="403" y2="68"/>
<line opacity="0.1" stroke="#000000" stroke-width="1" x1="412" y1="699" x2="412" y2="68"/>
<line opacity="0.1" stroke="#000000" stroke-width="1" x1="421" y1="699" x2="421" y2="68"/>
<line opacity="0.1" stroke="#000000" stroke-width="1" x1="430" y1="699" x2="430" y2="68"/>
<line opacity="0.1" stroke="#000000" stroke-width="1" x1="439" y1="699" x2="439" y2="68"/>
<line opacity="0.1" stroke="#000000" stroke-width="1" x1="448" y1="699" x2="448" y2="68"/>
<line opacity="0.1" stroke="#000000" stroke-width="1" x1="457" y1="699" x2="457" y2="68"/>
<line opacity="0.1" stroke="#000000" stroke-width="1" x1="466" y1="699" x2="466" y2="68"/>
<line opacity="0.1" stroke="#000000" stroke-width="1" x1="475" y1="699" x2="475" y2="68"/>
<line opacity="0.1" stroke="#000000" stroke-width="1" x1="483" y1="699" x2="483" y2="68"/>
<line opacity="0.1" stroke="#000000" stroke-width="1" x1="492" y1="699" x2="492" y2="68"/>
<line opacity="0.1" stroke="#000000" stroke-width="1" x1="501" y1="699" x2="501" y2="68"/>
<line opacity="0.1" stroke="#000000" stroke-width="1" x1="510" y1="699" x2="510" y2="68"/>
<line opacity="0.1" stroke="#000000" stroke-width="1" x1="519" y1="699" x2="519" y2="68"/>
<line opacity="0.1" stroke="#000000" stroke-width="1" x1="528" y1="699" x2="528" y2="68"/>
<line opacity="0.1" stroke="#000000" stroke-width="1" x1="537" y1="699" x2="537" y2="68"/>
<line opacity="0.1" stroke="#000000" stroke-width="1" x1="546" y1="699" x2="546" y2="68"/>
<line opacity="0.1" stroke="#000000" stroke-width="1" x1="555" y1="699" x2="555" y2="68"/>
<line opacity="0.1" stroke="#000000" stroke-width="1" x1="563" y1="699" x2="563" y2="68"/>
<line opacity="0.1" stroke="#000000" stroke-width="1" x1="572" y1="699" x2="572" y2="68"/>
<line opacity="0.1" stroke="#000000" stroke-width="1" x1="581" y1="699" x2="581" y2="68"/>
<line opacity="0.1" stroke="#000000" stroke-width="1" x1="590" y1="699" x2="590" y2="68"/>
<line opacity="0.1" stroke="#000000" stroke-width="1" x1="599" y1="699" x2="599" y2="68"/>
<line opacity="0.1" stroke="#000000" stroke-width="1" x1="608" y1="699" x2="608" y2="68"/>
<line opacity="0.1" stroke="#000000" stroke-width="1" x1="617" y1="699" x2="617" y2="68"/>
<line opacity="0.1" stroke="#000000" stroke-width="1" x1="626" y1="699" x2="626" y2="68"/>
<line opacity="0.1" stroke="#000000" stroke-width="1" x1="635" y1="699" x2="635" y2="68"/>
<line opacity="0.1" stroke="#000000" stroke-width="1" x1="644" y1="699" x2="644" y2="68"/>
<line opacity="0.1" stroke="#000000" stroke-width="1" x1="652" y1="699" x2="652" y2="68"/>
<line opacity="0.1" stroke="#000000" stroke-width="1" x1="661" y1="699" x2="661" y2="68"/>
<line opacity="0.1" stroke="#000000" stroke-width="1" x1="670" y1="699" x2="670" y2="68"/>
<line opacity="0.1" stroke="#000000" stroke-width="1" x1="679" y1="699" x2="679" y2="68"/>
<line opacity="0.1" stroke="#000000" stroke-width="1" x1="688" y1="699" x2="688" y2="68"/>
<line opacity="0.1" stroke="#000000" stroke-width="1" x1="697" y1="699" x2="697" y2="68"/>
<line opacity="0.1" stroke="#000000" stroke-width="1" x1="706" y1="699" x2="706" y2="68"/>
<line opacity="0.1" stroke="#000000" stroke-width="1" x1="715" y1="699" x2="715" y2="68"/>
<line opacity="0.1" stroke="#000000" stroke-width="1" x1="724" y1="699" x2="724" y2="68"/>
<line opacity="0.1" stroke="#000000" stroke-width="1" x1="732" y1="699" x2="732" y2="68"/>
<line opacity="0.1" stroke="#000000" stroke-width="1" x1="741" y1="699" x2="741" y2="68"/>
<line opacity="0.1" stroke="#000000" stroke-width="1" x1="750" y1="699" x2="750" y2="68"/>
<line opacity="0.1" stroke="#000000" stroke-width="1" x1="759" y1="699" x2="759" y2="68"/>
<line opacity="0.1" stroke="#000000" stroke-width="1" x1="768" y1="699" x2="768" y2="68"/>
<line opacity="0.1" stroke="#000000" stroke-width="1" x1="777" y1="699" x2="777" y2="68"/>
<line opacity="0.1" stroke="#000000" stroke-width="1" x1="786" y1="699" x2="786" y2="68"/>
<line opacity="0.1" stroke="#000000" stroke-width="1" x1="795" y1="699" x2="795" y2="68"/>
<line opacity="0.1" stroke="#000000" stroke-width="1" x1="804" y1="699" x2="804" y2="68"/>
<line opacity="0.1" stroke="#000000" stroke-width="1" x1="812" y1="699" x2="812" y2="68"/>
<line opacity="0.1" stroke="#000000" stroke-width="1" x1="821" y1="699" x2="821" y2="68"/>
<line opacity="0.1" stroke="#000000" stroke-width="1" x1="830" y1="699" x2="830" y2="68"/>
<line opacity="0.1" stroke="#000000" stroke-width="1" x1="839" y1="699" x2="839" y2="68"/>
<line opacity="0.1" stroke="#000000" stroke-width="1" x1="848" y1="699" x2="848" y2="68"/>
<line opacity="0.1" stroke="#000000" stroke-width="1" x1="857" y1="699" x2="857" y2="68"/>
<line opacity="0.1" stroke="#000000" stroke-width="1" x1="866" y1="699" x2="866" y2="68"/>
<line opacity="0.1" stroke="#000000" stroke-width="1" x1="875" y1="699" x2="875" y2="68"/>
<line opacity="0.1" stroke="#000000" stroke-width="1" x1="884" y1="699" x2="884" y2="68"/>
<line opacity="0.1" stroke="#000000" stroke-width="1" x1="892" y1="699" x2="892" y2="68"/>
<line opacity="0.1" stroke="#000000" stroke-width="1" x1="901" y1="699" x2="901" y2="68"/>
<line opacity="0.1" stroke="#000000" stroke-width="1" x1="910" y1="699" x2="910" y2="68"/>
<line opacity="0.1" stroke="#000000" stroke-width="1" x1="919" y1="699" x2="919" y2="68"/>
<line opacity="0.1" stroke="#000000" stroke-width="1" x1="928" y1="699" x2="928" y2="68"/>
<line opacity="0.1" stroke="#000000" stroke-width="1" x1="937" y1="699" x2="937" y2="68"/>
<line opacity="0.1" stroke="#000000" stroke-width="1" x1="946" y1="699" x2="946" y2="68"/>
<line opacity="0.1" stroke="#000000" stroke-width="1" x1="955" y1="699" x2="955" y2="68"/>
<line opacity="0.1" stroke="#000000" stroke-width="1" x1="964" y1="699" x2="964" y2="68"/>
<line opacity="0.1" stroke="#000000" stroke-width="1" x1="78" y1="699" x2="973" y2="699"/>
<line opacity="0.1" stroke="#000000" stroke-width="1" x1="78" y1="691" x2="973" y2="691"/>
<line opacity="0.1" stroke="#000000" stroke-width="1" x1="78" y1="684" x2="973" y2="684"/>
<line opacity="0.1" stroke="#000000" stroke-width="1" x1="78" y1="676" x2="973" y2="676"/>
<line opacity="0.1" stroke="#000000" stroke-width="1" x1="78" y1="669" x2="973" y2="669"/>
<line opacity="0.1" stroke="#000000" stroke-width="1" x1="78" y1="661" x2="973" y2="661"/>
<line opacity="0.1" stroke="#000000" stroke-width="1" x1="78" y1="654" x2="973" y2="654"/>
<line opacity="0.1" stroke="#000000" stroke-width="1" x1="78" y1="646" x2="973" y2="646"/>
<line opacity="0.1" stroke="#000000" stroke-width="1" x1="78" y1="639" x2="973" y2="639"/>
<line opacity="0.1" stroke="#000000" stroke-width="1" x1="78" y1="632" x2="973" y2="632"/>
<line opacity="0.1" stroke="#000000" stroke-width="1" x1="78" y1="624" x2="973" y2="624"/>
<line opacity="0.1" stroke="#000000" stroke-width="1" x1="78" y1="617" x2="973" y2="617"/>
<line opacity="0.1" stroke="#000000" stroke-width="1" x1="78" y1="609" x2="973" y2="609"/>
<line opacity="0.1" stroke="#000000" stroke-width="1" x1="78" y1="602" x2="973" y2="602"/>
<line opacity="0.1" stroke="#000000" stroke-width="1" x1="78" y1="594" x2="973" y2="594"/>
<line opacity="0.1" stroke="#000000" stroke-width="1" x1="78" y1="587" x2="973" y2="587"/>
<line opacity="0.1" stroke="#000000" stroke-width="1" x1="78" y1="579" x2="973" y2="579"/>
<line opacity="0.1" stroke="#000000" stroke-width="1" x1="78" y1="572" x2="973" y2="572"/>
<line opacity="0.1" stroke="#000000" stroke-width="1" x1="78" y1="565" x2="973" y2="565"/>
<line opacity="0.1" stroke="#000000" stroke-width="1" x1="78" y1="557" x2="973" y2="557"/>
<line opacity="0.1" stroke="#000000" stroke-width="1" x1="78" y1="550" x2="973" y2="550"/>
<line opacity="0.1" stroke="#000000" stroke-width="1" x1="78" y1="542" x2="973" y2="542"/>
<line opacity="0.1" stroke="#000000" stroke-width="1" x1="78" y1="535" x2="973" y2="535"/>
<line opacity="0.1" stroke="#000000" stroke-width="1" x1="78" y1="527" x2="973" y2="527"/>
<line opacity="0.1" stroke="#000000" stroke-width="1" x1="78" y1="520" x2="973" y2="520"/>
<line opacity="0.1" stroke="#000000" stroke-width="1" x1="78" y1="513" x2="973" y2="513"/>
<line opacity="0.1" stroke="#000000" stroke-width="1" x1="78" y1="505" x2="973" y2="505"/>
<line opacity="0.1" stroke="#000000" stroke-width="1" x1="78" y1="498" x2="973" y2="498"/>
<line opacity="0.1" stroke="#000000" stroke-width="1" x1="78" y1="490" x2="973" y2="490"/>
<line opacity="0.1" stroke="#000000" stroke-width="1" x1="78" y1="483" x2="973" y2="483"/>
<line opacity="0.1" stroke="#000000" stroke-width="1" x1="78" y1="475" x2="973" y2="475"/>
<line opacity="0.1" stroke="#000000" stroke-width="1" x1="78" y1="468" x2="973" y2="468"/>
<line opacity="0.1" stroke="#000000" stroke-width="1" x1="78" y1="460" x2="973" y2="460"/>
<line opacity="0.1" stroke="#000000" stroke-width="1" x1="78" y1="453" x2="973" y2="453"/>
<line opacity="0.1" stroke="#000000" stroke-width="1" x1="78" y1="446" x2="973" y2="446"/>
<line opacity="0.1" stroke="#000000" stroke-width="1" x1="78" y1="438" x2="973" y2="438"/>
<line opacity="0.1" stroke="#000000" stroke-width="1" x1="78" y1="431" x2="973" y2="431"/>
<line opacity="0.1" stroke="#000000" stroke-width="1" x1="78" y1="423" x2="973" y2="423"/>
<line opacity="0.1" stroke="#000000" stroke-width="1" x1="78" y1="416" x2="973" y2="416"/>
<line opacity="0.1" stroke="#000000" stroke-width="1" x1="78" y1="408" x2="973" y2="408"/>
<line opacity="0.1" stroke="#000000" stroke-width="1" x1="78" y1="401" x2="973" y2="401"/>
<line opacity="0.1" stroke="#000000" stroke-width="1" x1="78" y1="394" x2="973" y2="394"/>
<line opacity="0.1" stroke="#000000" stroke-width="1" x1="78" y1="386" x2="973" y2="386"/>
<line opacity="0.1" stroke="#000000" stroke-width="1" x1="78" y1="379" x2="973" y2="379"/>
<line opacity="0.1" stroke="#000000" stroke-width="1" x1="78" y1="371" x2="973" y2="371"/>
<line opacity="0.1" stroke="#000000" stroke-width="1" x1="78" y1="364" x2="973" y2="364"/>
<line opacity="0.1" stroke="#000000" stroke-width="1" x1="78" y1="356" x2="973" y2="356"/>
<line opacity="0.1" stroke="#000000" stroke-width="1" x1="78" y1="349" x2="973" y2="349"/>
<line opacity="0.1" stroke="#000000" stroke-width="1" x1="78" y1="341" x2="973" y2="341"/>
<line opacity="0.1" stroke="#000000" stroke-width="1" x1="78" y1="334" x2="973" y2="334"/>
<line opacity="0.1" stroke="#000000" stroke-width="1" x1="78" y1="327" x2="973" y2="327"/>
<line opacity="0.1" stroke="#000000" stroke-width="1" x1="78" y1="319" x2="973" y2="319"/>
<line opacity="0.1" stroke="#000000" stroke-width="1" x1="78" y1="312" x2="973" y2="312"/>
<line opacity="0.1" stroke="#000000" stroke-width="1" x1="78" y1="304" x2="973" y2="304"/>
<line opacity="0.1" stroke="#000000" stroke-width="1" x1="78" y1="297" x2="973" y2="297"/>
<line opacity="0.1" stroke="#000000" stroke-width="1" x1="78" y1="289" x2="973" y2="289"/>
<line opacity="0.1" stroke="#000000" stroke-width="1" x1="78" y1="282" x2="973" y2="282"/>
<line opacity="0.1" stroke="#000000" stroke-width="1" x1="78" y1="275" x2="973" y2="275"/>
<line opacity="0.1" stroke="#000000" stroke-width="1" x1="78" y1="267" x2="973" y2="267"/>
<line opacity="0.1" stroke="#000000" stroke-width="1" x1="78" y1="260" x2="973" y2="260"/>
<line opacity="0.1" stroke="#000000" stroke-width="1" x1="78" y1="252" x2="973" y2="252"/>
<line opacity="0.1" stroke="#000000" stroke-width="1" x1="78" y1="245" x2="973" y2="245"/>
<line opacity="0.1" stroke="#000000" stroke-width="1" x1="78" y1="237" x2="973" y2="237"/>
<line opacity="0.1" stroke="#000000" stroke-width="1" x1="78" y1="230" x2="973" y2="230"/>
<line opacity="0.1" stroke="#000000" stroke-width="1" x1="78" y1="222" x2="973" y2="222"/>
<line opacity="0.1" stroke="#000000" stroke-width="1" x1="78" y1="215" x2="973" y2="215"/>
<line opacity="0.1" stroke="#000000" stroke-width="1" x1="78" y1="208" x2="973" y2="208"/>
<line opacity="0.1" stroke="#000000" stroke-width="1" x1="78" y1="200" x2="973" y2="200"/>
<line opacity="0.1" stroke="#000000" stroke-width="1" x1="78" y1="193" x2="973" y2="193"/>
<line opacity="0.1" stroke="#000000" stroke-width="1" x1="78" y1="185" x2="973" y2="185"/>
<line opacity="0.1" stroke="#000000" stroke-width="1" x1="78" y1="178" x2="973" y2="178"/>
<line opacity="0.1" stroke="#000000" stroke-width="1" x1="78" y1="170" x2="973" y2="170"/>
<line opacity="0.1" stroke="#000000" stroke-width="1" x1="78" y1="163" x2="973" y2="163"/>
<line opacity="0.1" stroke="#000000" stroke-width="1" x1="78" y1="156" x2="973" y2="156"/>
<line opacity="0.1" stroke="#000000" stroke-width="1" x1="78" y1="148" x2="973" y2="148"/>
<line opacity="0.1" stroke="#000000" stroke-width="1" x1="78" y1="141" x2="973" y2="141"/>
<line opacity="0.1" stroke="#000000" stroke-width="1" x1="78" y1="133" x2="973" y2="133"/>
<line opacity="0.1" stroke="#000000" stroke-width="1" x1="78" y1="126" x2="973" y2="126"/>
<line opacity="0.1" stroke="#000000" stroke-width="1" x1="78" y1="118" x2="973" y2="118"/>
<line opacity="0.1" stroke="#000000" stroke-width="1" x1="78" y1="111" x2="973" y2="111"/>
<line opacity="0.1" stroke="#000000" stroke-width="1" x1="78" y1="103" x2="973" y2="103"/>
<line opacity="0.1" stroke="#000000" stroke-width="1" x1="78" y1="96" x2="973" y2="96"/>
<line opacity="0.1" stroke="#000000" stroke-width="1" x1="78" y1="89" x2="973" y2="89"/>
<line opacity="0.1" stroke="#000000" stroke-width="1" x1="78" y1="81" x2="973" y2="81"/>
<line opacity="0.1" stroke="#000000" stroke-width="1" x1="78" y1="74" x2="973" y2="74"/>
<text x="8" y="384" dy="0.76em" text-anchor="middle" font-family="sans-serif" font-size="9.67741935483871" opacity="1" fill="#000000" transform="rotate(270, 8, 384)">
Memory usage
</text>
<text x="526" y="760" dy="-0.5ex" text-anchor="middle" font-family="sans-serif" font-size="9.67741935483871" opacity="1" fill="#000000">
Time
</text>
<line opacity="0.2" stroke="#000000" stroke-width="1" x1="101" y1="699" x2="101" y2="68"/>
<line opacity="0.2" stroke="#000000" stroke-width="1" x1="190" y1="699" x2="190" y2="68"/>
<line opacity="0.2" stroke="#000000" stroke-width="1" x1="279" y1="699" x2="279" y2="68"/>
<line opacity="0.2" stroke="#000000" stroke-width="1" x1="368" y1="699" x2="368" y2="68"/>
<line opacity="0.2" stroke="#000000" stroke-width="1" x1="457" y1="699" x2="457" y2="68"/>
<line opacity="0.2" stroke="#000000" stroke-width="1" x1="546" y1="699" x2="546" y2="68"/>
<line opacity="0.2" stroke="#000000" stroke-width="1" x1="635" y1="699" x2="635" y2="68"/>
<line opacity="0.2" stroke="#000000" stroke-width="1" x1="724" y1="699" x2="724" y2="68"/>
<line opacity="0.2" stroke="#000000" stroke-width="1" x1="812" y1="699" x2="812" y2="68"/>
<line opacity="0.2" stroke="#000000" stroke-width="1" x1="901" y1="699" x2="901" y2="68"/>
<line opacity="0.2" stroke="#000000" stroke-width="1" x1="78" y1="699" x2="973" y2="699"/>
<line opacity="0.2" stroke="#000000" stroke-width="1" x1="78" y1="624" x2="973" y2="624"/>
<line opacity="0.2" stroke="#000000" stroke-width="1" x1="78" y1="550" x2="973" y2="550"/>
<line opacity="0.2" stroke="#000000" stroke-width="1" x1="78" y1="475" x2="973" y2="475"/>
<line opacity="0.2" stroke="#000000" stroke-width="1" x1="78" y1="401" x2="973" y2="401"/>
<line opacity="0.2" stroke="#000000" stroke-width="1" x1="78" y1="327" x2="973" y2="327"/>
<line opacity="0.2" stroke="#000000" stroke-width="1" x1="78" y1="252" x2="973" y2="252"/>
<line opacity="0.2" stroke="#000000" stroke-width="1" x1="78" y1="178" x2="973" y2="178"/>
<line opacity="0.2" stroke="#000000" stroke-width="1" x1="78" y1="103" x2="973" y2="103"/>
<polyline fill="none" opacity="1" stroke="#000000" stroke-width="1" points="77,68 77,699 "/>
<text x="68" y="699" dy="0.5ex" text-anchor="end" font-family="sans-serif" font-size="9.67741935483871" opacity="1" fill="#000000">
0 KB
</text>
<polyline fill="none" opacity="1" stroke="#000000" stroke-width="1" points="72,699 77,699 "/>
<text x="68" y="624" dy="0.5ex" text-anchor="end" font-family="sans-serif" font-size="9.67741935483871" opacity="1" fill="#000000">
48 KB
</text>
<polyline fill="none" opacity="1" stroke="#000000" stroke-width="1" points="72,624 77,624 "/>
<text x="68" y="550" dy="0.5ex" text-anchor="end" font-family="sans-serif" font-size="9.67741935483871" opacity="1" fill="#000000">
97 KB
</text>
<polyline fill="none" opacity="1" stroke="#000000" stroke-width="1" points="72,550 77,550 "/>
<text x="68" y="475" dy="0.5ex" text-anchor="end" font-family="sans-serif" font-size="9.67741935483871" opacity="1" fill="#000000">
146 KB
</text>
<polyline fill="none" opacity="1" stroke="#000000" stroke-width="1" points="72,475 77,475 "/>
<text x="68" y="401" dy="0.5ex" text-anchor="end" font-family="sans-serif" font-size="9.67741935483871" opacity="1" fill="#000000">
195 KB
</text>
<polyline fill="none" opacity="1" stroke="#000000" stroke-width="1" points="72,401 77,401 "/>
<text x="68" y="327" dy="0.5ex" text-anchor="end" font-family="sans-serif" font-size="9.67741935483871" opacity="1" fill="#000000">
244 KB
</text>
<polyline fill="none" opacity="1" stroke="#000000" stroke-width="1" points="72,327 77,327 "/>
<text x="68" y="252" dy="0.5ex" text-anchor="end" font-family="sans-serif" font-size="9.67741935483871" opacity="1" fill="#000000">
292 KB
</text>
<polyline fill="none" opacity="1" stroke="#000000" stroke-width="1" points="72,252 77,252 "/>
<text x="68" y="178" dy="0.5ex" text-anchor="end" font-family="sans-serif" font-size="9.67741935483871" opacity="1" fill="#000000">
341 KB
</text>
<polyline fill="none" opacity="1" stroke="#000000" stroke-width="1" points="72,178 77,178 "/>
<text x="68" y="103" dy="0.5ex" text-anchor="end" font-family="sans-serif" font-size="9.67741935483871" opacity="1" fill="#000000">
390 KB
</text>
<polyline fill="none" opacity="1" stroke="#000000" stroke-width="1" points="72,103 77,103 "/>
<polyline fill="none" opacity="1" stroke="#000000" stroke-width="1" points="78,700 973,700 "/>
<text x="101" y="710" dy="0.76em" text-anchor="middle" font-family="sans-serif" font-size="9.67741935483871" opacity="1" fill="#000000">
02:04:17
</text>
<polyline fill="none" opacity="1" stroke="#000000" stroke-width="1" points="101,700 101,705 "/>
<text x="190" y="710" dy="0.76em" text-anchor="middle" font-family="sans-serif" font-size="9.67741935483871" opacity="1" fill="#000000">
02:04:18
</text>
<polyline fill="none" opacity="1" stroke="#000000" stroke-width="1" points="190,700 190,705 "/>
<text x="279" y="710" dy="0.76em" text-anchor="middle" font-family="sans-serif" font-size="9.67741935483871" opacity="1" fill="#000000">
02:04:19
</text>
<polyline fill="none" opacity="1" stroke="#000000" stroke-width="1" points="279,700 279,705 "/>
<text x="368" y="710" dy="0.76em" text-anchor="middle" font-family="sans-serif" font-size="9.67741935483871" opacity="1" fill="#000000">
02:04:20
</text>
<polyline fill="none" opacity="1" stroke="#000000" stroke-width="1" points="368,700 368,705 "/>
<text x="457" y="710" dy="0.76em" text-anchor="middle" font-family="sans-serif" font-size="9.67741935483871" opacity="1" fill="#000000">
02:04:21
</text>
<polyline fill="none" opacity="1" stroke="#000000" stroke-width="1" points="457,700 457,705 "/>
<text x="546" y="710" dy="0.76em" text-anchor="middle" font-family="sans-serif" font-size="9.67741935483871" opacity="1" fill="#000000">
02:04:22
</text>
<polyline fill="none" opacity="1" stroke="#000000" stroke-width="1" points="546,700 546,705 "/>
<text x="635" y="710" dy="0.76em" text-anchor="middle" font-family="sans-serif" font-size="9.67741935483871" opacity="1" fill="#000000">
02:04:23
</text>
<polyline fill="none" opacity="1" stroke="#000000" stroke-width="1" points="635,700 635,705 "/>
<text x="724" y="710" dy="0.76em" text-anchor="middle" font-family="sans-serif" font-size="9.67741935483871" opacity="1" fill="#000000">
02:04:24
</text>
<polyline fill="none" opacity="1" stroke="#000000" stroke-width="1" points="724,700 724,705 "/>
<text x="812" y="710" dy="0.76em" text-anchor="middle" font-family="sans-serif" font-size="9.67741935483871" opacity="1" fill="#000000">
02:04:25
</text>
<polyline fill="none" opacity="1" stroke="#000000" stroke-width="1" points="812,700 812,705 "/>
<text x="901" y="710" dy="0.76em" text-anchor="middle" font-family="sans-serif" font-size="9.67741935483871" opacity="1" fill="#000000">
02:04:26
</text>
<polyline fill="none" opacity="1" stroke="#000000" stroke-width="1" points="901,700 901,705 "/>
<polyline fill="none" opacity="1" stroke="#000000" stroke-width="1" points="78,67 974,67 "/>
<text x="101" y="58" dy="-0.5ex" text-anchor="middle" font-family="sans-serif" font-size="9.67741935483871" opacity="1" fill="#000000">
+265ms
</text>
<polyline fill="none" opacity="1" stroke="#000000" stroke-width="1" points="101,62 101,67 "/>
<text x="190" y="58" dy="-0.5ex" text-anchor="middle" font-family="sans-serif" font-size="9.67741935483871" opacity="1" fill="#000000">
+1s
</text>
<polyline fill="none" opacity="1" stroke="#000000" stroke-width="1" points="190,62 190,67 "/>
<text x="279" y="58" dy="-0.5ex" text-anchor="middle" font-family="sans-serif" font-size="9.67741935483871" opacity="1" fill="#000000">
+2s
</text>
<polyline fill="none" opacity="1" stroke="#000000" stroke-width="1" points="279,62 279,67 "/>
<text x="368" y="58" dy="-0.5ex" text-anchor="middle" font-family="sans-serif" font-size="9.67741935483871" opacity="1" fill="#000000">
+3s
</text>
<polyline fill="none" opacity="1" stroke="#000000" stroke-width="1" points="368,62 368,67 "/>
<text x="457" y="58" dy="-0.5ex" text-anchor="middle" font-family="sans-serif" font-size="9.67741935483871" opacity="1" fill="#000000">
+4s
</text>
<polyline fill="none" opacity="1" stroke="#000000" stroke-width="1" points="457,62 457,67 "/>
<text x="546" y="58" dy="-0.5ex" text-anchor="middle" font-family="sans-serif" font-size="9.67741935483871" opacity="1" fill="#000000">
+5s
</text>
<polyline fill="none" opacity="1" stroke="#000000" stroke-width="1" points="546,62 546,67 "/>
<text x="635" y="58" dy="-0.5ex" text-anchor="middle" font-family="sans-serif" font-size="9.67741935483871" opacity="1" fill="#000000">
+6s
</text>
<polyline fill="none" opacity="1" stroke="#000000" stroke-width="1" points="635,62 635,67 "/>
<text x="724" y="58" dy="-0.5ex" text-anchor="middle" font-family="sans-serif" font-size="9.67741935483871" opacity="1" fill="#000000">
+7s
</text>
<polyline fill="none" opacity="1" stroke="#000000" stroke-width="1" points="724,62 724,67 "/>
<text x="813" y="58" dy="-0.5ex" text-anchor="middle" font-family="sans-serif" font-size="9.67741935483871" opacity="1" fill="#000000">
+8s
</text>
<polyline fill="none" opacity="1" stroke="#000000" stroke-width="1" points="813,62 813,67 "/>
<text x="902" y="58" dy="-0.5ex" text-anchor="middle" font-family="sans-serif" font-size="9.67741935483871" opacity="1" fill="#000000">
+9s
</text>
<polyline fill="none" opacity="1" stroke="#000000" stroke-width="1" points="902,62 902,67 "/>
<rect x="83" y="73" width="99" height="45" opacity="0.75" fill="#FFFFFF" stroke="none"/>
<rect x="83" y="73" width="99" height="45" opacity="1" fill="none" stroke="#000000"/>
<text x="123" y="83" dy="0.76em" text-anchor="start" font-family="sans-serif" font-size="9.67741935483871" opacity="1" fill="#000000">
Temporary
</text>
<text x="123" y="98" dy="0.76em" text-anchor="start" font-family="sans-serif" font-size="9.67741935483871" opacity="1" fill="#000000">
Leaked
</text>
<rect x="93" y="83" width="10" height="10" opacity="1" fill="#3CB44B" stroke="none"/>
<rect x="93" y="98" width="10" height="10" opacity="1" fill="#E6194B" stroke="none"/>
</svg>
