<svg width="1024" height="768" viewBox="0 0 1024 768" xmlns="http://www.w3.org/2000/svg">
<rect x="0" y="0" width="1023" height="767" opacity="1" fill="#FFFFFF" stroke="none"/>
<polygon opacity="1" fill="#E6194B" points="78,600 78,600 79,599 80,597 81,597 82,596 83,595 84,594 85,593 86,593 86,592 87,592 88,590 89,590 90,590 91,590 92,590 93,588 94,587 95,587 95,586 96,586 97,585 98,584 99,584 100,584 101,583 102,581 103,581 103,581 104,581 105,581 106,580 107,580 108,580 109,580 110,579 111,579 112,578 112,578 113,578 114,576 115,576 116,576 117,576 118,575 119,575 120,575 120,574 121,573 122,573 123,573 124,572 125,572 126,571 127,569 128,569 129,569 129,568 130,568 131,567 132,566 133,566 134,566 135,566 136,565 137,564 138,563 138,563 139,563 140,562 141,561 142,561 143,560 144,560 145,560 146,558 146,558 147,558 148,556 149,554 150,553 151,552 152,552 153,552 154,551 155,551 155,550 156,549 157,548 158,547 159,547 160,546 161,545 162,544 163,544 163,544 164,543 165,543 166,541 167,541 168,540 169,538 170,538 171,537 172,537 172,536 173,536 174,534 175,534 176,534 177,533 178,531 179,531 180,530 180,529 181,528 182,528 183,527 184,527 185,526 186,525 187,524 188,523 189,522 189,520 190,519 191,519 192,519 193,519 194,519 195,518 196,518 197,518 198,517 198,517 199,516 200,516 201,514 202,513 203,513 204,513 205,512 206,511 206,511 207,510 208,510 209,509 210,508 211,508 212,507 213,506 214,506 215,505 215,505 216,503 217,503 218,502 219,502 220,501 221,501 222,500 223,499 223,498 224,497 225,497 226,496 227,496 228,496 229,495 230,494 231,492 232,492 232,492 233,491 234,491 235,490 236,490 237,490 238,488 239,487 240,486 240,485 241,485 242,483 243,483 244,482 245,482 246,481 247,481 248,481 249,480 249,479 250,478 251,478 252,478 253,477 254,476 255,475 256,475 257,474 258,474 258,474 259,473 260,473 261,472 262,471 263,470 264,470 265,469 266,469 266,469 267,469 268,468 269,468 270,467 271,466 272,466 273,466 274,465 275,465 275,465 276,465 277,464 278,464 279,464 280,463 281,462 282,461 283,461 283,461 284,461 285,460 286,460 287,460 288,460 289,459 290,458 291,458 292,458 292,457 293,456 294,456 295,455 296,454 297,452 298,451 299,450 300,450 301,449 301,449 302,448 303,448 304,447 305,446 306,446 307,445 308,445 309,445 309,445 310,444 311,443 312,443 313,443 314,442 315,442 316,442 317,441 318,440 318,440 319,440 320,439 321,439 322,438 323,437 324,437 325,437 326,435 326,434 327,433 328,432 329,432 330,430 331,430 332,429 333,428 334,428 335,426 335,426 336,425 337,425 338,425 339,424 340,424 341,423 342,423 343,422 343,421 344,420 345,419 346,418 347,418 348,416 349,415 350,415 351,415 352,415 352,414 353,413 354,412 355,412 356,411 357,411 358,409 359,408 360,408 361,408 361,408 362,407 363,407 364,407 365,406 366,406 367,406 368,404 369,403 369,402 370,402 371,402 372,402 373,402 374,401 375,401 376,401 377,401 378,400 378,399 379,398 380,398 381,397 382,396 383,396 384,395 385,394 386,394 386,394 387,394 388,394 389,393 390,393 391,392 392,392 393,392 394,392 395,392 395,391 396,391 397,391 398,391 399,390 400,390 401,389 402,389 403,389 403,386 404,386 405,386 406,386 407,385 408,384 409,384 410,383 411,383 412,383 412,382 413,382 414,382 415,380 416,380 417,379 418,379 419,378 420,378 421,378 421,377 422,376 423,376 424,375 425,375 426,374 427,373 428,372 429,372 429,370 430,370 431,370 432,370 433,369 434,368 435,367 436,366 437,365 438,365 438,364 439,364 440,363 441,362 442,362 443,362 444,362 445,361 446,360 446,360 447,359 448,359 449,359 450,358 451,357 452,357 453,355 454,355 455,354 455,354 456,354 457,353 458,353 459,353 460,352 461,351 462,350 463,349 464,349 464,349 465,348 466,347 467,347 468,347 469,347 470,347 471,346 472,346 472,345 473,345 474,345 475,344 476,344 477,344 478,344 479,343 480,343 481,341 481,341 482,341 483,340 484,339 485,339 486,338 487,338 488,337 489,337 489,337 490,337 491,337 492,337 493,336 494,335 495,335 496,334 497,334 498,333 498,333 499,333 500,332 501,330 502,329 503,328 504,328 505,328 506,327 506,327 507,326 508,326 509,326 510,325 511,324 512,323 513,322 514,322 515,322 515,322 516,321 517,321 518,321 519,321 520,321 521,320 522,319 523,319 524,319 524,319 525,318 526,318 527,318 528,317 529,317 530,317 531,317 532,316 532,316 533,316 534,314 535,314 536,313 537,312 538,311 539,311 540,310 541,310 541,309 542,309 543,308 544,307 545,306 546,306 547,305 548,304 549,304 549,304 550,303 551,303 552,302 553,302 554,301 555,301 556,300 557,299 558,299 558,298 559,298 560,297 561,297 562,297 563,297 564,296 565,296 566,296 566,296 567,296 568,296 569,295 570,295 571,295 572,294 573,292 574,292 575,292 575,291 576,289 577,289 578,287 579,287 580,286 581,285 582,285 583,285 584,283 584,282 585,282 586,281 587,281 588,281 589,281 590,280 591,280 592,280 592,280 593,279 594,279 595,278 596,278 597,278 598,278 599,277 600,276 601,276 601,275 602,274 603,274 604,273 605,273 606,272 607,272 608,270 609,270 609,270 610,269 611,269 612,269 613,268 614,268 615,268 616,267 617,267 618,267 618,267 619,266 620,266 621,266 622,265 623,265 624,264 625,264 626,264 626,264 627,263 628,262 629,262 630,261 631,261 632,259 633,259 634,258 635,257 635,257 636,257 637,256 638,255 639,255 640,254 641,253 642,252 643,252 644,252 644,251 645,249 646,248 647,248 648,247 649,247 650,247 651,247 652,246 652,246 653,244 654,243 655,243 656,241 657,241 658,241 659,241 660,240 661,239 661,239 662,239 663,237 664,237 665,237 666,236 667,235 668,233 669,233 669,233 670,232 671,231 672,231 673,231 674,231 675,231 676,230 677,229 678,228 678,228 679,227 680,227 681,226 682,226 683,225 684,225 685,225 686,224 687,224 687,224 688,223 689,221 690,221 691,220 692,220 693,219 694,219 695,219 695,219 696,219 697,219 698,219 699,218 700,217 701,216 702,216 703,215 704,215 704,214 705,214 706,213 707,213 708,212 709,211 710,211 711,211 712,211 712,211 713,209 714,209 715,209 716,208 717,208 718,207 719,207 720,206 721,206 721,206 722,206 723,205 724,205 725,204 726,204 727,203 728,203 729,203 729,202 730,201 731,201 732,200 733,200 734,200 735,199 736,198 737,198 738,198 738,197 739,197 740,196 741,196 742,195 743,195 744,194 745,193 746,193 747,192 747,191 748,191 749,191 750,191 751,190 752,189 753,188 754,188 755,188 755,188 756,187 757,185 758,184 759,184 760,183 761,183 762,183 763,182 764,182 764,181 765,181 766,180 767,180 768,179 769,179 770,178 771,177 772,176 772,175 773,175 774,175 775,174 776,173 777,172 778,171 779,171 780,171 781,171 781,170 782,170 783,170 784,170 785,169 786,169 787,168 788,167 789,167 789,166 790,165 791,165 792,165 793,164 794,164 795,164 796,163 797,162 798,162 798,161 799,161 800,161 801,160 802,160 803,160 804,160 805,160 806,158 807,158 807,158 808,157 809,157 810,156 811,156 812,155 813,154 814,154 815,154 815,153 816,153 817,153 818,153 819,152 820,151 821,151 822,151 823,150 824,150 824,149 825,148 826,148 827,147 828,147 829,147 830,146 831,145 832,145 832,145 833,145 834,144 835,144 836,144 837,143 838,143 839,142 840,141 841,141 841,140 842,139 843,139 844,139 845,138 846,137 847,137 848,136 849,135 850,135 850,134 851,134 852,133 853,133 854,132 855,132 856,131 857,129 858,129 858,128 859,128 860,128 861,127 862,127 863,126 864,125 865,125 866,124 867,123 867,123 868,122 869,122 870,122 871,121 872,121 873,120 874,120 875,119 875,119 876,118 877,118 878,118 879,118 880,117 881,116 882,116 883,116 884,116 884,116 885,114 886,114 887,114 888,113 889,113 890,112 891,112 892,112 892,111 893,111 894,111 895,111 896,111 897,110 898,110 899,110 900,109 901,109 901,108 902,108 903,108 904,107 905,107 906,106 907,106 908,105 909,105 910,104 910,104 911,104 912,103 913,102 914,102 915,101 916,101 917,100 918,100 918,98 919,98 920,97 921,95 922,95 923,94 924,93 925,93 926,92 927,91 927,91 928,91 929,91 930,90 931,90 932,89 933,88 934,87 935,86 935,86 936,85 937,84 938,83 939,83 940,82 941,82 942,81 943,81 944,80 944,80 945,79 946,79 947,78 948,78 949,77 950,77 951,77 952,77 952,75 953,75 954,74 955,74 956,74 957,74 958,74 959,73 960,73 961,73 961,73 962,73 963,72 964,71 965,71 966,70 967,70 968,70 969,68 970,68 970,68 971,68 972,68 973,68 973,68 974,68 974,699 78,699 "/>
<polyline fill="none" opacity="1" stroke="#E6194B" stroke-width="1" points="78,600 78,600 79,599 80,597 81,597 82,596 83,595 84,594 85,593 86,593 86,592 87,592 88,590 89,590 90,590 91,590 92,590 93,588 94,587 95,587 95,586 96,586 97,585 98,584 99,584 100,584 101,583 102,581 103,581 103,581 104,581 105,581 106,580 107,580 108,580 109,580 110,579 111,579 112,578 112,578 113,578 114,576 115,576 116,576 117,576 118,575 119,575 120,575 120,574 121,573 122,573 123,573 124,572 125,572 126,571 127,569 128,569 129,569 129,568 130,568 131,567 132,566 133,566 134,566 135,566 136,565 137,564 138,563 138,563 139,563 140,562 141,561 142,561 143,560 144,560 145,560 146,558 146,558 147,558 148,556 149,554 150,553 151,552 152,552 153,552 154,551 155,551 155,550 156,549 157,548 158,547 159,547 160,546 161,545 162,544 163,544 163,544 164,543 165,543 166,541 167,541 168,540 169,538 170,538 171,537 172,537 172,536 173,536 174,534 175,534 176,534 177,533 178,531 179,531 180,530 180,529 181,528 182,528 183,527 184,527 185,526 186,525 187,524 188,523 189,522 189,520 190,519 191,519 192,519 193,519 194,519 195,518 196,518 197,518 198,517 198,517 199,516 200,516 201,514 202,513 203,513 204,513 205,512 206,511 206,511 207,510 208,510 209,509 210,508 211,508 212,507 213,506 214,506 215,505 215,505 216,503 217,503 218,502 219,502 220,501 221,501 222,500 223,499 223,498 224,497 225,497 226,496 227,496 228,496 229,495 230,494 231,492 232,492 232,492 233,491 234,491 235,490 236,490 237,490 238,488 239,487 240,486 240,485 241,485 242,483 243,483 244,482 245,482 246,481 247,481 248,481 249,480 249,479 250,478 251,478 252,478 253,477 254,476 255,475 256,475 257,474 258,474 258,474 259,473 260,473 261,472 262,471 263,470 264,470 265,469 266,469 266,469 267,469 268,468 269,468 270,467 271,466 272,466 273,466 274,465 275,465 275,465 276,465 277,464 278,464 279,464 280,463 281,462 282,461 283,461 283,461 284,461 285,460 286,460 287,460 288,460 289,459 290,458 291,458 292,458 292,457 293,456 294,456 295,455 296,454 297,452 298,451 299,450 300,450 301,449 301,449 302,448 303,448 304,447 305,446 306,446 307,445 308,445 309,445 309,445 310,444 311,443 312,443 313,443 314,442 315,442 316,442 317,441 318,440 318,440 319,440 320,439 321,439 322,438 323,437 324,437 325,437 326,435 326,434 327,433 328,432 329,432 330,430 331,430 332,429 333,428 334,428 335,426 335,426 336,425 337,425 338,425 339,424 340,424 341,423 342,423 343,422 343,421 344,420 345,419 346,418 347,418 348,416 349,415 350,415 351,415 352,415 352,414 353,413 354,412 355,412 356,411 357,411 358,409 359,408 360,408 361,408 361,408 362,407 363,407 364,407 365,406 366,406 367,406 368,404 369,403 369,402 370,402 371,402 372,402 373,402 374,401 375,401 376,401 377,401 378,400 378,399 379,398 380,398 381,397 382,396 383,396 384,395 385,394 386,394 386,394 387,394 388,394 389,393 390,393 391,392 392,392 393,392 394,392 395,392 395,391 396,391 397,391 398,391 399,390 400,390 401,389 402,389 403,389 403,386 404,386 405,386 406,386 407,385 408,384 409,384 410,383 411,383 412,383 412,382 413,382 414,382 415,380 416,380 417,379 418,379 419,378 420,378 421,378 421,377 422,376 423,376 424,375 425,375 426,374 427,373 428,372 429,372 429,370 430,370 431,370 432,370 433,369 434,368 435,367 436,366 437,365 438,365 438,364 439,364 440,363 441,362 442,362 443,362 444,362 445,361 446,360 446,360 447,359 448,359 449,359 450,358 451,357 452,357 453,355 454,355 455,354 455,354 456,354 457,353 458,353 459,353 460,352 461,351 462,350 463,349 464,349 464,349 465,348 466,347 467,347 468,347 469,347 470,347 471,346 472,346 472,345 473,345 474,345 475,344 476,344 477,344 478,344 479,343 480,343 481,341 481,341 482,341 483,340 484,339 485,339 486,338 487,338 488,337 489,337 489,337 490,337 491,337 492,337 493,336 494,335 495,335 496,334 497,334 498,333 498,333 499,333 500,332 501,330 502,329 503,328 504,328 505,328 506,327 506,327 507,326 508,326 509,326 510,325 511,324 512,323 513,322 514,322 515,322 515,322 516,321 517,321 518,321 519,321 520,321 521,320 522,319 523,319 524,319 524,319 525,318 526,318 527,318 528,317 529,317 530,317 531,317 532,316 532,316 533,316 534,314 535,314 536,313 537,312 538,311 539,311 540,310 541,310 541,309 542,309 543,308 544,307 545,306 546,306 547,305 548,304 549,304 549,304 550,303 551,303 552,302 553,302 554,301 555,301 556,300 557,299 558,299 558,298 559,298 560,297 561,297 562,297 563,297 564,296 565,296 566,296 566,296 567,296 568,296 569,295 570,295 571,295 572,294 573,292 574,292 575,292 575,291 576,289 577,289 578,287 579,287 580,286 581,285 582,285 583,285 584,283 584,282 585,282 586,281 587,281 588,281 589,281 590,280 591,280 592,280 592,280 593,279 594,279 595,278 596,278 597,278 598,278 599,277 600,276 601,276 601,275 602,274 603,274 604,273 605,273 606,272 607,272 608,270 609,270 609,270 610,269 611,269 612,269 613,268 614,268 615,268 616,267 617,267 618,267 618,267 619,266 620,266 621,266 622,265 623,265 624,264 625,264 626,264 626,264 627,263 628,262 629,262 630,261 631,261 632,259 633,259 634,258 635,257 635,257 636,257 637,256 638,255 639,255 640,254 641,253 642,252 643,252 644,252 644,251 645,249 646,248 647,248 648,247 649,247 650,247 651,247 652,246 652,246 653,244 654,243 655,243 656,241 657,241 658,241 659,241 660,240 661,239 661,239 662,239 663,237 664,237 665,237 666,236 667,235 668,233 669,233 669,233 670,232 671,231 672,231 673,231 674,231 675,231 676,230 677,229 678,228 678,228 679,227 680,227 681,226 682,226 683,225 684,225 685,225 686,224 687,224 687,224 688,223 689,221 690,221 691,220 692,220 693,219 694,219 695,219 695,219 696,219 697,219 698,219 699,218 700,217 701,216 702,216 703,215 704,215 704,214 705,214 706,213 707,213 708,212 709,211 710,211 711,211 712,211 712,211 713,209 714,209 715,209 716,208 717,208 718,207 719,207 720,206 721,206 721,206 722,206 723,205 724,205 725,204 726,204 727,203 728,203 729,203 729,202 730,201 731,201 732,200 733,200 734,200 735,199 736,198 737,198 738,198 738,197 739,197 740,196 741,196 742,195 743,195 744,194 745,193 746,193 747,192 747,191 748,191 749,191 750,191 751,190 752,189 753,188 754,188 755,188 755,188 756,187 757,185 758,184 759,184 760,183 761,183 762,183 763,182 764,182 764,181 765,181 766,180 767,180 768,179 769,179 770,178 771,177 772,176 772,175 773,175 774,175 775,174 776,173 777,172 778,171 779,171 780,171 781,171 781,170 782,170 783,170 784,170 785,169 786,169 787,168 788,167 789,167 789,166 790,165 791,165 792,165 793,164 794,164 795,164 796,163 797,162 798,162 798,161 799,161 800,161 801,160 802,160 803,160 804,160 805,160 806,158 807,158 807,158 808,157 809,157 810,156 811,156 812,155 813,154 814,154 815,154 815,153 816,153 817,153 818,153 819,152 820,151 821,151 822,151 823,150 824,150 824,149 825,148 826,148 827,147 828,147 829,147 830,146 831,145 832,145 832,145 833,145 834,144 835,144 836,144 837,143 838,143 839,142 840,141 841,141 841,140 842,139 843,139 844,139 845,138 846,137 847,137 848,136 849,135 850,135 850,134 851,134 852,133 853,133 854,132 855,132 856,131 857,129 858,129 858,128 859,128 860,128 861,127 862,127 863,126 864,125 865,125 866,124 867,123 867,123 868,122 869,122 870,122 871,121 872,121 873,120 874,120 875,119 875,119 876,118 877,118 878,118 879,118 880,117 881,116 882,116 883,116 884,116 884,116 885,114 886,114 887,114 888,113 889,113 890,112 891,112 892,112 892,111 893,111 894,111 895,111 896,111 897,110 898,110 899,110 900,109 901,109 901,108 902,108 903,108 904,107 905,107 906,106 907,106 908,105 909,105 910,104 910,104 911,104 912,103 913,102 914,102 915,101 916,101 917,100 918,100 918,98 919,98 920,97 921,95 922,95 923,94 924,93 925,93 926,92 927,91 927,91 928,91 929,91 930,90 931,90 932,89 933,88 934,87 935,86 935,86 936,85 937,84 938,83 939,83 940,82 941,82 942,81 943,81 944,80 944,80 945,79 946,79 947,78 948,78 949,77 950,77 951,77 952,77 952,75 953,75 954,74 955,74 956,74 957,74 958,74 959,73 960,73 961,73 961,73 962,73 963,72 964,71 965,71 966,70 967,70 968,70 969,68 970,68 970,68 971,68 972,68 973,68 973,68 974,68 "/>
<line opacity="0.1" stroke="#000000" stroke-width="1" x1="83" y1="699" x2="83" y2="67"/>
<line opacity="0.1" stroke="#000000" stroke-width="1" x1="92" y1="699" x2="92" y2="67"/>
<line opacity="0.1" stroke="#000000" stroke-width="1" x1="101" y1="699" x2="101" y2="67"/>
<line opacity="0.1" stroke="#000000" stroke-width="1" x1="110" y1="699" x2="110" y2="67"/>
<line opacity="0.1" stroke="#000000" stroke-width="1" x1="120" y1="699" x2="120" y2="67"/>
<line opacity="0.1" stroke="#000000" stroke-width="1" x1="129" y1="699" x2="129" y2="67"/>
<line opacity="0.1" stroke="#000000" stroke-width="1" x1="138" y1="699" x2="138" y2="67"/>
<line opacity="0.1" stroke="#000000" stroke-width="1" x1="147" y1="699" x2="147" y2="67"/>
<line opacity="0.1" stroke="#000000" stroke-width="1" x1="157" y1="699" x2="157" y2="67"/>
<line opacity="0.1" stroke="#000000" stroke-width="1" x1="166" y1="699" x2="166" y2="67"/>
<line opacity="0.1" stroke="#000000" stroke-width="1" x1="175" y1="699" x2="175" y2="67"/>
<line opacity="0.1" stroke="#000000" stroke-width="1" x1="185" y1="699" x2="185" y2="67"/>
<line opacity="0.1" stroke="#000000" stroke-width="1" x1="194" y1="699" x2="194" y2="67"/>
<line opacity="0.1" stroke="#000000" stroke-width="1" x1="203" y1="699" x2="203" y2="67"/>
<line opacity="0.1" stroke="#000000" stroke-width="1" x1="212" y1="699" x2="212" y2="67"/>
<line opacity="0.1" stroke="#000000" stroke-width="1" x1="222" y1="699" x2="222" y2="67"/>
<line opacity="0.1" stroke="#000000" stroke-width="1" x1="231" y1="699" x2="231" y2="67"/>
<line opacity="0.1" stroke="#000000" stroke-width="1" x1="240" y1="699" x2="240" y2="67"/>
<line opacity="0.1" stroke="#000000" stroke-width="1" x1="249" y1="699" x2="249" y2="67"/>
<line opacity="0.1" stroke="#000000" stroke-width="1" x1="259" y1="699" x2="259" y2="67"/>
<line opacity="0.1" stroke="#000000" stroke-width="1" x1="268" y1="699" x2="268" y2="67"/>
<line opacity="0.1" stroke="#000000" stroke-width="1" x1="277" y1="699" x2="277" y2="67"/>
<line opacity="0.1" stroke="#000000" stroke-width="1" x1="286" y1="699" x2="286" y2="67"/>
<line opacity="0.1" stroke="#000000" stroke-width="1" x1="296" y1="699" x2="296" y2="67"/>
<line opacity="0.1" stroke="#000000" stroke-width="1" x1="305" y1="699" x2="305" y2="67"/>
<line opacity="0.1" stroke="#000000" stroke-width="1" x1="314" y1="699" x2="314" y2="67"/>
<line opacity="0.1" stroke="#000000" stroke-width="1" x1="323" y1="699" x2="323" y2="67"/>
<line opacity="0.1" stroke="#000000" stroke-width="1" x1="333" y1="699" x2="333" y2="67"/>
<line opacity="0.1" stroke="#000000" stroke-width="1" x1="342" y1="699" x2="342" y2="67"/>
<line opacity="0.1" stroke="#000000" stroke-width="1" x1="351" y1="699" x2="351" y2="67"/>
<line opacity="0.1" stroke="#000000" stroke-width="1" x1="360" y1="699" x2="360" y2="67"/>
<line opacity="0.1" stroke="#000000" stroke-width="1" x1="370" y1="699" x2="370" y2="67"/>
<line opacity="0.1" stroke="#000000" stroke-width="1" x1="379" y1="699" x2="379" y2="67"/>
<line opacity="0.1" stroke="#000000" stroke-width="1" x1="388" y1="699" x2="388" y2="67"/>
<line opacity="0.1" stroke="#000000" stroke-width="1" x1="398" y1="699" x2="398" y2="67"/>
<line opacity="0.1" stroke="#000000" stroke-width="1" x1="407" y1="699" x2="407" y2="67"/>
<line opacity="0.1" stroke="#000000" stroke-width="1" x1="416" y1="699" x2="416" y2="67"/>
<line opacity="0.1" stroke="#000000" stroke-width="1" x1="425" y1="699" x2="425" y2="67"/>
<line opacity="0.1" stroke="#000000" stroke-width="1" x1="435" y1="699" x2="435" y2="67"/>
<line opacity="0.1" stroke="#000000" stroke-width="1" x1="444" y1="699" x2="444" y2="67"/>
<line opacity="0.1" stroke="#000000" stroke-width="1" x1="453" y1="699" x2="453" y2="67"/>
<line opacity="0.1" stroke="#000000" stroke-width="1" x1="462" y1="699" x2="462" y2="67"/>
<line opacity="0.1" stroke="#000000" stroke-width="1" x1="472" y1="699" x2="472" y2="67"/>
<line opacity="0.1" stroke="#000000" stroke-width="1" x1="481" y1="699" x2="481" y2="67"/>
<line opacity="0.1" stroke="#000000" stroke-width="1" x1="490" y1="699" x2="490" y2="67"/>
<line opacity="0.1" stroke="#000000" stroke-width="1" x1="499" y1="699" x2="499" y2="67"/>
<line opacity="0.1" stroke="#000000" stroke-width="1" x1="509" y1="699" x2="509" y2="67"/>
<line opacity="0.1" stroke="#000000" stroke-width="1" x1="518" y1="699" x2="518" y2="67"/>
<line opacity="0.1" stroke="#000000" stroke-width="1" x1="527" y1="699" x2="527" y2="67"/>
<line opacity="0.1" stroke="#000000" stroke-width="1" x1="536" y1="699" x2="536" y2="67"/>
<line opacity="0.1" stroke="#000000" stroke-width="1" x1="546" y1="699" x2="546" y2="67"/>
<line opacity="0.1" stroke="#000000" stroke-width="1" x1="555" y1="699" x2="555" y2="67"/>
<line opacity="0.1" stroke="#000000" stroke-width="1" x1="564" y1="699" x2="564" y2="67"/>
<line opacity="0.1" stroke="#000000" stroke-width="1" x1="573" y1="699" x2="573" y2="67"/>
<line opacity="0.1" stroke="#000000" stroke-width="1" x1="583" y1="699" x2="583" y2="67"/>
<line opacity="0.1" stroke="#000000" stroke-width="1" x1="592" y1="699" x2="592" y2="67"/>
<line opacity="0.1" stroke="#000000" stroke-width="1" x1="601" y1="699" x2="601" y2="67"/>
<line opacity="0.1" stroke="#000000" stroke-width="1" x1="611" y1="699" x2="611" y2="67"/>
<line opacity="0.1" stroke="#000000" stroke-width="1" x1="620" y1="699" x2="620" y2="67"/>
<line opacity="0.1" stroke="#000000" stroke-width="1" x1="629" y1="699" x2="629" y2="67"/>
<line opacity="0.1" stroke="#000000" stroke-width="1" x1="638" y1="699" x2="638" y2="67"/>
<line opacity="0.1" stroke="#000000" stroke-width="1" x1="648" y1="699" x2="648" y2="67"/>
<line opacity="0.1" stroke="#000000" stroke-width="1" x1="657" y1="699" x2="657" y2="67"/>
<line opacity="0.1" stroke="#000000" stroke-width="1" x1="666" y1="699" x2="666" y2="67"/>
<line opacity="0.1" stroke="#000000" stroke-width="1" x1="675" y1="699" x2="675" y2="67"/>
<line opacity="0.1" stroke="#000000" stroke-width="1" x1="685" y1="699" x2="685" y2="67"/>
<line opacity="0.1" stroke="#000000" stroke-width="1" x1="694" y1="699" x2="694" y2="67"/>
<line opacity="0.1" stroke="#000000" stroke-width="1" x1="703" y1="699" x2="703" y2="67"/>
<line opacity="0.1" stroke="#000000" stroke-width="1" x1="712" y1="699" x2="712" y2="67"/>
<line opacity="0.1" stroke="#000000" stroke-width="1" x1="722" y1="699" x2="722" y2="67"/>
<line opacity="0.1" stroke="#000000" stroke-width="1" x1="731" y1="699" x2="731" y2="67"/>
<line opacity="0.1" stroke="#000000" stroke-width="1" x1="740" y1="699" x2="740" y2="67"/>
<line opacity="0.1" stroke="#000000" stroke-width="1" x1="749" y1="699" x2="749" y2="67"/>
<line opacity="0.1" stroke="#000000" stroke-width="1" x1="759" y1="699" x2="759" y2="67"/>
<line opacity="0.1" stroke="#000000" stroke-width="1" x1="768" y1="699" x2="768" y2="67"/>
<line opacity="0.1" stroke="#000000" stroke-width="1" x1="777" y1="699" x2="777" y2="67"/>
<line opacity="0.1" stroke="#000000" stroke-width="1" x1="786" y1="699" x2="786" y2="67"/>
<line opacity="0.1" stroke="#000000" stroke-width="1" x1="796" y1="699" x2="796" y2="67"/>
<line opacity="0.1" stroke="#000000" stroke-width="1" x1="805" y1="699" x2="805" y2="67"/>
<line opacity="0.1" stroke="#000000" stroke-width="1" x1="814" y1="699" x2="814" y2="67"/>
<line opacity="0.1" stroke="#000000" stroke-width="1" x1="823" y1="699" x2="823" y2="67"/>
<line opacity="0.1" stroke="#000000" stroke-width="1" x1="833" y1="699" x2="833" y2="67"/>
<line opacity="0.1" stroke="#000000" stroke-width="1" x1="842" y1="699" x2="842" y2="67"/>
<line opacity="0.1" stroke="#000000" stroke-width="1" x1="851" y1="699" x2="851" y2="67"/>
<line opacity="0.1" stroke="#000000" stroke-width="1" x1="861" y1="699" x2="861" y2="67"/>
<line opacity="0.1" stroke="#000000" stroke-width="1" x1="870" y1="699" x2="870" y2="67"/>
<line opacity="0.1" stroke="#000000" stroke-width="1" x1="879" y1="699" x2="879" y2="67"/>
<line opacity="0.1" stroke="#000000" stroke-width="1" x1="888" y1="699" x2="888" y2="67"/>
<line opacity="0.1" stroke="#000000" stroke-width="1" x1="898" y1="699" x2="898" y2="67"/>
<line opacity="0.1" stroke="#000000" stroke-width="1" x1="907" y1="699" x2="907" y2="67"/>
<line opacity="0.1" stroke="#000000" stroke-width="1" x1="916" y1="699" x2="916" y2="67"/>
<line opacity="0.1" stroke="#000000" stroke-width="1" x1="925" y1="699" x2="925" y2="67"/>
<line opacity="0.1" stroke="#000000" stroke-width="1" x1="935" y1="699" x2="935" y2="67"/>
<line opacity="0.1" stroke="#000000" stroke-width="1" x1="944" y1="699" x2="944" y2="67"/>
<line opacity="0.1" stroke="#000000" stroke-width="1" x1="953" y1="699" x2="953" y2="67"/>
<line opacity="0.1" stroke="#000000" stroke-width="1" x1="962" y1="699" x2="962" y2="67"/>
<line opacity="0.1" stroke="#000000" stroke-width="1" x1="972" y1="699" x2="972" y2="67"/>
<line opacity="0.1" stroke="#000000" stroke-width="1" x1="78" y1="699" x2="974" y2="699"/>
<line opacity="0.1" stroke="#000000" stroke-width="1" x1="78" y1="686" x2="974" y2="686"/>
<line opacity="0.1" stroke="#000000" stroke-width="1" x1="78" y1="673" x2="974" y2="673"/>
<line opacity="0.1" stroke="#000000" stroke-width="1" x1="78" y1="661" x2="974" y2="661"/>
<line opacity="0.1" stroke="#000000" stroke-width="1" x1="78" y1="648" x2="974" y2="648"/>
<line opacity="0.1" stroke="#000000" stroke-width="1" x1="78" y1="636" x2="974" y2="636"/>
<line opacity="0.1" stroke="#000000" stroke-width="1" x1="78" y1="623" x2="974" y2="623"/>
<line opacity="0.1" stroke="#000000" stroke-width="1" x1="78" y1="610" x2="974" y2="610"/>
<line opacity="0.1" stroke="#000000" stroke-width="1" x1="78" y1="598" x2="974" y2="598"/>
<line opacity="0.1" stroke="#000000" stroke-width="1" x1="78" y1="585" x2="974" y2="585"/>
<line opacity="0.1" stroke="#000000" stroke-width="1" x1="78" y1="573" x2="974" y2="573"/>
<line opacity="0.1" stroke="#000000" stroke-width="1" x1="78" y1="560" x2="974" y2="560"/>
<line opacity="0.1" stroke="#000000" stroke-width="1" x1="78" y1="547" x2="974" y2="547"/>
<line opacity="0.1" stroke="#000000" stroke-width="1" x1="78" y1="535" x2="974" y2="535"/>
<line opacity="0.1" stroke="#000000" stroke-width="1" x1="78" y1="522" x2="974" y2="522"/>
<line opacity="0.1" stroke="#000000" stroke-width="1" x1="78" y1="510" x2="974" y2="510"/>
<line opacity="0.1" stroke="#000000" stroke-width="1" x1="78" y1="497" x2="974" y2="497"/>
<line opacity="0.1" stroke="#000000" stroke-width="1" x1="78" y1="484" x2="974" y2="484"/>
<line opacity="0.1" stroke="#000000" stroke-width="1" x1="78" y1="472" x2="974" y2="472"/>
<line opacity="0.1" stroke="#000000" stroke-width="1" x1="78" y1="459" x2="974" y2="459"/>
<line opacity="0.1" stroke="#000000" stroke-width="1" x1="78" y1="447" x2="974" y2="447"/>
<line opacity="0.1" stroke="#000000" stroke-width="1" x1="78" y1="434" x2="974" y2="434"/>
<line opacity="0.1" stroke="#000000" stroke-width="1" x1="78" y1="421" x2="974" y2="421"/>
<line opacity="0.1" stroke="#000000" stroke-width="1" x1="78" y1="409" x2="974" y2="409"/>
<line opacity="0.1" stroke="#000000" stroke-width="1" x1="78" y1="396" x2="974" y2="396"/>
<line opacity="0.1" stroke="#000000" stroke-width="1" x1="78" y1="384" x2="974" y2="384"/>
<line opacity="0.1" stroke="#000000" stroke-width="1" x1="78" y1="371" x2="974" y2="371"/>
<line opacity="0.1" stroke="#000000" stroke-width="1" x1="78" y1="358" x2="974" y2="358"/>
<line opacity="0.1" stroke="#000000" stroke-width="1" x1="78" y1="346" x2="974" y2="346"/>
<line opacity="0.1" stroke="#000000" stroke-width="1" x1="78" y1="333" x2="974" y2="333"/>
<line opacity="0.1" stroke="#000000" stroke-width="1" x1="78" y1="321" x2="974" y2="321"/>
<line opacity="0.1" stroke="#000000" stroke-width="1" x1="78" y1="308" x2="974" y2="308"/>
<line opacity="0.1" stroke="#000000" stroke-width="1" x1="78" y1="295" x2="974" y2="295"/>
<line opacity="0.1" stroke="#000000" stroke-width="1" x1="78" y1="283" x2="974" y2="283"/>
<line opacity="0.1" stroke="#000000" stroke-width="1" x1="78" y1="270" x2="974" y2="270"/>
<line opacity="0.1" stroke="#000000" stroke-width="1" x1="78" y1="258" x2="974" y2="258"/>
<line opacity="0.1" stroke="#000000" stroke-width="1" x1="78" y1="245" x2="974" y2="245"/>
<line opacity="0.1" stroke="#000000" stroke-width="1" x1="78" y1="232" x2="974" y2="232"/>
<line opacity="0.1" stroke="#000000" stroke-width="1" x1="78" y1="220" x2="974" y2="220"/>
<line opacity="0.1" stroke="#000000" stroke-width="1" x1="78" y1="207" x2="974" y2="207"/>
<line opacity="0.1" stroke="#000000" stroke-width="1" x1="78" y1="195" x2="974" y2="195"/>
<line opacity="0.1" stroke="#000000" stroke-width="1" x1="78" y1="182" x2="974" y2="182"/>
<line opacity="0.1" stroke="#000000" stroke-width="1" x1="78" y1="170" x2="974" y2="170"/>
<line opacity="0.1" stroke="#000000" stroke-width="1" x1="78" y1="157" x2="974" y2="157"/>
<line opacity="0.1" stroke="#000000" stroke-width="1" x1="78" y1="144" x2="974" y2="144"/>
<line opacity="0.1" stroke="#000000" stroke-width="1" x1="78" y1="132" x2="974" y2="132"/>
<line opacity="0.1" stroke="#000000" stroke-width="1" x1="78" y1="119" x2="974" y2="119"/>
<line opacity="0.1" stroke="#000000" stroke-width="1" x1="78" y1="107" x2="974" y2="107"/>
<line opacity="0.1" stroke="#000000" stroke-width="1" x1="78" y1="94" x2="974" y2="94"/>
<line opacity="0.1" stroke="#000000" stroke-width="1" x1="78" y1="81" x2="974" y2="81"/>
<line opacity="0.1" stroke="#000000" stroke-width="1" x1="78" y1="69" x2="974" y2="69"/>
<text x="8" y="384" dy="0.76em" text-anchor="middle" font-family="sans-serif" font-size="9.67741935483871" opacity="1" fill="#000000" transform="rotate(270, 8, 384)">
Memory usage
</text>
<text x="526" y="760" dy="-0.5ex" text-anchor="middle" font-family="sans-serif" font-size="9.67741935483871" opacity="1" fill="#000000">
Time
</text>
<line opacity="0.2" stroke="#000000" stroke-width="1" x1="166" y1="699" x2="166" y2="67"/>
<line opacity="0.2" stroke="#000000" stroke-width="1" x1="259" y1="699" x2="259" y2="67"/>
<line opacity="0.2" stroke="#000000" stroke-width="1" x1="351" y1="699" x2="351" y2="67"/>
<line opacity="0.2" stroke="#000000" stroke-width="1" x1="444" y1="699" x2="444" y2="67"/>
<line opacity="0.2" stroke="#000000" stroke-width="1" x1="536" y1="699" x2="536" y2="67"/>
<line opacity="0.2" stroke="#000000" stroke-width="1" x1="629" y1="699" x2="629" y2="67"/>
<line opacity="0.2" stroke="#000000" stroke-width="1" x1="722" y1="699" x2="722" y2="67"/>
<line opacity="0.2" stroke="#000000" stroke-width="1" x1="814" y1="699" x2="814" y2="67"/>
<line opacity="0.2" stroke="#000000" stroke-width="1" x1="907" y1="699" x2="907" y2="67"/>
<line opacity="0.2" stroke="#000000" stroke-width="1" x1="78" y1="699" x2="974" y2="699"/>
<line opacity="0.2" stroke="#000000" stroke-width="1" x1="78" y1="573" x2="974" y2="573"/>
<line opacity="0.2" stroke="#000000" stroke-width="1" x1="78" y1="447" x2="974" y2="447"/>
<line opacity="0.2" stroke="#000000" stroke-width="1" x1="78" y1="321" x2="974" y2="321"/>
<line opacity="0.2" stroke="#000000" stroke-width="1" x1="78" y1="195" x2="974" y2="195"/>
<line opacity="0.2" stroke="#000000" stroke-width="1" x1="78" y1="69" x2="974" y2="69"/>
<polyline fill="none" opacity="1" stroke="#000000" stroke-width="1" points="77,68 77,700 "/>
<text x="68" y="699" dy="0.5ex" text-anchor="end" font-family="sans-serif" font-size="9.67741935483871" opacity="1" fill="#000000">
0 KB
</text>
<polyline fill="none" opacity="1" stroke="#000000" stroke-width="1" points="72,699 77,699 "/>
<text x="68" y="573" dy="0.5ex" text-anchor="end" font-family="sans-serif" font-size="9.67741935483871" opacity="1" fill="#000000">
97 KB
</text>
<polyline fill="none" opacity="1" stroke="#000000" stroke-width="1" points="72,573 77,573 "/>
<text x="68" y="447" dy="0.5ex" text-anchor="end" font-family="sans-serif" font-size="9.67741935483871" opacity="1" fill="#000000">
195 KB
</text>
<polyline fill="none" opacity="1" stroke="#000000" stroke-width="1" points="72,447 77,447 "/>
<text x="68" y="321" dy="0.5ex" text-anchor="end" font-family="sans-serif" font-size="9.67741935483871" opacity="1" fill="#000000">
292 KB
</text>
<polyline fill="none" opacity="1" stroke="#000000" stroke-width="1" points="72,321 77,321 "/>
<text x="68" y="195" dy="0.5ex" text-anchor="end" font-family="sans-serif" font-size="9.67741935483871" opacity="1" fill="#000000">
390 KB
</text>
<polyline fill="none" opacity="1" stroke="#000000" stroke-width="1" points="72,195 77,195 "/>
<text x="68" y="69" dy="0.5ex" text-anchor="end" font-family="sans-serif" font-size="9.67741935483871" opacity="1" fill="#000000">
488 KB
</text>
<polyline fill="none" opacity="1" stroke="#000000" stroke-width="1" points="72,69 77,69 "/>
<polyline fill="none" opacity="1" stroke="#000000" stroke-width="1" points="78,700 974,700 "/>
<text x="166" y="710" dy="0.76em" text-anchor="middle" font-family="sans-serif" font-size="9.67741935483871" opacity="1" fill="#000000">
06:26:08
</text>
<polyline fill="none" opacity="1" stroke="#000000" stroke-width="1" points="166,700 166,705 "/>
<text x="259" y="710" dy="0.76em" text-anchor="middle" font-family="sans-serif" font-size="9.67741935483871" opacity="1" fill="#000000">
06:26:09
</text>
<polyline fill="none" opacity="1" stroke="#000000" stroke-width="1" points="259,700 259,705 "/>
<text x="351" y="710" dy="0.76em" text-anchor="middle" font-family="sans-serif" font-size="9.67741935483871" opacity="1" fill="#000000">
06:26:10
</text>
<polyline fill="none" opacity="1" stroke="#000000" stroke-width="1" points="351,700 351,705 "/>
<text x="444" y="710" dy="0.76em" text-anchor="middle" font-family="sans-serif" font-size="9.67741935483871" opacity="1" fill="#000000">
06:26:11
</text>
<polyline fill="none" opacity="1" stroke="#000000" stroke-width="1" points="444,700 444,705 "/>
<text x="536" y="710" dy="0.76em" text-anchor="middle" font-family="sans-serif" font-size="9.67741935483871" opacity="1" fill="#000000">
06:26:12
</text>
<polyline fill="none" opacity="1" stroke="#000000" stroke-width="1" points="536,700 536,705 "/>
<text x="629" y="710" dy="0.76em" text-anchor="middle" font-family="sans-serif" font-size="9.67741935483871" opacity="1" fill="#000000">
06:26:13
</text>
<polyline fill="none" opacity="1" stroke="#000000" stroke-width="1" points="629,700 629,705 "/>
<text x="722" y="710" dy="0.76em" text-anchor="middle" font-family="sans-serif" font-size="9.67741935483871" opacity="1" fill="#000000">
06:26:14
</text>
<polyline fill="none" opacity="1" stroke="#000000" stroke-width="1" points="722,700 722,705 "/>
<text x="814" y="710" dy="0.76em" text-anchor="middle" font-family="sans-serif" font-size="9.67741935483871" opacity="1" fill="#000000">
06:26:15
</text>
<polyline fill="none" opacity="1" stroke="#000000" stroke-width="1" points="814,700 814,705 "/>
<text x="907" y="710" dy="0.76em" text-anchor="middle" font-family="sans-serif" font-size="9.67741935483871" opacity="1" fill="#000000">
06:26:16
</text>
<polyline fill="none" opacity="1" stroke="#000000" stroke-width="1" points="907,700 907,705 "/>
<polyline fill="none" opacity="1" stroke="#000000" stroke-width="1" points="78,67 974,67 "/>
<text x="166" y="58" dy="-0.5ex" text-anchor="middle" font-family="sans-serif" font-size="9.67741935483871" opacity="1" fill="#000000">
+955ms
</text>
<polyline fill="none" opacity="1" stroke="#000000" stroke-width="1" points="166,62 166,67 "/>
<text x="259" y="58" dy="-0.5ex" text-anchor="middle" font-family="sans-serif" font-size="9.67741935483871" opacity="1" fill="#000000">
+1s
</text>
<polyline fill="none" opacity="1" stroke="#000000" stroke-width="1" points="259,62 259,67 "/>
<text x="351" y="58" dy="-0.5ex" text-anchor="middle" font-family="sans-serif" font-size="9.67741935483871" opacity="1" fill="#000000">
+2s
</text>
<polyline fill="none" opacity="1" stroke="#000000" stroke-width="1" points="351,62 351,67 "/>
<text x="444" y="58" dy="-0.5ex" text-anchor="middle" font-family="sans-serif" font-size="9.67741935483871" opacity="1" fill="#000000">
+3s
</text>
<polyline fill="none" opacity="1" stroke="#000000" stroke-width="1" points="444,62 444,67 "/>
<text x="536" y="58" dy="-0.5ex" text-anchor="middle" font-family="sans-serif" font-size="9.67741935483871" opacity="1" fill="#000000">
+4s
</text>
<polyline fill="none" opacity="1" stroke="#000000" stroke-width="1" points="536,62 536,67 "/>
<text x="629" y="58" dy="-0.5ex" text-anchor="middle" font-family="sans-serif" font-size="9.67741935483871" opacity="1" fill="#000000">
+5s
</text>
<polyline fill="none" opacity="1" stroke="#000000" stroke-width="1" points="629,62 629,67 "/>
<text x="722" y="58" dy="-0.5ex" text-anchor="middle" font-family="sans-serif" font-size="9.67741935483871" opacity="1" fill="#000000">
+6s
</text>
<polyline fill="none" opacity="1" stroke="#000000" stroke-width="1" points="722,62 722,67 "/>
<text x="814" y="58" dy="-0.5ex" text-anchor="middle" font-family="sans-serif" font-size="9.67741935483871" opacity="1" fill="#000000">
+7s
</text>
<polyline fill="none" opacity="1" stroke="#000000" stroke-width="1" points="814,62 814,67 "/>
<text x="907" y="58" dy="-0.5ex" text-anchor="middle" font-family="sans-serif" font-size="9.67741935483871" opacity="1" fill="#000000">
+8s
</text>
<polyline fill="none" opacity="1" stroke="#000000" stroke-width="1" points="907,62 907,67 "/>
<rect x="83" y="73" width="83" height="30" opacity="0.75" fill="#FFFFFF" stroke="none"/>
<rect x="83" y="73" width="83" height="30" opacity="1" fill="none" stroke="#000000"/>
<text x="123" y="83" dy="0.76em" text-anchor="start" font-family="sans-serif" font-size="9.67741935483871" opacity="1" fill="#000000">
Leaked
</text>
<rect x="93" y="83" width="10" height="10" opacity="1" fill="#E6194B" stroke="none"/>
</svg>
