<svg width="1024" height="768" viewBox="0 0 1024 768" xmlns="http://www.w3.org/2000/svg">
<rect x="0" y="0" width="1024" height="768" opacity="1" fill="#FFFFFF" stroke="none"/>
<polygon opacity="1" fill="#E6194B" points="301,667 302,635 302,617 303,600 304,594 304,580 305,570 306,559 306,560 307,560 308,561 308,560 309,569 310,567 311,569 311,574 312,573 313,573 313,576 314,578 315,579 315,575 316,572 317,569 317,565 318,568 319,565 319,567 320,567 321,568 321,568 322,567 323,559 323,552 324,546 325,546 325,544 326,542 327,537 327,538 328,542 329,540 329,537 330,530 331,525 331,522 332,515 333,521 333,527 334,532 335,533 335,531 336,533 337,535 337,527 338,531 339,528 339,521 340,519 341,524 341,530 342,529 343,534 343,528 344,526 345,524 345,533 346,531 347,533 347,534 348,538 349,537 349,541 350,545 351,546 351,548 352,552 353,542 353,544 354,540 355,535 355,535 356,538 357,539 358,541 358,544 359,546 360,544 360,548 361,552 362,563 362,556 363,555 364,562 364,566 365,557 366,557 366,558 367,564 368,562 368,560 369,561 370,558 370,550 371,547 372,549 372,547 373,550 374,555 374,556 375,551 376,552 376,550 377,543 378,541 378,542 379,543 380,546 380,549 381,553 382,552 382,549 383,546 384,543 384,546 385,537 386,531 386,523 387,523 388,528 388,532 389,525 390,525 390,529 391,528 392,529 392,530 393,523 394,517 394,512 395,510 396,508 396,500 397,499 398,501 398,508 399,516 400,525 400,526 401,532 402,542 402,536 403,535 404,534 404,523 405,523 406,535 407,542 407,541 408,535 409,538 409,534 410,526 411,520 411,517 412,520 413,523 413,528 414,527 415,524 415,523 416,526 417,537 417,536 418,534 419,531 419,529 420,528 421,530 421,531 422,530 423,532 423,539 424,536 425,531 425,535 426,540 427,539 427,536 428,538 429,529 429,531 430,522 431,523 431,528 432,524 433,526 433,529 434,532 435,532 435,519 436,515 437,514 437,521 438,507 439,502 439,495 440,494 441,499 441,490 442,487 443,486 443,488 444,496 445,488 445,488 446,486 447,487 447,492 448,492 449,486 449,481 450,478 451,480 451,477 452,480 453,486 454,486 454,488 455,488 456,486 456,489 457,489 458,495 458,495 459,487 460,490 460,477 461,474 462,474 462,473 463,473 464,474 464,467 465,464 466,465 466,462 467,465 468,465 468,466 469,474 470,471 470,463 471,462 472,455 472,458 473,458 474,460 474,461 475,449 476,452 476,451 477,455 478,459 478,465 479,458 480,452 480,451 481,453 482,450 482,450 483,453 484,463 484,464 485,466 486,465 486,469 487,472 488,468 488,472 489,472 490,473 490,473 491,467 492,474 492,473 493,471 494,477 494,475 495,471 496,464 496,470 497,469 498,468 498,473 499,470 500,465 501,464 501,471 502,472 503,468 503,465 504,466 505,473 505,475 506,474 507,470 507,475 508,467 509,463 509,462 510,472 511,467 511,459 512,459 513,461 513,454 514,452 515,453 515,454 516,455 517,456 517,453 518,460 519,459 519,456 520,453 521,451 521,454 522,463 523,448 523,448 524,454 525,450 525,454 526,460 527,453 527,454 528,451 529,458 529,461 530,475 531,474 531,474 532,469 533,467 533,475 534,468 535,470 535,469 536,470 537,473 537,475 538,477 539,478 539,485 540,489 541,482 541,480 542,477 543,477 543,475 544,473 545,477 545,480 546,478 547,476 548,472 548,479 549,479 550,480 550,472 551,472 552,472 552,476 553,478 554,477 554,490 555,491 556,491 556,497 557,488 558,483 558,482 559,486 560,485 560,484 561,484 562,487 562,485 563,483 564,475 564,476 565,478 566,484 566,484 567,481 568,481 568,488 569,484 570,490 570,485 571,486 572,482 572,477 573,479 574,481 574,483 575,474 576,468 576,466 577,465 578,472 578,470 579,463 580,459 580,456 581,447 582,448 582,456 583,454 584,454 584,452 585,450 586,453 586,457 587,450 588,450 588,457 589,462 590,452 590,441 591,444 592,438 592,440 593,450 594,452 595,455 595,453 596,452 597,452 597,455 598,457 599,447 599,443 600,447 601,446 601,451 602,454 603,458 603,453 604,452 605,449 605,450 606,446 607,445 607,445 608,438 609,428 609,426 610,429 611,426 611,423 612,422 613,419 613,416 614,427 615,431 615,431 616,425 617,429 617,427 618,425 619,423 619,412 620,415 621,425 621,427 622,420 623,422 623,420 624,422 625,432 625,420 626,400 627,401 627,405 628,401 629,407 629,411 630,408 631,406 631,402 632,411 633,413 633,400 634,398 635,401 635,398 636,400 637,413 637,412 638,410 639,406 639,405 640,404 641,409 642,410 642,410 643,413 644,406 644,412 645,411 646,409 646,413 647,414 648,411 648,415 649,423 650,406 650,403 651,399 652,399 652,395 653,392 654,387 654,384 655,385 656,384 656,385 657,386 658,381 658,383 659,383 660,385 660,385 661,385 662,382 662,380 663,381 664,385 664,387 665,380 666,378 666,374 667,373 668,373 668,373 669,375 670,373 670,375 671,372 672,371 672,373 673,370 674,367 674,368 675,369 676,370 676,365 677,363 678,360 678,365 679,365 680,364 680,375 681,374 682,368 682,367 683,360 684,359 684,361 685,360 686,358 686,358 687,351 688,342 688,336 689,340 690,342 691,338 691,342 692,340 693,337 693,337 694,338 695,333 695,335 696,332 697,323 697,324 698,332 699,325 699,325 700,326 701,334 701,342 702,351 703,348 703,349 704,349 705,353 705,362 706,361 707,356 707,355 708,350 709,346 709,343 710,344 711,349 711,345 712,343 713,344 713,337 714,332 715,322 715,323 716,327 717,332 717,338 718,346 719,345 719,347 720,344 721,337 721,340 722,331 723,330 723,326 724,324 725,323 725,324 726,325 727,323 727,321 728,319 729,322 729,321 730,316 731,314 731,313 732,312 733,310 733,314 734,317 735,320 735,314 736,311 737,306 738,308 738,305 739,309 740,309 740,305 741,309 742,315 742,318 743,322 744,319 744,323 745,322 746,322 746,318 747,317 748,319 748,308 749,307 750,297 750,297 751,301 752,304 752,307 753,307 754,308 754,319 755,318 756,309 756,311 757,313 758,316 758,320 759,324 760,332 760,340 761,332 762,322 762,319 763,318 764,309 764,303 765,296 766,295 766,297 767,297 768,294 768,293 769,298 770,295 770,303 771,306 772,299 772,298 773,310 774,297 774,301 775,293 776,299 776,287 777,285 778,279 778,279 779,282 780,280 780,283 781,287 782,284 782,284 783,296 784,292 785,297 785,298 786,302 787,296 787,280 788,281 789,292 789,294 790,299 791,293 791,285 792,284 793,279 793,281 794,279 795,273 795,267 796,269 797,266 797,260 798,257 799,258 799,259 800,257 801,254 801,255 802,255 803,265 803,276 804,273 805,273 805,271 806,285 807,273 807,275 808,281 809,287 809,283 810,282 811,277 811,277 812,276 813,280 813,269 814,268 815,262 815,261 816,268 817,269 817,263 818,259 819,253 819,258 820,262 821,268 821,267 822,263 823,261 823,260 824,262 825,256 825,246 826,244 827,250 827,254 828,256 829,259 829,255 830,255 831,255 832,253 832,248 833,251 834,243 834,239 835,233 836,225 836,220 837,218 838,215 838,210 839,208 840,209 840,212 841,217 842,231 842,230 843,223 844,221 844,223 845,215 846,212 846,211 847,214 848,218 848,218 849,211 850,209 850,222 851,219 852,213 852,211 853,212 854,200 854,192 855,198 856,195 856,194 857,191 858,188 858,178 859,179 860,183 860,177 861,180 862,178 862,182 863,189 864,193 864,197 865,199 866,197 866,196 867,194 868,187 868,192 869,189 870,175 870,168 871,170 872,172 872,178 873,176 874,181 874,182 875,179 876,175 876,167 877,174 878,175 879,175 879,174 880,171 881,173 881,170 882,168 883,170 883,174 884,173 885,179 885,178 886,173 887,172 887,164 888,165 889,166 889,160 890,160 891,165 891,164 892,166 893,155 893,153 894,157 895,165 895,163 896,147 897,149 897,154 898,155 899,159 899,161 900,161 901,162 901,167 902,171 903,171 903,166 904,162 905,157 905,168 906,177 907,181 907,181 908,181 909,178 909,177 910,171 911,167 911,164 912,160 913,156 913,153 914,155 915,149 915,136 916,138 917,149 917,150 918,150 919,149 919,156 920,157 921,155 921,157 922,157 923,159 923,156 924,154 925,143 926,140 926,138 927,138 928,142 928,150 929,147 930,153 930,148 931,142 932,141 932,121 933,124 934,124 934,123 935,133 936,141 936,124 937,119 938,119 938,115 939,114 940,108 940,116 941,115 942,122 942,123 943,124 944,128 944,127 945,122 946,119 946,110 947,107 948,106 948,100 949,102 950,104 950,100 951,108 952,108 952,110 953,110 954,101 954,101 955,101 956,106 956,116 957,116 958,113 958,107 959,94 960,88 960,81 961,78 962,70 962,72 963,72 964,70 964,68 965,68 966,68 966,77 967,76 968,77 968,86 969,89 970,93 970,83 971,74 972,74 973,77 973,490 973,490 973,699 301,699 "/>
<polyline fill="none" opacity="1" stroke="#E6194B" stroke-width="1" points="301,667 302,635 302,617 303,600 304,594 304,580 305,570 306,559 306,560 307,560 308,561 308,560 309,569 310,567 311,569 311,574 312,573 313,573 313,576 314,578 315,579 315,575 316,572 317,569 317,565 318,568 319,565 319,567 320,567 321,568 321,568 322,567 323,559 323,552 324,546 325,546 325,544 326,542 327,537 327,538 328,542 329,540 329,537 330,530 331,525 331,522 332,515 333,521 333,527 334,532 335,533 335,531 336,533 337,535 337,527 338,531 339,528 339,521 340,519 341,524 341,530 342,529 343,534 343,528 344,526 345,524 345,533 346,531 347,533 347,534 348,538 349,537 349,541 350,545 351,546 351,548 352,552 353,542 353,544 354,540 355,535 355,535 356,538 357,539 358,541 358,544 359,546 360,544 360,548 361,552 362,563 362,556 363,555 364,562 364,566 365,557 366,557 366,558 367,564 368,562 368,560 369,561 370,558 370,550 371,547 372,549 372,547 373,550 374,555 374,556 375,551 376,552 376,550 377,543 378,541 378,542 379,543 380,546 380,549 381,553 382,552 382,549 383,546 384,543 384,546 385,537 386,531 386,523 387,523 388,528 388,532 389,525 390,525 390,529 391,528 392,529 392,530 393,523 394,517 394,512 395,510 396,508 396,500 397,499 398,501 398,508 399,516 400,525 400,526 401,532 402,542 402,536 403,535 404,534 404,523 405,523 406,535 407,542 407,541 408,535 409,538 409,534 410,526 411,520 411,517 412,520 413,523 413,528 414,527 415,524 415,523 416,526 417,537 417,536 418,534 419,531 419,529 420,528 421,530 421,531 422,530 423,532 423,539 424,536 425,531 425,535 426,540 427,539 427,536 428,538 429,529 429,531 430,522 431,523 431,528 432,524 433,526 433,529 434,532 435,532 435,519 436,515 437,514 437,521 438,507 439,502 439,495 440,494 441,499 441,490 442,487 443,486 443,488 444,496 445,488 445,488 446,486 447,487 447,492 448,492 449,486 449,481 450,478 451,480 451,477 452,480 453,486 454,486 454,488 455,488 456,486 456,489 457,489 458,495 458,495 459,487 460,490 460,477 461,474 462,474 462,473 463,473 464,474 464,467 465,464 466,465 466,462 467,465 468,465 468,466 469,474 470,471 470,463 471,462 472,455 472,458 473,458 474,460 474,461 475,449 476,452 476,451 477,455 478,459 478,465 479,458 480,452 480,451 481,453 482,450 482,450 483,453 484,463 484,464 485,466 486,465 486,469 487,472 488,468 488,472 489,472 490,473 490,473 491,467 492,474 492,473 493,471 494,477 494,475 495,471 496,464 496,470 497,469 498,468 498,473 499,470 500,465 501,464 501,471 502,472 503,468 503,465 504,466 505,473 505,475 506,474 507,470 507,475 508,467 509,463 509,462 510,472 511,467 511,459 512,459 513,461 513,454 514,452 515,453 515,454 516,455 517,456 517,453 518,460 519,459 519,456 520,453 521,451 521,454 522,463 523,448 523,448 524,454 525,450 525,454 526,460 527,453 527,454 528,451 529,458 529,461 530,475 531,474 531,474 532,469 533,467 533,475 534,468 535,470 535,469 536,470 537,473 537,475 538,477 539,478 539,485 540,489 541,482 541,480 542,477 543,477 543,475 544,473 545,477 545,480 546,478 547,476 548,472 548,479 549,479 550,480 550,472 551,472 552,472 552,476 553,478 554,477 554,490 555,491 556,491 556,497 557,488 558,483 558,482 559,486 560,485 560,484 561,484 562,487 562,485 563,483 564,475 564,476 565,478 566,484 566,484 567,481 568,481 568,488 569,484 570,490 570,485 571,486 572,482 572,477 573,479 574,481 574,483 575,474 576,468 576,466 577,465 578,472 578,470 579,463 580,459 580,456 581,447 582,448 582,456 583,454 584,454 584,452 585,450 586,453 586,457 587,450 588,450 588,457 589,462 590,452 590,441 591,444 592,438 592,440 593,450 594,452 595,455 595,453 596,452 597,452 597,455 598,457 599,447 599,443 600,447 601,446 601,451 602,454 603,458 603,453 604,452 605,449 605,450 606,446 607,445 607,445 608,438 609,428 609,426 610,429 611,426 611,423 612,422 613,419 613,416 614,427 615,431 615,431 616,425 617,429 617,427 618,425 619,423 619,412 620,415 621,425 621,427 622,420 623,422 623,420 624,422 625,432 625,420 626,400 627,401 627,405 628,401 629,407 629,411 630,408 631,406 631,402 632,411 633,413 633,400 634,398 635,401 635,398 636,400 637,413 637,412 638,410 639,406 639,405 640,404 641,409 642,410 642,410 643,413 644,406 644,412 645,411 646,409 646,413 647,414 648,411 648,415 649,423 650,406 650,403 651,399 652,399 652,395 653,392 654,387 654,384 655,385 656,384 656,385 657,386 658,381 658,383 659,383 660,385 660,385 661,385 662,382 662,380 663,381 664,385 664,387 665,380 666,378 666,374 667,373 668,373 668,373 669,375 670,373 670,375 671,372 672,371 672,373 673,370 674,367 674,368 675,369 676,370 676,365 677,363 678,360 678,365 679,365 680,364 680,375 681,374 682,368 682,367 683,360 684,359 684,361 685,360 686,358 686,358 687,351 688,342 688,336 689,340 690,342 691,338 691,342 692,340 693,337 693,337 694,338 695,333 695,335 696,332 697,323 697,324 698,332 699,325 699,325 700,326 701,334 701,342 702,351 703,348 703,349 704,349 705,353 705,362 706,361 707,356 707,355 708,350 709,346 709,343 710,344 711,349 711,345 712,343 713,344 713,337 714,332 715,322 715,323 716,327 717,332 717,338 718,346 719,345 719,347 720,344 721,337 721,340 722,331 723,330 723,326 724,324 725,323 725,324 726,325 727,323 727,321 728,319 729,322 729,321 730,316 731,314 731,313 732,312 733,310 733,314 734,317 735,320 735,314 736,311 737,306 738,308 738,305 739,309 740,309 740,305 741,309 742,315 742,318 743,322 744,319 744,323 745,322 746,322 746,318 747,317 748,319 748,308 749,307 750,297 750,297 751,301 752,304 752,307 753,307 754,308 754,319 755,318 756,309 756,311 757,313 758,316 758,320 759,324 760,332 760,340 761,332 762,322 762,319 763,318 764,309 764,303 765,296 766,295 766,297 767,297 768,294 768,293 769,298 770,295 770,303 771,306 772,299 772,298 773,310 774,297 774,301 775,293 776,299 776,287 777,285 778,279 778,279 779,282 780,280 780,283 781,287 782,284 782,284 783,296 784,292 785,297 785,298 786,302 787,296 787,280 788,281 789,292 789,294 790,299 791,293 791,285 792,284 793,279 793,281 794,279 795,273 795,267 796,269 797,266 797,260 798,257 799,258 799,259 800,257 801,254 801,255 802,255 803,265 803,276 804,273 805,273 805,271 806,285 807,273 807,275 808,281 809,287 809,283 810,282 811,277 811,277 812,276 813,280 813,269 814,268 815,262 815,261 816,268 817,269 817,263 818,259 819,253 819,258 820,262 821,268 821,267 822,263 823,261 823,260 824,262 825,256 825,246 826,244 827,250 827,254 828,256 829,259 829,255 830,255 831,255 832,253 832,248 833,251 834,243 834,239 835,233 836,225 836,220 837,218 838,215 838,210 839,208 840,209 840,212 841,217 842,231 842,230 843,223 844,221 844,223 845,215 846,212 846,211 847,214 848,218 848,218 849,211 850,209 850,222 851,219 852,213 852,211 853,212 854,200 854,192 855,198 856,195 856,194 857,191 858,188 858,178 859,179 860,183 860,177 861,180 862,178 862,182 863,189 864,193 864,197 865,199 866,197 866,196 867,194 868,187 868,192 869,189 870,175 870,168 871,170 872,172 872,178 873,176 874,181 874,182 875,179 876,175 876,167 877,174 878,175 879,175 879,174 880,171 881,173 881,170 882,168 883,170 883,174 884,173 885,179 885,178 886,173 887,172 887,164 888,165 889,166 889,160 890,160 891,165 891,164 892,166 893,155 893,153 894,157 895,165 895,163 896,147 897,149 897,154 898,155 899,159 899,161 900,161 901,162 901,167 902,171 903,171 903,166 904,162 905,157 905,168 906,177 907,181 907,181 908,181 909,178 909,177 910,171 911,167 911,164 912,160 913,156 913,153 914,155 915,149 915,136 916,138 917,149 917,150 918,150 919,149 919,156 920,157 921,155 921,157 922,157 923,159 923,156 924,154 925,143 926,140 926,138 927,138 928,142 928,150 929,147 930,153 930,148 931,142 932,141 932,121 933,124 934,124 934,123 935,133 936,141 936,124 937,119 938,119 938,115 939,114 940,108 940,116 941,115 942,122 942,123 943,124 944,128 944,127 945,122 946,119 946,110 947,107 948,106 948,100 949,102 950,104 950,100 951,108 952,108 952,110 953,110 954,101 954,101 955,101 956,106 956,116 957,116 958,113 958,107 959,94 960,88 960,81 961,78 962,70 962,72 963,72 964,70 964,68 965,68 966,68 966,77 967,76 968,77 968,86 969,89 970,93 970,83 971,74 972,74 973,77 973,490 973,490 "/>
<line opacity="0.1" stroke="#000000" stroke-width="1" x1="83" y1="699" x2="83" y2="68"/>
<line opacity="0.1" stroke="#000000" stroke-width="1" x1="92" y1="699" x2="92" y2="68"/>
<line opacity="0.1" stroke="#000000" stroke-width="1" x1="101" y1="699" x2="101" y2="68"/>
<line opacity="0.1" stroke="#000000" stroke-width="1" x1="110" y1="699" x2="110" y2="68"/>
<line opacity="0.1" stroke="#000000" stroke-width="1" x1="119" y1="699" x2="119" y2="68"/>
<line opacity="0.1" stroke="#000000" stroke-width="1" x1="128" y1="699" x2="128" y2="68"/>
<line opacity="0.1" stroke="#000000" stroke-width="1" x1="137" y1="699" x2="137" y2="68"/>
<line opacity="0.1" stroke="#000000" stroke-width="1" x1="146" y1="699" x2="146" y2="68"/>
<line opacity="0.1" stroke="#000000" stroke-width="1" x1="154" y1="699" x2="154" y2="68"/>
<line opacity="0.1" stroke="#000000" stroke-width="1" x1="163" y1="699" x2="163" y2="68"/>
<line opacity="0.1" stroke="#000000" stroke-width="1" x1="172" y1="699" x2="172" y2="68"/>
<line opacity="0.1" stroke="#000000" stroke-width="1" x1="181" y1="699" x2="181" y2="68"/>
<line opacity="0.1" stroke="#000000" stroke-width="1" x1="190" y1="699" x2="190" y2="68"/>
<line opacity="0.1" stroke="#000000" stroke-width="1" x1="199" y1="699" x2="199" y2="68"/>
<line opacity="0.1" stroke="#000000" stroke-width="1" x1="208" y1="699" x2="208" y2="68"/>
<line opacity="0.1" stroke="#000000" stroke-width="1" x1="217" y1="699" x2="217" y2="68"/>
<line opacity="0.1" stroke="#000000" stroke-width="1" x1="226" y1="699" x2="226" y2="68"/>
<line opacity="0.1" stroke="#000000" stroke-width="1" x1="235" y1="699" x2="235" y2="68"/>
<line opacity="0.1" stroke="#000000" stroke-width="1" x1="243" y1="699" x2="243" y2="68"/>
<line opacity="0.1" stroke="#000000" stroke-width="1" x1="252" y1="699" x2="252" y2="68"/>
<line opacity="0.1" stroke="#000000" stroke-width="1" x1="261" y1="699" x2="261" y2="68"/>
<line opacity="0.1" stroke="#000000" stroke-width="1" x1="270" y1="699" x2="270" y2="68"/>
<line opacity="0.1" stroke="#000000" stroke-width="1" x1="279" y1="699" x2="279" y2="68"/>
<line opacity="0.1" stroke="#000000" stroke-width="1" x1="288" y1="699" x2="288" y2="68"/>
<line opacity="0.1" stroke="#000000" stroke-width="1" x1="297" y1="699" x2="297" y2="68"/>
<line opacity="0.1" stroke="#000000" stroke-width="1" x1="306" y1="699" x2="306" y2="68"/>
<line opacity="0.1" stroke="#000000" stroke-width="1" x1="315" y1="699" x2="315" y2="68"/>
<line opacity="0.1" stroke="#000000" stroke-width="1" x1="323" y1="699" x2="323" y2="68"/>
<line opacity="0.1" stroke="#000000" stroke-width="1" x1="332" y1="699" x2="332" y2="68"/>
<line opacity="0.1" stroke="#000000" stroke-width="1" x1="341" y1="699" x2="341" y2="68"/>
<line opacity="0.1" stroke="#000000" stroke-width="1" x1="350" y1="699" x2="350" y2="68"/>
<line opacity="0.1" stroke="#000000" stroke-width="1" x1="359" y1="699" x2="359" y2="68"/>
<line opacity="0.1" stroke="#000000" stroke-width="1" x1="368" y1="699" x2="368" y2="68"/>
<line opacity="0.1" stroke="#000000" stroke-width="1" x1="377" y1="699" x2="377" y2="68"/>
<line opacity="0.1" stroke="#000000" stroke-width="1" x1="386" y1="699" x2="386" y2="68"/>
<line opacity="0.1" stroke="#000000" stroke-width="1" x1="395" y1="699" x2="395" y2="68"/>
<line opacity="0.1" stroke="#000000" stroke-width="1" x1="404" y1="699" x2="404" y2="68"/>
<line opacity="0.1" stroke="#000000" stroke-width="1" x1="412" y1="699" x2="412" y2="68"/>
<line opacity="0.1" stroke="#000000" stroke-width="1" x1="421" y1="699" x2="421" y2="68"/>
<line opacity="0.1" stroke="#000000" stroke-width="1" x1="430" y1="699" x2="430" y2="68"/>
<line opacity="0.1" stroke="#000000" stroke-width="1" x1="439" y1="699" x2="439" y2="68"/>
<line opacity="0.1" stroke="#000000" stroke-width="1" x1="448" y1="699" x2="448" y2="68"/>
<line opacity="0.1" stroke="#000000" stroke-width="1" x1="457" y1="699" x2="457" y2="68"/>
<line opacity="0.1" stroke="#000000" stroke-width="1" x1="466" y1="699" x2="466" y2="68"/>
<line opacity="0.1" stroke="#000000" stroke-width="1" x1="475" y1="699" x2="475" y2="68"/>
<line opacity="0.1" stroke="#000000" stroke-width="1" x1="484" y1="699" x2="484" y2="68"/>
<line opacity="0.1" stroke="#000000" stroke-width="1" x1="493" y1="699" x2="493" y2="68"/>
<line opacity="0.1" stroke="#000000" stroke-width="1" x1="501" y1="699" x2="501" y2="68"/>
<line opacity="0.1" stroke="#000000" stroke-width="1" x1="510" y1="699" x2="510" y2="68"/>
<line opacity="0.1" stroke="#000000" stroke-width="1" x1="519" y1="699" x2="519" y2="68"/>
<line opacity="0.1" stroke="#000000" stroke-width="1" x1="528" y1="699" x2="528" y2="68"/>
<line opacity="0.1" stroke="#000000" stroke-width="1" x1="537" y1="699" x2="537" y2="68"/>
<line opacity="0.1" stroke="#000000" stroke-width="1" x1="546" y1="699" x2="546" y2="68"/>
<line opacity="0.1" stroke="#000000" stroke-width="1" x1="555" y1="699" x2="555" y2="68"/>
<line opacity="0.1" stroke="#000000" stroke-width="1" x1="564" y1="699" x2="564" y2="68"/>
<line opacity="0.1" stroke="#000000" stroke-width="1" x1="573" y1="699" x2="573" y2="68"/>
<line opacity="0.1" stroke="#000000" stroke-width="1" x1="581" y1="699" x2="581" y2="68"/>
<line opacity="0.1" stroke="#000000" stroke-width="1" x1="590" y1="699" x2="590" y2="68"/>
<line opacity="0.1" stroke="#000000" stroke-width="1" x1="599" y1="699" x2="599" y2="68"/>
<line opacity="0.1" stroke="#000000" stroke-width="1" x1="608" y1="699" x2="608" y2="68"/>
<line opacity="0.1" stroke="#000000" stroke-width="1" x1="617" y1="699" x2="617" y2="68"/>
<line opacity="0.1" stroke="#000000" stroke-width="1" x1="626" y1="699" x2="626" y2="68"/>
<line opacity="0.1" stroke="#000000" stroke-width="1" x1="635" y1="699" x2="635" y2="68"/>
<line opacity="0.1" stroke="#000000" stroke-width="1" x1="644" y1="699" x2="644" y2="68"/>
<line opacity="0.1" stroke="#000000" stroke-width="1" x1="653" y1="699" x2="653" y2="68"/>
<line opacity="0.1" stroke="#000000" stroke-width="1" x1="662" y1="699" x2="662" y2="68"/>
<line opacity="0.1" stroke="#000000" stroke-width="1" x1="670" y1="699" x2="670" y2="68"/>
<line opacity="0.1" stroke="#000000" stroke-width="1" x1="679" y1="699" x2="679" y2="68"/>
<line opacity="0.1" stroke="#000000" stroke-width="1" x1="688" y1="699" x2="688" y2="68"/>
<line opacity="0.1" stroke="#000000" stroke-width="1" x1="697" y1="699" x2="697" y2="68"/>
<line opacity="0.1" stroke="#000000" stroke-width="1" x1="706" y1="699" x2="706" y2="68"/>
<line opacity="0.1" stroke="#000000" stroke-width="1" x1="715" y1="699" x2="715" y2="68"/>
<line opacity="0.1" stroke="#000000" stroke-width="1" x1="724" y1="699" x2="724" y2="68"/>
<line opacity="0.1" stroke="#000000" stroke-width="1" x1="733" y1="699" x2="733" y2="68"/>
<line opacity="0.1" stroke="#000000" stroke-width="1" x1="742" y1="699" x2="742" y2="68"/>
<line opacity="0.1" stroke="#000000" stroke-width="1" x1="750" y1="699" x2="750" y2="68"/>
<line opacity="0.1" stroke="#000000" stroke-width="1" x1="759" y1="699" x2="759" y2="68"/>
<line opacity="0.1" stroke="#000000" stroke-width="1" x1="768" y1="699" x2="768" y2="68"/>
<line opacity="0.1" stroke="#000000" stroke-width="1" x1="777" y1="699" x2="777" y2="68"/>
<line opacity="0.1" stroke="#000000" stroke-width="1" x1="786" y1="699" x2="786" y2="68"/>
<line opacity="0.1" stroke="#000000" stroke-width="1" x1="795" y1="699" x2="795" y2="68"/>
<line opacity="0.1" stroke="#000000" stroke-width="1" x1="804" y1="699" x2="804" y2="68"/>
<line opacity="0.1" stroke="#000000" stroke-width="1" x1="813" y1="699" x2="813" y2="68"/>
<line opacity="0.1" stroke="#000000" stroke-width="1" x1="822" y1="699" x2="822" y2="68"/>
<line opacity="0.1" stroke="#000000" stroke-width="1" x1="831" y1="699" x2="831" y2="68"/>
<line opacity="0.1" stroke="#000000" stroke-width="1" x1="839" y1="699" x2="839" y2="68"/>
<line opacity="0.1" stroke="#000000" stroke-width="1" x1="848" y1="699" x2="848" y2="68"/>
<line opacity="0.1" stroke="#000000" stroke-width="1" x1="857" y1="699" x2="857" y2="68"/>
<line opacity="0.1" stroke="#000000" stroke-width="1" x1="866" y1="699" x2="866" y2="68"/>
<line opacity="0.1" stroke="#000000" stroke-width="1" x1="875" y1="699" x2="875" y2="68"/>
<line opacity="0.1" stroke="#000000" stroke-width="1" x1="884" y1="699" x2="884" y2="68"/>
<line opacity="0.1" stroke="#000000" stroke-width="1" x1="893" y1="699" x2="893" y2="68"/>
<line opacity="0.1" stroke="#000000" stroke-width="1" x1="902" y1="699" x2="902" y2="68"/>
<line opacity="0.1" stroke="#000000" stroke-width="1" x1="911" y1="699" x2="911" y2="68"/>
<line opacity="0.1" stroke="#000000" stroke-width="1" x1="919" y1="699" x2="919" y2="68"/>
<line opacity="0.1" stroke="#000000" stroke-width="1" x1="928" y1="699" x2="928" y2="68"/>
<line opacity="0.1" stroke="#000000" stroke-width="1" x1="937" y1="699" x2="937" y2="68"/>
<line opacity="0.1" stroke="#000000" stroke-width="1" x1="946" y1="699" x2="946" y2="68"/>
<line opacity="0.1" stroke="#000000" stroke-width="1" x1="955" y1="699" x2="955" y2="68"/>
<line opacity="0.1" stroke="#000000" stroke-width="1" x1="964" y1="699" x2="964" y2="68"/>
<line opacity="0.1" stroke="#000000" stroke-width="1" x1="78" y1="699" x2="973" y2="699"/>
<line opacity="0.1" stroke="#000000" stroke-width="1" x1="78" y1="688" x2="973" y2="688"/>
<line opacity="0.1" stroke="#000000" stroke-width="1" x1="78" y1="677" x2="973" y2="677"/>
<line opacity="0.1" stroke="#000000" stroke-width="1" x1="78" y1="666" x2="973" y2="666"/>
<line opacity="0.1" stroke="#000000" stroke-width="1" x1="78" y1="655" x2="973" y2="655"/>
<line opacity="0.1" stroke="#000000" stroke-width="1" x1="78" y1="644" x2="973" y2="644"/>
<line opacity="0.1" stroke="#000000" stroke-width="1" x1="78" y1="634" x2="973" y2="634"/>
<line opacity="0.1" stroke="#000000" stroke-width="1" x1="78" y1="623" x2="973" y2="623"/>
<line opacity="0.1" stroke="#000000" stroke-width="1" x1="78" y1="612" x2="973" y2="612"/>
<line opacity="0.1" stroke="#000000" stroke-width="1" x1="78" y1="601" x2="973" y2="601"/>
<line opacity="0.1" stroke="#000000" stroke-width="1" x1="78" y1="590" x2="973" y2="590"/>
<line opacity="0.1" stroke="#000000" stroke-width="1" x1="78" y1="579" x2="973" y2="579"/>
<line opacity="0.1" stroke="#000000" stroke-width="1" x1="78" y1="569" x2="973" y2="569"/>
<line opacity="0.1" stroke="#000000" stroke-width="1" x1="78" y1="558" x2="973" y2="558"/>
<line opacity="0.1" stroke="#000000" stroke-width="1" x1="78" y1="547" x2="973" y2="547"/>
<line opacity="0.1" stroke="#000000" stroke-width="1" x1="78" y1="536" x2="973" y2="536"/>
<line opacity="0.1" stroke="#000000" stroke-width="1" x1="78" y1="525" x2="973" y2="525"/>
<line opacity="0.1" stroke="#000000" stroke-width="1" x1="78" y1="515" x2="973" y2="515"/>
<line opacity="0.1" stroke="#000000" stroke-width="1" x1="78" y1="504" x2="973" y2="504"/>
<line opacity="0.1" stroke="#000000" stroke-width="1" x1="78" y1="493" x2="973" y2="493"/>
<line opacity="0.1" stroke="#000000" stroke-width="1" x1="78" y1="482" x2="973" y2="482"/>
<line opacity="0.1" stroke="#000000" stroke-width="1" x1="78" y1="471" x2="973" y2="471"/>
<line opacity="0.1" stroke="#000000" stroke-width="1" x1="78" y1="460" x2="973" y2="460"/>
<line opacity="0.1" stroke="#000000" stroke-width="1" x1="78" y1="450" x2="973" y2="450"/>
<line opacity="0.1" stroke="#000000" stroke-width="1" x1="78" y1="439" x2="973" y2="439"/>
<line opacity="0.1" stroke="#000000" stroke-width="1" x1="78" y1="428" x2="973" y2="428"/>
<line opacity="0.1" stroke="#000000" stroke-width="1" x1="78" y1="417" x2="973" y2="417"/>
<line opacity="0.1" stroke="#000000" stroke-width="1" x1="78" y1="406" x2="973" y2="406"/>
<line opacity="0.1" stroke="#000000" stroke-width="1" x1="78" y1="396" x2="973" y2="396"/>
<line opacity="0.1" stroke="#000000" stroke-width="1" x1="78" y1="385" x2="973" y2="385"/>
<line opacity="0.1" stroke="#000000" stroke-width="1" x1="78" y1="374" x2="973" y2="374"/>
<line opacity="0.1" stroke="#000000" stroke-width="1" x1="78" y1="363" x2="973" y2="363"/>
<line opacity="0.1" stroke="#000000" stroke-width="1" x1="78" y1="352" x2="973" y2="352"/>
<line opacity="0.1" stroke="#000000" stroke-width="1" x1="78" y1="341" x2="973" y2="341"/>
<line opacity="0.1" stroke="#000000" stroke-width="1" x1="78" y1="331" x2="973" y2="331"/>
<line opacity="0.1" stroke="#000000" stroke-width="1" x1="78" y1="320" x2="973" y2="320"/>
<line opacity="0.1" stroke="#000000" stroke-width="1" x1="78" y1="309" x2="973" y2="309"/>
<line opacity="0.1" stroke="#000000" stroke-width="1" x1="78" y1="298" x2="973" y2="298"/>
<line opacity="0.1" stroke="#000000" stroke-width="1" x1="78" y1="287" x2="973" y2="287"/>
<line opacity="0.1" stroke="#000000" stroke-width="1" x1="78" y1="277" x2="973" y2="277"/>
<line opacity="0.1" stroke="#000000" stroke-width="1" x1="78" y1="266" x2="973" y2="266"/>
<line opacity="0.1" stroke="#000000" stroke-width="1" x1="78" y1="255" x2="973" y2="255"/>
<line opacity="0.1" stroke="#000000" stroke-width="1" x1="78" y1="244" x2="973" y2="244"/>
<line opacity="0.1" stroke="#000000" stroke-width="1" x1="78" y1="233" x2="973" y2="233"/>
<line opacity="0.1" stroke="#000000" stroke-width="1" x1="78" y1="222" x2="973" y2="222"/>
<line opacity="0.1" stroke="#000000" stroke-width="1" x1="78" y1="212" x2="973" y2="212"/>
<line opacity="0.1" stroke="#000000" stroke-width="1" x1="78" y1="201" x2="973" y2="201"/>
<line opacity="0.1" stroke="#000000" stroke-width="1" x1="78" y1="190" x2="973" y2="190"/>
<line opacity="0.1" stroke="#000000" stroke-width="1" x1="78" y1="179" x2="973" y2="179"/>
<line opacity="0.1" stroke="#000000" stroke-width="1" x1="78" y1="168" x2="973" y2="168"/>
<line opacity="0.1" stroke="#000000" stroke-width="1" x1="78" y1="158" x2="973" y2="158"/>
<line opacity="0.1" stroke="#000000" stroke-width="1" x1="78" y1="147" x2="973" y2="147"/>
<line opacity="0.1" stroke="#000000" stroke-width="1" x1="78" y1="136" x2="973" y2="136"/>
<line opacity="0.1" stroke="#000000" stroke-width="1" x1="78" y1="125" x2="973" y2="125"/>
<line opacity="0.1" stroke="#000000" stroke-width="1" x1="78" y1="114" x2="973" y2="114"/>
<line opacity="0.1" stroke="#000000" stroke-width="1" x1="78" y1="103" x2="973" y2="103"/>
<line opacity="0.1" stroke="#000000" stroke-width="1" x1="78" y1="93" x2="973" y2="93"/>
<line opacity="0.1" stroke="#000000" stroke-width="1" x1="78" y1="82" x2="973" y2="82"/>
<line opacity="0.1" stroke="#000000" stroke-width="1" x1="78" y1="71" x2="973" y2="71"/>
<text x="8" y="384" dy="0.76em" text-anchor="middle" font-family="sans-serif" font-size="9.67741935483871" opacity="1" fill="#000000" transform="rotate(270, 8, 384)">
Memory usage
</text>
<text x="526" y="760" dy="-0.5ex" text-anchor="middle" font-family="sans-serif" font-size="9.67741935483871" opacity="1" fill="#000000">
Time
</text>
<line opacity="0.2" stroke="#000000" stroke-width="1" x1="101" y1="699" x2="101" y2="68"/>
<line opacity="0.2" stroke="#000000" stroke-width="1" x1="190" y1="699" x2="190" y2="68"/>
<line opacity="0.2" stroke="#000000" stroke-width="1" x1="279" y1="699" x2="279" y2="68"/>
<line opacity="0.2" stroke="#000000" stroke-width="1" x1="368" y1="699" x2="368" y2="68"/>
<line opacity="0.2" stroke="#000000" stroke-width="1" x1="457" y1="699" x2="457" y2="68"/>
<line opacity="0.2" stroke="#000000" stroke-width="1" x1="546" y1="699" x2="546" y2="68"/>
<line opacity="0.2" stroke="#000000" stroke-width="1" x1="635" y1="699" x2="635" y2="68"/>
<line opacity="0.2" stroke="#000000" stroke-width="1" x1="724" y1="699" x2="724" y2="68"/>
<line opacity="0.2" stroke="#000000" stroke-width="1" x1="813" y1="699" x2="813" y2="68"/>
<line opacity="0.2" stroke="#000000" stroke-width="1" x1="902" y1="699" x2="902" y2="68"/>
<line opacity="0.2" stroke="#000000" stroke-width="1" x1="78" y1="699" x2="973" y2="699"/>
<line opacity="0.2" stroke="#000000" stroke-width="1" x1="78" y1="590" x2="973" y2="590"/>
<line opacity="0.2" stroke="#000000" stroke-width="1" x1="78" y1="482" x2="973" y2="482"/>
<line opacity="0.2" stroke="#000000" stroke-width="1" x1="78" y1="374" x2="973" y2="374"/>
<line opacity="0.2" stroke="#000000" stroke-width="1" x1="78" y1="266" x2="973" y2="266"/>
<line opacity="0.2" stroke="#000000" stroke-width="1" x1="78" y1="158" x2="973" y2="158"/>
<polyline fill="none" opacity="1" stroke="#000000" stroke-width="1" points="77,68 77,699 "/>
<text x="68" y="699" dy="0.5ex" text-anchor="end" font-family="sans-serif" font-size="9.67741935483871" opacity="1" fill="#000000">
0.00 MB
</text>
<polyline fill="none" opacity="1" stroke="#000000" stroke-width="1" points="72,699 77,699 "/>
<text x="68" y="590" dy="0.5ex" text-anchor="end" font-family="sans-serif" font-size="9.67741935483871" opacity="1" fill="#000000">
0.19 MB
</text>
<polyline fill="none" opacity="1" stroke="#000000" stroke-width="1" points="72,590 77,590 "/>
<text x="68" y="482" dy="0.5ex" text-anchor="end" font-family="sans-serif" font-size="9.67741935483871" opacity="1" fill="#000000">
0.38 MB
</text>
<polyline fill="none" opacity="1" stroke="#000000" stroke-width="1" points="72,482 77,482 "/>
<text x="68" y="374" dy="0.5ex" text-anchor="end" font-family="sans-serif" font-size="9.67741935483871" opacity="1" fill="#000000">
0.57 MB
</text>
<polyline fill="none" opacity="1" stroke="#000000" stroke-width="1" points="72,374 77,374 "/>
<text x="68" y="266" dy="0.5ex" text-anchor="end" font-family="sans-serif" font-size="9.67741935483871" opacity="1" fill="#000000">
0.76 MB
</text>
<polyline fill="none" opacity="1" stroke="#000000" stroke-width="1" points="72,266 77,266 "/>
<text x="68" y="158" dy="0.5ex" text-anchor="end" font-family="sans-serif" font-size="9.67741935483871" opacity="1" fill="#000000">
0.95 MB
</text>
<polyline fill="none" opacity="1" stroke="#000000" stroke-width="1" points="72,158 77,158 "/>
<polyline fill="none" opacity="1" stroke="#000000" stroke-width="1" points="78,700 973,700 "/>
<text x="101" y="710" dy="0.76em" text-anchor="middle" font-family="sans-serif" font-size="9.67741935483871" opacity="1" fill="#000000">
02:04:17
</text>
<polyline fill="none" opacity="1" stroke="#000000" stroke-width="1" points="101,700 101,705 "/>
<text x="190" y="710" dy="0.76em" text-anchor="middle" font-family="sans-serif" font-size="9.67741935483871" opacity="1" fill="#000000">
02:04:18
</text>
<polyline fill="none" opacity="1" stroke="#000000" stroke-width="1" points="190,700 190,705 "/>
<text x="279" y="710" dy="0.76em" text-anchor="middle" font-family="sans-serif" font-size="9.67741935483871" opacity="1" fill="#000000">
02:04:19
</text>
<polyline fill="none" opacity="1" stroke="#000000" stroke-width="1" points="279,700 279,705 "/>
<text x="368" y="710" dy="0.76em" text-anchor="middle" font-family="sans-serif" font-size="9.67741935483871" opacity="1" fill="#000000">
02:04:20
</text>
<polyline fill="none" opacity="1" stroke="#000000" stroke-width="1" points="368,700 368,705 "/>
<text x="457" y="710" dy="0.76em" text-anchor="middle" font-family="sans-serif" font-size="9.67741935483871" opacity="1" fill="#000000">
02:04:21
</text>
<polyline fill="none" opacity="1" stroke="#000000" stroke-width="1" points="457,700 457,705 "/>
<text x="546" y="710" dy="0.76em" text-anchor="middle" font-family="sans-serif" font-size="9.67741935483871" opacity="1" fill="#000000">
02:04:22
</text>
<polyline fill="none" opacity="1" stroke="#000000" stroke-width="1" points="546,700 546,705 "/>
<text x="635" y="710" dy="0.76em" text-anchor="middle" font-family="sans-serif" font-size="9.67741935483871" opacity="1" fill="#000000">
02:04:23
</text>
<polyline fill="none" opacity="1" stroke="#000000" stroke-width="1" points="635,700 635,705 "/>
<text x="724" y="710" dy="0.76em" text-anchor="middle" font-family="sans-serif" font-size="9.67741935483871" opacity="1" fill="#000000">
02:04:24
</text>
<polyline fill="none" opacity="1" stroke="#000000" stroke-width="1" points="724,700 724,705 "/>
<text x="813" y="710" dy="0.76em" text-anchor="middle" font-family="sans-serif" font-size="9.67741935483871" opacity="1" fill="#000000">
02:04:25
</text>
<polyline fill="none" opacity="1" stroke="#000000" stroke-width="1" points="813,700 813,705 "/>
<text x="902" y="710" dy="0.76em" text-anchor="middle" font-family="sans-serif" font-size="9.67741935483871" opacity="1" fill="#000000">
02:04:26
</text>
<polyline fill="none" opacity="1" stroke="#000000" stroke-width="1" points="902,700 902,705 "/>
<polyline fill="none" opacity="1" stroke="#000000" stroke-width="1" points="78,67 974,67 "/>
<text x="101" y="58" dy="-0.5ex" text-anchor="middle" font-family="sans-serif" font-size="9.67741935483871" opacity="1" fill="#000000">
+265ms
</text>
<polyline fill="none" opacity="1" stroke="#000000" stroke-width="1" points="101,62 101,67 "/>
<text x="190" y="58" dy="-0.5ex" text-anchor="middle" font-family="sans-serif" font-size="9.67741935483871" opacity="1" fill="#000000">
+1s
</text>
<polyline fill="none" opacity="1" stroke="#000000" stroke-width="1" points="190,62 190,67 "/>
<text x="279" y="58" dy="-0.5ex" text-anchor="middle" font-family="sans-serif" font-size="9.67741935483871" opacity="1" fill="#000000">
+2s
</text>
<polyline fill="none" opacity="1" stroke="#000000" stroke-width="1" points="279,62 279,67 "/>
<text x="368" y="58" dy="-0.5ex" text-anchor="middle" font-family="sans-serif" font-size="9.67741935483871" opacity="1" fill="#000000">
+3s
</text>
<polyline fill="none" opacity="1" stroke="#000000" stroke-width="1" points="368,62 368,67 "/>
<text x="457" y="58" dy="-0.5ex" text-anchor="middle" font-family="sans-serif" font-size="9.67741935483871" opacity="1" fill="#000000">
+4s
</text>
<polyline fill="none" opacity="1" stroke="#000000" stroke-width="1" points="457,62 457,67 "/>
<text x="546" y="58" dy="-0.5ex" text-anchor="middle" font-family="sans-serif" font-size="9.67741935483871" opacity="1" fill="#000000">
+5s
</text>
<polyline fill="none" opacity="1" stroke="#000000" stroke-width="1" points="546,62 546,67 "/>
<text x="635" y="58" dy="-0.5ex" text-anchor="middle" font-family="sans-serif" font-size="9.67741935483871" opacity="1" fill="#000000">
+6s
</text>
<polyline fill="none" opacity="1" stroke="#000000" stroke-width="1" points="635,62 635,67 "/>
<text x="724" y="58" dy="-0.5ex" text-anchor="middle" font-family="sans-serif" font-size="9.67741935483871" opacity="1" fill="#000000">
+7s
</text>
<polyline fill="none" opacity="1" stroke="#000000" stroke-width="1" points="724,62 724,67 "/>
<text x="814" y="58" dy="-0.5ex" text-anchor="middle" font-family="sans-serif" font-size="9.67741935483871" opacity="1" fill="#000000">
+8s
</text>
<polyline fill="none" opacity="1" stroke="#000000" stroke-width="1" points="814,62 814,67 "/>
<text x="903" y="58" dy="-0.5ex" text-anchor="middle" font-family="sans-serif" font-size="9.67741935483871" opacity="1" fill="#000000">
+9s
</text>
<polyline fill="none" opacity="1" stroke="#000000" stroke-width="1" points="903,62 903,67 "/>
</svg>
