<svg width="1024" height="768" viewBox="0 0 1024 768" xmlns="http://www.w3.org/2000/svg">
<rect x="0" y="0" width="1023" height="767" opacity="1" fill="#FFFFFF" stroke="none"/>
<polygon opacity="1" fill="#E6194B" points="107,694 108,694 108,694 109,693 110,693 111,693 112,693 113,692 114,692 115,691 115,691 116,690 117,690 118,689 119,689 120,689 121,688 121,688 122,688 123,688 124,687 125,687 126,686 127,686 128,686 128,686 129,685 130,685 131,685 132,684 133,684 134,684 134,683 135,683 136,682 137,682 138,682 139,682 140,681 141,680 141,680 142,680 143,679 144,679 145,678 146,677 147,676 147,676 148,676 149,676 150,675 151,674 152,674 153,674 154,673 154,673 155,673 156,673 157,673 158,672 159,671 160,671 160,670 161,670 162,669 163,669 164,669 165,669 166,668 166,667 167,667 168,667 169,667 170,667 171,666 172,666 173,666 173,666 174,666 175,665 176,665 177,664 178,664 179,664 179,664 180,664 181,663 182,663 183,662 184,662 185,662 186,620 186,619 187,619 188,619 189,619 190,618 191,618 192,616 192,616 193,615 194,615 195,614 196,614 197,613 198,613 199,612 199,612 200,612 201,611 202,610 203,610 204,610 205,609 205,609 206,609 207,609 208,609 209,609 210,608 211,608 212,607 212,606 213,606 214,605 215,604 216,604 217,603 218,603 218,603 219,603 220,603 221,602 222,602 223,602 224,602 225,602 225,602 226,601 227,601 228,601 229,601 230,600 231,599 231,599 232,599 233,599 234,599 235,598 236,598 237,598 238,597 238,596 239,596 240,596 241,596 242,596 243,596 244,596 244,595 245,595 246,595 247,595 248,595 249,594 250,594 251,594 251,593 252,593 253,593 254,592 255,592 256,591 257,591 257,591 258,590 259,590 260,590 261,589 262,589 263,588 264,588 264,588 265,588 266,588 267,587 268,587 269,587 270,586 270,586 271,586 272,586 273,586 274,586 275,585 276,585 277,585 277,584 278,584 279,584 280,584 281,583 282,582 283,582 283,581 284,581 285,581 286,580 287,579 288,579 289,579 290,579 290,578 291,578 292,578 293,578 294,578 295,577 296,577 296,576 297,576 298,576 299,576 300,575 301,575 302,575 303,574 303,574 304,574 305,574 306,573 307,573 308,573 309,573 309,572 310,572 311,572 312,572 313,572 314,572 315,571 316,570 316,570 317,570 318,569 319,569 320,569 321,569 322,568 322,568 323,568 324,568 325,568 326,568 327,568 328,568 329,567 329,567 330,567 331,566 332,566 333,565 334,565 335,565 335,565 336,564 337,564 338,564 339,563 340,562 341,561 342,560 342,477 343,477 344,476 345,476 346,476 347,475 348,475 348,475 349,475 350,474 351,474 352,474 353,474 354,474 355,473 355,473 356,473 357,472 358,472 359,472 360,471 361,471 361,471 362,470 363,470 364,470 365,470 366,470 367,469 368,469 368,469 369,468 370,468 371,467 372,467 373,467 374,467 374,467 375,467 376,466 377,466 378,466 379,466 380,465 381,465 381,465 382,465 383,464 384,464 385,464 386,463 387,463 387,463 388,463 389,463 390,462 391,462 392,461 393,460 394,460 394,460 395,460 396,459 397,459 398,459 399,459 400,459 400,459 401,458 402,458 403,457 404,457 405,456 406,456 407,455 407,455 408,455 409,455 410,455 411,454 412,454 413,454 413,454 414,454 415,453 416,453 417,453 418,453 419,453 420,452 420,452 421,452 422,452 423,452 424,451 425,451 426,450 426,450 427,450 428,450 429,428 430,428 431,428 432,428 433,428 433,428 434,427 435,427 436,427 437,427 438,427 439,427 439,426 440,426 441,426 442,426 443,426 444,425 445,425 446,424 446,424 447,424 448,424 449,424 450,423 451,423 452,422 452,421 453,421 454,421 455,421 456,420 457,420 458,420 459,419 459,419 460,419 461,419 462,419 463,418 464,417 465,417 465,416 466,416 467,416 468,415 469,414 470,413 471,413 472,412 472,412 473,412 474,412 475,411 476,411 477,409 478,409 478,409 479,408 480,407 481,407 482,407 483,406 484,405 485,405 485,405 486,405 487,404 488,404 489,403 490,403 491,403 491,403 492,403 493,403 494,402 495,402 496,402 497,402 497,401 498,401 499,400 500,399 501,399 502,398 503,398 504,398 504,397 505,397 506,396 507,396 508,396 509,395 510,395 510,395 511,395 512,394 513,394 514,394 515,394 516,393 517,393 517,392 518,392 519,391 520,391 521,391 522,390 523,390 523,390 524,390 525,390 526,389 527,389 528,388 529,388 530,388 530,388 531,387 532,387 533,387 534,386 535,386 536,386 536,385 537,385 538,385 539,385 540,384 541,384 542,384 543,383 543,383 544,383 545,381 546,381 547,381 548,380 549,380 549,380 550,379 551,379 552,379 553,379 554,379 555,379 556,378 556,378 557,377 558,376 559,376 560,376 561,376 562,375 562,375 563,374 564,374 565,374 566,374 567,373 568,373 569,372 569,372 570,372 571,372 572,372 573,371 574,371 575,370 575,370 576,369 577,369 578,369 579,369 580,369 581,368 582,368 582,368 583,368 584,368 585,367 586,367 587,367 588,367 588,367 589,366 590,366 591,366 592,366 593,366 594,366 595,366 595,366 596,365 597,365 598,364 599,363 600,363 601,362 601,362 602,362 603,361 604,361 605,361 606,361 607,360 608,360 608,360 609,360 610,359 611,359 612,359 613,359 614,359 614,358 615,358 616,358 617,358 618,357 619,357 620,357 621,357 621,356 622,356 623,356 624,355 625,355 626,355 627,355 627,354 628,354 629,354 630,353 631,353 632,352 633,352 634,352 634,352 635,352 636,351 637,351 638,351 639,351 640,350 640,350 641,350 642,349 643,348 644,348 645,348 646,348 647,347 647,347 648,347 649,347 650,347 651,346 652,346 653,346 653,345 654,345 655,344 656,344 657,342 658,342 659,342 660,342 660,342 661,341 662,340 663,340 664,340 665,339 666,339 666,339 667,339 668,339 669,339 670,338 671,338 672,337 673,336 673,336 674,336 675,335 676,335 677,335 678,334 679,333 679,333 680,333 681,333 682,333 683,333 684,332 685,332 686,332 686,331 687,331 688,331 689,331 690,163 691,163 692,163 692,162 693,162 694,161 695,161 696,160 697,160 698,160 699,159 699,159 700,159 701,158 702,158 703,157 704,157 705,157 705,156 706,156 707,156 708,156 709,156 710,156 711,156 712,155 712,155 713,155 714,155 715,154 716,154 717,154 718,153 718,153 719,153 720,153 721,153 722,152 723,152 724,152 725,152 725,152 726,151 727,151 728,151 729,151 730,150 731,150 731,149 732,149 733,148 734,148 735,148 736,147 737,146 738,146 738,146 739,146 740,145 741,145 742,145 743,145 744,144 744,144 745,144 746,144 747,143 748,143 749,143 750,143 751,142 751,142 752,141 753,141 754,141 755,141 756,140 757,140 757,140 758,139 759,139 760,138 761,137 762,137 763,137 764,136 764,136 765,135 766,135 767,134 768,134 769,133 770,133 770,133 771,133 772,133 773,132 774,132 775,132 776,131 777,131 777,131 778,130 779,130 780,130 781,129 782,129 783,129 783,129 784,128 785,128 786,128 787,128 788,128 789,127 790,126 790,126 791,126 792,126 793,126 794,125 795,125 796,125 796,123 797,122 798,122 799,122 800,121 801,121 802,120 803,120 803,120 804,120 805,120 806,120 807,119 808,119 809,118 809,118 810,117 811,117 812,117 813,116 814,116 815,116 816,115 816,114 817,114 818,114 819,114 820,114 821,114 822,114 822,114 823,113 824,112 825,112 826,111 827,111 828,111 829,111 829,110 830,110 831,109 832,109 833,109 834,109 835,108 835,108 836,108 837,107 838,107 839,107 840,107 841,106 841,106 842,105 843,105 844,105 845,105 846,105 847,105 848,105 848,105 849,105 850,104 851,104 852,104 853,103 854,103 854,103 855,103 856,102 857,101 858,101 859,101 860,101 861,101 861,101 862,100 863,100 864,99 865,99 866,99 867,99 867,98 868,98 869,98 870,98 871,98 872,98 873,98 874,98 874,97 875,97 876,96 877,96 878,95 879,95 880,95 880,95 881,95 882,94 883,94 884,94 885,94 886,93 887,93 887,93 888,93 889,93 890,93 891,93 892,93 893,93 893,92 894,92 895,92 896,92 897,92 898,92 899,91 900,91 900,90 901,90 902,90 903,90 904,90 905,89 906,89 906,89 907,89 908,89 909,89 910,89 911,88 912,88 913,88 913,87 914,86 915,86 916,86 917,85 918,85 919,85 919,85 920,85 921,84 922,84 923,83 924,83 925,83 926,83 926,82 927,82 928,82 929,81 930,81 931,81 932,81 932,81 933,80 934,80 935,80 936,79 937,79 938,79 939,78 939,77 940,76 941,76 942,76 943,76 944,69 945,69 945,68 946,68 947,68 948,68 949,68 950,68 951,68 952,68 952,68 953,68 954,68 955,68 956,68 957,68 958,68 958,68 959,68 960,68 961,68 962,74 963,74 964,74 965,74 965,74 966,74 967,74 968,74 969,74 970,74 971,74 971,74 972,74 973,74 973,699 974,699 974,699 107,699 "/>
<polyline fill="none" opacity="1" stroke="#E6194B" stroke-width="1" points="107,694 108,694 108,694 109,693 110,693 111,693 112,693 113,692 114,692 115,691 115,691 116,690 117,690 118,689 119,689 120,689 121,688 121,688 122,688 123,688 124,687 125,687 126,686 127,686 128,686 128,686 129,685 130,685 131,685 132,684 133,684 134,684 134,683 135,683 136,682 137,682 138,682 139,682 140,681 141,680 141,680 142,680 143,679 144,679 145,678 146,677 147,676 147,676 148,676 149,676 150,675 151,674 152,674 153,674 154,673 154,673 155,673 156,673 157,673 158,672 159,671 160,671 160,670 161,670 162,669 163,669 164,669 165,669 166,668 166,667 167,667 168,667 169,667 170,667 171,666 172,666 173,666 173,666 174,666 175,665 176,665 177,664 178,664 179,664 179,664 180,664 181,663 182,663 183,662 184,662 185,662 186,620 186,619 187,619 188,619 189,619 190,618 191,618 192,616 192,616 193,615 194,615 195,614 196,614 197,613 198,613 199,612 199,612 200,612 201,611 202,610 203,610 204,610 205,609 205,609 206,609 207,609 208,609 209,609 210,608 211,608 212,607 212,606 213,606 214,605 215,604 216,604 217,603 218,603 218,603 219,603 220,603 221,602 222,602 223,602 224,602 225,602 225,602 226,601 227,601 228,601 229,601 230,600 231,599 231,599 232,599 233,599 234,599 235,598 236,598 237,598 238,597 238,596 239,596 240,596 241,596 242,596 243,596 244,596 244,595 245,595 246,595 247,595 248,595 249,594 250,594 251,594 251,593 252,593 253,593 254,592 255,592 256,591 257,591 257,591 258,590 259,590 260,590 261,589 262,589 263,588 264,588 264,588 265,588 266,588 267,587 268,587 269,587 270,586 270,586 271,586 272,586 273,586 274,586 275,585 276,585 277,585 277,584 278,584 279,584 280,584 281,583 282,582 283,582 283,581 284,581 285,581 286,580 287,579 288,579 289,579 290,579 290,578 291,578 292,578 293,578 294,578 295,577 296,577 296,576 297,576 298,576 299,576 300,575 301,575 302,575 303,574 303,574 304,574 305,574 306,573 307,573 308,573 309,573 309,572 310,572 311,572 312,572 313,572 314,572 315,571 316,570 316,570 317,570 318,569 319,569 320,569 321,569 322,568 322,568 323,568 324,568 325,568 326,568 327,568 328,568 329,567 329,567 330,567 331,566 332,566 333,565 334,565 335,565 335,565 336,564 337,564 338,564 339,563 340,562 341,561 342,560 342,477 343,477 344,476 345,476 346,476 347,475 348,475 348,475 349,475 350,474 351,474 352,474 353,474 354,474 355,473 355,473 356,473 357,472 358,472 359,472 360,471 361,471 361,471 362,470 363,470 364,470 365,470 366,470 367,469 368,469 368,469 369,468 370,468 371,467 372,467 373,467 374,467 374,467 375,467 376,466 377,466 378,466 379,466 380,465 381,465 381,465 382,465 383,464 384,464 385,464 386,463 387,463 387,463 388,463 389,463 390,462 391,462 392,461 393,460 394,460 394,460 395,460 396,459 397,459 398,459 399,459 400,459 400,459 401,458 402,458 403,457 404,457 405,456 406,456 407,455 407,455 408,455 409,455 410,455 411,454 412,454 413,454 413,454 414,454 415,453 416,453 417,453 418,453 419,453 420,452 420,452 421,452 422,452 423,452 424,451 425,451 426,450 426,450 427,450 428,450 429,428 430,428 431,428 432,428 433,428 433,428 434,427 435,427 436,427 437,427 438,427 439,427 439,426 440,426 441,426 442,426 443,426 444,425 445,425 446,424 446,424 447,424 448,424 449,424 450,423 451,423 452,422 452,421 453,421 454,421 455,421 456,420 457,420 458,420 459,419 459,419 460,419 461,419 462,419 463,418 464,417 465,417 465,416 466,416 467,416 468,415 469,414 470,413 471,413 472,412 472,412 473,412 474,412 475,411 476,411 477,409 478,409 478,409 479,408 480,407 481,407 482,407 483,406 484,405 485,405 485,405 486,405 487,404 488,404 489,403 490,403 491,403 491,403 492,403 493,403 494,402 495,402 496,402 497,402 497,401 498,401 499,400 500,399 501,399 502,398 503,398 504,398 504,397 505,397 506,396 507,396 508,396 509,395 510,395 510,395 511,395 512,394 513,394 514,394 515,394 516,393 517,393 517,392 518,392 519,391 520,391 521,391 522,390 523,390 523,390 524,390 525,390 526,389 527,389 528,388 529,388 530,388 530,388 531,387 532,387 533,387 534,386 535,386 536,386 536,385 537,385 538,385 539,385 540,384 541,384 542,384 543,383 543,383 544,383 545,381 546,381 547,381 548,380 549,380 549,380 550,379 551,379 552,379 553,379 554,379 555,379 556,378 556,378 557,377 558,376 559,376 560,376 561,376 562,375 562,375 563,374 564,374 565,374 566,374 567,373 568,373 569,372 569,372 570,372 571,372 572,372 573,371 574,371 575,370 575,370 576,369 577,369 578,369 579,369 580,369 581,368 582,368 582,368 583,368 584,368 585,367 586,367 587,367 588,367 588,367 589,366 590,366 591,366 592,366 593,366 594,366 595,366 595,366 596,365 597,365 598,364 599,363 600,363 601,362 601,362 602,362 603,361 604,361 605,361 606,361 607,360 608,360 608,360 609,360 610,359 611,359 612,359 613,359 614,359 614,358 615,358 616,358 617,358 618,357 619,357 620,357 621,357 621,356 622,356 623,356 624,355 625,355 626,355 627,355 627,354 628,354 629,354 630,353 631,353 632,352 633,352 634,352 634,352 635,352 636,351 637,351 638,351 639,351 640,350 640,350 641,350 642,349 643,348 644,348 645,348 646,348 647,347 647,347 648,347 649,347 650,347 651,346 652,346 653,346 653,345 654,345 655,344 656,344 657,342 658,342 659,342 660,342 660,342 661,341 662,340 663,340 664,340 665,339 666,339 666,339 667,339 668,339 669,339 670,338 671,338 672,337 673,336 673,336 674,336 675,335 676,335 677,335 678,334 679,333 679,333 680,333 681,333 682,333 683,333 684,332 685,332 686,332 686,331 687,331 688,331 689,331 690,163 691,163 692,163 692,162 693,162 694,161 695,161 696,160 697,160 698,160 699,159 699,159 700,159 701,158 702,158 703,157 704,157 705,157 705,156 706,156 707,156 708,156 709,156 710,156 711,156 712,155 712,155 713,155 714,155 715,154 716,154 717,154 718,153 718,153 719,153 720,153 721,153 722,152 723,152 724,152 725,152 725,152 726,151 727,151 728,151 729,151 730,150 731,150 731,149 732,149 733,148 734,148 735,148 736,147 737,146 738,146 738,146 739,146 740,145 741,145 742,145 743,145 744,144 744,144 745,144 746,144 747,143 748,143 749,143 750,143 751,142 751,142 752,141 753,141 754,141 755,141 756,140 757,140 757,140 758,139 759,139 760,138 761,137 762,137 763,137 764,136 764,136 765,135 766,135 767,134 768,134 769,133 770,133 770,133 771,133 772,133 773,132 774,132 775,132 776,131 777,131 777,131 778,130 779,130 780,130 781,129 782,129 783,129 783,129 784,128 785,128 786,128 787,128 788,128 789,127 790,126 790,126 791,126 792,126 793,126 794,125 795,125 796,125 796,123 797,122 798,122 799,122 800,121 801,121 802,120 803,120 803,120 804,120 805,120 806,120 807,119 808,119 809,118 809,118 810,117 811,117 812,117 813,116 814,116 815,116 816,115 816,114 817,114 818,114 819,114 820,114 821,114 822,114 822,114 823,113 824,112 825,112 826,111 827,111 828,111 829,111 829,110 830,110 831,109 832,109 833,109 834,109 835,108 835,108 836,108 837,107 838,107 839,107 840,107 841,106 841,106 842,105 843,105 844,105 845,105 846,105 847,105 848,105 848,105 849,105 850,104 851,104 852,104 853,103 854,103 854,103 855,103 856,102 857,101 858,101 859,101 860,101 861,101 861,101 862,100 863,100 864,99 865,99 866,99 867,99 867,98 868,98 869,98 870,98 871,98 872,98 873,98 874,98 874,97 875,97 876,96 877,96 878,95 879,95 880,95 880,95 881,95 882,94 883,94 884,94 885,94 886,93 887,93 887,93 888,93 889,93 890,93 891,93 892,93 893,93 893,92 894,92 895,92 896,92 897,92 898,92 899,91 900,91 900,90 901,90 902,90 903,90 904,90 905,89 906,89 906,89 907,89 908,89 909,89 910,89 911,88 912,88 913,88 913,87 914,86 915,86 916,86 917,85 918,85 919,85 919,85 920,85 921,84 922,84 923,83 924,83 925,83 926,83 926,82 927,82 928,82 929,81 930,81 931,81 932,81 932,81 933,80 934,80 935,80 936,79 937,79 938,79 939,78 939,77 940,76 941,76 942,76 943,76 944,69 945,69 945,68 946,68 947,68 948,68 949,68 950,68 951,68 952,68 952,68 953,68 954,68 955,68 956,68 957,68 958,68 958,68 959,68 960,68 961,68 962,74 963,74 964,74 965,74 965,74 966,74 967,74 968,74 969,74 970,74 971,74 971,74 972,74 973,74 973,699 974,699 "/>
<line opacity="0.1" stroke="#000000" stroke-width="1" x1="85" y1="699" x2="85" y2="67"/>
<line opacity="0.1" stroke="#000000" stroke-width="1" x1="103" y1="699" x2="103" y2="67"/>
<line opacity="0.1" stroke="#000000" stroke-width="1" x1="121" y1="699" x2="121" y2="67"/>
<line opacity="0.1" stroke="#000000" stroke-width="1" x1="139" y1="699" x2="139" y2="67"/>
<line opacity="0.1" stroke="#000000" stroke-width="1" x1="157" y1="699" x2="157" y2="67"/>
<line opacity="0.1" stroke="#000000" stroke-width="1" x1="174" y1="699" x2="174" y2="67"/>
<line opacity="0.1" stroke="#000000" stroke-width="1" x1="192" y1="699" x2="192" y2="67"/>
<line opacity="0.1" stroke="#000000" stroke-width="1" x1="210" y1="699" x2="210" y2="67"/>
<line opacity="0.1" stroke="#000000" stroke-width="1" x1="228" y1="699" x2="228" y2="67"/>
<line opacity="0.1" stroke="#000000" stroke-width="1" x1="246" y1="699" x2="246" y2="67"/>
<line opacity="0.1" stroke="#000000" stroke-width="1" x1="264" y1="699" x2="264" y2="67"/>
<line opacity="0.1" stroke="#000000" stroke-width="1" x1="282" y1="699" x2="282" y2="67"/>
<line opacity="0.1" stroke="#000000" stroke-width="1" x1="300" y1="699" x2="300" y2="67"/>
<line opacity="0.1" stroke="#000000" stroke-width="1" x1="318" y1="699" x2="318" y2="67"/>
<line opacity="0.1" stroke="#000000" stroke-width="1" x1="336" y1="699" x2="336" y2="67"/>
<line opacity="0.1" stroke="#000000" stroke-width="1" x1="354" y1="699" x2="354" y2="67"/>
<line opacity="0.1" stroke="#000000" stroke-width="1" x1="372" y1="699" x2="372" y2="67"/>
<line opacity="0.1" stroke="#000000" stroke-width="1" x1="389" y1="699" x2="389" y2="67"/>
<line opacity="0.1" stroke="#000000" stroke-width="1" x1="407" y1="699" x2="407" y2="67"/>
<line opacity="0.1" stroke="#000000" stroke-width="1" x1="425" y1="699" x2="425" y2="67"/>
<line opacity="0.1" stroke="#000000" stroke-width="1" x1="443" y1="699" x2="443" y2="67"/>
<line opacity="0.1" stroke="#000000" stroke-width="1" x1="461" y1="699" x2="461" y2="67"/>
<line opacity="0.1" stroke="#000000" stroke-width="1" x1="479" y1="699" x2="479" y2="67"/>
<line opacity="0.1" stroke="#000000" stroke-width="1" x1="497" y1="699" x2="497" y2="67"/>
<line opacity="0.1" stroke="#000000" stroke-width="1" x1="515" y1="699" x2="515" y2="67"/>
<line opacity="0.1" stroke="#000000" stroke-width="1" x1="533" y1="699" x2="533" y2="67"/>
<line opacity="0.1" stroke="#000000" stroke-width="1" x1="551" y1="699" x2="551" y2="67"/>
<line opacity="0.1" stroke="#000000" stroke-width="1" x1="569" y1="699" x2="569" y2="67"/>
<line opacity="0.1" stroke="#000000" stroke-width="1" x1="587" y1="699" x2="587" y2="67"/>
<line opacity="0.1" stroke="#000000" stroke-width="1" x1="604" y1="699" x2="604" y2="67"/>
<line opacity="0.1" stroke="#000000" stroke-width="1" x1="622" y1="699" x2="622" y2="67"/>
<line opacity="0.1" stroke="#000000" stroke-width="1" x1="640" y1="699" x2="640" y2="67"/>
<line opacity="0.1" stroke="#000000" stroke-width="1" x1="658" y1="699" x2="658" y2="67"/>
<line opacity="0.1" stroke="#000000" stroke-width="1" x1="676" y1="699" x2="676" y2="67"/>
<line opacity="0.1" stroke="#000000" stroke-width="1" x1="694" y1="699" x2="694" y2="67"/>
<line opacity="0.1" stroke="#000000" stroke-width="1" x1="712" y1="699" x2="712" y2="67"/>
<line opacity="0.1" stroke="#000000" stroke-width="1" x1="730" y1="699" x2="730" y2="67"/>
<line opacity="0.1" stroke="#000000" stroke-width="1" x1="748" y1="699" x2="748" y2="67"/>
<line opacity="0.1" stroke="#000000" stroke-width="1" x1="766" y1="699" x2="766" y2="67"/>
<line opacity="0.1" stroke="#000000" stroke-width="1" x1="784" y1="699" x2="784" y2="67"/>
<line opacity="0.1" stroke="#000000" stroke-width="1" x1="802" y1="699" x2="802" y2="67"/>
<line opacity="0.1" stroke="#000000" stroke-width="1" x1="819" y1="699" x2="819" y2="67"/>
<line opacity="0.1" stroke="#000000" stroke-width="1" x1="837" y1="699" x2="837" y2="67"/>
<line opacity="0.1" stroke="#000000" stroke-width="1" x1="855" y1="699" x2="855" y2="67"/>
<line opacity="0.1" stroke="#000000" stroke-width="1" x1="873" y1="699" x2="873" y2="67"/>
<line opacity="0.1" stroke="#000000" stroke-width="1" x1="891" y1="699" x2="891" y2="67"/>
<line opacity="0.1" stroke="#000000" stroke-width="1" x1="909" y1="699" x2="909" y2="67"/>
<line opacity="0.1" stroke="#000000" stroke-width="1" x1="927" y1="699" x2="927" y2="67"/>
<line opacity="0.1" stroke="#000000" stroke-width="1" x1="945" y1="699" x2="945" y2="67"/>
<line opacity="0.1" stroke="#000000" stroke-width="1" x1="963" y1="699" x2="963" y2="67"/>
<line opacity="0.1" stroke="#000000" stroke-width="1" x1="78" y1="699" x2="974" y2="699"/>
<line opacity="0.1" stroke="#000000" stroke-width="1" x1="78" y1="692" x2="974" y2="692"/>
<line opacity="0.1" stroke="#000000" stroke-width="1" x1="78" y1="685" x2="974" y2="685"/>
<line opacity="0.1" stroke="#000000" stroke-width="1" x1="78" y1="678" x2="974" y2="678"/>
<line opacity="0.1" stroke="#000000" stroke-width="1" x1="78" y1="671" x2="974" y2="671"/>
<line opacity="0.1" stroke="#000000" stroke-width="1" x1="78" y1="665" x2="974" y2="665"/>
<line opacity="0.1" stroke="#000000" stroke-width="1" x1="78" y1="658" x2="974" y2="658"/>
<line opacity="0.1" stroke="#000000" stroke-width="1" x1="78" y1="651" x2="974" y2="651"/>
<line opacity="0.1" stroke="#000000" stroke-width="1" x1="78" y1="644" x2="974" y2="644"/>
<line opacity="0.1" stroke="#000000" stroke-width="1" x1="78" y1="637" x2="974" y2="637"/>
<line opacity="0.1" stroke="#000000" stroke-width="1" x1="78" y1="631" x2="974" y2="631"/>
<line opacity="0.1" stroke="#000000" stroke-width="1" x1="78" y1="624" x2="974" y2="624"/>
<line opacity="0.1" stroke="#000000" stroke-width="1" x1="78" y1="617" x2="974" y2="617"/>
<line opacity="0.1" stroke="#000000" stroke-width="1" x1="78" y1="610" x2="974" y2="610"/>
<line opacity="0.1" stroke="#000000" stroke-width="1" x1="78" y1="604" x2="974" y2="604"/>
<line opacity="0.1" stroke="#000000" stroke-width="1" x1="78" y1="597" x2="974" y2="597"/>
<line opacity="0.1" stroke="#000000" stroke-width="1" x1="78" y1="590" x2="974" y2="590"/>
<line opacity="0.1" stroke="#000000" stroke-width="1" x1="78" y1="583" x2="974" y2="583"/>
<line opacity="0.1" stroke="#000000" stroke-width="1" x1="78" y1="576" x2="974" y2="576"/>
<line opacity="0.1" stroke="#000000" stroke-width="1" x1="78" y1="570" x2="974" y2="570"/>
<line opacity="0.1" stroke="#000000" stroke-width="1" x1="78" y1="563" x2="974" y2="563"/>
<line opacity="0.1" stroke="#000000" stroke-width="1" x1="78" y1="556" x2="974" y2="556"/>
<line opacity="0.1" stroke="#000000" stroke-width="1" x1="78" y1="549" x2="974" y2="549"/>
<line opacity="0.1" stroke="#000000" stroke-width="1" x1="78" y1="543" x2="974" y2="543"/>
<line opacity="0.1" stroke="#000000" stroke-width="1" x1="78" y1="536" x2="974" y2="536"/>
<line opacity="0.1" stroke="#000000" stroke-width="1" x1="78" y1="529" x2="974" y2="529"/>
<line opacity="0.1" stroke="#000000" stroke-width="1" x1="78" y1="522" x2="974" y2="522"/>
<line opacity="0.1" stroke="#000000" stroke-width="1" x1="78" y1="515" x2="974" y2="515"/>
<line opacity="0.1" stroke="#000000" stroke-width="1" x1="78" y1="509" x2="974" y2="509"/>
<line opacity="0.1" stroke="#000000" stroke-width="1" x1="78" y1="502" x2="974" y2="502"/>
<line opacity="0.1" stroke="#000000" stroke-width="1" x1="78" y1="495" x2="974" y2="495"/>
<line opacity="0.1" stroke="#000000" stroke-width="1" x1="78" y1="488" x2="974" y2="488"/>
<line opacity="0.1" stroke="#000000" stroke-width="1" x1="78" y1="481" x2="974" y2="481"/>
<line opacity="0.1" stroke="#000000" stroke-width="1" x1="78" y1="475" x2="974" y2="475"/>
<line opacity="0.1" stroke="#000000" stroke-width="1" x1="78" y1="468" x2="974" y2="468"/>
<line opacity="0.1" stroke="#000000" stroke-width="1" x1="78" y1="461" x2="974" y2="461"/>
<line opacity="0.1" stroke="#000000" stroke-width="1" x1="78" y1="454" x2="974" y2="454"/>
<line opacity="0.1" stroke="#000000" stroke-width="1" x1="78" y1="448" x2="974" y2="448"/>
<line opacity="0.1" stroke="#000000" stroke-width="1" x1="78" y1="441" x2="974" y2="441"/>
<line opacity="0.1" stroke="#000000" stroke-width="1" x1="78" y1="434" x2="974" y2="434"/>
<line opacity="0.1" stroke="#000000" stroke-width="1" x1="78" y1="427" x2="974" y2="427"/>
<line opacity="0.1" stroke="#000000" stroke-width="1" x1="78" y1="420" x2="974" y2="420"/>
<line opacity="0.1" stroke="#000000" stroke-width="1" x1="78" y1="414" x2="974" y2="414"/>
<line opacity="0.1" stroke="#000000" stroke-width="1" x1="78" y1="407" x2="974" y2="407"/>
<line opacity="0.1" stroke="#000000" stroke-width="1" x1="78" y1="400" x2="974" y2="400"/>
<line opacity="0.1" stroke="#000000" stroke-width="1" x1="78" y1="393" x2="974" y2="393"/>
<line opacity="0.1" stroke="#000000" stroke-width="1" x1="78" y1="387" x2="974" y2="387"/>
<line opacity="0.1" stroke="#000000" stroke-width="1" x1="78" y1="380" x2="974" y2="380"/>
<line opacity="0.1" stroke="#000000" stroke-width="1" x1="78" y1="373" x2="974" y2="373"/>
<line opacity="0.1" stroke="#000000" stroke-width="1" x1="78" y1="366" x2="974" y2="366"/>
<line opacity="0.1" stroke="#000000" stroke-width="1" x1="78" y1="359" x2="974" y2="359"/>
<line opacity="0.1" stroke="#000000" stroke-width="1" x1="78" y1="353" x2="974" y2="353"/>
<line opacity="0.1" stroke="#000000" stroke-width="1" x1="78" y1="346" x2="974" y2="346"/>
<line opacity="0.1" stroke="#000000" stroke-width="1" x1="78" y1="339" x2="974" y2="339"/>
<line opacity="0.1" stroke="#000000" stroke-width="1" x1="78" y1="332" x2="974" y2="332"/>
<line opacity="0.1" stroke="#000000" stroke-width="1" x1="78" y1="325" x2="974" y2="325"/>
<line opacity="0.1" stroke="#000000" stroke-width="1" x1="78" y1="319" x2="974" y2="319"/>
<line opacity="0.1" stroke="#000000" stroke-width="1" x1="78" y1="312" x2="974" y2="312"/>
<line opacity="0.1" stroke="#000000" stroke-width="1" x1="78" y1="305" x2="974" y2="305"/>
<line opacity="0.1" stroke="#000000" stroke-width="1" x1="78" y1="298" x2="974" y2="298"/>
<line opacity="0.1" stroke="#000000" stroke-width="1" x1="78" y1="292" x2="974" y2="292"/>
<line opacity="0.1" stroke="#000000" stroke-width="1" x1="78" y1="285" x2="974" y2="285"/>
<line opacity="0.1" stroke="#000000" stroke-width="1" x1="78" y1="278" x2="974" y2="278"/>
<line opacity="0.1" stroke="#000000" stroke-width="1" x1="78" y1="271" x2="974" y2="271"/>
<line opacity="0.1" stroke="#000000" stroke-width="1" x1="78" y1="264" x2="974" y2="264"/>
<line opacity="0.1" stroke="#000000" stroke-width="1" x1="78" y1="258" x2="974" y2="258"/>
<line opacity="0.1" stroke="#000000" stroke-width="1" x1="78" y1="251" x2="974" y2="251"/>
<line opacity="0.1" stroke="#000000" stroke-width="1" x1="78" y1="244" x2="974" y2="244"/>
<line opacity="0.1" stroke="#000000" stroke-width="1" x1="78" y1="237" x2="974" y2="237"/>
<line opacity="0.1" stroke="#000000" stroke-width="1" x1="78" y1="231" x2="974" y2="231"/>
<line opacity="0.1" stroke="#000000" stroke-width="1" x1="78" y1="224" x2="974" y2="224"/>
<line opacity="0.1" stroke="#000000" stroke-width="1" x1="78" y1="217" x2="974" y2="217"/>
<line opacity="0.1" stroke="#000000" stroke-width="1" x1="78" y1="210" x2="974" y2="210"/>
<line opacity="0.1" stroke="#000000" stroke-width="1" x1="78" y1="203" x2="974" y2="203"/>
<line opacity="0.1" stroke="#000000" stroke-width="1" x1="78" y1="197" x2="974" y2="197"/>
<line opacity="0.1" stroke="#000000" stroke-width="1" x1="78" y1="190" x2="974" y2="190"/>
<line opacity="0.1" stroke="#000000" stroke-width="1" x1="78" y1="183" x2="974" y2="183"/>
<line opacity="0.1" stroke="#000000" stroke-width="1" x1="78" y1="176" x2="974" y2="176"/>
<line opacity="0.1" stroke="#000000" stroke-width="1" x1="78" y1="169" x2="974" y2="169"/>
<line opacity="0.1" stroke="#000000" stroke-width="1" x1="78" y1="163" x2="974" y2="163"/>
<line opacity="0.1" stroke="#000000" stroke-width="1" x1="78" y1="156" x2="974" y2="156"/>
<line opacity="0.1" stroke="#000000" stroke-width="1" x1="78" y1="149" x2="974" y2="149"/>
<line opacity="0.1" stroke="#000000" stroke-width="1" x1="78" y1="142" x2="974" y2="142"/>
<line opacity="0.1" stroke="#000000" stroke-width="1" x1="78" y1="136" x2="974" y2="136"/>
<line opacity="0.1" stroke="#000000" stroke-width="1" x1="78" y1="129" x2="974" y2="129"/>
<line opacity="0.1" stroke="#000000" stroke-width="1" x1="78" y1="122" x2="974" y2="122"/>
<line opacity="0.1" stroke="#000000" stroke-width="1" x1="78" y1="115" x2="974" y2="115"/>
<line opacity="0.1" stroke="#000000" stroke-width="1" x1="78" y1="108" x2="974" y2="108"/>
<line opacity="0.1" stroke="#000000" stroke-width="1" x1="78" y1="102" x2="974" y2="102"/>
<line opacity="0.1" stroke="#000000" stroke-width="1" x1="78" y1="95" x2="974" y2="95"/>
<line opacity="0.1" stroke="#000000" stroke-width="1" x1="78" y1="88" x2="974" y2="88"/>
<line opacity="0.1" stroke="#000000" stroke-width="1" x1="78" y1="81" x2="974" y2="81"/>
<line opacity="0.1" stroke="#000000" stroke-width="1" x1="78" y1="75" x2="974" y2="75"/>
<line opacity="0.1" stroke="#000000" stroke-width="1" x1="78" y1="68" x2="974" y2="68"/>
<text x="8" y="384" dy="0.76em" text-anchor="middle" font-family="sans-serif" font-size="9.67741935483871" opacity="1" fill="#000000" transform="rotate(270, 8, 384)">
Memory usage
</text>
<text x="526" y="760" dy="-0.5ex" text-anchor="middle" font-family="sans-serif" font-size="9.67741935483871" opacity="1" fill="#000000">
Time
</text>
<line opacity="0.2" stroke="#000000" stroke-width="1" x1="192" y1="699" x2="192" y2="67"/>
<line opacity="0.2" stroke="#000000" stroke-width="1" x1="372" y1="699" x2="372" y2="67"/>
<line opacity="0.2" stroke="#000000" stroke-width="1" x1="551" y1="699" x2="551" y2="67"/>
<line opacity="0.2" stroke="#000000" stroke-width="1" x1="730" y1="699" x2="730" y2="67"/>
<line opacity="0.2" stroke="#000000" stroke-width="1" x1="909" y1="699" x2="909" y2="67"/>
<line opacity="0.2" stroke="#000000" stroke-width="1" x1="78" y1="699" x2="974" y2="699"/>
<line opacity="0.2" stroke="#000000" stroke-width="1" x1="78" y1="529" x2="974" y2="529"/>
<line opacity="0.2" stroke="#000000" stroke-width="1" x1="78" y1="359" x2="974" y2="359"/>
<line opacity="0.2" stroke="#000000" stroke-width="1" x1="78" y1="190" x2="974" y2="190"/>
<polyline fill="none" opacity="1" stroke="#000000" stroke-width="1" points="77,68 77,700 "/>
<text x="68" y="699" dy="0.5ex" text-anchor="end" font-family="sans-serif" font-size="9.67741935483871" opacity="1" fill="#000000">
0 KB
</text>
<polyline fill="none" opacity="1" stroke="#000000" stroke-width="1" points="72,699 77,699 "/>
<text x="68" y="529" dy="0.5ex" text-anchor="end" font-family="sans-serif" font-size="9.67741935483871" opacity="1" fill="#000000">
48 KB
</text>
<polyline fill="none" opacity="1" stroke="#000000" stroke-width="1" points="72,529 77,529 "/>
<text x="68" y="359" dy="0.5ex" text-anchor="end" font-family="sans-serif" font-size="9.67741935483871" opacity="1" fill="#000000">
97 KB
</text>
<polyline fill="none" opacity="1" stroke="#000000" stroke-width="1" points="72,359 77,359 "/>
<text x="68" y="190" dy="0.5ex" text-anchor="end" font-family="sans-serif" font-size="9.67741935483871" opacity="1" fill="#000000">
146 KB
</text>
<polyline fill="none" opacity="1" stroke="#000000" stroke-width="1" points="72,190 77,190 "/>
<polyline fill="none" opacity="1" stroke="#000000" stroke-width="1" points="78,700 974,700 "/>
<text x="192" y="710" dy="0.76em" text-anchor="middle" font-family="sans-serif" font-size="9.67741935483871" opacity="1" fill="#000000">
06:26:08
</text>
<polyline fill="none" opacity="1" stroke="#000000" stroke-width="1" points="192,700 192,705 "/>
<text x="372" y="710" dy="0.76em" text-anchor="middle" font-family="sans-serif" font-size="9.67741935483871" opacity="1" fill="#000000">
06:26:10
</text>
<polyline fill="none" opacity="1" stroke="#000000" stroke-width="1" points="372,700 372,705 "/>
<text x="551" y="710" dy="0.76em" text-anchor="middle" font-family="sans-serif" font-size="9.67741935483871" opacity="1" fill="#000000">
06:26:12
</text>
<polyline fill="none" opacity="1" stroke="#000000" stroke-width="1" points="551,700 551,705 "/>
<text x="730" y="710" dy="0.76em" text-anchor="middle" font-family="sans-serif" font-size="9.67741935483871" opacity="1" fill="#000000">
06:26:14
</text>
<polyline fill="none" opacity="1" stroke="#000000" stroke-width="1" points="730,700 730,705 "/>
<text x="909" y="710" dy="0.76em" text-anchor="middle" font-family="sans-serif" font-size="9.67741935483871" opacity="1" fill="#000000">
06:26:16
</text>
<polyline fill="none" opacity="1" stroke="#000000" stroke-width="1" points="909,700 909,705 "/>
<polyline fill="none" opacity="1" stroke="#000000" stroke-width="1" points="78,67 974,67 "/>
<text x="192" y="58" dy="-0.5ex" text-anchor="middle" font-family="sans-serif" font-size="9.67741935483871" opacity="1" fill="#000000">
+1s
</text>
<polyline fill="none" opacity="1" stroke="#000000" stroke-width="1" points="192,62 192,67 "/>
<text x="372" y="58" dy="-0.5ex" text-anchor="middle" font-family="sans-serif" font-size="9.67741935483871" opacity="1" fill="#000000">
+3s
</text>
<polyline fill="none" opacity="1" stroke="#000000" stroke-width="1" points="372,62 372,67 "/>
<text x="551" y="58" dy="-0.5ex" text-anchor="middle" font-family="sans-serif" font-size="9.67741935483871" opacity="1" fill="#000000">
+5s
</text>
<polyline fill="none" opacity="1" stroke="#000000" stroke-width="1" points="551,62 551,67 "/>
<text x="730" y="58" dy="-0.5ex" text-anchor="middle" font-family="sans-serif" font-size="9.67741935483871" opacity="1" fill="#000000">
+7s
</text>
<polyline fill="none" opacity="1" stroke="#000000" stroke-width="1" points="730,62 730,67 "/>
<text x="909" y="58" dy="-0.5ex" text-anchor="middle" font-family="sans-serif" font-size="9.67741935483871" opacity="1" fill="#000000">
+9s
</text>
<polyline fill="none" opacity="1" stroke="#000000" stroke-width="1" points="909,62 909,67 "/>
</svg>
