<svg width="1024" height="768" viewBox="0 0 1024 768" xmlns="http://www.w3.org/2000/svg">
<rect x="0" y="0" width="1023" height="767" opacity="1" fill="#FFFFFF" stroke="none"/>
<polygon opacity="1" fill="#E6194B" points="78,684 78,684 79,679 80,678 81,676 82,676 83,675 84,676 85,673 86,673 86,673 87,673 88,673 89,674 90,673 91,671 92,671 93,671 94,668 95,669 95,667 96,667 97,663 98,661 99,657 100,656 101,657 102,657 103,655 103,652 104,650 105,646 106,645 107,648 108,648 109,647 110,646 111,643 112,641 112,638 113,637 114,637 115,637 116,638 117,637 118,633 119,631 120,632 121,629 121,627 122,627 123,627 124,627 125,624 126,620 127,619 128,617 129,614 129,610 130,610 131,606 132,605 133,603 134,602 135,599 136,598 137,598 138,597 138,596 139,593 140,592 141,591 142,591 143,589 144,587 145,585 146,583 146,581 147,580 148,579 149,577 150,576 151,576 152,575 153,572 154,571 155,571 155,572 156,572 157,571 158,571 159,570 160,567 161,566 162,567 163,566 164,565 164,563 165,565 166,565 167,561 168,561 169,561 170,560 171,559 172,559 172,557 173,557 174,557 175,555 176,554 177,552 178,551 179,551 180,551 181,551 181,552 182,553 183,554 184,552 185,552 186,552 187,551 188,553 189,552 190,550 190,547 191,547 192,547 193,544 194,543 195,543 196,545 197,546 198,545 198,546 199,545 200,545 201,543 202,542 203,542 204,541 205,541 206,540 207,538 207,537 208,537 209,537 210,537 211,535 212,532 213,532 214,532 215,527 215,526 216,526 217,521 218,521 219,522 220,521 221,517 222,517 223,515 224,513 224,513 225,512 226,513 227,513 228,511 229,512 230,511 231,510 232,508 233,507 233,508 234,509 235,509 236,508 237,508 238,506 239,504 240,503 241,503 241,502 242,501 243,501 244,499 245,497 246,497 247,497 248,496 249,494 250,494 250,493 251,496 252,498 253,497 254,495 255,494 256,492 257,493 258,492 258,493 259,495 260,493 261,491 262,492 263,492 264,492 265,492 266,491 267,491 267,491 268,488 269,486 270,483 271,483 272,483 273,482 274,480 275,478 276,477 276,479 277,480 278,479 279,479 280,480 281,481 282,482 283,480 284,478 284,477 285,474 286,474 287,475 288,474 289,472 290,472 291,469 292,468 293,468 293,466 294,464 295,463 296,462 297,461 298,460 299,458 300,455 301,453 302,453 302,452 303,453 304,449 305,450 306,451 307,450 308,447 309,445 310,442 310,443 311,444 312,445 313,445 314,441 315,439 316,439 317,439 318,437 319,437 319,437 320,439 321,440 322,436 323,434 324,436 325,437 326,438 327,436 327,439 328,442 329,442 330,443 331,441 332,441 333,438 334,437 335,434 336,434 336,435 337,434 338,434 339,433 340,434 341,434 342,431 343,429 344,428 345,428 345,426 346,425 347,425 348,423 349,423 350,422 351,421 352,422 353,420 353,420 354,420 355,420 356,420 357,418 358,415 359,416 360,416 361,415 362,411 362,408 363,405 364,405 365,404 366,402 367,400 368,401 369,402 370,404 370,403 371,405 372,405 373,404 374,405 375,403 376,401 377,402 378,402 379,401 379,401 380,400 381,399 382,398 383,396 384,395 385,395 386,392 387,392 388,392 388,392 389,392 390,392 391,394 392,393 393,391 394,392 395,390 396,388 396,389 397,388 398,388 399,385 400,384 401,386 402,383 403,383 404,383 405,384 405,382 406,382 407,381 408,380 409,380 410,379 411,377 412,376 413,373 414,373 414,373 415,369 416,370 417,368 418,369 419,369 420,369 421,370 422,370 422,370 423,367 424,364 425,365 426,366 427,361 428,358 429,355 430,354 431,353 431,353 432,353 433,351 434,352 435,349 436,349 437,349 438,348 439,346 439,347 440,346 441,346 442,346 443,346 444,346 445,342 446,343 447,341 448,341 448,338 449,336 450,333 451,332 452,332 453,331 454,331 455,331 456,327 457,326 457,326 458,328 459,326 460,324 461,325 462,324 463,321 464,320 465,318 465,316 466,315 467,313 468,313 469,311 470,310 471,311 472,309 473,309 474,308 474,307 475,308 476,309 477,310 478,309 479,309 480,308 481,306 482,306 482,305 483,305 484,305 485,303 486,300 487,302 488,301 489,299 490,299 491,297 491,297 492,297 493,298 494,296 495,296 496,297 497,296 498,295 499,294 500,294 500,293 501,293 502,292 503,293 504,295 505,295 506,294 507,293 508,294 508,295 509,296 510,297 511,297 512,297 513,296 514,295 515,293 516,292 517,291 517,291 518,291 519,291 520,291 521,291 522,284 523,281 524,284 525,286 526,284 526,284 527,284 528,283 529,282 530,284 531,284 532,284 533,283 534,282 534,283 535,281 536,280 537,280 538,279 539,279 540,279 541,277 542,277 543,276 543,276 544,273 545,273 546,273 547,271 548,272 549,274 550,273 551,274 551,275 552,276 553,274 554,274 555,276 556,275 557,276 558,275 559,272 560,271 560,271 561,271 562,269 563,269 564,269 565,272 566,272 567,271 568,270 569,271 569,272 570,275 571,274 572,273 573,271 574,272 575,272 576,271 577,271 577,272 578,271 579,270 580,271 581,271 582,270 583,268 584,269 585,268 586,269 586,267 587,265 588,266 589,266 590,265 591,264 592,264 593,263 594,260 594,259 595,259 596,260 597,259 598,258 599,258 600,258 601,259 602,259 603,261 603,262 604,261 605,263 606,264 607,262 608,261 609,260 610,261 611,263 612,262 612,261 613,261 614,260 615,259 616,259 617,260 618,258 619,257 620,256 620,257 621,257 622,257 623,259 624,259 625,259 626,258 627,257 628,257 629,255 629,254 630,253 631,252 632,250 633,247 634,245 635,244 636,244 637,243 638,244 638,242 639,240 640,240 641,239 642,239 643,238 644,238 645,237 646,234 646,234 647,235 648,236 649,238 650,238 651,237 652,237 653,238 654,237 655,233 655,231 656,231 657,232 658,234 659,233 660,232 661,231 662,230 663,232 663,231 664,229 665,229 666,228 667,226 668,224 669,224 670,221 671,221 672,222 672,226 673,226 674,224 675,224 676,223 677,223 678,223 679,225 680,224 681,221 681,221 682,221 683,222 684,222 685,220 686,218 687,216 688,217 689,217 689,218 690,218 691,216 692,214 693,213 694,209 695,210 696,211 697,210 698,210 698,210 699,207 700,207 701,207 702,207 703,205 704,204 705,205 706,206 706,204 707,204 708,205 709,206 710,206 711,207 712,204 713,202 714,202 715,199 715,199 716,198 717,198 718,200 719,199 720,200 721,200 722,199 723,198 724,196 724,196 725,196 726,199 727,199 728,194 729,191 730,190 731,191 732,192 732,191 733,191 734,190 735,191 736,190 737,191 738,190 739,191 740,191 741,190 741,189 742,189 743,191 744,189 745,189 746,193 747,193 748,191 749,191 750,191 750,191 751,189 752,187 753,183 754,180 755,180 756,181 757,180 758,180 758,179 759,179 760,179 761,178 762,178 763,178 764,178 765,178 766,178 767,175 767,175 768,177 769,178 770,178 771,179 772,178 773,178 774,176 775,176 775,176 776,174 777,171 778,172 779,171 780,170 781,166 782,166 783,165 784,167 784,169 785,169 786,170 787,170 788,170 789,167 790,166 791,164 792,164 793,163 793,162 794,160 795,158 796,157 797,156 798,156 799,156 800,155 801,155 801,156 802,156 803,158 804,158 805,158 806,159 807,159 808,159 809,160 810,158 810,157 811,156 812,156 813,154 814,154 815,154 816,153 817,151 818,150 818,151 819,151 820,151 821,150 822,151 823,151 824,153 825,153 826,151 827,150 827,149 828,149 829,151 830,152 831,153 832,156 833,155 834,156 835,153 836,150 836,150 837,150 838,148 839,147 840,147 841,145 842,145 843,144 844,144 844,143 845,143 846,144 847,144 848,144 849,144 850,143 851,143 852,142 853,142 853,141 854,139 855,136 856,136 857,137 858,135 859,134 860,134 861,133 862,134 862,135 863,135 864,135 865,135 866,136 867,135 868,136 869,138 870,138 870,138 871,138 872,139 873,137 874,136 875,134 876,134 877,133 878,131 879,131 879,130 880,129 881,127 882,127 883,126 884,125 885,125 886,126 887,124 887,124 888,123 889,120 890,118 891,116 892,116 893,116 894,117 895,117 896,116 896,118 897,119 898,120 899,119 900,118 901,118 902,118 903,116 904,117 905,115 905,114 906,115 907,115 908,115 909,115 910,116 911,114 912,113 913,113 913,112 914,112 915,111 916,110 917,110 918,110 919,109 920,108 921,107 922,108 922,106 923,104 924,103 925,103 926,102 927,103 928,102 929,100 930,100 930,101 931,97 932,95 933,94 934,94 935,93 936,93 937,93 938,93 939,93 939,89 940,88 941,88 942,88 943,85 944,84 945,83 946,84 947,84 948,84 948,84 949,83 950,83 951,84 952,84 953,83 954,83 955,84 956,85 956,83 957,81 958,78 959,78 960,77 961,77 962,75 963,75 964,76 965,76 965,76 966,75 967,75 968,76 969,77 970,76 971,73 972,72 973,68 974,68 974,350 974,350 974,699 78,699 "/>
<polyline fill="none" opacity="1" stroke="#E6194B" stroke-width="1" points="78,684 78,684 79,679 80,678 81,676 82,676 83,675 84,676 85,673 86,673 86,673 87,673 88,673 89,674 90,673 91,671 92,671 93,671 94,668 95,669 95,667 96,667 97,663 98,661 99,657 100,656 101,657 102,657 103,655 103,652 104,650 105,646 106,645 107,648 108,648 109,647 110,646 111,643 112,641 112,638 113,637 114,637 115,637 116,638 117,637 118,633 119,631 120,632 121,629 121,627 122,627 123,627 124,627 125,624 126,620 127,619 128,617 129,614 129,610 130,610 131,606 132,605 133,603 134,602 135,599 136,598 137,598 138,597 138,596 139,593 140,592 141,591 142,591 143,589 144,587 145,585 146,583 146,581 147,580 148,579 149,577 150,576 151,576 152,575 153,572 154,571 155,571 155,572 156,572 157,571 158,571 159,570 160,567 161,566 162,567 163,566 164,565 164,563 165,565 166,565 167,561 168,561 169,561 170,560 171,559 172,559 172,557 173,557 174,557 175,555 176,554 177,552 178,551 179,551 180,551 181,551 181,552 182,553 183,554 184,552 185,552 186,552 187,551 188,553 189,552 190,550 190,547 191,547 192,547 193,544 194,543 195,543 196,545 197,546 198,545 198,546 199,545 200,545 201,543 202,542 203,542 204,541 205,541 206,540 207,538 207,537 208,537 209,537 210,537 211,535 212,532 213,532 214,532 215,527 215,526 216,526 217,521 218,521 219,522 220,521 221,517 222,517 223,515 224,513 224,513 225,512 226,513 227,513 228,511 229,512 230,511 231,510 232,508 233,507 233,508 234,509 235,509 236,508 237,508 238,506 239,504 240,503 241,503 241,502 242,501 243,501 244,499 245,497 246,497 247,497 248,496 249,494 250,494 250,493 251,496 252,498 253,497 254,495 255,494 256,492 257,493 258,492 258,493 259,495 260,493 261,491 262,492 263,492 264,492 265,492 266,491 267,491 267,491 268,488 269,486 270,483 271,483 272,483 273,482 274,480 275,478 276,477 276,479 277,480 278,479 279,479 280,480 281,481 282,482 283,480 284,478 284,477 285,474 286,474 287,475 288,474 289,472 290,472 291,469 292,468 293,468 293,466 294,464 295,463 296,462 297,461 298,460 299,458 300,455 301,453 302,453 302,452 303,453 304,449 305,450 306,451 307,450 308,447 309,445 310,442 310,443 311,444 312,445 313,445 314,441 315,439 316,439 317,439 318,437 319,437 319,437 320,439 321,440 322,436 323,434 324,436 325,437 326,438 327,436 327,439 328,442 329,442 330,443 331,441 332,441 333,438 334,437 335,434 336,434 336,435 337,434 338,434 339,433 340,434 341,434 342,431 343,429 344,428 345,428 345,426 346,425 347,425 348,423 349,423 350,422 351,421 352,422 353,420 353,420 354,420 355,420 356,420 357,418 358,415 359,416 360,416 361,415 362,411 362,408 363,405 364,405 365,404 366,402 367,400 368,401 369,402 370,404 370,403 371,405 372,405 373,404 374,405 375,403 376,401 377,402 378,402 379,401 379,401 380,400 381,399 382,398 383,396 384,395 385,395 386,392 387,392 388,392 388,392 389,392 390,392 391,394 392,393 393,391 394,392 395,390 396,388 396,389 397,388 398,388 399,385 400,384 401,386 402,383 403,383 404,383 405,384 405,382 406,382 407,381 408,380 409,380 410,379 411,377 412,376 413,373 414,373 414,373 415,369 416,370 417,368 418,369 419,369 420,369 421,370 422,370 422,370 423,367 424,364 425,365 426,366 427,361 428,358 429,355 430,354 431,353 431,353 432,353 433,351 434,352 435,349 436,349 437,349 438,348 439,346 439,347 440,346 441,346 442,346 443,346 444,346 445,342 446,343 447,341 448,341 448,338 449,336 450,333 451,332 452,332 453,331 454,331 455,331 456,327 457,326 457,326 458,328 459,326 460,324 461,325 462,324 463,321 464,320 465,318 465,316 466,315 467,313 468,313 469,311 470,310 471,311 472,309 473,309 474,308 474,307 475,308 476,309 477,310 478,309 479,309 480,308 481,306 482,306 482,305 483,305 484,305 485,303 486,300 487,302 488,301 489,299 490,299 491,297 491,297 492,297 493,298 494,296 495,296 496,297 497,296 498,295 499,294 500,294 500,293 501,293 502,292 503,293 504,295 505,295 506,294 507,293 508,294 508,295 509,296 510,297 511,297 512,297 513,296 514,295 515,293 516,292 517,291 517,291 518,291 519,291 520,291 521,291 522,284 523,281 524,284 525,286 526,284 526,284 527,284 528,283 529,282 530,284 531,284 532,284 533,283 534,282 534,283 535,281 536,280 537,280 538,279 539,279 540,279 541,277 542,277 543,276 543,276 544,273 545,273 546,273 547,271 548,272 549,274 550,273 551,274 551,275 552,276 553,274 554,274 555,276 556,275 557,276 558,275 559,272 560,271 560,271 561,271 562,269 563,269 564,269 565,272 566,272 567,271 568,270 569,271 569,272 570,275 571,274 572,273 573,271 574,272 575,272 576,271 577,271 577,272 578,271 579,270 580,271 581,271 582,270 583,268 584,269 585,268 586,269 586,267 587,265 588,266 589,266 590,265 591,264 592,264 593,263 594,260 594,259 595,259 596,260 597,259 598,258 599,258 600,258 601,259 602,259 603,261 603,262 604,261 605,263 606,264 607,262 608,261 609,260 610,261 611,263 612,262 612,261 613,261 614,260 615,259 616,259 617,260 618,258 619,257 620,256 620,257 621,257 622,257 623,259 624,259 625,259 626,258 627,257 628,257 629,255 629,254 630,253 631,252 632,250 633,247 634,245 635,244 636,244 637,243 638,244 638,242 639,240 640,240 641,239 642,239 643,238 644,238 645,237 646,234 646,234 647,235 648,236 649,238 650,238 651,237 652,237 653,238 654,237 655,233 655,231 656,231 657,232 658,234 659,233 660,232 661,231 662,230 663,232 663,231 664,229 665,229 666,228 667,226 668,224 669,224 670,221 671,221 672,222 672,226 673,226 674,224 675,224 676,223 677,223 678,223 679,225 680,224 681,221 681,221 682,221 683,222 684,222 685,220 686,218 687,216 688,217 689,217 689,218 690,218 691,216 692,214 693,213 694,209 695,210 696,211 697,210 698,210 698,210 699,207 700,207 701,207 702,207 703,205 704,204 705,205 706,206 706,204 707,204 708,205 709,206 710,206 711,207 712,204 713,202 714,202 715,199 715,199 716,198 717,198 718,200 719,199 720,200 721,200 722,199 723,198 724,196 724,196 725,196 726,199 727,199 728,194 729,191 730,190 731,191 732,192 732,191 733,191 734,190 735,191 736,190 737,191 738,190 739,191 740,191 741,190 741,189 742,189 743,191 744,189 745,189 746,193 747,193 748,191 749,191 750,191 750,191 751,189 752,187 753,183 754,180 755,180 756,181 757,180 758,180 758,179 759,179 760,179 761,178 762,178 763,178 764,178 765,178 766,178 767,175 767,175 768,177 769,178 770,178 771,179 772,178 773,178 774,176 775,176 775,176 776,174 777,171 778,172 779,171 780,170 781,166 782,166 783,165 784,167 784,169 785,169 786,170 787,170 788,170 789,167 790,166 791,164 792,164 793,163 793,162 794,160 795,158 796,157 797,156 798,156 799,156 800,155 801,155 801,156 802,156 803,158 804,158 805,158 806,159 807,159 808,159 809,160 810,158 810,157 811,156 812,156 813,154 814,154 815,154 816,153 817,151 818,150 818,151 819,151 820,151 821,150 822,151 823,151 824,153 825,153 826,151 827,150 827,149 828,149 829,151 830,152 831,153 832,156 833,155 834,156 835,153 836,150 836,150 837,150 838,148 839,147 840,147 841,145 842,145 843,144 844,144 844,143 845,143 846,144 847,144 848,144 849,144 850,143 851,143 852,142 853,142 853,141 854,139 855,136 856,136 857,137 858,135 859,134 860,134 861,133 862,134 862,135 863,135 864,135 865,135 866,136 867,135 868,136 869,138 870,138 870,138 871,138 872,139 873,137 874,136 875,134 876,134 877,133 878,131 879,131 879,130 880,129 881,127 882,127 883,126 884,125 885,125 886,126 887,124 887,124 888,123 889,120 890,118 891,116 892,116 893,116 894,117 895,117 896,116 896,118 897,119 898,120 899,119 900,118 901,118 902,118 903,116 904,117 905,115 905,114 906,115 907,115 908,115 909,115 910,116 911,114 912,113 913,113 913,112 914,112 915,111 916,110 917,110 918,110 919,109 920,108 921,107 922,108 922,106 923,104 924,103 925,103 926,102 927,103 928,102 929,100 930,100 930,101 931,97 932,95 933,94 934,94 935,93 936,93 937,93 938,93 939,93 939,89 940,88 941,88 942,88 943,85 944,84 945,83 946,84 947,84 948,84 948,84 949,83 950,83 951,84 952,84 953,83 954,83 955,84 956,85 956,83 957,81 958,78 959,78 960,77 961,77 962,75 963,75 964,76 965,76 965,76 966,75 967,75 968,76 969,77 970,76 971,73 972,72 973,68 974,68 974,350 974,350 "/>
<line opacity="0.1" stroke="#000000" stroke-width="1" x1="83" y1="699" x2="83" y2="67"/>
<line opacity="0.1" stroke="#000000" stroke-width="1" x1="92" y1="699" x2="92" y2="67"/>
<line opacity="0.1" stroke="#000000" stroke-width="1" x1="101" y1="699" x2="101" y2="67"/>
<line opacity="0.1" stroke="#000000" stroke-width="1" x1="111" y1="699" x2="111" y2="67"/>
<line opacity="0.1" stroke="#000000" stroke-width="1" x1="120" y1="699" x2="120" y2="67"/>
<line opacity="0.1" stroke="#000000" stroke-width="1" x1="129" y1="699" x2="129" y2="67"/>
<line opacity="0.1" stroke="#000000" stroke-width="1" x1="138" y1="699" x2="138" y2="67"/>
<line opacity="0.1" stroke="#000000" stroke-width="1" x1="148" y1="699" x2="148" y2="67"/>
<line opacity="0.1" stroke="#000000" stroke-width="1" x1="157" y1="699" x2="157" y2="67"/>
<line opacity="0.1" stroke="#000000" stroke-width="1" x1="166" y1="699" x2="166" y2="67"/>
<line opacity="0.1" stroke="#000000" stroke-width="1" x1="175" y1="699" x2="175" y2="67"/>
<line opacity="0.1" stroke="#000000" stroke-width="1" x1="185" y1="699" x2="185" y2="67"/>
<line opacity="0.1" stroke="#000000" stroke-width="1" x1="194" y1="699" x2="194" y2="67"/>
<line opacity="0.1" stroke="#000000" stroke-width="1" x1="203" y1="699" x2="203" y2="67"/>
<line opacity="0.1" stroke="#000000" stroke-width="1" x1="212" y1="699" x2="212" y2="67"/>
<line opacity="0.1" stroke="#000000" stroke-width="1" x1="222" y1="699" x2="222" y2="67"/>
<line opacity="0.1" stroke="#000000" stroke-width="1" x1="231" y1="699" x2="231" y2="67"/>
<line opacity="0.1" stroke="#000000" stroke-width="1" x1="240" y1="699" x2="240" y2="67"/>
<line opacity="0.1" stroke="#000000" stroke-width="1" x1="249" y1="699" x2="249" y2="67"/>
<line opacity="0.1" stroke="#000000" stroke-width="1" x1="259" y1="699" x2="259" y2="67"/>
<line opacity="0.1" stroke="#000000" stroke-width="1" x1="268" y1="699" x2="268" y2="67"/>
<line opacity="0.1" stroke="#000000" stroke-width="1" x1="277" y1="699" x2="277" y2="67"/>
<line opacity="0.1" stroke="#000000" stroke-width="1" x1="287" y1="699" x2="287" y2="67"/>
<line opacity="0.1" stroke="#000000" stroke-width="1" x1="296" y1="699" x2="296" y2="67"/>
<line opacity="0.1" stroke="#000000" stroke-width="1" x1="305" y1="699" x2="305" y2="67"/>
<line opacity="0.1" stroke="#000000" stroke-width="1" x1="314" y1="699" x2="314" y2="67"/>
<line opacity="0.1" stroke="#000000" stroke-width="1" x1="324" y1="699" x2="324" y2="67"/>
<line opacity="0.1" stroke="#000000" stroke-width="1" x1="333" y1="699" x2="333" y2="67"/>
<line opacity="0.1" stroke="#000000" stroke-width="1" x1="342" y1="699" x2="342" y2="67"/>
<line opacity="0.1" stroke="#000000" stroke-width="1" x1="351" y1="699" x2="351" y2="67"/>
<line opacity="0.1" stroke="#000000" stroke-width="1" x1="361" y1="699" x2="361" y2="67"/>
<line opacity="0.1" stroke="#000000" stroke-width="1" x1="370" y1="699" x2="370" y2="67"/>
<line opacity="0.1" stroke="#000000" stroke-width="1" x1="379" y1="699" x2="379" y2="67"/>
<line opacity="0.1" stroke="#000000" stroke-width="1" x1="388" y1="699" x2="388" y2="67"/>
<line opacity="0.1" stroke="#000000" stroke-width="1" x1="398" y1="699" x2="398" y2="67"/>
<line opacity="0.1" stroke="#000000" stroke-width="1" x1="407" y1="699" x2="407" y2="67"/>
<line opacity="0.1" stroke="#000000" stroke-width="1" x1="416" y1="699" x2="416" y2="67"/>
<line opacity="0.1" stroke="#000000" stroke-width="1" x1="425" y1="699" x2="425" y2="67"/>
<line opacity="0.1" stroke="#000000" stroke-width="1" x1="435" y1="699" x2="435" y2="67"/>
<line opacity="0.1" stroke="#000000" stroke-width="1" x1="444" y1="699" x2="444" y2="67"/>
<line opacity="0.1" stroke="#000000" stroke-width="1" x1="453" y1="699" x2="453" y2="67"/>
<line opacity="0.1" stroke="#000000" stroke-width="1" x1="463" y1="699" x2="463" y2="67"/>
<line opacity="0.1" stroke="#000000" stroke-width="1" x1="472" y1="699" x2="472" y2="67"/>
<line opacity="0.1" stroke="#000000" stroke-width="1" x1="481" y1="699" x2="481" y2="67"/>
<line opacity="0.1" stroke="#000000" stroke-width="1" x1="490" y1="699" x2="490" y2="67"/>
<line opacity="0.1" stroke="#000000" stroke-width="1" x1="500" y1="699" x2="500" y2="67"/>
<line opacity="0.1" stroke="#000000" stroke-width="1" x1="509" y1="699" x2="509" y2="67"/>
<line opacity="0.1" stroke="#000000" stroke-width="1" x1="518" y1="699" x2="518" y2="67"/>
<line opacity="0.1" stroke="#000000" stroke-width="1" x1="527" y1="699" x2="527" y2="67"/>
<line opacity="0.1" stroke="#000000" stroke-width="1" x1="537" y1="699" x2="537" y2="67"/>
<line opacity="0.1" stroke="#000000" stroke-width="1" x1="546" y1="699" x2="546" y2="67"/>
<line opacity="0.1" stroke="#000000" stroke-width="1" x1="555" y1="699" x2="555" y2="67"/>
<line opacity="0.1" stroke="#000000" stroke-width="1" x1="564" y1="699" x2="564" y2="67"/>
<line opacity="0.1" stroke="#000000" stroke-width="1" x1="574" y1="699" x2="574" y2="67"/>
<line opacity="0.1" stroke="#000000" stroke-width="1" x1="583" y1="699" x2="583" y2="67"/>
<line opacity="0.1" stroke="#000000" stroke-width="1" x1="592" y1="699" x2="592" y2="67"/>
<line opacity="0.1" stroke="#000000" stroke-width="1" x1="601" y1="699" x2="601" y2="67"/>
<line opacity="0.1" stroke="#000000" stroke-width="1" x1="611" y1="699" x2="611" y2="67"/>
<line opacity="0.1" stroke="#000000" stroke-width="1" x1="620" y1="699" x2="620" y2="67"/>
<line opacity="0.1" stroke="#000000" stroke-width="1" x1="629" y1="699" x2="629" y2="67"/>
<line opacity="0.1" stroke="#000000" stroke-width="1" x1="639" y1="699" x2="639" y2="67"/>
<line opacity="0.1" stroke="#000000" stroke-width="1" x1="648" y1="699" x2="648" y2="67"/>
<line opacity="0.1" stroke="#000000" stroke-width="1" x1="657" y1="699" x2="657" y2="67"/>
<line opacity="0.1" stroke="#000000" stroke-width="1" x1="666" y1="699" x2="666" y2="67"/>
<line opacity="0.1" stroke="#000000" stroke-width="1" x1="676" y1="699" x2="676" y2="67"/>
<line opacity="0.1" stroke="#000000" stroke-width="1" x1="685" y1="699" x2="685" y2="67"/>
<line opacity="0.1" stroke="#000000" stroke-width="1" x1="694" y1="699" x2="694" y2="67"/>
<line opacity="0.1" stroke="#000000" stroke-width="1" x1="703" y1="699" x2="703" y2="67"/>
<line opacity="0.1" stroke="#000000" stroke-width="1" x1="713" y1="699" x2="713" y2="67"/>
<line opacity="0.1" stroke="#000000" stroke-width="1" x1="722" y1="699" x2="722" y2="67"/>
<line opacity="0.1" stroke="#000000" stroke-width="1" x1="731" y1="699" x2="731" y2="67"/>
<line opacity="0.1" stroke="#000000" stroke-width="1" x1="740" y1="699" x2="740" y2="67"/>
<line opacity="0.1" stroke="#000000" stroke-width="1" x1="750" y1="699" x2="750" y2="67"/>
<line opacity="0.1" stroke="#000000" stroke-width="1" x1="759" y1="699" x2="759" y2="67"/>
<line opacity="0.1" stroke="#000000" stroke-width="1" x1="768" y1="699" x2="768" y2="67"/>
<line opacity="0.1" stroke="#000000" stroke-width="1" x1="777" y1="699" x2="777" y2="67"/>
<line opacity="0.1" stroke="#000000" stroke-width="1" x1="787" y1="699" x2="787" y2="67"/>
<line opacity="0.1" stroke="#000000" stroke-width="1" x1="796" y1="699" x2="796" y2="67"/>
<line opacity="0.1" stroke="#000000" stroke-width="1" x1="805" y1="699" x2="805" y2="67"/>
<line opacity="0.1" stroke="#000000" stroke-width="1" x1="815" y1="699" x2="815" y2="67"/>
<line opacity="0.1" stroke="#000000" stroke-width="1" x1="824" y1="699" x2="824" y2="67"/>
<line opacity="0.1" stroke="#000000" stroke-width="1" x1="833" y1="699" x2="833" y2="67"/>
<line opacity="0.1" stroke="#000000" stroke-width="1" x1="842" y1="699" x2="842" y2="67"/>
<line opacity="0.1" stroke="#000000" stroke-width="1" x1="852" y1="699" x2="852" y2="67"/>
<line opacity="0.1" stroke="#000000" stroke-width="1" x1="861" y1="699" x2="861" y2="67"/>
<line opacity="0.1" stroke="#000000" stroke-width="1" x1="870" y1="699" x2="870" y2="67"/>
<line opacity="0.1" stroke="#000000" stroke-width="1" x1="879" y1="699" x2="879" y2="67"/>
<line opacity="0.1" stroke="#000000" stroke-width="1" x1="889" y1="699" x2="889" y2="67"/>
<line opacity="0.1" stroke="#000000" stroke-width="1" x1="898" y1="699" x2="898" y2="67"/>
<line opacity="0.1" stroke="#000000" stroke-width="1" x1="907" y1="699" x2="907" y2="67"/>
<line opacity="0.1" stroke="#000000" stroke-width="1" x1="916" y1="699" x2="916" y2="67"/>
<line opacity="0.1" stroke="#000000" stroke-width="1" x1="926" y1="699" x2="926" y2="67"/>
<line opacity="0.1" stroke="#000000" stroke-width="1" x1="935" y1="699" x2="935" y2="67"/>
<line opacity="0.1" stroke="#000000" stroke-width="1" x1="944" y1="699" x2="944" y2="67"/>
<line opacity="0.1" stroke="#000000" stroke-width="1" x1="953" y1="699" x2="953" y2="67"/>
<line opacity="0.1" stroke="#000000" stroke-width="1" x1="963" y1="699" x2="963" y2="67"/>
<line opacity="0.1" stroke="#000000" stroke-width="1" x1="972" y1="699" x2="972" y2="67"/>
<line opacity="0.1" stroke="#000000" stroke-width="1" x1="78" y1="699" x2="974" y2="699"/>
<line opacity="0.1" stroke="#000000" stroke-width="1" x1="78" y1="691" x2="974" y2="691"/>
<line opacity="0.1" stroke="#000000" stroke-width="1" x1="78" y1="684" x2="974" y2="684"/>
<line opacity="0.1" stroke="#000000" stroke-width="1" x1="78" y1="677" x2="974" y2="677"/>
<line opacity="0.1" stroke="#000000" stroke-width="1" x1="78" y1="669" x2="974" y2="669"/>
<line opacity="0.1" stroke="#000000" stroke-width="1" x1="78" y1="662" x2="974" y2="662"/>
<line opacity="0.1" stroke="#000000" stroke-width="1" x1="78" y1="655" x2="974" y2="655"/>
<line opacity="0.1" stroke="#000000" stroke-width="1" x1="78" y1="647" x2="974" y2="647"/>
<line opacity="0.1" stroke="#000000" stroke-width="1" x1="78" y1="640" x2="974" y2="640"/>
<line opacity="0.1" stroke="#000000" stroke-width="1" x1="78" y1="633" x2="974" y2="633"/>
<line opacity="0.1" stroke="#000000" stroke-width="1" x1="78" y1="626" x2="974" y2="626"/>
<line opacity="0.1" stroke="#000000" stroke-width="1" x1="78" y1="618" x2="974" y2="618"/>
<line opacity="0.1" stroke="#000000" stroke-width="1" x1="78" y1="611" x2="974" y2="611"/>
<line opacity="0.1" stroke="#000000" stroke-width="1" x1="78" y1="604" x2="974" y2="604"/>
<line opacity="0.1" stroke="#000000" stroke-width="1" x1="78" y1="596" x2="974" y2="596"/>
<line opacity="0.1" stroke="#000000" stroke-width="1" x1="78" y1="589" x2="974" y2="589"/>
<line opacity="0.1" stroke="#000000" stroke-width="1" x1="78" y1="582" x2="974" y2="582"/>
<line opacity="0.1" stroke="#000000" stroke-width="1" x1="78" y1="574" x2="974" y2="574"/>
<line opacity="0.1" stroke="#000000" stroke-width="1" x1="78" y1="567" x2="974" y2="567"/>
<line opacity="0.1" stroke="#000000" stroke-width="1" x1="78" y1="560" x2="974" y2="560"/>
<line opacity="0.1" stroke="#000000" stroke-width="1" x1="78" y1="553" x2="974" y2="553"/>
<line opacity="0.1" stroke="#000000" stroke-width="1" x1="78" y1="545" x2="974" y2="545"/>
<line opacity="0.1" stroke="#000000" stroke-width="1" x1="78" y1="538" x2="974" y2="538"/>
<line opacity="0.1" stroke="#000000" stroke-width="1" x1="78" y1="531" x2="974" y2="531"/>
<line opacity="0.1" stroke="#000000" stroke-width="1" x1="78" y1="523" x2="974" y2="523"/>
<line opacity="0.1" stroke="#000000" stroke-width="1" x1="78" y1="516" x2="974" y2="516"/>
<line opacity="0.1" stroke="#000000" stroke-width="1" x1="78" y1="509" x2="974" y2="509"/>
<line opacity="0.1" stroke="#000000" stroke-width="1" x1="78" y1="501" x2="974" y2="501"/>
<line opacity="0.1" stroke="#000000" stroke-width="1" x1="78" y1="494" x2="974" y2="494"/>
<line opacity="0.1" stroke="#000000" stroke-width="1" x1="78" y1="487" x2="974" y2="487"/>
<line opacity="0.1" stroke="#000000" stroke-width="1" x1="78" y1="480" x2="974" y2="480"/>
<line opacity="0.1" stroke="#000000" stroke-width="1" x1="78" y1="472" x2="974" y2="472"/>
<line opacity="0.1" stroke="#000000" stroke-width="1" x1="78" y1="465" x2="974" y2="465"/>
<line opacity="0.1" stroke="#000000" stroke-width="1" x1="78" y1="458" x2="974" y2="458"/>
<line opacity="0.1" stroke="#000000" stroke-width="1" x1="78" y1="450" x2="974" y2="450"/>
<line opacity="0.1" stroke="#000000" stroke-width="1" x1="78" y1="443" x2="974" y2="443"/>
<line opacity="0.1" stroke="#000000" stroke-width="1" x1="78" y1="436" x2="974" y2="436"/>
<line opacity="0.1" stroke="#000000" stroke-width="1" x1="78" y1="428" x2="974" y2="428"/>
<line opacity="0.1" stroke="#000000" stroke-width="1" x1="78" y1="421" x2="974" y2="421"/>
<line opacity="0.1" stroke="#000000" stroke-width="1" x1="78" y1="414" x2="974" y2="414"/>
<line opacity="0.1" stroke="#000000" stroke-width="1" x1="78" y1="407" x2="974" y2="407"/>
<line opacity="0.1" stroke="#000000" stroke-width="1" x1="78" y1="399" x2="974" y2="399"/>
<line opacity="0.1" stroke="#000000" stroke-width="1" x1="78" y1="392" x2="974" y2="392"/>
<line opacity="0.1" stroke="#000000" stroke-width="1" x1="78" y1="385" x2="974" y2="385"/>
<line opacity="0.1" stroke="#000000" stroke-width="1" x1="78" y1="377" x2="974" y2="377"/>
<line opacity="0.1" stroke="#000000" stroke-width="1" x1="78" y1="370" x2="974" y2="370"/>
<line opacity="0.1" stroke="#000000" stroke-width="1" x1="78" y1="363" x2="974" y2="363"/>
<line opacity="0.1" stroke="#000000" stroke-width="1" x1="78" y1="355" x2="974" y2="355"/>
<line opacity="0.1" stroke="#000000" stroke-width="1" x1="78" y1="348" x2="974" y2="348"/>
<line opacity="0.1" stroke="#000000" stroke-width="1" x1="78" y1="341" x2="974" y2="341"/>
<line opacity="0.1" stroke="#000000" stroke-width="1" x1="78" y1="334" x2="974" y2="334"/>
<line opacity="0.1" stroke="#000000" stroke-width="1" x1="78" y1="326" x2="974" y2="326"/>
<line opacity="0.1" stroke="#000000" stroke-width="1" x1="78" y1="319" x2="974" y2="319"/>
<line opacity="0.1" stroke="#000000" stroke-width="1" x1="78" y1="312" x2="974" y2="312"/>
<line opacity="0.1" stroke="#000000" stroke-width="1" x1="78" y1="304" x2="974" y2="304"/>
<line opacity="0.1" stroke="#000000" stroke-width="1" x1="78" y1="297" x2="974" y2="297"/>
<line opacity="0.1" stroke="#000000" stroke-width="1" x1="78" y1="290" x2="974" y2="290"/>
<line opacity="0.1" stroke="#000000" stroke-width="1" x1="78" y1="283" x2="974" y2="283"/>
<line opacity="0.1" stroke="#000000" stroke-width="1" x1="78" y1="275" x2="974" y2="275"/>
<line opacity="0.1" stroke="#000000" stroke-width="1" x1="78" y1="268" x2="974" y2="268"/>
<line opacity="0.1" stroke="#000000" stroke-width="1" x1="78" y1="261" x2="974" y2="261"/>
<line opacity="0.1" stroke="#000000" stroke-width="1" x1="78" y1="253" x2="974" y2="253"/>
<line opacity="0.1" stroke="#000000" stroke-width="1" x1="78" y1="246" x2="974" y2="246"/>
<line opacity="0.1" stroke="#000000" stroke-width="1" x1="78" y1="239" x2="974" y2="239"/>
<line opacity="0.1" stroke="#000000" stroke-width="1" x1="78" y1="231" x2="974" y2="231"/>
<line opacity="0.1" stroke="#000000" stroke-width="1" x1="78" y1="224" x2="974" y2="224"/>
<line opacity="0.1" stroke="#000000" stroke-width="1" x1="78" y1="217" x2="974" y2="217"/>
<line opacity="0.1" stroke="#000000" stroke-width="1" x1="78" y1="210" x2="974" y2="210"/>
<line opacity="0.1" stroke="#000000" stroke-width="1" x1="78" y1="202" x2="974" y2="202"/>
<line opacity="0.1" stroke="#000000" stroke-width="1" x1="78" y1="195" x2="974" y2="195"/>
<line opacity="0.1" stroke="#000000" stroke-width="1" x1="78" y1="188" x2="974" y2="188"/>
<line opacity="0.1" stroke="#000000" stroke-width="1" x1="78" y1="180" x2="974" y2="180"/>
<line opacity="0.1" stroke="#000000" stroke-width="1" x1="78" y1="173" x2="974" y2="173"/>
<line opacity="0.1" stroke="#000000" stroke-width="1" x1="78" y1="166" x2="974" y2="166"/>
<line opacity="0.1" stroke="#000000" stroke-width="1" x1="78" y1="158" x2="974" y2="158"/>
<line opacity="0.1" stroke="#000000" stroke-width="1" x1="78" y1="151" x2="974" y2="151"/>
<line opacity="0.1" stroke="#000000" stroke-width="1" x1="78" y1="144" x2="974" y2="144"/>
<line opacity="0.1" stroke="#000000" stroke-width="1" x1="78" y1="137" x2="974" y2="137"/>
<line opacity="0.1" stroke="#000000" stroke-width="1" x1="78" y1="129" x2="974" y2="129"/>
<line opacity="0.1" stroke="#000000" stroke-width="1" x1="78" y1="122" x2="974" y2="122"/>
<line opacity="0.1" stroke="#000000" stroke-width="1" x1="78" y1="115" x2="974" y2="115"/>
<line opacity="0.1" stroke="#000000" stroke-width="1" x1="78" y1="107" x2="974" y2="107"/>
<line opacity="0.1" stroke="#000000" stroke-width="1" x1="78" y1="100" x2="974" y2="100"/>
<line opacity="0.1" stroke="#000000" stroke-width="1" x1="78" y1="93" x2="974" y2="93"/>
<line opacity="0.1" stroke="#000000" stroke-width="1" x1="78" y1="85" x2="974" y2="85"/>
<line opacity="0.1" stroke="#000000" stroke-width="1" x1="78" y1="78" x2="974" y2="78"/>
<line opacity="0.1" stroke="#000000" stroke-width="1" x1="78" y1="71" x2="974" y2="71"/>
<text x="8" y="384" dy="0.76em" text-anchor="middle" font-family="sans-serif" font-size="9.67741935483871" opacity="1" fill="#000000" transform="rotate(270, 8, 384)">
Live allocations
</text>
<text x="526" y="760" dy="-0.5ex" text-anchor="middle" font-family="sans-serif" font-size="9.67741935483871" opacity="1" fill="#000000">
Time
</text>
<line opacity="0.2" stroke="#000000" stroke-width="1" x1="166" y1="699" x2="166" y2="67"/>
<line opacity="0.2" stroke="#000000" stroke-width="1" x1="259" y1="699" x2="259" y2="67"/>
<line opacity="0.2" stroke="#000000" stroke-width="1" x1="351" y1="699" x2="351" y2="67"/>
<line opacity="0.2" stroke="#000000" stroke-width="1" x1="444" y1="699" x2="444" y2="67"/>
<line opacity="0.2" stroke="#000000" stroke-width="1" x1="537" y1="699" x2="537" y2="67"/>
<line opacity="0.2" stroke="#000000" stroke-width="1" x1="629" y1="699" x2="629" y2="67"/>
<line opacity="0.2" stroke="#000000" stroke-width="1" x1="722" y1="699" x2="722" y2="67"/>
<line opacity="0.2" stroke="#000000" stroke-width="1" x1="815" y1="699" x2="815" y2="67"/>
<line opacity="0.2" stroke="#000000" stroke-width="1" x1="907" y1="699" x2="907" y2="67"/>
<line opacity="0.2" stroke="#000000" stroke-width="1" x1="78" y1="699" x2="974" y2="699"/>
<line opacity="0.2" stroke="#000000" stroke-width="1" x1="78" y1="626" x2="974" y2="626"/>
<line opacity="0.2" stroke="#000000" stroke-width="1" x1="78" y1="553" x2="974" y2="553"/>
<line opacity="0.2" stroke="#000000" stroke-width="1" x1="78" y1="480" x2="974" y2="480"/>
<line opacity="0.2" stroke="#000000" stroke-width="1" x1="78" y1="407" x2="974" y2="407"/>
<line opacity="0.2" stroke="#000000" stroke-width="1" x1="78" y1="334" x2="974" y2="334"/>
<line opacity="0.2" stroke="#000000" stroke-width="1" x1="78" y1="261" x2="974" y2="261"/>
<line opacity="0.2" stroke="#000000" stroke-width="1" x1="78" y1="188" x2="974" y2="188"/>
<line opacity="0.2" stroke="#000000" stroke-width="1" x1="78" y1="115" x2="974" y2="115"/>
<polyline fill="none" opacity="1" stroke="#000000" stroke-width="1" points="77,68 77,700 "/>
<text x="68" y="699" dy="0.5ex" text-anchor="end" font-family="sans-serif" font-size="9.67741935483871" opacity="1" fill="#000000">
0.00 K
</text>
<polyline fill="none" opacity="1" stroke="#000000" stroke-width="1" points="72,699 77,699 "/>
<text x="68" y="626" dy="0.5ex" text-anchor="end" font-family="sans-serif" font-size="9.67741935483871" opacity="1" fill="#000000">
0.50 K
</text>
<polyline fill="none" opacity="1" stroke="#000000" stroke-width="1" points="72,626 77,626 "/>
<text x="68" y="553" dy="0.5ex" text-anchor="end" font-family="sans-serif" font-size="9.67741935483871" opacity="1" fill="#000000">
1.00 K
</text>
<polyline fill="none" opacity="1" stroke="#000000" stroke-width="1" points="72,553 77,553 "/>
<text x="68" y="480" dy="0.5ex" text-anchor="end" font-family="sans-serif" font-size="9.67741935483871" opacity="1" fill="#000000">
1.50 K
</text>
<polyline fill="none" opacity="1" stroke="#000000" stroke-width="1" points="72,480 77,480 "/>
<text x="68" y="407" dy="0.5ex" text-anchor="end" font-family="sans-serif" font-size="9.67741935483871" opacity="1" fill="#000000">
2.00 K
</text>
<polyline fill="none" opacity="1" stroke="#000000" stroke-width="1" points="72,407 77,407 "/>
<text x="68" y="334" dy="0.5ex" text-anchor="end" font-family="sans-serif" font-size="9.67741935483871" opacity="1" fill="#000000">
2.50 K
</text>
<polyline fill="none" opacity="1" stroke="#000000" stroke-width="1" points="72,334 77,334 "/>
<text x="68" y="261" dy="0.5ex" text-anchor="end" font-family="sans-serif" font-size="9.67741935483871" opacity="1" fill="#000000">
3.00 K
</text>
<polyline fill="none" opacity="1" stroke="#000000" stroke-width="1" points="72,261 77,261 "/>
<text x="68" y="188" dy="0.5ex" text-anchor="end" font-family="sans-serif" font-size="9.67741935483871" opacity="1" fill="#000000">
3.50 K
</text>
<polyline fill="none" opacity="1" stroke="#000000" stroke-width="1" points="72,188 77,188 "/>
<text x="68" y="115" dy="0.5ex" text-anchor="end" font-family="sans-serif" font-size="9.67741935483871" opacity="1" fill="#000000">
4.00 K
</text>
<polyline fill="none" opacity="1" stroke="#000000" stroke-width="1" points="72,115 77,115 "/>
<polyline fill="none" opacity="1" stroke="#000000" stroke-width="1" points="78,700 974,700 "/>
<text x="166" y="710" dy="0.76em" text-anchor="middle" font-family="sans-serif" font-size="9.67741935483871" opacity="1" fill="#000000">
06:26:08
</text>
<polyline fill="none" opacity="1" stroke="#000000" stroke-width="1" points="166,700 166,705 "/>
<text x="259" y="710" dy="0.76em" text-anchor="middle" font-family="sans-serif" font-size="9.67741935483871" opacity="1" fill="#000000">
06:26:09
</text>
<polyline fill="none" opacity="1" stroke="#000000" stroke-width="1" points="259,700 259,705 "/>
<text x="351" y="710" dy="0.76em" text-anchor="middle" font-family="sans-serif" font-size="9.67741935483871" opacity="1" fill="#000000">
06:26:10
</text>
<polyline fill="none" opacity="1" stroke="#000000" stroke-width="1" points="351,700 351,705 "/>
<text x="444" y="710" dy="0.76em" text-anchor="middle" font-family="sans-serif" font-size="9.67741935483871" opacity="1" fill="#000000">
06:26:11
</text>
<polyline fill="none" opacity="1" stroke="#000000" stroke-width="1" points="444,700 444,705 "/>
<text x="537" y="710" dy="0.76em" text-anchor="middle" font-family="sans-serif" font-size="9.67741935483871" opacity="1" fill="#000000">
06:26:12
</text>
<polyline fill="none" opacity="1" stroke="#000000" stroke-width="1" points="537,700 537,705 "/>
<text x="629" y="710" dy="0.76em" text-anchor="middle" font-family="sans-serif" font-size="9.67741935483871" opacity="1" fill="#000000">
06:26:13
</text>
<polyline fill="none" opacity="1" stroke="#000000" stroke-width="1" points="629,700 629,705 "/>
<text x="722" y="710" dy="0.76em" text-anchor="middle" font-family="sans-serif" font-size="9.67741935483871" opacity="1" fill="#000000">
06:26:14
</text>
<polyline fill="none" opacity="1" stroke="#000000" stroke-width="1" points="722,700 722,705 "/>
<text x="815" y="710" dy="0.76em" text-anchor="middle" font-family="sans-serif" font-size="9.67741935483871" opacity="1" fill="#000000">
06:26:15
</text>
<polyline fill="none" opacity="1" stroke="#000000" stroke-width="1" points="815,700 815,705 "/>
<text x="907" y="710" dy="0.76em" text-anchor="middle" font-family="sans-serif" font-size="9.67741935483871" opacity="1" fill="#000000">
06:26:16
</text>
<polyline fill="none" opacity="1" stroke="#000000" stroke-width="1" points="907,700 907,705 "/>
<polyline fill="none" opacity="1" stroke="#000000" stroke-width="1" points="78,67 974,67 "/>
<text x="166" y="58" dy="-0.5ex" text-anchor="middle" font-family="sans-serif" font-size="9.67741935483871" opacity="1" fill="#000000">
+956ms
</text>
<polyline fill="none" opacity="1" stroke="#000000" stroke-width="1" points="166,62 166,67 "/>
<text x="259" y="58" dy="-0.5ex" text-anchor="middle" font-family="sans-serif" font-size="9.67741935483871" opacity="1" fill="#000000">
+1s
</text>
<polyline fill="none" opacity="1" stroke="#000000" stroke-width="1" points="259,62 259,67 "/>
<text x="351" y="58" dy="-0.5ex" text-anchor="middle" font-family="sans-serif" font-size="9.67741935483871" opacity="1" fill="#000000">
+2s
</text>
<polyline fill="none" opacity="1" stroke="#000000" stroke-width="1" points="351,62 351,67 "/>
<text x="444" y="58" dy="-0.5ex" text-anchor="middle" font-family="sans-serif" font-size="9.67741935483871" opacity="1" fill="#000000">
+3s
</text>
<polyline fill="none" opacity="1" stroke="#000000" stroke-width="1" points="444,62 444,67 "/>
<text x="537" y="58" dy="-0.5ex" text-anchor="middle" font-family="sans-serif" font-size="9.67741935483871" opacity="1" fill="#000000">
+4s
</text>
<polyline fill="none" opacity="1" stroke="#000000" stroke-width="1" points="537,62 537,67 "/>
<text x="629" y="58" dy="-0.5ex" text-anchor="middle" font-family="sans-serif" font-size="9.67741935483871" opacity="1" fill="#000000">
+5s
</text>
<polyline fill="none" opacity="1" stroke="#000000" stroke-width="1" points="629,62 629,67 "/>
<text x="722" y="58" dy="-0.5ex" text-anchor="middle" font-family="sans-serif" font-size="9.67741935483871" opacity="1" fill="#000000">
+6s
</text>
<polyline fill="none" opacity="1" stroke="#000000" stroke-width="1" points="722,62 722,67 "/>
<text x="815" y="58" dy="-0.5ex" text-anchor="middle" font-family="sans-serif" font-size="9.67741935483871" opacity="1" fill="#000000">
+7s
</text>
<polyline fill="none" opacity="1" stroke="#000000" stroke-width="1" points="815,62 815,67 "/>
<text x="907" y="58" dy="-0.5ex" text-anchor="middle" font-family="sans-serif" font-size="9.67741935483871" opacity="1" fill="#000000">
+8s
</text>
<polyline fill="none" opacity="1" stroke="#000000" stroke-width="1" points="907,62 907,67 "/>
</svg>
