<svg width="1024" height="768" viewBox="0 0 1024 768" xmlns="http://www.w3.org/2000/svg">
<rect x="0" y="0" width="1023" height="767" opacity="1" fill="#FFFFFF" stroke="none"/>
<polygon opacity="1" fill="#E6194B" points="78,68 78,651 79,649 80,646 81,651 82,656 83,652 84,647 85,651 86,650 86,647 87,646 88,647 89,660 90,643 91,649 92,653 93,650 94,646 95,655 95,651 96,650 97,648 98,649 99,650 100,655 101,652 102,645 103,651 103,650 104,650 105,649 106,643 107,652 108,651 109,651 110,650 111,650 112,648 112,655 113,645 114,652 115,646 116,651 117,651 118,649 119,652 120,646 121,654 121,651 122,650 123,652 124,651 125,648 126,649 127,651 128,645 129,650 129,650 130,650 131,654 132,651 133,645 134,650 135,650 136,656 137,641 138,652 138,651 139,650 140,652 141,649 142,653 143,650 144,652 145,650 146,649 146,647 147,650 148,647 149,645 150,647 151,650 152,651 153,644 154,651 155,653 155,645 156,651 157,647 158,656 159,648 160,649 161,651 162,651 163,651 164,650 164,651 165,646 166,652 167,650 168,647 169,646 170,651 171,654 172,648 172,650 173,651 174,651 175,649 176,649 177,646 178,651 179,651 180,652 181,653 181,651 182,652 183,646 184,650 185,656 186,647 187,648 188,645 189,651 190,645 190,650 191,655 192,646 193,650 194,661 195,662 196,662 197,660 198,661 198,660 199,665 200,661 201,661 202,661 203,660 204,660 205,661 206,660 207,655 207,661 208,660 209,656 210,660 211,656 212,655 213,661 214,661 215,659 215,656 216,660 217,653 218,661 219,660 220,660 221,659 222,660 223,665 224,650 224,661 225,661 226,662 227,661 228,659 229,656 230,660 231,661 232,659 233,657 233,662 234,655 235,661 236,660 237,665 238,651 239,656 240,660 241,656 241,665 242,660 243,661 244,660 245,659 246,661 247,661 248,665 249,655 250,661 250,661 251,658 252,661 253,661 254,659 255,661 256,659 257,661 258,660 258,657 259,657 260,659 261,661 262,660 263,655 264,666 265,656 266,656 267,655 267,660 268,659 269,665 270,654 271,665 272,662 273,655 274,659 275,660 276,656 276,662 277,661 278,660 279,657 280,662 281,656 282,656 283,660 284,660 284,661 285,660 286,657 287,661 288,660 289,660 290,661 291,655 292,660 293,656 293,659 294,655 295,660 296,660 297,656 298,664 299,655 300,659 301,665 302,660 302,656 303,655 304,659 305,661 306,662 307,664 308,654 309,660 310,652 310,652 311,661 312,666 313,661 314,659 315,651 316,657 317,651 318,656 319,646 319,648 320,648 321,652 322,647 323,646 324,652 325,647 326,647 327,653 327,652 328,647 329,652 330,646 331,665 332,665 333,655 334,666 335,657 336,662 336,661 337,665 338,661 339,666 340,661 341,661 342,660 343,665 344,660 345,665 345,661 346,665 347,657 348,665 349,656 350,663 351,661 352,666 353,665 353,661 354,661 355,662 356,660 357,660 358,661 359,666 360,660 361,661 362,664 362,659 363,660 364,661 365,663 366,664 367,665 368,661 369,657 370,666 370,657 371,661 372,660 373,665 374,662 375,665 376,660 377,661 378,661 379,660 379,661 380,663 381,662 382,660 383,660 384,661 385,665 386,660 387,660 388,661 388,661 389,661 390,662 391,665 392,661 393,665 394,656 395,660 396,663 396,661 397,661 398,661 399,660 400,661 401,661 402,660 403,662 404,661 405,661 405,660 406,665 407,665 408,661 409,665 410,656 411,662 412,656 413,659 414,666 414,661 415,664 416,657 417,661 418,665 419,656 420,662 421,662 422,665 422,656 423,669 424,660 425,662 426,658 427,663 428,665 429,659 430,666 431,661 431,661 432,661 433,665 434,665 435,659 436,662 437,660 438,661 439,665 439,661 440,661 441,659 442,663 443,660 444,666 445,659 446,666 447,666 448,661 448,663 449,655 450,659 451,665 452,661 453,660 454,661 455,661 456,659 457,658 457,663 458,661 459,665 460,660 461,662 462,664 463,664 464,666 465,664 465,660 466,665 467,661 468,665 469,664 470,661 471,661 472,663 473,662 474,665 474,660 475,666 476,662 477,660 478,665 479,661 480,661 481,665 482,661 482,661 483,666 484,661 485,664 486,661 487,666 488,666 489,654 490,661 491,659 491,666 492,662 493,664 494,660 495,661 496,665 497,661 498,665 499,664 500,656 500,665 501,661 502,662 503,666 504,661 505,666 506,661 507,664 508,661 508,657 509,666 510,660 511,660 512,662 513,666 514,660 515,663 516,660 517,665 517,656 518,661 519,661 520,665 521,660 522,662 523,666 524,657 525,662 526,659 526,666 527,660 528,665 529,661 530,665 531,660 532,666 533,660 534,665 534,662 535,660 536,665 537,661 538,660 539,661 540,665 541,665 542,661 543,660 543,660 544,660 545,661 546,656 547,660 548,662 549,662 550,663 551,665 551,662 552,661 553,661 554,666 555,661 556,656 557,665 558,661 559,659 560,660 560,661 561,661 562,664 563,662 564,661 565,664 566,666 567,660 568,661 569,666 569,657 570,661 571,665 572,661 573,655 574,662 575,665 576,661 577,667 577,660 578,665 579,661 580,670 581,658 582,665 583,660 584,666 585,661 586,661 586,660 587,660 588,661 589,660 590,661 591,661 592,661 593,660 594,665 594,665 595,661 596,662 597,665 598,666 599,661 600,661 601,661 602,657 603,662 603,661 604,657 605,666 606,661 607,661 608,659 609,661 610,661 611,666 612,656 612,665 613,665 614,661 615,660 616,661 617,665 618,664 619,661 620,661 620,666 621,662 622,657 623,661 624,665 625,661 626,665 627,661 628,656 629,665 629,663 630,665 631,661 632,661 633,659 634,665 635,661 636,661 637,657 638,661 638,664 639,660 640,662 641,664 642,659 643,660 644,662 645,660 646,659 646,667 647,660 648,662 649,661 650,666 651,660 652,662 653,662 654,660 655,663 655,660 656,662 657,661 658,662 659,659 660,665 661,661 662,662 663,665 663,660 664,661 665,665 666,665 667,656 668,664 669,661 670,658 671,666 672,659 672,662 673,661 674,664 675,661 676,666 677,661 678,663 679,660 680,665 681,659 681,661 682,665 683,657 684,661 685,664 686,660 687,661 688,661 689,657 689,666 690,661 691,660 692,660 693,664 694,664 695,662 696,660 697,661 698,665 698,661 699,659 700,665 701,658 702,665 703,660 704,661 705,665 706,661 706,660 707,665 708,662 709,660 710,661 711,661 712,660 713,661 714,660 715,660 715,665 716,660 717,658 718,662 719,665 720,662 721,661 722,661 723,659 724,660 724,661 725,661 726,666 727,664 728,653 729,659 730,666 731,657 732,665 732,660 733,661 734,661 735,661 736,660 737,661 738,661 739,657 740,665 741,660 741,665 742,661 743,661 744,661 745,662 746,661 747,665 748,665 749,661 750,661 750,661 751,659 752,660 753,659 754,664 755,662 756,660 757,661 758,661 758,665 759,658 760,670 761,661 762,661 763,667 764,662 765,661 766,661 767,660 767,661 768,657 769,660 770,662 771,661 772,665 773,661 774,659 775,666 775,660 776,659 777,665 778,661 779,662 780,664 781,650 782,646 783,645 784,652 784,656 785,650 786,651 787,651 788,650 789,649 790,656 791,649 792,657 793,661 793,665 794,660 795,660 796,665 797,657 798,661 799,661 800,661 801,661 801,661 802,667 803,656 804,665 805,662 806,670 807,646 808,665 809,661 810,665 810,660 811,660 812,661 813,660 814,656 815,665 816,659 817,665 818,665 818,661 819,665 820,665 821,661 822,661 823,658 824,666 825,660 826,665 827,660 827,665 828,661 829,666 830,657 831,662 832,661 833,661 834,666 835,659 836,659 836,661 837,662 838,660 839,665 840,665 841,660 842,662 843,664 844,661 844,665 845,662 846,661 847,660 848,666 849,661 850,661 851,665 852,660 853,663 853,664 854,660 855,660 856,662 857,660 858,660 859,656 860,670 861,666 862,662 862,662 863,660 864,662 865,662 866,665 867,665 868,664 869,659 870,661 870,661 871,661 872,661 873,659 874,665 875,665 876,662 877,665 878,661 879,665 879,666 880,660 881,665 882,660 883,664 884,661 885,662 886,665 887,660 887,666 888,660 889,655 890,665 891,664 892,660 893,661 894,661 895,665 896,657 896,661 897,661 898,660 899,661 900,660 901,666 902,660 903,665 904,657 905,664 905,661 906,661 907,664 908,657 909,661 910,666 911,661 912,665 913,660 913,662 914,662 915,660 916,661 917,665 918,661 919,661 920,656 921,666 922,662 922,660 923,664 924,656 925,662 926,661 927,661 928,661 929,665 930,659 930,665 931,655 932,665 933,665 934,656 935,660 936,661 937,661 938,665 939,661 939,663 940,665 941,662 942,661 943,659 944,665 945,660 946,660 947,661 948,660 948,660 949,666 950,662 951,665 952,665 953,665 954,661 955,667 956,664 956,665 957,668 958,659 959,671 960,666 961,663 962,665 963,666 964,666 965,666 965,666 966,666 967,662 968,666 969,665 970,665 971,664 972,666 973,664 974,688 974,699 974,699 974,699 78,699 "/>
<polyline fill="none" opacity="1" stroke="#E6194B" stroke-width="1" points="78,68 78,651 79,649 80,646 81,651 82,656 83,652 84,647 85,651 86,650 86,647 87,646 88,647 89,660 90,643 91,649 92,653 93,650 94,646 95,655 95,651 96,650 97,648 98,649 99,650 100,655 101,652 102,645 103,651 103,650 104,650 105,649 106,643 107,652 108,651 109,651 110,650 111,650 112,648 112,655 113,645 114,652 115,646 116,651 117,651 118,649 119,652 120,646 121,654 121,651 122,650 123,652 124,651 125,648 126,649 127,651 128,645 129,650 129,650 130,650 131,654 132,651 133,645 134,650 135,650 136,656 137,641 138,652 138,651 139,650 140,652 141,649 142,653 143,650 144,652 145,650 146,649 146,647 147,650 148,647 149,645 150,647 151,650 152,651 153,644 154,651 155,653 155,645 156,651 157,647 158,656 159,648 160,649 161,651 162,651 163,651 164,650 164,651 165,646 166,652 167,650 168,647 169,646 170,651 171,654 172,648 172,650 173,651 174,651 175,649 176,649 177,646 178,651 179,651 180,652 181,653 181,651 182,652 183,646 184,650 185,656 186,647 187,648 188,645 189,651 190,645 190,650 191,655 192,646 193,650 194,661 195,662 196,662 197,660 198,661 198,660 199,665 200,661 201,661 202,661 203,660 204,660 205,661 206,660 207,655 207,661 208,660 209,656 210,660 211,656 212,655 213,661 214,661 215,659 215,656 216,660 217,653 218,661 219,660 220,660 221,659 222,660 223,665 224,650 224,661 225,661 226,662 227,661 228,659 229,656 230,660 231,661 232,659 233,657 233,662 234,655 235,661 236,660 237,665 238,651 239,656 240,660 241,656 241,665 242,660 243,661 244,660 245,659 246,661 247,661 248,665 249,655 250,661 250,661 251,658 252,661 253,661 254,659 255,661 256,659 257,661 258,660 258,657 259,657 260,659 261,661 262,660 263,655 264,666 265,656 266,656 267,655 267,660 268,659 269,665 270,654 271,665 272,662 273,655 274,659 275,660 276,656 276,662 277,661 278,660 279,657 280,662 281,656 282,656 283,660 284,660 284,661 285,660 286,657 287,661 288,660 289,660 290,661 291,655 292,660 293,656 293,659 294,655 295,660 296,660 297,656 298,664 299,655 300,659 301,665 302,660 302,656 303,655 304,659 305,661 306,662 307,664 308,654 309,660 310,652 310,652 311,661 312,666 313,661 314,659 315,651 316,657 317,651 318,656 319,646 319,648 320,648 321,652 322,647 323,646 324,652 325,647 326,647 327,653 327,652 328,647 329,652 330,646 331,665 332,665 333,655 334,666 335,657 336,662 336,661 337,665 338,661 339,666 340,661 341,661 342,660 343,665 344,660 345,665 345,661 346,665 347,657 348,665 349,656 350,663 351,661 352,666 353,665 353,661 354,661 355,662 356,660 357,660 358,661 359,666 360,660 361,661 362,664 362,659 363,660 364,661 365,663 366,664 367,665 368,661 369,657 370,666 370,657 371,661 372,660 373,665 374,662 375,665 376,660 377,661 378,661 379,660 379,661 380,663 381,662 382,660 383,660 384,661 385,665 386,660 387,660 388,661 388,661 389,661 390,662 391,665 392,661 393,665 394,656 395,660 396,663 396,661 397,661 398,661 399,660 400,661 401,661 402,660 403,662 404,661 405,661 405,660 406,665 407,665 408,661 409,665 410,656 411,662 412,656 413,659 414,666 414,661 415,664 416,657 417,661 418,665 419,656 420,662 421,662 422,665 422,656 423,669 424,660 425,662 426,658 427,663 428,665 429,659 430,666 431,661 431,661 432,661 433,665 434,665 435,659 436,662 437,660 438,661 439,665 439,661 440,661 441,659 442,663 443,660 444,666 445,659 446,666 447,666 448,661 448,663 449,655 450,659 451,665 452,661 453,660 454,661 455,661 456,659 457,658 457,663 458,661 459,665 460,660 461,662 462,664 463,664 464,666 465,664 465,660 466,665 467,661 468,665 469,664 470,661 471,661 472,663 473,662 474,665 474,660 475,666 476,662 477,660 478,665 479,661 480,661 481,665 482,661 482,661 483,666 484,661 485,664 486,661 487,666 488,666 489,654 490,661 491,659 491,666 492,662 493,664 494,660 495,661 496,665 497,661 498,665 499,664 500,656 500,665 501,661 502,662 503,666 504,661 505,666 506,661 507,664 508,661 508,657 509,666 510,660 511,660 512,662 513,666 514,660 515,663 516,660 517,665 517,656 518,661 519,661 520,665 521,660 522,662 523,666 524,657 525,662 526,659 526,666 527,660 528,665 529,661 530,665 531,660 532,666 533,660 534,665 534,662 535,660 536,665 537,661 538,660 539,661 540,665 541,665 542,661 543,660 543,660 544,660 545,661 546,656 547,660 548,662 549,662 550,663 551,665 551,662 552,661 553,661 554,666 555,661 556,656 557,665 558,661 559,659 560,660 560,661 561,661 562,664 563,662 564,661 565,664 566,666 567,660 568,661 569,666 569,657 570,661 571,665 572,661 573,655 574,662 575,665 576,661 577,667 577,660 578,665 579,661 580,670 581,658 582,665 583,660 584,666 585,661 586,661 586,660 587,660 588,661 589,660 590,661 591,661 592,661 593,660 594,665 594,665 595,661 596,662 597,665 598,666 599,661 600,661 601,661 602,657 603,662 603,661 604,657 605,666 606,661 607,661 608,659 609,661 610,661 611,666 612,656 612,665 613,665 614,661 615,660 616,661 617,665 618,664 619,661 620,661 620,666 621,662 622,657 623,661 624,665 625,661 626,665 627,661 628,656 629,665 629,663 630,665 631,661 632,661 633,659 634,665 635,661 636,661 637,657 638,661 638,664 639,660 640,662 641,664 642,659 643,660 644,662 645,660 646,659 646,667 647,660 648,662 649,661 650,666 651,660 652,662 653,662 654,660 655,663 655,660 656,662 657,661 658,662 659,659 660,665 661,661 662,662 663,665 663,660 664,661 665,665 666,665 667,656 668,664 669,661 670,658 671,666 672,659 672,662 673,661 674,664 675,661 676,666 677,661 678,663 679,660 680,665 681,659 681,661 682,665 683,657 684,661 685,664 686,660 687,661 688,661 689,657 689,666 690,661 691,660 692,660 693,664 694,664 695,662 696,660 697,661 698,665 698,661 699,659 700,665 701,658 702,665 703,660 704,661 705,665 706,661 706,660 707,665 708,662 709,660 710,661 711,661 712,660 713,661 714,660 715,660 715,665 716,660 717,658 718,662 719,665 720,662 721,661 722,661 723,659 724,660 724,661 725,661 726,666 727,664 728,653 729,659 730,666 731,657 732,665 732,660 733,661 734,661 735,661 736,660 737,661 738,661 739,657 740,665 741,660 741,665 742,661 743,661 744,661 745,662 746,661 747,665 748,665 749,661 750,661 750,661 751,659 752,660 753,659 754,664 755,662 756,660 757,661 758,661 758,665 759,658 760,670 761,661 762,661 763,667 764,662 765,661 766,661 767,660 767,661 768,657 769,660 770,662 771,661 772,665 773,661 774,659 775,666 775,660 776,659 777,665 778,661 779,662 780,664 781,650 782,646 783,645 784,652 784,656 785,650 786,651 787,651 788,650 789,649 790,656 791,649 792,657 793,661 793,665 794,660 795,660 796,665 797,657 798,661 799,661 800,661 801,661 801,661 802,667 803,656 804,665 805,662 806,670 807,646 808,665 809,661 810,665 810,660 811,660 812,661 813,660 814,656 815,665 816,659 817,665 818,665 818,661 819,665 820,665 821,661 822,661 823,658 824,666 825,660 826,665 827,660 827,665 828,661 829,666 830,657 831,662 832,661 833,661 834,666 835,659 836,659 836,661 837,662 838,660 839,665 840,665 841,660 842,662 843,664 844,661 844,665 845,662 846,661 847,660 848,666 849,661 850,661 851,665 852,660 853,663 853,664 854,660 855,660 856,662 857,660 858,660 859,656 860,670 861,666 862,662 862,662 863,660 864,662 865,662 866,665 867,665 868,664 869,659 870,661 870,661 871,661 872,661 873,659 874,665 875,665 876,662 877,665 878,661 879,665 879,666 880,660 881,665 882,660 883,664 884,661 885,662 886,665 887,660 887,666 888,660 889,655 890,665 891,664 892,660 893,661 894,661 895,665 896,657 896,661 897,661 898,660 899,661 900,660 901,666 902,660 903,665 904,657 905,664 905,661 906,661 907,664 908,657 909,661 910,666 911,661 912,665 913,660 913,662 914,662 915,660 916,661 917,665 918,661 919,661 920,656 921,666 922,662 922,660 923,664 924,656 925,662 926,661 927,661 928,661 929,665 930,659 930,665 931,655 932,665 933,665 934,656 935,660 936,661 937,661 938,665 939,661 939,663 940,665 941,662 942,661 943,659 944,665 945,660 946,660 947,661 948,660 948,660 949,666 950,662 951,665 952,665 953,665 954,661 955,667 956,664 956,665 957,668 958,659 959,671 960,666 961,663 962,665 963,666 964,666 965,666 965,666 966,666 967,662 968,666 969,665 970,665 971,664 972,666 973,664 974,688 974,699 974,699 "/>
<line opacity="0.1" stroke="#000000" stroke-width="1" x1="83" y1="699" x2="83" y2="67"/>
<line opacity="0.1" stroke="#000000" stroke-width="1" x1="92" y1="699" x2="92" y2="67"/>
<line opacity="0.1" stroke="#000000" stroke-width="1" x1="101" y1="699" x2="101" y2="67"/>
<line opacity="0.1" stroke="#000000" stroke-width="1" x1="111" y1="699" x2="111" y2="67"/>
<line opacity="0.1" stroke="#000000" stroke-width="1" x1="120" y1="699" x2="120" y2="67"/>
<line opacity="0.1" stroke="#000000" stroke-width="1" x1="129" y1="699" x2="129" y2="67"/>
<line opacity="0.1" stroke="#000000" stroke-width="1" x1="138" y1="699" x2="138" y2="67"/>
<line opacity="0.1" stroke="#000000" stroke-width="1" x1="148" y1="699" x2="148" y2="67"/>
<line opacity="0.1" stroke="#000000" stroke-width="1" x1="157" y1="699" x2="157" y2="67"/>
<line opacity="0.1" stroke="#000000" stroke-width="1" x1="166" y1="699" x2="166" y2="67"/>
<line opacity="0.1" stroke="#000000" stroke-width="1" x1="175" y1="699" x2="175" y2="67"/>
<line opacity="0.1" stroke="#000000" stroke-width="1" x1="185" y1="699" x2="185" y2="67"/>
<line opacity="0.1" stroke="#000000" stroke-width="1" x1="194" y1="699" x2="194" y2="67"/>
<line opacity="0.1" stroke="#000000" stroke-width="1" x1="203" y1="699" x2="203" y2="67"/>
<line opacity="0.1" stroke="#000000" stroke-width="1" x1="212" y1="699" x2="212" y2="67"/>
<line opacity="0.1" stroke="#000000" stroke-width="1" x1="222" y1="699" x2="222" y2="67"/>
<line opacity="0.1" stroke="#000000" stroke-width="1" x1="231" y1="699" x2="231" y2="67"/>
<line opacity="0.1" stroke="#000000" stroke-width="1" x1="240" y1="699" x2="240" y2="67"/>
<line opacity="0.1" stroke="#000000" stroke-width="1" x1="249" y1="699" x2="249" y2="67"/>
<line opacity="0.1" stroke="#000000" stroke-width="1" x1="259" y1="699" x2="259" y2="67"/>
<line opacity="0.1" stroke="#000000" stroke-width="1" x1="268" y1="699" x2="268" y2="67"/>
<line opacity="0.1" stroke="#000000" stroke-width="1" x1="277" y1="699" x2="277" y2="67"/>
<line opacity="0.1" stroke="#000000" stroke-width="1" x1="287" y1="699" x2="287" y2="67"/>
<line opacity="0.1" stroke="#000000" stroke-width="1" x1="296" y1="699" x2="296" y2="67"/>
<line opacity="0.1" stroke="#000000" stroke-width="1" x1="305" y1="699" x2="305" y2="67"/>
<line opacity="0.1" stroke="#000000" stroke-width="1" x1="314" y1="699" x2="314" y2="67"/>
<line opacity="0.1" stroke="#000000" stroke-width="1" x1="324" y1="699" x2="324" y2="67"/>
<line opacity="0.1" stroke="#000000" stroke-width="1" x1="333" y1="699" x2="333" y2="67"/>
<line opacity="0.1" stroke="#000000" stroke-width="1" x1="342" y1="699" x2="342" y2="67"/>
<line opacity="0.1" stroke="#000000" stroke-width="1" x1="351" y1="699" x2="351" y2="67"/>
<line opacity="0.1" stroke="#000000" stroke-width="1" x1="361" y1="699" x2="361" y2="67"/>
<line opacity="0.1" stroke="#000000" stroke-width="1" x1="370" y1="699" x2="370" y2="67"/>
<line opacity="0.1" stroke="#000000" stroke-width="1" x1="379" y1="699" x2="379" y2="67"/>
<line opacity="0.1" stroke="#000000" stroke-width="1" x1="388" y1="699" x2="388" y2="67"/>
<line opacity="0.1" stroke="#000000" stroke-width="1" x1="398" y1="699" x2="398" y2="67"/>
<line opacity="0.1" stroke="#000000" stroke-width="1" x1="407" y1="699" x2="407" y2="67"/>
<line opacity="0.1" stroke="#000000" stroke-width="1" x1="416" y1="699" x2="416" y2="67"/>
<line opacity="0.1" stroke="#000000" stroke-width="1" x1="425" y1="699" x2="425" y2="67"/>
<line opacity="0.1" stroke="#000000" stroke-width="1" x1="435" y1="699" x2="435" y2="67"/>
<line opacity="0.1" stroke="#000000" stroke-width="1" x1="444" y1="699" x2="444" y2="67"/>
<line opacity="0.1" stroke="#000000" stroke-width="1" x1="453" y1="699" x2="453" y2="67"/>
<line opacity="0.1" stroke="#000000" stroke-width="1" x1="463" y1="699" x2="463" y2="67"/>
<line opacity="0.1" stroke="#000000" stroke-width="1" x1="472" y1="699" x2="472" y2="67"/>
<line opacity="0.1" stroke="#000000" stroke-width="1" x1="481" y1="699" x2="481" y2="67"/>
<line opacity="0.1" stroke="#000000" stroke-width="1" x1="490" y1="699" x2="490" y2="67"/>
<line opacity="0.1" stroke="#000000" stroke-width="1" x1="500" y1="699" x2="500" y2="67"/>
<line opacity="0.1" stroke="#000000" stroke-width="1" x1="509" y1="699" x2="509" y2="67"/>
<line opacity="0.1" stroke="#000000" stroke-width="1" x1="518" y1="699" x2="518" y2="67"/>
<line opacity="0.1" stroke="#000000" stroke-width="1" x1="527" y1="699" x2="527" y2="67"/>
<line opacity="0.1" stroke="#000000" stroke-width="1" x1="537" y1="699" x2="537" y2="67"/>
<line opacity="0.1" stroke="#000000" stroke-width="1" x1="546" y1="699" x2="546" y2="67"/>
<line opacity="0.1" stroke="#000000" stroke-width="1" x1="555" y1="699" x2="555" y2="67"/>
<line opacity="0.1" stroke="#000000" stroke-width="1" x1="564" y1="699" x2="564" y2="67"/>
<line opacity="0.1" stroke="#000000" stroke-width="1" x1="574" y1="699" x2="574" y2="67"/>
<line opacity="0.1" stroke="#000000" stroke-width="1" x1="583" y1="699" x2="583" y2="67"/>
<line opacity="0.1" stroke="#000000" stroke-width="1" x1="592" y1="699" x2="592" y2="67"/>
<line opacity="0.1" stroke="#000000" stroke-width="1" x1="601" y1="699" x2="601" y2="67"/>
<line opacity="0.1" stroke="#000000" stroke-width="1" x1="611" y1="699" x2="611" y2="67"/>
<line opacity="0.1" stroke="#000000" stroke-width="1" x1="620" y1="699" x2="620" y2="67"/>
<line opacity="0.1" stroke="#000000" stroke-width="1" x1="629" y1="699" x2="629" y2="67"/>
<line opacity="0.1" stroke="#000000" stroke-width="1" x1="639" y1="699" x2="639" y2="67"/>
<line opacity="0.1" stroke="#000000" stroke-width="1" x1="648" y1="699" x2="648" y2="67"/>
<line opacity="0.1" stroke="#000000" stroke-width="1" x1="657" y1="699" x2="657" y2="67"/>
<line opacity="0.1" stroke="#000000" stroke-width="1" x1="666" y1="699" x2="666" y2="67"/>
<line opacity="0.1" stroke="#000000" stroke-width="1" x1="676" y1="699" x2="676" y2="67"/>
<line opacity="0.1" stroke="#000000" stroke-width="1" x1="685" y1="699" x2="685" y2="67"/>
<line opacity="0.1" stroke="#000000" stroke-width="1" x1="694" y1="699" x2="694" y2="67"/>
<line opacity="0.1" stroke="#000000" stroke-width="1" x1="703" y1="699" x2="703" y2="67"/>
<line opacity="0.1" stroke="#000000" stroke-width="1" x1="713" y1="699" x2="713" y2="67"/>
<line opacity="0.1" stroke="#000000" stroke-width="1" x1="722" y1="699" x2="722" y2="67"/>
<line opacity="0.1" stroke="#000000" stroke-width="1" x1="731" y1="699" x2="731" y2="67"/>
<line opacity="0.1" stroke="#000000" stroke-width="1" x1="740" y1="699" x2="740" y2="67"/>
<line opacity="0.1" stroke="#000000" stroke-width="1" x1="750" y1="699" x2="750" y2="67"/>
<line opacity="0.1" stroke="#000000" stroke-width="1" x1="759" y1="699" x2="759" y2="67"/>
<line opacity="0.1" stroke="#000000" stroke-width="1" x1="768" y1="699" x2="768" y2="67"/>
<line opacity="0.1" stroke="#000000" stroke-width="1" x1="777" y1="699" x2="777" y2="67"/>
<line opacity="0.1" stroke="#000000" stroke-width="1" x1="787" y1="699" x2="787" y2="67"/>
<line opacity="0.1" stroke="#000000" stroke-width="1" x1="796" y1="699" x2="796" y2="67"/>
<line opacity="0.1" stroke="#000000" stroke-width="1" x1="805" y1="699" x2="805" y2="67"/>
<line opacity="0.1" stroke="#000000" stroke-width="1" x1="815" y1="699" x2="815" y2="67"/>
<line opacity="0.1" stroke="#000000" stroke-width="1" x1="824" y1="699" x2="824" y2="67"/>
<line opacity="0.1" stroke="#000000" stroke-width="1" x1="833" y1="699" x2="833" y2="67"/>
<line opacity="0.1" stroke="#000000" stroke-width="1" x1="842" y1="699" x2="842" y2="67"/>
<line opacity="0.1" stroke="#000000" stroke-width="1" x1="852" y1="699" x2="852" y2="67"/>
<line opacity="0.1" stroke="#000000" stroke-width="1" x1="861" y1="699" x2="861" y2="67"/>
<line opacity="0.1" stroke="#000000" stroke-width="1" x1="870" y1="699" x2="870" y2="67"/>
<line opacity="0.1" stroke="#000000" stroke-width="1" x1="879" y1="699" x2="879" y2="67"/>
<line opacity="0.1" stroke="#000000" stroke-width="1" x1="889" y1="699" x2="889" y2="67"/>
<line opacity="0.1" stroke="#000000" stroke-width="1" x1="898" y1="699" x2="898" y2="67"/>
<line opacity="0.1" stroke="#000000" stroke-width="1" x1="907" y1="699" x2="907" y2="67"/>
<line opacity="0.1" stroke="#000000" stroke-width="1" x1="916" y1="699" x2="916" y2="67"/>
<line opacity="0.1" stroke="#000000" stroke-width="1" x1="926" y1="699" x2="926" y2="67"/>
<line opacity="0.1" stroke="#000000" stroke-width="1" x1="935" y1="699" x2="935" y2="67"/>
<line opacity="0.1" stroke="#000000" stroke-width="1" x1="944" y1="699" x2="944" y2="67"/>
<line opacity="0.1" stroke="#000000" stroke-width="1" x1="953" y1="699" x2="953" y2="67"/>
<line opacity="0.1" stroke="#000000" stroke-width="1" x1="963" y1="699" x2="963" y2="67"/>
<line opacity="0.1" stroke="#000000" stroke-width="1" x1="972" y1="699" x2="972" y2="67"/>
<line opacity="0.1" stroke="#000000" stroke-width="1" x1="78" y1="699" x2="974" y2="699"/>
<line opacity="0.1" stroke="#000000" stroke-width="1" x1="78" y1="691" x2="974" y2="691"/>
<line opacity="0.1" stroke="#000000" stroke-width="1" x1="78" y1="684" x2="974" y2="684"/>
<line opacity="0.1" stroke="#000000" stroke-width="1" x1="78" y1="677" x2="974" y2="677"/>
<line opacity="0.1" stroke="#000000" stroke-width="1" x1="78" y1="670" x2="974" y2="670"/>
<line opacity="0.1" stroke="#000000" stroke-width="1" x1="78" y1="663" x2="974" y2="663"/>
<line opacity="0.1" stroke="#000000" stroke-width="1" x1="78" y1="656" x2="974" y2="656"/>
<line opacity="0.1" stroke="#000000" stroke-width="1" x1="78" y1="648" x2="974" y2="648"/>
<line opacity="0.1" stroke="#000000" stroke-width="1" x1="78" y1="641" x2="974" y2="641"/>
<line opacity="0.1" stroke="#000000" stroke-width="1" x1="78" y1="634" x2="974" y2="634"/>
<line opacity="0.1" stroke="#000000" stroke-width="1" x1="78" y1="627" x2="974" y2="627"/>
<line opacity="0.1" stroke="#000000" stroke-width="1" x1="78" y1="620" x2="974" y2="620"/>
<line opacity="0.1" stroke="#000000" stroke-width="1" x1="78" y1="613" x2="974" y2="613"/>
<line opacity="0.1" stroke="#000000" stroke-width="1" x1="78" y1="605" x2="974" y2="605"/>
<line opacity="0.1" stroke="#000000" stroke-width="1" x1="78" y1="598" x2="974" y2="598"/>
<line opacity="0.1" stroke="#000000" stroke-width="1" x1="78" y1="591" x2="974" y2="591"/>
<line opacity="0.1" stroke="#000000" stroke-width="1" x1="78" y1="584" x2="974" y2="584"/>
<line opacity="0.1" stroke="#000000" stroke-width="1" x1="78" y1="577" x2="974" y2="577"/>
<line opacity="0.1" stroke="#000000" stroke-width="1" x1="78" y1="570" x2="974" y2="570"/>
<line opacity="0.1" stroke="#000000" stroke-width="1" x1="78" y1="562" x2="974" y2="562"/>
<line opacity="0.1" stroke="#000000" stroke-width="1" x1="78" y1="555" x2="974" y2="555"/>
<line opacity="0.1" stroke="#000000" stroke-width="1" x1="78" y1="548" x2="974" y2="548"/>
<line opacity="0.1" stroke="#000000" stroke-width="1" x1="78" y1="541" x2="974" y2="541"/>
<line opacity="0.1" stroke="#000000" stroke-width="1" x1="78" y1="534" x2="974" y2="534"/>
<line opacity="0.1" stroke="#000000" stroke-width="1" x1="78" y1="527" x2="974" y2="527"/>
<line opacity="0.1" stroke="#000000" stroke-width="1" x1="78" y1="519" x2="974" y2="519"/>
<line opacity="0.1" stroke="#000000" stroke-width="1" x1="78" y1="512" x2="974" y2="512"/>
<line opacity="0.1" stroke="#000000" stroke-width="1" x1="78" y1="505" x2="974" y2="505"/>
<line opacity="0.1" stroke="#000000" stroke-width="1" x1="78" y1="498" x2="974" y2="498"/>
<line opacity="0.1" stroke="#000000" stroke-width="1" x1="78" y1="491" x2="974" y2="491"/>
<line opacity="0.1" stroke="#000000" stroke-width="1" x1="78" y1="484" x2="974" y2="484"/>
<line opacity="0.1" stroke="#000000" stroke-width="1" x1="78" y1="477" x2="974" y2="477"/>
<line opacity="0.1" stroke="#000000" stroke-width="1" x1="78" y1="469" x2="974" y2="469"/>
<line opacity="0.1" stroke="#000000" stroke-width="1" x1="78" y1="462" x2="974" y2="462"/>
<line opacity="0.1" stroke="#000000" stroke-width="1" x1="78" y1="455" x2="974" y2="455"/>
<line opacity="0.1" stroke="#000000" stroke-width="1" x1="78" y1="448" x2="974" y2="448"/>
<line opacity="0.1" stroke="#000000" stroke-width="1" x1="78" y1="441" x2="974" y2="441"/>
<line opacity="0.1" stroke="#000000" stroke-width="1" x1="78" y1="434" x2="974" y2="434"/>
<line opacity="0.1" stroke="#000000" stroke-width="1" x1="78" y1="426" x2="974" y2="426"/>
<line opacity="0.1" stroke="#000000" stroke-width="1" x1="78" y1="419" x2="974" y2="419"/>
<line opacity="0.1" stroke="#000000" stroke-width="1" x1="78" y1="412" x2="974" y2="412"/>
<line opacity="0.1" stroke="#000000" stroke-width="1" x1="78" y1="405" x2="974" y2="405"/>
<line opacity="0.1" stroke="#000000" stroke-width="1" x1="78" y1="398" x2="974" y2="398"/>
<line opacity="0.1" stroke="#000000" stroke-width="1" x1="78" y1="391" x2="974" y2="391"/>
<line opacity="0.1" stroke="#000000" stroke-width="1" x1="78" y1="383" x2="974" y2="383"/>
<line opacity="0.1" stroke="#000000" stroke-width="1" x1="78" y1="376" x2="974" y2="376"/>
<line opacity="0.1" stroke="#000000" stroke-width="1" x1="78" y1="369" x2="974" y2="369"/>
<line opacity="0.1" stroke="#000000" stroke-width="1" x1="78" y1="362" x2="974" y2="362"/>
<line opacity="0.1" stroke="#000000" stroke-width="1" x1="78" y1="355" x2="974" y2="355"/>
<line opacity="0.1" stroke="#000000" stroke-width="1" x1="78" y1="348" x2="974" y2="348"/>
<line opacity="0.1" stroke="#000000" stroke-width="1" x1="78" y1="340" x2="974" y2="340"/>
<line opacity="0.1" stroke="#000000" stroke-width="1" x1="78" y1="333" x2="974" y2="333"/>
<line opacity="0.1" stroke="#000000" stroke-width="1" x1="78" y1="326" x2="974" y2="326"/>
<line opacity="0.1" stroke="#000000" stroke-width="1" x1="78" y1="319" x2="974" y2="319"/>
<line opacity="0.1" stroke="#000000" stroke-width="1" x1="78" y1="312" x2="974" y2="312"/>
<line opacity="0.1" stroke="#000000" stroke-width="1" x1="78" y1="305" x2="974" y2="305"/>
<line opacity="0.1" stroke="#000000" stroke-width="1" x1="78" y1="298" x2="974" y2="298"/>
<line opacity="0.1" stroke="#000000" stroke-width="1" x1="78" y1="290" x2="974" y2="290"/>
<line opacity="0.1" stroke="#000000" stroke-width="1" x1="78" y1="283" x2="974" y2="283"/>
<line opacity="0.1" stroke="#000000" stroke-width="1" x1="78" y1="276" x2="974" y2="276"/>
<line opacity="0.1" stroke="#000000" stroke-width="1" x1="78" y1="269" x2="974" y2="269"/>
<line opacity="0.1" stroke="#000000" stroke-width="1" x1="78" y1="262" x2="974" y2="262"/>
<line opacity="0.1" stroke="#000000" stroke-width="1" x1="78" y1="255" x2="974" y2="255"/>
<line opacity="0.1" stroke="#000000" stroke-width="1" x1="78" y1="247" x2="974" y2="247"/>
<line opacity="0.1" stroke="#000000" stroke-width="1" x1="78" y1="240" x2="974" y2="240"/>
<line opacity="0.1" stroke="#000000" stroke-width="1" x1="78" y1="233" x2="974" y2="233"/>
<line opacity="0.1" stroke="#000000" stroke-width="1" x1="78" y1="226" x2="974" y2="226"/>
<line opacity="0.1" stroke="#000000" stroke-width="1" x1="78" y1="219" x2="974" y2="219"/>
<line opacity="0.1" stroke="#000000" stroke-width="1" x1="78" y1="212" x2="974" y2="212"/>
<line opacity="0.1" stroke="#000000" stroke-width="1" x1="78" y1="204" x2="974" y2="204"/>
<line opacity="0.1" stroke="#000000" stroke-width="1" x1="78" y1="197" x2="974" y2="197"/>
<line opacity="0.1" stroke="#000000" stroke-width="1" x1="78" y1="190" x2="974" y2="190"/>
<line opacity="0.1" stroke="#000000" stroke-width="1" x1="78" y1="183" x2="974" y2="183"/>
<line opacity="0.1" stroke="#000000" stroke-width="1" x1="78" y1="176" x2="974" y2="176"/>
<line opacity="0.1" stroke="#000000" stroke-width="1" x1="78" y1="169" x2="974" y2="169"/>
<line opacity="0.1" stroke="#000000" stroke-width="1" x1="78" y1="161" x2="974" y2="161"/>
<line opacity="0.1" stroke="#000000" stroke-width="1" x1="78" y1="154" x2="974" y2="154"/>
<line opacity="0.1" stroke="#000000" stroke-width="1" x1="78" y1="147" x2="974" y2="147"/>
<line opacity="0.1" stroke="#000000" stroke-width="1" x1="78" y1="140" x2="974" y2="140"/>
<line opacity="0.1" stroke="#000000" stroke-width="1" x1="78" y1="133" x2="974" y2="133"/>
<line opacity="0.1" stroke="#000000" stroke-width="1" x1="78" y1="126" x2="974" y2="126"/>
<line opacity="0.1" stroke="#000000" stroke-width="1" x1="78" y1="118" x2="974" y2="118"/>
<line opacity="0.1" stroke="#000000" stroke-width="1" x1="78" y1="111" x2="974" y2="111"/>
<line opacity="0.1" stroke="#000000" stroke-width="1" x1="78" y1="104" x2="974" y2="104"/>
<line opacity="0.1" stroke="#000000" stroke-width="1" x1="78" y1="97" x2="974" y2="97"/>
<line opacity="0.1" stroke="#000000" stroke-width="1" x1="78" y1="90" x2="974" y2="90"/>
<line opacity="0.1" stroke="#000000" stroke-width="1" x1="78" y1="83" x2="974" y2="83"/>
<line opacity="0.1" stroke="#000000" stroke-width="1" x1="78" y1="76" x2="974" y2="76"/>
<line opacity="0.1" stroke="#000000" stroke-width="1" x1="78" y1="68" x2="974" y2="68"/>
<text x="8" y="384" dy="0.76em" text-anchor="middle" font-family="sans-serif" font-size="9.67741935483871" opacity="1" fill="#000000" transform="rotate(270, 8, 384)">
New allocations
</text>
<text x="526" y="760" dy="-0.5ex" text-anchor="middle" font-family="sans-serif" font-size="9.67741935483871" opacity="1" fill="#000000">
Time
</text>
<line opacity="0.2" stroke="#000000" stroke-width="1" x1="166" y1="699" x2="166" y2="67"/>
<line opacity="0.2" stroke="#000000" stroke-width="1" x1="259" y1="699" x2="259" y2="67"/>
<line opacity="0.2" stroke="#000000" stroke-width="1" x1="351" y1="699" x2="351" y2="67"/>
<line opacity="0.2" stroke="#000000" stroke-width="1" x1="444" y1="699" x2="444" y2="67"/>
<line opacity="0.2" stroke="#000000" stroke-width="1" x1="537" y1="699" x2="537" y2="67"/>
<line opacity="0.2" stroke="#000000" stroke-width="1" x1="629" y1="699" x2="629" y2="67"/>
<line opacity="0.2" stroke="#000000" stroke-width="1" x1="722" y1="699" x2="722" y2="67"/>
<line opacity="0.2" stroke="#000000" stroke-width="1" x1="815" y1="699" x2="815" y2="67"/>
<line opacity="0.2" stroke="#000000" stroke-width="1" x1="907" y1="699" x2="907" y2="67"/>
<line opacity="0.2" stroke="#000000" stroke-width="1" x1="78" y1="699" x2="974" y2="699"/>
<line opacity="0.2" stroke="#000000" stroke-width="1" x1="78" y1="627" x2="974" y2="627"/>
<line opacity="0.2" stroke="#000000" stroke-width="1" x1="78" y1="555" x2="974" y2="555"/>
<line opacity="0.2" stroke="#000000" stroke-width="1" x1="78" y1="484" x2="974" y2="484"/>
<line opacity="0.2" stroke="#000000" stroke-width="1" x1="78" y1="412" x2="974" y2="412"/>
<line opacity="0.2" stroke="#000000" stroke-width="1" x1="78" y1="340" x2="974" y2="340"/>
<line opacity="0.2" stroke="#000000" stroke-width="1" x1="78" y1="269" x2="974" y2="269"/>
<line opacity="0.2" stroke="#000000" stroke-width="1" x1="78" y1="197" x2="974" y2="197"/>
<line opacity="0.2" stroke="#000000" stroke-width="1" x1="78" y1="126" x2="974" y2="126"/>
<polyline fill="none" opacity="1" stroke="#000000" stroke-width="1" points="77,68 77,700 "/>
<text x="68" y="699" dy="0.5ex" text-anchor="end" font-family="sans-serif" font-size="9.67741935483871" opacity="1" fill="#000000">
0.00 K
</text>
<polyline fill="none" opacity="1" stroke="#000000" stroke-width="1" points="72,699 77,699 "/>
<text x="68" y="627" dy="0.5ex" text-anchor="end" font-family="sans-serif" font-size="9.67741935483871" opacity="1" fill="#000000">
0.50 K
</text>
<polyline fill="none" opacity="1" stroke="#000000" stroke-width="1" points="72,627 77,627 "/>
<text x="68" y="555" dy="0.5ex" text-anchor="end" font-family="sans-serif" font-size="9.67741935483871" opacity="1" fill="#000000">
1.00 K
</text>
<polyline fill="none" opacity="1" stroke="#000000" stroke-width="1" points="72,555 77,555 "/>
<text x="68" y="484" dy="0.5ex" text-anchor="end" font-family="sans-serif" font-size="9.67741935483871" opacity="1" fill="#000000">
1.50 K
</text>
<polyline fill="none" opacity="1" stroke="#000000" stroke-width="1" points="72,484 77,484 "/>
<text x="68" y="412" dy="0.5ex" text-anchor="end" font-family="sans-serif" font-size="9.67741935483871" opacity="1" fill="#000000">
2.00 K
</text>
<polyline fill="none" opacity="1" stroke="#000000" stroke-width="1" points="72,412 77,412 "/>
<text x="68" y="340" dy="0.5ex" text-anchor="end" font-family="sans-serif" font-size="9.67741935483871" opacity="1" fill="#000000">
2.50 K
</text>
<polyline fill="none" opacity="1" stroke="#000000" stroke-width="1" points="72,340 77,340 "/>
<text x="68" y="269" dy="0.5ex" text-anchor="end" font-family="sans-serif" font-size="9.67741935483871" opacity="1" fill="#000000">
3.00 K
</text>
<polyline fill="none" opacity="1" stroke="#000000" stroke-width="1" points="72,269 77,269 "/>
<text x="68" y="197" dy="0.5ex" text-anchor="end" font-family="sans-serif" font-size="9.67741935483871" opacity="1" fill="#000000">
3.50 K
</text>
<polyline fill="none" opacity="1" stroke="#000000" stroke-width="1" points="72,197 77,197 "/>
<text x="68" y="126" dy="0.5ex" text-anchor="end" font-family="sans-serif" font-size="9.67741935483871" opacity="1" fill="#000000">
4.00 K
</text>
<polyline fill="none" opacity="1" stroke="#000000" stroke-width="1" points="72,126 77,126 "/>
<polyline fill="none" opacity="1" stroke="#000000" stroke-width="1" points="78,700 974,700 "/>
<text x="166" y="710" dy="0.76em" text-anchor="middle" font-family="sans-serif" font-size="9.67741935483871" opacity="1" fill="#000000">
06:26:08
</text>
<polyline fill="none" opacity="1" stroke="#000000" stroke-width="1" points="166,700 166,705 "/>
<text x="259" y="710" dy="0.76em" text-anchor="middle" font-family="sans-serif" font-size="9.67741935483871" opacity="1" fill="#000000">
06:26:09
</text>
<polyline fill="none" opacity="1" stroke="#000000" stroke-width="1" points="259,700 259,705 "/>
<text x="351" y="710" dy="0.76em" text-anchor="middle" font-family="sans-serif" font-size="9.67741935483871" opacity="1" fill="#000000">
06:26:10
</text>
<polyline fill="none" opacity="1" stroke="#000000" stroke-width="1" points="351,700 351,705 "/>
<text x="444" y="710" dy="0.76em" text-anchor="middle" font-family="sans-serif" font-size="9.67741935483871" opacity="1" fill="#000000">
06:26:11
</text>
<polyline fill="none" opacity="1" stroke="#000000" stroke-width="1" points="444,700 444,705 "/>
<text x="537" y="710" dy="0.76em" text-anchor="middle" font-family="sans-serif" font-size="9.67741935483871" opacity="1" fill="#000000">
06:26:12
</text>
<polyline fill="none" opacity="1" stroke="#000000" stroke-width="1" points="537,700 537,705 "/>
<text x="629" y="710" dy="0.76em" text-anchor="middle" font-family="sans-serif" font-size="9.67741935483871" opacity="1" fill="#000000">
06:26:13
</text>
<polyline fill="none" opacity="1" stroke="#000000" stroke-width="1" points="629,700 629,705 "/>
<text x="722" y="710" dy="0.76em" text-anchor="middle" font-family="sans-serif" font-size="9.67741935483871" opacity="1" fill="#000000">
06:26:14
</text>
<polyline fill="none" opacity="1" stroke="#000000" stroke-width="1" points="722,700 722,705 "/>
<text x="815" y="710" dy="0.76em" text-anchor="middle" font-family="sans-serif" font-size="9.67741935483871" opacity="1" fill="#000000">
06:26:15
</text>
<polyline fill="none" opacity="1" stroke="#000000" stroke-width="1" points="815,700 815,705 "/>
<text x="907" y="710" dy="0.76em" text-anchor="middle" font-family="sans-serif" font-size="9.67741935483871" opacity="1" fill="#000000">
06:26:16
</text>
<polyline fill="none" opacity="1" stroke="#000000" stroke-width="1" points="907,700 907,705 "/>
<polyline fill="none" opacity="1" stroke="#000000" stroke-width="1" points="78,67 974,67 "/>
<text x="166" y="58" dy="-0.5ex" text-anchor="middle" font-family="sans-serif" font-size="9.67741935483871" opacity="1" fill="#000000">
+956ms
</text>
<polyline fill="none" opacity="1" stroke="#000000" stroke-width="1" points="166,62 166,67 "/>
<text x="259" y="58" dy="-0.5ex" text-anchor="middle" font-family="sans-serif" font-size="9.67741935483871" opacity="1" fill="#000000">
+1s
</text>
<polyline fill="none" opacity="1" stroke="#000000" stroke-width="1" points="259,62 259,67 "/>
<text x="351" y="58" dy="-0.5ex" text-anchor="middle" font-family="sans-serif" font-size="9.67741935483871" opacity="1" fill="#000000">
+2s
</text>
<polyline fill="none" opacity="1" stroke="#000000" stroke-width="1" points="351,62 351,67 "/>
<text x="444" y="58" dy="-0.5ex" text-anchor="middle" font-family="sans-serif" font-size="9.67741935483871" opacity="1" fill="#000000">
+3s
</text>
<polyline fill="none" opacity="1" stroke="#000000" stroke-width="1" points="444,62 444,67 "/>
<text x="537" y="58" dy="-0.5ex" text-anchor="middle" font-family="sans-serif" font-size="9.67741935483871" opacity="1" fill="#000000">
+4s
</text>
<polyline fill="none" opacity="1" stroke="#000000" stroke-width="1" points="537,62 537,67 "/>
<text x="629" y="58" dy="-0.5ex" text-anchor="middle" font-family="sans-serif" font-size="9.67741935483871" opacity="1" fill="#000000">
+5s
</text>
<polyline fill="none" opacity="1" stroke="#000000" stroke-width="1" points="629,62 629,67 "/>
<text x="722" y="58" dy="-0.5ex" text-anchor="middle" font-family="sans-serif" font-size="9.67741935483871" opacity="1" fill="#000000">
+6s
</text>
<polyline fill="none" opacity="1" stroke="#000000" stroke-width="1" points="722,62 722,67 "/>
<text x="815" y="58" dy="-0.5ex" text-anchor="middle" font-family="sans-serif" font-size="9.67741935483871" opacity="1" fill="#000000">
+7s
</text>
<polyline fill="none" opacity="1" stroke="#000000" stroke-width="1" points="815,62 815,67 "/>
<text x="907" y="58" dy="-0.5ex" text-anchor="middle" font-family="sans-serif" font-size="9.67741935483871" opacity="1" fill="#000000">
+8s
</text>
<polyline fill="none" opacity="1" stroke="#000000" stroke-width="1" points="907,62 907,67 "/>
</svg>
