<svg width="1024" height="768" viewBox="0 0 1024 768" xmlns="http://www.w3.org/2000/svg">
<rect x="0" y="0" width="1024" height="768" opacity="1" fill="#FFFFFF" stroke="none"/>
<polygon opacity="1" fill="#E6194B" points="346,655 346,612 347,589 348,558 348,540 349,534 350,523 350,517 351,512 351,515 352,515 353,498 353,497 354,491 355,486 355,483 356,485 356,489 357,491 358,492 358,500 359,505 360,499 360,507 361,511 361,527 362,518 363,515 363,523 364,534 365,529 365,520 366,522 366,527 367,532 368,527 368,528 369,525 370,524 370,513 371,508 371,510 372,508 373,512 373,518 374,528 375,518 375,515 376,515 376,511 377,502 378,504 378,505 379,509 380,511 380,515 381,521 381,521 382,517 383,516 383,513 384,508 385,501 385,498 386,491 387,480 387,480 388,489 388,494 389,484 390,484 390,491 391,490 392,491 392,493 393,483 393,479 394,470 395,464 395,463 396,461 397,448 397,451 398,457 398,463 399,474 400,490 400,491 401,493 402,510 402,520 403,504 403,507 404,497 405,487 405,489 406,517 407,517 407,515 408,506 408,514 409,506 410,497 410,486 411,482 412,489 412,487 413,492 413,499 414,497 415,494 415,493 416,498 417,516 417,512 418,509 418,505 419,502 420,502 420,504 421,511 422,505 422,505 423,514 423,515 424,514 425,508 425,514 426,524 427,521 427,516 428,520 428,507 429,510 430,509 430,499 431,507 432,507 432,502 433,510 433,510 434,519 435,514 435,496 436,491 437,490 437,503 438,487 439,475 439,473 440,463 440,467 441,466 442,454 442,453 443,453 444,459 444,470 445,457 445,458 446,456 447,457 447,466 448,465 449,457 449,454 450,445 450,447 451,446 452,444 452,456 453,461 454,459 454,463 455,464 455,460 456,466 457,467 457,470 458,480 459,464 459,466 460,467 460,446 461,447 462,446 462,445 463,448 464,445 464,435 465,433 465,435 466,431 467,434 467,436 468,437 469,438 469,447 470,435 470,433 471,428 472,423 472,430 473,429 474,431 474,432 475,416 475,421 476,419 477,425 477,428 478,439 479,441 479,430 480,421 480,426 481,421 482,425 482,421 483,430 484,442 484,443 485,444 485,446 486,449 487,454 487,452 488,457 489,458 489,459 490,460 490,456 491,451 492,463 492,461 493,459 494,467 494,465 495,462 496,450 496,449 497,466 497,454 498,458 499,459 499,454 500,451 501,449 501,462 502,463 502,456 503,453 504,453 504,460 505,468 506,469 506,462 507,464 507,469 508,456 509,451 509,456 510,467 511,460 511,448 512,449 512,452 513,448 514,441 514,441 515,457 516,445 516,452 517,443 517,443 518,454 519,453 519,449 520,445 521,443 521,448 522,461 522,440 523,440 524,447 524,443 525,444 526,458 526,457 527,447 527,446 528,447 529,455 529,467 530,481 531,481 531,480 532,478 532,472 533,485 534,474 534,476 535,477 536,477 536,479 537,496 537,487 538,492 539,492 539,504 540,511 541,502 541,496 542,493 542,492 543,492 544,487 544,496 545,493 546,499 546,495 547,489 548,487 548,497 549,498 549,501 550,487 551,487 551,488 552,493 553,497 553,496 554,509 554,518 555,518 556,530 556,529 557,512 558,507 558,507 559,513 559,511 560,510 561,510 561,515 562,512 563,510 563,503 564,498 564,499 565,511 566,515 566,512 567,508 568,509 568,518 569,512 569,522 570,517 571,515 571,511 572,505 573,503 573,508 574,511 574,513 575,494 576,489 576,487 577,487 578,498 578,496 579,488 579,481 580,477 581,469 581,463 582,473 583,474 583,477 584,471 584,468 585,470 586,476 586,479 587,471 588,470 588,480 589,485 589,479 590,463 591,458 591,455 592,454 593,462 593,472 594,475 594,481 595,478 596,477 596,476 597,483 598,482 598,476 599,464 599,473 600,472 601,470 601,480 602,486 603,489 603,482 604,481 605,476 605,479 606,472 606,471 607,472 608,463 608,453 609,443 610,446 610,452 611,445 611,442 612,438 613,431 613,431 614,449 615,456 615,456 616,445 616,449 617,448 618,446 618,448 619,434 620,429 620,446 621,448 621,448 622,440 623,445 623,441 624,450 625,459 625,442 626,411 626,413 627,417 628,414 628,421 629,426 630,426 630,428 631,419 631,417 632,431 633,433 633,415 634,413 635,416 635,412 636,415 636,435 637,434 638,436 638,425 639,426 640,423 640,434 641,430 641,433 642,432 643,437 643,428 644,436 645,438 645,432 646,439 646,439 647,437 648,439 648,453 649,445 650,424 650,425 651,419 651,418 652,412 653,410 653,401 654,397 655,400 655,405 656,400 657,401 657,401 658,395 658,398 659,397 660,402 660,401 661,402 662,396 662,394 663,396 663,402 664,406 665,400 665,395 666,390 667,385 667,387 668,386 668,386 669,386 670,386 670,389 671,384 672,383 672,388 673,387 673,381 674,378 675,381 675,383 676,380 677,376 677,369 678,374 678,378 679,376 680,377 680,394 681,392 682,383 682,383 683,375 683,371 684,373 685,372 685,371 686,370 687,369 687,358 688,343 688,339 689,347 690,348 690,341 691,348 692,350 692,342 693,343 693,348 694,338 695,338 695,345 696,329 697,324 697,328 698,340 698,326 699,326 700,329 700,340 701,349 702,368 702,362 703,366 703,364 704,367 705,374 705,384 706,376 707,376 707,375 708,367 708,362 709,358 710,360 710,368 711,362 712,359 712,360 713,352 714,348 714,339 715,328 715,331 716,337 717,344 717,357 718,363 719,363 719,368 720,363 720,353 721,357 722,345 722,343 723,336 724,333 724,338 725,332 725,334 726,334 727,333 727,331 728,328 729,331 729,330 730,326 730,321 731,324 732,318 732,315 733,317 734,325 734,330 735,332 735,323 736,316 737,310 737,314 738,310 739,313 739,318 740,311 740,316 741,325 742,330 742,330 743,332 744,333 744,337 745,337 745,337 746,330 747,330 747,335 748,319 749,318 749,311 750,302 750,305 751,320 752,313 752,317 753,317 754,325 754,336 755,336 755,322 756,326 757,329 757,334 758,340 759,341 759,354 760,371 760,368 761,354 762,341 762,341 763,334 764,324 764,316 765,306 766,309 766,310 767,311 767,308 768,304 769,312 769,309 770,318 771,321 771,325 772,314 772,318 773,328 774,314 774,319 775,308 776,319 776,300 777,299 777,293 778,290 779,290 779,296 780,292 781,304 781,306 782,300 782,300 783,314 784,313 784,320 785,323 786,329 786,320 787,308 787,297 788,311 789,318 789,319 790,326 791,312 791,306 792,305 792,297 793,300 794,298 794,289 795,281 796,284 796,280 797,278 797,266 798,271 799,269 799,271 800,263 801,264 801,265 802,269 802,280 803,297 804,293 804,300 805,289 806,301 806,296 807,293 807,306 808,306 809,310 809,309 810,304 811,302 811,302 812,301 812,308 813,294 814,290 814,283 815,281 816,294 816,292 817,290 817,287 818,273 819,273 819,285 820,292 821,296 821,295 822,289 823,286 823,285 824,287 824,282 825,269 826,262 826,265 827,276 828,281 828,287 829,287 829,282 830,281 831,281 831,279 832,271 833,276 833,271 834,265 834,255 835,243 836,235 836,230 837,228 838,224 838,215 839,215 839,216 840,221 841,229 841,251 842,249 843,240 843,238 844,237 844,228 845,224 846,222 846,221 847,228 848,234 848,233 849,221 849,220 850,241 851,237 851,229 852,223 853,229 853,220 854,196 854,205 855,205 856,202 856,202 857,196 858,193 858,179 859,182 859,186 860,178 861,182 861,180 862,184 863,197 863,202 864,211 864,214 865,216 866,212 866,210 867,209 868,199 868,209 869,202 869,182 870,171 871,175 871,178 872,180 873,186 873,190 874,194 874,190 875,192 876,175 876,173 877,184 878,186 878,186 879,185 880,180 880,184 881,179 881,179 882,177 883,184 883,185 884,189 885,195 885,193 886,185 886,181 887,173 888,174 888,175 889,170 890,167 890,174 891,174 891,175 892,167 893,158 893,158 894,166 895,177 895,166 896,151 896,161 897,161 898,163 898,169 899,171 900,177 900,173 901,175 901,187 902,188 903,186 903,182 904,173 905,168 905,184 906,201 906,204 907,206 908,205 908,201 909,199 910,192 910,189 911,184 911,178 912,174 913,171 913,167 914,167 915,161 915,141 916,146 916,161 917,164 918,164 918,163 919,165 920,175 920,172 921,177 921,176 922,177 923,176 923,174 924,170 925,156 925,151 926,151 926,149 927,155 928,161 928,164 929,169 930,173 930,163 931,156 932,129 932,126 933,130 933,130 934,131 935,146 935,157 936,133 937,125 937,128 938,120 938,119 939,110 940,113 940,122 941,121 942,137 942,134 943,141 943,143 944,142 945,134 945,130 946,119 947,112 947,116 948,111 948,102 949,106 950,103 950,103 951,119 952,116 952,120 953,120 953,108 954,107 955,107 955,115 956,129 957,131 957,130 958,125 958,105 959,95 960,90 960,83 961,76 962,68 962,71 963,72 963,70 964,69 965,68 965,69 966,74 967,82 967,82 968,97 968,102 969,109 970,107 970,95 971,81 972,83 972,87 972,699 973,699 973,699 346,699 "/>
<polyline fill="none" opacity="1" stroke="#E6194B" stroke-width="1" points="346,655 346,612 347,589 348,558 348,540 349,534 350,523 350,517 351,512 351,515 352,515 353,498 353,497 354,491 355,486 355,483 356,485 356,489 357,491 358,492 358,500 359,505 360,499 360,507 361,511 361,527 362,518 363,515 363,523 364,534 365,529 365,520 366,522 366,527 367,532 368,527 368,528 369,525 370,524 370,513 371,508 371,510 372,508 373,512 373,518 374,528 375,518 375,515 376,515 376,511 377,502 378,504 378,505 379,509 380,511 380,515 381,521 381,521 382,517 383,516 383,513 384,508 385,501 385,498 386,491 387,480 387,480 388,489 388,494 389,484 390,484 390,491 391,490 392,491 392,493 393,483 393,479 394,470 395,464 395,463 396,461 397,448 397,451 398,457 398,463 399,474 400,490 400,491 401,493 402,510 402,520 403,504 403,507 404,497 405,487 405,489 406,517 407,517 407,515 408,506 408,514 409,506 410,497 410,486 411,482 412,489 412,487 413,492 413,499 414,497 415,494 415,493 416,498 417,516 417,512 418,509 418,505 419,502 420,502 420,504 421,511 422,505 422,505 423,514 423,515 424,514 425,508 425,514 426,524 427,521 427,516 428,520 428,507 429,510 430,509 430,499 431,507 432,507 432,502 433,510 433,510 434,519 435,514 435,496 436,491 437,490 437,503 438,487 439,475 439,473 440,463 440,467 441,466 442,454 442,453 443,453 444,459 444,470 445,457 445,458 446,456 447,457 447,466 448,465 449,457 449,454 450,445 450,447 451,446 452,444 452,456 453,461 454,459 454,463 455,464 455,460 456,466 457,467 457,470 458,480 459,464 459,466 460,467 460,446 461,447 462,446 462,445 463,448 464,445 464,435 465,433 465,435 466,431 467,434 467,436 468,437 469,438 469,447 470,435 470,433 471,428 472,423 472,430 473,429 474,431 474,432 475,416 475,421 476,419 477,425 477,428 478,439 479,441 479,430 480,421 480,426 481,421 482,425 482,421 483,430 484,442 484,443 485,444 485,446 486,449 487,454 487,452 488,457 489,458 489,459 490,460 490,456 491,451 492,463 492,461 493,459 494,467 494,465 495,462 496,450 496,449 497,466 497,454 498,458 499,459 499,454 500,451 501,449 501,462 502,463 502,456 503,453 504,453 504,460 505,468 506,469 506,462 507,464 507,469 508,456 509,451 509,456 510,467 511,460 511,448 512,449 512,452 513,448 514,441 514,441 515,457 516,445 516,452 517,443 517,443 518,454 519,453 519,449 520,445 521,443 521,448 522,461 522,440 523,440 524,447 524,443 525,444 526,458 526,457 527,447 527,446 528,447 529,455 529,467 530,481 531,481 531,480 532,478 532,472 533,485 534,474 534,476 535,477 536,477 536,479 537,496 537,487 538,492 539,492 539,504 540,511 541,502 541,496 542,493 542,492 543,492 544,487 544,496 545,493 546,499 546,495 547,489 548,487 548,497 549,498 549,501 550,487 551,487 551,488 552,493 553,497 553,496 554,509 554,518 555,518 556,530 556,529 557,512 558,507 558,507 559,513 559,511 560,510 561,510 561,515 562,512 563,510 563,503 564,498 564,499 565,511 566,515 566,512 567,508 568,509 568,518 569,512 569,522 570,517 571,515 571,511 572,505 573,503 573,508 574,511 574,513 575,494 576,489 576,487 577,487 578,498 578,496 579,488 579,481 580,477 581,469 581,463 582,473 583,474 583,477 584,471 584,468 585,470 586,476 586,479 587,471 588,470 588,480 589,485 589,479 590,463 591,458 591,455 592,454 593,462 593,472 594,475 594,481 595,478 596,477 596,476 597,483 598,482 598,476 599,464 599,473 600,472 601,470 601,480 602,486 603,489 603,482 604,481 605,476 605,479 606,472 606,471 607,472 608,463 608,453 609,443 610,446 610,452 611,445 611,442 612,438 613,431 613,431 614,449 615,456 615,456 616,445 616,449 617,448 618,446 618,448 619,434 620,429 620,446 621,448 621,448 622,440 623,445 623,441 624,450 625,459 625,442 626,411 626,413 627,417 628,414 628,421 629,426 630,426 630,428 631,419 631,417 632,431 633,433 633,415 634,413 635,416 635,412 636,415 636,435 637,434 638,436 638,425 639,426 640,423 640,434 641,430 641,433 642,432 643,437 643,428 644,436 645,438 645,432 646,439 646,439 647,437 648,439 648,453 649,445 650,424 650,425 651,419 651,418 652,412 653,410 653,401 654,397 655,400 655,405 656,400 657,401 657,401 658,395 658,398 659,397 660,402 660,401 661,402 662,396 662,394 663,396 663,402 664,406 665,400 665,395 666,390 667,385 667,387 668,386 668,386 669,386 670,386 670,389 671,384 672,383 672,388 673,387 673,381 674,378 675,381 675,383 676,380 677,376 677,369 678,374 678,378 679,376 680,377 680,394 681,392 682,383 682,383 683,375 683,371 684,373 685,372 685,371 686,370 687,369 687,358 688,343 688,339 689,347 690,348 690,341 691,348 692,350 692,342 693,343 693,348 694,338 695,338 695,345 696,329 697,324 697,328 698,340 698,326 699,326 700,329 700,340 701,349 702,368 702,362 703,366 703,364 704,367 705,374 705,384 706,376 707,376 707,375 708,367 708,362 709,358 710,360 710,368 711,362 712,359 712,360 713,352 714,348 714,339 715,328 715,331 716,337 717,344 717,357 718,363 719,363 719,368 720,363 720,353 721,357 722,345 722,343 723,336 724,333 724,338 725,332 725,334 726,334 727,333 727,331 728,328 729,331 729,330 730,326 730,321 731,324 732,318 732,315 733,317 734,325 734,330 735,332 735,323 736,316 737,310 737,314 738,310 739,313 739,318 740,311 740,316 741,325 742,330 742,330 743,332 744,333 744,337 745,337 745,337 746,330 747,330 747,335 748,319 749,318 749,311 750,302 750,305 751,320 752,313 752,317 753,317 754,325 754,336 755,336 755,322 756,326 757,329 757,334 758,340 759,341 759,354 760,371 760,368 761,354 762,341 762,341 763,334 764,324 764,316 765,306 766,309 766,310 767,311 767,308 768,304 769,312 769,309 770,318 771,321 771,325 772,314 772,318 773,328 774,314 774,319 775,308 776,319 776,300 777,299 777,293 778,290 779,290 779,296 780,292 781,304 781,306 782,300 782,300 783,314 784,313 784,320 785,323 786,329 786,320 787,308 787,297 788,311 789,318 789,319 790,326 791,312 791,306 792,305 792,297 793,300 794,298 794,289 795,281 796,284 796,280 797,278 797,266 798,271 799,269 799,271 800,263 801,264 801,265 802,269 802,280 803,297 804,293 804,300 805,289 806,301 806,296 807,293 807,306 808,306 809,310 809,309 810,304 811,302 811,302 812,301 812,308 813,294 814,290 814,283 815,281 816,294 816,292 817,290 817,287 818,273 819,273 819,285 820,292 821,296 821,295 822,289 823,286 823,285 824,287 824,282 825,269 826,262 826,265 827,276 828,281 828,287 829,287 829,282 830,281 831,281 831,279 832,271 833,276 833,271 834,265 834,255 835,243 836,235 836,230 837,228 838,224 838,215 839,215 839,216 840,221 841,229 841,251 842,249 843,240 843,238 844,237 844,228 845,224 846,222 846,221 847,228 848,234 848,233 849,221 849,220 850,241 851,237 851,229 852,223 853,229 853,220 854,196 854,205 855,205 856,202 856,202 857,196 858,193 858,179 859,182 859,186 860,178 861,182 861,180 862,184 863,197 863,202 864,211 864,214 865,216 866,212 866,210 867,209 868,199 868,209 869,202 869,182 870,171 871,175 871,178 872,180 873,186 873,190 874,194 874,190 875,192 876,175 876,173 877,184 878,186 878,186 879,185 880,180 880,184 881,179 881,179 882,177 883,184 883,185 884,189 885,195 885,193 886,185 886,181 887,173 888,174 888,175 889,170 890,167 890,174 891,174 891,175 892,167 893,158 893,158 894,166 895,177 895,166 896,151 896,161 897,161 898,163 898,169 899,171 900,177 900,173 901,175 901,187 902,188 903,186 903,182 904,173 905,168 905,184 906,201 906,204 907,206 908,205 908,201 909,199 910,192 910,189 911,184 911,178 912,174 913,171 913,167 914,167 915,161 915,141 916,146 916,161 917,164 918,164 918,163 919,165 920,175 920,172 921,177 921,176 922,177 923,176 923,174 924,170 925,156 925,151 926,151 926,149 927,155 928,161 928,164 929,169 930,173 930,163 931,156 932,129 932,126 933,130 933,130 934,131 935,146 935,157 936,133 937,125 937,128 938,120 938,119 939,110 940,113 940,122 941,121 942,137 942,134 943,141 943,143 944,142 945,134 945,130 946,119 947,112 947,116 948,111 948,102 949,106 950,103 950,103 951,119 952,116 952,120 953,120 953,108 954,107 955,107 955,115 956,129 957,131 957,130 958,125 958,105 959,95 960,90 960,83 961,76 962,68 962,71 963,72 963,70 964,69 965,68 965,69 966,74 967,82 967,82 968,97 968,102 969,109 970,107 970,95 971,81 972,83 972,87 972,699 973,699 "/>
<line opacity="0.1" stroke="#000000" stroke-width="1" x1="83" y1="699" x2="83" y2="68"/>
<line opacity="0.1" stroke="#000000" stroke-width="1" x1="92" y1="699" x2="92" y2="68"/>
<line opacity="0.1" stroke="#000000" stroke-width="1" x1="101" y1="699" x2="101" y2="68"/>
<line opacity="0.1" stroke="#000000" stroke-width="1" x1="110" y1="699" x2="110" y2="68"/>
<line opacity="0.1" stroke="#000000" stroke-width="1" x1="119" y1="699" x2="119" y2="68"/>
<line opacity="0.1" stroke="#000000" stroke-width="1" x1="128" y1="699" x2="128" y2="68"/>
<line opacity="0.1" stroke="#000000" stroke-width="1" x1="137" y1="699" x2="137" y2="68"/>
<line opacity="0.1" stroke="#000000" stroke-width="1" x1="146" y1="699" x2="146" y2="68"/>
<line opacity="0.1" stroke="#000000" stroke-width="1" x1="154" y1="699" x2="154" y2="68"/>
<line opacity="0.1" stroke="#000000" stroke-width="1" x1="163" y1="699" x2="163" y2="68"/>
<line opacity="0.1" stroke="#000000" stroke-width="1" x1="172" y1="699" x2="172" y2="68"/>
<line opacity="0.1" stroke="#000000" stroke-width="1" x1="181" y1="699" x2="181" y2="68"/>
<line opacity="0.1" stroke="#000000" stroke-width="1" x1="190" y1="699" x2="190" y2="68"/>
<line opacity="0.1" stroke="#000000" stroke-width="1" x1="199" y1="699" x2="199" y2="68"/>
<line opacity="0.1" stroke="#000000" stroke-width="1" x1="208" y1="699" x2="208" y2="68"/>
<line opacity="0.1" stroke="#000000" stroke-width="1" x1="217" y1="699" x2="217" y2="68"/>
<line opacity="0.1" stroke="#000000" stroke-width="1" x1="226" y1="699" x2="226" y2="68"/>
<line opacity="0.1" stroke="#000000" stroke-width="1" x1="234" y1="699" x2="234" y2="68"/>
<line opacity="0.1" stroke="#000000" stroke-width="1" x1="243" y1="699" x2="243" y2="68"/>
<line opacity="0.1" stroke="#000000" stroke-width="1" x1="252" y1="699" x2="252" y2="68"/>
<line opacity="0.1" stroke="#000000" stroke-width="1" x1="261" y1="699" x2="261" y2="68"/>
<line opacity="0.1" stroke="#000000" stroke-width="1" x1="270" y1="699" x2="270" y2="68"/>
<line opacity="0.1" stroke="#000000" stroke-width="1" x1="279" y1="699" x2="279" y2="68"/>
<line opacity="0.1" stroke="#000000" stroke-width="1" x1="288" y1="699" x2="288" y2="68"/>
<line opacity="0.1" stroke="#000000" stroke-width="1" x1="297" y1="699" x2="297" y2="68"/>
<line opacity="0.1" stroke="#000000" stroke-width="1" x1="306" y1="699" x2="306" y2="68"/>
<line opacity="0.1" stroke="#000000" stroke-width="1" x1="315" y1="699" x2="315" y2="68"/>
<line opacity="0.1" stroke="#000000" stroke-width="1" x1="323" y1="699" x2="323" y2="68"/>
<line opacity="0.1" stroke="#000000" stroke-width="1" x1="332" y1="699" x2="332" y2="68"/>
<line opacity="0.1" stroke="#000000" stroke-width="1" x1="341" y1="699" x2="341" y2="68"/>
<line opacity="0.1" stroke="#000000" stroke-width="1" x1="350" y1="699" x2="350" y2="68"/>
<line opacity="0.1" stroke="#000000" stroke-width="1" x1="359" y1="699" x2="359" y2="68"/>
<line opacity="0.1" stroke="#000000" stroke-width="1" x1="368" y1="699" x2="368" y2="68"/>
<line opacity="0.1" stroke="#000000" stroke-width="1" x1="377" y1="699" x2="377" y2="68"/>
<line opacity="0.1" stroke="#000000" stroke-width="1" x1="386" y1="699" x2="386" y2="68"/>
<line opacity="0.1" stroke="#000000" stroke-width="1" x1="395" y1="699" x2="395" y2="68"/>
<line opacity="0.1" stroke="#000000" stroke-width="1" x1="403" y1="699" x2="403" y2="68"/>
<line opacity="0.1" stroke="#000000" stroke-width="1" x1="412" y1="699" x2="412" y2="68"/>
<line opacity="0.1" stroke="#000000" stroke-width="1" x1="421" y1="699" x2="421" y2="68"/>
<line opacity="0.1" stroke="#000000" stroke-width="1" x1="430" y1="699" x2="430" y2="68"/>
<line opacity="0.1" stroke="#000000" stroke-width="1" x1="439" y1="699" x2="439" y2="68"/>
<line opacity="0.1" stroke="#000000" stroke-width="1" x1="448" y1="699" x2="448" y2="68"/>
<line opacity="0.1" stroke="#000000" stroke-width="1" x1="457" y1="699" x2="457" y2="68"/>
<line opacity="0.1" stroke="#000000" stroke-width="1" x1="466" y1="699" x2="466" y2="68"/>
<line opacity="0.1" stroke="#000000" stroke-width="1" x1="475" y1="699" x2="475" y2="68"/>
<line opacity="0.1" stroke="#000000" stroke-width="1" x1="483" y1="699" x2="483" y2="68"/>
<line opacity="0.1" stroke="#000000" stroke-width="1" x1="492" y1="699" x2="492" y2="68"/>
<line opacity="0.1" stroke="#000000" stroke-width="1" x1="501" y1="699" x2="501" y2="68"/>
<line opacity="0.1" stroke="#000000" stroke-width="1" x1="510" y1="699" x2="510" y2="68"/>
<line opacity="0.1" stroke="#000000" stroke-width="1" x1="519" y1="699" x2="519" y2="68"/>
<line opacity="0.1" stroke="#000000" stroke-width="1" x1="528" y1="699" x2="528" y2="68"/>
<line opacity="0.1" stroke="#000000" stroke-width="1" x1="537" y1="699" x2="537" y2="68"/>
<line opacity="0.1" stroke="#000000" stroke-width="1" x1="546" y1="699" x2="546" y2="68"/>
<line opacity="0.1" stroke="#000000" stroke-width="1" x1="555" y1="699" x2="555" y2="68"/>
<line opacity="0.1" stroke="#000000" stroke-width="1" x1="563" y1="699" x2="563" y2="68"/>
<line opacity="0.1" stroke="#000000" stroke-width="1" x1="572" y1="699" x2="572" y2="68"/>
<line opacity="0.1" stroke="#000000" stroke-width="1" x1="581" y1="699" x2="581" y2="68"/>
<line opacity="0.1" stroke="#000000" stroke-width="1" x1="590" y1="699" x2="590" y2="68"/>
<line opacity="0.1" stroke="#000000" stroke-width="1" x1="599" y1="699" x2="599" y2="68"/>
<line opacity="0.1" stroke="#000000" stroke-width="1" x1="608" y1="699" x2="608" y2="68"/>
<line opacity="0.1" stroke="#000000" stroke-width="1" x1="617" y1="699" x2="617" y2="68"/>
<line opacity="0.1" stroke="#000000" stroke-width="1" x1="626" y1="699" x2="626" y2="68"/>
<line opacity="0.1" stroke="#000000" stroke-width="1" x1="635" y1="699" x2="635" y2="68"/>
<line opacity="0.1" stroke="#000000" stroke-width="1" x1="644" y1="699" x2="644" y2="68"/>
<line opacity="0.1" stroke="#000000" stroke-width="1" x1="652" y1="699" x2="652" y2="68"/>
<line opacity="0.1" stroke="#000000" stroke-width="1" x1="661" y1="699" x2="661" y2="68"/>
<line opacity="0.1" stroke="#000000" stroke-width="1" x1="670" y1="699" x2="670" y2="68"/>
<line opacity="0.1" stroke="#000000" stroke-width="1" x1="679" y1="699" x2="679" y2="68"/>
<line opacity="0.1" stroke="#000000" stroke-width="1" x1="688" y1="699" x2="688" y2="68"/>
<line opacity="0.1" stroke="#000000" stroke-width="1" x1="697" y1="699" x2="697" y2="68"/>
<line opacity="0.1" stroke="#000000" stroke-width="1" x1="706" y1="699" x2="706" y2="68"/>
<line opacity="0.1" stroke="#000000" stroke-width="1" x1="715" y1="699" x2="715" y2="68"/>
<line opacity="0.1" stroke="#000000" stroke-width="1" x1="724" y1="699" x2="724" y2="68"/>
<line opacity="0.1" stroke="#000000" stroke-width="1" x1="732" y1="699" x2="732" y2="68"/>
<line opacity="0.1" stroke="#000000" stroke-width="1" x1="741" y1="699" x2="741" y2="68"/>
<line opacity="0.1" stroke="#000000" stroke-width="1" x1="750" y1="699" x2="750" y2="68"/>
<line opacity="0.1" stroke="#000000" stroke-width="1" x1="759" y1="699" x2="759" y2="68"/>
<line opacity="0.1" stroke="#000000" stroke-width="1" x1="768" y1="699" x2="768" y2="68"/>
<line opacity="0.1" stroke="#000000" stroke-width="1" x1="777" y1="699" x2="777" y2="68"/>
<line opacity="0.1" stroke="#000000" stroke-width="1" x1="786" y1="699" x2="786" y2="68"/>
<line opacity="0.1" stroke="#000000" stroke-width="1" x1="795" y1="699" x2="795" y2="68"/>
<line opacity="0.1" stroke="#000000" stroke-width="1" x1="804" y1="699" x2="804" y2="68"/>
<line opacity="0.1" stroke="#000000" stroke-width="1" x1="812" y1="699" x2="812" y2="68"/>
<line opacity="0.1" stroke="#000000" stroke-width="1" x1="821" y1="699" x2="821" y2="68"/>
<line opacity="0.1" stroke="#000000" stroke-width="1" x1="830" y1="699" x2="830" y2="68"/>
<line opacity="0.1" stroke="#000000" stroke-width="1" x1="839" y1="699" x2="839" y2="68"/>
<line opacity="0.1" stroke="#000000" stroke-width="1" x1="848" y1="699" x2="848" y2="68"/>
<line opacity="0.1" stroke="#000000" stroke-width="1" x1="857" y1="699" x2="857" y2="68"/>
<line opacity="0.1" stroke="#000000" stroke-width="1" x1="866" y1="699" x2="866" y2="68"/>
<line opacity="0.1" stroke="#000000" stroke-width="1" x1="875" y1="699" x2="875" y2="68"/>
<line opacity="0.1" stroke="#000000" stroke-width="1" x1="884" y1="699" x2="884" y2="68"/>
<line opacity="0.1" stroke="#000000" stroke-width="1" x1="892" y1="699" x2="892" y2="68"/>
<line opacity="0.1" stroke="#000000" stroke-width="1" x1="901" y1="699" x2="901" y2="68"/>
<line opacity="0.1" stroke="#000000" stroke-width="1" x1="910" y1="699" x2="910" y2="68"/>
<line opacity="0.1" stroke="#000000" stroke-width="1" x1="919" y1="699" x2="919" y2="68"/>
<line opacity="0.1" stroke="#000000" stroke-width="1" x1="928" y1="699" x2="928" y2="68"/>
<line opacity="0.1" stroke="#000000" stroke-width="1" x1="937" y1="699" x2="937" y2="68"/>
<line opacity="0.1" stroke="#000000" stroke-width="1" x1="946" y1="699" x2="946" y2="68"/>
<line opacity="0.1" stroke="#000000" stroke-width="1" x1="955" y1="699" x2="955" y2="68"/>
<line opacity="0.1" stroke="#000000" stroke-width="1" x1="964" y1="699" x2="964" y2="68"/>
<line opacity="0.1" stroke="#000000" stroke-width="1" x1="78" y1="699" x2="973" y2="699"/>
<line opacity="0.1" stroke="#000000" stroke-width="1" x1="78" y1="690" x2="973" y2="690"/>
<line opacity="0.1" stroke="#000000" stroke-width="1" x1="78" y1="682" x2="973" y2="682"/>
<line opacity="0.1" stroke="#000000" stroke-width="1" x1="78" y1="674" x2="973" y2="674"/>
<line opacity="0.1" stroke="#000000" stroke-width="1" x1="78" y1="666" x2="973" y2="666"/>
<line opacity="0.1" stroke="#000000" stroke-width="1" x1="78" y1="658" x2="973" y2="658"/>
<line opacity="0.1" stroke="#000000" stroke-width="1" x1="78" y1="650" x2="973" y2="650"/>
<line opacity="0.1" stroke="#000000" stroke-width="1" x1="78" y1="642" x2="973" y2="642"/>
<line opacity="0.1" stroke="#000000" stroke-width="1" x1="78" y1="634" x2="973" y2="634"/>
<line opacity="0.1" stroke="#000000" stroke-width="1" x1="78" y1="626" x2="973" y2="626"/>
<line opacity="0.1" stroke="#000000" stroke-width="1" x1="78" y1="618" x2="973" y2="618"/>
<line opacity="0.1" stroke="#000000" stroke-width="1" x1="78" y1="610" x2="973" y2="610"/>
<line opacity="0.1" stroke="#000000" stroke-width="1" x1="78" y1="602" x2="973" y2="602"/>
<line opacity="0.1" stroke="#000000" stroke-width="1" x1="78" y1="594" x2="973" y2="594"/>
<line opacity="0.1" stroke="#000000" stroke-width="1" x1="78" y1="586" x2="973" y2="586"/>
<line opacity="0.1" stroke="#000000" stroke-width="1" x1="78" y1="577" x2="973" y2="577"/>
<line opacity="0.1" stroke="#000000" stroke-width="1" x1="78" y1="569" x2="973" y2="569"/>
<line opacity="0.1" stroke="#000000" stroke-width="1" x1="78" y1="561" x2="973" y2="561"/>
<line opacity="0.1" stroke="#000000" stroke-width="1" x1="78" y1="553" x2="973" y2="553"/>
<line opacity="0.1" stroke="#000000" stroke-width="1" x1="78" y1="545" x2="973" y2="545"/>
<line opacity="0.1" stroke="#000000" stroke-width="1" x1="78" y1="537" x2="973" y2="537"/>
<line opacity="0.1" stroke="#000000" stroke-width="1" x1="78" y1="529" x2="973" y2="529"/>
<line opacity="0.1" stroke="#000000" stroke-width="1" x1="78" y1="521" x2="973" y2="521"/>
<line opacity="0.1" stroke="#000000" stroke-width="1" x1="78" y1="513" x2="973" y2="513"/>
<line opacity="0.1" stroke="#000000" stroke-width="1" x1="78" y1="505" x2="973" y2="505"/>
<line opacity="0.1" stroke="#000000" stroke-width="1" x1="78" y1="497" x2="973" y2="497"/>
<line opacity="0.1" stroke="#000000" stroke-width="1" x1="78" y1="489" x2="973" y2="489"/>
<line opacity="0.1" stroke="#000000" stroke-width="1" x1="78" y1="481" x2="973" y2="481"/>
<line opacity="0.1" stroke="#000000" stroke-width="1" x1="78" y1="473" x2="973" y2="473"/>
<line opacity="0.1" stroke="#000000" stroke-width="1" x1="78" y1="464" x2="973" y2="464"/>
<line opacity="0.1" stroke="#000000" stroke-width="1" x1="78" y1="456" x2="973" y2="456"/>
<line opacity="0.1" stroke="#000000" stroke-width="1" x1="78" y1="448" x2="973" y2="448"/>
<line opacity="0.1" stroke="#000000" stroke-width="1" x1="78" y1="440" x2="973" y2="440"/>
<line opacity="0.1" stroke="#000000" stroke-width="1" x1="78" y1="432" x2="973" y2="432"/>
<line opacity="0.1" stroke="#000000" stroke-width="1" x1="78" y1="424" x2="973" y2="424"/>
<line opacity="0.1" stroke="#000000" stroke-width="1" x1="78" y1="416" x2="973" y2="416"/>
<line opacity="0.1" stroke="#000000" stroke-width="1" x1="78" y1="408" x2="973" y2="408"/>
<line opacity="0.1" stroke="#000000" stroke-width="1" x1="78" y1="400" x2="973" y2="400"/>
<line opacity="0.1" stroke="#000000" stroke-width="1" x1="78" y1="392" x2="973" y2="392"/>
<line opacity="0.1" stroke="#000000" stroke-width="1" x1="78" y1="384" x2="973" y2="384"/>
<line opacity="0.1" stroke="#000000" stroke-width="1" x1="78" y1="376" x2="973" y2="376"/>
<line opacity="0.1" stroke="#000000" stroke-width="1" x1="78" y1="368" x2="973" y2="368"/>
<line opacity="0.1" stroke="#000000" stroke-width="1" x1="78" y1="360" x2="973" y2="360"/>
<line opacity="0.1" stroke="#000000" stroke-width="1" x1="78" y1="352" x2="973" y2="352"/>
<line opacity="0.1" stroke="#000000" stroke-width="1" x1="78" y1="343" x2="973" y2="343"/>
<line opacity="0.1" stroke="#000000" stroke-width="1" x1="78" y1="335" x2="973" y2="335"/>
<line opacity="0.1" stroke="#000000" stroke-width="1" x1="78" y1="327" x2="973" y2="327"/>
<line opacity="0.1" stroke="#000000" stroke-width="1" x1="78" y1="319" x2="973" y2="319"/>
<line opacity="0.1" stroke="#000000" stroke-width="1" x1="78" y1="311" x2="973" y2="311"/>
<line opacity="0.1" stroke="#000000" stroke-width="1" x1="78" y1="303" x2="973" y2="303"/>
<line opacity="0.1" stroke="#000000" stroke-width="1" x1="78" y1="295" x2="973" y2="295"/>
<line opacity="0.1" stroke="#000000" stroke-width="1" x1="78" y1="287" x2="973" y2="287"/>
<line opacity="0.1" stroke="#000000" stroke-width="1" x1="78" y1="279" x2="973" y2="279"/>
<line opacity="0.1" stroke="#000000" stroke-width="1" x1="78" y1="271" x2="973" y2="271"/>
<line opacity="0.1" stroke="#000000" stroke-width="1" x1="78" y1="263" x2="973" y2="263"/>
<line opacity="0.1" stroke="#000000" stroke-width="1" x1="78" y1="255" x2="973" y2="255"/>
<line opacity="0.1" stroke="#000000" stroke-width="1" x1="78" y1="247" x2="973" y2="247"/>
<line opacity="0.1" stroke="#000000" stroke-width="1" x1="78" y1="239" x2="973" y2="239"/>
<line opacity="0.1" stroke="#000000" stroke-width="1" x1="78" y1="230" x2="973" y2="230"/>
<line opacity="0.1" stroke="#000000" stroke-width="1" x1="78" y1="222" x2="973" y2="222"/>
<line opacity="0.1" stroke="#000000" stroke-width="1" x1="78" y1="214" x2="973" y2="214"/>
<line opacity="0.1" stroke="#000000" stroke-width="1" x1="78" y1="206" x2="973" y2="206"/>
<line opacity="0.1" stroke="#000000" stroke-width="1" x1="78" y1="198" x2="973" y2="198"/>
<line opacity="0.1" stroke="#000000" stroke-width="1" x1="78" y1="190" x2="973" y2="190"/>
<line opacity="0.1" stroke="#000000" stroke-width="1" x1="78" y1="182" x2="973" y2="182"/>
<line opacity="0.1" stroke="#000000" stroke-width="1" x1="78" y1="174" x2="973" y2="174"/>
<line opacity="0.1" stroke="#000000" stroke-width="1" x1="78" y1="166" x2="973" y2="166"/>
<line opacity="0.1" stroke="#000000" stroke-width="1" x1="78" y1="158" x2="973" y2="158"/>
<line opacity="0.1" stroke="#000000" stroke-width="1" x1="78" y1="150" x2="973" y2="150"/>
<line opacity="0.1" stroke="#000000" stroke-width="1" x1="78" y1="142" x2="973" y2="142"/>
<line opacity="0.1" stroke="#000000" stroke-width="1" x1="78" y1="134" x2="973" y2="134"/>
<line opacity="0.1" stroke="#000000" stroke-width="1" x1="78" y1="126" x2="973" y2="126"/>
<line opacity="0.1" stroke="#000000" stroke-width="1" x1="78" y1="117" x2="973" y2="117"/>
<line opacity="0.1" stroke="#000000" stroke-width="1" x1="78" y1="109" x2="973" y2="109"/>
<line opacity="0.1" stroke="#000000" stroke-width="1" x1="78" y1="101" x2="973" y2="101"/>
<line opacity="0.1" stroke="#000000" stroke-width="1" x1="78" y1="93" x2="973" y2="93"/>
<line opacity="0.1" stroke="#000000" stroke-width="1" x1="78" y1="85" x2="973" y2="85"/>
<line opacity="0.1" stroke="#000000" stroke-width="1" x1="78" y1="77" x2="973" y2="77"/>
<line opacity="0.1" stroke="#000000" stroke-width="1" x1="78" y1="69" x2="973" y2="69"/>
<text x="8" y="384" dy="0.76em" text-anchor="middle" font-family="sans-serif" font-size="9.67741935483871" opacity="1" fill="#000000" transform="rotate(270, 8, 384)">
Memory usage
</text>
<text x="526" y="760" dy="-0.5ex" text-anchor="middle" font-family="sans-serif" font-size="9.67741935483871" opacity="1" fill="#000000">
Time
</text>
<line opacity="0.2" stroke="#000000" stroke-width="1" x1="101" y1="699" x2="101" y2="68"/>
<line opacity="0.2" stroke="#000000" stroke-width="1" x1="190" y1="699" x2="190" y2="68"/>
<line opacity="0.2" stroke="#000000" stroke-width="1" x1="279" y1="699" x2="279" y2="68"/>
<line opacity="0.2" stroke="#000000" stroke-width="1" x1="368" y1="699" x2="368" y2="68"/>
<line opacity="0.2" stroke="#000000" stroke-width="1" x1="457" y1="699" x2="457" y2="68"/>
<line opacity="0.2" stroke="#000000" stroke-width="1" x1="546" y1="699" x2="546" y2="68"/>
<line opacity="0.2" stroke="#000000" stroke-width="1" x1="635" y1="699" x2="635" y2="68"/>
<line opacity="0.2" stroke="#000000" stroke-width="1" x1="724" y1="699" x2="724" y2="68"/>
<line opacity="0.2" stroke="#000000" stroke-width="1" x1="812" y1="699" x2="812" y2="68"/>
<line opacity="0.2" stroke="#000000" stroke-width="1" x1="901" y1="699" x2="901" y2="68"/>
<line opacity="0.2" stroke="#000000" stroke-width="1" x1="78" y1="699" x2="973" y2="699"/>
<line opacity="0.2" stroke="#000000" stroke-width="1" x1="78" y1="618" x2="973" y2="618"/>
<line opacity="0.2" stroke="#000000" stroke-width="1" x1="78" y1="537" x2="973" y2="537"/>
<line opacity="0.2" stroke="#000000" stroke-width="1" x1="78" y1="456" x2="973" y2="456"/>
<line opacity="0.2" stroke="#000000" stroke-width="1" x1="78" y1="376" x2="973" y2="376"/>
<line opacity="0.2" stroke="#000000" stroke-width="1" x1="78" y1="295" x2="973" y2="295"/>
<line opacity="0.2" stroke="#000000" stroke-width="1" x1="78" y1="214" x2="973" y2="214"/>
<line opacity="0.2" stroke="#000000" stroke-width="1" x1="78" y1="134" x2="973" y2="134"/>
<polyline fill="none" opacity="1" stroke="#000000" stroke-width="1" points="77,68 77,699 "/>
<text x="68" y="699" dy="0.5ex" text-anchor="end" font-family="sans-serif" font-size="9.67741935483871" opacity="1" fill="#000000">
0 KB
</text>
<polyline fill="none" opacity="1" stroke="#000000" stroke-width="1" points="72,699 77,699 "/>
<text x="68" y="618" dy="0.5ex" text-anchor="end" font-family="sans-serif" font-size="9.67741935483871" opacity="1" fill="#000000">
97 KB
</text>
<polyline fill="none" opacity="1" stroke="#000000" stroke-width="1" points="72,618 77,618 "/>
<text x="68" y="537" dy="0.5ex" text-anchor="end" font-family="sans-serif" font-size="9.67741935483871" opacity="1" fill="#000000">
195 KB
</text>
<polyline fill="none" opacity="1" stroke="#000000" stroke-width="1" points="72,537 77,537 "/>
<text x="68" y="456" dy="0.5ex" text-anchor="end" font-family="sans-serif" font-size="9.67741935483871" opacity="1" fill="#000000">
292 KB
</text>
<polyline fill="none" opacity="1" stroke="#000000" stroke-width="1" points="72,456 77,456 "/>
<text x="68" y="376" dy="0.5ex" text-anchor="end" font-family="sans-serif" font-size="9.67741935483871" opacity="1" fill="#000000">
390 KB
</text>
<polyline fill="none" opacity="1" stroke="#000000" stroke-width="1" points="72,376 77,376 "/>
<text x="68" y="295" dy="0.5ex" text-anchor="end" font-family="sans-serif" font-size="9.67741935483871" opacity="1" fill="#000000">
488 KB
</text>
<polyline fill="none" opacity="1" stroke="#000000" stroke-width="1" points="72,295 77,295 "/>
<text x="68" y="214" dy="0.5ex" text-anchor="end" font-family="sans-serif" font-size="9.67741935483871" opacity="1" fill="#000000">
585 KB
</text>
<polyline fill="none" opacity="1" stroke="#000000" stroke-width="1" points="72,214 77,214 "/>
<text x="68" y="134" dy="0.5ex" text-anchor="end" font-family="sans-serif" font-size="9.67741935483871" opacity="1" fill="#000000">
683 KB
</text>
<polyline fill="none" opacity="1" stroke="#000000" stroke-width="1" points="72,134 77,134 "/>
<polyline fill="none" opacity="1" stroke="#000000" stroke-width="1" points="78,700 973,700 "/>
<text x="101" y="710" dy="0.76em" text-anchor="middle" font-family="sans-serif" font-size="9.67741935483871" opacity="1" fill="#000000">
02:04:17
</text>
<polyline fill="none" opacity="1" stroke="#000000" stroke-width="1" points="101,700 101,705 "/>
<text x="190" y="710" dy="0.76em" text-anchor="middle" font-family="sans-serif" font-size="9.67741935483871" opacity="1" fill="#000000">
02:04:18
</text>
<polyline fill="none" opacity="1" stroke="#000000" stroke-width="1" points="190,700 190,705 "/>
<text x="279" y="710" dy="0.76em" text-anchor="middle" font-family="sans-serif" font-size="9.67741935483871" opacity="1" fill="#000000">
02:04:19
</text>
<polyline fill="none" opacity="1" stroke="#000000" stroke-width="1" points="279,700 279,705 "/>
<text x="368" y="710" dy="0.76em" text-anchor="middle" font-family="sans-serif" font-size="9.67741935483871" opacity="1" fill="#000000">
02:04:20
</text>
<polyline fill="none" opacity="1" stroke="#000000" stroke-width="1" points="368,700 368,705 "/>
<text x="457" y="710" dy="0.76em" text-anchor="middle" font-family="sans-serif" font-size="9.67741935483871" opacity="1" fill="#000000">
02:04:21
</text>
<polyline fill="none" opacity="1" stroke="#000000" stroke-width="1" points="457,700 457,705 "/>
<text x="546" y="710" dy="0.76em" text-anchor="middle" font-family="sans-serif" font-size="9.67741935483871" opacity="1" fill="#000000">
02:04:22
</text>
<polyline fill="none" opacity="1" stroke="#000000" stroke-width="1" points="546,700 546,705 "/>
<text x="635" y="710" dy="0.76em" text-anchor="middle" font-family="sans-serif" font-size="9.67741935483871" opacity="1" fill="#000000">
02:04:23
</text>
<polyline fill="none" opacity="1" stroke="#000000" stroke-width="1" points="635,700 635,705 "/>
<text x="724" y="710" dy="0.76em" text-anchor="middle" font-family="sans-serif" font-size="9.67741935483871" opacity="1" fill="#000000">
02:04:24
</text>
<polyline fill="none" opacity="1" stroke="#000000" stroke-width="1" points="724,700 724,705 "/>
<text x="812" y="710" dy="0.76em" text-anchor="middle" font-family="sans-serif" font-size="9.67741935483871" opacity="1" fill="#000000">
02:04:25
</text>
<polyline fill="none" opacity="1" stroke="#000000" stroke-width="1" points="812,700 812,705 "/>
<text x="901" y="710" dy="0.76em" text-anchor="middle" font-family="sans-serif" font-size="9.67741935483871" opacity="1" fill="#000000">
02:04:26
</text>
<polyline fill="none" opacity="1" stroke="#000000" stroke-width="1" points="901,700 901,705 "/>
<polyline fill="none" opacity="1" stroke="#000000" stroke-width="1" points="78,67 974,67 "/>
<text x="101" y="58" dy="-0.5ex" text-anchor="middle" font-family="sans-serif" font-size="9.67741935483871" opacity="1" fill="#000000">
+265ms
</text>
<polyline fill="none" opacity="1" stroke="#000000" stroke-width="1" points="101,62 101,67 "/>
<text x="190" y="58" dy="-0.5ex" text-anchor="middle" font-family="sans-serif" font-size="9.67741935483871" opacity="1" fill="#000000">
+1s
</text>
<polyline fill="none" opacity="1" stroke="#000000" stroke-width="1" points="190,62 190,67 "/>
<text x="279" y="58" dy="-0.5ex" text-anchor="middle" font-family="sans-serif" font-size="9.67741935483871" opacity="1" fill="#000000">
+2s
</text>
<polyline fill="none" opacity="1" stroke="#000000" stroke-width="1" points="279,62 279,67 "/>
<text x="368" y="58" dy="-0.5ex" text-anchor="middle" font-family="sans-serif" font-size="9.67741935483871" opacity="1" fill="#000000">
+3s
</text>
<polyline fill="none" opacity="1" stroke="#000000" stroke-width="1" points="368,62 368,67 "/>
<text x="457" y="58" dy="-0.5ex" text-anchor="middle" font-family="sans-serif" font-size="9.67741935483871" opacity="1" fill="#000000">
+4s
</text>
<polyline fill="none" opacity="1" stroke="#000000" stroke-width="1" points="457,62 457,67 "/>
<text x="546" y="58" dy="-0.5ex" text-anchor="middle" font-family="sans-serif" font-size="9.67741935483871" opacity="1" fill="#000000">
+5s
</text>
<polyline fill="none" opacity="1" stroke="#000000" stroke-width="1" points="546,62 546,67 "/>
<text x="635" y="58" dy="-0.5ex" text-anchor="middle" font-family="sans-serif" font-size="9.67741935483871" opacity="1" fill="#000000">
+6s
</text>
<polyline fill="none" opacity="1" stroke="#000000" stroke-width="1" points="635,62 635,67 "/>
<text x="724" y="58" dy="-0.5ex" text-anchor="middle" font-family="sans-serif" font-size="9.67741935483871" opacity="1" fill="#000000">
+7s
</text>
<polyline fill="none" opacity="1" stroke="#000000" stroke-width="1" points="724,62 724,67 "/>
<text x="813" y="58" dy="-0.5ex" text-anchor="middle" font-family="sans-serif" font-size="9.67741935483871" opacity="1" fill="#000000">
+8s
</text>
<polyline fill="none" opacity="1" stroke="#000000" stroke-width="1" points="813,62 813,67 "/>
<text x="902" y="58" dy="-0.5ex" text-anchor="middle" font-family="sans-serif" font-size="9.67741935483871" opacity="1" fill="#000000">
+9s
</text>
<polyline fill="none" opacity="1" stroke="#000000" stroke-width="1" points="902,62 902,67 "/>
</svg>
