<svg width="1024" height="768" viewBox="0 0 1024 768" xmlns="http://www.w3.org/2000/svg">
<rect x="0" y="0" width="1023" height="767" opacity="1" fill="#FFFFFF" stroke="none"/>
<polygon opacity="1" fill="#3CB44B" points="107,698 108,698 108,698 109,698 110,698 111,698 112,698 113,698 114,698 115,698 115,698 116,698 117,698 118,698 119,698 120,698 121,698 121,698 122,698 123,698 124,698 125,698 126,698 127,698 128,698 128,698 129,698 130,698 131,698 132,698 133,698 134,698 134,698 135,698 136,698 137,698 138,698 139,698 140,698 141,698 141,698 142,698 143,698 144,698 145,698 146,698 147,698 147,698 148,698 149,698 150,698 151,698 152,698 153,698 154,698 154,698 155,698 156,698 157,698 158,698 159,698 160,698 160,698 161,698 162,698 163,698 164,698 165,698 166,698 166,698 167,698 168,698 169,698 170,698 171,698 172,698 173,698 173,698 174,698 175,698 176,698 177,698 178,698 179,698 179,698 180,698 181,698 182,698 183,698 184,698 185,698 186,616 186,616 187,616 188,616 189,616 190,616 191,616 192,616 192,616 193,616 194,616 195,616 196,616 197,616 198,616 199,616 199,616 200,616 201,616 202,616 203,616 204,616 205,616 205,616 206,616 207,616 208,616 209,616 210,616 211,616 212,616 212,616 213,616 214,616 215,616 216,616 217,616 218,616 218,616 219,616 220,616 221,616 222,616 223,616 224,616 225,616 225,616 226,616 227,616 228,616 229,616 230,616 231,616 231,616 232,616 233,616 234,616 235,616 236,616 237,616 238,616 238,616 239,616 240,616 241,616 242,616 243,616 244,616 244,616 245,616 246,616 247,616 248,616 249,616 250,616 251,616 251,616 252,616 253,616 254,616 255,616 256,616 257,616 257,616 258,616 259,616 260,616 261,616 262,616 263,616 264,616 264,616 265,616 266,616 267,616 268,616 269,616 270,616 270,616 271,616 272,616 273,616 274,616 275,616 276,616 277,616 277,616 278,616 279,616 280,616 281,616 282,616 283,616 283,616 284,616 285,616 286,616 287,616 288,616 289,616 290,616 290,616 291,616 292,616 293,616 294,616 295,616 296,616 296,616 297,616 298,616 299,616 300,616 301,616 302,616 303,616 303,616 304,616 305,616 306,616 307,616 308,616 309,616 309,616 310,616 311,616 312,616 313,616 314,616 315,616 316,616 316,616 317,616 318,616 319,616 320,616 321,616 322,616 322,616 323,616 324,616 325,616 326,616 327,616 328,616 329,616 329,616 330,616 331,616 332,616 333,616 334,616 335,616 335,616 336,616 337,616 338,616 339,616 340,616 341,616 342,616 342,451 343,451 344,451 345,451 346,451 347,451 348,451 348,451 349,451 350,451 351,451 352,451 353,451 354,451 355,451 355,451 356,451 357,451 358,451 359,451 360,451 361,451 361,451 362,451 363,451 364,451 365,451 366,451 367,451 368,451 368,451 369,451 370,451 371,451 372,451 373,451 374,451 374,451 375,451 376,451 377,451 378,451 379,451 380,451 381,451 381,451 382,451 383,451 384,451 385,451 386,451 387,451 387,451 388,451 389,451 390,451 391,451 392,451 393,451 394,451 394,451 395,451 396,451 397,451 398,451 399,451 400,451 400,451 401,451 402,451 403,451 404,451 405,451 406,451 407,451 407,451 408,451 409,451 410,451 411,451 412,451 413,451 413,451 414,451 415,451 416,451 417,451 418,451 419,451 420,451 420,451 421,451 422,451 423,451 424,451 425,451 426,451 426,451 427,451 428,451 429,410 430,410 431,410 432,410 433,410 433,410 434,410 435,410 436,410 437,410 438,410 439,410 439,410 440,410 441,410 442,410 443,410 444,410 445,410 446,410 446,410 447,410 448,410 449,410 450,410 451,410 452,410 452,410 453,410 454,410 455,410 456,410 457,410 458,410 459,410 459,410 460,410 461,410 462,410 463,410 464,410 465,410 465,410 466,410 467,410 468,410 469,410 470,410 471,410 472,410 472,410 473,410 474,410 475,410 476,410 477,410 478,410 478,410 479,410 480,410 481,410 482,410 483,410 484,410 485,410 485,410 486,410 487,410 488,410 489,410 490,410 491,410 491,410 492,410 493,410 494,410 495,410 496,410 497,410 497,410 498,410 499,410 500,410 501,410 502,410 503,410 504,410 504,410 505,410 506,410 507,410 508,410 509,410 510,410 510,410 511,410 512,410 513,410 514,410 515,410 516,410 517,410 517,410 518,410 519,410 520,410 521,410 522,410 523,410 523,410 524,410 525,410 526,410 527,410 528,410 529,410 530,410 530,410 531,410 532,410 533,410 534,410 535,410 536,410 536,410 537,410 538,410 539,410 540,410 541,410 542,410 543,410 543,410 544,410 545,410 546,410 547,410 548,410 549,410 549,410 550,410 551,410 552,410 553,410 554,410 555,410 556,410 556,410 557,410 558,410 559,410 560,410 561,410 562,410 562,410 563,410 564,410 565,410 566,410 567,410 568,410 569,410 569,410 570,410 571,410 572,410 573,410 574,410 575,410 575,410 576,410 577,410 578,410 579,410 580,410 581,410 582,410 582,410 583,410 584,410 585,410 586,410 587,410 588,410 588,410 589,410 590,410 591,410 592,410 593,410 594,410 595,410 595,410 596,410 597,410 598,410 599,410 600,410 601,410 601,410 602,410 603,410 604,410 605,410 606,410 607,410 608,410 608,410 609,410 610,410 611,410 612,410 613,410 614,410 614,410 615,410 616,410 617,410 618,410 619,410 620,410 621,410 621,410 622,410 623,410 624,410 625,410 626,410 627,410 627,410 628,410 629,410 630,410 631,410 632,410 633,410 634,410 634,410 635,410 636,410 637,410 638,410 639,410 640,410 640,410 641,410 642,410 643,410 644,410 645,410 646,410 647,410 647,410 648,410 649,410 650,410 651,410 652,410 653,410 653,410 654,410 655,410 656,410 657,410 658,410 659,410 660,410 660,410 661,410 662,410 663,410 664,410 665,410 666,410 666,410 667,410 668,410 669,410 670,410 671,410 672,410 673,410 673,410 674,410 675,410 676,410 677,410 678,410 679,410 679,410 680,410 681,410 682,410 683,410 684,410 685,410 686,410 686,410 687,410 688,410 689,410 690,81 691,81 692,81 692,81 693,81 694,81 695,81 696,81 697,81 698,81 699,81 699,81 700,81 701,81 702,81 703,81 704,81 705,81 705,81 706,81 707,81 708,81 709,81 710,81 711,81 712,81 712,81 713,81 714,81 715,81 716,81 717,81 718,81 718,81 719,81 720,81 721,81 722,81 723,81 724,81 725,81 725,81 726,81 727,81 728,81 729,81 730,81 731,81 731,81 732,81 733,81 734,81 735,81 736,81 737,81 738,81 738,81 739,81 740,81 741,81 742,81 743,81 744,81 744,81 745,81 746,81 747,81 748,81 749,81 750,81 751,81 751,81 752,81 753,81 754,81 755,81 756,81 757,81 757,81 758,81 759,81 760,81 761,81 762,81 763,81 764,81 764,81 765,81 766,81 767,81 768,81 769,81 770,81 770,81 771,81 772,81 773,81 774,81 775,81 776,81 777,81 777,81 778,81 779,81 780,81 781,81 782,81 783,81 783,81 784,81 785,81 786,81 787,81 788,81 789,81 790,81 790,81 791,81 792,81 793,81 794,81 795,81 796,81 796,81 797,81 798,81 799,81 800,81 801,81 802,81 803,81 803,81 804,81 805,81 806,81 807,81 808,81 809,81 809,81 810,81 811,81 812,81 813,81 814,81 815,81 816,81 816,81 817,81 818,81 819,81 820,81 821,81 822,81 822,81 823,81 824,81 825,81 826,81 827,81 828,81 829,81 829,81 830,81 831,81 832,81 833,81 834,81 835,81 835,81 836,81 837,81 838,81 839,81 840,81 841,81 841,81 842,81 843,81 844,81 845,81 846,81 847,81 848,81 848,81 849,81 850,81 851,81 852,81 853,81 854,81 854,81 855,81 856,81 857,81 858,81 859,81 860,81 861,81 861,81 862,81 863,81 864,81 865,81 866,81 867,81 867,81 868,81 869,81 870,81 871,81 872,81 873,81 874,81 874,81 875,81 876,81 877,81 878,81 879,81 880,81 880,81 881,81 882,81 883,81 884,81 885,81 886,81 887,81 887,81 888,81 889,81 890,81 891,81 892,81 893,81 893,81 894,81 895,81 896,81 897,81 898,81 899,81 900,81 900,81 901,81 902,81 903,81 904,81 905,81 906,81 906,81 907,81 908,81 909,81 910,81 911,81 912,81 913,81 913,81 914,81 915,81 916,81 917,81 918,81 919,81 919,81 920,81 921,81 922,81 923,81 924,81 925,81 926,81 926,81 927,81 928,81 929,81 930,81 931,81 932,81 932,81 933,81 934,81 935,81 936,81 937,81 938,81 939,80 939,80 940,80 941,80 942,80 943,80 944,68 945,68 945,68 946,68 947,68 948,68 949,68 950,68 951,68 952,68 952,68 953,68 954,68 955,68 956,68 957,68 958,68 958,68 959,68 960,68 961,68 962,81 963,81 964,81 965,81 965,81 966,81 967,81 968,81 969,81 970,81 971,81 971,81 972,81 973,246 973,699 974,699 974,699 107,699 "/>
<polyline fill="none" opacity="1" stroke="#3CB44B" stroke-width="1" points="107,698 108,698 108,698 109,698 110,698 111,698 112,698 113,698 114,698 115,698 115,698 116,698 117,698 118,698 119,698 120,698 121,698 121,698 122,698 123,698 124,698 125,698 126,698 127,698 128,698 128,698 129,698 130,698 131,698 132,698 133,698 134,698 134,698 135,698 136,698 137,698 138,698 139,698 140,698 141,698 141,698 142,698 143,698 144,698 145,698 146,698 147,698 147,698 148,698 149,698 150,698 151,698 152,698 153,698 154,698 154,698 155,698 156,698 157,698 158,698 159,698 160,698 160,698 161,698 162,698 163,698 164,698 165,698 166,698 166,698 167,698 168,698 169,698 170,698 171,698 172,698 173,698 173,698 174,698 175,698 176,698 177,698 178,698 179,698 179,698 180,698 181,698 182,698 183,698 184,698 185,698 186,616 186,616 187,616 188,616 189,616 190,616 191,616 192,616 192,616 193,616 194,616 195,616 196,616 197,616 198,616 199,616 199,616 200,616 201,616 202,616 203,616 204,616 205,616 205,616 206,616 207,616 208,616 209,616 210,616 211,616 212,616 212,616 213,616 214,616 215,616 216,616 217,616 218,616 218,616 219,616 220,616 221,616 222,616 223,616 224,616 225,616 225,616 226,616 227,616 228,616 229,616 230,616 231,616 231,616 232,616 233,616 234,616 235,616 236,616 237,616 238,616 238,616 239,616 240,616 241,616 242,616 243,616 244,616 244,616 245,616 246,616 247,616 248,616 249,616 250,616 251,616 251,616 252,616 253,616 254,616 255,616 256,616 257,616 257,616 258,616 259,616 260,616 261,616 262,616 263,616 264,616 264,616 265,616 266,616 267,616 268,616 269,616 270,616 270,616 271,616 272,616 273,616 274,616 275,616 276,616 277,616 277,616 278,616 279,616 280,616 281,616 282,616 283,616 283,616 284,616 285,616 286,616 287,616 288,616 289,616 290,616 290,616 291,616 292,616 293,616 294,616 295,616 296,616 296,616 297,616 298,616 299,616 300,616 301,616 302,616 303,616 303,616 304,616 305,616 306,616 307,616 308,616 309,616 309,616 310,616 311,616 312,616 313,616 314,616 315,616 316,616 316,616 317,616 318,616 319,616 320,616 321,616 322,616 322,616 323,616 324,616 325,616 326,616 327,616 328,616 329,616 329,616 330,616 331,616 332,616 333,616 334,616 335,616 335,616 336,616 337,616 338,616 339,616 340,616 341,616 342,616 342,451 343,451 344,451 345,451 346,451 347,451 348,451 348,451 349,451 350,451 351,451 352,451 353,451 354,451 355,451 355,451 356,451 357,451 358,451 359,451 360,451 361,451 361,451 362,451 363,451 364,451 365,451 366,451 367,451 368,451 368,451 369,451 370,451 371,451 372,451 373,451 374,451 374,451 375,451 376,451 377,451 378,451 379,451 380,451 381,451 381,451 382,451 383,451 384,451 385,451 386,451 387,451 387,451 388,451 389,451 390,451 391,451 392,451 393,451 394,451 394,451 395,451 396,451 397,451 398,451 399,451 400,451 400,451 401,451 402,451 403,451 404,451 405,451 406,451 407,451 407,451 408,451 409,451 410,451 411,451 412,451 413,451 413,451 414,451 415,451 416,451 417,451 418,451 419,451 420,451 420,451 421,451 422,451 423,451 424,451 425,451 426,451 426,451 427,451 428,451 429,410 430,410 431,410 432,410 433,410 433,410 434,410 435,410 436,410 437,410 438,410 439,410 439,410 440,410 441,410 442,410 443,410 444,410 445,410 446,410 446,410 447,410 448,410 449,410 450,410 451,410 452,410 452,410 453,410 454,410 455,410 456,410 457,410 458,410 459,410 459,410 460,410 461,410 462,410 463,410 464,410 465,410 465,410 466,410 467,410 468,410 469,410 470,410 471,410 472,410 472,410 473,410 474,410 475,410 476,410 477,410 478,410 478,410 479,410 480,410 481,410 482,410 483,410 484,410 485,410 485,410 486,410 487,410 488,410 489,410 490,410 491,410 491,410 492,410 493,410 494,410 495,410 496,410 497,410 497,410 498,410 499,410 500,410 501,410 502,410 503,410 504,410 504,410 505,410 506,410 507,410 508,410 509,410 510,410 510,410 511,410 512,410 513,410 514,410 515,410 516,410 517,410 517,410 518,410 519,410 520,410 521,410 522,410 523,410 523,410 524,410 525,410 526,410 527,410 528,410 529,410 530,410 530,410 531,410 532,410 533,410 534,410 535,410 536,410 536,410 537,410 538,410 539,410 540,410 541,410 542,410 543,410 543,410 544,410 545,410 546,410 547,410 548,410 549,410 549,410 550,410 551,410 552,410 553,410 554,410 555,410 556,410 556,410 557,410 558,410 559,410 560,410 561,410 562,410 562,410 563,410 564,410 565,410 566,410 567,410 568,410 569,410 569,410 570,410 571,410 572,410 573,410 574,410 575,410 575,410 576,410 577,410 578,410 579,410 580,410 581,410 582,410 582,410 583,410 584,410 585,410 586,410 587,410 588,410 588,410 589,410 590,410 591,410 592,410 593,410 594,410 595,410 595,410 596,410 597,410 598,410 599,410 600,410 601,410 601,410 602,410 603,410 604,410 605,410 606,410 607,410 608,410 608,410 609,410 610,410 611,410 612,410 613,410 614,410 614,410 615,410 616,410 617,410 618,410 619,410 620,410 621,410 621,410 622,410 623,410 624,410 625,410 626,410 627,410 627,410 628,410 629,410 630,410 631,410 632,410 633,410 634,410 634,410 635,410 636,410 637,410 638,410 639,410 640,410 640,410 641,410 642,410 643,410 644,410 645,410 646,410 647,410 647,410 648,410 649,410 650,410 651,410 652,410 653,410 653,410 654,410 655,410 656,410 657,410 658,410 659,410 660,410 660,410 661,410 662,410 663,410 664,410 665,410 666,410 666,410 667,410 668,410 669,410 670,410 671,410 672,410 673,410 673,410 674,410 675,410 676,410 677,410 678,410 679,410 679,410 680,410 681,410 682,410 683,410 684,410 685,410 686,410 686,410 687,410 688,410 689,410 690,81 691,81 692,81 692,81 693,81 694,81 695,81 696,81 697,81 698,81 699,81 699,81 700,81 701,81 702,81 703,81 704,81 705,81 705,81 706,81 707,81 708,81 709,81 710,81 711,81 712,81 712,81 713,81 714,81 715,81 716,81 717,81 718,81 718,81 719,81 720,81 721,81 722,81 723,81 724,81 725,81 725,81 726,81 727,81 728,81 729,81 730,81 731,81 731,81 732,81 733,81 734,81 735,81 736,81 737,81 738,81 738,81 739,81 740,81 741,81 742,81 743,81 744,81 744,81 745,81 746,81 747,81 748,81 749,81 750,81 751,81 751,81 752,81 753,81 754,81 755,81 756,81 757,81 757,81 758,81 759,81 760,81 761,81 762,81 763,81 764,81 764,81 765,81 766,81 767,81 768,81 769,81 770,81 770,81 771,81 772,81 773,81 774,81 775,81 776,81 777,81 777,81 778,81 779,81 780,81 781,81 782,81 783,81 783,81 784,81 785,81 786,81 787,81 788,81 789,81 790,81 790,81 791,81 792,81 793,81 794,81 795,81 796,81 796,81 797,81 798,81 799,81 800,81 801,81 802,81 803,81 803,81 804,81 805,81 806,81 807,81 808,81 809,81 809,81 810,81 811,81 812,81 813,81 814,81 815,81 816,81 816,81 817,81 818,81 819,81 820,81 821,81 822,81 822,81 823,81 824,81 825,81 826,81 827,81 828,81 829,81 829,81 830,81 831,81 832,81 833,81 834,81 835,81 835,81 836,81 837,81 838,81 839,81 840,81 841,81 841,81 842,81 843,81 844,81 845,81 846,81 847,81 848,81 848,81 849,81 850,81 851,81 852,81 853,81 854,81 854,81 855,81 856,81 857,81 858,81 859,81 860,81 861,81 861,81 862,81 863,81 864,81 865,81 866,81 867,81 867,81 868,81 869,81 870,81 871,81 872,81 873,81 874,81 874,81 875,81 876,81 877,81 878,81 879,81 880,81 880,81 881,81 882,81 883,81 884,81 885,81 886,81 887,81 887,81 888,81 889,81 890,81 891,81 892,81 893,81 893,81 894,81 895,81 896,81 897,81 898,81 899,81 900,81 900,81 901,81 902,81 903,81 904,81 905,81 906,81 906,81 907,81 908,81 909,81 910,81 911,81 912,81 913,81 913,81 914,81 915,81 916,81 917,81 918,81 919,81 919,81 920,81 921,81 922,81 923,81 924,81 925,81 926,81 926,81 927,81 928,81 929,81 930,81 931,81 932,81 932,81 933,81 934,81 935,81 936,81 937,81 938,81 939,80 939,80 940,80 941,80 942,80 943,80 944,68 945,68 945,68 946,68 947,68 948,68 949,68 950,68 951,68 952,68 952,68 953,68 954,68 955,68 956,68 957,68 958,68 958,68 959,68 960,68 961,68 962,81 963,81 964,81 965,81 965,81 966,81 967,81 968,81 969,81 970,81 971,81 971,81 972,81 973,246 973,699 974,699 "/>
<polygon opacity="1" fill="#E6194B" points="107,698 108,698 108,698 109,698 110,698 111,698 112,698 113,698 114,698 115,698 115,698 116,698 117,698 118,698 119,698 120,698 121,698 121,698 122,698 123,698 124,698 125,698 126,698 127,698 128,698 128,698 129,698 130,698 131,698 132,698 133,698 134,698 134,698 135,698 136,698 137,698 138,698 139,698 140,698 141,698 141,698 142,698 143,698 144,698 145,698 146,698 147,698 147,698 148,698 149,698 150,698 151,698 152,698 153,698 154,698 154,698 155,698 156,698 157,698 158,698 159,698 160,698 160,698 161,698 162,698 163,698 164,698 165,698 166,698 166,698 167,698 168,698 169,698 170,698 171,698 172,698 173,698 173,698 174,698 175,698 176,698 177,698 178,698 179,698 179,698 180,698 181,698 182,698 183,698 184,698 185,698 186,616 186,616 187,616 188,616 189,616 190,616 191,616 192,616 192,616 193,616 194,616 195,616 196,616 197,616 198,616 199,616 199,616 200,616 201,616 202,616 203,616 204,616 205,616 205,616 206,616 207,616 208,616 209,616 210,616 211,616 212,616 212,616 213,616 214,616 215,616 216,616 217,616 218,616 218,616 219,616 220,616 221,616 222,616 223,616 224,616 225,616 225,616 226,616 227,616 228,616 229,616 230,616 231,616 231,616 232,616 233,616 234,616 235,616 236,616 237,616 238,616 238,616 239,616 240,616 241,616 242,616 243,616 244,616 244,616 245,616 246,616 247,616 248,616 249,616 250,616 251,616 251,616 252,616 253,616 254,616 255,616 256,616 257,616 257,616 258,616 259,616 260,616 261,616 262,616 263,616 264,616 264,616 265,616 266,616 267,616 268,616 269,616 270,616 270,616 271,616 272,616 273,616 274,616 275,616 276,616 277,616 277,616 278,616 279,616 280,616 281,616 282,616 283,616 283,616 284,616 285,616 286,616 287,616 288,616 289,616 290,616 290,616 291,616 292,616 293,616 294,616 295,616 296,616 296,616 297,616 298,616 299,616 300,616 301,616 302,616 303,616 303,616 304,616 305,616 306,616 307,616 308,616 309,616 309,616 310,616 311,616 312,616 313,616 314,616 315,616 316,616 316,616 317,616 318,616 319,616 320,616 321,616 322,616 322,616 323,616 324,616 325,616 326,616 327,616 328,616 329,616 329,616 330,616 331,616 332,616 333,616 334,616 335,616 335,616 336,616 337,616 338,616 339,616 340,616 341,616 342,616 342,452 343,452 344,452 345,452 346,452 347,452 348,452 348,452 349,452 350,452 351,452 352,452 353,452 354,452 355,452 355,452 356,452 357,452 358,452 359,452 360,452 361,452 361,452 362,452 363,452 364,452 365,452 366,452 367,452 368,452 368,452 369,452 370,452 371,452 372,452 373,452 374,452 374,452 375,452 376,452 377,452 378,452 379,452 380,452 381,452 381,452 382,452 383,452 384,452 385,452 386,452 387,452 387,452 388,452 389,452 390,452 391,452 392,452 393,452 394,452 394,452 395,452 396,452 397,452 398,452 399,452 400,452 400,452 401,452 402,452 403,452 404,452 405,452 406,452 407,452 407,452 408,452 409,452 410,452 411,452 412,452 413,452 413,452 414,452 415,452 416,452 417,452 418,452 419,452 420,452 420,452 421,452 422,452 423,452 424,452 425,452 426,452 426,452 427,452 428,452 429,411 430,411 431,411 432,411 433,411 433,411 434,411 435,411 436,411 437,411 438,411 439,411 439,411 440,411 441,411 442,411 443,411 444,411 445,411 446,411 446,411 447,411 448,411 449,411 450,411 451,411 452,411 452,411 453,411 454,411 455,411 456,411 457,411 458,411 459,411 459,411 460,411 461,411 462,411 463,411 464,411 465,411 465,411 466,411 467,411 468,411 469,411 470,411 471,411 472,411 472,411 473,411 474,411 475,411 476,411 477,411 478,411 478,411 479,411 480,411 481,411 482,411 483,411 484,411 485,411 485,411 486,411 487,411 488,411 489,411 490,411 491,411 491,411 492,411 493,411 494,411 495,411 496,411 497,411 497,411 498,411 499,411 500,411 501,411 502,411 503,411 504,411 504,411 505,411 506,411 507,411 508,411 509,411 510,411 510,411 511,411 512,411 513,411 514,411 515,411 516,411 517,411 517,411 518,411 519,411 520,411 521,411 522,411 523,411 523,411 524,411 525,411 526,411 527,411 528,411 529,411 530,411 530,411 531,411 532,411 533,411 534,411 535,411 536,411 536,411 537,411 538,411 539,411 540,411 541,411 542,411 543,411 543,411 544,411 545,411 546,411 547,411 548,411 549,411 549,411 550,411 551,411 552,411 553,411 554,411 555,411 556,411 556,411 557,411 558,411 559,411 560,411 561,411 562,411 562,411 563,411 564,411 565,411 566,411 567,411 568,411 569,411 569,411 570,411 571,411 572,411 573,411 574,411 575,411 575,411 576,411 577,411 578,411 579,411 580,411 581,411 582,411 582,411 583,411 584,411 585,411 586,411 587,411 588,411 588,411 589,411 590,411 591,411 592,411 593,411 594,411 595,411 595,411 596,411 597,411 598,411 599,411 600,411 601,411 601,411 602,411 603,411 604,411 605,411 606,411 607,411 608,411 608,411 609,411 610,411 611,411 612,411 613,411 614,411 614,411 615,411 616,411 617,411 618,411 619,411 620,411 621,411 621,411 622,411 623,411 624,411 625,411 626,411 627,411 627,411 628,411 629,411 630,411 631,411 632,411 633,411 634,411 634,411 635,411 636,411 637,411 638,411 639,411 640,411 640,411 641,411 642,411 643,411 644,411 645,411 646,411 647,411 647,411 648,411 649,411 650,411 651,411 652,411 653,411 653,411 654,411 655,411 656,411 657,411 658,411 659,411 660,411 660,411 661,411 662,411 663,411 664,411 665,411 666,411 666,411 667,411 668,411 669,411 670,411 671,411 672,411 673,411 673,411 674,411 675,411 676,411 677,411 678,411 679,411 679,411 680,411 681,411 682,411 683,411 684,411 685,411 686,411 686,411 687,411 688,411 689,411 690,82 691,82 692,82 692,82 693,82 694,82 695,82 696,82 697,82 698,82 699,82 699,82 700,82 701,82 702,82 703,82 704,82 705,82 705,82 706,82 707,82 708,82 709,82 710,82 711,82 712,82 712,82 713,82 714,82 715,82 716,82 717,82 718,82 718,82 719,82 720,82 721,82 722,82 723,82 724,82 725,82 725,82 726,82 727,82 728,82 729,82 730,82 731,82 731,82 732,82 733,82 734,82 735,82 736,82 737,82 738,82 738,82 739,82 740,82 741,82 742,82 743,82 744,82 744,82 745,82 746,82 747,82 748,82 749,82 750,82 751,82 751,82 752,82 753,82 754,82 755,82 756,82 757,82 757,82 758,82 759,82 760,82 761,82 762,82 763,82 764,82 764,82 765,82 766,82 767,82 768,82 769,82 770,82 770,82 771,82 772,82 773,82 774,82 775,82 776,82 777,82 777,82 778,82 779,82 780,82 781,82 782,82 783,82 783,82 784,82 785,82 786,82 787,82 788,82 789,82 790,82 790,82 791,82 792,82 793,82 794,82 795,82 796,82 796,82 797,82 798,82 799,82 800,82 801,82 802,82 803,82 803,82 804,82 805,82 806,82 807,82 808,82 809,82 809,82 810,82 811,82 812,82 813,82 814,82 815,82 816,82 816,82 817,82 818,82 819,82 820,82 821,82 822,82 822,82 823,82 824,82 825,82 826,82 827,82 828,82 829,82 829,82 830,82 831,82 832,82 833,82 834,82 835,82 835,82 836,82 837,82 838,82 839,82 840,82 841,82 841,82 842,82 843,82 844,82 845,82 846,82 847,82 848,82 848,82 849,82 850,82 851,82 852,82 853,82 854,82 854,82 855,82 856,82 857,82 858,82 859,82 860,82 861,82 861,82 862,82 863,82 864,82 865,82 866,82 867,82 867,82 868,82 869,82 870,82 871,82 872,82 873,82 874,82 874,82 875,82 876,82 877,82 878,82 879,82 880,82 880,82 881,82 882,82 883,82 884,82 885,82 886,82 887,82 887,82 888,82 889,82 890,82 891,82 892,82 893,82 893,82 894,82 895,82 896,82 897,82 898,82 899,82 900,82 900,82 901,82 902,82 903,82 904,82 905,82 906,82 906,82 907,82 908,82 909,82 910,82 911,82 912,82 913,82 913,82 914,82 915,82 916,82 917,82 918,82 919,82 919,82 920,82 921,82 922,82 923,82 924,82 925,82 926,82 926,82 927,82 928,82 929,82 930,82 931,82 932,82 932,82 933,82 934,82 935,82 936,82 937,82 938,82 939,81 939,80 940,80 941,80 942,80 943,80 944,68 945,68 945,68 946,68 947,68 948,68 949,68 950,68 951,68 952,68 952,68 953,68 954,68 955,68 956,68 957,68 958,69 958,69 959,69 960,69 961,69 962,82 963,82 964,82 965,82 965,82 966,82 967,82 968,82 969,82 970,82 971,82 971,82 972,82 973,246 973,699 974,699 974,699 107,699 "/>
<polyline fill="none" opacity="1" stroke="#E6194B" stroke-width="1" points="107,698 108,698 108,698 109,698 110,698 111,698 112,698 113,698 114,698 115,698 115,698 116,698 117,698 118,698 119,698 120,698 121,698 121,698 122,698 123,698 124,698 125,698 126,698 127,698 128,698 128,698 129,698 130,698 131,698 132,698 133,698 134,698 134,698 135,698 136,698 137,698 138,698 139,698 140,698 141,698 141,698 142,698 143,698 144,698 145,698 146,698 147,698 147,698 148,698 149,698 150,698 151,698 152,698 153,698 154,698 154,698 155,698 156,698 157,698 158,698 159,698 160,698 160,698 161,698 162,698 163,698 164,698 165,698 166,698 166,698 167,698 168,698 169,698 170,698 171,698 172,698 173,698 173,698 174,698 175,698 176,698 177,698 178,698 179,698 179,698 180,698 181,698 182,698 183,698 184,698 185,698 186,616 186,616 187,616 188,616 189,616 190,616 191,616 192,616 192,616 193,616 194,616 195,616 196,616 197,616 198,616 199,616 199,616 200,616 201,616 202,616 203,616 204,616 205,616 205,616 206,616 207,616 208,616 209,616 210,616 211,616 212,616 212,616 213,616 214,616 215,616 216,616 217,616 218,616 218,616 219,616 220,616 221,616 222,616 223,616 224,616 225,616 225,616 226,616 227,616 228,616 229,616 230,616 231,616 231,616 232,616 233,616 234,616 235,616 236,616 237,616 238,616 238,616 239,616 240,616 241,616 242,616 243,616 244,616 244,616 245,616 246,616 247,616 248,616 249,616 250,616 251,616 251,616 252,616 253,616 254,616 255,616 256,616 257,616 257,616 258,616 259,616 260,616 261,616 262,616 263,616 264,616 264,616 265,616 266,616 267,616 268,616 269,616 270,616 270,616 271,616 272,616 273,616 274,616 275,616 276,616 277,616 277,616 278,616 279,616 280,616 281,616 282,616 283,616 283,616 284,616 285,616 286,616 287,616 288,616 289,616 290,616 290,616 291,616 292,616 293,616 294,616 295,616 296,616 296,616 297,616 298,616 299,616 300,616 301,616 302,616 303,616 303,616 304,616 305,616 306,616 307,616 308,616 309,616 309,616 310,616 311,616 312,616 313,616 314,616 315,616 316,616 316,616 317,616 318,616 319,616 320,616 321,616 322,616 322,616 323,616 324,616 325,616 326,616 327,616 328,616 329,616 329,616 330,616 331,616 332,616 333,616 334,616 335,616 335,616 336,616 337,616 338,616 339,616 340,616 341,616 342,616 342,452 343,452 344,452 345,452 346,452 347,452 348,452 348,452 349,452 350,452 351,452 352,452 353,452 354,452 355,452 355,452 356,452 357,452 358,452 359,452 360,452 361,452 361,452 362,452 363,452 364,452 365,452 366,452 367,452 368,452 368,452 369,452 370,452 371,452 372,452 373,452 374,452 374,452 375,452 376,452 377,452 378,452 379,452 380,452 381,452 381,452 382,452 383,452 384,452 385,452 386,452 387,452 387,452 388,452 389,452 390,452 391,452 392,452 393,452 394,452 394,452 395,452 396,452 397,452 398,452 399,452 400,452 400,452 401,452 402,452 403,452 404,452 405,452 406,452 407,452 407,452 408,452 409,452 410,452 411,452 412,452 413,452 413,452 414,452 415,452 416,452 417,452 418,452 419,452 420,452 420,452 421,452 422,452 423,452 424,452 425,452 426,452 426,452 427,452 428,452 429,411 430,411 431,411 432,411 433,411 433,411 434,411 435,411 436,411 437,411 438,411 439,411 439,411 440,411 441,411 442,411 443,411 444,411 445,411 446,411 446,411 447,411 448,411 449,411 450,411 451,411 452,411 452,411 453,411 454,411 455,411 456,411 457,411 458,411 459,411 459,411 460,411 461,411 462,411 463,411 464,411 465,411 465,411 466,411 467,411 468,411 469,411 470,411 471,411 472,411 472,411 473,411 474,411 475,411 476,411 477,411 478,411 478,411 479,411 480,411 481,411 482,411 483,411 484,411 485,411 485,411 486,411 487,411 488,411 489,411 490,411 491,411 491,411 492,411 493,411 494,411 495,411 496,411 497,411 497,411 498,411 499,411 500,411 501,411 502,411 503,411 504,411 504,411 505,411 506,411 507,411 508,411 509,411 510,411 510,411 511,411 512,411 513,411 514,411 515,411 516,411 517,411 517,411 518,411 519,411 520,411 521,411 522,411 523,411 523,411 524,411 525,411 526,411 527,411 528,411 529,411 530,411 530,411 531,411 532,411 533,411 534,411 535,411 536,411 536,411 537,411 538,411 539,411 540,411 541,411 542,411 543,411 543,411 544,411 545,411 546,411 547,411 548,411 549,411 549,411 550,411 551,411 552,411 553,411 554,411 555,411 556,411 556,411 557,411 558,411 559,411 560,411 561,411 562,411 562,411 563,411 564,411 565,411 566,411 567,411 568,411 569,411 569,411 570,411 571,411 572,411 573,411 574,411 575,411 575,411 576,411 577,411 578,411 579,411 580,411 581,411 582,411 582,411 583,411 584,411 585,411 586,411 587,411 588,411 588,411 589,411 590,411 591,411 592,411 593,411 594,411 595,411 595,411 596,411 597,411 598,411 599,411 600,411 601,411 601,411 602,411 603,411 604,411 605,411 606,411 607,411 608,411 608,411 609,411 610,411 611,411 612,411 613,411 614,411 614,411 615,411 616,411 617,411 618,411 619,411 620,411 621,411 621,411 622,411 623,411 624,411 625,411 626,411 627,411 627,411 628,411 629,411 630,411 631,411 632,411 633,411 634,411 634,411 635,411 636,411 637,411 638,411 639,411 640,411 640,411 641,411 642,411 643,411 644,411 645,411 646,411 647,411 647,411 648,411 649,411 650,411 651,411 652,411 653,411 653,411 654,411 655,411 656,411 657,411 658,411 659,411 660,411 660,411 661,411 662,411 663,411 664,411 665,411 666,411 666,411 667,411 668,411 669,411 670,411 671,411 672,411 673,411 673,411 674,411 675,411 676,411 677,411 678,411 679,411 679,411 680,411 681,411 682,411 683,411 684,411 685,411 686,411 686,411 687,411 688,411 689,411 690,82 691,82 692,82 692,82 693,82 694,82 695,82 696,82 697,82 698,82 699,82 699,82 700,82 701,82 702,82 703,82 704,82 705,82 705,82 706,82 707,82 708,82 709,82 710,82 711,82 712,82 712,82 713,82 714,82 715,82 716,82 717,82 718,82 718,82 719,82 720,82 721,82 722,82 723,82 724,82 725,82 725,82 726,82 727,82 728,82 729,82 730,82 731,82 731,82 732,82 733,82 734,82 735,82 736,82 737,82 738,82 738,82 739,82 740,82 741,82 742,82 743,82 744,82 744,82 745,82 746,82 747,82 748,82 749,82 750,82 751,82 751,82 752,82 753,82 754,82 755,82 756,82 757,82 757,82 758,82 759,82 760,82 761,82 762,82 763,82 764,82 764,82 765,82 766,82 767,82 768,82 769,82 770,82 770,82 771,82 772,82 773,82 774,82 775,82 776,82 777,82 777,82 778,82 779,82 780,82 781,82 782,82 783,82 783,82 784,82 785,82 786,82 787,82 788,82 789,82 790,82 790,82 791,82 792,82 793,82 794,82 795,82 796,82 796,82 797,82 798,82 799,82 800,82 801,82 802,82 803,82 803,82 804,82 805,82 806,82 807,82 808,82 809,82 809,82 810,82 811,82 812,82 813,82 814,82 815,82 816,82 816,82 817,82 818,82 819,82 820,82 821,82 822,82 822,82 823,82 824,82 825,82 826,82 827,82 828,82 829,82 829,82 830,82 831,82 832,82 833,82 834,82 835,82 835,82 836,82 837,82 838,82 839,82 840,82 841,82 841,82 842,82 843,82 844,82 845,82 846,82 847,82 848,82 848,82 849,82 850,82 851,82 852,82 853,82 854,82 854,82 855,82 856,82 857,82 858,82 859,82 860,82 861,82 861,82 862,82 863,82 864,82 865,82 866,82 867,82 867,82 868,82 869,82 870,82 871,82 872,82 873,82 874,82 874,82 875,82 876,82 877,82 878,82 879,82 880,82 880,82 881,82 882,82 883,82 884,82 885,82 886,82 887,82 887,82 888,82 889,82 890,82 891,82 892,82 893,82 893,82 894,82 895,82 896,82 897,82 898,82 899,82 900,82 900,82 901,82 902,82 903,82 904,82 905,82 906,82 906,82 907,82 908,82 909,82 910,82 911,82 912,82 913,82 913,82 914,82 915,82 916,82 917,82 918,82 919,82 919,82 920,82 921,82 922,82 923,82 924,82 925,82 926,82 926,82 927,82 928,82 929,82 930,82 931,82 932,82 932,82 933,82 934,82 935,82 936,82 937,82 938,82 939,81 939,80 940,80 941,80 942,80 943,80 944,68 945,68 945,68 946,68 947,68 948,68 949,68 950,68 951,68 952,68 952,68 953,68 954,68 955,68 956,68 957,68 958,69 958,69 959,69 960,69 961,69 962,82 963,82 964,82 965,82 965,82 966,82 967,82 968,82 969,82 970,82 971,82 971,82 972,82 973,246 973,699 974,699 "/>
<line opacity="0.1" stroke="#000000" stroke-width="1" x1="85" y1="699" x2="85" y2="67"/>
<line opacity="0.1" stroke="#000000" stroke-width="1" x1="103" y1="699" x2="103" y2="67"/>
<line opacity="0.1" stroke="#000000" stroke-width="1" x1="121" y1="699" x2="121" y2="67"/>
<line opacity="0.1" stroke="#000000" stroke-width="1" x1="139" y1="699" x2="139" y2="67"/>
<line opacity="0.1" stroke="#000000" stroke-width="1" x1="157" y1="699" x2="157" y2="67"/>
<line opacity="0.1" stroke="#000000" stroke-width="1" x1="174" y1="699" x2="174" y2="67"/>
<line opacity="0.1" stroke="#000000" stroke-width="1" x1="192" y1="699" x2="192" y2="67"/>
<line opacity="0.1" stroke="#000000" stroke-width="1" x1="210" y1="699" x2="210" y2="67"/>
<line opacity="0.1" stroke="#000000" stroke-width="1" x1="228" y1="699" x2="228" y2="67"/>
<line opacity="0.1" stroke="#000000" stroke-width="1" x1="246" y1="699" x2="246" y2="67"/>
<line opacity="0.1" stroke="#000000" stroke-width="1" x1="264" y1="699" x2="264" y2="67"/>
<line opacity="0.1" stroke="#000000" stroke-width="1" x1="282" y1="699" x2="282" y2="67"/>
<line opacity="0.1" stroke="#000000" stroke-width="1" x1="300" y1="699" x2="300" y2="67"/>
<line opacity="0.1" stroke="#000000" stroke-width="1" x1="318" y1="699" x2="318" y2="67"/>
<line opacity="0.1" stroke="#000000" stroke-width="1" x1="336" y1="699" x2="336" y2="67"/>
<line opacity="0.1" stroke="#000000" stroke-width="1" x1="354" y1="699" x2="354" y2="67"/>
<line opacity="0.1" stroke="#000000" stroke-width="1" x1="372" y1="699" x2="372" y2="67"/>
<line opacity="0.1" stroke="#000000" stroke-width="1" x1="389" y1="699" x2="389" y2="67"/>
<line opacity="0.1" stroke="#000000" stroke-width="1" x1="407" y1="699" x2="407" y2="67"/>
<line opacity="0.1" stroke="#000000" stroke-width="1" x1="425" y1="699" x2="425" y2="67"/>
<line opacity="0.1" stroke="#000000" stroke-width="1" x1="443" y1="699" x2="443" y2="67"/>
<line opacity="0.1" stroke="#000000" stroke-width="1" x1="461" y1="699" x2="461" y2="67"/>
<line opacity="0.1" stroke="#000000" stroke-width="1" x1="479" y1="699" x2="479" y2="67"/>
<line opacity="0.1" stroke="#000000" stroke-width="1" x1="497" y1="699" x2="497" y2="67"/>
<line opacity="0.1" stroke="#000000" stroke-width="1" x1="515" y1="699" x2="515" y2="67"/>
<line opacity="0.1" stroke="#000000" stroke-width="1" x1="533" y1="699" x2="533" y2="67"/>
<line opacity="0.1" stroke="#000000" stroke-width="1" x1="551" y1="699" x2="551" y2="67"/>
<line opacity="0.1" stroke="#000000" stroke-width="1" x1="569" y1="699" x2="569" y2="67"/>
<line opacity="0.1" stroke="#000000" stroke-width="1" x1="587" y1="699" x2="587" y2="67"/>
<line opacity="0.1" stroke="#000000" stroke-width="1" x1="604" y1="699" x2="604" y2="67"/>
<line opacity="0.1" stroke="#000000" stroke-width="1" x1="622" y1="699" x2="622" y2="67"/>
<line opacity="0.1" stroke="#000000" stroke-width="1" x1="640" y1="699" x2="640" y2="67"/>
<line opacity="0.1" stroke="#000000" stroke-width="1" x1="658" y1="699" x2="658" y2="67"/>
<line opacity="0.1" stroke="#000000" stroke-width="1" x1="676" y1="699" x2="676" y2="67"/>
<line opacity="0.1" stroke="#000000" stroke-width="1" x1="694" y1="699" x2="694" y2="67"/>
<line opacity="0.1" stroke="#000000" stroke-width="1" x1="712" y1="699" x2="712" y2="67"/>
<line opacity="0.1" stroke="#000000" stroke-width="1" x1="730" y1="699" x2="730" y2="67"/>
<line opacity="0.1" stroke="#000000" stroke-width="1" x1="748" y1="699" x2="748" y2="67"/>
<line opacity="0.1" stroke="#000000" stroke-width="1" x1="766" y1="699" x2="766" y2="67"/>
<line opacity="0.1" stroke="#000000" stroke-width="1" x1="784" y1="699" x2="784" y2="67"/>
<line opacity="0.1" stroke="#000000" stroke-width="1" x1="802" y1="699" x2="802" y2="67"/>
<line opacity="0.1" stroke="#000000" stroke-width="1" x1="819" y1="699" x2="819" y2="67"/>
<line opacity="0.1" stroke="#000000" stroke-width="1" x1="837" y1="699" x2="837" y2="67"/>
<line opacity="0.1" stroke="#000000" stroke-width="1" x1="855" y1="699" x2="855" y2="67"/>
<line opacity="0.1" stroke="#000000" stroke-width="1" x1="873" y1="699" x2="873" y2="67"/>
<line opacity="0.1" stroke="#000000" stroke-width="1" x1="891" y1="699" x2="891" y2="67"/>
<line opacity="0.1" stroke="#000000" stroke-width="1" x1="909" y1="699" x2="909" y2="67"/>
<line opacity="0.1" stroke="#000000" stroke-width="1" x1="927" y1="699" x2="927" y2="67"/>
<line opacity="0.1" stroke="#000000" stroke-width="1" x1="945" y1="699" x2="945" y2="67"/>
<line opacity="0.1" stroke="#000000" stroke-width="1" x1="963" y1="699" x2="963" y2="67"/>
<line opacity="0.1" stroke="#000000" stroke-width="1" x1="78" y1="699" x2="974" y2="699"/>
<line opacity="0.1" stroke="#000000" stroke-width="1" x1="78" y1="692" x2="974" y2="692"/>
<line opacity="0.1" stroke="#000000" stroke-width="1" x1="78" y1="685" x2="974" y2="685"/>
<line opacity="0.1" stroke="#000000" stroke-width="1" x1="78" y1="678" x2="974" y2="678"/>
<line opacity="0.1" stroke="#000000" stroke-width="1" x1="78" y1="672" x2="974" y2="672"/>
<line opacity="0.1" stroke="#000000" stroke-width="1" x1="78" y1="665" x2="974" y2="665"/>
<line opacity="0.1" stroke="#000000" stroke-width="1" x1="78" y1="658" x2="974" y2="658"/>
<line opacity="0.1" stroke="#000000" stroke-width="1" x1="78" y1="652" x2="974" y2="652"/>
<line opacity="0.1" stroke="#000000" stroke-width="1" x1="78" y1="645" x2="974" y2="645"/>
<line opacity="0.1" stroke="#000000" stroke-width="1" x1="78" y1="638" x2="974" y2="638"/>
<line opacity="0.1" stroke="#000000" stroke-width="1" x1="78" y1="632" x2="974" y2="632"/>
<line opacity="0.1" stroke="#000000" stroke-width="1" x1="78" y1="625" x2="974" y2="625"/>
<line opacity="0.1" stroke="#000000" stroke-width="1" x1="78" y1="618" x2="974" y2="618"/>
<line opacity="0.1" stroke="#000000" stroke-width="1" x1="78" y1="612" x2="974" y2="612"/>
<line opacity="0.1" stroke="#000000" stroke-width="1" x1="78" y1="605" x2="974" y2="605"/>
<line opacity="0.1" stroke="#000000" stroke-width="1" x1="78" y1="598" x2="974" y2="598"/>
<line opacity="0.1" stroke="#000000" stroke-width="1" x1="78" y1="591" x2="974" y2="591"/>
<line opacity="0.1" stroke="#000000" stroke-width="1" x1="78" y1="585" x2="974" y2="585"/>
<line opacity="0.1" stroke="#000000" stroke-width="1" x1="78" y1="578" x2="974" y2="578"/>
<line opacity="0.1" stroke="#000000" stroke-width="1" x1="78" y1="571" x2="974" y2="571"/>
<line opacity="0.1" stroke="#000000" stroke-width="1" x1="78" y1="565" x2="974" y2="565"/>
<line opacity="0.1" stroke="#000000" stroke-width="1" x1="78" y1="558" x2="974" y2="558"/>
<line opacity="0.1" stroke="#000000" stroke-width="1" x1="78" y1="551" x2="974" y2="551"/>
<line opacity="0.1" stroke="#000000" stroke-width="1" x1="78" y1="545" x2="974" y2="545"/>
<line opacity="0.1" stroke="#000000" stroke-width="1" x1="78" y1="538" x2="974" y2="538"/>
<line opacity="0.1" stroke="#000000" stroke-width="1" x1="78" y1="531" x2="974" y2="531"/>
<line opacity="0.1" stroke="#000000" stroke-width="1" x1="78" y1="525" x2="974" y2="525"/>
<line opacity="0.1" stroke="#000000" stroke-width="1" x1="78" y1="518" x2="974" y2="518"/>
<line opacity="0.1" stroke="#000000" stroke-width="1" x1="78" y1="511" x2="974" y2="511"/>
<line opacity="0.1" stroke="#000000" stroke-width="1" x1="78" y1="505" x2="974" y2="505"/>
<line opacity="0.1" stroke="#000000" stroke-width="1" x1="78" y1="498" x2="974" y2="498"/>
<line opacity="0.1" stroke="#000000" stroke-width="1" x1="78" y1="491" x2="974" y2="491"/>
<line opacity="0.1" stroke="#000000" stroke-width="1" x1="78" y1="484" x2="974" y2="484"/>
<line opacity="0.1" stroke="#000000" stroke-width="1" x1="78" y1="478" x2="974" y2="478"/>
<line opacity="0.1" stroke="#000000" stroke-width="1" x1="78" y1="471" x2="974" y2="471"/>
<line opacity="0.1" stroke="#000000" stroke-width="1" x1="78" y1="464" x2="974" y2="464"/>
<line opacity="0.1" stroke="#000000" stroke-width="1" x1="78" y1="458" x2="974" y2="458"/>
<line opacity="0.1" stroke="#000000" stroke-width="1" x1="78" y1="451" x2="974" y2="451"/>
<line opacity="0.1" stroke="#000000" stroke-width="1" x1="78" y1="444" x2="974" y2="444"/>
<line opacity="0.1" stroke="#000000" stroke-width="1" x1="78" y1="438" x2="974" y2="438"/>
<line opacity="0.1" stroke="#000000" stroke-width="1" x1="78" y1="431" x2="974" y2="431"/>
<line opacity="0.1" stroke="#000000" stroke-width="1" x1="78" y1="424" x2="974" y2="424"/>
<line opacity="0.1" stroke="#000000" stroke-width="1" x1="78" y1="418" x2="974" y2="418"/>
<line opacity="0.1" stroke="#000000" stroke-width="1" x1="78" y1="411" x2="974" y2="411"/>
<line opacity="0.1" stroke="#000000" stroke-width="1" x1="78" y1="404" x2="974" y2="404"/>
<line opacity="0.1" stroke="#000000" stroke-width="1" x1="78" y1="397" x2="974" y2="397"/>
<line opacity="0.1" stroke="#000000" stroke-width="1" x1="78" y1="391" x2="974" y2="391"/>
<line opacity="0.1" stroke="#000000" stroke-width="1" x1="78" y1="384" x2="974" y2="384"/>
<line opacity="0.1" stroke="#000000" stroke-width="1" x1="78" y1="377" x2="974" y2="377"/>
<line opacity="0.1" stroke="#000000" stroke-width="1" x1="78" y1="371" x2="974" y2="371"/>
<line opacity="0.1" stroke="#000000" stroke-width="1" x1="78" y1="364" x2="974" y2="364"/>
<line opacity="0.1" stroke="#000000" stroke-width="1" x1="78" y1="357" x2="974" y2="357"/>
<line opacity="0.1" stroke="#000000" stroke-width="1" x1="78" y1="351" x2="974" y2="351"/>
<line opacity="0.1" stroke="#000000" stroke-width="1" x1="78" y1="344" x2="974" y2="344"/>
<line opacity="0.1" stroke="#000000" stroke-width="1" x1="78" y1="337" x2="974" y2="337"/>
<line opacity="0.1" stroke="#000000" stroke-width="1" x1="78" y1="331" x2="974" y2="331"/>
<line opacity="0.1" stroke="#000000" stroke-width="1" x1="78" y1="324" x2="974" y2="324"/>
<line opacity="0.1" stroke="#000000" stroke-width="1" x1="78" y1="317" x2="974" y2="317"/>
<line opacity="0.1" stroke="#000000" stroke-width="1" x1="78" y1="311" x2="974" y2="311"/>
<line opacity="0.1" stroke="#000000" stroke-width="1" x1="78" y1="304" x2="974" y2="304"/>
<line opacity="0.1" stroke="#000000" stroke-width="1" x1="78" y1="297" x2="974" y2="297"/>
<line opacity="0.1" stroke="#000000" stroke-width="1" x1="78" y1="290" x2="974" y2="290"/>
<line opacity="0.1" stroke="#000000" stroke-width="1" x1="78" y1="284" x2="974" y2="284"/>
<line opacity="0.1" stroke="#000000" stroke-width="1" x1="78" y1="277" x2="974" y2="277"/>
<line opacity="0.1" stroke="#000000" stroke-width="1" x1="78" y1="270" x2="974" y2="270"/>
<line opacity="0.1" stroke="#000000" stroke-width="1" x1="78" y1="264" x2="974" y2="264"/>
<line opacity="0.1" stroke="#000000" stroke-width="1" x1="78" y1="257" x2="974" y2="257"/>
<line opacity="0.1" stroke="#000000" stroke-width="1" x1="78" y1="250" x2="974" y2="250"/>
<line opacity="0.1" stroke="#000000" stroke-width="1" x1="78" y1="244" x2="974" y2="244"/>
<line opacity="0.1" stroke="#000000" stroke-width="1" x1="78" y1="237" x2="974" y2="237"/>
<line opacity="0.1" stroke="#000000" stroke-width="1" x1="78" y1="230" x2="974" y2="230"/>
<line opacity="0.1" stroke="#000000" stroke-width="1" x1="78" y1="224" x2="974" y2="224"/>
<line opacity="0.1" stroke="#000000" stroke-width="1" x1="78" y1="217" x2="974" y2="217"/>
<line opacity="0.1" stroke="#000000" stroke-width="1" x1="78" y1="210" x2="974" y2="210"/>
<line opacity="0.1" stroke="#000000" stroke-width="1" x1="78" y1="204" x2="974" y2="204"/>
<line opacity="0.1" stroke="#000000" stroke-width="1" x1="78" y1="197" x2="974" y2="197"/>
<line opacity="0.1" stroke="#000000" stroke-width="1" x1="78" y1="190" x2="974" y2="190"/>
<line opacity="0.1" stroke="#000000" stroke-width="1" x1="78" y1="183" x2="974" y2="183"/>
<line opacity="0.1" stroke="#000000" stroke-width="1" x1="78" y1="177" x2="974" y2="177"/>
<line opacity="0.1" stroke="#000000" stroke-width="1" x1="78" y1="170" x2="974" y2="170"/>
<line opacity="0.1" stroke="#000000" stroke-width="1" x1="78" y1="163" x2="974" y2="163"/>
<line opacity="0.1" stroke="#000000" stroke-width="1" x1="78" y1="157" x2="974" y2="157"/>
<line opacity="0.1" stroke="#000000" stroke-width="1" x1="78" y1="150" x2="974" y2="150"/>
<line opacity="0.1" stroke="#000000" stroke-width="1" x1="78" y1="143" x2="974" y2="143"/>
<line opacity="0.1" stroke="#000000" stroke-width="1" x1="78" y1="137" x2="974" y2="137"/>
<line opacity="0.1" stroke="#000000" stroke-width="1" x1="78" y1="130" x2="974" y2="130"/>
<line opacity="0.1" stroke="#000000" stroke-width="1" x1="78" y1="123" x2="974" y2="123"/>
<line opacity="0.1" stroke="#000000" stroke-width="1" x1="78" y1="117" x2="974" y2="117"/>
<line opacity="0.1" stroke="#000000" stroke-width="1" x1="78" y1="110" x2="974" y2="110"/>
<line opacity="0.1" stroke="#000000" stroke-width="1" x1="78" y1="103" x2="974" y2="103"/>
<line opacity="0.1" stroke="#000000" stroke-width="1" x1="78" y1="96" x2="974" y2="96"/>
<line opacity="0.1" stroke="#000000" stroke-width="1" x1="78" y1="90" x2="974" y2="90"/>
<line opacity="0.1" stroke="#000000" stroke-width="1" x1="78" y1="83" x2="974" y2="83"/>
<line opacity="0.1" stroke="#000000" stroke-width="1" x1="78" y1="76" x2="974" y2="76"/>
<line opacity="0.1" stroke="#000000" stroke-width="1" x1="78" y1="70" x2="974" y2="70"/>
<text x="8" y="384" dy="0.76em" text-anchor="middle" font-family="sans-serif" font-size="9.67741935483871" opacity="1" fill="#000000" transform="rotate(270, 8, 384)">
Memory usage
</text>
<text x="526" y="760" dy="-0.5ex" text-anchor="middle" font-family="sans-serif" font-size="9.67741935483871" opacity="1" fill="#000000">
Time
</text>
<line opacity="0.2" stroke="#000000" stroke-width="1" x1="192" y1="699" x2="192" y2="67"/>
<line opacity="0.2" stroke="#000000" stroke-width="1" x1="372" y1="699" x2="372" y2="67"/>
<line opacity="0.2" stroke="#000000" stroke-width="1" x1="551" y1="699" x2="551" y2="67"/>
<line opacity="0.2" stroke="#000000" stroke-width="1" x1="730" y1="699" x2="730" y2="67"/>
<line opacity="0.2" stroke="#000000" stroke-width="1" x1="909" y1="699" x2="909" y2="67"/>
<line opacity="0.2" stroke="#000000" stroke-width="1" x1="78" y1="699" x2="974" y2="699"/>
<line opacity="0.2" stroke="#000000" stroke-width="1" x1="78" y1="632" x2="974" y2="632"/>
<line opacity="0.2" stroke="#000000" stroke-width="1" x1="78" y1="565" x2="974" y2="565"/>
<line opacity="0.2" stroke="#000000" stroke-width="1" x1="78" y1="498" x2="974" y2="498"/>
<line opacity="0.2" stroke="#000000" stroke-width="1" x1="78" y1="431" x2="974" y2="431"/>
<line opacity="0.2" stroke="#000000" stroke-width="1" x1="78" y1="364" x2="974" y2="364"/>
<line opacity="0.2" stroke="#000000" stroke-width="1" x1="78" y1="297" x2="974" y2="297"/>
<line opacity="0.2" stroke="#000000" stroke-width="1" x1="78" y1="230" x2="974" y2="230"/>
<line opacity="0.2" stroke="#000000" stroke-width="1" x1="78" y1="163" x2="974" y2="163"/>
<line opacity="0.2" stroke="#000000" stroke-width="1" x1="78" y1="96" x2="974" y2="96"/>
<polyline fill="none" opacity="1" stroke="#000000" stroke-width="1" points="77,68 77,700 "/>
<text x="68" y="699" dy="0.5ex" text-anchor="end" font-family="sans-serif" font-size="9.67741935483871" opacity="1" fill="#000000">
0.0 KB
</text>
<polyline fill="none" opacity="1" stroke="#000000" stroke-width="1" points="72,699 77,699 "/>
<text x="68" y="632" dy="0.5ex" text-anchor="end" font-family="sans-serif" font-size="9.67741935483871" opacity="1" fill="#000000">
9.8 KB
</text>
<polyline fill="none" opacity="1" stroke="#000000" stroke-width="1" points="72,632 77,632 "/>
<text x="68" y="565" dy="0.5ex" text-anchor="end" font-family="sans-serif" font-size="9.67741935483871" opacity="1" fill="#000000">
19.5 KB
</text>
<polyline fill="none" opacity="1" stroke="#000000" stroke-width="1" points="72,565 77,565 "/>
<text x="68" y="498" dy="0.5ex" text-anchor="end" font-family="sans-serif" font-size="9.67741935483871" opacity="1" fill="#000000">
29.3 KB
</text>
<polyline fill="none" opacity="1" stroke="#000000" stroke-width="1" points="72,498 77,498 "/>
<text x="68" y="431" dy="0.5ex" text-anchor="end" font-family="sans-serif" font-size="9.67741935483871" opacity="1" fill="#000000">
39.1 KB
</text>
<polyline fill="none" opacity="1" stroke="#000000" stroke-width="1" points="72,431 77,431 "/>
<text x="68" y="364" dy="0.5ex" text-anchor="end" font-family="sans-serif" font-size="9.67741935483871" opacity="1" fill="#000000">
48.8 KB
</text>
<polyline fill="none" opacity="1" stroke="#000000" stroke-width="1" points="72,364 77,364 "/>
<text x="68" y="297" dy="0.5ex" text-anchor="end" font-family="sans-serif" font-size="9.67741935483871" opacity="1" fill="#000000">
58.6 KB
</text>
<polyline fill="none" opacity="1" stroke="#000000" stroke-width="1" points="72,297 77,297 "/>
<text x="68" y="230" dy="0.5ex" text-anchor="end" font-family="sans-serif" font-size="9.67741935483871" opacity="1" fill="#000000">
68.4 KB
</text>
<polyline fill="none" opacity="1" stroke="#000000" stroke-width="1" points="72,230 77,230 "/>
<text x="68" y="163" dy="0.5ex" text-anchor="end" font-family="sans-serif" font-size="9.67741935483871" opacity="1" fill="#000000">
78.1 KB
</text>
<polyline fill="none" opacity="1" stroke="#000000" stroke-width="1" points="72,163 77,163 "/>
<text x="68" y="96" dy="0.5ex" text-anchor="end" font-family="sans-serif" font-size="9.67741935483871" opacity="1" fill="#000000">
87.9 KB
</text>
<polyline fill="none" opacity="1" stroke="#000000" stroke-width="1" points="72,96 77,96 "/>
<polyline fill="none" opacity="1" stroke="#000000" stroke-width="1" points="78,700 974,700 "/>
<text x="192" y="710" dy="0.76em" text-anchor="middle" font-family="sans-serif" font-size="9.67741935483871" opacity="1" fill="#000000">
06:26:08
</text>
<polyline fill="none" opacity="1" stroke="#000000" stroke-width="1" points="192,700 192,705 "/>
<text x="372" y="710" dy="0.76em" text-anchor="middle" font-family="sans-serif" font-size="9.67741935483871" opacity="1" fill="#000000">
06:26:10
</text>
<polyline fill="none" opacity="1" stroke="#000000" stroke-width="1" points="372,700 372,705 "/>
<text x="551" y="710" dy="0.76em" text-anchor="middle" font-family="sans-serif" font-size="9.67741935483871" opacity="1" fill="#000000">
06:26:12
</text>
<polyline fill="none" opacity="1" stroke="#000000" stroke-width="1" points="551,700 551,705 "/>
<text x="730" y="710" dy="0.76em" text-anchor="middle" font-family="sans-serif" font-size="9.67741935483871" opacity="1" fill="#000000">
06:26:14
</text>
<polyline fill="none" opacity="1" stroke="#000000" stroke-width="1" points="730,700 730,705 "/>
<text x="909" y="710" dy="0.76em" text-anchor="middle" font-family="sans-serif" font-size="9.67741935483871" opacity="1" fill="#000000">
06:26:16
</text>
<polyline fill="none" opacity="1" stroke="#000000" stroke-width="1" points="909,700 909,705 "/>
<polyline fill="none" opacity="1" stroke="#000000" stroke-width="1" points="78,67 974,67 "/>
<text x="192" y="58" dy="-0.5ex" text-anchor="middle" font-family="sans-serif" font-size="9.67741935483871" opacity="1" fill="#000000">
+1s
</text>
<polyline fill="none" opacity="1" stroke="#000000" stroke-width="1" points="192,62 192,67 "/>
<text x="372" y="58" dy="-0.5ex" text-anchor="middle" font-family="sans-serif" font-size="9.67741935483871" opacity="1" fill="#000000">
+3s
</text>
<polyline fill="none" opacity="1" stroke="#000000" stroke-width="1" points="372,62 372,67 "/>
<text x="551" y="58" dy="-0.5ex" text-anchor="middle" font-family="sans-serif" font-size="9.67741935483871" opacity="1" fill="#000000">
+5s
</text>
<polyline fill="none" opacity="1" stroke="#000000" stroke-width="1" points="551,62 551,67 "/>
<text x="730" y="58" dy="-0.5ex" text-anchor="middle" font-family="sans-serif" font-size="9.67741935483871" opacity="1" fill="#000000">
+7s
</text>
<polyline fill="none" opacity="1" stroke="#000000" stroke-width="1" points="730,62 730,67 "/>
<text x="909" y="58" dy="-0.5ex" text-anchor="middle" font-family="sans-serif" font-size="9.67741935483871" opacity="1" fill="#000000">
+9s
</text>
<polyline fill="none" opacity="1" stroke="#000000" stroke-width="1" points="909,62 909,67 "/>
<rect x="83" y="73" width="99" height="45" opacity="0.75" fill="#FFFFFF" stroke="none"/>
<rect x="83" y="73" width="99" height="45" opacity="1" fill="none" stroke="#000000"/>
<text x="123" y="83" dy="0.76em" text-anchor="start" font-family="sans-serif" font-size="9.67741935483871" opacity="1" fill="#000000">
Remaining
</text>
<text x="123" y="98" dy="0.76em" text-anchor="start" font-family="sans-serif" font-size="9.67741935483871" opacity="1" fill="#000000">
Vecs
</text>
<rect x="93" y="83" width="10" height="10" opacity="1" fill="#3CB44B" stroke="none"/>
<rect x="93" y="98" width="10" height="10" opacity="1" fill="#E6194B" stroke="none"/>
</svg>
