<svg width="1024" height="768" viewBox="0 0 1024 768" xmlns="http://www.w3.org/2000/svg">
<rect x="0" y="0" width="1023" height="767" opacity="1" fill="#FFFFFF" stroke="none"/>
<polygon opacity="1" fill="#3CB44B" points="107,646 108,644 108,645 109,653 110,647 111,661 112,670 113,673 114,656 115,652 115,653 116,651 117,651 118,675 119,657 120,663 121,664 121,656 122,640 123,667 124,654 125,661 126,651 127,646 128,621 128,607 129,602 130,608 131,604 132,566 133,588 134,587 134,578 135,580 136,573 137,562 138,557 139,558 140,556 141,554 141,548 142,557 143,561 144,559 145,566 146,543 147,528 147,535 148,530 149,520 150,549 151,574 152,608 153,589 154,571 154,558 155,566 156,555 157,531 158,529 159,532 160,528 160,517 161,524 162,500 163,480 164,480 165,489 166,497 166,469 167,466 168,466 169,457 170,474 171,474 172,459 173,449 173,440 174,456 175,453 176,454 177,457 178,443 179,423 179,432 180,436 181,434 182,468 183,482 184,487 185,495 186,518 186,498 187,494 188,499 189,481 190,497 191,484 192,502 192,540 193,522 194,526 195,539 196,543 197,548 198,567 199,569 199,576 200,569 201,554 202,559 203,553 204,547 205,554 205,547 206,566 207,581 208,604 209,613 210,605 211,618 212,621 212,608 213,606 214,592 215,603 216,570 217,561 218,572 218,577 219,579 220,580 221,613 222,625 223,611 224,626 225,619 225,619 226,608 227,606 228,579 229,577 230,568 231,565 231,554 232,553 233,559 234,558 235,550 236,533 237,508 238,536 238,539 239,524 240,503 241,499 242,465 243,458 244,444 244,439 245,419 246,413 247,412 248,393 249,389 250,386 251,411 251,418 252,420 253,423 254,420 255,410 256,431 257,449 257,446 258,467 259,472 260,474 261,489 262,477 263,478 264,475 264,479 265,479 266,475 267,479 268,471 269,471 270,467 270,468 271,460 272,456 273,479 274,474 275,515 276,527 277,533 277,532 278,527 279,533 280,548 281,543 282,557 283,582 283,568 284,552 285,562 286,586 287,585 288,577 289,571 290,575 290,589 291,588 292,569 293,558 294,543 295,548 296,543 296,549 297,550 298,535 299,559 300,550 301,546 302,553 303,570 303,574 304,584 305,581 306,579 307,576 308,545 309,545 309,557 310,537 311,536 312,526 313,504 314,506 315,536 316,555 316,555 317,557 318,563 319,579 320,572 321,563 322,565 322,557 323,550 324,542 325,540 326,511 327,521 328,551 329,545 329,530 330,523 331,503 332,518 333,519 334,499 335,502 335,473 336,455 337,450 338,439 339,412 340,409 341,404 342,427 342,419 343,384 344,375 345,401 346,421 347,421 348,426 348,452 349,462 350,487 351,475 352,475 353,467 354,448 355,449 355,441 356,441 357,448 358,480 359,481 360,481 361,499 361,493 362,477 363,451 364,453 365,444 366,438 367,438 368,445 368,433 369,436 370,446 371,445 372,454 373,455 374,467 374,482 375,493 376,490 377,467 378,455 379,462 380,456 381,443 381,425 382,403 383,393 384,397 385,395 386,379 387,370 387,351 388,367 389,353 390,350 391,358 392,355 393,380 394,391 394,366 395,367 396,363 397,358 398,345 399,344 400,340 400,345 401,339 402,351 403,356 404,361 405,356 406,343 407,371 407,377 408,375 409,390 410,412 411,418 412,409 413,373 413,353 414,338 415,354 416,367 417,363 418,358 419,353 420,358 420,337 421,322 422,322 423,328 424,317 425,320 426,321 426,315 427,304 428,277 429,278 430,271 431,261 432,260 433,276 433,276 434,273 435,287 436,290 437,289 438,283 439,288 439,296 440,301 441,290 442,271 443,300 444,294 445,267 446,248 446,253 447,253 448,246 449,259 450,265 451,270 452,279 452,282 453,282 454,286 455,290 456,292 457,289 458,277 459,261 459,260 460,286 461,288 462,271 463,287 464,294 465,298 465,249 466,244 467,214 468,205 469,197 470,198 471,211 472,210 472,185 473,172 474,185 475,190 476,162 477,157 478,164 478,186 479,169 480,158 481,130 482,121 483,120 484,110 485,104 485,105 486,106 487,114 488,100 489,105 490,99 491,105 491,111 492,122 493,120 494,116 495,130 496,129 497,154 497,163 498,150 499,153 500,167 501,174 502,149 503,164 504,157 504,149 505,151 506,124 507,115 508,123 509,148 510,153 510,157 511,180 512,174 513,163 514,152 515,150 516,135 517,134 517,129 518,150 519,161 520,163 521,172 522,172 523,171 523,197 524,220 525,235 526,255 527,255 528,251 529,229 530,221 530,223 531,214 532,207 533,205 534,243 535,229 536,222 536,160 537,143 538,162 539,170 540,129 541,136 542,156 543,155 543,155 544,159 545,150 546,159 547,153 548,163 549,184 549,188 550,192 551,186 552,177 553,168 554,173 555,163 556,172 556,162 557,172 558,165 559,148 560,134 561,137 562,134 562,152 563,159 564,166 565,175 566,172 567,197 568,205 569,199 569,223 570,217 571,216 572,223 573,220 574,195 575,198 575,175 576,179 577,165 578,193 579,191 580,196 581,183 582,190 582,182 583,190 584,192 585,194 586,177 587,187 588,156 588,161 589,184 590,184 591,174 592,168 593,176 594,162 595,151 595,147 596,170 597,156 598,171 599,177 600,174 601,176 601,181 602,169 603,155 604,157 605,135 606,90 607,88 608,95 608,98 609,90 610,83 611,90 612,74 613,68 614,68 614,95 615,106 616,91 617,107 618,128 619,142 620,145 621,140 621,162 622,200 623,194 624,178 625,193 626,179 627,164 627,171 628,174 629,134 630,130 631,142 632,150 633,159 634,170 634,201 635,200 636,214 637,205 638,196 639,194 640,214 640,223 641,223 642,227 643,216 644,179 645,177 646,193 647,204 647,183 648,192 649,175 650,163 651,163 652,160 653,155 653,130 654,143 655,121 656,128 657,133 658,159 659,161 660,175 660,201 661,193 662,198 663,206 664,192 665,175 666,146 666,139 667,173 668,183 669,167 670,169 671,147 672,145 673,175 673,184 674,195 675,202 676,191 677,190 678,194 679,199 679,185 680,193 681,203 682,252 683,268 684,260 685,246 686,241 686,259 687,275 688,294 689,296 690,279 691,279 692,280 692,285 693,297 694,295 695,275 696,262 697,262 698,267 699,293 699,298 700,273 701,243 702,239 703,206 704,206 705,219 705,208 706,210 707,212 708,213 709,190 710,190 711,203 712,166 712,158 713,158 714,172 715,157 716,153 717,164 718,175 718,185 719,183 720,184 721,181 722,195 723,191 724,191 725,205 725,208 726,247 727,240 728,249 729,247 730,256 731,233 731,220 732,215 733,229 734,249 735,246 736,205 737,198 738,196 738,206 739,221 740,200 741,207 742,218 743,234 744,247 744,239 745,227 746,228 747,221 748,211 749,210 750,207 751,223 751,243 752,242 753,261 754,267 755,281 756,276 757,287 757,279 758,270 759,235 760,218 761,207 762,210 763,207 764,207 764,224 765,220 766,229 767,258 768,249 769,242 770,241 770,264 771,272 772,281 773,246 774,222 775,225 776,234 777,243 777,242 778,219 779,223 780,219 781,220 782,233 783,224 783,202 784,201 785,207 786,184 787,159 788,148 789,147 790,141 790,126 791,135 792,144 793,157 794,155 795,153 796,169 796,161 797,180 798,162 799,154 800,129 801,114 802,115 803,116 803,125 804,137 805,130 806,131 807,145 808,175 809,204 809,224 810,230 811,238 812,242 813,253 814,250 815,244 816,242 816,248 817,239 818,223 819,232 820,232 821,236 822,226 822,218 823,237 824,226 825,223 826,209 827,220 828,227 829,236 829,253 830,250 831,244 832,232 833,242 834,249 835,250 835,260 836,261 837,252 838,265 839,271 840,261 841,270 841,290 842,284 843,277 844,274 845,257 846,263 847,260 848,254 848,261 849,247 850,274 851,284 852,292 853,281 854,265 854,293 855,288 856,301 857,294 858,280 859,257 860,256 861,275 861,273 862,284 863,296 864,273 865,271 866,273 867,270 867,277 868,294 869,300 870,299 871,311 872,322 873,320 874,329 874,330 875,341 876,307 877,305 878,312 879,326 880,317 880,297 881,285 882,295 883,295 884,302 885,298 886,291 887,292 887,299 888,326 889,331 890,334 891,326 892,315 893,323 893,309 894,307 895,315 896,320 897,307 898,305 899,327 900,338 900,328 901,313 902,296 903,314 904,313 905,296 906,304 906,298 907,292 908,295 909,283 910,283 911,278 912,307 913,289 913,298 914,292 915,288 916,277 917,279 918,285 919,288 919,289 920,285 921,287 922,281 923,284 924,278 925,269 926,258 926,269 927,260 928,273 929,275 930,265 931,270 932,281 932,232 933,222 934,210 935,190 936,174 937,174 938,196 939,205 939,205 940,170 941,152 942,157 943,168 944,179 945,168 945,157 946,200 947,208 948,225 949,227 950,243 951,240 952,244 952,251 953,229 954,224 955,233 956,225 957,215 958,208 958,189 959,183 960,161 961,169 962,159 963,164 964,167 965,167 965,182 966,184 967,186 967,186 968,185 969,184 970,180 971,170 971,170 972,153 973,158 973,329 974,329 974,699 107,699 "/>
<polyline fill="none" opacity="1" stroke="#3CB44B" stroke-width="1" points="107,646 108,644 108,645 109,653 110,647 111,661 112,670 113,673 114,656 115,652 115,653 116,651 117,651 118,675 119,657 120,663 121,664 121,656 122,640 123,667 124,654 125,661 126,651 127,646 128,621 128,607 129,602 130,608 131,604 132,566 133,588 134,587 134,578 135,580 136,573 137,562 138,557 139,558 140,556 141,554 141,548 142,557 143,561 144,559 145,566 146,543 147,528 147,535 148,530 149,520 150,549 151,574 152,608 153,589 154,571 154,558 155,566 156,555 157,531 158,529 159,532 160,528 160,517 161,524 162,500 163,480 164,480 165,489 166,497 166,469 167,466 168,466 169,457 170,474 171,474 172,459 173,449 173,440 174,456 175,453 176,454 177,457 178,443 179,423 179,432 180,436 181,434 182,468 183,482 184,487 185,495 186,518 186,498 187,494 188,499 189,481 190,497 191,484 192,502 192,540 193,522 194,526 195,539 196,543 197,548 198,567 199,569 199,576 200,569 201,554 202,559 203,553 204,547 205,554 205,547 206,566 207,581 208,604 209,613 210,605 211,618 212,621 212,608 213,606 214,592 215,603 216,570 217,561 218,572 218,577 219,579 220,580 221,613 222,625 223,611 224,626 225,619 225,619 226,608 227,606 228,579 229,577 230,568 231,565 231,554 232,553 233,559 234,558 235,550 236,533 237,508 238,536 238,539 239,524 240,503 241,499 242,465 243,458 244,444 244,439 245,419 246,413 247,412 248,393 249,389 250,386 251,411 251,418 252,420 253,423 254,420 255,410 256,431 257,449 257,446 258,467 259,472 260,474 261,489 262,477 263,478 264,475 264,479 265,479 266,475 267,479 268,471 269,471 270,467 270,468 271,460 272,456 273,479 274,474 275,515 276,527 277,533 277,532 278,527 279,533 280,548 281,543 282,557 283,582 283,568 284,552 285,562 286,586 287,585 288,577 289,571 290,575 290,589 291,588 292,569 293,558 294,543 295,548 296,543 296,549 297,550 298,535 299,559 300,550 301,546 302,553 303,570 303,574 304,584 305,581 306,579 307,576 308,545 309,545 309,557 310,537 311,536 312,526 313,504 314,506 315,536 316,555 316,555 317,557 318,563 319,579 320,572 321,563 322,565 322,557 323,550 324,542 325,540 326,511 327,521 328,551 329,545 329,530 330,523 331,503 332,518 333,519 334,499 335,502 335,473 336,455 337,450 338,439 339,412 340,409 341,404 342,427 342,419 343,384 344,375 345,401 346,421 347,421 348,426 348,452 349,462 350,487 351,475 352,475 353,467 354,448 355,449 355,441 356,441 357,448 358,480 359,481 360,481 361,499 361,493 362,477 363,451 364,453 365,444 366,438 367,438 368,445 368,433 369,436 370,446 371,445 372,454 373,455 374,467 374,482 375,493 376,490 377,467 378,455 379,462 380,456 381,443 381,425 382,403 383,393 384,397 385,395 386,379 387,370 387,351 388,367 389,353 390,350 391,358 392,355 393,380 394,391 394,366 395,367 396,363 397,358 398,345 399,344 400,340 400,345 401,339 402,351 403,356 404,361 405,356 406,343 407,371 407,377 408,375 409,390 410,412 411,418 412,409 413,373 413,353 414,338 415,354 416,367 417,363 418,358 419,353 420,358 420,337 421,322 422,322 423,328 424,317 425,320 426,321 426,315 427,304 428,277 429,278 430,271 431,261 432,260 433,276 433,276 434,273 435,287 436,290 437,289 438,283 439,288 439,296 440,301 441,290 442,271 443,300 444,294 445,267 446,248 446,253 447,253 448,246 449,259 450,265 451,270 452,279 452,282 453,282 454,286 455,290 456,292 457,289 458,277 459,261 459,260 460,286 461,288 462,271 463,287 464,294 465,298 465,249 466,244 467,214 468,205 469,197 470,198 471,211 472,210 472,185 473,172 474,185 475,190 476,162 477,157 478,164 478,186 479,169 480,158 481,130 482,121 483,120 484,110 485,104 485,105 486,106 487,114 488,100 489,105 490,99 491,105 491,111 492,122 493,120 494,116 495,130 496,129 497,154 497,163 498,150 499,153 500,167 501,174 502,149 503,164 504,157 504,149 505,151 506,124 507,115 508,123 509,148 510,153 510,157 511,180 512,174 513,163 514,152 515,150 516,135 517,134 517,129 518,150 519,161 520,163 521,172 522,172 523,171 523,197 524,220 525,235 526,255 527,255 528,251 529,229 530,221 530,223 531,214 532,207 533,205 534,243 535,229 536,222 536,160 537,143 538,162 539,170 540,129 541,136 542,156 543,155 543,155 544,159 545,150 546,159 547,153 548,163 549,184 549,188 550,192 551,186 552,177 553,168 554,173 555,163 556,172 556,162 557,172 558,165 559,148 560,134 561,137 562,134 562,152 563,159 564,166 565,175 566,172 567,197 568,205 569,199 569,223 570,217 571,216 572,223 573,220 574,195 575,198 575,175 576,179 577,165 578,193 579,191 580,196 581,183 582,190 582,182 583,190 584,192 585,194 586,177 587,187 588,156 588,161 589,184 590,184 591,174 592,168 593,176 594,162 595,151 595,147 596,170 597,156 598,171 599,177 600,174 601,176 601,181 602,169 603,155 604,157 605,135 606,90 607,88 608,95 608,98 609,90 610,83 611,90 612,74 613,68 614,68 614,95 615,106 616,91 617,107 618,128 619,142 620,145 621,140 621,162 622,200 623,194 624,178 625,193 626,179 627,164 627,171 628,174 629,134 630,130 631,142 632,150 633,159 634,170 634,201 635,200 636,214 637,205 638,196 639,194 640,214 640,223 641,223 642,227 643,216 644,179 645,177 646,193 647,204 647,183 648,192 649,175 650,163 651,163 652,160 653,155 653,130 654,143 655,121 656,128 657,133 658,159 659,161 660,175 660,201 661,193 662,198 663,206 664,192 665,175 666,146 666,139 667,173 668,183 669,167 670,169 671,147 672,145 673,175 673,184 674,195 675,202 676,191 677,190 678,194 679,199 679,185 680,193 681,203 682,252 683,268 684,260 685,246 686,241 686,259 687,275 688,294 689,296 690,279 691,279 692,280 692,285 693,297 694,295 695,275 696,262 697,262 698,267 699,293 699,298 700,273 701,243 702,239 703,206 704,206 705,219 705,208 706,210 707,212 708,213 709,190 710,190 711,203 712,166 712,158 713,158 714,172 715,157 716,153 717,164 718,175 718,185 719,183 720,184 721,181 722,195 723,191 724,191 725,205 725,208 726,247 727,240 728,249 729,247 730,256 731,233 731,220 732,215 733,229 734,249 735,246 736,205 737,198 738,196 738,206 739,221 740,200 741,207 742,218 743,234 744,247 744,239 745,227 746,228 747,221 748,211 749,210 750,207 751,223 751,243 752,242 753,261 754,267 755,281 756,276 757,287 757,279 758,270 759,235 760,218 761,207 762,210 763,207 764,207 764,224 765,220 766,229 767,258 768,249 769,242 770,241 770,264 771,272 772,281 773,246 774,222 775,225 776,234 777,243 777,242 778,219 779,223 780,219 781,220 782,233 783,224 783,202 784,201 785,207 786,184 787,159 788,148 789,147 790,141 790,126 791,135 792,144 793,157 794,155 795,153 796,169 796,161 797,180 798,162 799,154 800,129 801,114 802,115 803,116 803,125 804,137 805,130 806,131 807,145 808,175 809,204 809,224 810,230 811,238 812,242 813,253 814,250 815,244 816,242 816,248 817,239 818,223 819,232 820,232 821,236 822,226 822,218 823,237 824,226 825,223 826,209 827,220 828,227 829,236 829,253 830,250 831,244 832,232 833,242 834,249 835,250 835,260 836,261 837,252 838,265 839,271 840,261 841,270 841,290 842,284 843,277 844,274 845,257 846,263 847,260 848,254 848,261 849,247 850,274 851,284 852,292 853,281 854,265 854,293 855,288 856,301 857,294 858,280 859,257 860,256 861,275 861,273 862,284 863,296 864,273 865,271 866,273 867,270 867,277 868,294 869,300 870,299 871,311 872,322 873,320 874,329 874,330 875,341 876,307 877,305 878,312 879,326 880,317 880,297 881,285 882,295 883,295 884,302 885,298 886,291 887,292 887,299 888,326 889,331 890,334 891,326 892,315 893,323 893,309 894,307 895,315 896,320 897,307 898,305 899,327 900,338 900,328 901,313 902,296 903,314 904,313 905,296 906,304 906,298 907,292 908,295 909,283 910,283 911,278 912,307 913,289 913,298 914,292 915,288 916,277 917,279 918,285 919,288 919,289 920,285 921,287 922,281 923,284 924,278 925,269 926,258 926,269 927,260 928,273 929,275 930,265 931,270 932,281 932,232 933,222 934,210 935,190 936,174 937,174 938,196 939,205 939,205 940,170 941,152 942,157 943,168 944,179 945,168 945,157 946,200 947,208 948,225 949,227 950,243 951,240 952,244 952,251 953,229 954,224 955,233 956,225 957,215 958,208 958,189 959,183 960,161 961,169 962,159 963,164 964,167 965,167 965,182 966,184 967,186 967,186 968,185 969,184 970,180 971,170 971,170 972,153 973,158 973,329 974,329 "/>
<polygon opacity="1" fill="#E6194B" points="107,693 108,693 108,693 109,692 110,692 111,692 112,692 113,692 114,692 115,692 115,692 116,690 117,687 118,685 119,683 120,683 121,683 121,683 122,683 123,683 124,683 125,683 126,683 127,683 128,683 128,679 129,679 130,679 131,679 132,679 133,679 134,678 134,678 135,678 136,678 137,678 138,677 139,677 140,676 141,676 141,676 142,676 143,676 144,676 145,676 146,676 147,669 147,669 148,669 149,669 150,669 151,669 152,669 153,665 154,665 154,659 155,659 156,659 157,659 158,659 159,659 160,658 160,658 161,658 162,658 163,654 164,654 165,654 166,654 166,652 167,652 168,652 169,652 170,652 171,652 172,652 173,652 173,652 174,649 175,649 176,649 177,649 178,649 179,649 179,649 180,649 181,649 182,649 183,649 184,649 185,649 186,649 186,649 187,649 188,649 189,649 190,649 191,649 192,649 192,649 193,646 194,646 195,646 196,646 197,646 198,646 199,646 199,646 200,646 201,646 202,646 203,646 204,646 205,646 205,646 206,646 207,646 208,646 209,646 210,646 211,640 212,640 212,640 213,640 214,640 215,640 216,640 217,640 218,640 218,640 219,640 220,640 221,640 222,640 223,640 224,640 225,640 225,640 226,637 227,633 228,633 229,633 230,633 231,633 231,633 232,631 233,631 234,631 235,628 236,628 237,628 238,628 238,628 239,625 240,625 241,625 242,625 243,625 244,625 244,625 245,625 246,625 247,625 248,625 249,625 250,625 251,624 251,624 252,624 253,624 254,624 255,622 256,622 257,622 257,618 258,618 259,618 260,618 261,618 262,618 263,612 264,612 264,612 265,612 266,612 267,612 268,608 269,608 270,608 270,608 271,608 272,607 273,607 274,603 275,603 276,603 277,603 277,603 278,603 279,603 280,603 281,603 282,603 283,603 283,603 284,603 285,603 286,603 287,603 288,603 289,603 290,603 290,603 291,603 292,603 293,603 294,603 295,603 296,600 296,600 297,600 298,600 299,600 300,600 301,600 302,600 303,600 303,600 304,600 305,600 306,600 307,600 308,600 309,600 309,596 310,596 311,596 312,596 313,595 314,595 315,595 316,595 316,595 317,595 318,595 319,595 320,595 321,595 322,590 322,590 323,590 324,590 325,590 326,589 327,589 328,589 329,586 329,586 330,586 331,586 332,586 333,584 334,582 335,582 335,582 336,582 337,581 338,581 339,581 340,581 341,581 342,581 342,581 343,581 344,581 345,581 346,581 347,581 348,577 348,577 349,577 350,577 351,577 352,576 353,576 354,576 355,576 355,575 356,575 357,575 358,575 359,574 360,571 361,568 361,568 362,568 363,568 364,568 365,568 366,568 367,568 368,568 368,568 369,568 370,568 371,568 372,568 373,568 374,568 374,568 375,566 376,562 377,561 378,561 379,561 380,558 381,558 381,558 382,558 383,558 384,558 385,558 386,554 387,554 387,554 388,554 389,550 390,550 391,550 392,550 393,550 394,550 394,550 395,550 396,550 397,547 398,547 399,543 400,543 400,543 401,541 402,541 403,541 404,541 405,541 406,541 407,541 407,541 408,541 409,541 410,541 411,541 412,541 413,541 413,541 414,541 415,539 416,539 417,539 418,539 419,539 420,538 420,538 421,538 422,538 423,538 424,538 425,538 426,538 426,538 427,538 428,538 429,538 430,538 431,538 432,538 433,538 433,538 434,538 435,538 436,538 437,538 438,538 439,538 439,538 440,538 441,538 442,538 443,538 444,536 445,536 446,536 446,536 447,536 448,536 449,532 450,532 451,532 452,529 452,529 453,529 454,527 455,527 456,527 457,527 458,527 459,527 459,527 460,527 461,527 462,527 463,525 464,524 465,524 465,524 466,524 467,524 468,524 469,520 470,520 471,519 472,519 472,519 473,519 474,519 475,519 476,519 477,519 478,519 478,519 479,519 480,519 481,519 482,519 483,519 484,519 485,519 485,519 486,519 487,519 488,519 489,519 490,519 491,519 491,516 492,516 493,516 494,516 495,516 496,516 497,516 497,513 498,510 499,507 500,505 501,505 502,505 503,505 504,502 504,502 505,502 506,501 507,501 508,501 509,501 510,501 510,501 511,501 512,501 513,501 514,501 515,501 516,497 517,497 517,497 518,497 519,497 520,497 521,497 522,497 523,497 523,497 524,497 525,495 526,495 527,495 528,495 529,495 530,495 530,495 531,491 532,491 533,491 534,491 535,491 536,491 536,491 537,491 538,491 539,491 540,491 541,491 542,491 543,491 543,491 544,491 545,488 546,488 547,488 548,488 549,488 549,488 550,488 551,488 552,488 553,488 554,488 555,488 556,488 556,488 557,488 558,488 559,485 560,485 561,484 562,484 562,483 563,483 564,483 565,483 566,483 567,483 568,483 569,483 569,483 570,483 571,480 572,480 573,480 574,480 575,480 575,480 576,480 577,478 578,478 579,478 580,478 581,478 582,475 582,475 583,475 584,475 585,475 586,473 587,473 588,473 588,473 589,473 590,473 591,469 592,469 593,469 594,469 595,469 595,469 596,469 597,469 598,469 599,467 600,467 601,467 601,467 602,467 603,467 604,467 605,467 606,467 607,467 608,467 608,467 609,467 610,465 611,465 612,465 613,465 614,465 614,465 615,465 616,462 617,462 618,460 619,460 620,458 621,458 621,458 622,458 623,458 624,458 625,456 626,456 627,456 627,456 628,456 629,456 630,456 631,456 632,456 633,456 634,456 634,456 635,456 636,456 637,456 638,456 639,456 640,456 640,456 641,456 642,456 643,456 644,453 645,453 646,453 647,453 647,453 648,452 649,452 650,452 651,452 652,452 653,452 653,452 654,452 655,451 656,451 657,451 658,451 659,451 660,451 660,451 661,451 662,451 663,451 664,451 665,451 666,451 666,451 667,451 668,451 669,451 670,451 671,448 672,448 673,448 673,448 674,448 675,448 676,448 677,446 678,446 679,446 679,446 680,446 681,446 682,446 683,446 684,446 685,446 686,446 686,446 687,446 688,446 689,446 690,446 691,446 692,446 692,446 693,442 694,442 695,442 696,440 697,440 698,440 699,440 699,440 700,440 701,436 702,433 703,430 704,430 705,430 705,430 706,430 707,430 708,430 709,430 710,430 711,430 712,430 712,430 713,430 714,430 715,430 716,430 717,429 718,429 718,425 719,425 720,425 721,423 722,423 723,423 724,423 725,423 725,423 726,423 727,423 728,423 729,423 730,423 731,423 731,423 732,423 733,423 734,423 735,423 736,423 737,423 738,420 738,420 739,420 740,417 741,416 742,416 743,416 744,416 744,416 745,416 746,416 747,416 748,416 749,416 750,413 751,413 751,413 752,413 753,413 754,413 755,413 756,413 757,408 757,404 758,404 759,404 760,404 761,404 762,404 763,404 764,404 764,404 765,404 766,404 767,404 768,404 769,404 770,404 770,404 771,404 772,404 773,400 774,400 775,397 776,397 777,397 777,397 778,397 779,397 780,397 781,397 782,397 783,397 783,397 784,397 785,397 786,397 787,397 788,397 789,397 790,395 790,395 791,395 792,395 793,395 794,395 795,395 796,395 796,395 797,395 798,391 799,391 800,391 801,391 802,391 803,391 803,391 804,391 805,391 806,391 807,391 808,391 809,391 809,391 810,391 811,391 812,391 813,391 814,391 815,388 816,388 816,388 817,388 818,388 819,388 820,388 821,388 822,388 822,388 823,388 824,388 825,388 826,388 827,388 828,388 829,388 829,388 830,388 831,388 832,388 833,388 834,388 835,388 835,388 836,388 837,386 838,386 839,386 840,386 841,386 841,386 842,386 843,386 844,386 845,386 846,386 847,386 848,386 848,386 849,382 850,382 851,382 852,382 853,382 854,382 854,378 855,378 856,378 857,375 858,375 859,375 860,375 861,375 861,375 862,375 863,375 864,375 865,375 866,374 867,374 867,374 868,374 869,374 870,374 871,374 872,374 873,374 874,374 874,374 875,374 876,374 877,372 878,371 879,371 880,371 880,368 881,364 882,364 883,364 884,364 885,363 886,360 887,360 887,360 888,360 889,359 890,359 891,359 892,359 893,359 893,359 894,356 895,356 896,356 897,356 898,356 899,356 900,356 900,356 901,356 902,355 903,355 904,355 905,355 906,355 906,355 907,355 908,355 909,355 910,355 911,355 912,355 913,354 913,354 914,354 915,354 916,354 917,354 918,354 919,350 919,350 920,350 921,347 922,347 923,347 924,347 925,347 926,347 926,347 927,347 928,347 929,347 930,347 931,347 932,347 932,347 933,347 934,347 935,347 936,347 937,347 938,347 939,347 939,347 940,347 941,344 942,344 943,342 944,342 945,342 945,342 946,342 947,342 948,338 949,338 950,338 951,335 952,335 952,335 953,331 954,331 955,331 956,331 957,331 958,331 958,331 959,331 960,331 961,331 962,331 963,331 964,331 965,331 965,331 966,331 967,329 967,329 968,329 969,329 970,329 971,329 971,329 972,329 973,329 973,329 974,329 974,699 107,699 "/>
<polyline fill="none" opacity="1" stroke="#E6194B" stroke-width="1" points="107,693 108,693 108,693 109,692 110,692 111,692 112,692 113,692 114,692 115,692 115,692 116,690 117,687 118,685 119,683 120,683 121,683 121,683 122,683 123,683 124,683 125,683 126,683 127,683 128,683 128,679 129,679 130,679 131,679 132,679 133,679 134,678 134,678 135,678 136,678 137,678 138,677 139,677 140,676 141,676 141,676 142,676 143,676 144,676 145,676 146,676 147,669 147,669 148,669 149,669 150,669 151,669 152,669 153,665 154,665 154,659 155,659 156,659 157,659 158,659 159,659 160,658 160,658 161,658 162,658 163,654 164,654 165,654 166,654 166,652 167,652 168,652 169,652 170,652 171,652 172,652 173,652 173,652 174,649 175,649 176,649 177,649 178,649 179,649 179,649 180,649 181,649 182,649 183,649 184,649 185,649 186,649 186,649 187,649 188,649 189,649 190,649 191,649 192,649 192,649 193,646 194,646 195,646 196,646 197,646 198,646 199,646 199,646 200,646 201,646 202,646 203,646 204,646 205,646 205,646 206,646 207,646 208,646 209,646 210,646 211,640 212,640 212,640 213,640 214,640 215,640 216,640 217,640 218,640 218,640 219,640 220,640 221,640 222,640 223,640 224,640 225,640 225,640 226,637 227,633 228,633 229,633 230,633 231,633 231,633 232,631 233,631 234,631 235,628 236,628 237,628 238,628 238,628 239,625 240,625 241,625 242,625 243,625 244,625 244,625 245,625 246,625 247,625 248,625 249,625 250,625 251,624 251,624 252,624 253,624 254,624 255,622 256,622 257,622 257,618 258,618 259,618 260,618 261,618 262,618 263,612 264,612 264,612 265,612 266,612 267,612 268,608 269,608 270,608 270,608 271,608 272,607 273,607 274,603 275,603 276,603 277,603 277,603 278,603 279,603 280,603 281,603 282,603 283,603 283,603 284,603 285,603 286,603 287,603 288,603 289,603 290,603 290,603 291,603 292,603 293,603 294,603 295,603 296,600 296,600 297,600 298,600 299,600 300,600 301,600 302,600 303,600 303,600 304,600 305,600 306,600 307,600 308,600 309,600 309,596 310,596 311,596 312,596 313,595 314,595 315,595 316,595 316,595 317,595 318,595 319,595 320,595 321,595 322,590 322,590 323,590 324,590 325,590 326,589 327,589 328,589 329,586 329,586 330,586 331,586 332,586 333,584 334,582 335,582 335,582 336,582 337,581 338,581 339,581 340,581 341,581 342,581 342,581 343,581 344,581 345,581 346,581 347,581 348,577 348,577 349,577 350,577 351,577 352,576 353,576 354,576 355,576 355,575 356,575 357,575 358,575 359,574 360,571 361,568 361,568 362,568 363,568 364,568 365,568 366,568 367,568 368,568 368,568 369,568 370,568 371,568 372,568 373,568 374,568 374,568 375,566 376,562 377,561 378,561 379,561 380,558 381,558 381,558 382,558 383,558 384,558 385,558 386,554 387,554 387,554 388,554 389,550 390,550 391,550 392,550 393,550 394,550 394,550 395,550 396,550 397,547 398,547 399,543 400,543 400,543 401,541 402,541 403,541 404,541 405,541 406,541 407,541 407,541 408,541 409,541 410,541 411,541 412,541 413,541 413,541 414,541 415,539 416,539 417,539 418,539 419,539 420,538 420,538 421,538 422,538 423,538 424,538 425,538 426,538 426,538 427,538 428,538 429,538 430,538 431,538 432,538 433,538 433,538 434,538 435,538 436,538 437,538 438,538 439,538 439,538 440,538 441,538 442,538 443,538 444,536 445,536 446,536 446,536 447,536 448,536 449,532 450,532 451,532 452,529 452,529 453,529 454,527 455,527 456,527 457,527 458,527 459,527 459,527 460,527 461,527 462,527 463,525 464,524 465,524 465,524 466,524 467,524 468,524 469,520 470,520 471,519 472,519 472,519 473,519 474,519 475,519 476,519 477,519 478,519 478,519 479,519 480,519 481,519 482,519 483,519 484,519 485,519 485,519 486,519 487,519 488,519 489,519 490,519 491,519 491,516 492,516 493,516 494,516 495,516 496,516 497,516 497,513 498,510 499,507 500,505 501,505 502,505 503,505 504,502 504,502 505,502 506,501 507,501 508,501 509,501 510,501 510,501 511,501 512,501 513,501 514,501 515,501 516,497 517,497 517,497 518,497 519,497 520,497 521,497 522,497 523,497 523,497 524,497 525,495 526,495 527,495 528,495 529,495 530,495 530,495 531,491 532,491 533,491 534,491 535,491 536,491 536,491 537,491 538,491 539,491 540,491 541,491 542,491 543,491 543,491 544,491 545,488 546,488 547,488 548,488 549,488 549,488 550,488 551,488 552,488 553,488 554,488 555,488 556,488 556,488 557,488 558,488 559,485 560,485 561,484 562,484 562,483 563,483 564,483 565,483 566,483 567,483 568,483 569,483 569,483 570,483 571,480 572,480 573,480 574,480 575,480 575,480 576,480 577,478 578,478 579,478 580,478 581,478 582,475 582,475 583,475 584,475 585,475 586,473 587,473 588,473 588,473 589,473 590,473 591,469 592,469 593,469 594,469 595,469 595,469 596,469 597,469 598,469 599,467 600,467 601,467 601,467 602,467 603,467 604,467 605,467 606,467 607,467 608,467 608,467 609,467 610,465 611,465 612,465 613,465 614,465 614,465 615,465 616,462 617,462 618,460 619,460 620,458 621,458 621,458 622,458 623,458 624,458 625,456 626,456 627,456 627,456 628,456 629,456 630,456 631,456 632,456 633,456 634,456 634,456 635,456 636,456 637,456 638,456 639,456 640,456 640,456 641,456 642,456 643,456 644,453 645,453 646,453 647,453 647,453 648,452 649,452 650,452 651,452 652,452 653,452 653,452 654,452 655,451 656,451 657,451 658,451 659,451 660,451 660,451 661,451 662,451 663,451 664,451 665,451 666,451 666,451 667,451 668,451 669,451 670,451 671,448 672,448 673,448 673,448 674,448 675,448 676,448 677,446 678,446 679,446 679,446 680,446 681,446 682,446 683,446 684,446 685,446 686,446 686,446 687,446 688,446 689,446 690,446 691,446 692,446 692,446 693,442 694,442 695,442 696,440 697,440 698,440 699,440 699,440 700,440 701,436 702,433 703,430 704,430 705,430 705,430 706,430 707,430 708,430 709,430 710,430 711,430 712,430 712,430 713,430 714,430 715,430 716,430 717,429 718,429 718,425 719,425 720,425 721,423 722,423 723,423 724,423 725,423 725,423 726,423 727,423 728,423 729,423 730,423 731,423 731,423 732,423 733,423 734,423 735,423 736,423 737,423 738,420 738,420 739,420 740,417 741,416 742,416 743,416 744,416 744,416 745,416 746,416 747,416 748,416 749,416 750,413 751,413 751,413 752,413 753,413 754,413 755,413 756,413 757,408 757,404 758,404 759,404 760,404 761,404 762,404 763,404 764,404 764,404 765,404 766,404 767,404 768,404 769,404 770,404 770,404 771,404 772,404 773,400 774,400 775,397 776,397 777,397 777,397 778,397 779,397 780,397 781,397 782,397 783,397 783,397 784,397 785,397 786,397 787,397 788,397 789,397 790,395 790,395 791,395 792,395 793,395 794,395 795,395 796,395 796,395 797,395 798,391 799,391 800,391 801,391 802,391 803,391 803,391 804,391 805,391 806,391 807,391 808,391 809,391 809,391 810,391 811,391 812,391 813,391 814,391 815,388 816,388 816,388 817,388 818,388 819,388 820,388 821,388 822,388 822,388 823,388 824,388 825,388 826,388 827,388 828,388 829,388 829,388 830,388 831,388 832,388 833,388 834,388 835,388 835,388 836,388 837,386 838,386 839,386 840,386 841,386 841,386 842,386 843,386 844,386 845,386 846,386 847,386 848,386 848,386 849,382 850,382 851,382 852,382 853,382 854,382 854,378 855,378 856,378 857,375 858,375 859,375 860,375 861,375 861,375 862,375 863,375 864,375 865,375 866,374 867,374 867,374 868,374 869,374 870,374 871,374 872,374 873,374 874,374 874,374 875,374 876,374 877,372 878,371 879,371 880,371 880,368 881,364 882,364 883,364 884,364 885,363 886,360 887,360 887,360 888,360 889,359 890,359 891,359 892,359 893,359 893,359 894,356 895,356 896,356 897,356 898,356 899,356 900,356 900,356 901,356 902,355 903,355 904,355 905,355 906,355 906,355 907,355 908,355 909,355 910,355 911,355 912,355 913,354 913,354 914,354 915,354 916,354 917,354 918,354 919,350 919,350 920,350 921,347 922,347 923,347 924,347 925,347 926,347 926,347 927,347 928,347 929,347 930,347 931,347 932,347 932,347 933,347 934,347 935,347 936,347 937,347 938,347 939,347 939,347 940,347 941,344 942,344 943,342 944,342 945,342 945,342 946,342 947,342 948,338 949,338 950,338 951,335 952,335 952,335 953,331 954,331 955,331 956,331 957,331 958,331 958,331 959,331 960,331 961,331 962,331 963,331 964,331 965,331 965,331 966,331 967,329 967,329 968,329 969,329 970,329 971,329 971,329 972,329 973,329 973,329 974,329 "/>
<line opacity="0.1" stroke="#000000" stroke-width="1" x1="85" y1="699" x2="85" y2="67"/>
<line opacity="0.1" stroke="#000000" stroke-width="1" x1="103" y1="699" x2="103" y2="67"/>
<line opacity="0.1" stroke="#000000" stroke-width="1" x1="121" y1="699" x2="121" y2="67"/>
<line opacity="0.1" stroke="#000000" stroke-width="1" x1="139" y1="699" x2="139" y2="67"/>
<line opacity="0.1" stroke="#000000" stroke-width="1" x1="157" y1="699" x2="157" y2="67"/>
<line opacity="0.1" stroke="#000000" stroke-width="1" x1="174" y1="699" x2="174" y2="67"/>
<line opacity="0.1" stroke="#000000" stroke-width="1" x1="192" y1="699" x2="192" y2="67"/>
<line opacity="0.1" stroke="#000000" stroke-width="1" x1="210" y1="699" x2="210" y2="67"/>
<line opacity="0.1" stroke="#000000" stroke-width="1" x1="228" y1="699" x2="228" y2="67"/>
<line opacity="0.1" stroke="#000000" stroke-width="1" x1="246" y1="699" x2="246" y2="67"/>
<line opacity="0.1" stroke="#000000" stroke-width="1" x1="264" y1="699" x2="264" y2="67"/>
<line opacity="0.1" stroke="#000000" stroke-width="1" x1="282" y1="699" x2="282" y2="67"/>
<line opacity="0.1" stroke="#000000" stroke-width="1" x1="300" y1="699" x2="300" y2="67"/>
<line opacity="0.1" stroke="#000000" stroke-width="1" x1="318" y1="699" x2="318" y2="67"/>
<line opacity="0.1" stroke="#000000" stroke-width="1" x1="336" y1="699" x2="336" y2="67"/>
<line opacity="0.1" stroke="#000000" stroke-width="1" x1="354" y1="699" x2="354" y2="67"/>
<line opacity="0.1" stroke="#000000" stroke-width="1" x1="372" y1="699" x2="372" y2="67"/>
<line opacity="0.1" stroke="#000000" stroke-width="1" x1="389" y1="699" x2="389" y2="67"/>
<line opacity="0.1" stroke="#000000" stroke-width="1" x1="407" y1="699" x2="407" y2="67"/>
<line opacity="0.1" stroke="#000000" stroke-width="1" x1="425" y1="699" x2="425" y2="67"/>
<line opacity="0.1" stroke="#000000" stroke-width="1" x1="443" y1="699" x2="443" y2="67"/>
<line opacity="0.1" stroke="#000000" stroke-width="1" x1="461" y1="699" x2="461" y2="67"/>
<line opacity="0.1" stroke="#000000" stroke-width="1" x1="479" y1="699" x2="479" y2="67"/>
<line opacity="0.1" stroke="#000000" stroke-width="1" x1="497" y1="699" x2="497" y2="67"/>
<line opacity="0.1" stroke="#000000" stroke-width="1" x1="515" y1="699" x2="515" y2="67"/>
<line opacity="0.1" stroke="#000000" stroke-width="1" x1="533" y1="699" x2="533" y2="67"/>
<line opacity="0.1" stroke="#000000" stroke-width="1" x1="551" y1="699" x2="551" y2="67"/>
<line opacity="0.1" stroke="#000000" stroke-width="1" x1="569" y1="699" x2="569" y2="67"/>
<line opacity="0.1" stroke="#000000" stroke-width="1" x1="587" y1="699" x2="587" y2="67"/>
<line opacity="0.1" stroke="#000000" stroke-width="1" x1="604" y1="699" x2="604" y2="67"/>
<line opacity="0.1" stroke="#000000" stroke-width="1" x1="622" y1="699" x2="622" y2="67"/>
<line opacity="0.1" stroke="#000000" stroke-width="1" x1="640" y1="699" x2="640" y2="67"/>
<line opacity="0.1" stroke="#000000" stroke-width="1" x1="658" y1="699" x2="658" y2="67"/>
<line opacity="0.1" stroke="#000000" stroke-width="1" x1="676" y1="699" x2="676" y2="67"/>
<line opacity="0.1" stroke="#000000" stroke-width="1" x1="694" y1="699" x2="694" y2="67"/>
<line opacity="0.1" stroke="#000000" stroke-width="1" x1="712" y1="699" x2="712" y2="67"/>
<line opacity="0.1" stroke="#000000" stroke-width="1" x1="730" y1="699" x2="730" y2="67"/>
<line opacity="0.1" stroke="#000000" stroke-width="1" x1="748" y1="699" x2="748" y2="67"/>
<line opacity="0.1" stroke="#000000" stroke-width="1" x1="766" y1="699" x2="766" y2="67"/>
<line opacity="0.1" stroke="#000000" stroke-width="1" x1="784" y1="699" x2="784" y2="67"/>
<line opacity="0.1" stroke="#000000" stroke-width="1" x1="802" y1="699" x2="802" y2="67"/>
<line opacity="0.1" stroke="#000000" stroke-width="1" x1="819" y1="699" x2="819" y2="67"/>
<line opacity="0.1" stroke="#000000" stroke-width="1" x1="837" y1="699" x2="837" y2="67"/>
<line opacity="0.1" stroke="#000000" stroke-width="1" x1="855" y1="699" x2="855" y2="67"/>
<line opacity="0.1" stroke="#000000" stroke-width="1" x1="873" y1="699" x2="873" y2="67"/>
<line opacity="0.1" stroke="#000000" stroke-width="1" x1="891" y1="699" x2="891" y2="67"/>
<line opacity="0.1" stroke="#000000" stroke-width="1" x1="909" y1="699" x2="909" y2="67"/>
<line opacity="0.1" stroke="#000000" stroke-width="1" x1="927" y1="699" x2="927" y2="67"/>
<line opacity="0.1" stroke="#000000" stroke-width="1" x1="945" y1="699" x2="945" y2="67"/>
<line opacity="0.1" stroke="#000000" stroke-width="1" x1="963" y1="699" x2="963" y2="67"/>
<line opacity="0.1" stroke="#000000" stroke-width="1" x1="78" y1="699" x2="974" y2="699"/>
<line opacity="0.1" stroke="#000000" stroke-width="1" x1="78" y1="692" x2="974" y2="692"/>
<line opacity="0.1" stroke="#000000" stroke-width="1" x1="78" y1="685" x2="974" y2="685"/>
<line opacity="0.1" stroke="#000000" stroke-width="1" x1="78" y1="679" x2="974" y2="679"/>
<line opacity="0.1" stroke="#000000" stroke-width="1" x1="78" y1="672" x2="974" y2="672"/>
<line opacity="0.1" stroke="#000000" stroke-width="1" x1="78" y1="666" x2="974" y2="666"/>
<line opacity="0.1" stroke="#000000" stroke-width="1" x1="78" y1="659" x2="974" y2="659"/>
<line opacity="0.1" stroke="#000000" stroke-width="1" x1="78" y1="653" x2="974" y2="653"/>
<line opacity="0.1" stroke="#000000" stroke-width="1" x1="78" y1="646" x2="974" y2="646"/>
<line opacity="0.1" stroke="#000000" stroke-width="1" x1="78" y1="640" x2="974" y2="640"/>
<line opacity="0.1" stroke="#000000" stroke-width="1" x1="78" y1="633" x2="974" y2="633"/>
<line opacity="0.1" stroke="#000000" stroke-width="1" x1="78" y1="626" x2="974" y2="626"/>
<line opacity="0.1" stroke="#000000" stroke-width="1" x1="78" y1="620" x2="974" y2="620"/>
<line opacity="0.1" stroke="#000000" stroke-width="1" x1="78" y1="613" x2="974" y2="613"/>
<line opacity="0.1" stroke="#000000" stroke-width="1" x1="78" y1="607" x2="974" y2="607"/>
<line opacity="0.1" stroke="#000000" stroke-width="1" x1="78" y1="600" x2="974" y2="600"/>
<line opacity="0.1" stroke="#000000" stroke-width="1" x1="78" y1="594" x2="974" y2="594"/>
<line opacity="0.1" stroke="#000000" stroke-width="1" x1="78" y1="587" x2="974" y2="587"/>
<line opacity="0.1" stroke="#000000" stroke-width="1" x1="78" y1="581" x2="974" y2="581"/>
<line opacity="0.1" stroke="#000000" stroke-width="1" x1="78" y1="574" x2="974" y2="574"/>
<line opacity="0.1" stroke="#000000" stroke-width="1" x1="78" y1="567" x2="974" y2="567"/>
<line opacity="0.1" stroke="#000000" stroke-width="1" x1="78" y1="561" x2="974" y2="561"/>
<line opacity="0.1" stroke="#000000" stroke-width="1" x1="78" y1="554" x2="974" y2="554"/>
<line opacity="0.1" stroke="#000000" stroke-width="1" x1="78" y1="548" x2="974" y2="548"/>
<line opacity="0.1" stroke="#000000" stroke-width="1" x1="78" y1="541" x2="974" y2="541"/>
<line opacity="0.1" stroke="#000000" stroke-width="1" x1="78" y1="535" x2="974" y2="535"/>
<line opacity="0.1" stroke="#000000" stroke-width="1" x1="78" y1="528" x2="974" y2="528"/>
<line opacity="0.1" stroke="#000000" stroke-width="1" x1="78" y1="522" x2="974" y2="522"/>
<line opacity="0.1" stroke="#000000" stroke-width="1" x1="78" y1="515" x2="974" y2="515"/>
<line opacity="0.1" stroke="#000000" stroke-width="1" x1="78" y1="508" x2="974" y2="508"/>
<line opacity="0.1" stroke="#000000" stroke-width="1" x1="78" y1="502" x2="974" y2="502"/>
<line opacity="0.1" stroke="#000000" stroke-width="1" x1="78" y1="495" x2="974" y2="495"/>
<line opacity="0.1" stroke="#000000" stroke-width="1" x1="78" y1="489" x2="974" y2="489"/>
<line opacity="0.1" stroke="#000000" stroke-width="1" x1="78" y1="482" x2="974" y2="482"/>
<line opacity="0.1" stroke="#000000" stroke-width="1" x1="78" y1="476" x2="974" y2="476"/>
<line opacity="0.1" stroke="#000000" stroke-width="1" x1="78" y1="469" x2="974" y2="469"/>
<line opacity="0.1" stroke="#000000" stroke-width="1" x1="78" y1="463" x2="974" y2="463"/>
<line opacity="0.1" stroke="#000000" stroke-width="1" x1="78" y1="456" x2="974" y2="456"/>
<line opacity="0.1" stroke="#000000" stroke-width="1" x1="78" y1="449" x2="974" y2="449"/>
<line opacity="0.1" stroke="#000000" stroke-width="1" x1="78" y1="443" x2="974" y2="443"/>
<line opacity="0.1" stroke="#000000" stroke-width="1" x1="78" y1="436" x2="974" y2="436"/>
<line opacity="0.1" stroke="#000000" stroke-width="1" x1="78" y1="430" x2="974" y2="430"/>
<line opacity="0.1" stroke="#000000" stroke-width="1" x1="78" y1="423" x2="974" y2="423"/>
<line opacity="0.1" stroke="#000000" stroke-width="1" x1="78" y1="417" x2="974" y2="417"/>
<line opacity="0.1" stroke="#000000" stroke-width="1" x1="78" y1="410" x2="974" y2="410"/>
<line opacity="0.1" stroke="#000000" stroke-width="1" x1="78" y1="404" x2="974" y2="404"/>
<line opacity="0.1" stroke="#000000" stroke-width="1" x1="78" y1="397" x2="974" y2="397"/>
<line opacity="0.1" stroke="#000000" stroke-width="1" x1="78" y1="390" x2="974" y2="390"/>
<line opacity="0.1" stroke="#000000" stroke-width="1" x1="78" y1="384" x2="974" y2="384"/>
<line opacity="0.1" stroke="#000000" stroke-width="1" x1="78" y1="377" x2="974" y2="377"/>
<line opacity="0.1" stroke="#000000" stroke-width="1" x1="78" y1="371" x2="974" y2="371"/>
<line opacity="0.1" stroke="#000000" stroke-width="1" x1="78" y1="364" x2="974" y2="364"/>
<line opacity="0.1" stroke="#000000" stroke-width="1" x1="78" y1="358" x2="974" y2="358"/>
<line opacity="0.1" stroke="#000000" stroke-width="1" x1="78" y1="351" x2="974" y2="351"/>
<line opacity="0.1" stroke="#000000" stroke-width="1" x1="78" y1="345" x2="974" y2="345"/>
<line opacity="0.1" stroke="#000000" stroke-width="1" x1="78" y1="338" x2="974" y2="338"/>
<line opacity="0.1" stroke="#000000" stroke-width="1" x1="78" y1="331" x2="974" y2="331"/>
<line opacity="0.1" stroke="#000000" stroke-width="1" x1="78" y1="325" x2="974" y2="325"/>
<line opacity="0.1" stroke="#000000" stroke-width="1" x1="78" y1="318" x2="974" y2="318"/>
<line opacity="0.1" stroke="#000000" stroke-width="1" x1="78" y1="312" x2="974" y2="312"/>
<line opacity="0.1" stroke="#000000" stroke-width="1" x1="78" y1="305" x2="974" y2="305"/>
<line opacity="0.1" stroke="#000000" stroke-width="1" x1="78" y1="299" x2="974" y2="299"/>
<line opacity="0.1" stroke="#000000" stroke-width="1" x1="78" y1="292" x2="974" y2="292"/>
<line opacity="0.1" stroke="#000000" stroke-width="1" x1="78" y1="286" x2="974" y2="286"/>
<line opacity="0.1" stroke="#000000" stroke-width="1" x1="78" y1="279" x2="974" y2="279"/>
<line opacity="0.1" stroke="#000000" stroke-width="1" x1="78" y1="272" x2="974" y2="272"/>
<line opacity="0.1" stroke="#000000" stroke-width="1" x1="78" y1="266" x2="974" y2="266"/>
<line opacity="0.1" stroke="#000000" stroke-width="1" x1="78" y1="259" x2="974" y2="259"/>
<line opacity="0.1" stroke="#000000" stroke-width="1" x1="78" y1="253" x2="974" y2="253"/>
<line opacity="0.1" stroke="#000000" stroke-width="1" x1="78" y1="246" x2="974" y2="246"/>
<line opacity="0.1" stroke="#000000" stroke-width="1" x1="78" y1="240" x2="974" y2="240"/>
<line opacity="0.1" stroke="#000000" stroke-width="1" x1="78" y1="233" x2="974" y2="233"/>
<line opacity="0.1" stroke="#000000" stroke-width="1" x1="78" y1="227" x2="974" y2="227"/>
<line opacity="0.1" stroke="#000000" stroke-width="1" x1="78" y1="220" x2="974" y2="220"/>
<line opacity="0.1" stroke="#000000" stroke-width="1" x1="78" y1="213" x2="974" y2="213"/>
<line opacity="0.1" stroke="#000000" stroke-width="1" x1="78" y1="207" x2="974" y2="207"/>
<line opacity="0.1" stroke="#000000" stroke-width="1" x1="78" y1="200" x2="974" y2="200"/>
<line opacity="0.1" stroke="#000000" stroke-width="1" x1="78" y1="194" x2="974" y2="194"/>
<line opacity="0.1" stroke="#000000" stroke-width="1" x1="78" y1="187" x2="974" y2="187"/>
<line opacity="0.1" stroke="#000000" stroke-width="1" x1="78" y1="181" x2="974" y2="181"/>
<line opacity="0.1" stroke="#000000" stroke-width="1" x1="78" y1="174" x2="974" y2="174"/>
<line opacity="0.1" stroke="#000000" stroke-width="1" x1="78" y1="168" x2="974" y2="168"/>
<line opacity="0.1" stroke="#000000" stroke-width="1" x1="78" y1="161" x2="974" y2="161"/>
<line opacity="0.1" stroke="#000000" stroke-width="1" x1="78" y1="154" x2="974" y2="154"/>
<line opacity="0.1" stroke="#000000" stroke-width="1" x1="78" y1="148" x2="974" y2="148"/>
<line opacity="0.1" stroke="#000000" stroke-width="1" x1="78" y1="141" x2="974" y2="141"/>
<line opacity="0.1" stroke="#000000" stroke-width="1" x1="78" y1="135" x2="974" y2="135"/>
<line opacity="0.1" stroke="#000000" stroke-width="1" x1="78" y1="128" x2="974" y2="128"/>
<line opacity="0.1" stroke="#000000" stroke-width="1" x1="78" y1="122" x2="974" y2="122"/>
<line opacity="0.1" stroke="#000000" stroke-width="1" x1="78" y1="115" x2="974" y2="115"/>
<line opacity="0.1" stroke="#000000" stroke-width="1" x1="78" y1="109" x2="974" y2="109"/>
<line opacity="0.1" stroke="#000000" stroke-width="1" x1="78" y1="102" x2="974" y2="102"/>
<line opacity="0.1" stroke="#000000" stroke-width="1" x1="78" y1="95" x2="974" y2="95"/>
<line opacity="0.1" stroke="#000000" stroke-width="1" x1="78" y1="89" x2="974" y2="89"/>
<line opacity="0.1" stroke="#000000" stroke-width="1" x1="78" y1="82" x2="974" y2="82"/>
<line opacity="0.1" stroke="#000000" stroke-width="1" x1="78" y1="76" x2="974" y2="76"/>
<line opacity="0.1" stroke="#000000" stroke-width="1" x1="78" y1="69" x2="974" y2="69"/>
<text x="8" y="384" dy="0.76em" text-anchor="middle" font-family="sans-serif" font-size="9.67741935483871" opacity="1" fill="#000000" transform="rotate(270, 8, 384)">
Memory usage
</text>
<text x="526" y="760" dy="-0.5ex" text-anchor="middle" font-family="sans-serif" font-size="9.67741935483871" opacity="1" fill="#000000">
Time
</text>
<line opacity="0.2" stroke="#000000" stroke-width="1" x1="192" y1="699" x2="192" y2="67"/>
<line opacity="0.2" stroke="#000000" stroke-width="1" x1="372" y1="699" x2="372" y2="67"/>
<line opacity="0.2" stroke="#000000" stroke-width="1" x1="551" y1="699" x2="551" y2="67"/>
<line opacity="0.2" stroke="#000000" stroke-width="1" x1="730" y1="699" x2="730" y2="67"/>
<line opacity="0.2" stroke="#000000" stroke-width="1" x1="909" y1="699" x2="909" y2="67"/>
<line opacity="0.2" stroke="#000000" stroke-width="1" x1="78" y1="699" x2="974" y2="699"/>
<line opacity="0.2" stroke="#000000" stroke-width="1" x1="78" y1="535" x2="974" y2="535"/>
<line opacity="0.2" stroke="#000000" stroke-width="1" x1="78" y1="371" x2="974" y2="371"/>
<line opacity="0.2" stroke="#000000" stroke-width="1" x1="78" y1="207" x2="974" y2="207"/>
<polyline fill="none" opacity="1" stroke="#000000" stroke-width="1" points="77,68 77,700 "/>
<text x="68" y="699" dy="0.5ex" text-anchor="end" font-family="sans-serif" font-size="9.67741935483871" opacity="1" fill="#000000">
0.0 KB
</text>
<polyline fill="none" opacity="1" stroke="#000000" stroke-width="1" points="72,699 77,699 "/>
<text x="68" y="535" dy="0.5ex" text-anchor="end" font-family="sans-serif" font-size="9.67741935483871" opacity="1" fill="#000000">
4.9 KB
</text>
<polyline fill="none" opacity="1" stroke="#000000" stroke-width="1" points="72,535 77,535 "/>
<text x="68" y="371" dy="0.5ex" text-anchor="end" font-family="sans-serif" font-size="9.67741935483871" opacity="1" fill="#000000">
9.8 KB
</text>
<polyline fill="none" opacity="1" stroke="#000000" stroke-width="1" points="72,371 77,371 "/>
<text x="68" y="207" dy="0.5ex" text-anchor="end" font-family="sans-serif" font-size="9.67741935483871" opacity="1" fill="#000000">
14.6 KB
</text>
<polyline fill="none" opacity="1" stroke="#000000" stroke-width="1" points="72,207 77,207 "/>
<polyline fill="none" opacity="1" stroke="#000000" stroke-width="1" points="78,700 974,700 "/>
<text x="192" y="710" dy="0.76em" text-anchor="middle" font-family="sans-serif" font-size="9.67741935483871" opacity="1" fill="#000000">
06:26:08
</text>
<polyline fill="none" opacity="1" stroke="#000000" stroke-width="1" points="192,700 192,705 "/>
<text x="372" y="710" dy="0.76em" text-anchor="middle" font-family="sans-serif" font-size="9.67741935483871" opacity="1" fill="#000000">
06:26:10
</text>
<polyline fill="none" opacity="1" stroke="#000000" stroke-width="1" points="372,700 372,705 "/>
<text x="551" y="710" dy="0.76em" text-anchor="middle" font-family="sans-serif" font-size="9.67741935483871" opacity="1" fill="#000000">
06:26:12
</text>
<polyline fill="none" opacity="1" stroke="#000000" stroke-width="1" points="551,700 551,705 "/>
<text x="730" y="710" dy="0.76em" text-anchor="middle" font-family="sans-serif" font-size="9.67741935483871" opacity="1" fill="#000000">
06:26:14
</text>
<polyline fill="none" opacity="1" stroke="#000000" stroke-width="1" points="730,700 730,705 "/>
<text x="909" y="710" dy="0.76em" text-anchor="middle" font-family="sans-serif" font-size="9.67741935483871" opacity="1" fill="#000000">
06:26:16
</text>
<polyline fill="none" opacity="1" stroke="#000000" stroke-width="1" points="909,700 909,705 "/>
<polyline fill="none" opacity="1" stroke="#000000" stroke-width="1" points="78,67 974,67 "/>
<text x="192" y="58" dy="-0.5ex" text-anchor="middle" font-family="sans-serif" font-size="9.67741935483871" opacity="1" fill="#000000">
+1s
</text>
<polyline fill="none" opacity="1" stroke="#000000" stroke-width="1" points="192,62 192,67 "/>
<text x="372" y="58" dy="-0.5ex" text-anchor="middle" font-family="sans-serif" font-size="9.67741935483871" opacity="1" fill="#000000">
+3s
</text>
<polyline fill="none" opacity="1" stroke="#000000" stroke-width="1" points="372,62 372,67 "/>
<text x="551" y="58" dy="-0.5ex" text-anchor="middle" font-family="sans-serif" font-size="9.67741935483871" opacity="1" fill="#000000">
+5s
</text>
<polyline fill="none" opacity="1" stroke="#000000" stroke-width="1" points="551,62 551,67 "/>
<text x="730" y="58" dy="-0.5ex" text-anchor="middle" font-family="sans-serif" font-size="9.67741935483871" opacity="1" fill="#000000">
+7s
</text>
<polyline fill="none" opacity="1" stroke="#000000" stroke-width="1" points="730,62 730,67 "/>
<text x="909" y="58" dy="-0.5ex" text-anchor="middle" font-family="sans-serif" font-size="9.67741935483871" opacity="1" fill="#000000">
+9s
</text>
<polyline fill="none" opacity="1" stroke="#000000" stroke-width="1" points="909,62 909,67 "/>
<rect x="83" y="73" width="99" height="45" opacity="0.75" fill="#FFFFFF" stroke="none"/>
<rect x="83" y="73" width="99" height="45" opacity="1" fill="none" stroke="#000000"/>
<text x="123" y="83" dy="0.76em" text-anchor="start" font-family="sans-serif" font-size="9.67741935483871" opacity="1" fill="#000000">
Temporary
</text>
<text x="123" y="98" dy="0.76em" text-anchor="start" font-family="sans-serif" font-size="9.67741935483871" opacity="1" fill="#000000">
Leaked
</text>
<rect x="93" y="83" width="10" height="10" opacity="1" fill="#3CB44B" stroke="none"/>
<rect x="93" y="98" width="10" height="10" opacity="1" fill="#E6194B" stroke="none"/>
</svg>
