<svg width="1024" height="768" viewBox="0 0 1024 768" xmlns="http://www.w3.org/2000/svg">
<rect x="0" y="0" width="1024" height="768" opacity="1" fill="#FFFFFF" stroke="none"/>
<polygon opacity="1" fill="#E6194B" points="78,698 78,693 79,684 80,684 81,680 82,683 83,684 84,687 85,685 86,686 86,688 87,685 88,686 89,667 90,671 91,664 92,658 93,664 94,663 94,663 95,666 96,673 97,674 98,674 99,676 100,676 101,678 102,676 103,680 103,678 104,676 105,676 106,674 107,674 108,675 109,668 110,667 111,660 111,655 112,658 113,662 114,667 115,667 116,664 117,655 118,651 119,640 120,637 120,647 121,656 122,659 123,660 124,659 125,651 126,645 127,640 128,637 128,637 129,636 130,637 131,645 132,644 133,641 134,636 135,635 136,634 137,639 137,632 138,623 139,619 140,618 141,619 142,612 143,609 144,603 145,599 145,600 146,595 147,586 148,583 149,582 150,572 151,569 152,568 153,576 154,571 154,568 155,566 156,568 157,568 158,562 159,561 160,555 161,555 162,561 162,563 163,560 164,555 165,551 166,550 167,549 168,541 169,534 170,541 170,537 171,540 172,545 173,544 174,549 175,542 176,533 177,530 178,530 179,531 179,531 180,530 181,530 182,527 183,519 184,521 185,525 186,532 187,532 187,533 188,522 189,519 190,516 191,515 192,518 193,520 194,514 195,515 196,518 196,516 197,509 198,508 199,507 200,503 201,504 202,510 203,508 204,502 204,500 205,500 206,501 207,503 208,501 209,506 210,511 211,515 212,520 213,521 213,512 214,509 215,499 216,501 217,520 218,524 219,521 220,515 221,525 221,523 222,520 223,521 224,518 225,505 226,502 227,507 228,506 229,506 230,512 230,517 231,521 232,513 233,515 234,512 235,513 236,519 237,518 238,514 238,518 239,517 240,519 241,520 242,514 243,512 244,509 245,503 246,504 247,510 247,509 248,515 249,512 250,518 251,517 252,520 253,515 254,517 255,518 255,516 256,507 257,504 258,511 259,510 260,513 261,505 262,499 263,499 263,503 264,502 265,508 266,502 267,494 268,494 269,497 270,494 271,498 272,497 272,491 273,488 274,485 275,488 276,489 277,485 278,483 279,485 280,486 280,490 281,488 282,490 283,488 284,478 285,479 286,479 287,484 288,486 289,480 289,483 290,486 291,488 292,487 293,496 294,499 295,492 296,491 297,489 297,481 298,479 299,482 300,485 301,483 302,474 303,477 304,481 305,481 306,489 306,488 307,490 308,494 309,494 310,499 311,496 312,493 313,491 314,487 314,490 315,487 316,489 317,489 318,489 319,479 320,474 321,469 322,468 323,464 323,462 324,465 325,464 326,455 327,451 328,442 329,442 330,452 331,457 331,457 332,458 333,458 334,453 335,453 336,445 337,449 338,454 339,455 339,458 340,452 341,450 342,456 343,458 344,459 345,462 346,463 347,469 348,469 348,474 349,472 350,471 351,467 352,466 353,469 354,471 355,474 356,474 356,474 357,481 358,492 359,484 360,489 361,491 362,486 363,487 364,492 365,489 365,487 366,482 367,477 368,478 369,476 370,482 371,484 372,480 373,479 373,472 374,471 375,472 376,475 377,478 378,482 379,479 380,476 381,473 382,467 382,462 383,461 384,464 385,467 386,462 387,467 388,465 389,466 390,461 390,454 391,449 392,448 393,439 394,441 395,448 396,453 397,463 398,464 399,475 399,471 400,473 401,461 402,462 403,479 404,477 405,471 406,471 407,459 407,455 408,456 409,459 410,465 411,462 412,461 413,464 414,473 415,471 416,466 416,466 417,467 418,468 419,468 420,475 421,472 422,468 423,472 424,477 424,474 425,468 426,470 427,462 428,467 429,463 430,465 431,467 432,469 432,458 433,455 434,458 435,445 436,441 437,437 438,438 439,430 440,429 441,432 441,432 442,431 443,430 444,435 445,435 446,428 447,422 448,424 449,421 449,427 450,429 451,431 452,429 453,431 454,432 455,440 456,430 457,433 458,418 458,418 459,417 460,419 461,414 462,410 463,409 464,408 465,410 466,412 466,416 467,408 468,402 469,401 470,404 471,406 472,397 473,396 474,398 475,401 475,409 476,404 477,398 478,397 479,397 480,397 481,409 482,410 483,410 483,410 484,413 485,414 486,417 487,418 488,412 489,415 490,416 491,418 492,420 492,411 493,410 494,414 495,413 496,415 497,411 498,409 499,417 500,413 500,410 501,411 502,420 503,417 504,415 505,415 506,408 507,411 508,412 508,405 509,405 510,403 511,399 512,399 513,401 514,399 515,399 516,405 517,403 517,400 518,398 519,408 520,395 521,399 522,397 523,402 524,405 525,399 525,398 526,404 527,411 528,419 529,419 530,413 531,413 532,413 533,414 534,415 534,421 535,420 536,422 537,429 538,428 539,424 540,421 541,422 542,418 542,422 543,423 544,420 545,418 546,423 547,421 548,417 549,418 550,421 551,422 551,429 552,435 553,435 554,436 555,427 556,427 557,430 558,429 559,429 559,430 560,428 561,421 562,421 563,429 564,429 565,426 566,428 567,428 568,431 568,430 569,426 570,422 571,426 572,428 573,415 574,414 575,412 576,417 576,411 577,406 578,400 579,396 580,402 581,404 582,400 583,398 584,403 585,401 585,399 586,405 587,403 588,390 589,390 590,388 591,397 592,400 593,405 593,401 594,400 595,403 596,396 597,392 598,396 599,395 600,402 601,403 601,401 602,398 603,398 604,395 605,392 606,383 607,377 608,379 609,376 610,374 610,369 611,368 612,380 613,378 614,377 615,378 616,377 617,370 618,366 618,377 619,375 620,372 621,372 622,380 623,376 624,354 625,357 626,356 627,361 627,362 628,360 629,356 630,364 631,356 632,353 633,353 634,354 635,364 635,366 636,360 637,359 638,359 639,363 640,363 641,364 642,361 643,366 644,363 644,367 645,365 646,368 647,368 648,357 649,354 650,352 651,348 652,343 652,340 653,342 654,341 655,342 656,338 657,340 658,342 659,342 660,339 661,337 661,340 662,344 663,338 664,332 665,331 666,331 667,332 668,331 669,332 669,329 670,329 671,328 672,326 673,328 674,328 675,324 676,320 677,325 677,324 678,329 679,331 680,326 681,322 682,319 683,320 684,318 685,318 686,310 686,298 687,302 688,301 689,300 690,302 691,299 692,300 693,296 694,299 694,287 695,287 696,295 697,288 698,288 699,297 700,309 701,309 702,310 703,312 703,322 704,317 705,316 706,311 707,307 708,305 709,309 710,307 711,305 711,300 712,294 713,286 714,288 715,293 716,304 717,307 718,309 719,301 720,300 720,294 721,290 722,287 723,287 724,288 725,287 726,284 727,284 728,285 728,281 729,279 730,277 731,275 732,280 733,284 734,279 735,272 736,272 737,271 737,277 738,271 739,275 740,280 741,282 742,284 743,287 744,286 745,282 745,282 746,280 747,273 748,265 749,266 750,271 751,273 752,273 753,280 754,280 754,275 755,279 756,281 757,285 758,293 759,303 760,293 761,285 762,281 762,274 763,265 764,263 765,265 766,263 767,261 768,263 769,266 770,271 770,265 771,269 772,265 773,266 774,261 775,255 776,251 777,248 778,249 779,249 779,256 780,253 781,253 782,261 783,264 784,266 785,264 786,252 787,250 787,262 788,263 789,258 790,254 791,249 792,250 793,243 794,238 795,240 796,237 796,229 797,230 798,231 799,227 800,227 801,230 802,240 803,244 804,241 804,248 805,243 806,248 807,250 808,252 809,247 810,248 811,247 812,250 813,240 813,234 814,234 815,239 816,235 817,226 818,226 819,233 820,239 821,235 821,234 822,232 823,233 824,220 825,218 826,225 827,229 828,232 829,228 830,228 830,224 831,221 832,218 833,211 834,204 835,198 836,195 837,188 838,186 838,187 839,189 840,201 841,205 842,199 843,198 844,190 845,189 846,188 847,195 847,192 848,186 849,195 850,193 851,188 852,190 853,171 854,174 855,174 855,174 856,170 857,160 858,160 859,159 860,158 861,159 862,168 863,172 863,177 864,179 865,177 866,174 867,168 868,169 869,155 870,150 871,154 872,160 872,158 873,163 874,161 875,149 876,151 877,157 878,156 879,153 880,154 880,153 881,151 882,155 883,156 884,161 885,155 886,153 887,147 888,149 889,144 889,148 890,147 891,145 892,137 893,138 894,148 895,134 896,132 897,138 897,139 898,144 899,145 900,146 901,153 902,152 903,150 904,141 905,150 906,161 906,164 907,163 908,159 909,154 910,150 911,145 912,141 913,138 914,136 914,125 915,122 916,135 917,135 918,134 919,141 920,139 921,142 922,142 923,140 923,138 924,126 925,126 926,125 927,128 928,133 929,136 930,131 931,127 931,115 932,118 933,117 934,121 935,129 936,118 937,113 938,109 939,104 939,105 940,110 941,118 942,117 943,121 944,120 945,113 946,104 947,102 948,97 948,96 949,96 950,97 951,104 952,105 953,102 954,97 955,97 956,105 956,111 957,108 958,94 959,85 960,80 961,70 962,71 963,72 964,69 965,68 965,68 966,75 967,76 968,84 969,91 970,81 971,73 972,74 972,458 973,458 973,699 78,699 "/>
<polyline fill="none" opacity="1" stroke="#E6194B" stroke-width="1" points="78,698 78,693 79,684 80,684 81,680 82,683 83,684 84,687 85,685 86,686 86,688 87,685 88,686 89,667 90,671 91,664 92,658 93,664 94,663 94,663 95,666 96,673 97,674 98,674 99,676 100,676 101,678 102,676 103,680 103,678 104,676 105,676 106,674 107,674 108,675 109,668 110,667 111,660 111,655 112,658 113,662 114,667 115,667 116,664 117,655 118,651 119,640 120,637 120,647 121,656 122,659 123,660 124,659 125,651 126,645 127,640 128,637 128,637 129,636 130,637 131,645 132,644 133,641 134,636 135,635 136,634 137,639 137,632 138,623 139,619 140,618 141,619 142,612 143,609 144,603 145,599 145,600 146,595 147,586 148,583 149,582 150,572 151,569 152,568 153,576 154,571 154,568 155,566 156,568 157,568 158,562 159,561 160,555 161,555 162,561 162,563 163,560 164,555 165,551 166,550 167,549 168,541 169,534 170,541 170,537 171,540 172,545 173,544 174,549 175,542 176,533 177,530 178,530 179,531 179,531 180,530 181,530 182,527 183,519 184,521 185,525 186,532 187,532 187,533 188,522 189,519 190,516 191,515 192,518 193,520 194,514 195,515 196,518 196,516 197,509 198,508 199,507 200,503 201,504 202,510 203,508 204,502 204,500 205,500 206,501 207,503 208,501 209,506 210,511 211,515 212,520 213,521 213,512 214,509 215,499 216,501 217,520 218,524 219,521 220,515 221,525 221,523 222,520 223,521 224,518 225,505 226,502 227,507 228,506 229,506 230,512 230,517 231,521 232,513 233,515 234,512 235,513 236,519 237,518 238,514 238,518 239,517 240,519 241,520 242,514 243,512 244,509 245,503 246,504 247,510 247,509 248,515 249,512 250,518 251,517 252,520 253,515 254,517 255,518 255,516 256,507 257,504 258,511 259,510 260,513 261,505 262,499 263,499 263,503 264,502 265,508 266,502 267,494 268,494 269,497 270,494 271,498 272,497 272,491 273,488 274,485 275,488 276,489 277,485 278,483 279,485 280,486 280,490 281,488 282,490 283,488 284,478 285,479 286,479 287,484 288,486 289,480 289,483 290,486 291,488 292,487 293,496 294,499 295,492 296,491 297,489 297,481 298,479 299,482 300,485 301,483 302,474 303,477 304,481 305,481 306,489 306,488 307,490 308,494 309,494 310,499 311,496 312,493 313,491 314,487 314,490 315,487 316,489 317,489 318,489 319,479 320,474 321,469 322,468 323,464 323,462 324,465 325,464 326,455 327,451 328,442 329,442 330,452 331,457 331,457 332,458 333,458 334,453 335,453 336,445 337,449 338,454 339,455 339,458 340,452 341,450 342,456 343,458 344,459 345,462 346,463 347,469 348,469 348,474 349,472 350,471 351,467 352,466 353,469 354,471 355,474 356,474 356,474 357,481 358,492 359,484 360,489 361,491 362,486 363,487 364,492 365,489 365,487 366,482 367,477 368,478 369,476 370,482 371,484 372,480 373,479 373,472 374,471 375,472 376,475 377,478 378,482 379,479 380,476 381,473 382,467 382,462 383,461 384,464 385,467 386,462 387,467 388,465 389,466 390,461 390,454 391,449 392,448 393,439 394,441 395,448 396,453 397,463 398,464 399,475 399,471 400,473 401,461 402,462 403,479 404,477 405,471 406,471 407,459 407,455 408,456 409,459 410,465 411,462 412,461 413,464 414,473 415,471 416,466 416,466 417,467 418,468 419,468 420,475 421,472 422,468 423,472 424,477 424,474 425,468 426,470 427,462 428,467 429,463 430,465 431,467 432,469 432,458 433,455 434,458 435,445 436,441 437,437 438,438 439,430 440,429 441,432 441,432 442,431 443,430 444,435 445,435 446,428 447,422 448,424 449,421 449,427 450,429 451,431 452,429 453,431 454,432 455,440 456,430 457,433 458,418 458,418 459,417 460,419 461,414 462,410 463,409 464,408 465,410 466,412 466,416 467,408 468,402 469,401 470,404 471,406 472,397 473,396 474,398 475,401 475,409 476,404 477,398 478,397 479,397 480,397 481,409 482,410 483,410 483,410 484,413 485,414 486,417 487,418 488,412 489,415 490,416 491,418 492,420 492,411 493,410 494,414 495,413 496,415 497,411 498,409 499,417 500,413 500,410 501,411 502,420 503,417 504,415 505,415 506,408 507,411 508,412 508,405 509,405 510,403 511,399 512,399 513,401 514,399 515,399 516,405 517,403 517,400 518,398 519,408 520,395 521,399 522,397 523,402 524,405 525,399 525,398 526,404 527,411 528,419 529,419 530,413 531,413 532,413 533,414 534,415 534,421 535,420 536,422 537,429 538,428 539,424 540,421 541,422 542,418 542,422 543,423 544,420 545,418 546,423 547,421 548,417 549,418 550,421 551,422 551,429 552,435 553,435 554,436 555,427 556,427 557,430 558,429 559,429 559,430 560,428 561,421 562,421 563,429 564,429 565,426 566,428 567,428 568,431 568,430 569,426 570,422 571,426 572,428 573,415 574,414 575,412 576,417 576,411 577,406 578,400 579,396 580,402 581,404 582,400 583,398 584,403 585,401 585,399 586,405 587,403 588,390 589,390 590,388 591,397 592,400 593,405 593,401 594,400 595,403 596,396 597,392 598,396 599,395 600,402 601,403 601,401 602,398 603,398 604,395 605,392 606,383 607,377 608,379 609,376 610,374 610,369 611,368 612,380 613,378 614,377 615,378 616,377 617,370 618,366 618,377 619,375 620,372 621,372 622,380 623,376 624,354 625,357 626,356 627,361 627,362 628,360 629,356 630,364 631,356 632,353 633,353 634,354 635,364 635,366 636,360 637,359 638,359 639,363 640,363 641,364 642,361 643,366 644,363 644,367 645,365 646,368 647,368 648,357 649,354 650,352 651,348 652,343 652,340 653,342 654,341 655,342 656,338 657,340 658,342 659,342 660,339 661,337 661,340 662,344 663,338 664,332 665,331 666,331 667,332 668,331 669,332 669,329 670,329 671,328 672,326 673,328 674,328 675,324 676,320 677,325 677,324 678,329 679,331 680,326 681,322 682,319 683,320 684,318 685,318 686,310 686,298 687,302 688,301 689,300 690,302 691,299 692,300 693,296 694,299 694,287 695,287 696,295 697,288 698,288 699,297 700,309 701,309 702,310 703,312 703,322 704,317 705,316 706,311 707,307 708,305 709,309 710,307 711,305 711,300 712,294 713,286 714,288 715,293 716,304 717,307 718,309 719,301 720,300 720,294 721,290 722,287 723,287 724,288 725,287 726,284 727,284 728,285 728,281 729,279 730,277 731,275 732,280 733,284 734,279 735,272 736,272 737,271 737,277 738,271 739,275 740,280 741,282 742,284 743,287 744,286 745,282 745,282 746,280 747,273 748,265 749,266 750,271 751,273 752,273 753,280 754,280 754,275 755,279 756,281 757,285 758,293 759,303 760,293 761,285 762,281 762,274 763,265 764,263 765,265 766,263 767,261 768,263 769,266 770,271 770,265 771,269 772,265 773,266 774,261 775,255 776,251 777,248 778,249 779,249 779,256 780,253 781,253 782,261 783,264 784,266 785,264 786,252 787,250 787,262 788,263 789,258 790,254 791,249 792,250 793,243 794,238 795,240 796,237 796,229 797,230 798,231 799,227 800,227 801,230 802,240 803,244 804,241 804,248 805,243 806,248 807,250 808,252 809,247 810,248 811,247 812,250 813,240 813,234 814,234 815,239 816,235 817,226 818,226 819,233 820,239 821,235 821,234 822,232 823,233 824,220 825,218 826,225 827,229 828,232 829,228 830,228 830,224 831,221 832,218 833,211 834,204 835,198 836,195 837,188 838,186 838,187 839,189 840,201 841,205 842,199 843,198 844,190 845,189 846,188 847,195 847,192 848,186 849,195 850,193 851,188 852,190 853,171 854,174 855,174 855,174 856,170 857,160 858,160 859,159 860,158 861,159 862,168 863,172 863,177 864,179 865,177 866,174 867,168 868,169 869,155 870,150 871,154 872,160 872,158 873,163 874,161 875,149 876,151 877,157 878,156 879,153 880,154 880,153 881,151 882,155 883,156 884,161 885,155 886,153 887,147 888,149 889,144 889,148 890,147 891,145 892,137 893,138 894,148 895,134 896,132 897,138 897,139 898,144 899,145 900,146 901,153 902,152 903,150 904,141 905,150 906,161 906,164 907,163 908,159 909,154 910,150 911,145 912,141 913,138 914,136 914,125 915,122 916,135 917,135 918,134 919,141 920,139 921,142 922,142 923,140 923,138 924,126 925,126 926,125 927,128 928,133 929,136 930,131 931,127 931,115 932,118 933,117 934,121 935,129 936,118 937,113 938,109 939,104 939,105 940,110 941,118 942,117 943,121 944,120 945,113 946,104 947,102 948,97 948,96 949,96 950,97 951,104 952,105 953,102 954,97 955,97 956,105 956,111 957,108 958,94 959,85 960,80 961,70 962,71 963,72 964,69 965,68 965,68 966,75 967,76 968,84 969,91 970,81 971,73 972,74 972,458 973,458 "/>
<line opacity="0.1" stroke="#000000" stroke-width="1" x1="79" y1="699" x2="79" y2="68"/>
<line opacity="0.1" stroke="#000000" stroke-width="1" x1="87" y1="699" x2="87" y2="68"/>
<line opacity="0.1" stroke="#000000" stroke-width="1" x1="96" y1="699" x2="96" y2="68"/>
<line opacity="0.1" stroke="#000000" stroke-width="1" x1="105" y1="699" x2="105" y2="68"/>
<line opacity="0.1" stroke="#000000" stroke-width="1" x1="114" y1="699" x2="114" y2="68"/>
<line opacity="0.1" stroke="#000000" stroke-width="1" x1="123" y1="699" x2="123" y2="68"/>
<line opacity="0.1" stroke="#000000" stroke-width="1" x1="132" y1="699" x2="132" y2="68"/>
<line opacity="0.1" stroke="#000000" stroke-width="1" x1="141" y1="699" x2="141" y2="68"/>
<line opacity="0.1" stroke="#000000" stroke-width="1" x1="150" y1="699" x2="150" y2="68"/>
<line opacity="0.1" stroke="#000000" stroke-width="1" x1="159" y1="699" x2="159" y2="68"/>
<line opacity="0.1" stroke="#000000" stroke-width="1" x1="168" y1="699" x2="168" y2="68"/>
<line opacity="0.1" stroke="#000000" stroke-width="1" x1="177" y1="699" x2="177" y2="68"/>
<line opacity="0.1" stroke="#000000" stroke-width="1" x1="186" y1="699" x2="186" y2="68"/>
<line opacity="0.1" stroke="#000000" stroke-width="1" x1="195" y1="699" x2="195" y2="68"/>
<line opacity="0.1" stroke="#000000" stroke-width="1" x1="204" y1="699" x2="204" y2="68"/>
<line opacity="0.1" stroke="#000000" stroke-width="1" x1="213" y1="699" x2="213" y2="68"/>
<line opacity="0.1" stroke="#000000" stroke-width="1" x1="222" y1="699" x2="222" y2="68"/>
<line opacity="0.1" stroke="#000000" stroke-width="1" x1="230" y1="699" x2="230" y2="68"/>
<line opacity="0.1" stroke="#000000" stroke-width="1" x1="239" y1="699" x2="239" y2="68"/>
<line opacity="0.1" stroke="#000000" stroke-width="1" x1="248" y1="699" x2="248" y2="68"/>
<line opacity="0.1" stroke="#000000" stroke-width="1" x1="257" y1="699" x2="257" y2="68"/>
<line opacity="0.1" stroke="#000000" stroke-width="1" x1="266" y1="699" x2="266" y2="68"/>
<line opacity="0.1" stroke="#000000" stroke-width="1" x1="275" y1="699" x2="275" y2="68"/>
<line opacity="0.1" stroke="#000000" stroke-width="1" x1="284" y1="699" x2="284" y2="68"/>
<line opacity="0.1" stroke="#000000" stroke-width="1" x1="293" y1="699" x2="293" y2="68"/>
<line opacity="0.1" stroke="#000000" stroke-width="1" x1="302" y1="699" x2="302" y2="68"/>
<line opacity="0.1" stroke="#000000" stroke-width="1" x1="311" y1="699" x2="311" y2="68"/>
<line opacity="0.1" stroke="#000000" stroke-width="1" x1="320" y1="699" x2="320" y2="68"/>
<line opacity="0.1" stroke="#000000" stroke-width="1" x1="329" y1="699" x2="329" y2="68"/>
<line opacity="0.1" stroke="#000000" stroke-width="1" x1="338" y1="699" x2="338" y2="68"/>
<line opacity="0.1" stroke="#000000" stroke-width="1" x1="347" y1="699" x2="347" y2="68"/>
<line opacity="0.1" stroke="#000000" stroke-width="1" x1="356" y1="699" x2="356" y2="68"/>
<line opacity="0.1" stroke="#000000" stroke-width="1" x1="365" y1="699" x2="365" y2="68"/>
<line opacity="0.1" stroke="#000000" stroke-width="1" x1="374" y1="699" x2="374" y2="68"/>
<line opacity="0.1" stroke="#000000" stroke-width="1" x1="382" y1="699" x2="382" y2="68"/>
<line opacity="0.1" stroke="#000000" stroke-width="1" x1="391" y1="699" x2="391" y2="68"/>
<line opacity="0.1" stroke="#000000" stroke-width="1" x1="400" y1="699" x2="400" y2="68"/>
<line opacity="0.1" stroke="#000000" stroke-width="1" x1="409" y1="699" x2="409" y2="68"/>
<line opacity="0.1" stroke="#000000" stroke-width="1" x1="418" y1="699" x2="418" y2="68"/>
<line opacity="0.1" stroke="#000000" stroke-width="1" x1="427" y1="699" x2="427" y2="68"/>
<line opacity="0.1" stroke="#000000" stroke-width="1" x1="436" y1="699" x2="436" y2="68"/>
<line opacity="0.1" stroke="#000000" stroke-width="1" x1="445" y1="699" x2="445" y2="68"/>
<line opacity="0.1" stroke="#000000" stroke-width="1" x1="454" y1="699" x2="454" y2="68"/>
<line opacity="0.1" stroke="#000000" stroke-width="1" x1="463" y1="699" x2="463" y2="68"/>
<line opacity="0.1" stroke="#000000" stroke-width="1" x1="472" y1="699" x2="472" y2="68"/>
<line opacity="0.1" stroke="#000000" stroke-width="1" x1="481" y1="699" x2="481" y2="68"/>
<line opacity="0.1" stroke="#000000" stroke-width="1" x1="490" y1="699" x2="490" y2="68"/>
<line opacity="0.1" stroke="#000000" stroke-width="1" x1="499" y1="699" x2="499" y2="68"/>
<line opacity="0.1" stroke="#000000" stroke-width="1" x1="508" y1="699" x2="508" y2="68"/>
<line opacity="0.1" stroke="#000000" stroke-width="1" x1="517" y1="699" x2="517" y2="68"/>
<line opacity="0.1" stroke="#000000" stroke-width="1" x1="526" y1="699" x2="526" y2="68"/>
<line opacity="0.1" stroke="#000000" stroke-width="1" x1="534" y1="699" x2="534" y2="68"/>
<line opacity="0.1" stroke="#000000" stroke-width="1" x1="543" y1="699" x2="543" y2="68"/>
<line opacity="0.1" stroke="#000000" stroke-width="1" x1="552" y1="699" x2="552" y2="68"/>
<line opacity="0.1" stroke="#000000" stroke-width="1" x1="561" y1="699" x2="561" y2="68"/>
<line opacity="0.1" stroke="#000000" stroke-width="1" x1="570" y1="699" x2="570" y2="68"/>
<line opacity="0.1" stroke="#000000" stroke-width="1" x1="579" y1="699" x2="579" y2="68"/>
<line opacity="0.1" stroke="#000000" stroke-width="1" x1="588" y1="699" x2="588" y2="68"/>
<line opacity="0.1" stroke="#000000" stroke-width="1" x1="597" y1="699" x2="597" y2="68"/>
<line opacity="0.1" stroke="#000000" stroke-width="1" x1="606" y1="699" x2="606" y2="68"/>
<line opacity="0.1" stroke="#000000" stroke-width="1" x1="615" y1="699" x2="615" y2="68"/>
<line opacity="0.1" stroke="#000000" stroke-width="1" x1="624" y1="699" x2="624" y2="68"/>
<line opacity="0.1" stroke="#000000" stroke-width="1" x1="633" y1="699" x2="633" y2="68"/>
<line opacity="0.1" stroke="#000000" stroke-width="1" x1="642" y1="699" x2="642" y2="68"/>
<line opacity="0.1" stroke="#000000" stroke-width="1" x1="651" y1="699" x2="651" y2="68"/>
<line opacity="0.1" stroke="#000000" stroke-width="1" x1="660" y1="699" x2="660" y2="68"/>
<line opacity="0.1" stroke="#000000" stroke-width="1" x1="669" y1="699" x2="669" y2="68"/>
<line opacity="0.1" stroke="#000000" stroke-width="1" x1="677" y1="699" x2="677" y2="68"/>
<line opacity="0.1" stroke="#000000" stroke-width="1" x1="686" y1="699" x2="686" y2="68"/>
<line opacity="0.1" stroke="#000000" stroke-width="1" x1="695" y1="699" x2="695" y2="68"/>
<line opacity="0.1" stroke="#000000" stroke-width="1" x1="704" y1="699" x2="704" y2="68"/>
<line opacity="0.1" stroke="#000000" stroke-width="1" x1="713" y1="699" x2="713" y2="68"/>
<line opacity="0.1" stroke="#000000" stroke-width="1" x1="722" y1="699" x2="722" y2="68"/>
<line opacity="0.1" stroke="#000000" stroke-width="1" x1="731" y1="699" x2="731" y2="68"/>
<line opacity="0.1" stroke="#000000" stroke-width="1" x1="740" y1="699" x2="740" y2="68"/>
<line opacity="0.1" stroke="#000000" stroke-width="1" x1="749" y1="699" x2="749" y2="68"/>
<line opacity="0.1" stroke="#000000" stroke-width="1" x1="758" y1="699" x2="758" y2="68"/>
<line opacity="0.1" stroke="#000000" stroke-width="1" x1="767" y1="699" x2="767" y2="68"/>
<line opacity="0.1" stroke="#000000" stroke-width="1" x1="776" y1="699" x2="776" y2="68"/>
<line opacity="0.1" stroke="#000000" stroke-width="1" x1="785" y1="699" x2="785" y2="68"/>
<line opacity="0.1" stroke="#000000" stroke-width="1" x1="794" y1="699" x2="794" y2="68"/>
<line opacity="0.1" stroke="#000000" stroke-width="1" x1="803" y1="699" x2="803" y2="68"/>
<line opacity="0.1" stroke="#000000" stroke-width="1" x1="812" y1="699" x2="812" y2="68"/>
<line opacity="0.1" stroke="#000000" stroke-width="1" x1="821" y1="699" x2="821" y2="68"/>
<line opacity="0.1" stroke="#000000" stroke-width="1" x1="829" y1="699" x2="829" y2="68"/>
<line opacity="0.1" stroke="#000000" stroke-width="1" x1="838" y1="699" x2="838" y2="68"/>
<line opacity="0.1" stroke="#000000" stroke-width="1" x1="847" y1="699" x2="847" y2="68"/>
<line opacity="0.1" stroke="#000000" stroke-width="1" x1="856" y1="699" x2="856" y2="68"/>
<line opacity="0.1" stroke="#000000" stroke-width="1" x1="865" y1="699" x2="865" y2="68"/>
<line opacity="0.1" stroke="#000000" stroke-width="1" x1="874" y1="699" x2="874" y2="68"/>
<line opacity="0.1" stroke="#000000" stroke-width="1" x1="883" y1="699" x2="883" y2="68"/>
<line opacity="0.1" stroke="#000000" stroke-width="1" x1="892" y1="699" x2="892" y2="68"/>
<line opacity="0.1" stroke="#000000" stroke-width="1" x1="901" y1="699" x2="901" y2="68"/>
<line opacity="0.1" stroke="#000000" stroke-width="1" x1="910" y1="699" x2="910" y2="68"/>
<line opacity="0.1" stroke="#000000" stroke-width="1" x1="919" y1="699" x2="919" y2="68"/>
<line opacity="0.1" stroke="#000000" stroke-width="1" x1="928" y1="699" x2="928" y2="68"/>
<line opacity="0.1" stroke="#000000" stroke-width="1" x1="937" y1="699" x2="937" y2="68"/>
<line opacity="0.1" stroke="#000000" stroke-width="1" x1="946" y1="699" x2="946" y2="68"/>
<line opacity="0.1" stroke="#000000" stroke-width="1" x1="955" y1="699" x2="955" y2="68"/>
<line opacity="0.1" stroke="#000000" stroke-width="1" x1="964" y1="699" x2="964" y2="68"/>
<line opacity="0.1" stroke="#000000" stroke-width="1" x1="78" y1="699" x2="973" y2="699"/>
<line opacity="0.1" stroke="#000000" stroke-width="1" x1="78" y1="689" x2="973" y2="689"/>
<line opacity="0.1" stroke="#000000" stroke-width="1" x1="78" y1="679" x2="973" y2="679"/>
<line opacity="0.1" stroke="#000000" stroke-width="1" x1="78" y1="669" x2="973" y2="669"/>
<line opacity="0.1" stroke="#000000" stroke-width="1" x1="78" y1="660" x2="973" y2="660"/>
<line opacity="0.1" stroke="#000000" stroke-width="1" x1="78" y1="650" x2="973" y2="650"/>
<line opacity="0.1" stroke="#000000" stroke-width="1" x1="78" y1="640" x2="973" y2="640"/>
<line opacity="0.1" stroke="#000000" stroke-width="1" x1="78" y1="630" x2="973" y2="630"/>
<line opacity="0.1" stroke="#000000" stroke-width="1" x1="78" y1="621" x2="973" y2="621"/>
<line opacity="0.1" stroke="#000000" stroke-width="1" x1="78" y1="611" x2="973" y2="611"/>
<line opacity="0.1" stroke="#000000" stroke-width="1" x1="78" y1="601" x2="973" y2="601"/>
<line opacity="0.1" stroke="#000000" stroke-width="1" x1="78" y1="592" x2="973" y2="592"/>
<line opacity="0.1" stroke="#000000" stroke-width="1" x1="78" y1="582" x2="973" y2="582"/>
<line opacity="0.1" stroke="#000000" stroke-width="1" x1="78" y1="572" x2="973" y2="572"/>
<line opacity="0.1" stroke="#000000" stroke-width="1" x1="78" y1="562" x2="973" y2="562"/>
<line opacity="0.1" stroke="#000000" stroke-width="1" x1="78" y1="553" x2="973" y2="553"/>
<line opacity="0.1" stroke="#000000" stroke-width="1" x1="78" y1="543" x2="973" y2="543"/>
<line opacity="0.1" stroke="#000000" stroke-width="1" x1="78" y1="533" x2="973" y2="533"/>
<line opacity="0.1" stroke="#000000" stroke-width="1" x1="78" y1="524" x2="973" y2="524"/>
<line opacity="0.1" stroke="#000000" stroke-width="1" x1="78" y1="514" x2="973" y2="514"/>
<line opacity="0.1" stroke="#000000" stroke-width="1" x1="78" y1="504" x2="973" y2="504"/>
<line opacity="0.1" stroke="#000000" stroke-width="1" x1="78" y1="494" x2="973" y2="494"/>
<line opacity="0.1" stroke="#000000" stroke-width="1" x1="78" y1="485" x2="973" y2="485"/>
<line opacity="0.1" stroke="#000000" stroke-width="1" x1="78" y1="475" x2="973" y2="475"/>
<line opacity="0.1" stroke="#000000" stroke-width="1" x1="78" y1="465" x2="973" y2="465"/>
<line opacity="0.1" stroke="#000000" stroke-width="1" x1="78" y1="455" x2="973" y2="455"/>
<line opacity="0.1" stroke="#000000" stroke-width="1" x1="78" y1="446" x2="973" y2="446"/>
<line opacity="0.1" stroke="#000000" stroke-width="1" x1="78" y1="436" x2="973" y2="436"/>
<line opacity="0.1" stroke="#000000" stroke-width="1" x1="78" y1="426" x2="973" y2="426"/>
<line opacity="0.1" stroke="#000000" stroke-width="1" x1="78" y1="417" x2="973" y2="417"/>
<line opacity="0.1" stroke="#000000" stroke-width="1" x1="78" y1="407" x2="973" y2="407"/>
<line opacity="0.1" stroke="#000000" stroke-width="1" x1="78" y1="397" x2="973" y2="397"/>
<line opacity="0.1" stroke="#000000" stroke-width="1" x1="78" y1="387" x2="973" y2="387"/>
<line opacity="0.1" stroke="#000000" stroke-width="1" x1="78" y1="378" x2="973" y2="378"/>
<line opacity="0.1" stroke="#000000" stroke-width="1" x1="78" y1="368" x2="973" y2="368"/>
<line opacity="0.1" stroke="#000000" stroke-width="1" x1="78" y1="358" x2="973" y2="358"/>
<line opacity="0.1" stroke="#000000" stroke-width="1" x1="78" y1="349" x2="973" y2="349"/>
<line opacity="0.1" stroke="#000000" stroke-width="1" x1="78" y1="339" x2="973" y2="339"/>
<line opacity="0.1" stroke="#000000" stroke-width="1" x1="78" y1="329" x2="973" y2="329"/>
<line opacity="0.1" stroke="#000000" stroke-width="1" x1="78" y1="319" x2="973" y2="319"/>
<line opacity="0.1" stroke="#000000" stroke-width="1" x1="78" y1="310" x2="973" y2="310"/>
<line opacity="0.1" stroke="#000000" stroke-width="1" x1="78" y1="300" x2="973" y2="300"/>
<line opacity="0.1" stroke="#000000" stroke-width="1" x1="78" y1="290" x2="973" y2="290"/>
<line opacity="0.1" stroke="#000000" stroke-width="1" x1="78" y1="281" x2="973" y2="281"/>
<line opacity="0.1" stroke="#000000" stroke-width="1" x1="78" y1="271" x2="973" y2="271"/>
<line opacity="0.1" stroke="#000000" stroke-width="1" x1="78" y1="261" x2="973" y2="261"/>
<line opacity="0.1" stroke="#000000" stroke-width="1" x1="78" y1="251" x2="973" y2="251"/>
<line opacity="0.1" stroke="#000000" stroke-width="1" x1="78" y1="242" x2="973" y2="242"/>
<line opacity="0.1" stroke="#000000" stroke-width="1" x1="78" y1="232" x2="973" y2="232"/>
<line opacity="0.1" stroke="#000000" stroke-width="1" x1="78" y1="222" x2="973" y2="222"/>
<line opacity="0.1" stroke="#000000" stroke-width="1" x1="78" y1="212" x2="973" y2="212"/>
<line opacity="0.1" stroke="#000000" stroke-width="1" x1="78" y1="203" x2="973" y2="203"/>
<line opacity="0.1" stroke="#000000" stroke-width="1" x1="78" y1="193" x2="973" y2="193"/>
<line opacity="0.1" stroke="#000000" stroke-width="1" x1="78" y1="183" x2="973" y2="183"/>
<line opacity="0.1" stroke="#000000" stroke-width="1" x1="78" y1="174" x2="973" y2="174"/>
<line opacity="0.1" stroke="#000000" stroke-width="1" x1="78" y1="164" x2="973" y2="164"/>
<line opacity="0.1" stroke="#000000" stroke-width="1" x1="78" y1="154" x2="973" y2="154"/>
<line opacity="0.1" stroke="#000000" stroke-width="1" x1="78" y1="144" x2="973" y2="144"/>
<line opacity="0.1" stroke="#000000" stroke-width="1" x1="78" y1="135" x2="973" y2="135"/>
<line opacity="0.1" stroke="#000000" stroke-width="1" x1="78" y1="125" x2="973" y2="125"/>
<line opacity="0.1" stroke="#000000" stroke-width="1" x1="78" y1="115" x2="973" y2="115"/>
<line opacity="0.1" stroke="#000000" stroke-width="1" x1="78" y1="106" x2="973" y2="106"/>
<line opacity="0.1" stroke="#000000" stroke-width="1" x1="78" y1="96" x2="973" y2="96"/>
<line opacity="0.1" stroke="#000000" stroke-width="1" x1="78" y1="86" x2="973" y2="86"/>
<line opacity="0.1" stroke="#000000" stroke-width="1" x1="78" y1="76" x2="973" y2="76"/>
<text x="8" y="384" dy="0.76em" text-anchor="middle" font-family="sans-serif" font-size="9.67741935483871" opacity="1" fill="#000000" transform="rotate(270, 8, 384)">
Memory usage
</text>
<text x="526" y="760" dy="-0.5ex" text-anchor="middle" font-family="sans-serif" font-size="9.67741935483871" opacity="1" fill="#000000">
Time
</text>
<line opacity="0.2" stroke="#000000" stroke-width="1" x1="96" y1="699" x2="96" y2="68"/>
<line opacity="0.2" stroke="#000000" stroke-width="1" x1="186" y1="699" x2="186" y2="68"/>
<line opacity="0.2" stroke="#000000" stroke-width="1" x1="275" y1="699" x2="275" y2="68"/>
<line opacity="0.2" stroke="#000000" stroke-width="1" x1="365" y1="699" x2="365" y2="68"/>
<line opacity="0.2" stroke="#000000" stroke-width="1" x1="454" y1="699" x2="454" y2="68"/>
<line opacity="0.2" stroke="#000000" stroke-width="1" x1="543" y1="699" x2="543" y2="68"/>
<line opacity="0.2" stroke="#000000" stroke-width="1" x1="633" y1="699" x2="633" y2="68"/>
<line opacity="0.2" stroke="#000000" stroke-width="1" x1="722" y1="699" x2="722" y2="68"/>
<line opacity="0.2" stroke="#000000" stroke-width="1" x1="812" y1="699" x2="812" y2="68"/>
<line opacity="0.2" stroke="#000000" stroke-width="1" x1="901" y1="699" x2="901" y2="68"/>
<line opacity="0.2" stroke="#000000" stroke-width="1" x1="78" y1="699" x2="973" y2="699"/>
<line opacity="0.2" stroke="#000000" stroke-width="1" x1="78" y1="601" x2="973" y2="601"/>
<line opacity="0.2" stroke="#000000" stroke-width="1" x1="78" y1="504" x2="973" y2="504"/>
<line opacity="0.2" stroke="#000000" stroke-width="1" x1="78" y1="407" x2="973" y2="407"/>
<line opacity="0.2" stroke="#000000" stroke-width="1" x1="78" y1="310" x2="973" y2="310"/>
<line opacity="0.2" stroke="#000000" stroke-width="1" x1="78" y1="212" x2="973" y2="212"/>
<line opacity="0.2" stroke="#000000" stroke-width="1" x1="78" y1="115" x2="973" y2="115"/>
<polyline fill="none" opacity="1" stroke="#000000" stroke-width="1" points="77,68 77,699 "/>
<text x="68" y="699" dy="0.5ex" text-anchor="end" font-family="sans-serif" font-size="9.67741935483871" opacity="1" fill="#000000">
0.00 MB
</text>
<polyline fill="none" opacity="1" stroke="#000000" stroke-width="1" points="72,699 77,699 "/>
<text x="68" y="601" dy="0.5ex" text-anchor="end" font-family="sans-serif" font-size="9.67741935483871" opacity="1" fill="#000000">
0.19 MB
</text>
<polyline fill="none" opacity="1" stroke="#000000" stroke-width="1" points="72,601 77,601 "/>
<text x="68" y="504" dy="0.5ex" text-anchor="end" font-family="sans-serif" font-size="9.67741935483871" opacity="1" fill="#000000">
0.38 MB
</text>
<polyline fill="none" opacity="1" stroke="#000000" stroke-width="1" points="72,504 77,504 "/>
<text x="68" y="407" dy="0.5ex" text-anchor="end" font-family="sans-serif" font-size="9.67741935483871" opacity="1" fill="#000000">
0.57 MB
</text>
<polyline fill="none" opacity="1" stroke="#000000" stroke-width="1" points="72,407 77,407 "/>
<text x="68" y="310" dy="0.5ex" text-anchor="end" font-family="sans-serif" font-size="9.67741935483871" opacity="1" fill="#000000">
0.76 MB
</text>
<polyline fill="none" opacity="1" stroke="#000000" stroke-width="1" points="72,310 77,310 "/>
<text x="68" y="212" dy="0.5ex" text-anchor="end" font-family="sans-serif" font-size="9.67741935483871" opacity="1" fill="#000000">
0.95 MB
</text>
<polyline fill="none" opacity="1" stroke="#000000" stroke-width="1" points="72,212 77,212 "/>
<text x="68" y="115" dy="0.5ex" text-anchor="end" font-family="sans-serif" font-size="9.67741935483871" opacity="1" fill="#000000">
1.14 MB
</text>
<polyline fill="none" opacity="1" stroke="#000000" stroke-width="1" points="72,115 77,115 "/>
<polyline fill="none" opacity="1" stroke="#000000" stroke-width="1" points="78,700 973,700 "/>
<text x="96" y="710" dy="0.76em" text-anchor="middle" font-family="sans-serif" font-size="9.67741935483871" opacity="1" fill="#000000">
02:04:17
</text>
<polyline fill="none" opacity="1" stroke="#000000" stroke-width="1" points="96,700 96,705 "/>
<text x="186" y="710" dy="0.76em" text-anchor="middle" font-family="sans-serif" font-size="9.67741935483871" opacity="1" fill="#000000">
02:04:18
</text>
<polyline fill="none" opacity="1" stroke="#000000" stroke-width="1" points="186,700 186,705 "/>
<text x="275" y="710" dy="0.76em" text-anchor="middle" font-family="sans-serif" font-size="9.67741935483871" opacity="1" fill="#000000">
02:04:19
</text>
<polyline fill="none" opacity="1" stroke="#000000" stroke-width="1" points="275,700 275,705 "/>
<text x="365" y="710" dy="0.76em" text-anchor="middle" font-family="sans-serif" font-size="9.67741935483871" opacity="1" fill="#000000">
02:04:20
</text>
<polyline fill="none" opacity="1" stroke="#000000" stroke-width="1" points="365,700 365,705 "/>
<text x="454" y="710" dy="0.76em" text-anchor="middle" font-family="sans-serif" font-size="9.67741935483871" opacity="1" fill="#000000">
02:04:21
</text>
<polyline fill="none" opacity="1" stroke="#000000" stroke-width="1" points="454,700 454,705 "/>
<text x="543" y="710" dy="0.76em" text-anchor="middle" font-family="sans-serif" font-size="9.67741935483871" opacity="1" fill="#000000">
02:04:22
</text>
<polyline fill="none" opacity="1" stroke="#000000" stroke-width="1" points="543,700 543,705 "/>
<text x="633" y="710" dy="0.76em" text-anchor="middle" font-family="sans-serif" font-size="9.67741935483871" opacity="1" fill="#000000">
02:04:23
</text>
<polyline fill="none" opacity="1" stroke="#000000" stroke-width="1" points="633,700 633,705 "/>
<text x="722" y="710" dy="0.76em" text-anchor="middle" font-family="sans-serif" font-size="9.67741935483871" opacity="1" fill="#000000">
02:04:24
</text>
<polyline fill="none" opacity="1" stroke="#000000" stroke-width="1" points="722,700 722,705 "/>
<text x="812" y="710" dy="0.76em" text-anchor="middle" font-family="sans-serif" font-size="9.67741935483871" opacity="1" fill="#000000">
02:04:25
</text>
<polyline fill="none" opacity="1" stroke="#000000" stroke-width="1" points="812,700 812,705 "/>
<text x="901" y="710" dy="0.76em" text-anchor="middle" font-family="sans-serif" font-size="9.67741935483871" opacity="1" fill="#000000">
02:04:26
</text>
<polyline fill="none" opacity="1" stroke="#000000" stroke-width="1" points="901,700 901,705 "/>
<polyline fill="none" opacity="1" stroke="#000000" stroke-width="1" points="78,67 974,67 "/>
<text x="96" y="58" dy="-0.5ex" text-anchor="middle" font-family="sans-serif" font-size="9.67741935483871" opacity="1" fill="#000000">
+265ms
</text>
<polyline fill="none" opacity="1" stroke="#000000" stroke-width="1" points="96,62 96,67 "/>
<text x="186" y="58" dy="-0.5ex" text-anchor="middle" font-family="sans-serif" font-size="9.67741935483871" opacity="1" fill="#000000">
+1s
</text>
<polyline fill="none" opacity="1" stroke="#000000" stroke-width="1" points="186,62 186,67 "/>
<text x="275" y="58" dy="-0.5ex" text-anchor="middle" font-family="sans-serif" font-size="9.67741935483871" opacity="1" fill="#000000">
+2s
</text>
<polyline fill="none" opacity="1" stroke="#000000" stroke-width="1" points="275,62 275,67 "/>
<text x="365" y="58" dy="-0.5ex" text-anchor="middle" font-family="sans-serif" font-size="9.67741935483871" opacity="1" fill="#000000">
+3s
</text>
<polyline fill="none" opacity="1" stroke="#000000" stroke-width="1" points="365,62 365,67 "/>
<text x="454" y="58" dy="-0.5ex" text-anchor="middle" font-family="sans-serif" font-size="9.67741935483871" opacity="1" fill="#000000">
+4s
</text>
<polyline fill="none" opacity="1" stroke="#000000" stroke-width="1" points="454,62 454,67 "/>
<text x="544" y="58" dy="-0.5ex" text-anchor="middle" font-family="sans-serif" font-size="9.67741935483871" opacity="1" fill="#000000">
+5s
</text>
<polyline fill="none" opacity="1" stroke="#000000" stroke-width="1" points="544,62 544,67 "/>
<text x="633" y="58" dy="-0.5ex" text-anchor="middle" font-family="sans-serif" font-size="9.67741935483871" opacity="1" fill="#000000">
+6s
</text>
<polyline fill="none" opacity="1" stroke="#000000" stroke-width="1" points="633,62 633,67 "/>
<text x="723" y="58" dy="-0.5ex" text-anchor="middle" font-family="sans-serif" font-size="9.67741935483871" opacity="1" fill="#000000">
+7s
</text>
<polyline fill="none" opacity="1" stroke="#000000" stroke-width="1" points="723,62 723,67 "/>
<text x="812" y="58" dy="-0.5ex" text-anchor="middle" font-family="sans-serif" font-size="9.67741935483871" opacity="1" fill="#000000">
+8s
</text>
<polyline fill="none" opacity="1" stroke="#000000" stroke-width="1" points="812,62 812,67 "/>
<text x="902" y="58" dy="-0.5ex" text-anchor="middle" font-family="sans-serif" font-size="9.67741935483871" opacity="1" fill="#000000">
+9s
</text>
<polyline fill="none" opacity="1" stroke="#000000" stroke-width="1" points="902,62 902,67 "/>
</svg>
