<svg width="1024" height="768" viewBox="0 0 1024 768" xmlns="http://www.w3.org/2000/svg">
<rect x="0" y="0" width="1024" height="768" opacity="1" fill="#FFFFFF" stroke="none"/>
<polygon opacity="1" fill="#E6194B" points="78,698 78,693 79,684 80,684 81,680 82,683 83,684 84,687 85,685 86,686 86,688 87,685 88,686 89,667 90,671 91,664 92,658 93,664 94,663 95,663 95,666 96,673 97,674 98,674 99,676 100,676 101,678 102,676 103,680 103,678 104,676 105,676 106,674 107,674 108,675 109,668 110,667 111,660 112,655 112,658 113,662 114,667 115,667 116,664 117,655 118,651 119,640 120,637 120,647 121,656 122,659 123,660 124,659 125,651 126,645 127,640 128,637 129,637 129,636 130,637 131,645 132,644 133,641 134,636 135,635 136,634 137,639 137,632 138,623 139,619 140,618 141,619 142,612 143,609 144,603 145,599 146,600 146,595 147,586 148,583 149,582 150,572 151,569 152,568 153,576 154,571 154,568 155,566 156,568 157,568 158,562 159,561 160,555 161,555 162,561 163,563 163,560 164,555 165,551 166,550 167,549 168,541 169,534 170,541 171,537 171,540 172,545 173,544 174,549 175,542 176,533 177,530 178,530 179,531 180,531 180,530 181,530 182,527 183,519 184,521 185,525 186,532 187,532 188,533 188,522 189,519 190,516 191,515 192,518 193,520 194,514 195,515 196,518 197,516 197,509 198,508 199,507 200,503 201,504 202,510 203,508 204,502 205,500 205,500 206,501 207,503 208,501 209,506 210,511 211,515 212,520 213,521 214,512 214,509 215,499 216,501 217,520 218,524 219,521 220,515 221,525 222,523 222,520 223,521 224,518 225,505 226,502 227,507 228,506 229,506 230,512 231,517 231,521 232,513 233,515 234,512 235,513 236,519 237,518 238,514 239,518 239,517 240,519 241,520 242,514 243,512 244,509 245,503 246,504 247,510 248,509 248,515 249,512 250,518 251,517 252,520 253,515 254,517 255,518 256,516 257,507 257,504 258,511 259,510 260,513 261,505 262,499 263,499 264,503 265,502 265,508 266,502 267,494 268,494 269,497 270,494 271,498 272,497 273,491 274,488 274,485 275,488 276,489 277,485 278,483 279,485 280,486 281,490 282,488 282,490 283,488 284,478 285,479 286,479 287,484 288,486 289,480 290,483 291,486 291,488 292,487 293,496 294,499 295,492 296,491 297,489 298,481 299,479 299,482 300,485 301,483 302,474 303,477 304,481 305,481 306,489 307,488 308,490 308,494 309,494 310,499 311,496 312,493 313,491 314,487 315,490 316,487 316,489 317,489 318,489 319,479 320,474 321,469 322,468 323,464 324,462 325,465 325,464 326,455 327,451 328,442 329,442 330,452 331,457 332,457 333,458 333,458 334,453 335,453 336,445 337,449 338,454 339,455 340,458 341,452 342,450 342,456 343,458 344,459 345,462 346,463 347,469 348,469 349,474 350,472 350,471 351,467 352,466 353,469 354,471 355,474 356,474 357,474 358,481 359,492 359,484 360,489 361,491 362,486 363,487 364,492 365,489 366,487 367,482 367,477 368,478 369,476 370,482 371,484 372,480 373,479 374,472 375,471 376,472 376,475 377,478 378,482 379,479 380,476 381,473 382,467 383,462 384,461 384,464 385,467 386,462 387,467 388,465 389,466 390,461 391,454 392,449 393,448 393,439 394,441 395,448 396,453 397,463 398,464 399,475 400,471 401,473 401,461 402,462 403,479 404,477 405,471 406,471 407,459 408,455 409,456 410,459 410,465 411,462 412,461 413,464 414,473 415,471 416,466 417,466 418,467 418,468 419,468 420,475 421,472 422,468 423,472 424,477 425,474 426,468 427,470 427,462 428,467 429,463 430,465 431,467 432,469 433,458 434,455 435,458 436,445 436,441 437,437 438,438 439,430 440,429 441,432 442,432 443,431 444,430 444,435 445,435 446,428 447,422 448,424 449,421 450,427 451,429 452,431 453,429 453,431 454,432 455,440 456,430 457,433 458,418 459,418 460,417 461,419 461,414 462,410 463,409 464,408 465,410 466,412 467,416 468,408 469,402 470,401 470,404 471,406 472,397 473,396 474,398 475,401 476,409 477,404 478,398 478,397 479,397 480,397 481,409 482,410 483,410 484,410 485,413 486,414 487,417 487,418 488,412 489,415 490,416 491,418 492,420 493,411 494,410 495,414 495,413 496,415 497,411 498,409 499,417 500,413 501,410 502,411 503,420 504,417 504,415 505,415 506,408 507,411 508,412 509,405 510,405 511,403 512,399 512,399 513,401 514,399 515,399 516,405 517,403 518,400 519,398 520,408 521,395 521,399 522,397 523,402 524,405 525,399 526,398 527,404 528,411 529,419 529,419 530,413 531,413 532,413 533,414 534,415 535,421 536,420 537,422 538,429 538,428 539,424 540,421 541,422 542,418 543,422 544,423 545,420 546,418 546,423 547,421 548,417 549,418 550,421 551,422 552,429 553,435 554,435 555,436 555,427 556,427 557,430 558,429 559,429 560,430 561,428 562,421 563,421 563,429 564,429 565,426 566,428 567,428 568,431 569,430 570,426 571,422 572,426 572,428 573,415 574,414 575,412 576,417 577,411 578,406 579,400 580,396 580,402 581,404 582,400 583,398 584,403 585,401 586,399 587,405 588,403 589,390 589,390 590,388 591,397 592,400 593,405 594,401 595,400 596,403 597,396 597,392 598,396 599,395 600,402 601,403 602,401 603,398 604,398 605,395 606,392 606,383 607,377 608,379 609,376 610,374 611,369 612,368 613,380 614,378 615,377 615,378 616,377 617,370 618,366 619,377 620,375 621,372 622,372 623,380 623,376 624,354 625,357 626,356 627,361 628,362 629,360 630,356 631,364 632,356 632,353 633,353 634,354 635,364 636,366 637,360 638,359 639,359 640,363 640,363 641,364 642,361 643,366 644,363 645,367 646,365 647,368 648,368 649,357 649,354 650,352 651,348 652,343 653,340 654,342 655,341 656,342 657,338 657,340 658,342 659,342 660,339 661,337 662,340 663,344 664,338 665,332 666,331 666,331 667,332 668,331 669,332 670,329 671,329 672,328 673,326 674,328 674,328 675,324 676,320 677,325 678,324 679,329 680,331 681,326 682,322 683,319 683,320 684,318 685,318 686,310 687,298 688,302 689,301 690,300 691,302 691,299 692,300 693,296 694,299 695,287 696,287 697,295 698,288 699,288 700,297 700,309 701,309 702,310 703,312 704,322 705,317 706,316 707,311 708,307 708,305 709,309 710,307 711,305 712,300 713,294 714,286 715,288 716,293 717,304 717,307 718,309 719,301 720,300 721,294 722,290 723,287 724,287 725,288 725,287 726,284 727,284 728,285 729,281 730,279 731,277 732,275 733,280 734,284 734,279 735,272 736,272 737,271 738,277 739,271 740,275 741,280 742,282 742,284 743,287 744,286 745,282 746,282 747,280 748,273 749,265 750,266 751,271 751,273 752,273 753,280 754,280 755,275 756,279 757,281 758,285 759,293 759,303 760,293 761,285 762,281 763,274 764,265 765,263 766,265 767,263 768,261 768,263 769,266 770,271 771,265 772,269 773,265 774,266 775,261 776,255 776,251 777,248 778,249 779,249 780,256 781,253 782,253 783,261 784,264 785,266 785,264 786,252 787,250 788,262 789,263 790,258 791,254 792,249 793,250 794,243 794,238 795,240 796,237 797,229 798,230 799,231 800,227 801,227 802,230 802,240 803,244 804,241 805,248 806,243 807,248 808,250 809,252 810,247 811,248 811,247 812,250 813,240 814,234 815,234 816,239 817,235 818,226 819,226 819,233 820,239 821,235 822,234 823,232 824,233 825,220 826,218 827,225 828,229 828,232 829,228 830,228 831,224 832,221 833,218 834,211 835,204 836,198 836,195 837,188 838,186 839,187 840,189 841,201 842,205 843,199 844,198 845,190 845,189 846,188 847,195 848,192 849,186 850,195 851,193 852,188 853,190 853,171 854,174 855,174 856,174 857,170 858,160 859,160 860,159 861,158 862,159 862,168 863,172 864,177 865,179 866,177 867,174 868,168 869,169 870,155 870,150 871,154 872,160 873,158 874,163 875,161 876,149 877,151 878,157 879,156 879,153 880,154 881,153 882,151 883,155 884,156 885,161 886,155 887,153 887,147 888,149 889,144 890,148 891,147 892,145 893,137 894,138 895,148 896,134 896,132 897,138 898,139 899,144 900,145 901,146 902,153 903,152 904,150 904,141 905,150 906,161 907,164 908,163 909,159 910,154 911,150 912,145 913,141 913,138 914,136 915,125 916,122 917,135 918,135 919,134 920,141 921,139 921,142 922,142 923,140 924,138 925,126 926,126 927,125 928,128 929,133 930,136 930,131 931,127 932,115 933,118 934,117 935,121 936,129 937,118 938,113 938,109 939,104 940,105 941,110 942,118 943,117 944,121 945,120 946,113 947,104 947,102 948,97 949,96 950,96 951,97 952,104 953,105 954,102 955,97 955,97 956,105 957,111 958,108 959,94 960,85 961,80 962,70 963,71 964,72 964,69 965,68 966,68 967,75 968,76 969,84 970,91 971,81 972,73 973,74 973,458 973,458 973,699 78,699 "/>
<polyline fill="none" opacity="1" stroke="#E6194B" stroke-width="1" points="78,698 78,693 79,684 80,684 81,680 82,683 83,684 84,687 85,685 86,686 86,688 87,685 88,686 89,667 90,671 91,664 92,658 93,664 94,663 95,663 95,666 96,673 97,674 98,674 99,676 100,676 101,678 102,676 103,680 103,678 104,676 105,676 106,674 107,674 108,675 109,668 110,667 111,660 112,655 112,658 113,662 114,667 115,667 116,664 117,655 118,651 119,640 120,637 120,647 121,656 122,659 123,660 124,659 125,651 126,645 127,640 128,637 129,637 129,636 130,637 131,645 132,644 133,641 134,636 135,635 136,634 137,639 137,632 138,623 139,619 140,618 141,619 142,612 143,609 144,603 145,599 146,600 146,595 147,586 148,583 149,582 150,572 151,569 152,568 153,576 154,571 154,568 155,566 156,568 157,568 158,562 159,561 160,555 161,555 162,561 163,563 163,560 164,555 165,551 166,550 167,549 168,541 169,534 170,541 171,537 171,540 172,545 173,544 174,549 175,542 176,533 177,530 178,530 179,531 180,531 180,530 181,530 182,527 183,519 184,521 185,525 186,532 187,532 188,533 188,522 189,519 190,516 191,515 192,518 193,520 194,514 195,515 196,518 197,516 197,509 198,508 199,507 200,503 201,504 202,510 203,508 204,502 205,500 205,500 206,501 207,503 208,501 209,506 210,511 211,515 212,520 213,521 214,512 214,509 215,499 216,501 217,520 218,524 219,521 220,515 221,525 222,523 222,520 223,521 224,518 225,505 226,502 227,507 228,506 229,506 230,512 231,517 231,521 232,513 233,515 234,512 235,513 236,519 237,518 238,514 239,518 239,517 240,519 241,520 242,514 243,512 244,509 245,503 246,504 247,510 248,509 248,515 249,512 250,518 251,517 252,520 253,515 254,517 255,518 256,516 257,507 257,504 258,511 259,510 260,513 261,505 262,499 263,499 264,503 265,502 265,508 266,502 267,494 268,494 269,497 270,494 271,498 272,497 273,491 274,488 274,485 275,488 276,489 277,485 278,483 279,485 280,486 281,490 282,488 282,490 283,488 284,478 285,479 286,479 287,484 288,486 289,480 290,483 291,486 291,488 292,487 293,496 294,499 295,492 296,491 297,489 298,481 299,479 299,482 300,485 301,483 302,474 303,477 304,481 305,481 306,489 307,488 308,490 308,494 309,494 310,499 311,496 312,493 313,491 314,487 315,490 316,487 316,489 317,489 318,489 319,479 320,474 321,469 322,468 323,464 324,462 325,465 325,464 326,455 327,451 328,442 329,442 330,452 331,457 332,457 333,458 333,458 334,453 335,453 336,445 337,449 338,454 339,455 340,458 341,452 342,450 342,456 343,458 344,459 345,462 346,463 347,469 348,469 349,474 350,472 350,471 351,467 352,466 353,469 354,471 355,474 356,474 357,474 358,481 359,492 359,484 360,489 361,491 362,486 363,487 364,492 365,489 366,487 367,482 367,477 368,478 369,476 370,482 371,484 372,480 373,479 374,472 375,471 376,472 376,475 377,478 378,482 379,479 380,476 381,473 382,467 383,462 384,461 384,464 385,467 386,462 387,467 388,465 389,466 390,461 391,454 392,449 393,448 393,439 394,441 395,448 396,453 397,463 398,464 399,475 400,471 401,473 401,461 402,462 403,479 404,477 405,471 406,471 407,459 408,455 409,456 410,459 410,465 411,462 412,461 413,464 414,473 415,471 416,466 417,466 418,467 418,468 419,468 420,475 421,472 422,468 423,472 424,477 425,474 426,468 427,470 427,462 428,467 429,463 430,465 431,467 432,469 433,458 434,455 435,458 436,445 436,441 437,437 438,438 439,430 440,429 441,432 442,432 443,431 444,430 444,435 445,435 446,428 447,422 448,424 449,421 450,427 451,429 452,431 453,429 453,431 454,432 455,440 456,430 457,433 458,418 459,418 460,417 461,419 461,414 462,410 463,409 464,408 465,410 466,412 467,416 468,408 469,402 470,401 470,404 471,406 472,397 473,396 474,398 475,401 476,409 477,404 478,398 478,397 479,397 480,397 481,409 482,410 483,410 484,410 485,413 486,414 487,417 487,418 488,412 489,415 490,416 491,418 492,420 493,411 494,410 495,414 495,413 496,415 497,411 498,409 499,417 500,413 501,410 502,411 503,420 504,417 504,415 505,415 506,408 507,411 508,412 509,405 510,405 511,403 512,399 512,399 513,401 514,399 515,399 516,405 517,403 518,400 519,398 520,408 521,395 521,399 522,397 523,402 524,405 525,399 526,398 527,404 528,411 529,419 529,419 530,413 531,413 532,413 533,414 534,415 535,421 536,420 537,422 538,429 538,428 539,424 540,421 541,422 542,418 543,422 544,423 545,420 546,418 546,423 547,421 548,417 549,418 550,421 551,422 552,429 553,435 554,435 555,436 555,427 556,427 557,430 558,429 559,429 560,430 561,428 562,421 563,421 563,429 564,429 565,426 566,428 567,428 568,431 569,430 570,426 571,422 572,426 572,428 573,415 574,414 575,412 576,417 577,411 578,406 579,400 580,396 580,402 581,404 582,400 583,398 584,403 585,401 586,399 587,405 588,403 589,390 589,390 590,388 591,397 592,400 593,405 594,401 595,400 596,403 597,396 597,392 598,396 599,395 600,402 601,403 602,401 603,398 604,398 605,395 606,392 606,383 607,377 608,379 609,376 610,374 611,369 612,368 613,380 614,378 615,377 615,378 616,377 617,370 618,366 619,377 620,375 621,372 622,372 623,380 623,376 624,354 625,357 626,356 627,361 628,362 629,360 630,356 631,364 632,356 632,353 633,353 634,354 635,364 636,366 637,360 638,359 639,359 640,363 640,363 641,364 642,361 643,366 644,363 645,367 646,365 647,368 648,368 649,357 649,354 650,352 651,348 652,343 653,340 654,342 655,341 656,342 657,338 657,340 658,342 659,342 660,339 661,337 662,340 663,344 664,338 665,332 666,331 666,331 667,332 668,331 669,332 670,329 671,329 672,328 673,326 674,328 674,328 675,324 676,320 677,325 678,324 679,329 680,331 681,326 682,322 683,319 683,320 684,318 685,318 686,310 687,298 688,302 689,301 690,300 691,302 691,299 692,300 693,296 694,299 695,287 696,287 697,295 698,288 699,288 700,297 700,309 701,309 702,310 703,312 704,322 705,317 706,316 707,311 708,307 708,305 709,309 710,307 711,305 712,300 713,294 714,286 715,288 716,293 717,304 717,307 718,309 719,301 720,300 721,294 722,290 723,287 724,287 725,288 725,287 726,284 727,284 728,285 729,281 730,279 731,277 732,275 733,280 734,284 734,279 735,272 736,272 737,271 738,277 739,271 740,275 741,280 742,282 742,284 743,287 744,286 745,282 746,282 747,280 748,273 749,265 750,266 751,271 751,273 752,273 753,280 754,280 755,275 756,279 757,281 758,285 759,293 759,303 760,293 761,285 762,281 763,274 764,265 765,263 766,265 767,263 768,261 768,263 769,266 770,271 771,265 772,269 773,265 774,266 775,261 776,255 776,251 777,248 778,249 779,249 780,256 781,253 782,253 783,261 784,264 785,266 785,264 786,252 787,250 788,262 789,263 790,258 791,254 792,249 793,250 794,243 794,238 795,240 796,237 797,229 798,230 799,231 800,227 801,227 802,230 802,240 803,244 804,241 805,248 806,243 807,248 808,250 809,252 810,247 811,248 811,247 812,250 813,240 814,234 815,234 816,239 817,235 818,226 819,226 819,233 820,239 821,235 822,234 823,232 824,233 825,220 826,218 827,225 828,229 828,232 829,228 830,228 831,224 832,221 833,218 834,211 835,204 836,198 836,195 837,188 838,186 839,187 840,189 841,201 842,205 843,199 844,198 845,190 845,189 846,188 847,195 848,192 849,186 850,195 851,193 852,188 853,190 853,171 854,174 855,174 856,174 857,170 858,160 859,160 860,159 861,158 862,159 862,168 863,172 864,177 865,179 866,177 867,174 868,168 869,169 870,155 870,150 871,154 872,160 873,158 874,163 875,161 876,149 877,151 878,157 879,156 879,153 880,154 881,153 882,151 883,155 884,156 885,161 886,155 887,153 887,147 888,149 889,144 890,148 891,147 892,145 893,137 894,138 895,148 896,134 896,132 897,138 898,139 899,144 900,145 901,146 902,153 903,152 904,150 904,141 905,150 906,161 907,164 908,163 909,159 910,154 911,150 912,145 913,141 913,138 914,136 915,125 916,122 917,135 918,135 919,134 920,141 921,139 921,142 922,142 923,140 924,138 925,126 926,126 927,125 928,128 929,133 930,136 930,131 931,127 932,115 933,118 934,117 935,121 936,129 937,118 938,113 938,109 939,104 940,105 941,110 942,118 943,117 944,121 945,120 946,113 947,104 947,102 948,97 949,96 950,96 951,97 952,104 953,105 954,102 955,97 955,97 956,105 957,111 958,108 959,94 960,85 961,80 962,70 963,71 964,72 964,69 965,68 966,68 967,75 968,76 969,84 970,91 971,81 972,73 973,74 973,458 973,458 "/>
<line opacity="0.1" stroke="#000000" stroke-width="1" x1="79" y1="699" x2="79" y2="68"/>
<line opacity="0.1" stroke="#000000" stroke-width="1" x1="87" y1="699" x2="87" y2="68"/>
<line opacity="0.1" stroke="#000000" stroke-width="1" x1="96" y1="699" x2="96" y2="68"/>
<line opacity="0.1" stroke="#000000" stroke-width="1" x1="105" y1="699" x2="105" y2="68"/>
<line opacity="0.1" stroke="#000000" stroke-width="1" x1="114" y1="699" x2="114" y2="68"/>
<line opacity="0.1" stroke="#000000" stroke-width="1" x1="123" y1="699" x2="123" y2="68"/>
<line opacity="0.1" stroke="#000000" stroke-width="1" x1="132" y1="699" x2="132" y2="68"/>
<line opacity="0.1" stroke="#000000" stroke-width="1" x1="141" y1="699" x2="141" y2="68"/>
<line opacity="0.1" stroke="#000000" stroke-width="1" x1="150" y1="699" x2="150" y2="68"/>
<line opacity="0.1" stroke="#000000" stroke-width="1" x1="159" y1="699" x2="159" y2="68"/>
<line opacity="0.1" stroke="#000000" stroke-width="1" x1="168" y1="699" x2="168" y2="68"/>
<line opacity="0.1" stroke="#000000" stroke-width="1" x1="177" y1="699" x2="177" y2="68"/>
<line opacity="0.1" stroke="#000000" stroke-width="1" x1="186" y1="699" x2="186" y2="68"/>
<line opacity="0.1" stroke="#000000" stroke-width="1" x1="195" y1="699" x2="195" y2="68"/>
<line opacity="0.1" stroke="#000000" stroke-width="1" x1="204" y1="699" x2="204" y2="68"/>
<line opacity="0.1" stroke="#000000" stroke-width="1" x1="213" y1="699" x2="213" y2="68"/>
<line opacity="0.1" stroke="#000000" stroke-width="1" x1="222" y1="699" x2="222" y2="68"/>
<line opacity="0.1" stroke="#000000" stroke-width="1" x1="231" y1="699" x2="231" y2="68"/>
<line opacity="0.1" stroke="#000000" stroke-width="1" x1="240" y1="699" x2="240" y2="68"/>
<line opacity="0.1" stroke="#000000" stroke-width="1" x1="249" y1="699" x2="249" y2="68"/>
<line opacity="0.1" stroke="#000000" stroke-width="1" x1="257" y1="699" x2="257" y2="68"/>
<line opacity="0.1" stroke="#000000" stroke-width="1" x1="266" y1="699" x2="266" y2="68"/>
<line opacity="0.1" stroke="#000000" stroke-width="1" x1="275" y1="699" x2="275" y2="68"/>
<line opacity="0.1" stroke="#000000" stroke-width="1" x1="284" y1="699" x2="284" y2="68"/>
<line opacity="0.1" stroke="#000000" stroke-width="1" x1="293" y1="699" x2="293" y2="68"/>
<line opacity="0.1" stroke="#000000" stroke-width="1" x1="302" y1="699" x2="302" y2="68"/>
<line opacity="0.1" stroke="#000000" stroke-width="1" x1="311" y1="699" x2="311" y2="68"/>
<line opacity="0.1" stroke="#000000" stroke-width="1" x1="320" y1="699" x2="320" y2="68"/>
<line opacity="0.1" stroke="#000000" stroke-width="1" x1="329" y1="699" x2="329" y2="68"/>
<line opacity="0.1" stroke="#000000" stroke-width="1" x1="338" y1="699" x2="338" y2="68"/>
<line opacity="0.1" stroke="#000000" stroke-width="1" x1="347" y1="699" x2="347" y2="68"/>
<line opacity="0.1" stroke="#000000" stroke-width="1" x1="356" y1="699" x2="356" y2="68"/>
<line opacity="0.1" stroke="#000000" stroke-width="1" x1="365" y1="699" x2="365" y2="68"/>
<line opacity="0.1" stroke="#000000" stroke-width="1" x1="374" y1="699" x2="374" y2="68"/>
<line opacity="0.1" stroke="#000000" stroke-width="1" x1="383" y1="699" x2="383" y2="68"/>
<line opacity="0.1" stroke="#000000" stroke-width="1" x1="392" y1="699" x2="392" y2="68"/>
<line opacity="0.1" stroke="#000000" stroke-width="1" x1="401" y1="699" x2="401" y2="68"/>
<line opacity="0.1" stroke="#000000" stroke-width="1" x1="410" y1="699" x2="410" y2="68"/>
<line opacity="0.1" stroke="#000000" stroke-width="1" x1="419" y1="699" x2="419" y2="68"/>
<line opacity="0.1" stroke="#000000" stroke-width="1" x1="427" y1="699" x2="427" y2="68"/>
<line opacity="0.1" stroke="#000000" stroke-width="1" x1="436" y1="699" x2="436" y2="68"/>
<line opacity="0.1" stroke="#000000" stroke-width="1" x1="445" y1="699" x2="445" y2="68"/>
<line opacity="0.1" stroke="#000000" stroke-width="1" x1="454" y1="699" x2="454" y2="68"/>
<line opacity="0.1" stroke="#000000" stroke-width="1" x1="463" y1="699" x2="463" y2="68"/>
<line opacity="0.1" stroke="#000000" stroke-width="1" x1="472" y1="699" x2="472" y2="68"/>
<line opacity="0.1" stroke="#000000" stroke-width="1" x1="481" y1="699" x2="481" y2="68"/>
<line opacity="0.1" stroke="#000000" stroke-width="1" x1="490" y1="699" x2="490" y2="68"/>
<line opacity="0.1" stroke="#000000" stroke-width="1" x1="499" y1="699" x2="499" y2="68"/>
<line opacity="0.1" stroke="#000000" stroke-width="1" x1="508" y1="699" x2="508" y2="68"/>
<line opacity="0.1" stroke="#000000" stroke-width="1" x1="517" y1="699" x2="517" y2="68"/>
<line opacity="0.1" stroke="#000000" stroke-width="1" x1="526" y1="699" x2="526" y2="68"/>
<line opacity="0.1" stroke="#000000" stroke-width="1" x1="535" y1="699" x2="535" y2="68"/>
<line opacity="0.1" stroke="#000000" stroke-width="1" x1="544" y1="699" x2="544" y2="68"/>
<line opacity="0.1" stroke="#000000" stroke-width="1" x1="553" y1="699" x2="553" y2="68"/>
<line opacity="0.1" stroke="#000000" stroke-width="1" x1="562" y1="699" x2="562" y2="68"/>
<line opacity="0.1" stroke="#000000" stroke-width="1" x1="571" y1="699" x2="571" y2="68"/>
<line opacity="0.1" stroke="#000000" stroke-width="1" x1="580" y1="699" x2="580" y2="68"/>
<line opacity="0.1" stroke="#000000" stroke-width="1" x1="589" y1="699" x2="589" y2="68"/>
<line opacity="0.1" stroke="#000000" stroke-width="1" x1="598" y1="699" x2="598" y2="68"/>
<line opacity="0.1" stroke="#000000" stroke-width="1" x1="606" y1="699" x2="606" y2="68"/>
<line opacity="0.1" stroke="#000000" stroke-width="1" x1="615" y1="699" x2="615" y2="68"/>
<line opacity="0.1" stroke="#000000" stroke-width="1" x1="624" y1="699" x2="624" y2="68"/>
<line opacity="0.1" stroke="#000000" stroke-width="1" x1="633" y1="699" x2="633" y2="68"/>
<line opacity="0.1" stroke="#000000" stroke-width="1" x1="642" y1="699" x2="642" y2="68"/>
<line opacity="0.1" stroke="#000000" stroke-width="1" x1="651" y1="699" x2="651" y2="68"/>
<line opacity="0.1" stroke="#000000" stroke-width="1" x1="660" y1="699" x2="660" y2="68"/>
<line opacity="0.1" stroke="#000000" stroke-width="1" x1="669" y1="699" x2="669" y2="68"/>
<line opacity="0.1" stroke="#000000" stroke-width="1" x1="678" y1="699" x2="678" y2="68"/>
<line opacity="0.1" stroke="#000000" stroke-width="1" x1="687" y1="699" x2="687" y2="68"/>
<line opacity="0.1" stroke="#000000" stroke-width="1" x1="696" y1="699" x2="696" y2="68"/>
<line opacity="0.1" stroke="#000000" stroke-width="1" x1="705" y1="699" x2="705" y2="68"/>
<line opacity="0.1" stroke="#000000" stroke-width="1" x1="714" y1="699" x2="714" y2="68"/>
<line opacity="0.1" stroke="#000000" stroke-width="1" x1="723" y1="699" x2="723" y2="68"/>
<line opacity="0.1" stroke="#000000" stroke-width="1" x1="732" y1="699" x2="732" y2="68"/>
<line opacity="0.1" stroke="#000000" stroke-width="1" x1="741" y1="699" x2="741" y2="68"/>
<line opacity="0.1" stroke="#000000" stroke-width="1" x1="750" y1="699" x2="750" y2="68"/>
<line opacity="0.1" stroke="#000000" stroke-width="1" x1="759" y1="699" x2="759" y2="68"/>
<line opacity="0.1" stroke="#000000" stroke-width="1" x1="768" y1="699" x2="768" y2="68"/>
<line opacity="0.1" stroke="#000000" stroke-width="1" x1="776" y1="699" x2="776" y2="68"/>
<line opacity="0.1" stroke="#000000" stroke-width="1" x1="785" y1="699" x2="785" y2="68"/>
<line opacity="0.1" stroke="#000000" stroke-width="1" x1="794" y1="699" x2="794" y2="68"/>
<line opacity="0.1" stroke="#000000" stroke-width="1" x1="803" y1="699" x2="803" y2="68"/>
<line opacity="0.1" stroke="#000000" stroke-width="1" x1="812" y1="699" x2="812" y2="68"/>
<line opacity="0.1" stroke="#000000" stroke-width="1" x1="821" y1="699" x2="821" y2="68"/>
<line opacity="0.1" stroke="#000000" stroke-width="1" x1="830" y1="699" x2="830" y2="68"/>
<line opacity="0.1" stroke="#000000" stroke-width="1" x1="839" y1="699" x2="839" y2="68"/>
<line opacity="0.1" stroke="#000000" stroke-width="1" x1="848" y1="699" x2="848" y2="68"/>
<line opacity="0.1" stroke="#000000" stroke-width="1" x1="857" y1="699" x2="857" y2="68"/>
<line opacity="0.1" stroke="#000000" stroke-width="1" x1="866" y1="699" x2="866" y2="68"/>
<line opacity="0.1" stroke="#000000" stroke-width="1" x1="875" y1="699" x2="875" y2="68"/>
<line opacity="0.1" stroke="#000000" stroke-width="1" x1="884" y1="699" x2="884" y2="68"/>
<line opacity="0.1" stroke="#000000" stroke-width="1" x1="893" y1="699" x2="893" y2="68"/>
<line opacity="0.1" stroke="#000000" stroke-width="1" x1="902" y1="699" x2="902" y2="68"/>
<line opacity="0.1" stroke="#000000" stroke-width="1" x1="911" y1="699" x2="911" y2="68"/>
<line opacity="0.1" stroke="#000000" stroke-width="1" x1="920" y1="699" x2="920" y2="68"/>
<line opacity="0.1" stroke="#000000" stroke-width="1" x1="929" y1="699" x2="929" y2="68"/>
<line opacity="0.1" stroke="#000000" stroke-width="1" x1="938" y1="699" x2="938" y2="68"/>
<line opacity="0.1" stroke="#000000" stroke-width="1" x1="946" y1="699" x2="946" y2="68"/>
<line opacity="0.1" stroke="#000000" stroke-width="1" x1="955" y1="699" x2="955" y2="68"/>
<line opacity="0.1" stroke="#000000" stroke-width="1" x1="964" y1="699" x2="964" y2="68"/>
<line opacity="0.1" stroke="#000000" stroke-width="1" x1="78" y1="699" x2="973" y2="699"/>
<line opacity="0.1" stroke="#000000" stroke-width="1" x1="78" y1="689" x2="973" y2="689"/>
<line opacity="0.1" stroke="#000000" stroke-width="1" x1="78" y1="679" x2="973" y2="679"/>
<line opacity="0.1" stroke="#000000" stroke-width="1" x1="78" y1="669" x2="973" y2="669"/>
<line opacity="0.1" stroke="#000000" stroke-width="1" x1="78" y1="660" x2="973" y2="660"/>
<line opacity="0.1" stroke="#000000" stroke-width="1" x1="78" y1="650" x2="973" y2="650"/>
<line opacity="0.1" stroke="#000000" stroke-width="1" x1="78" y1="640" x2="973" y2="640"/>
<line opacity="0.1" stroke="#000000" stroke-width="1" x1="78" y1="630" x2="973" y2="630"/>
<line opacity="0.1" stroke="#000000" stroke-width="1" x1="78" y1="621" x2="973" y2="621"/>
<line opacity="0.1" stroke="#000000" stroke-width="1" x1="78" y1="611" x2="973" y2="611"/>
<line opacity="0.1" stroke="#000000" stroke-width="1" x1="78" y1="601" x2="973" y2="601"/>
<line opacity="0.1" stroke="#000000" stroke-width="1" x1="78" y1="592" x2="973" y2="592"/>
<line opacity="0.1" stroke="#000000" stroke-width="1" x1="78" y1="582" x2="973" y2="582"/>
<line opacity="0.1" stroke="#000000" stroke-width="1" x1="78" y1="572" x2="973" y2="572"/>
<line opacity="0.1" stroke="#000000" stroke-width="1" x1="78" y1="562" x2="973" y2="562"/>
<line opacity="0.1" stroke="#000000" stroke-width="1" x1="78" y1="553" x2="973" y2="553"/>
<line opacity="0.1" stroke="#000000" stroke-width="1" x1="78" y1="543" x2="973" y2="543"/>
<line opacity="0.1" stroke="#000000" stroke-width="1" x1="78" y1="533" x2="973" y2="533"/>
<line opacity="0.1" stroke="#000000" stroke-width="1" x1="78" y1="524" x2="973" y2="524"/>
<line opacity="0.1" stroke="#000000" stroke-width="1" x1="78" y1="514" x2="973" y2="514"/>
<line opacity="0.1" stroke="#000000" stroke-width="1" x1="78" y1="504" x2="973" y2="504"/>
<line opacity="0.1" stroke="#000000" stroke-width="1" x1="78" y1="494" x2="973" y2="494"/>
<line opacity="0.1" stroke="#000000" stroke-width="1" x1="78" y1="485" x2="973" y2="485"/>
<line opacity="0.1" stroke="#000000" stroke-width="1" x1="78" y1="475" x2="973" y2="475"/>
<line opacity="0.1" stroke="#000000" stroke-width="1" x1="78" y1="465" x2="973" y2="465"/>
<line opacity="0.1" stroke="#000000" stroke-width="1" x1="78" y1="455" x2="973" y2="455"/>
<line opacity="0.1" stroke="#000000" stroke-width="1" x1="78" y1="446" x2="973" y2="446"/>
<line opacity="0.1" stroke="#000000" stroke-width="1" x1="78" y1="436" x2="973" y2="436"/>
<line opacity="0.1" stroke="#000000" stroke-width="1" x1="78" y1="426" x2="973" y2="426"/>
<line opacity="0.1" stroke="#000000" stroke-width="1" x1="78" y1="417" x2="973" y2="417"/>
<line opacity="0.1" stroke="#000000" stroke-width="1" x1="78" y1="407" x2="973" y2="407"/>
<line opacity="0.1" stroke="#000000" stroke-width="1" x1="78" y1="397" x2="973" y2="397"/>
<line opacity="0.1" stroke="#000000" stroke-width="1" x1="78" y1="387" x2="973" y2="387"/>
<line opacity="0.1" stroke="#000000" stroke-width="1" x1="78" y1="378" x2="973" y2="378"/>
<line opacity="0.1" stroke="#000000" stroke-width="1" x1="78" y1="368" x2="973" y2="368"/>
<line opacity="0.1" stroke="#000000" stroke-width="1" x1="78" y1="358" x2="973" y2="358"/>
<line opacity="0.1" stroke="#000000" stroke-width="1" x1="78" y1="349" x2="973" y2="349"/>
<line opacity="0.1" stroke="#000000" stroke-width="1" x1="78" y1="339" x2="973" y2="339"/>
<line opacity="0.1" stroke="#000000" stroke-width="1" x1="78" y1="329" x2="973" y2="329"/>
<line opacity="0.1" stroke="#000000" stroke-width="1" x1="78" y1="319" x2="973" y2="319"/>
<line opacity="0.1" stroke="#000000" stroke-width="1" x1="78" y1="310" x2="973" y2="310"/>
<line opacity="0.1" stroke="#000000" stroke-width="1" x1="78" y1="300" x2="973" y2="300"/>
<line opacity="0.1" stroke="#000000" stroke-width="1" x1="78" y1="290" x2="973" y2="290"/>
<line opacity="0.1" stroke="#000000" stroke-width="1" x1="78" y1="281" x2="973" y2="281"/>
<line opacity="0.1" stroke="#000000" stroke-width="1" x1="78" y1="271" x2="973" y2="271"/>
<line opacity="0.1" stroke="#000000" stroke-width="1" x1="78" y1="261" x2="973" y2="261"/>
<line opacity="0.1" stroke="#000000" stroke-width="1" x1="78" y1="251" x2="973" y2="251"/>
<line opacity="0.1" stroke="#000000" stroke-width="1" x1="78" y1="242" x2="973" y2="242"/>
<line opacity="0.1" stroke="#000000" stroke-width="1" x1="78" y1="232" x2="973" y2="232"/>
<line opacity="0.1" stroke="#000000" stroke-width="1" x1="78" y1="222" x2="973" y2="222"/>
<line opacity="0.1" stroke="#000000" stroke-width="1" x1="78" y1="212" x2="973" y2="212"/>
<line opacity="0.1" stroke="#000000" stroke-width="1" x1="78" y1="203" x2="973" y2="203"/>
<line opacity="0.1" stroke="#000000" stroke-width="1" x1="78" y1="193" x2="973" y2="193"/>
<line opacity="0.1" stroke="#000000" stroke-width="1" x1="78" y1="183" x2="973" y2="183"/>
<line opacity="0.1" stroke="#000000" stroke-width="1" x1="78" y1="174" x2="973" y2="174"/>
<line opacity="0.1" stroke="#000000" stroke-width="1" x1="78" y1="164" x2="973" y2="164"/>
<line opacity="0.1" stroke="#000000" stroke-width="1" x1="78" y1="154" x2="973" y2="154"/>
<line opacity="0.1" stroke="#000000" stroke-width="1" x1="78" y1="144" x2="973" y2="144"/>
<line opacity="0.1" stroke="#000000" stroke-width="1" x1="78" y1="135" x2="973" y2="135"/>
<line opacity="0.1" stroke="#000000" stroke-width="1" x1="78" y1="125" x2="973" y2="125"/>
<line opacity="0.1" stroke="#000000" stroke-width="1" x1="78" y1="115" x2="973" y2="115"/>
<line opacity="0.1" stroke="#000000" stroke-width="1" x1="78" y1="106" x2="973" y2="106"/>
<line opacity="0.1" stroke="#000000" stroke-width="1" x1="78" y1="96" x2="973" y2="96"/>
<line opacity="0.1" stroke="#000000" stroke-width="1" x1="78" y1="86" x2="973" y2="86"/>
<line opacity="0.1" stroke="#000000" stroke-width="1" x1="78" y1="76" x2="973" y2="76"/>
<text x="8" y="384" dy="0.76em" text-anchor="middle" font-family="sans-serif" font-size="9.67741935483871" opacity="1" fill="#000000" transform="rotate(270, 8, 384)">
Memory usage
</text>
<text x="526" y="760" dy="-0.5ex" text-anchor="middle" font-family="sans-serif" font-size="9.67741935483871" opacity="1" fill="#000000">
Time
</text>
<line opacity="0.2" stroke="#000000" stroke-width="1" x1="96" y1="699" x2="96" y2="68"/>
<line opacity="0.2" stroke="#000000" stroke-width="1" x1="186" y1="699" x2="186" y2="68"/>
<line opacity="0.2" stroke="#000000" stroke-width="1" x1="275" y1="699" x2="275" y2="68"/>
<line opacity="0.2" stroke="#000000" stroke-width="1" x1="365" y1="699" x2="365" y2="68"/>
<line opacity="0.2" stroke="#000000" stroke-width="1" x1="454" y1="699" x2="454" y2="68"/>
<line opacity="0.2" stroke="#000000" stroke-width="1" x1="544" y1="699" x2="544" y2="68"/>
<line opacity="0.2" stroke="#000000" stroke-width="1" x1="633" y1="699" x2="633" y2="68"/>
<line opacity="0.2" stroke="#000000" stroke-width="1" x1="723" y1="699" x2="723" y2="68"/>
<line opacity="0.2" stroke="#000000" stroke-width="1" x1="812" y1="699" x2="812" y2="68"/>
<line opacity="0.2" stroke="#000000" stroke-width="1" x1="902" y1="699" x2="902" y2="68"/>
<line opacity="0.2" stroke="#000000" stroke-width="1" x1="78" y1="699" x2="973" y2="699"/>
<line opacity="0.2" stroke="#000000" stroke-width="1" x1="78" y1="601" x2="973" y2="601"/>
<line opacity="0.2" stroke="#000000" stroke-width="1" x1="78" y1="504" x2="973" y2="504"/>
<line opacity="0.2" stroke="#000000" stroke-width="1" x1="78" y1="407" x2="973" y2="407"/>
<line opacity="0.2" stroke="#000000" stroke-width="1" x1="78" y1="310" x2="973" y2="310"/>
<line opacity="0.2" stroke="#000000" stroke-width="1" x1="78" y1="212" x2="973" y2="212"/>
<line opacity="0.2" stroke="#000000" stroke-width="1" x1="78" y1="115" x2="973" y2="115"/>
<polyline fill="none" opacity="1" stroke="#000000" stroke-width="1" points="77,68 77,699 "/>
<text x="68" y="699" dy="0.5ex" text-anchor="end" font-family="sans-serif" font-size="9.67741935483871" opacity="1" fill="#000000">
0.00 MB
</text>
<polyline fill="none" opacity="1" stroke="#000000" stroke-width="1" points="72,699 77,699 "/>
<text x="68" y="601" dy="0.5ex" text-anchor="end" font-family="sans-serif" font-size="9.67741935483871" opacity="1" fill="#000000">
0.19 MB
</text>
<polyline fill="none" opacity="1" stroke="#000000" stroke-width="1" points="72,601 77,601 "/>
<text x="68" y="504" dy="0.5ex" text-anchor="end" font-family="sans-serif" font-size="9.67741935483871" opacity="1" fill="#000000">
0.38 MB
</text>
<polyline fill="none" opacity="1" stroke="#000000" stroke-width="1" points="72,504 77,504 "/>
<text x="68" y="407" dy="0.5ex" text-anchor="end" font-family="sans-serif" font-size="9.67741935483871" opacity="1" fill="#000000">
0.57 MB
</text>
<polyline fill="none" opacity="1" stroke="#000000" stroke-width="1" points="72,407 77,407 "/>
<text x="68" y="310" dy="0.5ex" text-anchor="end" font-family="sans-serif" font-size="9.67741935483871" opacity="1" fill="#000000">
0.76 MB
</text>
<polyline fill="none" opacity="1" stroke="#000000" stroke-width="1" points="72,310 77,310 "/>
<text x="68" y="212" dy="0.5ex" text-anchor="end" font-family="sans-serif" font-size="9.67741935483871" opacity="1" fill="#000000">
0.95 MB
</text>
<polyline fill="none" opacity="1" stroke="#000000" stroke-width="1" points="72,212 77,212 "/>
<text x="68" y="115" dy="0.5ex" text-anchor="end" font-family="sans-serif" font-size="9.67741935483871" opacity="1" fill="#000000">
1.14 MB
</text>
<polyline fill="none" opacity="1" stroke="#000000" stroke-width="1" points="72,115 77,115 "/>
<polyline fill="none" opacity="1" stroke="#000000" stroke-width="1" points="78,700 973,700 "/>
<text x="96" y="710" dy="0.76em" text-anchor="middle" font-family="sans-serif" font-size="9.67741935483871" opacity="1" fill="#000000">
02:04:17
</text>
<polyline fill="none" opacity="1" stroke="#000000" stroke-width="1" points="96,700 96,705 "/>
<text x="186" y="710" dy="0.76em" text-anchor="middle" font-family="sans-serif" font-size="9.67741935483871" opacity="1" fill="#000000">
02:04:18
</text>
<polyline fill="none" opacity="1" stroke="#000000" stroke-width="1" points="186,700 186,705 "/>
<text x="275" y="710" dy="0.76em" text-anchor="middle" font-family="sans-serif" font-size="9.67741935483871" opacity="1" fill="#000000">
02:04:19
</text>
<polyline fill="none" opacity="1" stroke="#000000" stroke-width="1" points="275,700 275,705 "/>
<text x="365" y="710" dy="0.76em" text-anchor="middle" font-family="sans-serif" font-size="9.67741935483871" opacity="1" fill="#000000">
02:04:20
</text>
<polyline fill="none" opacity="1" stroke="#000000" stroke-width="1" points="365,700 365,705 "/>
<text x="454" y="710" dy="0.76em" text-anchor="middle" font-family="sans-serif" font-size="9.67741935483871" opacity="1" fill="#000000">
02:04:21
</text>
<polyline fill="none" opacity="1" stroke="#000000" stroke-width="1" points="454,700 454,705 "/>
<text x="544" y="710" dy="0.76em" text-anchor="middle" font-family="sans-serif" font-size="9.67741935483871" opacity="1" fill="#000000">
02:04:22
</text>
<polyline fill="none" opacity="1" stroke="#000000" stroke-width="1" points="544,700 544,705 "/>
<text x="633" y="710" dy="0.76em" text-anchor="middle" font-family="sans-serif" font-size="9.67741935483871" opacity="1" fill="#000000">
02:04:23
</text>
<polyline fill="none" opacity="1" stroke="#000000" stroke-width="1" points="633,700 633,705 "/>
<text x="723" y="710" dy="0.76em" text-anchor="middle" font-family="sans-serif" font-size="9.67741935483871" opacity="1" fill="#000000">
02:04:24
</text>
<polyline fill="none" opacity="1" stroke="#000000" stroke-width="1" points="723,700 723,705 "/>
<text x="812" y="710" dy="0.76em" text-anchor="middle" font-family="sans-serif" font-size="9.67741935483871" opacity="1" fill="#000000">
02:04:25
</text>
<polyline fill="none" opacity="1" stroke="#000000" stroke-width="1" points="812,700 812,705 "/>
<text x="902" y="710" dy="0.76em" text-anchor="middle" font-family="sans-serif" font-size="9.67741935483871" opacity="1" fill="#000000">
02:04:26
</text>
<polyline fill="none" opacity="1" stroke="#000000" stroke-width="1" points="902,700 902,705 "/>
<polyline fill="none" opacity="1" stroke="#000000" stroke-width="1" points="78,67 974,67 "/>
<text x="96" y="58" dy="-0.5ex" text-anchor="middle" font-family="sans-serif" font-size="9.67741935483871" opacity="1" fill="#000000">
+265ms
</text>
<polyline fill="none" opacity="1" stroke="#000000" stroke-width="1" points="96,62 96,67 "/>
<text x="186" y="58" dy="-0.5ex" text-anchor="middle" font-family="sans-serif" font-size="9.67741935483871" opacity="1" fill="#000000">
+1s
</text>
<polyline fill="none" opacity="1" stroke="#000000" stroke-width="1" points="186,62 186,67 "/>
<text x="276" y="58" dy="-0.5ex" text-anchor="middle" font-family="sans-serif" font-size="9.67741935483871" opacity="1" fill="#000000">
+2s
</text>
<polyline fill="none" opacity="1" stroke="#000000" stroke-width="1" points="276,62 276,67 "/>
<text x="365" y="58" dy="-0.5ex" text-anchor="middle" font-family="sans-serif" font-size="9.67741935483871" opacity="1" fill="#000000">
+3s
</text>
<polyline fill="none" opacity="1" stroke="#000000" stroke-width="1" points="365,62 365,67 "/>
<text x="455" y="58" dy="-0.5ex" text-anchor="middle" font-family="sans-serif" font-size="9.67741935483871" opacity="1" fill="#000000">
+4s
</text>
<polyline fill="none" opacity="1" stroke="#000000" stroke-width="1" points="455,62 455,67 "/>
<text x="544" y="58" dy="-0.5ex" text-anchor="middle" font-family="sans-serif" font-size="9.67741935483871" opacity="1" fill="#000000">
+5s
</text>
<polyline fill="none" opacity="1" stroke="#000000" stroke-width="1" points="544,62 544,67 "/>
<text x="634" y="58" dy="-0.5ex" text-anchor="middle" font-family="sans-serif" font-size="9.67741935483871" opacity="1" fill="#000000">
+6s
</text>
<polyline fill="none" opacity="1" stroke="#000000" stroke-width="1" points="634,62 634,67 "/>
<text x="724" y="58" dy="-0.5ex" text-anchor="middle" font-family="sans-serif" font-size="9.67741935483871" opacity="1" fill="#000000">
+7s
</text>
<polyline fill="none" opacity="1" stroke="#000000" stroke-width="1" points="724,62 724,67 "/>
<text x="813" y="58" dy="-0.5ex" text-anchor="middle" font-family="sans-serif" font-size="9.67741935483871" opacity="1" fill="#000000">
+8s
</text>
<polyline fill="none" opacity="1" stroke="#000000" stroke-width="1" points="813,62 813,67 "/>
<text x="903" y="58" dy="-0.5ex" text-anchor="middle" font-family="sans-serif" font-size="9.67741935483871" opacity="1" fill="#000000">
+9s
</text>
<polyline fill="none" opacity="1" stroke="#000000" stroke-width="1" points="903,62 903,67 "/>
<rect x="83" y="73" width="110" height="30" opacity="0.75" fill="#FFFFFF" stroke="none"/>
<rect x="83" y="73" width="110" height="30" opacity="1" fill="none" stroke="#000000"/>
<text x="123" y="83" dy="0.76em" text-anchor="start" font-family="sans-serif" font-size="9.67741935483871" opacity="1" fill="#000000">
Allocations
</text>
<rect x="93" y="83" width="10" height="10" opacity="1" fill="#E6194B" stroke="none"/>
</svg>
