<svg width="1024" height="768" viewBox="0 0 1024 768" xmlns="http://www.w3.org/2000/svg">
<rect x="0" y="0" width="1023" height="767" opacity="1" fill="#FFFFFF" stroke="none"/>
<polygon opacity="1" fill="#3CB44B" points="974,699 974,699 974,699 "/>
<polyline fill="none" opacity="1" stroke="#3CB44B" stroke-width="1" points="974,699 "/>
<polygon opacity="1" fill="#E6194B" points="107,699 107,68 107,68 974,68 974,699 107,699 "/>
<polyline fill="none" opacity="1" stroke="#E6194B" stroke-width="1" points="107,699 107,68 107,68 974,68 "/>
<line opacity="0.1" stroke="#000000" stroke-width="1" x1="85" y1="699" x2="85" y2="67"/>
<line opacity="0.1" stroke="#000000" stroke-width="1" x1="103" y1="699" x2="103" y2="67"/>
<line opacity="0.1" stroke="#000000" stroke-width="1" x1="121" y1="699" x2="121" y2="67"/>
<line opacity="0.1" stroke="#000000" stroke-width="1" x1="139" y1="699" x2="139" y2="67"/>
<line opacity="0.1" stroke="#000000" stroke-width="1" x1="157" y1="699" x2="157" y2="67"/>
<line opacity="0.1" stroke="#000000" stroke-width="1" x1="174" y1="699" x2="174" y2="67"/>
<line opacity="0.1" stroke="#000000" stroke-width="1" x1="192" y1="699" x2="192" y2="67"/>
<line opacity="0.1" stroke="#000000" stroke-width="1" x1="210" y1="699" x2="210" y2="67"/>
<line opacity="0.1" stroke="#000000" stroke-width="1" x1="228" y1="699" x2="228" y2="67"/>
<line opacity="0.1" stroke="#000000" stroke-width="1" x1="246" y1="699" x2="246" y2="67"/>
<line opacity="0.1" stroke="#000000" stroke-width="1" x1="264" y1="699" x2="264" y2="67"/>
<line opacity="0.1" stroke="#000000" stroke-width="1" x1="282" y1="699" x2="282" y2="67"/>
<line opacity="0.1" stroke="#000000" stroke-width="1" x1="300" y1="699" x2="300" y2="67"/>
<line opacity="0.1" stroke="#000000" stroke-width="1" x1="318" y1="699" x2="318" y2="67"/>
<line opacity="0.1" stroke="#000000" stroke-width="1" x1="336" y1="699" x2="336" y2="67"/>
<line opacity="0.1" stroke="#000000" stroke-width="1" x1="354" y1="699" x2="354" y2="67"/>
<line opacity="0.1" stroke="#000000" stroke-width="1" x1="372" y1="699" x2="372" y2="67"/>
<line opacity="0.1" stroke="#000000" stroke-width="1" x1="389" y1="699" x2="389" y2="67"/>
<line opacity="0.1" stroke="#000000" stroke-width="1" x1="407" y1="699" x2="407" y2="67"/>
<line opacity="0.1" stroke="#000000" stroke-width="1" x1="425" y1="699" x2="425" y2="67"/>
<line opacity="0.1" stroke="#000000" stroke-width="1" x1="443" y1="699" x2="443" y2="67"/>
<line opacity="0.1" stroke="#000000" stroke-width="1" x1="461" y1="699" x2="461" y2="67"/>
<line opacity="0.1" stroke="#000000" stroke-width="1" x1="479" y1="699" x2="479" y2="67"/>
<line opacity="0.1" stroke="#000000" stroke-width="1" x1="497" y1="699" x2="497" y2="67"/>
<line opacity="0.1" stroke="#000000" stroke-width="1" x1="515" y1="699" x2="515" y2="67"/>
<line opacity="0.1" stroke="#000000" stroke-width="1" x1="533" y1="699" x2="533" y2="67"/>
<line opacity="0.1" stroke="#000000" stroke-width="1" x1="551" y1="699" x2="551" y2="67"/>
<line opacity="0.1" stroke="#000000" stroke-width="1" x1="569" y1="699" x2="569" y2="67"/>
<line opacity="0.1" stroke="#000000" stroke-width="1" x1="587" y1="699" x2="587" y2="67"/>
<line opacity="0.1" stroke="#000000" stroke-width="1" x1="604" y1="699" x2="604" y2="67"/>
<line opacity="0.1" stroke="#000000" stroke-width="1" x1="622" y1="699" x2="622" y2="67"/>
<line opacity="0.1" stroke="#000000" stroke-width="1" x1="640" y1="699" x2="640" y2="67"/>
<line opacity="0.1" stroke="#000000" stroke-width="1" x1="658" y1="699" x2="658" y2="67"/>
<line opacity="0.1" stroke="#000000" stroke-width="1" x1="676" y1="699" x2="676" y2="67"/>
<line opacity="0.1" stroke="#000000" stroke-width="1" x1="694" y1="699" x2="694" y2="67"/>
<line opacity="0.1" stroke="#000000" stroke-width="1" x1="712" y1="699" x2="712" y2="67"/>
<line opacity="0.1" stroke="#000000" stroke-width="1" x1="730" y1="699" x2="730" y2="67"/>
<line opacity="0.1" stroke="#000000" stroke-width="1" x1="748" y1="699" x2="748" y2="67"/>
<line opacity="0.1" stroke="#000000" stroke-width="1" x1="766" y1="699" x2="766" y2="67"/>
<line opacity="0.1" stroke="#000000" stroke-width="1" x1="784" y1="699" x2="784" y2="67"/>
<line opacity="0.1" stroke="#000000" stroke-width="1" x1="802" y1="699" x2="802" y2="67"/>
<line opacity="0.1" stroke="#000000" stroke-width="1" x1="819" y1="699" x2="819" y2="67"/>
<line opacity="0.1" stroke="#000000" stroke-width="1" x1="837" y1="699" x2="837" y2="67"/>
<line opacity="0.1" stroke="#000000" stroke-width="1" x1="855" y1="699" x2="855" y2="67"/>
<line opacity="0.1" stroke="#000000" stroke-width="1" x1="873" y1="699" x2="873" y2="67"/>
<line opacity="0.1" stroke="#000000" stroke-width="1" x1="891" y1="699" x2="891" y2="67"/>
<line opacity="0.1" stroke="#000000" stroke-width="1" x1="909" y1="699" x2="909" y2="67"/>
<line opacity="0.1" stroke="#000000" stroke-width="1" x1="927" y1="699" x2="927" y2="67"/>
<line opacity="0.1" stroke="#000000" stroke-width="1" x1="945" y1="699" x2="945" y2="67"/>
<line opacity="0.1" stroke="#000000" stroke-width="1" x1="963" y1="699" x2="963" y2="67"/>
<line opacity="0.1" stroke="#000000" stroke-width="1" x1="78" y1="699" x2="974" y2="699"/>
<line opacity="0.1" stroke="#000000" stroke-width="1" x1="78" y1="690" x2="974" y2="690"/>
<line opacity="0.1" stroke="#000000" stroke-width="1" x1="78" y1="681" x2="974" y2="681"/>
<line opacity="0.1" stroke="#000000" stroke-width="1" x1="78" y1="672" x2="974" y2="672"/>
<line opacity="0.1" stroke="#000000" stroke-width="1" x1="78" y1="664" x2="974" y2="664"/>
<line opacity="0.1" stroke="#000000" stroke-width="1" x1="78" y1="655" x2="974" y2="655"/>
<line opacity="0.1" stroke="#000000" stroke-width="1" x1="78" y1="646" x2="974" y2="646"/>
<line opacity="0.1" stroke="#000000" stroke-width="1" x1="78" y1="638" x2="974" y2="638"/>
<line opacity="0.1" stroke="#000000" stroke-width="1" x1="78" y1="629" x2="974" y2="629"/>
<line opacity="0.1" stroke="#000000" stroke-width="1" x1="78" y1="620" x2="974" y2="620"/>
<line opacity="0.1" stroke="#000000" stroke-width="1" x1="78" y1="612" x2="974" y2="612"/>
<line opacity="0.1" stroke="#000000" stroke-width="1" x1="78" y1="603" x2="974" y2="603"/>
<line opacity="0.1" stroke="#000000" stroke-width="1" x1="78" y1="594" x2="974" y2="594"/>
<line opacity="0.1" stroke="#000000" stroke-width="1" x1="78" y1="585" x2="974" y2="585"/>
<line opacity="0.1" stroke="#000000" stroke-width="1" x1="78" y1="577" x2="974" y2="577"/>
<line opacity="0.1" stroke="#000000" stroke-width="1" x1="78" y1="568" x2="974" y2="568"/>
<line opacity="0.1" stroke="#000000" stroke-width="1" x1="78" y1="559" x2="974" y2="559"/>
<line opacity="0.1" stroke="#000000" stroke-width="1" x1="78" y1="551" x2="974" y2="551"/>
<line opacity="0.1" stroke="#000000" stroke-width="1" x1="78" y1="542" x2="974" y2="542"/>
<line opacity="0.1" stroke="#000000" stroke-width="1" x1="78" y1="533" x2="974" y2="533"/>
<line opacity="0.1" stroke="#000000" stroke-width="1" x1="78" y1="525" x2="974" y2="525"/>
<line opacity="0.1" stroke="#000000" stroke-width="1" x1="78" y1="516" x2="974" y2="516"/>
<line opacity="0.1" stroke="#000000" stroke-width="1" x1="78" y1="507" x2="974" y2="507"/>
<line opacity="0.1" stroke="#000000" stroke-width="1" x1="78" y1="499" x2="974" y2="499"/>
<line opacity="0.1" stroke="#000000" stroke-width="1" x1="78" y1="490" x2="974" y2="490"/>
<line opacity="0.1" stroke="#000000" stroke-width="1" x1="78" y1="481" x2="974" y2="481"/>
<line opacity="0.1" stroke="#000000" stroke-width="1" x1="78" y1="472" x2="974" y2="472"/>
<line opacity="0.1" stroke="#000000" stroke-width="1" x1="78" y1="464" x2="974" y2="464"/>
<line opacity="0.1" stroke="#000000" stroke-width="1" x1="78" y1="455" x2="974" y2="455"/>
<line opacity="0.1" stroke="#000000" stroke-width="1" x1="78" y1="446" x2="974" y2="446"/>
<line opacity="0.1" stroke="#000000" stroke-width="1" x1="78" y1="438" x2="974" y2="438"/>
<line opacity="0.1" stroke="#000000" stroke-width="1" x1="78" y1="429" x2="974" y2="429"/>
<line opacity="0.1" stroke="#000000" stroke-width="1" x1="78" y1="420" x2="974" y2="420"/>
<line opacity="0.1" stroke="#000000" stroke-width="1" x1="78" y1="412" x2="974" y2="412"/>
<line opacity="0.1" stroke="#000000" stroke-width="1" x1="78" y1="403" x2="974" y2="403"/>
<line opacity="0.1" stroke="#000000" stroke-width="1" x1="78" y1="394" x2="974" y2="394"/>
<line opacity="0.1" stroke="#000000" stroke-width="1" x1="78" y1="386" x2="974" y2="386"/>
<line opacity="0.1" stroke="#000000" stroke-width="1" x1="78" y1="377" x2="974" y2="377"/>
<line opacity="0.1" stroke="#000000" stroke-width="1" x1="78" y1="368" x2="974" y2="368"/>
<line opacity="0.1" stroke="#000000" stroke-width="1" x1="78" y1="359" x2="974" y2="359"/>
<line opacity="0.1" stroke="#000000" stroke-width="1" x1="78" y1="351" x2="974" y2="351"/>
<line opacity="0.1" stroke="#000000" stroke-width="1" x1="78" y1="342" x2="974" y2="342"/>
<line opacity="0.1" stroke="#000000" stroke-width="1" x1="78" y1="333" x2="974" y2="333"/>
<line opacity="0.1" stroke="#000000" stroke-width="1" x1="78" y1="325" x2="974" y2="325"/>
<line opacity="0.1" stroke="#000000" stroke-width="1" x1="78" y1="316" x2="974" y2="316"/>
<line opacity="0.1" stroke="#000000" stroke-width="1" x1="78" y1="307" x2="974" y2="307"/>
<line opacity="0.1" stroke="#000000" stroke-width="1" x1="78" y1="299" x2="974" y2="299"/>
<line opacity="0.1" stroke="#000000" stroke-width="1" x1="78" y1="290" x2="974" y2="290"/>
<line opacity="0.1" stroke="#000000" stroke-width="1" x1="78" y1="281" x2="974" y2="281"/>
<line opacity="0.1" stroke="#000000" stroke-width="1" x1="78" y1="273" x2="974" y2="273"/>
<line opacity="0.1" stroke="#000000" stroke-width="1" x1="78" y1="264" x2="974" y2="264"/>
<line opacity="0.1" stroke="#000000" stroke-width="1" x1="78" y1="255" x2="974" y2="255"/>
<line opacity="0.1" stroke="#000000" stroke-width="1" x1="78" y1="246" x2="974" y2="246"/>
<line opacity="0.1" stroke="#000000" stroke-width="1" x1="78" y1="238" x2="974" y2="238"/>
<line opacity="0.1" stroke="#000000" stroke-width="1" x1="78" y1="229" x2="974" y2="229"/>
<line opacity="0.1" stroke="#000000" stroke-width="1" x1="78" y1="220" x2="974" y2="220"/>
<line opacity="0.1" stroke="#000000" stroke-width="1" x1="78" y1="212" x2="974" y2="212"/>
<line opacity="0.1" stroke="#000000" stroke-width="1" x1="78" y1="203" x2="974" y2="203"/>
<line opacity="0.1" stroke="#000000" stroke-width="1" x1="78" y1="194" x2="974" y2="194"/>
<line opacity="0.1" stroke="#000000" stroke-width="1" x1="78" y1="186" x2="974" y2="186"/>
<line opacity="0.1" stroke="#000000" stroke-width="1" x1="78" y1="177" x2="974" y2="177"/>
<line opacity="0.1" stroke="#000000" stroke-width="1" x1="78" y1="168" x2="974" y2="168"/>
<line opacity="0.1" stroke="#000000" stroke-width="1" x1="78" y1="160" x2="974" y2="160"/>
<line opacity="0.1" stroke="#000000" stroke-width="1" x1="78" y1="151" x2="974" y2="151"/>
<line opacity="0.1" stroke="#000000" stroke-width="1" x1="78" y1="142" x2="974" y2="142"/>
<line opacity="0.1" stroke="#000000" stroke-width="1" x1="78" y1="133" x2="974" y2="133"/>
<line opacity="0.1" stroke="#000000" stroke-width="1" x1="78" y1="125" x2="974" y2="125"/>
<line opacity="0.1" stroke="#000000" stroke-width="1" x1="78" y1="116" x2="974" y2="116"/>
<line opacity="0.1" stroke="#000000" stroke-width="1" x1="78" y1="107" x2="974" y2="107"/>
<line opacity="0.1" stroke="#000000" stroke-width="1" x1="78" y1="99" x2="974" y2="99"/>
<line opacity="0.1" stroke="#000000" stroke-width="1" x1="78" y1="90" x2="974" y2="90"/>
<line opacity="0.1" stroke="#000000" stroke-width="1" x1="78" y1="81" x2="974" y2="81"/>
<line opacity="0.1" stroke="#000000" stroke-width="1" x1="78" y1="73" x2="974" y2="73"/>
<text x="8" y="384" dy="0.76em" text-anchor="middle" font-family="sans-serif" font-size="9.67741935483871" opacity="1" fill="#000000" transform="rotate(270, 8, 384)">
Memory usage
</text>
<text x="526" y="760" dy="-0.5ex" text-anchor="middle" font-family="sans-serif" font-size="9.67741935483871" opacity="1" fill="#000000">
Time
</text>
<line opacity="0.2" stroke="#000000" stroke-width="1" x1="192" y1="699" x2="192" y2="67"/>
<line opacity="0.2" stroke="#000000" stroke-width="1" x1="372" y1="699" x2="372" y2="67"/>
<line opacity="0.2" stroke="#000000" stroke-width="1" x1="551" y1="699" x2="551" y2="67"/>
<line opacity="0.2" stroke="#000000" stroke-width="1" x1="730" y1="699" x2="730" y2="67"/>
<line opacity="0.2" stroke="#000000" stroke-width="1" x1="909" y1="699" x2="909" y2="67"/>
<line opacity="0.2" stroke="#000000" stroke-width="1" x1="78" y1="699" x2="974" y2="699"/>
<line opacity="0.2" stroke="#000000" stroke-width="1" x1="78" y1="612" x2="974" y2="612"/>
<line opacity="0.2" stroke="#000000" stroke-width="1" x1="78" y1="525" x2="974" y2="525"/>
<line opacity="0.2" stroke="#000000" stroke-width="1" x1="78" y1="438" x2="974" y2="438"/>
<line opacity="0.2" stroke="#000000" stroke-width="1" x1="78" y1="351" x2="974" y2="351"/>
<line opacity="0.2" stroke="#000000" stroke-width="1" x1="78" y1="264" x2="974" y2="264"/>
<line opacity="0.2" stroke="#000000" stroke-width="1" x1="78" y1="177" x2="974" y2="177"/>
<line opacity="0.2" stroke="#000000" stroke-width="1" x1="78" y1="90" x2="974" y2="90"/>
<polyline fill="none" opacity="1" stroke="#000000" stroke-width="1" points="77,68 77,700 "/>
<text x="68" y="699" dy="0.5ex" text-anchor="end" font-family="sans-serif" font-size="9.67741935483871" opacity="1" fill="#000000">
0.0 KB
</text>
<polyline fill="none" opacity="1" stroke="#000000" stroke-width="1" points="72,699 77,699 "/>
<text x="68" y="612" dy="0.5ex" text-anchor="end" font-family="sans-serif" font-size="9.67741935483871" opacity="1" fill="#000000">
9.8 KB
</text>
<polyline fill="none" opacity="1" stroke="#000000" stroke-width="1" points="72,612 77,612 "/>
<text x="68" y="525" dy="0.5ex" text-anchor="end" font-family="sans-serif" font-size="9.67741935483871" opacity="1" fill="#000000">
19.5 KB
</text>
<polyline fill="none" opacity="1" stroke="#000000" stroke-width="1" points="72,525 77,525 "/>
<text x="68" y="438" dy="0.5ex" text-anchor="end" font-family="sans-serif" font-size="9.67741935483871" opacity="1" fill="#000000">
29.3 KB
</text>
<polyline fill="none" opacity="1" stroke="#000000" stroke-width="1" points="72,438 77,438 "/>
<text x="68" y="351" dy="0.5ex" text-anchor="end" font-family="sans-serif" font-size="9.67741935483871" opacity="1" fill="#000000">
39.1 KB
</text>
<polyline fill="none" opacity="1" stroke="#000000" stroke-width="1" points="72,351 77,351 "/>
<text x="68" y="264" dy="0.5ex" text-anchor="end" font-family="sans-serif" font-size="9.67741935483871" opacity="1" fill="#000000">
48.8 KB
</text>
<polyline fill="none" opacity="1" stroke="#000000" stroke-width="1" points="72,264 77,264 "/>
<text x="68" y="177" dy="0.5ex" text-anchor="end" font-family="sans-serif" font-size="9.67741935483871" opacity="1" fill="#000000">
58.6 KB
</text>
<polyline fill="none" opacity="1" stroke="#000000" stroke-width="1" points="72,177 77,177 "/>
<text x="68" y="90" dy="0.5ex" text-anchor="end" font-family="sans-serif" font-size="9.67741935483871" opacity="1" fill="#000000">
68.4 KB
</text>
<polyline fill="none" opacity="1" stroke="#000000" stroke-width="1" points="72,90 77,90 "/>
<polyline fill="none" opacity="1" stroke="#000000" stroke-width="1" points="78,700 974,700 "/>
<text x="192" y="710" dy="0.76em" text-anchor="middle" font-family="sans-serif" font-size="9.67741935483871" opacity="1" fill="#000000">
06:26:08
</text>
<polyline fill="none" opacity="1" stroke="#000000" stroke-width="1" points="192,700 192,705 "/>
<text x="372" y="710" dy="0.76em" text-anchor="middle" font-family="sans-serif" font-size="9.67741935483871" opacity="1" fill="#000000">
06:26:10
</text>
<polyline fill="none" opacity="1" stroke="#000000" stroke-width="1" points="372,700 372,705 "/>
<text x="551" y="710" dy="0.76em" text-anchor="middle" font-family="sans-serif" font-size="9.67741935483871" opacity="1" fill="#000000">
06:26:12
</text>
<polyline fill="none" opacity="1" stroke="#000000" stroke-width="1" points="551,700 551,705 "/>
<text x="730" y="710" dy="0.76em" text-anchor="middle" font-family="sans-serif" font-size="9.67741935483871" opacity="1" fill="#000000">
06:26:14
</text>
<polyline fill="none" opacity="1" stroke="#000000" stroke-width="1" points="730,700 730,705 "/>
<text x="909" y="710" dy="0.76em" text-anchor="middle" font-family="sans-serif" font-size="9.67741935483871" opacity="1" fill="#000000">
06:26:16
</text>
<polyline fill="none" opacity="1" stroke="#000000" stroke-width="1" points="909,700 909,705 "/>
<polyline fill="none" opacity="1" stroke="#000000" stroke-width="1" points="78,67 974,67 "/>
<text x="192" y="58" dy="-0.5ex" text-anchor="middle" font-family="sans-serif" font-size="9.67741935483871" opacity="1" fill="#000000">
+1s
</text>
<polyline fill="none" opacity="1" stroke="#000000" stroke-width="1" points="192,62 192,67 "/>
<text x="372" y="58" dy="-0.5ex" text-anchor="middle" font-family="sans-serif" font-size="9.67741935483871" opacity="1" fill="#000000">
+3s
</text>
<polyline fill="none" opacity="1" stroke="#000000" stroke-width="1" points="372,62 372,67 "/>
<text x="551" y="58" dy="-0.5ex" text-anchor="middle" font-family="sans-serif" font-size="9.67741935483871" opacity="1" fill="#000000">
+5s
</text>
<polyline fill="none" opacity="1" stroke="#000000" stroke-width="1" points="551,62 551,67 "/>
<text x="730" y="58" dy="-0.5ex" text-anchor="middle" font-family="sans-serif" font-size="9.67741935483871" opacity="1" fill="#000000">
+7s
</text>
<polyline fill="none" opacity="1" stroke="#000000" stroke-width="1" points="730,62 730,67 "/>
<text x="909" y="58" dy="-0.5ex" text-anchor="middle" font-family="sans-serif" font-size="9.67741935483871" opacity="1" fill="#000000">
+9s
</text>
<polyline fill="none" opacity="1" stroke="#000000" stroke-width="1" points="909,62 909,67 "/>
<rect x="83" y="73" width="99" height="45" opacity="0.75" fill="#FFFFFF" stroke="none"/>
<rect x="83" y="73" width="99" height="45" opacity="1" fill="none" stroke="#000000"/>
<text x="123" y="83" dy="0.76em" text-anchor="start" font-family="sans-serif" font-size="9.67741935483871" opacity="1" fill="#000000">
Temporary
</text>
<text x="123" y="98" dy="0.76em" text-anchor="start" font-family="sans-serif" font-size="9.67741935483871" opacity="1" fill="#000000">
Leaked
</text>
<rect x="93" y="83" width="10" height="10" opacity="1" fill="#3CB44B" stroke="none"/>
<rect x="93" y="98" width="10" height="10" opacity="1" fill="#E6194B" stroke="none"/>
</svg>
