<svg width="1024" height="768" viewBox="0 0 1024 768" xmlns="http://www.w3.org/2000/svg">
<rect x="0" y="0" width="1024" height="768" opacity="1" fill="#FFFFFF" stroke="none"/>
<polygon opacity="1" fill="#E6194B" points="78,698 78,693 79,684 79,684 80,680 80,683 81,684 82,687 82,685 83,686 83,688 84,685 85,686 85,667 86,671 86,664 87,658 88,664 88,663 89,663 89,666 90,673 91,674 91,674 92,676 92,676 93,678 94,676 94,680 95,678 95,676 96,676 97,674 97,674 98,675 98,668 99,667 100,660 100,655 101,658 101,662 102,667 103,667 103,664 104,655 104,651 105,640 106,637 106,647 107,656 107,659 108,660 109,659 109,651 110,645 110,640 111,637 111,637 112,636 113,637 113,645 114,644 114,641 115,636 116,635 116,634 117,639 117,632 118,623 119,619 119,618 120,619 120,612 121,609 122,603 122,599 123,600 123,595 124,586 125,583 125,582 126,572 126,569 127,568 128,576 128,571 129,568 129,566 130,568 131,568 131,562 132,561 132,555 133,555 134,561 134,563 135,560 135,555 136,551 137,550 137,549 138,541 138,534 139,541 140,537 140,540 141,545 141,544 142,549 143,542 143,533 144,530 144,530 145,531 145,531 146,530 147,530 147,527 148,519 148,521 149,525 150,532 150,532 151,533 151,522 152,519 153,516 153,515 154,518 154,520 155,514 156,515 156,518 157,516 157,509 158,508 159,507 159,503 160,504 160,510 161,508 162,502 162,500 163,500 163,501 164,503 165,501 165,506 166,511 166,515 167,520 168,521 168,512 169,509 169,499 170,501 171,520 171,524 172,521 172,515 173,525 174,523 174,520 175,521 175,518 176,505 176,502 177,507 178,506 178,506 179,512 179,517 180,521 181,513 181,515 182,512 182,513 183,519 184,518 184,514 185,518 185,517 186,519 187,520 187,514 188,512 188,509 189,503 190,504 190,510 191,509 191,515 192,512 193,518 193,517 194,520 194,515 195,517 196,518 196,516 197,507 197,504 198,511 199,510 199,513 200,505 200,499 201,499 202,503 202,502 203,508 203,502 204,494 205,494 205,497 206,494 206,498 207,497 208,491 208,488 209,485 209,488 210,489 210,485 211,483 212,485 212,486 213,490 213,488 214,490 215,488 215,478 216,479 216,479 217,484 218,486 218,480 219,483 219,486 220,488 221,487 221,496 222,499 222,492 223,491 224,489 224,481 225,479 225,482 226,485 227,483 227,474 228,477 228,481 229,481 230,489 230,488 231,490 231,494 232,494 233,499 233,496 234,493 234,491 235,487 236,490 236,487 237,489 237,489 238,489 239,479 239,474 240,469 240,468 241,464 241,462 242,465 243,464 243,455 244,451 244,442 245,442 246,452 246,457 247,457 247,458 248,458 249,453 249,453 250,445 250,449 251,454 252,455 252,458 253,452 253,450 254,456 255,458 255,459 256,462 256,463 257,469 258,469 258,474 259,472 259,471 260,467 261,466 261,469 262,471 262,474 263,474 264,474 264,481 265,492 265,484 266,489 267,491 267,486 268,487 268,492 269,489 270,487 270,482 271,477 271,478 272,476 273,482 273,484 274,480 274,479 275,472 275,471 276,472 277,475 277,478 278,482 278,479 279,476 280,473 280,467 281,462 281,461 282,464 283,467 283,462 284,467 284,465 285,466 286,461 286,454 287,449 287,448 288,439 289,441 289,448 290,453 290,463 291,464 292,475 292,471 293,473 293,461 294,462 295,479 295,477 296,471 296,471 297,459 298,455 298,456 299,459 299,465 300,462 301,461 301,464 302,473 302,471 303,466 304,466 304,467 305,468 305,468 306,475 306,472 307,468 308,472 308,477 309,474 309,468 310,470 311,462 311,467 312,463 312,465 313,467 314,469 314,458 315,455 315,458 316,445 317,441 317,437 318,438 318,430 319,429 320,432 320,432 321,431 321,430 322,435 323,435 323,428 324,422 324,424 325,421 326,427 326,429 327,431 327,429 328,431 329,432 329,440 330,430 330,433 331,418 332,418 332,417 333,419 333,414 334,410 335,409 335,408 336,410 336,412 337,416 338,408 338,402 339,401 339,404 340,406 340,397 341,396 342,398 342,401 343,409 343,404 344,398 345,397 345,397 346,397 346,409 347,410 348,410 348,410 349,413 349,414 350,417 351,418 351,412 352,415 352,416 353,418 354,420 354,411 355,410 355,414 356,413 357,415 357,411 358,409 358,417 359,413 360,410 360,411 361,420 361,417 362,415 363,415 363,408 364,411 364,412 365,405 366,405 366,403 367,399 367,399 368,401 369,399 369,399 370,405 370,403 371,400 371,398 372,408 373,395 373,399 374,397 374,402 375,405 376,399 376,398 377,404 377,411 378,419 379,419 379,413 380,413 380,413 381,414 382,415 382,421 383,420 383,422 384,429 385,428 385,424 386,421 386,422 387,418 388,422 388,423 389,420 389,418 390,423 391,421 391,417 392,418 392,421 393,422 394,429 394,435 395,435 395,436 396,427 397,427 397,430 398,429 398,429 399,430 400,428 400,421 401,421 401,429 402,429 403,426 403,428 404,428 404,431 405,430 405,426 406,422 407,426 407,428 408,415 408,414 409,412 410,417 410,411 411,406 411,400 412,396 413,402 413,404 414,400 414,398 415,403 416,401 416,399 417,405 417,403 418,390 419,390 419,388 420,397 420,400 421,405 422,401 422,400 423,403 423,396 424,392 425,396 425,395 426,402 426,403 427,401 428,398 428,398 429,395 429,392 430,383 431,377 431,379 432,376 432,374 433,369 434,368 434,380 435,378 435,377 436,378 437,377 437,370 438,366 438,377 439,375 439,372 440,372 441,380 441,376 442,354 442,357 443,356 444,361 444,362 445,360 445,356 446,364 447,356 447,353 448,353 448,354 449,364 450,366 450,360 451,359 451,359 452,363 453,363 453,364 454,361 454,366 455,363 456,367 456,365 457,368 457,368 458,357 459,354 459,352 460,348 460,343 461,340 462,342 462,341 463,342 463,338 464,340 465,342 465,342 466,339 466,337 467,340 468,344 468,338 469,332 469,331 470,331 470,332 471,331 472,332 472,329 473,329 473,328 474,326 475,328 475,328 476,324 476,320 477,325 478,324 478,329 479,331 479,326 480,322 481,319 481,320 482,318 482,318 483,310 484,298 484,302 485,301 485,300 486,302 487,299 487,300 488,296 488,299 489,287 490,287 490,295 491,288 491,288 492,297 493,309 493,309 494,310 494,312 495,322 496,317 496,316 497,311 497,307 498,305 499,309 499,307 500,305 500,300 501,294 502,286 502,288 503,293 503,304 504,307 504,309 505,301 506,300 506,294 507,290 507,287 508,287 509,288 509,287 510,284 510,284 511,285 512,281 512,279 513,277 513,275 514,280 515,284 515,279 516,272 516,272 517,271 518,277 518,271 519,275 519,280 520,282 521,284 521,287 522,286 522,282 523,282 524,280 524,273 525,265 525,266 526,271 527,273 527,273 528,280 528,280 529,275 530,279 530,281 531,285 531,293 532,303 533,293 533,285 534,281 534,274 535,265 535,263 536,265 537,263 537,261 538,263 538,266 539,271 540,265 540,269 541,265 541,266 542,261 543,255 543,251 544,248 544,249 545,249 546,256 546,253 547,253 547,261 548,264 549,266 549,264 550,252 550,250 551,262 552,263 552,258 553,254 553,249 554,250 555,243 555,238 556,240 556,237 557,229 558,230 558,231 559,227 559,227 560,230 561,240 561,244 562,241 562,248 563,243 564,248 564,250 565,252 565,247 566,248 567,247 567,250 568,240 568,234 569,234 569,239 570,235 571,226 571,226 572,233 572,239 573,235 574,234 574,232 575,233 575,220 576,218 577,225 577,229 578,232 578,228 579,228 580,224 580,221 581,218 581,211 582,204 583,198 583,195 584,188 584,186 585,187 586,189 586,201 587,205 587,199 588,198 589,190 589,189 590,188 590,195 591,192 592,186 592,195 593,193 593,188 594,190 595,171 595,174 596,174 596,174 597,170 598,160 598,160 599,159 599,158 600,159 600,168 601,172 602,177 602,179 603,177 603,174 604,168 605,169 605,155 606,150 606,154 607,160 608,158 608,163 609,161 609,149 610,151 611,157 611,156 612,153 612,154 613,153 614,151 614,155 615,156 615,161 616,155 617,153 617,147 618,149 618,144 619,148 620,147 620,145 621,137 621,138 622,148 623,134 623,132 624,138 624,139 625,144 626,145 626,146 627,153 627,152 628,150 629,141 629,150 630,161 630,164 631,163 632,159 632,154 633,150 633,145 634,141 634,138 635,136 636,125 636,122 637,135 637,135 638,134 639,141 639,139 640,142 640,142 641,140 642,138 642,126 643,126 643,125 644,128 645,133 645,136 646,131 646,127 647,115 648,118 648,117 649,121 649,129 650,118 651,113 651,109 652,104 652,105 653,110 654,118 654,117 655,121 655,120 656,113 657,104 657,102 658,97 658,96 659,96 660,97 660,104 661,105 661,102 662,97 663,97 663,105 664,111 664,108 665,94 665,85 666,80 667,70 667,71 668,72 668,69 669,68 670,68 670,75 671,76 671,84 672,91 673,81 673,73 674,74 674,458 973,458 973,699 78,699 "/>
<polyline fill="none" opacity="1" stroke="#E6194B" stroke-width="1" points="78,698 78,693 79,684 79,684 80,680 80,683 81,684 82,687 82,685 83,686 83,688 84,685 85,686 85,667 86,671 86,664 87,658 88,664 88,663 89,663 89,666 90,673 91,674 91,674 92,676 92,676 93,678 94,676 94,680 95,678 95,676 96,676 97,674 97,674 98,675 98,668 99,667 100,660 100,655 101,658 101,662 102,667 103,667 103,664 104,655 104,651 105,640 106,637 106,647 107,656 107,659 108,660 109,659 109,651 110,645 110,640 111,637 111,637 112,636 113,637 113,645 114,644 114,641 115,636 116,635 116,634 117,639 117,632 118,623 119,619 119,618 120,619 120,612 121,609 122,603 122,599 123,600 123,595 124,586 125,583 125,582 126,572 126,569 127,568 128,576 128,571 129,568 129,566 130,568 131,568 131,562 132,561 132,555 133,555 134,561 134,563 135,560 135,555 136,551 137,550 137,549 138,541 138,534 139,541 140,537 140,540 141,545 141,544 142,549 143,542 143,533 144,530 144,530 145,531 145,531 146,530 147,530 147,527 148,519 148,521 149,525 150,532 150,532 151,533 151,522 152,519 153,516 153,515 154,518 154,520 155,514 156,515 156,518 157,516 157,509 158,508 159,507 159,503 160,504 160,510 161,508 162,502 162,500 163,500 163,501 164,503 165,501 165,506 166,511 166,515 167,520 168,521 168,512 169,509 169,499 170,501 171,520 171,524 172,521 172,515 173,525 174,523 174,520 175,521 175,518 176,505 176,502 177,507 178,506 178,506 179,512 179,517 180,521 181,513 181,515 182,512 182,513 183,519 184,518 184,514 185,518 185,517 186,519 187,520 187,514 188,512 188,509 189,503 190,504 190,510 191,509 191,515 192,512 193,518 193,517 194,520 194,515 195,517 196,518 196,516 197,507 197,504 198,511 199,510 199,513 200,505 200,499 201,499 202,503 202,502 203,508 203,502 204,494 205,494 205,497 206,494 206,498 207,497 208,491 208,488 209,485 209,488 210,489 210,485 211,483 212,485 212,486 213,490 213,488 214,490 215,488 215,478 216,479 216,479 217,484 218,486 218,480 219,483 219,486 220,488 221,487 221,496 222,499 222,492 223,491 224,489 224,481 225,479 225,482 226,485 227,483 227,474 228,477 228,481 229,481 230,489 230,488 231,490 231,494 232,494 233,499 233,496 234,493 234,491 235,487 236,490 236,487 237,489 237,489 238,489 239,479 239,474 240,469 240,468 241,464 241,462 242,465 243,464 243,455 244,451 244,442 245,442 246,452 246,457 247,457 247,458 248,458 249,453 249,453 250,445 250,449 251,454 252,455 252,458 253,452 253,450 254,456 255,458 255,459 256,462 256,463 257,469 258,469 258,474 259,472 259,471 260,467 261,466 261,469 262,471 262,474 263,474 264,474 264,481 265,492 265,484 266,489 267,491 267,486 268,487 268,492 269,489 270,487 270,482 271,477 271,478 272,476 273,482 273,484 274,480 274,479 275,472 275,471 276,472 277,475 277,478 278,482 278,479 279,476 280,473 280,467 281,462 281,461 282,464 283,467 283,462 284,467 284,465 285,466 286,461 286,454 287,449 287,448 288,439 289,441 289,448 290,453 290,463 291,464 292,475 292,471 293,473 293,461 294,462 295,479 295,477 296,471 296,471 297,459 298,455 298,456 299,459 299,465 300,462 301,461 301,464 302,473 302,471 303,466 304,466 304,467 305,468 305,468 306,475 306,472 307,468 308,472 308,477 309,474 309,468 310,470 311,462 311,467 312,463 312,465 313,467 314,469 314,458 315,455 315,458 316,445 317,441 317,437 318,438 318,430 319,429 320,432 320,432 321,431 321,430 322,435 323,435 323,428 324,422 324,424 325,421 326,427 326,429 327,431 327,429 328,431 329,432 329,440 330,430 330,433 331,418 332,418 332,417 333,419 333,414 334,410 335,409 335,408 336,410 336,412 337,416 338,408 338,402 339,401 339,404 340,406 340,397 341,396 342,398 342,401 343,409 343,404 344,398 345,397 345,397 346,397 346,409 347,410 348,410 348,410 349,413 349,414 350,417 351,418 351,412 352,415 352,416 353,418 354,420 354,411 355,410 355,414 356,413 357,415 357,411 358,409 358,417 359,413 360,410 360,411 361,420 361,417 362,415 363,415 363,408 364,411 364,412 365,405 366,405 366,403 367,399 367,399 368,401 369,399 369,399 370,405 370,403 371,400 371,398 372,408 373,395 373,399 374,397 374,402 375,405 376,399 376,398 377,404 377,411 378,419 379,419 379,413 380,413 380,413 381,414 382,415 382,421 383,420 383,422 384,429 385,428 385,424 386,421 386,422 387,418 388,422 388,423 389,420 389,418 390,423 391,421 391,417 392,418 392,421 393,422 394,429 394,435 395,435 395,436 396,427 397,427 397,430 398,429 398,429 399,430 400,428 400,421 401,421 401,429 402,429 403,426 403,428 404,428 404,431 405,430 405,426 406,422 407,426 407,428 408,415 408,414 409,412 410,417 410,411 411,406 411,400 412,396 413,402 413,404 414,400 414,398 415,403 416,401 416,399 417,405 417,403 418,390 419,390 419,388 420,397 420,400 421,405 422,401 422,400 423,403 423,396 424,392 425,396 425,395 426,402 426,403 427,401 428,398 428,398 429,395 429,392 430,383 431,377 431,379 432,376 432,374 433,369 434,368 434,380 435,378 435,377 436,378 437,377 437,370 438,366 438,377 439,375 439,372 440,372 441,380 441,376 442,354 442,357 443,356 444,361 444,362 445,360 445,356 446,364 447,356 447,353 448,353 448,354 449,364 450,366 450,360 451,359 451,359 452,363 453,363 453,364 454,361 454,366 455,363 456,367 456,365 457,368 457,368 458,357 459,354 459,352 460,348 460,343 461,340 462,342 462,341 463,342 463,338 464,340 465,342 465,342 466,339 466,337 467,340 468,344 468,338 469,332 469,331 470,331 470,332 471,331 472,332 472,329 473,329 473,328 474,326 475,328 475,328 476,324 476,320 477,325 478,324 478,329 479,331 479,326 480,322 481,319 481,320 482,318 482,318 483,310 484,298 484,302 485,301 485,300 486,302 487,299 487,300 488,296 488,299 489,287 490,287 490,295 491,288 491,288 492,297 493,309 493,309 494,310 494,312 495,322 496,317 496,316 497,311 497,307 498,305 499,309 499,307 500,305 500,300 501,294 502,286 502,288 503,293 503,304 504,307 504,309 505,301 506,300 506,294 507,290 507,287 508,287 509,288 509,287 510,284 510,284 511,285 512,281 512,279 513,277 513,275 514,280 515,284 515,279 516,272 516,272 517,271 518,277 518,271 519,275 519,280 520,282 521,284 521,287 522,286 522,282 523,282 524,280 524,273 525,265 525,266 526,271 527,273 527,273 528,280 528,280 529,275 530,279 530,281 531,285 531,293 532,303 533,293 533,285 534,281 534,274 535,265 535,263 536,265 537,263 537,261 538,263 538,266 539,271 540,265 540,269 541,265 541,266 542,261 543,255 543,251 544,248 544,249 545,249 546,256 546,253 547,253 547,261 548,264 549,266 549,264 550,252 550,250 551,262 552,263 552,258 553,254 553,249 554,250 555,243 555,238 556,240 556,237 557,229 558,230 558,231 559,227 559,227 560,230 561,240 561,244 562,241 562,248 563,243 564,248 564,250 565,252 565,247 566,248 567,247 567,250 568,240 568,234 569,234 569,239 570,235 571,226 571,226 572,233 572,239 573,235 574,234 574,232 575,233 575,220 576,218 577,225 577,229 578,232 578,228 579,228 580,224 580,221 581,218 581,211 582,204 583,198 583,195 584,188 584,186 585,187 586,189 586,201 587,205 587,199 588,198 589,190 589,189 590,188 590,195 591,192 592,186 592,195 593,193 593,188 594,190 595,171 595,174 596,174 596,174 597,170 598,160 598,160 599,159 599,158 600,159 600,168 601,172 602,177 602,179 603,177 603,174 604,168 605,169 605,155 606,150 606,154 607,160 608,158 608,163 609,161 609,149 610,151 611,157 611,156 612,153 612,154 613,153 614,151 614,155 615,156 615,161 616,155 617,153 617,147 618,149 618,144 619,148 620,147 620,145 621,137 621,138 622,148 623,134 623,132 624,138 624,139 625,144 626,145 626,146 627,153 627,152 628,150 629,141 629,150 630,161 630,164 631,163 632,159 632,154 633,150 633,145 634,141 634,138 635,136 636,125 636,122 637,135 637,135 638,134 639,141 639,139 640,142 640,142 641,140 642,138 642,126 643,126 643,125 644,128 645,133 645,136 646,131 646,127 647,115 648,118 648,117 649,121 649,129 650,118 651,113 651,109 652,104 652,105 653,110 654,118 654,117 655,121 655,120 656,113 657,104 657,102 658,97 658,96 659,96 660,97 660,104 661,105 661,102 662,97 663,97 663,105 664,111 664,108 665,94 665,85 666,80 667,70 667,71 668,72 668,69 669,68 670,68 670,75 671,76 671,84 672,91 673,81 673,73 674,74 674,458 973,458 "/>
<line opacity="0.1" stroke="#000000" stroke-width="1" x1="78" y1="699" x2="78" y2="68"/>
<line opacity="0.1" stroke="#000000" stroke-width="1" x1="90" y1="699" x2="90" y2="68"/>
<line opacity="0.1" stroke="#000000" stroke-width="1" x1="102" y1="699" x2="102" y2="68"/>
<line opacity="0.1" stroke="#000000" stroke-width="1" x1="114" y1="699" x2="114" y2="68"/>
<line opacity="0.1" stroke="#000000" stroke-width="1" x1="126" y1="699" x2="126" y2="68"/>
<line opacity="0.1" stroke="#000000" stroke-width="1" x1="138" y1="699" x2="138" y2="68"/>
<line opacity="0.1" stroke="#000000" stroke-width="1" x1="150" y1="699" x2="150" y2="68"/>
<line opacity="0.1" stroke="#000000" stroke-width="1" x1="162" y1="699" x2="162" y2="68"/>
<line opacity="0.1" stroke="#000000" stroke-width="1" x1="174" y1="699" x2="174" y2="68"/>
<line opacity="0.1" stroke="#000000" stroke-width="1" x1="185" y1="699" x2="185" y2="68"/>
<line opacity="0.1" stroke="#000000" stroke-width="1" x1="197" y1="699" x2="197" y2="68"/>
<line opacity="0.1" stroke="#000000" stroke-width="1" x1="209" y1="699" x2="209" y2="68"/>
<line opacity="0.1" stroke="#000000" stroke-width="1" x1="221" y1="699" x2="221" y2="68"/>
<line opacity="0.1" stroke="#000000" stroke-width="1" x1="233" y1="699" x2="233" y2="68"/>
<line opacity="0.1" stroke="#000000" stroke-width="1" x1="245" y1="699" x2="245" y2="68"/>
<line opacity="0.1" stroke="#000000" stroke-width="1" x1="257" y1="699" x2="257" y2="68"/>
<line opacity="0.1" stroke="#000000" stroke-width="1" x1="269" y1="699" x2="269" y2="68"/>
<line opacity="0.1" stroke="#000000" stroke-width="1" x1="281" y1="699" x2="281" y2="68"/>
<line opacity="0.1" stroke="#000000" stroke-width="1" x1="293" y1="699" x2="293" y2="68"/>
<line opacity="0.1" stroke="#000000" stroke-width="1" x1="305" y1="699" x2="305" y2="68"/>
<line opacity="0.1" stroke="#000000" stroke-width="1" x1="317" y1="699" x2="317" y2="68"/>
<line opacity="0.1" stroke="#000000" stroke-width="1" x1="329" y1="699" x2="329" y2="68"/>
<line opacity="0.1" stroke="#000000" stroke-width="1" x1="341" y1="699" x2="341" y2="68"/>
<line opacity="0.1" stroke="#000000" stroke-width="1" x1="352" y1="699" x2="352" y2="68"/>
<line opacity="0.1" stroke="#000000" stroke-width="1" x1="364" y1="699" x2="364" y2="68"/>
<line opacity="0.1" stroke="#000000" stroke-width="1" x1="376" y1="699" x2="376" y2="68"/>
<line opacity="0.1" stroke="#000000" stroke-width="1" x1="388" y1="699" x2="388" y2="68"/>
<line opacity="0.1" stroke="#000000" stroke-width="1" x1="400" y1="699" x2="400" y2="68"/>
<line opacity="0.1" stroke="#000000" stroke-width="1" x1="412" y1="699" x2="412" y2="68"/>
<line opacity="0.1" stroke="#000000" stroke-width="1" x1="424" y1="699" x2="424" y2="68"/>
<line opacity="0.1" stroke="#000000" stroke-width="1" x1="436" y1="699" x2="436" y2="68"/>
<line opacity="0.1" stroke="#000000" stroke-width="1" x1="448" y1="699" x2="448" y2="68"/>
<line opacity="0.1" stroke="#000000" stroke-width="1" x1="460" y1="699" x2="460" y2="68"/>
<line opacity="0.1" stroke="#000000" stroke-width="1" x1="472" y1="699" x2="472" y2="68"/>
<line opacity="0.1" stroke="#000000" stroke-width="1" x1="484" y1="699" x2="484" y2="68"/>
<line opacity="0.1" stroke="#000000" stroke-width="1" x1="496" y1="699" x2="496" y2="68"/>
<line opacity="0.1" stroke="#000000" stroke-width="1" x1="507" y1="699" x2="507" y2="68"/>
<line opacity="0.1" stroke="#000000" stroke-width="1" x1="519" y1="699" x2="519" y2="68"/>
<line opacity="0.1" stroke="#000000" stroke-width="1" x1="531" y1="699" x2="531" y2="68"/>
<line opacity="0.1" stroke="#000000" stroke-width="1" x1="543" y1="699" x2="543" y2="68"/>
<line opacity="0.1" stroke="#000000" stroke-width="1" x1="555" y1="699" x2="555" y2="68"/>
<line opacity="0.1" stroke="#000000" stroke-width="1" x1="567" y1="699" x2="567" y2="68"/>
<line opacity="0.1" stroke="#000000" stroke-width="1" x1="579" y1="699" x2="579" y2="68"/>
<line opacity="0.1" stroke="#000000" stroke-width="1" x1="591" y1="699" x2="591" y2="68"/>
<line opacity="0.1" stroke="#000000" stroke-width="1" x1="603" y1="699" x2="603" y2="68"/>
<line opacity="0.1" stroke="#000000" stroke-width="1" x1="615" y1="699" x2="615" y2="68"/>
<line opacity="0.1" stroke="#000000" stroke-width="1" x1="627" y1="699" x2="627" y2="68"/>
<line opacity="0.1" stroke="#000000" stroke-width="1" x1="639" y1="699" x2="639" y2="68"/>
<line opacity="0.1" stroke="#000000" stroke-width="1" x1="651" y1="699" x2="651" y2="68"/>
<line opacity="0.1" stroke="#000000" stroke-width="1" x1="662" y1="699" x2="662" y2="68"/>
<line opacity="0.1" stroke="#000000" stroke-width="1" x1="674" y1="699" x2="674" y2="68"/>
<line opacity="0.1" stroke="#000000" stroke-width="1" x1="686" y1="699" x2="686" y2="68"/>
<line opacity="0.1" stroke="#000000" stroke-width="1" x1="698" y1="699" x2="698" y2="68"/>
<line opacity="0.1" stroke="#000000" stroke-width="1" x1="710" y1="699" x2="710" y2="68"/>
<line opacity="0.1" stroke="#000000" stroke-width="1" x1="722" y1="699" x2="722" y2="68"/>
<line opacity="0.1" stroke="#000000" stroke-width="1" x1="734" y1="699" x2="734" y2="68"/>
<line opacity="0.1" stroke="#000000" stroke-width="1" x1="746" y1="699" x2="746" y2="68"/>
<line opacity="0.1" stroke="#000000" stroke-width="1" x1="758" y1="699" x2="758" y2="68"/>
<line opacity="0.1" stroke="#000000" stroke-width="1" x1="770" y1="699" x2="770" y2="68"/>
<line opacity="0.1" stroke="#000000" stroke-width="1" x1="782" y1="699" x2="782" y2="68"/>
<line opacity="0.1" stroke="#000000" stroke-width="1" x1="794" y1="699" x2="794" y2="68"/>
<line opacity="0.1" stroke="#000000" stroke-width="1" x1="806" y1="699" x2="806" y2="68"/>
<line opacity="0.1" stroke="#000000" stroke-width="1" x1="817" y1="699" x2="817" y2="68"/>
<line opacity="0.1" stroke="#000000" stroke-width="1" x1="829" y1="699" x2="829" y2="68"/>
<line opacity="0.1" stroke="#000000" stroke-width="1" x1="841" y1="699" x2="841" y2="68"/>
<line opacity="0.1" stroke="#000000" stroke-width="1" x1="853" y1="699" x2="853" y2="68"/>
<line opacity="0.1" stroke="#000000" stroke-width="1" x1="865" y1="699" x2="865" y2="68"/>
<line opacity="0.1" stroke="#000000" stroke-width="1" x1="877" y1="699" x2="877" y2="68"/>
<line opacity="0.1" stroke="#000000" stroke-width="1" x1="889" y1="699" x2="889" y2="68"/>
<line opacity="0.1" stroke="#000000" stroke-width="1" x1="901" y1="699" x2="901" y2="68"/>
<line opacity="0.1" stroke="#000000" stroke-width="1" x1="913" y1="699" x2="913" y2="68"/>
<line opacity="0.1" stroke="#000000" stroke-width="1" x1="925" y1="699" x2="925" y2="68"/>
<line opacity="0.1" stroke="#000000" stroke-width="1" x1="937" y1="699" x2="937" y2="68"/>
<line opacity="0.1" stroke="#000000" stroke-width="1" x1="949" y1="699" x2="949" y2="68"/>
<line opacity="0.1" stroke="#000000" stroke-width="1" x1="961" y1="699" x2="961" y2="68"/>
<line opacity="0.1" stroke="#000000" stroke-width="1" x1="78" y1="699" x2="973" y2="699"/>
<line opacity="0.1" stroke="#000000" stroke-width="1" x1="78" y1="689" x2="973" y2="689"/>
<line opacity="0.1" stroke="#000000" stroke-width="1" x1="78" y1="679" x2="973" y2="679"/>
<line opacity="0.1" stroke="#000000" stroke-width="1" x1="78" y1="669" x2="973" y2="669"/>
<line opacity="0.1" stroke="#000000" stroke-width="1" x1="78" y1="660" x2="973" y2="660"/>
<line opacity="0.1" stroke="#000000" stroke-width="1" x1="78" y1="650" x2="973" y2="650"/>
<line opacity="0.1" stroke="#000000" stroke-width="1" x1="78" y1="640" x2="973" y2="640"/>
<line opacity="0.1" stroke="#000000" stroke-width="1" x1="78" y1="630" x2="973" y2="630"/>
<line opacity="0.1" stroke="#000000" stroke-width="1" x1="78" y1="621" x2="973" y2="621"/>
<line opacity="0.1" stroke="#000000" stroke-width="1" x1="78" y1="611" x2="973" y2="611"/>
<line opacity="0.1" stroke="#000000" stroke-width="1" x1="78" y1="601" x2="973" y2="601"/>
<line opacity="0.1" stroke="#000000" stroke-width="1" x1="78" y1="592" x2="973" y2="592"/>
<line opacity="0.1" stroke="#000000" stroke-width="1" x1="78" y1="582" x2="973" y2="582"/>
<line opacity="0.1" stroke="#000000" stroke-width="1" x1="78" y1="572" x2="973" y2="572"/>
<line opacity="0.1" stroke="#000000" stroke-width="1" x1="78" y1="562" x2="973" y2="562"/>
<line opacity="0.1" stroke="#000000" stroke-width="1" x1="78" y1="553" x2="973" y2="553"/>
<line opacity="0.1" stroke="#000000" stroke-width="1" x1="78" y1="543" x2="973" y2="543"/>
<line opacity="0.1" stroke="#000000" stroke-width="1" x1="78" y1="533" x2="973" y2="533"/>
<line opacity="0.1" stroke="#000000" stroke-width="1" x1="78" y1="524" x2="973" y2="524"/>
<line opacity="0.1" stroke="#000000" stroke-width="1" x1="78" y1="514" x2="973" y2="514"/>
<line opacity="0.1" stroke="#000000" stroke-width="1" x1="78" y1="504" x2="973" y2="504"/>
<line opacity="0.1" stroke="#000000" stroke-width="1" x1="78" y1="494" x2="973" y2="494"/>
<line opacity="0.1" stroke="#000000" stroke-width="1" x1="78" y1="485" x2="973" y2="485"/>
<line opacity="0.1" stroke="#000000" stroke-width="1" x1="78" y1="475" x2="973" y2="475"/>
<line opacity="0.1" stroke="#000000" stroke-width="1" x1="78" y1="465" x2="973" y2="465"/>
<line opacity="0.1" stroke="#000000" stroke-width="1" x1="78" y1="455" x2="973" y2="455"/>
<line opacity="0.1" stroke="#000000" stroke-width="1" x1="78" y1="446" x2="973" y2="446"/>
<line opacity="0.1" stroke="#000000" stroke-width="1" x1="78" y1="436" x2="973" y2="436"/>
<line opacity="0.1" stroke="#000000" stroke-width="1" x1="78" y1="426" x2="973" y2="426"/>
<line opacity="0.1" stroke="#000000" stroke-width="1" x1="78" y1="417" x2="973" y2="417"/>
<line opacity="0.1" stroke="#000000" stroke-width="1" x1="78" y1="407" x2="973" y2="407"/>
<line opacity="0.1" stroke="#000000" stroke-width="1" x1="78" y1="397" x2="973" y2="397"/>
<line opacity="0.1" stroke="#000000" stroke-width="1" x1="78" y1="387" x2="973" y2="387"/>
<line opacity="0.1" stroke="#000000" stroke-width="1" x1="78" y1="378" x2="973" y2="378"/>
<line opacity="0.1" stroke="#000000" stroke-width="1" x1="78" y1="368" x2="973" y2="368"/>
<line opacity="0.1" stroke="#000000" stroke-width="1" x1="78" y1="358" x2="973" y2="358"/>
<line opacity="0.1" stroke="#000000" stroke-width="1" x1="78" y1="349" x2="973" y2="349"/>
<line opacity="0.1" stroke="#000000" stroke-width="1" x1="78" y1="339" x2="973" y2="339"/>
<line opacity="0.1" stroke="#000000" stroke-width="1" x1="78" y1="329" x2="973" y2="329"/>
<line opacity="0.1" stroke="#000000" stroke-width="1" x1="78" y1="319" x2="973" y2="319"/>
<line opacity="0.1" stroke="#000000" stroke-width="1" x1="78" y1="310" x2="973" y2="310"/>
<line opacity="0.1" stroke="#000000" stroke-width="1" x1="78" y1="300" x2="973" y2="300"/>
<line opacity="0.1" stroke="#000000" stroke-width="1" x1="78" y1="290" x2="973" y2="290"/>
<line opacity="0.1" stroke="#000000" stroke-width="1" x1="78" y1="281" x2="973" y2="281"/>
<line opacity="0.1" stroke="#000000" stroke-width="1" x1="78" y1="271" x2="973" y2="271"/>
<line opacity="0.1" stroke="#000000" stroke-width="1" x1="78" y1="261" x2="973" y2="261"/>
<line opacity="0.1" stroke="#000000" stroke-width="1" x1="78" y1="251" x2="973" y2="251"/>
<line opacity="0.1" stroke="#000000" stroke-width="1" x1="78" y1="242" x2="973" y2="242"/>
<line opacity="0.1" stroke="#000000" stroke-width="1" x1="78" y1="232" x2="973" y2="232"/>
<line opacity="0.1" stroke="#000000" stroke-width="1" x1="78" y1="222" x2="973" y2="222"/>
<line opacity="0.1" stroke="#000000" stroke-width="1" x1="78" y1="212" x2="973" y2="212"/>
<line opacity="0.1" stroke="#000000" stroke-width="1" x1="78" y1="203" x2="973" y2="203"/>
<line opacity="0.1" stroke="#000000" stroke-width="1" x1="78" y1="193" x2="973" y2="193"/>
<line opacity="0.1" stroke="#000000" stroke-width="1" x1="78" y1="183" x2="973" y2="183"/>
<line opacity="0.1" stroke="#000000" stroke-width="1" x1="78" y1="174" x2="973" y2="174"/>
<line opacity="0.1" stroke="#000000" stroke-width="1" x1="78" y1="164" x2="973" y2="164"/>
<line opacity="0.1" stroke="#000000" stroke-width="1" x1="78" y1="154" x2="973" y2="154"/>
<line opacity="0.1" stroke="#000000" stroke-width="1" x1="78" y1="144" x2="973" y2="144"/>
<line opacity="0.1" stroke="#000000" stroke-width="1" x1="78" y1="135" x2="973" y2="135"/>
<line opacity="0.1" stroke="#000000" stroke-width="1" x1="78" y1="125" x2="973" y2="125"/>
<line opacity="0.1" stroke="#000000" stroke-width="1" x1="78" y1="115" x2="973" y2="115"/>
<line opacity="0.1" stroke="#000000" stroke-width="1" x1="78" y1="106" x2="973" y2="106"/>
<line opacity="0.1" stroke="#000000" stroke-width="1" x1="78" y1="96" x2="973" y2="96"/>
<line opacity="0.1" stroke="#000000" stroke-width="1" x1="78" y1="86" x2="973" y2="86"/>
<line opacity="0.1" stroke="#000000" stroke-width="1" x1="78" y1="76" x2="973" y2="76"/>
<text x="8" y="384" dy="0.76em" text-anchor="middle" font-family="sans-serif" font-size="9.67741935483871" opacity="1" fill="#000000" transform="rotate(270, 8, 384)">
Memory usage
</text>
<text x="526" y="760" dy="-0.5ex" text-anchor="middle" font-family="sans-serif" font-size="9.67741935483871" opacity="1" fill="#000000">
Time
</text>
<line opacity="0.2" stroke="#000000" stroke-width="1" x1="150" y1="699" x2="150" y2="68"/>
<line opacity="0.2" stroke="#000000" stroke-width="1" x1="269" y1="699" x2="269" y2="68"/>
<line opacity="0.2" stroke="#000000" stroke-width="1" x1="388" y1="699" x2="388" y2="68"/>
<line opacity="0.2" stroke="#000000" stroke-width="1" x1="507" y1="699" x2="507" y2="68"/>
<line opacity="0.2" stroke="#000000" stroke-width="1" x1="627" y1="699" x2="627" y2="68"/>
<line opacity="0.2" stroke="#000000" stroke-width="1" x1="746" y1="699" x2="746" y2="68"/>
<line opacity="0.2" stroke="#000000" stroke-width="1" x1="865" y1="699" x2="865" y2="68"/>
<line opacity="0.2" stroke="#000000" stroke-width="1" x1="78" y1="699" x2="973" y2="699"/>
<line opacity="0.2" stroke="#000000" stroke-width="1" x1="78" y1="601" x2="973" y2="601"/>
<line opacity="0.2" stroke="#000000" stroke-width="1" x1="78" y1="504" x2="973" y2="504"/>
<line opacity="0.2" stroke="#000000" stroke-width="1" x1="78" y1="407" x2="973" y2="407"/>
<line opacity="0.2" stroke="#000000" stroke-width="1" x1="78" y1="310" x2="973" y2="310"/>
<line opacity="0.2" stroke="#000000" stroke-width="1" x1="78" y1="212" x2="973" y2="212"/>
<line opacity="0.2" stroke="#000000" stroke-width="1" x1="78" y1="115" x2="973" y2="115"/>
<polyline fill="none" opacity="1" stroke="#000000" stroke-width="1" points="77,68 77,699 "/>
<text x="68" y="699" dy="0.5ex" text-anchor="end" font-family="sans-serif" font-size="9.67741935483871" opacity="1" fill="#000000">
0.00 MB
</text>
<polyline fill="none" opacity="1" stroke="#000000" stroke-width="1" points="72,699 77,699 "/>
<text x="68" y="601" dy="0.5ex" text-anchor="end" font-family="sans-serif" font-size="9.67741935483871" opacity="1" fill="#000000">
0.19 MB
</text>
<polyline fill="none" opacity="1" stroke="#000000" stroke-width="1" points="72,601 77,601 "/>
<text x="68" y="504" dy="0.5ex" text-anchor="end" font-family="sans-serif" font-size="9.67741935483871" opacity="1" fill="#000000">
0.38 MB
</text>
<polyline fill="none" opacity="1" stroke="#000000" stroke-width="1" points="72,504 77,504 "/>
<text x="68" y="407" dy="0.5ex" text-anchor="end" font-family="sans-serif" font-size="9.67741935483871" opacity="1" fill="#000000">
0.57 MB
</text>
<polyline fill="none" opacity="1" stroke="#000000" stroke-width="1" points="72,407 77,407 "/>
<text x="68" y="310" dy="0.5ex" text-anchor="end" font-family="sans-serif" font-size="9.67741935483871" opacity="1" fill="#000000">
0.76 MB
</text>
<polyline fill="none" opacity="1" stroke="#000000" stroke-width="1" points="72,310 77,310 "/>
<text x="68" y="212" dy="0.5ex" text-anchor="end" font-family="sans-serif" font-size="9.67741935483871" opacity="1" fill="#000000">
0.95 MB
</text>
<polyline fill="none" opacity="1" stroke="#000000" stroke-width="1" points="72,212 77,212 "/>
<text x="68" y="115" dy="0.5ex" text-anchor="end" font-family="sans-serif" font-size="9.67741935483871" opacity="1" fill="#000000">
1.14 MB
</text>
<polyline fill="none" opacity="1" stroke="#000000" stroke-width="1" points="72,115 77,115 "/>
<polyline fill="none" opacity="1" stroke="#000000" stroke-width="1" points="78,700 973,700 "/>
<text x="150" y="710" dy="0.76em" text-anchor="middle" font-family="sans-serif" font-size="9.67741935483871" opacity="1" fill="#000000">
02:04:18
</text>
<polyline fill="none" opacity="1" stroke="#000000" stroke-width="1" points="150,700 150,705 "/>
<text x="269" y="710" dy="0.76em" text-anchor="middle" font-family="sans-serif" font-size="9.67741935483871" opacity="1" fill="#000000">
02:04:20
</text>
<polyline fill="none" opacity="1" stroke="#000000" stroke-width="1" points="269,700 269,705 "/>
<text x="388" y="710" dy="0.76em" text-anchor="middle" font-family="sans-serif" font-size="9.67741935483871" opacity="1" fill="#000000">
02:04:22
</text>
<polyline fill="none" opacity="1" stroke="#000000" stroke-width="1" points="388,700 388,705 "/>
<text x="507" y="710" dy="0.76em" text-anchor="middle" font-family="sans-serif" font-size="9.67741935483871" opacity="1" fill="#000000">
02:04:24
</text>
<polyline fill="none" opacity="1" stroke="#000000" stroke-width="1" points="507,700 507,705 "/>
<text x="627" y="710" dy="0.76em" text-anchor="middle" font-family="sans-serif" font-size="9.67741935483871" opacity="1" fill="#000000">
02:04:26
</text>
<polyline fill="none" opacity="1" stroke="#000000" stroke-width="1" points="627,700 627,705 "/>
<text x="746" y="710" dy="0.76em" text-anchor="middle" font-family="sans-serif" font-size="9.67741935483871" opacity="1" fill="#000000">
02:04:28
</text>
<polyline fill="none" opacity="1" stroke="#000000" stroke-width="1" points="746,700 746,705 "/>
<text x="865" y="710" dy="0.76em" text-anchor="middle" font-family="sans-serif" font-size="9.67741935483871" opacity="1" fill="#000000">
02:04:30
</text>
<polyline fill="none" opacity="1" stroke="#000000" stroke-width="1" points="865,700 865,705 "/>
<polyline fill="none" opacity="1" stroke="#000000" stroke-width="1" points="78,67 974,67 "/>
<text x="150" y="58" dy="-0.5ex" text-anchor="middle" font-family="sans-serif" font-size="9.67741935483871" opacity="1" fill="#000000">
+1s
</text>
<polyline fill="none" opacity="1" stroke="#000000" stroke-width="1" points="150,62 150,67 "/>
<text x="269" y="58" dy="-0.5ex" text-anchor="middle" font-family="sans-serif" font-size="9.67741935483871" opacity="1" fill="#000000">
+3s
</text>
<polyline fill="none" opacity="1" stroke="#000000" stroke-width="1" points="269,62 269,67 "/>
<text x="389" y="58" dy="-0.5ex" text-anchor="middle" font-family="sans-serif" font-size="9.67741935483871" opacity="1" fill="#000000">
+5s
</text>
<polyline fill="none" opacity="1" stroke="#000000" stroke-width="1" points="389,62 389,67 "/>
<text x="508" y="58" dy="-0.5ex" text-anchor="middle" font-family="sans-serif" font-size="9.67741935483871" opacity="1" fill="#000000">
+7s
</text>
<polyline fill="none" opacity="1" stroke="#000000" stroke-width="1" points="508,62 508,67 "/>
<text x="627" y="58" dy="-0.5ex" text-anchor="middle" font-family="sans-serif" font-size="9.67741935483871" opacity="1" fill="#000000">
+9s
</text>
<polyline fill="none" opacity="1" stroke="#000000" stroke-width="1" points="627,62 627,67 "/>
<text x="747" y="58" dy="-0.5ex" text-anchor="middle" font-family="sans-serif" font-size="9.67741935483871" opacity="1" fill="#000000">
+11s
</text>
<polyline fill="none" opacity="1" stroke="#000000" stroke-width="1" points="747,62 747,67 "/>
<text x="866" y="58" dy="-0.5ex" text-anchor="middle" font-family="sans-serif" font-size="9.67741935483871" opacity="1" fill="#000000">
+13s
</text>
<polyline fill="none" opacity="1" stroke="#000000" stroke-width="1" points="866,62 866,67 "/>
</svg>
