<svg width="1024" height="768" viewBox="0 0 1024 768" xmlns="http://www.w3.org/2000/svg">
<rect x="0" y="0" width="1023" height="767" opacity="1" fill="#FFFFFF" stroke="none"/>
<polygon opacity="1" fill="#E6194B" points="78,670 78,669 79,660 79,606 80,605 81,619 81,604 82,591 83,573 83,589 84,611 85,596 85,597 86,607 87,639 87,635 88,647 89,642 89,656 90,658 91,657 91,647 92,666 93,670 93,656 94,653 95,646 95,647 96,651 97,655 97,634 98,623 99,601 99,588 100,585 101,609 101,609 102,632 103,625 103,617 104,606 105,576 105,541 106,524 107,562 107,587 108,599 109,612 109,614 110,608 111,579 111,560 112,542 113,530 113,530 114,530 115,527 115,530 116,560 117,560 117,546 118,534 119,530 119,524 120,535 121,526 121,511 122,481 123,474 123,467 124,469 125,446 125,441 126,426 127,410 127,410 128,415 129,385 129,358 130,349 131,349 131,319 132,299 133,295 133,316 134,313 135,317 135,304 136,290 137,309 137,301 138,302 139,274 139,268 140,262 141,254 141,284 142,290 143,290 143,263 144,247 145,246 145,239 146,222 147,213 147,190 148,211 149,204 149,212 150,233 151,238 151,233 152,237 153,216 153,191 154,183 155,185 155,186 156,197 157,188 157,200 158,188 159,176 159,164 160,181 161,201 161,229 162,230 163,228 163,219 164,178 165,179 165,172 166,171 166,175 167,192 168,173 168,173 169,186 170,186 170,181 171,154 172,156 172,147 173,135 174,148 174,149 175,162 176,154 176,135 177,133 178,137 178,135 179,143 180,144 180,147 181,173 182,181 182,206 183,215 184,219 184,187 185,182 186,155 186,140 187,166 188,218 188,235 189,231 190,211 190,241 191,245 192,228 192,240 193,234 194,218 194,176 195,167 196,168 196,189 197,182 198,181 198,181 199,199 200,207 200,226 201,237 202,225 202,212 203,218 204,204 204,207 205,213 206,234 206,234 207,218 208,221 208,236 209,241 210,235 210,244 211,246 212,247 212,222 213,218 214,229 214,209 215,186 216,190 216,229 217,220 218,212 218,240 219,230 220,230 220,283 221,247 222,247 222,263 223,260 224,245 224,257 225,262 226,253 226,239 227,228 228,210 228,211 229,237 230,233 230,229 231,255 232,227 232,200 233,198 234,206 234,222 235,214 236,221 236,238 237,232 238,196 238,185 239,187 240,211 240,200 241,190 242,209 242,212 243,206 244,193 244,183 245,174 246,165 246,171 247,178 248,182 248,173 249,158 250,169 250,167 251,169 252,171 252,194 253,194 253,179 254,194 255,185 255,155 256,156 257,159 257,151 258,154 259,171 259,184 260,162 261,164 261,171 262,184 263,186 263,188 264,192 265,226 265,230 266,240 267,221 267,207 268,218 269,200 269,189 270,175 271,166 271,194 272,181 273,189 273,183 274,151 275,151 275,174 276,183 277,175 277,202 278,215 279,208 279,212 280,236 281,227 281,235 282,245 283,249 283,255 284,237 285,233 285,222 286,204 287,206 287,221 288,211 289,225 289,216 290,220 291,223 291,216 292,184 293,172 293,152 294,152 295,153 295,143 296,125 297,126 297,147 298,144 299,136 299,128 300,93 301,89 301,68 302,68 303,105 303,120 304,129 305,123 305,126 306,130 307,139 307,109 308,128 309,121 309,85 310,86 311,105 311,118 312,128 313,139 313,121 314,108 315,110 315,130 316,141 317,140 317,154 318,157 319,170 319,178 320,184 321,203 321,214 322,247 323,223 323,221 324,229 325,234 325,241 326,256 327,257 327,275 328,288 329,323 329,294 330,310 331,332 331,305 332,307 333,311 333,335 334,329 335,320 335,325 336,312 337,313 337,291 338,279 339,287 339,277 340,289 340,304 341,316 342,312 342,300 343,303 344,295 344,277 345,267 346,289 346,276 347,287 348,302 348,299 349,312 350,301 350,298 351,296 352,283 352,285 353,270 354,245 354,246 355,242 356,262 356,281 357,268 358,256 358,270 359,265 360,268 360,273 361,275 362,257 362,245 363,224 364,214 364,212 365,205 366,180 366,181 367,181 368,209 368,218 369,245 370,273 370,273 371,313 372,340 372,343 373,309 374,305 374,310 375,301 376,276 376,269 377,276 378,330 378,334 379,332 380,326 380,327 381,309 382,332 382,314 383,313 384,290 384,270 385,270 386,255 386,278 387,268 388,273 388,284 389,294 390,303 390,293 391,287 392,289 392,286 393,292 394,309 394,337 395,330 396,329 396,322 397,315 398,311 398,308 399,327 400,306 400,313 401,327 402,321 402,313 403,313 404,319 404,346 405,348 406,338 406,338 407,325 408,335 408,334 409,357 410,360 410,363 411,367 412,376 412,364 413,342 414,344 414,349 415,344 416,321 416,327 417,338 418,338 418,327 419,325 420,337 420,349 421,341 422,362 422,371 423,353 424,318 424,313 425,303 426,302 426,349 427,329 427,299 428,279 429,272 429,268 430,242 431,242 431,255 432,261 433,246 433,227 434,227 435,228 435,225 436,231 437,276 437,259 438,252 439,230 439,234 440,236 441,228 441,240 442,253 443,262 443,255 444,257 445,234 445,230 446,219 447,207 447,212 448,220 449,212 449,209 450,222 451,234 451,240 452,240 453,256 453,250 454,252 455,245 455,247 456,257 457,260 457,264 458,265 459,290 459,289 460,262 461,253 461,267 462,274 463,227 463,214 464,221 465,215 465,216 466,221 467,215 467,223 468,226 469,201 469,194 470,189 471,189 471,203 472,188 473,183 473,195 474,200 475,200 475,201 476,212 477,241 477,218 478,220 479,186 479,200 480,191 481,167 481,172 482,199 483,190 483,178 484,184 485,194 485,192 486,158 487,158 487,173 488,163 489,166 489,178 490,191 491,209 491,212 492,210 493,192 493,189 494,168 495,178 495,176 496,170 497,171 497,167 498,169 499,183 499,210 500,226 501,219 501,221 502,224 503,235 503,226 504,241 505,248 505,250 506,238 507,249 507,253 508,257 509,254 509,257 510,261 511,258 511,242 512,254 513,277 513,264 514,262 514,281 515,274 516,258 516,232 517,231 518,269 518,271 519,266 520,267 520,287 521,274 522,271 522,263 523,259 524,266 524,264 525,272 526,274 526,276 527,262 528,255 528,250 529,241 530,262 530,298 531,282 532,263 532,254 533,253 534,255 534,266 535,275 536,247 536,234 537,232 538,249 538,275 539,277 540,254 540,262 541,252 542,246 542,240 543,250 544,237 544,208 545,218 546,233 546,255 547,282 548,266 548,261 549,262 550,246 550,251 551,257 552,271 552,276 553,259 554,249 554,243 555,257 556,248 556,260 557,271 558,278 558,251 559,249 560,255 560,262 561,255 562,251 562,255 563,280 564,282 564,278 565,286 566,292 566,280 567,281 568,300 568,293 569,308 570,330 570,357 571,354 572,342 572,336 573,338 574,313 574,314 575,361 576,353 576,326 577,329 578,336 578,340 579,329 580,331 580,345 581,358 582,367 582,360 583,365 584,367 584,369 585,378 586,367 586,352 587,354 588,339 588,345 589,330 590,327 590,348 591,362 592,346 592,347 593,359 594,345 594,360 595,356 596,383 596,382 597,365 598,362 598,364 599,379 599,388 600,385 601,408 601,410 602,434 603,438 603,444 604,439 605,456 605,463 606,463 607,442 607,418 608,410 609,419 609,418 610,414 611,412 611,411 612,415 613,422 613,418 614,418 615,421 615,420 616,408 617,421 617,411 618,433 619,439 619,427 620,414 621,412 621,429 622,419 623,429 623,429 624,421 625,414 625,408 626,404 627,420 627,414 628,378 629,377 629,352 630,342 631,354 631,354 632,356 633,357 633,349 634,327 635,311 635,308 636,293 637,294 637,309 638,314 639,305 639,307 640,310 641,320 641,312 642,317 643,311 643,312 644,325 645,334 645,315 646,302 647,298 647,301 648,305 649,332 649,340 650,340 651,335 651,326 652,324 653,339 653,354 654,341 655,323 655,304 656,325 657,328 657,332 658,336 659,367 659,374 660,368 661,375 661,352 662,369 663,358 663,352 664,346 665,343 665,309 666,297 667,304 667,326 668,291 669,292 669,295 670,274 671,276 671,311 672,299 673,299 673,271 674,272 675,287 675,277 676,272 677,265 677,250 678,268 679,295 679,305 680,289 681,306 681,312 682,313 683,303 683,318 684,336 685,305 685,292 686,294 686,291 687,274 688,283 688,297 689,306 690,338 690,326 691,317 692,325 692,334 693,326 694,285 694,282 695,294 696,278 696,290 697,326 698,322 698,325 699,303 700,304 700,297 701,296 702,319 702,327 703,331 704,331 704,324 705,313 706,327 706,316 707,317 708,316 708,321 709,317 710,321 710,343 711,342 712,296 712,287 713,282 714,282 714,287 715,291 716,269 716,253 717,246 718,261 718,260 719,260 720,252 720,254 721,239 722,265 722,277 723,280 724,265 724,272 725,283 726,281 726,282 727,299 728,301 728,290 729,281 730,260 730,259 731,261 732,268 732,274 733,266 734,294 734,296 735,303 736,286 736,287 737,312 738,318 738,324 739,339 740,399 740,451 741,542 742,637 742,699 974,699 974,699 78,699 "/>
<polyline fill="none" opacity="1" stroke="#E6194B" stroke-width="1" points="78,670 78,669 79,660 79,606 80,605 81,619 81,604 82,591 83,573 83,589 84,611 85,596 85,597 86,607 87,639 87,635 88,647 89,642 89,656 90,658 91,657 91,647 92,666 93,670 93,656 94,653 95,646 95,647 96,651 97,655 97,634 98,623 99,601 99,588 100,585 101,609 101,609 102,632 103,625 103,617 104,606 105,576 105,541 106,524 107,562 107,587 108,599 109,612 109,614 110,608 111,579 111,560 112,542 113,530 113,530 114,530 115,527 115,530 116,560 117,560 117,546 118,534 119,530 119,524 120,535 121,526 121,511 122,481 123,474 123,467 124,469 125,446 125,441 126,426 127,410 127,410 128,415 129,385 129,358 130,349 131,349 131,319 132,299 133,295 133,316 134,313 135,317 135,304 136,290 137,309 137,301 138,302 139,274 139,268 140,262 141,254 141,284 142,290 143,290 143,263 144,247 145,246 145,239 146,222 147,213 147,190 148,211 149,204 149,212 150,233 151,238 151,233 152,237 153,216 153,191 154,183 155,185 155,186 156,197 157,188 157,200 158,188 159,176 159,164 160,181 161,201 161,229 162,230 163,228 163,219 164,178 165,179 165,172 166,171 166,175 167,192 168,173 168,173 169,186 170,186 170,181 171,154 172,156 172,147 173,135 174,148 174,149 175,162 176,154 176,135 177,133 178,137 178,135 179,143 180,144 180,147 181,173 182,181 182,206 183,215 184,219 184,187 185,182 186,155 186,140 187,166 188,218 188,235 189,231 190,211 190,241 191,245 192,228 192,240 193,234 194,218 194,176 195,167 196,168 196,189 197,182 198,181 198,181 199,199 200,207 200,226 201,237 202,225 202,212 203,218 204,204 204,207 205,213 206,234 206,234 207,218 208,221 208,236 209,241 210,235 210,244 211,246 212,247 212,222 213,218 214,229 214,209 215,186 216,190 216,229 217,220 218,212 218,240 219,230 220,230 220,283 221,247 222,247 222,263 223,260 224,245 224,257 225,262 226,253 226,239 227,228 228,210 228,211 229,237 230,233 230,229 231,255 232,227 232,200 233,198 234,206 234,222 235,214 236,221 236,238 237,232 238,196 238,185 239,187 240,211 240,200 241,190 242,209 242,212 243,206 244,193 244,183 245,174 246,165 246,171 247,178 248,182 248,173 249,158 250,169 250,167 251,169 252,171 252,194 253,194 253,179 254,194 255,185 255,155 256,156 257,159 257,151 258,154 259,171 259,184 260,162 261,164 261,171 262,184 263,186 263,188 264,192 265,226 265,230 266,240 267,221 267,207 268,218 269,200 269,189 270,175 271,166 271,194 272,181 273,189 273,183 274,151 275,151 275,174 276,183 277,175 277,202 278,215 279,208 279,212 280,236 281,227 281,235 282,245 283,249 283,255 284,237 285,233 285,222 286,204 287,206 287,221 288,211 289,225 289,216 290,220 291,223 291,216 292,184 293,172 293,152 294,152 295,153 295,143 296,125 297,126 297,147 298,144 299,136 299,128 300,93 301,89 301,68 302,68 303,105 303,120 304,129 305,123 305,126 306,130 307,139 307,109 308,128 309,121 309,85 310,86 311,105 311,118 312,128 313,139 313,121 314,108 315,110 315,130 316,141 317,140 317,154 318,157 319,170 319,178 320,184 321,203 321,214 322,247 323,223 323,221 324,229 325,234 325,241 326,256 327,257 327,275 328,288 329,323 329,294 330,310 331,332 331,305 332,307 333,311 333,335 334,329 335,320 335,325 336,312 337,313 337,291 338,279 339,287 339,277 340,289 340,304 341,316 342,312 342,300 343,303 344,295 344,277 345,267 346,289 346,276 347,287 348,302 348,299 349,312 350,301 350,298 351,296 352,283 352,285 353,270 354,245 354,246 355,242 356,262 356,281 357,268 358,256 358,270 359,265 360,268 360,273 361,275 362,257 362,245 363,224 364,214 364,212 365,205 366,180 366,181 367,181 368,209 368,218 369,245 370,273 370,273 371,313 372,340 372,343 373,309 374,305 374,310 375,301 376,276 376,269 377,276 378,330 378,334 379,332 380,326 380,327 381,309 382,332 382,314 383,313 384,290 384,270 385,270 386,255 386,278 387,268 388,273 388,284 389,294 390,303 390,293 391,287 392,289 392,286 393,292 394,309 394,337 395,330 396,329 396,322 397,315 398,311 398,308 399,327 400,306 400,313 401,327 402,321 402,313 403,313 404,319 404,346 405,348 406,338 406,338 407,325 408,335 408,334 409,357 410,360 410,363 411,367 412,376 412,364 413,342 414,344 414,349 415,344 416,321 416,327 417,338 418,338 418,327 419,325 420,337 420,349 421,341 422,362 422,371 423,353 424,318 424,313 425,303 426,302 426,349 427,329 427,299 428,279 429,272 429,268 430,242 431,242 431,255 432,261 433,246 433,227 434,227 435,228 435,225 436,231 437,276 437,259 438,252 439,230 439,234 440,236 441,228 441,240 442,253 443,262 443,255 444,257 445,234 445,230 446,219 447,207 447,212 448,220 449,212 449,209 450,222 451,234 451,240 452,240 453,256 453,250 454,252 455,245 455,247 456,257 457,260 457,264 458,265 459,290 459,289 460,262 461,253 461,267 462,274 463,227 463,214 464,221 465,215 465,216 466,221 467,215 467,223 468,226 469,201 469,194 470,189 471,189 471,203 472,188 473,183 473,195 474,200 475,200 475,201 476,212 477,241 477,218 478,220 479,186 479,200 480,191 481,167 481,172 482,199 483,190 483,178 484,184 485,194 485,192 486,158 487,158 487,173 488,163 489,166 489,178 490,191 491,209 491,212 492,210 493,192 493,189 494,168 495,178 495,176 496,170 497,171 497,167 498,169 499,183 499,210 500,226 501,219 501,221 502,224 503,235 503,226 504,241 505,248 505,250 506,238 507,249 507,253 508,257 509,254 509,257 510,261 511,258 511,242 512,254 513,277 513,264 514,262 514,281 515,274 516,258 516,232 517,231 518,269 518,271 519,266 520,267 520,287 521,274 522,271 522,263 523,259 524,266 524,264 525,272 526,274 526,276 527,262 528,255 528,250 529,241 530,262 530,298 531,282 532,263 532,254 533,253 534,255 534,266 535,275 536,247 536,234 537,232 538,249 538,275 539,277 540,254 540,262 541,252 542,246 542,240 543,250 544,237 544,208 545,218 546,233 546,255 547,282 548,266 548,261 549,262 550,246 550,251 551,257 552,271 552,276 553,259 554,249 554,243 555,257 556,248 556,260 557,271 558,278 558,251 559,249 560,255 560,262 561,255 562,251 562,255 563,280 564,282 564,278 565,286 566,292 566,280 567,281 568,300 568,293 569,308 570,330 570,357 571,354 572,342 572,336 573,338 574,313 574,314 575,361 576,353 576,326 577,329 578,336 578,340 579,329 580,331 580,345 581,358 582,367 582,360 583,365 584,367 584,369 585,378 586,367 586,352 587,354 588,339 588,345 589,330 590,327 590,348 591,362 592,346 592,347 593,359 594,345 594,360 595,356 596,383 596,382 597,365 598,362 598,364 599,379 599,388 600,385 601,408 601,410 602,434 603,438 603,444 604,439 605,456 605,463 606,463 607,442 607,418 608,410 609,419 609,418 610,414 611,412 611,411 612,415 613,422 613,418 614,418 615,421 615,420 616,408 617,421 617,411 618,433 619,439 619,427 620,414 621,412 621,429 622,419 623,429 623,429 624,421 625,414 625,408 626,404 627,420 627,414 628,378 629,377 629,352 630,342 631,354 631,354 632,356 633,357 633,349 634,327 635,311 635,308 636,293 637,294 637,309 638,314 639,305 639,307 640,310 641,320 641,312 642,317 643,311 643,312 644,325 645,334 645,315 646,302 647,298 647,301 648,305 649,332 649,340 650,340 651,335 651,326 652,324 653,339 653,354 654,341 655,323 655,304 656,325 657,328 657,332 658,336 659,367 659,374 660,368 661,375 661,352 662,369 663,358 663,352 664,346 665,343 665,309 666,297 667,304 667,326 668,291 669,292 669,295 670,274 671,276 671,311 672,299 673,299 673,271 674,272 675,287 675,277 676,272 677,265 677,250 678,268 679,295 679,305 680,289 681,306 681,312 682,313 683,303 683,318 684,336 685,305 685,292 686,294 686,291 687,274 688,283 688,297 689,306 690,338 690,326 691,317 692,325 692,334 693,326 694,285 694,282 695,294 696,278 696,290 697,326 698,322 698,325 699,303 700,304 700,297 701,296 702,319 702,327 703,331 704,331 704,324 705,313 706,327 706,316 707,317 708,316 708,321 709,317 710,321 710,343 711,342 712,296 712,287 713,282 714,282 714,287 715,291 716,269 716,253 717,246 718,261 718,260 719,260 720,252 720,254 721,239 722,265 722,277 723,280 724,265 724,272 725,283 726,281 726,282 727,299 728,301 728,290 729,281 730,260 730,259 731,261 732,268 732,274 733,266 734,294 734,296 735,303 736,286 736,287 737,312 738,318 738,324 739,339 740,399 740,451 741,542 742,637 742,699 974,699 "/>
<line opacity="0.1" stroke="#000000" stroke-width="1" x1="83" y1="699" x2="83" y2="67"/>
<line opacity="0.1" stroke="#000000" stroke-width="1" x1="92" y1="699" x2="92" y2="67"/>
<line opacity="0.1" stroke="#000000" stroke-width="1" x1="101" y1="699" x2="101" y2="67"/>
<line opacity="0.1" stroke="#000000" stroke-width="1" x1="110" y1="699" x2="110" y2="67"/>
<line opacity="0.1" stroke="#000000" stroke-width="1" x1="120" y1="699" x2="120" y2="67"/>
<line opacity="0.1" stroke="#000000" stroke-width="1" x1="129" y1="699" x2="129" y2="67"/>
<line opacity="0.1" stroke="#000000" stroke-width="1" x1="138" y1="699" x2="138" y2="67"/>
<line opacity="0.1" stroke="#000000" stroke-width="1" x1="148" y1="699" x2="148" y2="67"/>
<line opacity="0.1" stroke="#000000" stroke-width="1" x1="157" y1="699" x2="157" y2="67"/>
<line opacity="0.1" stroke="#000000" stroke-width="1" x1="166" y1="699" x2="166" y2="67"/>
<line opacity="0.1" stroke="#000000" stroke-width="1" x1="175" y1="699" x2="175" y2="67"/>
<line opacity="0.1" stroke="#000000" stroke-width="1" x1="185" y1="699" x2="185" y2="67"/>
<line opacity="0.1" stroke="#000000" stroke-width="1" x1="194" y1="699" x2="194" y2="67"/>
<line opacity="0.1" stroke="#000000" stroke-width="1" x1="203" y1="699" x2="203" y2="67"/>
<line opacity="0.1" stroke="#000000" stroke-width="1" x1="212" y1="699" x2="212" y2="67"/>
<line opacity="0.1" stroke="#000000" stroke-width="1" x1="222" y1="699" x2="222" y2="67"/>
<line opacity="0.1" stroke="#000000" stroke-width="1" x1="231" y1="699" x2="231" y2="67"/>
<line opacity="0.1" stroke="#000000" stroke-width="1" x1="240" y1="699" x2="240" y2="67"/>
<line opacity="0.1" stroke="#000000" stroke-width="1" x1="249" y1="699" x2="249" y2="67"/>
<line opacity="0.1" stroke="#000000" stroke-width="1" x1="259" y1="699" x2="259" y2="67"/>
<line opacity="0.1" stroke="#000000" stroke-width="1" x1="268" y1="699" x2="268" y2="67"/>
<line opacity="0.1" stroke="#000000" stroke-width="1" x1="277" y1="699" x2="277" y2="67"/>
<line opacity="0.1" stroke="#000000" stroke-width="1" x1="286" y1="699" x2="286" y2="67"/>
<line opacity="0.1" stroke="#000000" stroke-width="1" x1="296" y1="699" x2="296" y2="67"/>
<line opacity="0.1" stroke="#000000" stroke-width="1" x1="305" y1="699" x2="305" y2="67"/>
<line opacity="0.1" stroke="#000000" stroke-width="1" x1="314" y1="699" x2="314" y2="67"/>
<line opacity="0.1" stroke="#000000" stroke-width="1" x1="323" y1="699" x2="323" y2="67"/>
<line opacity="0.1" stroke="#000000" stroke-width="1" x1="333" y1="699" x2="333" y2="67"/>
<line opacity="0.1" stroke="#000000" stroke-width="1" x1="342" y1="699" x2="342" y2="67"/>
<line opacity="0.1" stroke="#000000" stroke-width="1" x1="351" y1="699" x2="351" y2="67"/>
<line opacity="0.1" stroke="#000000" stroke-width="1" x1="361" y1="699" x2="361" y2="67"/>
<line opacity="0.1" stroke="#000000" stroke-width="1" x1="370" y1="699" x2="370" y2="67"/>
<line opacity="0.1" stroke="#000000" stroke-width="1" x1="379" y1="699" x2="379" y2="67"/>
<line opacity="0.1" stroke="#000000" stroke-width="1" x1="388" y1="699" x2="388" y2="67"/>
<line opacity="0.1" stroke="#000000" stroke-width="1" x1="398" y1="699" x2="398" y2="67"/>
<line opacity="0.1" stroke="#000000" stroke-width="1" x1="407" y1="699" x2="407" y2="67"/>
<line opacity="0.1" stroke="#000000" stroke-width="1" x1="416" y1="699" x2="416" y2="67"/>
<line opacity="0.1" stroke="#000000" stroke-width="1" x1="425" y1="699" x2="425" y2="67"/>
<line opacity="0.1" stroke="#000000" stroke-width="1" x1="435" y1="699" x2="435" y2="67"/>
<line opacity="0.1" stroke="#000000" stroke-width="1" x1="444" y1="699" x2="444" y2="67"/>
<line opacity="0.1" stroke="#000000" stroke-width="1" x1="453" y1="699" x2="453" y2="67"/>
<line opacity="0.1" stroke="#000000" stroke-width="1" x1="462" y1="699" x2="462" y2="67"/>
<line opacity="0.1" stroke="#000000" stroke-width="1" x1="472" y1="699" x2="472" y2="67"/>
<line opacity="0.1" stroke="#000000" stroke-width="1" x1="481" y1="699" x2="481" y2="67"/>
<line opacity="0.1" stroke="#000000" stroke-width="1" x1="490" y1="699" x2="490" y2="67"/>
<line opacity="0.1" stroke="#000000" stroke-width="1" x1="499" y1="699" x2="499" y2="67"/>
<line opacity="0.1" stroke="#000000" stroke-width="1" x1="509" y1="699" x2="509" y2="67"/>
<line opacity="0.1" stroke="#000000" stroke-width="1" x1="518" y1="699" x2="518" y2="67"/>
<line opacity="0.1" stroke="#000000" stroke-width="1" x1="527" y1="699" x2="527" y2="67"/>
<line opacity="0.1" stroke="#000000" stroke-width="1" x1="536" y1="699" x2="536" y2="67"/>
<line opacity="0.1" stroke="#000000" stroke-width="1" x1="546" y1="699" x2="546" y2="67"/>
<line opacity="0.1" stroke="#000000" stroke-width="1" x1="555" y1="699" x2="555" y2="67"/>
<line opacity="0.1" stroke="#000000" stroke-width="1" x1="564" y1="699" x2="564" y2="67"/>
<line opacity="0.1" stroke="#000000" stroke-width="1" x1="573" y1="699" x2="573" y2="67"/>
<line opacity="0.1" stroke="#000000" stroke-width="1" x1="583" y1="699" x2="583" y2="67"/>
<line opacity="0.1" stroke="#000000" stroke-width="1" x1="592" y1="699" x2="592" y2="67"/>
<line opacity="0.1" stroke="#000000" stroke-width="1" x1="601" y1="699" x2="601" y2="67"/>
<line opacity="0.1" stroke="#000000" stroke-width="1" x1="611" y1="699" x2="611" y2="67"/>
<line opacity="0.1" stroke="#000000" stroke-width="1" x1="620" y1="699" x2="620" y2="67"/>
<line opacity="0.1" stroke="#000000" stroke-width="1" x1="629" y1="699" x2="629" y2="67"/>
<line opacity="0.1" stroke="#000000" stroke-width="1" x1="638" y1="699" x2="638" y2="67"/>
<line opacity="0.1" stroke="#000000" stroke-width="1" x1="648" y1="699" x2="648" y2="67"/>
<line opacity="0.1" stroke="#000000" stroke-width="1" x1="657" y1="699" x2="657" y2="67"/>
<line opacity="0.1" stroke="#000000" stroke-width="1" x1="666" y1="699" x2="666" y2="67"/>
<line opacity="0.1" stroke="#000000" stroke-width="1" x1="675" y1="699" x2="675" y2="67"/>
<line opacity="0.1" stroke="#000000" stroke-width="1" x1="685" y1="699" x2="685" y2="67"/>
<line opacity="0.1" stroke="#000000" stroke-width="1" x1="694" y1="699" x2="694" y2="67"/>
<line opacity="0.1" stroke="#000000" stroke-width="1" x1="703" y1="699" x2="703" y2="67"/>
<line opacity="0.1" stroke="#000000" stroke-width="1" x1="712" y1="699" x2="712" y2="67"/>
<line opacity="0.1" stroke="#000000" stroke-width="1" x1="722" y1="699" x2="722" y2="67"/>
<line opacity="0.1" stroke="#000000" stroke-width="1" x1="731" y1="699" x2="731" y2="67"/>
<line opacity="0.1" stroke="#000000" stroke-width="1" x1="740" y1="699" x2="740" y2="67"/>
<line opacity="0.1" stroke="#000000" stroke-width="1" x1="749" y1="699" x2="749" y2="67"/>
<line opacity="0.1" stroke="#000000" stroke-width="1" x1="759" y1="699" x2="759" y2="67"/>
<line opacity="0.1" stroke="#000000" stroke-width="1" x1="768" y1="699" x2="768" y2="67"/>
<line opacity="0.1" stroke="#000000" stroke-width="1" x1="777" y1="699" x2="777" y2="67"/>
<line opacity="0.1" stroke="#000000" stroke-width="1" x1="786" y1="699" x2="786" y2="67"/>
<line opacity="0.1" stroke="#000000" stroke-width="1" x1="796" y1="699" x2="796" y2="67"/>
<line opacity="0.1" stroke="#000000" stroke-width="1" x1="805" y1="699" x2="805" y2="67"/>
<line opacity="0.1" stroke="#000000" stroke-width="1" x1="814" y1="699" x2="814" y2="67"/>
<line opacity="0.1" stroke="#000000" stroke-width="1" x1="824" y1="699" x2="824" y2="67"/>
<line opacity="0.1" stroke="#000000" stroke-width="1" x1="833" y1="699" x2="833" y2="67"/>
<line opacity="0.1" stroke="#000000" stroke-width="1" x1="842" y1="699" x2="842" y2="67"/>
<line opacity="0.1" stroke="#000000" stroke-width="1" x1="851" y1="699" x2="851" y2="67"/>
<line opacity="0.1" stroke="#000000" stroke-width="1" x1="861" y1="699" x2="861" y2="67"/>
<line opacity="0.1" stroke="#000000" stroke-width="1" x1="870" y1="699" x2="870" y2="67"/>
<line opacity="0.1" stroke="#000000" stroke-width="1" x1="879" y1="699" x2="879" y2="67"/>
<line opacity="0.1" stroke="#000000" stroke-width="1" x1="888" y1="699" x2="888" y2="67"/>
<line opacity="0.1" stroke="#000000" stroke-width="1" x1="898" y1="699" x2="898" y2="67"/>
<line opacity="0.1" stroke="#000000" stroke-width="1" x1="907" y1="699" x2="907" y2="67"/>
<line opacity="0.1" stroke="#000000" stroke-width="1" x1="916" y1="699" x2="916" y2="67"/>
<line opacity="0.1" stroke="#000000" stroke-width="1" x1="925" y1="699" x2="925" y2="67"/>
<line opacity="0.1" stroke="#000000" stroke-width="1" x1="935" y1="699" x2="935" y2="67"/>
<line opacity="0.1" stroke="#000000" stroke-width="1" x1="944" y1="699" x2="944" y2="67"/>
<line opacity="0.1" stroke="#000000" stroke-width="1" x1="953" y1="699" x2="953" y2="67"/>
<line opacity="0.1" stroke="#000000" stroke-width="1" x1="962" y1="699" x2="962" y2="67"/>
<line opacity="0.1" stroke="#000000" stroke-width="1" x1="972" y1="699" x2="972" y2="67"/>
<line opacity="0.1" stroke="#000000" stroke-width="1" x1="78" y1="699" x2="974" y2="699"/>
<line opacity="0.1" stroke="#000000" stroke-width="1" x1="78" y1="690" x2="974" y2="690"/>
<line opacity="0.1" stroke="#000000" stroke-width="1" x1="78" y1="681" x2="974" y2="681"/>
<line opacity="0.1" stroke="#000000" stroke-width="1" x1="78" y1="672" x2="974" y2="672"/>
<line opacity="0.1" stroke="#000000" stroke-width="1" x1="78" y1="663" x2="974" y2="663"/>
<line opacity="0.1" stroke="#000000" stroke-width="1" x1="78" y1="654" x2="974" y2="654"/>
<line opacity="0.1" stroke="#000000" stroke-width="1" x1="78" y1="645" x2="974" y2="645"/>
<line opacity="0.1" stroke="#000000" stroke-width="1" x1="78" y1="636" x2="974" y2="636"/>
<line opacity="0.1" stroke="#000000" stroke-width="1" x1="78" y1="627" x2="974" y2="627"/>
<line opacity="0.1" stroke="#000000" stroke-width="1" x1="78" y1="618" x2="974" y2="618"/>
<line opacity="0.1" stroke="#000000" stroke-width="1" x1="78" y1="609" x2="974" y2="609"/>
<line opacity="0.1" stroke="#000000" stroke-width="1" x1="78" y1="600" x2="974" y2="600"/>
<line opacity="0.1" stroke="#000000" stroke-width="1" x1="78" y1="591" x2="974" y2="591"/>
<line opacity="0.1" stroke="#000000" stroke-width="1" x1="78" y1="583" x2="974" y2="583"/>
<line opacity="0.1" stroke="#000000" stroke-width="1" x1="78" y1="574" x2="974" y2="574"/>
<line opacity="0.1" stroke="#000000" stroke-width="1" x1="78" y1="565" x2="974" y2="565"/>
<line opacity="0.1" stroke="#000000" stroke-width="1" x1="78" y1="556" x2="974" y2="556"/>
<line opacity="0.1" stroke="#000000" stroke-width="1" x1="78" y1="547" x2="974" y2="547"/>
<line opacity="0.1" stroke="#000000" stroke-width="1" x1="78" y1="538" x2="974" y2="538"/>
<line opacity="0.1" stroke="#000000" stroke-width="1" x1="78" y1="529" x2="974" y2="529"/>
<line opacity="0.1" stroke="#000000" stroke-width="1" x1="78" y1="520" x2="974" y2="520"/>
<line opacity="0.1" stroke="#000000" stroke-width="1" x1="78" y1="511" x2="974" y2="511"/>
<line opacity="0.1" stroke="#000000" stroke-width="1" x1="78" y1="502" x2="974" y2="502"/>
<line opacity="0.1" stroke="#000000" stroke-width="1" x1="78" y1="493" x2="974" y2="493"/>
<line opacity="0.1" stroke="#000000" stroke-width="1" x1="78" y1="484" x2="974" y2="484"/>
<line opacity="0.1" stroke="#000000" stroke-width="1" x1="78" y1="476" x2="974" y2="476"/>
<line opacity="0.1" stroke="#000000" stroke-width="1" x1="78" y1="467" x2="974" y2="467"/>
<line opacity="0.1" stroke="#000000" stroke-width="1" x1="78" y1="458" x2="974" y2="458"/>
<line opacity="0.1" stroke="#000000" stroke-width="1" x1="78" y1="449" x2="974" y2="449"/>
<line opacity="0.1" stroke="#000000" stroke-width="1" x1="78" y1="440" x2="974" y2="440"/>
<line opacity="0.1" stroke="#000000" stroke-width="1" x1="78" y1="431" x2="974" y2="431"/>
<line opacity="0.1" stroke="#000000" stroke-width="1" x1="78" y1="422" x2="974" y2="422"/>
<line opacity="0.1" stroke="#000000" stroke-width="1" x1="78" y1="413" x2="974" y2="413"/>
<line opacity="0.1" stroke="#000000" stroke-width="1" x1="78" y1="404" x2="974" y2="404"/>
<line opacity="0.1" stroke="#000000" stroke-width="1" x1="78" y1="395" x2="974" y2="395"/>
<line opacity="0.1" stroke="#000000" stroke-width="1" x1="78" y1="386" x2="974" y2="386"/>
<line opacity="0.1" stroke="#000000" stroke-width="1" x1="78" y1="377" x2="974" y2="377"/>
<line opacity="0.1" stroke="#000000" stroke-width="1" x1="78" y1="369" x2="974" y2="369"/>
<line opacity="0.1" stroke="#000000" stroke-width="1" x1="78" y1="360" x2="974" y2="360"/>
<line opacity="0.1" stroke="#000000" stroke-width="1" x1="78" y1="351" x2="974" y2="351"/>
<line opacity="0.1" stroke="#000000" stroke-width="1" x1="78" y1="342" x2="974" y2="342"/>
<line opacity="0.1" stroke="#000000" stroke-width="1" x1="78" y1="333" x2="974" y2="333"/>
<line opacity="0.1" stroke="#000000" stroke-width="1" x1="78" y1="324" x2="974" y2="324"/>
<line opacity="0.1" stroke="#000000" stroke-width="1" x1="78" y1="315" x2="974" y2="315"/>
<line opacity="0.1" stroke="#000000" stroke-width="1" x1="78" y1="306" x2="974" y2="306"/>
<line opacity="0.1" stroke="#000000" stroke-width="1" x1="78" y1="297" x2="974" y2="297"/>
<line opacity="0.1" stroke="#000000" stroke-width="1" x1="78" y1="288" x2="974" y2="288"/>
<line opacity="0.1" stroke="#000000" stroke-width="1" x1="78" y1="279" x2="974" y2="279"/>
<line opacity="0.1" stroke="#000000" stroke-width="1" x1="78" y1="270" x2="974" y2="270"/>
<line opacity="0.1" stroke="#000000" stroke-width="1" x1="78" y1="262" x2="974" y2="262"/>
<line opacity="0.1" stroke="#000000" stroke-width="1" x1="78" y1="253" x2="974" y2="253"/>
<line opacity="0.1" stroke="#000000" stroke-width="1" x1="78" y1="244" x2="974" y2="244"/>
<line opacity="0.1" stroke="#000000" stroke-width="1" x1="78" y1="235" x2="974" y2="235"/>
<line opacity="0.1" stroke="#000000" stroke-width="1" x1="78" y1="226" x2="974" y2="226"/>
<line opacity="0.1" stroke="#000000" stroke-width="1" x1="78" y1="217" x2="974" y2="217"/>
<line opacity="0.1" stroke="#000000" stroke-width="1" x1="78" y1="208" x2="974" y2="208"/>
<line opacity="0.1" stroke="#000000" stroke-width="1" x1="78" y1="199" x2="974" y2="199"/>
<line opacity="0.1" stroke="#000000" stroke-width="1" x1="78" y1="190" x2="974" y2="190"/>
<line opacity="0.1" stroke="#000000" stroke-width="1" x1="78" y1="181" x2="974" y2="181"/>
<line opacity="0.1" stroke="#000000" stroke-width="1" x1="78" y1="172" x2="974" y2="172"/>
<line opacity="0.1" stroke="#000000" stroke-width="1" x1="78" y1="163" x2="974" y2="163"/>
<line opacity="0.1" stroke="#000000" stroke-width="1" x1="78" y1="155" x2="974" y2="155"/>
<line opacity="0.1" stroke="#000000" stroke-width="1" x1="78" y1="146" x2="974" y2="146"/>
<line opacity="0.1" stroke="#000000" stroke-width="1" x1="78" y1="137" x2="974" y2="137"/>
<line opacity="0.1" stroke="#000000" stroke-width="1" x1="78" y1="128" x2="974" y2="128"/>
<line opacity="0.1" stroke="#000000" stroke-width="1" x1="78" y1="119" x2="974" y2="119"/>
<line opacity="0.1" stroke="#000000" stroke-width="1" x1="78" y1="110" x2="974" y2="110"/>
<line opacity="0.1" stroke="#000000" stroke-width="1" x1="78" y1="101" x2="974" y2="101"/>
<line opacity="0.1" stroke="#000000" stroke-width="1" x1="78" y1="92" x2="974" y2="92"/>
<line opacity="0.1" stroke="#000000" stroke-width="1" x1="78" y1="83" x2="974" y2="83"/>
<line opacity="0.1" stroke="#000000" stroke-width="1" x1="78" y1="74" x2="974" y2="74"/>
<text x="8" y="384" dy="0.76em" text-anchor="middle" font-family="sans-serif" font-size="9.67741935483871" opacity="1" fill="#000000" transform="rotate(270, 8, 384)">
Memory usage
</text>
<text x="526" y="760" dy="-0.5ex" text-anchor="middle" font-family="sans-serif" font-size="9.67741935483871" opacity="1" fill="#000000">
Time
</text>
<line opacity="0.2" stroke="#000000" stroke-width="1" x1="166" y1="699" x2="166" y2="67"/>
<line opacity="0.2" stroke="#000000" stroke-width="1" x1="259" y1="699" x2="259" y2="67"/>
<line opacity="0.2" stroke="#000000" stroke-width="1" x1="351" y1="699" x2="351" y2="67"/>
<line opacity="0.2" stroke="#000000" stroke-width="1" x1="444" y1="699" x2="444" y2="67"/>
<line opacity="0.2" stroke="#000000" stroke-width="1" x1="536" y1="699" x2="536" y2="67"/>
<line opacity="0.2" stroke="#000000" stroke-width="1" x1="629" y1="699" x2="629" y2="67"/>
<line opacity="0.2" stroke="#000000" stroke-width="1" x1="722" y1="699" x2="722" y2="67"/>
<line opacity="0.2" stroke="#000000" stroke-width="1" x1="814" y1="699" x2="814" y2="67"/>
<line opacity="0.2" stroke="#000000" stroke-width="1" x1="907" y1="699" x2="907" y2="67"/>
<line opacity="0.2" stroke="#000000" stroke-width="1" x1="78" y1="699" x2="974" y2="699"/>
<line opacity="0.2" stroke="#000000" stroke-width="1" x1="78" y1="609" x2="974" y2="609"/>
<line opacity="0.2" stroke="#000000" stroke-width="1" x1="78" y1="520" x2="974" y2="520"/>
<line opacity="0.2" stroke="#000000" stroke-width="1" x1="78" y1="431" x2="974" y2="431"/>
<line opacity="0.2" stroke="#000000" stroke-width="1" x1="78" y1="342" x2="974" y2="342"/>
<line opacity="0.2" stroke="#000000" stroke-width="1" x1="78" y1="253" x2="974" y2="253"/>
<line opacity="0.2" stroke="#000000" stroke-width="1" x1="78" y1="163" x2="974" y2="163"/>
<line opacity="0.2" stroke="#000000" stroke-width="1" x1="78" y1="74" x2="974" y2="74"/>
<polyline fill="none" opacity="1" stroke="#000000" stroke-width="1" points="77,68 77,700 "/>
<text x="68" y="699" dy="0.5ex" text-anchor="end" font-family="sans-serif" font-size="9.67741935483871" opacity="1" fill="#000000">
0 KB
</text>
<polyline fill="none" opacity="1" stroke="#000000" stroke-width="1" points="72,699 77,699 "/>
<text x="68" y="609" dy="0.5ex" text-anchor="end" font-family="sans-serif" font-size="9.67741935483871" opacity="1" fill="#000000">
48 KB
</text>
<polyline fill="none" opacity="1" stroke="#000000" stroke-width="1" points="72,609 77,609 "/>
<text x="68" y="520" dy="0.5ex" text-anchor="end" font-family="sans-serif" font-size="9.67741935483871" opacity="1" fill="#000000">
97 KB
</text>
<polyline fill="none" opacity="1" stroke="#000000" stroke-width="1" points="72,520 77,520 "/>
<text x="68" y="431" dy="0.5ex" text-anchor="end" font-family="sans-serif" font-size="9.67741935483871" opacity="1" fill="#000000">
146 KB
</text>
<polyline fill="none" opacity="1" stroke="#000000" stroke-width="1" points="72,431 77,431 "/>
<text x="68" y="342" dy="0.5ex" text-anchor="end" font-family="sans-serif" font-size="9.67741935483871" opacity="1" fill="#000000">
195 KB
</text>
<polyline fill="none" opacity="1" stroke="#000000" stroke-width="1" points="72,342 77,342 "/>
<text x="68" y="253" dy="0.5ex" text-anchor="end" font-family="sans-serif" font-size="9.67741935483871" opacity="1" fill="#000000">
244 KB
</text>
<polyline fill="none" opacity="1" stroke="#000000" stroke-width="1" points="72,253 77,253 "/>
<text x="68" y="163" dy="0.5ex" text-anchor="end" font-family="sans-serif" font-size="9.67741935483871" opacity="1" fill="#000000">
292 KB
</text>
<polyline fill="none" opacity="1" stroke="#000000" stroke-width="1" points="72,163 77,163 "/>
<text x="68" y="74" dy="0.5ex" text-anchor="end" font-family="sans-serif" font-size="9.67741935483871" opacity="1" fill="#000000">
341 KB
</text>
<polyline fill="none" opacity="1" stroke="#000000" stroke-width="1" points="72,74 77,74 "/>
<polyline fill="none" opacity="1" stroke="#000000" stroke-width="1" points="78,700 974,700 "/>
<text x="166" y="710" dy="0.76em" text-anchor="middle" font-family="sans-serif" font-size="9.67741935483871" opacity="1" fill="#000000">
06:26:08
</text>
<polyline fill="none" opacity="1" stroke="#000000" stroke-width="1" points="166,700 166,705 "/>
<text x="259" y="710" dy="0.76em" text-anchor="middle" font-family="sans-serif" font-size="9.67741935483871" opacity="1" fill="#000000">
06:26:09
</text>
<polyline fill="none" opacity="1" stroke="#000000" stroke-width="1" points="259,700 259,705 "/>
<text x="351" y="710" dy="0.76em" text-anchor="middle" font-family="sans-serif" font-size="9.67741935483871" opacity="1" fill="#000000">
06:26:10
</text>
<polyline fill="none" opacity="1" stroke="#000000" stroke-width="1" points="351,700 351,705 "/>
<text x="444" y="710" dy="0.76em" text-anchor="middle" font-family="sans-serif" font-size="9.67741935483871" opacity="1" fill="#000000">
06:26:11
</text>
<polyline fill="none" opacity="1" stroke="#000000" stroke-width="1" points="444,700 444,705 "/>
<text x="536" y="710" dy="0.76em" text-anchor="middle" font-family="sans-serif" font-size="9.67741935483871" opacity="1" fill="#000000">
06:26:12
</text>
<polyline fill="none" opacity="1" stroke="#000000" stroke-width="1" points="536,700 536,705 "/>
<text x="629" y="710" dy="0.76em" text-anchor="middle" font-family="sans-serif" font-size="9.67741935483871" opacity="1" fill="#000000">
06:26:13
</text>
<polyline fill="none" opacity="1" stroke="#000000" stroke-width="1" points="629,700 629,705 "/>
<text x="722" y="710" dy="0.76em" text-anchor="middle" font-family="sans-serif" font-size="9.67741935483871" opacity="1" fill="#000000">
06:26:14
</text>
<polyline fill="none" opacity="1" stroke="#000000" stroke-width="1" points="722,700 722,705 "/>
<text x="814" y="710" dy="0.76em" text-anchor="middle" font-family="sans-serif" font-size="9.67741935483871" opacity="1" fill="#000000">
06:26:15
</text>
<polyline fill="none" opacity="1" stroke="#000000" stroke-width="1" points="814,700 814,705 "/>
<text x="907" y="710" dy="0.76em" text-anchor="middle" font-family="sans-serif" font-size="9.67741935483871" opacity="1" fill="#000000">
06:26:16
</text>
<polyline fill="none" opacity="1" stroke="#000000" stroke-width="1" points="907,700 907,705 "/>
<polyline fill="none" opacity="1" stroke="#000000" stroke-width="1" points="78,67 974,67 "/>
<text x="166" y="58" dy="-0.5ex" text-anchor="middle" font-family="sans-serif" font-size="9.67741935483871" opacity="1" fill="#000000">
+956ms
</text>
<polyline fill="none" opacity="1" stroke="#000000" stroke-width="1" points="166,62 166,67 "/>
<text x="259" y="58" dy="-0.5ex" text-anchor="middle" font-family="sans-serif" font-size="9.67741935483871" opacity="1" fill="#000000">
+1s
</text>
<polyline fill="none" opacity="1" stroke="#000000" stroke-width="1" points="259,62 259,67 "/>
<text x="351" y="58" dy="-0.5ex" text-anchor="middle" font-family="sans-serif" font-size="9.67741935483871" opacity="1" fill="#000000">
+2s
</text>
<polyline fill="none" opacity="1" stroke="#000000" stroke-width="1" points="351,62 351,67 "/>
<text x="444" y="58" dy="-0.5ex" text-anchor="middle" font-family="sans-serif" font-size="9.67741935483871" opacity="1" fill="#000000">
+3s
</text>
<polyline fill="none" opacity="1" stroke="#000000" stroke-width="1" points="444,62 444,67 "/>
<text x="536" y="58" dy="-0.5ex" text-anchor="middle" font-family="sans-serif" font-size="9.67741935483871" opacity="1" fill="#000000">
+4s
</text>
<polyline fill="none" opacity="1" stroke="#000000" stroke-width="1" points="536,62 536,67 "/>
<text x="629" y="58" dy="-0.5ex" text-anchor="middle" font-family="sans-serif" font-size="9.67741935483871" opacity="1" fill="#000000">
+5s
</text>
<polyline fill="none" opacity="1" stroke="#000000" stroke-width="1" points="629,62 629,67 "/>
<text x="722" y="58" dy="-0.5ex" text-anchor="middle" font-family="sans-serif" font-size="9.67741935483871" opacity="1" fill="#000000">
+6s
</text>
<polyline fill="none" opacity="1" stroke="#000000" stroke-width="1" points="722,62 722,67 "/>
<text x="814" y="58" dy="-0.5ex" text-anchor="middle" font-family="sans-serif" font-size="9.67741935483871" opacity="1" fill="#000000">
+7s
</text>
<polyline fill="none" opacity="1" stroke="#000000" stroke-width="1" points="814,62 814,67 "/>
<text x="907" y="58" dy="-0.5ex" text-anchor="middle" font-family="sans-serif" font-size="9.67741935483871" opacity="1" fill="#000000">
+8s
</text>
<polyline fill="none" opacity="1" stroke="#000000" stroke-width="1" points="907,62 907,67 "/>
</svg>
