<svg width="1024" height="768" viewBox="0 0 1024 768" xmlns="http://www.w3.org/2000/svg">
<rect x="0" y="0" width="1023" height="767" opacity="1" fill="#FFFFFF" stroke="none"/>
<polygon opacity="1" fill="#E6194B" points="346,617 347,552 347,498 348,490 349,486 349,497 350,469 351,473 351,495 352,483 352,473 353,476 354,478 354,488 355,483 356,482 356,483 357,476 357,475 358,461 359,455 359,457 360,453 361,460 361,470 362,478 362,475 363,467 364,469 364,463 365,452 366,445 366,457 367,451 367,457 368,468 369,466 369,474 370,471 371,466 371,464 372,455 372,461 373,446 374,430 374,430 375,413 376,414 376,428 377,434 378,420 378,421 379,431 379,426 380,431 381,432 381,432 382,420 383,404 383,398 384,391 384,390 385,385 386,369 386,369 387,371 388,389 388,400 389,420 389,430 390,429 391,456 391,473 392,475 393,454 393,450 394,453 394,447 395,432 396,426 396,430 397,452 398,468 398,467 399,464 399,463 400,452 401,466 401,456 402,454 403,451 403,435 404,425 404,422 405,415 406,430 406,423 407,430 408,438 408,440 409,440 409,441 410,436 411,434 411,436 412,438 413,454 413,479 414,463 415,462 415,457 416,452 416,450 417,448 418,460 418,446 419,450 420,460 420,461 421,450 421,450 422,455 423,472 423,477 424,466 425,471 425,458 426,457 426,463 427,468 428,480 428,489 429,474 430,474 430,476 431,469 431,457 432,459 433,466 433,459 434,443 435,458 435,454 436,459 436,446 437,452 438,459 438,464 439,456 440,470 440,476 441,464 441,440 442,438 443,430 443,430 444,461 445,448 445,428 446,419 446,410 447,407 448,400 448,390 449,398 450,401 450,403 451,380 452,379 452,394 453,377 453,382 454,388 455,400 455,401 456,383 457,380 457,383 458,386 458,378 459,393 460,395 460,399 461,396 462,385 462,382 463,376 463,372 464,364 465,367 465,372 466,365 467,366 467,373 468,381 468,385 469,385 470,397 470,391 471,392 472,387 472,388 473,393 473,397 474,398 475,399 475,416 476,416 477,401 477,391 478,398 478,410 479,386 480,368 480,365 481,365 482,370 482,366 483,365 483,369 484,370 485,365 485,355 486,347 487,349 487,347 488,360 489,343 489,345 490,351 490,354 491,354 492,354 492,362 493,380 494,365 494,367 495,344 495,353 496,347 497,331 497,334 498,351 499,348 499,338 500,342 500,348 501,351 502,335 502,324 503,333 504,329 504,327 505,337 505,340 506,354 507,361 507,358 508,351 509,345 509,335 510,330 510,337 511,335 512,331 512,340 513,328 514,336 514,344 515,357 515,371 516,362 517,363 517,366 518,372 519,366 519,376 520,381 520,381 521,374 522,381 522,384 523,386 524,384 524,386 525,389 526,388 526,376 527,382 527,395 528,393 529,389 529,397 530,398 531,395 531,373 532,367 532,385 533,394 534,393 534,390 535,393 536,404 536,393 537,393 537,386 538,384 539,387 539,387 540,392 541,402 541,393 542,381 542,381 543,371 544,373 544,384 545,402 546,397 546,384 547,379 547,378 548,379 549,386 549,392 550,375 551,364 551,363 552,372 552,391 553,392 554,377 554,377 555,375 556,372 556,367 557,369 557,372 558,353 559,345 559,362 560,361 561,391 561,383 562,383 563,379 563,375 564,369 564,375 565,380 566,387 566,388 567,375 568,366 568,368 569,375 569,369 570,378 571,384 571,388 572,369 573,369 573,373 574,377 574,372 575,370 576,372 576,388 577,389 578,386 578,391 579,392 579,398 580,388 581,401 581,395 582,399 583,408 583,436 584,438 584,428 585,427 586,423 586,411 587,408 588,429 588,439 589,416 589,416 590,423 591,422 591,419 592,417 593,420 593,429 594,448 594,442 595,437 596,441 596,442 597,443 598,446 598,441 599,431 600,432 600,422 601,424 601,429 602,415 603,428 603,435 604,433 605,426 605,434 606,424 606,426 607,431 608,443 608,448 609,436 610,438 610,434 611,439 611,447 612,449 613,456 613,464 614,475 615,481 615,488 616,490 616,484 617,501 618,500 618,500 619,481 620,465 620,469 621,472 621,470 622,466 623,466 623,465 624,470 625,472 625,469 626,470 626,471 627,470 628,461 628,463 629,463 630,476 630,488 631,473 632,474 632,463 633,470 633,468 634,468 635,474 635,469 636,468 637,460 637,457 638,463 638,464 639,458 640,439 640,432 641,416 642,424 642,423 643,422 643,424 644,423 645,412 645,394 646,393 647,391 647,381 648,383 648,392 649,398 650,389 650,391 651,392 652,399 652,393 653,396 653,392 654,392 655,399 655,407 656,394 657,385 657,382 658,383 658,386 659,402 660,409 660,409 661,413 662,404 662,398 663,406 663,418 664,418 665,407 665,392 666,384 667,398 667,403 668,403 669,415 669,426 670,428 670,426 671,422 672,415 672,427 673,418 674,414 674,410 675,399 675,385 676,377 677,382 677,387 678,372 679,373 679,375 680,360 680,362 681,386 682,382 682,377 683,364 684,358 684,368 685,362 685,365 686,357 687,344 687,344 688,382 689,373 689,369 690,333 690,322 691,327 692,326 692,319 693,340 694,342 694,317 695,311 695,310 696,310 697,299 697,306 698,318 699,330 699,333 700,330 700,325 701,337 702,336 702,324 703,304 704,302 704,305 705,299 706,307 706,330 707,327 707,329 708,318 709,315 709,312 710,310 711,325 711,328 712,340 712,332 713,333 714,320 714,326 715,331 716,321 716,323 717,321 717,323 718,322 719,325 719,344 720,330 721,301 721,303 722,298 722,298 723,301 724,304 724,286 725,274 726,275 726,290 727,282 727,283 728,277 729,278 729,268 730,286 731,294 731,295 732,285 732,289 733,296 734,295 734,295 735,306 736,308 736,300 737,293 737,291 738,279 739,280 739,280 740,287 741,281 741,298 742,295 743,297 743,289 744,283 744,287 745,285 746,271 746,269 747,277 748,271 748,266 749,266 749,267 750,271 751,298 751,299 752,289 753,290 753,310 754,314 754,305 755,294 756,302 756,297 757,302 758,298 758,298 759,299 759,301 760,289 761,276 761,254 762,249 763,264 763,260 764,253 764,264 765,262 766,267 766,264 767,265 768,252 768,251 769,264 769,258 770,243 771,243 771,258 772,249 773,240 773,239 774,249 774,265 775,286 776,299 776,295 777,298 778,298 778,302 779,304 780,328 780,317 781,312 781,308 782,296 783,286 783,283 784,277 785,283 785,291 786,293 786,288 787,287 788,281 788,266 789,261 790,275 790,288 791,311 791,320 792,336 793,332 793,309 794,310 795,296 795,293 796,287 796,277 797,277 798,276 798,273 799,268 800,255 800,262 801,265 801,259 802,251 803,249 803,247 804,248 805,245 805,250 806,263 806,270 807,257 808,250 808,237 809,237 810,250 810,250 811,262 811,261 812,257 813,257 813,273 814,276 815,275 815,267 816,274 817,267 817,270 818,268 818,262 819,253 820,263 820,268 821,261 822,245 822,244 823,226 823,220 824,222 825,232 825,225 826,230 827,235 827,236 828,250 828,266 829,268 830,268 830,255 831,253 832,259 832,253 833,255 833,260 834,280 835,286 835,303 836,315 837,335 837,338 838,332 838,321 839,308 840,295 840,291 841,296 842,286 842,276 843,271 843,255 844,246 845,241 845,246 846,233 847,243 847,236 848,243 848,226 849,231 850,242 850,250 851,245 852,262 852,265 853,263 854,254 854,254 855,246 855,251 856,250 857,249 857,238 858,241 859,245 859,232 860,233 860,246 861,233 862,231 862,225 863,219 864,210 864,205 865,214 865,222 866,222 867,212 867,232 868,235 869,227 869,224 870,217 870,226 871,231 872,244 872,246 873,252 874,237 874,237 875,257 875,254 876,251 877,252 877,245 878,226 879,211 879,214 880,213 880,216 881,222 882,223 882,219 883,213 884,214 884,217 885,218 885,216 886,215 887,216 887,206 888,204 889,191 889,179 890,171 891,172 891,182 892,171 892,163 893,152 894,150 894,152 895,158 896,150 896,152 897,160 897,156 898,158 899,164 899,171 900,175 901,189 901,191 902,195 902,206 903,195 904,204 904,196 905,185 906,200 906,220 907,195 907,189 908,194 909,205 909,199 910,201 911,221 911,213 912,213 912,213 913,206 914,204 914,206 915,201 916,209 916,205 917,201 917,186 918,176 919,195 919,185 920,179 921,181 921,197 922,197 922,201 923,203 924,190 924,188 925,157 926,150 926,166 927,181 928,180 928,190 929,188 929,188 930,172 931,165 931,160 932,167 933,178 933,182 934,172 934,160 935,165 936,190 936,199 937,203 938,211 938,212 939,201 939,202 940,191 941,181 941,181 942,191 943,189 943,186 944,164 944,161 945,152 946,154 946,147 947,142 948,127 948,127 949,126 949,122 950,113 951,108 951,108 952,131 953,123 953,129 954,138 954,159 955,155 956,160 956,165 957,157 958,152 958,146 959,138 959,140 960,142 961,130 961,124 962,111 963,111 963,112 964,126 965,129 965,125 966,109 966,100 967,102 968,120 968,136 969,133 970,128 970,118 971,113 971,121 972,110 973,75 973,68 973,699 974,699 974,699 346,699 "/>
<polyline fill="none" opacity="1" stroke="#E6194B" stroke-width="1" points="346,617 347,552 347,498 348,490 349,486 349,497 350,469 351,473 351,495 352,483 352,473 353,476 354,478 354,488 355,483 356,482 356,483 357,476 357,475 358,461 359,455 359,457 360,453 361,460 361,470 362,478 362,475 363,467 364,469 364,463 365,452 366,445 366,457 367,451 367,457 368,468 369,466 369,474 370,471 371,466 371,464 372,455 372,461 373,446 374,430 374,430 375,413 376,414 376,428 377,434 378,420 378,421 379,431 379,426 380,431 381,432 381,432 382,420 383,404 383,398 384,391 384,390 385,385 386,369 386,369 387,371 388,389 388,400 389,420 389,430 390,429 391,456 391,473 392,475 393,454 393,450 394,453 394,447 395,432 396,426 396,430 397,452 398,468 398,467 399,464 399,463 400,452 401,466 401,456 402,454 403,451 403,435 404,425 404,422 405,415 406,430 406,423 407,430 408,438 408,440 409,440 409,441 410,436 411,434 411,436 412,438 413,454 413,479 414,463 415,462 415,457 416,452 416,450 417,448 418,460 418,446 419,450 420,460 420,461 421,450 421,450 422,455 423,472 423,477 424,466 425,471 425,458 426,457 426,463 427,468 428,480 428,489 429,474 430,474 430,476 431,469 431,457 432,459 433,466 433,459 434,443 435,458 435,454 436,459 436,446 437,452 438,459 438,464 439,456 440,470 440,476 441,464 441,440 442,438 443,430 443,430 444,461 445,448 445,428 446,419 446,410 447,407 448,400 448,390 449,398 450,401 450,403 451,380 452,379 452,394 453,377 453,382 454,388 455,400 455,401 456,383 457,380 457,383 458,386 458,378 459,393 460,395 460,399 461,396 462,385 462,382 463,376 463,372 464,364 465,367 465,372 466,365 467,366 467,373 468,381 468,385 469,385 470,397 470,391 471,392 472,387 472,388 473,393 473,397 474,398 475,399 475,416 476,416 477,401 477,391 478,398 478,410 479,386 480,368 480,365 481,365 482,370 482,366 483,365 483,369 484,370 485,365 485,355 486,347 487,349 487,347 488,360 489,343 489,345 490,351 490,354 491,354 492,354 492,362 493,380 494,365 494,367 495,344 495,353 496,347 497,331 497,334 498,351 499,348 499,338 500,342 500,348 501,351 502,335 502,324 503,333 504,329 504,327 505,337 505,340 506,354 507,361 507,358 508,351 509,345 509,335 510,330 510,337 511,335 512,331 512,340 513,328 514,336 514,344 515,357 515,371 516,362 517,363 517,366 518,372 519,366 519,376 520,381 520,381 521,374 522,381 522,384 523,386 524,384 524,386 525,389 526,388 526,376 527,382 527,395 528,393 529,389 529,397 530,398 531,395 531,373 532,367 532,385 533,394 534,393 534,390 535,393 536,404 536,393 537,393 537,386 538,384 539,387 539,387 540,392 541,402 541,393 542,381 542,381 543,371 544,373 544,384 545,402 546,397 546,384 547,379 547,378 548,379 549,386 549,392 550,375 551,364 551,363 552,372 552,391 553,392 554,377 554,377 555,375 556,372 556,367 557,369 557,372 558,353 559,345 559,362 560,361 561,391 561,383 562,383 563,379 563,375 564,369 564,375 565,380 566,387 566,388 567,375 568,366 568,368 569,375 569,369 570,378 571,384 571,388 572,369 573,369 573,373 574,377 574,372 575,370 576,372 576,388 577,389 578,386 578,391 579,392 579,398 580,388 581,401 581,395 582,399 583,408 583,436 584,438 584,428 585,427 586,423 586,411 587,408 588,429 588,439 589,416 589,416 590,423 591,422 591,419 592,417 593,420 593,429 594,448 594,442 595,437 596,441 596,442 597,443 598,446 598,441 599,431 600,432 600,422 601,424 601,429 602,415 603,428 603,435 604,433 605,426 605,434 606,424 606,426 607,431 608,443 608,448 609,436 610,438 610,434 611,439 611,447 612,449 613,456 613,464 614,475 615,481 615,488 616,490 616,484 617,501 618,500 618,500 619,481 620,465 620,469 621,472 621,470 622,466 623,466 623,465 624,470 625,472 625,469 626,470 626,471 627,470 628,461 628,463 629,463 630,476 630,488 631,473 632,474 632,463 633,470 633,468 634,468 635,474 635,469 636,468 637,460 637,457 638,463 638,464 639,458 640,439 640,432 641,416 642,424 642,423 643,422 643,424 644,423 645,412 645,394 646,393 647,391 647,381 648,383 648,392 649,398 650,389 650,391 651,392 652,399 652,393 653,396 653,392 654,392 655,399 655,407 656,394 657,385 657,382 658,383 658,386 659,402 660,409 660,409 661,413 662,404 662,398 663,406 663,418 664,418 665,407 665,392 666,384 667,398 667,403 668,403 669,415 669,426 670,428 670,426 671,422 672,415 672,427 673,418 674,414 674,410 675,399 675,385 676,377 677,382 677,387 678,372 679,373 679,375 680,360 680,362 681,386 682,382 682,377 683,364 684,358 684,368 685,362 685,365 686,357 687,344 687,344 688,382 689,373 689,369 690,333 690,322 691,327 692,326 692,319 693,340 694,342 694,317 695,311 695,310 696,310 697,299 697,306 698,318 699,330 699,333 700,330 700,325 701,337 702,336 702,324 703,304 704,302 704,305 705,299 706,307 706,330 707,327 707,329 708,318 709,315 709,312 710,310 711,325 711,328 712,340 712,332 713,333 714,320 714,326 715,331 716,321 716,323 717,321 717,323 718,322 719,325 719,344 720,330 721,301 721,303 722,298 722,298 723,301 724,304 724,286 725,274 726,275 726,290 727,282 727,283 728,277 729,278 729,268 730,286 731,294 731,295 732,285 732,289 733,296 734,295 734,295 735,306 736,308 736,300 737,293 737,291 738,279 739,280 739,280 740,287 741,281 741,298 742,295 743,297 743,289 744,283 744,287 745,285 746,271 746,269 747,277 748,271 748,266 749,266 749,267 750,271 751,298 751,299 752,289 753,290 753,310 754,314 754,305 755,294 756,302 756,297 757,302 758,298 758,298 759,299 759,301 760,289 761,276 761,254 762,249 763,264 763,260 764,253 764,264 765,262 766,267 766,264 767,265 768,252 768,251 769,264 769,258 770,243 771,243 771,258 772,249 773,240 773,239 774,249 774,265 775,286 776,299 776,295 777,298 778,298 778,302 779,304 780,328 780,317 781,312 781,308 782,296 783,286 783,283 784,277 785,283 785,291 786,293 786,288 787,287 788,281 788,266 789,261 790,275 790,288 791,311 791,320 792,336 793,332 793,309 794,310 795,296 795,293 796,287 796,277 797,277 798,276 798,273 799,268 800,255 800,262 801,265 801,259 802,251 803,249 803,247 804,248 805,245 805,250 806,263 806,270 807,257 808,250 808,237 809,237 810,250 810,250 811,262 811,261 812,257 813,257 813,273 814,276 815,275 815,267 816,274 817,267 817,270 818,268 818,262 819,253 820,263 820,268 821,261 822,245 822,244 823,226 823,220 824,222 825,232 825,225 826,230 827,235 827,236 828,250 828,266 829,268 830,268 830,255 831,253 832,259 832,253 833,255 833,260 834,280 835,286 835,303 836,315 837,335 837,338 838,332 838,321 839,308 840,295 840,291 841,296 842,286 842,276 843,271 843,255 844,246 845,241 845,246 846,233 847,243 847,236 848,243 848,226 849,231 850,242 850,250 851,245 852,262 852,265 853,263 854,254 854,254 855,246 855,251 856,250 857,249 857,238 858,241 859,245 859,232 860,233 860,246 861,233 862,231 862,225 863,219 864,210 864,205 865,214 865,222 866,222 867,212 867,232 868,235 869,227 869,224 870,217 870,226 871,231 872,244 872,246 873,252 874,237 874,237 875,257 875,254 876,251 877,252 877,245 878,226 879,211 879,214 880,213 880,216 881,222 882,223 882,219 883,213 884,214 884,217 885,218 885,216 886,215 887,216 887,206 888,204 889,191 889,179 890,171 891,172 891,182 892,171 892,163 893,152 894,150 894,152 895,158 896,150 896,152 897,160 897,156 898,158 899,164 899,171 900,175 901,189 901,191 902,195 902,206 903,195 904,204 904,196 905,185 906,200 906,220 907,195 907,189 908,194 909,205 909,199 910,201 911,221 911,213 912,213 912,213 913,206 914,204 914,206 915,201 916,209 916,205 917,201 917,186 918,176 919,195 919,185 920,179 921,181 921,197 922,197 922,201 923,203 924,190 924,188 925,157 926,150 926,166 927,181 928,180 928,190 929,188 929,188 930,172 931,165 931,160 932,167 933,178 933,182 934,172 934,160 935,165 936,190 936,199 937,203 938,211 938,212 939,201 939,202 940,191 941,181 941,181 942,191 943,189 943,186 944,164 944,161 945,152 946,154 946,147 947,142 948,127 948,127 949,126 949,122 950,113 951,108 951,108 952,131 953,123 953,129 954,138 954,159 955,155 956,160 956,165 957,157 958,152 958,146 959,138 959,140 960,142 961,130 961,124 962,111 963,111 963,112 964,126 965,129 965,125 966,109 966,100 967,102 968,120 968,136 969,133 970,128 970,118 971,113 971,121 972,110 973,75 973,68 973,699 974,699 "/>
<line opacity="0.1" stroke="#000000" stroke-width="1" x1="85" y1="699" x2="85" y2="67"/>
<line opacity="0.1" stroke="#000000" stroke-width="1" x1="103" y1="699" x2="103" y2="67"/>
<line opacity="0.1" stroke="#000000" stroke-width="1" x1="121" y1="699" x2="121" y2="67"/>
<line opacity="0.1" stroke="#000000" stroke-width="1" x1="139" y1="699" x2="139" y2="67"/>
<line opacity="0.1" stroke="#000000" stroke-width="1" x1="157" y1="699" x2="157" y2="67"/>
<line opacity="0.1" stroke="#000000" stroke-width="1" x1="174" y1="699" x2="174" y2="67"/>
<line opacity="0.1" stroke="#000000" stroke-width="1" x1="192" y1="699" x2="192" y2="67"/>
<line opacity="0.1" stroke="#000000" stroke-width="1" x1="210" y1="699" x2="210" y2="67"/>
<line opacity="0.1" stroke="#000000" stroke-width="1" x1="228" y1="699" x2="228" y2="67"/>
<line opacity="0.1" stroke="#000000" stroke-width="1" x1="246" y1="699" x2="246" y2="67"/>
<line opacity="0.1" stroke="#000000" stroke-width="1" x1="264" y1="699" x2="264" y2="67"/>
<line opacity="0.1" stroke="#000000" stroke-width="1" x1="282" y1="699" x2="282" y2="67"/>
<line opacity="0.1" stroke="#000000" stroke-width="1" x1="300" y1="699" x2="300" y2="67"/>
<line opacity="0.1" stroke="#000000" stroke-width="1" x1="318" y1="699" x2="318" y2="67"/>
<line opacity="0.1" stroke="#000000" stroke-width="1" x1="336" y1="699" x2="336" y2="67"/>
<line opacity="0.1" stroke="#000000" stroke-width="1" x1="354" y1="699" x2="354" y2="67"/>
<line opacity="0.1" stroke="#000000" stroke-width="1" x1="372" y1="699" x2="372" y2="67"/>
<line opacity="0.1" stroke="#000000" stroke-width="1" x1="389" y1="699" x2="389" y2="67"/>
<line opacity="0.1" stroke="#000000" stroke-width="1" x1="407" y1="699" x2="407" y2="67"/>
<line opacity="0.1" stroke="#000000" stroke-width="1" x1="425" y1="699" x2="425" y2="67"/>
<line opacity="0.1" stroke="#000000" stroke-width="1" x1="443" y1="699" x2="443" y2="67"/>
<line opacity="0.1" stroke="#000000" stroke-width="1" x1="461" y1="699" x2="461" y2="67"/>
<line opacity="0.1" stroke="#000000" stroke-width="1" x1="479" y1="699" x2="479" y2="67"/>
<line opacity="0.1" stroke="#000000" stroke-width="1" x1="497" y1="699" x2="497" y2="67"/>
<line opacity="0.1" stroke="#000000" stroke-width="1" x1="515" y1="699" x2="515" y2="67"/>
<line opacity="0.1" stroke="#000000" stroke-width="1" x1="533" y1="699" x2="533" y2="67"/>
<line opacity="0.1" stroke="#000000" stroke-width="1" x1="551" y1="699" x2="551" y2="67"/>
<line opacity="0.1" stroke="#000000" stroke-width="1" x1="569" y1="699" x2="569" y2="67"/>
<line opacity="0.1" stroke="#000000" stroke-width="1" x1="587" y1="699" x2="587" y2="67"/>
<line opacity="0.1" stroke="#000000" stroke-width="1" x1="604" y1="699" x2="604" y2="67"/>
<line opacity="0.1" stroke="#000000" stroke-width="1" x1="622" y1="699" x2="622" y2="67"/>
<line opacity="0.1" stroke="#000000" stroke-width="1" x1="640" y1="699" x2="640" y2="67"/>
<line opacity="0.1" stroke="#000000" stroke-width="1" x1="658" y1="699" x2="658" y2="67"/>
<line opacity="0.1" stroke="#000000" stroke-width="1" x1="676" y1="699" x2="676" y2="67"/>
<line opacity="0.1" stroke="#000000" stroke-width="1" x1="694" y1="699" x2="694" y2="67"/>
<line opacity="0.1" stroke="#000000" stroke-width="1" x1="712" y1="699" x2="712" y2="67"/>
<line opacity="0.1" stroke="#000000" stroke-width="1" x1="730" y1="699" x2="730" y2="67"/>
<line opacity="0.1" stroke="#000000" stroke-width="1" x1="748" y1="699" x2="748" y2="67"/>
<line opacity="0.1" stroke="#000000" stroke-width="1" x1="766" y1="699" x2="766" y2="67"/>
<line opacity="0.1" stroke="#000000" stroke-width="1" x1="784" y1="699" x2="784" y2="67"/>
<line opacity="0.1" stroke="#000000" stroke-width="1" x1="802" y1="699" x2="802" y2="67"/>
<line opacity="0.1" stroke="#000000" stroke-width="1" x1="819" y1="699" x2="819" y2="67"/>
<line opacity="0.1" stroke="#000000" stroke-width="1" x1="837" y1="699" x2="837" y2="67"/>
<line opacity="0.1" stroke="#000000" stroke-width="1" x1="855" y1="699" x2="855" y2="67"/>
<line opacity="0.1" stroke="#000000" stroke-width="1" x1="873" y1="699" x2="873" y2="67"/>
<line opacity="0.1" stroke="#000000" stroke-width="1" x1="891" y1="699" x2="891" y2="67"/>
<line opacity="0.1" stroke="#000000" stroke-width="1" x1="909" y1="699" x2="909" y2="67"/>
<line opacity="0.1" stroke="#000000" stroke-width="1" x1="927" y1="699" x2="927" y2="67"/>
<line opacity="0.1" stroke="#000000" stroke-width="1" x1="945" y1="699" x2="945" y2="67"/>
<line opacity="0.1" stroke="#000000" stroke-width="1" x1="963" y1="699" x2="963" y2="67"/>
<line opacity="0.1" stroke="#000000" stroke-width="1" x1="78" y1="699" x2="974" y2="699"/>
<line opacity="0.1" stroke="#000000" stroke-width="1" x1="78" y1="687" x2="974" y2="687"/>
<line opacity="0.1" stroke="#000000" stroke-width="1" x1="78" y1="675" x2="974" y2="675"/>
<line opacity="0.1" stroke="#000000" stroke-width="1" x1="78" y1="663" x2="974" y2="663"/>
<line opacity="0.1" stroke="#000000" stroke-width="1" x1="78" y1="652" x2="974" y2="652"/>
<line opacity="0.1" stroke="#000000" stroke-width="1" x1="78" y1="640" x2="974" y2="640"/>
<line opacity="0.1" stroke="#000000" stroke-width="1" x1="78" y1="628" x2="974" y2="628"/>
<line opacity="0.1" stroke="#000000" stroke-width="1" x1="78" y1="616" x2="974" y2="616"/>
<line opacity="0.1" stroke="#000000" stroke-width="1" x1="78" y1="605" x2="974" y2="605"/>
<line opacity="0.1" stroke="#000000" stroke-width="1" x1="78" y1="593" x2="974" y2="593"/>
<line opacity="0.1" stroke="#000000" stroke-width="1" x1="78" y1="581" x2="974" y2="581"/>
<line opacity="0.1" stroke="#000000" stroke-width="1" x1="78" y1="569" x2="974" y2="569"/>
<line opacity="0.1" stroke="#000000" stroke-width="1" x1="78" y1="558" x2="974" y2="558"/>
<line opacity="0.1" stroke="#000000" stroke-width="1" x1="78" y1="546" x2="974" y2="546"/>
<line opacity="0.1" stroke="#000000" stroke-width="1" x1="78" y1="534" x2="974" y2="534"/>
<line opacity="0.1" stroke="#000000" stroke-width="1" x1="78" y1="522" x2="974" y2="522"/>
<line opacity="0.1" stroke="#000000" stroke-width="1" x1="78" y1="511" x2="974" y2="511"/>
<line opacity="0.1" stroke="#000000" stroke-width="1" x1="78" y1="499" x2="974" y2="499"/>
<line opacity="0.1" stroke="#000000" stroke-width="1" x1="78" y1="487" x2="974" y2="487"/>
<line opacity="0.1" stroke="#000000" stroke-width="1" x1="78" y1="475" x2="974" y2="475"/>
<line opacity="0.1" stroke="#000000" stroke-width="1" x1="78" y1="464" x2="974" y2="464"/>
<line opacity="0.1" stroke="#000000" stroke-width="1" x1="78" y1="452" x2="974" y2="452"/>
<line opacity="0.1" stroke="#000000" stroke-width="1" x1="78" y1="440" x2="974" y2="440"/>
<line opacity="0.1" stroke="#000000" stroke-width="1" x1="78" y1="428" x2="974" y2="428"/>
<line opacity="0.1" stroke="#000000" stroke-width="1" x1="78" y1="417" x2="974" y2="417"/>
<line opacity="0.1" stroke="#000000" stroke-width="1" x1="78" y1="405" x2="974" y2="405"/>
<line opacity="0.1" stroke="#000000" stroke-width="1" x1="78" y1="393" x2="974" y2="393"/>
<line opacity="0.1" stroke="#000000" stroke-width="1" x1="78" y1="381" x2="974" y2="381"/>
<line opacity="0.1" stroke="#000000" stroke-width="1" x1="78" y1="370" x2="974" y2="370"/>
<line opacity="0.1" stroke="#000000" stroke-width="1" x1="78" y1="358" x2="974" y2="358"/>
<line opacity="0.1" stroke="#000000" stroke-width="1" x1="78" y1="346" x2="974" y2="346"/>
<line opacity="0.1" stroke="#000000" stroke-width="1" x1="78" y1="334" x2="974" y2="334"/>
<line opacity="0.1" stroke="#000000" stroke-width="1" x1="78" y1="323" x2="974" y2="323"/>
<line opacity="0.1" stroke="#000000" stroke-width="1" x1="78" y1="311" x2="974" y2="311"/>
<line opacity="0.1" stroke="#000000" stroke-width="1" x1="78" y1="299" x2="974" y2="299"/>
<line opacity="0.1" stroke="#000000" stroke-width="1" x1="78" y1="287" x2="974" y2="287"/>
<line opacity="0.1" stroke="#000000" stroke-width="1" x1="78" y1="276" x2="974" y2="276"/>
<line opacity="0.1" stroke="#000000" stroke-width="1" x1="78" y1="264" x2="974" y2="264"/>
<line opacity="0.1" stroke="#000000" stroke-width="1" x1="78" y1="252" x2="974" y2="252"/>
<line opacity="0.1" stroke="#000000" stroke-width="1" x1="78" y1="240" x2="974" y2="240"/>
<line opacity="0.1" stroke="#000000" stroke-width="1" x1="78" y1="229" x2="974" y2="229"/>
<line opacity="0.1" stroke="#000000" stroke-width="1" x1="78" y1="217" x2="974" y2="217"/>
<line opacity="0.1" stroke="#000000" stroke-width="1" x1="78" y1="205" x2="974" y2="205"/>
<line opacity="0.1" stroke="#000000" stroke-width="1" x1="78" y1="193" x2="974" y2="193"/>
<line opacity="0.1" stroke="#000000" stroke-width="1" x1="78" y1="182" x2="974" y2="182"/>
<line opacity="0.1" stroke="#000000" stroke-width="1" x1="78" y1="170" x2="974" y2="170"/>
<line opacity="0.1" stroke="#000000" stroke-width="1" x1="78" y1="158" x2="974" y2="158"/>
<line opacity="0.1" stroke="#000000" stroke-width="1" x1="78" y1="146" x2="974" y2="146"/>
<line opacity="0.1" stroke="#000000" stroke-width="1" x1="78" y1="135" x2="974" y2="135"/>
<line opacity="0.1" stroke="#000000" stroke-width="1" x1="78" y1="123" x2="974" y2="123"/>
<line opacity="0.1" stroke="#000000" stroke-width="1" x1="78" y1="111" x2="974" y2="111"/>
<line opacity="0.1" stroke="#000000" stroke-width="1" x1="78" y1="99" x2="974" y2="99"/>
<line opacity="0.1" stroke="#000000" stroke-width="1" x1="78" y1="88" x2="974" y2="88"/>
<line opacity="0.1" stroke="#000000" stroke-width="1" x1="78" y1="76" x2="974" y2="76"/>
<text x="8" y="384" dy="0.76em" text-anchor="middle" font-family="sans-serif" font-size="9.67741935483871" opacity="1" fill="#000000" transform="rotate(270, 8, 384)">
Memory usage
</text>
<text x="526" y="760" dy="-0.5ex" text-anchor="middle" font-family="sans-serif" font-size="9.67741935483871" opacity="1" fill="#000000">
Time
</text>
<line opacity="0.2" stroke="#000000" stroke-width="1" x1="192" y1="699" x2="192" y2="67"/>
<line opacity="0.2" stroke="#000000" stroke-width="1" x1="372" y1="699" x2="372" y2="67"/>
<line opacity="0.2" stroke="#000000" stroke-width="1" x1="551" y1="699" x2="551" y2="67"/>
<line opacity="0.2" stroke="#000000" stroke-width="1" x1="730" y1="699" x2="730" y2="67"/>
<line opacity="0.2" stroke="#000000" stroke-width="1" x1="909" y1="699" x2="909" y2="67"/>
<line opacity="0.2" stroke="#000000" stroke-width="1" x1="78" y1="699" x2="974" y2="699"/>
<line opacity="0.2" stroke="#000000" stroke-width="1" x1="78" y1="581" x2="974" y2="581"/>
<line opacity="0.2" stroke="#000000" stroke-width="1" x1="78" y1="464" x2="974" y2="464"/>
<line opacity="0.2" stroke="#000000" stroke-width="1" x1="78" y1="346" x2="974" y2="346"/>
<line opacity="0.2" stroke="#000000" stroke-width="1" x1="78" y1="229" x2="974" y2="229"/>
<line opacity="0.2" stroke="#000000" stroke-width="1" x1="78" y1="111" x2="974" y2="111"/>
<polyline fill="none" opacity="1" stroke="#000000" stroke-width="1" points="77,68 77,700 "/>
<text x="68" y="699" dy="0.5ex" text-anchor="end" font-family="sans-serif" font-size="9.67741935483871" opacity="1" fill="#000000">
0 KB
</text>
<polyline fill="none" opacity="1" stroke="#000000" stroke-width="1" points="72,699 77,699 "/>
<text x="68" y="581" dy="0.5ex" text-anchor="end" font-family="sans-serif" font-size="9.67741935483871" opacity="1" fill="#000000">
97 KB
</text>
<polyline fill="none" opacity="1" stroke="#000000" stroke-width="1" points="72,581 77,581 "/>
<text x="68" y="464" dy="0.5ex" text-anchor="end" font-family="sans-serif" font-size="9.67741935483871" opacity="1" fill="#000000">
195 KB
</text>
<polyline fill="none" opacity="1" stroke="#000000" stroke-width="1" points="72,464 77,464 "/>
<text x="68" y="346" dy="0.5ex" text-anchor="end" font-family="sans-serif" font-size="9.67741935483871" opacity="1" fill="#000000">
292 KB
</text>
<polyline fill="none" opacity="1" stroke="#000000" stroke-width="1" points="72,346 77,346 "/>
<text x="68" y="229" dy="0.5ex" text-anchor="end" font-family="sans-serif" font-size="9.67741935483871" opacity="1" fill="#000000">
390 KB
</text>
<polyline fill="none" opacity="1" stroke="#000000" stroke-width="1" points="72,229 77,229 "/>
<text x="68" y="111" dy="0.5ex" text-anchor="end" font-family="sans-serif" font-size="9.67741935483871" opacity="1" fill="#000000">
488 KB
</text>
<polyline fill="none" opacity="1" stroke="#000000" stroke-width="1" points="72,111 77,111 "/>
<polyline fill="none" opacity="1" stroke="#000000" stroke-width="1" points="78,700 974,700 "/>
<text x="192" y="710" dy="0.76em" text-anchor="middle" font-family="sans-serif" font-size="9.67741935483871" opacity="1" fill="#000000">
06:26:08
</text>
<polyline fill="none" opacity="1" stroke="#000000" stroke-width="1" points="192,700 192,705 "/>
<text x="372" y="710" dy="0.76em" text-anchor="middle" font-family="sans-serif" font-size="9.67741935483871" opacity="1" fill="#000000">
06:26:10
</text>
<polyline fill="none" opacity="1" stroke="#000000" stroke-width="1" points="372,700 372,705 "/>
<text x="551" y="710" dy="0.76em" text-anchor="middle" font-family="sans-serif" font-size="9.67741935483871" opacity="1" fill="#000000">
06:26:12
</text>
<polyline fill="none" opacity="1" stroke="#000000" stroke-width="1" points="551,700 551,705 "/>
<text x="730" y="710" dy="0.76em" text-anchor="middle" font-family="sans-serif" font-size="9.67741935483871" opacity="1" fill="#000000">
06:26:14
</text>
<polyline fill="none" opacity="1" stroke="#000000" stroke-width="1" points="730,700 730,705 "/>
<text x="909" y="710" dy="0.76em" text-anchor="middle" font-family="sans-serif" font-size="9.67741935483871" opacity="1" fill="#000000">
06:26:16
</text>
<polyline fill="none" opacity="1" stroke="#000000" stroke-width="1" points="909,700 909,705 "/>
<polyline fill="none" opacity="1" stroke="#000000" stroke-width="1" points="78,67 974,67 "/>
<text x="192" y="58" dy="-0.5ex" text-anchor="middle" font-family="sans-serif" font-size="9.67741935483871" opacity="1" fill="#000000">
+1s
</text>
<polyline fill="none" opacity="1" stroke="#000000" stroke-width="1" points="192,62 192,67 "/>
<text x="372" y="58" dy="-0.5ex" text-anchor="middle" font-family="sans-serif" font-size="9.67741935483871" opacity="1" fill="#000000">
+3s
</text>
<polyline fill="none" opacity="1" stroke="#000000" stroke-width="1" points="372,62 372,67 "/>
<text x="551" y="58" dy="-0.5ex" text-anchor="middle" font-family="sans-serif" font-size="9.67741935483871" opacity="1" fill="#000000">
+5s
</text>
<polyline fill="none" opacity="1" stroke="#000000" stroke-width="1" points="551,62 551,67 "/>
<text x="730" y="58" dy="-0.5ex" text-anchor="middle" font-family="sans-serif" font-size="9.67741935483871" opacity="1" fill="#000000">
+7s
</text>
<polyline fill="none" opacity="1" stroke="#000000" stroke-width="1" points="730,62 730,67 "/>
<text x="909" y="58" dy="-0.5ex" text-anchor="middle" font-family="sans-serif" font-size="9.67741935483871" opacity="1" fill="#000000">
+9s
</text>
<polyline fill="none" opacity="1" stroke="#000000" stroke-width="1" points="909,62 909,67 "/>
</svg>
