<svg width="1024" height="768" viewBox="0 0 1024 768" xmlns="http://www.w3.org/2000/svg">
<rect x="0" y="0" width="1024" height="768" opacity="1" fill="#FFFFFF" stroke="none"/>
<polygon opacity="1" fill="#E6194B" points="78,698 78,697 79,697 80,696 81,696 82,694 83,694 84,693 85,692 86,692 86,692 87,692 88,691 89,689 90,688 91,687 92,686 93,685 94,685 94,685 95,685 96,684 97,683 98,682 99,682 100,682 101,682 102,682 103,680 103,680 104,679 105,679 106,678 107,678 108,678 109,677 110,676 111,676 111,676 112,675 113,673 114,673 115,673 116,673 117,673 118,673 119,673 120,672 120,672 121,672 122,672 123,671 124,671 125,670 126,670 127,670 128,670 128,669 129,668 130,668 131,668 132,668 133,667 134,666 135,666 136,666 136,666 137,665 138,665 139,664 140,664 141,664 142,664 143,662 144,661 145,661 145,660 146,660 147,659 148,659 149,659 150,659 151,658 152,658 153,658 153,657 154,657 155,656 156,655 157,655 158,655 159,654 160,654 161,654 162,653 162,653 163,653 164,652 165,652 166,652 167,651 168,650 169,649 170,648 170,647 171,645 172,645 173,644 174,644 175,644 176,643 177,643 178,642 178,641 179,641 180,640 181,640 182,639 183,638 184,637 185,636 186,636 187,635 187,635 188,635 189,634 190,634 191,633 192,632 193,632 194,631 195,629 195,628 196,628 197,628 198,627 199,627 200,626 201,625 202,625 203,625 204,625 204,622 205,622 206,622 207,621 208,620 209,620 210,620 211,619 212,618 212,618 213,618 214,617 215,617 216,615 217,615 218,614 219,612 220,611 221,611 221,610 222,610 223,610 224,610 225,610 226,609 227,609 228,608 229,607 229,607 230,606 231,605 232,605 233,605 234,604 235,603 236,602 237,601 237,601 238,601 239,600 240,599 241,598 242,598 243,598 244,596 245,596 246,594 246,594 247,593 248,593 249,592 250,592 251,591 252,589 253,589 254,589 254,588 255,588 256,588 257,587 258,587 259,584 260,583 261,583 262,582 263,582 263,582 264,581 265,581 266,580 267,579 268,577 269,576 270,576 271,575 271,574 272,574 273,573 274,572 275,572 276,571 277,571 278,570 279,570 279,569 280,569 281,568 282,567 283,567 284,566 285,566 286,565 287,565 288,565 288,563 289,562 290,562 291,561 292,561 293,561 294,560 295,560 296,560 296,559 297,558 298,558 299,558 300,558 301,557 302,557 303,556 304,556 305,556 305,556 306,555 307,554 308,553 309,553 310,553 311,553 312,552 313,552 313,551 314,551 315,551 316,550 317,550 318,549 319,549 320,548 321,547 321,546 322,546 323,543 324,542 325,542 326,541 327,541 328,541 329,540 330,539 330,539 331,538 332,537 333,537 334,536 335,536 336,536 337,535 338,535 338,534 339,534 340,534 341,533 342,533 343,532 344,532 345,531 346,531 347,531 347,531 348,530 349,530 350,529 351,528 352,528 353,528 354,528 355,526 355,525 356,524 357,523 358,523 359,523 360,521 361,520 362,520 363,519 364,518 364,517 365,516 366,516 367,515 368,515 369,515 370,514 371,513 372,511 372,511 373,510 374,509 375,508 376,508 377,507 378,506 379,506 380,506 380,505 381,503 382,503 383,502 384,501 385,500 386,499 387,498 388,498 389,498 389,497 390,497 391,497 392,497 393,496 394,495 395,494 396,493 397,493 397,493 398,493 399,491 400,491 401,491 402,491 403,490 404,489 405,487 406,486 406,486 407,485 408,485 409,484 410,484 411,483 412,483 413,483 414,483 414,482 415,482 416,481 417,480 418,480 419,478 420,478 421,476 422,476 422,475 423,474 424,474 425,473 426,472 427,471 428,471 429,470 430,469 431,468 431,466 432,466 433,465 434,464 435,463 436,461 437,461 438,460 439,458 439,457 440,456 441,455 442,454 443,453 444,453 445,452 446,452 447,451 448,450 448,449 449,448 450,447 451,446 452,445 453,445 454,444 455,444 456,442 456,440 457,440 458,439 459,438 460,438 461,438 462,438 463,436 464,436 465,435 465,435 466,435 467,434 468,432 469,432 470,431 471,430 472,429 473,428 473,428 474,428 475,427 476,426 477,426 478,425 479,424 480,424 481,423 481,420 482,419 483,419 484,418 485,417 486,417 487,416 488,415 489,415 490,414 490,414 491,414 492,414 493,414 494,413 495,413 496,411 497,411 498,410 498,410 499,410 500,409 501,409 502,408 503,407 504,405 505,405 506,404 507,403 507,402 508,401 509,400 510,398 511,397 512,397 513,396 514,396 515,394 515,394 516,393 517,392 518,391 519,390 520,389 521,389 522,389 523,388 523,387 524,387 525,387 526,387 527,387 528,386 529,385 530,384 531,382 532,381 532,379 533,378 534,378 535,377 536,376 537,375 538,374 539,374 540,374 540,373 541,373 542,372 543,372 544,372 545,371 546,371 547,371 548,370 549,370 549,369 550,367 551,367 552,366 553,365 554,365 555,363 556,363 557,363 557,362 558,361 559,361 560,360 561,360 562,360 563,360 564,359 565,359 565,359 566,358 567,357 568,357 569,357 570,357 571,356 572,355 573,354 574,354 574,353 575,352 576,351 577,351 578,350 579,350 580,349 581,349 582,348 582,347 583,346 584,346 585,346 586,345 587,344 588,342 589,342 590,341 591,341 591,341 592,340 593,340 594,338 595,338 596,337 597,336 598,335 599,335 599,334 600,334 601,332 602,332 603,332 604,332 605,331 606,330 607,330 608,328 608,327 609,326 610,326 611,325 612,325 613,324 614,324 615,324 616,323 616,322 617,321 618,320 619,320 620,320 621,319 622,319 623,319 624,319 624,318 625,318 626,317 627,316 628,315 629,314 630,314 631,314 632,313 633,313 633,313 634,313 635,313 636,312 637,311 638,310 639,310 640,309 641,308 641,307 642,307 643,306 644,306 645,305 646,305 647,305 648,305 649,305 650,304 650,304 651,303 652,302 653,301 654,301 655,301 656,301 657,300 658,300 658,300 659,299 660,299 661,299 662,298 663,298 664,297 665,297 666,296 666,296 667,296 668,296 669,296 670,294 671,294 672,294 673,293 674,292 675,292 675,291 676,291 677,290 678,290 679,288 680,287 681,287 682,287 683,287 683,286 684,284 685,283 686,283 687,283 688,282 689,281 690,280 691,279 692,278 692,278 693,278 694,277 695,277 696,276 697,276 698,275 699,275 700,274 700,273 701,272 702,272 703,272 704,272 705,271 706,270 707,270 708,269 708,268 709,268 710,268 711,267 712,267 713,267 714,267 715,267 716,266 717,265 717,265 718,264 719,264 720,264 721,263 722,262 723,262 724,261 725,261 725,260 726,260 727,260 728,259 729,259 730,258 731,258 732,257 733,257 734,256 734,256 735,256 736,256 737,255 738,254 739,254 740,253 741,253 742,252 742,251 743,251 744,250 745,250 746,249 747,249 748,249 749,248 750,248 751,247 751,247 752,246 753,245 754,244 755,243 756,243 757,242 758,241 759,241 759,241 760,240 761,240 762,239 763,237 764,237 765,236 766,236 767,235 767,233 768,233 769,232 770,231 771,230 772,230 773,229 774,227 775,226 776,225 776,225 777,224 778,223 779,222 780,221 781,220 782,220 783,219 784,218 784,217 785,216 786,216 787,215 788,215 789,214 790,213 791,213 792,213 793,211 793,211 794,211 795,210 796,209 797,209 798,209 799,209 800,208 801,207 801,207 802,206 803,206 804,205 805,204 806,204 807,203 808,202 809,201 809,201 810,200 811,199 812,199 813,198 814,196 815,194 816,192 817,191 818,190 818,190 819,189 820,189 821,189 822,188 823,187 824,187 825,186 826,184 826,184 827,183 828,181 829,181 830,180 831,179 832,179 833,178 834,178 835,177 835,176 836,176 837,175 838,175 839,174 840,172 841,172 842,172 843,171 843,171 844,171 845,171 846,170 847,170 848,168 849,168 850,168 851,168 852,167 852,166 853,165 854,164 855,163 856,163 857,162 858,161 859,161 860,160 860,159 861,158 862,157 863,156 864,155 865,153 866,152 867,150 868,149 868,149 869,149 870,149 871,147 872,147 873,146 874,146 875,145 876,144 877,143 877,143 878,143 879,142 880,142 881,141 882,141 883,140 884,139 885,139 885,138 886,138 887,138 888,137 889,137 890,136 891,136 892,135 893,133 894,133 894,133 895,132 896,132 897,131 898,131 899,130 900,130 901,129 902,129 902,129 903,128 904,128 905,128 906,128 907,128 908,126 909,125 910,125 910,124 911,122 912,122 913,121 914,120 915,120 916,119 917,118 918,118 919,117 919,116 920,116 921,115 922,115 923,115 924,114 925,114 926,114 927,113 927,111 928,111 929,111 930,110 931,110 932,110 933,108 934,108 935,108 936,108 936,106 937,106 938,105 939,103 940,102 941,102 942,101 943,100 944,99 944,99 945,99 946,98 947,98 948,96 949,96 950,95 951,94 952,93 952,93 953,92 954,92 955,91 956,91 957,89 958,88 959,86 960,84 961,83 961,81 962,78 963,77 964,76 965,74 966,74 967,73 968,72 969,71 969,69 970,68 971,68 971,68 973,68 973,699 78,699 "/>
<polyline fill="none" opacity="1" stroke="#E6194B" stroke-width="1" points="78,698 78,697 79,697 80,696 81,696 82,694 83,694 84,693 85,692 86,692 86,692 87,692 88,691 89,689 90,688 91,687 92,686 93,685 94,685 94,685 95,685 96,684 97,683 98,682 99,682 100,682 101,682 102,682 103,680 103,680 104,679 105,679 106,678 107,678 108,678 109,677 110,676 111,676 111,676 112,675 113,673 114,673 115,673 116,673 117,673 118,673 119,673 120,672 120,672 121,672 122,672 123,671 124,671 125,670 126,670 127,670 128,670 128,669 129,668 130,668 131,668 132,668 133,667 134,666 135,666 136,666 136,666 137,665 138,665 139,664 140,664 141,664 142,664 143,662 144,661 145,661 145,660 146,660 147,659 148,659 149,659 150,659 151,658 152,658 153,658 153,657 154,657 155,656 156,655 157,655 158,655 159,654 160,654 161,654 162,653 162,653 163,653 164,652 165,652 166,652 167,651 168,650 169,649 170,648 170,647 171,645 172,645 173,644 174,644 175,644 176,643 177,643 178,642 178,641 179,641 180,640 181,640 182,639 183,638 184,637 185,636 186,636 187,635 187,635 188,635 189,634 190,634 191,633 192,632 193,632 194,631 195,629 195,628 196,628 197,628 198,627 199,627 200,626 201,625 202,625 203,625 204,625 204,622 205,622 206,622 207,621 208,620 209,620 210,620 211,619 212,618 212,618 213,618 214,617 215,617 216,615 217,615 218,614 219,612 220,611 221,611 221,610 222,610 223,610 224,610 225,610 226,609 227,609 228,608 229,607 229,607 230,606 231,605 232,605 233,605 234,604 235,603 236,602 237,601 237,601 238,601 239,600 240,599 241,598 242,598 243,598 244,596 245,596 246,594 246,594 247,593 248,593 249,592 250,592 251,591 252,589 253,589 254,589 254,588 255,588 256,588 257,587 258,587 259,584 260,583 261,583 262,582 263,582 263,582 264,581 265,581 266,580 267,579 268,577 269,576 270,576 271,575 271,574 272,574 273,573 274,572 275,572 276,571 277,571 278,570 279,570 279,569 280,569 281,568 282,567 283,567 284,566 285,566 286,565 287,565 288,565 288,563 289,562 290,562 291,561 292,561 293,561 294,560 295,560 296,560 296,559 297,558 298,558 299,558 300,558 301,557 302,557 303,556 304,556 305,556 305,556 306,555 307,554 308,553 309,553 310,553 311,553 312,552 313,552 313,551 314,551 315,551 316,550 317,550 318,549 319,549 320,548 321,547 321,546 322,546 323,543 324,542 325,542 326,541 327,541 328,541 329,540 330,539 330,539 331,538 332,537 333,537 334,536 335,536 336,536 337,535 338,535 338,534 339,534 340,534 341,533 342,533 343,532 344,532 345,531 346,531 347,531 347,531 348,530 349,530 350,529 351,528 352,528 353,528 354,528 355,526 355,525 356,524 357,523 358,523 359,523 360,521 361,520 362,520 363,519 364,518 364,517 365,516 366,516 367,515 368,515 369,515 370,514 371,513 372,511 372,511 373,510 374,509 375,508 376,508 377,507 378,506 379,506 380,506 380,505 381,503 382,503 383,502 384,501 385,500 386,499 387,498 388,498 389,498 389,497 390,497 391,497 392,497 393,496 394,495 395,494 396,493 397,493 397,493 398,493 399,491 400,491 401,491 402,491 403,490 404,489 405,487 406,486 406,486 407,485 408,485 409,484 410,484 411,483 412,483 413,483 414,483 414,482 415,482 416,481 417,480 418,480 419,478 420,478 421,476 422,476 422,475 423,474 424,474 425,473 426,472 427,471 428,471 429,470 430,469 431,468 431,466 432,466 433,465 434,464 435,463 436,461 437,461 438,460 439,458 439,457 440,456 441,455 442,454 443,453 444,453 445,452 446,452 447,451 448,450 448,449 449,448 450,447 451,446 452,445 453,445 454,444 455,444 456,442 456,440 457,440 458,439 459,438 460,438 461,438 462,438 463,436 464,436 465,435 465,435 466,435 467,434 468,432 469,432 470,431 471,430 472,429 473,428 473,428 474,428 475,427 476,426 477,426 478,425 479,424 480,424 481,423 481,420 482,419 483,419 484,418 485,417 486,417 487,416 488,415 489,415 490,414 490,414 491,414 492,414 493,414 494,413 495,413 496,411 497,411 498,410 498,410 499,410 500,409 501,409 502,408 503,407 504,405 505,405 506,404 507,403 507,402 508,401 509,400 510,398 511,397 512,397 513,396 514,396 515,394 515,394 516,393 517,392 518,391 519,390 520,389 521,389 522,389 523,388 523,387 524,387 525,387 526,387 527,387 528,386 529,385 530,384 531,382 532,381 532,379 533,378 534,378 535,377 536,376 537,375 538,374 539,374 540,374 540,373 541,373 542,372 543,372 544,372 545,371 546,371 547,371 548,370 549,370 549,369 550,367 551,367 552,366 553,365 554,365 555,363 556,363 557,363 557,362 558,361 559,361 560,360 561,360 562,360 563,360 564,359 565,359 565,359 566,358 567,357 568,357 569,357 570,357 571,356 572,355 573,354 574,354 574,353 575,352 576,351 577,351 578,350 579,350 580,349 581,349 582,348 582,347 583,346 584,346 585,346 586,345 587,344 588,342 589,342 590,341 591,341 591,341 592,340 593,340 594,338 595,338 596,337 597,336 598,335 599,335 599,334 600,334 601,332 602,332 603,332 604,332 605,331 606,330 607,330 608,328 608,327 609,326 610,326 611,325 612,325 613,324 614,324 615,324 616,323 616,322 617,321 618,320 619,320 620,320 621,319 622,319 623,319 624,319 624,318 625,318 626,317 627,316 628,315 629,314 630,314 631,314 632,313 633,313 633,313 634,313 635,313 636,312 637,311 638,310 639,310 640,309 641,308 641,307 642,307 643,306 644,306 645,305 646,305 647,305 648,305 649,305 650,304 650,304 651,303 652,302 653,301 654,301 655,301 656,301 657,300 658,300 658,300 659,299 660,299 661,299 662,298 663,298 664,297 665,297 666,296 666,296 667,296 668,296 669,296 670,294 671,294 672,294 673,293 674,292 675,292 675,291 676,291 677,290 678,290 679,288 680,287 681,287 682,287 683,287 683,286 684,284 685,283 686,283 687,283 688,282 689,281 690,280 691,279 692,278 692,278 693,278 694,277 695,277 696,276 697,276 698,275 699,275 700,274 700,273 701,272 702,272 703,272 704,272 705,271 706,270 707,270 708,269 708,268 709,268 710,268 711,267 712,267 713,267 714,267 715,267 716,266 717,265 717,265 718,264 719,264 720,264 721,263 722,262 723,262 724,261 725,261 725,260 726,260 727,260 728,259 729,259 730,258 731,258 732,257 733,257 734,256 734,256 735,256 736,256 737,255 738,254 739,254 740,253 741,253 742,252 742,251 743,251 744,250 745,250 746,249 747,249 748,249 749,248 750,248 751,247 751,247 752,246 753,245 754,244 755,243 756,243 757,242 758,241 759,241 759,241 760,240 761,240 762,239 763,237 764,237 765,236 766,236 767,235 767,233 768,233 769,232 770,231 771,230 772,230 773,229 774,227 775,226 776,225 776,225 777,224 778,223 779,222 780,221 781,220 782,220 783,219 784,218 784,217 785,216 786,216 787,215 788,215 789,214 790,213 791,213 792,213 793,211 793,211 794,211 795,210 796,209 797,209 798,209 799,209 800,208 801,207 801,207 802,206 803,206 804,205 805,204 806,204 807,203 808,202 809,201 809,201 810,200 811,199 812,199 813,198 814,196 815,194 816,192 817,191 818,190 818,190 819,189 820,189 821,189 822,188 823,187 824,187 825,186 826,184 826,184 827,183 828,181 829,181 830,180 831,179 832,179 833,178 834,178 835,177 835,176 836,176 837,175 838,175 839,174 840,172 841,172 842,172 843,171 843,171 844,171 845,171 846,170 847,170 848,168 849,168 850,168 851,168 852,167 852,166 853,165 854,164 855,163 856,163 857,162 858,161 859,161 860,160 860,159 861,158 862,157 863,156 864,155 865,153 866,152 867,150 868,149 868,149 869,149 870,149 871,147 872,147 873,146 874,146 875,145 876,144 877,143 877,143 878,143 879,142 880,142 881,141 882,141 883,140 884,139 885,139 885,138 886,138 887,138 888,137 889,137 890,136 891,136 892,135 893,133 894,133 894,133 895,132 896,132 897,131 898,131 899,130 900,130 901,129 902,129 902,129 903,128 904,128 905,128 906,128 907,128 908,126 909,125 910,125 910,124 911,122 912,122 913,121 914,120 915,120 916,119 917,118 918,118 919,117 919,116 920,116 921,115 922,115 923,115 924,114 925,114 926,114 927,113 927,111 928,111 929,111 930,110 931,110 932,110 933,108 934,108 935,108 936,108 936,106 937,106 938,105 939,103 940,102 941,102 942,101 943,100 944,99 944,99 945,99 946,98 947,98 948,96 949,96 950,95 951,94 952,93 952,93 953,92 954,92 955,91 956,91 957,89 958,88 959,86 960,84 961,83 961,81 962,78 963,77 964,76 965,74 966,74 967,73 968,72 969,71 969,69 970,68 971,68 971,68 973,68 "/>
<line opacity="0.1" stroke="#000000" stroke-width="1" x1="78" y1="699" x2="78" y2="68"/>
<line opacity="0.1" stroke="#000000" stroke-width="1" x1="87" y1="699" x2="87" y2="68"/>
<line opacity="0.1" stroke="#000000" stroke-width="1" x1="96" y1="699" x2="96" y2="68"/>
<line opacity="0.1" stroke="#000000" stroke-width="1" x1="105" y1="699" x2="105" y2="68"/>
<line opacity="0.1" stroke="#000000" stroke-width="1" x1="113" y1="699" x2="113" y2="68"/>
<line opacity="0.1" stroke="#000000" stroke-width="1" x1="122" y1="699" x2="122" y2="68"/>
<line opacity="0.1" stroke="#000000" stroke-width="1" x1="131" y1="699" x2="131" y2="68"/>
<line opacity="0.1" stroke="#000000" stroke-width="1" x1="140" y1="699" x2="140" y2="68"/>
<line opacity="0.1" stroke="#000000" stroke-width="1" x1="149" y1="699" x2="149" y2="68"/>
<line opacity="0.1" stroke="#000000" stroke-width="1" x1="158" y1="699" x2="158" y2="68"/>
<line opacity="0.1" stroke="#000000" stroke-width="1" x1="167" y1="699" x2="167" y2="68"/>
<line opacity="0.1" stroke="#000000" stroke-width="1" x1="176" y1="699" x2="176" y2="68"/>
<line opacity="0.1" stroke="#000000" stroke-width="1" x1="185" y1="699" x2="185" y2="68"/>
<line opacity="0.1" stroke="#000000" stroke-width="1" x1="194" y1="699" x2="194" y2="68"/>
<line opacity="0.1" stroke="#000000" stroke-width="1" x1="203" y1="699" x2="203" y2="68"/>
<line opacity="0.1" stroke="#000000" stroke-width="1" x1="212" y1="699" x2="212" y2="68"/>
<line opacity="0.1" stroke="#000000" stroke-width="1" x1="221" y1="699" x2="221" y2="68"/>
<line opacity="0.1" stroke="#000000" stroke-width="1" x1="230" y1="699" x2="230" y2="68"/>
<line opacity="0.1" stroke="#000000" stroke-width="1" x1="239" y1="699" x2="239" y2="68"/>
<line opacity="0.1" stroke="#000000" stroke-width="1" x1="248" y1="699" x2="248" y2="68"/>
<line opacity="0.1" stroke="#000000" stroke-width="1" x1="257" y1="699" x2="257" y2="68"/>
<line opacity="0.1" stroke="#000000" stroke-width="1" x1="266" y1="699" x2="266" y2="68"/>
<line opacity="0.1" stroke="#000000" stroke-width="1" x1="275" y1="699" x2="275" y2="68"/>
<line opacity="0.1" stroke="#000000" stroke-width="1" x1="283" y1="699" x2="283" y2="68"/>
<line opacity="0.1" stroke="#000000" stroke-width="1" x1="292" y1="699" x2="292" y2="68"/>
<line opacity="0.1" stroke="#000000" stroke-width="1" x1="301" y1="699" x2="301" y2="68"/>
<line opacity="0.1" stroke="#000000" stroke-width="1" x1="310" y1="699" x2="310" y2="68"/>
<line opacity="0.1" stroke="#000000" stroke-width="1" x1="319" y1="699" x2="319" y2="68"/>
<line opacity="0.1" stroke="#000000" stroke-width="1" x1="328" y1="699" x2="328" y2="68"/>
<line opacity="0.1" stroke="#000000" stroke-width="1" x1="337" y1="699" x2="337" y2="68"/>
<line opacity="0.1" stroke="#000000" stroke-width="1" x1="346" y1="699" x2="346" y2="68"/>
<line opacity="0.1" stroke="#000000" stroke-width="1" x1="355" y1="699" x2="355" y2="68"/>
<line opacity="0.1" stroke="#000000" stroke-width="1" x1="364" y1="699" x2="364" y2="68"/>
<line opacity="0.1" stroke="#000000" stroke-width="1" x1="373" y1="699" x2="373" y2="68"/>
<line opacity="0.1" stroke="#000000" stroke-width="1" x1="382" y1="699" x2="382" y2="68"/>
<line opacity="0.1" stroke="#000000" stroke-width="1" x1="391" y1="699" x2="391" y2="68"/>
<line opacity="0.1" stroke="#000000" stroke-width="1" x1="400" y1="699" x2="400" y2="68"/>
<line opacity="0.1" stroke="#000000" stroke-width="1" x1="409" y1="699" x2="409" y2="68"/>
<line opacity="0.1" stroke="#000000" stroke-width="1" x1="418" y1="699" x2="418" y2="68"/>
<line opacity="0.1" stroke="#000000" stroke-width="1" x1="427" y1="699" x2="427" y2="68"/>
<line opacity="0.1" stroke="#000000" stroke-width="1" x1="436" y1="699" x2="436" y2="68"/>
<line opacity="0.1" stroke="#000000" stroke-width="1" x1="445" y1="699" x2="445" y2="68"/>
<line opacity="0.1" stroke="#000000" stroke-width="1" x1="454" y1="699" x2="454" y2="68"/>
<line opacity="0.1" stroke="#000000" stroke-width="1" x1="462" y1="699" x2="462" y2="68"/>
<line opacity="0.1" stroke="#000000" stroke-width="1" x1="471" y1="699" x2="471" y2="68"/>
<line opacity="0.1" stroke="#000000" stroke-width="1" x1="480" y1="699" x2="480" y2="68"/>
<line opacity="0.1" stroke="#000000" stroke-width="1" x1="489" y1="699" x2="489" y2="68"/>
<line opacity="0.1" stroke="#000000" stroke-width="1" x1="498" y1="699" x2="498" y2="68"/>
<line opacity="0.1" stroke="#000000" stroke-width="1" x1="507" y1="699" x2="507" y2="68"/>
<line opacity="0.1" stroke="#000000" stroke-width="1" x1="516" y1="699" x2="516" y2="68"/>
<line opacity="0.1" stroke="#000000" stroke-width="1" x1="525" y1="699" x2="525" y2="68"/>
<line opacity="0.1" stroke="#000000" stroke-width="1" x1="534" y1="699" x2="534" y2="68"/>
<line opacity="0.1" stroke="#000000" stroke-width="1" x1="543" y1="699" x2="543" y2="68"/>
<line opacity="0.1" stroke="#000000" stroke-width="1" x1="552" y1="699" x2="552" y2="68"/>
<line opacity="0.1" stroke="#000000" stroke-width="1" x1="561" y1="699" x2="561" y2="68"/>
<line opacity="0.1" stroke="#000000" stroke-width="1" x1="570" y1="699" x2="570" y2="68"/>
<line opacity="0.1" stroke="#000000" stroke-width="1" x1="579" y1="699" x2="579" y2="68"/>
<line opacity="0.1" stroke="#000000" stroke-width="1" x1="588" y1="699" x2="588" y2="68"/>
<line opacity="0.1" stroke="#000000" stroke-width="1" x1="597" y1="699" x2="597" y2="68"/>
<line opacity="0.1" stroke="#000000" stroke-width="1" x1="606" y1="699" x2="606" y2="68"/>
<line opacity="0.1" stroke="#000000" stroke-width="1" x1="615" y1="699" x2="615" y2="68"/>
<line opacity="0.1" stroke="#000000" stroke-width="1" x1="624" y1="699" x2="624" y2="68"/>
<line opacity="0.1" stroke="#000000" stroke-width="1" x1="632" y1="699" x2="632" y2="68"/>
<line opacity="0.1" stroke="#000000" stroke-width="1" x1="641" y1="699" x2="641" y2="68"/>
<line opacity="0.1" stroke="#000000" stroke-width="1" x1="650" y1="699" x2="650" y2="68"/>
<line opacity="0.1" stroke="#000000" stroke-width="1" x1="659" y1="699" x2="659" y2="68"/>
<line opacity="0.1" stroke="#000000" stroke-width="1" x1="668" y1="699" x2="668" y2="68"/>
<line opacity="0.1" stroke="#000000" stroke-width="1" x1="677" y1="699" x2="677" y2="68"/>
<line opacity="0.1" stroke="#000000" stroke-width="1" x1="686" y1="699" x2="686" y2="68"/>
<line opacity="0.1" stroke="#000000" stroke-width="1" x1="695" y1="699" x2="695" y2="68"/>
<line opacity="0.1" stroke="#000000" stroke-width="1" x1="704" y1="699" x2="704" y2="68"/>
<line opacity="0.1" stroke="#000000" stroke-width="1" x1="713" y1="699" x2="713" y2="68"/>
<line opacity="0.1" stroke="#000000" stroke-width="1" x1="722" y1="699" x2="722" y2="68"/>
<line opacity="0.1" stroke="#000000" stroke-width="1" x1="731" y1="699" x2="731" y2="68"/>
<line opacity="0.1" stroke="#000000" stroke-width="1" x1="740" y1="699" x2="740" y2="68"/>
<line opacity="0.1" stroke="#000000" stroke-width="1" x1="749" y1="699" x2="749" y2="68"/>
<line opacity="0.1" stroke="#000000" stroke-width="1" x1="758" y1="699" x2="758" y2="68"/>
<line opacity="0.1" stroke="#000000" stroke-width="1" x1="767" y1="699" x2="767" y2="68"/>
<line opacity="0.1" stroke="#000000" stroke-width="1" x1="776" y1="699" x2="776" y2="68"/>
<line opacity="0.1" stroke="#000000" stroke-width="1" x1="785" y1="699" x2="785" y2="68"/>
<line opacity="0.1" stroke="#000000" stroke-width="1" x1="794" y1="699" x2="794" y2="68"/>
<line opacity="0.1" stroke="#000000" stroke-width="1" x1="803" y1="699" x2="803" y2="68"/>
<line opacity="0.1" stroke="#000000" stroke-width="1" x1="811" y1="699" x2="811" y2="68"/>
<line opacity="0.1" stroke="#000000" stroke-width="1" x1="820" y1="699" x2="820" y2="68"/>
<line opacity="0.1" stroke="#000000" stroke-width="1" x1="829" y1="699" x2="829" y2="68"/>
<line opacity="0.1" stroke="#000000" stroke-width="1" x1="838" y1="699" x2="838" y2="68"/>
<line opacity="0.1" stroke="#000000" stroke-width="1" x1="847" y1="699" x2="847" y2="68"/>
<line opacity="0.1" stroke="#000000" stroke-width="1" x1="856" y1="699" x2="856" y2="68"/>
<line opacity="0.1" stroke="#000000" stroke-width="1" x1="865" y1="699" x2="865" y2="68"/>
<line opacity="0.1" stroke="#000000" stroke-width="1" x1="874" y1="699" x2="874" y2="68"/>
<line opacity="0.1" stroke="#000000" stroke-width="1" x1="883" y1="699" x2="883" y2="68"/>
<line opacity="0.1" stroke="#000000" stroke-width="1" x1="892" y1="699" x2="892" y2="68"/>
<line opacity="0.1" stroke="#000000" stroke-width="1" x1="901" y1="699" x2="901" y2="68"/>
<line opacity="0.1" stroke="#000000" stroke-width="1" x1="910" y1="699" x2="910" y2="68"/>
<line opacity="0.1" stroke="#000000" stroke-width="1" x1="919" y1="699" x2="919" y2="68"/>
<line opacity="0.1" stroke="#000000" stroke-width="1" x1="928" y1="699" x2="928" y2="68"/>
<line opacity="0.1" stroke="#000000" stroke-width="1" x1="937" y1="699" x2="937" y2="68"/>
<line opacity="0.1" stroke="#000000" stroke-width="1" x1="946" y1="699" x2="946" y2="68"/>
<line opacity="0.1" stroke="#000000" stroke-width="1" x1="955" y1="699" x2="955" y2="68"/>
<line opacity="0.1" stroke="#000000" stroke-width="1" x1="964" y1="699" x2="964" y2="68"/>
<line opacity="0.1" stroke="#000000" stroke-width="1" x1="78" y1="699" x2="973" y2="699"/>
<line opacity="0.1" stroke="#000000" stroke-width="1" x1="78" y1="692" x2="973" y2="692"/>
<line opacity="0.1" stroke="#000000" stroke-width="1" x1="78" y1="686" x2="973" y2="686"/>
<line opacity="0.1" stroke="#000000" stroke-width="1" x1="78" y1="679" x2="973" y2="679"/>
<line opacity="0.1" stroke="#000000" stroke-width="1" x1="78" y1="673" x2="973" y2="673"/>
<line opacity="0.1" stroke="#000000" stroke-width="1" x1="78" y1="667" x2="973" y2="667"/>
<line opacity="0.1" stroke="#000000" stroke-width="1" x1="78" y1="660" x2="973" y2="660"/>
<line opacity="0.1" stroke="#000000" stroke-width="1" x1="78" y1="654" x2="973" y2="654"/>
<line opacity="0.1" stroke="#000000" stroke-width="1" x1="78" y1="647" x2="973" y2="647"/>
<line opacity="0.1" stroke="#000000" stroke-width="1" x1="78" y1="641" x2="973" y2="641"/>
<line opacity="0.1" stroke="#000000" stroke-width="1" x1="78" y1="635" x2="973" y2="635"/>
<line opacity="0.1" stroke="#000000" stroke-width="1" x1="78" y1="628" x2="973" y2="628"/>
<line opacity="0.1" stroke="#000000" stroke-width="1" x1="78" y1="622" x2="973" y2="622"/>
<line opacity="0.1" stroke="#000000" stroke-width="1" x1="78" y1="615" x2="973" y2="615"/>
<line opacity="0.1" stroke="#000000" stroke-width="1" x1="78" y1="609" x2="973" y2="609"/>
<line opacity="0.1" stroke="#000000" stroke-width="1" x1="78" y1="603" x2="973" y2="603"/>
<line opacity="0.1" stroke="#000000" stroke-width="1" x1="78" y1="596" x2="973" y2="596"/>
<line opacity="0.1" stroke="#000000" stroke-width="1" x1="78" y1="590" x2="973" y2="590"/>
<line opacity="0.1" stroke="#000000" stroke-width="1" x1="78" y1="584" x2="973" y2="584"/>
<line opacity="0.1" stroke="#000000" stroke-width="1" x1="78" y1="577" x2="973" y2="577"/>
<line opacity="0.1" stroke="#000000" stroke-width="1" x1="78" y1="571" x2="973" y2="571"/>
<line opacity="0.1" stroke="#000000" stroke-width="1" x1="78" y1="564" x2="973" y2="564"/>
<line opacity="0.1" stroke="#000000" stroke-width="1" x1="78" y1="558" x2="973" y2="558"/>
<line opacity="0.1" stroke="#000000" stroke-width="1" x1="78" y1="552" x2="973" y2="552"/>
<line opacity="0.1" stroke="#000000" stroke-width="1" x1="78" y1="545" x2="973" y2="545"/>
<line opacity="0.1" stroke="#000000" stroke-width="1" x1="78" y1="539" x2="973" y2="539"/>
<line opacity="0.1" stroke="#000000" stroke-width="1" x1="78" y1="532" x2="973" y2="532"/>
<line opacity="0.1" stroke="#000000" stroke-width="1" x1="78" y1="526" x2="973" y2="526"/>
<line opacity="0.1" stroke="#000000" stroke-width="1" x1="78" y1="520" x2="973" y2="520"/>
<line opacity="0.1" stroke="#000000" stroke-width="1" x1="78" y1="513" x2="973" y2="513"/>
<line opacity="0.1" stroke="#000000" stroke-width="1" x1="78" y1="507" x2="973" y2="507"/>
<line opacity="0.1" stroke="#000000" stroke-width="1" x1="78" y1="500" x2="973" y2="500"/>
<line opacity="0.1" stroke="#000000" stroke-width="1" x1="78" y1="494" x2="973" y2="494"/>
<line opacity="0.1" stroke="#000000" stroke-width="1" x1="78" y1="488" x2="973" y2="488"/>
<line opacity="0.1" stroke="#000000" stroke-width="1" x1="78" y1="481" x2="973" y2="481"/>
<line opacity="0.1" stroke="#000000" stroke-width="1" x1="78" y1="475" x2="973" y2="475"/>
<line opacity="0.1" stroke="#000000" stroke-width="1" x1="78" y1="469" x2="973" y2="469"/>
<line opacity="0.1" stroke="#000000" stroke-width="1" x1="78" y1="462" x2="973" y2="462"/>
<line opacity="0.1" stroke="#000000" stroke-width="1" x1="78" y1="456" x2="973" y2="456"/>
<line opacity="0.1" stroke="#000000" stroke-width="1" x1="78" y1="449" x2="973" y2="449"/>
<line opacity="0.1" stroke="#000000" stroke-width="1" x1="78" y1="443" x2="973" y2="443"/>
<line opacity="0.1" stroke="#000000" stroke-width="1" x1="78" y1="437" x2="973" y2="437"/>
<line opacity="0.1" stroke="#000000" stroke-width="1" x1="78" y1="430" x2="973" y2="430"/>
<line opacity="0.1" stroke="#000000" stroke-width="1" x1="78" y1="424" x2="973" y2="424"/>
<line opacity="0.1" stroke="#000000" stroke-width="1" x1="78" y1="417" x2="973" y2="417"/>
<line opacity="0.1" stroke="#000000" stroke-width="1" x1="78" y1="411" x2="973" y2="411"/>
<line opacity="0.1" stroke="#000000" stroke-width="1" x1="78" y1="405" x2="973" y2="405"/>
<line opacity="0.1" stroke="#000000" stroke-width="1" x1="78" y1="398" x2="973" y2="398"/>
<line opacity="0.1" stroke="#000000" stroke-width="1" x1="78" y1="392" x2="973" y2="392"/>
<line opacity="0.1" stroke="#000000" stroke-width="1" x1="78" y1="386" x2="973" y2="386"/>
<line opacity="0.1" stroke="#000000" stroke-width="1" x1="78" y1="379" x2="973" y2="379"/>
<line opacity="0.1" stroke="#000000" stroke-width="1" x1="78" y1="373" x2="973" y2="373"/>
<line opacity="0.1" stroke="#000000" stroke-width="1" x1="78" y1="366" x2="973" y2="366"/>
<line opacity="0.1" stroke="#000000" stroke-width="1" x1="78" y1="360" x2="973" y2="360"/>
<line opacity="0.1" stroke="#000000" stroke-width="1" x1="78" y1="354" x2="973" y2="354"/>
<line opacity="0.1" stroke="#000000" stroke-width="1" x1="78" y1="347" x2="973" y2="347"/>
<line opacity="0.1" stroke="#000000" stroke-width="1" x1="78" y1="341" x2="973" y2="341"/>
<line opacity="0.1" stroke="#000000" stroke-width="1" x1="78" y1="334" x2="973" y2="334"/>
<line opacity="0.1" stroke="#000000" stroke-width="1" x1="78" y1="328" x2="973" y2="328"/>
<line opacity="0.1" stroke="#000000" stroke-width="1" x1="78" y1="322" x2="973" y2="322"/>
<line opacity="0.1" stroke="#000000" stroke-width="1" x1="78" y1="315" x2="973" y2="315"/>
<line opacity="0.1" stroke="#000000" stroke-width="1" x1="78" y1="309" x2="973" y2="309"/>
<line opacity="0.1" stroke="#000000" stroke-width="1" x1="78" y1="302" x2="973" y2="302"/>
<line opacity="0.1" stroke="#000000" stroke-width="1" x1="78" y1="296" x2="973" y2="296"/>
<line opacity="0.1" stroke="#000000" stroke-width="1" x1="78" y1="290" x2="973" y2="290"/>
<line opacity="0.1" stroke="#000000" stroke-width="1" x1="78" y1="283" x2="973" y2="283"/>
<line opacity="0.1" stroke="#000000" stroke-width="1" x1="78" y1="277" x2="973" y2="277"/>
<line opacity="0.1" stroke="#000000" stroke-width="1" x1="78" y1="271" x2="973" y2="271"/>
<line opacity="0.1" stroke="#000000" stroke-width="1" x1="78" y1="264" x2="973" y2="264"/>
<line opacity="0.1" stroke="#000000" stroke-width="1" x1="78" y1="258" x2="973" y2="258"/>
<line opacity="0.1" stroke="#000000" stroke-width="1" x1="78" y1="251" x2="973" y2="251"/>
<line opacity="0.1" stroke="#000000" stroke-width="1" x1="78" y1="245" x2="973" y2="245"/>
<line opacity="0.1" stroke="#000000" stroke-width="1" x1="78" y1="239" x2="973" y2="239"/>
<line opacity="0.1" stroke="#000000" stroke-width="1" x1="78" y1="232" x2="973" y2="232"/>
<line opacity="0.1" stroke="#000000" stroke-width="1" x1="78" y1="226" x2="973" y2="226"/>
<line opacity="0.1" stroke="#000000" stroke-width="1" x1="78" y1="219" x2="973" y2="219"/>
<line opacity="0.1" stroke="#000000" stroke-width="1" x1="78" y1="213" x2="973" y2="213"/>
<line opacity="0.1" stroke="#000000" stroke-width="1" x1="78" y1="207" x2="973" y2="207"/>
<line opacity="0.1" stroke="#000000" stroke-width="1" x1="78" y1="200" x2="973" y2="200"/>
<line opacity="0.1" stroke="#000000" stroke-width="1" x1="78" y1="194" x2="973" y2="194"/>
<line opacity="0.1" stroke="#000000" stroke-width="1" x1="78" y1="188" x2="973" y2="188"/>
<line opacity="0.1" stroke="#000000" stroke-width="1" x1="78" y1="181" x2="973" y2="181"/>
<line opacity="0.1" stroke="#000000" stroke-width="1" x1="78" y1="175" x2="973" y2="175"/>
<line opacity="0.1" stroke="#000000" stroke-width="1" x1="78" y1="168" x2="973" y2="168"/>
<line opacity="0.1" stroke="#000000" stroke-width="1" x1="78" y1="162" x2="973" y2="162"/>
<line opacity="0.1" stroke="#000000" stroke-width="1" x1="78" y1="156" x2="973" y2="156"/>
<line opacity="0.1" stroke="#000000" stroke-width="1" x1="78" y1="149" x2="973" y2="149"/>
<line opacity="0.1" stroke="#000000" stroke-width="1" x1="78" y1="143" x2="973" y2="143"/>
<line opacity="0.1" stroke="#000000" stroke-width="1" x1="78" y1="136" x2="973" y2="136"/>
<line opacity="0.1" stroke="#000000" stroke-width="1" x1="78" y1="130" x2="973" y2="130"/>
<line opacity="0.1" stroke="#000000" stroke-width="1" x1="78" y1="124" x2="973" y2="124"/>
<line opacity="0.1" stroke="#000000" stroke-width="1" x1="78" y1="117" x2="973" y2="117"/>
<line opacity="0.1" stroke="#000000" stroke-width="1" x1="78" y1="111" x2="973" y2="111"/>
<line opacity="0.1" stroke="#000000" stroke-width="1" x1="78" y1="104" x2="973" y2="104"/>
<line opacity="0.1" stroke="#000000" stroke-width="1" x1="78" y1="98" x2="973" y2="98"/>
<line opacity="0.1" stroke="#000000" stroke-width="1" x1="78" y1="92" x2="973" y2="92"/>
<line opacity="0.1" stroke="#000000" stroke-width="1" x1="78" y1="85" x2="973" y2="85"/>
<line opacity="0.1" stroke="#000000" stroke-width="1" x1="78" y1="79" x2="973" y2="79"/>
<line opacity="0.1" stroke="#000000" stroke-width="1" x1="78" y1="73" x2="973" y2="73"/>
<text x="8" y="384" dy="0.76em" text-anchor="middle" font-family="sans-serif" font-size="9.67741935483871" opacity="1" fill="#000000" transform="rotate(270, 8, 384)">
Memory usage
</text>
<text x="526" y="760" dy="-0.5ex" text-anchor="middle" font-family="sans-serif" font-size="9.67741935483871" opacity="1" fill="#000000">
Time
</text>
<line opacity="0.2" stroke="#000000" stroke-width="1" x1="96" y1="699" x2="96" y2="68"/>
<line opacity="0.2" stroke="#000000" stroke-width="1" x1="185" y1="699" x2="185" y2="68"/>
<line opacity="0.2" stroke="#000000" stroke-width="1" x1="275" y1="699" x2="275" y2="68"/>
<line opacity="0.2" stroke="#000000" stroke-width="1" x1="364" y1="699" x2="364" y2="68"/>
<line opacity="0.2" stroke="#000000" stroke-width="1" x1="454" y1="699" x2="454" y2="68"/>
<line opacity="0.2" stroke="#000000" stroke-width="1" x1="543" y1="699" x2="543" y2="68"/>
<line opacity="0.2" stroke="#000000" stroke-width="1" x1="632" y1="699" x2="632" y2="68"/>
<line opacity="0.2" stroke="#000000" stroke-width="1" x1="722" y1="699" x2="722" y2="68"/>
<line opacity="0.2" stroke="#000000" stroke-width="1" x1="811" y1="699" x2="811" y2="68"/>
<line opacity="0.2" stroke="#000000" stroke-width="1" x1="901" y1="699" x2="901" y2="68"/>
<line opacity="0.2" stroke="#000000" stroke-width="1" x1="78" y1="699" x2="973" y2="699"/>
<line opacity="0.2" stroke="#000000" stroke-width="1" x1="78" y1="635" x2="973" y2="635"/>
<line opacity="0.2" stroke="#000000" stroke-width="1" x1="78" y1="571" x2="973" y2="571"/>
<line opacity="0.2" stroke="#000000" stroke-width="1" x1="78" y1="507" x2="973" y2="507"/>
<line opacity="0.2" stroke="#000000" stroke-width="1" x1="78" y1="443" x2="973" y2="443"/>
<line opacity="0.2" stroke="#000000" stroke-width="1" x1="78" y1="379" x2="973" y2="379"/>
<line opacity="0.2" stroke="#000000" stroke-width="1" x1="78" y1="315" x2="973" y2="315"/>
<line opacity="0.2" stroke="#000000" stroke-width="1" x1="78" y1="251" x2="973" y2="251"/>
<line opacity="0.2" stroke="#000000" stroke-width="1" x1="78" y1="188" x2="973" y2="188"/>
<line opacity="0.2" stroke="#000000" stroke-width="1" x1="78" y1="124" x2="973" y2="124"/>
<polyline fill="none" opacity="1" stroke="#000000" stroke-width="1" points="77,68 77,699 "/>
<text x="68" y="699" dy="0.5ex" text-anchor="end" font-family="sans-serif" font-size="9.67741935483871" opacity="1" fill="#000000">
0 KB
</text>
<polyline fill="none" opacity="1" stroke="#000000" stroke-width="1" points="72,699 77,699 "/>
<text x="68" y="635" dy="0.5ex" text-anchor="end" font-family="sans-serif" font-size="9.67741935483871" opacity="1" fill="#000000">
48 KB
</text>
<polyline fill="none" opacity="1" stroke="#000000" stroke-width="1" points="72,635 77,635 "/>
<text x="68" y="571" dy="0.5ex" text-anchor="end" font-family="sans-serif" font-size="9.67741935483871" opacity="1" fill="#000000">
97 KB
</text>
<polyline fill="none" opacity="1" stroke="#000000" stroke-width="1" points="72,571 77,571 "/>
<text x="68" y="507" dy="0.5ex" text-anchor="end" font-family="sans-serif" font-size="9.67741935483871" opacity="1" fill="#000000">
146 KB
</text>
<polyline fill="none" opacity="1" stroke="#000000" stroke-width="1" points="72,507 77,507 "/>
<text x="68" y="443" dy="0.5ex" text-anchor="end" font-family="sans-serif" font-size="9.67741935483871" opacity="1" fill="#000000">
195 KB
</text>
<polyline fill="none" opacity="1" stroke="#000000" stroke-width="1" points="72,443 77,443 "/>
<text x="68" y="379" dy="0.5ex" text-anchor="end" font-family="sans-serif" font-size="9.67741935483871" opacity="1" fill="#000000">
244 KB
</text>
<polyline fill="none" opacity="1" stroke="#000000" stroke-width="1" points="72,379 77,379 "/>
<text x="68" y="315" dy="0.5ex" text-anchor="end" font-family="sans-serif" font-size="9.67741935483871" opacity="1" fill="#000000">
292 KB
</text>
<polyline fill="none" opacity="1" stroke="#000000" stroke-width="1" points="72,315 77,315 "/>
<text x="68" y="251" dy="0.5ex" text-anchor="end" font-family="sans-serif" font-size="9.67741935483871" opacity="1" fill="#000000">
341 KB
</text>
<polyline fill="none" opacity="1" stroke="#000000" stroke-width="1" points="72,251 77,251 "/>
<text x="68" y="188" dy="0.5ex" text-anchor="end" font-family="sans-serif" font-size="9.67741935483871" opacity="1" fill="#000000">
390 KB
</text>
<polyline fill="none" opacity="1" stroke="#000000" stroke-width="1" points="72,188 77,188 "/>
<text x="68" y="124" dy="0.5ex" text-anchor="end" font-family="sans-serif" font-size="9.67741935483871" opacity="1" fill="#000000">
439 KB
</text>
<polyline fill="none" opacity="1" stroke="#000000" stroke-width="1" points="72,124 77,124 "/>
<polyline fill="none" opacity="1" stroke="#000000" stroke-width="1" points="78,700 973,700 "/>
<text x="96" y="710" dy="0.76em" text-anchor="middle" font-family="sans-serif" font-size="9.67741935483871" opacity="1" fill="#000000">
02:04:17
</text>
<polyline fill="none" opacity="1" stroke="#000000" stroke-width="1" points="96,700 96,705 "/>
<text x="185" y="710" dy="0.76em" text-anchor="middle" font-family="sans-serif" font-size="9.67741935483871" opacity="1" fill="#000000">
02:04:18
</text>
<polyline fill="none" opacity="1" stroke="#000000" stroke-width="1" points="185,700 185,705 "/>
<text x="275" y="710" dy="0.76em" text-anchor="middle" font-family="sans-serif" font-size="9.67741935483871" opacity="1" fill="#000000">
02:04:19
</text>
<polyline fill="none" opacity="1" stroke="#000000" stroke-width="1" points="275,700 275,705 "/>
<text x="364" y="710" dy="0.76em" text-anchor="middle" font-family="sans-serif" font-size="9.67741935483871" opacity="1" fill="#000000">
02:04:20
</text>
<polyline fill="none" opacity="1" stroke="#000000" stroke-width="1" points="364,700 364,705 "/>
<text x="454" y="710" dy="0.76em" text-anchor="middle" font-family="sans-serif" font-size="9.67741935483871" opacity="1" fill="#000000">
02:04:21
</text>
<polyline fill="none" opacity="1" stroke="#000000" stroke-width="1" points="454,700 454,705 "/>
<text x="543" y="710" dy="0.76em" text-anchor="middle" font-family="sans-serif" font-size="9.67741935483871" opacity="1" fill="#000000">
02:04:22
</text>
<polyline fill="none" opacity="1" stroke="#000000" stroke-width="1" points="543,700 543,705 "/>
<text x="632" y="710" dy="0.76em" text-anchor="middle" font-family="sans-serif" font-size="9.67741935483871" opacity="1" fill="#000000">
02:04:23
</text>
<polyline fill="none" opacity="1" stroke="#000000" stroke-width="1" points="632,700 632,705 "/>
<text x="722" y="710" dy="0.76em" text-anchor="middle" font-family="sans-serif" font-size="9.67741935483871" opacity="1" fill="#000000">
02:04:24
</text>
<polyline fill="none" opacity="1" stroke="#000000" stroke-width="1" points="722,700 722,705 "/>
<text x="811" y="710" dy="0.76em" text-anchor="middle" font-family="sans-serif" font-size="9.67741935483871" opacity="1" fill="#000000">
02:04:25
</text>
<polyline fill="none" opacity="1" stroke="#000000" stroke-width="1" points="811,700 811,705 "/>
<text x="901" y="710" dy="0.76em" text-anchor="middle" font-family="sans-serif" font-size="9.67741935483871" opacity="1" fill="#000000">
02:04:26
</text>
<polyline fill="none" opacity="1" stroke="#000000" stroke-width="1" points="901,700 901,705 "/>
<polyline fill="none" opacity="1" stroke="#000000" stroke-width="1" points="78,67 974,67 "/>
<text x="96" y="58" dy="-0.5ex" text-anchor="middle" font-family="sans-serif" font-size="9.67741935483871" opacity="1" fill="#000000">
+265ms
</text>
<polyline fill="none" opacity="1" stroke="#000000" stroke-width="1" points="96,62 96,67 "/>
<text x="185" y="58" dy="-0.5ex" text-anchor="middle" font-family="sans-serif" font-size="9.67741935483871" opacity="1" fill="#000000">
+1s
</text>
<polyline fill="none" opacity="1" stroke="#000000" stroke-width="1" points="185,62 185,67 "/>
<text x="275" y="58" dy="-0.5ex" text-anchor="middle" font-family="sans-serif" font-size="9.67741935483871" opacity="1" fill="#000000">
+2s
</text>
<polyline fill="none" opacity="1" stroke="#000000" stroke-width="1" points="275,62 275,67 "/>
<text x="364" y="58" dy="-0.5ex" text-anchor="middle" font-family="sans-serif" font-size="9.67741935483871" opacity="1" fill="#000000">
+3s
</text>
<polyline fill="none" opacity="1" stroke="#000000" stroke-width="1" points="364,62 364,67 "/>
<text x="454" y="58" dy="-0.5ex" text-anchor="middle" font-family="sans-serif" font-size="9.67741935483871" opacity="1" fill="#000000">
+4s
</text>
<polyline fill="none" opacity="1" stroke="#000000" stroke-width="1" points="454,62 454,67 "/>
<text x="544" y="58" dy="-0.5ex" text-anchor="middle" font-family="sans-serif" font-size="9.67741935483871" opacity="1" fill="#000000">
+5s
</text>
<polyline fill="none" opacity="1" stroke="#000000" stroke-width="1" points="544,62 544,67 "/>
<text x="633" y="58" dy="-0.5ex" text-anchor="middle" font-family="sans-serif" font-size="9.67741935483871" opacity="1" fill="#000000">
+6s
</text>
<polyline fill="none" opacity="1" stroke="#000000" stroke-width="1" points="633,62 633,67 "/>
<text x="723" y="58" dy="-0.5ex" text-anchor="middle" font-family="sans-serif" font-size="9.67741935483871" opacity="1" fill="#000000">
+7s
</text>
<polyline fill="none" opacity="1" stroke="#000000" stroke-width="1" points="723,62 723,67 "/>
<text x="812" y="58" dy="-0.5ex" text-anchor="middle" font-family="sans-serif" font-size="9.67741935483871" opacity="1" fill="#000000">
+8s
</text>
<polyline fill="none" opacity="1" stroke="#000000" stroke-width="1" points="812,62 812,67 "/>
<text x="902" y="58" dy="-0.5ex" text-anchor="middle" font-family="sans-serif" font-size="9.67741935483871" opacity="1" fill="#000000">
+9s
</text>
<polyline fill="none" opacity="1" stroke="#000000" stroke-width="1" points="902,62 902,67 "/>
<rect x="83" y="73" width="83" height="30" opacity="0.75" fill="#FFFFFF" stroke="none"/>
<rect x="83" y="73" width="83" height="30" opacity="1" fill="none" stroke="#000000"/>
<text x="123" y="83" dy="0.76em" text-anchor="start" font-family="sans-serif" font-size="9.67741935483871" opacity="1" fill="#000000">
Leaked
</text>
<rect x="93" y="83" width="10" height="10" opacity="1" fill="#E6194B" stroke="none"/>
</svg>
