<svg width="1024" height="768" viewBox="0 0 1024 768" xmlns="http://www.w3.org/2000/svg">
<rect x="0" y="0" width="1024" height="768" opacity="1" fill="#FFFFFF" stroke="none"/>
<polygon opacity="1" fill="#FFE119" points="83,698 84,697 85,697 86,696 87,696 88,694 88,694 89,693 90,692 91,692 92,692 93,692 94,691 95,689 96,688 96,687 97,686 98,685 99,685 100,685 101,685 102,684 103,683 104,682 104,682 105,682 106,682 107,682 108,680 109,680 110,679 111,679 112,678 112,678 113,678 114,677 115,676 116,676 117,676 118,675 119,673 120,673 120,673 121,673 122,673 123,673 124,673 125,672 126,672 127,672 128,672 128,671 129,671 130,670 131,670 132,670 133,670 134,669 135,668 136,668 136,668 137,668 138,667 139,666 140,666 141,666 142,666 143,665 144,665 144,664 145,664 146,664 147,664 148,662 149,661 150,661 151,660 152,660 152,659 153,659 154,659 155,659 156,658 157,658 158,658 159,657 160,657 160,656 161,655 162,655 163,655 164,654 165,654 166,654 167,653 168,653 168,653 169,652 170,652 171,652 172,651 173,650 174,649 175,648 176,647 176,645 177,645 178,644 179,644 180,644 181,643 182,643 183,642 184,641 184,641 185,640 186,640 187,639 188,638 189,637 190,636 191,636 192,635 192,635 193,635 194,634 195,634 196,633 197,632 198,632 199,631 199,629 200,628 201,628 202,628 203,627 204,627 205,626 206,625 207,625 207,625 208,625 209,622 210,622 211,622 212,621 213,620 214,620 215,620 215,619 216,618 217,618 218,618 219,617 220,617 221,615 222,615 223,614 223,612 224,611 225,611 226,610 227,610 228,610 229,610 230,610 231,609 231,609 232,608 233,607 234,607 235,606 236,605 237,605 238,605 239,604 239,603 240,602 241,601 242,601 243,601 244,600 245,599 246,598 247,598 247,598 248,596 249,596 250,594 251,594 252,593 253,593 254,592 255,592 255,591 256,589 257,589 258,589 259,588 260,588 261,588 262,587 263,587 263,584 264,583 265,583 266,582 267,582 268,582 269,581 270,581 271,580 271,579 272,577 273,576 274,576 275,575 276,574 277,574 278,573 279,572 279,572 280,571 281,571 282,570 283,570 284,569 285,569 286,568 287,567 287,567 288,566 289,566 290,565 291,565 292,565 293,563 294,562 295,562 295,561 296,561 297,561 298,560 299,560 300,560 301,559 302,558 303,558 303,558 304,558 305,557 306,557 307,556 308,556 309,556 310,556 311,555 311,554 312,553 313,553 314,553 315,553 316,552 317,552 318,551 319,551 319,551 320,550 321,550 322,549 323,549 324,548 325,547 326,546 326,546 327,543 328,542 329,542 330,541 331,541 332,541 333,540 334,539 334,539 335,538 336,537 337,537 338,536 339,536 340,536 341,535 342,535 342,534 343,534 344,534 345,533 346,533 347,532 348,532 349,531 350,531 350,531 351,531 352,530 353,530 354,529 355,528 356,528 357,528 358,528 358,526 359,525 360,524 361,523 362,523 363,523 364,521 365,520 366,520 366,519 367,518 368,517 369,516 370,516 371,515 372,515 373,515 374,514 374,513 375,511 376,511 377,510 378,509 379,508 380,508 381,507 382,506 382,506 383,506 384,505 385,503 386,503 387,502 388,501 389,500 390,499 390,498 391,498 392,498 393,497 394,497 395,497 396,497 397,496 398,495 398,494 399,493 400,493 401,493 402,493 403,491 404,491 405,491 406,491 406,490 407,489 408,487 409,486 410,486 411,485 412,485 413,484 414,484 414,483 415,483 416,483 417,483 418,482 419,482 420,481 421,480 422,480 422,478 423,478 424,476 425,476 426,475 427,474 428,474 429,473 430,472 430,471 431,471 432,470 433,469 434,468 435,466 436,466 437,465 438,464 438,463 439,461 440,461 441,460 442,458 443,457 444,456 445,455 446,454 446,453 447,453 448,452 449,452 450,451 451,450 452,449 453,448 454,447 454,446 455,445 456,445 457,444 458,444 459,442 460,440 461,440 461,439 462,438 463,438 464,438 465,438 466,436 467,436 468,435 469,435 469,435 470,434 471,432 472,432 473,431 474,430 475,429 476,428 477,428 477,428 478,427 479,426 480,426 481,425 482,424 483,424 484,423 485,420 485,419 486,419 487,418 488,417 489,417 490,416 491,415 492,415 493,414 493,414 494,414 495,414 496,414 497,413 498,413 499,411 500,411 501,410 501,410 502,410 503,409 504,409 505,408 506,407 507,405 508,405 509,404 509,403 510,402 511,401 512,400 513,398 514,397 515,397 516,396 517,396 517,394 518,394 519,393 520,392 521,391 522,390 523,389 524,389 525,389 525,388 526,387 527,387 528,387 529,387 530,387 531,386 532,385 533,384 533,382 534,381 535,379 536,378 537,378 538,377 539,376 540,375 541,374 541,374 542,374 543,373 544,373 545,372 546,372 547,372 548,371 549,371 549,371 550,370 551,370 552,369 553,367 554,367 555,366 556,365 557,365 557,363 558,363 559,363 560,362 561,361 562,361 563,360 564,360 565,360 565,360 566,359 567,359 568,359 569,358 570,357 571,357 572,357 573,357 573,356 574,355 575,354 576,354 577,353 578,352 579,351 580,351 581,350 581,350 582,349 583,349 584,348 585,347 586,346 587,346 588,346 588,345 589,344 590,342 591,342 592,341 593,341 594,341 595,340 596,340 596,338 597,338 598,337 599,336 600,335 601,335 602,334 603,334 604,332 604,332 605,332 606,332 607,331 608,330 609,330 610,328 611,327 612,326 612,326 613,325 614,325 615,324 616,324 617,324 618,323 619,322 620,321 620,320 621,320 622,320 623,319 624,319 625,319 626,319 627,318 628,318 628,317 629,316 630,315 631,314 632,314 633,314 634,313 635,313 636,313 636,313 637,313 638,312 639,311 640,310 641,310 642,309 643,308 644,307 644,307 645,306 646,306 647,305 648,305 649,305 650,305 651,305 652,304 652,304 653,303 654,302 655,301 656,301 657,301 658,301 659,300 660,300 660,300 661,299 662,299 663,299 664,298 665,298 666,297 667,297 668,296 668,296 669,296 670,296 671,296 672,294 673,294 674,294 675,293 676,292 676,292 677,291 678,291 679,290 680,290 681,288 682,287 683,287 684,287 684,287 685,286 686,284 687,283 688,283 689,283 690,282 691,281 692,280 692,279 693,278 694,278 695,278 696,277 697,277 698,276 699,276 700,275 700,275 701,274 702,273 703,272 704,272 705,272 706,272 707,271 708,270 708,270 709,269 710,268 711,268 712,268 713,267 714,267 715,267 715,267 716,267 717,266 718,265 719,265 720,264 721,264 722,264 723,263 723,262 724,262 725,261 726,261 727,260 728,260 729,260 730,259 731,259 731,258 732,258 733,257 734,257 735,256 736,256 737,256 738,256 739,255 739,254 740,254 741,253 742,253 743,252 744,251 745,251 746,250 747,250 747,249 748,249 749,249 750,248 751,248 752,247 753,247 754,246 755,245 755,244 756,243 757,243 758,242 759,241 760,241 761,241 762,240 763,240 763,239 764,237 765,237 766,236 767,236 768,235 769,233 770,233 771,232 771,231 772,230 773,230 774,229 775,227 776,226 777,225 778,225 779,224 779,223 780,222 781,221 782,220 783,220 784,219 785,218 786,217 787,216 787,216 788,215 789,215 790,214 791,213 792,213 793,213 794,211 795,211 795,211 796,210 797,209 798,209 799,209 800,209 801,208 802,207 803,207 803,206 804,206 805,205 806,204 807,204 808,203 809,202 810,201 811,201 811,200 812,199 813,199 814,198 815,196 816,194 817,192 818,191 819,190 819,190 820,189 821,189 822,189 823,188 824,187 825,187 826,186 827,184 827,184 828,183 829,181 830,181 831,180 832,179 833,179 834,178 835,178 835,177 836,176 837,176 838,175 839,175 840,174 841,172 842,172 842,172 843,171 844,171 845,171 846,171 847,170 848,170 849,168 850,168 850,168 851,168 852,167 853,166 854,165 855,164 856,163 857,163 858,162 858,161 859,161 860,160 861,159 862,158 863,157 864,156 865,155 866,153 866,152 867,150 868,149 869,149 870,149 871,149 872,147 873,147 874,146 874,146 875,145 876,144 877,143 878,143 879,143 880,142 881,142 882,141 882,141 883,140 884,139 885,139 886,138 887,138 888,138 889,137 890,137 890,136 891,136 892,135 893,133 894,133 895,133 896,132 897,132 898,131 898,131 899,130 900,130 901,129 902,129 903,129 904,128 905,128 906,128 906,128 907,128 908,126 909,125 910,125 911,124 912,122 913,122 914,121 914,120 915,120 916,119 917,118 918,118 919,117 920,116 921,116 922,115 922,115 923,115 924,114 925,114 926,114 927,113 928,111 929,111 930,111 930,110 931,110 932,110 933,108 934,108 935,108 936,108 937,106 938,106 938,105 939,103 940,102 941,102 942,101 943,100 944,99 945,99 946,99 946,98 947,98 948,96 949,96 950,95 951,94 952,93 953,93 954,92 954,92 955,91 956,91 957,89 958,88 959,86 960,84 961,83 962,81 962,78 963,77 963,77 964,76 965,74 966,74 967,73 968,72 969,71 969,69 970,68 971,68 971,68 973,68 973,699 83,699 "/>
<polyline fill="none" opacity="1" stroke="#FFE119" stroke-width="1" points="83,698 84,697 85,697 86,696 87,696 88,694 88,694 89,693 90,692 91,692 92,692 93,692 94,691 95,689 96,688 96,687 97,686 98,685 99,685 100,685 101,685 102,684 103,683 104,682 104,682 105,682 106,682 107,682 108,680 109,680 110,679 111,679 112,678 112,678 113,678 114,677 115,676 116,676 117,676 118,675 119,673 120,673 120,673 121,673 122,673 123,673 124,673 125,672 126,672 127,672 128,672 128,671 129,671 130,670 131,670 132,670 133,670 134,669 135,668 136,668 136,668 137,668 138,667 139,666 140,666 141,666 142,666 143,665 144,665 144,664 145,664 146,664 147,664 148,662 149,661 150,661 151,660 152,660 152,659 153,659 154,659 155,659 156,658 157,658 158,658 159,657 160,657 160,656 161,655 162,655 163,655 164,654 165,654 166,654 167,653 168,653 168,653 169,652 170,652 171,652 172,651 173,650 174,649 175,648 176,647 176,645 177,645 178,644 179,644 180,644 181,643 182,643 183,642 184,641 184,641 185,640 186,640 187,639 188,638 189,637 190,636 191,636 192,635 192,635 193,635 194,634 195,634 196,633 197,632 198,632 199,631 199,629 200,628 201,628 202,628 203,627 204,627 205,626 206,625 207,625 207,625 208,625 209,622 210,622 211,622 212,621 213,620 214,620 215,620 215,619 216,618 217,618 218,618 219,617 220,617 221,615 222,615 223,614 223,612 224,611 225,611 226,610 227,610 228,610 229,610 230,610 231,609 231,609 232,608 233,607 234,607 235,606 236,605 237,605 238,605 239,604 239,603 240,602 241,601 242,601 243,601 244,600 245,599 246,598 247,598 247,598 248,596 249,596 250,594 251,594 252,593 253,593 254,592 255,592 255,591 256,589 257,589 258,589 259,588 260,588 261,588 262,587 263,587 263,584 264,583 265,583 266,582 267,582 268,582 269,581 270,581 271,580 271,579 272,577 273,576 274,576 275,575 276,574 277,574 278,573 279,572 279,572 280,571 281,571 282,570 283,570 284,569 285,569 286,568 287,567 287,567 288,566 289,566 290,565 291,565 292,565 293,563 294,562 295,562 295,561 296,561 297,561 298,560 299,560 300,560 301,559 302,558 303,558 303,558 304,558 305,557 306,557 307,556 308,556 309,556 310,556 311,555 311,554 312,553 313,553 314,553 315,553 316,552 317,552 318,551 319,551 319,551 320,550 321,550 322,549 323,549 324,548 325,547 326,546 326,546 327,543 328,542 329,542 330,541 331,541 332,541 333,540 334,539 334,539 335,538 336,537 337,537 338,536 339,536 340,536 341,535 342,535 342,534 343,534 344,534 345,533 346,533 347,532 348,532 349,531 350,531 350,531 351,531 352,530 353,530 354,529 355,528 356,528 357,528 358,528 358,526 359,525 360,524 361,523 362,523 363,523 364,521 365,520 366,520 366,519 367,518 368,517 369,516 370,516 371,515 372,515 373,515 374,514 374,513 375,511 376,511 377,510 378,509 379,508 380,508 381,507 382,506 382,506 383,506 384,505 385,503 386,503 387,502 388,501 389,500 390,499 390,498 391,498 392,498 393,497 394,497 395,497 396,497 397,496 398,495 398,494 399,493 400,493 401,493 402,493 403,491 404,491 405,491 406,491 406,490 407,489 408,487 409,486 410,486 411,485 412,485 413,484 414,484 414,483 415,483 416,483 417,483 418,482 419,482 420,481 421,480 422,480 422,478 423,478 424,476 425,476 426,475 427,474 428,474 429,473 430,472 430,471 431,471 432,470 433,469 434,468 435,466 436,466 437,465 438,464 438,463 439,461 440,461 441,460 442,458 443,457 444,456 445,455 446,454 446,453 447,453 448,452 449,452 450,451 451,450 452,449 453,448 454,447 454,446 455,445 456,445 457,444 458,444 459,442 460,440 461,440 461,439 462,438 463,438 464,438 465,438 466,436 467,436 468,435 469,435 469,435 470,434 471,432 472,432 473,431 474,430 475,429 476,428 477,428 477,428 478,427 479,426 480,426 481,425 482,424 483,424 484,423 485,420 485,419 486,419 487,418 488,417 489,417 490,416 491,415 492,415 493,414 493,414 494,414 495,414 496,414 497,413 498,413 499,411 500,411 501,410 501,410 502,410 503,409 504,409 505,408 506,407 507,405 508,405 509,404 509,403 510,402 511,401 512,400 513,398 514,397 515,397 516,396 517,396 517,394 518,394 519,393 520,392 521,391 522,390 523,389 524,389 525,389 525,388 526,387 527,387 528,387 529,387 530,387 531,386 532,385 533,384 533,382 534,381 535,379 536,378 537,378 538,377 539,376 540,375 541,374 541,374 542,374 543,373 544,373 545,372 546,372 547,372 548,371 549,371 549,371 550,370 551,370 552,369 553,367 554,367 555,366 556,365 557,365 557,363 558,363 559,363 560,362 561,361 562,361 563,360 564,360 565,360 565,360 566,359 567,359 568,359 569,358 570,357 571,357 572,357 573,357 573,356 574,355 575,354 576,354 577,353 578,352 579,351 580,351 581,350 581,350 582,349 583,349 584,348 585,347 586,346 587,346 588,346 588,345 589,344 590,342 591,342 592,341 593,341 594,341 595,340 596,340 596,338 597,338 598,337 599,336 600,335 601,335 602,334 603,334 604,332 604,332 605,332 606,332 607,331 608,330 609,330 610,328 611,327 612,326 612,326 613,325 614,325 615,324 616,324 617,324 618,323 619,322 620,321 620,320 621,320 622,320 623,319 624,319 625,319 626,319 627,318 628,318 628,317 629,316 630,315 631,314 632,314 633,314 634,313 635,313 636,313 636,313 637,313 638,312 639,311 640,310 641,310 642,309 643,308 644,307 644,307 645,306 646,306 647,305 648,305 649,305 650,305 651,305 652,304 652,304 653,303 654,302 655,301 656,301 657,301 658,301 659,300 660,300 660,300 661,299 662,299 663,299 664,298 665,298 666,297 667,297 668,296 668,296 669,296 670,296 671,296 672,294 673,294 674,294 675,293 676,292 676,292 677,291 678,291 679,290 680,290 681,288 682,287 683,287 684,287 684,287 685,286 686,284 687,283 688,283 689,283 690,282 691,281 692,280 692,279 693,278 694,278 695,278 696,277 697,277 698,276 699,276 700,275 700,275 701,274 702,273 703,272 704,272 705,272 706,272 707,271 708,270 708,270 709,269 710,268 711,268 712,268 713,267 714,267 715,267 715,267 716,267 717,266 718,265 719,265 720,264 721,264 722,264 723,263 723,262 724,262 725,261 726,261 727,260 728,260 729,260 730,259 731,259 731,258 732,258 733,257 734,257 735,256 736,256 737,256 738,256 739,255 739,254 740,254 741,253 742,253 743,252 744,251 745,251 746,250 747,250 747,249 748,249 749,249 750,248 751,248 752,247 753,247 754,246 755,245 755,244 756,243 757,243 758,242 759,241 760,241 761,241 762,240 763,240 763,239 764,237 765,237 766,236 767,236 768,235 769,233 770,233 771,232 771,231 772,230 773,230 774,229 775,227 776,226 777,225 778,225 779,224 779,223 780,222 781,221 782,220 783,220 784,219 785,218 786,217 787,216 787,216 788,215 789,215 790,214 791,213 792,213 793,213 794,211 795,211 795,211 796,210 797,209 798,209 799,209 800,209 801,208 802,207 803,207 803,206 804,206 805,205 806,204 807,204 808,203 809,202 810,201 811,201 811,200 812,199 813,199 814,198 815,196 816,194 817,192 818,191 819,190 819,190 820,189 821,189 822,189 823,188 824,187 825,187 826,186 827,184 827,184 828,183 829,181 830,181 831,180 832,179 833,179 834,178 835,178 835,177 836,176 837,176 838,175 839,175 840,174 841,172 842,172 842,172 843,171 844,171 845,171 846,171 847,170 848,170 849,168 850,168 850,168 851,168 852,167 853,166 854,165 855,164 856,163 857,163 858,162 858,161 859,161 860,160 861,159 862,158 863,157 864,156 865,155 866,153 866,152 867,150 868,149 869,149 870,149 871,149 872,147 873,147 874,146 874,146 875,145 876,144 877,143 878,143 879,143 880,142 881,142 882,141 882,141 883,140 884,139 885,139 886,138 887,138 888,138 889,137 890,137 890,136 891,136 892,135 893,133 894,133 895,133 896,132 897,132 898,131 898,131 899,130 900,130 901,129 902,129 903,129 904,128 905,128 906,128 906,128 907,128 908,126 909,125 910,125 911,124 912,122 913,122 914,121 914,120 915,120 916,119 917,118 918,118 919,117 920,116 921,116 922,115 922,115 923,115 924,114 925,114 926,114 927,113 928,111 929,111 930,111 930,110 931,110 932,110 933,108 934,108 935,108 936,108 937,106 938,106 938,105 939,103 940,102 941,102 942,101 943,100 944,99 945,99 946,99 946,98 947,98 948,96 949,96 950,95 951,94 952,93 953,93 954,92 954,92 955,91 956,91 957,89 958,88 959,86 960,84 961,83 962,81 962,78 963,77 963,77 964,76 965,74 966,74 967,73 968,72 969,71 969,69 970,68 971,68 971,68 973,68 "/>
<polygon opacity="1" fill="#3CB44B" points="83,698 84,697 85,697 86,696 87,696 88,695 88,694 89,693 90,692 91,692 92,692 93,692 94,691 95,689 96,688 96,687 97,686 98,686 99,685 100,685 101,685 102,684 103,683 104,683 104,683 105,682 106,682 107,682 108,681 109,681 110,680 111,679 112,679 112,679 113,678 114,677 115,677 116,676 117,676 118,676 119,674 120,674 120,674 121,674 122,674 123,674 124,673 125,673 126,673 127,673 128,672 128,672 129,672 130,671 131,671 132,671 133,671 134,669 135,669 136,669 136,669 137,669 138,668 139,668 140,668 141,667 142,667 143,666 144,666 144,666 145,665 146,665 147,665 148,664 149,662 150,662 151,662 152,662 152,661 153,661 154,660 155,660 156,660 157,660 158,659 159,659 160,659 160,657 161,657 162,657 163,657 164,656 165,656 166,655 167,655 168,655 168,654 169,654 170,654 171,653 172,653 173,652 174,651 175,650 176,649 176,647 177,647 178,646 179,646 180,646 181,645 182,645 183,644 184,643 184,643 185,642 186,642 187,640 188,640 189,639 190,638 191,638 192,637 192,637 193,637 194,636 195,636 196,635 197,634 198,634 199,633 199,632 200,630 201,630 202,630 203,629 204,629 205,628 206,627 207,627 207,627 208,627 209,624 210,624 211,624 212,623 213,622 214,622 215,622 215,621 216,620 217,620 218,620 219,619 220,619 221,618 222,617 223,616 223,614 224,613 225,613 226,613 227,612 228,612 229,612 230,612 231,611 231,611 232,611 233,610 234,609 235,608 236,608 237,607 238,607 239,606 239,605 240,605 241,604 242,604 243,604 244,603 245,602 246,601 247,600 247,600 248,599 249,599 250,597 251,597 252,596 253,596 254,595 255,595 255,594 256,592 257,592 258,592 259,591 260,591 261,590 262,590 263,589 263,587 264,586 265,586 266,585 267,585 268,585 269,584 270,584 271,583 271,582 272,580 273,580 274,580 275,578 276,578 277,577 278,576 279,576 279,576 280,575 281,575 282,574 283,573 284,573 285,573 286,572 287,571 287,570 288,570 289,569 290,569 291,569 292,568 293,567 294,566 295,565 295,565 296,565 297,564 298,564 299,564 300,564 301,563 302,562 303,562 303,562 304,562 305,561 306,561 307,560 308,560 309,560 310,560 311,559 311,558 312,557 313,557 314,556 315,556 316,556 317,556 318,555 319,555 319,555 320,554 321,554 322,553 323,553 324,552 325,551 326,550 326,550 327,547 328,546 329,546 330,546 331,545 332,545 333,544 334,544 334,543 335,542 336,541 337,541 338,540 339,540 340,540 341,540 342,539 342,538 343,538 344,538 345,537 346,537 347,537 348,537 349,535 350,535 350,535 351,535 352,535 353,535 354,533 355,532 356,532 357,532 358,532 358,530 359,530 360,529 361,528 362,528 363,527 364,526 365,525 366,524 366,523 367,523 368,521 369,521 370,520 371,520 372,520 373,520 374,519 374,518 375,517 376,516 377,515 378,514 379,513 380,513 381,512 382,511 382,511 383,511 384,510 385,508 386,508 387,508 388,506 389,506 390,505 390,504 391,504 392,503 393,503 394,503 395,502 396,502 397,501 398,501 398,500 399,499 400,499 401,499 402,498 403,497 404,497 405,497 406,497 406,496 407,495 408,494 409,492 410,492 411,491 412,491 413,490 414,490 414,490 415,489 416,489 417,489 418,489 419,488 420,487 421,487 422,486 422,484 423,484 424,483 425,482 426,481 427,481 428,480 429,480 430,478 430,477 431,477 432,476 433,475 434,474 435,473 436,472 437,471 438,470 438,469 439,468 440,467 441,467 442,465 443,464 444,462 445,462 446,461 446,460 447,460 448,459 449,458 450,457 451,457 452,456 453,455 454,454 454,453 455,452 456,452 457,451 458,451 459,449 460,447 461,447 461,446 462,445 463,445 464,445 465,445 466,443 467,443 468,442 469,442 469,442 470,441 471,439 472,439 473,438 474,437 475,436 476,436 477,436 477,435 478,435 479,434 480,433 481,433 482,432 483,431 484,431 485,428 485,427 486,427 487,426 488,425 489,425 490,424 491,423 492,423 493,422 493,422 494,422 495,422 496,422 497,421 498,421 499,419 500,419 501,418 501,418 502,418 503,417 504,417 505,416 506,415 507,413 508,413 509,412 509,411 510,410 511,409 512,409 513,407 514,406 515,405 516,404 517,404 517,403 518,402 519,401 520,400 521,399 522,399 523,398 524,398 525,397 525,397 526,396 527,396 528,396 529,396 530,395 531,395 532,394 533,393 533,391 534,390 535,388 536,387 537,387 538,386 539,385 540,384 541,383 541,383 542,383 543,383 544,382 545,382 546,381 547,381 548,380 549,380 549,380 550,380 551,379 552,378 553,376 554,376 555,376 556,374 557,374 557,373 558,372 559,372 560,372 561,371 562,371 563,370 564,369 565,369 565,369 566,368 567,368 568,368 569,368 570,367 571,366 572,366 573,366 573,366 574,365 575,364 576,364 577,362 578,361 579,361 580,360 581,360 581,360 582,359 583,358 584,358 585,357 586,356 587,356 588,355 588,355 589,353 590,352 591,351 592,351 593,351 594,351 595,350 596,349 596,348 597,348 598,347 599,346 600,344 601,344 602,344 603,343 604,342 604,342 605,342 606,342 607,341 608,340 609,340 610,338 611,337 612,337 612,336 613,335 614,335 615,334 616,334 617,334 618,333 619,332 620,331 620,330 621,330 622,330 623,329 624,329 625,329 626,329 627,329 628,329 628,327 629,326 630,326 631,325 632,325 633,324 634,324 635,324 636,323 636,323 637,323 638,323 639,321 640,320 641,320 642,320 643,319 644,318 644,318 645,317 646,316 647,316 648,316 649,316 650,316 651,316 652,315 652,315 653,314 654,313 655,312 656,312 657,312 658,312 659,311 660,311 660,311 661,310 662,310 663,309 664,309 665,309 666,308 667,308 668,307 668,307 669,307 670,307 671,307 672,306 673,306 674,305 675,304 676,303 676,303 677,302 678,302 679,301 680,301 681,299 682,298 683,298 684,298 684,298 685,297 686,295 687,295 688,295 689,295 690,294 691,293 692,291 692,291 693,290 694,289 695,289 696,289 697,288 698,287 699,287 700,287 700,287 701,286 702,285 703,284 704,284 705,284 706,284 707,283 708,282 708,282 709,281 710,279 711,279 712,279 713,279 714,279 715,279 715,279 716,279 717,278 718,277 719,277 720,276 721,276 722,276 723,275 723,274 724,274 725,273 726,273 727,273 728,272 729,272 730,271 731,271 731,271 732,270 733,269 734,269 735,269 736,268 737,268 738,268 739,268 739,266 740,266 741,265 742,265 743,265 744,264 745,264 746,263 747,262 747,262 748,262 749,261 750,260 751,260 752,260 753,259 754,258 755,257 755,256 756,256 757,255 758,254 759,254 760,253 761,253 762,252 763,252 763,251 764,250 765,249 766,248 767,248 768,247 769,246 770,245 771,244 771,244 772,243 773,243 774,242 775,240 776,239 777,238 778,238 779,237 779,236 780,235 781,234 782,233 783,233 784,232 785,231 786,230 787,229 787,229 788,228 789,228 790,227 791,227 792,226 793,226 794,225 795,225 795,224 796,223 797,223 798,222 799,222 800,222 801,221 802,221 803,221 803,219 804,219 805,218 806,218 807,217 808,216 809,216 810,215 811,215 811,214 812,213 813,213 814,212 815,209 816,208 817,206 818,205 819,204 819,204 820,203 821,203 822,203 823,202 824,201 825,201 826,200 827,198 827,198 828,197 829,195 830,195 831,194 832,194 833,193 834,193 835,192 835,191 836,191 837,190 838,190 839,189 840,188 841,187 842,187 842,186 843,186 844,186 845,186 846,185 847,184 848,184 849,183 850,183 850,182 851,182 852,182 853,181 854,179 855,178 856,177 857,177 858,176 858,176 859,175 860,174 861,173 862,172 863,172 864,171 865,170 866,168 866,166 867,165 868,164 869,163 870,163 871,163 872,162 873,161 874,161 874,160 875,159 876,158 877,158 878,158 879,157 880,157 881,156 882,156 882,156 883,155 884,154 885,153 886,153 887,153 888,153 889,152 890,151 890,151 891,151 892,150 893,148 894,148 895,147 896,146 897,146 898,146 898,146 899,145 900,145 901,144 902,144 903,144 904,143 905,143 906,143 906,143 907,143 908,141 909,140 910,140 911,139 912,137 913,137 914,136 914,135 915,135 916,134 917,133 918,133 919,132 920,131 921,131 922,130 922,130 923,130 924,129 925,129 926,129 927,128 928,127 929,127 930,126 930,125 931,125 932,125 933,124 934,123 935,123 936,123 937,122 938,121 938,120 939,119 940,118 941,118 942,117 943,116 944,115 945,114 946,114 946,114 947,113 948,112 949,111 950,111 951,110 952,109 953,108 954,108 954,107 955,107 956,107 957,105 958,103 959,101 960,100 961,98 962,97 962,94 963,93 963,93 964,91 965,90 966,89 967,89 968,88 969,87 969,85 970,84 971,83 971,83 973,83 973,699 83,699 "/>
<polyline fill="none" opacity="1" stroke="#3CB44B" stroke-width="1" points="83,698 84,697 85,697 86,696 87,696 88,695 88,694 89,693 90,692 91,692 92,692 93,692 94,691 95,689 96,688 96,687 97,686 98,686 99,685 100,685 101,685 102,684 103,683 104,683 104,683 105,682 106,682 107,682 108,681 109,681 110,680 111,679 112,679 112,679 113,678 114,677 115,677 116,676 117,676 118,676 119,674 120,674 120,674 121,674 122,674 123,674 124,673 125,673 126,673 127,673 128,672 128,672 129,672 130,671 131,671 132,671 133,671 134,669 135,669 136,669 136,669 137,669 138,668 139,668 140,668 141,667 142,667 143,666 144,666 144,666 145,665 146,665 147,665 148,664 149,662 150,662 151,662 152,662 152,661 153,661 154,660 155,660 156,660 157,660 158,659 159,659 160,659 160,657 161,657 162,657 163,657 164,656 165,656 166,655 167,655 168,655 168,654 169,654 170,654 171,653 172,653 173,652 174,651 175,650 176,649 176,647 177,647 178,646 179,646 180,646 181,645 182,645 183,644 184,643 184,643 185,642 186,642 187,640 188,640 189,639 190,638 191,638 192,637 192,637 193,637 194,636 195,636 196,635 197,634 198,634 199,633 199,632 200,630 201,630 202,630 203,629 204,629 205,628 206,627 207,627 207,627 208,627 209,624 210,624 211,624 212,623 213,622 214,622 215,622 215,621 216,620 217,620 218,620 219,619 220,619 221,618 222,617 223,616 223,614 224,613 225,613 226,613 227,612 228,612 229,612 230,612 231,611 231,611 232,611 233,610 234,609 235,608 236,608 237,607 238,607 239,606 239,605 240,605 241,604 242,604 243,604 244,603 245,602 246,601 247,600 247,600 248,599 249,599 250,597 251,597 252,596 253,596 254,595 255,595 255,594 256,592 257,592 258,592 259,591 260,591 261,590 262,590 263,589 263,587 264,586 265,586 266,585 267,585 268,585 269,584 270,584 271,583 271,582 272,580 273,580 274,580 275,578 276,578 277,577 278,576 279,576 279,576 280,575 281,575 282,574 283,573 284,573 285,573 286,572 287,571 287,570 288,570 289,569 290,569 291,569 292,568 293,567 294,566 295,565 295,565 296,565 297,564 298,564 299,564 300,564 301,563 302,562 303,562 303,562 304,562 305,561 306,561 307,560 308,560 309,560 310,560 311,559 311,558 312,557 313,557 314,556 315,556 316,556 317,556 318,555 319,555 319,555 320,554 321,554 322,553 323,553 324,552 325,551 326,550 326,550 327,547 328,546 329,546 330,546 331,545 332,545 333,544 334,544 334,543 335,542 336,541 337,541 338,540 339,540 340,540 341,540 342,539 342,538 343,538 344,538 345,537 346,537 347,537 348,537 349,535 350,535 350,535 351,535 352,535 353,535 354,533 355,532 356,532 357,532 358,532 358,530 359,530 360,529 361,528 362,528 363,527 364,526 365,525 366,524 366,523 367,523 368,521 369,521 370,520 371,520 372,520 373,520 374,519 374,518 375,517 376,516 377,515 378,514 379,513 380,513 381,512 382,511 382,511 383,511 384,510 385,508 386,508 387,508 388,506 389,506 390,505 390,504 391,504 392,503 393,503 394,503 395,502 396,502 397,501 398,501 398,500 399,499 400,499 401,499 402,498 403,497 404,497 405,497 406,497 406,496 407,495 408,494 409,492 410,492 411,491 412,491 413,490 414,490 414,490 415,489 416,489 417,489 418,489 419,488 420,487 421,487 422,486 422,484 423,484 424,483 425,482 426,481 427,481 428,480 429,480 430,478 430,477 431,477 432,476 433,475 434,474 435,473 436,472 437,471 438,470 438,469 439,468 440,467 441,467 442,465 443,464 444,462 445,462 446,461 446,460 447,460 448,459 449,458 450,457 451,457 452,456 453,455 454,454 454,453 455,452 456,452 457,451 458,451 459,449 460,447 461,447 461,446 462,445 463,445 464,445 465,445 466,443 467,443 468,442 469,442 469,442 470,441 471,439 472,439 473,438 474,437 475,436 476,436 477,436 477,435 478,435 479,434 480,433 481,433 482,432 483,431 484,431 485,428 485,427 486,427 487,426 488,425 489,425 490,424 491,423 492,423 493,422 493,422 494,422 495,422 496,422 497,421 498,421 499,419 500,419 501,418 501,418 502,418 503,417 504,417 505,416 506,415 507,413 508,413 509,412 509,411 510,410 511,409 512,409 513,407 514,406 515,405 516,404 517,404 517,403 518,402 519,401 520,400 521,399 522,399 523,398 524,398 525,397 525,397 526,396 527,396 528,396 529,396 530,395 531,395 532,394 533,393 533,391 534,390 535,388 536,387 537,387 538,386 539,385 540,384 541,383 541,383 542,383 543,383 544,382 545,382 546,381 547,381 548,380 549,380 549,380 550,380 551,379 552,378 553,376 554,376 555,376 556,374 557,374 557,373 558,372 559,372 560,372 561,371 562,371 563,370 564,369 565,369 565,369 566,368 567,368 568,368 569,368 570,367 571,366 572,366 573,366 573,366 574,365 575,364 576,364 577,362 578,361 579,361 580,360 581,360 581,360 582,359 583,358 584,358 585,357 586,356 587,356 588,355 588,355 589,353 590,352 591,351 592,351 593,351 594,351 595,350 596,349 596,348 597,348 598,347 599,346 600,344 601,344 602,344 603,343 604,342 604,342 605,342 606,342 607,341 608,340 609,340 610,338 611,337 612,337 612,336 613,335 614,335 615,334 616,334 617,334 618,333 619,332 620,331 620,330 621,330 622,330 623,329 624,329 625,329 626,329 627,329 628,329 628,327 629,326 630,326 631,325 632,325 633,324 634,324 635,324 636,323 636,323 637,323 638,323 639,321 640,320 641,320 642,320 643,319 644,318 644,318 645,317 646,316 647,316 648,316 649,316 650,316 651,316 652,315 652,315 653,314 654,313 655,312 656,312 657,312 658,312 659,311 660,311 660,311 661,310 662,310 663,309 664,309 665,309 666,308 667,308 668,307 668,307 669,307 670,307 671,307 672,306 673,306 674,305 675,304 676,303 676,303 677,302 678,302 679,301 680,301 681,299 682,298 683,298 684,298 684,298 685,297 686,295 687,295 688,295 689,295 690,294 691,293 692,291 692,291 693,290 694,289 695,289 696,289 697,288 698,287 699,287 700,287 700,287 701,286 702,285 703,284 704,284 705,284 706,284 707,283 708,282 708,282 709,281 710,279 711,279 712,279 713,279 714,279 715,279 715,279 716,279 717,278 718,277 719,277 720,276 721,276 722,276 723,275 723,274 724,274 725,273 726,273 727,273 728,272 729,272 730,271 731,271 731,271 732,270 733,269 734,269 735,269 736,268 737,268 738,268 739,268 739,266 740,266 741,265 742,265 743,265 744,264 745,264 746,263 747,262 747,262 748,262 749,261 750,260 751,260 752,260 753,259 754,258 755,257 755,256 756,256 757,255 758,254 759,254 760,253 761,253 762,252 763,252 763,251 764,250 765,249 766,248 767,248 768,247 769,246 770,245 771,244 771,244 772,243 773,243 774,242 775,240 776,239 777,238 778,238 779,237 779,236 780,235 781,234 782,233 783,233 784,232 785,231 786,230 787,229 787,229 788,228 789,228 790,227 791,227 792,226 793,226 794,225 795,225 795,224 796,223 797,223 798,222 799,222 800,222 801,221 802,221 803,221 803,219 804,219 805,218 806,218 807,217 808,216 809,216 810,215 811,215 811,214 812,213 813,213 814,212 815,209 816,208 817,206 818,205 819,204 819,204 820,203 821,203 822,203 823,202 824,201 825,201 826,200 827,198 827,198 828,197 829,195 830,195 831,194 832,194 833,193 834,193 835,192 835,191 836,191 837,190 838,190 839,189 840,188 841,187 842,187 842,186 843,186 844,186 845,186 846,185 847,184 848,184 849,183 850,183 850,182 851,182 852,182 853,181 854,179 855,178 856,177 857,177 858,176 858,176 859,175 860,174 861,173 862,172 863,172 864,171 865,170 866,168 866,166 867,165 868,164 869,163 870,163 871,163 872,162 873,161 874,161 874,160 875,159 876,158 877,158 878,158 879,157 880,157 881,156 882,156 882,156 883,155 884,154 885,153 886,153 887,153 888,153 889,152 890,151 890,151 891,151 892,150 893,148 894,148 895,147 896,146 897,146 898,146 898,146 899,145 900,145 901,144 902,144 903,144 904,143 905,143 906,143 906,143 907,143 908,141 909,140 910,140 911,139 912,137 913,137 914,136 914,135 915,135 916,134 917,133 918,133 919,132 920,131 921,131 922,130 922,130 923,130 924,129 925,129 926,129 927,128 928,127 929,127 930,126 930,125 931,125 932,125 933,124 934,123 935,123 936,123 937,122 938,121 938,120 939,119 940,118 941,118 942,117 943,116 944,115 945,114 946,114 946,114 947,113 948,112 949,111 950,111 951,110 952,109 953,108 954,108 954,107 955,107 956,107 957,105 958,103 959,101 960,100 961,98 962,97 962,94 963,93 963,93 964,91 965,90 966,89 967,89 968,88 969,87 969,85 970,84 971,83 971,83 973,83 "/>
<polygon opacity="1" fill="#E6194B" points="83,698 84,697 85,697 86,696 87,696 88,695 88,694 89,694 90,693 91,693 92,693 93,693 94,691 95,690 96,688 96,688 97,687 98,686 99,686 100,686 101,686 102,685 103,684 104,684 104,684 105,684 106,684 107,684 108,683 109,682 110,681 111,681 112,681 112,680 113,680 114,679 115,679 116,678 117,678 118,678 119,676 120,676 120,676 121,676 122,676 123,676 124,676 125,676 126,675 127,675 128,675 128,675 129,675 130,674 131,674 132,674 133,674 134,672 135,672 136,672 136,672 137,672 138,671 139,671 140,671 141,671 142,670 143,670 144,670 144,669 145,669 146,668 147,668 148,667 149,666 150,666 151,666 152,665 152,665 153,665 154,664 155,664 156,664 157,664 158,663 159,663 160,663 160,661 161,661 162,661 163,661 164,660 165,660 166,659 167,659 168,659 168,659 169,658 170,658 171,658 172,657 173,657 174,656 175,655 176,654 176,652 177,652 178,651 179,651 180,651 181,651 182,651 183,649 184,649 184,648 185,648 186,647 187,646 188,646 189,645 190,644 191,644 192,643 192,643 193,643 194,643 195,643 196,641 197,641 198,641 199,640 199,639 200,638 201,638 202,637 203,637 204,637 205,635 206,635 207,635 207,635 208,635 209,632 210,632 211,632 212,631 213,630 214,630 215,630 215,629 216,628 217,628 218,628 219,628 220,627 221,626 222,626 223,625 223,623 224,622 225,622 226,621 227,621 228,621 229,621 230,621 231,620 231,620 232,620 233,619 234,618 235,617 236,617 237,616 238,616 239,616 239,615 240,614 241,613 242,613 243,613 244,613 245,612 246,611 247,610 247,610 248,609 249,609 250,607 251,607 252,606 253,606 254,605 255,605 255,604 256,602 257,602 258,602 259,601 260,601 261,601 262,600 263,600 263,597 264,596 265,596 266,595 267,595 268,595 269,595 270,595 271,594 271,593 272,591 273,591 274,590 275,589 276,589 277,588 278,587 279,587 279,587 280,586 281,586 282,585 283,584 284,584 285,584 286,583 287,582 287,582 288,581 289,581 290,581 291,580 292,580 293,579 294,578 295,577 295,577 296,577 297,576 298,576 299,576 300,576 301,575 302,574 303,574 303,574 304,574 305,573 306,573 307,573 308,572 309,572 310,572 311,572 311,570 312,570 313,570 314,569 315,569 316,569 317,569 318,568 319,568 319,568 320,568 321,567 322,567 323,566 324,565 325,565 326,564 326,564 327,561 328,560 329,560 330,560 331,559 332,559 333,559 334,558 334,558 335,557 336,556 337,556 338,555 339,555 340,555 341,555 342,554 342,554 343,554 344,553 345,553 346,553 347,552 348,552 349,551 350,551 350,551 351,551 352,550 353,550 354,549 355,548 356,548 357,548 358,548 358,546 359,546 360,545 361,545 362,544 363,544 364,542 365,542 366,541 366,540 367,539 368,538 369,538 370,537 371,537 372,537 373,537 374,536 374,535 375,534 376,533 377,533 378,531 379,530 380,530 381,529 382,528 382,528 383,528 384,527 385,526 386,525 387,525 388,524 389,523 390,522 390,521 391,521 392,521 393,521 394,520 395,520 396,520 397,519 398,519 398,518 399,517 400,517 401,517 402,516 403,515 404,515 405,515 406,515 406,514 407,513 408,512 409,511 410,510 411,510 412,509 413,509 414,508 414,508 415,508 416,507 417,507 418,507 419,507 420,506 421,505 422,505 422,503 423,503 424,501 425,501 426,500 427,500 428,499 429,499 430,497 430,496 431,496 432,495 433,495 434,494 435,493 436,492 437,491 438,490 438,489 439,488 440,488 441,487 442,485 443,484 444,483 445,482 446,482 446,481 447,481 448,479 449,479 450,478 451,478 452,477 453,476 454,475 454,474 455,473 456,473 457,472 458,472 459,470 460,469 461,469 461,467 462,467 463,467 464,466 465,466 466,465 467,465 468,464 469,464 469,464 470,463 471,462 472,461 473,460 474,460 475,458 476,458 477,458 477,458 478,458 479,456 480,456 481,455 482,455 483,454 484,453 485,451 485,450 486,450 487,448 488,448 489,448 490,447 491,446 492,446 493,445 493,445 494,445 495,445 496,445 497,444 498,444 499,443 500,442 501,442 501,442 502,442 503,441 504,441 505,440 506,439 507,437 508,437 509,436 509,435 510,434 511,434 512,433 513,431 514,430 515,430 516,429 517,429 517,428 518,427 519,426 520,425 521,425 522,424 523,423 524,423 525,423 525,423 526,422 527,422 528,422 529,421 530,421 531,421 532,420 533,419 533,417 534,416 535,415 536,413 537,413 538,412 539,411 540,411 541,410 541,410 542,410 543,409 544,409 545,408 546,408 547,408 548,407 549,407 549,407 550,406 551,406 552,405 553,404 554,403 555,403 556,401 557,401 557,400 558,400 559,399 560,399 561,399 562,398 563,397 564,397 565,397 565,397 566,396 567,396 568,396 569,396 570,395 571,394 572,394 573,394 573,394 574,393 575,392 576,392 577,391 578,390 579,390 580,389 581,389 581,389 582,388 583,387 584,387 585,386 586,385 587,385 588,385 588,384 589,383 590,381 591,381 592,380 593,380 594,380 595,379 596,379 596,378 597,377 598,376 599,376 600,374 601,374 602,374 603,373 604,372 604,372 605,372 606,372 607,371 608,371 609,370 610,368 611,368 612,367 612,366 613,366 614,366 615,365 616,365 617,365 618,365 619,363 620,362 620,362 621,362 622,361 623,361 624,361 625,361 626,361 627,360 628,360 628,359 629,358 630,358 631,357 632,356 633,356 634,356 635,356 636,356 636,356 637,356 638,355 639,354 640,353 641,353 642,353 643,352 644,351 644,351 645,350 646,350 647,350 648,350 649,350 650,349 651,349 652,348 652,348 653,348 654,347 655,346 656,346 657,346 658,346 659,345 660,345 660,345 661,345 662,344 663,344 664,343 665,343 666,343 667,342 668,342 668,342 669,341 670,341 671,341 672,340 673,340 674,339 675,339 676,338 676,338 677,337 678,337 679,336 680,335 681,334 682,333 683,333 684,333 684,333 685,332 686,330 687,330 688,330 689,330 690,329 691,328 692,327 692,326 693,325 694,325 695,325 696,325 697,324 698,323 699,323 700,323 700,323 701,322 702,321 703,321 704,320 705,320 706,320 707,320 708,319 708,319 709,318 710,317 711,317 712,317 713,317 714,316 715,316 715,316 716,316 717,316 718,315 719,315 720,314 721,314 722,314 723,314 723,313 724,312 725,312 726,312 727,311 728,311 729,311 730,310 731,310 731,309 732,309 733,308 734,308 735,308 736,307 737,307 738,307 739,307 739,306 740,306 741,305 742,305 743,305 744,304 745,304 746,303 747,303 747,302 748,302 749,302 750,301 751,301 752,301 753,300 754,300 755,298 755,298 756,297 757,296 758,296 759,295 760,295 761,295 762,294 763,294 763,293 764,292 765,291 766,290 767,290 768,289 769,288 770,288 771,287 771,286 772,286 773,286 774,285 775,283 776,282 777,281 778,281 779,280 779,280 780,279 781,278 782,277 783,277 784,276 785,275 786,275 787,274 787,274 788,273 789,273 790,273 791,272 792,272 793,272 794,271 795,270 795,270 796,269 797,269 798,268 799,268 800,268 801,267 802,267 803,267 803,266 804,265 805,264 806,264 807,264 808,263 809,262 810,261 811,261 811,260 812,260 813,260 814,259 815,256 816,255 817,253 818,252 819,252 819,251 820,250 821,250 822,250 823,250 824,249 825,249 826,248 827,246 827,246 828,245 829,243 830,243 831,243 832,243 833,242 834,242 835,241 835,240 836,240 837,240 838,239 839,239 840,238 841,237 842,237 842,237 843,236 844,236 845,236 846,236 847,235 848,235 849,234 850,234 850,234 851,234 852,233 853,232 854,231 855,230 856,229 857,229 858,229 858,228 859,228 860,227 861,226 862,225 863,225 864,224 865,223 866,221 866,220 867,219 868,218 869,218 870,218 871,218 872,216 873,216 874,216 874,215 875,215 876,214 877,214 878,214 879,213 880,213 881,212 882,212 882,212 883,211 884,211 885,211 886,211 887,210 888,210 889,210 890,209 890,209 891,209 892,208 893,207 894,207 895,207 896,206 897,206 898,206 898,206 899,204 900,204 901,204 902,204 903,204 904,204 905,204 906,204 906,204 907,204 908,202 909,202 910,202 911,201 912,199 913,199 914,198 914,198 915,198 916,197 917,196 918,196 919,195 920,195 921,195 922,194 922,194 923,193 924,193 925,193 926,193 927,193 928,192 929,192 930,191 930,190 931,190 932,190 933,189 934,189 935,188 936,188 937,187 938,187 938,186 939,185 940,184 941,184 942,183 943,182 944,181 945,181 946,181 946,181 947,181 948,180 949,179 950,179 951,178 952,177 953,177 954,176 954,176 955,176 956,176 957,174 958,173 959,171 960,170 961,169 962,168 962,166 963,165 963,165 964,163 965,162 966,162 967,162 968,161 969,159 969,158 970,157 971,157 971,157 973,157 973,699 83,699 "/>
<polyline fill="none" opacity="1" stroke="#E6194B" stroke-width="1" points="83,698 84,697 85,697 86,696 87,696 88,695 88,694 89,694 90,693 91,693 92,693 93,693 94,691 95,690 96,688 96,688 97,687 98,686 99,686 100,686 101,686 102,685 103,684 104,684 104,684 105,684 106,684 107,684 108,683 109,682 110,681 111,681 112,681 112,680 113,680 114,679 115,679 116,678 117,678 118,678 119,676 120,676 120,676 121,676 122,676 123,676 124,676 125,676 126,675 127,675 128,675 128,675 129,675 130,674 131,674 132,674 133,674 134,672 135,672 136,672 136,672 137,672 138,671 139,671 140,671 141,671 142,670 143,670 144,670 144,669 145,669 146,668 147,668 148,667 149,666 150,666 151,666 152,665 152,665 153,665 154,664 155,664 156,664 157,664 158,663 159,663 160,663 160,661 161,661 162,661 163,661 164,660 165,660 166,659 167,659 168,659 168,659 169,658 170,658 171,658 172,657 173,657 174,656 175,655 176,654 176,652 177,652 178,651 179,651 180,651 181,651 182,651 183,649 184,649 184,648 185,648 186,647 187,646 188,646 189,645 190,644 191,644 192,643 192,643 193,643 194,643 195,643 196,641 197,641 198,641 199,640 199,639 200,638 201,638 202,637 203,637 204,637 205,635 206,635 207,635 207,635 208,635 209,632 210,632 211,632 212,631 213,630 214,630 215,630 215,629 216,628 217,628 218,628 219,628 220,627 221,626 222,626 223,625 223,623 224,622 225,622 226,621 227,621 228,621 229,621 230,621 231,620 231,620 232,620 233,619 234,618 235,617 236,617 237,616 238,616 239,616 239,615 240,614 241,613 242,613 243,613 244,613 245,612 246,611 247,610 247,610 248,609 249,609 250,607 251,607 252,606 253,606 254,605 255,605 255,604 256,602 257,602 258,602 259,601 260,601 261,601 262,600 263,600 263,597 264,596 265,596 266,595 267,595 268,595 269,595 270,595 271,594 271,593 272,591 273,591 274,590 275,589 276,589 277,588 278,587 279,587 279,587 280,586 281,586 282,585 283,584 284,584 285,584 286,583 287,582 287,582 288,581 289,581 290,581 291,580 292,580 293,579 294,578 295,577 295,577 296,577 297,576 298,576 299,576 300,576 301,575 302,574 303,574 303,574 304,574 305,573 306,573 307,573 308,572 309,572 310,572 311,572 311,570 312,570 313,570 314,569 315,569 316,569 317,569 318,568 319,568 319,568 320,568 321,567 322,567 323,566 324,565 325,565 326,564 326,564 327,561 328,560 329,560 330,560 331,559 332,559 333,559 334,558 334,558 335,557 336,556 337,556 338,555 339,555 340,555 341,555 342,554 342,554 343,554 344,553 345,553 346,553 347,552 348,552 349,551 350,551 350,551 351,551 352,550 353,550 354,549 355,548 356,548 357,548 358,548 358,546 359,546 360,545 361,545 362,544 363,544 364,542 365,542 366,541 366,540 367,539 368,538 369,538 370,537 371,537 372,537 373,537 374,536 374,535 375,534 376,533 377,533 378,531 379,530 380,530 381,529 382,528 382,528 383,528 384,527 385,526 386,525 387,525 388,524 389,523 390,522 390,521 391,521 392,521 393,521 394,520 395,520 396,520 397,519 398,519 398,518 399,517 400,517 401,517 402,516 403,515 404,515 405,515 406,515 406,514 407,513 408,512 409,511 410,510 411,510 412,509 413,509 414,508 414,508 415,508 416,507 417,507 418,507 419,507 420,506 421,505 422,505 422,503 423,503 424,501 425,501 426,500 427,500 428,499 429,499 430,497 430,496 431,496 432,495 433,495 434,494 435,493 436,492 437,491 438,490 438,489 439,488 440,488 441,487 442,485 443,484 444,483 445,482 446,482 446,481 447,481 448,479 449,479 450,478 451,478 452,477 453,476 454,475 454,474 455,473 456,473 457,472 458,472 459,470 460,469 461,469 461,467 462,467 463,467 464,466 465,466 466,465 467,465 468,464 469,464 469,464 470,463 471,462 472,461 473,460 474,460 475,458 476,458 477,458 477,458 478,458 479,456 480,456 481,455 482,455 483,454 484,453 485,451 485,450 486,450 487,448 488,448 489,448 490,447 491,446 492,446 493,445 493,445 494,445 495,445 496,445 497,444 498,444 499,443 500,442 501,442 501,442 502,442 503,441 504,441 505,440 506,439 507,437 508,437 509,436 509,435 510,434 511,434 512,433 513,431 514,430 515,430 516,429 517,429 517,428 518,427 519,426 520,425 521,425 522,424 523,423 524,423 525,423 525,423 526,422 527,422 528,422 529,421 530,421 531,421 532,420 533,419 533,417 534,416 535,415 536,413 537,413 538,412 539,411 540,411 541,410 541,410 542,410 543,409 544,409 545,408 546,408 547,408 548,407 549,407 549,407 550,406 551,406 552,405 553,404 554,403 555,403 556,401 557,401 557,400 558,400 559,399 560,399 561,399 562,398 563,397 564,397 565,397 565,397 566,396 567,396 568,396 569,396 570,395 571,394 572,394 573,394 573,394 574,393 575,392 576,392 577,391 578,390 579,390 580,389 581,389 581,389 582,388 583,387 584,387 585,386 586,385 587,385 588,385 588,384 589,383 590,381 591,381 592,380 593,380 594,380 595,379 596,379 596,378 597,377 598,376 599,376 600,374 601,374 602,374 603,373 604,372 604,372 605,372 606,372 607,371 608,371 609,370 610,368 611,368 612,367 612,366 613,366 614,366 615,365 616,365 617,365 618,365 619,363 620,362 620,362 621,362 622,361 623,361 624,361 625,361 626,361 627,360 628,360 628,359 629,358 630,358 631,357 632,356 633,356 634,356 635,356 636,356 636,356 637,356 638,355 639,354 640,353 641,353 642,353 643,352 644,351 644,351 645,350 646,350 647,350 648,350 649,350 650,349 651,349 652,348 652,348 653,348 654,347 655,346 656,346 657,346 658,346 659,345 660,345 660,345 661,345 662,344 663,344 664,343 665,343 666,343 667,342 668,342 668,342 669,341 670,341 671,341 672,340 673,340 674,339 675,339 676,338 676,338 677,337 678,337 679,336 680,335 681,334 682,333 683,333 684,333 684,333 685,332 686,330 687,330 688,330 689,330 690,329 691,328 692,327 692,326 693,325 694,325 695,325 696,325 697,324 698,323 699,323 700,323 700,323 701,322 702,321 703,321 704,320 705,320 706,320 707,320 708,319 708,319 709,318 710,317 711,317 712,317 713,317 714,316 715,316 715,316 716,316 717,316 718,315 719,315 720,314 721,314 722,314 723,314 723,313 724,312 725,312 726,312 727,311 728,311 729,311 730,310 731,310 731,309 732,309 733,308 734,308 735,308 736,307 737,307 738,307 739,307 739,306 740,306 741,305 742,305 743,305 744,304 745,304 746,303 747,303 747,302 748,302 749,302 750,301 751,301 752,301 753,300 754,300 755,298 755,298 756,297 757,296 758,296 759,295 760,295 761,295 762,294 763,294 763,293 764,292 765,291 766,290 767,290 768,289 769,288 770,288 771,287 771,286 772,286 773,286 774,285 775,283 776,282 777,281 778,281 779,280 779,280 780,279 781,278 782,277 783,277 784,276 785,275 786,275 787,274 787,274 788,273 789,273 790,273 791,272 792,272 793,272 794,271 795,270 795,270 796,269 797,269 798,268 799,268 800,268 801,267 802,267 803,267 803,266 804,265 805,264 806,264 807,264 808,263 809,262 810,261 811,261 811,260 812,260 813,260 814,259 815,256 816,255 817,253 818,252 819,252 819,251 820,250 821,250 822,250 823,250 824,249 825,249 826,248 827,246 827,246 828,245 829,243 830,243 831,243 832,243 833,242 834,242 835,241 835,240 836,240 837,240 838,239 839,239 840,238 841,237 842,237 842,237 843,236 844,236 845,236 846,236 847,235 848,235 849,234 850,234 850,234 851,234 852,233 853,232 854,231 855,230 856,229 857,229 858,229 858,228 859,228 860,227 861,226 862,225 863,225 864,224 865,223 866,221 866,220 867,219 868,218 869,218 870,218 871,218 872,216 873,216 874,216 874,215 875,215 876,214 877,214 878,214 879,213 880,213 881,212 882,212 882,212 883,211 884,211 885,211 886,211 887,210 888,210 889,210 890,209 890,209 891,209 892,208 893,207 894,207 895,207 896,206 897,206 898,206 898,206 899,204 900,204 901,204 902,204 903,204 904,204 905,204 906,204 906,204 907,204 908,202 909,202 910,202 911,201 912,199 913,199 914,198 914,198 915,198 916,197 917,196 918,196 919,195 920,195 921,195 922,194 922,194 923,193 924,193 925,193 926,193 927,193 928,192 929,192 930,191 930,190 931,190 932,190 933,189 934,189 935,188 936,188 937,187 938,187 938,186 939,185 940,184 941,184 942,183 943,182 944,181 945,181 946,181 946,181 947,181 948,180 949,179 950,179 951,178 952,177 953,177 954,176 954,176 955,176 956,176 957,174 958,173 959,171 960,170 961,169 962,168 962,166 963,165 963,165 964,163 965,162 966,162 967,162 968,161 969,159 969,158 970,157 971,157 971,157 973,157 "/>
<line opacity="0.1" stroke="#000000" stroke-width="1" x1="83" y1="699" x2="83" y2="68"/>
<line opacity="0.1" stroke="#000000" stroke-width="1" x1="92" y1="699" x2="92" y2="68"/>
<line opacity="0.1" stroke="#000000" stroke-width="1" x1="101" y1="699" x2="101" y2="68"/>
<line opacity="0.1" stroke="#000000" stroke-width="1" x1="110" y1="699" x2="110" y2="68"/>
<line opacity="0.1" stroke="#000000" stroke-width="1" x1="119" y1="699" x2="119" y2="68"/>
<line opacity="0.1" stroke="#000000" stroke-width="1" x1="128" y1="699" x2="128" y2="68"/>
<line opacity="0.1" stroke="#000000" stroke-width="1" x1="137" y1="699" x2="137" y2="68"/>
<line opacity="0.1" stroke="#000000" stroke-width="1" x1="146" y1="699" x2="146" y2="68"/>
<line opacity="0.1" stroke="#000000" stroke-width="1" x1="154" y1="699" x2="154" y2="68"/>
<line opacity="0.1" stroke="#000000" stroke-width="1" x1="163" y1="699" x2="163" y2="68"/>
<line opacity="0.1" stroke="#000000" stroke-width="1" x1="172" y1="699" x2="172" y2="68"/>
<line opacity="0.1" stroke="#000000" stroke-width="1" x1="181" y1="699" x2="181" y2="68"/>
<line opacity="0.1" stroke="#000000" stroke-width="1" x1="190" y1="699" x2="190" y2="68"/>
<line opacity="0.1" stroke="#000000" stroke-width="1" x1="199" y1="699" x2="199" y2="68"/>
<line opacity="0.1" stroke="#000000" stroke-width="1" x1="208" y1="699" x2="208" y2="68"/>
<line opacity="0.1" stroke="#000000" stroke-width="1" x1="217" y1="699" x2="217" y2="68"/>
<line opacity="0.1" stroke="#000000" stroke-width="1" x1="226" y1="699" x2="226" y2="68"/>
<line opacity="0.1" stroke="#000000" stroke-width="1" x1="234" y1="699" x2="234" y2="68"/>
<line opacity="0.1" stroke="#000000" stroke-width="1" x1="243" y1="699" x2="243" y2="68"/>
<line opacity="0.1" stroke="#000000" stroke-width="1" x1="252" y1="699" x2="252" y2="68"/>
<line opacity="0.1" stroke="#000000" stroke-width="1" x1="261" y1="699" x2="261" y2="68"/>
<line opacity="0.1" stroke="#000000" stroke-width="1" x1="270" y1="699" x2="270" y2="68"/>
<line opacity="0.1" stroke="#000000" stroke-width="1" x1="279" y1="699" x2="279" y2="68"/>
<line opacity="0.1" stroke="#000000" stroke-width="1" x1="288" y1="699" x2="288" y2="68"/>
<line opacity="0.1" stroke="#000000" stroke-width="1" x1="297" y1="699" x2="297" y2="68"/>
<line opacity="0.1" stroke="#000000" stroke-width="1" x1="306" y1="699" x2="306" y2="68"/>
<line opacity="0.1" stroke="#000000" stroke-width="1" x1="315" y1="699" x2="315" y2="68"/>
<line opacity="0.1" stroke="#000000" stroke-width="1" x1="323" y1="699" x2="323" y2="68"/>
<line opacity="0.1" stroke="#000000" stroke-width="1" x1="332" y1="699" x2="332" y2="68"/>
<line opacity="0.1" stroke="#000000" stroke-width="1" x1="341" y1="699" x2="341" y2="68"/>
<line opacity="0.1" stroke="#000000" stroke-width="1" x1="350" y1="699" x2="350" y2="68"/>
<line opacity="0.1" stroke="#000000" stroke-width="1" x1="359" y1="699" x2="359" y2="68"/>
<line opacity="0.1" stroke="#000000" stroke-width="1" x1="368" y1="699" x2="368" y2="68"/>
<line opacity="0.1" stroke="#000000" stroke-width="1" x1="377" y1="699" x2="377" y2="68"/>
<line opacity="0.1" stroke="#000000" stroke-width="1" x1="386" y1="699" x2="386" y2="68"/>
<line opacity="0.1" stroke="#000000" stroke-width="1" x1="395" y1="699" x2="395" y2="68"/>
<line opacity="0.1" stroke="#000000" stroke-width="1" x1="403" y1="699" x2="403" y2="68"/>
<line opacity="0.1" stroke="#000000" stroke-width="1" x1="412" y1="699" x2="412" y2="68"/>
<line opacity="0.1" stroke="#000000" stroke-width="1" x1="421" y1="699" x2="421" y2="68"/>
<line opacity="0.1" stroke="#000000" stroke-width="1" x1="430" y1="699" x2="430" y2="68"/>
<line opacity="0.1" stroke="#000000" stroke-width="1" x1="439" y1="699" x2="439" y2="68"/>
<line opacity="0.1" stroke="#000000" stroke-width="1" x1="448" y1="699" x2="448" y2="68"/>
<line opacity="0.1" stroke="#000000" stroke-width="1" x1="457" y1="699" x2="457" y2="68"/>
<line opacity="0.1" stroke="#000000" stroke-width="1" x1="466" y1="699" x2="466" y2="68"/>
<line opacity="0.1" stroke="#000000" stroke-width="1" x1="475" y1="699" x2="475" y2="68"/>
<line opacity="0.1" stroke="#000000" stroke-width="1" x1="483" y1="699" x2="483" y2="68"/>
<line opacity="0.1" stroke="#000000" stroke-width="1" x1="492" y1="699" x2="492" y2="68"/>
<line opacity="0.1" stroke="#000000" stroke-width="1" x1="501" y1="699" x2="501" y2="68"/>
<line opacity="0.1" stroke="#000000" stroke-width="1" x1="510" y1="699" x2="510" y2="68"/>
<line opacity="0.1" stroke="#000000" stroke-width="1" x1="519" y1="699" x2="519" y2="68"/>
<line opacity="0.1" stroke="#000000" stroke-width="1" x1="528" y1="699" x2="528" y2="68"/>
<line opacity="0.1" stroke="#000000" stroke-width="1" x1="537" y1="699" x2="537" y2="68"/>
<line opacity="0.1" stroke="#000000" stroke-width="1" x1="546" y1="699" x2="546" y2="68"/>
<line opacity="0.1" stroke="#000000" stroke-width="1" x1="555" y1="699" x2="555" y2="68"/>
<line opacity="0.1" stroke="#000000" stroke-width="1" x1="563" y1="699" x2="563" y2="68"/>
<line opacity="0.1" stroke="#000000" stroke-width="1" x1="572" y1="699" x2="572" y2="68"/>
<line opacity="0.1" stroke="#000000" stroke-width="1" x1="581" y1="699" x2="581" y2="68"/>
<line opacity="0.1" stroke="#000000" stroke-width="1" x1="590" y1="699" x2="590" y2="68"/>
<line opacity="0.1" stroke="#000000" stroke-width="1" x1="599" y1="699" x2="599" y2="68"/>
<line opacity="0.1" stroke="#000000" stroke-width="1" x1="608" y1="699" x2="608" y2="68"/>
<line opacity="0.1" stroke="#000000" stroke-width="1" x1="617" y1="699" x2="617" y2="68"/>
<line opacity="0.1" stroke="#000000" stroke-width="1" x1="626" y1="699" x2="626" y2="68"/>
<line opacity="0.1" stroke="#000000" stroke-width="1" x1="635" y1="699" x2="635" y2="68"/>
<line opacity="0.1" stroke="#000000" stroke-width="1" x1="644" y1="699" x2="644" y2="68"/>
<line opacity="0.1" stroke="#000000" stroke-width="1" x1="652" y1="699" x2="652" y2="68"/>
<line opacity="0.1" stroke="#000000" stroke-width="1" x1="661" y1="699" x2="661" y2="68"/>
<line opacity="0.1" stroke="#000000" stroke-width="1" x1="670" y1="699" x2="670" y2="68"/>
<line opacity="0.1" stroke="#000000" stroke-width="1" x1="679" y1="699" x2="679" y2="68"/>
<line opacity="0.1" stroke="#000000" stroke-width="1" x1="688" y1="699" x2="688" y2="68"/>
<line opacity="0.1" stroke="#000000" stroke-width="1" x1="697" y1="699" x2="697" y2="68"/>
<line opacity="0.1" stroke="#000000" stroke-width="1" x1="706" y1="699" x2="706" y2="68"/>
<line opacity="0.1" stroke="#000000" stroke-width="1" x1="715" y1="699" x2="715" y2="68"/>
<line opacity="0.1" stroke="#000000" stroke-width="1" x1="724" y1="699" x2="724" y2="68"/>
<line opacity="0.1" stroke="#000000" stroke-width="1" x1="732" y1="699" x2="732" y2="68"/>
<line opacity="0.1" stroke="#000000" stroke-width="1" x1="741" y1="699" x2="741" y2="68"/>
<line opacity="0.1" stroke="#000000" stroke-width="1" x1="750" y1="699" x2="750" y2="68"/>
<line opacity="0.1" stroke="#000000" stroke-width="1" x1="759" y1="699" x2="759" y2="68"/>
<line opacity="0.1" stroke="#000000" stroke-width="1" x1="768" y1="699" x2="768" y2="68"/>
<line opacity="0.1" stroke="#000000" stroke-width="1" x1="777" y1="699" x2="777" y2="68"/>
<line opacity="0.1" stroke="#000000" stroke-width="1" x1="786" y1="699" x2="786" y2="68"/>
<line opacity="0.1" stroke="#000000" stroke-width="1" x1="795" y1="699" x2="795" y2="68"/>
<line opacity="0.1" stroke="#000000" stroke-width="1" x1="804" y1="699" x2="804" y2="68"/>
<line opacity="0.1" stroke="#000000" stroke-width="1" x1="812" y1="699" x2="812" y2="68"/>
<line opacity="0.1" stroke="#000000" stroke-width="1" x1="821" y1="699" x2="821" y2="68"/>
<line opacity="0.1" stroke="#000000" stroke-width="1" x1="830" y1="699" x2="830" y2="68"/>
<line opacity="0.1" stroke="#000000" stroke-width="1" x1="839" y1="699" x2="839" y2="68"/>
<line opacity="0.1" stroke="#000000" stroke-width="1" x1="848" y1="699" x2="848" y2="68"/>
<line opacity="0.1" stroke="#000000" stroke-width="1" x1="857" y1="699" x2="857" y2="68"/>
<line opacity="0.1" stroke="#000000" stroke-width="1" x1="866" y1="699" x2="866" y2="68"/>
<line opacity="0.1" stroke="#000000" stroke-width="1" x1="875" y1="699" x2="875" y2="68"/>
<line opacity="0.1" stroke="#000000" stroke-width="1" x1="884" y1="699" x2="884" y2="68"/>
<line opacity="0.1" stroke="#000000" stroke-width="1" x1="892" y1="699" x2="892" y2="68"/>
<line opacity="0.1" stroke="#000000" stroke-width="1" x1="901" y1="699" x2="901" y2="68"/>
<line opacity="0.1" stroke="#000000" stroke-width="1" x1="910" y1="699" x2="910" y2="68"/>
<line opacity="0.1" stroke="#000000" stroke-width="1" x1="919" y1="699" x2="919" y2="68"/>
<line opacity="0.1" stroke="#000000" stroke-width="1" x1="928" y1="699" x2="928" y2="68"/>
<line opacity="0.1" stroke="#000000" stroke-width="1" x1="937" y1="699" x2="937" y2="68"/>
<line opacity="0.1" stroke="#000000" stroke-width="1" x1="946" y1="699" x2="946" y2="68"/>
<line opacity="0.1" stroke="#000000" stroke-width="1" x1="955" y1="699" x2="955" y2="68"/>
<line opacity="0.1" stroke="#000000" stroke-width="1" x1="964" y1="699" x2="964" y2="68"/>
<line opacity="0.1" stroke="#000000" stroke-width="1" x1="78" y1="699" x2="973" y2="699"/>
<line opacity="0.1" stroke="#000000" stroke-width="1" x1="78" y1="692" x2="973" y2="692"/>
<line opacity="0.1" stroke="#000000" stroke-width="1" x1="78" y1="686" x2="973" y2="686"/>
<line opacity="0.1" stroke="#000000" stroke-width="1" x1="78" y1="679" x2="973" y2="679"/>
<line opacity="0.1" stroke="#000000" stroke-width="1" x1="78" y1="673" x2="973" y2="673"/>
<line opacity="0.1" stroke="#000000" stroke-width="1" x1="78" y1="667" x2="973" y2="667"/>
<line opacity="0.1" stroke="#000000" stroke-width="1" x1="78" y1="660" x2="973" y2="660"/>
<line opacity="0.1" stroke="#000000" stroke-width="1" x1="78" y1="654" x2="973" y2="654"/>
<line opacity="0.1" stroke="#000000" stroke-width="1" x1="78" y1="647" x2="973" y2="647"/>
<line opacity="0.1" stroke="#000000" stroke-width="1" x1="78" y1="641" x2="973" y2="641"/>
<line opacity="0.1" stroke="#000000" stroke-width="1" x1="78" y1="635" x2="973" y2="635"/>
<line opacity="0.1" stroke="#000000" stroke-width="1" x1="78" y1="628" x2="973" y2="628"/>
<line opacity="0.1" stroke="#000000" stroke-width="1" x1="78" y1="622" x2="973" y2="622"/>
<line opacity="0.1" stroke="#000000" stroke-width="1" x1="78" y1="615" x2="973" y2="615"/>
<line opacity="0.1" stroke="#000000" stroke-width="1" x1="78" y1="609" x2="973" y2="609"/>
<line opacity="0.1" stroke="#000000" stroke-width="1" x1="78" y1="603" x2="973" y2="603"/>
<line opacity="0.1" stroke="#000000" stroke-width="1" x1="78" y1="596" x2="973" y2="596"/>
<line opacity="0.1" stroke="#000000" stroke-width="1" x1="78" y1="590" x2="973" y2="590"/>
<line opacity="0.1" stroke="#000000" stroke-width="1" x1="78" y1="584" x2="973" y2="584"/>
<line opacity="0.1" stroke="#000000" stroke-width="1" x1="78" y1="577" x2="973" y2="577"/>
<line opacity="0.1" stroke="#000000" stroke-width="1" x1="78" y1="571" x2="973" y2="571"/>
<line opacity="0.1" stroke="#000000" stroke-width="1" x1="78" y1="564" x2="973" y2="564"/>
<line opacity="0.1" stroke="#000000" stroke-width="1" x1="78" y1="558" x2="973" y2="558"/>
<line opacity="0.1" stroke="#000000" stroke-width="1" x1="78" y1="552" x2="973" y2="552"/>
<line opacity="0.1" stroke="#000000" stroke-width="1" x1="78" y1="545" x2="973" y2="545"/>
<line opacity="0.1" stroke="#000000" stroke-width="1" x1="78" y1="539" x2="973" y2="539"/>
<line opacity="0.1" stroke="#000000" stroke-width="1" x1="78" y1="532" x2="973" y2="532"/>
<line opacity="0.1" stroke="#000000" stroke-width="1" x1="78" y1="526" x2="973" y2="526"/>
<line opacity="0.1" stroke="#000000" stroke-width="1" x1="78" y1="520" x2="973" y2="520"/>
<line opacity="0.1" stroke="#000000" stroke-width="1" x1="78" y1="513" x2="973" y2="513"/>
<line opacity="0.1" stroke="#000000" stroke-width="1" x1="78" y1="507" x2="973" y2="507"/>
<line opacity="0.1" stroke="#000000" stroke-width="1" x1="78" y1="500" x2="973" y2="500"/>
<line opacity="0.1" stroke="#000000" stroke-width="1" x1="78" y1="494" x2="973" y2="494"/>
<line opacity="0.1" stroke="#000000" stroke-width="1" x1="78" y1="488" x2="973" y2="488"/>
<line opacity="0.1" stroke="#000000" stroke-width="1" x1="78" y1="481" x2="973" y2="481"/>
<line opacity="0.1" stroke="#000000" stroke-width="1" x1="78" y1="475" x2="973" y2="475"/>
<line opacity="0.1" stroke="#000000" stroke-width="1" x1="78" y1="469" x2="973" y2="469"/>
<line opacity="0.1" stroke="#000000" stroke-width="1" x1="78" y1="462" x2="973" y2="462"/>
<line opacity="0.1" stroke="#000000" stroke-width="1" x1="78" y1="456" x2="973" y2="456"/>
<line opacity="0.1" stroke="#000000" stroke-width="1" x1="78" y1="449" x2="973" y2="449"/>
<line opacity="0.1" stroke="#000000" stroke-width="1" x1="78" y1="443" x2="973" y2="443"/>
<line opacity="0.1" stroke="#000000" stroke-width="1" x1="78" y1="437" x2="973" y2="437"/>
<line opacity="0.1" stroke="#000000" stroke-width="1" x1="78" y1="430" x2="973" y2="430"/>
<line opacity="0.1" stroke="#000000" stroke-width="1" x1="78" y1="424" x2="973" y2="424"/>
<line opacity="0.1" stroke="#000000" stroke-width="1" x1="78" y1="417" x2="973" y2="417"/>
<line opacity="0.1" stroke="#000000" stroke-width="1" x1="78" y1="411" x2="973" y2="411"/>
<line opacity="0.1" stroke="#000000" stroke-width="1" x1="78" y1="405" x2="973" y2="405"/>
<line opacity="0.1" stroke="#000000" stroke-width="1" x1="78" y1="398" x2="973" y2="398"/>
<line opacity="0.1" stroke="#000000" stroke-width="1" x1="78" y1="392" x2="973" y2="392"/>
<line opacity="0.1" stroke="#000000" stroke-width="1" x1="78" y1="386" x2="973" y2="386"/>
<line opacity="0.1" stroke="#000000" stroke-width="1" x1="78" y1="379" x2="973" y2="379"/>
<line opacity="0.1" stroke="#000000" stroke-width="1" x1="78" y1="373" x2="973" y2="373"/>
<line opacity="0.1" stroke="#000000" stroke-width="1" x1="78" y1="366" x2="973" y2="366"/>
<line opacity="0.1" stroke="#000000" stroke-width="1" x1="78" y1="360" x2="973" y2="360"/>
<line opacity="0.1" stroke="#000000" stroke-width="1" x1="78" y1="354" x2="973" y2="354"/>
<line opacity="0.1" stroke="#000000" stroke-width="1" x1="78" y1="347" x2="973" y2="347"/>
<line opacity="0.1" stroke="#000000" stroke-width="1" x1="78" y1="341" x2="973" y2="341"/>
<line opacity="0.1" stroke="#000000" stroke-width="1" x1="78" y1="334" x2="973" y2="334"/>
<line opacity="0.1" stroke="#000000" stroke-width="1" x1="78" y1="328" x2="973" y2="328"/>
<line opacity="0.1" stroke="#000000" stroke-width="1" x1="78" y1="322" x2="973" y2="322"/>
<line opacity="0.1" stroke="#000000" stroke-width="1" x1="78" y1="315" x2="973" y2="315"/>
<line opacity="0.1" stroke="#000000" stroke-width="1" x1="78" y1="309" x2="973" y2="309"/>
<line opacity="0.1" stroke="#000000" stroke-width="1" x1="78" y1="302" x2="973" y2="302"/>
<line opacity="0.1" stroke="#000000" stroke-width="1" x1="78" y1="296" x2="973" y2="296"/>
<line opacity="0.1" stroke="#000000" stroke-width="1" x1="78" y1="290" x2="973" y2="290"/>
<line opacity="0.1" stroke="#000000" stroke-width="1" x1="78" y1="283" x2="973" y2="283"/>
<line opacity="0.1" stroke="#000000" stroke-width="1" x1="78" y1="277" x2="973" y2="277"/>
<line opacity="0.1" stroke="#000000" stroke-width="1" x1="78" y1="271" x2="973" y2="271"/>
<line opacity="0.1" stroke="#000000" stroke-width="1" x1="78" y1="264" x2="973" y2="264"/>
<line opacity="0.1" stroke="#000000" stroke-width="1" x1="78" y1="258" x2="973" y2="258"/>
<line opacity="0.1" stroke="#000000" stroke-width="1" x1="78" y1="251" x2="973" y2="251"/>
<line opacity="0.1" stroke="#000000" stroke-width="1" x1="78" y1="245" x2="973" y2="245"/>
<line opacity="0.1" stroke="#000000" stroke-width="1" x1="78" y1="239" x2="973" y2="239"/>
<line opacity="0.1" stroke="#000000" stroke-width="1" x1="78" y1="232" x2="973" y2="232"/>
<line opacity="0.1" stroke="#000000" stroke-width="1" x1="78" y1="226" x2="973" y2="226"/>
<line opacity="0.1" stroke="#000000" stroke-width="1" x1="78" y1="219" x2="973" y2="219"/>
<line opacity="0.1" stroke="#000000" stroke-width="1" x1="78" y1="213" x2="973" y2="213"/>
<line opacity="0.1" stroke="#000000" stroke-width="1" x1="78" y1="207" x2="973" y2="207"/>
<line opacity="0.1" stroke="#000000" stroke-width="1" x1="78" y1="200" x2="973" y2="200"/>
<line opacity="0.1" stroke="#000000" stroke-width="1" x1="78" y1="194" x2="973" y2="194"/>
<line opacity="0.1" stroke="#000000" stroke-width="1" x1="78" y1="188" x2="973" y2="188"/>
<line opacity="0.1" stroke="#000000" stroke-width="1" x1="78" y1="181" x2="973" y2="181"/>
<line opacity="0.1" stroke="#000000" stroke-width="1" x1="78" y1="175" x2="973" y2="175"/>
<line opacity="0.1" stroke="#000000" stroke-width="1" x1="78" y1="168" x2="973" y2="168"/>
<line opacity="0.1" stroke="#000000" stroke-width="1" x1="78" y1="162" x2="973" y2="162"/>
<line opacity="0.1" stroke="#000000" stroke-width="1" x1="78" y1="156" x2="973" y2="156"/>
<line opacity="0.1" stroke="#000000" stroke-width="1" x1="78" y1="149" x2="973" y2="149"/>
<line opacity="0.1" stroke="#000000" stroke-width="1" x1="78" y1="143" x2="973" y2="143"/>
<line opacity="0.1" stroke="#000000" stroke-width="1" x1="78" y1="136" x2="973" y2="136"/>
<line opacity="0.1" stroke="#000000" stroke-width="1" x1="78" y1="130" x2="973" y2="130"/>
<line opacity="0.1" stroke="#000000" stroke-width="1" x1="78" y1="124" x2="973" y2="124"/>
<line opacity="0.1" stroke="#000000" stroke-width="1" x1="78" y1="117" x2="973" y2="117"/>
<line opacity="0.1" stroke="#000000" stroke-width="1" x1="78" y1="111" x2="973" y2="111"/>
<line opacity="0.1" stroke="#000000" stroke-width="1" x1="78" y1="104" x2="973" y2="104"/>
<line opacity="0.1" stroke="#000000" stroke-width="1" x1="78" y1="98" x2="973" y2="98"/>
<line opacity="0.1" stroke="#000000" stroke-width="1" x1="78" y1="92" x2="973" y2="92"/>
<line opacity="0.1" stroke="#000000" stroke-width="1" x1="78" y1="85" x2="973" y2="85"/>
<line opacity="0.1" stroke="#000000" stroke-width="1" x1="78" y1="79" x2="973" y2="79"/>
<line opacity="0.1" stroke="#000000" stroke-width="1" x1="78" y1="73" x2="973" y2="73"/>
<text x="8" y="384" dy="0.76em" text-anchor="middle" font-family="sans-serif" font-size="9.67741935483871" opacity="1" fill="#000000" transform="rotate(270, 8, 384)">
Memory usage
</text>
<text x="526" y="760" dy="-0.5ex" text-anchor="middle" font-family="sans-serif" font-size="9.67741935483871" opacity="1" fill="#000000">
Time
</text>
<line opacity="0.2" stroke="#000000" stroke-width="1" x1="101" y1="699" x2="101" y2="68"/>
<line opacity="0.2" stroke="#000000" stroke-width="1" x1="190" y1="699" x2="190" y2="68"/>
<line opacity="0.2" stroke="#000000" stroke-width="1" x1="279" y1="699" x2="279" y2="68"/>
<line opacity="0.2" stroke="#000000" stroke-width="1" x1="368" y1="699" x2="368" y2="68"/>
<line opacity="0.2" stroke="#000000" stroke-width="1" x1="457" y1="699" x2="457" y2="68"/>
<line opacity="0.2" stroke="#000000" stroke-width="1" x1="546" y1="699" x2="546" y2="68"/>
<line opacity="0.2" stroke="#000000" stroke-width="1" x1="635" y1="699" x2="635" y2="68"/>
<line opacity="0.2" stroke="#000000" stroke-width="1" x1="724" y1="699" x2="724" y2="68"/>
<line opacity="0.2" stroke="#000000" stroke-width="1" x1="812" y1="699" x2="812" y2="68"/>
<line opacity="0.2" stroke="#000000" stroke-width="1" x1="901" y1="699" x2="901" y2="68"/>
<line opacity="0.2" stroke="#000000" stroke-width="1" x1="78" y1="699" x2="973" y2="699"/>
<line opacity="0.2" stroke="#000000" stroke-width="1" x1="78" y1="635" x2="973" y2="635"/>
<line opacity="0.2" stroke="#000000" stroke-width="1" x1="78" y1="571" x2="973" y2="571"/>
<line opacity="0.2" stroke="#000000" stroke-width="1" x1="78" y1="507" x2="973" y2="507"/>
<line opacity="0.2" stroke="#000000" stroke-width="1" x1="78" y1="443" x2="973" y2="443"/>
<line opacity="0.2" stroke="#000000" stroke-width="1" x1="78" y1="379" x2="973" y2="379"/>
<line opacity="0.2" stroke="#000000" stroke-width="1" x1="78" y1="315" x2="973" y2="315"/>
<line opacity="0.2" stroke="#000000" stroke-width="1" x1="78" y1="251" x2="973" y2="251"/>
<line opacity="0.2" stroke="#000000" stroke-width="1" x1="78" y1="188" x2="973" y2="188"/>
<line opacity="0.2" stroke="#000000" stroke-width="1" x1="78" y1="124" x2="973" y2="124"/>
<polyline fill="none" opacity="1" stroke="#000000" stroke-width="1" points="77,68 77,699 "/>
<text x="68" y="699" dy="0.5ex" text-anchor="end" font-family="sans-serif" font-size="9.67741935483871" opacity="1" fill="#000000">
0 KB
</text>
<polyline fill="none" opacity="1" stroke="#000000" stroke-width="1" points="72,699 77,699 "/>
<text x="68" y="635" dy="0.5ex" text-anchor="end" font-family="sans-serif" font-size="9.67741935483871" opacity="1" fill="#000000">
48 KB
</text>
<polyline fill="none" opacity="1" stroke="#000000" stroke-width="1" points="72,635 77,635 "/>
<text x="68" y="571" dy="0.5ex" text-anchor="end" font-family="sans-serif" font-size="9.67741935483871" opacity="1" fill="#000000">
97 KB
</text>
<polyline fill="none" opacity="1" stroke="#000000" stroke-width="1" points="72,571 77,571 "/>
<text x="68" y="507" dy="0.5ex" text-anchor="end" font-family="sans-serif" font-size="9.67741935483871" opacity="1" fill="#000000">
146 KB
</text>
<polyline fill="none" opacity="1" stroke="#000000" stroke-width="1" points="72,507 77,507 "/>
<text x="68" y="443" dy="0.5ex" text-anchor="end" font-family="sans-serif" font-size="9.67741935483871" opacity="1" fill="#000000">
195 KB
</text>
<polyline fill="none" opacity="1" stroke="#000000" stroke-width="1" points="72,443 77,443 "/>
<text x="68" y="379" dy="0.5ex" text-anchor="end" font-family="sans-serif" font-size="9.67741935483871" opacity="1" fill="#000000">
244 KB
</text>
<polyline fill="none" opacity="1" stroke="#000000" stroke-width="1" points="72,379 77,379 "/>
<text x="68" y="315" dy="0.5ex" text-anchor="end" font-family="sans-serif" font-size="9.67741935483871" opacity="1" fill="#000000">
292 KB
</text>
<polyline fill="none" opacity="1" stroke="#000000" stroke-width="1" points="72,315 77,315 "/>
<text x="68" y="251" dy="0.5ex" text-anchor="end" font-family="sans-serif" font-size="9.67741935483871" opacity="1" fill="#000000">
341 KB
</text>
<polyline fill="none" opacity="1" stroke="#000000" stroke-width="1" points="72,251 77,251 "/>
<text x="68" y="188" dy="0.5ex" text-anchor="end" font-family="sans-serif" font-size="9.67741935483871" opacity="1" fill="#000000">
390 KB
</text>
<polyline fill="none" opacity="1" stroke="#000000" stroke-width="1" points="72,188 77,188 "/>
<text x="68" y="124" dy="0.5ex" text-anchor="end" font-family="sans-serif" font-size="9.67741935483871" opacity="1" fill="#000000">
439 KB
</text>
<polyline fill="none" opacity="1" stroke="#000000" stroke-width="1" points="72,124 77,124 "/>
<polyline fill="none" opacity="1" stroke="#000000" stroke-width="1" points="78,700 973,700 "/>
<text x="101" y="710" dy="0.76em" text-anchor="middle" font-family="sans-serif" font-size="9.67741935483871" opacity="1" fill="#000000">
02:04:17
</text>
<polyline fill="none" opacity="1" stroke="#000000" stroke-width="1" points="101,700 101,705 "/>
<text x="190" y="710" dy="0.76em" text-anchor="middle" font-family="sans-serif" font-size="9.67741935483871" opacity="1" fill="#000000">
02:04:18
</text>
<polyline fill="none" opacity="1" stroke="#000000" stroke-width="1" points="190,700 190,705 "/>
<text x="279" y="710" dy="0.76em" text-anchor="middle" font-family="sans-serif" font-size="9.67741935483871" opacity="1" fill="#000000">
02:04:19
</text>
<polyline fill="none" opacity="1" stroke="#000000" stroke-width="1" points="279,700 279,705 "/>
<text x="368" y="710" dy="0.76em" text-anchor="middle" font-family="sans-serif" font-size="9.67741935483871" opacity="1" fill="#000000">
02:04:20
</text>
<polyline fill="none" opacity="1" stroke="#000000" stroke-width="1" points="368,700 368,705 "/>
<text x="457" y="710" dy="0.76em" text-anchor="middle" font-family="sans-serif" font-size="9.67741935483871" opacity="1" fill="#000000">
02:04:21
</text>
<polyline fill="none" opacity="1" stroke="#000000" stroke-width="1" points="457,700 457,705 "/>
<text x="546" y="710" dy="0.76em" text-anchor="middle" font-family="sans-serif" font-size="9.67741935483871" opacity="1" fill="#000000">
02:04:22
</text>
<polyline fill="none" opacity="1" stroke="#000000" stroke-width="1" points="546,700 546,705 "/>
<text x="635" y="710" dy="0.76em" text-anchor="middle" font-family="sans-serif" font-size="9.67741935483871" opacity="1" fill="#000000">
02:04:23
</text>
<polyline fill="none" opacity="1" stroke="#000000" stroke-width="1" points="635,700 635,705 "/>
<text x="724" y="710" dy="0.76em" text-anchor="middle" font-family="sans-serif" font-size="9.67741935483871" opacity="1" fill="#000000">
02:04:24
</text>
<polyline fill="none" opacity="1" stroke="#000000" stroke-width="1" points="724,700 724,705 "/>
<text x="812" y="710" dy="0.76em" text-anchor="middle" font-family="sans-serif" font-size="9.67741935483871" opacity="1" fill="#000000">
02:04:25
</text>
<polyline fill="none" opacity="1" stroke="#000000" stroke-width="1" points="812,700 812,705 "/>
<text x="901" y="710" dy="0.76em" text-anchor="middle" font-family="sans-serif" font-size="9.67741935483871" opacity="1" fill="#000000">
02:04:26
</text>
<polyline fill="none" opacity="1" stroke="#000000" stroke-width="1" points="901,700 901,705 "/>
<polyline fill="none" opacity="1" stroke="#000000" stroke-width="1" points="78,67 974,67 "/>
<text x="101" y="58" dy="-0.5ex" text-anchor="middle" font-family="sans-serif" font-size="9.67741935483871" opacity="1" fill="#000000">
+265ms
</text>
<polyline fill="none" opacity="1" stroke="#000000" stroke-width="1" points="101,62 101,67 "/>
<text x="190" y="58" dy="-0.5ex" text-anchor="middle" font-family="sans-serif" font-size="9.67741935483871" opacity="1" fill="#000000">
+1s
</text>
<polyline fill="none" opacity="1" stroke="#000000" stroke-width="1" points="190,62 190,67 "/>
<text x="279" y="58" dy="-0.5ex" text-anchor="middle" font-family="sans-serif" font-size="9.67741935483871" opacity="1" fill="#000000">
+2s
</text>
<polyline fill="none" opacity="1" stroke="#000000" stroke-width="1" points="279,62 279,67 "/>
<text x="368" y="58" dy="-0.5ex" text-anchor="middle" font-family="sans-serif" font-size="9.67741935483871" opacity="1" fill="#000000">
+3s
</text>
<polyline fill="none" opacity="1" stroke="#000000" stroke-width="1" points="368,62 368,67 "/>
<text x="457" y="58" dy="-0.5ex" text-anchor="middle" font-family="sans-serif" font-size="9.67741935483871" opacity="1" fill="#000000">
+4s
</text>
<polyline fill="none" opacity="1" stroke="#000000" stroke-width="1" points="457,62 457,67 "/>
<text x="546" y="58" dy="-0.5ex" text-anchor="middle" font-family="sans-serif" font-size="9.67741935483871" opacity="1" fill="#000000">
+5s
</text>
<polyline fill="none" opacity="1" stroke="#000000" stroke-width="1" points="546,62 546,67 "/>
<text x="635" y="58" dy="-0.5ex" text-anchor="middle" font-family="sans-serif" font-size="9.67741935483871" opacity="1" fill="#000000">
+6s
</text>
<polyline fill="none" opacity="1" stroke="#000000" stroke-width="1" points="635,62 635,67 "/>
<text x="724" y="58" dy="-0.5ex" text-anchor="middle" font-family="sans-serif" font-size="9.67741935483871" opacity="1" fill="#000000">
+7s
</text>
<polyline fill="none" opacity="1" stroke="#000000" stroke-width="1" points="724,62 724,67 "/>
<text x="813" y="58" dy="-0.5ex" text-anchor="middle" font-family="sans-serif" font-size="9.67741935483871" opacity="1" fill="#000000">
+8s
</text>
<polyline fill="none" opacity="1" stroke="#000000" stroke-width="1" points="813,62 813,67 "/>
<text x="902" y="58" dy="-0.5ex" text-anchor="middle" font-family="sans-serif" font-size="9.67741935483871" opacity="1" fill="#000000">
+9s
</text>
<polyline fill="none" opacity="1" stroke="#000000" stroke-width="1" points="902,62 902,67 "/>
</svg>
