<svg width="1024" height="768" viewBox="0 0 1024 768" xmlns="http://www.w3.org/2000/svg">
<rect x="0" y="0" width="1023" height="767" opacity="1" fill="#FFFFFF" stroke="none"/>
<polygon opacity="1" fill="#0082C8" points="107,699 107,600 107,600 108,600 109,599 109,597 110,597 111,596 112,595 113,594 114,593 115,593 115,592 116,592 117,590 118,590 119,590 120,590 121,590 122,588 122,587 123,587 124,586 125,586 126,585 127,584 128,584 128,584 129,583 130,581 131,581 132,581 133,581 134,581 135,580 135,580 136,580 137,580 138,579 139,579 140,578 141,578 141,578 142,576 143,576 144,576 145,576 146,575 147,575 148,575 148,574 149,573 150,573 151,573 152,572 153,572 154,571 154,569 155,569 156,569 157,568 158,568 159,567 160,566 160,566 161,566 162,566 163,565 164,564 165,563 166,563 167,563 167,562 168,561 169,561 170,560 171,560 172,560 173,558 173,558 174,558 175,556 176,554 177,553 178,552 179,552 180,552 180,551 181,551 182,550 183,549 184,548 185,547 186,547 186,546 187,545 188,544 189,544 190,544 191,543 192,543 193,541 193,541 194,540 195,538 196,538 197,537 198,537 199,536 199,536 200,534 201,534 202,534 203,533 204,531 205,531 206,530 206,529 207,528 208,528 209,527 210,527 211,526 212,525 212,524 213,523 214,522 215,520 216,519 217,519 218,519 219,519 219,519 220,518 221,518 222,518 223,517 224,517 225,516 225,516 226,514 227,513 228,513 229,513 230,512 231,511 232,511 232,510 233,510 234,509 235,508 236,508 237,507 238,506 238,506 239,505 240,505 241,503 242,503 243,502 244,502 245,501 245,501 246,500 247,499 248,498 249,497 250,497 251,496 251,496 252,496 253,495 254,494 255,492 256,492 257,492 258,491 258,491 259,490 260,490 261,490 262,488 263,487 264,486 264,485 265,485 266,483 267,483 268,482 269,482 270,481 271,481 271,481 272,480 273,479 274,478 275,478 276,478 277,477 277,476 278,475 279,475 280,474 281,474 282,474 283,473 284,473 284,472 285,471 286,470 287,470 288,469 289,469 290,469 290,469 291,468 292,468 293,467 294,466 295,466 296,466 297,465 297,465 298,465 299,465 300,464 301,464 302,464 303,463 303,462 304,461 305,461 306,461 307,461 308,460 309,460 310,460 310,460 311,459 312,458 313,458 314,458 315,457 316,456 316,456 317,455 318,454 319,452 320,451 321,450 322,450 323,449 323,449 324,448 325,448 326,447 327,446 328,446 329,445 329,445 330,445 331,445 332,444 333,443 334,443 335,443 335,442 336,442 337,442 338,441 339,440 340,440 341,440 342,439 342,439 343,438 344,437 345,437 346,437 347,435 348,434 348,433 349,432 350,432 351,430 352,430 353,429 354,428 355,428 355,426 356,426 357,425 358,425 359,425 360,424 361,424 361,423 362,423 363,422 364,421 365,420 366,419 367,418 368,418 368,416 369,415 370,415 371,415 372,415 373,414 374,413 374,412 375,412 376,411 377,411 378,409 379,408 380,408 381,408 381,408 382,407 383,407 384,407 385,406 386,406 387,406 387,404 388,403 389,402 390,402 391,402 392,402 393,402 394,401 394,401 395,401 396,401 397,400 398,399 399,398 400,398 400,397 401,396 402,396 403,395 404,394 405,394 406,394 407,394 407,394 408,393 409,393 410,392 411,392 412,392 413,392 413,392 414,391 415,391 416,391 417,391 418,390 419,390 420,389 420,389 421,389 422,386 423,386 424,386 425,386 426,385 426,384 427,384 428,383 429,383 430,383 431,382 432,382 433,382 433,380 434,380 435,379 436,379 437,378 438,378 439,378 439,377 440,376 441,376 442,375 443,375 444,374 445,373 446,372 446,372 447,370 448,370 449,370 450,370 451,369 452,368 452,367 453,366 454,365 455,365 456,364 457,364 458,363 459,362 459,362 460,362 461,362 462,361 463,360 464,360 465,359 465,359 466,359 467,358 468,357 469,357 470,355 471,355 472,354 472,354 473,354 474,353 475,353 476,353 477,352 478,351 478,350 479,349 480,349 481,349 482,348 483,347 484,347 485,347 485,347 486,347 487,346 488,346 489,345 490,345 491,345 491,344 492,344 493,344 494,344 495,343 496,343 497,341 497,341 498,341 499,340 500,339 501,339 502,338 503,338 504,337 504,337 505,337 506,337 507,337 508,337 509,336 510,335 510,335 511,334 512,334 513,333 514,333 515,333 516,332 517,330 517,329 518,328 519,328 520,328 521,327 522,327 523,326 523,326 524,326 525,325 526,324 527,323 528,322 529,322 530,322 530,322 531,321 532,321 533,321 534,321 535,321 536,320 536,319 537,319 538,319 539,319 540,318 541,318 542,318 543,317 543,317 544,317 545,317 546,316 547,316 548,316 549,314 549,314 550,313 551,312 552,311 553,311 554,310 555,310 556,309 556,309 557,308 558,307 559,306 560,306 561,305 562,304 562,304 563,304 564,303 565,303 566,302 567,302 568,301 569,301 569,300 570,299 571,299 572,298 573,298 574,297 575,297 575,297 576,297 577,296 578,296 579,296 580,296 581,296 582,296 582,295 583,295 584,295 585,294 586,292 587,292 588,292 588,291 589,289 590,289 591,287 592,287 593,286 594,285 595,285 595,285 596,283 597,282 598,282 599,281 600,281 601,281 601,281 602,280 603,280 604,280 605,280 606,279 607,279 608,278 608,278 609,278 610,278 611,277 612,276 613,276 614,275 614,274 615,274 616,273 617,273 618,272 619,272 620,270 621,270 621,270 622,269 623,269 624,269 625,268 626,268 627,268 627,267 628,267 629,267 630,267 631,266 632,266 633,266 634,265 634,265 635,264 636,264 637,264 638,264 639,263 640,262 640,262 641,261 642,261 643,259 644,259 645,258 646,257 647,257 647,257 648,256 649,255 650,255 651,254 652,253 653,252 653,252 654,252 655,251 656,249 657,248 658,248 659,247 659,247 660,247 661,247 662,246 663,246 664,244 665,243 666,243 666,241 667,241 668,241 669,241 670,240 671,239 672,239 672,239 673,237 674,237 675,237 676,236 677,235 678,233 679,233 679,233 680,232 681,231 682,231 683,231 684,231 685,231 685,230 686,229 687,228 688,228 689,227 690,227 691,226 692,226 692,225 693,225 694,225 695,224 696,224 697,224 698,223 698,221 699,221 700,220 701,220 702,219 703,219 704,219 705,219 705,219 706,219 707,219 708,218 709,217 710,216 711,216 711,215 712,215 713,214 714,214 715,213 716,213 717,212 718,211 718,211 719,211 720,211 721,211 722,209 723,209 724,209 724,208 725,208 726,207 727,207 728,206 729,206 730,206 731,206 731,205 732,205 733,204 734,204 735,203 736,203 737,203 737,202 738,201 739,201 740,200 741,200 742,200 743,199 744,198 744,198 745,198 746,197 747,197 748,196 749,196 750,195 750,195 751,194 752,193 753,193 754,192 755,191 756,191 757,191 757,191 758,190 759,189 760,188 761,188 762,188 763,188 763,187 764,185 765,184 766,184 767,183 768,183 769,183 770,182 770,182 771,181 772,181 773,180 774,180 775,179 776,179 776,178 777,177 778,176 779,175 780,175 781,175 782,174 783,173 783,172 784,171 785,171 786,171 787,171 788,170 789,170 789,170 790,170 791,169 792,169 793,168 794,167 795,167 796,166 796,165 797,165 798,165 799,164 800,164 801,164 802,163 802,162 803,162 804,161 805,161 806,161 807,160 808,160 809,160 809,160 810,160 811,158 812,158 813,158 814,157 815,157 815,156 816,156 817,155 818,154 819,154 820,154 821,153 822,153 822,153 823,153 824,152 825,151 826,151 827,151 828,150 828,150 829,149 830,148 831,148 832,147 833,147 834,147 834,146 835,145 836,145 837,145 838,145 839,144 840,144 841,144 841,143 842,143 843,142 844,141 845,141 846,140 847,139 847,139 848,139 849,138 850,137 851,137 852,136 853,135 854,135 854,134 855,134 856,133 857,133 858,132 859,132 860,131 860,129 861,129 862,128 863,128 864,128 865,127 866,127 867,126 867,125 868,125 869,124 870,123 871,123 872,122 873,122 873,122 874,121 875,121 876,120 877,120 878,119 879,119 880,118 880,118 881,118 882,118 883,117 884,116 885,116 886,116 886,116 887,116 888,114 889,114 890,114 891,113 892,113 893,112 893,112 894,112 895,111 896,111 897,111 898,111 899,111 899,110 900,110 901,110 902,109 903,109 904,108 905,108 906,108 906,107 907,107 908,106 909,106 910,105 911,105 912,104 912,104 913,104 914,103 915,102 916,102 917,101 918,101 919,100 919,100 920,98 921,98 922,97 923,95 924,95 925,94 925,93 926,93 927,92 928,91 929,91 930,91 931,91 932,90 932,90 933,89 934,88 935,87 936,86 937,86 938,85 938,84 939,83 940,83 941,82 942,82 943,81 944,81 945,80 945,80 946,79 947,79 948,78 949,78 950,77 951,77 951,77 952,77 953,75 954,75 955,74 956,74 957,74 958,74 958,74 959,73 960,73 961,73 962,73 963,73 964,72 964,71 965,71 966,70 967,70 967,70 968,70 969,68 970,68 971,68 971,68 972,68 972,68 973,68 973,68 974,68 974,699 107,699 "/>
<polyline fill="none" opacity="1" stroke="#0082C8" stroke-width="1" points="107,699 107,600 107,600 108,600 109,599 109,597 110,597 111,596 112,595 113,594 114,593 115,593 115,592 116,592 117,590 118,590 119,590 120,590 121,590 122,588 122,587 123,587 124,586 125,586 126,585 127,584 128,584 128,584 129,583 130,581 131,581 132,581 133,581 134,581 135,580 135,580 136,580 137,580 138,579 139,579 140,578 141,578 141,578 142,576 143,576 144,576 145,576 146,575 147,575 148,575 148,574 149,573 150,573 151,573 152,572 153,572 154,571 154,569 155,569 156,569 157,568 158,568 159,567 160,566 160,566 161,566 162,566 163,565 164,564 165,563 166,563 167,563 167,562 168,561 169,561 170,560 171,560 172,560 173,558 173,558 174,558 175,556 176,554 177,553 178,552 179,552 180,552 180,551 181,551 182,550 183,549 184,548 185,547 186,547 186,546 187,545 188,544 189,544 190,544 191,543 192,543 193,541 193,541 194,540 195,538 196,538 197,537 198,537 199,536 199,536 200,534 201,534 202,534 203,533 204,531 205,531 206,530 206,529 207,528 208,528 209,527 210,527 211,526 212,525 212,524 213,523 214,522 215,520 216,519 217,519 218,519 219,519 219,519 220,518 221,518 222,518 223,517 224,517 225,516 225,516 226,514 227,513 228,513 229,513 230,512 231,511 232,511 232,510 233,510 234,509 235,508 236,508 237,507 238,506 238,506 239,505 240,505 241,503 242,503 243,502 244,502 245,501 245,501 246,500 247,499 248,498 249,497 250,497 251,496 251,496 252,496 253,495 254,494 255,492 256,492 257,492 258,491 258,491 259,490 260,490 261,490 262,488 263,487 264,486 264,485 265,485 266,483 267,483 268,482 269,482 270,481 271,481 271,481 272,480 273,479 274,478 275,478 276,478 277,477 277,476 278,475 279,475 280,474 281,474 282,474 283,473 284,473 284,472 285,471 286,470 287,470 288,469 289,469 290,469 290,469 291,468 292,468 293,467 294,466 295,466 296,466 297,465 297,465 298,465 299,465 300,464 301,464 302,464 303,463 303,462 304,461 305,461 306,461 307,461 308,460 309,460 310,460 310,460 311,459 312,458 313,458 314,458 315,457 316,456 316,456 317,455 318,454 319,452 320,451 321,450 322,450 323,449 323,449 324,448 325,448 326,447 327,446 328,446 329,445 329,445 330,445 331,445 332,444 333,443 334,443 335,443 335,442 336,442 337,442 338,441 339,440 340,440 341,440 342,439 342,439 343,438 344,437 345,437 346,437 347,435 348,434 348,433 349,432 350,432 351,430 352,430 353,429 354,428 355,428 355,426 356,426 357,425 358,425 359,425 360,424 361,424 361,423 362,423 363,422 364,421 365,420 366,419 367,418 368,418 368,416 369,415 370,415 371,415 372,415 373,414 374,413 374,412 375,412 376,411 377,411 378,409 379,408 380,408 381,408 381,408 382,407 383,407 384,407 385,406 386,406 387,406 387,404 388,403 389,402 390,402 391,402 392,402 393,402 394,401 394,401 395,401 396,401 397,400 398,399 399,398 400,398 400,397 401,396 402,396 403,395 404,394 405,394 406,394 407,394 407,394 408,393 409,393 410,392 411,392 412,392 413,392 413,392 414,391 415,391 416,391 417,391 418,390 419,390 420,389 420,389 421,389 422,386 423,386 424,386 425,386 426,385 426,384 427,384 428,383 429,383 430,383 431,382 432,382 433,382 433,380 434,380 435,379 436,379 437,378 438,378 439,378 439,377 440,376 441,376 442,375 443,375 444,374 445,373 446,372 446,372 447,370 448,370 449,370 450,370 451,369 452,368 452,367 453,366 454,365 455,365 456,364 457,364 458,363 459,362 459,362 460,362 461,362 462,361 463,360 464,360 465,359 465,359 466,359 467,358 468,357 469,357 470,355 471,355 472,354 472,354 473,354 474,353 475,353 476,353 477,352 478,351 478,350 479,349 480,349 481,349 482,348 483,347 484,347 485,347 485,347 486,347 487,346 488,346 489,345 490,345 491,345 491,344 492,344 493,344 494,344 495,343 496,343 497,341 497,341 498,341 499,340 500,339 501,339 502,338 503,338 504,337 504,337 505,337 506,337 507,337 508,337 509,336 510,335 510,335 511,334 512,334 513,333 514,333 515,333 516,332 517,330 517,329 518,328 519,328 520,328 521,327 522,327 523,326 523,326 524,326 525,325 526,324 527,323 528,322 529,322 530,322 530,322 531,321 532,321 533,321 534,321 535,321 536,320 536,319 537,319 538,319 539,319 540,318 541,318 542,318 543,317 543,317 544,317 545,317 546,316 547,316 548,316 549,314 549,314 550,313 551,312 552,311 553,311 554,310 555,310 556,309 556,309 557,308 558,307 559,306 560,306 561,305 562,304 562,304 563,304 564,303 565,303 566,302 567,302 568,301 569,301 569,300 570,299 571,299 572,298 573,298 574,297 575,297 575,297 576,297 577,296 578,296 579,296 580,296 581,296 582,296 582,295 583,295 584,295 585,294 586,292 587,292 588,292 588,291 589,289 590,289 591,287 592,287 593,286 594,285 595,285 595,285 596,283 597,282 598,282 599,281 600,281 601,281 601,281 602,280 603,280 604,280 605,280 606,279 607,279 608,278 608,278 609,278 610,278 611,277 612,276 613,276 614,275 614,274 615,274 616,273 617,273 618,272 619,272 620,270 621,270 621,270 622,269 623,269 624,269 625,268 626,268 627,268 627,267 628,267 629,267 630,267 631,266 632,266 633,266 634,265 634,265 635,264 636,264 637,264 638,264 639,263 640,262 640,262 641,261 642,261 643,259 644,259 645,258 646,257 647,257 647,257 648,256 649,255 650,255 651,254 652,253 653,252 653,252 654,252 655,251 656,249 657,248 658,248 659,247 659,247 660,247 661,247 662,246 663,246 664,244 665,243 666,243 666,241 667,241 668,241 669,241 670,240 671,239 672,239 672,239 673,237 674,237 675,237 676,236 677,235 678,233 679,233 679,233 680,232 681,231 682,231 683,231 684,231 685,231 685,230 686,229 687,228 688,228 689,227 690,227 691,226 692,226 692,225 693,225 694,225 695,224 696,224 697,224 698,223 698,221 699,221 700,220 701,220 702,219 703,219 704,219 705,219 705,219 706,219 707,219 708,218 709,217 710,216 711,216 711,215 712,215 713,214 714,214 715,213 716,213 717,212 718,211 718,211 719,211 720,211 721,211 722,209 723,209 724,209 724,208 725,208 726,207 727,207 728,206 729,206 730,206 731,206 731,205 732,205 733,204 734,204 735,203 736,203 737,203 737,202 738,201 739,201 740,200 741,200 742,200 743,199 744,198 744,198 745,198 746,197 747,197 748,196 749,196 750,195 750,195 751,194 752,193 753,193 754,192 755,191 756,191 757,191 757,191 758,190 759,189 760,188 761,188 762,188 763,188 763,187 764,185 765,184 766,184 767,183 768,183 769,183 770,182 770,182 771,181 772,181 773,180 774,180 775,179 776,179 776,178 777,177 778,176 779,175 780,175 781,175 782,174 783,173 783,172 784,171 785,171 786,171 787,171 788,170 789,170 789,170 790,170 791,169 792,169 793,168 794,167 795,167 796,166 796,165 797,165 798,165 799,164 800,164 801,164 802,163 802,162 803,162 804,161 805,161 806,161 807,160 808,160 809,160 809,160 810,160 811,158 812,158 813,158 814,157 815,157 815,156 816,156 817,155 818,154 819,154 820,154 821,153 822,153 822,153 823,153 824,152 825,151 826,151 827,151 828,150 828,150 829,149 830,148 831,148 832,147 833,147 834,147 834,146 835,145 836,145 837,145 838,145 839,144 840,144 841,144 841,143 842,143 843,142 844,141 845,141 846,140 847,139 847,139 848,139 849,138 850,137 851,137 852,136 853,135 854,135 854,134 855,134 856,133 857,133 858,132 859,132 860,131 860,129 861,129 862,128 863,128 864,128 865,127 866,127 867,126 867,125 868,125 869,124 870,123 871,123 872,122 873,122 873,122 874,121 875,121 876,120 877,120 878,119 879,119 880,118 880,118 881,118 882,118 883,117 884,116 885,116 886,116 886,116 887,116 888,114 889,114 890,114 891,113 892,113 893,112 893,112 894,112 895,111 896,111 897,111 898,111 899,111 899,110 900,110 901,110 902,109 903,109 904,108 905,108 906,108 906,107 907,107 908,106 909,106 910,105 911,105 912,104 912,104 913,104 914,103 915,102 916,102 917,101 918,101 919,100 919,100 920,98 921,98 922,97 923,95 924,95 925,94 925,93 926,93 927,92 928,91 929,91 930,91 931,91 932,90 932,90 933,89 934,88 935,87 936,86 937,86 938,85 938,84 939,83 940,83 941,82 942,82 943,81 944,81 945,80 945,80 946,79 947,79 948,78 949,78 950,77 951,77 951,77 952,77 953,75 954,75 955,74 956,74 957,74 958,74 958,74 959,73 960,73 961,73 962,73 963,73 964,72 964,71 965,71 966,70 967,70 967,70 968,70 969,68 970,68 971,68 971,68 972,68 972,68 973,68 973,68 974,68 "/>
<polygon opacity="1" fill="#FFE119" points="107,699 107,600 107,600 108,600 109,599 109,597 110,597 111,596 112,595 113,594 114,593 115,593 115,593 116,592 117,591 118,591 119,590 120,590 121,590 122,589 122,588 123,587 124,587 125,587 126,586 127,585 128,585 128,584 129,584 130,582 131,582 132,582 133,581 134,581 135,581 135,581 136,581 137,580 138,580 139,580 140,579 141,579 141,579 142,577 143,577 144,577 145,577 146,576 147,576 148,576 148,575 149,575 150,575 151,574 152,573 153,573 154,572 154,571 155,570 156,570 157,569 158,569 159,569 160,568 160,568 161,568 162,567 163,567 164,565 165,565 166,565 167,564 167,564 168,563 169,562 170,562 171,562 172,561 173,560 173,560 174,560 175,558 176,556 177,555 178,554 179,554 180,554 180,553 181,553 182,551 183,551 184,550 185,549 186,549 186,548 187,547 188,546 189,546 190,545 191,545 192,545 193,543 193,543 194,542 195,540 196,540 197,539 198,539 199,538 199,538 200,536 201,536 202,536 203,535 204,533 205,533 206,532 206,531 207,530 208,530 209,529 210,529 211,529 212,528 212,527 213,526 214,525 215,523 216,521 217,521 218,521 219,521 219,521 220,520 221,520 222,520 223,520 224,519 225,518 225,518 226,517 227,516 228,516 229,516 230,515 231,513 232,513 232,513 233,513 234,512 235,511 236,511 237,509 238,509 238,508 239,508 240,508 241,506 242,506 243,504 244,504 245,504 245,504 246,503 247,502 248,501 249,500 250,499 251,499 251,499 252,499 253,498 254,497 255,495 256,495 257,495 258,494 258,494 259,493 260,493 261,493 262,491 263,490 264,489 264,489 265,488 266,487 267,486 268,486 269,485 270,485 271,485 271,484 272,483 273,482 274,482 275,482 276,481 277,481 277,480 278,479 279,478 280,478 281,478 282,477 283,477 284,477 284,475 285,475 286,474 287,473 288,473 289,473 290,472 290,472 291,472 292,471 293,470 294,470 295,470 296,470 297,469 297,469 298,468 299,468 300,468 301,468 302,468 303,467 303,466 304,465 305,465 306,465 307,465 308,464 309,464 310,464 310,464 311,463 312,462 313,462 314,462 315,461 316,460 316,460 317,459 318,458 319,455 320,455 321,454 322,454 323,454 323,453 324,453 325,452 326,452 327,451 328,450 329,450 329,450 330,449 331,449 332,449 333,448 334,447 335,447 335,447 336,446 337,446 338,445 339,444 340,444 341,444 342,444 342,443 343,442 344,441 345,441 346,441 347,439 348,439 348,438 349,437 350,437 351,435 352,434 353,434 354,433 355,433 355,431 356,431 357,430 358,430 359,430 360,429 361,429 361,428 362,428 363,427 364,426 365,425 366,424 367,423 368,423 368,421 369,420 370,420 371,420 372,420 373,419 374,418 374,418 375,417 376,416 377,416 378,414 379,414 380,413 381,413 381,413 382,413 383,412 384,412 385,412 386,411 387,411 387,410 388,409 389,408 390,408 391,408 392,408 393,408 394,407 394,407 395,406 396,406 397,406 398,405 399,404 400,404 400,403 401,402 402,402 403,401 404,400 405,400 406,400 407,400 407,400 408,399 409,399 410,398 411,398 412,398 413,398 413,398 414,397 415,397 416,397 417,397 418,396 419,396 420,395 420,395 421,395 422,393 423,393 424,393 425,392 426,391 426,391 427,390 428,389 429,389 430,389 431,388 432,388 433,388 433,386 434,386 435,386 436,386 437,385 438,384 439,384 439,383 440,382 441,382 442,381 443,381 444,380 445,379 446,379 446,378 447,376 448,376 449,376 450,376 451,376 452,374 452,373 453,373 454,371 455,371 456,371 457,370 458,370 459,369 459,369 460,369 461,368 462,367 463,367 464,367 465,366 465,366 466,365 467,365 468,364 469,364 470,362 471,361 472,361 472,361 473,361 474,360 475,360 476,359 477,359 478,358 478,357 479,356 480,356 481,356 482,355 483,354 484,354 485,354 485,354 486,353 487,353 488,353 489,352 490,352 491,352 491,351 492,351 493,351 494,351 495,350 496,350 497,348 497,348 498,348 499,348 500,347 501,346 502,345 503,345 504,345 504,345 505,345 506,344 507,344 508,344 509,344 510,343 510,342 511,342 512,341 513,341 514,341 515,340 516,339 517,338 517,337 518,336 519,336 520,336 521,335 522,335 523,334 523,334 524,334 525,333 526,332 527,331 528,330 529,330 530,329 530,329 531,329 532,329 533,329 534,329 535,329 536,328 536,327 537,327 538,327 539,327 540,326 541,326 542,326 543,325 543,325 544,325 545,325 546,324 547,324 548,324 549,322 549,322 550,322 551,321 552,320 553,319 554,318 555,318 556,317 556,317 557,316 558,315 559,314 560,314 561,314 562,313 562,313 563,312 564,311 565,311 566,310 567,310 568,310 569,309 569,308 570,308 571,307 572,307 573,306 574,306 575,306 575,305 576,305 577,305 578,304 579,304 580,304 581,304 582,304 582,304 583,303 584,303 585,302 586,301 587,301 588,301 588,300 589,298 590,297 591,296 592,296 593,295 594,294 595,294 595,293 596,292 597,291 598,291 599,290 600,290 601,290 601,290 602,289 603,289 604,289 605,289 606,288 607,287 608,287 608,287 609,287 610,287 611,286 612,285 613,285 614,284 614,283 615,283 616,283 617,282 618,281 619,281 620,280 621,279 621,279 622,279 623,278 624,278 625,278 626,277 627,277 627,276 628,276 629,276 630,276 631,275 632,275 633,275 634,275 634,275 635,273 636,273 637,273 638,273 639,273 640,272 640,271 641,270 642,270 643,269 644,268 645,267 646,267 647,267 647,266 648,265 649,265 650,264 651,263 652,262 653,262 653,262 654,262 655,261 656,258 657,257 658,257 659,257 659,257 660,256 661,256 662,256 663,255 664,254 665,253 666,253 666,251 667,251 668,250 669,250 670,249 671,249 672,249 672,248 673,247 674,246 675,246 676,246 677,244 678,243 679,243 679,242 680,241 681,241 682,241 683,241 684,240 685,240 685,240 686,238 687,238 688,238 689,237 690,236 691,236 692,235 692,235 693,235 694,235 695,234 696,234 697,234 698,233 698,231 699,231 700,230 701,230 702,230 703,230 704,229 705,229 705,229 706,229 707,229 708,228 709,228 710,226 711,226 711,226 712,225 713,225 714,224 715,224 716,223 717,222 718,222 718,222 719,222 720,221 721,221 722,220 723,220 724,220 724,219 725,218 726,218 727,217 728,217 729,217 730,217 731,216 731,215 732,215 733,215 734,214 735,214 736,213 737,213 737,213 738,212 739,211 740,211 741,211 742,211 743,210 744,209 744,209 745,209 746,208 747,208 748,207 749,207 750,206 750,206 751,205 752,204 753,204 754,203 755,202 756,202 757,202 757,202 758,201 759,200 760,200 761,199 762,199 763,199 763,199 764,197 765,196 766,195 767,194 768,194 769,194 770,194 770,193 771,193 772,192 773,192 774,192 775,191 776,190 776,189 777,189 778,188 779,187 780,187 781,187 782,185 783,185 783,184 784,183 785,182 786,182 787,182 788,182 789,182 789,182 790,181 791,180 792,180 793,179 794,179 795,179 796,178 796,177 797,177 798,177 799,176 800,176 801,175 802,175 802,174 803,174 804,173 805,172 806,172 807,172 808,172 809,171 809,171 810,171 811,170 812,170 813,170 814,169 815,169 815,168 816,168 817,167 818,166 819,166 820,166 821,165 822,165 822,165 823,164 824,163 825,163 826,163 827,163 828,162 828,162 829,161 830,160 831,160 832,159 833,159 834,158 834,158 835,157 836,157 837,157 838,157 839,156 840,156 841,156 841,155 842,155 843,154 844,153 845,153 846,152 847,151 847,151 848,151 849,151 850,149 851,149 852,148 853,147 854,147 854,147 855,146 856,146 857,145 858,144 859,144 860,143 860,142 861,142 862,141 863,140 864,140 865,140 866,139 867,139 867,138 868,137 869,136 870,136 871,136 872,135 873,135 873,134 874,133 875,133 876,133 877,133 878,132 879,132 880,131 880,131 881,131 882,131 883,129 884,129 885,129 886,129 886,129 887,129 888,127 889,127 890,127 891,126 892,126 893,125 893,125 894,125 895,125 896,125 897,125 898,125 899,124 899,123 900,123 901,123 902,122 903,122 904,122 905,122 906,121 906,120 907,120 908,120 909,120 910,118 911,118 912,117 912,117 913,117 914,116 915,115 916,115 917,115 918,114 919,114 919,113 920,112 921,111 922,111 923,109 924,108 925,107 925,107 926,106 927,106 928,105 929,105 930,105 931,105 932,104 932,103 933,103 934,102 935,100 936,100 937,99 938,99 938,97 939,96 940,96 941,96 942,96 943,95 944,95 945,94 945,93 946,93 947,92 948,92 949,92 950,91 951,91 951,91 952,90 953,90 954,89 955,88 956,88 957,88 958,88 958,88 959,87 960,87 961,87 962,87 963,87 964,86 964,86 965,85 966,84 967,84 967,84 968,84 969,83 970,83 971,82 971,82 972,81 972,81 973,81 973,81 974,81 974,699 107,699 "/>
<polyline fill="none" opacity="1" stroke="#FFE119" stroke-width="1" points="107,699 107,600 107,600 108,600 109,599 109,597 110,597 111,596 112,595 113,594 114,593 115,593 115,593 116,592 117,591 118,591 119,590 120,590 121,590 122,589 122,588 123,587 124,587 125,587 126,586 127,585 128,585 128,584 129,584 130,582 131,582 132,582 133,581 134,581 135,581 135,581 136,581 137,580 138,580 139,580 140,579 141,579 141,579 142,577 143,577 144,577 145,577 146,576 147,576 148,576 148,575 149,575 150,575 151,574 152,573 153,573 154,572 154,571 155,570 156,570 157,569 158,569 159,569 160,568 160,568 161,568 162,567 163,567 164,565 165,565 166,565 167,564 167,564 168,563 169,562 170,562 171,562 172,561 173,560 173,560 174,560 175,558 176,556 177,555 178,554 179,554 180,554 180,553 181,553 182,551 183,551 184,550 185,549 186,549 186,548 187,547 188,546 189,546 190,545 191,545 192,545 193,543 193,543 194,542 195,540 196,540 197,539 198,539 199,538 199,538 200,536 201,536 202,536 203,535 204,533 205,533 206,532 206,531 207,530 208,530 209,529 210,529 211,529 212,528 212,527 213,526 214,525 215,523 216,521 217,521 218,521 219,521 219,521 220,520 221,520 222,520 223,520 224,519 225,518 225,518 226,517 227,516 228,516 229,516 230,515 231,513 232,513 232,513 233,513 234,512 235,511 236,511 237,509 238,509 238,508 239,508 240,508 241,506 242,506 243,504 244,504 245,504 245,504 246,503 247,502 248,501 249,500 250,499 251,499 251,499 252,499 253,498 254,497 255,495 256,495 257,495 258,494 258,494 259,493 260,493 261,493 262,491 263,490 264,489 264,489 265,488 266,487 267,486 268,486 269,485 270,485 271,485 271,484 272,483 273,482 274,482 275,482 276,481 277,481 277,480 278,479 279,478 280,478 281,478 282,477 283,477 284,477 284,475 285,475 286,474 287,473 288,473 289,473 290,472 290,472 291,472 292,471 293,470 294,470 295,470 296,470 297,469 297,469 298,468 299,468 300,468 301,468 302,468 303,467 303,466 304,465 305,465 306,465 307,465 308,464 309,464 310,464 310,464 311,463 312,462 313,462 314,462 315,461 316,460 316,460 317,459 318,458 319,455 320,455 321,454 322,454 323,454 323,453 324,453 325,452 326,452 327,451 328,450 329,450 329,450 330,449 331,449 332,449 333,448 334,447 335,447 335,447 336,446 337,446 338,445 339,444 340,444 341,444 342,444 342,443 343,442 344,441 345,441 346,441 347,439 348,439 348,438 349,437 350,437 351,435 352,434 353,434 354,433 355,433 355,431 356,431 357,430 358,430 359,430 360,429 361,429 361,428 362,428 363,427 364,426 365,425 366,424 367,423 368,423 368,421 369,420 370,420 371,420 372,420 373,419 374,418 374,418 375,417 376,416 377,416 378,414 379,414 380,413 381,413 381,413 382,413 383,412 384,412 385,412 386,411 387,411 387,410 388,409 389,408 390,408 391,408 392,408 393,408 394,407 394,407 395,406 396,406 397,406 398,405 399,404 400,404 400,403 401,402 402,402 403,401 404,400 405,400 406,400 407,400 407,400 408,399 409,399 410,398 411,398 412,398 413,398 413,398 414,397 415,397 416,397 417,397 418,396 419,396 420,395 420,395 421,395 422,393 423,393 424,393 425,392 426,391 426,391 427,390 428,389 429,389 430,389 431,388 432,388 433,388 433,386 434,386 435,386 436,386 437,385 438,384 439,384 439,383 440,382 441,382 442,381 443,381 444,380 445,379 446,379 446,378 447,376 448,376 449,376 450,376 451,376 452,374 452,373 453,373 454,371 455,371 456,371 457,370 458,370 459,369 459,369 460,369 461,368 462,367 463,367 464,367 465,366 465,366 466,365 467,365 468,364 469,364 470,362 471,361 472,361 472,361 473,361 474,360 475,360 476,359 477,359 478,358 478,357 479,356 480,356 481,356 482,355 483,354 484,354 485,354 485,354 486,353 487,353 488,353 489,352 490,352 491,352 491,351 492,351 493,351 494,351 495,350 496,350 497,348 497,348 498,348 499,348 500,347 501,346 502,345 503,345 504,345 504,345 505,345 506,344 507,344 508,344 509,344 510,343 510,342 511,342 512,341 513,341 514,341 515,340 516,339 517,338 517,337 518,336 519,336 520,336 521,335 522,335 523,334 523,334 524,334 525,333 526,332 527,331 528,330 529,330 530,329 530,329 531,329 532,329 533,329 534,329 535,329 536,328 536,327 537,327 538,327 539,327 540,326 541,326 542,326 543,325 543,325 544,325 545,325 546,324 547,324 548,324 549,322 549,322 550,322 551,321 552,320 553,319 554,318 555,318 556,317 556,317 557,316 558,315 559,314 560,314 561,314 562,313 562,313 563,312 564,311 565,311 566,310 567,310 568,310 569,309 569,308 570,308 571,307 572,307 573,306 574,306 575,306 575,305 576,305 577,305 578,304 579,304 580,304 581,304 582,304 582,304 583,303 584,303 585,302 586,301 587,301 588,301 588,300 589,298 590,297 591,296 592,296 593,295 594,294 595,294 595,293 596,292 597,291 598,291 599,290 600,290 601,290 601,290 602,289 603,289 604,289 605,289 606,288 607,287 608,287 608,287 609,287 610,287 611,286 612,285 613,285 614,284 614,283 615,283 616,283 617,282 618,281 619,281 620,280 621,279 621,279 622,279 623,278 624,278 625,278 626,277 627,277 627,276 628,276 629,276 630,276 631,275 632,275 633,275 634,275 634,275 635,273 636,273 637,273 638,273 639,273 640,272 640,271 641,270 642,270 643,269 644,268 645,267 646,267 647,267 647,266 648,265 649,265 650,264 651,263 652,262 653,262 653,262 654,262 655,261 656,258 657,257 658,257 659,257 659,257 660,256 661,256 662,256 663,255 664,254 665,253 666,253 666,251 667,251 668,250 669,250 670,249 671,249 672,249 672,248 673,247 674,246 675,246 676,246 677,244 678,243 679,243 679,242 680,241 681,241 682,241 683,241 684,240 685,240 685,240 686,238 687,238 688,238 689,237 690,236 691,236 692,235 692,235 693,235 694,235 695,234 696,234 697,234 698,233 698,231 699,231 700,230 701,230 702,230 703,230 704,229 705,229 705,229 706,229 707,229 708,228 709,228 710,226 711,226 711,226 712,225 713,225 714,224 715,224 716,223 717,222 718,222 718,222 719,222 720,221 721,221 722,220 723,220 724,220 724,219 725,218 726,218 727,217 728,217 729,217 730,217 731,216 731,215 732,215 733,215 734,214 735,214 736,213 737,213 737,213 738,212 739,211 740,211 741,211 742,211 743,210 744,209 744,209 745,209 746,208 747,208 748,207 749,207 750,206 750,206 751,205 752,204 753,204 754,203 755,202 756,202 757,202 757,202 758,201 759,200 760,200 761,199 762,199 763,199 763,199 764,197 765,196 766,195 767,194 768,194 769,194 770,194 770,193 771,193 772,192 773,192 774,192 775,191 776,190 776,189 777,189 778,188 779,187 780,187 781,187 782,185 783,185 783,184 784,183 785,182 786,182 787,182 788,182 789,182 789,182 790,181 791,180 792,180 793,179 794,179 795,179 796,178 796,177 797,177 798,177 799,176 800,176 801,175 802,175 802,174 803,174 804,173 805,172 806,172 807,172 808,172 809,171 809,171 810,171 811,170 812,170 813,170 814,169 815,169 815,168 816,168 817,167 818,166 819,166 820,166 821,165 822,165 822,165 823,164 824,163 825,163 826,163 827,163 828,162 828,162 829,161 830,160 831,160 832,159 833,159 834,158 834,158 835,157 836,157 837,157 838,157 839,156 840,156 841,156 841,155 842,155 843,154 844,153 845,153 846,152 847,151 847,151 848,151 849,151 850,149 851,149 852,148 853,147 854,147 854,147 855,146 856,146 857,145 858,144 859,144 860,143 860,142 861,142 862,141 863,140 864,140 865,140 866,139 867,139 867,138 868,137 869,136 870,136 871,136 872,135 873,135 873,134 874,133 875,133 876,133 877,133 878,132 879,132 880,131 880,131 881,131 882,131 883,129 884,129 885,129 886,129 886,129 887,129 888,127 889,127 890,127 891,126 892,126 893,125 893,125 894,125 895,125 896,125 897,125 898,125 899,124 899,123 900,123 901,123 902,122 903,122 904,122 905,122 906,121 906,120 907,120 908,120 909,120 910,118 911,118 912,117 912,117 913,117 914,116 915,115 916,115 917,115 918,114 919,114 919,113 920,112 921,111 922,111 923,109 924,108 925,107 925,107 926,106 927,106 928,105 929,105 930,105 931,105 932,104 932,103 933,103 934,102 935,100 936,100 937,99 938,99 938,97 939,96 940,96 941,96 942,96 943,95 944,95 945,94 945,93 946,93 947,92 948,92 949,92 950,91 951,91 951,91 952,90 953,90 954,89 955,88 956,88 957,88 958,88 958,88 959,87 960,87 961,87 962,87 963,87 964,86 964,86 965,85 966,84 967,84 967,84 968,84 969,83 970,83 971,82 971,82 972,81 972,81 973,81 973,81 974,81 "/>
<polygon opacity="1" fill="#3CB44B" points="107,699 107,601 107,601 108,601 109,600 109,598 110,598 111,597 112,596 113,595 114,594 115,594 115,594 116,594 117,593 118,593 119,593 120,593 121,593 122,591 122,590 123,590 124,589 125,589 126,588 127,587 128,587 128,587 129,587 130,585 131,585 132,585 133,585 134,585 135,585 135,584 136,584 137,584 138,583 139,583 140,583 141,583 141,582 142,581 143,581 144,581 145,581 146,580 147,580 148,580 148,579 149,578 150,578 151,578 152,577 153,577 154,576 154,575 155,575 156,574 157,574 158,574 159,573 160,573 160,573 161,572 162,572 163,572 164,570 165,570 166,570 167,569 167,569 168,568 169,568 170,568 171,567 172,567 173,566 173,566 174,566 175,564 176,562 177,561 178,561 179,561 180,561 180,560 181,559 182,558 183,558 184,557 185,556 186,556 186,555 187,553 188,553 189,553 190,553 191,552 192,552 193,551 193,551 194,549 195,548 196,547 197,547 198,547 199,546 199,545 200,544 201,544 202,544 203,543 204,541 205,541 206,540 206,540 207,539 208,539 209,538 210,538 211,538 212,537 212,536 213,535 214,534 215,532 216,531 217,531 218,531 219,531 219,531 220,530 221,530 222,530 223,529 224,529 225,528 225,528 226,527 227,526 228,526 229,526 230,525 231,524 232,523 232,523 233,523 234,522 235,522 236,521 237,520 238,520 238,519 239,518 240,518 241,517 242,517 243,515 244,515 245,514 245,514 246,514 247,513 248,512 249,511 250,510 251,510 251,510 252,510 253,509 254,508 255,506 256,506 257,506 258,505 258,505 259,505 260,505 261,505 262,503 263,502 264,501 264,501 265,500 266,499 267,499 268,498 269,497 270,497 271,497 271,497 272,496 273,495 274,494 275,494 276,494 277,494 277,493 278,492 279,492 280,491 281,491 282,491 283,490 284,490 284,489 285,488 286,487 287,487 288,487 289,486 290,486 290,486 291,486 292,485 293,485 294,484 295,484 296,484 297,483 297,483 298,483 299,483 300,483 301,483 302,483 303,481 303,480 304,480 305,480 306,479 307,479 308,479 309,479 310,479 310,479 311,478 312,478 313,477 314,477 315,476 316,476 316,475 317,474 318,473 319,471 320,470 321,470 322,470 323,470 323,470 324,469 325,469 326,468 327,467 328,467 329,467 329,466 330,466 331,466 332,466 333,465 334,464 335,464 335,464 336,463 337,463 338,463 339,462 340,461 341,461 342,461 342,461 343,460 344,459 345,459 346,459 347,457 348,456 348,456 349,455 350,455 351,453 352,452 353,452 354,451 355,451 355,449 356,449 357,448 358,448 359,448 360,448 361,447 361,447 362,446 363,445 364,444 365,444 366,443 367,442 368,441 368,440 369,439 370,439 371,439 372,438 373,438 374,437 374,436 375,436 376,435 377,435 378,433 379,433 380,432 381,432 381,432 382,432 383,431 384,431 385,431 386,430 387,430 387,429 388,429 389,428 390,428 391,428 392,427 393,427 394,426 394,426 395,426 396,426 397,426 398,425 399,425 400,424 400,423 401,423 402,422 403,422 404,421 405,421 406,421 407,420 407,420 408,420 409,420 410,419 411,419 412,419 413,418 413,418 414,418 415,418 416,418 417,418 418,418 419,417 420,417 420,416 421,416 422,414 423,414 424,414 425,414 426,413 426,412 427,412 428,411 429,411 430,411 431,410 432,410 433,410 433,408 434,408 435,408 436,408 437,407 438,406 439,406 439,405 440,404 441,404 442,403 443,403 444,402 445,401 446,401 446,401 447,399 448,399 449,399 450,399 451,399 452,397 452,396 453,395 454,394 455,394 456,394 457,393 458,393 459,392 459,392 460,392 461,391 462,390 463,390 464,390 465,389 465,389 466,389 467,388 468,387 469,387 470,386 471,385 472,385 472,384 473,384 474,384 475,383 476,383 477,383 478,382 478,381 479,380 480,380 481,380 482,379 483,378 484,378 485,378 485,378 486,378 487,378 488,377 489,376 490,376 491,376 491,376 492,376 493,376 494,376 495,375 496,375 497,373 497,373 498,373 499,373 500,371 501,371 502,370 503,370 504,370 504,370 505,370 506,370 507,369 508,369 509,369 510,368 510,368 511,367 512,367 513,366 514,366 515,366 516,365 517,363 517,362 518,362 519,362 520,362 521,360 522,360 523,360 523,360 524,360 525,359 526,358 527,358 528,356 529,356 530,356 530,356 531,356 532,356 533,356 534,355 535,355 536,354 536,354 537,354 538,354 539,354 540,354 541,354 542,353 543,353 543,352 544,352 545,352 546,351 547,351 548,351 549,349 549,349 550,349 551,348 552,347 553,346 554,346 555,346 556,345 556,345 557,344 558,343 559,342 560,342 561,342 562,341 562,341 563,341 564,340 565,339 566,339 567,339 568,338 569,338 569,337 570,336 571,336 572,336 573,335 574,335 575,335 575,334 576,334 577,334 578,334 579,334 580,334 581,334 582,334 582,333 583,333 584,333 585,332 586,331 587,331 588,331 588,329 589,328 590,327 591,326 592,326 593,325 594,325 595,325 595,324 596,323 597,322 598,322 599,321 600,321 601,321 601,320 602,320 603,320 604,320 605,320 606,319 607,318 608,318 608,318 609,318 610,318 611,317 612,317 613,316 614,315 614,315 615,315 616,314 617,313 618,313 619,313 620,311 621,311 621,311 622,311 623,310 624,310 625,310 626,310 627,310 627,309 628,309 629,309 630,309 631,308 632,308 633,308 634,308 634,308 635,307 636,306 637,306 638,306 639,306 640,305 640,305 641,304 642,304 643,303 644,302 645,301 646,301 647,301 647,301 648,300 649,299 650,299 651,298 652,297 653,297 653,297 654,297 655,295 656,293 657,292 658,292 659,292 659,292 660,291 661,291 662,291 663,290 664,289 665,288 666,288 666,286 667,286 668,286 669,286 670,285 671,285 672,284 672,284 673,283 674,282 675,282 676,282 677,280 678,279 679,279 679,279 680,278 681,277 682,277 683,277 684,277 685,277 685,276 686,274 687,274 688,274 689,273 690,273 691,272 692,272 692,272 693,272 694,272 695,271 696,271 697,271 698,270 698,269 699,268 700,268 701,268 702,268 703,268 704,267 705,267 705,267 706,267 707,267 708,267 709,266 710,265 711,265 711,264 712,264 713,264 714,263 715,263 716,262 717,262 718,261 718,261 719,261 720,261 721,261 722,260 723,260 724,260 724,259 725,259 726,258 727,258 728,257 729,257 730,257 731,257 731,256 732,256 733,256 734,255 735,255 736,254 737,254 737,254 738,253 739,253 740,252 741,252 742,252 743,252 744,251 744,251 745,251 746,250 747,250 748,249 749,249 750,249 750,248 751,248 752,247 753,247 754,245 755,245 756,244 757,244 757,244 758,244 759,243 760,242 761,242 762,242 763,242 763,241 764,240 765,239 766,238 767,237 768,237 769,237 770,237 770,236 771,236 772,235 773,235 774,235 775,235 776,234 776,233 777,233 778,232 779,231 780,231 781,231 782,230 783,230 783,229 784,228 785,228 786,228 787,228 788,227 789,227 789,227 790,227 791,226 792,226 793,225 794,225 795,225 796,224 796,224 797,224 798,223 799,223 800,223 801,223 802,222 802,221 803,221 804,220 805,220 806,220 807,219 808,219 809,219 809,219 810,219 811,218 812,218 813,218 814,217 815,216 815,216 816,216 817,216 818,216 819,215 820,215 821,214 822,214 822,214 823,214 824,213 825,213 826,213 827,213 828,212 828,212 829,210 830,210 831,210 832,209 833,208 834,208 834,208 835,207 836,207 837,207 838,207 839,206 840,206 841,206 841,205 842,205 843,204 844,203 845,203 846,203 847,202 847,202 848,202 849,202 850,201 851,200 852,200 853,199 854,199 854,199 855,198 856,198 857,197 858,196 859,196 860,196 860,194 861,194 862,193 863,193 864,193 865,192 866,192 867,192 867,191 868,191 869,190 870,189 871,189 872,188 873,188 873,188 874,188 875,188 876,187 877,187 878,186 879,186 880,186 880,186 881,186 882,186 883,184 884,184 885,184 886,184 886,184 887,184 888,183 889,183 890,183 891,182 892,182 893,181 893,181 894,181 895,181 896,181 897,181 898,181 899,180 899,179 900,179 901,179 902,178 903,178 904,178 905,178 906,177 906,177 907,176 908,176 909,176 910,175 911,175 912,174 912,174 913,174 914,173 915,173 916,173 917,173 918,172 919,172 919,171 920,170 921,169 922,169 923,167 924,166 925,166 925,165 926,165 927,164 928,163 929,163 930,163 931,163 932,163 932,162 933,162 934,161 935,160 936,160 937,160 938,159 938,157 939,157 940,157 941,156 942,156 943,156 944,155 945,155 945,154 946,154 947,154 948,154 949,154 950,153 951,153 951,153 952,153 953,152 954,152 955,151 956,151 957,151 958,151 958,150 959,150 960,150 961,150 962,150 963,150 964,149 964,149 965,148 966,148 967,148 967,148 968,148 969,147 970,147 971,147 971,146 972,146 972,146 973,146 973,146 974,146 974,699 107,699 "/>
<polyline fill="none" opacity="1" stroke="#3CB44B" stroke-width="1" points="107,699 107,601 107,601 108,601 109,600 109,598 110,598 111,597 112,596 113,595 114,594 115,594 115,594 116,594 117,593 118,593 119,593 120,593 121,593 122,591 122,590 123,590 124,589 125,589 126,588 127,587 128,587 128,587 129,587 130,585 131,585 132,585 133,585 134,585 135,585 135,584 136,584 137,584 138,583 139,583 140,583 141,583 141,582 142,581 143,581 144,581 145,581 146,580 147,580 148,580 148,579 149,578 150,578 151,578 152,577 153,577 154,576 154,575 155,575 156,574 157,574 158,574 159,573 160,573 160,573 161,572 162,572 163,572 164,570 165,570 166,570 167,569 167,569 168,568 169,568 170,568 171,567 172,567 173,566 173,566 174,566 175,564 176,562 177,561 178,561 179,561 180,561 180,560 181,559 182,558 183,558 184,557 185,556 186,556 186,555 187,553 188,553 189,553 190,553 191,552 192,552 193,551 193,551 194,549 195,548 196,547 197,547 198,547 199,546 199,545 200,544 201,544 202,544 203,543 204,541 205,541 206,540 206,540 207,539 208,539 209,538 210,538 211,538 212,537 212,536 213,535 214,534 215,532 216,531 217,531 218,531 219,531 219,531 220,530 221,530 222,530 223,529 224,529 225,528 225,528 226,527 227,526 228,526 229,526 230,525 231,524 232,523 232,523 233,523 234,522 235,522 236,521 237,520 238,520 238,519 239,518 240,518 241,517 242,517 243,515 244,515 245,514 245,514 246,514 247,513 248,512 249,511 250,510 251,510 251,510 252,510 253,509 254,508 255,506 256,506 257,506 258,505 258,505 259,505 260,505 261,505 262,503 263,502 264,501 264,501 265,500 266,499 267,499 268,498 269,497 270,497 271,497 271,497 272,496 273,495 274,494 275,494 276,494 277,494 277,493 278,492 279,492 280,491 281,491 282,491 283,490 284,490 284,489 285,488 286,487 287,487 288,487 289,486 290,486 290,486 291,486 292,485 293,485 294,484 295,484 296,484 297,483 297,483 298,483 299,483 300,483 301,483 302,483 303,481 303,480 304,480 305,480 306,479 307,479 308,479 309,479 310,479 310,479 311,478 312,478 313,477 314,477 315,476 316,476 316,475 317,474 318,473 319,471 320,470 321,470 322,470 323,470 323,470 324,469 325,469 326,468 327,467 328,467 329,467 329,466 330,466 331,466 332,466 333,465 334,464 335,464 335,464 336,463 337,463 338,463 339,462 340,461 341,461 342,461 342,461 343,460 344,459 345,459 346,459 347,457 348,456 348,456 349,455 350,455 351,453 352,452 353,452 354,451 355,451 355,449 356,449 357,448 358,448 359,448 360,448 361,447 361,447 362,446 363,445 364,444 365,444 366,443 367,442 368,441 368,440 369,439 370,439 371,439 372,438 373,438 374,437 374,436 375,436 376,435 377,435 378,433 379,433 380,432 381,432 381,432 382,432 383,431 384,431 385,431 386,430 387,430 387,429 388,429 389,428 390,428 391,428 392,427 393,427 394,426 394,426 395,426 396,426 397,426 398,425 399,425 400,424 400,423 401,423 402,422 403,422 404,421 405,421 406,421 407,420 407,420 408,420 409,420 410,419 411,419 412,419 413,418 413,418 414,418 415,418 416,418 417,418 418,418 419,417 420,417 420,416 421,416 422,414 423,414 424,414 425,414 426,413 426,412 427,412 428,411 429,411 430,411 431,410 432,410 433,410 433,408 434,408 435,408 436,408 437,407 438,406 439,406 439,405 440,404 441,404 442,403 443,403 444,402 445,401 446,401 446,401 447,399 448,399 449,399 450,399 451,399 452,397 452,396 453,395 454,394 455,394 456,394 457,393 458,393 459,392 459,392 460,392 461,391 462,390 463,390 464,390 465,389 465,389 466,389 467,388 468,387 469,387 470,386 471,385 472,385 472,384 473,384 474,384 475,383 476,383 477,383 478,382 478,381 479,380 480,380 481,380 482,379 483,378 484,378 485,378 485,378 486,378 487,378 488,377 489,376 490,376 491,376 491,376 492,376 493,376 494,376 495,375 496,375 497,373 497,373 498,373 499,373 500,371 501,371 502,370 503,370 504,370 504,370 505,370 506,370 507,369 508,369 509,369 510,368 510,368 511,367 512,367 513,366 514,366 515,366 516,365 517,363 517,362 518,362 519,362 520,362 521,360 522,360 523,360 523,360 524,360 525,359 526,358 527,358 528,356 529,356 530,356 530,356 531,356 532,356 533,356 534,355 535,355 536,354 536,354 537,354 538,354 539,354 540,354 541,354 542,353 543,353 543,352 544,352 545,352 546,351 547,351 548,351 549,349 549,349 550,349 551,348 552,347 553,346 554,346 555,346 556,345 556,345 557,344 558,343 559,342 560,342 561,342 562,341 562,341 563,341 564,340 565,339 566,339 567,339 568,338 569,338 569,337 570,336 571,336 572,336 573,335 574,335 575,335 575,334 576,334 577,334 578,334 579,334 580,334 581,334 582,334 582,333 583,333 584,333 585,332 586,331 587,331 588,331 588,329 589,328 590,327 591,326 592,326 593,325 594,325 595,325 595,324 596,323 597,322 598,322 599,321 600,321 601,321 601,320 602,320 603,320 604,320 605,320 606,319 607,318 608,318 608,318 609,318 610,318 611,317 612,317 613,316 614,315 614,315 615,315 616,314 617,313 618,313 619,313 620,311 621,311 621,311 622,311 623,310 624,310 625,310 626,310 627,310 627,309 628,309 629,309 630,309 631,308 632,308 633,308 634,308 634,308 635,307 636,306 637,306 638,306 639,306 640,305 640,305 641,304 642,304 643,303 644,302 645,301 646,301 647,301 647,301 648,300 649,299 650,299 651,298 652,297 653,297 653,297 654,297 655,295 656,293 657,292 658,292 659,292 659,292 660,291 661,291 662,291 663,290 664,289 665,288 666,288 666,286 667,286 668,286 669,286 670,285 671,285 672,284 672,284 673,283 674,282 675,282 676,282 677,280 678,279 679,279 679,279 680,278 681,277 682,277 683,277 684,277 685,277 685,276 686,274 687,274 688,274 689,273 690,273 691,272 692,272 692,272 693,272 694,272 695,271 696,271 697,271 698,270 698,269 699,268 700,268 701,268 702,268 703,268 704,267 705,267 705,267 706,267 707,267 708,267 709,266 710,265 711,265 711,264 712,264 713,264 714,263 715,263 716,262 717,262 718,261 718,261 719,261 720,261 721,261 722,260 723,260 724,260 724,259 725,259 726,258 727,258 728,257 729,257 730,257 731,257 731,256 732,256 733,256 734,255 735,255 736,254 737,254 737,254 738,253 739,253 740,252 741,252 742,252 743,252 744,251 744,251 745,251 746,250 747,250 748,249 749,249 750,249 750,248 751,248 752,247 753,247 754,245 755,245 756,244 757,244 757,244 758,244 759,243 760,242 761,242 762,242 763,242 763,241 764,240 765,239 766,238 767,237 768,237 769,237 770,237 770,236 771,236 772,235 773,235 774,235 775,235 776,234 776,233 777,233 778,232 779,231 780,231 781,231 782,230 783,230 783,229 784,228 785,228 786,228 787,228 788,227 789,227 789,227 790,227 791,226 792,226 793,225 794,225 795,225 796,224 796,224 797,224 798,223 799,223 800,223 801,223 802,222 802,221 803,221 804,220 805,220 806,220 807,219 808,219 809,219 809,219 810,219 811,218 812,218 813,218 814,217 815,216 815,216 816,216 817,216 818,216 819,215 820,215 821,214 822,214 822,214 823,214 824,213 825,213 826,213 827,213 828,212 828,212 829,210 830,210 831,210 832,209 833,208 834,208 834,208 835,207 836,207 837,207 838,207 839,206 840,206 841,206 841,205 842,205 843,204 844,203 845,203 846,203 847,202 847,202 848,202 849,202 850,201 851,200 852,200 853,199 854,199 854,199 855,198 856,198 857,197 858,196 859,196 860,196 860,194 861,194 862,193 863,193 864,193 865,192 866,192 867,192 867,191 868,191 869,190 870,189 871,189 872,188 873,188 873,188 874,188 875,188 876,187 877,187 878,186 879,186 880,186 880,186 881,186 882,186 883,184 884,184 885,184 886,184 886,184 887,184 888,183 889,183 890,183 891,182 892,182 893,181 893,181 894,181 895,181 896,181 897,181 898,181 899,180 899,179 900,179 901,179 902,178 903,178 904,178 905,178 906,177 906,177 907,176 908,176 909,176 910,175 911,175 912,174 912,174 913,174 914,173 915,173 916,173 917,173 918,172 919,172 919,171 920,170 921,169 922,169 923,167 924,166 925,166 925,165 926,165 927,164 928,163 929,163 930,163 931,163 932,163 932,162 933,162 934,161 935,160 936,160 937,160 938,159 938,157 939,157 940,157 941,156 942,156 943,156 944,155 945,155 945,154 946,154 947,154 948,154 949,154 950,153 951,153 951,153 952,153 953,152 954,152 955,151 956,151 957,151 958,151 958,150 959,150 960,150 961,150 962,150 963,150 964,149 964,149 965,148 966,148 967,148 967,148 968,148 969,147 970,147 971,147 971,146 972,146 972,146 973,146 973,146 974,146 "/>
<polygon opacity="1" fill="#E6194B" points="107,699 107,693 107,693 108,693 109,691 109,690 110,689 111,689 112,688 113,687 114,686 115,686 115,686 116,685 117,684 118,684 119,684 120,684 121,684 122,683 122,682 123,681 124,681 125,681 126,680 127,679 128,679 128,679 129,679 130,677 131,677 132,676 133,676 134,676 135,676 135,676 136,676 137,676 138,675 139,675 140,674 141,674 141,674 142,673 143,673 144,672 145,672 146,672 147,671 148,671 148,671 149,670 150,670 151,669 152,669 153,669 154,668 154,666 155,666 156,666 157,665 158,665 159,665 160,664 160,664 161,664 162,664 163,663 164,662 165,661 166,661 167,661 167,661 168,660 169,660 170,659 171,659 172,659 173,658 173,657 174,657 175,655 176,654 177,653 178,652 179,652 180,652 180,651 181,651 182,650 183,649 184,648 185,648 186,647 186,647 187,645 188,645 189,644 190,644 191,644 192,643 193,642 193,642 194,641 195,640 196,639 197,638 198,638 199,638 199,637 200,635 201,635 202,635 203,634 204,633 205,632 206,632 206,631 207,631 208,631 209,629 210,629 211,629 212,629 212,628 213,627 214,626 215,624 216,623 217,622 218,622 219,622 219,622 220,622 221,622 222,621 223,621 224,620 225,620 225,619 226,618 227,618 228,618 229,617 230,617 231,615 232,615 232,615 233,615 234,614 235,613 236,613 237,612 238,611 238,611 239,610 240,610 241,608 242,608 243,607 244,607 245,606 245,606 246,605 247,605 248,603 249,603 250,602 251,602 251,602 252,602 253,601 254,600 255,598 256,598 257,598 258,597 258,597 259,596 260,596 261,596 262,595 263,594 264,593 264,592 265,592 266,590 267,590 268,590 269,589 270,588 271,588 271,588 272,587 273,587 274,586 275,586 276,586 277,585 277,585 278,584 279,583 280,583 281,583 282,582 283,582 284,582 284,580 285,580 286,579 287,578 288,578 289,578 290,578 290,578 291,578 292,577 293,576 294,576 295,576 296,576 297,575 297,575 298,574 299,574 300,574 301,574 302,574 303,573 303,572 304,572 305,571 306,571 307,571 308,571 309,571 310,570 310,570 311,570 312,569 313,569 314,568 315,568 316,567 316,567 317,566 318,565 319,563 320,562 321,562 322,562 323,561 323,561 324,561 325,560 326,560 327,559 328,558 329,558 329,558 330,557 331,557 332,557 333,556 334,556 335,556 335,555 336,555 337,555 338,554 339,553 340,553 341,553 342,553 342,552 343,551 344,550 345,550 346,550 347,549 348,548 348,548 349,546 350,546 351,544 352,544 353,543 354,543 355,542 355,540 356,540 357,540 358,540 359,540 360,539 361,539 361,538 362,538 363,537 364,536 365,535 366,535 367,534 368,533 368,532 369,531 370,530 371,530 372,530 373,529 374,528 374,528 375,527 376,526 377,526 378,525 379,524 380,524 381,524 381,524 382,523 383,523 384,523 385,523 386,522 387,522 387,521 388,520 389,519 390,519 391,519 392,519 393,519 394,518 394,518 395,518 396,518 397,518 398,517 399,516 400,515 400,515 401,514 402,513 403,513 404,512 405,512 406,512 407,512 407,512 408,511 409,511 410,511 411,511 412,510 413,510 413,510 414,510 415,510 416,510 417,510 418,509 419,509 420,508 420,508 421,508 422,506 423,506 424,506 425,505 426,504 426,504 427,504 428,503 429,503 430,502 431,502 432,501 433,501 433,500 434,500 435,499 436,499 437,498 438,498 439,497 439,497 440,496 441,496 442,495 443,495 444,494 445,493 446,493 446,492 447,491 448,491 449,490 450,490 451,490 452,489 452,488 453,487 454,486 455,486 456,486 457,485 458,485 459,484 459,484 460,484 461,483 462,482 463,482 464,481 465,481 465,481 466,480 467,480 468,479 469,479 470,477 471,477 472,476 472,476 473,476 474,476 475,475 476,475 477,475 478,473 478,473 479,472 480,472 481,471 482,470 483,470 484,470 485,470 485,470 486,470 487,469 488,469 489,468 490,468 491,468 491,467 492,467 493,467 494,467 495,467 496,466 497,465 497,465 498,464 499,464 500,463 501,463 502,462 503,462 504,462 504,462 505,462 506,461 507,461 508,461 509,461 510,459 510,459 511,459 512,458 513,458 514,458 515,457 516,457 517,455 517,454 518,453 519,453 520,453 521,452 522,452 523,451 523,451 524,451 525,450 526,450 527,449 528,448 529,448 530,448 530,448 531,448 532,448 533,447 534,447 535,447 536,446 536,446 537,446 538,445 539,445 540,445 541,445 542,445 543,444 543,444 544,444 545,444 546,443 547,442 548,442 549,440 549,440 550,440 551,439 552,439 553,438 554,437 555,437 556,437 556,436 557,435 558,434 559,434 560,434 561,433 562,433 562,433 563,432 564,431 565,431 566,430 567,430 568,430 569,429 569,428 570,428 571,428 572,427 573,427 574,426 575,426 575,426 576,426 577,426 578,425 579,425 580,425 581,425 582,425 582,425 583,425 584,425 585,423 586,422 587,422 588,422 588,421 589,419 590,419 591,418 592,418 593,417 594,416 595,416 595,415 596,414 597,413 598,413 599,413 600,413 601,413 601,412 602,412 603,411 604,411 605,411 606,411 607,410 608,410 608,410 609,409 610,409 611,409 612,408 613,408 614,407 614,406 615,406 616,406 617,405 618,404 619,404 620,403 621,403 621,402 622,402 623,402 624,402 625,402 626,402 627,402 627,401 628,401 629,400 630,400 631,400 632,400 633,400 634,399 634,399 635,398 636,398 637,398 638,398 639,398 640,397 640,396 641,396 642,395 643,394 644,394 645,393 646,393 647,392 647,392 648,391 649,391 650,390 651,389 652,389 653,388 653,388 654,388 655,387 656,385 657,384 658,384 659,383 659,383 660,383 661,383 662,383 663,382 664,381 665,380 666,380 666,378 667,378 668,378 669,378 670,377 671,376 672,376 672,376 673,375 674,374 675,374 676,374 677,372 678,371 679,370 679,370 680,369 681,369 682,369 683,369 684,368 685,368 685,368 686,366 687,365 688,365 689,365 690,364 691,364 692,363 692,363 693,363 694,363 695,363 696,363 697,363 698,362 698,360 699,360 700,359 701,359 702,359 703,359 704,359 705,359 705,359 706,359 707,359 708,358 709,358 710,357 711,356 711,356 712,356 713,355 714,355 715,354 716,354 717,353 718,353 718,353 719,353 720,352 721,352 722,352 723,352 724,352 724,351 725,350 726,350 727,349 728,349 729,349 730,349 731,349 731,348 732,348 733,347 734,347 735,347 736,346 737,346 737,346 738,345 739,344 740,344 741,344 742,344 743,344 744,342 744,342 745,342 746,342 747,342 748,340 749,340 750,340 750,340 751,339 752,338 753,338 754,337 755,336 756,336 757,336 757,336 758,335 759,334 760,334 761,334 762,334 763,334 763,333 764,331 765,330 766,330 767,329 768,329 769,328 770,328 770,328 771,327 772,327 773,327 774,327 775,326 776,326 776,325 777,324 778,324 779,323 780,323 781,323 782,322 783,321 783,320 784,319 785,319 786,319 787,319 788,319 789,319 789,319 790,319 791,318 792,318 793,317 794,317 795,317 796,316 796,315 797,315 798,315 799,315 800,314 801,314 802,314 802,313 803,313 804,312 805,311 806,311 807,311 808,311 809,311 809,311 810,311 811,309 812,309 813,309 814,308 815,308 815,308 816,307 817,307 818,307 819,306 820,306 821,306 822,306 822,305 823,305 824,304 825,304 826,304 827,304 828,304 828,303 829,302 830,302 831,301 832,301 833,300 834,300 834,299 835,299 836,299 837,298 838,298 839,298 840,297 841,297 841,297 842,297 843,296 844,295 845,295 846,295 847,294 847,294 848,294 849,293 850,292 851,292 852,291 853,290 854,290 854,290 855,290 856,289 857,289 858,288 859,288 860,287 860,286 861,286 862,285 863,284 864,284 865,284 866,284 867,283 867,283 868,282 869,281 870,281 871,281 872,280 873,280 873,280 874,279 875,279 876,279 877,279 878,278 879,278 880,277 880,277 881,277 882,277 883,276 884,276 885,276 886,276 886,276 887,276 888,274 889,274 890,274 891,274 892,273 893,273 893,273 894,272 895,272 896,272 897,272 898,272 899,272 899,271 900,271 901,271 902,270 903,270 904,270 905,269 906,269 906,268 907,268 908,268 909,268 910,267 911,266 912,266 912,265 913,265 914,265 915,265 916,265 917,264 918,264 919,263 919,263 920,261 921,261 922,260 923,259 924,258 925,257 925,257 926,256 927,256 928,255 929,255 930,255 931,255 932,254 932,254 933,254 934,253 935,252 936,251 937,251 938,250 938,249 939,248 940,248 941,248 942,248 943,247 944,247 945,246 945,246 946,246 947,245 948,245 949,245 950,244 951,244 951,244 952,244 953,243 954,243 955,243 956,242 957,242 958,242 958,242 959,242 960,242 961,242 962,242 963,242 964,240 964,240 965,240 966,239 967,239 967,239 968,239 969,238 970,238 971,238 971,238 972,237 972,237 973,237 973,237 974,237 974,699 107,699 "/>
<polyline fill="none" opacity="1" stroke="#E6194B" stroke-width="1" points="107,699 107,693 107,693 108,693 109,691 109,690 110,689 111,689 112,688 113,687 114,686 115,686 115,686 116,685 117,684 118,684 119,684 120,684 121,684 122,683 122,682 123,681 124,681 125,681 126,680 127,679 128,679 128,679 129,679 130,677 131,677 132,676 133,676 134,676 135,676 135,676 136,676 137,676 138,675 139,675 140,674 141,674 141,674 142,673 143,673 144,672 145,672 146,672 147,671 148,671 148,671 149,670 150,670 151,669 152,669 153,669 154,668 154,666 155,666 156,666 157,665 158,665 159,665 160,664 160,664 161,664 162,664 163,663 164,662 165,661 166,661 167,661 167,661 168,660 169,660 170,659 171,659 172,659 173,658 173,657 174,657 175,655 176,654 177,653 178,652 179,652 180,652 180,651 181,651 182,650 183,649 184,648 185,648 186,647 186,647 187,645 188,645 189,644 190,644 191,644 192,643 193,642 193,642 194,641 195,640 196,639 197,638 198,638 199,638 199,637 200,635 201,635 202,635 203,634 204,633 205,632 206,632 206,631 207,631 208,631 209,629 210,629 211,629 212,629 212,628 213,627 214,626 215,624 216,623 217,622 218,622 219,622 219,622 220,622 221,622 222,621 223,621 224,620 225,620 225,619 226,618 227,618 228,618 229,617 230,617 231,615 232,615 232,615 233,615 234,614 235,613 236,613 237,612 238,611 238,611 239,610 240,610 241,608 242,608 243,607 244,607 245,606 245,606 246,605 247,605 248,603 249,603 250,602 251,602 251,602 252,602 253,601 254,600 255,598 256,598 257,598 258,597 258,597 259,596 260,596 261,596 262,595 263,594 264,593 264,592 265,592 266,590 267,590 268,590 269,589 270,588 271,588 271,588 272,587 273,587 274,586 275,586 276,586 277,585 277,585 278,584 279,583 280,583 281,583 282,582 283,582 284,582 284,580 285,580 286,579 287,578 288,578 289,578 290,578 290,578 291,578 292,577 293,576 294,576 295,576 296,576 297,575 297,575 298,574 299,574 300,574 301,574 302,574 303,573 303,572 304,572 305,571 306,571 307,571 308,571 309,571 310,570 310,570 311,570 312,569 313,569 314,568 315,568 316,567 316,567 317,566 318,565 319,563 320,562 321,562 322,562 323,561 323,561 324,561 325,560 326,560 327,559 328,558 329,558 329,558 330,557 331,557 332,557 333,556 334,556 335,556 335,555 336,555 337,555 338,554 339,553 340,553 341,553 342,553 342,552 343,551 344,550 345,550 346,550 347,549 348,548 348,548 349,546 350,546 351,544 352,544 353,543 354,543 355,542 355,540 356,540 357,540 358,540 359,540 360,539 361,539 361,538 362,538 363,537 364,536 365,535 366,535 367,534 368,533 368,532 369,531 370,530 371,530 372,530 373,529 374,528 374,528 375,527 376,526 377,526 378,525 379,524 380,524 381,524 381,524 382,523 383,523 384,523 385,523 386,522 387,522 387,521 388,520 389,519 390,519 391,519 392,519 393,519 394,518 394,518 395,518 396,518 397,518 398,517 399,516 400,515 400,515 401,514 402,513 403,513 404,512 405,512 406,512 407,512 407,512 408,511 409,511 410,511 411,511 412,510 413,510 413,510 414,510 415,510 416,510 417,510 418,509 419,509 420,508 420,508 421,508 422,506 423,506 424,506 425,505 426,504 426,504 427,504 428,503 429,503 430,502 431,502 432,501 433,501 433,500 434,500 435,499 436,499 437,498 438,498 439,497 439,497 440,496 441,496 442,495 443,495 444,494 445,493 446,493 446,492 447,491 448,491 449,490 450,490 451,490 452,489 452,488 453,487 454,486 455,486 456,486 457,485 458,485 459,484 459,484 460,484 461,483 462,482 463,482 464,481 465,481 465,481 466,480 467,480 468,479 469,479 470,477 471,477 472,476 472,476 473,476 474,476 475,475 476,475 477,475 478,473 478,473 479,472 480,472 481,471 482,470 483,470 484,470 485,470 485,470 486,470 487,469 488,469 489,468 490,468 491,468 491,467 492,467 493,467 494,467 495,467 496,466 497,465 497,465 498,464 499,464 500,463 501,463 502,462 503,462 504,462 504,462 505,462 506,461 507,461 508,461 509,461 510,459 510,459 511,459 512,458 513,458 514,458 515,457 516,457 517,455 517,454 518,453 519,453 520,453 521,452 522,452 523,451 523,451 524,451 525,450 526,450 527,449 528,448 529,448 530,448 530,448 531,448 532,448 533,447 534,447 535,447 536,446 536,446 537,446 538,445 539,445 540,445 541,445 542,445 543,444 543,444 544,444 545,444 546,443 547,442 548,442 549,440 549,440 550,440 551,439 552,439 553,438 554,437 555,437 556,437 556,436 557,435 558,434 559,434 560,434 561,433 562,433 562,433 563,432 564,431 565,431 566,430 567,430 568,430 569,429 569,428 570,428 571,428 572,427 573,427 574,426 575,426 575,426 576,426 577,426 578,425 579,425 580,425 581,425 582,425 582,425 583,425 584,425 585,423 586,422 587,422 588,422 588,421 589,419 590,419 591,418 592,418 593,417 594,416 595,416 595,415 596,414 597,413 598,413 599,413 600,413 601,413 601,412 602,412 603,411 604,411 605,411 606,411 607,410 608,410 608,410 609,409 610,409 611,409 612,408 613,408 614,407 614,406 615,406 616,406 617,405 618,404 619,404 620,403 621,403 621,402 622,402 623,402 624,402 625,402 626,402 627,402 627,401 628,401 629,400 630,400 631,400 632,400 633,400 634,399 634,399 635,398 636,398 637,398 638,398 639,398 640,397 640,396 641,396 642,395 643,394 644,394 645,393 646,393 647,392 647,392 648,391 649,391 650,390 651,389 652,389 653,388 653,388 654,388 655,387 656,385 657,384 658,384 659,383 659,383 660,383 661,383 662,383 663,382 664,381 665,380 666,380 666,378 667,378 668,378 669,378 670,377 671,376 672,376 672,376 673,375 674,374 675,374 676,374 677,372 678,371 679,370 679,370 680,369 681,369 682,369 683,369 684,368 685,368 685,368 686,366 687,365 688,365 689,365 690,364 691,364 692,363 692,363 693,363 694,363 695,363 696,363 697,363 698,362 698,360 699,360 700,359 701,359 702,359 703,359 704,359 705,359 705,359 706,359 707,359 708,358 709,358 710,357 711,356 711,356 712,356 713,355 714,355 715,354 716,354 717,353 718,353 718,353 719,353 720,352 721,352 722,352 723,352 724,352 724,351 725,350 726,350 727,349 728,349 729,349 730,349 731,349 731,348 732,348 733,347 734,347 735,347 736,346 737,346 737,346 738,345 739,344 740,344 741,344 742,344 743,344 744,342 744,342 745,342 746,342 747,342 748,340 749,340 750,340 750,340 751,339 752,338 753,338 754,337 755,336 756,336 757,336 757,336 758,335 759,334 760,334 761,334 762,334 763,334 763,333 764,331 765,330 766,330 767,329 768,329 769,328 770,328 770,328 771,327 772,327 773,327 774,327 775,326 776,326 776,325 777,324 778,324 779,323 780,323 781,323 782,322 783,321 783,320 784,319 785,319 786,319 787,319 788,319 789,319 789,319 790,319 791,318 792,318 793,317 794,317 795,317 796,316 796,315 797,315 798,315 799,315 800,314 801,314 802,314 802,313 803,313 804,312 805,311 806,311 807,311 808,311 809,311 809,311 810,311 811,309 812,309 813,309 814,308 815,308 815,308 816,307 817,307 818,307 819,306 820,306 821,306 822,306 822,305 823,305 824,304 825,304 826,304 827,304 828,304 828,303 829,302 830,302 831,301 832,301 833,300 834,300 834,299 835,299 836,299 837,298 838,298 839,298 840,297 841,297 841,297 842,297 843,296 844,295 845,295 846,295 847,294 847,294 848,294 849,293 850,292 851,292 852,291 853,290 854,290 854,290 855,290 856,289 857,289 858,288 859,288 860,287 860,286 861,286 862,285 863,284 864,284 865,284 866,284 867,283 867,283 868,282 869,281 870,281 871,281 872,280 873,280 873,280 874,279 875,279 876,279 877,279 878,278 879,278 880,277 880,277 881,277 882,277 883,276 884,276 885,276 886,276 886,276 887,276 888,274 889,274 890,274 891,274 892,273 893,273 893,273 894,272 895,272 896,272 897,272 898,272 899,272 899,271 900,271 901,271 902,270 903,270 904,270 905,269 906,269 906,268 907,268 908,268 909,268 910,267 911,266 912,266 912,265 913,265 914,265 915,265 916,265 917,264 918,264 919,263 919,263 920,261 921,261 922,260 923,259 924,258 925,257 925,257 926,256 927,256 928,255 929,255 930,255 931,255 932,254 932,254 933,254 934,253 935,252 936,251 937,251 938,250 938,249 939,248 940,248 941,248 942,248 943,247 944,247 945,246 945,246 946,246 947,245 948,245 949,245 950,244 951,244 951,244 952,244 953,243 954,243 955,243 956,242 957,242 958,242 958,242 959,242 960,242 961,242 962,242 963,242 964,240 964,240 965,240 966,239 967,239 967,239 968,239 969,238 970,238 971,238 971,238 972,237 972,237 973,237 973,237 974,237 "/>
<line opacity="0.1" stroke="#000000" stroke-width="1" x1="85" y1="699" x2="85" y2="67"/>
<line opacity="0.1" stroke="#000000" stroke-width="1" x1="103" y1="699" x2="103" y2="67"/>
<line opacity="0.1" stroke="#000000" stroke-width="1" x1="121" y1="699" x2="121" y2="67"/>
<line opacity="0.1" stroke="#000000" stroke-width="1" x1="139" y1="699" x2="139" y2="67"/>
<line opacity="0.1" stroke="#000000" stroke-width="1" x1="157" y1="699" x2="157" y2="67"/>
<line opacity="0.1" stroke="#000000" stroke-width="1" x1="174" y1="699" x2="174" y2="67"/>
<line opacity="0.1" stroke="#000000" stroke-width="1" x1="192" y1="699" x2="192" y2="67"/>
<line opacity="0.1" stroke="#000000" stroke-width="1" x1="210" y1="699" x2="210" y2="67"/>
<line opacity="0.1" stroke="#000000" stroke-width="1" x1="228" y1="699" x2="228" y2="67"/>
<line opacity="0.1" stroke="#000000" stroke-width="1" x1="246" y1="699" x2="246" y2="67"/>
<line opacity="0.1" stroke="#000000" stroke-width="1" x1="264" y1="699" x2="264" y2="67"/>
<line opacity="0.1" stroke="#000000" stroke-width="1" x1="282" y1="699" x2="282" y2="67"/>
<line opacity="0.1" stroke="#000000" stroke-width="1" x1="300" y1="699" x2="300" y2="67"/>
<line opacity="0.1" stroke="#000000" stroke-width="1" x1="318" y1="699" x2="318" y2="67"/>
<line opacity="0.1" stroke="#000000" stroke-width="1" x1="336" y1="699" x2="336" y2="67"/>
<line opacity="0.1" stroke="#000000" stroke-width="1" x1="354" y1="699" x2="354" y2="67"/>
<line opacity="0.1" stroke="#000000" stroke-width="1" x1="372" y1="699" x2="372" y2="67"/>
<line opacity="0.1" stroke="#000000" stroke-width="1" x1="389" y1="699" x2="389" y2="67"/>
<line opacity="0.1" stroke="#000000" stroke-width="1" x1="407" y1="699" x2="407" y2="67"/>
<line opacity="0.1" stroke="#000000" stroke-width="1" x1="425" y1="699" x2="425" y2="67"/>
<line opacity="0.1" stroke="#000000" stroke-width="1" x1="443" y1="699" x2="443" y2="67"/>
<line opacity="0.1" stroke="#000000" stroke-width="1" x1="461" y1="699" x2="461" y2="67"/>
<line opacity="0.1" stroke="#000000" stroke-width="1" x1="479" y1="699" x2="479" y2="67"/>
<line opacity="0.1" stroke="#000000" stroke-width="1" x1="497" y1="699" x2="497" y2="67"/>
<line opacity="0.1" stroke="#000000" stroke-width="1" x1="515" y1="699" x2="515" y2="67"/>
<line opacity="0.1" stroke="#000000" stroke-width="1" x1="533" y1="699" x2="533" y2="67"/>
<line opacity="0.1" stroke="#000000" stroke-width="1" x1="551" y1="699" x2="551" y2="67"/>
<line opacity="0.1" stroke="#000000" stroke-width="1" x1="569" y1="699" x2="569" y2="67"/>
<line opacity="0.1" stroke="#000000" stroke-width="1" x1="587" y1="699" x2="587" y2="67"/>
<line opacity="0.1" stroke="#000000" stroke-width="1" x1="604" y1="699" x2="604" y2="67"/>
<line opacity="0.1" stroke="#000000" stroke-width="1" x1="622" y1="699" x2="622" y2="67"/>
<line opacity="0.1" stroke="#000000" stroke-width="1" x1="640" y1="699" x2="640" y2="67"/>
<line opacity="0.1" stroke="#000000" stroke-width="1" x1="658" y1="699" x2="658" y2="67"/>
<line opacity="0.1" stroke="#000000" stroke-width="1" x1="676" y1="699" x2="676" y2="67"/>
<line opacity="0.1" stroke="#000000" stroke-width="1" x1="694" y1="699" x2="694" y2="67"/>
<line opacity="0.1" stroke="#000000" stroke-width="1" x1="712" y1="699" x2="712" y2="67"/>
<line opacity="0.1" stroke="#000000" stroke-width="1" x1="730" y1="699" x2="730" y2="67"/>
<line opacity="0.1" stroke="#000000" stroke-width="1" x1="748" y1="699" x2="748" y2="67"/>
<line opacity="0.1" stroke="#000000" stroke-width="1" x1="766" y1="699" x2="766" y2="67"/>
<line opacity="0.1" stroke="#000000" stroke-width="1" x1="784" y1="699" x2="784" y2="67"/>
<line opacity="0.1" stroke="#000000" stroke-width="1" x1="802" y1="699" x2="802" y2="67"/>
<line opacity="0.1" stroke="#000000" stroke-width="1" x1="819" y1="699" x2="819" y2="67"/>
<line opacity="0.1" stroke="#000000" stroke-width="1" x1="837" y1="699" x2="837" y2="67"/>
<line opacity="0.1" stroke="#000000" stroke-width="1" x1="855" y1="699" x2="855" y2="67"/>
<line opacity="0.1" stroke="#000000" stroke-width="1" x1="873" y1="699" x2="873" y2="67"/>
<line opacity="0.1" stroke="#000000" stroke-width="1" x1="891" y1="699" x2="891" y2="67"/>
<line opacity="0.1" stroke="#000000" stroke-width="1" x1="909" y1="699" x2="909" y2="67"/>
<line opacity="0.1" stroke="#000000" stroke-width="1" x1="927" y1="699" x2="927" y2="67"/>
<line opacity="0.1" stroke="#000000" stroke-width="1" x1="945" y1="699" x2="945" y2="67"/>
<line opacity="0.1" stroke="#000000" stroke-width="1" x1="963" y1="699" x2="963" y2="67"/>
<line opacity="0.1" stroke="#000000" stroke-width="1" x1="78" y1="699" x2="974" y2="699"/>
<line opacity="0.1" stroke="#000000" stroke-width="1" x1="78" y1="686" x2="974" y2="686"/>
<line opacity="0.1" stroke="#000000" stroke-width="1" x1="78" y1="673" x2="974" y2="673"/>
<line opacity="0.1" stroke="#000000" stroke-width="1" x1="78" y1="661" x2="974" y2="661"/>
<line opacity="0.1" stroke="#000000" stroke-width="1" x1="78" y1="648" x2="974" y2="648"/>
<line opacity="0.1" stroke="#000000" stroke-width="1" x1="78" y1="636" x2="974" y2="636"/>
<line opacity="0.1" stroke="#000000" stroke-width="1" x1="78" y1="623" x2="974" y2="623"/>
<line opacity="0.1" stroke="#000000" stroke-width="1" x1="78" y1="610" x2="974" y2="610"/>
<line opacity="0.1" stroke="#000000" stroke-width="1" x1="78" y1="598" x2="974" y2="598"/>
<line opacity="0.1" stroke="#000000" stroke-width="1" x1="78" y1="585" x2="974" y2="585"/>
<line opacity="0.1" stroke="#000000" stroke-width="1" x1="78" y1="573" x2="974" y2="573"/>
<line opacity="0.1" stroke="#000000" stroke-width="1" x1="78" y1="560" x2="974" y2="560"/>
<line opacity="0.1" stroke="#000000" stroke-width="1" x1="78" y1="547" x2="974" y2="547"/>
<line opacity="0.1" stroke="#000000" stroke-width="1" x1="78" y1="535" x2="974" y2="535"/>
<line opacity="0.1" stroke="#000000" stroke-width="1" x1="78" y1="522" x2="974" y2="522"/>
<line opacity="0.1" stroke="#000000" stroke-width="1" x1="78" y1="510" x2="974" y2="510"/>
<line opacity="0.1" stroke="#000000" stroke-width="1" x1="78" y1="497" x2="974" y2="497"/>
<line opacity="0.1" stroke="#000000" stroke-width="1" x1="78" y1="484" x2="974" y2="484"/>
<line opacity="0.1" stroke="#000000" stroke-width="1" x1="78" y1="472" x2="974" y2="472"/>
<line opacity="0.1" stroke="#000000" stroke-width="1" x1="78" y1="459" x2="974" y2="459"/>
<line opacity="0.1" stroke="#000000" stroke-width="1" x1="78" y1="447" x2="974" y2="447"/>
<line opacity="0.1" stroke="#000000" stroke-width="1" x1="78" y1="434" x2="974" y2="434"/>
<line opacity="0.1" stroke="#000000" stroke-width="1" x1="78" y1="421" x2="974" y2="421"/>
<line opacity="0.1" stroke="#000000" stroke-width="1" x1="78" y1="409" x2="974" y2="409"/>
<line opacity="0.1" stroke="#000000" stroke-width="1" x1="78" y1="396" x2="974" y2="396"/>
<line opacity="0.1" stroke="#000000" stroke-width="1" x1="78" y1="384" x2="974" y2="384"/>
<line opacity="0.1" stroke="#000000" stroke-width="1" x1="78" y1="371" x2="974" y2="371"/>
<line opacity="0.1" stroke="#000000" stroke-width="1" x1="78" y1="358" x2="974" y2="358"/>
<line opacity="0.1" stroke="#000000" stroke-width="1" x1="78" y1="346" x2="974" y2="346"/>
<line opacity="0.1" stroke="#000000" stroke-width="1" x1="78" y1="333" x2="974" y2="333"/>
<line opacity="0.1" stroke="#000000" stroke-width="1" x1="78" y1="321" x2="974" y2="321"/>
<line opacity="0.1" stroke="#000000" stroke-width="1" x1="78" y1="308" x2="974" y2="308"/>
<line opacity="0.1" stroke="#000000" stroke-width="1" x1="78" y1="295" x2="974" y2="295"/>
<line opacity="0.1" stroke="#000000" stroke-width="1" x1="78" y1="283" x2="974" y2="283"/>
<line opacity="0.1" stroke="#000000" stroke-width="1" x1="78" y1="270" x2="974" y2="270"/>
<line opacity="0.1" stroke="#000000" stroke-width="1" x1="78" y1="258" x2="974" y2="258"/>
<line opacity="0.1" stroke="#000000" stroke-width="1" x1="78" y1="245" x2="974" y2="245"/>
<line opacity="0.1" stroke="#000000" stroke-width="1" x1="78" y1="232" x2="974" y2="232"/>
<line opacity="0.1" stroke="#000000" stroke-width="1" x1="78" y1="220" x2="974" y2="220"/>
<line opacity="0.1" stroke="#000000" stroke-width="1" x1="78" y1="207" x2="974" y2="207"/>
<line opacity="0.1" stroke="#000000" stroke-width="1" x1="78" y1="195" x2="974" y2="195"/>
<line opacity="0.1" stroke="#000000" stroke-width="1" x1="78" y1="182" x2="974" y2="182"/>
<line opacity="0.1" stroke="#000000" stroke-width="1" x1="78" y1="170" x2="974" y2="170"/>
<line opacity="0.1" stroke="#000000" stroke-width="1" x1="78" y1="157" x2="974" y2="157"/>
<line opacity="0.1" stroke="#000000" stroke-width="1" x1="78" y1="144" x2="974" y2="144"/>
<line opacity="0.1" stroke="#000000" stroke-width="1" x1="78" y1="132" x2="974" y2="132"/>
<line opacity="0.1" stroke="#000000" stroke-width="1" x1="78" y1="119" x2="974" y2="119"/>
<line opacity="0.1" stroke="#000000" stroke-width="1" x1="78" y1="107" x2="974" y2="107"/>
<line opacity="0.1" stroke="#000000" stroke-width="1" x1="78" y1="94" x2="974" y2="94"/>
<line opacity="0.1" stroke="#000000" stroke-width="1" x1="78" y1="81" x2="974" y2="81"/>
<line opacity="0.1" stroke="#000000" stroke-width="1" x1="78" y1="69" x2="974" y2="69"/>
<text x="8" y="384" dy="0.76em" text-anchor="middle" font-family="sans-serif" font-size="9.67741935483871" opacity="1" fill="#000000" transform="rotate(270, 8, 384)">
Memory usage
</text>
<text x="526" y="760" dy="-0.5ex" text-anchor="middle" font-family="sans-serif" font-size="9.67741935483871" opacity="1" fill="#000000">
Time
</text>
<line opacity="0.2" stroke="#000000" stroke-width="1" x1="192" y1="699" x2="192" y2="67"/>
<line opacity="0.2" stroke="#000000" stroke-width="1" x1="372" y1="699" x2="372" y2="67"/>
<line opacity="0.2" stroke="#000000" stroke-width="1" x1="551" y1="699" x2="551" y2="67"/>
<line opacity="0.2" stroke="#000000" stroke-width="1" x1="730" y1="699" x2="730" y2="67"/>
<line opacity="0.2" stroke="#000000" stroke-width="1" x1="909" y1="699" x2="909" y2="67"/>
<line opacity="0.2" stroke="#000000" stroke-width="1" x1="78" y1="699" x2="974" y2="699"/>
<line opacity="0.2" stroke="#000000" stroke-width="1" x1="78" y1="573" x2="974" y2="573"/>
<line opacity="0.2" stroke="#000000" stroke-width="1" x1="78" y1="447" x2="974" y2="447"/>
<line opacity="0.2" stroke="#000000" stroke-width="1" x1="78" y1="321" x2="974" y2="321"/>
<line opacity="0.2" stroke="#000000" stroke-width="1" x1="78" y1="195" x2="974" y2="195"/>
<line opacity="0.2" stroke="#000000" stroke-width="1" x1="78" y1="69" x2="974" y2="69"/>
<polyline fill="none" opacity="1" stroke="#000000" stroke-width="1" points="77,68 77,700 "/>
<text x="68" y="699" dy="0.5ex" text-anchor="end" font-family="sans-serif" font-size="9.67741935483871" opacity="1" fill="#000000">
0 KB
</text>
<polyline fill="none" opacity="1" stroke="#000000" stroke-width="1" points="72,699 77,699 "/>
<text x="68" y="573" dy="0.5ex" text-anchor="end" font-family="sans-serif" font-size="9.67741935483871" opacity="1" fill="#000000">
97 KB
</text>
<polyline fill="none" opacity="1" stroke="#000000" stroke-width="1" points="72,573 77,573 "/>
<text x="68" y="447" dy="0.5ex" text-anchor="end" font-family="sans-serif" font-size="9.67741935483871" opacity="1" fill="#000000">
195 KB
</text>
<polyline fill="none" opacity="1" stroke="#000000" stroke-width="1" points="72,447 77,447 "/>
<text x="68" y="321" dy="0.5ex" text-anchor="end" font-family="sans-serif" font-size="9.67741935483871" opacity="1" fill="#000000">
292 KB
</text>
<polyline fill="none" opacity="1" stroke="#000000" stroke-width="1" points="72,321 77,321 "/>
<text x="68" y="195" dy="0.5ex" text-anchor="end" font-family="sans-serif" font-size="9.67741935483871" opacity="1" fill="#000000">
390 KB
</text>
<polyline fill="none" opacity="1" stroke="#000000" stroke-width="1" points="72,195 77,195 "/>
<text x="68" y="69" dy="0.5ex" text-anchor="end" font-family="sans-serif" font-size="9.67741935483871" opacity="1" fill="#000000">
488 KB
</text>
<polyline fill="none" opacity="1" stroke="#000000" stroke-width="1" points="72,69 77,69 "/>
<polyline fill="none" opacity="1" stroke="#000000" stroke-width="1" points="78,700 974,700 "/>
<text x="192" y="710" dy="0.76em" text-anchor="middle" font-family="sans-serif" font-size="9.67741935483871" opacity="1" fill="#000000">
06:26:08
</text>
<polyline fill="none" opacity="1" stroke="#000000" stroke-width="1" points="192,700 192,705 "/>
<text x="372" y="710" dy="0.76em" text-anchor="middle" font-family="sans-serif" font-size="9.67741935483871" opacity="1" fill="#000000">
06:26:10
</text>
<polyline fill="none" opacity="1" stroke="#000000" stroke-width="1" points="372,700 372,705 "/>
<text x="551" y="710" dy="0.76em" text-anchor="middle" font-family="sans-serif" font-size="9.67741935483871" opacity="1" fill="#000000">
06:26:12
</text>
<polyline fill="none" opacity="1" stroke="#000000" stroke-width="1" points="551,700 551,705 "/>
<text x="730" y="710" dy="0.76em" text-anchor="middle" font-family="sans-serif" font-size="9.67741935483871" opacity="1" fill="#000000">
06:26:14
</text>
<polyline fill="none" opacity="1" stroke="#000000" stroke-width="1" points="730,700 730,705 "/>
<text x="909" y="710" dy="0.76em" text-anchor="middle" font-family="sans-serif" font-size="9.67741935483871" opacity="1" fill="#000000">
06:26:16
</text>
<polyline fill="none" opacity="1" stroke="#000000" stroke-width="1" points="909,700 909,705 "/>
<polyline fill="none" opacity="1" stroke="#000000" stroke-width="1" points="78,67 974,67 "/>
<text x="192" y="58" dy="-0.5ex" text-anchor="middle" font-family="sans-serif" font-size="9.67741935483871" opacity="1" fill="#000000">
+1s
</text>
<polyline fill="none" opacity="1" stroke="#000000" stroke-width="1" points="192,62 192,67 "/>
<text x="372" y="58" dy="-0.5ex" text-anchor="middle" font-family="sans-serif" font-size="9.67741935483871" opacity="1" fill="#000000">
+3s
</text>
<polyline fill="none" opacity="1" stroke="#000000" stroke-width="1" points="372,62 372,67 "/>
<text x="551" y="58" dy="-0.5ex" text-anchor="middle" font-family="sans-serif" font-size="9.67741935483871" opacity="1" fill="#000000">
+5s
</text>
<polyline fill="none" opacity="1" stroke="#000000" stroke-width="1" points="551,62 551,67 "/>
<text x="730" y="58" dy="-0.5ex" text-anchor="middle" font-family="sans-serif" font-size="9.67741935483871" opacity="1" fill="#000000">
+7s
</text>
<polyline fill="none" opacity="1" stroke="#000000" stroke-width="1" points="730,62 730,67 "/>
<text x="909" y="58" dy="-0.5ex" text-anchor="middle" font-family="sans-serif" font-size="9.67741935483871" opacity="1" fill="#000000">
+9s
</text>
<polyline fill="none" opacity="1" stroke="#000000" stroke-width="1" points="909,62 909,67 "/>
</svg>
