<svg width="1024" height="768" viewBox="0 0 1024 768" xmlns="http://www.w3.org/2000/svg">
<rect x="0" y="0" width="1024" height="768" opacity="1" fill="#FFFFFF" stroke="none"/>
<polygon opacity="1" fill="#E6194B" points="78,667 78,635 79,617 80,600 81,594 82,580 83,570 84,559 85,560 86,560 86,561 87,560 88,569 89,567 90,569 91,574 92,573 93,573 94,576 95,578 95,579 96,575 97,572 98,569 99,565 100,568 101,565 102,567 103,567 103,568 104,568 105,567 106,559 107,552 108,546 109,546 110,544 111,542 112,537 112,538 113,542 114,540 115,537 116,530 117,525 118,522 119,515 120,521 120,527 121,532 122,533 123,531 124,533 125,535 126,527 127,531 128,528 129,521 129,519 130,524 131,530 132,529 133,534 134,528 135,526 136,524 137,533 137,531 138,533 139,534 140,538 141,537 142,541 143,545 144,546 145,548 146,552 146,542 147,544 148,540 149,535 150,535 151,538 152,539 153,541 154,544 154,546 155,544 156,548 157,552 158,563 159,556 160,555 161,562 162,566 163,557 163,557 164,558 165,564 166,562 167,560 168,561 169,558 170,550 171,547 171,549 172,547 173,550 174,555 175,556 176,551 177,552 178,550 179,543 180,541 180,542 181,543 182,546 183,549 184,553 185,552 186,549 187,546 188,543 188,546 189,537 190,531 191,523 192,523 193,528 194,532 195,525 196,525 197,529 197,528 198,529 199,530 200,523 201,517 202,512 203,510 204,508 205,500 205,499 206,501 207,508 208,516 209,525 210,526 211,532 212,542 213,536 214,535 214,534 215,523 216,523 217,535 218,542 219,541 220,535 221,538 222,534 222,526 223,520 224,517 225,520 226,523 227,528 228,527 229,524 230,523 231,526 231,537 232,536 233,534 234,531 235,529 236,528 237,530 238,531 239,530 239,532 240,539 241,536 242,531 243,535 244,540 245,539 246,536 247,538 248,529 248,531 249,522 250,523 251,528 252,524 253,526 254,529 255,532 256,532 257,519 257,515 258,514 259,521 260,507 261,502 262,495 263,494 264,499 265,490 265,487 266,486 267,488 268,496 269,488 270,488 271,486 272,487 273,492 274,492 274,486 275,481 276,478 277,480 278,477 279,480 280,486 281,486 282,488 282,488 283,486 284,489 285,489 286,495 287,495 288,487 289,490 290,477 291,474 291,474 292,473 293,473 294,474 295,467 296,464 297,465 298,462 299,465 299,465 300,466 301,474 302,471 303,463 304,462 305,455 306,458 307,458 308,460 308,461 309,449 310,452 311,451 312,455 313,459 314,465 315,458 316,452 316,451 317,453 318,450 319,450 320,453 321,463 322,464 323,466 324,465 325,469 325,472 326,468 327,472 328,472 329,473 330,473 331,467 332,474 333,473 333,471 334,477 335,475 336,471 337,464 338,470 339,469 340,468 341,473 342,470 342,465 343,464 344,471 345,472 346,468 347,465 348,466 349,473 350,475 350,474 351,470 352,475 353,467 354,463 355,462 356,472 357,467 358,459 359,459 359,461 360,454 361,452 362,453 363,454 364,455 365,456 366,453 367,460 367,459 368,456 369,453 370,451 371,454 372,463 373,448 374,448 375,454 376,450 376,454 377,460 378,453 379,454 380,451 381,458 382,461 383,475 384,474 384,474 385,469 386,467 387,475 388,468 389,470 390,469 391,470 392,473 393,475 393,477 394,478 395,485 396,489 397,482 398,480 399,477 400,477 401,475 401,473 402,477 403,480 404,478 405,476 406,472 407,479 408,479 409,480 410,472 410,472 411,472 412,476 413,478 414,477 415,490 416,491 417,491 418,497 418,488 419,483 420,482 421,486 422,485 423,484 424,484 425,487 426,485 427,483 427,475 428,476 429,478 430,484 431,484 432,481 433,481 434,488 435,484 436,490 436,485 437,486 438,482 439,477 440,479 441,481 442,483 443,474 444,468 444,466 445,465 446,472 447,470 448,463 449,459 450,456 451,447 452,448 453,456 453,454 454,454 455,452 456,450 457,453 458,457 459,450 460,450 461,457 461,462 462,452 463,441 464,444 465,438 466,440 467,450 468,452 469,455 470,453 470,452 471,452 472,455 473,457 474,447 475,443 476,447 477,446 478,451 478,454 479,458 480,453 481,452 482,449 483,450 484,446 485,445 486,445 487,438 487,428 488,426 489,429 490,426 491,423 492,422 493,419 494,416 495,427 495,431 496,431 497,425 498,429 499,427 500,425 501,423 502,412 503,415 504,425 504,427 505,420 506,422 507,420 508,422 509,432 510,420 511,400 512,401 512,405 513,401 514,407 515,411 516,408 517,406 518,402 519,411 520,413 521,400 521,398 522,401 523,398 524,400 525,413 526,412 527,410 528,406 529,405 529,404 530,409 531,410 532,410 533,413 534,406 535,412 536,411 537,409 538,413 538,414 539,411 540,415 541,423 542,406 543,403 544,399 545,399 546,395 546,392 547,387 548,384 549,385 550,384 551,385 552,386 553,381 554,383 555,383 555,385 556,385 557,385 558,382 559,380 560,381 561,385 562,387 563,380 563,378 564,374 565,373 566,373 567,373 568,375 569,373 570,375 571,372 572,371 572,373 573,370 574,367 575,368 576,369 577,370 578,365 579,363 580,360 580,365 581,365 582,364 583,375 584,374 585,368 586,367 587,360 588,359 589,361 589,360 590,358 591,358 592,351 593,342 594,336 595,340 596,342 597,338 597,342 598,340 599,337 600,337 601,338 602,333 603,335 604,332 605,323 606,324 606,332 607,325 608,325 609,326 610,334 611,342 612,351 613,348 614,349 615,349 615,353 616,362 617,361 618,356 619,355 620,350 621,346 622,343 623,344 623,349 624,345 625,343 626,344 627,337 628,332 629,322 630,323 631,327 632,332 632,338 633,346 634,345 635,347 636,344 637,337 638,340 639,331 640,330 640,326 641,324 642,323 643,324 644,325 645,323 646,321 647,319 648,322 649,321 649,316 650,314 651,313 652,312 653,310 654,314 655,317 656,320 657,314 657,311 658,306 659,308 660,305 661,309 662,309 663,305 664,309 665,315 666,318 666,322 667,319 668,323 669,322 670,322 671,318 672,317 673,319 674,308 674,307 675,297 676,297 677,301 678,304 679,307 680,307 681,308 682,319 683,318 683,309 684,311 685,313 686,316 687,320 688,324 689,332 690,340 691,332 691,322 692,319 693,318 694,309 695,303 696,296 697,295 698,297 699,297 700,294 700,293 701,298 702,295 703,303 704,306 705,299 706,298 707,310 708,297 708,301 709,293 710,299 711,287 712,285 713,279 714,279 715,282 716,280 717,283 717,287 718,284 719,284 720,296 721,292 722,297 723,298 724,302 725,296 725,280 726,281 727,292 728,294 729,299 730,293 731,285 732,284 733,279 734,281 734,279 735,273 736,267 737,269 738,266 739,260 740,257 741,258 742,259 742,257 743,254 744,255 745,255 746,265 747,276 748,273 749,273 750,271 751,285 751,273 752,275 753,281 754,287 755,283 756,282 757,277 758,277 759,276 759,280 760,269 761,268 762,262 763,261 764,268 765,269 766,263 767,259 768,253 768,258 769,262 770,268 771,267 772,263 773,261 774,260 775,262 776,256 776,246 777,244 778,250 779,254 780,256 781,259 782,255 783,255 784,255 785,253 785,248 786,251 787,243 788,239 789,233 790,225 791,220 792,218 793,215 794,210 794,208 795,209 796,212 797,217 798,231 799,230 800,223 801,221 802,223 802,215 803,212 804,211 805,214 806,218 807,218 808,211 809,209 810,222 811,219 811,213 812,211 813,212 814,200 815,192 816,198 817,195 818,194 819,191 819,188 820,178 821,179 822,183 823,177 824,180 825,178 826,182 827,189 828,193 828,197 829,199 830,197 831,196 832,194 833,187 834,192 835,189 836,175 836,168 837,170 838,172 839,178 840,176 841,181 842,182 843,179 844,175 845,167 845,174 846,175 847,175 848,174 849,171 850,173 851,170 852,168 853,170 853,174 854,173 855,179 856,178 857,173 858,172 859,164 860,165 861,166 862,160 862,160 863,165 864,164 865,166 866,155 867,153 868,157 869,165 870,163 870,147 871,149 872,154 873,155 874,159 875,161 876,161 877,162 878,167 879,171 879,171 880,166 881,162 882,157 883,168 884,177 885,181 886,181 887,181 887,178 888,177 889,171 890,167 891,164 892,160 893,156 894,153 895,155 896,149 896,136 897,138 898,149 899,150 900,150 901,149 902,156 903,157 904,155 904,157 905,157 906,159 907,156 908,154 909,143 910,140 911,138 912,138 913,142 913,150 914,147 915,153 916,148 917,142 918,141 919,121 920,124 921,124 921,123 922,133 923,141 924,124 925,119 926,119 927,115 928,114 929,108 930,116 930,115 931,122 932,123 933,124 934,128 935,127 936,122 937,119 938,110 938,107 939,106 940,100 941,102 942,104 943,100 944,108 945,108 946,110 947,110 947,101 948,101 949,101 950,106 951,116 952,116 953,113 954,107 955,94 955,88 956,81 957,78 958,70 959,72 960,72 961,70 962,68 963,68 964,68 964,77 965,76 966,77 967,86 968,89 969,93 970,83 971,74 972,74 973,77 973,490 973,490 973,699 78,699 "/>
<polyline fill="none" opacity="1" stroke="#E6194B" stroke-width="1" points="78,667 78,635 79,617 80,600 81,594 82,580 83,570 84,559 85,560 86,560 86,561 87,560 88,569 89,567 90,569 91,574 92,573 93,573 94,576 95,578 95,579 96,575 97,572 98,569 99,565 100,568 101,565 102,567 103,567 103,568 104,568 105,567 106,559 107,552 108,546 109,546 110,544 111,542 112,537 112,538 113,542 114,540 115,537 116,530 117,525 118,522 119,515 120,521 120,527 121,532 122,533 123,531 124,533 125,535 126,527 127,531 128,528 129,521 129,519 130,524 131,530 132,529 133,534 134,528 135,526 136,524 137,533 137,531 138,533 139,534 140,538 141,537 142,541 143,545 144,546 145,548 146,552 146,542 147,544 148,540 149,535 150,535 151,538 152,539 153,541 154,544 154,546 155,544 156,548 157,552 158,563 159,556 160,555 161,562 162,566 163,557 163,557 164,558 165,564 166,562 167,560 168,561 169,558 170,550 171,547 171,549 172,547 173,550 174,555 175,556 176,551 177,552 178,550 179,543 180,541 180,542 181,543 182,546 183,549 184,553 185,552 186,549 187,546 188,543 188,546 189,537 190,531 191,523 192,523 193,528 194,532 195,525 196,525 197,529 197,528 198,529 199,530 200,523 201,517 202,512 203,510 204,508 205,500 205,499 206,501 207,508 208,516 209,525 210,526 211,532 212,542 213,536 214,535 214,534 215,523 216,523 217,535 218,542 219,541 220,535 221,538 222,534 222,526 223,520 224,517 225,520 226,523 227,528 228,527 229,524 230,523 231,526 231,537 232,536 233,534 234,531 235,529 236,528 237,530 238,531 239,530 239,532 240,539 241,536 242,531 243,535 244,540 245,539 246,536 247,538 248,529 248,531 249,522 250,523 251,528 252,524 253,526 254,529 255,532 256,532 257,519 257,515 258,514 259,521 260,507 261,502 262,495 263,494 264,499 265,490 265,487 266,486 267,488 268,496 269,488 270,488 271,486 272,487 273,492 274,492 274,486 275,481 276,478 277,480 278,477 279,480 280,486 281,486 282,488 282,488 283,486 284,489 285,489 286,495 287,495 288,487 289,490 290,477 291,474 291,474 292,473 293,473 294,474 295,467 296,464 297,465 298,462 299,465 299,465 300,466 301,474 302,471 303,463 304,462 305,455 306,458 307,458 308,460 308,461 309,449 310,452 311,451 312,455 313,459 314,465 315,458 316,452 316,451 317,453 318,450 319,450 320,453 321,463 322,464 323,466 324,465 325,469 325,472 326,468 327,472 328,472 329,473 330,473 331,467 332,474 333,473 333,471 334,477 335,475 336,471 337,464 338,470 339,469 340,468 341,473 342,470 342,465 343,464 344,471 345,472 346,468 347,465 348,466 349,473 350,475 350,474 351,470 352,475 353,467 354,463 355,462 356,472 357,467 358,459 359,459 359,461 360,454 361,452 362,453 363,454 364,455 365,456 366,453 367,460 367,459 368,456 369,453 370,451 371,454 372,463 373,448 374,448 375,454 376,450 376,454 377,460 378,453 379,454 380,451 381,458 382,461 383,475 384,474 384,474 385,469 386,467 387,475 388,468 389,470 390,469 391,470 392,473 393,475 393,477 394,478 395,485 396,489 397,482 398,480 399,477 400,477 401,475 401,473 402,477 403,480 404,478 405,476 406,472 407,479 408,479 409,480 410,472 410,472 411,472 412,476 413,478 414,477 415,490 416,491 417,491 418,497 418,488 419,483 420,482 421,486 422,485 423,484 424,484 425,487 426,485 427,483 427,475 428,476 429,478 430,484 431,484 432,481 433,481 434,488 435,484 436,490 436,485 437,486 438,482 439,477 440,479 441,481 442,483 443,474 444,468 444,466 445,465 446,472 447,470 448,463 449,459 450,456 451,447 452,448 453,456 453,454 454,454 455,452 456,450 457,453 458,457 459,450 460,450 461,457 461,462 462,452 463,441 464,444 465,438 466,440 467,450 468,452 469,455 470,453 470,452 471,452 472,455 473,457 474,447 475,443 476,447 477,446 478,451 478,454 479,458 480,453 481,452 482,449 483,450 484,446 485,445 486,445 487,438 487,428 488,426 489,429 490,426 491,423 492,422 493,419 494,416 495,427 495,431 496,431 497,425 498,429 499,427 500,425 501,423 502,412 503,415 504,425 504,427 505,420 506,422 507,420 508,422 509,432 510,420 511,400 512,401 512,405 513,401 514,407 515,411 516,408 517,406 518,402 519,411 520,413 521,400 521,398 522,401 523,398 524,400 525,413 526,412 527,410 528,406 529,405 529,404 530,409 531,410 532,410 533,413 534,406 535,412 536,411 537,409 538,413 538,414 539,411 540,415 541,423 542,406 543,403 544,399 545,399 546,395 546,392 547,387 548,384 549,385 550,384 551,385 552,386 553,381 554,383 555,383 555,385 556,385 557,385 558,382 559,380 560,381 561,385 562,387 563,380 563,378 564,374 565,373 566,373 567,373 568,375 569,373 570,375 571,372 572,371 572,373 573,370 574,367 575,368 576,369 577,370 578,365 579,363 580,360 580,365 581,365 582,364 583,375 584,374 585,368 586,367 587,360 588,359 589,361 589,360 590,358 591,358 592,351 593,342 594,336 595,340 596,342 597,338 597,342 598,340 599,337 600,337 601,338 602,333 603,335 604,332 605,323 606,324 606,332 607,325 608,325 609,326 610,334 611,342 612,351 613,348 614,349 615,349 615,353 616,362 617,361 618,356 619,355 620,350 621,346 622,343 623,344 623,349 624,345 625,343 626,344 627,337 628,332 629,322 630,323 631,327 632,332 632,338 633,346 634,345 635,347 636,344 637,337 638,340 639,331 640,330 640,326 641,324 642,323 643,324 644,325 645,323 646,321 647,319 648,322 649,321 649,316 650,314 651,313 652,312 653,310 654,314 655,317 656,320 657,314 657,311 658,306 659,308 660,305 661,309 662,309 663,305 664,309 665,315 666,318 666,322 667,319 668,323 669,322 670,322 671,318 672,317 673,319 674,308 674,307 675,297 676,297 677,301 678,304 679,307 680,307 681,308 682,319 683,318 683,309 684,311 685,313 686,316 687,320 688,324 689,332 690,340 691,332 691,322 692,319 693,318 694,309 695,303 696,296 697,295 698,297 699,297 700,294 700,293 701,298 702,295 703,303 704,306 705,299 706,298 707,310 708,297 708,301 709,293 710,299 711,287 712,285 713,279 714,279 715,282 716,280 717,283 717,287 718,284 719,284 720,296 721,292 722,297 723,298 724,302 725,296 725,280 726,281 727,292 728,294 729,299 730,293 731,285 732,284 733,279 734,281 734,279 735,273 736,267 737,269 738,266 739,260 740,257 741,258 742,259 742,257 743,254 744,255 745,255 746,265 747,276 748,273 749,273 750,271 751,285 751,273 752,275 753,281 754,287 755,283 756,282 757,277 758,277 759,276 759,280 760,269 761,268 762,262 763,261 764,268 765,269 766,263 767,259 768,253 768,258 769,262 770,268 771,267 772,263 773,261 774,260 775,262 776,256 776,246 777,244 778,250 779,254 780,256 781,259 782,255 783,255 784,255 785,253 785,248 786,251 787,243 788,239 789,233 790,225 791,220 792,218 793,215 794,210 794,208 795,209 796,212 797,217 798,231 799,230 800,223 801,221 802,223 802,215 803,212 804,211 805,214 806,218 807,218 808,211 809,209 810,222 811,219 811,213 812,211 813,212 814,200 815,192 816,198 817,195 818,194 819,191 819,188 820,178 821,179 822,183 823,177 824,180 825,178 826,182 827,189 828,193 828,197 829,199 830,197 831,196 832,194 833,187 834,192 835,189 836,175 836,168 837,170 838,172 839,178 840,176 841,181 842,182 843,179 844,175 845,167 845,174 846,175 847,175 848,174 849,171 850,173 851,170 852,168 853,170 853,174 854,173 855,179 856,178 857,173 858,172 859,164 860,165 861,166 862,160 862,160 863,165 864,164 865,166 866,155 867,153 868,157 869,165 870,163 870,147 871,149 872,154 873,155 874,159 875,161 876,161 877,162 878,167 879,171 879,171 880,166 881,162 882,157 883,168 884,177 885,181 886,181 887,181 887,178 888,177 889,171 890,167 891,164 892,160 893,156 894,153 895,155 896,149 896,136 897,138 898,149 899,150 900,150 901,149 902,156 903,157 904,155 904,157 905,157 906,159 907,156 908,154 909,143 910,140 911,138 912,138 913,142 913,150 914,147 915,153 916,148 917,142 918,141 919,121 920,124 921,124 921,123 922,133 923,141 924,124 925,119 926,119 927,115 928,114 929,108 930,116 930,115 931,122 932,123 933,124 934,128 935,127 936,122 937,119 938,110 938,107 939,106 940,100 941,102 942,104 943,100 944,108 945,108 946,110 947,110 947,101 948,101 949,101 950,106 951,116 952,116 953,113 954,107 955,94 955,88 956,81 957,78 958,70 959,72 960,72 961,70 962,68 963,68 964,68 964,77 965,76 966,77 967,86 968,89 969,93 970,83 971,74 972,74 973,77 973,490 973,490 "/>
<line opacity="0.1" stroke="#000000" stroke-width="1" x1="84" y1="699" x2="84" y2="68"/>
<line opacity="0.1" stroke="#000000" stroke-width="1" x1="95" y1="699" x2="95" y2="68"/>
<line opacity="0.1" stroke="#000000" stroke-width="1" x1="107" y1="699" x2="107" y2="68"/>
<line opacity="0.1" stroke="#000000" stroke-width="1" x1="119" y1="699" x2="119" y2="68"/>
<line opacity="0.1" stroke="#000000" stroke-width="1" x1="131" y1="699" x2="131" y2="68"/>
<line opacity="0.1" stroke="#000000" stroke-width="1" x1="143" y1="699" x2="143" y2="68"/>
<line opacity="0.1" stroke="#000000" stroke-width="1" x1="155" y1="699" x2="155" y2="68"/>
<line opacity="0.1" stroke="#000000" stroke-width="1" x1="167" y1="699" x2="167" y2="68"/>
<line opacity="0.1" stroke="#000000" stroke-width="1" x1="179" y1="699" x2="179" y2="68"/>
<line opacity="0.1" stroke="#000000" stroke-width="1" x1="190" y1="699" x2="190" y2="68"/>
<line opacity="0.1" stroke="#000000" stroke-width="1" x1="202" y1="699" x2="202" y2="68"/>
<line opacity="0.1" stroke="#000000" stroke-width="1" x1="214" y1="699" x2="214" y2="68"/>
<line opacity="0.1" stroke="#000000" stroke-width="1" x1="226" y1="699" x2="226" y2="68"/>
<line opacity="0.1" stroke="#000000" stroke-width="1" x1="238" y1="699" x2="238" y2="68"/>
<line opacity="0.1" stroke="#000000" stroke-width="1" x1="250" y1="699" x2="250" y2="68"/>
<line opacity="0.1" stroke="#000000" stroke-width="1" x1="262" y1="699" x2="262" y2="68"/>
<line opacity="0.1" stroke="#000000" stroke-width="1" x1="273" y1="699" x2="273" y2="68"/>
<line opacity="0.1" stroke="#000000" stroke-width="1" x1="285" y1="699" x2="285" y2="68"/>
<line opacity="0.1" stroke="#000000" stroke-width="1" x1="297" y1="699" x2="297" y2="68"/>
<line opacity="0.1" stroke="#000000" stroke-width="1" x1="309" y1="699" x2="309" y2="68"/>
<line opacity="0.1" stroke="#000000" stroke-width="1" x1="321" y1="699" x2="321" y2="68"/>
<line opacity="0.1" stroke="#000000" stroke-width="1" x1="333" y1="699" x2="333" y2="68"/>
<line opacity="0.1" stroke="#000000" stroke-width="1" x1="345" y1="699" x2="345" y2="68"/>
<line opacity="0.1" stroke="#000000" stroke-width="1" x1="356" y1="699" x2="356" y2="68"/>
<line opacity="0.1" stroke="#000000" stroke-width="1" x1="368" y1="699" x2="368" y2="68"/>
<line opacity="0.1" stroke="#000000" stroke-width="1" x1="380" y1="699" x2="380" y2="68"/>
<line opacity="0.1" stroke="#000000" stroke-width="1" x1="392" y1="699" x2="392" y2="68"/>
<line opacity="0.1" stroke="#000000" stroke-width="1" x1="404" y1="699" x2="404" y2="68"/>
<line opacity="0.1" stroke="#000000" stroke-width="1" x1="416" y1="699" x2="416" y2="68"/>
<line opacity="0.1" stroke="#000000" stroke-width="1" x1="428" y1="699" x2="428" y2="68"/>
<line opacity="0.1" stroke="#000000" stroke-width="1" x1="439" y1="699" x2="439" y2="68"/>
<line opacity="0.1" stroke="#000000" stroke-width="1" x1="451" y1="699" x2="451" y2="68"/>
<line opacity="0.1" stroke="#000000" stroke-width="1" x1="463" y1="699" x2="463" y2="68"/>
<line opacity="0.1" stroke="#000000" stroke-width="1" x1="475" y1="699" x2="475" y2="68"/>
<line opacity="0.1" stroke="#000000" stroke-width="1" x1="487" y1="699" x2="487" y2="68"/>
<line opacity="0.1" stroke="#000000" stroke-width="1" x1="499" y1="699" x2="499" y2="68"/>
<line opacity="0.1" stroke="#000000" stroke-width="1" x1="511" y1="699" x2="511" y2="68"/>
<line opacity="0.1" stroke="#000000" stroke-width="1" x1="522" y1="699" x2="522" y2="68"/>
<line opacity="0.1" stroke="#000000" stroke-width="1" x1="534" y1="699" x2="534" y2="68"/>
<line opacity="0.1" stroke="#000000" stroke-width="1" x1="546" y1="699" x2="546" y2="68"/>
<line opacity="0.1" stroke="#000000" stroke-width="1" x1="558" y1="699" x2="558" y2="68"/>
<line opacity="0.1" stroke="#000000" stroke-width="1" x1="570" y1="699" x2="570" y2="68"/>
<line opacity="0.1" stroke="#000000" stroke-width="1" x1="582" y1="699" x2="582" y2="68"/>
<line opacity="0.1" stroke="#000000" stroke-width="1" x1="594" y1="699" x2="594" y2="68"/>
<line opacity="0.1" stroke="#000000" stroke-width="1" x1="605" y1="699" x2="605" y2="68"/>
<line opacity="0.1" stroke="#000000" stroke-width="1" x1="617" y1="699" x2="617" y2="68"/>
<line opacity="0.1" stroke="#000000" stroke-width="1" x1="629" y1="699" x2="629" y2="68"/>
<line opacity="0.1" stroke="#000000" stroke-width="1" x1="641" y1="699" x2="641" y2="68"/>
<line opacity="0.1" stroke="#000000" stroke-width="1" x1="653" y1="699" x2="653" y2="68"/>
<line opacity="0.1" stroke="#000000" stroke-width="1" x1="665" y1="699" x2="665" y2="68"/>
<line opacity="0.1" stroke="#000000" stroke-width="1" x1="677" y1="699" x2="677" y2="68"/>
<line opacity="0.1" stroke="#000000" stroke-width="1" x1="688" y1="699" x2="688" y2="68"/>
<line opacity="0.1" stroke="#000000" stroke-width="1" x1="700" y1="699" x2="700" y2="68"/>
<line opacity="0.1" stroke="#000000" stroke-width="1" x1="712" y1="699" x2="712" y2="68"/>
<line opacity="0.1" stroke="#000000" stroke-width="1" x1="724" y1="699" x2="724" y2="68"/>
<line opacity="0.1" stroke="#000000" stroke-width="1" x1="736" y1="699" x2="736" y2="68"/>
<line opacity="0.1" stroke="#000000" stroke-width="1" x1="748" y1="699" x2="748" y2="68"/>
<line opacity="0.1" stroke="#000000" stroke-width="1" x1="760" y1="699" x2="760" y2="68"/>
<line opacity="0.1" stroke="#000000" stroke-width="1" x1="771" y1="699" x2="771" y2="68"/>
<line opacity="0.1" stroke="#000000" stroke-width="1" x1="783" y1="699" x2="783" y2="68"/>
<line opacity="0.1" stroke="#000000" stroke-width="1" x1="795" y1="699" x2="795" y2="68"/>
<line opacity="0.1" stroke="#000000" stroke-width="1" x1="807" y1="699" x2="807" y2="68"/>
<line opacity="0.1" stroke="#000000" stroke-width="1" x1="819" y1="699" x2="819" y2="68"/>
<line opacity="0.1" stroke="#000000" stroke-width="1" x1="831" y1="699" x2="831" y2="68"/>
<line opacity="0.1" stroke="#000000" stroke-width="1" x1="843" y1="699" x2="843" y2="68"/>
<line opacity="0.1" stroke="#000000" stroke-width="1" x1="854" y1="699" x2="854" y2="68"/>
<line opacity="0.1" stroke="#000000" stroke-width="1" x1="866" y1="699" x2="866" y2="68"/>
<line opacity="0.1" stroke="#000000" stroke-width="1" x1="878" y1="699" x2="878" y2="68"/>
<line opacity="0.1" stroke="#000000" stroke-width="1" x1="890" y1="699" x2="890" y2="68"/>
<line opacity="0.1" stroke="#000000" stroke-width="1" x1="902" y1="699" x2="902" y2="68"/>
<line opacity="0.1" stroke="#000000" stroke-width="1" x1="914" y1="699" x2="914" y2="68"/>
<line opacity="0.1" stroke="#000000" stroke-width="1" x1="926" y1="699" x2="926" y2="68"/>
<line opacity="0.1" stroke="#000000" stroke-width="1" x1="937" y1="699" x2="937" y2="68"/>
<line opacity="0.1" stroke="#000000" stroke-width="1" x1="949" y1="699" x2="949" y2="68"/>
<line opacity="0.1" stroke="#000000" stroke-width="1" x1="961" y1="699" x2="961" y2="68"/>
<line opacity="0.1" stroke="#000000" stroke-width="1" x1="78" y1="699" x2="973" y2="699"/>
<line opacity="0.1" stroke="#000000" stroke-width="1" x1="78" y1="688" x2="973" y2="688"/>
<line opacity="0.1" stroke="#000000" stroke-width="1" x1="78" y1="677" x2="973" y2="677"/>
<line opacity="0.1" stroke="#000000" stroke-width="1" x1="78" y1="666" x2="973" y2="666"/>
<line opacity="0.1" stroke="#000000" stroke-width="1" x1="78" y1="655" x2="973" y2="655"/>
<line opacity="0.1" stroke="#000000" stroke-width="1" x1="78" y1="644" x2="973" y2="644"/>
<line opacity="0.1" stroke="#000000" stroke-width="1" x1="78" y1="634" x2="973" y2="634"/>
<line opacity="0.1" stroke="#000000" stroke-width="1" x1="78" y1="623" x2="973" y2="623"/>
<line opacity="0.1" stroke="#000000" stroke-width="1" x1="78" y1="612" x2="973" y2="612"/>
<line opacity="0.1" stroke="#000000" stroke-width="1" x1="78" y1="601" x2="973" y2="601"/>
<line opacity="0.1" stroke="#000000" stroke-width="1" x1="78" y1="590" x2="973" y2="590"/>
<line opacity="0.1" stroke="#000000" stroke-width="1" x1="78" y1="579" x2="973" y2="579"/>
<line opacity="0.1" stroke="#000000" stroke-width="1" x1="78" y1="569" x2="973" y2="569"/>
<line opacity="0.1" stroke="#000000" stroke-width="1" x1="78" y1="558" x2="973" y2="558"/>
<line opacity="0.1" stroke="#000000" stroke-width="1" x1="78" y1="547" x2="973" y2="547"/>
<line opacity="0.1" stroke="#000000" stroke-width="1" x1="78" y1="536" x2="973" y2="536"/>
<line opacity="0.1" stroke="#000000" stroke-width="1" x1="78" y1="525" x2="973" y2="525"/>
<line opacity="0.1" stroke="#000000" stroke-width="1" x1="78" y1="515" x2="973" y2="515"/>
<line opacity="0.1" stroke="#000000" stroke-width="1" x1="78" y1="504" x2="973" y2="504"/>
<line opacity="0.1" stroke="#000000" stroke-width="1" x1="78" y1="493" x2="973" y2="493"/>
<line opacity="0.1" stroke="#000000" stroke-width="1" x1="78" y1="482" x2="973" y2="482"/>
<line opacity="0.1" stroke="#000000" stroke-width="1" x1="78" y1="471" x2="973" y2="471"/>
<line opacity="0.1" stroke="#000000" stroke-width="1" x1="78" y1="460" x2="973" y2="460"/>
<line opacity="0.1" stroke="#000000" stroke-width="1" x1="78" y1="450" x2="973" y2="450"/>
<line opacity="0.1" stroke="#000000" stroke-width="1" x1="78" y1="439" x2="973" y2="439"/>
<line opacity="0.1" stroke="#000000" stroke-width="1" x1="78" y1="428" x2="973" y2="428"/>
<line opacity="0.1" stroke="#000000" stroke-width="1" x1="78" y1="417" x2="973" y2="417"/>
<line opacity="0.1" stroke="#000000" stroke-width="1" x1="78" y1="406" x2="973" y2="406"/>
<line opacity="0.1" stroke="#000000" stroke-width="1" x1="78" y1="396" x2="973" y2="396"/>
<line opacity="0.1" stroke="#000000" stroke-width="1" x1="78" y1="385" x2="973" y2="385"/>
<line opacity="0.1" stroke="#000000" stroke-width="1" x1="78" y1="374" x2="973" y2="374"/>
<line opacity="0.1" stroke="#000000" stroke-width="1" x1="78" y1="363" x2="973" y2="363"/>
<line opacity="0.1" stroke="#000000" stroke-width="1" x1="78" y1="352" x2="973" y2="352"/>
<line opacity="0.1" stroke="#000000" stroke-width="1" x1="78" y1="341" x2="973" y2="341"/>
<line opacity="0.1" stroke="#000000" stroke-width="1" x1="78" y1="331" x2="973" y2="331"/>
<line opacity="0.1" stroke="#000000" stroke-width="1" x1="78" y1="320" x2="973" y2="320"/>
<line opacity="0.1" stroke="#000000" stroke-width="1" x1="78" y1="309" x2="973" y2="309"/>
<line opacity="0.1" stroke="#000000" stroke-width="1" x1="78" y1="298" x2="973" y2="298"/>
<line opacity="0.1" stroke="#000000" stroke-width="1" x1="78" y1="287" x2="973" y2="287"/>
<line opacity="0.1" stroke="#000000" stroke-width="1" x1="78" y1="277" x2="973" y2="277"/>
<line opacity="0.1" stroke="#000000" stroke-width="1" x1="78" y1="266" x2="973" y2="266"/>
<line opacity="0.1" stroke="#000000" stroke-width="1" x1="78" y1="255" x2="973" y2="255"/>
<line opacity="0.1" stroke="#000000" stroke-width="1" x1="78" y1="244" x2="973" y2="244"/>
<line opacity="0.1" stroke="#000000" stroke-width="1" x1="78" y1="233" x2="973" y2="233"/>
<line opacity="0.1" stroke="#000000" stroke-width="1" x1="78" y1="222" x2="973" y2="222"/>
<line opacity="0.1" stroke="#000000" stroke-width="1" x1="78" y1="212" x2="973" y2="212"/>
<line opacity="0.1" stroke="#000000" stroke-width="1" x1="78" y1="201" x2="973" y2="201"/>
<line opacity="0.1" stroke="#000000" stroke-width="1" x1="78" y1="190" x2="973" y2="190"/>
<line opacity="0.1" stroke="#000000" stroke-width="1" x1="78" y1="179" x2="973" y2="179"/>
<line opacity="0.1" stroke="#000000" stroke-width="1" x1="78" y1="168" x2="973" y2="168"/>
<line opacity="0.1" stroke="#000000" stroke-width="1" x1="78" y1="158" x2="973" y2="158"/>
<line opacity="0.1" stroke="#000000" stroke-width="1" x1="78" y1="147" x2="973" y2="147"/>
<line opacity="0.1" stroke="#000000" stroke-width="1" x1="78" y1="136" x2="973" y2="136"/>
<line opacity="0.1" stroke="#000000" stroke-width="1" x1="78" y1="125" x2="973" y2="125"/>
<line opacity="0.1" stroke="#000000" stroke-width="1" x1="78" y1="114" x2="973" y2="114"/>
<line opacity="0.1" stroke="#000000" stroke-width="1" x1="78" y1="103" x2="973" y2="103"/>
<line opacity="0.1" stroke="#000000" stroke-width="1" x1="78" y1="93" x2="973" y2="93"/>
<line opacity="0.1" stroke="#000000" stroke-width="1" x1="78" y1="82" x2="973" y2="82"/>
<line opacity="0.1" stroke="#000000" stroke-width="1" x1="78" y1="71" x2="973" y2="71"/>
<text x="8" y="384" dy="0.76em" text-anchor="middle" font-family="sans-serif" font-size="9.67741935483871" opacity="1" fill="#000000" transform="rotate(270, 8, 384)">
Memory usage
</text>
<text x="526" y="760" dy="-0.5ex" text-anchor="middle" font-family="sans-serif" font-size="9.67741935483871" opacity="1" fill="#000000">
Time
</text>
<line opacity="0.2" stroke="#000000" stroke-width="1" x1="167" y1="699" x2="167" y2="68"/>
<line opacity="0.2" stroke="#000000" stroke-width="1" x1="285" y1="699" x2="285" y2="68"/>
<line opacity="0.2" stroke="#000000" stroke-width="1" x1="404" y1="699" x2="404" y2="68"/>
<line opacity="0.2" stroke="#000000" stroke-width="1" x1="522" y1="699" x2="522" y2="68"/>
<line opacity="0.2" stroke="#000000" stroke-width="1" x1="641" y1="699" x2="641" y2="68"/>
<line opacity="0.2" stroke="#000000" stroke-width="1" x1="760" y1="699" x2="760" y2="68"/>
<line opacity="0.2" stroke="#000000" stroke-width="1" x1="878" y1="699" x2="878" y2="68"/>
<line opacity="0.2" stroke="#000000" stroke-width="1" x1="78" y1="699" x2="973" y2="699"/>
<line opacity="0.2" stroke="#000000" stroke-width="1" x1="78" y1="590" x2="973" y2="590"/>
<line opacity="0.2" stroke="#000000" stroke-width="1" x1="78" y1="482" x2="973" y2="482"/>
<line opacity="0.2" stroke="#000000" stroke-width="1" x1="78" y1="374" x2="973" y2="374"/>
<line opacity="0.2" stroke="#000000" stroke-width="1" x1="78" y1="266" x2="973" y2="266"/>
<line opacity="0.2" stroke="#000000" stroke-width="1" x1="78" y1="158" x2="973" y2="158"/>
<polyline fill="none" opacity="1" stroke="#000000" stroke-width="1" points="77,68 77,699 "/>
<text x="68" y="699" dy="0.5ex" text-anchor="end" font-family="sans-serif" font-size="9.67741935483871" opacity="1" fill="#000000">
0.00 MB
</text>
<polyline fill="none" opacity="1" stroke="#000000" stroke-width="1" points="72,699 77,699 "/>
<text x="68" y="590" dy="0.5ex" text-anchor="end" font-family="sans-serif" font-size="9.67741935483871" opacity="1" fill="#000000">
0.19 MB
</text>
<polyline fill="none" opacity="1" stroke="#000000" stroke-width="1" points="72,590 77,590 "/>
<text x="68" y="482" dy="0.5ex" text-anchor="end" font-family="sans-serif" font-size="9.67741935483871" opacity="1" fill="#000000">
0.38 MB
</text>
<polyline fill="none" opacity="1" stroke="#000000" stroke-width="1" points="72,482 77,482 "/>
<text x="68" y="374" dy="0.5ex" text-anchor="end" font-family="sans-serif" font-size="9.67741935483871" opacity="1" fill="#000000">
0.57 MB
</text>
<polyline fill="none" opacity="1" stroke="#000000" stroke-width="1" points="72,374 77,374 "/>
<text x="68" y="266" dy="0.5ex" text-anchor="end" font-family="sans-serif" font-size="9.67741935483871" opacity="1" fill="#000000">
0.76 MB
</text>
<polyline fill="none" opacity="1" stroke="#000000" stroke-width="1" points="72,266 77,266 "/>
<text x="68" y="158" dy="0.5ex" text-anchor="end" font-family="sans-serif" font-size="9.67741935483871" opacity="1" fill="#000000">
0.95 MB
</text>
<polyline fill="none" opacity="1" stroke="#000000" stroke-width="1" points="72,158 77,158 "/>
<polyline fill="none" opacity="1" stroke="#000000" stroke-width="1" points="78,700 973,700 "/>
<text x="167" y="710" dy="0.76em" text-anchor="middle" font-family="sans-serif" font-size="9.67741935483871" opacity="1" fill="#000000">
02:04:20
</text>
<polyline fill="none" opacity="1" stroke="#000000" stroke-width="1" points="167,700 167,705 "/>
<text x="285" y="710" dy="0.76em" text-anchor="middle" font-family="sans-serif" font-size="9.67741935483871" opacity="1" fill="#000000">
02:04:21
</text>
<polyline fill="none" opacity="1" stroke="#000000" stroke-width="1" points="285,700 285,705 "/>
<text x="404" y="710" dy="0.76em" text-anchor="middle" font-family="sans-serif" font-size="9.67741935483871" opacity="1" fill="#000000">
02:04:22
</text>
<polyline fill="none" opacity="1" stroke="#000000" stroke-width="1" points="404,700 404,705 "/>
<text x="522" y="710" dy="0.76em" text-anchor="middle" font-family="sans-serif" font-size="9.67741935483871" opacity="1" fill="#000000">
02:04:23
</text>
<polyline fill="none" opacity="1" stroke="#000000" stroke-width="1" points="522,700 522,705 "/>
<text x="641" y="710" dy="0.76em" text-anchor="middle" font-family="sans-serif" font-size="9.67741935483871" opacity="1" fill="#000000">
02:04:24
</text>
<polyline fill="none" opacity="1" stroke="#000000" stroke-width="1" points="641,700 641,705 "/>
<text x="760" y="710" dy="0.76em" text-anchor="middle" font-family="sans-serif" font-size="9.67741935483871" opacity="1" fill="#000000">
02:04:25
</text>
<polyline fill="none" opacity="1" stroke="#000000" stroke-width="1" points="760,700 760,705 "/>
<text x="878" y="710" dy="0.76em" text-anchor="middle" font-family="sans-serif" font-size="9.67741935483871" opacity="1" fill="#000000">
02:04:26
</text>
<polyline fill="none" opacity="1" stroke="#000000" stroke-width="1" points="878,700 878,705 "/>
<polyline fill="none" opacity="1" stroke="#000000" stroke-width="1" points="78,67 974,67 "/>
<text x="167" y="58" dy="-0.5ex" text-anchor="middle" font-family="sans-serif" font-size="9.67741935483871" opacity="1" fill="#000000">
+3s
</text>
<polyline fill="none" opacity="1" stroke="#000000" stroke-width="1" points="167,62 167,67 "/>
<text x="285" y="58" dy="-0.5ex" text-anchor="middle" font-family="sans-serif" font-size="9.67741935483871" opacity="1" fill="#000000">
+4s
</text>
<polyline fill="none" opacity="1" stroke="#000000" stroke-width="1" points="285,62 285,67 "/>
<text x="404" y="58" dy="-0.5ex" text-anchor="middle" font-family="sans-serif" font-size="9.67741935483871" opacity="1" fill="#000000">
+5s
</text>
<polyline fill="none" opacity="1" stroke="#000000" stroke-width="1" points="404,62 404,67 "/>
<text x="523" y="58" dy="-0.5ex" text-anchor="middle" font-family="sans-serif" font-size="9.67741935483871" opacity="1" fill="#000000">
+6s
</text>
<polyline fill="none" opacity="1" stroke="#000000" stroke-width="1" points="523,62 523,67 "/>
<text x="642" y="58" dy="-0.5ex" text-anchor="middle" font-family="sans-serif" font-size="9.67741935483871" opacity="1" fill="#000000">
+7s
</text>
<polyline fill="none" opacity="1" stroke="#000000" stroke-width="1" points="642,62 642,67 "/>
<text x="760" y="58" dy="-0.5ex" text-anchor="middle" font-family="sans-serif" font-size="9.67741935483871" opacity="1" fill="#000000">
+8s
</text>
<polyline fill="none" opacity="1" stroke="#000000" stroke-width="1" points="760,62 760,67 "/>
<text x="879" y="58" dy="-0.5ex" text-anchor="middle" font-family="sans-serif" font-size="9.67741935483871" opacity="1" fill="#000000">
+9s
</text>
<polyline fill="none" opacity="1" stroke="#000000" stroke-width="1" points="879,62 879,67 "/>
</svg>
