<svg width="1024" height="768" viewBox="0 0 1024 768" xmlns="http://www.w3.org/2000/svg">
<rect x="0" y="0" width="1024" height="768" opacity="1" fill="#FFFFFF" stroke="none"/>
<polygon opacity="1" fill="#E6194B" points="78,678 78,674 79,648 80,647 81,645 82,637 83,651 84,653 85,659 86,669 86,659 87,665 88,672 89,675 90,662 91,663 92,617 93,599 94,617 95,603 95,572 96,580 97,606 98,607 99,591 100,603 101,614 102,635 103,630 103,645 104,638 105,640 106,645 107,655 108,656 109,646 110,650 111,678 112,658 112,650 113,652 114,648 115,646 116,646 117,650 118,649 119,634 120,621 120,608 121,590 122,580 123,591 124,606 125,606 126,629 127,631 128,617 129,617 129,598 130,576 131,539 132,525 133,523 134,556 135,587 136,592 137,607 137,608 138,604 139,597 140,579 141,559 142,538 143,531 144,527 145,528 146,527 146,525 147,534 148,559 149,568 150,556 151,545 152,534 153,525 154,526 154,524 155,540 156,536 157,516 158,494 159,475 160,472 161,470 162,472 163,464 163,439 164,434 165,420 166,406 167,409 168,418 169,391 170,371 171,359 171,347 172,345 173,330 174,301 175,300 176,299 177,320 178,321 179,311 180,299 180,293 181,300 182,306 183,305 184,308 185,278 186,276 187,269 188,258 188,258 189,288 190,294 191,289 192,263 193,258 194,247 195,248 196,241 197,243 197,215 198,204 199,191 200,210 201,204 202,207 203,235 204,239 205,233 205,239 206,239 207,224 208,194 209,184 210,188 211,185 212,192 213,201 214,190 214,205 215,195 216,182 217,177 218,168 219,190 220,185 221,215 222,238 222,228 223,230 224,229 225,194 226,182 227,187 228,169 229,173 230,181 231,196 231,177 232,169 233,174 234,189 235,189 236,184 237,167 238,153 239,170 239,151 240,136 241,149 242,144 243,167 244,165 245,160 246,140 247,136 248,132 248,144 249,140 250,148 251,140 252,151 253,178 254,182 255,192 256,215 257,223 257,220 258,187 259,190 260,177 261,142 262,146 263,197 264,220 265,238 265,253 266,207 267,215 268,246 269,246 270,231 271,247 272,235 273,227 274,195 274,167 275,170 276,192 277,184 278,180 279,184 280,204 281,221 282,235 282,242 283,215 284,225 285,221 286,210 287,214 288,225 289,238 290,236 291,222 291,238 292,244 293,235 294,243 295,248 296,251 297,239 298,223 299,229 299,209 300,192 301,196 302,230 303,221 304,215 305,242 306,233 307,231 308,267 308,250 309,281 310,262 311,247 312,255 313,265 314,255 315,254 316,230 316,222 317,211 318,239 319,235 320,234 321,259 322,226 323,200 324,202 325,201 325,224 326,214 327,226 328,238 329,220 330,194 331,188 332,200 333,204 333,194 334,195 335,210 336,209 337,199 338,185 339,176 340,167 341,173 342,176 342,185 343,177 344,163 345,175 346,169 347,174 348,186 349,200 350,185 350,195 351,196 352,162 353,152 354,158 355,156 356,156 357,176 358,187 359,164 359,173 360,178 361,187 362,199 363,194 364,207 365,228 366,238 367,241 367,215 368,210 369,205 370,203 371,177 372,171 373,193 374,182 375,193 376,193 376,172 377,154 378,176 379,182 380,181 381,195 382,213 383,208 384,214 384,234 385,232 386,233 387,251 388,253 389,244 390,242 391,232 392,219 393,210 393,225 394,211 395,227 396,219 397,222 398,226 399,221 400,188 401,171 401,155 402,155 403,153 404,145 405,130 406,141 407,156 408,145 409,131 410,109 410,99 411,88 412,68 413,90 414,112 415,123 416,129 417,124 418,132 418,137 419,115 420,128 421,120 422,96 423,90 424,105 425,127 426,124 427,144 427,128 428,117 429,111 430,137 431,134 432,142 433,147 434,154 435,158 436,170 436,181 437,187 438,193 439,208 440,216 441,249 442,239 443,228 444,223 444,229 445,235 446,243 447,252 448,260 449,257 450,262 451,276 452,318 453,316 453,296 454,312 455,336 456,328 457,307 458,313 459,322 460,334 461,323 461,327 462,318 463,296 464,283 465,294 466,283 467,293 468,305 469,328 470,307 470,301 471,299 472,288 473,272 474,280 475,278 476,288 477,303 478,302 478,315 479,306 480,306 481,297 482,287 483,279 484,265 485,250 486,246 487,248 487,280 488,273 489,259 490,267 491,272 492,276 493,277 494,268 495,258 495,232 496,218 497,215 498,211 499,183 500,190 501,208 502,216 503,247 504,275 504,278 505,301 506,343 507,311 508,307 509,302 510,270 511,275 512,325 512,336 513,332 514,313 515,326 516,314 517,274 518,272 519,262 520,274 521,284 521,299 522,297 523,290 524,287 525,297 526,334 527,333 528,325 529,314 529,310 530,311 531,317 532,326 533,321 534,328 535,352 536,344 537,328 538,340 538,353 539,365 540,365 541,372 542,344 543,351 544,331 545,326 546,346 546,333 547,341 548,352 549,351 550,369 551,326 552,314 553,309 554,337 555,303 555,278 556,268 557,251 558,266 559,239 560,231 561,231 562,234 563,267 563,243 564,240 565,243 566,238 567,260 568,258 569,241 570,234 571,216 572,221 572,216 573,214 574,245 575,248 576,251 577,258 578,252 579,261 580,267 580,274 581,297 582,268 583,261 584,268 585,223 586,224 587,223 588,224 589,229 589,211 590,197 591,199 592,198 593,192 594,204 595,204 596,210 597,243 597,210 598,198 599,181 600,176 601,206 602,190 603,195 604,198 605,164 606,176 606,171 607,184 608,210 609,219 610,197 611,176 612,187 613,176 614,186 615,177 615,198 616,233 617,226 618,235 619,234 620,246 621,252 622,247 623,259 623,262 624,265 625,258 626,246 627,272 628,266 629,264 630,278 631,280 632,264 632,242 633,263 634,255 635,256 636,272 637,264 638,250 639,246 640,271 640,275 641,261 642,254 643,257 644,280 645,289 646,288 647,275 648,284 649,274 649,256 650,253 651,283 652,273 653,248 654,248 655,257 656,247 657,232 657,234 658,261 659,241 660,257 661,237 662,262 663,261 664,253 665,243 666,241 666,239 667,275 668,235 669,233 670,249 671,242 672,246 673,274 674,272 674,252 675,249 676,270 677,280 678,295 679,333 680,326 681,327 682,307 683,333 683,312 684,316 685,320 686,320 687,330 688,350 689,343 690,353 691,377 691,381 692,391 693,366 694,365 695,356 696,357 697,346 698,365 699,360 700,373 700,365 701,347 702,354 703,369 704,379 705,349 706,348 707,350 708,359 708,368 709,369 710,384 711,423 712,418 713,443 714,442 715,405 716,396 717,395 717,408 718,403 719,417 720,404 721,409 722,421 723,397 724,379 725,382 725,400 726,417 727,410 728,401 729,403 730,420 731,410 732,424 733,418 734,416 734,408 735,391 736,401 737,411 738,414 739,383 740,364 741,359 742,358 742,383 743,379 744,355 745,345 746,331 747,308 748,311 749,336 750,332 751,335 751,326 752,319 753,332 754,345 755,330 756,325 757,347 758,363 759,337 759,299 760,304 761,292 762,292 763,326 764,338 765,348 766,346 767,343 768,342 768,358 769,355 770,342 771,316 772,335 773,334 774,331 775,352 776,365 776,360 777,354 778,349 779,344 780,346 781,335 782,336 783,318 784,295 785,274 785,282 786,288 787,275 788,272 789,264 790,249 791,269 792,291 793,306 794,285 794,282 795,289 796,284 797,285 798,257 799,246 800,288 801,289 802,283 802,273 803,282 804,275 805,309 806,312 807,262 808,300 809,310 810,306 811,314 811,328 812,334 813,339 814,316 815,326 816,347 817,339 818,308 819,316 819,307 820,314 821,323 822,356 823,364 824,337 825,339 826,333 827,356 828,349 828,355 829,353 830,360 831,344 832,366 833,354 834,360 835,369 836,367 836,365 837,377 838,393 839,341 840,339 841,327 842,327 843,311 844,308 845,290 845,281 846,288 847,287 848,291 849,291 850,278 851,285 852,283 853,293 853,291 854,293 855,282 856,277 857,282 858,295 859,304 860,282 861,278 862,263 862,259 863,262 864,263 865,266 866,262 867,269 868,264 869,256 870,264 870,263 871,251 872,246 873,254 874,259 875,243 876,243 877,229 878,247 879,245 879,245 880,276 881,279 882,265 883,259 884,243 885,234 886,239 887,236 887,234 888,240 889,225 890,196 891,165 892,179 893,206 894,175 895,172 896,196 896,174 897,175 898,186 899,165 900,166 901,178 902,142 903,135 904,157 904,157 905,141 906,142 907,170 908,189 909,221 910,223 911,221 912,226 913,234 913,247 914,270 915,252 916,250 917,251 918,226 919,220 920,214 921,229 921,224 922,225 923,218 924,206 925,198 926,179 927,152 928,158 929,170 930,188 930,217 931,227 932,244 933,235 934,227 935,206 936,206 937,187 938,180 938,163 939,173 940,163 941,167 942,169 943,166 944,155 945,154 946,163 947,160 947,148 948,141 949,136 950,134 951,128 952,145 953,157 954,163 955,147 955,144 956,128 957,138 958,128 959,152 960,142 961,132 962,149 963,170 964,182 964,205 965,201 966,229 967,251 968,273 969,324 970,359 971,440 972,533 973,669 973,699 973,699 973,699 78,699 "/>
<polyline fill="none" opacity="1" stroke="#E6194B" stroke-width="1" points="78,678 78,674 79,648 80,647 81,645 82,637 83,651 84,653 85,659 86,669 86,659 87,665 88,672 89,675 90,662 91,663 92,617 93,599 94,617 95,603 95,572 96,580 97,606 98,607 99,591 100,603 101,614 102,635 103,630 103,645 104,638 105,640 106,645 107,655 108,656 109,646 110,650 111,678 112,658 112,650 113,652 114,648 115,646 116,646 117,650 118,649 119,634 120,621 120,608 121,590 122,580 123,591 124,606 125,606 126,629 127,631 128,617 129,617 129,598 130,576 131,539 132,525 133,523 134,556 135,587 136,592 137,607 137,608 138,604 139,597 140,579 141,559 142,538 143,531 144,527 145,528 146,527 146,525 147,534 148,559 149,568 150,556 151,545 152,534 153,525 154,526 154,524 155,540 156,536 157,516 158,494 159,475 160,472 161,470 162,472 163,464 163,439 164,434 165,420 166,406 167,409 168,418 169,391 170,371 171,359 171,347 172,345 173,330 174,301 175,300 176,299 177,320 178,321 179,311 180,299 180,293 181,300 182,306 183,305 184,308 185,278 186,276 187,269 188,258 188,258 189,288 190,294 191,289 192,263 193,258 194,247 195,248 196,241 197,243 197,215 198,204 199,191 200,210 201,204 202,207 203,235 204,239 205,233 205,239 206,239 207,224 208,194 209,184 210,188 211,185 212,192 213,201 214,190 214,205 215,195 216,182 217,177 218,168 219,190 220,185 221,215 222,238 222,228 223,230 224,229 225,194 226,182 227,187 228,169 229,173 230,181 231,196 231,177 232,169 233,174 234,189 235,189 236,184 237,167 238,153 239,170 239,151 240,136 241,149 242,144 243,167 244,165 245,160 246,140 247,136 248,132 248,144 249,140 250,148 251,140 252,151 253,178 254,182 255,192 256,215 257,223 257,220 258,187 259,190 260,177 261,142 262,146 263,197 264,220 265,238 265,253 266,207 267,215 268,246 269,246 270,231 271,247 272,235 273,227 274,195 274,167 275,170 276,192 277,184 278,180 279,184 280,204 281,221 282,235 282,242 283,215 284,225 285,221 286,210 287,214 288,225 289,238 290,236 291,222 291,238 292,244 293,235 294,243 295,248 296,251 297,239 298,223 299,229 299,209 300,192 301,196 302,230 303,221 304,215 305,242 306,233 307,231 308,267 308,250 309,281 310,262 311,247 312,255 313,265 314,255 315,254 316,230 316,222 317,211 318,239 319,235 320,234 321,259 322,226 323,200 324,202 325,201 325,224 326,214 327,226 328,238 329,220 330,194 331,188 332,200 333,204 333,194 334,195 335,210 336,209 337,199 338,185 339,176 340,167 341,173 342,176 342,185 343,177 344,163 345,175 346,169 347,174 348,186 349,200 350,185 350,195 351,196 352,162 353,152 354,158 355,156 356,156 357,176 358,187 359,164 359,173 360,178 361,187 362,199 363,194 364,207 365,228 366,238 367,241 367,215 368,210 369,205 370,203 371,177 372,171 373,193 374,182 375,193 376,193 376,172 377,154 378,176 379,182 380,181 381,195 382,213 383,208 384,214 384,234 385,232 386,233 387,251 388,253 389,244 390,242 391,232 392,219 393,210 393,225 394,211 395,227 396,219 397,222 398,226 399,221 400,188 401,171 401,155 402,155 403,153 404,145 405,130 406,141 407,156 408,145 409,131 410,109 410,99 411,88 412,68 413,90 414,112 415,123 416,129 417,124 418,132 418,137 419,115 420,128 421,120 422,96 423,90 424,105 425,127 426,124 427,144 427,128 428,117 429,111 430,137 431,134 432,142 433,147 434,154 435,158 436,170 436,181 437,187 438,193 439,208 440,216 441,249 442,239 443,228 444,223 444,229 445,235 446,243 447,252 448,260 449,257 450,262 451,276 452,318 453,316 453,296 454,312 455,336 456,328 457,307 458,313 459,322 460,334 461,323 461,327 462,318 463,296 464,283 465,294 466,283 467,293 468,305 469,328 470,307 470,301 471,299 472,288 473,272 474,280 475,278 476,288 477,303 478,302 478,315 479,306 480,306 481,297 482,287 483,279 484,265 485,250 486,246 487,248 487,280 488,273 489,259 490,267 491,272 492,276 493,277 494,268 495,258 495,232 496,218 497,215 498,211 499,183 500,190 501,208 502,216 503,247 504,275 504,278 505,301 506,343 507,311 508,307 509,302 510,270 511,275 512,325 512,336 513,332 514,313 515,326 516,314 517,274 518,272 519,262 520,274 521,284 521,299 522,297 523,290 524,287 525,297 526,334 527,333 528,325 529,314 529,310 530,311 531,317 532,326 533,321 534,328 535,352 536,344 537,328 538,340 538,353 539,365 540,365 541,372 542,344 543,351 544,331 545,326 546,346 546,333 547,341 548,352 549,351 550,369 551,326 552,314 553,309 554,337 555,303 555,278 556,268 557,251 558,266 559,239 560,231 561,231 562,234 563,267 563,243 564,240 565,243 566,238 567,260 568,258 569,241 570,234 571,216 572,221 572,216 573,214 574,245 575,248 576,251 577,258 578,252 579,261 580,267 580,274 581,297 582,268 583,261 584,268 585,223 586,224 587,223 588,224 589,229 589,211 590,197 591,199 592,198 593,192 594,204 595,204 596,210 597,243 597,210 598,198 599,181 600,176 601,206 602,190 603,195 604,198 605,164 606,176 606,171 607,184 608,210 609,219 610,197 611,176 612,187 613,176 614,186 615,177 615,198 616,233 617,226 618,235 619,234 620,246 621,252 622,247 623,259 623,262 624,265 625,258 626,246 627,272 628,266 629,264 630,278 631,280 632,264 632,242 633,263 634,255 635,256 636,272 637,264 638,250 639,246 640,271 640,275 641,261 642,254 643,257 644,280 645,289 646,288 647,275 648,284 649,274 649,256 650,253 651,283 652,273 653,248 654,248 655,257 656,247 657,232 657,234 658,261 659,241 660,257 661,237 662,262 663,261 664,253 665,243 666,241 666,239 667,275 668,235 669,233 670,249 671,242 672,246 673,274 674,272 674,252 675,249 676,270 677,280 678,295 679,333 680,326 681,327 682,307 683,333 683,312 684,316 685,320 686,320 687,330 688,350 689,343 690,353 691,377 691,381 692,391 693,366 694,365 695,356 696,357 697,346 698,365 699,360 700,373 700,365 701,347 702,354 703,369 704,379 705,349 706,348 707,350 708,359 708,368 709,369 710,384 711,423 712,418 713,443 714,442 715,405 716,396 717,395 717,408 718,403 719,417 720,404 721,409 722,421 723,397 724,379 725,382 725,400 726,417 727,410 728,401 729,403 730,420 731,410 732,424 733,418 734,416 734,408 735,391 736,401 737,411 738,414 739,383 740,364 741,359 742,358 742,383 743,379 744,355 745,345 746,331 747,308 748,311 749,336 750,332 751,335 751,326 752,319 753,332 754,345 755,330 756,325 757,347 758,363 759,337 759,299 760,304 761,292 762,292 763,326 764,338 765,348 766,346 767,343 768,342 768,358 769,355 770,342 771,316 772,335 773,334 774,331 775,352 776,365 776,360 777,354 778,349 779,344 780,346 781,335 782,336 783,318 784,295 785,274 785,282 786,288 787,275 788,272 789,264 790,249 791,269 792,291 793,306 794,285 794,282 795,289 796,284 797,285 798,257 799,246 800,288 801,289 802,283 802,273 803,282 804,275 805,309 806,312 807,262 808,300 809,310 810,306 811,314 811,328 812,334 813,339 814,316 815,326 816,347 817,339 818,308 819,316 819,307 820,314 821,323 822,356 823,364 824,337 825,339 826,333 827,356 828,349 828,355 829,353 830,360 831,344 832,366 833,354 834,360 835,369 836,367 836,365 837,377 838,393 839,341 840,339 841,327 842,327 843,311 844,308 845,290 845,281 846,288 847,287 848,291 849,291 850,278 851,285 852,283 853,293 853,291 854,293 855,282 856,277 857,282 858,295 859,304 860,282 861,278 862,263 862,259 863,262 864,263 865,266 866,262 867,269 868,264 869,256 870,264 870,263 871,251 872,246 873,254 874,259 875,243 876,243 877,229 878,247 879,245 879,245 880,276 881,279 882,265 883,259 884,243 885,234 886,239 887,236 887,234 888,240 889,225 890,196 891,165 892,179 893,206 894,175 895,172 896,196 896,174 897,175 898,186 899,165 900,166 901,178 902,142 903,135 904,157 904,157 905,141 906,142 907,170 908,189 909,221 910,223 911,221 912,226 913,234 913,247 914,270 915,252 916,250 917,251 918,226 919,220 920,214 921,229 921,224 922,225 923,218 924,206 925,198 926,179 927,152 928,158 929,170 930,188 930,217 931,227 932,244 933,235 934,227 935,206 936,206 937,187 938,180 938,163 939,173 940,163 941,167 942,169 943,166 944,155 945,154 946,163 947,160 947,148 948,141 949,136 950,134 951,128 952,145 953,157 954,163 955,147 955,144 956,128 957,138 958,128 959,152 960,142 961,132 962,149 963,170 964,182 964,205 965,201 966,229 967,251 968,273 969,324 970,359 971,440 972,533 973,669 973,699 973,699 "/>
<line opacity="0.1" stroke="#000000" stroke-width="1" x1="78" y1="699" x2="78" y2="68"/>
<line opacity="0.1" stroke="#000000" stroke-width="1" x1="90" y1="699" x2="90" y2="68"/>
<line opacity="0.1" stroke="#000000" stroke-width="1" x1="102" y1="699" x2="102" y2="68"/>
<line opacity="0.1" stroke="#000000" stroke-width="1" x1="114" y1="699" x2="114" y2="68"/>
<line opacity="0.1" stroke="#000000" stroke-width="1" x1="126" y1="699" x2="126" y2="68"/>
<line opacity="0.1" stroke="#000000" stroke-width="1" x1="138" y1="699" x2="138" y2="68"/>
<line opacity="0.1" stroke="#000000" stroke-width="1" x1="150" y1="699" x2="150" y2="68"/>
<line opacity="0.1" stroke="#000000" stroke-width="1" x1="162" y1="699" x2="162" y2="68"/>
<line opacity="0.1" stroke="#000000" stroke-width="1" x1="174" y1="699" x2="174" y2="68"/>
<line opacity="0.1" stroke="#000000" stroke-width="1" x1="186" y1="699" x2="186" y2="68"/>
<line opacity="0.1" stroke="#000000" stroke-width="1" x1="197" y1="699" x2="197" y2="68"/>
<line opacity="0.1" stroke="#000000" stroke-width="1" x1="209" y1="699" x2="209" y2="68"/>
<line opacity="0.1" stroke="#000000" stroke-width="1" x1="221" y1="699" x2="221" y2="68"/>
<line opacity="0.1" stroke="#000000" stroke-width="1" x1="233" y1="699" x2="233" y2="68"/>
<line opacity="0.1" stroke="#000000" stroke-width="1" x1="245" y1="699" x2="245" y2="68"/>
<line opacity="0.1" stroke="#000000" stroke-width="1" x1="257" y1="699" x2="257" y2="68"/>
<line opacity="0.1" stroke="#000000" stroke-width="1" x1="269" y1="699" x2="269" y2="68"/>
<line opacity="0.1" stroke="#000000" stroke-width="1" x1="281" y1="699" x2="281" y2="68"/>
<line opacity="0.1" stroke="#000000" stroke-width="1" x1="293" y1="699" x2="293" y2="68"/>
<line opacity="0.1" stroke="#000000" stroke-width="1" x1="305" y1="699" x2="305" y2="68"/>
<line opacity="0.1" stroke="#000000" stroke-width="1" x1="317" y1="699" x2="317" y2="68"/>
<line opacity="0.1" stroke="#000000" stroke-width="1" x1="329" y1="699" x2="329" y2="68"/>
<line opacity="0.1" stroke="#000000" stroke-width="1" x1="341" y1="699" x2="341" y2="68"/>
<line opacity="0.1" stroke="#000000" stroke-width="1" x1="353" y1="699" x2="353" y2="68"/>
<line opacity="0.1" stroke="#000000" stroke-width="1" x1="365" y1="699" x2="365" y2="68"/>
<line opacity="0.1" stroke="#000000" stroke-width="1" x1="377" y1="699" x2="377" y2="68"/>
<line opacity="0.1" stroke="#000000" stroke-width="1" x1="389" y1="699" x2="389" y2="68"/>
<line opacity="0.1" stroke="#000000" stroke-width="1" x1="401" y1="699" x2="401" y2="68"/>
<line opacity="0.1" stroke="#000000" stroke-width="1" x1="413" y1="699" x2="413" y2="68"/>
<line opacity="0.1" stroke="#000000" stroke-width="1" x1="425" y1="699" x2="425" y2="68"/>
<line opacity="0.1" stroke="#000000" stroke-width="1" x1="437" y1="699" x2="437" y2="68"/>
<line opacity="0.1" stroke="#000000" stroke-width="1" x1="449" y1="699" x2="449" y2="68"/>
<line opacity="0.1" stroke="#000000" stroke-width="1" x1="461" y1="699" x2="461" y2="68"/>
<line opacity="0.1" stroke="#000000" stroke-width="1" x1="472" y1="699" x2="472" y2="68"/>
<line opacity="0.1" stroke="#000000" stroke-width="1" x1="484" y1="699" x2="484" y2="68"/>
<line opacity="0.1" stroke="#000000" stroke-width="1" x1="496" y1="699" x2="496" y2="68"/>
<line opacity="0.1" stroke="#000000" stroke-width="1" x1="508" y1="699" x2="508" y2="68"/>
<line opacity="0.1" stroke="#000000" stroke-width="1" x1="520" y1="699" x2="520" y2="68"/>
<line opacity="0.1" stroke="#000000" stroke-width="1" x1="532" y1="699" x2="532" y2="68"/>
<line opacity="0.1" stroke="#000000" stroke-width="1" x1="544" y1="699" x2="544" y2="68"/>
<line opacity="0.1" stroke="#000000" stroke-width="1" x1="556" y1="699" x2="556" y2="68"/>
<line opacity="0.1" stroke="#000000" stroke-width="1" x1="568" y1="699" x2="568" y2="68"/>
<line opacity="0.1" stroke="#000000" stroke-width="1" x1="580" y1="699" x2="580" y2="68"/>
<line opacity="0.1" stroke="#000000" stroke-width="1" x1="592" y1="699" x2="592" y2="68"/>
<line opacity="0.1" stroke="#000000" stroke-width="1" x1="604" y1="699" x2="604" y2="68"/>
<line opacity="0.1" stroke="#000000" stroke-width="1" x1="616" y1="699" x2="616" y2="68"/>
<line opacity="0.1" stroke="#000000" stroke-width="1" x1="628" y1="699" x2="628" y2="68"/>
<line opacity="0.1" stroke="#000000" stroke-width="1" x1="640" y1="699" x2="640" y2="68"/>
<line opacity="0.1" stroke="#000000" stroke-width="1" x1="652" y1="699" x2="652" y2="68"/>
<line opacity="0.1" stroke="#000000" stroke-width="1" x1="664" y1="699" x2="664" y2="68"/>
<line opacity="0.1" stroke="#000000" stroke-width="1" x1="676" y1="699" x2="676" y2="68"/>
<line opacity="0.1" stroke="#000000" stroke-width="1" x1="688" y1="699" x2="688" y2="68"/>
<line opacity="0.1" stroke="#000000" stroke-width="1" x1="700" y1="699" x2="700" y2="68"/>
<line opacity="0.1" stroke="#000000" stroke-width="1" x1="712" y1="699" x2="712" y2="68"/>
<line opacity="0.1" stroke="#000000" stroke-width="1" x1="724" y1="699" x2="724" y2="68"/>
<line opacity="0.1" stroke="#000000" stroke-width="1" x1="735" y1="699" x2="735" y2="68"/>
<line opacity="0.1" stroke="#000000" stroke-width="1" x1="747" y1="699" x2="747" y2="68"/>
<line opacity="0.1" stroke="#000000" stroke-width="1" x1="759" y1="699" x2="759" y2="68"/>
<line opacity="0.1" stroke="#000000" stroke-width="1" x1="771" y1="699" x2="771" y2="68"/>
<line opacity="0.1" stroke="#000000" stroke-width="1" x1="783" y1="699" x2="783" y2="68"/>
<line opacity="0.1" stroke="#000000" stroke-width="1" x1="795" y1="699" x2="795" y2="68"/>
<line opacity="0.1" stroke="#000000" stroke-width="1" x1="807" y1="699" x2="807" y2="68"/>
<line opacity="0.1" stroke="#000000" stroke-width="1" x1="819" y1="699" x2="819" y2="68"/>
<line opacity="0.1" stroke="#000000" stroke-width="1" x1="831" y1="699" x2="831" y2="68"/>
<line opacity="0.1" stroke="#000000" stroke-width="1" x1="843" y1="699" x2="843" y2="68"/>
<line opacity="0.1" stroke="#000000" stroke-width="1" x1="855" y1="699" x2="855" y2="68"/>
<line opacity="0.1" stroke="#000000" stroke-width="1" x1="867" y1="699" x2="867" y2="68"/>
<line opacity="0.1" stroke="#000000" stroke-width="1" x1="879" y1="699" x2="879" y2="68"/>
<line opacity="0.1" stroke="#000000" stroke-width="1" x1="891" y1="699" x2="891" y2="68"/>
<line opacity="0.1" stroke="#000000" stroke-width="1" x1="903" y1="699" x2="903" y2="68"/>
<line opacity="0.1" stroke="#000000" stroke-width="1" x1="915" y1="699" x2="915" y2="68"/>
<line opacity="0.1" stroke="#000000" stroke-width="1" x1="927" y1="699" x2="927" y2="68"/>
<line opacity="0.1" stroke="#000000" stroke-width="1" x1="939" y1="699" x2="939" y2="68"/>
<line opacity="0.1" stroke="#000000" stroke-width="1" x1="951" y1="699" x2="951" y2="68"/>
<line opacity="0.1" stroke="#000000" stroke-width="1" x1="963" y1="699" x2="963" y2="68"/>
<line opacity="0.1" stroke="#000000" stroke-width="1" x1="78" y1="699" x2="973" y2="699"/>
<line opacity="0.1" stroke="#000000" stroke-width="1" x1="78" y1="690" x2="973" y2="690"/>
<line opacity="0.1" stroke="#000000" stroke-width="1" x1="78" y1="681" x2="973" y2="681"/>
<line opacity="0.1" stroke="#000000" stroke-width="1" x1="78" y1="672" x2="973" y2="672"/>
<line opacity="0.1" stroke="#000000" stroke-width="1" x1="78" y1="663" x2="973" y2="663"/>
<line opacity="0.1" stroke="#000000" stroke-width="1" x1="78" y1="654" x2="973" y2="654"/>
<line opacity="0.1" stroke="#000000" stroke-width="1" x1="78" y1="645" x2="973" y2="645"/>
<line opacity="0.1" stroke="#000000" stroke-width="1" x1="78" y1="637" x2="973" y2="637"/>
<line opacity="0.1" stroke="#000000" stroke-width="1" x1="78" y1="628" x2="973" y2="628"/>
<line opacity="0.1" stroke="#000000" stroke-width="1" x1="78" y1="619" x2="973" y2="619"/>
<line opacity="0.1" stroke="#000000" stroke-width="1" x1="78" y1="610" x2="973" y2="610"/>
<line opacity="0.1" stroke="#000000" stroke-width="1" x1="78" y1="601" x2="973" y2="601"/>
<line opacity="0.1" stroke="#000000" stroke-width="1" x1="78" y1="592" x2="973" y2="592"/>
<line opacity="0.1" stroke="#000000" stroke-width="1" x1="78" y1="584" x2="973" y2="584"/>
<line opacity="0.1" stroke="#000000" stroke-width="1" x1="78" y1="575" x2="973" y2="575"/>
<line opacity="0.1" stroke="#000000" stroke-width="1" x1="78" y1="566" x2="973" y2="566"/>
<line opacity="0.1" stroke="#000000" stroke-width="1" x1="78" y1="557" x2="973" y2="557"/>
<line opacity="0.1" stroke="#000000" stroke-width="1" x1="78" y1="548" x2="973" y2="548"/>
<line opacity="0.1" stroke="#000000" stroke-width="1" x1="78" y1="539" x2="973" y2="539"/>
<line opacity="0.1" stroke="#000000" stroke-width="1" x1="78" y1="531" x2="973" y2="531"/>
<line opacity="0.1" stroke="#000000" stroke-width="1" x1="78" y1="522" x2="973" y2="522"/>
<line opacity="0.1" stroke="#000000" stroke-width="1" x1="78" y1="513" x2="973" y2="513"/>
<line opacity="0.1" stroke="#000000" stroke-width="1" x1="78" y1="504" x2="973" y2="504"/>
<line opacity="0.1" stroke="#000000" stroke-width="1" x1="78" y1="495" x2="973" y2="495"/>
<line opacity="0.1" stroke="#000000" stroke-width="1" x1="78" y1="486" x2="973" y2="486"/>
<line opacity="0.1" stroke="#000000" stroke-width="1" x1="78" y1="478" x2="973" y2="478"/>
<line opacity="0.1" stroke="#000000" stroke-width="1" x1="78" y1="469" x2="973" y2="469"/>
<line opacity="0.1" stroke="#000000" stroke-width="1" x1="78" y1="460" x2="973" y2="460"/>
<line opacity="0.1" stroke="#000000" stroke-width="1" x1="78" y1="451" x2="973" y2="451"/>
<line opacity="0.1" stroke="#000000" stroke-width="1" x1="78" y1="442" x2="973" y2="442"/>
<line opacity="0.1" stroke="#000000" stroke-width="1" x1="78" y1="433" x2="973" y2="433"/>
<line opacity="0.1" stroke="#000000" stroke-width="1" x1="78" y1="425" x2="973" y2="425"/>
<line opacity="0.1" stroke="#000000" stroke-width="1" x1="78" y1="416" x2="973" y2="416"/>
<line opacity="0.1" stroke="#000000" stroke-width="1" x1="78" y1="407" x2="973" y2="407"/>
<line opacity="0.1" stroke="#000000" stroke-width="1" x1="78" y1="398" x2="973" y2="398"/>
<line opacity="0.1" stroke="#000000" stroke-width="1" x1="78" y1="389" x2="973" y2="389"/>
<line opacity="0.1" stroke="#000000" stroke-width="1" x1="78" y1="380" x2="973" y2="380"/>
<line opacity="0.1" stroke="#000000" stroke-width="1" x1="78" y1="372" x2="973" y2="372"/>
<line opacity="0.1" stroke="#000000" stroke-width="1" x1="78" y1="363" x2="973" y2="363"/>
<line opacity="0.1" stroke="#000000" stroke-width="1" x1="78" y1="354" x2="973" y2="354"/>
<line opacity="0.1" stroke="#000000" stroke-width="1" x1="78" y1="345" x2="973" y2="345"/>
<line opacity="0.1" stroke="#000000" stroke-width="1" x1="78" y1="336" x2="973" y2="336"/>
<line opacity="0.1" stroke="#000000" stroke-width="1" x1="78" y1="327" x2="973" y2="327"/>
<line opacity="0.1" stroke="#000000" stroke-width="1" x1="78" y1="319" x2="973" y2="319"/>
<line opacity="0.1" stroke="#000000" stroke-width="1" x1="78" y1="310" x2="973" y2="310"/>
<line opacity="0.1" stroke="#000000" stroke-width="1" x1="78" y1="301" x2="973" y2="301"/>
<line opacity="0.1" stroke="#000000" stroke-width="1" x1="78" y1="292" x2="973" y2="292"/>
<line opacity="0.1" stroke="#000000" stroke-width="1" x1="78" y1="283" x2="973" y2="283"/>
<line opacity="0.1" stroke="#000000" stroke-width="1" x1="78" y1="274" x2="973" y2="274"/>
<line opacity="0.1" stroke="#000000" stroke-width="1" x1="78" y1="266" x2="973" y2="266"/>
<line opacity="0.1" stroke="#000000" stroke-width="1" x1="78" y1="257" x2="973" y2="257"/>
<line opacity="0.1" stroke="#000000" stroke-width="1" x1="78" y1="248" x2="973" y2="248"/>
<line opacity="0.1" stroke="#000000" stroke-width="1" x1="78" y1="239" x2="973" y2="239"/>
<line opacity="0.1" stroke="#000000" stroke-width="1" x1="78" y1="230" x2="973" y2="230"/>
<line opacity="0.1" stroke="#000000" stroke-width="1" x1="78" y1="221" x2="973" y2="221"/>
<line opacity="0.1" stroke="#000000" stroke-width="1" x1="78" y1="213" x2="973" y2="213"/>
<line opacity="0.1" stroke="#000000" stroke-width="1" x1="78" y1="204" x2="973" y2="204"/>
<line opacity="0.1" stroke="#000000" stroke-width="1" x1="78" y1="195" x2="973" y2="195"/>
<line opacity="0.1" stroke="#000000" stroke-width="1" x1="78" y1="186" x2="973" y2="186"/>
<line opacity="0.1" stroke="#000000" stroke-width="1" x1="78" y1="177" x2="973" y2="177"/>
<line opacity="0.1" stroke="#000000" stroke-width="1" x1="78" y1="168" x2="973" y2="168"/>
<line opacity="0.1" stroke="#000000" stroke-width="1" x1="78" y1="160" x2="973" y2="160"/>
<line opacity="0.1" stroke="#000000" stroke-width="1" x1="78" y1="151" x2="973" y2="151"/>
<line opacity="0.1" stroke="#000000" stroke-width="1" x1="78" y1="142" x2="973" y2="142"/>
<line opacity="0.1" stroke="#000000" stroke-width="1" x1="78" y1="133" x2="973" y2="133"/>
<line opacity="0.1" stroke="#000000" stroke-width="1" x1="78" y1="124" x2="973" y2="124"/>
<line opacity="0.1" stroke="#000000" stroke-width="1" x1="78" y1="115" x2="973" y2="115"/>
<line opacity="0.1" stroke="#000000" stroke-width="1" x1="78" y1="107" x2="973" y2="107"/>
<line opacity="0.1" stroke="#000000" stroke-width="1" x1="78" y1="98" x2="973" y2="98"/>
<line opacity="0.1" stroke="#000000" stroke-width="1" x1="78" y1="89" x2="973" y2="89"/>
<line opacity="0.1" stroke="#000000" stroke-width="1" x1="78" y1="80" x2="973" y2="80"/>
<line opacity="0.1" stroke="#000000" stroke-width="1" x1="78" y1="71" x2="973" y2="71"/>
<text x="8" y="384" dy="0.76em" text-anchor="middle" font-family="sans-serif" font-size="9.67741935483871" opacity="1" fill="#000000" transform="rotate(270, 8, 384)">
Memory usage
</text>
<text x="526" y="760" dy="-0.5ex" text-anchor="middle" font-family="sans-serif" font-size="9.67741935483871" opacity="1" fill="#000000">
Time
</text>
<line opacity="0.2" stroke="#000000" stroke-width="1" x1="102" y1="699" x2="102" y2="68"/>
<line opacity="0.2" stroke="#000000" stroke-width="1" x1="221" y1="699" x2="221" y2="68"/>
<line opacity="0.2" stroke="#000000" stroke-width="1" x1="341" y1="699" x2="341" y2="68"/>
<line opacity="0.2" stroke="#000000" stroke-width="1" x1="461" y1="699" x2="461" y2="68"/>
<line opacity="0.2" stroke="#000000" stroke-width="1" x1="580" y1="699" x2="580" y2="68"/>
<line opacity="0.2" stroke="#000000" stroke-width="1" x1="700" y1="699" x2="700" y2="68"/>
<line opacity="0.2" stroke="#000000" stroke-width="1" x1="819" y1="699" x2="819" y2="68"/>
<line opacity="0.2" stroke="#000000" stroke-width="1" x1="939" y1="699" x2="939" y2="68"/>
<line opacity="0.2" stroke="#000000" stroke-width="1" x1="78" y1="699" x2="973" y2="699"/>
<line opacity="0.2" stroke="#000000" stroke-width="1" x1="78" y1="610" x2="973" y2="610"/>
<line opacity="0.2" stroke="#000000" stroke-width="1" x1="78" y1="522" x2="973" y2="522"/>
<line opacity="0.2" stroke="#000000" stroke-width="1" x1="78" y1="433" x2="973" y2="433"/>
<line opacity="0.2" stroke="#000000" stroke-width="1" x1="78" y1="345" x2="973" y2="345"/>
<line opacity="0.2" stroke="#000000" stroke-width="1" x1="78" y1="257" x2="973" y2="257"/>
<line opacity="0.2" stroke="#000000" stroke-width="1" x1="78" y1="168" x2="973" y2="168"/>
<line opacity="0.2" stroke="#000000" stroke-width="1" x1="78" y1="80" x2="973" y2="80"/>
<polyline fill="none" opacity="1" stroke="#000000" stroke-width="1" points="77,68 77,699 "/>
<text x="68" y="699" dy="0.5ex" text-anchor="end" font-family="sans-serif" font-size="9.67741935483871" opacity="1" fill="#000000">
0 KB
</text>
<polyline fill="none" opacity="1" stroke="#000000" stroke-width="1" points="72,699 77,699 "/>
<text x="68" y="610" dy="0.5ex" text-anchor="end" font-family="sans-serif" font-size="9.67741935483871" opacity="1" fill="#000000">
48 KB
</text>
<polyline fill="none" opacity="1" stroke="#000000" stroke-width="1" points="72,610 77,610 "/>
<text x="68" y="522" dy="0.5ex" text-anchor="end" font-family="sans-serif" font-size="9.67741935483871" opacity="1" fill="#000000">
97 KB
</text>
<polyline fill="none" opacity="1" stroke="#000000" stroke-width="1" points="72,522 77,522 "/>
<text x="68" y="433" dy="0.5ex" text-anchor="end" font-family="sans-serif" font-size="9.67741935483871" opacity="1" fill="#000000">
146 KB
</text>
<polyline fill="none" opacity="1" stroke="#000000" stroke-width="1" points="72,433 77,433 "/>
<text x="68" y="345" dy="0.5ex" text-anchor="end" font-family="sans-serif" font-size="9.67741935483871" opacity="1" fill="#000000">
195 KB
</text>
<polyline fill="none" opacity="1" stroke="#000000" stroke-width="1" points="72,345 77,345 "/>
<text x="68" y="257" dy="0.5ex" text-anchor="end" font-family="sans-serif" font-size="9.67741935483871" opacity="1" fill="#000000">
244 KB
</text>
<polyline fill="none" opacity="1" stroke="#000000" stroke-width="1" points="72,257 77,257 "/>
<text x="68" y="168" dy="0.5ex" text-anchor="end" font-family="sans-serif" font-size="9.67741935483871" opacity="1" fill="#000000">
292 KB
</text>
<polyline fill="none" opacity="1" stroke="#000000" stroke-width="1" points="72,168 77,168 "/>
<text x="68" y="80" dy="0.5ex" text-anchor="end" font-family="sans-serif" font-size="9.67741935483871" opacity="1" fill="#000000">
341 KB
</text>
<polyline fill="none" opacity="1" stroke="#000000" stroke-width="1" points="72,80 77,80 "/>
<polyline fill="none" opacity="1" stroke="#000000" stroke-width="1" points="78,700 973,700 "/>
<text x="102" y="710" dy="0.76em" text-anchor="middle" font-family="sans-serif" font-size="9.67741935483871" opacity="1" fill="#000000">
02:04:17
</text>
<polyline fill="none" opacity="1" stroke="#000000" stroke-width="1" points="102,700 102,705 "/>
<text x="221" y="710" dy="0.76em" text-anchor="middle" font-family="sans-serif" font-size="9.67741935483871" opacity="1" fill="#000000">
02:04:18
</text>
<polyline fill="none" opacity="1" stroke="#000000" stroke-width="1" points="221,700 221,705 "/>
<text x="341" y="710" dy="0.76em" text-anchor="middle" font-family="sans-serif" font-size="9.67741935483871" opacity="1" fill="#000000">
02:04:19
</text>
<polyline fill="none" opacity="1" stroke="#000000" stroke-width="1" points="341,700 341,705 "/>
<text x="461" y="710" dy="0.76em" text-anchor="middle" font-family="sans-serif" font-size="9.67741935483871" opacity="1" fill="#000000">
02:04:20
</text>
<polyline fill="none" opacity="1" stroke="#000000" stroke-width="1" points="461,700 461,705 "/>
<text x="580" y="710" dy="0.76em" text-anchor="middle" font-family="sans-serif" font-size="9.67741935483871" opacity="1" fill="#000000">
02:04:21
</text>
<polyline fill="none" opacity="1" stroke="#000000" stroke-width="1" points="580,700 580,705 "/>
<text x="700" y="710" dy="0.76em" text-anchor="middle" font-family="sans-serif" font-size="9.67741935483871" opacity="1" fill="#000000">
02:04:22
</text>
<polyline fill="none" opacity="1" stroke="#000000" stroke-width="1" points="700,700 700,705 "/>
<text x="819" y="710" dy="0.76em" text-anchor="middle" font-family="sans-serif" font-size="9.67741935483871" opacity="1" fill="#000000">
02:04:23
</text>
<polyline fill="none" opacity="1" stroke="#000000" stroke-width="1" points="819,700 819,705 "/>
<text x="939" y="710" dy="0.76em" text-anchor="middle" font-family="sans-serif" font-size="9.67741935483871" opacity="1" fill="#000000">
02:04:24
</text>
<polyline fill="none" opacity="1" stroke="#000000" stroke-width="1" points="939,700 939,705 "/>
<polyline fill="none" opacity="1" stroke="#000000" stroke-width="1" points="78,67 974,67 "/>
<text x="102" y="58" dy="-0.5ex" text-anchor="middle" font-family="sans-serif" font-size="9.67741935483871" opacity="1" fill="#000000">
+265ms
</text>
<polyline fill="none" opacity="1" stroke="#000000" stroke-width="1" points="102,62 102,67 "/>
<text x="222" y="58" dy="-0.5ex" text-anchor="middle" font-family="sans-serif" font-size="9.67741935483871" opacity="1" fill="#000000">
+1s
</text>
<polyline fill="none" opacity="1" stroke="#000000" stroke-width="1" points="222,62 222,67 "/>
<text x="341" y="58" dy="-0.5ex" text-anchor="middle" font-family="sans-serif" font-size="9.67741935483871" opacity="1" fill="#000000">
+2s
</text>
<polyline fill="none" opacity="1" stroke="#000000" stroke-width="1" points="341,62 341,67 "/>
<text x="461" y="58" dy="-0.5ex" text-anchor="middle" font-family="sans-serif" font-size="9.67741935483871" opacity="1" fill="#000000">
+3s
</text>
<polyline fill="none" opacity="1" stroke="#000000" stroke-width="1" points="461,62 461,67 "/>
<text x="581" y="58" dy="-0.5ex" text-anchor="middle" font-family="sans-serif" font-size="9.67741935483871" opacity="1" fill="#000000">
+4s
</text>
<polyline fill="none" opacity="1" stroke="#000000" stroke-width="1" points="581,62 581,67 "/>
<text x="700" y="58" dy="-0.5ex" text-anchor="middle" font-family="sans-serif" font-size="9.67741935483871" opacity="1" fill="#000000">
+5s
</text>
<polyline fill="none" opacity="1" stroke="#000000" stroke-width="1" points="700,62 700,67 "/>
<text x="820" y="58" dy="-0.5ex" text-anchor="middle" font-family="sans-serif" font-size="9.67741935483871" opacity="1" fill="#000000">
+6s
</text>
<polyline fill="none" opacity="1" stroke="#000000" stroke-width="1" points="820,62 820,67 "/>
<text x="940" y="58" dy="-0.5ex" text-anchor="middle" font-family="sans-serif" font-size="9.67741935483871" opacity="1" fill="#000000">
+7s
</text>
<polyline fill="none" opacity="1" stroke="#000000" stroke-width="1" points="940,62 940,67 "/>
</svg>
