<svg width="1024" height="768" viewBox="0 0 1024 768" xmlns="http://www.w3.org/2000/svg">
<rect x="0" y="0" width="1023" height="767" opacity="1" fill="#FFFFFF" stroke="none"/>
<polygon opacity="1" fill="#E6194B" points="107,644 108,643 108,623 109,622 110,621 111,610 112,611 113,620 114,617 115,618 115,625 116,629 117,630 118,632 119,634 120,631 121,632 121,634 122,632 123,629 124,629 125,630 126,624 127,620 128,609 128,607 129,615 130,618 131,619 132,613 133,604 134,589 134,586 135,604 136,609 137,614 138,612 139,601 140,592 141,586 141,586 142,584 143,585 144,595 145,592 146,585 147,582 147,582 148,582 149,571 150,565 151,563 152,563 153,554 154,545 154,542 155,543 156,531 157,524 158,522 159,510 160,505 160,504 161,509 162,507 163,501 164,507 165,504 166,495 166,491 167,488 168,496 169,499 170,490 171,484 172,483 173,478 173,472 174,465 175,469 176,470 177,477 178,476 179,476 179,463 180,460 181,460 182,462 183,460 184,460 185,456 186,450 186,449 187,459 188,463 189,463 190,451 191,447 192,444 192,443 193,449 194,443 195,443 196,446 197,439 198,435 199,432 199,428 200,431 201,435 202,427 203,425 204,427 205,425 205,427 206,429 207,436 208,443 209,449 210,440 211,435 212,424 212,427 213,448 214,453 215,444 216,453 217,448 218,449 218,447 219,432 220,428 221,429 222,433 223,432 224,432 225,439 225,445 226,449 227,440 228,442 229,438 230,439 231,446 231,445 232,440 233,446 234,445 235,448 236,448 237,445 238,438 238,438 239,427 240,428 241,440 242,434 243,441 244,439 244,445 245,444 246,453 247,448 248,442 249,447 250,444 251,438 251,433 252,430 253,437 254,435 255,443 256,429 257,424 257,424 258,428 259,429 260,433 261,431 262,418 263,417 264,421 264,418 265,423 266,422 267,418 268,414 269,408 270,408 270,411 271,410 272,404 273,408 274,407 275,407 276,415 277,410 277,414 278,406 279,401 280,401 281,399 282,401 283,408 283,402 284,404 285,408 286,413 287,408 288,419 289,422 290,418 290,413 291,411 292,409 293,399 294,402 295,404 296,406 296,400 297,394 298,401 299,401 300,401 301,411 302,411 303,419 303,416 304,418 305,423 306,419 307,417 308,414 309,408 309,413 310,409 311,411 312,412 313,412 314,402 315,395 316,388 316,388 317,385 318,379 319,383 320,383 321,378 322,366 322,365 323,357 324,364 325,372 326,374 327,375 328,376 329,374 329,368 330,368 331,360 332,364 333,370 334,376 335,367 335,366 336,367 337,373 338,376 339,380 340,381 341,387 342,392 342,392 343,391 344,384 345,387 346,389 347,395 348,395 348,400 349,415 350,406 351,417 352,408 353,409 354,409 355,415 355,411 356,410 357,407 358,398 359,397 360,396 361,400 361,406 362,404 363,402 364,400 365,393 366,391 367,392 368,396 368,399 369,403 370,399 371,397 372,393 373,388 374,380 374,379 375,379 376,385 377,384 378,381 379,385 380,383 381,385 381,380 382,373 383,366 384,364 385,362 386,354 387,354 387,363 388,370 389,382 390,382 391,395 392,400 393,392 394,393 394,390 395,379 396,380 397,392 398,399 399,397 400,393 400,391 401,392 402,389 403,376 404,376 405,371 406,378 407,375 407,380 408,383 409,382 410,380 411,380 412,381 413,386 413,393 414,392 415,390 416,387 417,386 418,384 419,385 420,391 420,386 421,386 422,388 423,396 424,393 425,389 426,387 426,390 427,398 428,399 429,396 430,397 431,388 432,389 433,390 433,380 434,380 435,385 436,384 437,381 438,387 439,385 439,392 440,391 441,377 442,375 443,371 444,381 445,377 446,368 446,360 447,358 448,350 449,354 450,355 451,344 452,344 452,342 453,343 454,347 455,352 456,342 457,343 458,342 459,341 459,349 460,349 461,350 462,342 463,337 464,332 465,334 465,334 466,332 467,336 468,340 469,341 470,344 471,344 472,341 472,342 473,345 474,347 475,353 476,354 477,342 478,343 478,348 479,331 480,328 481,328 482,328 483,327 484,329 485,327 485,322 486,318 487,318 488,318 489,315 490,319 491,321 491,321 492,324 493,326 494,322 495,316 496,316 497,308 497,311 498,315 499,311 500,313 501,315 502,303 503,306 504,304 504,305 505,310 506,317 507,319 508,315 509,312 510,304 510,308 511,304 512,306 513,303 514,307 515,317 516,318 517,319 517,322 518,320 519,324 520,326 521,322 522,326 523,328 523,327 524,328 525,328 526,322 527,329 528,330 529,327 530,332 530,329 531,317 532,319 533,329 534,328 535,328 536,330 536,329 537,325 538,324 539,326 540,328 541,329 542,322 543,320 543,317 544,324 545,330 546,323 547,320 548,320 549,323 549,320 550,313 551,312 552,320 553,325 554,317 555,316 556,314 556,312 557,314 558,300 559,304 560,308 561,318 562,318 562,316 563,311 564,314 565,316 566,320 567,313 568,308 569,313 569,309 570,317 571,318 572,309 573,310 574,311 575,309 575,310 576,318 577,316 578,318 579,321 580,317 581,323 582,321 582,327 583,340 584,337 585,335 586,332 587,326 588,336 588,329 589,328 590,331 591,329 592,328 593,331 594,337 595,337 595,338 596,339 597,339 598,337 599,332 600,328 601,328 601,324 602,330 603,334 604,329 605,330 606,328 607,333 608,331 608,335 609,334 610,333 611,337 612,339 613,343 614,347 614,354 615,357 616,355 617,363 618,362 619,353 620,344 621,347 621,347 622,344 623,344 624,346 625,346 626,346 627,346 627,342 628,342 629,342 630,350 631,347 632,342 633,342 634,344 634,347 635,344 636,339 637,338 638,341 639,338 640,329 640,320 641,317 642,320 643,320 644,320 645,310 646,305 647,303 647,299 648,303 649,304 650,301 651,303 652,305 653,302 653,302 654,305 655,309 656,297 657,297 658,295 659,298 660,306 660,308 661,305 662,302 663,306 664,311 665,300 666,294 666,300 667,302 668,303 669,314 670,313 671,311 672,307 673,309 673,306 674,303 675,292 676,288 677,291 678,284 679,285 679,278 680,279 681,288 682,286 683,276 684,281 685,278 686,276 686,268 687,268 688,282 689,280 690,257 691,259 692,255 692,255 693,266 694,252 695,251 696,251 697,245 698,252 699,259 699,260 700,256 701,261 702,262 703,244 704,246 705,243 705,247 706,257 707,257 708,250 709,250 710,247 711,254 712,259 712,258 713,252 714,252 715,252 716,252 717,251 718,251 718,252 719,259 720,241 721,240 722,239 723,240 724,239 725,229 725,226 726,234 727,230 728,227 729,223 730,230 731,235 731,231 732,232 733,236 734,235 735,240 736,237 737,234 738,227 738,226 739,226 740,226 741,229 742,234 743,235 744,227 744,230 745,221 746,220 747,224 748,218 749,218 750,219 751,228 751,229 752,228 753,238 754,236 755,230 756,233 757,231 757,231 758,231 759,231 760,221 761,212 762,206 763,215 764,208 764,211 765,211 766,212 767,208 768,205 769,209 770,204 770,200 771,207 772,198 773,198 774,203 775,213 776,226 777,224 777,225 778,227 779,232 780,233 781,229 782,223 783,218 783,213 784,213 785,219 786,218 787,217 788,212 789,204 790,211 790,221 791,233 792,240 793,231 794,227 795,219 796,215 796,210 797,210 798,207 799,203 800,199 801,204 802,200 803,195 803,194 804,193 805,194 806,205 807,198 808,195 809,188 809,194 810,195 811,200 812,197 813,201 814,206 815,204 816,202 816,202 817,202 818,199 819,194 820,200 821,197 822,190 822,183 823,177 824,178 825,179 826,179 827,185 828,185 829,199 829,199 830,193 831,191 832,191 833,192 834,195 835,206 835,215 836,226 837,232 838,225 839,215 840,208 841,210 841,202 842,198 843,189 844,183 845,183 846,179 847,183 848,179 848,174 849,177 850,182 851,182 852,191 853,190 854,186 854,182 855,184 856,183 857,178 858,179 859,174 860,175 861,179 861,173 862,166 863,162 864,159 865,164 866,167 867,163 867,173 868,169 869,164 870,165 871,170 872,176 873,178 874,173 874,175 875,181 876,179 877,179 878,166 879,159 880,160 880,161 881,164 882,160 883,159 884,160 885,161 886,160 887,156 887,154 888,148 889,140 890,138 891,143 892,135 893,132 893,127 894,131 895,127 896,127 897,131 898,129 899,135 900,136 900,145 901,146 902,152 903,147 904,149 905,142 906,149 906,146 907,143 908,147 909,148 910,149 911,154 912,154 913,151 913,149 914,148 915,149 916,149 917,142 918,135 919,143 919,138 920,135 921,141 922,143 923,146 924,139 925,128 926,119 926,128 927,133 928,136 929,136 930,128 931,123 932,123 932,129 933,128 934,122 935,124 936,138 937,141 938,145 939,139 939,137 940,134 941,129 942,133 943,133 944,119 945,119 945,114 946,111 947,102 948,101 949,100 950,94 951,91 952,96 952,98 953,104 954,112 955,113 956,117 957,114 958,108 958,105 959,104 960,102 961,97 962,91 963,91 964,92 965,98 965,91 966,84 967,85 968,95 969,99 970,92 971,90 971,91 972,70 973,68 973,412 974,412 974,699 107,699 "/>
<polyline fill="none" opacity="1" stroke="#E6194B" stroke-width="1" points="107,644 108,643 108,623 109,622 110,621 111,610 112,611 113,620 114,617 115,618 115,625 116,629 117,630 118,632 119,634 120,631 121,632 121,634 122,632 123,629 124,629 125,630 126,624 127,620 128,609 128,607 129,615 130,618 131,619 132,613 133,604 134,589 134,586 135,604 136,609 137,614 138,612 139,601 140,592 141,586 141,586 142,584 143,585 144,595 145,592 146,585 147,582 147,582 148,582 149,571 150,565 151,563 152,563 153,554 154,545 154,542 155,543 156,531 157,524 158,522 159,510 160,505 160,504 161,509 162,507 163,501 164,507 165,504 166,495 166,491 167,488 168,496 169,499 170,490 171,484 172,483 173,478 173,472 174,465 175,469 176,470 177,477 178,476 179,476 179,463 180,460 181,460 182,462 183,460 184,460 185,456 186,450 186,449 187,459 188,463 189,463 190,451 191,447 192,444 192,443 193,449 194,443 195,443 196,446 197,439 198,435 199,432 199,428 200,431 201,435 202,427 203,425 204,427 205,425 205,427 206,429 207,436 208,443 209,449 210,440 211,435 212,424 212,427 213,448 214,453 215,444 216,453 217,448 218,449 218,447 219,432 220,428 221,429 222,433 223,432 224,432 225,439 225,445 226,449 227,440 228,442 229,438 230,439 231,446 231,445 232,440 233,446 234,445 235,448 236,448 237,445 238,438 238,438 239,427 240,428 241,440 242,434 243,441 244,439 244,445 245,444 246,453 247,448 248,442 249,447 250,444 251,438 251,433 252,430 253,437 254,435 255,443 256,429 257,424 257,424 258,428 259,429 260,433 261,431 262,418 263,417 264,421 264,418 265,423 266,422 267,418 268,414 269,408 270,408 270,411 271,410 272,404 273,408 274,407 275,407 276,415 277,410 277,414 278,406 279,401 280,401 281,399 282,401 283,408 283,402 284,404 285,408 286,413 287,408 288,419 289,422 290,418 290,413 291,411 292,409 293,399 294,402 295,404 296,406 296,400 297,394 298,401 299,401 300,401 301,411 302,411 303,419 303,416 304,418 305,423 306,419 307,417 308,414 309,408 309,413 310,409 311,411 312,412 313,412 314,402 315,395 316,388 316,388 317,385 318,379 319,383 320,383 321,378 322,366 322,365 323,357 324,364 325,372 326,374 327,375 328,376 329,374 329,368 330,368 331,360 332,364 333,370 334,376 335,367 335,366 336,367 337,373 338,376 339,380 340,381 341,387 342,392 342,392 343,391 344,384 345,387 346,389 347,395 348,395 348,400 349,415 350,406 351,417 352,408 353,409 354,409 355,415 355,411 356,410 357,407 358,398 359,397 360,396 361,400 361,406 362,404 363,402 364,400 365,393 366,391 367,392 368,396 368,399 369,403 370,399 371,397 372,393 373,388 374,380 374,379 375,379 376,385 377,384 378,381 379,385 380,383 381,385 381,380 382,373 383,366 384,364 385,362 386,354 387,354 387,363 388,370 389,382 390,382 391,395 392,400 393,392 394,393 394,390 395,379 396,380 397,392 398,399 399,397 400,393 400,391 401,392 402,389 403,376 404,376 405,371 406,378 407,375 407,380 408,383 409,382 410,380 411,380 412,381 413,386 413,393 414,392 415,390 416,387 417,386 418,384 419,385 420,391 420,386 421,386 422,388 423,396 424,393 425,389 426,387 426,390 427,398 428,399 429,396 430,397 431,388 432,389 433,390 433,380 434,380 435,385 436,384 437,381 438,387 439,385 439,392 440,391 441,377 442,375 443,371 444,381 445,377 446,368 446,360 447,358 448,350 449,354 450,355 451,344 452,344 452,342 453,343 454,347 455,352 456,342 457,343 458,342 459,341 459,349 460,349 461,350 462,342 463,337 464,332 465,334 465,334 466,332 467,336 468,340 469,341 470,344 471,344 472,341 472,342 473,345 474,347 475,353 476,354 477,342 478,343 478,348 479,331 480,328 481,328 482,328 483,327 484,329 485,327 485,322 486,318 487,318 488,318 489,315 490,319 491,321 491,321 492,324 493,326 494,322 495,316 496,316 497,308 497,311 498,315 499,311 500,313 501,315 502,303 503,306 504,304 504,305 505,310 506,317 507,319 508,315 509,312 510,304 510,308 511,304 512,306 513,303 514,307 515,317 516,318 517,319 517,322 518,320 519,324 520,326 521,322 522,326 523,328 523,327 524,328 525,328 526,322 527,329 528,330 529,327 530,332 530,329 531,317 532,319 533,329 534,328 535,328 536,330 536,329 537,325 538,324 539,326 540,328 541,329 542,322 543,320 543,317 544,324 545,330 546,323 547,320 548,320 549,323 549,320 550,313 551,312 552,320 553,325 554,317 555,316 556,314 556,312 557,314 558,300 559,304 560,308 561,318 562,318 562,316 563,311 564,314 565,316 566,320 567,313 568,308 569,313 569,309 570,317 571,318 572,309 573,310 574,311 575,309 575,310 576,318 577,316 578,318 579,321 580,317 581,323 582,321 582,327 583,340 584,337 585,335 586,332 587,326 588,336 588,329 589,328 590,331 591,329 592,328 593,331 594,337 595,337 595,338 596,339 597,339 598,337 599,332 600,328 601,328 601,324 602,330 603,334 604,329 605,330 606,328 607,333 608,331 608,335 609,334 610,333 611,337 612,339 613,343 614,347 614,354 615,357 616,355 617,363 618,362 619,353 620,344 621,347 621,347 622,344 623,344 624,346 625,346 626,346 627,346 627,342 628,342 629,342 630,350 631,347 632,342 633,342 634,344 634,347 635,344 636,339 637,338 638,341 639,338 640,329 640,320 641,317 642,320 643,320 644,320 645,310 646,305 647,303 647,299 648,303 649,304 650,301 651,303 652,305 653,302 653,302 654,305 655,309 656,297 657,297 658,295 659,298 660,306 660,308 661,305 662,302 663,306 664,311 665,300 666,294 666,300 667,302 668,303 669,314 670,313 671,311 672,307 673,309 673,306 674,303 675,292 676,288 677,291 678,284 679,285 679,278 680,279 681,288 682,286 683,276 684,281 685,278 686,276 686,268 687,268 688,282 689,280 690,257 691,259 692,255 692,255 693,266 694,252 695,251 696,251 697,245 698,252 699,259 699,260 700,256 701,261 702,262 703,244 704,246 705,243 705,247 706,257 707,257 708,250 709,250 710,247 711,254 712,259 712,258 713,252 714,252 715,252 716,252 717,251 718,251 718,252 719,259 720,241 721,240 722,239 723,240 724,239 725,229 725,226 726,234 727,230 728,227 729,223 730,230 731,235 731,231 732,232 733,236 734,235 735,240 736,237 737,234 738,227 738,226 739,226 740,226 741,229 742,234 743,235 744,227 744,230 745,221 746,220 747,224 748,218 749,218 750,219 751,228 751,229 752,228 753,238 754,236 755,230 756,233 757,231 757,231 758,231 759,231 760,221 761,212 762,206 763,215 764,208 764,211 765,211 766,212 767,208 768,205 769,209 770,204 770,200 771,207 772,198 773,198 774,203 775,213 776,226 777,224 777,225 778,227 779,232 780,233 781,229 782,223 783,218 783,213 784,213 785,219 786,218 787,217 788,212 789,204 790,211 790,221 791,233 792,240 793,231 794,227 795,219 796,215 796,210 797,210 798,207 799,203 800,199 801,204 802,200 803,195 803,194 804,193 805,194 806,205 807,198 808,195 809,188 809,194 810,195 811,200 812,197 813,201 814,206 815,204 816,202 816,202 817,202 818,199 819,194 820,200 821,197 822,190 822,183 823,177 824,178 825,179 826,179 827,185 828,185 829,199 829,199 830,193 831,191 832,191 833,192 834,195 835,206 835,215 836,226 837,232 838,225 839,215 840,208 841,210 841,202 842,198 843,189 844,183 845,183 846,179 847,183 848,179 848,174 849,177 850,182 851,182 852,191 853,190 854,186 854,182 855,184 856,183 857,178 858,179 859,174 860,175 861,179 861,173 862,166 863,162 864,159 865,164 866,167 867,163 867,173 868,169 869,164 870,165 871,170 872,176 873,178 874,173 874,175 875,181 876,179 877,179 878,166 879,159 880,160 880,161 881,164 882,160 883,159 884,160 885,161 886,160 887,156 887,154 888,148 889,140 890,138 891,143 892,135 893,132 893,127 894,131 895,127 896,127 897,131 898,129 899,135 900,136 900,145 901,146 902,152 903,147 904,149 905,142 906,149 906,146 907,143 908,147 909,148 910,149 911,154 912,154 913,151 913,149 914,148 915,149 916,149 917,142 918,135 919,143 919,138 920,135 921,141 922,143 923,146 924,139 925,128 926,119 926,128 927,133 928,136 929,136 930,128 931,123 932,123 932,129 933,128 934,122 935,124 936,138 937,141 938,145 939,139 939,137 940,134 941,129 942,133 943,133 944,119 945,119 945,114 946,111 947,102 948,101 949,100 950,94 951,91 952,96 952,98 953,104 954,112 955,113 956,117 957,114 958,108 958,105 959,104 960,102 961,97 962,91 963,91 964,92 965,98 965,91 966,84 967,85 968,95 969,99 970,92 971,90 971,91 972,70 973,68 973,412 974,412 "/>
<line opacity="0.1" stroke="#000000" stroke-width="1" x1="85" y1="699" x2="85" y2="67"/>
<line opacity="0.1" stroke="#000000" stroke-width="1" x1="103" y1="699" x2="103" y2="67"/>
<line opacity="0.1" stroke="#000000" stroke-width="1" x1="121" y1="699" x2="121" y2="67"/>
<line opacity="0.1" stroke="#000000" stroke-width="1" x1="139" y1="699" x2="139" y2="67"/>
<line opacity="0.1" stroke="#000000" stroke-width="1" x1="157" y1="699" x2="157" y2="67"/>
<line opacity="0.1" stroke="#000000" stroke-width="1" x1="174" y1="699" x2="174" y2="67"/>
<line opacity="0.1" stroke="#000000" stroke-width="1" x1="192" y1="699" x2="192" y2="67"/>
<line opacity="0.1" stroke="#000000" stroke-width="1" x1="210" y1="699" x2="210" y2="67"/>
<line opacity="0.1" stroke="#000000" stroke-width="1" x1="228" y1="699" x2="228" y2="67"/>
<line opacity="0.1" stroke="#000000" stroke-width="1" x1="246" y1="699" x2="246" y2="67"/>
<line opacity="0.1" stroke="#000000" stroke-width="1" x1="264" y1="699" x2="264" y2="67"/>
<line opacity="0.1" stroke="#000000" stroke-width="1" x1="282" y1="699" x2="282" y2="67"/>
<line opacity="0.1" stroke="#000000" stroke-width="1" x1="300" y1="699" x2="300" y2="67"/>
<line opacity="0.1" stroke="#000000" stroke-width="1" x1="318" y1="699" x2="318" y2="67"/>
<line opacity="0.1" stroke="#000000" stroke-width="1" x1="336" y1="699" x2="336" y2="67"/>
<line opacity="0.1" stroke="#000000" stroke-width="1" x1="354" y1="699" x2="354" y2="67"/>
<line opacity="0.1" stroke="#000000" stroke-width="1" x1="372" y1="699" x2="372" y2="67"/>
<line opacity="0.1" stroke="#000000" stroke-width="1" x1="389" y1="699" x2="389" y2="67"/>
<line opacity="0.1" stroke="#000000" stroke-width="1" x1="407" y1="699" x2="407" y2="67"/>
<line opacity="0.1" stroke="#000000" stroke-width="1" x1="425" y1="699" x2="425" y2="67"/>
<line opacity="0.1" stroke="#000000" stroke-width="1" x1="443" y1="699" x2="443" y2="67"/>
<line opacity="0.1" stroke="#000000" stroke-width="1" x1="461" y1="699" x2="461" y2="67"/>
<line opacity="0.1" stroke="#000000" stroke-width="1" x1="479" y1="699" x2="479" y2="67"/>
<line opacity="0.1" stroke="#000000" stroke-width="1" x1="497" y1="699" x2="497" y2="67"/>
<line opacity="0.1" stroke="#000000" stroke-width="1" x1="515" y1="699" x2="515" y2="67"/>
<line opacity="0.1" stroke="#000000" stroke-width="1" x1="533" y1="699" x2="533" y2="67"/>
<line opacity="0.1" stroke="#000000" stroke-width="1" x1="551" y1="699" x2="551" y2="67"/>
<line opacity="0.1" stroke="#000000" stroke-width="1" x1="569" y1="699" x2="569" y2="67"/>
<line opacity="0.1" stroke="#000000" stroke-width="1" x1="587" y1="699" x2="587" y2="67"/>
<line opacity="0.1" stroke="#000000" stroke-width="1" x1="604" y1="699" x2="604" y2="67"/>
<line opacity="0.1" stroke="#000000" stroke-width="1" x1="622" y1="699" x2="622" y2="67"/>
<line opacity="0.1" stroke="#000000" stroke-width="1" x1="640" y1="699" x2="640" y2="67"/>
<line opacity="0.1" stroke="#000000" stroke-width="1" x1="658" y1="699" x2="658" y2="67"/>
<line opacity="0.1" stroke="#000000" stroke-width="1" x1="676" y1="699" x2="676" y2="67"/>
<line opacity="0.1" stroke="#000000" stroke-width="1" x1="694" y1="699" x2="694" y2="67"/>
<line opacity="0.1" stroke="#000000" stroke-width="1" x1="712" y1="699" x2="712" y2="67"/>
<line opacity="0.1" stroke="#000000" stroke-width="1" x1="730" y1="699" x2="730" y2="67"/>
<line opacity="0.1" stroke="#000000" stroke-width="1" x1="748" y1="699" x2="748" y2="67"/>
<line opacity="0.1" stroke="#000000" stroke-width="1" x1="766" y1="699" x2="766" y2="67"/>
<line opacity="0.1" stroke="#000000" stroke-width="1" x1="784" y1="699" x2="784" y2="67"/>
<line opacity="0.1" stroke="#000000" stroke-width="1" x1="802" y1="699" x2="802" y2="67"/>
<line opacity="0.1" stroke="#000000" stroke-width="1" x1="819" y1="699" x2="819" y2="67"/>
<line opacity="0.1" stroke="#000000" stroke-width="1" x1="837" y1="699" x2="837" y2="67"/>
<line opacity="0.1" stroke="#000000" stroke-width="1" x1="855" y1="699" x2="855" y2="67"/>
<line opacity="0.1" stroke="#000000" stroke-width="1" x1="873" y1="699" x2="873" y2="67"/>
<line opacity="0.1" stroke="#000000" stroke-width="1" x1="891" y1="699" x2="891" y2="67"/>
<line opacity="0.1" stroke="#000000" stroke-width="1" x1="909" y1="699" x2="909" y2="67"/>
<line opacity="0.1" stroke="#000000" stroke-width="1" x1="927" y1="699" x2="927" y2="67"/>
<line opacity="0.1" stroke="#000000" stroke-width="1" x1="945" y1="699" x2="945" y2="67"/>
<line opacity="0.1" stroke="#000000" stroke-width="1" x1="963" y1="699" x2="963" y2="67"/>
<line opacity="0.1" stroke="#000000" stroke-width="1" x1="78" y1="699" x2="974" y2="699"/>
<line opacity="0.1" stroke="#000000" stroke-width="1" x1="78" y1="687" x2="974" y2="687"/>
<line opacity="0.1" stroke="#000000" stroke-width="1" x1="78" y1="676" x2="974" y2="676"/>
<line opacity="0.1" stroke="#000000" stroke-width="1" x1="78" y1="664" x2="974" y2="664"/>
<line opacity="0.1" stroke="#000000" stroke-width="1" x1="78" y1="653" x2="974" y2="653"/>
<line opacity="0.1" stroke="#000000" stroke-width="1" x1="78" y1="641" x2="974" y2="641"/>
<line opacity="0.1" stroke="#000000" stroke-width="1" x1="78" y1="630" x2="974" y2="630"/>
<line opacity="0.1" stroke="#000000" stroke-width="1" x1="78" y1="618" x2="974" y2="618"/>
<line opacity="0.1" stroke="#000000" stroke-width="1" x1="78" y1="607" x2="974" y2="607"/>
<line opacity="0.1" stroke="#000000" stroke-width="1" x1="78" y1="596" x2="974" y2="596"/>
<line opacity="0.1" stroke="#000000" stroke-width="1" x1="78" y1="584" x2="974" y2="584"/>
<line opacity="0.1" stroke="#000000" stroke-width="1" x1="78" y1="573" x2="974" y2="573"/>
<line opacity="0.1" stroke="#000000" stroke-width="1" x1="78" y1="561" x2="974" y2="561"/>
<line opacity="0.1" stroke="#000000" stroke-width="1" x1="78" y1="550" x2="974" y2="550"/>
<line opacity="0.1" stroke="#000000" stroke-width="1" x1="78" y1="538" x2="974" y2="538"/>
<line opacity="0.1" stroke="#000000" stroke-width="1" x1="78" y1="527" x2="974" y2="527"/>
<line opacity="0.1" stroke="#000000" stroke-width="1" x1="78" y1="516" x2="974" y2="516"/>
<line opacity="0.1" stroke="#000000" stroke-width="1" x1="78" y1="504" x2="974" y2="504"/>
<line opacity="0.1" stroke="#000000" stroke-width="1" x1="78" y1="493" x2="974" y2="493"/>
<line opacity="0.1" stroke="#000000" stroke-width="1" x1="78" y1="481" x2="974" y2="481"/>
<line opacity="0.1" stroke="#000000" stroke-width="1" x1="78" y1="470" x2="974" y2="470"/>
<line opacity="0.1" stroke="#000000" stroke-width="1" x1="78" y1="458" x2="974" y2="458"/>
<line opacity="0.1" stroke="#000000" stroke-width="1" x1="78" y1="447" x2="974" y2="447"/>
<line opacity="0.1" stroke="#000000" stroke-width="1" x1="78" y1="436" x2="974" y2="436"/>
<line opacity="0.1" stroke="#000000" stroke-width="1" x1="78" y1="424" x2="974" y2="424"/>
<line opacity="0.1" stroke="#000000" stroke-width="1" x1="78" y1="413" x2="974" y2="413"/>
<line opacity="0.1" stroke="#000000" stroke-width="1" x1="78" y1="401" x2="974" y2="401"/>
<line opacity="0.1" stroke="#000000" stroke-width="1" x1="78" y1="390" x2="974" y2="390"/>
<line opacity="0.1" stroke="#000000" stroke-width="1" x1="78" y1="378" x2="974" y2="378"/>
<line opacity="0.1" stroke="#000000" stroke-width="1" x1="78" y1="367" x2="974" y2="367"/>
<line opacity="0.1" stroke="#000000" stroke-width="1" x1="78" y1="356" x2="974" y2="356"/>
<line opacity="0.1" stroke="#000000" stroke-width="1" x1="78" y1="344" x2="974" y2="344"/>
<line opacity="0.1" stroke="#000000" stroke-width="1" x1="78" y1="333" x2="974" y2="333"/>
<line opacity="0.1" stroke="#000000" stroke-width="1" x1="78" y1="321" x2="974" y2="321"/>
<line opacity="0.1" stroke="#000000" stroke-width="1" x1="78" y1="310" x2="974" y2="310"/>
<line opacity="0.1" stroke="#000000" stroke-width="1" x1="78" y1="298" x2="974" y2="298"/>
<line opacity="0.1" stroke="#000000" stroke-width="1" x1="78" y1="287" x2="974" y2="287"/>
<line opacity="0.1" stroke="#000000" stroke-width="1" x1="78" y1="275" x2="974" y2="275"/>
<line opacity="0.1" stroke="#000000" stroke-width="1" x1="78" y1="264" x2="974" y2="264"/>
<line opacity="0.1" stroke="#000000" stroke-width="1" x1="78" y1="253" x2="974" y2="253"/>
<line opacity="0.1" stroke="#000000" stroke-width="1" x1="78" y1="241" x2="974" y2="241"/>
<line opacity="0.1" stroke="#000000" stroke-width="1" x1="78" y1="230" x2="974" y2="230"/>
<line opacity="0.1" stroke="#000000" stroke-width="1" x1="78" y1="218" x2="974" y2="218"/>
<line opacity="0.1" stroke="#000000" stroke-width="1" x1="78" y1="207" x2="974" y2="207"/>
<line opacity="0.1" stroke="#000000" stroke-width="1" x1="78" y1="195" x2="974" y2="195"/>
<line opacity="0.1" stroke="#000000" stroke-width="1" x1="78" y1="184" x2="974" y2="184"/>
<line opacity="0.1" stroke="#000000" stroke-width="1" x1="78" y1="173" x2="974" y2="173"/>
<line opacity="0.1" stroke="#000000" stroke-width="1" x1="78" y1="161" x2="974" y2="161"/>
<line opacity="0.1" stroke="#000000" stroke-width="1" x1="78" y1="150" x2="974" y2="150"/>
<line opacity="0.1" stroke="#000000" stroke-width="1" x1="78" y1="138" x2="974" y2="138"/>
<line opacity="0.1" stroke="#000000" stroke-width="1" x1="78" y1="127" x2="974" y2="127"/>
<line opacity="0.1" stroke="#000000" stroke-width="1" x1="78" y1="115" x2="974" y2="115"/>
<line opacity="0.1" stroke="#000000" stroke-width="1" x1="78" y1="104" x2="974" y2="104"/>
<line opacity="0.1" stroke="#000000" stroke-width="1" x1="78" y1="93" x2="974" y2="93"/>
<line opacity="0.1" stroke="#000000" stroke-width="1" x1="78" y1="81" x2="974" y2="81"/>
<line opacity="0.1" stroke="#000000" stroke-width="1" x1="78" y1="70" x2="974" y2="70"/>
<text x="8" y="384" dy="0.76em" text-anchor="middle" font-family="sans-serif" font-size="9.67741935483871" opacity="1" fill="#000000" transform="rotate(270, 8, 384)">
Memory usage
</text>
<text x="526" y="760" dy="-0.5ex" text-anchor="middle" font-family="sans-serif" font-size="9.67741935483871" opacity="1" fill="#000000">
Time
</text>
<line opacity="0.2" stroke="#000000" stroke-width="1" x1="192" y1="699" x2="192" y2="67"/>
<line opacity="0.2" stroke="#000000" stroke-width="1" x1="372" y1="699" x2="372" y2="67"/>
<line opacity="0.2" stroke="#000000" stroke-width="1" x1="551" y1="699" x2="551" y2="67"/>
<line opacity="0.2" stroke="#000000" stroke-width="1" x1="730" y1="699" x2="730" y2="67"/>
<line opacity="0.2" stroke="#000000" stroke-width="1" x1="909" y1="699" x2="909" y2="67"/>
<line opacity="0.2" stroke="#000000" stroke-width="1" x1="78" y1="699" x2="974" y2="699"/>
<line opacity="0.2" stroke="#000000" stroke-width="1" x1="78" y1="584" x2="974" y2="584"/>
<line opacity="0.2" stroke="#000000" stroke-width="1" x1="78" y1="470" x2="974" y2="470"/>
<line opacity="0.2" stroke="#000000" stroke-width="1" x1="78" y1="356" x2="974" y2="356"/>
<line opacity="0.2" stroke="#000000" stroke-width="1" x1="78" y1="241" x2="974" y2="241"/>
<line opacity="0.2" stroke="#000000" stroke-width="1" x1="78" y1="127" x2="974" y2="127"/>
<polyline fill="none" opacity="1" stroke="#000000" stroke-width="1" points="77,68 77,700 "/>
<text x="68" y="699" dy="0.5ex" text-anchor="end" font-family="sans-serif" font-size="9.67741935483871" opacity="1" fill="#000000">
0.00 MB
</text>
<polyline fill="none" opacity="1" stroke="#000000" stroke-width="1" points="72,699 77,699 "/>
<text x="68" y="584" dy="0.5ex" text-anchor="end" font-family="sans-serif" font-size="9.67741935483871" opacity="1" fill="#000000">
0.19 MB
</text>
<polyline fill="none" opacity="1" stroke="#000000" stroke-width="1" points="72,584 77,584 "/>
<text x="68" y="470" dy="0.5ex" text-anchor="end" font-family="sans-serif" font-size="9.67741935483871" opacity="1" fill="#000000">
0.38 MB
</text>
<polyline fill="none" opacity="1" stroke="#000000" stroke-width="1" points="72,470 77,470 "/>
<text x="68" y="356" dy="0.5ex" text-anchor="end" font-family="sans-serif" font-size="9.67741935483871" opacity="1" fill="#000000">
0.57 MB
</text>
<polyline fill="none" opacity="1" stroke="#000000" stroke-width="1" points="72,356 77,356 "/>
<text x="68" y="241" dy="0.5ex" text-anchor="end" font-family="sans-serif" font-size="9.67741935483871" opacity="1" fill="#000000">
0.76 MB
</text>
<polyline fill="none" opacity="1" stroke="#000000" stroke-width="1" points="72,241 77,241 "/>
<text x="68" y="127" dy="0.5ex" text-anchor="end" font-family="sans-serif" font-size="9.67741935483871" opacity="1" fill="#000000">
0.95 MB
</text>
<polyline fill="none" opacity="1" stroke="#000000" stroke-width="1" points="72,127 77,127 "/>
<polyline fill="none" opacity="1" stroke="#000000" stroke-width="1" points="78,700 974,700 "/>
<text x="192" y="710" dy="0.76em" text-anchor="middle" font-family="sans-serif" font-size="9.67741935483871" opacity="1" fill="#000000">
06:26:08
</text>
<polyline fill="none" opacity="1" stroke="#000000" stroke-width="1" points="192,700 192,705 "/>
<text x="372" y="710" dy="0.76em" text-anchor="middle" font-family="sans-serif" font-size="9.67741935483871" opacity="1" fill="#000000">
06:26:10
</text>
<polyline fill="none" opacity="1" stroke="#000000" stroke-width="1" points="372,700 372,705 "/>
<text x="551" y="710" dy="0.76em" text-anchor="middle" font-family="sans-serif" font-size="9.67741935483871" opacity="1" fill="#000000">
06:26:12
</text>
<polyline fill="none" opacity="1" stroke="#000000" stroke-width="1" points="551,700 551,705 "/>
<text x="730" y="710" dy="0.76em" text-anchor="middle" font-family="sans-serif" font-size="9.67741935483871" opacity="1" fill="#000000">
06:26:14
</text>
<polyline fill="none" opacity="1" stroke="#000000" stroke-width="1" points="730,700 730,705 "/>
<text x="909" y="710" dy="0.76em" text-anchor="middle" font-family="sans-serif" font-size="9.67741935483871" opacity="1" fill="#000000">
06:26:16
</text>
<polyline fill="none" opacity="1" stroke="#000000" stroke-width="1" points="909,700 909,705 "/>
<polyline fill="none" opacity="1" stroke="#000000" stroke-width="1" points="78,67 974,67 "/>
<text x="192" y="58" dy="-0.5ex" text-anchor="middle" font-family="sans-serif" font-size="9.67741935483871" opacity="1" fill="#000000">
+1s
</text>
<polyline fill="none" opacity="1" stroke="#000000" stroke-width="1" points="192,62 192,67 "/>
<text x="372" y="58" dy="-0.5ex" text-anchor="middle" font-family="sans-serif" font-size="9.67741935483871" opacity="1" fill="#000000">
+3s
</text>
<polyline fill="none" opacity="1" stroke="#000000" stroke-width="1" points="372,62 372,67 "/>
<text x="551" y="58" dy="-0.5ex" text-anchor="middle" font-family="sans-serif" font-size="9.67741935483871" opacity="1" fill="#000000">
+5s
</text>
<polyline fill="none" opacity="1" stroke="#000000" stroke-width="1" points="551,62 551,67 "/>
<text x="730" y="58" dy="-0.5ex" text-anchor="middle" font-family="sans-serif" font-size="9.67741935483871" opacity="1" fill="#000000">
+7s
</text>
<polyline fill="none" opacity="1" stroke="#000000" stroke-width="1" points="730,62 730,67 "/>
<text x="909" y="58" dy="-0.5ex" text-anchor="middle" font-family="sans-serif" font-size="9.67741935483871" opacity="1" fill="#000000">
+9s
</text>
<polyline fill="none" opacity="1" stroke="#000000" stroke-width="1" points="909,62 909,67 "/>
</svg>
