<svg width="1024" height="768" viewBox="0 0 1024 768" xmlns="http://www.w3.org/2000/svg">
<rect x="0" y="0" width="1024" height="768" opacity="1" fill="#FFFFFF" stroke="none"/>
<polygon opacity="1" fill="#E6194B" points="82,697 83,689 84,676 85,676 86,671 87,675 88,678 89,682 89,680 90,683 91,686 92,681 93,682 94,653 95,661 96,651 97,641 97,650 98,649 99,650 100,654 101,666 102,667 103,669 104,672 105,672 105,676 106,672 107,679 108,677 109,674 110,675 111,672 112,672 113,673 113,663 114,660 115,650 116,642 117,647 118,653 119,663 120,663 121,658 121,645 122,638 123,621 124,616 125,631 126,647 127,651 128,654 129,652 129,639 130,629 131,623 132,617 133,618 134,616 135,618 136,631 137,630 137,625 138,618 139,615 140,615 141,622 142,612 143,598 144,592 145,591 145,592 146,581 147,576 148,567 149,562 150,564 151,556 152,541 153,538 153,535 154,521 155,515 156,514 157,527 158,519 159,514 160,511 161,515 161,516 162,506 163,504 164,495 165,495 166,505 167,509 168,505 169,497 169,490 170,490 171,487 172,476 173,465 174,476 175,471 176,475 177,484 177,484 178,492 179,482 180,466 181,462 182,462 183,465 184,466 185,464 185,465 186,460 187,448 188,451 189,458 190,470 191,471 192,472 193,455 193,450 194,445 195,444 196,449 197,453 198,443 199,446 200,452 201,450 202,438 202,436 203,435 204,428 205,432 206,442 207,439 208,429 209,427 210,426 210,429 211,432 212,429 213,437 214,445 215,452 216,462 217,464 218,449 218,444 219,429 220,431 221,463 222,470 223,466 224,457 225,473 226,471 226,467 227,469 228,464 229,443 230,439 231,447 232,444 233,445 234,456 234,464 235,471 236,459 237,462 238,457 239,458 240,469 241,468 242,462 242,469 243,468 244,471 245,473 246,464 247,462 248,458 249,448 250,450 250,460 251,458 252,470 253,465 254,475 255,473 256,478 257,472 258,475 258,476 259,473 260,460 261,455 262,466 263,465 264,471 265,458 266,450 266,450 267,457 268,456 269,464 270,455 271,444 272,444 273,450 274,446 274,453 275,452 276,442 277,438 278,434 279,438 280,441 281,434 282,431 282,434 283,436 284,443 285,441 286,443 287,441 288,426 289,427 290,428 290,435 291,439 292,431 293,435 294,441 295,445 296,443 297,458 298,463 298,452 299,450 300,447 301,435 302,433 303,438 304,441 305,439 306,425 306,431 307,437 308,436 309,450 310,448 311,451 312,459 313,459 314,467 314,463 315,458 316,455 317,449 318,455 319,449 320,452 321,453 322,454 322,438 323,431 324,423 325,422 326,416 327,412 328,419 329,418 330,405 330,398 331,384 332,384 333,401 334,408 335,408 336,411 337,411 338,404 338,405 339,392 340,398 341,406 342,407 343,414 344,404 345,401 346,411 346,414 347,417 348,421 349,423 350,433 351,434 352,442 353,439 354,437 354,431 355,430 356,435 357,438 358,443 359,444 360,445 361,456 362,474 362,461 363,470 364,475 365,466 366,468 367,478 368,472 369,471 370,463 370,455 371,457 372,454 373,464 374,469 375,462 376,461 377,450 378,449 378,452 379,456 380,462 381,468 382,464 383,460 384,455 385,446 386,439 386,437 387,442 388,449 389,441 390,448 391,447 392,448 393,440 394,429 394,422 395,420 396,406 397,409 398,421 399,431 400,447 401,448 402,467 402,460 403,463 404,444 405,446 406,474 407,471 408,463 409,463 410,445 411,439 411,440 412,444 413,455 414,451 415,450 416,454 417,469 418,465 419,459 419,458 420,460 421,462 422,462 423,475 424,470 425,464 426,471 427,480 427,475 428,466 429,469 430,458 431,466 432,461 433,465 434,468 435,472 435,455 436,450 437,456 438,435 439,430 440,424 441,426 442,414 443,414 443,419 444,419 445,418 446,417 447,426 448,425 449,415 450,406 451,410 451,405 452,416 453,420 454,424 455,421 456,425 457,427 458,440 459,424 459,430 460,407 461,407 462,406 463,409 464,401 465,395 466,394 467,392 467,397 468,400 469,406 470,394 471,386 472,385 473,390 474,392 475,380 475,378 476,381 477,387 478,400 479,392 480,383 481,383 482,383 483,384 483,402 484,404 485,407 486,407 487,413 488,415 489,419 490,421 491,412 491,417 492,420 493,423 494,425 495,412 496,410 497,417 498,415 499,419 499,413 500,410 501,423 502,417 503,413 504,415 505,429 506,425 507,422 507,423 508,412 509,417 510,421 511,409 512,410 513,409 514,402 515,403 515,406 516,404 517,404 518,414 519,411 520,406 521,404 522,420 523,401 523,407 524,405 525,412 526,417 527,409 528,407 529,416 530,428 531,441 531,441 532,432 533,434 534,435 535,438 536,439 537,449 538,448 539,452 539,464 540,462 541,457 542,452 543,453 544,448 545,454 546,456 547,452 547,448 548,457 549,453 550,448 551,449 552,454 553,457 554,469 555,478 555,478 556,482 557,468 558,468 559,473 560,471 561,471 562,473 563,471 563,460 564,461 565,474 566,473 567,469 568,472 569,473 570,478 571,476 571,470 572,464 573,470 574,473 575,454 576,452 577,449 578,459 579,449 579,442 580,432 581,427 582,437 583,440 584,434 585,431 586,439 587,437 587,434 588,444 589,442 590,422 591,423 592,418 593,433 594,439 595,447 595,441 596,440 597,445 598,434 599,428 600,436 601,434 602,446 603,447 603,445 604,440 605,441 606,435 607,432 608,418 609,408 610,412 611,409 611,405 612,397 613,397 614,415 615,413 616,411 617,414 618,412 619,402 620,395 620,414 621,411 622,406 623,407 624,419 625,414 626,379 627,383 628,381 628,390 629,393 630,390 631,384 632,397 633,385 634,380 635,380 636,383 636,398 637,401 638,392 639,391 640,391 641,398 642,399 643,400 644,395 644,404 645,399 646,406 647,404 648,409 649,409 650,392 651,387 652,385 652,378 653,370 654,366 655,371 656,368 657,370 658,364 659,367 660,370 660,371 661,366 662,363 663,367 664,375 665,365 666,357 667,354 668,356 668,356 669,356 670,358 671,353 672,353 673,351 674,348 675,351 676,353 676,347 677,340 678,348 679,347 680,356 681,360 682,353 683,346 684,342 684,343 685,341 686,342 687,330 688,311 689,317 690,315 691,313 692,319 692,314 693,317 694,310 695,315 696,297 697,296 698,309 699,299 700,299 700,314 701,332 702,333 703,336 704,339 705,355 706,347 707,346 708,338 708,332 709,330 710,337 711,334 712,331 713,323 714,314 715,301 716,304 716,313 717,330 718,334 719,339 720,327 721,325 722,316 723,309 724,306 724,306 725,307 726,306 727,301 728,301 729,304 730,298 731,295 732,292 732,289 733,297 734,303 735,296 736,285 737,284 738,284 739,294 740,285 740,290 741,299 742,304 743,306 744,311 745,311 746,304 747,304 748,302 748,291 749,278 750,280 751,288 752,292 753,292 754,304 755,305 756,297 756,303 757,308 758,314 759,327 760,344 761,328 762,315 763,310 764,299 764,286 765,282 766,285 767,283 768,279 769,285 770,289 771,298 772,289 772,296 773,289 774,292 775,284 776,276 777,271 778,266 779,267 780,269 780,280 781,276 782,277 783,289 784,294 785,299 786,296 787,277 788,274 788,294 789,296 790,289 791,282 792,274 793,277 794,266 795,259 796,262 796,257 797,245 798,247 799,249 800,242 801,243 802,247 803,264 804,270 804,267 805,277 806,271 807,279 808,283 809,286 810,279 811,281 812,279 812,285 813,268 814,261 815,259 816,270 817,265 818,252 819,251 820,264 820,274 821,267 822,265 823,263 824,265 825,244 826,241 827,253 828,260 829,265 829,261 830,260 831,255 832,251 833,246 834,235 835,223 836,215 837,211 837,201 838,196 839,198 840,202 841,222 842,229 843,220 844,218 845,206 845,204 846,203 847,215 848,211 849,202 850,216 851,213 852,205 853,208 853,179 854,183 855,185 856,185 857,178 858,163 859,163 860,163 861,162 861,163 862,179 863,185 864,193 865,196 866,195 867,191 868,182 869,186 869,164 870,156 871,162 872,172 873,169 874,178 875,174 876,157 877,159 877,170 878,169 879,164 880,166 881,164 882,161 883,168 884,169 885,179 885,169 886,166 887,157 888,160 889,152 890,158 891,158 892,155 893,143 893,144 894,161 895,140 896,137 897,146 898,149 899,156 900,158 901,160 901,171 902,171 903,167 904,154 905,168 906,186 907,191 908,189 909,183 909,177 910,169 911,164 912,156 913,152 914,150 915,132 916,128 917,148 917,150 918,149 919,160 920,158 921,162 922,162 923,160 924,157 925,138 925,138 926,136 927,142 928,150 929,156 930,149 931,142 932,123 933,127 933,127 934,134 935,147 936,129 937,122 938,116 939,108 940,111 941,119 941,132 942,131 943,138 944,138 945,127 946,111 947,110 948,102 949,100 949,101 950,102 951,114 952,117 953,112 954,105 955,105 956,118 957,128 957,125 958,102 959,90 960,82 961,68 962,69 963,72 964,69 965,68 965,69 966,81 967,82 968,96 969,108 970,94 971,81 972,83 972,699 973,699 973,699 82,699 "/>
<polyline fill="none" opacity="1" stroke="#E6194B" stroke-width="1" points="82,697 83,689 84,676 85,676 86,671 87,675 88,678 89,682 89,680 90,683 91,686 92,681 93,682 94,653 95,661 96,651 97,641 97,650 98,649 99,650 100,654 101,666 102,667 103,669 104,672 105,672 105,676 106,672 107,679 108,677 109,674 110,675 111,672 112,672 113,673 113,663 114,660 115,650 116,642 117,647 118,653 119,663 120,663 121,658 121,645 122,638 123,621 124,616 125,631 126,647 127,651 128,654 129,652 129,639 130,629 131,623 132,617 133,618 134,616 135,618 136,631 137,630 137,625 138,618 139,615 140,615 141,622 142,612 143,598 144,592 145,591 145,592 146,581 147,576 148,567 149,562 150,564 151,556 152,541 153,538 153,535 154,521 155,515 156,514 157,527 158,519 159,514 160,511 161,515 161,516 162,506 163,504 164,495 165,495 166,505 167,509 168,505 169,497 169,490 170,490 171,487 172,476 173,465 174,476 175,471 176,475 177,484 177,484 178,492 179,482 180,466 181,462 182,462 183,465 184,466 185,464 185,465 186,460 187,448 188,451 189,458 190,470 191,471 192,472 193,455 193,450 194,445 195,444 196,449 197,453 198,443 199,446 200,452 201,450 202,438 202,436 203,435 204,428 205,432 206,442 207,439 208,429 209,427 210,426 210,429 211,432 212,429 213,437 214,445 215,452 216,462 217,464 218,449 218,444 219,429 220,431 221,463 222,470 223,466 224,457 225,473 226,471 226,467 227,469 228,464 229,443 230,439 231,447 232,444 233,445 234,456 234,464 235,471 236,459 237,462 238,457 239,458 240,469 241,468 242,462 242,469 243,468 244,471 245,473 246,464 247,462 248,458 249,448 250,450 250,460 251,458 252,470 253,465 254,475 255,473 256,478 257,472 258,475 258,476 259,473 260,460 261,455 262,466 263,465 264,471 265,458 266,450 266,450 267,457 268,456 269,464 270,455 271,444 272,444 273,450 274,446 274,453 275,452 276,442 277,438 278,434 279,438 280,441 281,434 282,431 282,434 283,436 284,443 285,441 286,443 287,441 288,426 289,427 290,428 290,435 291,439 292,431 293,435 294,441 295,445 296,443 297,458 298,463 298,452 299,450 300,447 301,435 302,433 303,438 304,441 305,439 306,425 306,431 307,437 308,436 309,450 310,448 311,451 312,459 313,459 314,467 314,463 315,458 316,455 317,449 318,455 319,449 320,452 321,453 322,454 322,438 323,431 324,423 325,422 326,416 327,412 328,419 329,418 330,405 330,398 331,384 332,384 333,401 334,408 335,408 336,411 337,411 338,404 338,405 339,392 340,398 341,406 342,407 343,414 344,404 345,401 346,411 346,414 347,417 348,421 349,423 350,433 351,434 352,442 353,439 354,437 354,431 355,430 356,435 357,438 358,443 359,444 360,445 361,456 362,474 362,461 363,470 364,475 365,466 366,468 367,478 368,472 369,471 370,463 370,455 371,457 372,454 373,464 374,469 375,462 376,461 377,450 378,449 378,452 379,456 380,462 381,468 382,464 383,460 384,455 385,446 386,439 386,437 387,442 388,449 389,441 390,448 391,447 392,448 393,440 394,429 394,422 395,420 396,406 397,409 398,421 399,431 400,447 401,448 402,467 402,460 403,463 404,444 405,446 406,474 407,471 408,463 409,463 410,445 411,439 411,440 412,444 413,455 414,451 415,450 416,454 417,469 418,465 419,459 419,458 420,460 421,462 422,462 423,475 424,470 425,464 426,471 427,480 427,475 428,466 429,469 430,458 431,466 432,461 433,465 434,468 435,472 435,455 436,450 437,456 438,435 439,430 440,424 441,426 442,414 443,414 443,419 444,419 445,418 446,417 447,426 448,425 449,415 450,406 451,410 451,405 452,416 453,420 454,424 455,421 456,425 457,427 458,440 459,424 459,430 460,407 461,407 462,406 463,409 464,401 465,395 466,394 467,392 467,397 468,400 469,406 470,394 471,386 472,385 473,390 474,392 475,380 475,378 476,381 477,387 478,400 479,392 480,383 481,383 482,383 483,384 483,402 484,404 485,407 486,407 487,413 488,415 489,419 490,421 491,412 491,417 492,420 493,423 494,425 495,412 496,410 497,417 498,415 499,419 499,413 500,410 501,423 502,417 503,413 504,415 505,429 506,425 507,422 507,423 508,412 509,417 510,421 511,409 512,410 513,409 514,402 515,403 515,406 516,404 517,404 518,414 519,411 520,406 521,404 522,420 523,401 523,407 524,405 525,412 526,417 527,409 528,407 529,416 530,428 531,441 531,441 532,432 533,434 534,435 535,438 536,439 537,449 538,448 539,452 539,464 540,462 541,457 542,452 543,453 544,448 545,454 546,456 547,452 547,448 548,457 549,453 550,448 551,449 552,454 553,457 554,469 555,478 555,478 556,482 557,468 558,468 559,473 560,471 561,471 562,473 563,471 563,460 564,461 565,474 566,473 567,469 568,472 569,473 570,478 571,476 571,470 572,464 573,470 574,473 575,454 576,452 577,449 578,459 579,449 579,442 580,432 581,427 582,437 583,440 584,434 585,431 586,439 587,437 587,434 588,444 589,442 590,422 591,423 592,418 593,433 594,439 595,447 595,441 596,440 597,445 598,434 599,428 600,436 601,434 602,446 603,447 603,445 604,440 605,441 606,435 607,432 608,418 609,408 610,412 611,409 611,405 612,397 613,397 614,415 615,413 616,411 617,414 618,412 619,402 620,395 620,414 621,411 622,406 623,407 624,419 625,414 626,379 627,383 628,381 628,390 629,393 630,390 631,384 632,397 633,385 634,380 635,380 636,383 636,398 637,401 638,392 639,391 640,391 641,398 642,399 643,400 644,395 644,404 645,399 646,406 647,404 648,409 649,409 650,392 651,387 652,385 652,378 653,370 654,366 655,371 656,368 657,370 658,364 659,367 660,370 660,371 661,366 662,363 663,367 664,375 665,365 666,357 667,354 668,356 668,356 669,356 670,358 671,353 672,353 673,351 674,348 675,351 676,353 676,347 677,340 678,348 679,347 680,356 681,360 682,353 683,346 684,342 684,343 685,341 686,342 687,330 688,311 689,317 690,315 691,313 692,319 692,314 693,317 694,310 695,315 696,297 697,296 698,309 699,299 700,299 700,314 701,332 702,333 703,336 704,339 705,355 706,347 707,346 708,338 708,332 709,330 710,337 711,334 712,331 713,323 714,314 715,301 716,304 716,313 717,330 718,334 719,339 720,327 721,325 722,316 723,309 724,306 724,306 725,307 726,306 727,301 728,301 729,304 730,298 731,295 732,292 732,289 733,297 734,303 735,296 736,285 737,284 738,284 739,294 740,285 740,290 741,299 742,304 743,306 744,311 745,311 746,304 747,304 748,302 748,291 749,278 750,280 751,288 752,292 753,292 754,304 755,305 756,297 756,303 757,308 758,314 759,327 760,344 761,328 762,315 763,310 764,299 764,286 765,282 766,285 767,283 768,279 769,285 770,289 771,298 772,289 772,296 773,289 774,292 775,284 776,276 777,271 778,266 779,267 780,269 780,280 781,276 782,277 783,289 784,294 785,299 786,296 787,277 788,274 788,294 789,296 790,289 791,282 792,274 793,277 794,266 795,259 796,262 796,257 797,245 798,247 799,249 800,242 801,243 802,247 803,264 804,270 804,267 805,277 806,271 807,279 808,283 809,286 810,279 811,281 812,279 812,285 813,268 814,261 815,259 816,270 817,265 818,252 819,251 820,264 820,274 821,267 822,265 823,263 824,265 825,244 826,241 827,253 828,260 829,265 829,261 830,260 831,255 832,251 833,246 834,235 835,223 836,215 837,211 837,201 838,196 839,198 840,202 841,222 842,229 843,220 844,218 845,206 845,204 846,203 847,215 848,211 849,202 850,216 851,213 852,205 853,208 853,179 854,183 855,185 856,185 857,178 858,163 859,163 860,163 861,162 861,163 862,179 863,185 864,193 865,196 866,195 867,191 868,182 869,186 869,164 870,156 871,162 872,172 873,169 874,178 875,174 876,157 877,159 877,170 878,169 879,164 880,166 881,164 882,161 883,168 884,169 885,179 885,169 886,166 887,157 888,160 889,152 890,158 891,158 892,155 893,143 893,144 894,161 895,140 896,137 897,146 898,149 899,156 900,158 901,160 901,171 902,171 903,167 904,154 905,168 906,186 907,191 908,189 909,183 909,177 910,169 911,164 912,156 913,152 914,150 915,132 916,128 917,148 917,150 918,149 919,160 920,158 921,162 922,162 923,160 924,157 925,138 925,138 926,136 927,142 928,150 929,156 930,149 931,142 932,123 933,127 933,127 934,134 935,147 936,129 937,122 938,116 939,108 940,111 941,119 941,132 942,131 943,138 944,138 945,127 946,111 947,110 948,102 949,100 949,101 950,102 951,114 952,117 953,112 954,105 955,105 956,118 957,128 957,125 958,102 959,90 960,82 961,68 962,69 963,72 964,69 965,68 965,69 966,81 967,82 968,96 969,108 970,94 971,81 972,83 972,699 973,699 "/>
<line opacity="0.1" stroke="#000000" stroke-width="1" x1="83" y1="699" x2="83" y2="68"/>
<line opacity="0.1" stroke="#000000" stroke-width="1" x1="92" y1="699" x2="92" y2="68"/>
<line opacity="0.1" stroke="#000000" stroke-width="1" x1="101" y1="699" x2="101" y2="68"/>
<line opacity="0.1" stroke="#000000" stroke-width="1" x1="110" y1="699" x2="110" y2="68"/>
<line opacity="0.1" stroke="#000000" stroke-width="1" x1="119" y1="699" x2="119" y2="68"/>
<line opacity="0.1" stroke="#000000" stroke-width="1" x1="128" y1="699" x2="128" y2="68"/>
<line opacity="0.1" stroke="#000000" stroke-width="1" x1="137" y1="699" x2="137" y2="68"/>
<line opacity="0.1" stroke="#000000" stroke-width="1" x1="146" y1="699" x2="146" y2="68"/>
<line opacity="0.1" stroke="#000000" stroke-width="1" x1="154" y1="699" x2="154" y2="68"/>
<line opacity="0.1" stroke="#000000" stroke-width="1" x1="163" y1="699" x2="163" y2="68"/>
<line opacity="0.1" stroke="#000000" stroke-width="1" x1="172" y1="699" x2="172" y2="68"/>
<line opacity="0.1" stroke="#000000" stroke-width="1" x1="181" y1="699" x2="181" y2="68"/>
<line opacity="0.1" stroke="#000000" stroke-width="1" x1="190" y1="699" x2="190" y2="68"/>
<line opacity="0.1" stroke="#000000" stroke-width="1" x1="199" y1="699" x2="199" y2="68"/>
<line opacity="0.1" stroke="#000000" stroke-width="1" x1="208" y1="699" x2="208" y2="68"/>
<line opacity="0.1" stroke="#000000" stroke-width="1" x1="217" y1="699" x2="217" y2="68"/>
<line opacity="0.1" stroke="#000000" stroke-width="1" x1="226" y1="699" x2="226" y2="68"/>
<line opacity="0.1" stroke="#000000" stroke-width="1" x1="234" y1="699" x2="234" y2="68"/>
<line opacity="0.1" stroke="#000000" stroke-width="1" x1="243" y1="699" x2="243" y2="68"/>
<line opacity="0.1" stroke="#000000" stroke-width="1" x1="252" y1="699" x2="252" y2="68"/>
<line opacity="0.1" stroke="#000000" stroke-width="1" x1="261" y1="699" x2="261" y2="68"/>
<line opacity="0.1" stroke="#000000" stroke-width="1" x1="270" y1="699" x2="270" y2="68"/>
<line opacity="0.1" stroke="#000000" stroke-width="1" x1="279" y1="699" x2="279" y2="68"/>
<line opacity="0.1" stroke="#000000" stroke-width="1" x1="288" y1="699" x2="288" y2="68"/>
<line opacity="0.1" stroke="#000000" stroke-width="1" x1="297" y1="699" x2="297" y2="68"/>
<line opacity="0.1" stroke="#000000" stroke-width="1" x1="306" y1="699" x2="306" y2="68"/>
<line opacity="0.1" stroke="#000000" stroke-width="1" x1="315" y1="699" x2="315" y2="68"/>
<line opacity="0.1" stroke="#000000" stroke-width="1" x1="323" y1="699" x2="323" y2="68"/>
<line opacity="0.1" stroke="#000000" stroke-width="1" x1="332" y1="699" x2="332" y2="68"/>
<line opacity="0.1" stroke="#000000" stroke-width="1" x1="341" y1="699" x2="341" y2="68"/>
<line opacity="0.1" stroke="#000000" stroke-width="1" x1="350" y1="699" x2="350" y2="68"/>
<line opacity="0.1" stroke="#000000" stroke-width="1" x1="359" y1="699" x2="359" y2="68"/>
<line opacity="0.1" stroke="#000000" stroke-width="1" x1="368" y1="699" x2="368" y2="68"/>
<line opacity="0.1" stroke="#000000" stroke-width="1" x1="377" y1="699" x2="377" y2="68"/>
<line opacity="0.1" stroke="#000000" stroke-width="1" x1="386" y1="699" x2="386" y2="68"/>
<line opacity="0.1" stroke="#000000" stroke-width="1" x1="395" y1="699" x2="395" y2="68"/>
<line opacity="0.1" stroke="#000000" stroke-width="1" x1="403" y1="699" x2="403" y2="68"/>
<line opacity="0.1" stroke="#000000" stroke-width="1" x1="412" y1="699" x2="412" y2="68"/>
<line opacity="0.1" stroke="#000000" stroke-width="1" x1="421" y1="699" x2="421" y2="68"/>
<line opacity="0.1" stroke="#000000" stroke-width="1" x1="430" y1="699" x2="430" y2="68"/>
<line opacity="0.1" stroke="#000000" stroke-width="1" x1="439" y1="699" x2="439" y2="68"/>
<line opacity="0.1" stroke="#000000" stroke-width="1" x1="448" y1="699" x2="448" y2="68"/>
<line opacity="0.1" stroke="#000000" stroke-width="1" x1="457" y1="699" x2="457" y2="68"/>
<line opacity="0.1" stroke="#000000" stroke-width="1" x1="466" y1="699" x2="466" y2="68"/>
<line opacity="0.1" stroke="#000000" stroke-width="1" x1="475" y1="699" x2="475" y2="68"/>
<line opacity="0.1" stroke="#000000" stroke-width="1" x1="483" y1="699" x2="483" y2="68"/>
<line opacity="0.1" stroke="#000000" stroke-width="1" x1="492" y1="699" x2="492" y2="68"/>
<line opacity="0.1" stroke="#000000" stroke-width="1" x1="501" y1="699" x2="501" y2="68"/>
<line opacity="0.1" stroke="#000000" stroke-width="1" x1="510" y1="699" x2="510" y2="68"/>
<line opacity="0.1" stroke="#000000" stroke-width="1" x1="519" y1="699" x2="519" y2="68"/>
<line opacity="0.1" stroke="#000000" stroke-width="1" x1="528" y1="699" x2="528" y2="68"/>
<line opacity="0.1" stroke="#000000" stroke-width="1" x1="537" y1="699" x2="537" y2="68"/>
<line opacity="0.1" stroke="#000000" stroke-width="1" x1="546" y1="699" x2="546" y2="68"/>
<line opacity="0.1" stroke="#000000" stroke-width="1" x1="555" y1="699" x2="555" y2="68"/>
<line opacity="0.1" stroke="#000000" stroke-width="1" x1="563" y1="699" x2="563" y2="68"/>
<line opacity="0.1" stroke="#000000" stroke-width="1" x1="572" y1="699" x2="572" y2="68"/>
<line opacity="0.1" stroke="#000000" stroke-width="1" x1="581" y1="699" x2="581" y2="68"/>
<line opacity="0.1" stroke="#000000" stroke-width="1" x1="590" y1="699" x2="590" y2="68"/>
<line opacity="0.1" stroke="#000000" stroke-width="1" x1="599" y1="699" x2="599" y2="68"/>
<line opacity="0.1" stroke="#000000" stroke-width="1" x1="608" y1="699" x2="608" y2="68"/>
<line opacity="0.1" stroke="#000000" stroke-width="1" x1="617" y1="699" x2="617" y2="68"/>
<line opacity="0.1" stroke="#000000" stroke-width="1" x1="626" y1="699" x2="626" y2="68"/>
<line opacity="0.1" stroke="#000000" stroke-width="1" x1="635" y1="699" x2="635" y2="68"/>
<line opacity="0.1" stroke="#000000" stroke-width="1" x1="644" y1="699" x2="644" y2="68"/>
<line opacity="0.1" stroke="#000000" stroke-width="1" x1="652" y1="699" x2="652" y2="68"/>
<line opacity="0.1" stroke="#000000" stroke-width="1" x1="661" y1="699" x2="661" y2="68"/>
<line opacity="0.1" stroke="#000000" stroke-width="1" x1="670" y1="699" x2="670" y2="68"/>
<line opacity="0.1" stroke="#000000" stroke-width="1" x1="679" y1="699" x2="679" y2="68"/>
<line opacity="0.1" stroke="#000000" stroke-width="1" x1="688" y1="699" x2="688" y2="68"/>
<line opacity="0.1" stroke="#000000" stroke-width="1" x1="697" y1="699" x2="697" y2="68"/>
<line opacity="0.1" stroke="#000000" stroke-width="1" x1="706" y1="699" x2="706" y2="68"/>
<line opacity="0.1" stroke="#000000" stroke-width="1" x1="715" y1="699" x2="715" y2="68"/>
<line opacity="0.1" stroke="#000000" stroke-width="1" x1="724" y1="699" x2="724" y2="68"/>
<line opacity="0.1" stroke="#000000" stroke-width="1" x1="732" y1="699" x2="732" y2="68"/>
<line opacity="0.1" stroke="#000000" stroke-width="1" x1="741" y1="699" x2="741" y2="68"/>
<line opacity="0.1" stroke="#000000" stroke-width="1" x1="750" y1="699" x2="750" y2="68"/>
<line opacity="0.1" stroke="#000000" stroke-width="1" x1="759" y1="699" x2="759" y2="68"/>
<line opacity="0.1" stroke="#000000" stroke-width="1" x1="768" y1="699" x2="768" y2="68"/>
<line opacity="0.1" stroke="#000000" stroke-width="1" x1="777" y1="699" x2="777" y2="68"/>
<line opacity="0.1" stroke="#000000" stroke-width="1" x1="786" y1="699" x2="786" y2="68"/>
<line opacity="0.1" stroke="#000000" stroke-width="1" x1="795" y1="699" x2="795" y2="68"/>
<line opacity="0.1" stroke="#000000" stroke-width="1" x1="804" y1="699" x2="804" y2="68"/>
<line opacity="0.1" stroke="#000000" stroke-width="1" x1="812" y1="699" x2="812" y2="68"/>
<line opacity="0.1" stroke="#000000" stroke-width="1" x1="821" y1="699" x2="821" y2="68"/>
<line opacity="0.1" stroke="#000000" stroke-width="1" x1="830" y1="699" x2="830" y2="68"/>
<line opacity="0.1" stroke="#000000" stroke-width="1" x1="839" y1="699" x2="839" y2="68"/>
<line opacity="0.1" stroke="#000000" stroke-width="1" x1="848" y1="699" x2="848" y2="68"/>
<line opacity="0.1" stroke="#000000" stroke-width="1" x1="857" y1="699" x2="857" y2="68"/>
<line opacity="0.1" stroke="#000000" stroke-width="1" x1="866" y1="699" x2="866" y2="68"/>
<line opacity="0.1" stroke="#000000" stroke-width="1" x1="875" y1="699" x2="875" y2="68"/>
<line opacity="0.1" stroke="#000000" stroke-width="1" x1="884" y1="699" x2="884" y2="68"/>
<line opacity="0.1" stroke="#000000" stroke-width="1" x1="892" y1="699" x2="892" y2="68"/>
<line opacity="0.1" stroke="#000000" stroke-width="1" x1="901" y1="699" x2="901" y2="68"/>
<line opacity="0.1" stroke="#000000" stroke-width="1" x1="910" y1="699" x2="910" y2="68"/>
<line opacity="0.1" stroke="#000000" stroke-width="1" x1="919" y1="699" x2="919" y2="68"/>
<line opacity="0.1" stroke="#000000" stroke-width="1" x1="928" y1="699" x2="928" y2="68"/>
<line opacity="0.1" stroke="#000000" stroke-width="1" x1="937" y1="699" x2="937" y2="68"/>
<line opacity="0.1" stroke="#000000" stroke-width="1" x1="946" y1="699" x2="946" y2="68"/>
<line opacity="0.1" stroke="#000000" stroke-width="1" x1="955" y1="699" x2="955" y2="68"/>
<line opacity="0.1" stroke="#000000" stroke-width="1" x1="964" y1="699" x2="964" y2="68"/>
<line opacity="0.1" stroke="#000000" stroke-width="1" x1="78" y1="699" x2="973" y2="699"/>
<line opacity="0.1" stroke="#000000" stroke-width="1" x1="78" y1="691" x2="973" y2="691"/>
<line opacity="0.1" stroke="#000000" stroke-width="1" x1="78" y1="683" x2="973" y2="683"/>
<line opacity="0.1" stroke="#000000" stroke-width="1" x1="78" y1="675" x2="973" y2="675"/>
<line opacity="0.1" stroke="#000000" stroke-width="1" x1="78" y1="667" x2="973" y2="667"/>
<line opacity="0.1" stroke="#000000" stroke-width="1" x1="78" y1="660" x2="973" y2="660"/>
<line opacity="0.1" stroke="#000000" stroke-width="1" x1="78" y1="652" x2="973" y2="652"/>
<line opacity="0.1" stroke="#000000" stroke-width="1" x1="78" y1="644" x2="973" y2="644"/>
<line opacity="0.1" stroke="#000000" stroke-width="1" x1="78" y1="636" x2="973" y2="636"/>
<line opacity="0.1" stroke="#000000" stroke-width="1" x1="78" y1="628" x2="973" y2="628"/>
<line opacity="0.1" stroke="#000000" stroke-width="1" x1="78" y1="621" x2="973" y2="621"/>
<line opacity="0.1" stroke="#000000" stroke-width="1" x1="78" y1="613" x2="973" y2="613"/>
<line opacity="0.1" stroke="#000000" stroke-width="1" x1="78" y1="605" x2="973" y2="605"/>
<line opacity="0.1" stroke="#000000" stroke-width="1" x1="78" y1="597" x2="973" y2="597"/>
<line opacity="0.1" stroke="#000000" stroke-width="1" x1="78" y1="590" x2="973" y2="590"/>
<line opacity="0.1" stroke="#000000" stroke-width="1" x1="78" y1="582" x2="973" y2="582"/>
<line opacity="0.1" stroke="#000000" stroke-width="1" x1="78" y1="574" x2="973" y2="574"/>
<line opacity="0.1" stroke="#000000" stroke-width="1" x1="78" y1="566" x2="973" y2="566"/>
<line opacity="0.1" stroke="#000000" stroke-width="1" x1="78" y1="558" x2="973" y2="558"/>
<line opacity="0.1" stroke="#000000" stroke-width="1" x1="78" y1="551" x2="973" y2="551"/>
<line opacity="0.1" stroke="#000000" stroke-width="1" x1="78" y1="543" x2="973" y2="543"/>
<line opacity="0.1" stroke="#000000" stroke-width="1" x1="78" y1="535" x2="973" y2="535"/>
<line opacity="0.1" stroke="#000000" stroke-width="1" x1="78" y1="527" x2="973" y2="527"/>
<line opacity="0.1" stroke="#000000" stroke-width="1" x1="78" y1="520" x2="973" y2="520"/>
<line opacity="0.1" stroke="#000000" stroke-width="1" x1="78" y1="512" x2="973" y2="512"/>
<line opacity="0.1" stroke="#000000" stroke-width="1" x1="78" y1="504" x2="973" y2="504"/>
<line opacity="0.1" stroke="#000000" stroke-width="1" x1="78" y1="496" x2="973" y2="496"/>
<line opacity="0.1" stroke="#000000" stroke-width="1" x1="78" y1="488" x2="973" y2="488"/>
<line opacity="0.1" stroke="#000000" stroke-width="1" x1="78" y1="481" x2="973" y2="481"/>
<line opacity="0.1" stroke="#000000" stroke-width="1" x1="78" y1="473" x2="973" y2="473"/>
<line opacity="0.1" stroke="#000000" stroke-width="1" x1="78" y1="465" x2="973" y2="465"/>
<line opacity="0.1" stroke="#000000" stroke-width="1" x1="78" y1="457" x2="973" y2="457"/>
<line opacity="0.1" stroke="#000000" stroke-width="1" x1="78" y1="450" x2="973" y2="450"/>
<line opacity="0.1" stroke="#000000" stroke-width="1" x1="78" y1="442" x2="973" y2="442"/>
<line opacity="0.1" stroke="#000000" stroke-width="1" x1="78" y1="434" x2="973" y2="434"/>
<line opacity="0.1" stroke="#000000" stroke-width="1" x1="78" y1="426" x2="973" y2="426"/>
<line opacity="0.1" stroke="#000000" stroke-width="1" x1="78" y1="418" x2="973" y2="418"/>
<line opacity="0.1" stroke="#000000" stroke-width="1" x1="78" y1="411" x2="973" y2="411"/>
<line opacity="0.1" stroke="#000000" stroke-width="1" x1="78" y1="403" x2="973" y2="403"/>
<line opacity="0.1" stroke="#000000" stroke-width="1" x1="78" y1="395" x2="973" y2="395"/>
<line opacity="0.1" stroke="#000000" stroke-width="1" x1="78" y1="387" x2="973" y2="387"/>
<line opacity="0.1" stroke="#000000" stroke-width="1" x1="78" y1="379" x2="973" y2="379"/>
<line opacity="0.1" stroke="#000000" stroke-width="1" x1="78" y1="372" x2="973" y2="372"/>
<line opacity="0.1" stroke="#000000" stroke-width="1" x1="78" y1="364" x2="973" y2="364"/>
<line opacity="0.1" stroke="#000000" stroke-width="1" x1="78" y1="356" x2="973" y2="356"/>
<line opacity="0.1" stroke="#000000" stroke-width="1" x1="78" y1="348" x2="973" y2="348"/>
<line opacity="0.1" stroke="#000000" stroke-width="1" x1="78" y1="341" x2="973" y2="341"/>
<line opacity="0.1" stroke="#000000" stroke-width="1" x1="78" y1="333" x2="973" y2="333"/>
<line opacity="0.1" stroke="#000000" stroke-width="1" x1="78" y1="325" x2="973" y2="325"/>
<line opacity="0.1" stroke="#000000" stroke-width="1" x1="78" y1="317" x2="973" y2="317"/>
<line opacity="0.1" stroke="#000000" stroke-width="1" x1="78" y1="309" x2="973" y2="309"/>
<line opacity="0.1" stroke="#000000" stroke-width="1" x1="78" y1="302" x2="973" y2="302"/>
<line opacity="0.1" stroke="#000000" stroke-width="1" x1="78" y1="294" x2="973" y2="294"/>
<line opacity="0.1" stroke="#000000" stroke-width="1" x1="78" y1="286" x2="973" y2="286"/>
<line opacity="0.1" stroke="#000000" stroke-width="1" x1="78" y1="278" x2="973" y2="278"/>
<line opacity="0.1" stroke="#000000" stroke-width="1" x1="78" y1="271" x2="973" y2="271"/>
<line opacity="0.1" stroke="#000000" stroke-width="1" x1="78" y1="263" x2="973" y2="263"/>
<line opacity="0.1" stroke="#000000" stroke-width="1" x1="78" y1="255" x2="973" y2="255"/>
<line opacity="0.1" stroke="#000000" stroke-width="1" x1="78" y1="247" x2="973" y2="247"/>
<line opacity="0.1" stroke="#000000" stroke-width="1" x1="78" y1="239" x2="973" y2="239"/>
<line opacity="0.1" stroke="#000000" stroke-width="1" x1="78" y1="232" x2="973" y2="232"/>
<line opacity="0.1" stroke="#000000" stroke-width="1" x1="78" y1="224" x2="973" y2="224"/>
<line opacity="0.1" stroke="#000000" stroke-width="1" x1="78" y1="216" x2="973" y2="216"/>
<line opacity="0.1" stroke="#000000" stroke-width="1" x1="78" y1="208" x2="973" y2="208"/>
<line opacity="0.1" stroke="#000000" stroke-width="1" x1="78" y1="201" x2="973" y2="201"/>
<line opacity="0.1" stroke="#000000" stroke-width="1" x1="78" y1="193" x2="973" y2="193"/>
<line opacity="0.1" stroke="#000000" stroke-width="1" x1="78" y1="185" x2="973" y2="185"/>
<line opacity="0.1" stroke="#000000" stroke-width="1" x1="78" y1="177" x2="973" y2="177"/>
<line opacity="0.1" stroke="#000000" stroke-width="1" x1="78" y1="169" x2="973" y2="169"/>
<line opacity="0.1" stroke="#000000" stroke-width="1" x1="78" y1="162" x2="973" y2="162"/>
<line opacity="0.1" stroke="#000000" stroke-width="1" x1="78" y1="154" x2="973" y2="154"/>
<line opacity="0.1" stroke="#000000" stroke-width="1" x1="78" y1="146" x2="973" y2="146"/>
<line opacity="0.1" stroke="#000000" stroke-width="1" x1="78" y1="138" x2="973" y2="138"/>
<line opacity="0.1" stroke="#000000" stroke-width="1" x1="78" y1="130" x2="973" y2="130"/>
<line opacity="0.1" stroke="#000000" stroke-width="1" x1="78" y1="123" x2="973" y2="123"/>
<line opacity="0.1" stroke="#000000" stroke-width="1" x1="78" y1="115" x2="973" y2="115"/>
<line opacity="0.1" stroke="#000000" stroke-width="1" x1="78" y1="107" x2="973" y2="107"/>
<line opacity="0.1" stroke="#000000" stroke-width="1" x1="78" y1="99" x2="973" y2="99"/>
<line opacity="0.1" stroke="#000000" stroke-width="1" x1="78" y1="92" x2="973" y2="92"/>
<line opacity="0.1" stroke="#000000" stroke-width="1" x1="78" y1="84" x2="973" y2="84"/>
<line opacity="0.1" stroke="#000000" stroke-width="1" x1="78" y1="76" x2="973" y2="76"/>
<line opacity="0.1" stroke="#000000" stroke-width="1" x1="78" y1="68" x2="973" y2="68"/>
<text x="8" y="384" dy="0.76em" text-anchor="middle" font-family="sans-serif" font-size="9.67741935483871" opacity="1" fill="#000000" transform="rotate(270, 8, 384)">
Memory usage
</text>
<text x="526" y="760" dy="-0.5ex" text-anchor="middle" font-family="sans-serif" font-size="9.67741935483871" opacity="1" fill="#000000">
Time
</text>
<line opacity="0.2" stroke="#000000" stroke-width="1" x1="101" y1="699" x2="101" y2="68"/>
<line opacity="0.2" stroke="#000000" stroke-width="1" x1="190" y1="699" x2="190" y2="68"/>
<line opacity="0.2" stroke="#000000" stroke-width="1" x1="279" y1="699" x2="279" y2="68"/>
<line opacity="0.2" stroke="#000000" stroke-width="1" x1="368" y1="699" x2="368" y2="68"/>
<line opacity="0.2" stroke="#000000" stroke-width="1" x1="457" y1="699" x2="457" y2="68"/>
<line opacity="0.2" stroke="#000000" stroke-width="1" x1="546" y1="699" x2="546" y2="68"/>
<line opacity="0.2" stroke="#000000" stroke-width="1" x1="635" y1="699" x2="635" y2="68"/>
<line opacity="0.2" stroke="#000000" stroke-width="1" x1="724" y1="699" x2="724" y2="68"/>
<line opacity="0.2" stroke="#000000" stroke-width="1" x1="812" y1="699" x2="812" y2="68"/>
<line opacity="0.2" stroke="#000000" stroke-width="1" x1="901" y1="699" x2="901" y2="68"/>
<line opacity="0.2" stroke="#000000" stroke-width="1" x1="78" y1="699" x2="973" y2="699"/>
<line opacity="0.2" stroke="#000000" stroke-width="1" x1="78" y1="621" x2="973" y2="621"/>
<line opacity="0.2" stroke="#000000" stroke-width="1" x1="78" y1="543" x2="973" y2="543"/>
<line opacity="0.2" stroke="#000000" stroke-width="1" x1="78" y1="465" x2="973" y2="465"/>
<line opacity="0.2" stroke="#000000" stroke-width="1" x1="78" y1="387" x2="973" y2="387"/>
<line opacity="0.2" stroke="#000000" stroke-width="1" x1="78" y1="309" x2="973" y2="309"/>
<line opacity="0.2" stroke="#000000" stroke-width="1" x1="78" y1="232" x2="973" y2="232"/>
<line opacity="0.2" stroke="#000000" stroke-width="1" x1="78" y1="154" x2="973" y2="154"/>
<line opacity="0.2" stroke="#000000" stroke-width="1" x1="78" y1="76" x2="973" y2="76"/>
<polyline fill="none" opacity="1" stroke="#000000" stroke-width="1" points="77,68 77,699 "/>
<text x="68" y="699" dy="0.5ex" text-anchor="end" font-family="sans-serif" font-size="9.67741935483871" opacity="1" fill="#000000">
0 KB
</text>
<polyline fill="none" opacity="1" stroke="#000000" stroke-width="1" points="72,699 77,699 "/>
<text x="68" y="621" dy="0.5ex" text-anchor="end" font-family="sans-serif" font-size="9.67741935483871" opacity="1" fill="#000000">
97 KB
</text>
<polyline fill="none" opacity="1" stroke="#000000" stroke-width="1" points="72,621 77,621 "/>
<text x="68" y="543" dy="0.5ex" text-anchor="end" font-family="sans-serif" font-size="9.67741935483871" opacity="1" fill="#000000">
195 KB
</text>
<polyline fill="none" opacity="1" stroke="#000000" stroke-width="1" points="72,543 77,543 "/>
<text x="68" y="465" dy="0.5ex" text-anchor="end" font-family="sans-serif" font-size="9.67741935483871" opacity="1" fill="#000000">
292 KB
</text>
<polyline fill="none" opacity="1" stroke="#000000" stroke-width="1" points="72,465 77,465 "/>
<text x="68" y="387" dy="0.5ex" text-anchor="end" font-family="sans-serif" font-size="9.67741935483871" opacity="1" fill="#000000">
390 KB
</text>
<polyline fill="none" opacity="1" stroke="#000000" stroke-width="1" points="72,387 77,387 "/>
<text x="68" y="309" dy="0.5ex" text-anchor="end" font-family="sans-serif" font-size="9.67741935483871" opacity="1" fill="#000000">
488 KB
</text>
<polyline fill="none" opacity="1" stroke="#000000" stroke-width="1" points="72,309 77,309 "/>
<text x="68" y="232" dy="0.5ex" text-anchor="end" font-family="sans-serif" font-size="9.67741935483871" opacity="1" fill="#000000">
585 KB
</text>
<polyline fill="none" opacity="1" stroke="#000000" stroke-width="1" points="72,232 77,232 "/>
<text x="68" y="154" dy="0.5ex" text-anchor="end" font-family="sans-serif" font-size="9.67741935483871" opacity="1" fill="#000000">
683 KB
</text>
<polyline fill="none" opacity="1" stroke="#000000" stroke-width="1" points="72,154 77,154 "/>
<text x="68" y="76" dy="0.5ex" text-anchor="end" font-family="sans-serif" font-size="9.67741935483871" opacity="1" fill="#000000">
781 KB
</text>
<polyline fill="none" opacity="1" stroke="#000000" stroke-width="1" points="72,76 77,76 "/>
<polyline fill="none" opacity="1" stroke="#000000" stroke-width="1" points="78,700 973,700 "/>
<text x="101" y="710" dy="0.76em" text-anchor="middle" font-family="sans-serif" font-size="9.67741935483871" opacity="1" fill="#000000">
02:04:17
</text>
<polyline fill="none" opacity="1" stroke="#000000" stroke-width="1" points="101,700 101,705 "/>
<text x="190" y="710" dy="0.76em" text-anchor="middle" font-family="sans-serif" font-size="9.67741935483871" opacity="1" fill="#000000">
02:04:18
</text>
<polyline fill="none" opacity="1" stroke="#000000" stroke-width="1" points="190,700 190,705 "/>
<text x="279" y="710" dy="0.76em" text-anchor="middle" font-family="sans-serif" font-size="9.67741935483871" opacity="1" fill="#000000">
02:04:19
</text>
<polyline fill="none" opacity="1" stroke="#000000" stroke-width="1" points="279,700 279,705 "/>
<text x="368" y="710" dy="0.76em" text-anchor="middle" font-family="sans-serif" font-size="9.67741935483871" opacity="1" fill="#000000">
02:04:20
</text>
<polyline fill="none" opacity="1" stroke="#000000" stroke-width="1" points="368,700 368,705 "/>
<text x="457" y="710" dy="0.76em" text-anchor="middle" font-family="sans-serif" font-size="9.67741935483871" opacity="1" fill="#000000">
02:04:21
</text>
<polyline fill="none" opacity="1" stroke="#000000" stroke-width="1" points="457,700 457,705 "/>
<text x="546" y="710" dy="0.76em" text-anchor="middle" font-family="sans-serif" font-size="9.67741935483871" opacity="1" fill="#000000">
02:04:22
</text>
<polyline fill="none" opacity="1" stroke="#000000" stroke-width="1" points="546,700 546,705 "/>
<text x="635" y="710" dy="0.76em" text-anchor="middle" font-family="sans-serif" font-size="9.67741935483871" opacity="1" fill="#000000">
02:04:23
</text>
<polyline fill="none" opacity="1" stroke="#000000" stroke-width="1" points="635,700 635,705 "/>
<text x="724" y="710" dy="0.76em" text-anchor="middle" font-family="sans-serif" font-size="9.67741935483871" opacity="1" fill="#000000">
02:04:24
</text>
<polyline fill="none" opacity="1" stroke="#000000" stroke-width="1" points="724,700 724,705 "/>
<text x="812" y="710" dy="0.76em" text-anchor="middle" font-family="sans-serif" font-size="9.67741935483871" opacity="1" fill="#000000">
02:04:25
</text>
<polyline fill="none" opacity="1" stroke="#000000" stroke-width="1" points="812,700 812,705 "/>
<text x="901" y="710" dy="0.76em" text-anchor="middle" font-family="sans-serif" font-size="9.67741935483871" opacity="1" fill="#000000">
02:04:26
</text>
<polyline fill="none" opacity="1" stroke="#000000" stroke-width="1" points="901,700 901,705 "/>
<polyline fill="none" opacity="1" stroke="#000000" stroke-width="1" points="78,67 974,67 "/>
<text x="101" y="58" dy="-0.5ex" text-anchor="middle" font-family="sans-serif" font-size="9.67741935483871" opacity="1" fill="#000000">
+265ms
</text>
<polyline fill="none" opacity="1" stroke="#000000" stroke-width="1" points="101,62 101,67 "/>
<text x="190" y="58" dy="-0.5ex" text-anchor="middle" font-family="sans-serif" font-size="9.67741935483871" opacity="1" fill="#000000">
+1s
</text>
<polyline fill="none" opacity="1" stroke="#000000" stroke-width="1" points="190,62 190,67 "/>
<text x="279" y="58" dy="-0.5ex" text-anchor="middle" font-family="sans-serif" font-size="9.67741935483871" opacity="1" fill="#000000">
+2s
</text>
<polyline fill="none" opacity="1" stroke="#000000" stroke-width="1" points="279,62 279,67 "/>
<text x="368" y="58" dy="-0.5ex" text-anchor="middle" font-family="sans-serif" font-size="9.67741935483871" opacity="1" fill="#000000">
+3s
</text>
<polyline fill="none" opacity="1" stroke="#000000" stroke-width="1" points="368,62 368,67 "/>
<text x="457" y="58" dy="-0.5ex" text-anchor="middle" font-family="sans-serif" font-size="9.67741935483871" opacity="1" fill="#000000">
+4s
</text>
<polyline fill="none" opacity="1" stroke="#000000" stroke-width="1" points="457,62 457,67 "/>
<text x="546" y="58" dy="-0.5ex" text-anchor="middle" font-family="sans-serif" font-size="9.67741935483871" opacity="1" fill="#000000">
+5s
</text>
<polyline fill="none" opacity="1" stroke="#000000" stroke-width="1" points="546,62 546,67 "/>
<text x="635" y="58" dy="-0.5ex" text-anchor="middle" font-family="sans-serif" font-size="9.67741935483871" opacity="1" fill="#000000">
+6s
</text>
<polyline fill="none" opacity="1" stroke="#000000" stroke-width="1" points="635,62 635,67 "/>
<text x="724" y="58" dy="-0.5ex" text-anchor="middle" font-family="sans-serif" font-size="9.67741935483871" opacity="1" fill="#000000">
+7s
</text>
<polyline fill="none" opacity="1" stroke="#000000" stroke-width="1" points="724,62 724,67 "/>
<text x="813" y="58" dy="-0.5ex" text-anchor="middle" font-family="sans-serif" font-size="9.67741935483871" opacity="1" fill="#000000">
+8s
</text>
<polyline fill="none" opacity="1" stroke="#000000" stroke-width="1" points="813,62 813,67 "/>
<text x="902" y="58" dy="-0.5ex" text-anchor="middle" font-family="sans-serif" font-size="9.67741935483871" opacity="1" fill="#000000">
+9s
</text>
<polyline fill="none" opacity="1" stroke="#000000" stroke-width="1" points="902,62 902,67 "/>
</svg>
