<svg width="1024" height="768" viewBox="0 0 1024 768" xmlns="http://www.w3.org/2000/svg">
<rect x="0" y="0" width="1023" height="767" opacity="1" fill="#FFFFFF" stroke="none"/>
<polygon opacity="1" fill="#E6194B" points="78,670 78,669 79,660 80,606 81,605 82,619 83,604 84,591 85,573 86,589 86,611 87,596 88,597 89,607 90,639 91,635 92,647 93,642 94,656 95,658 95,657 96,647 97,666 98,670 99,656 100,653 101,646 102,647 103,651 103,655 104,634 105,623 106,601 107,588 108,585 109,609 110,609 111,632 112,625 112,617 113,606 114,576 115,541 116,524 117,562 118,587 119,599 120,612 121,614 121,608 122,579 123,560 124,542 125,530 126,530 127,530 128,527 129,530 129,560 130,560 131,546 132,534 133,530 134,524 135,535 136,526 137,511 138,481 138,474 139,467 140,469 141,446 142,441 143,426 144,410 145,410 146,415 146,385 147,358 148,349 149,349 150,319 151,299 152,295 153,316 154,313 155,317 155,304 156,290 157,309 158,301 159,302 160,274 161,268 162,262 163,254 164,284 164,290 165,290 166,263 167,247 168,246 169,239 170,222 171,213 172,190 172,211 173,204 174,212 175,233 176,238 177,233 178,237 179,216 180,191 181,183 181,185 182,186 183,197 184,188 185,200 186,188 187,176 188,164 189,181 190,201 190,229 191,230 192,228 193,219 194,178 195,179 196,172 197,171 198,175 198,192 199,173 200,173 201,186 202,186 203,181 204,154 205,156 206,147 207,135 207,148 208,149 209,162 210,154 211,135 212,133 213,137 214,135 215,143 215,144 216,147 217,173 218,181 219,206 220,215 221,219 222,187 223,182 224,155 224,140 225,166 226,218 227,235 228,231 229,211 230,241 231,245 232,228 233,240 233,234 234,218 235,176 236,167 237,168 238,189 239,182 240,181 241,181 241,199 242,207 243,226 244,237 245,225 246,212 247,218 248,204 249,207 250,213 250,234 251,234 252,218 253,221 254,236 255,241 256,235 257,244 258,246 258,247 259,222 260,218 261,229 262,209 263,186 264,190 265,229 266,220 267,212 267,240 268,230 269,230 270,283 271,247 272,247 273,263 274,260 275,245 276,257 276,262 277,253 278,239 279,228 280,210 281,211 282,237 283,233 284,229 284,255 285,227 286,200 287,198 288,206 289,222 290,214 291,221 292,238 293,232 293,196 294,185 295,187 296,211 297,200 298,190 299,209 300,212 301,206 302,193 302,183 303,174 304,165 305,171 306,178 307,182 308,173 309,158 310,169 310,167 311,169 312,171 313,194 314,194 315,179 316,194 317,185 318,155 319,156 319,159 320,151 321,154 322,171 323,184 324,162 325,164 326,171 327,184 327,186 328,188 329,192 330,226 331,230 332,240 333,221 334,207 335,218 336,200 336,189 337,175 338,166 339,194 340,181 341,189 342,183 343,151 344,151 345,174 345,183 346,175 347,202 348,215 349,208 350,212 351,236 352,227 353,235 353,245 354,249 355,255 356,237 357,233 358,222 359,204 360,206 361,221 362,211 362,225 363,216 364,220 365,223 366,216 367,184 368,172 369,152 370,152 370,153 371,143 372,125 373,126 374,147 375,144 376,136 377,128 378,93 379,89 379,68 380,68 381,105 382,120 383,129 384,123 385,126 386,130 387,139 388,109 388,128 389,121 390,85 391,86 392,105 393,118 394,128 395,139 396,121 396,108 397,110 398,130 399,141 400,140 401,154 402,157 403,170 404,178 405,184 405,203 406,214 407,247 408,223 409,221 410,229 411,234 412,241 413,256 414,257 414,275 415,288 416,323 417,294 418,310 419,332 420,305 421,307 422,311 422,335 423,329 424,320 425,325 426,312 427,313 428,291 429,279 430,287 431,277 431,289 432,304 433,316 434,312 435,300 436,303 437,295 438,277 439,267 439,289 440,276 441,287 442,302 443,299 444,312 445,301 446,298 447,296 448,283 448,285 449,270 450,245 451,246 452,242 453,262 454,281 455,268 456,256 457,270 457,265 458,268 459,273 460,275 461,257 462,245 463,224 464,214 465,212 465,205 466,180 467,181 468,181 469,209 470,218 471,245 472,273 473,273 474,313 474,340 475,343 476,309 477,305 478,310 479,301 480,276 481,269 482,276 482,330 483,334 484,332 485,326 486,327 487,309 488,332 489,314 490,313 491,290 491,270 492,270 493,255 494,278 495,268 496,273 497,284 498,294 499,303 500,293 500,287 501,289 502,286 503,292 504,309 505,337 506,330 507,329 508,322 508,315 509,311 510,308 511,327 512,306 513,313 514,327 515,321 516,313 517,313 517,319 518,346 519,348 520,338 521,338 522,325 523,335 524,334 525,357 526,360 526,363 527,367 528,376 529,364 530,342 531,344 532,349 533,344 534,321 534,327 535,338 536,338 537,327 538,325 539,337 540,349 541,341 542,362 543,371 543,353 544,318 545,313 546,303 547,302 548,349 549,329 550,299 551,279 551,272 552,268 553,242 554,242 555,255 556,261 557,246 558,227 559,227 560,228 560,225 561,231 562,276 563,259 564,252 565,230 566,234 567,236 568,228 569,240 569,253 570,262 571,255 572,257 573,234 574,230 575,219 576,207 577,212 577,220 578,212 579,209 580,222 581,234 582,240 583,240 584,256 585,250 586,252 586,245 587,247 588,257 589,260 590,264 591,265 592,290 593,289 594,262 594,253 595,267 596,274 597,227 598,214 599,221 600,215 601,216 602,221 603,215 603,223 604,226 605,201 606,194 607,189 608,189 609,203 610,188 611,183 612,195 612,200 613,200 614,201 615,212 616,241 617,218 618,220 619,186 620,200 620,191 621,167 622,172 623,199 624,190 625,178 626,184 627,194 628,192 629,158 629,158 630,173 631,163 632,166 633,178 634,191 635,209 636,212 637,210 638,192 638,189 639,168 640,178 641,176 642,170 643,171 644,167 645,169 646,183 646,210 647,226 648,219 649,221 650,224 651,235 652,226 653,241 654,248 655,250 655,238 656,249 657,253 658,257 659,254 660,257 661,261 662,258 663,242 663,254 664,277 665,264 666,262 667,281 668,274 669,258 670,232 671,231 672,269 672,271 673,266 674,267 675,287 676,274 677,271 678,263 679,259 680,266 681,264 681,272 682,274 683,276 684,262 685,255 686,250 687,241 688,262 689,298 689,282 690,263 691,254 692,253 693,255 694,266 695,275 696,247 697,234 698,232 698,249 699,275 700,277 701,254 702,262 703,252 704,246 705,240 706,250 706,237 707,208 708,218 709,233 710,255 711,282 712,266 713,261 714,262 715,246 715,251 716,257 717,271 718,276 719,259 720,249 721,243 722,257 723,248 724,260 724,271 725,278 726,251 727,249 728,255 729,262 730,255 731,251 732,255 732,280 733,282 734,278 735,286 736,292 737,280 738,281 739,300 740,293 741,308 741,330 742,357 743,354 744,342 745,336 746,338 747,313 748,314 749,361 750,353 750,326 751,329 752,336 753,340 754,329 755,331 756,345 757,358 758,367 758,360 759,365 760,367 761,369 762,378 763,367 764,352 765,354 766,339 767,345 767,330 768,327 769,348 770,362 771,346 772,347 773,359 774,345 775,360 775,356 776,383 777,382 778,365 779,362 780,364 781,379 782,388 783,385 784,408 784,410 785,434 786,438 787,444 788,439 789,456 790,463 791,463 792,442 793,418 793,410 794,419 795,418 796,414 797,412 798,411 799,415 800,422 801,418 801,418 802,421 803,420 804,408 805,421 806,411 807,433 808,439 809,427 810,414 810,412 811,429 812,419 813,429 814,429 815,421 816,414 817,408 818,404 818,420 819,414 820,378 821,377 822,352 823,342 824,354 825,354 826,356 827,357 827,349 828,327 829,311 830,308 831,293 832,294 833,309 834,314 835,305 836,307 836,310 837,320 838,312 839,317 840,311 841,312 842,325 843,334 844,315 844,302 845,298 846,301 847,305 848,332 849,340 850,340 851,335 852,326 853,324 853,339 854,354 855,341 856,323 857,304 858,325 859,328 860,332 861,336 862,367 862,374 863,368 864,375 865,352 866,369 867,358 868,352 869,346 870,343 870,309 871,297 872,304 873,326 874,291 875,292 876,295 877,274 878,276 879,311 879,299 880,299 881,271 882,272 883,287 884,277 885,272 886,265 887,250 887,268 888,295 889,305 890,289 891,306 892,312 893,313 894,303 895,318 896,336 896,305 897,292 898,294 899,291 900,274 901,283 902,297 903,306 904,338 905,326 905,317 906,325 907,334 908,326 909,285 910,282 911,294 912,278 913,290 913,326 914,322 915,325 916,303 917,304 918,297 919,296 920,319 921,327 922,331 922,331 923,324 924,313 925,327 926,316 927,317 928,316 929,321 930,317 930,321 931,343 932,342 933,296 934,287 935,282 936,282 937,287 938,291 939,269 939,253 940,246 941,261 942,260 943,260 944,252 945,254 946,239 947,265 948,277 948,280 949,265 950,272 951,283 952,281 953,282 954,299 955,301 956,290 956,281 957,260 958,259 959,261 960,268 961,274 962,266 963,294 964,296 965,303 965,286 966,287 967,312 968,318 969,324 970,339 971,399 972,451 973,542 974,637 974,699 974,699 974,699 78,699 "/>
<polyline fill="none" opacity="1" stroke="#E6194B" stroke-width="1" points="78,670 78,669 79,660 80,606 81,605 82,619 83,604 84,591 85,573 86,589 86,611 87,596 88,597 89,607 90,639 91,635 92,647 93,642 94,656 95,658 95,657 96,647 97,666 98,670 99,656 100,653 101,646 102,647 103,651 103,655 104,634 105,623 106,601 107,588 108,585 109,609 110,609 111,632 112,625 112,617 113,606 114,576 115,541 116,524 117,562 118,587 119,599 120,612 121,614 121,608 122,579 123,560 124,542 125,530 126,530 127,530 128,527 129,530 129,560 130,560 131,546 132,534 133,530 134,524 135,535 136,526 137,511 138,481 138,474 139,467 140,469 141,446 142,441 143,426 144,410 145,410 146,415 146,385 147,358 148,349 149,349 150,319 151,299 152,295 153,316 154,313 155,317 155,304 156,290 157,309 158,301 159,302 160,274 161,268 162,262 163,254 164,284 164,290 165,290 166,263 167,247 168,246 169,239 170,222 171,213 172,190 172,211 173,204 174,212 175,233 176,238 177,233 178,237 179,216 180,191 181,183 181,185 182,186 183,197 184,188 185,200 186,188 187,176 188,164 189,181 190,201 190,229 191,230 192,228 193,219 194,178 195,179 196,172 197,171 198,175 198,192 199,173 200,173 201,186 202,186 203,181 204,154 205,156 206,147 207,135 207,148 208,149 209,162 210,154 211,135 212,133 213,137 214,135 215,143 215,144 216,147 217,173 218,181 219,206 220,215 221,219 222,187 223,182 224,155 224,140 225,166 226,218 227,235 228,231 229,211 230,241 231,245 232,228 233,240 233,234 234,218 235,176 236,167 237,168 238,189 239,182 240,181 241,181 241,199 242,207 243,226 244,237 245,225 246,212 247,218 248,204 249,207 250,213 250,234 251,234 252,218 253,221 254,236 255,241 256,235 257,244 258,246 258,247 259,222 260,218 261,229 262,209 263,186 264,190 265,229 266,220 267,212 267,240 268,230 269,230 270,283 271,247 272,247 273,263 274,260 275,245 276,257 276,262 277,253 278,239 279,228 280,210 281,211 282,237 283,233 284,229 284,255 285,227 286,200 287,198 288,206 289,222 290,214 291,221 292,238 293,232 293,196 294,185 295,187 296,211 297,200 298,190 299,209 300,212 301,206 302,193 302,183 303,174 304,165 305,171 306,178 307,182 308,173 309,158 310,169 310,167 311,169 312,171 313,194 314,194 315,179 316,194 317,185 318,155 319,156 319,159 320,151 321,154 322,171 323,184 324,162 325,164 326,171 327,184 327,186 328,188 329,192 330,226 331,230 332,240 333,221 334,207 335,218 336,200 336,189 337,175 338,166 339,194 340,181 341,189 342,183 343,151 344,151 345,174 345,183 346,175 347,202 348,215 349,208 350,212 351,236 352,227 353,235 353,245 354,249 355,255 356,237 357,233 358,222 359,204 360,206 361,221 362,211 362,225 363,216 364,220 365,223 366,216 367,184 368,172 369,152 370,152 370,153 371,143 372,125 373,126 374,147 375,144 376,136 377,128 378,93 379,89 379,68 380,68 381,105 382,120 383,129 384,123 385,126 386,130 387,139 388,109 388,128 389,121 390,85 391,86 392,105 393,118 394,128 395,139 396,121 396,108 397,110 398,130 399,141 400,140 401,154 402,157 403,170 404,178 405,184 405,203 406,214 407,247 408,223 409,221 410,229 411,234 412,241 413,256 414,257 414,275 415,288 416,323 417,294 418,310 419,332 420,305 421,307 422,311 422,335 423,329 424,320 425,325 426,312 427,313 428,291 429,279 430,287 431,277 431,289 432,304 433,316 434,312 435,300 436,303 437,295 438,277 439,267 439,289 440,276 441,287 442,302 443,299 444,312 445,301 446,298 447,296 448,283 448,285 449,270 450,245 451,246 452,242 453,262 454,281 455,268 456,256 457,270 457,265 458,268 459,273 460,275 461,257 462,245 463,224 464,214 465,212 465,205 466,180 467,181 468,181 469,209 470,218 471,245 472,273 473,273 474,313 474,340 475,343 476,309 477,305 478,310 479,301 480,276 481,269 482,276 482,330 483,334 484,332 485,326 486,327 487,309 488,332 489,314 490,313 491,290 491,270 492,270 493,255 494,278 495,268 496,273 497,284 498,294 499,303 500,293 500,287 501,289 502,286 503,292 504,309 505,337 506,330 507,329 508,322 508,315 509,311 510,308 511,327 512,306 513,313 514,327 515,321 516,313 517,313 517,319 518,346 519,348 520,338 521,338 522,325 523,335 524,334 525,357 526,360 526,363 527,367 528,376 529,364 530,342 531,344 532,349 533,344 534,321 534,327 535,338 536,338 537,327 538,325 539,337 540,349 541,341 542,362 543,371 543,353 544,318 545,313 546,303 547,302 548,349 549,329 550,299 551,279 551,272 552,268 553,242 554,242 555,255 556,261 557,246 558,227 559,227 560,228 560,225 561,231 562,276 563,259 564,252 565,230 566,234 567,236 568,228 569,240 569,253 570,262 571,255 572,257 573,234 574,230 575,219 576,207 577,212 577,220 578,212 579,209 580,222 581,234 582,240 583,240 584,256 585,250 586,252 586,245 587,247 588,257 589,260 590,264 591,265 592,290 593,289 594,262 594,253 595,267 596,274 597,227 598,214 599,221 600,215 601,216 602,221 603,215 603,223 604,226 605,201 606,194 607,189 608,189 609,203 610,188 611,183 612,195 612,200 613,200 614,201 615,212 616,241 617,218 618,220 619,186 620,200 620,191 621,167 622,172 623,199 624,190 625,178 626,184 627,194 628,192 629,158 629,158 630,173 631,163 632,166 633,178 634,191 635,209 636,212 637,210 638,192 638,189 639,168 640,178 641,176 642,170 643,171 644,167 645,169 646,183 646,210 647,226 648,219 649,221 650,224 651,235 652,226 653,241 654,248 655,250 655,238 656,249 657,253 658,257 659,254 660,257 661,261 662,258 663,242 663,254 664,277 665,264 666,262 667,281 668,274 669,258 670,232 671,231 672,269 672,271 673,266 674,267 675,287 676,274 677,271 678,263 679,259 680,266 681,264 681,272 682,274 683,276 684,262 685,255 686,250 687,241 688,262 689,298 689,282 690,263 691,254 692,253 693,255 694,266 695,275 696,247 697,234 698,232 698,249 699,275 700,277 701,254 702,262 703,252 704,246 705,240 706,250 706,237 707,208 708,218 709,233 710,255 711,282 712,266 713,261 714,262 715,246 715,251 716,257 717,271 718,276 719,259 720,249 721,243 722,257 723,248 724,260 724,271 725,278 726,251 727,249 728,255 729,262 730,255 731,251 732,255 732,280 733,282 734,278 735,286 736,292 737,280 738,281 739,300 740,293 741,308 741,330 742,357 743,354 744,342 745,336 746,338 747,313 748,314 749,361 750,353 750,326 751,329 752,336 753,340 754,329 755,331 756,345 757,358 758,367 758,360 759,365 760,367 761,369 762,378 763,367 764,352 765,354 766,339 767,345 767,330 768,327 769,348 770,362 771,346 772,347 773,359 774,345 775,360 775,356 776,383 777,382 778,365 779,362 780,364 781,379 782,388 783,385 784,408 784,410 785,434 786,438 787,444 788,439 789,456 790,463 791,463 792,442 793,418 793,410 794,419 795,418 796,414 797,412 798,411 799,415 800,422 801,418 801,418 802,421 803,420 804,408 805,421 806,411 807,433 808,439 809,427 810,414 810,412 811,429 812,419 813,429 814,429 815,421 816,414 817,408 818,404 818,420 819,414 820,378 821,377 822,352 823,342 824,354 825,354 826,356 827,357 827,349 828,327 829,311 830,308 831,293 832,294 833,309 834,314 835,305 836,307 836,310 837,320 838,312 839,317 840,311 841,312 842,325 843,334 844,315 844,302 845,298 846,301 847,305 848,332 849,340 850,340 851,335 852,326 853,324 853,339 854,354 855,341 856,323 857,304 858,325 859,328 860,332 861,336 862,367 862,374 863,368 864,375 865,352 866,369 867,358 868,352 869,346 870,343 870,309 871,297 872,304 873,326 874,291 875,292 876,295 877,274 878,276 879,311 879,299 880,299 881,271 882,272 883,287 884,277 885,272 886,265 887,250 887,268 888,295 889,305 890,289 891,306 892,312 893,313 894,303 895,318 896,336 896,305 897,292 898,294 899,291 900,274 901,283 902,297 903,306 904,338 905,326 905,317 906,325 907,334 908,326 909,285 910,282 911,294 912,278 913,290 913,326 914,322 915,325 916,303 917,304 918,297 919,296 920,319 921,327 922,331 922,331 923,324 924,313 925,327 926,316 927,317 928,316 929,321 930,317 930,321 931,343 932,342 933,296 934,287 935,282 936,282 937,287 938,291 939,269 939,253 940,246 941,261 942,260 943,260 944,252 945,254 946,239 947,265 948,277 948,280 949,265 950,272 951,283 952,281 953,282 954,299 955,301 956,290 956,281 957,260 958,259 959,261 960,268 961,274 962,266 963,294 964,296 965,303 965,286 966,287 967,312 968,318 969,324 970,339 971,399 972,451 973,542 974,637 974,699 974,699 "/>
<line opacity="0.1" stroke="#000000" stroke-width="1" x1="85" y1="699" x2="85" y2="67"/>
<line opacity="0.1" stroke="#000000" stroke-width="1" x1="97" y1="699" x2="97" y2="67"/>
<line opacity="0.1" stroke="#000000" stroke-width="1" x1="110" y1="699" x2="110" y2="67"/>
<line opacity="0.1" stroke="#000000" stroke-width="1" x1="122" y1="699" x2="122" y2="67"/>
<line opacity="0.1" stroke="#000000" stroke-width="1" x1="135" y1="699" x2="135" y2="67"/>
<line opacity="0.1" stroke="#000000" stroke-width="1" x1="147" y1="699" x2="147" y2="67"/>
<line opacity="0.1" stroke="#000000" stroke-width="1" x1="159" y1="699" x2="159" y2="67"/>
<line opacity="0.1" stroke="#000000" stroke-width="1" x1="172" y1="699" x2="172" y2="67"/>
<line opacity="0.1" stroke="#000000" stroke-width="1" x1="184" y1="699" x2="184" y2="67"/>
<line opacity="0.1" stroke="#000000" stroke-width="1" x1="197" y1="699" x2="197" y2="67"/>
<line opacity="0.1" stroke="#000000" stroke-width="1" x1="209" y1="699" x2="209" y2="67"/>
<line opacity="0.1" stroke="#000000" stroke-width="1" x1="222" y1="699" x2="222" y2="67"/>
<line opacity="0.1" stroke="#000000" stroke-width="1" x1="234" y1="699" x2="234" y2="67"/>
<line opacity="0.1" stroke="#000000" stroke-width="1" x1="247" y1="699" x2="247" y2="67"/>
<line opacity="0.1" stroke="#000000" stroke-width="1" x1="259" y1="699" x2="259" y2="67"/>
<line opacity="0.1" stroke="#000000" stroke-width="1" x1="272" y1="699" x2="272" y2="67"/>
<line opacity="0.1" stroke="#000000" stroke-width="1" x1="284" y1="699" x2="284" y2="67"/>
<line opacity="0.1" stroke="#000000" stroke-width="1" x1="297" y1="699" x2="297" y2="67"/>
<line opacity="0.1" stroke="#000000" stroke-width="1" x1="309" y1="699" x2="309" y2="67"/>
<line opacity="0.1" stroke="#000000" stroke-width="1" x1="322" y1="699" x2="322" y2="67"/>
<line opacity="0.1" stroke="#000000" stroke-width="1" x1="334" y1="699" x2="334" y2="67"/>
<line opacity="0.1" stroke="#000000" stroke-width="1" x1="347" y1="699" x2="347" y2="67"/>
<line opacity="0.1" stroke="#000000" stroke-width="1" x1="359" y1="699" x2="359" y2="67"/>
<line opacity="0.1" stroke="#000000" stroke-width="1" x1="372" y1="699" x2="372" y2="67"/>
<line opacity="0.1" stroke="#000000" stroke-width="1" x1="384" y1="699" x2="384" y2="67"/>
<line opacity="0.1" stroke="#000000" stroke-width="1" x1="397" y1="699" x2="397" y2="67"/>
<line opacity="0.1" stroke="#000000" stroke-width="1" x1="409" y1="699" x2="409" y2="67"/>
<line opacity="0.1" stroke="#000000" stroke-width="1" x1="422" y1="699" x2="422" y2="67"/>
<line opacity="0.1" stroke="#000000" stroke-width="1" x1="434" y1="699" x2="434" y2="67"/>
<line opacity="0.1" stroke="#000000" stroke-width="1" x1="447" y1="699" x2="447" y2="67"/>
<line opacity="0.1" stroke="#000000" stroke-width="1" x1="459" y1="699" x2="459" y2="67"/>
<line opacity="0.1" stroke="#000000" stroke-width="1" x1="472" y1="699" x2="472" y2="67"/>
<line opacity="0.1" stroke="#000000" stroke-width="1" x1="484" y1="699" x2="484" y2="67"/>
<line opacity="0.1" stroke="#000000" stroke-width="1" x1="497" y1="699" x2="497" y2="67"/>
<line opacity="0.1" stroke="#000000" stroke-width="1" x1="509" y1="699" x2="509" y2="67"/>
<line opacity="0.1" stroke="#000000" stroke-width="1" x1="522" y1="699" x2="522" y2="67"/>
<line opacity="0.1" stroke="#000000" stroke-width="1" x1="534" y1="699" x2="534" y2="67"/>
<line opacity="0.1" stroke="#000000" stroke-width="1" x1="547" y1="699" x2="547" y2="67"/>
<line opacity="0.1" stroke="#000000" stroke-width="1" x1="559" y1="699" x2="559" y2="67"/>
<line opacity="0.1" stroke="#000000" stroke-width="1" x1="572" y1="699" x2="572" y2="67"/>
<line opacity="0.1" stroke="#000000" stroke-width="1" x1="584" y1="699" x2="584" y2="67"/>
<line opacity="0.1" stroke="#000000" stroke-width="1" x1="597" y1="699" x2="597" y2="67"/>
<line opacity="0.1" stroke="#000000" stroke-width="1" x1="609" y1="699" x2="609" y2="67"/>
<line opacity="0.1" stroke="#000000" stroke-width="1" x1="622" y1="699" x2="622" y2="67"/>
<line opacity="0.1" stroke="#000000" stroke-width="1" x1="634" y1="699" x2="634" y2="67"/>
<line opacity="0.1" stroke="#000000" stroke-width="1" x1="647" y1="699" x2="647" y2="67"/>
<line opacity="0.1" stroke="#000000" stroke-width="1" x1="659" y1="699" x2="659" y2="67"/>
<line opacity="0.1" stroke="#000000" stroke-width="1" x1="672" y1="699" x2="672" y2="67"/>
<line opacity="0.1" stroke="#000000" stroke-width="1" x1="684" y1="699" x2="684" y2="67"/>
<line opacity="0.1" stroke="#000000" stroke-width="1" x1="697" y1="699" x2="697" y2="67"/>
<line opacity="0.1" stroke="#000000" stroke-width="1" x1="709" y1="699" x2="709" y2="67"/>
<line opacity="0.1" stroke="#000000" stroke-width="1" x1="722" y1="699" x2="722" y2="67"/>
<line opacity="0.1" stroke="#000000" stroke-width="1" x1="734" y1="699" x2="734" y2="67"/>
<line opacity="0.1" stroke="#000000" stroke-width="1" x1="747" y1="699" x2="747" y2="67"/>
<line opacity="0.1" stroke="#000000" stroke-width="1" x1="759" y1="699" x2="759" y2="67"/>
<line opacity="0.1" stroke="#000000" stroke-width="1" x1="772" y1="699" x2="772" y2="67"/>
<line opacity="0.1" stroke="#000000" stroke-width="1" x1="784" y1="699" x2="784" y2="67"/>
<line opacity="0.1" stroke="#000000" stroke-width="1" x1="797" y1="699" x2="797" y2="67"/>
<line opacity="0.1" stroke="#000000" stroke-width="1" x1="809" y1="699" x2="809" y2="67"/>
<line opacity="0.1" stroke="#000000" stroke-width="1" x1="822" y1="699" x2="822" y2="67"/>
<line opacity="0.1" stroke="#000000" stroke-width="1" x1="834" y1="699" x2="834" y2="67"/>
<line opacity="0.1" stroke="#000000" stroke-width="1" x1="847" y1="699" x2="847" y2="67"/>
<line opacity="0.1" stroke="#000000" stroke-width="1" x1="859" y1="699" x2="859" y2="67"/>
<line opacity="0.1" stroke="#000000" stroke-width="1" x1="872" y1="699" x2="872" y2="67"/>
<line opacity="0.1" stroke="#000000" stroke-width="1" x1="884" y1="699" x2="884" y2="67"/>
<line opacity="0.1" stroke="#000000" stroke-width="1" x1="897" y1="699" x2="897" y2="67"/>
<line opacity="0.1" stroke="#000000" stroke-width="1" x1="909" y1="699" x2="909" y2="67"/>
<line opacity="0.1" stroke="#000000" stroke-width="1" x1="922" y1="699" x2="922" y2="67"/>
<line opacity="0.1" stroke="#000000" stroke-width="1" x1="934" y1="699" x2="934" y2="67"/>
<line opacity="0.1" stroke="#000000" stroke-width="1" x1="947" y1="699" x2="947" y2="67"/>
<line opacity="0.1" stroke="#000000" stroke-width="1" x1="959" y1="699" x2="959" y2="67"/>
<line opacity="0.1" stroke="#000000" stroke-width="1" x1="972" y1="699" x2="972" y2="67"/>
<line opacity="0.1" stroke="#000000" stroke-width="1" x1="78" y1="699" x2="974" y2="699"/>
<line opacity="0.1" stroke="#000000" stroke-width="1" x1="78" y1="690" x2="974" y2="690"/>
<line opacity="0.1" stroke="#000000" stroke-width="1" x1="78" y1="681" x2="974" y2="681"/>
<line opacity="0.1" stroke="#000000" stroke-width="1" x1="78" y1="672" x2="974" y2="672"/>
<line opacity="0.1" stroke="#000000" stroke-width="1" x1="78" y1="663" x2="974" y2="663"/>
<line opacity="0.1" stroke="#000000" stroke-width="1" x1="78" y1="654" x2="974" y2="654"/>
<line opacity="0.1" stroke="#000000" stroke-width="1" x1="78" y1="645" x2="974" y2="645"/>
<line opacity="0.1" stroke="#000000" stroke-width="1" x1="78" y1="636" x2="974" y2="636"/>
<line opacity="0.1" stroke="#000000" stroke-width="1" x1="78" y1="627" x2="974" y2="627"/>
<line opacity="0.1" stroke="#000000" stroke-width="1" x1="78" y1="618" x2="974" y2="618"/>
<line opacity="0.1" stroke="#000000" stroke-width="1" x1="78" y1="609" x2="974" y2="609"/>
<line opacity="0.1" stroke="#000000" stroke-width="1" x1="78" y1="600" x2="974" y2="600"/>
<line opacity="0.1" stroke="#000000" stroke-width="1" x1="78" y1="591" x2="974" y2="591"/>
<line opacity="0.1" stroke="#000000" stroke-width="1" x1="78" y1="583" x2="974" y2="583"/>
<line opacity="0.1" stroke="#000000" stroke-width="1" x1="78" y1="574" x2="974" y2="574"/>
<line opacity="0.1" stroke="#000000" stroke-width="1" x1="78" y1="565" x2="974" y2="565"/>
<line opacity="0.1" stroke="#000000" stroke-width="1" x1="78" y1="556" x2="974" y2="556"/>
<line opacity="0.1" stroke="#000000" stroke-width="1" x1="78" y1="547" x2="974" y2="547"/>
<line opacity="0.1" stroke="#000000" stroke-width="1" x1="78" y1="538" x2="974" y2="538"/>
<line opacity="0.1" stroke="#000000" stroke-width="1" x1="78" y1="529" x2="974" y2="529"/>
<line opacity="0.1" stroke="#000000" stroke-width="1" x1="78" y1="520" x2="974" y2="520"/>
<line opacity="0.1" stroke="#000000" stroke-width="1" x1="78" y1="511" x2="974" y2="511"/>
<line opacity="0.1" stroke="#000000" stroke-width="1" x1="78" y1="502" x2="974" y2="502"/>
<line opacity="0.1" stroke="#000000" stroke-width="1" x1="78" y1="493" x2="974" y2="493"/>
<line opacity="0.1" stroke="#000000" stroke-width="1" x1="78" y1="484" x2="974" y2="484"/>
<line opacity="0.1" stroke="#000000" stroke-width="1" x1="78" y1="476" x2="974" y2="476"/>
<line opacity="0.1" stroke="#000000" stroke-width="1" x1="78" y1="467" x2="974" y2="467"/>
<line opacity="0.1" stroke="#000000" stroke-width="1" x1="78" y1="458" x2="974" y2="458"/>
<line opacity="0.1" stroke="#000000" stroke-width="1" x1="78" y1="449" x2="974" y2="449"/>
<line opacity="0.1" stroke="#000000" stroke-width="1" x1="78" y1="440" x2="974" y2="440"/>
<line opacity="0.1" stroke="#000000" stroke-width="1" x1="78" y1="431" x2="974" y2="431"/>
<line opacity="0.1" stroke="#000000" stroke-width="1" x1="78" y1="422" x2="974" y2="422"/>
<line opacity="0.1" stroke="#000000" stroke-width="1" x1="78" y1="413" x2="974" y2="413"/>
<line opacity="0.1" stroke="#000000" stroke-width="1" x1="78" y1="404" x2="974" y2="404"/>
<line opacity="0.1" stroke="#000000" stroke-width="1" x1="78" y1="395" x2="974" y2="395"/>
<line opacity="0.1" stroke="#000000" stroke-width="1" x1="78" y1="386" x2="974" y2="386"/>
<line opacity="0.1" stroke="#000000" stroke-width="1" x1="78" y1="377" x2="974" y2="377"/>
<line opacity="0.1" stroke="#000000" stroke-width="1" x1="78" y1="369" x2="974" y2="369"/>
<line opacity="0.1" stroke="#000000" stroke-width="1" x1="78" y1="360" x2="974" y2="360"/>
<line opacity="0.1" stroke="#000000" stroke-width="1" x1="78" y1="351" x2="974" y2="351"/>
<line opacity="0.1" stroke="#000000" stroke-width="1" x1="78" y1="342" x2="974" y2="342"/>
<line opacity="0.1" stroke="#000000" stroke-width="1" x1="78" y1="333" x2="974" y2="333"/>
<line opacity="0.1" stroke="#000000" stroke-width="1" x1="78" y1="324" x2="974" y2="324"/>
<line opacity="0.1" stroke="#000000" stroke-width="1" x1="78" y1="315" x2="974" y2="315"/>
<line opacity="0.1" stroke="#000000" stroke-width="1" x1="78" y1="306" x2="974" y2="306"/>
<line opacity="0.1" stroke="#000000" stroke-width="1" x1="78" y1="297" x2="974" y2="297"/>
<line opacity="0.1" stroke="#000000" stroke-width="1" x1="78" y1="288" x2="974" y2="288"/>
<line opacity="0.1" stroke="#000000" stroke-width="1" x1="78" y1="279" x2="974" y2="279"/>
<line opacity="0.1" stroke="#000000" stroke-width="1" x1="78" y1="270" x2="974" y2="270"/>
<line opacity="0.1" stroke="#000000" stroke-width="1" x1="78" y1="262" x2="974" y2="262"/>
<line opacity="0.1" stroke="#000000" stroke-width="1" x1="78" y1="253" x2="974" y2="253"/>
<line opacity="0.1" stroke="#000000" stroke-width="1" x1="78" y1="244" x2="974" y2="244"/>
<line opacity="0.1" stroke="#000000" stroke-width="1" x1="78" y1="235" x2="974" y2="235"/>
<line opacity="0.1" stroke="#000000" stroke-width="1" x1="78" y1="226" x2="974" y2="226"/>
<line opacity="0.1" stroke="#000000" stroke-width="1" x1="78" y1="217" x2="974" y2="217"/>
<line opacity="0.1" stroke="#000000" stroke-width="1" x1="78" y1="208" x2="974" y2="208"/>
<line opacity="0.1" stroke="#000000" stroke-width="1" x1="78" y1="199" x2="974" y2="199"/>
<line opacity="0.1" stroke="#000000" stroke-width="1" x1="78" y1="190" x2="974" y2="190"/>
<line opacity="0.1" stroke="#000000" stroke-width="1" x1="78" y1="181" x2="974" y2="181"/>
<line opacity="0.1" stroke="#000000" stroke-width="1" x1="78" y1="172" x2="974" y2="172"/>
<line opacity="0.1" stroke="#000000" stroke-width="1" x1="78" y1="163" x2="974" y2="163"/>
<line opacity="0.1" stroke="#000000" stroke-width="1" x1="78" y1="155" x2="974" y2="155"/>
<line opacity="0.1" stroke="#000000" stroke-width="1" x1="78" y1="146" x2="974" y2="146"/>
<line opacity="0.1" stroke="#000000" stroke-width="1" x1="78" y1="137" x2="974" y2="137"/>
<line opacity="0.1" stroke="#000000" stroke-width="1" x1="78" y1="128" x2="974" y2="128"/>
<line opacity="0.1" stroke="#000000" stroke-width="1" x1="78" y1="119" x2="974" y2="119"/>
<line opacity="0.1" stroke="#000000" stroke-width="1" x1="78" y1="110" x2="974" y2="110"/>
<line opacity="0.1" stroke="#000000" stroke-width="1" x1="78" y1="101" x2="974" y2="101"/>
<line opacity="0.1" stroke="#000000" stroke-width="1" x1="78" y1="92" x2="974" y2="92"/>
<line opacity="0.1" stroke="#000000" stroke-width="1" x1="78" y1="83" x2="974" y2="83"/>
<line opacity="0.1" stroke="#000000" stroke-width="1" x1="78" y1="74" x2="974" y2="74"/>
<text x="8" y="384" dy="0.76em" text-anchor="middle" font-family="sans-serif" font-size="9.67741935483871" opacity="1" fill="#000000" transform="rotate(270, 8, 384)">
Memory usage
</text>
<text x="526" y="760" dy="-0.5ex" text-anchor="middle" font-family="sans-serif" font-size="9.67741935483871" opacity="1" fill="#000000">
Time
</text>
<line opacity="0.2" stroke="#000000" stroke-width="1" x1="197" y1="699" x2="197" y2="67"/>
<line opacity="0.2" stroke="#000000" stroke-width="1" x1="322" y1="699" x2="322" y2="67"/>
<line opacity="0.2" stroke="#000000" stroke-width="1" x1="447" y1="699" x2="447" y2="67"/>
<line opacity="0.2" stroke="#000000" stroke-width="1" x1="572" y1="699" x2="572" y2="67"/>
<line opacity="0.2" stroke="#000000" stroke-width="1" x1="697" y1="699" x2="697" y2="67"/>
<line opacity="0.2" stroke="#000000" stroke-width="1" x1="822" y1="699" x2="822" y2="67"/>
<line opacity="0.2" stroke="#000000" stroke-width="1" x1="947" y1="699" x2="947" y2="67"/>
<line opacity="0.2" stroke="#000000" stroke-width="1" x1="78" y1="699" x2="974" y2="699"/>
<line opacity="0.2" stroke="#000000" stroke-width="1" x1="78" y1="609" x2="974" y2="609"/>
<line opacity="0.2" stroke="#000000" stroke-width="1" x1="78" y1="520" x2="974" y2="520"/>
<line opacity="0.2" stroke="#000000" stroke-width="1" x1="78" y1="431" x2="974" y2="431"/>
<line opacity="0.2" stroke="#000000" stroke-width="1" x1="78" y1="342" x2="974" y2="342"/>
<line opacity="0.2" stroke="#000000" stroke-width="1" x1="78" y1="253" x2="974" y2="253"/>
<line opacity="0.2" stroke="#000000" stroke-width="1" x1="78" y1="163" x2="974" y2="163"/>
<line opacity="0.2" stroke="#000000" stroke-width="1" x1="78" y1="74" x2="974" y2="74"/>
<polyline fill="none" opacity="1" stroke="#000000" stroke-width="1" points="77,68 77,700 "/>
<text x="68" y="699" dy="0.5ex" text-anchor="end" font-family="sans-serif" font-size="9.67741935483871" opacity="1" fill="#000000">
0 KB
</text>
<polyline fill="none" opacity="1" stroke="#000000" stroke-width="1" points="72,699 77,699 "/>
<text x="68" y="609" dy="0.5ex" text-anchor="end" font-family="sans-serif" font-size="9.67741935483871" opacity="1" fill="#000000">
48 KB
</text>
<polyline fill="none" opacity="1" stroke="#000000" stroke-width="1" points="72,609 77,609 "/>
<text x="68" y="520" dy="0.5ex" text-anchor="end" font-family="sans-serif" font-size="9.67741935483871" opacity="1" fill="#000000">
97 KB
</text>
<polyline fill="none" opacity="1" stroke="#000000" stroke-width="1" points="72,520 77,520 "/>
<text x="68" y="431" dy="0.5ex" text-anchor="end" font-family="sans-serif" font-size="9.67741935483871" opacity="1" fill="#000000">
146 KB
</text>
<polyline fill="none" opacity="1" stroke="#000000" stroke-width="1" points="72,431 77,431 "/>
<text x="68" y="342" dy="0.5ex" text-anchor="end" font-family="sans-serif" font-size="9.67741935483871" opacity="1" fill="#000000">
195 KB
</text>
<polyline fill="none" opacity="1" stroke="#000000" stroke-width="1" points="72,342 77,342 "/>
<text x="68" y="253" dy="0.5ex" text-anchor="end" font-family="sans-serif" font-size="9.67741935483871" opacity="1" fill="#000000">
244 KB
</text>
<polyline fill="none" opacity="1" stroke="#000000" stroke-width="1" points="72,253 77,253 "/>
<text x="68" y="163" dy="0.5ex" text-anchor="end" font-family="sans-serif" font-size="9.67741935483871" opacity="1" fill="#000000">
292 KB
</text>
<polyline fill="none" opacity="1" stroke="#000000" stroke-width="1" points="72,163 77,163 "/>
<text x="68" y="74" dy="0.5ex" text-anchor="end" font-family="sans-serif" font-size="9.67741935483871" opacity="1" fill="#000000">
341 KB
</text>
<polyline fill="none" opacity="1" stroke="#000000" stroke-width="1" points="72,74 77,74 "/>
<polyline fill="none" opacity="1" stroke="#000000" stroke-width="1" points="78,700 974,700 "/>
<text x="197" y="710" dy="0.76em" text-anchor="middle" font-family="sans-serif" font-size="9.67741935483871" opacity="1" fill="#000000">
06:26:08
</text>
<polyline fill="none" opacity="1" stroke="#000000" stroke-width="1" points="197,700 197,705 "/>
<text x="322" y="710" dy="0.76em" text-anchor="middle" font-family="sans-serif" font-size="9.67741935483871" opacity="1" fill="#000000">
06:26:09
</text>
<polyline fill="none" opacity="1" stroke="#000000" stroke-width="1" points="322,700 322,705 "/>
<text x="447" y="710" dy="0.76em" text-anchor="middle" font-family="sans-serif" font-size="9.67741935483871" opacity="1" fill="#000000">
06:26:10
</text>
<polyline fill="none" opacity="1" stroke="#000000" stroke-width="1" points="447,700 447,705 "/>
<text x="572" y="710" dy="0.76em" text-anchor="middle" font-family="sans-serif" font-size="9.67741935483871" opacity="1" fill="#000000">
06:26:11
</text>
<polyline fill="none" opacity="1" stroke="#000000" stroke-width="1" points="572,700 572,705 "/>
<text x="697" y="710" dy="0.76em" text-anchor="middle" font-family="sans-serif" font-size="9.67741935483871" opacity="1" fill="#000000">
06:26:12
</text>
<polyline fill="none" opacity="1" stroke="#000000" stroke-width="1" points="697,700 697,705 "/>
<text x="822" y="710" dy="0.76em" text-anchor="middle" font-family="sans-serif" font-size="9.67741935483871" opacity="1" fill="#000000">
06:26:13
</text>
<polyline fill="none" opacity="1" stroke="#000000" stroke-width="1" points="822,700 822,705 "/>
<text x="947" y="710" dy="0.76em" text-anchor="middle" font-family="sans-serif" font-size="9.67741935483871" opacity="1" fill="#000000">
06:26:14
</text>
<polyline fill="none" opacity="1" stroke="#000000" stroke-width="1" points="947,700 947,705 "/>
<polyline fill="none" opacity="1" stroke="#000000" stroke-width="1" points="78,67 974,67 "/>
<text x="197" y="58" dy="-0.5ex" text-anchor="middle" font-family="sans-serif" font-size="9.67741935483871" opacity="1" fill="#000000">
+956ms
</text>
<polyline fill="none" opacity="1" stroke="#000000" stroke-width="1" points="197,62 197,67 "/>
<text x="322" y="58" dy="-0.5ex" text-anchor="middle" font-family="sans-serif" font-size="9.67741935483871" opacity="1" fill="#000000">
+1s
</text>
<polyline fill="none" opacity="1" stroke="#000000" stroke-width="1" points="322,62 322,67 "/>
<text x="447" y="58" dy="-0.5ex" text-anchor="middle" font-family="sans-serif" font-size="9.67741935483871" opacity="1" fill="#000000">
+2s
</text>
<polyline fill="none" opacity="1" stroke="#000000" stroke-width="1" points="447,62 447,67 "/>
<text x="572" y="58" dy="-0.5ex" text-anchor="middle" font-family="sans-serif" font-size="9.67741935483871" opacity="1" fill="#000000">
+3s
</text>
<polyline fill="none" opacity="1" stroke="#000000" stroke-width="1" points="572,62 572,67 "/>
<text x="697" y="58" dy="-0.5ex" text-anchor="middle" font-family="sans-serif" font-size="9.67741935483871" opacity="1" fill="#000000">
+4s
</text>
<polyline fill="none" opacity="1" stroke="#000000" stroke-width="1" points="697,62 697,67 "/>
<text x="822" y="58" dy="-0.5ex" text-anchor="middle" font-family="sans-serif" font-size="9.67741935483871" opacity="1" fill="#000000">
+5s
</text>
<polyline fill="none" opacity="1" stroke="#000000" stroke-width="1" points="822,62 822,67 "/>
<text x="947" y="58" dy="-0.5ex" text-anchor="middle" font-family="sans-serif" font-size="9.67741935483871" opacity="1" fill="#000000">
+6s
</text>
<polyline fill="none" opacity="1" stroke="#000000" stroke-width="1" points="947,62 947,67 "/>
</svg>
