<svg width="1024" height="768" viewBox="0 0 1024 768" xmlns="http://www.w3.org/2000/svg">
<rect x="0" y="0" width="1023" height="767" opacity="1" fill="#FFFFFF" stroke="none"/>
<polygon opacity="1" fill="#E6194B" points="301,611 302,500 302,457 303,393 303,359 304,344 304,329 305,333 305,322 305,307 306,300 306,288 307,273 307,264 308,265 308,252 309,240 309,227 310,242 310,243 310,231 311,245 311,248 312,234 312,239 313,258 313,242 314,239 314,234 314,198 315,188 315,185 316,162 316,163 317,171 317,164 318,152 318,145 318,133 319,145 319,157 320,175 320,154 321,152 321,137 322,116 322,96 322,100 323,92 323,68 324,68 324,103 325,115 325,127 326,134 326,137 327,130 327,134 327,137 328,137 328,150 329,139 329,115 330,135 330,139 331,121 331,105 331,88 332,102 332,117 333,131 333,124 334,149 334,148 335,150 335,117 335,121 336,113 336,118 337,137 337,150 338,152 338,149 339,165 339,168 340,168 340,183 340,191 341,204 341,198 342,220 342,224 343,236 343,244 344,245 344,217 344,215 345,215 345,224 346,230 346,237 347,252 347,254 348,256 348,257 348,276 349,290 349,327 350,312 350,297 351,314 351,344 352,340 352,327 352,310 353,314 353,316 354,326 354,343 355,336 355,328 356,326 356,331 357,328 357,317 357,319 358,293 358,292 359,280 359,301 360,286 360,278 361,292 361,301 361,314 362,325 362,323 363,311 363,303 364,313 364,302 365,298 365,283 365,267 366,277 366,291 367,276 367,288 368,291 368,307 369,303 369,319 370,317 370,314 370,304 371,316 371,300 372,296 372,285 373,301 373,270 374,270 374,243 374,243 375,215 375,215 376,223 376,239 377,258 377,253 378,239 378,229 378,232 379,248 379,240 380,250 380,249 381,255 381,251 382,239 382,231 382,217 383,202 383,186 384,183 384,184 385,181 385,173 386,150 386,145 387,146 387,150 387,177 388,185 388,204 389,218 389,249 390,248 390,249 391,276 391,300 391,324 392,329 392,300 393,291 393,285 394,290 394,292 395,285 395,263 395,245 396,246 396,252 397,283 397,317 398,317 398,315 399,315 399,310 400,308 400,299 400,289 401,314 401,308 402,298 402,294 403,290 403,268 404,245 404,245 404,250 405,229 405,233 406,255 406,251 407,243 407,258 408,269 408,272 408,275 409,287 409,272 410,279 410,265 411,267 411,263 412,270 412,272 412,289 413,317 413,340 414,313 414,315 415,312 415,304 416,304 416,296 417,292 417,288 417,298 418,312 418,285 419,292 419,307 420,310 420,319 421,303 421,294 421,293 422,300 422,316 423,330 423,336 424,333 424,321 425,334 425,316 425,307 426,307 426,317 427,319 427,343 428,346 428,350 429,350 429,348 430,348 430,359 430,352 431,344 431,320 432,322 432,323 433,335 433,323 434,327 434,297 434,303 435,324 435,316 436,324 436,323 437,301 437,312 438,315 438,325 438,333 439,319 439,334 440,350 440,353 441,341 441,333 442,293 442,288 443,290 443,276 443,275 444,310 444,332 445,306 445,298 446,269 446,249 447,242 447,237 447,238 448,232 448,208 449,222 449,223 450,227 450,230 451,213 451,192 451,195 452,191 452,217 453,189 453,189 454,196 454,206 455,239 455,227 455,235 456,199 456,194 457,206 457,199 458,204 458,192 459,194 459,217 460,220 460,229 460,227 461,223 461,232 462,203 462,199 463,194 463,188 464,183 464,169 464,174 465,180 465,183 466,175 466,171 467,182 467,184 468,209 468,199 468,205 469,206 469,207 470,232 470,217 471,228 471,220 472,224 472,212 473,220 473,225 473,230 474,228 474,237 475,233 475,260 476,267 476,274 477,246 477,230 477,220 478,233 478,256 479,249 479,213 480,191 480,177 481,201 481,184 481,178 482,179 482,179 483,186 483,178 484,189 484,187 485,190 485,168 485,162 486,154 486,148 487,158 487,149 488,164 488,172 489,143 489,142 490,154 490,155 490,162 491,161 491,162 492,164 492,175 493,201 493,206 494,187 494,181 494,167 495,145 495,156 496,161 496,150 497,125 497,123 498,138 498,160 498,157 499,145 499,136 500,143 500,156 501,154 501,158 502,146 502,114 503,114 503,129 503,134 504,119 504,122 505,138 505,136 506,150 506,166 507,171 507,183 507,175 508,173 508,159 509,152 509,141 510,125 510,126 511,138 511,134 511,135 512,127 512,144 513,137 513,124 514,137 514,151 515,172 515,176 515,197 516,185 516,182 517,184 517,188 518,196 518,200 519,190 519,199 520,207 520,215 520,229 521,206 521,203 522,216 522,221 523,225 523,228 524,221 524,233 524,224 525,229 525,234 526,226 526,208 527,218 527,236 528,249 528,246 528,231 529,234 529,245 530,252 530,243 531,242 531,226 532,197 532,195 533,229 533,237 533,239 534,240 534,235 535,236 535,256 536,263 536,243 537,239 537,240 537,228 538,226 538,226 539,233 539,231 540,240 540,239 541,257 541,247 541,241 542,228 542,220 543,217 543,204 544,207 544,227 545,237 545,268 545,258 546,247 546,228 547,219 547,234 548,218 548,220 549,232 549,242 550,249 550,223 550,211 551,196 551,193 552,205 552,227 553,241 553,247 554,239 554,218 554,227 555,219 555,215 556,211 556,203 557,203 557,213 558,216 558,199 558,166 559,169 559,196 560,194 560,219 561,246 561,231 562,232 562,233 563,226 563,226 563,218 564,209 564,226 565,219 565,232 566,240 566,247 567,237 567,220 567,221 568,205 568,214 569,227 569,210 570,212 570,229 571,236 571,242 571,246 572,226 572,211 573,214 573,218 574,222 574,225 575,217 575,213 575,220 576,217 576,246 577,247 577,250 578,242 578,250 579,251 579,258 580,262 580,245 580,265 581,268 581,258 582,262 582,281 583,285 583,327 584,331 584,332 584,318 585,313 585,310 586,307 586,309 587,286 587,281 588,312 588,334 588,329 589,295 589,295 590,298 590,317 591,307 591,316 592,301 592,298 593,302 593,313 593,320 594,350 594,348 595,341 595,332 596,340 596,338 597,342 597,343 597,352 598,348 598,348 599,325 599,324 600,325 600,313 601,308 601,321 601,320 602,296 602,316 603,319 603,332 604,338 604,317 605,318 605,323 606,324 606,314 606,318 607,333 607,327 608,347 608,365 609,356 609,336 610,339 610,333 610,335 611,342 611,355 612,363 612,358 613,368 613,385 614,386 614,402 614,413 615,418 615,428 616,425 616,420 617,423 617,448 618,446 618,446 618,446 619,423 619,412 620,386 620,394 621,398 621,396 622,396 622,391 623,389 623,396 623,387 624,392 624,416 625,400 625,396 626,396 626,398 627,418 627,399 627,389 628,384 628,386 629,389 629,387 630,411 630,431 631,418 631,405 631,409 632,387 632,389 633,407 633,410 634,396 634,407 635,407 635,407 636,398 636,397 636,390 637,383 637,378 638,382 638,398 639,390 639,380 640,350 640,348 640,341 641,320 641,309 642,328 642,321 643,321 643,324 644,324 644,324 644,323 645,294 645,278 646,273 646,273 647,270 647,253 648,254 648,273 648,271 649,276 649,279 650,266 650,268 651,272 651,278 652,295 652,282 653,273 653,279 653,273 654,273 654,285 655,288 655,297 656,299 656,277 657,262 657,262 657,258 658,260 658,264 659,275 659,295 660,300 660,306 661,305 661,311 661,299 662,291 662,286 663,300 663,313 664,320 664,325 665,306 665,285 666,277 666,264 666,290 667,287 667,296 668,295 668,299 669,331 669,335 670,348 670,339 670,335 671,343 671,326 672,317 672,337 673,339 673,324 674,317 674,310 674,310 675,292 675,285 676,267 676,255 677,265 677,289 678,273 678,263 678,248 679,256 679,253 680,244 680,229 681,261 681,273 682,266 682,257 683,257 683,236 683,226 684,242 684,243 685,232 685,233 686,233 686,225 687,215 687,202 687,222 688,267 688,252 689,264 689,255 690,246 690,265 691,269 691,273 691,275 692,260 692,260 693,296 693,297 694,300 694,262 695,251 695,248 696,247 696,247 696,245 697,227 697,240 698,253 698,260 699,284 699,300 700,287 700,281 700,274 701,282 701,295 702,294 702,302 703,267 703,239 704,236 704,255 704,241 705,231 705,243 706,257 706,286 707,279 707,281 708,292 708,278 708,258 709,263 709,253 710,250 710,277 711,275 711,281 712,293 712,291 713,289 713,298 713,281 714,269 714,280 715,294 715,282 716,272 716,283 717,272 717,277 717,275 718,273 718,277 719,287 719,311 720,316 720,287 721,239 721,241 721,238 722,233 722,234 723,239 723,252 724,244 724,226 725,201 725,201 726,193 726,203 726,224 727,218 727,208 728,209 728,200 729,203 729,185 730,191 730,215 730,221 731,232 731,230 732,215 732,216 733,222 733,234 734,242 734,232 734,233 735,251 735,261 736,255 736,242 737,248 737,231 738,236 738,207 739,209 739,209 739,210 740,221 740,225 741,214 741,246 742,245 742,261 743,248 743,258 743,245 744,237 744,251 745,266 745,273 746,272 746,279 747,295 747,334 747,376 748,421 748,488 749,560 749,654 749,699 974,699 974,699 301,699 "/>
<polyline fill="none" opacity="1" stroke="#E6194B" stroke-width="1" points="301,611 302,500 302,457 303,393 303,359 304,344 304,329 305,333 305,322 305,307 306,300 306,288 307,273 307,264 308,265 308,252 309,240 309,227 310,242 310,243 310,231 311,245 311,248 312,234 312,239 313,258 313,242 314,239 314,234 314,198 315,188 315,185 316,162 316,163 317,171 317,164 318,152 318,145 318,133 319,145 319,157 320,175 320,154 321,152 321,137 322,116 322,96 322,100 323,92 323,68 324,68 324,103 325,115 325,127 326,134 326,137 327,130 327,134 327,137 328,137 328,150 329,139 329,115 330,135 330,139 331,121 331,105 331,88 332,102 332,117 333,131 333,124 334,149 334,148 335,150 335,117 335,121 336,113 336,118 337,137 337,150 338,152 338,149 339,165 339,168 340,168 340,183 340,191 341,204 341,198 342,220 342,224 343,236 343,244 344,245 344,217 344,215 345,215 345,224 346,230 346,237 347,252 347,254 348,256 348,257 348,276 349,290 349,327 350,312 350,297 351,314 351,344 352,340 352,327 352,310 353,314 353,316 354,326 354,343 355,336 355,328 356,326 356,331 357,328 357,317 357,319 358,293 358,292 359,280 359,301 360,286 360,278 361,292 361,301 361,314 362,325 362,323 363,311 363,303 364,313 364,302 365,298 365,283 365,267 366,277 366,291 367,276 367,288 368,291 368,307 369,303 369,319 370,317 370,314 370,304 371,316 371,300 372,296 372,285 373,301 373,270 374,270 374,243 374,243 375,215 375,215 376,223 376,239 377,258 377,253 378,239 378,229 378,232 379,248 379,240 380,250 380,249 381,255 381,251 382,239 382,231 382,217 383,202 383,186 384,183 384,184 385,181 385,173 386,150 386,145 387,146 387,150 387,177 388,185 388,204 389,218 389,249 390,248 390,249 391,276 391,300 391,324 392,329 392,300 393,291 393,285 394,290 394,292 395,285 395,263 395,245 396,246 396,252 397,283 397,317 398,317 398,315 399,315 399,310 400,308 400,299 400,289 401,314 401,308 402,298 402,294 403,290 403,268 404,245 404,245 404,250 405,229 405,233 406,255 406,251 407,243 407,258 408,269 408,272 408,275 409,287 409,272 410,279 410,265 411,267 411,263 412,270 412,272 412,289 413,317 413,340 414,313 414,315 415,312 415,304 416,304 416,296 417,292 417,288 417,298 418,312 418,285 419,292 419,307 420,310 420,319 421,303 421,294 421,293 422,300 422,316 423,330 423,336 424,333 424,321 425,334 425,316 425,307 426,307 426,317 427,319 427,343 428,346 428,350 429,350 429,348 430,348 430,359 430,352 431,344 431,320 432,322 432,323 433,335 433,323 434,327 434,297 434,303 435,324 435,316 436,324 436,323 437,301 437,312 438,315 438,325 438,333 439,319 439,334 440,350 440,353 441,341 441,333 442,293 442,288 443,290 443,276 443,275 444,310 444,332 445,306 445,298 446,269 446,249 447,242 447,237 447,238 448,232 448,208 449,222 449,223 450,227 450,230 451,213 451,192 451,195 452,191 452,217 453,189 453,189 454,196 454,206 455,239 455,227 455,235 456,199 456,194 457,206 457,199 458,204 458,192 459,194 459,217 460,220 460,229 460,227 461,223 461,232 462,203 462,199 463,194 463,188 464,183 464,169 464,174 465,180 465,183 466,175 466,171 467,182 467,184 468,209 468,199 468,205 469,206 469,207 470,232 470,217 471,228 471,220 472,224 472,212 473,220 473,225 473,230 474,228 474,237 475,233 475,260 476,267 476,274 477,246 477,230 477,220 478,233 478,256 479,249 479,213 480,191 480,177 481,201 481,184 481,178 482,179 482,179 483,186 483,178 484,189 484,187 485,190 485,168 485,162 486,154 486,148 487,158 487,149 488,164 488,172 489,143 489,142 490,154 490,155 490,162 491,161 491,162 492,164 492,175 493,201 493,206 494,187 494,181 494,167 495,145 495,156 496,161 496,150 497,125 497,123 498,138 498,160 498,157 499,145 499,136 500,143 500,156 501,154 501,158 502,146 502,114 503,114 503,129 503,134 504,119 504,122 505,138 505,136 506,150 506,166 507,171 507,183 507,175 508,173 508,159 509,152 509,141 510,125 510,126 511,138 511,134 511,135 512,127 512,144 513,137 513,124 514,137 514,151 515,172 515,176 515,197 516,185 516,182 517,184 517,188 518,196 518,200 519,190 519,199 520,207 520,215 520,229 521,206 521,203 522,216 522,221 523,225 523,228 524,221 524,233 524,224 525,229 525,234 526,226 526,208 527,218 527,236 528,249 528,246 528,231 529,234 529,245 530,252 530,243 531,242 531,226 532,197 532,195 533,229 533,237 533,239 534,240 534,235 535,236 535,256 536,263 536,243 537,239 537,240 537,228 538,226 538,226 539,233 539,231 540,240 540,239 541,257 541,247 541,241 542,228 542,220 543,217 543,204 544,207 544,227 545,237 545,268 545,258 546,247 546,228 547,219 547,234 548,218 548,220 549,232 549,242 550,249 550,223 550,211 551,196 551,193 552,205 552,227 553,241 553,247 554,239 554,218 554,227 555,219 555,215 556,211 556,203 557,203 557,213 558,216 558,199 558,166 559,169 559,196 560,194 560,219 561,246 561,231 562,232 562,233 563,226 563,226 563,218 564,209 564,226 565,219 565,232 566,240 566,247 567,237 567,220 567,221 568,205 568,214 569,227 569,210 570,212 570,229 571,236 571,242 571,246 572,226 572,211 573,214 573,218 574,222 574,225 575,217 575,213 575,220 576,217 576,246 577,247 577,250 578,242 578,250 579,251 579,258 580,262 580,245 580,265 581,268 581,258 582,262 582,281 583,285 583,327 584,331 584,332 584,318 585,313 585,310 586,307 586,309 587,286 587,281 588,312 588,334 588,329 589,295 589,295 590,298 590,317 591,307 591,316 592,301 592,298 593,302 593,313 593,320 594,350 594,348 595,341 595,332 596,340 596,338 597,342 597,343 597,352 598,348 598,348 599,325 599,324 600,325 600,313 601,308 601,321 601,320 602,296 602,316 603,319 603,332 604,338 604,317 605,318 605,323 606,324 606,314 606,318 607,333 607,327 608,347 608,365 609,356 609,336 610,339 610,333 610,335 611,342 611,355 612,363 612,358 613,368 613,385 614,386 614,402 614,413 615,418 615,428 616,425 616,420 617,423 617,448 618,446 618,446 618,446 619,423 619,412 620,386 620,394 621,398 621,396 622,396 622,391 623,389 623,396 623,387 624,392 624,416 625,400 625,396 626,396 626,398 627,418 627,399 627,389 628,384 628,386 629,389 629,387 630,411 630,431 631,418 631,405 631,409 632,387 632,389 633,407 633,410 634,396 634,407 635,407 635,407 636,398 636,397 636,390 637,383 637,378 638,382 638,398 639,390 639,380 640,350 640,348 640,341 641,320 641,309 642,328 642,321 643,321 643,324 644,324 644,324 644,323 645,294 645,278 646,273 646,273 647,270 647,253 648,254 648,273 648,271 649,276 649,279 650,266 650,268 651,272 651,278 652,295 652,282 653,273 653,279 653,273 654,273 654,285 655,288 655,297 656,299 656,277 657,262 657,262 657,258 658,260 658,264 659,275 659,295 660,300 660,306 661,305 661,311 661,299 662,291 662,286 663,300 663,313 664,320 664,325 665,306 665,285 666,277 666,264 666,290 667,287 667,296 668,295 668,299 669,331 669,335 670,348 670,339 670,335 671,343 671,326 672,317 672,337 673,339 673,324 674,317 674,310 674,310 675,292 675,285 676,267 676,255 677,265 677,289 678,273 678,263 678,248 679,256 679,253 680,244 680,229 681,261 681,273 682,266 682,257 683,257 683,236 683,226 684,242 684,243 685,232 685,233 686,233 686,225 687,215 687,202 687,222 688,267 688,252 689,264 689,255 690,246 690,265 691,269 691,273 691,275 692,260 692,260 693,296 693,297 694,300 694,262 695,251 695,248 696,247 696,247 696,245 697,227 697,240 698,253 698,260 699,284 699,300 700,287 700,281 700,274 701,282 701,295 702,294 702,302 703,267 703,239 704,236 704,255 704,241 705,231 705,243 706,257 706,286 707,279 707,281 708,292 708,278 708,258 709,263 709,253 710,250 710,277 711,275 711,281 712,293 712,291 713,289 713,298 713,281 714,269 714,280 715,294 715,282 716,272 716,283 717,272 717,277 717,275 718,273 718,277 719,287 719,311 720,316 720,287 721,239 721,241 721,238 722,233 722,234 723,239 723,252 724,244 724,226 725,201 725,201 726,193 726,203 726,224 727,218 727,208 728,209 728,200 729,203 729,185 730,191 730,215 730,221 731,232 731,230 732,215 732,216 733,222 733,234 734,242 734,232 734,233 735,251 735,261 736,255 736,242 737,248 737,231 738,236 738,207 739,209 739,209 739,210 740,221 740,225 741,214 741,246 742,245 742,261 743,248 743,258 743,245 744,237 744,251 745,266 745,273 746,272 746,279 747,295 747,334 747,376 748,421 748,488 749,560 749,654 749,699 974,699 "/>
<line opacity="0.1" stroke="#000000" stroke-width="1" x1="85" y1="699" x2="85" y2="67"/>
<line opacity="0.1" stroke="#000000" stroke-width="1" x1="103" y1="699" x2="103" y2="67"/>
<line opacity="0.1" stroke="#000000" stroke-width="1" x1="121" y1="699" x2="121" y2="67"/>
<line opacity="0.1" stroke="#000000" stroke-width="1" x1="139" y1="699" x2="139" y2="67"/>
<line opacity="0.1" stroke="#000000" stroke-width="1" x1="157" y1="699" x2="157" y2="67"/>
<line opacity="0.1" stroke="#000000" stroke-width="1" x1="174" y1="699" x2="174" y2="67"/>
<line opacity="0.1" stroke="#000000" stroke-width="1" x1="192" y1="699" x2="192" y2="67"/>
<line opacity="0.1" stroke="#000000" stroke-width="1" x1="210" y1="699" x2="210" y2="67"/>
<line opacity="0.1" stroke="#000000" stroke-width="1" x1="228" y1="699" x2="228" y2="67"/>
<line opacity="0.1" stroke="#000000" stroke-width="1" x1="246" y1="699" x2="246" y2="67"/>
<line opacity="0.1" stroke="#000000" stroke-width="1" x1="264" y1="699" x2="264" y2="67"/>
<line opacity="0.1" stroke="#000000" stroke-width="1" x1="282" y1="699" x2="282" y2="67"/>
<line opacity="0.1" stroke="#000000" stroke-width="1" x1="300" y1="699" x2="300" y2="67"/>
<line opacity="0.1" stroke="#000000" stroke-width="1" x1="318" y1="699" x2="318" y2="67"/>
<line opacity="0.1" stroke="#000000" stroke-width="1" x1="336" y1="699" x2="336" y2="67"/>
<line opacity="0.1" stroke="#000000" stroke-width="1" x1="354" y1="699" x2="354" y2="67"/>
<line opacity="0.1" stroke="#000000" stroke-width="1" x1="372" y1="699" x2="372" y2="67"/>
<line opacity="0.1" stroke="#000000" stroke-width="1" x1="389" y1="699" x2="389" y2="67"/>
<line opacity="0.1" stroke="#000000" stroke-width="1" x1="407" y1="699" x2="407" y2="67"/>
<line opacity="0.1" stroke="#000000" stroke-width="1" x1="425" y1="699" x2="425" y2="67"/>
<line opacity="0.1" stroke="#000000" stroke-width="1" x1="443" y1="699" x2="443" y2="67"/>
<line opacity="0.1" stroke="#000000" stroke-width="1" x1="461" y1="699" x2="461" y2="67"/>
<line opacity="0.1" stroke="#000000" stroke-width="1" x1="479" y1="699" x2="479" y2="67"/>
<line opacity="0.1" stroke="#000000" stroke-width="1" x1="497" y1="699" x2="497" y2="67"/>
<line opacity="0.1" stroke="#000000" stroke-width="1" x1="515" y1="699" x2="515" y2="67"/>
<line opacity="0.1" stroke="#000000" stroke-width="1" x1="533" y1="699" x2="533" y2="67"/>
<line opacity="0.1" stroke="#000000" stroke-width="1" x1="551" y1="699" x2="551" y2="67"/>
<line opacity="0.1" stroke="#000000" stroke-width="1" x1="569" y1="699" x2="569" y2="67"/>
<line opacity="0.1" stroke="#000000" stroke-width="1" x1="587" y1="699" x2="587" y2="67"/>
<line opacity="0.1" stroke="#000000" stroke-width="1" x1="604" y1="699" x2="604" y2="67"/>
<line opacity="0.1" stroke="#000000" stroke-width="1" x1="622" y1="699" x2="622" y2="67"/>
<line opacity="0.1" stroke="#000000" stroke-width="1" x1="640" y1="699" x2="640" y2="67"/>
<line opacity="0.1" stroke="#000000" stroke-width="1" x1="658" y1="699" x2="658" y2="67"/>
<line opacity="0.1" stroke="#000000" stroke-width="1" x1="676" y1="699" x2="676" y2="67"/>
<line opacity="0.1" stroke="#000000" stroke-width="1" x1="694" y1="699" x2="694" y2="67"/>
<line opacity="0.1" stroke="#000000" stroke-width="1" x1="712" y1="699" x2="712" y2="67"/>
<line opacity="0.1" stroke="#000000" stroke-width="1" x1="730" y1="699" x2="730" y2="67"/>
<line opacity="0.1" stroke="#000000" stroke-width="1" x1="748" y1="699" x2="748" y2="67"/>
<line opacity="0.1" stroke="#000000" stroke-width="1" x1="766" y1="699" x2="766" y2="67"/>
<line opacity="0.1" stroke="#000000" stroke-width="1" x1="784" y1="699" x2="784" y2="67"/>
<line opacity="0.1" stroke="#000000" stroke-width="1" x1="802" y1="699" x2="802" y2="67"/>
<line opacity="0.1" stroke="#000000" stroke-width="1" x1="819" y1="699" x2="819" y2="67"/>
<line opacity="0.1" stroke="#000000" stroke-width="1" x1="837" y1="699" x2="837" y2="67"/>
<line opacity="0.1" stroke="#000000" stroke-width="1" x1="855" y1="699" x2="855" y2="67"/>
<line opacity="0.1" stroke="#000000" stroke-width="1" x1="873" y1="699" x2="873" y2="67"/>
<line opacity="0.1" stroke="#000000" stroke-width="1" x1="891" y1="699" x2="891" y2="67"/>
<line opacity="0.1" stroke="#000000" stroke-width="1" x1="909" y1="699" x2="909" y2="67"/>
<line opacity="0.1" stroke="#000000" stroke-width="1" x1="927" y1="699" x2="927" y2="67"/>
<line opacity="0.1" stroke="#000000" stroke-width="1" x1="945" y1="699" x2="945" y2="67"/>
<line opacity="0.1" stroke="#000000" stroke-width="1" x1="963" y1="699" x2="963" y2="67"/>
<line opacity="0.1" stroke="#000000" stroke-width="1" x1="78" y1="699" x2="974" y2="699"/>
<line opacity="0.1" stroke="#000000" stroke-width="1" x1="78" y1="689" x2="974" y2="689"/>
<line opacity="0.1" stroke="#000000" stroke-width="1" x1="78" y1="679" x2="974" y2="679"/>
<line opacity="0.1" stroke="#000000" stroke-width="1" x1="78" y1="669" x2="974" y2="669"/>
<line opacity="0.1" stroke="#000000" stroke-width="1" x1="78" y1="659" x2="974" y2="659"/>
<line opacity="0.1" stroke="#000000" stroke-width="1" x1="78" y1="649" x2="974" y2="649"/>
<line opacity="0.1" stroke="#000000" stroke-width="1" x1="78" y1="639" x2="974" y2="639"/>
<line opacity="0.1" stroke="#000000" stroke-width="1" x1="78" y1="629" x2="974" y2="629"/>
<line opacity="0.1" stroke="#000000" stroke-width="1" x1="78" y1="619" x2="974" y2="619"/>
<line opacity="0.1" stroke="#000000" stroke-width="1" x1="78" y1="609" x2="974" y2="609"/>
<line opacity="0.1" stroke="#000000" stroke-width="1" x1="78" y1="599" x2="974" y2="599"/>
<line opacity="0.1" stroke="#000000" stroke-width="1" x1="78" y1="589" x2="974" y2="589"/>
<line opacity="0.1" stroke="#000000" stroke-width="1" x1="78" y1="579" x2="974" y2="579"/>
<line opacity="0.1" stroke="#000000" stroke-width="1" x1="78" y1="569" x2="974" y2="569"/>
<line opacity="0.1" stroke="#000000" stroke-width="1" x1="78" y1="559" x2="974" y2="559"/>
<line opacity="0.1" stroke="#000000" stroke-width="1" x1="78" y1="549" x2="974" y2="549"/>
<line opacity="0.1" stroke="#000000" stroke-width="1" x1="78" y1="539" x2="974" y2="539"/>
<line opacity="0.1" stroke="#000000" stroke-width="1" x1="78" y1="529" x2="974" y2="529"/>
<line opacity="0.1" stroke="#000000" stroke-width="1" x1="78" y1="519" x2="974" y2="519"/>
<line opacity="0.1" stroke="#000000" stroke-width="1" x1="78" y1="509" x2="974" y2="509"/>
<line opacity="0.1" stroke="#000000" stroke-width="1" x1="78" y1="499" x2="974" y2="499"/>
<line opacity="0.1" stroke="#000000" stroke-width="1" x1="78" y1="489" x2="974" y2="489"/>
<line opacity="0.1" stroke="#000000" stroke-width="1" x1="78" y1="479" x2="974" y2="479"/>
<line opacity="0.1" stroke="#000000" stroke-width="1" x1="78" y1="469" x2="974" y2="469"/>
<line opacity="0.1" stroke="#000000" stroke-width="1" x1="78" y1="459" x2="974" y2="459"/>
<line opacity="0.1" stroke="#000000" stroke-width="1" x1="78" y1="449" x2="974" y2="449"/>
<line opacity="0.1" stroke="#000000" stroke-width="1" x1="78" y1="439" x2="974" y2="439"/>
<line opacity="0.1" stroke="#000000" stroke-width="1" x1="78" y1="429" x2="974" y2="429"/>
<line opacity="0.1" stroke="#000000" stroke-width="1" x1="78" y1="419" x2="974" y2="419"/>
<line opacity="0.1" stroke="#000000" stroke-width="1" x1="78" y1="409" x2="974" y2="409"/>
<line opacity="0.1" stroke="#000000" stroke-width="1" x1="78" y1="399" x2="974" y2="399"/>
<line opacity="0.1" stroke="#000000" stroke-width="1" x1="78" y1="389" x2="974" y2="389"/>
<line opacity="0.1" stroke="#000000" stroke-width="1" x1="78" y1="379" x2="974" y2="379"/>
<line opacity="0.1" stroke="#000000" stroke-width="1" x1="78" y1="369" x2="974" y2="369"/>
<line opacity="0.1" stroke="#000000" stroke-width="1" x1="78" y1="359" x2="974" y2="359"/>
<line opacity="0.1" stroke="#000000" stroke-width="1" x1="78" y1="349" x2="974" y2="349"/>
<line opacity="0.1" stroke="#000000" stroke-width="1" x1="78" y1="339" x2="974" y2="339"/>
<line opacity="0.1" stroke="#000000" stroke-width="1" x1="78" y1="329" x2="974" y2="329"/>
<line opacity="0.1" stroke="#000000" stroke-width="1" x1="78" y1="319" x2="974" y2="319"/>
<line opacity="0.1" stroke="#000000" stroke-width="1" x1="78" y1="309" x2="974" y2="309"/>
<line opacity="0.1" stroke="#000000" stroke-width="1" x1="78" y1="299" x2="974" y2="299"/>
<line opacity="0.1" stroke="#000000" stroke-width="1" x1="78" y1="289" x2="974" y2="289"/>
<line opacity="0.1" stroke="#000000" stroke-width="1" x1="78" y1="279" x2="974" y2="279"/>
<line opacity="0.1" stroke="#000000" stroke-width="1" x1="78" y1="269" x2="974" y2="269"/>
<line opacity="0.1" stroke="#000000" stroke-width="1" x1="78" y1="259" x2="974" y2="259"/>
<line opacity="0.1" stroke="#000000" stroke-width="1" x1="78" y1="249" x2="974" y2="249"/>
<line opacity="0.1" stroke="#000000" stroke-width="1" x1="78" y1="239" x2="974" y2="239"/>
<line opacity="0.1" stroke="#000000" stroke-width="1" x1="78" y1="229" x2="974" y2="229"/>
<line opacity="0.1" stroke="#000000" stroke-width="1" x1="78" y1="219" x2="974" y2="219"/>
<line opacity="0.1" stroke="#000000" stroke-width="1" x1="78" y1="209" x2="974" y2="209"/>
<line opacity="0.1" stroke="#000000" stroke-width="1" x1="78" y1="199" x2="974" y2="199"/>
<line opacity="0.1" stroke="#000000" stroke-width="1" x1="78" y1="189" x2="974" y2="189"/>
<line opacity="0.1" stroke="#000000" stroke-width="1" x1="78" y1="179" x2="974" y2="179"/>
<line opacity="0.1" stroke="#000000" stroke-width="1" x1="78" y1="169" x2="974" y2="169"/>
<line opacity="0.1" stroke="#000000" stroke-width="1" x1="78" y1="159" x2="974" y2="159"/>
<line opacity="0.1" stroke="#000000" stroke-width="1" x1="78" y1="149" x2="974" y2="149"/>
<line opacity="0.1" stroke="#000000" stroke-width="1" x1="78" y1="139" x2="974" y2="139"/>
<line opacity="0.1" stroke="#000000" stroke-width="1" x1="78" y1="129" x2="974" y2="129"/>
<line opacity="0.1" stroke="#000000" stroke-width="1" x1="78" y1="119" x2="974" y2="119"/>
<line opacity="0.1" stroke="#000000" stroke-width="1" x1="78" y1="109" x2="974" y2="109"/>
<line opacity="0.1" stroke="#000000" stroke-width="1" x1="78" y1="99" x2="974" y2="99"/>
<line opacity="0.1" stroke="#000000" stroke-width="1" x1="78" y1="89" x2="974" y2="89"/>
<line opacity="0.1" stroke="#000000" stroke-width="1" x1="78" y1="79" x2="974" y2="79"/>
<line opacity="0.1" stroke="#000000" stroke-width="1" x1="78" y1="69" x2="974" y2="69"/>
<text x="8" y="384" dy="0.76em" text-anchor="middle" font-family="sans-serif" font-size="9.67741935483871" opacity="1" fill="#000000" transform="rotate(270, 8, 384)">
Memory usage
</text>
<text x="526" y="760" dy="-0.5ex" text-anchor="middle" font-family="sans-serif" font-size="9.67741935483871" opacity="1" fill="#000000">
Time
</text>
<line opacity="0.2" stroke="#000000" stroke-width="1" x1="192" y1="699" x2="192" y2="67"/>
<line opacity="0.2" stroke="#000000" stroke-width="1" x1="372" y1="699" x2="372" y2="67"/>
<line opacity="0.2" stroke="#000000" stroke-width="1" x1="551" y1="699" x2="551" y2="67"/>
<line opacity="0.2" stroke="#000000" stroke-width="1" x1="730" y1="699" x2="730" y2="67"/>
<line opacity="0.2" stroke="#000000" stroke-width="1" x1="909" y1="699" x2="909" y2="67"/>
<line opacity="0.2" stroke="#000000" stroke-width="1" x1="78" y1="699" x2="974" y2="699"/>
<line opacity="0.2" stroke="#000000" stroke-width="1" x1="78" y1="599" x2="974" y2="599"/>
<line opacity="0.2" stroke="#000000" stroke-width="1" x1="78" y1="499" x2="974" y2="499"/>
<line opacity="0.2" stroke="#000000" stroke-width="1" x1="78" y1="399" x2="974" y2="399"/>
<line opacity="0.2" stroke="#000000" stroke-width="1" x1="78" y1="299" x2="974" y2="299"/>
<line opacity="0.2" stroke="#000000" stroke-width="1" x1="78" y1="199" x2="974" y2="199"/>
<line opacity="0.2" stroke="#000000" stroke-width="1" x1="78" y1="99" x2="974" y2="99"/>
<polyline fill="none" opacity="1" stroke="#000000" stroke-width="1" points="77,68 77,700 "/>
<text x="68" y="699" dy="0.5ex" text-anchor="end" font-family="sans-serif" font-size="9.67741935483871" opacity="1" fill="#000000">
0 KB
</text>
<polyline fill="none" opacity="1" stroke="#000000" stroke-width="1" points="72,699 77,699 "/>
<text x="68" y="599" dy="0.5ex" text-anchor="end" font-family="sans-serif" font-size="9.67741935483871" opacity="1" fill="#000000">
48 KB
</text>
<polyline fill="none" opacity="1" stroke="#000000" stroke-width="1" points="72,599 77,599 "/>
<text x="68" y="499" dy="0.5ex" text-anchor="end" font-family="sans-serif" font-size="9.67741935483871" opacity="1" fill="#000000">
97 KB
</text>
<polyline fill="none" opacity="1" stroke="#000000" stroke-width="1" points="72,499 77,499 "/>
<text x="68" y="399" dy="0.5ex" text-anchor="end" font-family="sans-serif" font-size="9.67741935483871" opacity="1" fill="#000000">
146 KB
</text>
<polyline fill="none" opacity="1" stroke="#000000" stroke-width="1" points="72,399 77,399 "/>
<text x="68" y="299" dy="0.5ex" text-anchor="end" font-family="sans-serif" font-size="9.67741935483871" opacity="1" fill="#000000">
195 KB
</text>
<polyline fill="none" opacity="1" stroke="#000000" stroke-width="1" points="72,299 77,299 "/>
<text x="68" y="199" dy="0.5ex" text-anchor="end" font-family="sans-serif" font-size="9.67741935483871" opacity="1" fill="#000000">
244 KB
</text>
<polyline fill="none" opacity="1" stroke="#000000" stroke-width="1" points="72,199 77,199 "/>
<text x="68" y="99" dy="0.5ex" text-anchor="end" font-family="sans-serif" font-size="9.67741935483871" opacity="1" fill="#000000">
292 KB
</text>
<polyline fill="none" opacity="1" stroke="#000000" stroke-width="1" points="72,99 77,99 "/>
<polyline fill="none" opacity="1" stroke="#000000" stroke-width="1" points="78,700 974,700 "/>
<text x="192" y="710" dy="0.76em" text-anchor="middle" font-family="sans-serif" font-size="9.67741935483871" opacity="1" fill="#000000">
06:26:08
</text>
<polyline fill="none" opacity="1" stroke="#000000" stroke-width="1" points="192,700 192,705 "/>
<text x="372" y="710" dy="0.76em" text-anchor="middle" font-family="sans-serif" font-size="9.67741935483871" opacity="1" fill="#000000">
06:26:10
</text>
<polyline fill="none" opacity="1" stroke="#000000" stroke-width="1" points="372,700 372,705 "/>
<text x="551" y="710" dy="0.76em" text-anchor="middle" font-family="sans-serif" font-size="9.67741935483871" opacity="1" fill="#000000">
06:26:12
</text>
<polyline fill="none" opacity="1" stroke="#000000" stroke-width="1" points="551,700 551,705 "/>
<text x="730" y="710" dy="0.76em" text-anchor="middle" font-family="sans-serif" font-size="9.67741935483871" opacity="1" fill="#000000">
06:26:14
</text>
<polyline fill="none" opacity="1" stroke="#000000" stroke-width="1" points="730,700 730,705 "/>
<text x="909" y="710" dy="0.76em" text-anchor="middle" font-family="sans-serif" font-size="9.67741935483871" opacity="1" fill="#000000">
06:26:16
</text>
<polyline fill="none" opacity="1" stroke="#000000" stroke-width="1" points="909,700 909,705 "/>
<polyline fill="none" opacity="1" stroke="#000000" stroke-width="1" points="78,67 974,67 "/>
<text x="192" y="58" dy="-0.5ex" text-anchor="middle" font-family="sans-serif" font-size="9.67741935483871" opacity="1" fill="#000000">
+1s
</text>
<polyline fill="none" opacity="1" stroke="#000000" stroke-width="1" points="192,62 192,67 "/>
<text x="372" y="58" dy="-0.5ex" text-anchor="middle" font-family="sans-serif" font-size="9.67741935483871" opacity="1" fill="#000000">
+3s
</text>
<polyline fill="none" opacity="1" stroke="#000000" stroke-width="1" points="372,62 372,67 "/>
<text x="551" y="58" dy="-0.5ex" text-anchor="middle" font-family="sans-serif" font-size="9.67741935483871" opacity="1" fill="#000000">
+5s
</text>
<polyline fill="none" opacity="1" stroke="#000000" stroke-width="1" points="551,62 551,67 "/>
<text x="730" y="58" dy="-0.5ex" text-anchor="middle" font-family="sans-serif" font-size="9.67741935483871" opacity="1" fill="#000000">
+7s
</text>
<polyline fill="none" opacity="1" stroke="#000000" stroke-width="1" points="730,62 730,67 "/>
<text x="909" y="58" dy="-0.5ex" text-anchor="middle" font-family="sans-serif" font-size="9.67741935483871" opacity="1" fill="#000000">
+9s
</text>
<polyline fill="none" opacity="1" stroke="#000000" stroke-width="1" points="909,62 909,67 "/>
</svg>
