<svg width="1024" height="768" viewBox="0 0 1024 768" xmlns="http://www.w3.org/2000/svg">
<rect x="0" y="0" width="1024" height="768" opacity="1" fill="#FFFFFF" stroke="none"/>
<polygon opacity="1" fill="#E6194B" points="78,675 78,675 79,675 80,675 81,675 82,675 83,675 84,675 85,675 86,675 86,675 87,675 88,675 89,675 90,675 91,675 92,675 93,675 94,675 95,675 95,675 96,675 97,675 98,675 99,675 100,675 101,675 102,675 103,675 103,675 104,675 105,675 106,675 107,675 108,675 109,675 110,675 111,675 112,675 112,675 113,675 114,675 115,675 116,675 117,675 118,68 119,68 120,68 120,68 121,68 122,68 123,68 124,68 125,68 126,68 127,68 128,68 129,68 129,68 130,68 131,68 132,68 133,68 134,68 135,68 136,68 137,68 137,68 138,68 139,68 140,68 141,68 142,68 143,68 144,68 145,68 146,68 146,68 147,68 148,68 149,68 150,68 151,68 152,68 153,68 154,68 154,68 155,68 156,68 157,68 158,68 159,68 160,68 161,68 162,68 163,68 163,68 164,68 165,68 166,68 167,68 168,68 169,68 170,68 171,68 171,68 172,68 173,68 174,68 175,68 176,68 177,68 178,68 179,68 180,68 180,68 181,68 182,68 183,68 184,68 185,68 186,68 187,68 188,68 188,68 189,68 190,68 191,68 192,68 193,68 194,68 195,68 196,68 197,68 197,68 198,68 199,68 200,68 201,68 202,68 203,68 204,68 205,68 205,68 206,68 207,68 208,68 209,68 210,68 211,68 212,68 213,68 214,68 214,68 215,68 216,68 217,68 218,68 219,68 220,68 221,68 222,68 222,68 223,68 224,68 225,68 226,68 227,68 228,68 229,68 230,68 231,68 231,68 232,68 233,68 234,68 235,68 236,68 237,68 238,68 239,68 239,68 240,68 241,68 242,68 243,68 244,68 245,68 246,68 247,68 248,68 248,68 249,68 250,68 251,68 252,68 253,68 254,68 255,68 256,68 257,68 257,68 258,68 259,68 260,68 261,68 262,68 263,68 264,68 265,68 265,68 266,68 267,68 268,68 269,68 270,68 271,68 272,68 273,68 274,68 274,68 275,68 276,68 277,68 278,68 279,68 280,68 281,68 282,68 282,68 283,68 284,68 285,68 286,68 287,68 288,68 289,68 290,68 291,68 291,68 292,68 293,68 294,68 295,68 296,68 297,68 298,68 299,68 299,68 300,68 301,68 302,68 303,68 304,68 305,68 306,68 307,68 308,68 308,68 309,68 310,68 311,68 312,68 313,68 314,68 315,68 316,68 316,68 317,68 318,68 319,68 320,68 321,68 322,68 323,68 324,68 325,68 325,68 326,68 327,68 328,68 329,68 330,68 331,68 332,68 333,68 333,68 334,68 335,68 336,68 337,68 338,68 339,68 340,68 341,68 342,68 342,68 343,68 344,68 345,68 346,68 347,68 348,68 349,68 350,68 350,68 351,68 352,68 353,68 354,68 355,68 356,68 357,68 358,68 359,68 359,68 360,68 361,68 362,68 363,68 364,68 365,68 366,68 367,68 367,68 368,68 369,68 370,68 371,68 372,68 373,68 374,68 375,68 376,68 376,68 377,68 378,68 379,68 380,68 381,68 382,68 383,68 384,68 384,68 385,68 386,68 387,68 388,68 389,68 390,68 391,68 392,68 393,68 393,68 394,68 395,68 396,68 397,68 398,68 399,68 400,68 401,68 401,68 402,68 403,68 404,68 405,68 406,68 407,68 408,68 409,68 410,68 410,68 411,68 412,68 413,68 414,68 415,68 416,68 417,68 418,68 418,68 419,68 420,68 421,68 422,68 423,68 424,68 425,68 426,68 427,68 427,68 428,68 429,68 430,68 431,68 432,68 433,68 434,68 435,68 436,68 436,68 437,68 438,68 439,68 440,68 441,68 442,68 443,68 444,68 444,68 445,68 446,68 447,68 448,68 449,68 450,68 451,68 452,68 453,68 453,68 454,68 455,68 456,68 457,68 458,68 459,68 460,68 461,68 461,68 462,68 463,68 464,68 465,68 466,68 467,68 468,68 469,68 470,68 470,68 471,68 472,68 473,68 474,68 475,68 476,68 477,68 478,68 478,68 479,68 480,68 481,68 482,68 483,68 484,68 485,68 486,68 487,68 487,68 488,68 489,68 490,68 491,68 492,68 493,68 494,68 495,68 495,68 496,68 497,68 498,68 499,68 500,68 501,68 502,68 503,68 504,68 504,68 505,68 506,68 507,68 508,68 509,68 510,68 511,68 512,68 512,68 513,68 514,68 515,68 516,68 517,68 518,68 519,68 520,68 521,68 521,68 522,68 523,68 524,68 525,68 526,68 527,68 528,68 529,68 529,68 530,68 531,68 532,68 533,68 534,68 535,68 536,68 537,68 538,68 538,68 539,68 540,68 541,68 542,68 543,68 544,68 545,68 546,68 546,68 547,68 548,68 549,68 550,68 551,68 552,68 553,68 554,68 555,68 555,68 556,68 557,68 558,68 559,68 560,68 561,68 562,68 563,68 563,68 564,68 565,68 566,68 567,68 568,68 569,68 570,68 571,68 572,68 572,68 573,68 574,68 575,68 576,68 577,68 578,68 579,68 580,68 580,68 581,68 582,68 583,68 584,68 585,68 586,68 587,68 588,68 589,68 589,68 590,68 591,68 592,68 593,68 594,68 595,68 596,68 597,68 597,68 598,68 599,68 600,68 601,68 602,68 603,68 604,68 605,68 606,68 606,68 607,68 608,68 609,68 610,68 611,68 612,68 613,68 614,68 615,68 615,68 616,68 617,68 618,68 619,68 620,68 621,68 622,68 623,68 623,68 624,68 625,68 626,68 627,68 628,68 629,68 630,68 631,68 632,68 632,68 633,68 634,68 635,68 636,68 637,68 638,68 639,68 640,68 640,68 641,68 642,68 643,68 644,68 645,68 646,68 647,68 648,68 649,68 649,68 650,68 651,68 652,68 653,68 654,68 655,68 656,68 657,68 657,68 658,68 659,68 660,68 661,68 662,68 663,68 664,68 665,68 666,68 666,68 667,68 668,68 669,68 670,68 671,68 672,68 673,68 674,68 674,68 675,68 676,68 677,68 678,68 679,68 680,68 681,68 682,68 683,68 683,68 684,68 685,68 686,68 687,68 688,68 689,68 690,68 691,68 691,68 692,68 693,68 694,68 695,68 696,68 697,68 698,68 699,68 700,68 700,68 701,68 702,68 703,68 704,68 705,68 706,68 707,68 708,68 708,68 709,68 710,68 711,68 712,68 713,68 714,68 715,68 716,68 717,68 717,68 718,68 719,68 720,68 721,68 722,68 723,68 724,68 725,68 725,68 726,68 727,68 728,68 729,68 730,68 731,68 732,68 733,68 734,68 734,68 735,68 736,68 737,68 738,68 739,68 740,68 741,68 742,68 742,68 743,68 744,68 745,68 746,68 747,68 748,68 749,68 750,68 751,68 751,68 752,68 753,68 754,68 755,68 756,68 757,68 758,68 759,68 759,68 760,68 761,68 762,68 763,68 764,68 765,68 766,68 767,68 768,68 768,68 769,68 770,68 771,68 772,68 773,68 774,68 775,68 776,68 776,68 777,68 778,68 779,68 780,68 781,68 782,68 783,68 784,68 785,68 785,68 786,68 787,68 788,68 789,68 790,68 791,68 792,68 793,68 794,68 794,68 795,68 796,68 797,68 798,68 799,68 800,68 801,68 802,68 802,68 803,68 804,68 805,68 806,68 807,68 808,68 809,68 810,68 811,68 811,68 812,68 813,68 814,68 815,68 816,68 817,68 818,68 819,68 819,68 820,68 821,68 822,68 823,68 824,68 825,68 826,68 827,68 828,68 828,68 829,68 830,68 831,68 832,68 833,68 834,68 835,68 836,68 836,68 837,68 838,68 839,68 840,68 841,68 842,68 843,68 844,68 845,68 845,68 846,68 847,68 848,68 849,68 850,68 851,68 852,68 853,68 853,68 854,68 855,68 856,68 857,68 858,68 859,68 860,68 861,68 862,68 862,68 863,68 864,68 865,68 866,68 867,68 868,68 869,68 870,68 870,68 871,68 872,68 873,68 874,68 875,68 876,68 877,68 878,68 879,68 879,68 880,68 881,68 882,68 883,68 884,68 885,68 886,68 887,68 887,68 888,68 889,68 890,68 891,68 892,68 893,68 894,68 895,68 896,68 896,68 897,68 898,68 899,68 900,68 901,68 902,68 903,68 904,68 904,68 905,68 906,68 907,68 908,68 909,68 910,68 911,68 912,68 913,68 913,68 914,68 915,68 916,68 917,68 918,68 919,68 920,68 921,68 921,68 922,68 923,68 924,68 925,68 926,68 927,68 928,68 929,68 930,68 930,68 931,68 932,68 933,68 934,68 935,68 936,68 937,68 938,68 938,68 939,68 940,68 941,68 942,68 943,68 944,68 945,68 946,68 947,68 947,68 948,68 949,68 950,68 951,68 952,68 953,68 954,68 955,68 955,68 956,68 957,68 958,68 959,68 960,68 961,68 962,68 963,68 964,68 964,68 965,68 966,68 967,68 968,68 969,68 970,68 971,68 972,68 973,68 973,68 973,68 973,699 78,699 "/>
<polyline fill="none" opacity="1" stroke="#E6194B" stroke-width="1" points="78,675 78,675 79,675 80,675 81,675 82,675 83,675 84,675 85,675 86,675 86,675 87,675 88,675 89,675 90,675 91,675 92,675 93,675 94,675 95,675 95,675 96,675 97,675 98,675 99,675 100,675 101,675 102,675 103,675 103,675 104,675 105,675 106,675 107,675 108,675 109,675 110,675 111,675 112,675 112,675 113,675 114,675 115,675 116,675 117,675 118,68 119,68 120,68 120,68 121,68 122,68 123,68 124,68 125,68 126,68 127,68 128,68 129,68 129,68 130,68 131,68 132,68 133,68 134,68 135,68 136,68 137,68 137,68 138,68 139,68 140,68 141,68 142,68 143,68 144,68 145,68 146,68 146,68 147,68 148,68 149,68 150,68 151,68 152,68 153,68 154,68 154,68 155,68 156,68 157,68 158,68 159,68 160,68 161,68 162,68 163,68 163,68 164,68 165,68 166,68 167,68 168,68 169,68 170,68 171,68 171,68 172,68 173,68 174,68 175,68 176,68 177,68 178,68 179,68 180,68 180,68 181,68 182,68 183,68 184,68 185,68 186,68 187,68 188,68 188,68 189,68 190,68 191,68 192,68 193,68 194,68 195,68 196,68 197,68 197,68 198,68 199,68 200,68 201,68 202,68 203,68 204,68 205,68 205,68 206,68 207,68 208,68 209,68 210,68 211,68 212,68 213,68 214,68 214,68 215,68 216,68 217,68 218,68 219,68 220,68 221,68 222,68 222,68 223,68 224,68 225,68 226,68 227,68 228,68 229,68 230,68 231,68 231,68 232,68 233,68 234,68 235,68 236,68 237,68 238,68 239,68 239,68 240,68 241,68 242,68 243,68 244,68 245,68 246,68 247,68 248,68 248,68 249,68 250,68 251,68 252,68 253,68 254,68 255,68 256,68 257,68 257,68 258,68 259,68 260,68 261,68 262,68 263,68 264,68 265,68 265,68 266,68 267,68 268,68 269,68 270,68 271,68 272,68 273,68 274,68 274,68 275,68 276,68 277,68 278,68 279,68 280,68 281,68 282,68 282,68 283,68 284,68 285,68 286,68 287,68 288,68 289,68 290,68 291,68 291,68 292,68 293,68 294,68 295,68 296,68 297,68 298,68 299,68 299,68 300,68 301,68 302,68 303,68 304,68 305,68 306,68 307,68 308,68 308,68 309,68 310,68 311,68 312,68 313,68 314,68 315,68 316,68 316,68 317,68 318,68 319,68 320,68 321,68 322,68 323,68 324,68 325,68 325,68 326,68 327,68 328,68 329,68 330,68 331,68 332,68 333,68 333,68 334,68 335,68 336,68 337,68 338,68 339,68 340,68 341,68 342,68 342,68 343,68 344,68 345,68 346,68 347,68 348,68 349,68 350,68 350,68 351,68 352,68 353,68 354,68 355,68 356,68 357,68 358,68 359,68 359,68 360,68 361,68 362,68 363,68 364,68 365,68 366,68 367,68 367,68 368,68 369,68 370,68 371,68 372,68 373,68 374,68 375,68 376,68 376,68 377,68 378,68 379,68 380,68 381,68 382,68 383,68 384,68 384,68 385,68 386,68 387,68 388,68 389,68 390,68 391,68 392,68 393,68 393,68 394,68 395,68 396,68 397,68 398,68 399,68 400,68 401,68 401,68 402,68 403,68 404,68 405,68 406,68 407,68 408,68 409,68 410,68 410,68 411,68 412,68 413,68 414,68 415,68 416,68 417,68 418,68 418,68 419,68 420,68 421,68 422,68 423,68 424,68 425,68 426,68 427,68 427,68 428,68 429,68 430,68 431,68 432,68 433,68 434,68 435,68 436,68 436,68 437,68 438,68 439,68 440,68 441,68 442,68 443,68 444,68 444,68 445,68 446,68 447,68 448,68 449,68 450,68 451,68 452,68 453,68 453,68 454,68 455,68 456,68 457,68 458,68 459,68 460,68 461,68 461,68 462,68 463,68 464,68 465,68 466,68 467,68 468,68 469,68 470,68 470,68 471,68 472,68 473,68 474,68 475,68 476,68 477,68 478,68 478,68 479,68 480,68 481,68 482,68 483,68 484,68 485,68 486,68 487,68 487,68 488,68 489,68 490,68 491,68 492,68 493,68 494,68 495,68 495,68 496,68 497,68 498,68 499,68 500,68 501,68 502,68 503,68 504,68 504,68 505,68 506,68 507,68 508,68 509,68 510,68 511,68 512,68 512,68 513,68 514,68 515,68 516,68 517,68 518,68 519,68 520,68 521,68 521,68 522,68 523,68 524,68 525,68 526,68 527,68 528,68 529,68 529,68 530,68 531,68 532,68 533,68 534,68 535,68 536,68 537,68 538,68 538,68 539,68 540,68 541,68 542,68 543,68 544,68 545,68 546,68 546,68 547,68 548,68 549,68 550,68 551,68 552,68 553,68 554,68 555,68 555,68 556,68 557,68 558,68 559,68 560,68 561,68 562,68 563,68 563,68 564,68 565,68 566,68 567,68 568,68 569,68 570,68 571,68 572,68 572,68 573,68 574,68 575,68 576,68 577,68 578,68 579,68 580,68 580,68 581,68 582,68 583,68 584,68 585,68 586,68 587,68 588,68 589,68 589,68 590,68 591,68 592,68 593,68 594,68 595,68 596,68 597,68 597,68 598,68 599,68 600,68 601,68 602,68 603,68 604,68 605,68 606,68 606,68 607,68 608,68 609,68 610,68 611,68 612,68 613,68 614,68 615,68 615,68 616,68 617,68 618,68 619,68 620,68 621,68 622,68 623,68 623,68 624,68 625,68 626,68 627,68 628,68 629,68 630,68 631,68 632,68 632,68 633,68 634,68 635,68 636,68 637,68 638,68 639,68 640,68 640,68 641,68 642,68 643,68 644,68 645,68 646,68 647,68 648,68 649,68 649,68 650,68 651,68 652,68 653,68 654,68 655,68 656,68 657,68 657,68 658,68 659,68 660,68 661,68 662,68 663,68 664,68 665,68 666,68 666,68 667,68 668,68 669,68 670,68 671,68 672,68 673,68 674,68 674,68 675,68 676,68 677,68 678,68 679,68 680,68 681,68 682,68 683,68 683,68 684,68 685,68 686,68 687,68 688,68 689,68 690,68 691,68 691,68 692,68 693,68 694,68 695,68 696,68 697,68 698,68 699,68 700,68 700,68 701,68 702,68 703,68 704,68 705,68 706,68 707,68 708,68 708,68 709,68 710,68 711,68 712,68 713,68 714,68 715,68 716,68 717,68 717,68 718,68 719,68 720,68 721,68 722,68 723,68 724,68 725,68 725,68 726,68 727,68 728,68 729,68 730,68 731,68 732,68 733,68 734,68 734,68 735,68 736,68 737,68 738,68 739,68 740,68 741,68 742,68 742,68 743,68 744,68 745,68 746,68 747,68 748,68 749,68 750,68 751,68 751,68 752,68 753,68 754,68 755,68 756,68 757,68 758,68 759,68 759,68 760,68 761,68 762,68 763,68 764,68 765,68 766,68 767,68 768,68 768,68 769,68 770,68 771,68 772,68 773,68 774,68 775,68 776,68 776,68 777,68 778,68 779,68 780,68 781,68 782,68 783,68 784,68 785,68 785,68 786,68 787,68 788,68 789,68 790,68 791,68 792,68 793,68 794,68 794,68 795,68 796,68 797,68 798,68 799,68 800,68 801,68 802,68 802,68 803,68 804,68 805,68 806,68 807,68 808,68 809,68 810,68 811,68 811,68 812,68 813,68 814,68 815,68 816,68 817,68 818,68 819,68 819,68 820,68 821,68 822,68 823,68 824,68 825,68 826,68 827,68 828,68 828,68 829,68 830,68 831,68 832,68 833,68 834,68 835,68 836,68 836,68 837,68 838,68 839,68 840,68 841,68 842,68 843,68 844,68 845,68 845,68 846,68 847,68 848,68 849,68 850,68 851,68 852,68 853,68 853,68 854,68 855,68 856,68 857,68 858,68 859,68 860,68 861,68 862,68 862,68 863,68 864,68 865,68 866,68 867,68 868,68 869,68 870,68 870,68 871,68 872,68 873,68 874,68 875,68 876,68 877,68 878,68 879,68 879,68 880,68 881,68 882,68 883,68 884,68 885,68 886,68 887,68 887,68 888,68 889,68 890,68 891,68 892,68 893,68 894,68 895,68 896,68 896,68 897,68 898,68 899,68 900,68 901,68 902,68 903,68 904,68 904,68 905,68 906,68 907,68 908,68 909,68 910,68 911,68 912,68 913,68 913,68 914,68 915,68 916,68 917,68 918,68 919,68 920,68 921,68 921,68 922,68 923,68 924,68 925,68 926,68 927,68 928,68 929,68 930,68 930,68 931,68 932,68 933,68 934,68 935,68 936,68 937,68 938,68 938,68 939,68 940,68 941,68 942,68 943,68 944,68 945,68 946,68 947,68 947,68 948,68 949,68 950,68 951,68 952,68 953,68 954,68 955,68 955,68 956,68 957,68 958,68 959,68 960,68 961,68 962,68 963,68 964,68 964,68 965,68 966,68 967,68 968,68 969,68 970,68 971,68 972,68 973,68 973,68 973,68 "/>
<line opacity="0.1" stroke="#000000" stroke-width="1" x1="79" y1="699" x2="79" y2="68"/>
<line opacity="0.1" stroke="#000000" stroke-width="1" x1="87" y1="699" x2="87" y2="68"/>
<line opacity="0.1" stroke="#000000" stroke-width="1" x1="96" y1="699" x2="96" y2="68"/>
<line opacity="0.1" stroke="#000000" stroke-width="1" x1="105" y1="699" x2="105" y2="68"/>
<line opacity="0.1" stroke="#000000" stroke-width="1" x1="114" y1="699" x2="114" y2="68"/>
<line opacity="0.1" stroke="#000000" stroke-width="1" x1="123" y1="699" x2="123" y2="68"/>
<line opacity="0.1" stroke="#000000" stroke-width="1" x1="132" y1="699" x2="132" y2="68"/>
<line opacity="0.1" stroke="#000000" stroke-width="1" x1="141" y1="699" x2="141" y2="68"/>
<line opacity="0.1" stroke="#000000" stroke-width="1" x1="150" y1="699" x2="150" y2="68"/>
<line opacity="0.1" stroke="#000000" stroke-width="1" x1="159" y1="699" x2="159" y2="68"/>
<line opacity="0.1" stroke="#000000" stroke-width="1" x1="168" y1="699" x2="168" y2="68"/>
<line opacity="0.1" stroke="#000000" stroke-width="1" x1="177" y1="699" x2="177" y2="68"/>
<line opacity="0.1" stroke="#000000" stroke-width="1" x1="186" y1="699" x2="186" y2="68"/>
<line opacity="0.1" stroke="#000000" stroke-width="1" x1="195" y1="699" x2="195" y2="68"/>
<line opacity="0.1" stroke="#000000" stroke-width="1" x1="204" y1="699" x2="204" y2="68"/>
<line opacity="0.1" stroke="#000000" stroke-width="1" x1="213" y1="699" x2="213" y2="68"/>
<line opacity="0.1" stroke="#000000" stroke-width="1" x1="222" y1="699" x2="222" y2="68"/>
<line opacity="0.1" stroke="#000000" stroke-width="1" x1="231" y1="699" x2="231" y2="68"/>
<line opacity="0.1" stroke="#000000" stroke-width="1" x1="240" y1="699" x2="240" y2="68"/>
<line opacity="0.1" stroke="#000000" stroke-width="1" x1="249" y1="699" x2="249" y2="68"/>
<line opacity="0.1" stroke="#000000" stroke-width="1" x1="257" y1="699" x2="257" y2="68"/>
<line opacity="0.1" stroke="#000000" stroke-width="1" x1="266" y1="699" x2="266" y2="68"/>
<line opacity="0.1" stroke="#000000" stroke-width="1" x1="275" y1="699" x2="275" y2="68"/>
<line opacity="0.1" stroke="#000000" stroke-width="1" x1="284" y1="699" x2="284" y2="68"/>
<line opacity="0.1" stroke="#000000" stroke-width="1" x1="293" y1="699" x2="293" y2="68"/>
<line opacity="0.1" stroke="#000000" stroke-width="1" x1="302" y1="699" x2="302" y2="68"/>
<line opacity="0.1" stroke="#000000" stroke-width="1" x1="311" y1="699" x2="311" y2="68"/>
<line opacity="0.1" stroke="#000000" stroke-width="1" x1="320" y1="699" x2="320" y2="68"/>
<line opacity="0.1" stroke="#000000" stroke-width="1" x1="329" y1="699" x2="329" y2="68"/>
<line opacity="0.1" stroke="#000000" stroke-width="1" x1="338" y1="699" x2="338" y2="68"/>
<line opacity="0.1" stroke="#000000" stroke-width="1" x1="347" y1="699" x2="347" y2="68"/>
<line opacity="0.1" stroke="#000000" stroke-width="1" x1="356" y1="699" x2="356" y2="68"/>
<line opacity="0.1" stroke="#000000" stroke-width="1" x1="365" y1="699" x2="365" y2="68"/>
<line opacity="0.1" stroke="#000000" stroke-width="1" x1="374" y1="699" x2="374" y2="68"/>
<line opacity="0.1" stroke="#000000" stroke-width="1" x1="383" y1="699" x2="383" y2="68"/>
<line opacity="0.1" stroke="#000000" stroke-width="1" x1="392" y1="699" x2="392" y2="68"/>
<line opacity="0.1" stroke="#000000" stroke-width="1" x1="401" y1="699" x2="401" y2="68"/>
<line opacity="0.1" stroke="#000000" stroke-width="1" x1="410" y1="699" x2="410" y2="68"/>
<line opacity="0.1" stroke="#000000" stroke-width="1" x1="419" y1="699" x2="419" y2="68"/>
<line opacity="0.1" stroke="#000000" stroke-width="1" x1="427" y1="699" x2="427" y2="68"/>
<line opacity="0.1" stroke="#000000" stroke-width="1" x1="436" y1="699" x2="436" y2="68"/>
<line opacity="0.1" stroke="#000000" stroke-width="1" x1="445" y1="699" x2="445" y2="68"/>
<line opacity="0.1" stroke="#000000" stroke-width="1" x1="454" y1="699" x2="454" y2="68"/>
<line opacity="0.1" stroke="#000000" stroke-width="1" x1="463" y1="699" x2="463" y2="68"/>
<line opacity="0.1" stroke="#000000" stroke-width="1" x1="472" y1="699" x2="472" y2="68"/>
<line opacity="0.1" stroke="#000000" stroke-width="1" x1="481" y1="699" x2="481" y2="68"/>
<line opacity="0.1" stroke="#000000" stroke-width="1" x1="490" y1="699" x2="490" y2="68"/>
<line opacity="0.1" stroke="#000000" stroke-width="1" x1="499" y1="699" x2="499" y2="68"/>
<line opacity="0.1" stroke="#000000" stroke-width="1" x1="508" y1="699" x2="508" y2="68"/>
<line opacity="0.1" stroke="#000000" stroke-width="1" x1="517" y1="699" x2="517" y2="68"/>
<line opacity="0.1" stroke="#000000" stroke-width="1" x1="526" y1="699" x2="526" y2="68"/>
<line opacity="0.1" stroke="#000000" stroke-width="1" x1="535" y1="699" x2="535" y2="68"/>
<line opacity="0.1" stroke="#000000" stroke-width="1" x1="544" y1="699" x2="544" y2="68"/>
<line opacity="0.1" stroke="#000000" stroke-width="1" x1="553" y1="699" x2="553" y2="68"/>
<line opacity="0.1" stroke="#000000" stroke-width="1" x1="562" y1="699" x2="562" y2="68"/>
<line opacity="0.1" stroke="#000000" stroke-width="1" x1="571" y1="699" x2="571" y2="68"/>
<line opacity="0.1" stroke="#000000" stroke-width="1" x1="580" y1="699" x2="580" y2="68"/>
<line opacity="0.1" stroke="#000000" stroke-width="1" x1="589" y1="699" x2="589" y2="68"/>
<line opacity="0.1" stroke="#000000" stroke-width="1" x1="598" y1="699" x2="598" y2="68"/>
<line opacity="0.1" stroke="#000000" stroke-width="1" x1="606" y1="699" x2="606" y2="68"/>
<line opacity="0.1" stroke="#000000" stroke-width="1" x1="615" y1="699" x2="615" y2="68"/>
<line opacity="0.1" stroke="#000000" stroke-width="1" x1="624" y1="699" x2="624" y2="68"/>
<line opacity="0.1" stroke="#000000" stroke-width="1" x1="633" y1="699" x2="633" y2="68"/>
<line opacity="0.1" stroke="#000000" stroke-width="1" x1="642" y1="699" x2="642" y2="68"/>
<line opacity="0.1" stroke="#000000" stroke-width="1" x1="651" y1="699" x2="651" y2="68"/>
<line opacity="0.1" stroke="#000000" stroke-width="1" x1="660" y1="699" x2="660" y2="68"/>
<line opacity="0.1" stroke="#000000" stroke-width="1" x1="669" y1="699" x2="669" y2="68"/>
<line opacity="0.1" stroke="#000000" stroke-width="1" x1="678" y1="699" x2="678" y2="68"/>
<line opacity="0.1" stroke="#000000" stroke-width="1" x1="687" y1="699" x2="687" y2="68"/>
<line opacity="0.1" stroke="#000000" stroke-width="1" x1="696" y1="699" x2="696" y2="68"/>
<line opacity="0.1" stroke="#000000" stroke-width="1" x1="705" y1="699" x2="705" y2="68"/>
<line opacity="0.1" stroke="#000000" stroke-width="1" x1="714" y1="699" x2="714" y2="68"/>
<line opacity="0.1" stroke="#000000" stroke-width="1" x1="723" y1="699" x2="723" y2="68"/>
<line opacity="0.1" stroke="#000000" stroke-width="1" x1="732" y1="699" x2="732" y2="68"/>
<line opacity="0.1" stroke="#000000" stroke-width="1" x1="741" y1="699" x2="741" y2="68"/>
<line opacity="0.1" stroke="#000000" stroke-width="1" x1="750" y1="699" x2="750" y2="68"/>
<line opacity="0.1" stroke="#000000" stroke-width="1" x1="759" y1="699" x2="759" y2="68"/>
<line opacity="0.1" stroke="#000000" stroke-width="1" x1="768" y1="699" x2="768" y2="68"/>
<line opacity="0.1" stroke="#000000" stroke-width="1" x1="776" y1="699" x2="776" y2="68"/>
<line opacity="0.1" stroke="#000000" stroke-width="1" x1="785" y1="699" x2="785" y2="68"/>
<line opacity="0.1" stroke="#000000" stroke-width="1" x1="794" y1="699" x2="794" y2="68"/>
<line opacity="0.1" stroke="#000000" stroke-width="1" x1="803" y1="699" x2="803" y2="68"/>
<line opacity="0.1" stroke="#000000" stroke-width="1" x1="812" y1="699" x2="812" y2="68"/>
<line opacity="0.1" stroke="#000000" stroke-width="1" x1="821" y1="699" x2="821" y2="68"/>
<line opacity="0.1" stroke="#000000" stroke-width="1" x1="830" y1="699" x2="830" y2="68"/>
<line opacity="0.1" stroke="#000000" stroke-width="1" x1="839" y1="699" x2="839" y2="68"/>
<line opacity="0.1" stroke="#000000" stroke-width="1" x1="848" y1="699" x2="848" y2="68"/>
<line opacity="0.1" stroke="#000000" stroke-width="1" x1="857" y1="699" x2="857" y2="68"/>
<line opacity="0.1" stroke="#000000" stroke-width="1" x1="866" y1="699" x2="866" y2="68"/>
<line opacity="0.1" stroke="#000000" stroke-width="1" x1="875" y1="699" x2="875" y2="68"/>
<line opacity="0.1" stroke="#000000" stroke-width="1" x1="884" y1="699" x2="884" y2="68"/>
<line opacity="0.1" stroke="#000000" stroke-width="1" x1="893" y1="699" x2="893" y2="68"/>
<line opacity="0.1" stroke="#000000" stroke-width="1" x1="902" y1="699" x2="902" y2="68"/>
<line opacity="0.1" stroke="#000000" stroke-width="1" x1="911" y1="699" x2="911" y2="68"/>
<line opacity="0.1" stroke="#000000" stroke-width="1" x1="920" y1="699" x2="920" y2="68"/>
<line opacity="0.1" stroke="#000000" stroke-width="1" x1="929" y1="699" x2="929" y2="68"/>
<line opacity="0.1" stroke="#000000" stroke-width="1" x1="938" y1="699" x2="938" y2="68"/>
<line opacity="0.1" stroke="#000000" stroke-width="1" x1="946" y1="699" x2="946" y2="68"/>
<line opacity="0.1" stroke="#000000" stroke-width="1" x1="955" y1="699" x2="955" y2="68"/>
<line opacity="0.1" stroke="#000000" stroke-width="1" x1="964" y1="699" x2="964" y2="68"/>
<line opacity="0.1" stroke="#000000" stroke-width="1" x1="78" y1="699" x2="973" y2="699"/>
<line opacity="0.1" stroke="#000000" stroke-width="1" x1="78" y1="684" x2="973" y2="684"/>
<line opacity="0.1" stroke="#000000" stroke-width="1" x1="78" y1="670" x2="973" y2="670"/>
<line opacity="0.1" stroke="#000000" stroke-width="1" x1="78" y1="656" x2="973" y2="656"/>
<line opacity="0.1" stroke="#000000" stroke-width="1" x1="78" y1="642" x2="973" y2="642"/>
<line opacity="0.1" stroke="#000000" stroke-width="1" x1="78" y1="628" x2="973" y2="628"/>
<line opacity="0.1" stroke="#000000" stroke-width="1" x1="78" y1="614" x2="973" y2="614"/>
<line opacity="0.1" stroke="#000000" stroke-width="1" x1="78" y1="600" x2="973" y2="600"/>
<line opacity="0.1" stroke="#000000" stroke-width="1" x1="78" y1="586" x2="973" y2="586"/>
<line opacity="0.1" stroke="#000000" stroke-width="1" x1="78" y1="572" x2="973" y2="572"/>
<line opacity="0.1" stroke="#000000" stroke-width="1" x1="78" y1="558" x2="973" y2="558"/>
<line opacity="0.1" stroke="#000000" stroke-width="1" x1="78" y1="544" x2="973" y2="544"/>
<line opacity="0.1" stroke="#000000" stroke-width="1" x1="78" y1="530" x2="973" y2="530"/>
<line opacity="0.1" stroke="#000000" stroke-width="1" x1="78" y1="516" x2="973" y2="516"/>
<line opacity="0.1" stroke="#000000" stroke-width="1" x1="78" y1="502" x2="973" y2="502"/>
<line opacity="0.1" stroke="#000000" stroke-width="1" x1="78" y1="488" x2="973" y2="488"/>
<line opacity="0.1" stroke="#000000" stroke-width="1" x1="78" y1="474" x2="973" y2="474"/>
<line opacity="0.1" stroke="#000000" stroke-width="1" x1="78" y1="459" x2="973" y2="459"/>
<line opacity="0.1" stroke="#000000" stroke-width="1" x1="78" y1="445" x2="973" y2="445"/>
<line opacity="0.1" stroke="#000000" stroke-width="1" x1="78" y1="431" x2="973" y2="431"/>
<line opacity="0.1" stroke="#000000" stroke-width="1" x1="78" y1="417" x2="973" y2="417"/>
<line opacity="0.1" stroke="#000000" stroke-width="1" x1="78" y1="403" x2="973" y2="403"/>
<line opacity="0.1" stroke="#000000" stroke-width="1" x1="78" y1="389" x2="973" y2="389"/>
<line opacity="0.1" stroke="#000000" stroke-width="1" x1="78" y1="375" x2="973" y2="375"/>
<line opacity="0.1" stroke="#000000" stroke-width="1" x1="78" y1="361" x2="973" y2="361"/>
<line opacity="0.1" stroke="#000000" stroke-width="1" x1="78" y1="347" x2="973" y2="347"/>
<line opacity="0.1" stroke="#000000" stroke-width="1" x1="78" y1="333" x2="973" y2="333"/>
<line opacity="0.1" stroke="#000000" stroke-width="1" x1="78" y1="319" x2="973" y2="319"/>
<line opacity="0.1" stroke="#000000" stroke-width="1" x1="78" y1="305" x2="973" y2="305"/>
<line opacity="0.1" stroke="#000000" stroke-width="1" x1="78" y1="291" x2="973" y2="291"/>
<line opacity="0.1" stroke="#000000" stroke-width="1" x1="78" y1="277" x2="973" y2="277"/>
<line opacity="0.1" stroke="#000000" stroke-width="1" x1="78" y1="263" x2="973" y2="263"/>
<line opacity="0.1" stroke="#000000" stroke-width="1" x1="78" y1="249" x2="973" y2="249"/>
<line opacity="0.1" stroke="#000000" stroke-width="1" x1="78" y1="234" x2="973" y2="234"/>
<line opacity="0.1" stroke="#000000" stroke-width="1" x1="78" y1="220" x2="973" y2="220"/>
<line opacity="0.1" stroke="#000000" stroke-width="1" x1="78" y1="206" x2="973" y2="206"/>
<line opacity="0.1" stroke="#000000" stroke-width="1" x1="78" y1="192" x2="973" y2="192"/>
<line opacity="0.1" stroke="#000000" stroke-width="1" x1="78" y1="178" x2="973" y2="178"/>
<line opacity="0.1" stroke="#000000" stroke-width="1" x1="78" y1="164" x2="973" y2="164"/>
<line opacity="0.1" stroke="#000000" stroke-width="1" x1="78" y1="150" x2="973" y2="150"/>
<line opacity="0.1" stroke="#000000" stroke-width="1" x1="78" y1="136" x2="973" y2="136"/>
<line opacity="0.1" stroke="#000000" stroke-width="1" x1="78" y1="122" x2="973" y2="122"/>
<line opacity="0.1" stroke="#000000" stroke-width="1" x1="78" y1="108" x2="973" y2="108"/>
<line opacity="0.1" stroke="#000000" stroke-width="1" x1="78" y1="94" x2="973" y2="94"/>
<line opacity="0.1" stroke="#000000" stroke-width="1" x1="78" y1="80" x2="973" y2="80"/>
<text x="8" y="384" dy="0.76em" text-anchor="middle" font-family="sans-serif" font-size="9.67741935483871" opacity="1" fill="#000000" transform="rotate(270, 8, 384)">
Address space
</text>
<text x="526" y="760" dy="-0.5ex" text-anchor="middle" font-family="sans-serif" font-size="9.67741935483871" opacity="1" fill="#000000">
Time
</text>
<line opacity="0.2" stroke="#000000" stroke-width="1" x1="96" y1="699" x2="96" y2="68"/>
<line opacity="0.2" stroke="#000000" stroke-width="1" x1="186" y1="699" x2="186" y2="68"/>
<line opacity="0.2" stroke="#000000" stroke-width="1" x1="275" y1="699" x2="275" y2="68"/>
<line opacity="0.2" stroke="#000000" stroke-width="1" x1="365" y1="699" x2="365" y2="68"/>
<line opacity="0.2" stroke="#000000" stroke-width="1" x1="454" y1="699" x2="454" y2="68"/>
<line opacity="0.2" stroke="#000000" stroke-width="1" x1="544" y1="699" x2="544" y2="68"/>
<line opacity="0.2" stroke="#000000" stroke-width="1" x1="633" y1="699" x2="633" y2="68"/>
<line opacity="0.2" stroke="#000000" stroke-width="1" x1="723" y1="699" x2="723" y2="68"/>
<line opacity="0.2" stroke="#000000" stroke-width="1" x1="812" y1="699" x2="812" y2="68"/>
<line opacity="0.2" stroke="#000000" stroke-width="1" x1="902" y1="699" x2="902" y2="68"/>
<line opacity="0.2" stroke="#000000" stroke-width="1" x1="78" y1="699" x2="973" y2="699"/>
<line opacity="0.2" stroke="#000000" stroke-width="1" x1="78" y1="558" x2="973" y2="558"/>
<line opacity="0.2" stroke="#000000" stroke-width="1" x1="78" y1="417" x2="973" y2="417"/>
<line opacity="0.2" stroke="#000000" stroke-width="1" x1="78" y1="277" x2="973" y2="277"/>
<line opacity="0.2" stroke="#000000" stroke-width="1" x1="78" y1="136" x2="973" y2="136"/>
<polyline fill="none" opacity="1" stroke="#000000" stroke-width="1" points="77,68 77,699 "/>
<text x="68" y="699" dy="0.5ex" text-anchor="end" font-family="sans-serif" font-size="9.67741935483871" opacity="1" fill="#000000">
0 MB
</text>
<polyline fill="none" opacity="1" stroke="#000000" stroke-width="1" points="72,699 77,699 "/>
<text x="68" y="558" dy="0.5ex" text-anchor="end" font-family="sans-serif" font-size="9.67741935483871" opacity="1" fill="#000000">
47 MB
</text>
<polyline fill="none" opacity="1" stroke="#000000" stroke-width="1" points="72,558 77,558 "/>
<text x="68" y="417" dy="0.5ex" text-anchor="end" font-family="sans-serif" font-size="9.67741935483871" opacity="1" fill="#000000">
95 MB
</text>
<polyline fill="none" opacity="1" stroke="#000000" stroke-width="1" points="72,417 77,417 "/>
<text x="68" y="277" dy="0.5ex" text-anchor="end" font-family="sans-serif" font-size="9.67741935483871" opacity="1" fill="#000000">
143 MB
</text>
<polyline fill="none" opacity="1" stroke="#000000" stroke-width="1" points="72,277 77,277 "/>
<text x="68" y="136" dy="0.5ex" text-anchor="end" font-family="sans-serif" font-size="9.67741935483871" opacity="1" fill="#000000">
190 MB
</text>
<polyline fill="none" opacity="1" stroke="#000000" stroke-width="1" points="72,136 77,136 "/>
<polyline fill="none" opacity="1" stroke="#000000" stroke-width="1" points="78,700 973,700 "/>
<text x="96" y="710" dy="0.76em" text-anchor="middle" font-family="sans-serif" font-size="9.67741935483871" opacity="1" fill="#000000">
02:04:17
</text>
<polyline fill="none" opacity="1" stroke="#000000" stroke-width="1" points="96,700 96,705 "/>
<text x="186" y="710" dy="0.76em" text-anchor="middle" font-family="sans-serif" font-size="9.67741935483871" opacity="1" fill="#000000">
02:04:18
</text>
<polyline fill="none" opacity="1" stroke="#000000" stroke-width="1" points="186,700 186,705 "/>
<text x="275" y="710" dy="0.76em" text-anchor="middle" font-family="sans-serif" font-size="9.67741935483871" opacity="1" fill="#000000">
02:04:19
</text>
<polyline fill="none" opacity="1" stroke="#000000" stroke-width="1" points="275,700 275,705 "/>
<text x="365" y="710" dy="0.76em" text-anchor="middle" font-family="sans-serif" font-size="9.67741935483871" opacity="1" fill="#000000">
02:04:20
</text>
<polyline fill="none" opacity="1" stroke="#000000" stroke-width="1" points="365,700 365,705 "/>
<text x="454" y="710" dy="0.76em" text-anchor="middle" font-family="sans-serif" font-size="9.67741935483871" opacity="1" fill="#000000">
02:04:21
</text>
<polyline fill="none" opacity="1" stroke="#000000" stroke-width="1" points="454,700 454,705 "/>
<text x="544" y="710" dy="0.76em" text-anchor="middle" font-family="sans-serif" font-size="9.67741935483871" opacity="1" fill="#000000">
02:04:22
</text>
<polyline fill="none" opacity="1" stroke="#000000" stroke-width="1" points="544,700 544,705 "/>
<text x="633" y="710" dy="0.76em" text-anchor="middle" font-family="sans-serif" font-size="9.67741935483871" opacity="1" fill="#000000">
02:04:23
</text>
<polyline fill="none" opacity="1" stroke="#000000" stroke-width="1" points="633,700 633,705 "/>
<text x="723" y="710" dy="0.76em" text-anchor="middle" font-family="sans-serif" font-size="9.67741935483871" opacity="1" fill="#000000">
02:04:24
</text>
<polyline fill="none" opacity="1" stroke="#000000" stroke-width="1" points="723,700 723,705 "/>
<text x="812" y="710" dy="0.76em" text-anchor="middle" font-family="sans-serif" font-size="9.67741935483871" opacity="1" fill="#000000">
02:04:25
</text>
<polyline fill="none" opacity="1" stroke="#000000" stroke-width="1" points="812,700 812,705 "/>
<text x="902" y="710" dy="0.76em" text-anchor="middle" font-family="sans-serif" font-size="9.67741935483871" opacity="1" fill="#000000">
02:04:26
</text>
<polyline fill="none" opacity="1" stroke="#000000" stroke-width="1" points="902,700 902,705 "/>
<polyline fill="none" opacity="1" stroke="#000000" stroke-width="1" points="78,67 974,67 "/>
<text x="96" y="58" dy="-0.5ex" text-anchor="middle" font-family="sans-serif" font-size="9.67741935483871" opacity="1" fill="#000000">
+265ms
</text>
<polyline fill="none" opacity="1" stroke="#000000" stroke-width="1" points="96,62 96,67 "/>
<text x="186" y="58" dy="-0.5ex" text-anchor="middle" font-family="sans-serif" font-size="9.67741935483871" opacity="1" fill="#000000">
+1s
</text>
<polyline fill="none" opacity="1" stroke="#000000" stroke-width="1" points="186,62 186,67 "/>
<text x="276" y="58" dy="-0.5ex" text-anchor="middle" font-family="sans-serif" font-size="9.67741935483871" opacity="1" fill="#000000">
+2s
</text>
<polyline fill="none" opacity="1" stroke="#000000" stroke-width="1" points="276,62 276,67 "/>
<text x="365" y="58" dy="-0.5ex" text-anchor="middle" font-family="sans-serif" font-size="9.67741935483871" opacity="1" fill="#000000">
+3s
</text>
<polyline fill="none" opacity="1" stroke="#000000" stroke-width="1" points="365,62 365,67 "/>
<text x="455" y="58" dy="-0.5ex" text-anchor="middle" font-family="sans-serif" font-size="9.67741935483871" opacity="1" fill="#000000">
+4s
</text>
<polyline fill="none" opacity="1" stroke="#000000" stroke-width="1" points="455,62 455,67 "/>
<text x="544" y="58" dy="-0.5ex" text-anchor="middle" font-family="sans-serif" font-size="9.67741935483871" opacity="1" fill="#000000">
+5s
</text>
<polyline fill="none" opacity="1" stroke="#000000" stroke-width="1" points="544,62 544,67 "/>
<text x="634" y="58" dy="-0.5ex" text-anchor="middle" font-family="sans-serif" font-size="9.67741935483871" opacity="1" fill="#000000">
+6s
</text>
<polyline fill="none" opacity="1" stroke="#000000" stroke-width="1" points="634,62 634,67 "/>
<text x="724" y="58" dy="-0.5ex" text-anchor="middle" font-family="sans-serif" font-size="9.67741935483871" opacity="1" fill="#000000">
+7s
</text>
<polyline fill="none" opacity="1" stroke="#000000" stroke-width="1" points="724,62 724,67 "/>
<text x="813" y="58" dy="-0.5ex" text-anchor="middle" font-family="sans-serif" font-size="9.67741935483871" opacity="1" fill="#000000">
+8s
</text>
<polyline fill="none" opacity="1" stroke="#000000" stroke-width="1" points="813,62 813,67 "/>
<text x="903" y="58" dy="-0.5ex" text-anchor="middle" font-family="sans-serif" font-size="9.67741935483871" opacity="1" fill="#000000">
+9s
</text>
<polyline fill="none" opacity="1" stroke="#000000" stroke-width="1" points="903,62 903,67 "/>
</svg>
