<svg width="1024" height="768" viewBox="0 0 1024 768" xmlns="http://www.w3.org/2000/svg">
<rect x="0" y="0" width="1024" height="768" opacity="1" fill="#FFFFFF" stroke="none"/>
<polygon opacity="1" fill="#E6194B" points="78,697 78,689 79,676 80,676 81,671 82,675 83,678 84,682 85,680 86,683 86,686 87,681 88,682 89,653 90,661 91,651 92,641 93,650 94,649 94,650 95,654 96,666 97,667 98,669 99,672 100,672 101,676 102,672 103,679 103,677 104,674 105,675 106,672 107,672 108,673 109,663 110,660 111,650 111,642 112,647 113,653 114,663 115,663 116,658 117,645 118,638 119,621 120,616 120,631 121,647 122,651 123,654 124,652 125,639 126,629 127,623 128,617 128,618 129,616 130,618 131,631 132,630 133,625 134,618 135,615 136,615 137,622 137,612 138,598 139,592 140,591 141,592 142,581 143,576 144,567 145,562 145,564 146,556 147,541 148,538 149,535 150,521 151,515 152,514 153,527 154,519 154,514 155,511 156,515 157,516 158,506 159,504 160,495 161,495 162,505 162,509 163,505 164,497 165,490 166,490 167,487 168,476 169,465 170,476 170,471 171,475 172,484 173,484 174,492 175,482 176,466 177,462 178,462 179,465 179,466 180,464 181,465 182,460 183,448 184,451 185,458 186,470 187,471 187,472 188,455 189,450 190,445 191,444 192,449 193,453 194,443 195,446 196,452 196,450 197,438 198,436 199,435 200,428 201,432 202,442 203,439 204,429 204,427 205,426 206,429 207,432 208,429 209,437 210,445 211,452 212,462 213,464 213,449 214,444 215,429 216,431 217,463 218,470 219,466 220,457 221,473 221,471 222,467 223,469 224,464 225,443 226,439 227,447 228,444 229,445 230,456 230,464 231,471 232,459 233,462 234,457 235,458 236,469 237,468 238,462 238,469 239,468 240,471 241,473 242,464 243,462 244,458 245,448 246,450 247,460 247,458 248,470 249,465 250,475 251,473 252,478 253,472 254,475 255,476 255,473 256,460 257,455 258,466 259,465 260,471 261,458 262,450 263,450 263,457 264,456 265,464 266,455 267,444 268,444 269,450 270,446 271,453 272,452 272,442 273,438 274,434 275,438 276,441 277,434 278,431 279,434 280,436 280,443 281,441 282,443 283,441 284,426 285,427 286,428 287,435 288,439 289,431 289,435 290,441 291,445 292,443 293,458 294,463 295,452 296,450 297,447 297,435 298,433 299,438 300,441 301,439 302,425 303,431 304,437 305,436 306,450 306,448 307,451 308,459 309,459 310,467 311,463 312,458 313,455 314,449 314,455 315,449 316,452 317,453 318,454 319,438 320,431 321,423 322,422 323,416 323,412 324,419 325,418 326,405 327,398 328,384 329,384 330,401 331,408 331,408 332,411 333,411 334,404 335,405 336,392 337,398 338,406 339,407 339,414 340,404 341,401 342,411 343,414 344,417 345,421 346,423 347,433 348,434 348,442 349,439 350,437 351,431 352,430 353,435 354,438 355,443 356,444 356,445 357,456 358,474 359,461 360,470 361,475 362,466 363,468 364,478 365,472 365,471 366,463 367,455 368,457 369,454 370,464 371,469 372,462 373,461 373,450 374,449 375,452 376,456 377,462 378,468 379,464 380,460 381,455 382,446 382,439 383,437 384,442 385,449 386,441 387,448 388,447 389,448 390,440 390,429 391,422 392,420 393,406 394,409 395,421 396,431 397,447 398,448 399,467 399,460 400,463 401,444 402,446 403,474 404,471 405,463 406,463 407,445 407,439 408,440 409,444 410,455 411,451 412,450 413,454 414,469 415,465 416,459 416,458 417,460 418,462 419,462 420,475 421,470 422,464 423,471 424,480 424,475 425,466 426,469 427,458 428,466 429,461 430,465 431,468 432,472 432,455 433,450 434,456 435,435 436,430 437,424 438,426 439,414 440,414 441,419 441,419 442,418 443,417 444,426 445,425 446,415 447,406 448,410 449,405 449,416 450,420 451,424 452,421 453,425 454,427 455,440 456,424 457,430 458,407 458,407 459,406 460,409 461,401 462,395 463,394 464,392 465,397 466,400 466,406 467,394 468,386 469,385 470,390 471,392 472,380 473,378 474,381 475,387 475,400 476,392 477,383 478,383 479,383 480,384 481,402 482,404 483,407 483,407 484,413 485,415 486,419 487,421 488,412 489,417 490,420 491,423 492,425 492,412 493,410 494,417 495,415 496,419 497,413 498,410 499,423 500,417 500,413 501,415 502,429 503,425 504,422 505,423 506,412 507,417 508,421 508,409 509,410 510,409 511,402 512,403 513,406 514,404 515,404 516,414 517,411 517,406 518,404 519,420 520,401 521,407 522,405 523,412 524,417 525,409 525,407 526,416 527,428 528,441 529,441 530,432 531,434 532,435 533,438 534,439 534,449 535,448 536,452 537,464 538,462 539,457 540,452 541,453 542,448 542,454 543,456 544,452 545,448 546,457 547,453 548,448 549,449 550,454 551,457 551,469 552,478 553,478 554,482 555,468 556,468 557,473 558,471 559,471 559,473 560,471 561,460 562,461 563,474 564,473 565,469 566,472 567,473 568,478 568,476 569,470 570,464 571,470 572,473 573,454 574,452 575,449 576,459 576,449 577,442 578,432 579,427 580,437 581,440 582,434 583,431 584,439 585,437 585,434 586,444 587,442 588,422 589,423 590,418 591,433 592,439 593,447 593,441 594,440 595,445 596,434 597,428 598,436 599,434 600,446 601,447 601,445 602,440 603,441 604,435 605,432 606,418 607,408 608,412 609,409 610,405 610,397 611,397 612,415 613,413 614,411 615,414 616,412 617,402 618,395 618,414 619,411 620,406 621,407 622,419 623,414 624,379 625,383 626,381 627,390 627,393 628,390 629,384 630,397 631,385 632,380 633,380 634,383 635,398 635,401 636,392 637,391 638,391 639,398 640,399 641,400 642,395 643,404 644,399 644,406 645,404 646,409 647,409 648,392 649,387 650,385 651,378 652,370 652,366 653,371 654,368 655,370 656,364 657,367 658,370 659,371 660,366 661,363 661,367 662,375 663,365 664,357 665,354 666,356 667,356 668,356 669,358 669,353 670,353 671,351 672,348 673,351 674,353 675,347 676,340 677,348 677,347 678,356 679,360 680,353 681,346 682,342 683,343 684,341 685,342 686,330 686,311 687,317 688,315 689,313 690,319 691,314 692,317 693,310 694,315 694,297 695,296 696,309 697,299 698,299 699,314 700,332 701,333 702,336 703,339 703,355 704,347 705,346 706,338 707,332 708,330 709,337 710,334 711,331 711,323 712,314 713,301 714,304 715,313 716,330 717,334 718,339 719,327 720,325 720,316 721,309 722,306 723,306 724,307 725,306 726,301 727,301 728,304 728,298 729,295 730,292 731,289 732,297 733,303 734,296 735,285 736,284 737,284 737,294 738,285 739,290 740,299 741,304 742,306 743,311 744,311 745,304 745,304 746,302 747,291 748,278 749,280 750,288 751,292 752,292 753,304 754,305 754,297 755,303 756,308 757,314 758,327 759,344 760,328 761,315 762,310 762,299 763,286 764,282 765,285 766,283 767,279 768,285 769,289 770,298 770,289 771,296 772,289 773,292 774,284 775,276 776,271 777,266 778,267 779,269 779,280 780,276 781,277 782,289 783,294 784,299 785,296 786,277 787,274 787,294 788,296 789,289 790,282 791,274 792,277 793,266 794,259 795,262 796,257 796,245 797,247 798,249 799,242 800,243 801,247 802,264 803,270 804,267 804,277 805,271 806,279 807,283 808,286 809,279 810,281 811,279 812,285 813,268 813,261 814,259 815,270 816,265 817,252 818,251 819,264 820,274 821,267 821,265 822,263 823,265 824,244 825,241 826,253 827,260 828,265 829,261 830,260 830,255 831,251 832,246 833,235 834,223 835,215 836,211 837,201 838,196 838,198 839,202 840,222 841,229 842,220 843,218 844,206 845,204 846,203 847,215 847,211 848,202 849,216 850,213 851,205 852,208 853,179 854,183 855,185 855,185 856,178 857,163 858,163 859,163 860,162 861,163 862,179 863,185 863,193 864,196 865,195 866,191 867,182 868,186 869,164 870,156 871,162 872,172 872,169 873,178 874,174 875,157 876,159 877,170 878,169 879,164 880,166 880,164 881,161 882,168 883,169 884,179 885,169 886,166 887,157 888,160 889,152 889,158 890,158 891,155 892,143 893,144 894,161 895,140 896,137 897,146 897,149 898,156 899,158 900,160 901,171 902,171 903,167 904,154 905,168 906,186 906,191 907,189 908,183 909,177 910,169 911,164 912,156 913,152 914,150 914,132 915,128 916,148 917,150 918,149 919,160 920,158 921,162 922,162 923,160 923,157 924,138 925,138 926,136 927,142 928,150 929,156 930,149 931,142 931,123 932,127 933,127 934,134 935,147 936,129 937,122 938,116 939,108 939,111 940,119 941,132 942,131 943,138 944,138 945,127 946,111 947,110 948,102 948,100 949,101 950,102 951,114 952,117 953,112 954,105 955,105 956,118 956,128 957,125 958,102 959,90 960,82 961,68 962,69 963,72 964,69 965,68 965,69 966,81 967,82 968,96 969,108 970,94 971,81 972,83 972,699 973,699 973,699 78,699 "/>
<polyline fill="none" opacity="1" stroke="#E6194B" stroke-width="1" points="78,697 78,689 79,676 80,676 81,671 82,675 83,678 84,682 85,680 86,683 86,686 87,681 88,682 89,653 90,661 91,651 92,641 93,650 94,649 94,650 95,654 96,666 97,667 98,669 99,672 100,672 101,676 102,672 103,679 103,677 104,674 105,675 106,672 107,672 108,673 109,663 110,660 111,650 111,642 112,647 113,653 114,663 115,663 116,658 117,645 118,638 119,621 120,616 120,631 121,647 122,651 123,654 124,652 125,639 126,629 127,623 128,617 128,618 129,616 130,618 131,631 132,630 133,625 134,618 135,615 136,615 137,622 137,612 138,598 139,592 140,591 141,592 142,581 143,576 144,567 145,562 145,564 146,556 147,541 148,538 149,535 150,521 151,515 152,514 153,527 154,519 154,514 155,511 156,515 157,516 158,506 159,504 160,495 161,495 162,505 162,509 163,505 164,497 165,490 166,490 167,487 168,476 169,465 170,476 170,471 171,475 172,484 173,484 174,492 175,482 176,466 177,462 178,462 179,465 179,466 180,464 181,465 182,460 183,448 184,451 185,458 186,470 187,471 187,472 188,455 189,450 190,445 191,444 192,449 193,453 194,443 195,446 196,452 196,450 197,438 198,436 199,435 200,428 201,432 202,442 203,439 204,429 204,427 205,426 206,429 207,432 208,429 209,437 210,445 211,452 212,462 213,464 213,449 214,444 215,429 216,431 217,463 218,470 219,466 220,457 221,473 221,471 222,467 223,469 224,464 225,443 226,439 227,447 228,444 229,445 230,456 230,464 231,471 232,459 233,462 234,457 235,458 236,469 237,468 238,462 238,469 239,468 240,471 241,473 242,464 243,462 244,458 245,448 246,450 247,460 247,458 248,470 249,465 250,475 251,473 252,478 253,472 254,475 255,476 255,473 256,460 257,455 258,466 259,465 260,471 261,458 262,450 263,450 263,457 264,456 265,464 266,455 267,444 268,444 269,450 270,446 271,453 272,452 272,442 273,438 274,434 275,438 276,441 277,434 278,431 279,434 280,436 280,443 281,441 282,443 283,441 284,426 285,427 286,428 287,435 288,439 289,431 289,435 290,441 291,445 292,443 293,458 294,463 295,452 296,450 297,447 297,435 298,433 299,438 300,441 301,439 302,425 303,431 304,437 305,436 306,450 306,448 307,451 308,459 309,459 310,467 311,463 312,458 313,455 314,449 314,455 315,449 316,452 317,453 318,454 319,438 320,431 321,423 322,422 323,416 323,412 324,419 325,418 326,405 327,398 328,384 329,384 330,401 331,408 331,408 332,411 333,411 334,404 335,405 336,392 337,398 338,406 339,407 339,414 340,404 341,401 342,411 343,414 344,417 345,421 346,423 347,433 348,434 348,442 349,439 350,437 351,431 352,430 353,435 354,438 355,443 356,444 356,445 357,456 358,474 359,461 360,470 361,475 362,466 363,468 364,478 365,472 365,471 366,463 367,455 368,457 369,454 370,464 371,469 372,462 373,461 373,450 374,449 375,452 376,456 377,462 378,468 379,464 380,460 381,455 382,446 382,439 383,437 384,442 385,449 386,441 387,448 388,447 389,448 390,440 390,429 391,422 392,420 393,406 394,409 395,421 396,431 397,447 398,448 399,467 399,460 400,463 401,444 402,446 403,474 404,471 405,463 406,463 407,445 407,439 408,440 409,444 410,455 411,451 412,450 413,454 414,469 415,465 416,459 416,458 417,460 418,462 419,462 420,475 421,470 422,464 423,471 424,480 424,475 425,466 426,469 427,458 428,466 429,461 430,465 431,468 432,472 432,455 433,450 434,456 435,435 436,430 437,424 438,426 439,414 440,414 441,419 441,419 442,418 443,417 444,426 445,425 446,415 447,406 448,410 449,405 449,416 450,420 451,424 452,421 453,425 454,427 455,440 456,424 457,430 458,407 458,407 459,406 460,409 461,401 462,395 463,394 464,392 465,397 466,400 466,406 467,394 468,386 469,385 470,390 471,392 472,380 473,378 474,381 475,387 475,400 476,392 477,383 478,383 479,383 480,384 481,402 482,404 483,407 483,407 484,413 485,415 486,419 487,421 488,412 489,417 490,420 491,423 492,425 492,412 493,410 494,417 495,415 496,419 497,413 498,410 499,423 500,417 500,413 501,415 502,429 503,425 504,422 505,423 506,412 507,417 508,421 508,409 509,410 510,409 511,402 512,403 513,406 514,404 515,404 516,414 517,411 517,406 518,404 519,420 520,401 521,407 522,405 523,412 524,417 525,409 525,407 526,416 527,428 528,441 529,441 530,432 531,434 532,435 533,438 534,439 534,449 535,448 536,452 537,464 538,462 539,457 540,452 541,453 542,448 542,454 543,456 544,452 545,448 546,457 547,453 548,448 549,449 550,454 551,457 551,469 552,478 553,478 554,482 555,468 556,468 557,473 558,471 559,471 559,473 560,471 561,460 562,461 563,474 564,473 565,469 566,472 567,473 568,478 568,476 569,470 570,464 571,470 572,473 573,454 574,452 575,449 576,459 576,449 577,442 578,432 579,427 580,437 581,440 582,434 583,431 584,439 585,437 585,434 586,444 587,442 588,422 589,423 590,418 591,433 592,439 593,447 593,441 594,440 595,445 596,434 597,428 598,436 599,434 600,446 601,447 601,445 602,440 603,441 604,435 605,432 606,418 607,408 608,412 609,409 610,405 610,397 611,397 612,415 613,413 614,411 615,414 616,412 617,402 618,395 618,414 619,411 620,406 621,407 622,419 623,414 624,379 625,383 626,381 627,390 627,393 628,390 629,384 630,397 631,385 632,380 633,380 634,383 635,398 635,401 636,392 637,391 638,391 639,398 640,399 641,400 642,395 643,404 644,399 644,406 645,404 646,409 647,409 648,392 649,387 650,385 651,378 652,370 652,366 653,371 654,368 655,370 656,364 657,367 658,370 659,371 660,366 661,363 661,367 662,375 663,365 664,357 665,354 666,356 667,356 668,356 669,358 669,353 670,353 671,351 672,348 673,351 674,353 675,347 676,340 677,348 677,347 678,356 679,360 680,353 681,346 682,342 683,343 684,341 685,342 686,330 686,311 687,317 688,315 689,313 690,319 691,314 692,317 693,310 694,315 694,297 695,296 696,309 697,299 698,299 699,314 700,332 701,333 702,336 703,339 703,355 704,347 705,346 706,338 707,332 708,330 709,337 710,334 711,331 711,323 712,314 713,301 714,304 715,313 716,330 717,334 718,339 719,327 720,325 720,316 721,309 722,306 723,306 724,307 725,306 726,301 727,301 728,304 728,298 729,295 730,292 731,289 732,297 733,303 734,296 735,285 736,284 737,284 737,294 738,285 739,290 740,299 741,304 742,306 743,311 744,311 745,304 745,304 746,302 747,291 748,278 749,280 750,288 751,292 752,292 753,304 754,305 754,297 755,303 756,308 757,314 758,327 759,344 760,328 761,315 762,310 762,299 763,286 764,282 765,285 766,283 767,279 768,285 769,289 770,298 770,289 771,296 772,289 773,292 774,284 775,276 776,271 777,266 778,267 779,269 779,280 780,276 781,277 782,289 783,294 784,299 785,296 786,277 787,274 787,294 788,296 789,289 790,282 791,274 792,277 793,266 794,259 795,262 796,257 796,245 797,247 798,249 799,242 800,243 801,247 802,264 803,270 804,267 804,277 805,271 806,279 807,283 808,286 809,279 810,281 811,279 812,285 813,268 813,261 814,259 815,270 816,265 817,252 818,251 819,264 820,274 821,267 821,265 822,263 823,265 824,244 825,241 826,253 827,260 828,265 829,261 830,260 830,255 831,251 832,246 833,235 834,223 835,215 836,211 837,201 838,196 838,198 839,202 840,222 841,229 842,220 843,218 844,206 845,204 846,203 847,215 847,211 848,202 849,216 850,213 851,205 852,208 853,179 854,183 855,185 855,185 856,178 857,163 858,163 859,163 860,162 861,163 862,179 863,185 863,193 864,196 865,195 866,191 867,182 868,186 869,164 870,156 871,162 872,172 872,169 873,178 874,174 875,157 876,159 877,170 878,169 879,164 880,166 880,164 881,161 882,168 883,169 884,179 885,169 886,166 887,157 888,160 889,152 889,158 890,158 891,155 892,143 893,144 894,161 895,140 896,137 897,146 897,149 898,156 899,158 900,160 901,171 902,171 903,167 904,154 905,168 906,186 906,191 907,189 908,183 909,177 910,169 911,164 912,156 913,152 914,150 914,132 915,128 916,148 917,150 918,149 919,160 920,158 921,162 922,162 923,160 923,157 924,138 925,138 926,136 927,142 928,150 929,156 930,149 931,142 931,123 932,127 933,127 934,134 935,147 936,129 937,122 938,116 939,108 939,111 940,119 941,132 942,131 943,138 944,138 945,127 946,111 947,110 948,102 948,100 949,101 950,102 951,114 952,117 953,112 954,105 955,105 956,118 956,128 957,125 958,102 959,90 960,82 961,68 962,69 963,72 964,69 965,68 965,69 966,81 967,82 968,96 969,108 970,94 971,81 972,83 972,699 973,699 "/>
<line opacity="0.1" stroke="#000000" stroke-width="1" x1="79" y1="699" x2="79" y2="68"/>
<line opacity="0.1" stroke="#000000" stroke-width="1" x1="87" y1="699" x2="87" y2="68"/>
<line opacity="0.1" stroke="#000000" stroke-width="1" x1="96" y1="699" x2="96" y2="68"/>
<line opacity="0.1" stroke="#000000" stroke-width="1" x1="105" y1="699" x2="105" y2="68"/>
<line opacity="0.1" stroke="#000000" stroke-width="1" x1="114" y1="699" x2="114" y2="68"/>
<line opacity="0.1" stroke="#000000" stroke-width="1" x1="123" y1="699" x2="123" y2="68"/>
<line opacity="0.1" stroke="#000000" stroke-width="1" x1="132" y1="699" x2="132" y2="68"/>
<line opacity="0.1" stroke="#000000" stroke-width="1" x1="141" y1="699" x2="141" y2="68"/>
<line opacity="0.1" stroke="#000000" stroke-width="1" x1="150" y1="699" x2="150" y2="68"/>
<line opacity="0.1" stroke="#000000" stroke-width="1" x1="159" y1="699" x2="159" y2="68"/>
<line opacity="0.1" stroke="#000000" stroke-width="1" x1="168" y1="699" x2="168" y2="68"/>
<line opacity="0.1" stroke="#000000" stroke-width="1" x1="177" y1="699" x2="177" y2="68"/>
<line opacity="0.1" stroke="#000000" stroke-width="1" x1="186" y1="699" x2="186" y2="68"/>
<line opacity="0.1" stroke="#000000" stroke-width="1" x1="195" y1="699" x2="195" y2="68"/>
<line opacity="0.1" stroke="#000000" stroke-width="1" x1="204" y1="699" x2="204" y2="68"/>
<line opacity="0.1" stroke="#000000" stroke-width="1" x1="213" y1="699" x2="213" y2="68"/>
<line opacity="0.1" stroke="#000000" stroke-width="1" x1="222" y1="699" x2="222" y2="68"/>
<line opacity="0.1" stroke="#000000" stroke-width="1" x1="230" y1="699" x2="230" y2="68"/>
<line opacity="0.1" stroke="#000000" stroke-width="1" x1="239" y1="699" x2="239" y2="68"/>
<line opacity="0.1" stroke="#000000" stroke-width="1" x1="248" y1="699" x2="248" y2="68"/>
<line opacity="0.1" stroke="#000000" stroke-width="1" x1="257" y1="699" x2="257" y2="68"/>
<line opacity="0.1" stroke="#000000" stroke-width="1" x1="266" y1="699" x2="266" y2="68"/>
<line opacity="0.1" stroke="#000000" stroke-width="1" x1="275" y1="699" x2="275" y2="68"/>
<line opacity="0.1" stroke="#000000" stroke-width="1" x1="284" y1="699" x2="284" y2="68"/>
<line opacity="0.1" stroke="#000000" stroke-width="1" x1="293" y1="699" x2="293" y2="68"/>
<line opacity="0.1" stroke="#000000" stroke-width="1" x1="302" y1="699" x2="302" y2="68"/>
<line opacity="0.1" stroke="#000000" stroke-width="1" x1="311" y1="699" x2="311" y2="68"/>
<line opacity="0.1" stroke="#000000" stroke-width="1" x1="320" y1="699" x2="320" y2="68"/>
<line opacity="0.1" stroke="#000000" stroke-width="1" x1="329" y1="699" x2="329" y2="68"/>
<line opacity="0.1" stroke="#000000" stroke-width="1" x1="338" y1="699" x2="338" y2="68"/>
<line opacity="0.1" stroke="#000000" stroke-width="1" x1="347" y1="699" x2="347" y2="68"/>
<line opacity="0.1" stroke="#000000" stroke-width="1" x1="356" y1="699" x2="356" y2="68"/>
<line opacity="0.1" stroke="#000000" stroke-width="1" x1="365" y1="699" x2="365" y2="68"/>
<line opacity="0.1" stroke="#000000" stroke-width="1" x1="374" y1="699" x2="374" y2="68"/>
<line opacity="0.1" stroke="#000000" stroke-width="1" x1="382" y1="699" x2="382" y2="68"/>
<line opacity="0.1" stroke="#000000" stroke-width="1" x1="391" y1="699" x2="391" y2="68"/>
<line opacity="0.1" stroke="#000000" stroke-width="1" x1="400" y1="699" x2="400" y2="68"/>
<line opacity="0.1" stroke="#000000" stroke-width="1" x1="409" y1="699" x2="409" y2="68"/>
<line opacity="0.1" stroke="#000000" stroke-width="1" x1="418" y1="699" x2="418" y2="68"/>
<line opacity="0.1" stroke="#000000" stroke-width="1" x1="427" y1="699" x2="427" y2="68"/>
<line opacity="0.1" stroke="#000000" stroke-width="1" x1="436" y1="699" x2="436" y2="68"/>
<line opacity="0.1" stroke="#000000" stroke-width="1" x1="445" y1="699" x2="445" y2="68"/>
<line opacity="0.1" stroke="#000000" stroke-width="1" x1="454" y1="699" x2="454" y2="68"/>
<line opacity="0.1" stroke="#000000" stroke-width="1" x1="463" y1="699" x2="463" y2="68"/>
<line opacity="0.1" stroke="#000000" stroke-width="1" x1="472" y1="699" x2="472" y2="68"/>
<line opacity="0.1" stroke="#000000" stroke-width="1" x1="481" y1="699" x2="481" y2="68"/>
<line opacity="0.1" stroke="#000000" stroke-width="1" x1="490" y1="699" x2="490" y2="68"/>
<line opacity="0.1" stroke="#000000" stroke-width="1" x1="499" y1="699" x2="499" y2="68"/>
<line opacity="0.1" stroke="#000000" stroke-width="1" x1="508" y1="699" x2="508" y2="68"/>
<line opacity="0.1" stroke="#000000" stroke-width="1" x1="517" y1="699" x2="517" y2="68"/>
<line opacity="0.1" stroke="#000000" stroke-width="1" x1="526" y1="699" x2="526" y2="68"/>
<line opacity="0.1" stroke="#000000" stroke-width="1" x1="534" y1="699" x2="534" y2="68"/>
<line opacity="0.1" stroke="#000000" stroke-width="1" x1="543" y1="699" x2="543" y2="68"/>
<line opacity="0.1" stroke="#000000" stroke-width="1" x1="552" y1="699" x2="552" y2="68"/>
<line opacity="0.1" stroke="#000000" stroke-width="1" x1="561" y1="699" x2="561" y2="68"/>
<line opacity="0.1" stroke="#000000" stroke-width="1" x1="570" y1="699" x2="570" y2="68"/>
<line opacity="0.1" stroke="#000000" stroke-width="1" x1="579" y1="699" x2="579" y2="68"/>
<line opacity="0.1" stroke="#000000" stroke-width="1" x1="588" y1="699" x2="588" y2="68"/>
<line opacity="0.1" stroke="#000000" stroke-width="1" x1="597" y1="699" x2="597" y2="68"/>
<line opacity="0.1" stroke="#000000" stroke-width="1" x1="606" y1="699" x2="606" y2="68"/>
<line opacity="0.1" stroke="#000000" stroke-width="1" x1="615" y1="699" x2="615" y2="68"/>
<line opacity="0.1" stroke="#000000" stroke-width="1" x1="624" y1="699" x2="624" y2="68"/>
<line opacity="0.1" stroke="#000000" stroke-width="1" x1="633" y1="699" x2="633" y2="68"/>
<line opacity="0.1" stroke="#000000" stroke-width="1" x1="642" y1="699" x2="642" y2="68"/>
<line opacity="0.1" stroke="#000000" stroke-width="1" x1="651" y1="699" x2="651" y2="68"/>
<line opacity="0.1" stroke="#000000" stroke-width="1" x1="660" y1="699" x2="660" y2="68"/>
<line opacity="0.1" stroke="#000000" stroke-width="1" x1="669" y1="699" x2="669" y2="68"/>
<line opacity="0.1" stroke="#000000" stroke-width="1" x1="677" y1="699" x2="677" y2="68"/>
<line opacity="0.1" stroke="#000000" stroke-width="1" x1="686" y1="699" x2="686" y2="68"/>
<line opacity="0.1" stroke="#000000" stroke-width="1" x1="695" y1="699" x2="695" y2="68"/>
<line opacity="0.1" stroke="#000000" stroke-width="1" x1="704" y1="699" x2="704" y2="68"/>
<line opacity="0.1" stroke="#000000" stroke-width="1" x1="713" y1="699" x2="713" y2="68"/>
<line opacity="0.1" stroke="#000000" stroke-width="1" x1="722" y1="699" x2="722" y2="68"/>
<line opacity="0.1" stroke="#000000" stroke-width="1" x1="731" y1="699" x2="731" y2="68"/>
<line opacity="0.1" stroke="#000000" stroke-width="1" x1="740" y1="699" x2="740" y2="68"/>
<line opacity="0.1" stroke="#000000" stroke-width="1" x1="749" y1="699" x2="749" y2="68"/>
<line opacity="0.1" stroke="#000000" stroke-width="1" x1="758" y1="699" x2="758" y2="68"/>
<line opacity="0.1" stroke="#000000" stroke-width="1" x1="767" y1="699" x2="767" y2="68"/>
<line opacity="0.1" stroke="#000000" stroke-width="1" x1="776" y1="699" x2="776" y2="68"/>
<line opacity="0.1" stroke="#000000" stroke-width="1" x1="785" y1="699" x2="785" y2="68"/>
<line opacity="0.1" stroke="#000000" stroke-width="1" x1="794" y1="699" x2="794" y2="68"/>
<line opacity="0.1" stroke="#000000" stroke-width="1" x1="803" y1="699" x2="803" y2="68"/>
<line opacity="0.1" stroke="#000000" stroke-width="1" x1="812" y1="699" x2="812" y2="68"/>
<line opacity="0.1" stroke="#000000" stroke-width="1" x1="821" y1="699" x2="821" y2="68"/>
<line opacity="0.1" stroke="#000000" stroke-width="1" x1="829" y1="699" x2="829" y2="68"/>
<line opacity="0.1" stroke="#000000" stroke-width="1" x1="838" y1="699" x2="838" y2="68"/>
<line opacity="0.1" stroke="#000000" stroke-width="1" x1="847" y1="699" x2="847" y2="68"/>
<line opacity="0.1" stroke="#000000" stroke-width="1" x1="856" y1="699" x2="856" y2="68"/>
<line opacity="0.1" stroke="#000000" stroke-width="1" x1="865" y1="699" x2="865" y2="68"/>
<line opacity="0.1" stroke="#000000" stroke-width="1" x1="874" y1="699" x2="874" y2="68"/>
<line opacity="0.1" stroke="#000000" stroke-width="1" x1="883" y1="699" x2="883" y2="68"/>
<line opacity="0.1" stroke="#000000" stroke-width="1" x1="892" y1="699" x2="892" y2="68"/>
<line opacity="0.1" stroke="#000000" stroke-width="1" x1="901" y1="699" x2="901" y2="68"/>
<line opacity="0.1" stroke="#000000" stroke-width="1" x1="910" y1="699" x2="910" y2="68"/>
<line opacity="0.1" stroke="#000000" stroke-width="1" x1="919" y1="699" x2="919" y2="68"/>
<line opacity="0.1" stroke="#000000" stroke-width="1" x1="928" y1="699" x2="928" y2="68"/>
<line opacity="0.1" stroke="#000000" stroke-width="1" x1="937" y1="699" x2="937" y2="68"/>
<line opacity="0.1" stroke="#000000" stroke-width="1" x1="946" y1="699" x2="946" y2="68"/>
<line opacity="0.1" stroke="#000000" stroke-width="1" x1="955" y1="699" x2="955" y2="68"/>
<line opacity="0.1" stroke="#000000" stroke-width="1" x1="964" y1="699" x2="964" y2="68"/>
<line opacity="0.1" stroke="#000000" stroke-width="1" x1="78" y1="699" x2="973" y2="699"/>
<line opacity="0.1" stroke="#000000" stroke-width="1" x1="78" y1="691" x2="973" y2="691"/>
<line opacity="0.1" stroke="#000000" stroke-width="1" x1="78" y1="683" x2="973" y2="683"/>
<line opacity="0.1" stroke="#000000" stroke-width="1" x1="78" y1="675" x2="973" y2="675"/>
<line opacity="0.1" stroke="#000000" stroke-width="1" x1="78" y1="667" x2="973" y2="667"/>
<line opacity="0.1" stroke="#000000" stroke-width="1" x1="78" y1="660" x2="973" y2="660"/>
<line opacity="0.1" stroke="#000000" stroke-width="1" x1="78" y1="652" x2="973" y2="652"/>
<line opacity="0.1" stroke="#000000" stroke-width="1" x1="78" y1="644" x2="973" y2="644"/>
<line opacity="0.1" stroke="#000000" stroke-width="1" x1="78" y1="636" x2="973" y2="636"/>
<line opacity="0.1" stroke="#000000" stroke-width="1" x1="78" y1="628" x2="973" y2="628"/>
<line opacity="0.1" stroke="#000000" stroke-width="1" x1="78" y1="621" x2="973" y2="621"/>
<line opacity="0.1" stroke="#000000" stroke-width="1" x1="78" y1="613" x2="973" y2="613"/>
<line opacity="0.1" stroke="#000000" stroke-width="1" x1="78" y1="605" x2="973" y2="605"/>
<line opacity="0.1" stroke="#000000" stroke-width="1" x1="78" y1="597" x2="973" y2="597"/>
<line opacity="0.1" stroke="#000000" stroke-width="1" x1="78" y1="590" x2="973" y2="590"/>
<line opacity="0.1" stroke="#000000" stroke-width="1" x1="78" y1="582" x2="973" y2="582"/>
<line opacity="0.1" stroke="#000000" stroke-width="1" x1="78" y1="574" x2="973" y2="574"/>
<line opacity="0.1" stroke="#000000" stroke-width="1" x1="78" y1="566" x2="973" y2="566"/>
<line opacity="0.1" stroke="#000000" stroke-width="1" x1="78" y1="558" x2="973" y2="558"/>
<line opacity="0.1" stroke="#000000" stroke-width="1" x1="78" y1="551" x2="973" y2="551"/>
<line opacity="0.1" stroke="#000000" stroke-width="1" x1="78" y1="543" x2="973" y2="543"/>
<line opacity="0.1" stroke="#000000" stroke-width="1" x1="78" y1="535" x2="973" y2="535"/>
<line opacity="0.1" stroke="#000000" stroke-width="1" x1="78" y1="527" x2="973" y2="527"/>
<line opacity="0.1" stroke="#000000" stroke-width="1" x1="78" y1="520" x2="973" y2="520"/>
<line opacity="0.1" stroke="#000000" stroke-width="1" x1="78" y1="512" x2="973" y2="512"/>
<line opacity="0.1" stroke="#000000" stroke-width="1" x1="78" y1="504" x2="973" y2="504"/>
<line opacity="0.1" stroke="#000000" stroke-width="1" x1="78" y1="496" x2="973" y2="496"/>
<line opacity="0.1" stroke="#000000" stroke-width="1" x1="78" y1="488" x2="973" y2="488"/>
<line opacity="0.1" stroke="#000000" stroke-width="1" x1="78" y1="481" x2="973" y2="481"/>
<line opacity="0.1" stroke="#000000" stroke-width="1" x1="78" y1="473" x2="973" y2="473"/>
<line opacity="0.1" stroke="#000000" stroke-width="1" x1="78" y1="465" x2="973" y2="465"/>
<line opacity="0.1" stroke="#000000" stroke-width="1" x1="78" y1="457" x2="973" y2="457"/>
<line opacity="0.1" stroke="#000000" stroke-width="1" x1="78" y1="450" x2="973" y2="450"/>
<line opacity="0.1" stroke="#000000" stroke-width="1" x1="78" y1="442" x2="973" y2="442"/>
<line opacity="0.1" stroke="#000000" stroke-width="1" x1="78" y1="434" x2="973" y2="434"/>
<line opacity="0.1" stroke="#000000" stroke-width="1" x1="78" y1="426" x2="973" y2="426"/>
<line opacity="0.1" stroke="#000000" stroke-width="1" x1="78" y1="418" x2="973" y2="418"/>
<line opacity="0.1" stroke="#000000" stroke-width="1" x1="78" y1="411" x2="973" y2="411"/>
<line opacity="0.1" stroke="#000000" stroke-width="1" x1="78" y1="403" x2="973" y2="403"/>
<line opacity="0.1" stroke="#000000" stroke-width="1" x1="78" y1="395" x2="973" y2="395"/>
<line opacity="0.1" stroke="#000000" stroke-width="1" x1="78" y1="387" x2="973" y2="387"/>
<line opacity="0.1" stroke="#000000" stroke-width="1" x1="78" y1="379" x2="973" y2="379"/>
<line opacity="0.1" stroke="#000000" stroke-width="1" x1="78" y1="372" x2="973" y2="372"/>
<line opacity="0.1" stroke="#000000" stroke-width="1" x1="78" y1="364" x2="973" y2="364"/>
<line opacity="0.1" stroke="#000000" stroke-width="1" x1="78" y1="356" x2="973" y2="356"/>
<line opacity="0.1" stroke="#000000" stroke-width="1" x1="78" y1="348" x2="973" y2="348"/>
<line opacity="0.1" stroke="#000000" stroke-width="1" x1="78" y1="341" x2="973" y2="341"/>
<line opacity="0.1" stroke="#000000" stroke-width="1" x1="78" y1="333" x2="973" y2="333"/>
<line opacity="0.1" stroke="#000000" stroke-width="1" x1="78" y1="325" x2="973" y2="325"/>
<line opacity="0.1" stroke="#000000" stroke-width="1" x1="78" y1="317" x2="973" y2="317"/>
<line opacity="0.1" stroke="#000000" stroke-width="1" x1="78" y1="309" x2="973" y2="309"/>
<line opacity="0.1" stroke="#000000" stroke-width="1" x1="78" y1="302" x2="973" y2="302"/>
<line opacity="0.1" stroke="#000000" stroke-width="1" x1="78" y1="294" x2="973" y2="294"/>
<line opacity="0.1" stroke="#000000" stroke-width="1" x1="78" y1="286" x2="973" y2="286"/>
<line opacity="0.1" stroke="#000000" stroke-width="1" x1="78" y1="278" x2="973" y2="278"/>
<line opacity="0.1" stroke="#000000" stroke-width="1" x1="78" y1="271" x2="973" y2="271"/>
<line opacity="0.1" stroke="#000000" stroke-width="1" x1="78" y1="263" x2="973" y2="263"/>
<line opacity="0.1" stroke="#000000" stroke-width="1" x1="78" y1="255" x2="973" y2="255"/>
<line opacity="0.1" stroke="#000000" stroke-width="1" x1="78" y1="247" x2="973" y2="247"/>
<line opacity="0.1" stroke="#000000" stroke-width="1" x1="78" y1="239" x2="973" y2="239"/>
<line opacity="0.1" stroke="#000000" stroke-width="1" x1="78" y1="232" x2="973" y2="232"/>
<line opacity="0.1" stroke="#000000" stroke-width="1" x1="78" y1="224" x2="973" y2="224"/>
<line opacity="0.1" stroke="#000000" stroke-width="1" x1="78" y1="216" x2="973" y2="216"/>
<line opacity="0.1" stroke="#000000" stroke-width="1" x1="78" y1="208" x2="973" y2="208"/>
<line opacity="0.1" stroke="#000000" stroke-width="1" x1="78" y1="201" x2="973" y2="201"/>
<line opacity="0.1" stroke="#000000" stroke-width="1" x1="78" y1="193" x2="973" y2="193"/>
<line opacity="0.1" stroke="#000000" stroke-width="1" x1="78" y1="185" x2="973" y2="185"/>
<line opacity="0.1" stroke="#000000" stroke-width="1" x1="78" y1="177" x2="973" y2="177"/>
<line opacity="0.1" stroke="#000000" stroke-width="1" x1="78" y1="169" x2="973" y2="169"/>
<line opacity="0.1" stroke="#000000" stroke-width="1" x1="78" y1="162" x2="973" y2="162"/>
<line opacity="0.1" stroke="#000000" stroke-width="1" x1="78" y1="154" x2="973" y2="154"/>
<line opacity="0.1" stroke="#000000" stroke-width="1" x1="78" y1="146" x2="973" y2="146"/>
<line opacity="0.1" stroke="#000000" stroke-width="1" x1="78" y1="138" x2="973" y2="138"/>
<line opacity="0.1" stroke="#000000" stroke-width="1" x1="78" y1="130" x2="973" y2="130"/>
<line opacity="0.1" stroke="#000000" stroke-width="1" x1="78" y1="123" x2="973" y2="123"/>
<line opacity="0.1" stroke="#000000" stroke-width="1" x1="78" y1="115" x2="973" y2="115"/>
<line opacity="0.1" stroke="#000000" stroke-width="1" x1="78" y1="107" x2="973" y2="107"/>
<line opacity="0.1" stroke="#000000" stroke-width="1" x1="78" y1="99" x2="973" y2="99"/>
<line opacity="0.1" stroke="#000000" stroke-width="1" x1="78" y1="92" x2="973" y2="92"/>
<line opacity="0.1" stroke="#000000" stroke-width="1" x1="78" y1="84" x2="973" y2="84"/>
<line opacity="0.1" stroke="#000000" stroke-width="1" x1="78" y1="76" x2="973" y2="76"/>
<line opacity="0.1" stroke="#000000" stroke-width="1" x1="78" y1="68" x2="973" y2="68"/>
<text x="8" y="384" dy="0.76em" text-anchor="middle" font-family="sans-serif" font-size="9.67741935483871" opacity="1" fill="#000000" transform="rotate(270, 8, 384)">
Memory usage
</text>
<text x="526" y="760" dy="-0.5ex" text-anchor="middle" font-family="sans-serif" font-size="9.67741935483871" opacity="1" fill="#000000">
Time
</text>
<line opacity="0.2" stroke="#000000" stroke-width="1" x1="96" y1="699" x2="96" y2="68"/>
<line opacity="0.2" stroke="#000000" stroke-width="1" x1="186" y1="699" x2="186" y2="68"/>
<line opacity="0.2" stroke="#000000" stroke-width="1" x1="275" y1="699" x2="275" y2="68"/>
<line opacity="0.2" stroke="#000000" stroke-width="1" x1="365" y1="699" x2="365" y2="68"/>
<line opacity="0.2" stroke="#000000" stroke-width="1" x1="454" y1="699" x2="454" y2="68"/>
<line opacity="0.2" stroke="#000000" stroke-width="1" x1="543" y1="699" x2="543" y2="68"/>
<line opacity="0.2" stroke="#000000" stroke-width="1" x1="633" y1="699" x2="633" y2="68"/>
<line opacity="0.2" stroke="#000000" stroke-width="1" x1="722" y1="699" x2="722" y2="68"/>
<line opacity="0.2" stroke="#000000" stroke-width="1" x1="812" y1="699" x2="812" y2="68"/>
<line opacity="0.2" stroke="#000000" stroke-width="1" x1="901" y1="699" x2="901" y2="68"/>
<line opacity="0.2" stroke="#000000" stroke-width="1" x1="78" y1="699" x2="973" y2="699"/>
<line opacity="0.2" stroke="#000000" stroke-width="1" x1="78" y1="621" x2="973" y2="621"/>
<line opacity="0.2" stroke="#000000" stroke-width="1" x1="78" y1="543" x2="973" y2="543"/>
<line opacity="0.2" stroke="#000000" stroke-width="1" x1="78" y1="465" x2="973" y2="465"/>
<line opacity="0.2" stroke="#000000" stroke-width="1" x1="78" y1="387" x2="973" y2="387"/>
<line opacity="0.2" stroke="#000000" stroke-width="1" x1="78" y1="309" x2="973" y2="309"/>
<line opacity="0.2" stroke="#000000" stroke-width="1" x1="78" y1="232" x2="973" y2="232"/>
<line opacity="0.2" stroke="#000000" stroke-width="1" x1="78" y1="154" x2="973" y2="154"/>
<line opacity="0.2" stroke="#000000" stroke-width="1" x1="78" y1="76" x2="973" y2="76"/>
<polyline fill="none" opacity="1" stroke="#000000" stroke-width="1" points="77,68 77,699 "/>
<text x="68" y="699" dy="0.5ex" text-anchor="end" font-family="sans-serif" font-size="9.67741935483871" opacity="1" fill="#000000">
0 KB
</text>
<polyline fill="none" opacity="1" stroke="#000000" stroke-width="1" points="72,699 77,699 "/>
<text x="68" y="621" dy="0.5ex" text-anchor="end" font-family="sans-serif" font-size="9.67741935483871" opacity="1" fill="#000000">
97 KB
</text>
<polyline fill="none" opacity="1" stroke="#000000" stroke-width="1" points="72,621 77,621 "/>
<text x="68" y="543" dy="0.5ex" text-anchor="end" font-family="sans-serif" font-size="9.67741935483871" opacity="1" fill="#000000">
195 KB
</text>
<polyline fill="none" opacity="1" stroke="#000000" stroke-width="1" points="72,543 77,543 "/>
<text x="68" y="465" dy="0.5ex" text-anchor="end" font-family="sans-serif" font-size="9.67741935483871" opacity="1" fill="#000000">
292 KB
</text>
<polyline fill="none" opacity="1" stroke="#000000" stroke-width="1" points="72,465 77,465 "/>
<text x="68" y="387" dy="0.5ex" text-anchor="end" font-family="sans-serif" font-size="9.67741935483871" opacity="1" fill="#000000">
390 KB
</text>
<polyline fill="none" opacity="1" stroke="#000000" stroke-width="1" points="72,387 77,387 "/>
<text x="68" y="309" dy="0.5ex" text-anchor="end" font-family="sans-serif" font-size="9.67741935483871" opacity="1" fill="#000000">
488 KB
</text>
<polyline fill="none" opacity="1" stroke="#000000" stroke-width="1" points="72,309 77,309 "/>
<text x="68" y="232" dy="0.5ex" text-anchor="end" font-family="sans-serif" font-size="9.67741935483871" opacity="1" fill="#000000">
585 KB
</text>
<polyline fill="none" opacity="1" stroke="#000000" stroke-width="1" points="72,232 77,232 "/>
<text x="68" y="154" dy="0.5ex" text-anchor="end" font-family="sans-serif" font-size="9.67741935483871" opacity="1" fill="#000000">
683 KB
</text>
<polyline fill="none" opacity="1" stroke="#000000" stroke-width="1" points="72,154 77,154 "/>
<text x="68" y="76" dy="0.5ex" text-anchor="end" font-family="sans-serif" font-size="9.67741935483871" opacity="1" fill="#000000">
781 KB
</text>
<polyline fill="none" opacity="1" stroke="#000000" stroke-width="1" points="72,76 77,76 "/>
<polyline fill="none" opacity="1" stroke="#000000" stroke-width="1" points="78,700 973,700 "/>
<text x="96" y="710" dy="0.76em" text-anchor="middle" font-family="sans-serif" font-size="9.67741935483871" opacity="1" fill="#000000">
02:04:17
</text>
<polyline fill="none" opacity="1" stroke="#000000" stroke-width="1" points="96,700 96,705 "/>
<text x="186" y="710" dy="0.76em" text-anchor="middle" font-family="sans-serif" font-size="9.67741935483871" opacity="1" fill="#000000">
02:04:18
</text>
<polyline fill="none" opacity="1" stroke="#000000" stroke-width="1" points="186,700 186,705 "/>
<text x="275" y="710" dy="0.76em" text-anchor="middle" font-family="sans-serif" font-size="9.67741935483871" opacity="1" fill="#000000">
02:04:19
</text>
<polyline fill="none" opacity="1" stroke="#000000" stroke-width="1" points="275,700 275,705 "/>
<text x="365" y="710" dy="0.76em" text-anchor="middle" font-family="sans-serif" font-size="9.67741935483871" opacity="1" fill="#000000">
02:04:20
</text>
<polyline fill="none" opacity="1" stroke="#000000" stroke-width="1" points="365,700 365,705 "/>
<text x="454" y="710" dy="0.76em" text-anchor="middle" font-family="sans-serif" font-size="9.67741935483871" opacity="1" fill="#000000">
02:04:21
</text>
<polyline fill="none" opacity="1" stroke="#000000" stroke-width="1" points="454,700 454,705 "/>
<text x="543" y="710" dy="0.76em" text-anchor="middle" font-family="sans-serif" font-size="9.67741935483871" opacity="1" fill="#000000">
02:04:22
</text>
<polyline fill="none" opacity="1" stroke="#000000" stroke-width="1" points="543,700 543,705 "/>
<text x="633" y="710" dy="0.76em" text-anchor="middle" font-family="sans-serif" font-size="9.67741935483871" opacity="1" fill="#000000">
02:04:23
</text>
<polyline fill="none" opacity="1" stroke="#000000" stroke-width="1" points="633,700 633,705 "/>
<text x="722" y="710" dy="0.76em" text-anchor="middle" font-family="sans-serif" font-size="9.67741935483871" opacity="1" fill="#000000">
02:04:24
</text>
<polyline fill="none" opacity="1" stroke="#000000" stroke-width="1" points="722,700 722,705 "/>
<text x="812" y="710" dy="0.76em" text-anchor="middle" font-family="sans-serif" font-size="9.67741935483871" opacity="1" fill="#000000">
02:04:25
</text>
<polyline fill="none" opacity="1" stroke="#000000" stroke-width="1" points="812,700 812,705 "/>
<text x="901" y="710" dy="0.76em" text-anchor="middle" font-family="sans-serif" font-size="9.67741935483871" opacity="1" fill="#000000">
02:04:26
</text>
<polyline fill="none" opacity="1" stroke="#000000" stroke-width="1" points="901,700 901,705 "/>
<polyline fill="none" opacity="1" stroke="#000000" stroke-width="1" points="78,67 974,67 "/>
<text x="96" y="58" dy="-0.5ex" text-anchor="middle" font-family="sans-serif" font-size="9.67741935483871" opacity="1" fill="#000000">
+265ms
</text>
<polyline fill="none" opacity="1" stroke="#000000" stroke-width="1" points="96,62 96,67 "/>
<text x="186" y="58" dy="-0.5ex" text-anchor="middle" font-family="sans-serif" font-size="9.67741935483871" opacity="1" fill="#000000">
+1s
</text>
<polyline fill="none" opacity="1" stroke="#000000" stroke-width="1" points="186,62 186,67 "/>
<text x="275" y="58" dy="-0.5ex" text-anchor="middle" font-family="sans-serif" font-size="9.67741935483871" opacity="1" fill="#000000">
+2s
</text>
<polyline fill="none" opacity="1" stroke="#000000" stroke-width="1" points="275,62 275,67 "/>
<text x="365" y="58" dy="-0.5ex" text-anchor="middle" font-family="sans-serif" font-size="9.67741935483871" opacity="1" fill="#000000">
+3s
</text>
<polyline fill="none" opacity="1" stroke="#000000" stroke-width="1" points="365,62 365,67 "/>
<text x="454" y="58" dy="-0.5ex" text-anchor="middle" font-family="sans-serif" font-size="9.67741935483871" opacity="1" fill="#000000">
+4s
</text>
<polyline fill="none" opacity="1" stroke="#000000" stroke-width="1" points="454,62 454,67 "/>
<text x="544" y="58" dy="-0.5ex" text-anchor="middle" font-family="sans-serif" font-size="9.67741935483871" opacity="1" fill="#000000">
+5s
</text>
<polyline fill="none" opacity="1" stroke="#000000" stroke-width="1" points="544,62 544,67 "/>
<text x="633" y="58" dy="-0.5ex" text-anchor="middle" font-family="sans-serif" font-size="9.67741935483871" opacity="1" fill="#000000">
+6s
</text>
<polyline fill="none" opacity="1" stroke="#000000" stroke-width="1" points="633,62 633,67 "/>
<text x="723" y="58" dy="-0.5ex" text-anchor="middle" font-family="sans-serif" font-size="9.67741935483871" opacity="1" fill="#000000">
+7s
</text>
<polyline fill="none" opacity="1" stroke="#000000" stroke-width="1" points="723,62 723,67 "/>
<text x="812" y="58" dy="-0.5ex" text-anchor="middle" font-family="sans-serif" font-size="9.67741935483871" opacity="1" fill="#000000">
+8s
</text>
<polyline fill="none" opacity="1" stroke="#000000" stroke-width="1" points="812,62 812,67 "/>
<text x="902" y="58" dy="-0.5ex" text-anchor="middle" font-family="sans-serif" font-size="9.67741935483871" opacity="1" fill="#000000">
+9s
</text>
<polyline fill="none" opacity="1" stroke="#000000" stroke-width="1" points="902,62 902,67 "/>
<rect x="83" y="73" width="99" height="30" opacity="0.75" fill="#FFFFFF" stroke="none"/>
<rect x="83" y="73" width="99" height="30" opacity="1" fill="none" stroke="#000000"/>
<text x="123" y="83" dy="0.76em" text-anchor="start" font-family="sans-serif" font-size="9.67741935483871" opacity="1" fill="#000000">
Temporary
</text>
<rect x="93" y="83" width="10" height="10" opacity="1" fill="#E6194B" stroke="none"/>
</svg>
