<svg width="1024" height="768" viewBox="0 0 1024 768" xmlns="http://www.w3.org/2000/svg">
<rect x="0" y="0" width="1023" height="767" opacity="1" fill="#FFFFFF" stroke="none"/>
<polygon opacity="1" fill="#E6194B" points="78,680 78,679 79,642 80,642 81,642 82,623 83,623 84,640 85,636 86,639 86,652 87,659 88,662 89,667 90,671 91,665 92,667 93,673 94,668 95,664 95,664 96,667 97,656 98,649 99,630 100,627 101,641 102,646 103,650 103,639 104,624 105,597 106,590 107,625 108,634 109,642 110,639 111,620 112,604 112,593 113,593 114,591 115,591 116,610 117,606 118,594 119,588 120,589 120,589 121,569 122,558 123,554 124,555 125,538 126,524 127,520 128,522 129,499 129,487 130,483 131,463 132,454 133,451 134,462 135,457 136,448 137,459 138,454 138,438 139,431 140,426 141,441 142,447 143,431 144,422 145,420 146,411 146,400 147,388 148,396 149,399 150,412 151,413 152,413 153,390 154,383 155,384 155,388 156,385 157,386 158,380 159,369 160,368 161,386 162,395 163,395 163,374 164,366 165,361 166,361 167,373 168,361 169,363 170,369 171,358 172,349 172,345 173,338 174,345 175,353 176,338 177,336 178,339 179,338 180,342 181,345 181,359 182,373 183,384 184,367 185,359 186,339 187,345 188,384 189,394 189,380 190,397 191,390 192,392 193,388 194,361 195,354 196,354 197,362 198,361 198,362 199,375 200,385 201,394 202,379 203,383 204,374 205,378 206,391 206,391 207,382 208,392 209,392 210,397 211,398 212,395 213,382 214,382 215,362 215,365 216,387 217,377 218,389 219,387 220,398 221,397 222,413 223,405 223,396 224,404 225,400 226,389 227,380 228,375 229,388 230,386 231,402 232,376 232,368 233,367 234,376 235,378 236,386 237,381 238,359 239,359 240,367 241,361 241,371 242,371 243,365 244,357 245,347 246,346 247,352 248,351 249,342 249,348 250,347 251,348 252,363 253,354 254,362 255,348 256,339 257,340 258,337 258,341 259,354 260,342 261,348 262,355 263,365 264,357 265,377 266,383 266,376 267,367 268,363 269,361 270,343 271,349 272,352 273,357 274,347 275,334 275,347 276,348 277,349 278,367 279,367 280,381 281,378 282,382 283,391 284,384 284,381 285,375 286,364 287,374 288,367 289,370 290,372 291,374 292,356 292,344 293,332 294,333 295,326 296,316 297,325 298,327 299,318 300,296 301,294 301,280 302,294 303,308 304,313 305,315 306,317 307,315 308,304 309,303 309,290 310,297 311,309 312,321 313,305 314,302 315,305 316,316 317,321 318,330 318,332 319,342 320,352 321,353 322,352 323,341 324,346 325,350 326,361 327,362 327,373 328,399 329,383 330,404 331,390 332,391 333,393 334,403 335,398 335,397 336,392 337,375 338,374 339,372 340,380 341,391 342,389 343,385 344,382 344,370 345,366 346,371 347,377 348,384 349,392 350,385 351,382 352,375 352,366 353,352 354,350 355,351 356,363 357,361 358,356 359,366 360,362 361,367 361,356 362,345 363,333 364,329 365,325 366,311 367,311 368,327 369,341 369,365 370,365 371,390 372,399 373,383 374,386 375,381 376,362 377,362 378,385 378,398 379,396 380,390 381,385 382,389 383,384 384,361 385,361 386,352 387,364 387,359 388,368 389,374 390,374 391,370 392,369 393,372 394,382 395,394 395,394 396,389 397,383 398,381 399,379 400,381 401,392 402,383 403,383 404,387 404,404 405,398 406,391 407,390 408,395 409,409 410,412 411,407 412,409 412,393 413,394 414,397 415,381 416,380 417,390 418,388 419,383 420,395 421,392 421,404 422,403 423,378 424,375 425,368 426,387 427,380 428,365 429,350 430,348 430,333 431,340 432,344 433,324 434,323 435,322 436,323 437,331 438,342 438,324 439,327 440,325 441,323 442,337 443,339 444,340 445,326 446,317 447,310 447,312 448,312 449,310 450,318 451,325 452,328 453,333 454,335 455,330 455,332 456,337 457,341 458,353 459,356 460,334 461,335 462,346 463,316 464,311 464,311 465,311 466,311 467,314 468,311 469,302 470,295 471,295 472,294 473,291 473,298 474,300 475,301 476,308 477,311 478,304 479,292 480,295 481,280 481,285 482,294 483,287 484,290 485,294 486,274 487,280 488,277 489,279 490,287 490,301 491,305 492,297 493,291 494,279 495,285 496,280 497,282 498,278 498,285 499,303 500,308 501,309 502,315 503,312 504,321 505,324 506,318 507,325 507,329 508,327 509,329 510,331 511,320 512,333 513,336 514,332 515,340 515,335 516,313 517,316 518,336 519,333 520,334 521,338 522,336 523,330 524,329 524,331 525,336 526,338 527,326 528,322 529,317 530,329 531,341 532,329 533,324 533,324 534,329 535,326 536,312 537,310 538,326 539,336 540,323 541,321 541,318 542,315 543,319 544,295 545,301 546,309 547,329 548,329 549,326 550,317 550,322 551,327 552,334 553,322 554,314 555,322 556,317 557,331 558,334 558,317 559,319 560,323 561,318 562,320 563,335 564,333 565,336 566,341 567,335 567,346 568,342 569,353 570,378 571,373 572,369 573,365 574,353 575,372 576,360 576,360 577,366 578,364 579,362 580,367 581,379 582,380 583,383 584,384 584,385 585,383 586,375 587,366 588,367 589,360 590,370 591,378 592,370 593,372 593,369 594,378 595,375 596,382 597,380 598,378 599,387 600,391 601,398 601,406 602,420 603,426 604,423 605,438 606,437 607,420 608,406 609,411 610,410 610,407 611,406 612,411 613,410 614,410 615,412 616,403 617,404 618,405 619,420 619,414 620,405 621,406 622,409 623,415 624,410 625,402 626,400 627,405 627,400 628,384 629,369 630,363 631,369 632,369 633,370 634,353 635,344 636,341 636,333 637,342 638,345 639,340 640,343 641,348 642,344 643,343 644,349 644,356 645,337 646,337 647,334 648,340 649,355 650,359 651,354 652,348 653,356 653,366 654,348 655,337 656,349 657,353 658,355 659,374 660,374 661,370 661,364 662,367 663,362 664,358 665,338 666,330 667,336 668,326 669,327 670,316 670,317 671,336 672,331 673,314 674,323 675,317 676,314 677,301 678,301 679,328 679,324 680,282 681,285 682,280 683,280 684,301 685,274 686,272 687,272 687,262 688,275 689,290 690,292 691,286 692,296 693,298 694,265 695,268 696,263 696,270 697,288 698,289 699,277 700,277 701,273 702,286 703,295 704,293 704,282 705,282 706,284 707,285 708,284 709,284 710,286 711,298 712,266 713,265 713,263 714,266 715,263 716,246 717,241 718,256 719,249 720,245 721,237 722,251 722,260 723,252 724,255 725,262 726,261 727,270 728,266 729,260 730,247 730,247 731,247 732,249 733,253 734,262 735,264 736,251 737,256 738,240 739,238 739,246 740,236 741,236 742,238 743,255 744,258 745,256 746,274 747,273 747,261 748,268 749,264 750,265 751,265 752,265 753,248 754,232 755,221 756,237 756,225 757,230 758,232 759,235 760,228 761,223 762,231 763,222 764,216 765,228 765,213 766,212 767,221 768,240 769,266 770,262 771,265 772,269 773,279 773,281 774,274 775,264 776,255 777,247 778,247 779,259 780,257 781,256 782,247 782,233 783,245 784,263 785,286 786,300 787,283 788,276 789,261 790,256 790,247 791,247 792,242 793,234 794,228 795,237 796,231 797,222 798,221 799,219 799,222 800,241 801,230 802,223 803,212 804,223 805,224 806,235 807,230 807,236 808,247 809,243 810,239 811,240 812,241 813,236 814,227 815,239 816,234 816,221 817,208 818,198 819,200 820,202 821,203 822,213 823,213 824,239 825,240 825,230 826,227 827,228 828,229 829,235 830,255 831,273 832,293 833,304 833,291 834,274 835,261 836,266 837,250 838,243 839,229 840,218 841,217 842,210 842,219 843,212 844,204 845,208 846,218 847,220 848,237 849,235 850,228 850,222 851,225 852,225 853,215 854,218 855,210 856,210 857,220 858,209 859,198 859,190 860,186 861,194 862,200 863,192 864,213 865,205 866,197 867,200 868,209 868,221 869,224 870,215 871,220 872,230 873,228 874,227 875,204 876,193 876,194 877,197 878,203 879,194 880,194 881,197 882,198 883,196 884,190 885,186 885,175 886,162 887,158 888,167 889,154 890,149 891,139 892,147 893,139 893,140 894,147 895,144 896,154 897,157 898,174 899,177 900,189 901,179 902,183 902,170 903,184 904,179 905,174 906,181 907,183 908,185 909,195 910,195 910,191 911,187 912,185 913,188 914,188 915,176 916,163 917,178 918,171 919,165 919,177 920,182 921,187 922,176 923,157 924,140 925,157 926,167 927,174 928,174 928,159 929,149 930,150 931,162 932,160 933,149 934,153 935,180 936,187 936,194 937,186 938,182 939,176 940,168 941,176 942,175 943,150 944,151 945,142 945,138 946,121 947,120 948,119 949,107 950,103 951,112 952,116 953,127 953,142 954,145 955,153 956,147 957,137 958,131 959,130 960,125 961,118 962,106 962,106 963,109 964,120 965,107 966,96 967,98 968,116 969,125 970,112 971,108 971,110 972,74 973,68 973,699 974,699 974,699 78,699 "/>
<polyline fill="none" opacity="1" stroke="#E6194B" stroke-width="1" points="78,680 78,679 79,642 80,642 81,642 82,623 83,623 84,640 85,636 86,639 86,652 87,659 88,662 89,667 90,671 91,665 92,667 93,673 94,668 95,664 95,664 96,667 97,656 98,649 99,630 100,627 101,641 102,646 103,650 103,639 104,624 105,597 106,590 107,625 108,634 109,642 110,639 111,620 112,604 112,593 113,593 114,591 115,591 116,610 117,606 118,594 119,588 120,589 120,589 121,569 122,558 123,554 124,555 125,538 126,524 127,520 128,522 129,499 129,487 130,483 131,463 132,454 133,451 134,462 135,457 136,448 137,459 138,454 138,438 139,431 140,426 141,441 142,447 143,431 144,422 145,420 146,411 146,400 147,388 148,396 149,399 150,412 151,413 152,413 153,390 154,383 155,384 155,388 156,385 157,386 158,380 159,369 160,368 161,386 162,395 163,395 163,374 164,366 165,361 166,361 167,373 168,361 169,363 170,369 171,358 172,349 172,345 173,338 174,345 175,353 176,338 177,336 178,339 179,338 180,342 181,345 181,359 182,373 183,384 184,367 185,359 186,339 187,345 188,384 189,394 189,380 190,397 191,390 192,392 193,388 194,361 195,354 196,354 197,362 198,361 198,362 199,375 200,385 201,394 202,379 203,383 204,374 205,378 206,391 206,391 207,382 208,392 209,392 210,397 211,398 212,395 213,382 214,382 215,362 215,365 216,387 217,377 218,389 219,387 220,398 221,397 222,413 223,405 223,396 224,404 225,400 226,389 227,380 228,375 229,388 230,386 231,402 232,376 232,368 233,367 234,376 235,378 236,386 237,381 238,359 239,359 240,367 241,361 241,371 242,371 243,365 244,357 245,347 246,346 247,352 248,351 249,342 249,348 250,347 251,348 252,363 253,354 254,362 255,348 256,339 257,340 258,337 258,341 259,354 260,342 261,348 262,355 263,365 264,357 265,377 266,383 266,376 267,367 268,363 269,361 270,343 271,349 272,352 273,357 274,347 275,334 275,347 276,348 277,349 278,367 279,367 280,381 281,378 282,382 283,391 284,384 284,381 285,375 286,364 287,374 288,367 289,370 290,372 291,374 292,356 292,344 293,332 294,333 295,326 296,316 297,325 298,327 299,318 300,296 301,294 301,280 302,294 303,308 304,313 305,315 306,317 307,315 308,304 309,303 309,290 310,297 311,309 312,321 313,305 314,302 315,305 316,316 317,321 318,330 318,332 319,342 320,352 321,353 322,352 323,341 324,346 325,350 326,361 327,362 327,373 328,399 329,383 330,404 331,390 332,391 333,393 334,403 335,398 335,397 336,392 337,375 338,374 339,372 340,380 341,391 342,389 343,385 344,382 344,370 345,366 346,371 347,377 348,384 349,392 350,385 351,382 352,375 352,366 353,352 354,350 355,351 356,363 357,361 358,356 359,366 360,362 361,367 361,356 362,345 363,333 364,329 365,325 366,311 367,311 368,327 369,341 369,365 370,365 371,390 372,399 373,383 374,386 375,381 376,362 377,362 378,385 378,398 379,396 380,390 381,385 382,389 383,384 384,361 385,361 386,352 387,364 387,359 388,368 389,374 390,374 391,370 392,369 393,372 394,382 395,394 395,394 396,389 397,383 398,381 399,379 400,381 401,392 402,383 403,383 404,387 404,404 405,398 406,391 407,390 408,395 409,409 410,412 411,407 412,409 412,393 413,394 414,397 415,381 416,380 417,390 418,388 419,383 420,395 421,392 421,404 422,403 423,378 424,375 425,368 426,387 427,380 428,365 429,350 430,348 430,333 431,340 432,344 433,324 434,323 435,322 436,323 437,331 438,342 438,324 439,327 440,325 441,323 442,337 443,339 444,340 445,326 446,317 447,310 447,312 448,312 449,310 450,318 451,325 452,328 453,333 454,335 455,330 455,332 456,337 457,341 458,353 459,356 460,334 461,335 462,346 463,316 464,311 464,311 465,311 466,311 467,314 468,311 469,302 470,295 471,295 472,294 473,291 473,298 474,300 475,301 476,308 477,311 478,304 479,292 480,295 481,280 481,285 482,294 483,287 484,290 485,294 486,274 487,280 488,277 489,279 490,287 490,301 491,305 492,297 493,291 494,279 495,285 496,280 497,282 498,278 498,285 499,303 500,308 501,309 502,315 503,312 504,321 505,324 506,318 507,325 507,329 508,327 509,329 510,331 511,320 512,333 513,336 514,332 515,340 515,335 516,313 517,316 518,336 519,333 520,334 521,338 522,336 523,330 524,329 524,331 525,336 526,338 527,326 528,322 529,317 530,329 531,341 532,329 533,324 533,324 534,329 535,326 536,312 537,310 538,326 539,336 540,323 541,321 541,318 542,315 543,319 544,295 545,301 546,309 547,329 548,329 549,326 550,317 550,322 551,327 552,334 553,322 554,314 555,322 556,317 557,331 558,334 558,317 559,319 560,323 561,318 562,320 563,335 564,333 565,336 566,341 567,335 567,346 568,342 569,353 570,378 571,373 572,369 573,365 574,353 575,372 576,360 576,360 577,366 578,364 579,362 580,367 581,379 582,380 583,383 584,384 584,385 585,383 586,375 587,366 588,367 589,360 590,370 591,378 592,370 593,372 593,369 594,378 595,375 596,382 597,380 598,378 599,387 600,391 601,398 601,406 602,420 603,426 604,423 605,438 606,437 607,420 608,406 609,411 610,410 610,407 611,406 612,411 613,410 614,410 615,412 616,403 617,404 618,405 619,420 619,414 620,405 621,406 622,409 623,415 624,410 625,402 626,400 627,405 627,400 628,384 629,369 630,363 631,369 632,369 633,370 634,353 635,344 636,341 636,333 637,342 638,345 639,340 640,343 641,348 642,344 643,343 644,349 644,356 645,337 646,337 647,334 648,340 649,355 650,359 651,354 652,348 653,356 653,366 654,348 655,337 656,349 657,353 658,355 659,374 660,374 661,370 661,364 662,367 663,362 664,358 665,338 666,330 667,336 668,326 669,327 670,316 670,317 671,336 672,331 673,314 674,323 675,317 676,314 677,301 678,301 679,328 679,324 680,282 681,285 682,280 683,280 684,301 685,274 686,272 687,272 687,262 688,275 689,290 690,292 691,286 692,296 693,298 694,265 695,268 696,263 696,270 697,288 698,289 699,277 700,277 701,273 702,286 703,295 704,293 704,282 705,282 706,284 707,285 708,284 709,284 710,286 711,298 712,266 713,265 713,263 714,266 715,263 716,246 717,241 718,256 719,249 720,245 721,237 722,251 722,260 723,252 724,255 725,262 726,261 727,270 728,266 729,260 730,247 730,247 731,247 732,249 733,253 734,262 735,264 736,251 737,256 738,240 739,238 739,246 740,236 741,236 742,238 743,255 744,258 745,256 746,274 747,273 747,261 748,268 749,264 750,265 751,265 752,265 753,248 754,232 755,221 756,237 756,225 757,230 758,232 759,235 760,228 761,223 762,231 763,222 764,216 765,228 765,213 766,212 767,221 768,240 769,266 770,262 771,265 772,269 773,279 773,281 774,274 775,264 776,255 777,247 778,247 779,259 780,257 781,256 782,247 782,233 783,245 784,263 785,286 786,300 787,283 788,276 789,261 790,256 790,247 791,247 792,242 793,234 794,228 795,237 796,231 797,222 798,221 799,219 799,222 800,241 801,230 802,223 803,212 804,223 805,224 806,235 807,230 807,236 808,247 809,243 810,239 811,240 812,241 813,236 814,227 815,239 816,234 816,221 817,208 818,198 819,200 820,202 821,203 822,213 823,213 824,239 825,240 825,230 826,227 827,228 828,229 829,235 830,255 831,273 832,293 833,304 833,291 834,274 835,261 836,266 837,250 838,243 839,229 840,218 841,217 842,210 842,219 843,212 844,204 845,208 846,218 847,220 848,237 849,235 850,228 850,222 851,225 852,225 853,215 854,218 855,210 856,210 857,220 858,209 859,198 859,190 860,186 861,194 862,200 863,192 864,213 865,205 866,197 867,200 868,209 868,221 869,224 870,215 871,220 872,230 873,228 874,227 875,204 876,193 876,194 877,197 878,203 879,194 880,194 881,197 882,198 883,196 884,190 885,186 885,175 886,162 887,158 888,167 889,154 890,149 891,139 892,147 893,139 893,140 894,147 895,144 896,154 897,157 898,174 899,177 900,189 901,179 902,183 902,170 903,184 904,179 905,174 906,181 907,183 908,185 909,195 910,195 910,191 911,187 912,185 913,188 914,188 915,176 916,163 917,178 918,171 919,165 919,177 920,182 921,187 922,176 923,157 924,140 925,157 926,167 927,174 928,174 928,159 929,149 930,150 931,162 932,160 933,149 934,153 935,180 936,187 936,194 937,186 938,182 939,176 940,168 941,176 942,175 943,150 944,151 945,142 945,138 946,121 947,120 948,119 949,107 950,103 951,112 952,116 953,127 953,142 954,145 955,153 956,147 957,137 958,131 959,130 960,125 961,118 962,106 962,106 963,109 964,120 965,107 966,96 967,98 968,116 969,125 970,112 971,108 971,110 972,74 973,68 973,699 974,699 "/>
<line opacity="0.1" stroke="#000000" stroke-width="1" x1="83" y1="699" x2="83" y2="67"/>
<line opacity="0.1" stroke="#000000" stroke-width="1" x1="92" y1="699" x2="92" y2="67"/>
<line opacity="0.1" stroke="#000000" stroke-width="1" x1="101" y1="699" x2="101" y2="67"/>
<line opacity="0.1" stroke="#000000" stroke-width="1" x1="111" y1="699" x2="111" y2="67"/>
<line opacity="0.1" stroke="#000000" stroke-width="1" x1="120" y1="699" x2="120" y2="67"/>
<line opacity="0.1" stroke="#000000" stroke-width="1" x1="129" y1="699" x2="129" y2="67"/>
<line opacity="0.1" stroke="#000000" stroke-width="1" x1="138" y1="699" x2="138" y2="67"/>
<line opacity="0.1" stroke="#000000" stroke-width="1" x1="148" y1="699" x2="148" y2="67"/>
<line opacity="0.1" stroke="#000000" stroke-width="1" x1="157" y1="699" x2="157" y2="67"/>
<line opacity="0.1" stroke="#000000" stroke-width="1" x1="166" y1="699" x2="166" y2="67"/>
<line opacity="0.1" stroke="#000000" stroke-width="1" x1="175" y1="699" x2="175" y2="67"/>
<line opacity="0.1" stroke="#000000" stroke-width="1" x1="185" y1="699" x2="185" y2="67"/>
<line opacity="0.1" stroke="#000000" stroke-width="1" x1="194" y1="699" x2="194" y2="67"/>
<line opacity="0.1" stroke="#000000" stroke-width="1" x1="203" y1="699" x2="203" y2="67"/>
<line opacity="0.1" stroke="#000000" stroke-width="1" x1="212" y1="699" x2="212" y2="67"/>
<line opacity="0.1" stroke="#000000" stroke-width="1" x1="222" y1="699" x2="222" y2="67"/>
<line opacity="0.1" stroke="#000000" stroke-width="1" x1="231" y1="699" x2="231" y2="67"/>
<line opacity="0.1" stroke="#000000" stroke-width="1" x1="240" y1="699" x2="240" y2="67"/>
<line opacity="0.1" stroke="#000000" stroke-width="1" x1="249" y1="699" x2="249" y2="67"/>
<line opacity="0.1" stroke="#000000" stroke-width="1" x1="259" y1="699" x2="259" y2="67"/>
<line opacity="0.1" stroke="#000000" stroke-width="1" x1="268" y1="699" x2="268" y2="67"/>
<line opacity="0.1" stroke="#000000" stroke-width="1" x1="277" y1="699" x2="277" y2="67"/>
<line opacity="0.1" stroke="#000000" stroke-width="1" x1="286" y1="699" x2="286" y2="67"/>
<line opacity="0.1" stroke="#000000" stroke-width="1" x1="296" y1="699" x2="296" y2="67"/>
<line opacity="0.1" stroke="#000000" stroke-width="1" x1="305" y1="699" x2="305" y2="67"/>
<line opacity="0.1" stroke="#000000" stroke-width="1" x1="314" y1="699" x2="314" y2="67"/>
<line opacity="0.1" stroke="#000000" stroke-width="1" x1="323" y1="699" x2="323" y2="67"/>
<line opacity="0.1" stroke="#000000" stroke-width="1" x1="333" y1="699" x2="333" y2="67"/>
<line opacity="0.1" stroke="#000000" stroke-width="1" x1="342" y1="699" x2="342" y2="67"/>
<line opacity="0.1" stroke="#000000" stroke-width="1" x1="351" y1="699" x2="351" y2="67"/>
<line opacity="0.1" stroke="#000000" stroke-width="1" x1="361" y1="699" x2="361" y2="67"/>
<line opacity="0.1" stroke="#000000" stroke-width="1" x1="370" y1="699" x2="370" y2="67"/>
<line opacity="0.1" stroke="#000000" stroke-width="1" x1="379" y1="699" x2="379" y2="67"/>
<line opacity="0.1" stroke="#000000" stroke-width="1" x1="388" y1="699" x2="388" y2="67"/>
<line opacity="0.1" stroke="#000000" stroke-width="1" x1="398" y1="699" x2="398" y2="67"/>
<line opacity="0.1" stroke="#000000" stroke-width="1" x1="407" y1="699" x2="407" y2="67"/>
<line opacity="0.1" stroke="#000000" stroke-width="1" x1="416" y1="699" x2="416" y2="67"/>
<line opacity="0.1" stroke="#000000" stroke-width="1" x1="425" y1="699" x2="425" y2="67"/>
<line opacity="0.1" stroke="#000000" stroke-width="1" x1="435" y1="699" x2="435" y2="67"/>
<line opacity="0.1" stroke="#000000" stroke-width="1" x1="444" y1="699" x2="444" y2="67"/>
<line opacity="0.1" stroke="#000000" stroke-width="1" x1="453" y1="699" x2="453" y2="67"/>
<line opacity="0.1" stroke="#000000" stroke-width="1" x1="462" y1="699" x2="462" y2="67"/>
<line opacity="0.1" stroke="#000000" stroke-width="1" x1="472" y1="699" x2="472" y2="67"/>
<line opacity="0.1" stroke="#000000" stroke-width="1" x1="481" y1="699" x2="481" y2="67"/>
<line opacity="0.1" stroke="#000000" stroke-width="1" x1="490" y1="699" x2="490" y2="67"/>
<line opacity="0.1" stroke="#000000" stroke-width="1" x1="499" y1="699" x2="499" y2="67"/>
<line opacity="0.1" stroke="#000000" stroke-width="1" x1="509" y1="699" x2="509" y2="67"/>
<line opacity="0.1" stroke="#000000" stroke-width="1" x1="518" y1="699" x2="518" y2="67"/>
<line opacity="0.1" stroke="#000000" stroke-width="1" x1="527" y1="699" x2="527" y2="67"/>
<line opacity="0.1" stroke="#000000" stroke-width="1" x1="536" y1="699" x2="536" y2="67"/>
<line opacity="0.1" stroke="#000000" stroke-width="1" x1="546" y1="699" x2="546" y2="67"/>
<line opacity="0.1" stroke="#000000" stroke-width="1" x1="555" y1="699" x2="555" y2="67"/>
<line opacity="0.1" stroke="#000000" stroke-width="1" x1="564" y1="699" x2="564" y2="67"/>
<line opacity="0.1" stroke="#000000" stroke-width="1" x1="573" y1="699" x2="573" y2="67"/>
<line opacity="0.1" stroke="#000000" stroke-width="1" x1="583" y1="699" x2="583" y2="67"/>
<line opacity="0.1" stroke="#000000" stroke-width="1" x1="592" y1="699" x2="592" y2="67"/>
<line opacity="0.1" stroke="#000000" stroke-width="1" x1="601" y1="699" x2="601" y2="67"/>
<line opacity="0.1" stroke="#000000" stroke-width="1" x1="611" y1="699" x2="611" y2="67"/>
<line opacity="0.1" stroke="#000000" stroke-width="1" x1="620" y1="699" x2="620" y2="67"/>
<line opacity="0.1" stroke="#000000" stroke-width="1" x1="629" y1="699" x2="629" y2="67"/>
<line opacity="0.1" stroke="#000000" stroke-width="1" x1="638" y1="699" x2="638" y2="67"/>
<line opacity="0.1" stroke="#000000" stroke-width="1" x1="648" y1="699" x2="648" y2="67"/>
<line opacity="0.1" stroke="#000000" stroke-width="1" x1="657" y1="699" x2="657" y2="67"/>
<line opacity="0.1" stroke="#000000" stroke-width="1" x1="666" y1="699" x2="666" y2="67"/>
<line opacity="0.1" stroke="#000000" stroke-width="1" x1="675" y1="699" x2="675" y2="67"/>
<line opacity="0.1" stroke="#000000" stroke-width="1" x1="685" y1="699" x2="685" y2="67"/>
<line opacity="0.1" stroke="#000000" stroke-width="1" x1="694" y1="699" x2="694" y2="67"/>
<line opacity="0.1" stroke="#000000" stroke-width="1" x1="703" y1="699" x2="703" y2="67"/>
<line opacity="0.1" stroke="#000000" stroke-width="1" x1="712" y1="699" x2="712" y2="67"/>
<line opacity="0.1" stroke="#000000" stroke-width="1" x1="722" y1="699" x2="722" y2="67"/>
<line opacity="0.1" stroke="#000000" stroke-width="1" x1="731" y1="699" x2="731" y2="67"/>
<line opacity="0.1" stroke="#000000" stroke-width="1" x1="740" y1="699" x2="740" y2="67"/>
<line opacity="0.1" stroke="#000000" stroke-width="1" x1="749" y1="699" x2="749" y2="67"/>
<line opacity="0.1" stroke="#000000" stroke-width="1" x1="759" y1="699" x2="759" y2="67"/>
<line opacity="0.1" stroke="#000000" stroke-width="1" x1="768" y1="699" x2="768" y2="67"/>
<line opacity="0.1" stroke="#000000" stroke-width="1" x1="777" y1="699" x2="777" y2="67"/>
<line opacity="0.1" stroke="#000000" stroke-width="1" x1="786" y1="699" x2="786" y2="67"/>
<line opacity="0.1" stroke="#000000" stroke-width="1" x1="796" y1="699" x2="796" y2="67"/>
<line opacity="0.1" stroke="#000000" stroke-width="1" x1="805" y1="699" x2="805" y2="67"/>
<line opacity="0.1" stroke="#000000" stroke-width="1" x1="814" y1="699" x2="814" y2="67"/>
<line opacity="0.1" stroke="#000000" stroke-width="1" x1="824" y1="699" x2="824" y2="67"/>
<line opacity="0.1" stroke="#000000" stroke-width="1" x1="833" y1="699" x2="833" y2="67"/>
<line opacity="0.1" stroke="#000000" stroke-width="1" x1="842" y1="699" x2="842" y2="67"/>
<line opacity="0.1" stroke="#000000" stroke-width="1" x1="851" y1="699" x2="851" y2="67"/>
<line opacity="0.1" stroke="#000000" stroke-width="1" x1="861" y1="699" x2="861" y2="67"/>
<line opacity="0.1" stroke="#000000" stroke-width="1" x1="870" y1="699" x2="870" y2="67"/>
<line opacity="0.1" stroke="#000000" stroke-width="1" x1="879" y1="699" x2="879" y2="67"/>
<line opacity="0.1" stroke="#000000" stroke-width="1" x1="888" y1="699" x2="888" y2="67"/>
<line opacity="0.1" stroke="#000000" stroke-width="1" x1="898" y1="699" x2="898" y2="67"/>
<line opacity="0.1" stroke="#000000" stroke-width="1" x1="907" y1="699" x2="907" y2="67"/>
<line opacity="0.1" stroke="#000000" stroke-width="1" x1="916" y1="699" x2="916" y2="67"/>
<line opacity="0.1" stroke="#000000" stroke-width="1" x1="925" y1="699" x2="925" y2="67"/>
<line opacity="0.1" stroke="#000000" stroke-width="1" x1="935" y1="699" x2="935" y2="67"/>
<line opacity="0.1" stroke="#000000" stroke-width="1" x1="944" y1="699" x2="944" y2="67"/>
<line opacity="0.1" stroke="#000000" stroke-width="1" x1="953" y1="699" x2="953" y2="67"/>
<line opacity="0.1" stroke="#000000" stroke-width="1" x1="962" y1="699" x2="962" y2="67"/>
<line opacity="0.1" stroke="#000000" stroke-width="1" x1="972" y1="699" x2="972" y2="67"/>
<line opacity="0.1" stroke="#000000" stroke-width="1" x1="78" y1="699" x2="974" y2="699"/>
<line opacity="0.1" stroke="#000000" stroke-width="1" x1="78" y1="688" x2="974" y2="688"/>
<line opacity="0.1" stroke="#000000" stroke-width="1" x1="78" y1="678" x2="974" y2="678"/>
<line opacity="0.1" stroke="#000000" stroke-width="1" x1="78" y1="667" x2="974" y2="667"/>
<line opacity="0.1" stroke="#000000" stroke-width="1" x1="78" y1="657" x2="974" y2="657"/>
<line opacity="0.1" stroke="#000000" stroke-width="1" x1="78" y1="646" x2="974" y2="646"/>
<line opacity="0.1" stroke="#000000" stroke-width="1" x1="78" y1="636" x2="974" y2="636"/>
<line opacity="0.1" stroke="#000000" stroke-width="1" x1="78" y1="625" x2="974" y2="625"/>
<line opacity="0.1" stroke="#000000" stroke-width="1" x1="78" y1="615" x2="974" y2="615"/>
<line opacity="0.1" stroke="#000000" stroke-width="1" x1="78" y1="604" x2="974" y2="604"/>
<line opacity="0.1" stroke="#000000" stroke-width="1" x1="78" y1="594" x2="974" y2="594"/>
<line opacity="0.1" stroke="#000000" stroke-width="1" x1="78" y1="583" x2="974" y2="583"/>
<line opacity="0.1" stroke="#000000" stroke-width="1" x1="78" y1="573" x2="974" y2="573"/>
<line opacity="0.1" stroke="#000000" stroke-width="1" x1="78" y1="562" x2="974" y2="562"/>
<line opacity="0.1" stroke="#000000" stroke-width="1" x1="78" y1="552" x2="974" y2="552"/>
<line opacity="0.1" stroke="#000000" stroke-width="1" x1="78" y1="541" x2="974" y2="541"/>
<line opacity="0.1" stroke="#000000" stroke-width="1" x1="78" y1="531" x2="974" y2="531"/>
<line opacity="0.1" stroke="#000000" stroke-width="1" x1="78" y1="521" x2="974" y2="521"/>
<line opacity="0.1" stroke="#000000" stroke-width="1" x1="78" y1="510" x2="974" y2="510"/>
<line opacity="0.1" stroke="#000000" stroke-width="1" x1="78" y1="500" x2="974" y2="500"/>
<line opacity="0.1" stroke="#000000" stroke-width="1" x1="78" y1="489" x2="974" y2="489"/>
<line opacity="0.1" stroke="#000000" stroke-width="1" x1="78" y1="479" x2="974" y2="479"/>
<line opacity="0.1" stroke="#000000" stroke-width="1" x1="78" y1="468" x2="974" y2="468"/>
<line opacity="0.1" stroke="#000000" stroke-width="1" x1="78" y1="458" x2="974" y2="458"/>
<line opacity="0.1" stroke="#000000" stroke-width="1" x1="78" y1="447" x2="974" y2="447"/>
<line opacity="0.1" stroke="#000000" stroke-width="1" x1="78" y1="437" x2="974" y2="437"/>
<line opacity="0.1" stroke="#000000" stroke-width="1" x1="78" y1="426" x2="974" y2="426"/>
<line opacity="0.1" stroke="#000000" stroke-width="1" x1="78" y1="416" x2="974" y2="416"/>
<line opacity="0.1" stroke="#000000" stroke-width="1" x1="78" y1="405" x2="974" y2="405"/>
<line opacity="0.1" stroke="#000000" stroke-width="1" x1="78" y1="395" x2="974" y2="395"/>
<line opacity="0.1" stroke="#000000" stroke-width="1" x1="78" y1="384" x2="974" y2="384"/>
<line opacity="0.1" stroke="#000000" stroke-width="1" x1="78" y1="374" x2="974" y2="374"/>
<line opacity="0.1" stroke="#000000" stroke-width="1" x1="78" y1="364" x2="974" y2="364"/>
<line opacity="0.1" stroke="#000000" stroke-width="1" x1="78" y1="353" x2="974" y2="353"/>
<line opacity="0.1" stroke="#000000" stroke-width="1" x1="78" y1="343" x2="974" y2="343"/>
<line opacity="0.1" stroke="#000000" stroke-width="1" x1="78" y1="332" x2="974" y2="332"/>
<line opacity="0.1" stroke="#000000" stroke-width="1" x1="78" y1="322" x2="974" y2="322"/>
<line opacity="0.1" stroke="#000000" stroke-width="1" x1="78" y1="311" x2="974" y2="311"/>
<line opacity="0.1" stroke="#000000" stroke-width="1" x1="78" y1="301" x2="974" y2="301"/>
<line opacity="0.1" stroke="#000000" stroke-width="1" x1="78" y1="290" x2="974" y2="290"/>
<line opacity="0.1" stroke="#000000" stroke-width="1" x1="78" y1="280" x2="974" y2="280"/>
<line opacity="0.1" stroke="#000000" stroke-width="1" x1="78" y1="269" x2="974" y2="269"/>
<line opacity="0.1" stroke="#000000" stroke-width="1" x1="78" y1="259" x2="974" y2="259"/>
<line opacity="0.1" stroke="#000000" stroke-width="1" x1="78" y1="248" x2="974" y2="248"/>
<line opacity="0.1" stroke="#000000" stroke-width="1" x1="78" y1="238" x2="974" y2="238"/>
<line opacity="0.1" stroke="#000000" stroke-width="1" x1="78" y1="227" x2="974" y2="227"/>
<line opacity="0.1" stroke="#000000" stroke-width="1" x1="78" y1="217" x2="974" y2="217"/>
<line opacity="0.1" stroke="#000000" stroke-width="1" x1="78" y1="207" x2="974" y2="207"/>
<line opacity="0.1" stroke="#000000" stroke-width="1" x1="78" y1="196" x2="974" y2="196"/>
<line opacity="0.1" stroke="#000000" stroke-width="1" x1="78" y1="186" x2="974" y2="186"/>
<line opacity="0.1" stroke="#000000" stroke-width="1" x1="78" y1="175" x2="974" y2="175"/>
<line opacity="0.1" stroke="#000000" stroke-width="1" x1="78" y1="165" x2="974" y2="165"/>
<line opacity="0.1" stroke="#000000" stroke-width="1" x1="78" y1="154" x2="974" y2="154"/>
<line opacity="0.1" stroke="#000000" stroke-width="1" x1="78" y1="144" x2="974" y2="144"/>
<line opacity="0.1" stroke="#000000" stroke-width="1" x1="78" y1="133" x2="974" y2="133"/>
<line opacity="0.1" stroke="#000000" stroke-width="1" x1="78" y1="123" x2="974" y2="123"/>
<line opacity="0.1" stroke="#000000" stroke-width="1" x1="78" y1="112" x2="974" y2="112"/>
<line opacity="0.1" stroke="#000000" stroke-width="1" x1="78" y1="102" x2="974" y2="102"/>
<line opacity="0.1" stroke="#000000" stroke-width="1" x1="78" y1="91" x2="974" y2="91"/>
<line opacity="0.1" stroke="#000000" stroke-width="1" x1="78" y1="81" x2="974" y2="81"/>
<line opacity="0.1" stroke="#000000" stroke-width="1" x1="78" y1="70" x2="974" y2="70"/>
<text x="8" y="384" dy="0.76em" text-anchor="middle" font-family="sans-serif" font-size="9.67741935483871" opacity="1" fill="#000000" transform="rotate(270, 8, 384)">
Memory usage
</text>
<text x="526" y="760" dy="-0.5ex" text-anchor="middle" font-family="sans-serif" font-size="9.67741935483871" opacity="1" fill="#000000">
Time
</text>
<line opacity="0.2" stroke="#000000" stroke-width="1" x1="166" y1="699" x2="166" y2="67"/>
<line opacity="0.2" stroke="#000000" stroke-width="1" x1="259" y1="699" x2="259" y2="67"/>
<line opacity="0.2" stroke="#000000" stroke-width="1" x1="351" y1="699" x2="351" y2="67"/>
<line opacity="0.2" stroke="#000000" stroke-width="1" x1="444" y1="699" x2="444" y2="67"/>
<line opacity="0.2" stroke="#000000" stroke-width="1" x1="536" y1="699" x2="536" y2="67"/>
<line opacity="0.2" stroke="#000000" stroke-width="1" x1="629" y1="699" x2="629" y2="67"/>
<line opacity="0.2" stroke="#000000" stroke-width="1" x1="722" y1="699" x2="722" y2="67"/>
<line opacity="0.2" stroke="#000000" stroke-width="1" x1="814" y1="699" x2="814" y2="67"/>
<line opacity="0.2" stroke="#000000" stroke-width="1" x1="907" y1="699" x2="907" y2="67"/>
<line opacity="0.2" stroke="#000000" stroke-width="1" x1="78" y1="699" x2="974" y2="699"/>
<line opacity="0.2" stroke="#000000" stroke-width="1" x1="78" y1="594" x2="974" y2="594"/>
<line opacity="0.2" stroke="#000000" stroke-width="1" x1="78" y1="489" x2="974" y2="489"/>
<line opacity="0.2" stroke="#000000" stroke-width="1" x1="78" y1="384" x2="974" y2="384"/>
<line opacity="0.2" stroke="#000000" stroke-width="1" x1="78" y1="280" x2="974" y2="280"/>
<line opacity="0.2" stroke="#000000" stroke-width="1" x1="78" y1="175" x2="974" y2="175"/>
<line opacity="0.2" stroke="#000000" stroke-width="1" x1="78" y1="70" x2="974" y2="70"/>
<polyline fill="none" opacity="1" stroke="#000000" stroke-width="1" points="77,68 77,700 "/>
<text x="68" y="699" dy="0.5ex" text-anchor="end" font-family="sans-serif" font-size="9.67741935483871" opacity="1" fill="#000000">
0 KB
</text>
<polyline fill="none" opacity="1" stroke="#000000" stroke-width="1" points="72,699 77,699 "/>
<text x="68" y="594" dy="0.5ex" text-anchor="end" font-family="sans-serif" font-size="9.67741935483871" opacity="1" fill="#000000">
97 KB
</text>
<polyline fill="none" opacity="1" stroke="#000000" stroke-width="1" points="72,594 77,594 "/>
<text x="68" y="489" dy="0.5ex" text-anchor="end" font-family="sans-serif" font-size="9.67741935483871" opacity="1" fill="#000000">
195 KB
</text>
<polyline fill="none" opacity="1" stroke="#000000" stroke-width="1" points="72,489 77,489 "/>
<text x="68" y="384" dy="0.5ex" text-anchor="end" font-family="sans-serif" font-size="9.67741935483871" opacity="1" fill="#000000">
292 KB
</text>
<polyline fill="none" opacity="1" stroke="#000000" stroke-width="1" points="72,384 77,384 "/>
<text x="68" y="280" dy="0.5ex" text-anchor="end" font-family="sans-serif" font-size="9.67741935483871" opacity="1" fill="#000000">
390 KB
</text>
<polyline fill="none" opacity="1" stroke="#000000" stroke-width="1" points="72,280 77,280 "/>
<text x="68" y="175" dy="0.5ex" text-anchor="end" font-family="sans-serif" font-size="9.67741935483871" opacity="1" fill="#000000">
488 KB
</text>
<polyline fill="none" opacity="1" stroke="#000000" stroke-width="1" points="72,175 77,175 "/>
<text x="68" y="70" dy="0.5ex" text-anchor="end" font-family="sans-serif" font-size="9.67741935483871" opacity="1" fill="#000000">
585 KB
</text>
<polyline fill="none" opacity="1" stroke="#000000" stroke-width="1" points="72,70 77,70 "/>
<polyline fill="none" opacity="1" stroke="#000000" stroke-width="1" points="78,700 974,700 "/>
<text x="166" y="710" dy="0.76em" text-anchor="middle" font-family="sans-serif" font-size="9.67741935483871" opacity="1" fill="#000000">
06:26:08
</text>
<polyline fill="none" opacity="1" stroke="#000000" stroke-width="1" points="166,700 166,705 "/>
<text x="259" y="710" dy="0.76em" text-anchor="middle" font-family="sans-serif" font-size="9.67741935483871" opacity="1" fill="#000000">
06:26:09
</text>
<polyline fill="none" opacity="1" stroke="#000000" stroke-width="1" points="259,700 259,705 "/>
<text x="351" y="710" dy="0.76em" text-anchor="middle" font-family="sans-serif" font-size="9.67741935483871" opacity="1" fill="#000000">
06:26:10
</text>
<polyline fill="none" opacity="1" stroke="#000000" stroke-width="1" points="351,700 351,705 "/>
<text x="444" y="710" dy="0.76em" text-anchor="middle" font-family="sans-serif" font-size="9.67741935483871" opacity="1" fill="#000000">
06:26:11
</text>
<polyline fill="none" opacity="1" stroke="#000000" stroke-width="1" points="444,700 444,705 "/>
<text x="536" y="710" dy="0.76em" text-anchor="middle" font-family="sans-serif" font-size="9.67741935483871" opacity="1" fill="#000000">
06:26:12
</text>
<polyline fill="none" opacity="1" stroke="#000000" stroke-width="1" points="536,700 536,705 "/>
<text x="629" y="710" dy="0.76em" text-anchor="middle" font-family="sans-serif" font-size="9.67741935483871" opacity="1" fill="#000000">
06:26:13
</text>
<polyline fill="none" opacity="1" stroke="#000000" stroke-width="1" points="629,700 629,705 "/>
<text x="722" y="710" dy="0.76em" text-anchor="middle" font-family="sans-serif" font-size="9.67741935483871" opacity="1" fill="#000000">
06:26:14
</text>
<polyline fill="none" opacity="1" stroke="#000000" stroke-width="1" points="722,700 722,705 "/>
<text x="814" y="710" dy="0.76em" text-anchor="middle" font-family="sans-serif" font-size="9.67741935483871" opacity="1" fill="#000000">
06:26:15
</text>
<polyline fill="none" opacity="1" stroke="#000000" stroke-width="1" points="814,700 814,705 "/>
<text x="907" y="710" dy="0.76em" text-anchor="middle" font-family="sans-serif" font-size="9.67741935483871" opacity="1" fill="#000000">
06:26:16
</text>
<polyline fill="none" opacity="1" stroke="#000000" stroke-width="1" points="907,700 907,705 "/>
<polyline fill="none" opacity="1" stroke="#000000" stroke-width="1" points="78,67 974,67 "/>
<text x="166" y="58" dy="-0.5ex" text-anchor="middle" font-family="sans-serif" font-size="9.67741935483871" opacity="1" fill="#000000">
+956ms
</text>
<polyline fill="none" opacity="1" stroke="#000000" stroke-width="1" points="166,62 166,67 "/>
<text x="259" y="58" dy="-0.5ex" text-anchor="middle" font-family="sans-serif" font-size="9.67741935483871" opacity="1" fill="#000000">
+1s
</text>
<polyline fill="none" opacity="1" stroke="#000000" stroke-width="1" points="259,62 259,67 "/>
<text x="351" y="58" dy="-0.5ex" text-anchor="middle" font-family="sans-serif" font-size="9.67741935483871" opacity="1" fill="#000000">
+2s
</text>
<polyline fill="none" opacity="1" stroke="#000000" stroke-width="1" points="351,62 351,67 "/>
<text x="444" y="58" dy="-0.5ex" text-anchor="middle" font-family="sans-serif" font-size="9.67741935483871" opacity="1" fill="#000000">
+3s
</text>
<polyline fill="none" opacity="1" stroke="#000000" stroke-width="1" points="444,62 444,67 "/>
<text x="536" y="58" dy="-0.5ex" text-anchor="middle" font-family="sans-serif" font-size="9.67741935483871" opacity="1" fill="#000000">
+4s
</text>
<polyline fill="none" opacity="1" stroke="#000000" stroke-width="1" points="536,62 536,67 "/>
<text x="629" y="58" dy="-0.5ex" text-anchor="middle" font-family="sans-serif" font-size="9.67741935483871" opacity="1" fill="#000000">
+5s
</text>
<polyline fill="none" opacity="1" stroke="#000000" stroke-width="1" points="629,62 629,67 "/>
<text x="722" y="58" dy="-0.5ex" text-anchor="middle" font-family="sans-serif" font-size="9.67741935483871" opacity="1" fill="#000000">
+6s
</text>
<polyline fill="none" opacity="1" stroke="#000000" stroke-width="1" points="722,62 722,67 "/>
<text x="814" y="58" dy="-0.5ex" text-anchor="middle" font-family="sans-serif" font-size="9.67741935483871" opacity="1" fill="#000000">
+7s
</text>
<polyline fill="none" opacity="1" stroke="#000000" stroke-width="1" points="814,62 814,67 "/>
<text x="907" y="58" dy="-0.5ex" text-anchor="middle" font-family="sans-serif" font-size="9.67741935483871" opacity="1" fill="#000000">
+8s
</text>
<polyline fill="none" opacity="1" stroke="#000000" stroke-width="1" points="907,62 907,67 "/>
<rect x="83" y="73" width="99" height="30" opacity="0.75" fill="#FFFFFF" stroke="none"/>
<rect x="83" y="73" width="99" height="30" opacity="1" fill="none" stroke="#000000"/>
<text x="123" y="83" dy="0.76em" text-anchor="start" font-family="sans-serif" font-size="9.67741935483871" opacity="1" fill="#000000">
Temporary
</text>
<rect x="93" y="83" width="10" height="10" opacity="1" fill="#E6194B" stroke="none"/>
</svg>
