<svg width="1024" height="768" viewBox="0 0 1024 768" xmlns="http://www.w3.org/2000/svg">
<rect x="0" y="0" width="1024" height="768" opacity="1" fill="#FFFFFF" stroke="none"/>
<polygon opacity="1" fill="#3CB44B" points="83,698 83,698 84,698 85,698 86,698 87,698 88,698 89,698 90,698 91,698 91,698 92,698 93,698 94,698 95,698 96,698 97,698 98,698 99,698 99,698 100,698 101,698 102,698 103,698 104,698 105,698 106,698 107,698 107,698 108,698 109,698 110,698 111,698 112,698 113,698 114,698 115,698 115,698 116,698 117,698 118,698 119,698 120,698 121,698 122,698 123,698 123,698 124,698 125,698 126,698 127,698 128,698 129,698 130,698 131,698 131,698 132,698 133,698 134,698 135,698 136,698 137,698 138,698 139,698 139,698 140,698 141,698 142,698 143,698 144,698 145,698 146,698 147,698 147,698 148,698 149,698 150,698 151,698 152,698 153,698 154,698 155,698 155,698 156,698 157,698 158,698 159,698 160,698 161,698 162,698 163,698 163,698 164,698 165,698 166,698 167,698 168,698 169,698 170,698 171,698 171,698 172,698 173,698 174,698 175,698 176,698 177,698 178,698 179,698 179,698 180,698 181,698 182,698 183,698 184,698 185,698 186,698 187,698 187,698 188,698 189,698 190,698 191,698 192,698 193,698 194,698 195,698 195,698 196,698 197,698 198,698 199,698 200,698 201,698 202,698 203,698 203,698 204,698 205,698 206,698 207,698 208,698 209,698 210,698 211,698 211,698 212,698 213,698 214,698 215,698 216,698 217,698 218,698 219,698 219,698 220,698 221,698 222,698 223,698 224,698 225,698 226,698 227,698 227,698 228,698 229,698 230,698 231,698 232,698 233,698 234,698 235,698 235,698 236,698 237,698 238,698 239,698 240,698 241,698 242,698 243,698 243,698 244,698 245,698 246,698 247,698 248,698 249,698 250,698 251,698 251,698 252,698 253,698 254,698 255,698 256,698 257,698 258,698 259,698 259,698 260,698 261,698 262,698 263,698 264,698 265,698 266,698 267,698 267,698 268,698 269,698 270,698 271,698 272,698 273,698 274,698 275,698 275,698 276,698 277,698 278,698 279,698 280,698 281,698 282,698 283,698 283,698 284,698 285,698 286,698 287,698 288,698 289,698 290,698 291,698 291,698 292,698 293,698 294,698 295,698 296,698 297,698 298,698 299,698 300,698 300,698 301,698 302,698 303,698 304,698 305,698 306,698 307,698 308,698 308,698 309,698 310,698 311,698 312,698 313,698 314,698 315,698 316,698 316,698 317,698 318,698 319,698 320,698 321,698 322,698 323,698 324,698 324,698 325,698 326,698 327,698 328,698 329,698 330,698 331,698 332,698 332,698 333,698 334,698 335,698 336,698 337,698 338,698 339,698 340,698 340,698 341,698 342,698 343,698 344,698 345,698 346,698 347,698 348,698 348,698 349,698 350,698 351,698 352,559 353,559 354,559 355,559 356,559 356,559 357,559 358,559 359,559 360,559 361,559 362,559 363,559 364,559 364,559 365,559 366,559 367,559 368,559 369,559 370,559 371,559 372,559 372,559 373,559 374,559 375,559 376,559 377,559 378,559 379,559 380,559 380,559 381,559 382,559 383,559 384,559 385,559 386,559 387,559 388,559 388,559 389,559 390,559 391,559 392,559 393,559 394,559 395,559 396,559 396,559 397,559 398,559 399,559 400,559 401,559 402,559 403,559 404,559 404,559 405,559 406,559 407,559 408,559 409,559 410,559 411,559 412,559 412,559 413,559 414,559 415,559 416,559 417,559 418,559 419,559 420,559 420,559 421,559 422,559 423,559 424,559 425,559 426,559 427,525 428,525 428,525 429,525 430,525 431,525 432,525 433,525 434,525 435,525 436,525 436,525 437,525 438,525 439,525 440,525 441,525 442,525 443,525 444,525 444,525 445,525 446,525 447,525 448,525 449,525 450,525 451,525 452,525 452,525 453,525 454,525 455,525 456,525 457,525 458,525 459,525 460,525 460,525 461,525 462,525 463,525 464,525 465,525 466,525 467,525 468,525 468,525 469,525 470,525 471,525 472,525 473,525 474,525 475,525 476,525 476,525 477,525 478,525 479,525 480,525 481,525 482,525 483,525 484,525 484,525 485,525 486,525 487,525 488,525 489,525 490,525 491,525 492,525 492,525 493,525 494,525 495,525 496,525 497,525 498,525 499,525 500,525 500,525 501,525 502,525 503,525 504,525 505,525 506,525 507,525 508,525 508,525 509,525 510,525 511,525 512,525 513,525 514,525 515,525 516,525 516,525 517,525 518,525 519,525 520,525 521,525 522,525 523,525 524,525 524,525 525,525 526,525 527,525 528,525 529,525 530,525 531,525 532,525 532,525 533,525 534,525 535,525 536,525 537,525 538,525 539,525 540,525 540,525 541,525 542,525 543,525 544,525 545,525 546,525 547,525 548,525 548,525 549,525 550,525 551,525 552,525 553,525 554,525 555,525 556,525 557,525 557,525 558,525 559,525 560,525 561,525 562,525 563,525 564,525 565,525 565,525 566,525 567,525 568,525 569,525 570,525 571,525 572,525 573,525 573,525 574,525 575,525 576,525 577,525 578,525 579,525 580,525 581,525 581,525 582,525 583,525 584,525 585,525 586,525 587,525 588,525 589,525 589,525 590,525 591,525 592,525 593,525 594,525 595,525 596,525 597,525 597,525 598,525 599,525 600,525 601,525 602,525 603,525 604,525 605,525 605,525 606,525 607,525 608,525 609,525 610,525 611,525 612,525 613,525 613,525 614,525 615,525 616,525 617,525 618,525 619,525 620,525 621,525 621,525 622,525 623,525 624,525 625,525 626,247 627,247 628,247 629,247 629,247 630,247 631,247 632,247 633,247 634,247 635,247 636,247 637,247 637,247 638,247 639,247 640,247 641,247 642,247 643,247 644,247 645,247 645,247 646,247 647,247 648,247 649,247 650,247 651,247 652,247 653,247 653,247 654,247 655,247 656,247 657,247 658,247 659,247 660,247 661,247 661,247 662,247 663,247 664,247 665,247 666,247 667,247 668,247 669,247 669,247 670,247 671,247 672,247 673,247 674,247 675,247 676,247 677,247 677,247 678,247 679,247 680,247 681,247 682,247 683,247 684,247 685,247 685,247 686,247 687,247 688,247 689,247 690,247 691,247 692,247 693,247 693,247 694,247 695,247 696,247 697,247 698,247 699,247 700,247 701,247 701,247 702,247 703,247 704,247 705,247 706,247 707,247 708,247 709,247 709,247 710,247 711,247 712,247 713,247 714,247 715,247 716,247 717,247 717,247 718,247 719,247 720,247 721,247 722,247 723,247 724,247 725,247 725,247 726,247 727,247 728,247 729,247 730,247 731,247 732,247 733,247 733,247 734,247 735,247 736,247 737,247 738,247 739,247 740,247 741,247 741,247 742,247 743,247 744,247 745,247 746,247 747,247 748,247 749,247 749,247 750,247 751,247 752,247 753,247 754,247 755,247 756,247 757,247 757,247 758,247 759,247 760,247 761,247 762,247 763,247 764,247 765,247 765,247 766,247 767,247 768,247 769,247 770,247 771,247 772,247 773,247 773,247 774,247 775,247 776,247 777,247 778,247 779,247 780,247 781,247 781,247 782,247 783,247 784,247 785,247 786,247 787,247 788,247 789,247 789,247 790,247 791,247 792,247 793,247 794,247 795,247 796,247 797,247 797,247 798,247 799,247 800,247 801,247 802,247 803,247 804,247 805,247 805,247 806,247 807,247 808,247 809,247 810,247 811,247 812,247 813,247 814,247 814,247 815,247 816,247 817,247 818,247 819,247 820,247 821,247 822,247 822,247 823,247 824,247 825,247 826,247 827,247 828,247 829,247 830,247 830,247 831,247 832,247 833,247 834,247 835,247 836,247 837,247 838,247 838,247 839,247 840,247 841,247 842,247 843,247 844,247 845,247 846,247 846,247 847,247 848,247 849,247 850,247 851,247 852,247 853,247 854,247 854,247 855,247 856,247 857,247 858,247 859,247 860,247 861,247 862,247 862,247 863,247 864,247 865,247 866,247 867,247 868,247 869,247 870,247 870,247 871,247 872,247 873,247 874,247 875,247 876,247 877,247 878,247 878,247 879,247 880,247 881,247 882,247 883,247 884,247 885,247 886,247 886,247 887,247 888,247 889,247 890,247 891,247 892,247 893,247 894,247 894,247 895,247 896,247 897,247 898,247 899,247 900,247 901,247 902,247 902,247 903,247 904,247 905,247 906,247 907,247 908,247 909,247 910,247 910,247 911,247 912,247 913,247 914,247 915,247 916,247 917,247 918,247 918,247 919,247 920,247 921,247 922,247 923,247 924,247 925,247 926,247 926,247 927,247 928,247 929,247 930,247 931,247 932,109 933,109 934,109 934,109 935,109 936,109 937,100 938,100 939,100 940,100 941,90 942,90 942,84 943,84 944,84 945,83 946,83 947,76 948,76 949,70 950,68 950,68 951,68 952,68 953,68 954,68 955,76 956,76 957,76 958,76 958,76 959,76 960,76 961,76 962,86 963,92 964,92 965,92 966,92 966,92 967,98 968,99 969,99 970,99 971,99 972,245 972,699 973,699 973,699 83,699 "/>
<polyline fill="none" opacity="1" stroke="#3CB44B" stroke-width="1" points="83,698 83,698 84,698 85,698 86,698 87,698 88,698 89,698 90,698 91,698 91,698 92,698 93,698 94,698 95,698 96,698 97,698 98,698 99,698 99,698 100,698 101,698 102,698 103,698 104,698 105,698 106,698 107,698 107,698 108,698 109,698 110,698 111,698 112,698 113,698 114,698 115,698 115,698 116,698 117,698 118,698 119,698 120,698 121,698 122,698 123,698 123,698 124,698 125,698 126,698 127,698 128,698 129,698 130,698 131,698 131,698 132,698 133,698 134,698 135,698 136,698 137,698 138,698 139,698 139,698 140,698 141,698 142,698 143,698 144,698 145,698 146,698 147,698 147,698 148,698 149,698 150,698 151,698 152,698 153,698 154,698 155,698 155,698 156,698 157,698 158,698 159,698 160,698 161,698 162,698 163,698 163,698 164,698 165,698 166,698 167,698 168,698 169,698 170,698 171,698 171,698 172,698 173,698 174,698 175,698 176,698 177,698 178,698 179,698 179,698 180,698 181,698 182,698 183,698 184,698 185,698 186,698 187,698 187,698 188,698 189,698 190,698 191,698 192,698 193,698 194,698 195,698 195,698 196,698 197,698 198,698 199,698 200,698 201,698 202,698 203,698 203,698 204,698 205,698 206,698 207,698 208,698 209,698 210,698 211,698 211,698 212,698 213,698 214,698 215,698 216,698 217,698 218,698 219,698 219,698 220,698 221,698 222,698 223,698 224,698 225,698 226,698 227,698 227,698 228,698 229,698 230,698 231,698 232,698 233,698 234,698 235,698 235,698 236,698 237,698 238,698 239,698 240,698 241,698 242,698 243,698 243,698 244,698 245,698 246,698 247,698 248,698 249,698 250,698 251,698 251,698 252,698 253,698 254,698 255,698 256,698 257,698 258,698 259,698 259,698 260,698 261,698 262,698 263,698 264,698 265,698 266,698 267,698 267,698 268,698 269,698 270,698 271,698 272,698 273,698 274,698 275,698 275,698 276,698 277,698 278,698 279,698 280,698 281,698 282,698 283,698 283,698 284,698 285,698 286,698 287,698 288,698 289,698 290,698 291,698 291,698 292,698 293,698 294,698 295,698 296,698 297,698 298,698 299,698 300,698 300,698 301,698 302,698 303,698 304,698 305,698 306,698 307,698 308,698 308,698 309,698 310,698 311,698 312,698 313,698 314,698 315,698 316,698 316,698 317,698 318,698 319,698 320,698 321,698 322,698 323,698 324,698 324,698 325,698 326,698 327,698 328,698 329,698 330,698 331,698 332,698 332,698 333,698 334,698 335,698 336,698 337,698 338,698 339,698 340,698 340,698 341,698 342,698 343,698 344,698 345,698 346,698 347,698 348,698 348,698 349,698 350,698 351,698 352,559 353,559 354,559 355,559 356,559 356,559 357,559 358,559 359,559 360,559 361,559 362,559 363,559 364,559 364,559 365,559 366,559 367,559 368,559 369,559 370,559 371,559 372,559 372,559 373,559 374,559 375,559 376,559 377,559 378,559 379,559 380,559 380,559 381,559 382,559 383,559 384,559 385,559 386,559 387,559 388,559 388,559 389,559 390,559 391,559 392,559 393,559 394,559 395,559 396,559 396,559 397,559 398,559 399,559 400,559 401,559 402,559 403,559 404,559 404,559 405,559 406,559 407,559 408,559 409,559 410,559 411,559 412,559 412,559 413,559 414,559 415,559 416,559 417,559 418,559 419,559 420,559 420,559 421,559 422,559 423,559 424,559 425,559 426,559 427,525 428,525 428,525 429,525 430,525 431,525 432,525 433,525 434,525 435,525 436,525 436,525 437,525 438,525 439,525 440,525 441,525 442,525 443,525 444,525 444,525 445,525 446,525 447,525 448,525 449,525 450,525 451,525 452,525 452,525 453,525 454,525 455,525 456,525 457,525 458,525 459,525 460,525 460,525 461,525 462,525 463,525 464,525 465,525 466,525 467,525 468,525 468,525 469,525 470,525 471,525 472,525 473,525 474,525 475,525 476,525 476,525 477,525 478,525 479,525 480,525 481,525 482,525 483,525 484,525 484,525 485,525 486,525 487,525 488,525 489,525 490,525 491,525 492,525 492,525 493,525 494,525 495,525 496,525 497,525 498,525 499,525 500,525 500,525 501,525 502,525 503,525 504,525 505,525 506,525 507,525 508,525 508,525 509,525 510,525 511,525 512,525 513,525 514,525 515,525 516,525 516,525 517,525 518,525 519,525 520,525 521,525 522,525 523,525 524,525 524,525 525,525 526,525 527,525 528,525 529,525 530,525 531,525 532,525 532,525 533,525 534,525 535,525 536,525 537,525 538,525 539,525 540,525 540,525 541,525 542,525 543,525 544,525 545,525 546,525 547,525 548,525 548,525 549,525 550,525 551,525 552,525 553,525 554,525 555,525 556,525 557,525 557,525 558,525 559,525 560,525 561,525 562,525 563,525 564,525 565,525 565,525 566,525 567,525 568,525 569,525 570,525 571,525 572,525 573,525 573,525 574,525 575,525 576,525 577,525 578,525 579,525 580,525 581,525 581,525 582,525 583,525 584,525 585,525 586,525 587,525 588,525 589,525 589,525 590,525 591,525 592,525 593,525 594,525 595,525 596,525 597,525 597,525 598,525 599,525 600,525 601,525 602,525 603,525 604,525 605,525 605,525 606,525 607,525 608,525 609,525 610,525 611,525 612,525 613,525 613,525 614,525 615,525 616,525 617,525 618,525 619,525 620,525 621,525 621,525 622,525 623,525 624,525 625,525 626,247 627,247 628,247 629,247 629,247 630,247 631,247 632,247 633,247 634,247 635,247 636,247 637,247 637,247 638,247 639,247 640,247 641,247 642,247 643,247 644,247 645,247 645,247 646,247 647,247 648,247 649,247 650,247 651,247 652,247 653,247 653,247 654,247 655,247 656,247 657,247 658,247 659,247 660,247 661,247 661,247 662,247 663,247 664,247 665,247 666,247 667,247 668,247 669,247 669,247 670,247 671,247 672,247 673,247 674,247 675,247 676,247 677,247 677,247 678,247 679,247 680,247 681,247 682,247 683,247 684,247 685,247 685,247 686,247 687,247 688,247 689,247 690,247 691,247 692,247 693,247 693,247 694,247 695,247 696,247 697,247 698,247 699,247 700,247 701,247 701,247 702,247 703,247 704,247 705,247 706,247 707,247 708,247 709,247 709,247 710,247 711,247 712,247 713,247 714,247 715,247 716,247 717,247 717,247 718,247 719,247 720,247 721,247 722,247 723,247 724,247 725,247 725,247 726,247 727,247 728,247 729,247 730,247 731,247 732,247 733,247 733,247 734,247 735,247 736,247 737,247 738,247 739,247 740,247 741,247 741,247 742,247 743,247 744,247 745,247 746,247 747,247 748,247 749,247 749,247 750,247 751,247 752,247 753,247 754,247 755,247 756,247 757,247 757,247 758,247 759,247 760,247 761,247 762,247 763,247 764,247 765,247 765,247 766,247 767,247 768,247 769,247 770,247 771,247 772,247 773,247 773,247 774,247 775,247 776,247 777,247 778,247 779,247 780,247 781,247 781,247 782,247 783,247 784,247 785,247 786,247 787,247 788,247 789,247 789,247 790,247 791,247 792,247 793,247 794,247 795,247 796,247 797,247 797,247 798,247 799,247 800,247 801,247 802,247 803,247 804,247 805,247 805,247 806,247 807,247 808,247 809,247 810,247 811,247 812,247 813,247 814,247 814,247 815,247 816,247 817,247 818,247 819,247 820,247 821,247 822,247 822,247 823,247 824,247 825,247 826,247 827,247 828,247 829,247 830,247 830,247 831,247 832,247 833,247 834,247 835,247 836,247 837,247 838,247 838,247 839,247 840,247 841,247 842,247 843,247 844,247 845,247 846,247 846,247 847,247 848,247 849,247 850,247 851,247 852,247 853,247 854,247 854,247 855,247 856,247 857,247 858,247 859,247 860,247 861,247 862,247 862,247 863,247 864,247 865,247 866,247 867,247 868,247 869,247 870,247 870,247 871,247 872,247 873,247 874,247 875,247 876,247 877,247 878,247 878,247 879,247 880,247 881,247 882,247 883,247 884,247 885,247 886,247 886,247 887,247 888,247 889,247 890,247 891,247 892,247 893,247 894,247 894,247 895,247 896,247 897,247 898,247 899,247 900,247 901,247 902,247 902,247 903,247 904,247 905,247 906,247 907,247 908,247 909,247 910,247 910,247 911,247 912,247 913,247 914,247 915,247 916,247 917,247 918,247 918,247 919,247 920,247 921,247 922,247 923,247 924,247 925,247 926,247 926,247 927,247 928,247 929,247 930,247 931,247 932,109 933,109 934,109 934,109 935,109 936,109 937,100 938,100 939,100 940,100 941,90 942,90 942,84 943,84 944,84 945,83 946,83 947,76 948,76 949,70 950,68 950,68 951,68 952,68 953,68 954,68 955,76 956,76 957,76 958,76 958,76 959,76 960,76 961,76 962,86 963,92 964,92 965,92 966,92 966,92 967,98 968,99 969,99 970,99 971,99 972,245 972,699 973,699 "/>
<polygon opacity="1" fill="#E6194B" points="83,699 83,699 84,699 85,699 86,699 87,699 88,699 89,699 90,699 91,699 91,699 92,699 93,699 94,699 95,699 96,699 97,699 98,699 99,699 99,699 100,699 101,699 102,699 103,699 104,699 105,699 106,699 107,699 107,699 108,699 109,699 110,699 111,699 112,699 113,699 114,699 115,699 115,699 116,699 117,699 118,699 119,699 120,699 121,699 122,699 123,699 123,699 124,699 125,699 126,699 127,699 128,699 129,699 130,699 131,699 131,699 132,699 133,699 134,699 135,699 136,699 137,699 138,699 139,699 139,699 140,699 141,699 142,699 143,699 144,699 145,699 146,699 147,699 147,699 148,699 149,699 150,699 151,699 152,699 153,699 154,699 155,699 155,699 156,699 157,699 158,699 159,699 160,699 161,699 162,699 163,699 163,699 164,699 165,699 166,699 167,699 168,699 169,699 170,699 171,699 171,699 172,699 173,699 174,699 175,699 176,699 177,699 178,699 179,699 179,699 180,699 181,699 182,699 183,699 184,699 185,699 186,699 187,699 187,699 188,699 189,699 190,699 191,699 192,699 193,699 194,699 195,699 195,699 196,699 197,699 198,699 199,699 200,699 201,699 202,699 203,699 203,699 204,699 205,699 206,699 207,699 208,699 209,699 210,699 211,699 211,699 212,699 213,699 214,699 215,699 216,699 217,699 218,699 219,699 219,699 220,699 221,699 222,699 223,699 224,699 225,699 226,699 227,699 227,699 228,699 229,699 230,699 231,699 232,699 233,699 234,699 235,699 235,699 236,699 237,699 238,699 239,699 240,699 241,699 242,699 243,699 243,699 244,699 245,699 246,699 247,699 248,699 249,699 250,699 251,699 251,699 252,699 253,699 254,699 255,699 256,699 257,699 258,699 259,699 259,699 260,699 261,699 262,699 263,699 264,699 265,699 266,699 267,699 267,699 268,699 269,699 270,699 271,699 272,699 273,699 274,699 275,699 275,699 276,699 277,699 278,699 279,699 280,699 281,699 282,699 283,699 283,699 284,699 285,699 286,699 287,699 288,699 289,699 290,699 291,699 291,699 292,699 293,699 294,699 295,699 296,699 297,699 298,699 299,699 300,699 300,699 301,699 302,699 303,699 304,699 305,699 306,699 307,699 308,699 308,699 309,699 310,699 311,699 312,699 313,699 314,699 315,699 316,699 316,699 317,699 318,699 319,699 320,699 321,699 322,699 323,699 324,699 324,699 325,699 326,699 327,699 328,699 329,699 330,699 331,699 332,699 332,699 333,699 334,699 335,699 336,699 337,699 338,699 339,699 340,699 340,699 341,699 342,699 343,699 344,699 345,699 346,699 347,699 348,699 348,699 349,699 350,699 351,699 352,560 353,560 354,560 355,560 356,560 356,560 357,560 358,560 359,560 360,560 361,560 362,560 363,560 364,560 364,560 365,560 366,560 367,560 368,560 369,560 370,560 371,560 372,560 372,560 373,560 374,560 375,560 376,560 377,560 378,560 379,560 380,560 380,560 381,560 382,560 383,560 384,560 385,560 386,560 387,560 388,560 388,560 389,560 390,560 391,560 392,560 393,560 394,560 395,560 396,560 396,560 397,560 398,560 399,560 400,560 401,560 402,560 403,560 404,560 404,560 405,560 406,560 407,560 408,560 409,560 410,560 411,560 412,560 412,560 413,560 414,560 415,560 416,560 417,560 418,560 419,560 420,560 420,560 421,560 422,560 423,560 424,560 425,560 426,560 427,525 428,525 428,525 429,525 430,525 431,525 432,525 433,525 434,525 435,525 436,525 436,525 437,525 438,525 439,525 440,525 441,525 442,525 443,525 444,525 444,525 445,525 446,525 447,525 448,525 449,525 450,525 451,525 452,525 452,525 453,525 454,525 455,525 456,525 457,525 458,525 459,525 460,525 460,525 461,525 462,525 463,525 464,525 465,525 466,525 467,525 468,525 468,525 469,525 470,525 471,525 472,525 473,525 474,525 475,525 476,525 476,525 477,525 478,525 479,525 480,525 481,525 482,525 483,525 484,525 484,525 485,525 486,525 487,525 488,525 489,525 490,525 491,525 492,525 492,525 493,525 494,525 495,525 496,525 497,525 498,525 499,525 500,525 500,525 501,525 502,525 503,525 504,525 505,525 506,525 507,525 508,525 508,525 509,525 510,525 511,525 512,525 513,525 514,525 515,525 516,525 516,525 517,525 518,525 519,525 520,525 521,525 522,525 523,525 524,525 524,525 525,525 526,525 527,525 528,525 529,525 530,525 531,525 532,525 532,525 533,525 534,525 535,525 536,525 537,525 538,525 539,525 540,525 540,525 541,525 542,525 543,525 544,525 545,525 546,525 547,525 548,525 548,525 549,525 550,525 551,525 552,525 553,525 554,525 555,525 556,525 557,525 557,525 558,525 559,525 560,525 561,525 562,525 563,525 564,525 565,525 565,525 566,525 567,525 568,525 569,525 570,525 571,525 572,525 573,525 573,525 574,525 575,525 576,525 577,525 578,525 579,525 580,525 581,525 581,525 582,525 583,525 584,525 585,525 586,525 587,525 588,525 589,525 589,525 590,525 591,525 592,525 593,525 594,525 595,525 596,525 597,525 597,525 598,525 599,525 600,525 601,525 602,525 603,525 604,525 605,525 605,525 606,525 607,525 608,525 609,525 610,525 611,525 612,525 613,525 613,525 614,525 615,525 616,525 617,525 618,525 619,525 620,525 621,525 621,525 622,525 623,525 624,525 625,525 626,248 627,248 628,248 629,248 629,248 630,248 631,248 632,248 633,248 634,248 635,248 636,248 637,248 637,248 638,248 639,248 640,248 641,248 642,248 643,248 644,248 645,248 645,248 646,248 647,248 648,248 649,248 650,248 651,248 652,248 653,248 653,248 654,248 655,248 656,248 657,248 658,248 659,248 660,248 661,248 661,248 662,248 663,248 664,248 665,248 666,248 667,248 668,248 669,248 669,248 670,248 671,248 672,248 673,248 674,248 675,248 676,248 677,248 677,248 678,248 679,248 680,248 681,248 682,248 683,248 684,248 685,248 685,248 686,248 687,248 688,248 689,248 690,248 691,248 692,248 693,248 693,248 694,248 695,248 696,248 697,248 698,248 699,248 700,248 701,248 701,248 702,248 703,248 704,248 705,248 706,248 707,248 708,248 709,248 709,248 710,248 711,248 712,248 713,248 714,248 715,248 716,248 717,248 717,248 718,248 719,248 720,248 721,248 722,248 723,248 724,248 725,248 725,248 726,248 727,248 728,248 729,248 730,248 731,248 732,248 733,248 733,248 734,248 735,248 736,248 737,248 738,248 739,248 740,248 741,248 741,248 742,248 743,248 744,248 745,248 746,248 747,248 748,248 749,248 749,248 750,248 751,248 752,248 753,248 754,248 755,248 756,248 757,248 757,248 758,248 759,248 760,248 761,248 762,248 763,248 764,248 765,248 765,248 766,248 767,248 768,248 769,248 770,248 771,248 772,248 773,248 773,248 774,248 775,248 776,248 777,248 778,248 779,248 780,248 781,248 781,248 782,248 783,248 784,248 785,248 786,248 787,248 788,248 789,248 789,248 790,248 791,248 792,248 793,248 794,248 795,248 796,248 797,248 797,248 798,248 799,248 800,248 801,248 802,248 803,248 804,248 805,248 805,248 806,248 807,248 808,248 809,248 810,248 811,248 812,248 813,248 814,248 814,248 815,248 816,248 817,248 818,248 819,248 820,248 821,248 822,248 822,248 823,248 824,248 825,248 826,248 827,248 828,248 829,248 830,248 830,248 831,248 832,248 833,248 834,248 835,248 836,248 837,248 838,248 838,248 839,248 840,248 841,248 842,248 843,248 844,248 845,248 846,248 846,248 847,248 848,248 849,248 850,248 851,248 852,248 853,248 854,248 854,248 855,248 856,248 857,248 858,248 859,248 860,248 861,248 862,248 862,248 863,248 864,248 865,248 866,248 867,248 868,248 869,248 870,248 870,248 871,248 872,248 873,248 874,248 875,248 876,248 877,248 878,248 878,248 879,248 880,248 881,248 882,248 883,248 884,248 885,248 886,248 886,248 887,248 888,248 889,248 890,248 891,248 892,248 893,248 894,248 894,248 895,248 896,248 897,248 898,248 899,248 900,248 901,248 902,248 902,248 903,248 904,248 905,248 906,248 907,248 908,248 909,248 910,248 910,248 911,248 912,248 913,248 914,248 915,248 916,248 917,248 918,248 918,248 919,248 920,248 921,248 922,248 923,248 924,248 925,248 926,248 926,248 927,248 928,248 929,248 930,248 931,248 932,109 933,109 934,109 934,109 935,109 936,109 937,100 938,100 939,100 940,100 941,91 942,91 942,85 943,85 944,84 945,84 946,84 947,76 948,76 949,70 950,68 950,68 951,68 952,68 953,68 954,68 955,76 956,76 957,76 958,76 958,77 959,77 960,77 961,77 962,87 963,92 964,92 965,92 966,92 966,93 967,99 968,99 969,99 970,99 971,99 972,246 972,699 973,699 973,699 83,699 "/>
<polyline fill="none" opacity="1" stroke="#E6194B" stroke-width="1" points="83,699 83,699 84,699 85,699 86,699 87,699 88,699 89,699 90,699 91,699 91,699 92,699 93,699 94,699 95,699 96,699 97,699 98,699 99,699 99,699 100,699 101,699 102,699 103,699 104,699 105,699 106,699 107,699 107,699 108,699 109,699 110,699 111,699 112,699 113,699 114,699 115,699 115,699 116,699 117,699 118,699 119,699 120,699 121,699 122,699 123,699 123,699 124,699 125,699 126,699 127,699 128,699 129,699 130,699 131,699 131,699 132,699 133,699 134,699 135,699 136,699 137,699 138,699 139,699 139,699 140,699 141,699 142,699 143,699 144,699 145,699 146,699 147,699 147,699 148,699 149,699 150,699 151,699 152,699 153,699 154,699 155,699 155,699 156,699 157,699 158,699 159,699 160,699 161,699 162,699 163,699 163,699 164,699 165,699 166,699 167,699 168,699 169,699 170,699 171,699 171,699 172,699 173,699 174,699 175,699 176,699 177,699 178,699 179,699 179,699 180,699 181,699 182,699 183,699 184,699 185,699 186,699 187,699 187,699 188,699 189,699 190,699 191,699 192,699 193,699 194,699 195,699 195,699 196,699 197,699 198,699 199,699 200,699 201,699 202,699 203,699 203,699 204,699 205,699 206,699 207,699 208,699 209,699 210,699 211,699 211,699 212,699 213,699 214,699 215,699 216,699 217,699 218,699 219,699 219,699 220,699 221,699 222,699 223,699 224,699 225,699 226,699 227,699 227,699 228,699 229,699 230,699 231,699 232,699 233,699 234,699 235,699 235,699 236,699 237,699 238,699 239,699 240,699 241,699 242,699 243,699 243,699 244,699 245,699 246,699 247,699 248,699 249,699 250,699 251,699 251,699 252,699 253,699 254,699 255,699 256,699 257,699 258,699 259,699 259,699 260,699 261,699 262,699 263,699 264,699 265,699 266,699 267,699 267,699 268,699 269,699 270,699 271,699 272,699 273,699 274,699 275,699 275,699 276,699 277,699 278,699 279,699 280,699 281,699 282,699 283,699 283,699 284,699 285,699 286,699 287,699 288,699 289,699 290,699 291,699 291,699 292,699 293,699 294,699 295,699 296,699 297,699 298,699 299,699 300,699 300,699 301,699 302,699 303,699 304,699 305,699 306,699 307,699 308,699 308,699 309,699 310,699 311,699 312,699 313,699 314,699 315,699 316,699 316,699 317,699 318,699 319,699 320,699 321,699 322,699 323,699 324,699 324,699 325,699 326,699 327,699 328,699 329,699 330,699 331,699 332,699 332,699 333,699 334,699 335,699 336,699 337,699 338,699 339,699 340,699 340,699 341,699 342,699 343,699 344,699 345,699 346,699 347,699 348,699 348,699 349,699 350,699 351,699 352,560 353,560 354,560 355,560 356,560 356,560 357,560 358,560 359,560 360,560 361,560 362,560 363,560 364,560 364,560 365,560 366,560 367,560 368,560 369,560 370,560 371,560 372,560 372,560 373,560 374,560 375,560 376,560 377,560 378,560 379,560 380,560 380,560 381,560 382,560 383,560 384,560 385,560 386,560 387,560 388,560 388,560 389,560 390,560 391,560 392,560 393,560 394,560 395,560 396,560 396,560 397,560 398,560 399,560 400,560 401,560 402,560 403,560 404,560 404,560 405,560 406,560 407,560 408,560 409,560 410,560 411,560 412,560 412,560 413,560 414,560 415,560 416,560 417,560 418,560 419,560 420,560 420,560 421,560 422,560 423,560 424,560 425,560 426,560 427,525 428,525 428,525 429,525 430,525 431,525 432,525 433,525 434,525 435,525 436,525 436,525 437,525 438,525 439,525 440,525 441,525 442,525 443,525 444,525 444,525 445,525 446,525 447,525 448,525 449,525 450,525 451,525 452,525 452,525 453,525 454,525 455,525 456,525 457,525 458,525 459,525 460,525 460,525 461,525 462,525 463,525 464,525 465,525 466,525 467,525 468,525 468,525 469,525 470,525 471,525 472,525 473,525 474,525 475,525 476,525 476,525 477,525 478,525 479,525 480,525 481,525 482,525 483,525 484,525 484,525 485,525 486,525 487,525 488,525 489,525 490,525 491,525 492,525 492,525 493,525 494,525 495,525 496,525 497,525 498,525 499,525 500,525 500,525 501,525 502,525 503,525 504,525 505,525 506,525 507,525 508,525 508,525 509,525 510,525 511,525 512,525 513,525 514,525 515,525 516,525 516,525 517,525 518,525 519,525 520,525 521,525 522,525 523,525 524,525 524,525 525,525 526,525 527,525 528,525 529,525 530,525 531,525 532,525 532,525 533,525 534,525 535,525 536,525 537,525 538,525 539,525 540,525 540,525 541,525 542,525 543,525 544,525 545,525 546,525 547,525 548,525 548,525 549,525 550,525 551,525 552,525 553,525 554,525 555,525 556,525 557,525 557,525 558,525 559,525 560,525 561,525 562,525 563,525 564,525 565,525 565,525 566,525 567,525 568,525 569,525 570,525 571,525 572,525 573,525 573,525 574,525 575,525 576,525 577,525 578,525 579,525 580,525 581,525 581,525 582,525 583,525 584,525 585,525 586,525 587,525 588,525 589,525 589,525 590,525 591,525 592,525 593,525 594,525 595,525 596,525 597,525 597,525 598,525 599,525 600,525 601,525 602,525 603,525 604,525 605,525 605,525 606,525 607,525 608,525 609,525 610,525 611,525 612,525 613,525 613,525 614,525 615,525 616,525 617,525 618,525 619,525 620,525 621,525 621,525 622,525 623,525 624,525 625,525 626,248 627,248 628,248 629,248 629,248 630,248 631,248 632,248 633,248 634,248 635,248 636,248 637,248 637,248 638,248 639,248 640,248 641,248 642,248 643,248 644,248 645,248 645,248 646,248 647,248 648,248 649,248 650,248 651,248 652,248 653,248 653,248 654,248 655,248 656,248 657,248 658,248 659,248 660,248 661,248 661,248 662,248 663,248 664,248 665,248 666,248 667,248 668,248 669,248 669,248 670,248 671,248 672,248 673,248 674,248 675,248 676,248 677,248 677,248 678,248 679,248 680,248 681,248 682,248 683,248 684,248 685,248 685,248 686,248 687,248 688,248 689,248 690,248 691,248 692,248 693,248 693,248 694,248 695,248 696,248 697,248 698,248 699,248 700,248 701,248 701,248 702,248 703,248 704,248 705,248 706,248 707,248 708,248 709,248 709,248 710,248 711,248 712,248 713,248 714,248 715,248 716,248 717,248 717,248 718,248 719,248 720,248 721,248 722,248 723,248 724,248 725,248 725,248 726,248 727,248 728,248 729,248 730,248 731,248 732,248 733,248 733,248 734,248 735,248 736,248 737,248 738,248 739,248 740,248 741,248 741,248 742,248 743,248 744,248 745,248 746,248 747,248 748,248 749,248 749,248 750,248 751,248 752,248 753,248 754,248 755,248 756,248 757,248 757,248 758,248 759,248 760,248 761,248 762,248 763,248 764,248 765,248 765,248 766,248 767,248 768,248 769,248 770,248 771,248 772,248 773,248 773,248 774,248 775,248 776,248 777,248 778,248 779,248 780,248 781,248 781,248 782,248 783,248 784,248 785,248 786,248 787,248 788,248 789,248 789,248 790,248 791,248 792,248 793,248 794,248 795,248 796,248 797,248 797,248 798,248 799,248 800,248 801,248 802,248 803,248 804,248 805,248 805,248 806,248 807,248 808,248 809,248 810,248 811,248 812,248 813,248 814,248 814,248 815,248 816,248 817,248 818,248 819,248 820,248 821,248 822,248 822,248 823,248 824,248 825,248 826,248 827,248 828,248 829,248 830,248 830,248 831,248 832,248 833,248 834,248 835,248 836,248 837,248 838,248 838,248 839,248 840,248 841,248 842,248 843,248 844,248 845,248 846,248 846,248 847,248 848,248 849,248 850,248 851,248 852,248 853,248 854,248 854,248 855,248 856,248 857,248 858,248 859,248 860,248 861,248 862,248 862,248 863,248 864,248 865,248 866,248 867,248 868,248 869,248 870,248 870,248 871,248 872,248 873,248 874,248 875,248 876,248 877,248 878,248 878,248 879,248 880,248 881,248 882,248 883,248 884,248 885,248 886,248 886,248 887,248 888,248 889,248 890,248 891,248 892,248 893,248 894,248 894,248 895,248 896,248 897,248 898,248 899,248 900,248 901,248 902,248 902,248 903,248 904,248 905,248 906,248 907,248 908,248 909,248 910,248 910,248 911,248 912,248 913,248 914,248 915,248 916,248 917,248 918,248 918,248 919,248 920,248 921,248 922,248 923,248 924,248 925,248 926,248 926,248 927,248 928,248 929,248 930,248 931,248 932,109 933,109 934,109 934,109 935,109 936,109 937,100 938,100 939,100 940,100 941,91 942,91 942,85 943,85 944,84 945,84 946,84 947,76 948,76 949,70 950,68 950,68 951,68 952,68 953,68 954,68 955,76 956,76 957,76 958,76 958,77 959,77 960,77 961,77 962,87 963,92 964,92 965,92 966,92 966,93 967,99 968,99 969,99 970,99 971,99 972,246 972,699 973,699 "/>
<line opacity="0.1" stroke="#000000" stroke-width="1" x1="83" y1="699" x2="83" y2="68"/>
<line opacity="0.1" stroke="#000000" stroke-width="1" x1="92" y1="699" x2="92" y2="68"/>
<line opacity="0.1" stroke="#000000" stroke-width="1" x1="101" y1="699" x2="101" y2="68"/>
<line opacity="0.1" stroke="#000000" stroke-width="1" x1="110" y1="699" x2="110" y2="68"/>
<line opacity="0.1" stroke="#000000" stroke-width="1" x1="119" y1="699" x2="119" y2="68"/>
<line opacity="0.1" stroke="#000000" stroke-width="1" x1="128" y1="699" x2="128" y2="68"/>
<line opacity="0.1" stroke="#000000" stroke-width="1" x1="137" y1="699" x2="137" y2="68"/>
<line opacity="0.1" stroke="#000000" stroke-width="1" x1="146" y1="699" x2="146" y2="68"/>
<line opacity="0.1" stroke="#000000" stroke-width="1" x1="154" y1="699" x2="154" y2="68"/>
<line opacity="0.1" stroke="#000000" stroke-width="1" x1="163" y1="699" x2="163" y2="68"/>
<line opacity="0.1" stroke="#000000" stroke-width="1" x1="172" y1="699" x2="172" y2="68"/>
<line opacity="0.1" stroke="#000000" stroke-width="1" x1="181" y1="699" x2="181" y2="68"/>
<line opacity="0.1" stroke="#000000" stroke-width="1" x1="190" y1="699" x2="190" y2="68"/>
<line opacity="0.1" stroke="#000000" stroke-width="1" x1="199" y1="699" x2="199" y2="68"/>
<line opacity="0.1" stroke="#000000" stroke-width="1" x1="208" y1="699" x2="208" y2="68"/>
<line opacity="0.1" stroke="#000000" stroke-width="1" x1="217" y1="699" x2="217" y2="68"/>
<line opacity="0.1" stroke="#000000" stroke-width="1" x1="226" y1="699" x2="226" y2="68"/>
<line opacity="0.1" stroke="#000000" stroke-width="1" x1="234" y1="699" x2="234" y2="68"/>
<line opacity="0.1" stroke="#000000" stroke-width="1" x1="243" y1="699" x2="243" y2="68"/>
<line opacity="0.1" stroke="#000000" stroke-width="1" x1="252" y1="699" x2="252" y2="68"/>
<line opacity="0.1" stroke="#000000" stroke-width="1" x1="261" y1="699" x2="261" y2="68"/>
<line opacity="0.1" stroke="#000000" stroke-width="1" x1="270" y1="699" x2="270" y2="68"/>
<line opacity="0.1" stroke="#000000" stroke-width="1" x1="279" y1="699" x2="279" y2="68"/>
<line opacity="0.1" stroke="#000000" stroke-width="1" x1="288" y1="699" x2="288" y2="68"/>
<line opacity="0.1" stroke="#000000" stroke-width="1" x1="297" y1="699" x2="297" y2="68"/>
<line opacity="0.1" stroke="#000000" stroke-width="1" x1="306" y1="699" x2="306" y2="68"/>
<line opacity="0.1" stroke="#000000" stroke-width="1" x1="315" y1="699" x2="315" y2="68"/>
<line opacity="0.1" stroke="#000000" stroke-width="1" x1="323" y1="699" x2="323" y2="68"/>
<line opacity="0.1" stroke="#000000" stroke-width="1" x1="332" y1="699" x2="332" y2="68"/>
<line opacity="0.1" stroke="#000000" stroke-width="1" x1="341" y1="699" x2="341" y2="68"/>
<line opacity="0.1" stroke="#000000" stroke-width="1" x1="350" y1="699" x2="350" y2="68"/>
<line opacity="0.1" stroke="#000000" stroke-width="1" x1="359" y1="699" x2="359" y2="68"/>
<line opacity="0.1" stroke="#000000" stroke-width="1" x1="368" y1="699" x2="368" y2="68"/>
<line opacity="0.1" stroke="#000000" stroke-width="1" x1="377" y1="699" x2="377" y2="68"/>
<line opacity="0.1" stroke="#000000" stroke-width="1" x1="386" y1="699" x2="386" y2="68"/>
<line opacity="0.1" stroke="#000000" stroke-width="1" x1="395" y1="699" x2="395" y2="68"/>
<line opacity="0.1" stroke="#000000" stroke-width="1" x1="403" y1="699" x2="403" y2="68"/>
<line opacity="0.1" stroke="#000000" stroke-width="1" x1="412" y1="699" x2="412" y2="68"/>
<line opacity="0.1" stroke="#000000" stroke-width="1" x1="421" y1="699" x2="421" y2="68"/>
<line opacity="0.1" stroke="#000000" stroke-width="1" x1="430" y1="699" x2="430" y2="68"/>
<line opacity="0.1" stroke="#000000" stroke-width="1" x1="439" y1="699" x2="439" y2="68"/>
<line opacity="0.1" stroke="#000000" stroke-width="1" x1="448" y1="699" x2="448" y2="68"/>
<line opacity="0.1" stroke="#000000" stroke-width="1" x1="457" y1="699" x2="457" y2="68"/>
<line opacity="0.1" stroke="#000000" stroke-width="1" x1="466" y1="699" x2="466" y2="68"/>
<line opacity="0.1" stroke="#000000" stroke-width="1" x1="475" y1="699" x2="475" y2="68"/>
<line opacity="0.1" stroke="#000000" stroke-width="1" x1="483" y1="699" x2="483" y2="68"/>
<line opacity="0.1" stroke="#000000" stroke-width="1" x1="492" y1="699" x2="492" y2="68"/>
<line opacity="0.1" stroke="#000000" stroke-width="1" x1="501" y1="699" x2="501" y2="68"/>
<line opacity="0.1" stroke="#000000" stroke-width="1" x1="510" y1="699" x2="510" y2="68"/>
<line opacity="0.1" stroke="#000000" stroke-width="1" x1="519" y1="699" x2="519" y2="68"/>
<line opacity="0.1" stroke="#000000" stroke-width="1" x1="528" y1="699" x2="528" y2="68"/>
<line opacity="0.1" stroke="#000000" stroke-width="1" x1="537" y1="699" x2="537" y2="68"/>
<line opacity="0.1" stroke="#000000" stroke-width="1" x1="546" y1="699" x2="546" y2="68"/>
<line opacity="0.1" stroke="#000000" stroke-width="1" x1="555" y1="699" x2="555" y2="68"/>
<line opacity="0.1" stroke="#000000" stroke-width="1" x1="563" y1="699" x2="563" y2="68"/>
<line opacity="0.1" stroke="#000000" stroke-width="1" x1="572" y1="699" x2="572" y2="68"/>
<line opacity="0.1" stroke="#000000" stroke-width="1" x1="581" y1="699" x2="581" y2="68"/>
<line opacity="0.1" stroke="#000000" stroke-width="1" x1="590" y1="699" x2="590" y2="68"/>
<line opacity="0.1" stroke="#000000" stroke-width="1" x1="599" y1="699" x2="599" y2="68"/>
<line opacity="0.1" stroke="#000000" stroke-width="1" x1="608" y1="699" x2="608" y2="68"/>
<line opacity="0.1" stroke="#000000" stroke-width="1" x1="617" y1="699" x2="617" y2="68"/>
<line opacity="0.1" stroke="#000000" stroke-width="1" x1="626" y1="699" x2="626" y2="68"/>
<line opacity="0.1" stroke="#000000" stroke-width="1" x1="635" y1="699" x2="635" y2="68"/>
<line opacity="0.1" stroke="#000000" stroke-width="1" x1="644" y1="699" x2="644" y2="68"/>
<line opacity="0.1" stroke="#000000" stroke-width="1" x1="652" y1="699" x2="652" y2="68"/>
<line opacity="0.1" stroke="#000000" stroke-width="1" x1="661" y1="699" x2="661" y2="68"/>
<line opacity="0.1" stroke="#000000" stroke-width="1" x1="670" y1="699" x2="670" y2="68"/>
<line opacity="0.1" stroke="#000000" stroke-width="1" x1="679" y1="699" x2="679" y2="68"/>
<line opacity="0.1" stroke="#000000" stroke-width="1" x1="688" y1="699" x2="688" y2="68"/>
<line opacity="0.1" stroke="#000000" stroke-width="1" x1="697" y1="699" x2="697" y2="68"/>
<line opacity="0.1" stroke="#000000" stroke-width="1" x1="706" y1="699" x2="706" y2="68"/>
<line opacity="0.1" stroke="#000000" stroke-width="1" x1="715" y1="699" x2="715" y2="68"/>
<line opacity="0.1" stroke="#000000" stroke-width="1" x1="724" y1="699" x2="724" y2="68"/>
<line opacity="0.1" stroke="#000000" stroke-width="1" x1="732" y1="699" x2="732" y2="68"/>
<line opacity="0.1" stroke="#000000" stroke-width="1" x1="741" y1="699" x2="741" y2="68"/>
<line opacity="0.1" stroke="#000000" stroke-width="1" x1="750" y1="699" x2="750" y2="68"/>
<line opacity="0.1" stroke="#000000" stroke-width="1" x1="759" y1="699" x2="759" y2="68"/>
<line opacity="0.1" stroke="#000000" stroke-width="1" x1="768" y1="699" x2="768" y2="68"/>
<line opacity="0.1" stroke="#000000" stroke-width="1" x1="777" y1="699" x2="777" y2="68"/>
<line opacity="0.1" stroke="#000000" stroke-width="1" x1="786" y1="699" x2="786" y2="68"/>
<line opacity="0.1" stroke="#000000" stroke-width="1" x1="795" y1="699" x2="795" y2="68"/>
<line opacity="0.1" stroke="#000000" stroke-width="1" x1="804" y1="699" x2="804" y2="68"/>
<line opacity="0.1" stroke="#000000" stroke-width="1" x1="812" y1="699" x2="812" y2="68"/>
<line opacity="0.1" stroke="#000000" stroke-width="1" x1="821" y1="699" x2="821" y2="68"/>
<line opacity="0.1" stroke="#000000" stroke-width="1" x1="830" y1="699" x2="830" y2="68"/>
<line opacity="0.1" stroke="#000000" stroke-width="1" x1="839" y1="699" x2="839" y2="68"/>
<line opacity="0.1" stroke="#000000" stroke-width="1" x1="848" y1="699" x2="848" y2="68"/>
<line opacity="0.1" stroke="#000000" stroke-width="1" x1="857" y1="699" x2="857" y2="68"/>
<line opacity="0.1" stroke="#000000" stroke-width="1" x1="866" y1="699" x2="866" y2="68"/>
<line opacity="0.1" stroke="#000000" stroke-width="1" x1="875" y1="699" x2="875" y2="68"/>
<line opacity="0.1" stroke="#000000" stroke-width="1" x1="884" y1="699" x2="884" y2="68"/>
<line opacity="0.1" stroke="#000000" stroke-width="1" x1="892" y1="699" x2="892" y2="68"/>
<line opacity="0.1" stroke="#000000" stroke-width="1" x1="901" y1="699" x2="901" y2="68"/>
<line opacity="0.1" stroke="#000000" stroke-width="1" x1="910" y1="699" x2="910" y2="68"/>
<line opacity="0.1" stroke="#000000" stroke-width="1" x1="919" y1="699" x2="919" y2="68"/>
<line opacity="0.1" stroke="#000000" stroke-width="1" x1="928" y1="699" x2="928" y2="68"/>
<line opacity="0.1" stroke="#000000" stroke-width="1" x1="937" y1="699" x2="937" y2="68"/>
<line opacity="0.1" stroke="#000000" stroke-width="1" x1="946" y1="699" x2="946" y2="68"/>
<line opacity="0.1" stroke="#000000" stroke-width="1" x1="955" y1="699" x2="955" y2="68"/>
<line opacity="0.1" stroke="#000000" stroke-width="1" x1="964" y1="699" x2="964" y2="68"/>
<line opacity="0.1" stroke="#000000" stroke-width="1" x1="78" y1="699" x2="973" y2="699"/>
<line opacity="0.1" stroke="#000000" stroke-width="1" x1="78" y1="687" x2="973" y2="687"/>
<line opacity="0.1" stroke="#000000" stroke-width="1" x1="78" y1="676" x2="973" y2="676"/>
<line opacity="0.1" stroke="#000000" stroke-width="1" x1="78" y1="665" x2="973" y2="665"/>
<line opacity="0.1" stroke="#000000" stroke-width="1" x1="78" y1="653" x2="973" y2="653"/>
<line opacity="0.1" stroke="#000000" stroke-width="1" x1="78" y1="642" x2="973" y2="642"/>
<line opacity="0.1" stroke="#000000" stroke-width="1" x1="78" y1="631" x2="973" y2="631"/>
<line opacity="0.1" stroke="#000000" stroke-width="1" x1="78" y1="620" x2="973" y2="620"/>
<line opacity="0.1" stroke="#000000" stroke-width="1" x1="78" y1="608" x2="973" y2="608"/>
<line opacity="0.1" stroke="#000000" stroke-width="1" x1="78" y1="597" x2="973" y2="597"/>
<line opacity="0.1" stroke="#000000" stroke-width="1" x1="78" y1="586" x2="973" y2="586"/>
<line opacity="0.1" stroke="#000000" stroke-width="1" x1="78" y1="574" x2="973" y2="574"/>
<line opacity="0.1" stroke="#000000" stroke-width="1" x1="78" y1="563" x2="973" y2="563"/>
<line opacity="0.1" stroke="#000000" stroke-width="1" x1="78" y1="552" x2="973" y2="552"/>
<line opacity="0.1" stroke="#000000" stroke-width="1" x1="78" y1="541" x2="973" y2="541"/>
<line opacity="0.1" stroke="#000000" stroke-width="1" x1="78" y1="529" x2="973" y2="529"/>
<line opacity="0.1" stroke="#000000" stroke-width="1" x1="78" y1="518" x2="973" y2="518"/>
<line opacity="0.1" stroke="#000000" stroke-width="1" x1="78" y1="507" x2="973" y2="507"/>
<line opacity="0.1" stroke="#000000" stroke-width="1" x1="78" y1="495" x2="973" y2="495"/>
<line opacity="0.1" stroke="#000000" stroke-width="1" x1="78" y1="484" x2="973" y2="484"/>
<line opacity="0.1" stroke="#000000" stroke-width="1" x1="78" y1="473" x2="973" y2="473"/>
<line opacity="0.1" stroke="#000000" stroke-width="1" x1="78" y1="462" x2="973" y2="462"/>
<line opacity="0.1" stroke="#000000" stroke-width="1" x1="78" y1="450" x2="973" y2="450"/>
<line opacity="0.1" stroke="#000000" stroke-width="1" x1="78" y1="439" x2="973" y2="439"/>
<line opacity="0.1" stroke="#000000" stroke-width="1" x1="78" y1="428" x2="973" y2="428"/>
<line opacity="0.1" stroke="#000000" stroke-width="1" x1="78" y1="416" x2="973" y2="416"/>
<line opacity="0.1" stroke="#000000" stroke-width="1" x1="78" y1="405" x2="973" y2="405"/>
<line opacity="0.1" stroke="#000000" stroke-width="1" x1="78" y1="394" x2="973" y2="394"/>
<line opacity="0.1" stroke="#000000" stroke-width="1" x1="78" y1="383" x2="973" y2="383"/>
<line opacity="0.1" stroke="#000000" stroke-width="1" x1="78" y1="371" x2="973" y2="371"/>
<line opacity="0.1" stroke="#000000" stroke-width="1" x1="78" y1="360" x2="973" y2="360"/>
<line opacity="0.1" stroke="#000000" stroke-width="1" x1="78" y1="349" x2="973" y2="349"/>
<line opacity="0.1" stroke="#000000" stroke-width="1" x1="78" y1="337" x2="973" y2="337"/>
<line opacity="0.1" stroke="#000000" stroke-width="1" x1="78" y1="326" x2="973" y2="326"/>
<line opacity="0.1" stroke="#000000" stroke-width="1" x1="78" y1="315" x2="973" y2="315"/>
<line opacity="0.1" stroke="#000000" stroke-width="1" x1="78" y1="304" x2="973" y2="304"/>
<line opacity="0.1" stroke="#000000" stroke-width="1" x1="78" y1="292" x2="973" y2="292"/>
<line opacity="0.1" stroke="#000000" stroke-width="1" x1="78" y1="281" x2="973" y2="281"/>
<line opacity="0.1" stroke="#000000" stroke-width="1" x1="78" y1="270" x2="973" y2="270"/>
<line opacity="0.1" stroke="#000000" stroke-width="1" x1="78" y1="258" x2="973" y2="258"/>
<line opacity="0.1" stroke="#000000" stroke-width="1" x1="78" y1="247" x2="973" y2="247"/>
<line opacity="0.1" stroke="#000000" stroke-width="1" x1="78" y1="236" x2="973" y2="236"/>
<line opacity="0.1" stroke="#000000" stroke-width="1" x1="78" y1="225" x2="973" y2="225"/>
<line opacity="0.1" stroke="#000000" stroke-width="1" x1="78" y1="213" x2="973" y2="213"/>
<line opacity="0.1" stroke="#000000" stroke-width="1" x1="78" y1="202" x2="973" y2="202"/>
<line opacity="0.1" stroke="#000000" stroke-width="1" x1="78" y1="191" x2="973" y2="191"/>
<line opacity="0.1" stroke="#000000" stroke-width="1" x1="78" y1="179" x2="973" y2="179"/>
<line opacity="0.1" stroke="#000000" stroke-width="1" x1="78" y1="168" x2="973" y2="168"/>
<line opacity="0.1" stroke="#000000" stroke-width="1" x1="78" y1="157" x2="973" y2="157"/>
<line opacity="0.1" stroke="#000000" stroke-width="1" x1="78" y1="146" x2="973" y2="146"/>
<line opacity="0.1" stroke="#000000" stroke-width="1" x1="78" y1="134" x2="973" y2="134"/>
<line opacity="0.1" stroke="#000000" stroke-width="1" x1="78" y1="123" x2="973" y2="123"/>
<line opacity="0.1" stroke="#000000" stroke-width="1" x1="78" y1="112" x2="973" y2="112"/>
<line opacity="0.1" stroke="#000000" stroke-width="1" x1="78" y1="100" x2="973" y2="100"/>
<line opacity="0.1" stroke="#000000" stroke-width="1" x1="78" y1="89" x2="973" y2="89"/>
<line opacity="0.1" stroke="#000000" stroke-width="1" x1="78" y1="78" x2="973" y2="78"/>
<text x="8" y="384" dy="0.76em" text-anchor="middle" font-family="sans-serif" font-size="9.67741935483871" opacity="1" fill="#000000" transform="rotate(270, 8, 384)">
Memory usage
</text>
<text x="526" y="760" dy="-0.5ex" text-anchor="middle" font-family="sans-serif" font-size="9.67741935483871" opacity="1" fill="#000000">
Time
</text>
<line opacity="0.2" stroke="#000000" stroke-width="1" x1="101" y1="699" x2="101" y2="68"/>
<line opacity="0.2" stroke="#000000" stroke-width="1" x1="190" y1="699" x2="190" y2="68"/>
<line opacity="0.2" stroke="#000000" stroke-width="1" x1="279" y1="699" x2="279" y2="68"/>
<line opacity="0.2" stroke="#000000" stroke-width="1" x1="368" y1="699" x2="368" y2="68"/>
<line opacity="0.2" stroke="#000000" stroke-width="1" x1="457" y1="699" x2="457" y2="68"/>
<line opacity="0.2" stroke="#000000" stroke-width="1" x1="546" y1="699" x2="546" y2="68"/>
<line opacity="0.2" stroke="#000000" stroke-width="1" x1="635" y1="699" x2="635" y2="68"/>
<line opacity="0.2" stroke="#000000" stroke-width="1" x1="724" y1="699" x2="724" y2="68"/>
<line opacity="0.2" stroke="#000000" stroke-width="1" x1="812" y1="699" x2="812" y2="68"/>
<line opacity="0.2" stroke="#000000" stroke-width="1" x1="901" y1="699" x2="901" y2="68"/>
<line opacity="0.2" stroke="#000000" stroke-width="1" x1="78" y1="699" x2="973" y2="699"/>
<line opacity="0.2" stroke="#000000" stroke-width="1" x1="78" y1="586" x2="973" y2="586"/>
<line opacity="0.2" stroke="#000000" stroke-width="1" x1="78" y1="473" x2="973" y2="473"/>
<line opacity="0.2" stroke="#000000" stroke-width="1" x1="78" y1="360" x2="973" y2="360"/>
<line opacity="0.2" stroke="#000000" stroke-width="1" x1="78" y1="247" x2="973" y2="247"/>
<line opacity="0.2" stroke="#000000" stroke-width="1" x1="78" y1="134" x2="973" y2="134"/>
<polyline fill="none" opacity="1" stroke="#000000" stroke-width="1" points="77,68 77,699 "/>
<text x="68" y="699" dy="0.5ex" text-anchor="end" font-family="sans-serif" font-size="9.67741935483871" opacity="1" fill="#000000">
0 KB
</text>
<polyline fill="none" opacity="1" stroke="#000000" stroke-width="1" points="72,699 77,699 "/>
<text x="68" y="586" dy="0.5ex" text-anchor="end" font-family="sans-serif" font-size="9.67741935483871" opacity="1" fill="#000000">
19 KB
</text>
<polyline fill="none" opacity="1" stroke="#000000" stroke-width="1" points="72,586 77,586 "/>
<text x="68" y="473" dy="0.5ex" text-anchor="end" font-family="sans-serif" font-size="9.67741935483871" opacity="1" fill="#000000">
39 KB
</text>
<polyline fill="none" opacity="1" stroke="#000000" stroke-width="1" points="72,473 77,473 "/>
<text x="68" y="360" dy="0.5ex" text-anchor="end" font-family="sans-serif" font-size="9.67741935483871" opacity="1" fill="#000000">
58 KB
</text>
<polyline fill="none" opacity="1" stroke="#000000" stroke-width="1" points="72,360 77,360 "/>
<text x="68" y="247" dy="0.5ex" text-anchor="end" font-family="sans-serif" font-size="9.67741935483871" opacity="1" fill="#000000">
78 KB
</text>
<polyline fill="none" opacity="1" stroke="#000000" stroke-width="1" points="72,247 77,247 "/>
<text x="68" y="134" dy="0.5ex" text-anchor="end" font-family="sans-serif" font-size="9.67741935483871" opacity="1" fill="#000000">
97 KB
</text>
<polyline fill="none" opacity="1" stroke="#000000" stroke-width="1" points="72,134 77,134 "/>
<polyline fill="none" opacity="1" stroke="#000000" stroke-width="1" points="78,700 973,700 "/>
<text x="101" y="710" dy="0.76em" text-anchor="middle" font-family="sans-serif" font-size="9.67741935483871" opacity="1" fill="#000000">
02:04:17
</text>
<polyline fill="none" opacity="1" stroke="#000000" stroke-width="1" points="101,700 101,705 "/>
<text x="190" y="710" dy="0.76em" text-anchor="middle" font-family="sans-serif" font-size="9.67741935483871" opacity="1" fill="#000000">
02:04:18
</text>
<polyline fill="none" opacity="1" stroke="#000000" stroke-width="1" points="190,700 190,705 "/>
<text x="279" y="710" dy="0.76em" text-anchor="middle" font-family="sans-serif" font-size="9.67741935483871" opacity="1" fill="#000000">
02:04:19
</text>
<polyline fill="none" opacity="1" stroke="#000000" stroke-width="1" points="279,700 279,705 "/>
<text x="368" y="710" dy="0.76em" text-anchor="middle" font-family="sans-serif" font-size="9.67741935483871" opacity="1" fill="#000000">
02:04:20
</text>
<polyline fill="none" opacity="1" stroke="#000000" stroke-width="1" points="368,700 368,705 "/>
<text x="457" y="710" dy="0.76em" text-anchor="middle" font-family="sans-serif" font-size="9.67741935483871" opacity="1" fill="#000000">
02:04:21
</text>
<polyline fill="none" opacity="1" stroke="#000000" stroke-width="1" points="457,700 457,705 "/>
<text x="546" y="710" dy="0.76em" text-anchor="middle" font-family="sans-serif" font-size="9.67741935483871" opacity="1" fill="#000000">
02:04:22
</text>
<polyline fill="none" opacity="1" stroke="#000000" stroke-width="1" points="546,700 546,705 "/>
<text x="635" y="710" dy="0.76em" text-anchor="middle" font-family="sans-serif" font-size="9.67741935483871" opacity="1" fill="#000000">
02:04:23
</text>
<polyline fill="none" opacity="1" stroke="#000000" stroke-width="1" points="635,700 635,705 "/>
<text x="724" y="710" dy="0.76em" text-anchor="middle" font-family="sans-serif" font-size="9.67741935483871" opacity="1" fill="#000000">
02:04:24
</text>
<polyline fill="none" opacity="1" stroke="#000000" stroke-width="1" points="724,700 724,705 "/>
<text x="812" y="710" dy="0.76em" text-anchor="middle" font-family="sans-serif" font-size="9.67741935483871" opacity="1" fill="#000000">
02:04:25
</text>
<polyline fill="none" opacity="1" stroke="#000000" stroke-width="1" points="812,700 812,705 "/>
<text x="901" y="710" dy="0.76em" text-anchor="middle" font-family="sans-serif" font-size="9.67741935483871" opacity="1" fill="#000000">
02:04:26
</text>
<polyline fill="none" opacity="1" stroke="#000000" stroke-width="1" points="901,700 901,705 "/>
<polyline fill="none" opacity="1" stroke="#000000" stroke-width="1" points="78,67 974,67 "/>
<text x="101" y="58" dy="-0.5ex" text-anchor="middle" font-family="sans-serif" font-size="9.67741935483871" opacity="1" fill="#000000">
+265ms
</text>
<polyline fill="none" opacity="1" stroke="#000000" stroke-width="1" points="101,62 101,67 "/>
<text x="190" y="58" dy="-0.5ex" text-anchor="middle" font-family="sans-serif" font-size="9.67741935483871" opacity="1" fill="#000000">
+1s
</text>
<polyline fill="none" opacity="1" stroke="#000000" stroke-width="1" points="190,62 190,67 "/>
<text x="279" y="58" dy="-0.5ex" text-anchor="middle" font-family="sans-serif" font-size="9.67741935483871" opacity="1" fill="#000000">
+2s
</text>
<polyline fill="none" opacity="1" stroke="#000000" stroke-width="1" points="279,62 279,67 "/>
<text x="368" y="58" dy="-0.5ex" text-anchor="middle" font-family="sans-serif" font-size="9.67741935483871" opacity="1" fill="#000000">
+3s
</text>
<polyline fill="none" opacity="1" stroke="#000000" stroke-width="1" points="368,62 368,67 "/>
<text x="457" y="58" dy="-0.5ex" text-anchor="middle" font-family="sans-serif" font-size="9.67741935483871" opacity="1" fill="#000000">
+4s
</text>
<polyline fill="none" opacity="1" stroke="#000000" stroke-width="1" points="457,62 457,67 "/>
<text x="546" y="58" dy="-0.5ex" text-anchor="middle" font-family="sans-serif" font-size="9.67741935483871" opacity="1" fill="#000000">
+5s
</text>
<polyline fill="none" opacity="1" stroke="#000000" stroke-width="1" points="546,62 546,67 "/>
<text x="635" y="58" dy="-0.5ex" text-anchor="middle" font-family="sans-serif" font-size="9.67741935483871" opacity="1" fill="#000000">
+6s
</text>
<polyline fill="none" opacity="1" stroke="#000000" stroke-width="1" points="635,62 635,67 "/>
<text x="724" y="58" dy="-0.5ex" text-anchor="middle" font-family="sans-serif" font-size="9.67741935483871" opacity="1" fill="#000000">
+7s
</text>
<polyline fill="none" opacity="1" stroke="#000000" stroke-width="1" points="724,62 724,67 "/>
<text x="813" y="58" dy="-0.5ex" text-anchor="middle" font-family="sans-serif" font-size="9.67741935483871" opacity="1" fill="#000000">
+8s
</text>
<polyline fill="none" opacity="1" stroke="#000000" stroke-width="1" points="813,62 813,67 "/>
<text x="902" y="58" dy="-0.5ex" text-anchor="middle" font-family="sans-serif" font-size="9.67741935483871" opacity="1" fill="#000000">
+9s
</text>
<polyline fill="none" opacity="1" stroke="#000000" stroke-width="1" points="902,62 902,67 "/>
<rect x="83" y="73" width="99" height="45" opacity="0.75" fill="#FFFFFF" stroke="none"/>
<rect x="83" y="73" width="99" height="45" opacity="1" fill="none" stroke="#000000"/>
<text x="123" y="83" dy="0.76em" text-anchor="start" font-family="sans-serif" font-size="9.67741935483871" opacity="1" fill="#000000">
Remaining
</text>
<text x="123" y="98" dy="0.76em" text-anchor="start" font-family="sans-serif" font-size="9.67741935483871" opacity="1" fill="#000000">
Vecs
</text>
<rect x="93" y="83" width="10" height="10" opacity="1" fill="#3CB44B" stroke="none"/>
<rect x="93" y="98" width="10" height="10" opacity="1" fill="#E6194B" stroke="none"/>
</svg>
