<svg width="1024" height="768" viewBox="0 0 1024 768" xmlns="http://www.w3.org/2000/svg">
<rect x="0" y="0" width="1023" height="767" opacity="1" fill="#FFFFFF" stroke="none"/>
<polygon opacity="1" fill="#E6194B" points="107,697 108,697 108,697 109,697 110,697 111,697 112,697 113,696 114,696 115,696 115,696 116,696 117,696 118,696 119,695 120,695 121,695 121,695 122,695 123,695 124,695 125,695 126,695 127,695 128,695 128,694 129,694 130,694 131,694 132,694 133,694 134,694 134,694 135,694 136,693 137,693 138,693 139,693 140,693 141,693 141,693 142,693 143,693 144,693 145,692 146,692 147,692 147,692 148,692 149,691 150,691 151,691 152,691 153,691 154,691 154,691 155,691 156,691 157,690 158,690 159,690 160,690 160,690 161,690 162,689 163,689 164,689 165,689 166,689 166,689 167,689 168,689 169,689 170,689 171,688 172,688 173,688 173,688 174,688 175,688 176,688 177,688 178,688 179,688 179,688 180,688 181,688 182,687 183,687 184,687 185,687 186,674 186,674 187,674 188,674 189,674 190,674 191,673 192,673 192,673 193,673 194,673 195,672 196,672 197,672 198,672 199,672 199,672 200,672 201,671 202,671 203,671 204,671 205,671 205,671 206,671 207,671 208,671 209,671 210,670 211,670 212,670 212,670 213,670 214,669 215,669 216,669 217,669 218,669 218,669 219,669 220,669 221,669 222,668 223,668 224,668 225,668 225,668 226,668 227,668 228,668 229,668 230,668 231,668 231,667 232,667 233,667 234,667 235,667 236,667 237,667 238,667 238,667 239,667 240,667 241,667 242,666 243,666 244,666 244,666 245,666 246,666 247,666 248,666 249,666 250,666 251,666 251,666 252,666 253,666 254,665 255,665 256,665 257,665 257,665 258,665 259,665 260,665 261,664 262,664 263,664 264,664 264,664 265,664 266,664 267,664 268,664 269,664 270,664 270,664 271,664 272,663 273,663 274,663 275,663 276,663 277,663 277,663 278,663 279,663 280,663 281,663 282,662 283,662 283,662 284,662 285,662 286,662 287,661 288,661 289,661 290,661 290,661 291,661 292,661 293,661 294,661 295,661 296,661 296,661 297,660 298,660 299,660 300,660 301,660 302,660 303,660 303,660 304,660 305,660 306,660 307,660 308,660 309,659 309,659 310,659 311,659 312,659 313,659 314,659 315,659 316,659 316,658 317,658 318,658 319,658 320,658 321,658 322,658 322,658 323,658 324,658 325,658 326,658 327,658 328,658 329,658 329,657 330,657 331,657 332,657 333,657 334,657 335,657 335,657 336,657 337,657 338,657 339,656 340,656 341,656 342,655 342,629 343,629 344,629 345,629 346,629 347,629 348,629 348,629 349,629 350,629 351,629 352,629 353,629 354,628 355,628 355,628 356,628 357,628 358,628 359,628 360,628 361,628 361,628 362,627 363,627 364,627 365,627 366,627 367,627 368,627 368,627 369,627 370,627 371,627 372,627 373,626 374,626 374,626 375,626 376,626 377,626 378,626 379,626 380,626 381,626 381,626 382,626 383,625 384,625 385,625 386,625 387,625 387,625 388,625 389,625 390,625 391,625 392,625 393,624 394,624 394,624 395,624 396,624 397,624 398,624 399,624 400,624 400,624 401,624 402,624 403,623 404,623 405,623 406,623 407,623 407,623 408,623 409,623 410,623 411,623 412,623 413,622 413,622 414,622 415,622 416,622 417,622 418,622 419,622 420,622 420,622 421,622 422,622 423,622 424,621 425,621 426,621 426,621 427,621 428,621 429,614 430,614 431,614 432,614 433,614 433,614 434,614 435,614 436,614 437,614 438,614 439,614 439,614 440,614 441,614 442,614 443,614 444,613 445,613 446,613 446,613 447,613 448,613 449,613 450,613 451,613 452,612 452,612 453,612 454,612 455,612 456,612 457,612 458,612 459,612 459,611 460,611 461,611 462,611 463,611 464,611 465,611 465,611 466,611 467,610 468,610 469,610 470,610 471,610 472,609 472,609 473,609 474,609 475,609 476,609 477,608 478,608 478,608 479,608 480,608 481,608 482,608 483,607 484,607 485,607 485,607 486,607 487,607 488,607 489,607 490,607 491,607 491,606 492,606 493,606 494,606 495,606 496,606 497,606 497,606 498,606 499,606 500,605 501,605 502,605 503,605 504,605 504,605 505,605 506,604 507,604 508,604 509,604 510,604 510,604 511,604 512,604 513,604 514,604 515,604 516,603 517,603 517,603 518,603 519,603 520,603 521,603 522,603 523,602 523,602 524,602 525,602 526,602 527,602 528,602 529,602 530,602 530,602 531,602 532,601 533,601 534,601 535,601 536,601 536,601 537,601 538,601 539,601 540,601 541,601 542,601 543,600 543,600 544,600 545,600 546,600 547,600 548,599 549,599 549,599 550,599 551,599 552,599 553,599 554,599 555,599 556,599 556,599 557,598 558,598 559,598 560,598 561,598 562,598 562,598 563,598 564,598 565,598 566,598 567,597 568,597 569,597 569,597 570,597 571,597 572,597 573,597 574,597 575,596 575,596 576,596 577,596 578,596 579,596 580,596 581,596 582,596 582,596 583,596 584,596 585,595 586,595 587,595 588,595 588,595 589,595 590,595 591,595 592,595 593,595 594,595 595,595 595,595 596,595 597,595 598,594 599,594 600,594 601,594 601,594 602,594 603,594 604,594 605,593 606,593 607,593 608,593 608,593 609,593 610,593 611,593 612,593 613,593 614,593 614,593 615,593 616,592 617,592 618,592 619,592 620,592 621,592 621,592 622,592 623,592 624,592 625,592 626,592 627,591 627,591 628,591 629,591 630,591 631,591 632,591 633,591 634,591 634,591 635,591 636,590 637,590 638,590 639,590 640,590 640,590 641,590 642,590 643,590 644,589 645,589 646,589 647,589 647,589 648,589 649,589 650,589 651,589 652,589 653,589 653,589 654,588 655,588 656,588 657,588 658,588 659,588 660,588 660,587 661,587 662,587 663,587 664,587 665,587 666,587 666,587 667,587 668,587 669,586 670,586 671,586 672,586 673,586 673,586 674,586 675,585 676,585 677,585 678,585 679,585 679,585 680,585 681,585 682,585 683,585 684,584 685,584 686,584 686,584 687,584 688,584 689,584 690,532 691,532 692,532 692,532 693,531 694,531 695,531 696,531 697,531 698,531 699,531 699,531 700,530 701,530 702,530 703,530 704,530 705,530 705,530 706,530 707,530 708,530 709,530 710,530 711,530 712,529 712,529 713,529 714,529 715,529 716,529 717,529 718,529 718,529 719,529 720,529 721,529 722,528 723,528 724,528 725,528 725,528 726,528 727,528 728,528 729,528 730,528 731,528 731,528 732,527 733,527 734,527 735,527 736,527 737,527 738,527 738,526 739,526 740,526 741,526 742,526 743,526 744,526 744,526 745,526 746,526 747,526 748,525 749,525 750,525 751,525 751,525 752,525 753,525 754,525 755,525 756,525 757,525 757,525 758,524 759,524 760,524 761,524 762,524 763,524 764,523 764,523 765,523 766,523 767,523 768,523 769,523 770,523 770,523 771,522 772,522 773,522 774,522 775,522 776,522 777,522 777,522 778,522 779,522 780,521 781,521 782,521 783,521 783,521 784,521 785,521 786,521 787,521 788,521 789,521 790,520 790,520 791,520 792,520 793,520 794,520 795,520 796,520 796,519 797,519 798,519 799,519 800,519 801,519 802,519 803,518 803,518 804,518 805,518 806,518 807,518 808,518 809,518 809,518 810,518 811,517 812,517 813,517 814,517 815,517 816,517 816,517 817,517 818,517 819,517 820,517 821,517 822,516 822,516 823,516 824,516 825,516 826,516 827,516 828,515 829,515 829,515 830,515 831,515 832,515 833,515 834,515 835,515 835,515 836,515 837,514 838,514 839,514 840,514 841,514 841,514 842,514 843,514 844,514 845,514 846,514 847,514 848,514 848,514 849,514 850,514 851,513 852,513 853,513 854,513 854,513 855,513 856,513 857,513 858,513 859,513 860,512 861,512 861,512 862,512 863,512 864,512 865,512 866,512 867,512 867,512 868,512 869,512 870,512 871,512 872,512 873,512 874,511 874,511 875,511 876,511 877,511 878,511 879,511 880,511 880,511 881,511 882,510 883,510 884,510 885,510 886,510 887,510 887,510 888,510 889,510 890,510 891,510 892,510 893,510 893,510 894,510 895,510 896,510 897,510 898,510 899,509 900,509 900,509 901,509 902,509 903,509 904,509 905,509 906,509 906,509 907,509 908,509 909,509 910,509 911,508 912,508 913,508 913,508 914,508 915,508 916,508 917,508 918,508 919,508 919,508 920,507 921,507 922,507 923,507 924,507 925,507 926,507 926,507 927,507 928,506 929,506 930,506 931,506 932,506 932,506 933,506 934,506 935,506 936,506 937,506 938,506 939,505 939,505 940,505 941,505 942,505 943,504 944,502 945,500 945,496 946,495 947,485 948,476 949,463 950,447 951,406 952,371 952,325 953,275 954,201 955,148 956,152 957,148 958,138 958,133 959,132 960,126 961,119 962,107 963,107 964,110 965,121 965,108 966,97 967,98 968,117 969,125 970,112 971,108 971,110 972,74 973,68 973,699 974,699 974,699 107,699 "/>
<polyline fill="none" opacity="1" stroke="#E6194B" stroke-width="1" points="107,697 108,697 108,697 109,697 110,697 111,697 112,697 113,696 114,696 115,696 115,696 116,696 117,696 118,696 119,695 120,695 121,695 121,695 122,695 123,695 124,695 125,695 126,695 127,695 128,695 128,694 129,694 130,694 131,694 132,694 133,694 134,694 134,694 135,694 136,693 137,693 138,693 139,693 140,693 141,693 141,693 142,693 143,693 144,693 145,692 146,692 147,692 147,692 148,692 149,691 150,691 151,691 152,691 153,691 154,691 154,691 155,691 156,691 157,690 158,690 159,690 160,690 160,690 161,690 162,689 163,689 164,689 165,689 166,689 166,689 167,689 168,689 169,689 170,689 171,688 172,688 173,688 173,688 174,688 175,688 176,688 177,688 178,688 179,688 179,688 180,688 181,688 182,687 183,687 184,687 185,687 186,674 186,674 187,674 188,674 189,674 190,674 191,673 192,673 192,673 193,673 194,673 195,672 196,672 197,672 198,672 199,672 199,672 200,672 201,671 202,671 203,671 204,671 205,671 205,671 206,671 207,671 208,671 209,671 210,670 211,670 212,670 212,670 213,670 214,669 215,669 216,669 217,669 218,669 218,669 219,669 220,669 221,669 222,668 223,668 224,668 225,668 225,668 226,668 227,668 228,668 229,668 230,668 231,668 231,667 232,667 233,667 234,667 235,667 236,667 237,667 238,667 238,667 239,667 240,667 241,667 242,666 243,666 244,666 244,666 245,666 246,666 247,666 248,666 249,666 250,666 251,666 251,666 252,666 253,666 254,665 255,665 256,665 257,665 257,665 258,665 259,665 260,665 261,664 262,664 263,664 264,664 264,664 265,664 266,664 267,664 268,664 269,664 270,664 270,664 271,664 272,663 273,663 274,663 275,663 276,663 277,663 277,663 278,663 279,663 280,663 281,663 282,662 283,662 283,662 284,662 285,662 286,662 287,661 288,661 289,661 290,661 290,661 291,661 292,661 293,661 294,661 295,661 296,661 296,661 297,660 298,660 299,660 300,660 301,660 302,660 303,660 303,660 304,660 305,660 306,660 307,660 308,660 309,659 309,659 310,659 311,659 312,659 313,659 314,659 315,659 316,659 316,658 317,658 318,658 319,658 320,658 321,658 322,658 322,658 323,658 324,658 325,658 326,658 327,658 328,658 329,658 329,657 330,657 331,657 332,657 333,657 334,657 335,657 335,657 336,657 337,657 338,657 339,656 340,656 341,656 342,655 342,629 343,629 344,629 345,629 346,629 347,629 348,629 348,629 349,629 350,629 351,629 352,629 353,629 354,628 355,628 355,628 356,628 357,628 358,628 359,628 360,628 361,628 361,628 362,627 363,627 364,627 365,627 366,627 367,627 368,627 368,627 369,627 370,627 371,627 372,627 373,626 374,626 374,626 375,626 376,626 377,626 378,626 379,626 380,626 381,626 381,626 382,626 383,625 384,625 385,625 386,625 387,625 387,625 388,625 389,625 390,625 391,625 392,625 393,624 394,624 394,624 395,624 396,624 397,624 398,624 399,624 400,624 400,624 401,624 402,624 403,623 404,623 405,623 406,623 407,623 407,623 408,623 409,623 410,623 411,623 412,623 413,622 413,622 414,622 415,622 416,622 417,622 418,622 419,622 420,622 420,622 421,622 422,622 423,622 424,621 425,621 426,621 426,621 427,621 428,621 429,614 430,614 431,614 432,614 433,614 433,614 434,614 435,614 436,614 437,614 438,614 439,614 439,614 440,614 441,614 442,614 443,614 444,613 445,613 446,613 446,613 447,613 448,613 449,613 450,613 451,613 452,612 452,612 453,612 454,612 455,612 456,612 457,612 458,612 459,612 459,611 460,611 461,611 462,611 463,611 464,611 465,611 465,611 466,611 467,610 468,610 469,610 470,610 471,610 472,609 472,609 473,609 474,609 475,609 476,609 477,608 478,608 478,608 479,608 480,608 481,608 482,608 483,607 484,607 485,607 485,607 486,607 487,607 488,607 489,607 490,607 491,607 491,606 492,606 493,606 494,606 495,606 496,606 497,606 497,606 498,606 499,606 500,605 501,605 502,605 503,605 504,605 504,605 505,605 506,604 507,604 508,604 509,604 510,604 510,604 511,604 512,604 513,604 514,604 515,604 516,603 517,603 517,603 518,603 519,603 520,603 521,603 522,603 523,602 523,602 524,602 525,602 526,602 527,602 528,602 529,602 530,602 530,602 531,602 532,601 533,601 534,601 535,601 536,601 536,601 537,601 538,601 539,601 540,601 541,601 542,601 543,600 543,600 544,600 545,600 546,600 547,600 548,599 549,599 549,599 550,599 551,599 552,599 553,599 554,599 555,599 556,599 556,599 557,598 558,598 559,598 560,598 561,598 562,598 562,598 563,598 564,598 565,598 566,598 567,597 568,597 569,597 569,597 570,597 571,597 572,597 573,597 574,597 575,596 575,596 576,596 577,596 578,596 579,596 580,596 581,596 582,596 582,596 583,596 584,596 585,595 586,595 587,595 588,595 588,595 589,595 590,595 591,595 592,595 593,595 594,595 595,595 595,595 596,595 597,595 598,594 599,594 600,594 601,594 601,594 602,594 603,594 604,594 605,593 606,593 607,593 608,593 608,593 609,593 610,593 611,593 612,593 613,593 614,593 614,593 615,593 616,592 617,592 618,592 619,592 620,592 621,592 621,592 622,592 623,592 624,592 625,592 626,592 627,591 627,591 628,591 629,591 630,591 631,591 632,591 633,591 634,591 634,591 635,591 636,590 637,590 638,590 639,590 640,590 640,590 641,590 642,590 643,590 644,589 645,589 646,589 647,589 647,589 648,589 649,589 650,589 651,589 652,589 653,589 653,589 654,588 655,588 656,588 657,588 658,588 659,588 660,588 660,587 661,587 662,587 663,587 664,587 665,587 666,587 666,587 667,587 668,587 669,586 670,586 671,586 672,586 673,586 673,586 674,586 675,585 676,585 677,585 678,585 679,585 679,585 680,585 681,585 682,585 683,585 684,584 685,584 686,584 686,584 687,584 688,584 689,584 690,532 691,532 692,532 692,532 693,531 694,531 695,531 696,531 697,531 698,531 699,531 699,531 700,530 701,530 702,530 703,530 704,530 705,530 705,530 706,530 707,530 708,530 709,530 710,530 711,530 712,529 712,529 713,529 714,529 715,529 716,529 717,529 718,529 718,529 719,529 720,529 721,529 722,528 723,528 724,528 725,528 725,528 726,528 727,528 728,528 729,528 730,528 731,528 731,528 732,527 733,527 734,527 735,527 736,527 737,527 738,527 738,526 739,526 740,526 741,526 742,526 743,526 744,526 744,526 745,526 746,526 747,526 748,525 749,525 750,525 751,525 751,525 752,525 753,525 754,525 755,525 756,525 757,525 757,525 758,524 759,524 760,524 761,524 762,524 763,524 764,523 764,523 765,523 766,523 767,523 768,523 769,523 770,523 770,523 771,522 772,522 773,522 774,522 775,522 776,522 777,522 777,522 778,522 779,522 780,521 781,521 782,521 783,521 783,521 784,521 785,521 786,521 787,521 788,521 789,521 790,520 790,520 791,520 792,520 793,520 794,520 795,520 796,520 796,519 797,519 798,519 799,519 800,519 801,519 802,519 803,518 803,518 804,518 805,518 806,518 807,518 808,518 809,518 809,518 810,518 811,517 812,517 813,517 814,517 815,517 816,517 816,517 817,517 818,517 819,517 820,517 821,517 822,516 822,516 823,516 824,516 825,516 826,516 827,516 828,515 829,515 829,515 830,515 831,515 832,515 833,515 834,515 835,515 835,515 836,515 837,514 838,514 839,514 840,514 841,514 841,514 842,514 843,514 844,514 845,514 846,514 847,514 848,514 848,514 849,514 850,514 851,513 852,513 853,513 854,513 854,513 855,513 856,513 857,513 858,513 859,513 860,512 861,512 861,512 862,512 863,512 864,512 865,512 866,512 867,512 867,512 868,512 869,512 870,512 871,512 872,512 873,512 874,511 874,511 875,511 876,511 877,511 878,511 879,511 880,511 880,511 881,511 882,510 883,510 884,510 885,510 886,510 887,510 887,510 888,510 889,510 890,510 891,510 892,510 893,510 893,510 894,510 895,510 896,510 897,510 898,510 899,509 900,509 900,509 901,509 902,509 903,509 904,509 905,509 906,509 906,509 907,509 908,509 909,509 910,509 911,508 912,508 913,508 913,508 914,508 915,508 916,508 917,508 918,508 919,508 919,508 920,507 921,507 922,507 923,507 924,507 925,507 926,507 926,507 927,507 928,506 929,506 930,506 931,506 932,506 932,506 933,506 934,506 935,506 936,506 937,506 938,506 939,505 939,505 940,505 941,505 942,505 943,504 944,502 945,500 945,496 946,495 947,485 948,476 949,463 950,447 951,406 952,371 952,325 953,275 954,201 955,148 956,152 957,148 958,138 958,133 959,132 960,126 961,119 962,107 963,107 964,110 965,121 965,108 966,97 967,98 968,117 969,125 970,112 971,108 971,110 972,74 973,68 973,699 974,699 "/>
<line opacity="0.1" stroke="#000000" stroke-width="1" x1="85" y1="699" x2="85" y2="67"/>
<line opacity="0.1" stroke="#000000" stroke-width="1" x1="103" y1="699" x2="103" y2="67"/>
<line opacity="0.1" stroke="#000000" stroke-width="1" x1="121" y1="699" x2="121" y2="67"/>
<line opacity="0.1" stroke="#000000" stroke-width="1" x1="139" y1="699" x2="139" y2="67"/>
<line opacity="0.1" stroke="#000000" stroke-width="1" x1="157" y1="699" x2="157" y2="67"/>
<line opacity="0.1" stroke="#000000" stroke-width="1" x1="174" y1="699" x2="174" y2="67"/>
<line opacity="0.1" stroke="#000000" stroke-width="1" x1="192" y1="699" x2="192" y2="67"/>
<line opacity="0.1" stroke="#000000" stroke-width="1" x1="210" y1="699" x2="210" y2="67"/>
<line opacity="0.1" stroke="#000000" stroke-width="1" x1="228" y1="699" x2="228" y2="67"/>
<line opacity="0.1" stroke="#000000" stroke-width="1" x1="246" y1="699" x2="246" y2="67"/>
<line opacity="0.1" stroke="#000000" stroke-width="1" x1="264" y1="699" x2="264" y2="67"/>
<line opacity="0.1" stroke="#000000" stroke-width="1" x1="282" y1="699" x2="282" y2="67"/>
<line opacity="0.1" stroke="#000000" stroke-width="1" x1="300" y1="699" x2="300" y2="67"/>
<line opacity="0.1" stroke="#000000" stroke-width="1" x1="318" y1="699" x2="318" y2="67"/>
<line opacity="0.1" stroke="#000000" stroke-width="1" x1="336" y1="699" x2="336" y2="67"/>
<line opacity="0.1" stroke="#000000" stroke-width="1" x1="354" y1="699" x2="354" y2="67"/>
<line opacity="0.1" stroke="#000000" stroke-width="1" x1="372" y1="699" x2="372" y2="67"/>
<line opacity="0.1" stroke="#000000" stroke-width="1" x1="389" y1="699" x2="389" y2="67"/>
<line opacity="0.1" stroke="#000000" stroke-width="1" x1="407" y1="699" x2="407" y2="67"/>
<line opacity="0.1" stroke="#000000" stroke-width="1" x1="425" y1="699" x2="425" y2="67"/>
<line opacity="0.1" stroke="#000000" stroke-width="1" x1="443" y1="699" x2="443" y2="67"/>
<line opacity="0.1" stroke="#000000" stroke-width="1" x1="461" y1="699" x2="461" y2="67"/>
<line opacity="0.1" stroke="#000000" stroke-width="1" x1="479" y1="699" x2="479" y2="67"/>
<line opacity="0.1" stroke="#000000" stroke-width="1" x1="497" y1="699" x2="497" y2="67"/>
<line opacity="0.1" stroke="#000000" stroke-width="1" x1="515" y1="699" x2="515" y2="67"/>
<line opacity="0.1" stroke="#000000" stroke-width="1" x1="533" y1="699" x2="533" y2="67"/>
<line opacity="0.1" stroke="#000000" stroke-width="1" x1="551" y1="699" x2="551" y2="67"/>
<line opacity="0.1" stroke="#000000" stroke-width="1" x1="569" y1="699" x2="569" y2="67"/>
<line opacity="0.1" stroke="#000000" stroke-width="1" x1="587" y1="699" x2="587" y2="67"/>
<line opacity="0.1" stroke="#000000" stroke-width="1" x1="604" y1="699" x2="604" y2="67"/>
<line opacity="0.1" stroke="#000000" stroke-width="1" x1="622" y1="699" x2="622" y2="67"/>
<line opacity="0.1" stroke="#000000" stroke-width="1" x1="640" y1="699" x2="640" y2="67"/>
<line opacity="0.1" stroke="#000000" stroke-width="1" x1="658" y1="699" x2="658" y2="67"/>
<line opacity="0.1" stroke="#000000" stroke-width="1" x1="676" y1="699" x2="676" y2="67"/>
<line opacity="0.1" stroke="#000000" stroke-width="1" x1="694" y1="699" x2="694" y2="67"/>
<line opacity="0.1" stroke="#000000" stroke-width="1" x1="712" y1="699" x2="712" y2="67"/>
<line opacity="0.1" stroke="#000000" stroke-width="1" x1="730" y1="699" x2="730" y2="67"/>
<line opacity="0.1" stroke="#000000" stroke-width="1" x1="748" y1="699" x2="748" y2="67"/>
<line opacity="0.1" stroke="#000000" stroke-width="1" x1="766" y1="699" x2="766" y2="67"/>
<line opacity="0.1" stroke="#000000" stroke-width="1" x1="784" y1="699" x2="784" y2="67"/>
<line opacity="0.1" stroke="#000000" stroke-width="1" x1="802" y1="699" x2="802" y2="67"/>
<line opacity="0.1" stroke="#000000" stroke-width="1" x1="819" y1="699" x2="819" y2="67"/>
<line opacity="0.1" stroke="#000000" stroke-width="1" x1="837" y1="699" x2="837" y2="67"/>
<line opacity="0.1" stroke="#000000" stroke-width="1" x1="855" y1="699" x2="855" y2="67"/>
<line opacity="0.1" stroke="#000000" stroke-width="1" x1="873" y1="699" x2="873" y2="67"/>
<line opacity="0.1" stroke="#000000" stroke-width="1" x1="891" y1="699" x2="891" y2="67"/>
<line opacity="0.1" stroke="#000000" stroke-width="1" x1="909" y1="699" x2="909" y2="67"/>
<line opacity="0.1" stroke="#000000" stroke-width="1" x1="927" y1="699" x2="927" y2="67"/>
<line opacity="0.1" stroke="#000000" stroke-width="1" x1="945" y1="699" x2="945" y2="67"/>
<line opacity="0.1" stroke="#000000" stroke-width="1" x1="963" y1="699" x2="963" y2="67"/>
<line opacity="0.1" stroke="#000000" stroke-width="1" x1="78" y1="699" x2="974" y2="699"/>
<line opacity="0.1" stroke="#000000" stroke-width="1" x1="78" y1="688" x2="974" y2="688"/>
<line opacity="0.1" stroke="#000000" stroke-width="1" x1="78" y1="677" x2="974" y2="677"/>
<line opacity="0.1" stroke="#000000" stroke-width="1" x1="78" y1="667" x2="974" y2="667"/>
<line opacity="0.1" stroke="#000000" stroke-width="1" x1="78" y1="656" x2="974" y2="656"/>
<line opacity="0.1" stroke="#000000" stroke-width="1" x1="78" y1="646" x2="974" y2="646"/>
<line opacity="0.1" stroke="#000000" stroke-width="1" x1="78" y1="635" x2="974" y2="635"/>
<line opacity="0.1" stroke="#000000" stroke-width="1" x1="78" y1="625" x2="974" y2="625"/>
<line opacity="0.1" stroke="#000000" stroke-width="1" x1="78" y1="614" x2="974" y2="614"/>
<line opacity="0.1" stroke="#000000" stroke-width="1" x1="78" y1="603" x2="974" y2="603"/>
<line opacity="0.1" stroke="#000000" stroke-width="1" x1="78" y1="593" x2="974" y2="593"/>
<line opacity="0.1" stroke="#000000" stroke-width="1" x1="78" y1="582" x2="974" y2="582"/>
<line opacity="0.1" stroke="#000000" stroke-width="1" x1="78" y1="572" x2="974" y2="572"/>
<line opacity="0.1" stroke="#000000" stroke-width="1" x1="78" y1="561" x2="974" y2="561"/>
<line opacity="0.1" stroke="#000000" stroke-width="1" x1="78" y1="551" x2="974" y2="551"/>
<line opacity="0.1" stroke="#000000" stroke-width="1" x1="78" y1="540" x2="974" y2="540"/>
<line opacity="0.1" stroke="#000000" stroke-width="1" x1="78" y1="530" x2="974" y2="530"/>
<line opacity="0.1" stroke="#000000" stroke-width="1" x1="78" y1="519" x2="974" y2="519"/>
<line opacity="0.1" stroke="#000000" stroke-width="1" x1="78" y1="508" x2="974" y2="508"/>
<line opacity="0.1" stroke="#000000" stroke-width="1" x1="78" y1="498" x2="974" y2="498"/>
<line opacity="0.1" stroke="#000000" stroke-width="1" x1="78" y1="487" x2="974" y2="487"/>
<line opacity="0.1" stroke="#000000" stroke-width="1" x1="78" y1="477" x2="974" y2="477"/>
<line opacity="0.1" stroke="#000000" stroke-width="1" x1="78" y1="466" x2="974" y2="466"/>
<line opacity="0.1" stroke="#000000" stroke-width="1" x1="78" y1="456" x2="974" y2="456"/>
<line opacity="0.1" stroke="#000000" stroke-width="1" x1="78" y1="445" x2="974" y2="445"/>
<line opacity="0.1" stroke="#000000" stroke-width="1" x1="78" y1="435" x2="974" y2="435"/>
<line opacity="0.1" stroke="#000000" stroke-width="1" x1="78" y1="424" x2="974" y2="424"/>
<line opacity="0.1" stroke="#000000" stroke-width="1" x1="78" y1="413" x2="974" y2="413"/>
<line opacity="0.1" stroke="#000000" stroke-width="1" x1="78" y1="403" x2="974" y2="403"/>
<line opacity="0.1" stroke="#000000" stroke-width="1" x1="78" y1="392" x2="974" y2="392"/>
<line opacity="0.1" stroke="#000000" stroke-width="1" x1="78" y1="382" x2="974" y2="382"/>
<line opacity="0.1" stroke="#000000" stroke-width="1" x1="78" y1="371" x2="974" y2="371"/>
<line opacity="0.1" stroke="#000000" stroke-width="1" x1="78" y1="361" x2="974" y2="361"/>
<line opacity="0.1" stroke="#000000" stroke-width="1" x1="78" y1="350" x2="974" y2="350"/>
<line opacity="0.1" stroke="#000000" stroke-width="1" x1="78" y1="340" x2="974" y2="340"/>
<line opacity="0.1" stroke="#000000" stroke-width="1" x1="78" y1="329" x2="974" y2="329"/>
<line opacity="0.1" stroke="#000000" stroke-width="1" x1="78" y1="318" x2="974" y2="318"/>
<line opacity="0.1" stroke="#000000" stroke-width="1" x1="78" y1="308" x2="974" y2="308"/>
<line opacity="0.1" stroke="#000000" stroke-width="1" x1="78" y1="297" x2="974" y2="297"/>
<line opacity="0.1" stroke="#000000" stroke-width="1" x1="78" y1="287" x2="974" y2="287"/>
<line opacity="0.1" stroke="#000000" stroke-width="1" x1="78" y1="276" x2="974" y2="276"/>
<line opacity="0.1" stroke="#000000" stroke-width="1" x1="78" y1="266" x2="974" y2="266"/>
<line opacity="0.1" stroke="#000000" stroke-width="1" x1="78" y1="255" x2="974" y2="255"/>
<line opacity="0.1" stroke="#000000" stroke-width="1" x1="78" y1="245" x2="974" y2="245"/>
<line opacity="0.1" stroke="#000000" stroke-width="1" x1="78" y1="234" x2="974" y2="234"/>
<line opacity="0.1" stroke="#000000" stroke-width="1" x1="78" y1="223" x2="974" y2="223"/>
<line opacity="0.1" stroke="#000000" stroke-width="1" x1="78" y1="213" x2="974" y2="213"/>
<line opacity="0.1" stroke="#000000" stroke-width="1" x1="78" y1="202" x2="974" y2="202"/>
<line opacity="0.1" stroke="#000000" stroke-width="1" x1="78" y1="192" x2="974" y2="192"/>
<line opacity="0.1" stroke="#000000" stroke-width="1" x1="78" y1="181" x2="974" y2="181"/>
<line opacity="0.1" stroke="#000000" stroke-width="1" x1="78" y1="171" x2="974" y2="171"/>
<line opacity="0.1" stroke="#000000" stroke-width="1" x1="78" y1="160" x2="974" y2="160"/>
<line opacity="0.1" stroke="#000000" stroke-width="1" x1="78" y1="150" x2="974" y2="150"/>
<line opacity="0.1" stroke="#000000" stroke-width="1" x1="78" y1="139" x2="974" y2="139"/>
<line opacity="0.1" stroke="#000000" stroke-width="1" x1="78" y1="128" x2="974" y2="128"/>
<line opacity="0.1" stroke="#000000" stroke-width="1" x1="78" y1="118" x2="974" y2="118"/>
<line opacity="0.1" stroke="#000000" stroke-width="1" x1="78" y1="107" x2="974" y2="107"/>
<line opacity="0.1" stroke="#000000" stroke-width="1" x1="78" y1="97" x2="974" y2="97"/>
<line opacity="0.1" stroke="#000000" stroke-width="1" x1="78" y1="86" x2="974" y2="86"/>
<line opacity="0.1" stroke="#000000" stroke-width="1" x1="78" y1="76" x2="974" y2="76"/>
<text x="8" y="384" dy="0.76em" text-anchor="middle" font-family="sans-serif" font-size="9.67741935483871" opacity="1" fill="#000000" transform="rotate(270, 8, 384)">
Memory usage
</text>
<text x="526" y="760" dy="-0.5ex" text-anchor="middle" font-family="sans-serif" font-size="9.67741935483871" opacity="1" fill="#000000">
Time
</text>
<line opacity="0.2" stroke="#000000" stroke-width="1" x1="192" y1="699" x2="192" y2="67"/>
<line opacity="0.2" stroke="#000000" stroke-width="1" x1="372" y1="699" x2="372" y2="67"/>
<line opacity="0.2" stroke="#000000" stroke-width="1" x1="551" y1="699" x2="551" y2="67"/>
<line opacity="0.2" stroke="#000000" stroke-width="1" x1="730" y1="699" x2="730" y2="67"/>
<line opacity="0.2" stroke="#000000" stroke-width="1" x1="909" y1="699" x2="909" y2="67"/>
<line opacity="0.2" stroke="#000000" stroke-width="1" x1="78" y1="699" x2="974" y2="699"/>
<line opacity="0.2" stroke="#000000" stroke-width="1" x1="78" y1="593" x2="974" y2="593"/>
<line opacity="0.2" stroke="#000000" stroke-width="1" x1="78" y1="487" x2="974" y2="487"/>
<line opacity="0.2" stroke="#000000" stroke-width="1" x1="78" y1="382" x2="974" y2="382"/>
<line opacity="0.2" stroke="#000000" stroke-width="1" x1="78" y1="276" x2="974" y2="276"/>
<line opacity="0.2" stroke="#000000" stroke-width="1" x1="78" y1="171" x2="974" y2="171"/>
<polyline fill="none" opacity="1" stroke="#000000" stroke-width="1" points="77,68 77,700 "/>
<text x="68" y="699" dy="0.5ex" text-anchor="end" font-family="sans-serif" font-size="9.67741935483871" opacity="1" fill="#000000">
0 KB
</text>
<polyline fill="none" opacity="1" stroke="#000000" stroke-width="1" points="72,699 77,699 "/>
<text x="68" y="593" dy="0.5ex" text-anchor="end" font-family="sans-serif" font-size="9.67741935483871" opacity="1" fill="#000000">
97 KB
</text>
<polyline fill="none" opacity="1" stroke="#000000" stroke-width="1" points="72,593 77,593 "/>
<text x="68" y="487" dy="0.5ex" text-anchor="end" font-family="sans-serif" font-size="9.67741935483871" opacity="1" fill="#000000">
195 KB
</text>
<polyline fill="none" opacity="1" stroke="#000000" stroke-width="1" points="72,487 77,487 "/>
<text x="68" y="382" dy="0.5ex" text-anchor="end" font-family="sans-serif" font-size="9.67741935483871" opacity="1" fill="#000000">
292 KB
</text>
<polyline fill="none" opacity="1" stroke="#000000" stroke-width="1" points="72,382 77,382 "/>
<text x="68" y="276" dy="0.5ex" text-anchor="end" font-family="sans-serif" font-size="9.67741935483871" opacity="1" fill="#000000">
390 KB
</text>
<polyline fill="none" opacity="1" stroke="#000000" stroke-width="1" points="72,276 77,276 "/>
<text x="68" y="171" dy="0.5ex" text-anchor="end" font-family="sans-serif" font-size="9.67741935483871" opacity="1" fill="#000000">
488 KB
</text>
<polyline fill="none" opacity="1" stroke="#000000" stroke-width="1" points="72,171 77,171 "/>
<polyline fill="none" opacity="1" stroke="#000000" stroke-width="1" points="78,700 974,700 "/>
<text x="192" y="710" dy="0.76em" text-anchor="middle" font-family="sans-serif" font-size="9.67741935483871" opacity="1" fill="#000000">
06:26:08
</text>
<polyline fill="none" opacity="1" stroke="#000000" stroke-width="1" points="192,700 192,705 "/>
<text x="372" y="710" dy="0.76em" text-anchor="middle" font-family="sans-serif" font-size="9.67741935483871" opacity="1" fill="#000000">
06:26:10
</text>
<polyline fill="none" opacity="1" stroke="#000000" stroke-width="1" points="372,700 372,705 "/>
<text x="551" y="710" dy="0.76em" text-anchor="middle" font-family="sans-serif" font-size="9.67741935483871" opacity="1" fill="#000000">
06:26:12
</text>
<polyline fill="none" opacity="1" stroke="#000000" stroke-width="1" points="551,700 551,705 "/>
<text x="730" y="710" dy="0.76em" text-anchor="middle" font-family="sans-serif" font-size="9.67741935483871" opacity="1" fill="#000000">
06:26:14
</text>
<polyline fill="none" opacity="1" stroke="#000000" stroke-width="1" points="730,700 730,705 "/>
<text x="909" y="710" dy="0.76em" text-anchor="middle" font-family="sans-serif" font-size="9.67741935483871" opacity="1" fill="#000000">
06:26:16
</text>
<polyline fill="none" opacity="1" stroke="#000000" stroke-width="1" points="909,700 909,705 "/>
<polyline fill="none" opacity="1" stroke="#000000" stroke-width="1" points="78,67 974,67 "/>
<text x="192" y="58" dy="-0.5ex" text-anchor="middle" font-family="sans-serif" font-size="9.67741935483871" opacity="1" fill="#000000">
+1s
</text>
<polyline fill="none" opacity="1" stroke="#000000" stroke-width="1" points="192,62 192,67 "/>
<text x="372" y="58" dy="-0.5ex" text-anchor="middle" font-family="sans-serif" font-size="9.67741935483871" opacity="1" fill="#000000">
+3s
</text>
<polyline fill="none" opacity="1" stroke="#000000" stroke-width="1" points="372,62 372,67 "/>
<text x="551" y="58" dy="-0.5ex" text-anchor="middle" font-family="sans-serif" font-size="9.67741935483871" opacity="1" fill="#000000">
+5s
</text>
<polyline fill="none" opacity="1" stroke="#000000" stroke-width="1" points="551,62 551,67 "/>
<text x="730" y="58" dy="-0.5ex" text-anchor="middle" font-family="sans-serif" font-size="9.67741935483871" opacity="1" fill="#000000">
+7s
</text>
<polyline fill="none" opacity="1" stroke="#000000" stroke-width="1" points="730,62 730,67 "/>
<text x="909" y="58" dy="-0.5ex" text-anchor="middle" font-family="sans-serif" font-size="9.67741935483871" opacity="1" fill="#000000">
+9s
</text>
<polyline fill="none" opacity="1" stroke="#000000" stroke-width="1" points="909,62 909,67 "/>
</svg>
