<svg width="1024" height="768" viewBox="0 0 1024 768" xmlns="http://www.w3.org/2000/svg">
<rect x="0" y="0" width="1024" height="768" opacity="1" fill="#FFFFFF" stroke="none"/>
<polygon opacity="1" fill="#E6194B" points="78,520 79,515 80,517 81,518 82,516 84,507 85,504 86,511 87,510 88,513 89,505 90,499 91,499 92,503 94,502 95,508 96,502 97,494 98,494 99,497 100,494 101,498 102,497 104,491 105,488 106,485 107,488 108,489 109,485 110,483 111,485 112,486 114,490 115,488 116,490 117,488 118,478 119,479 120,479 121,484 122,486 124,480 125,483 126,486 127,488 128,487 129,496 130,499 131,492 132,491 134,489 135,481 136,479 137,482 138,485 139,483 140,474 141,477 142,481 144,481 145,489 146,488 147,490 148,494 149,494 150,499 151,496 152,493 153,491 155,487 156,490 157,487 158,489 159,489 160,489 161,479 162,474 163,469 165,468 166,464 167,462 168,465 169,464 170,455 171,451 172,442 173,442 175,452 176,457 177,457 178,458 179,458 180,453 181,453 182,445 183,449 185,454 186,455 187,458 188,452 189,450 190,456 191,458 192,459 193,462 195,463 196,469 197,469 198,474 199,472 200,471 201,467 202,466 203,469 205,471 206,474 207,474 208,474 209,481 210,492 211,484 212,489 213,491 215,486 216,487 217,492 218,489 219,487 220,482 221,477 222,478 223,476 225,482 226,484 227,480 228,479 229,472 230,471 231,472 232,475 233,478 235,482 236,479 237,476 238,473 239,467 240,462 241,461 242,464 243,467 245,462 246,467 247,465 248,466 249,461 250,454 251,449 252,448 253,439 254,441 256,448 257,453 258,463 259,464 260,475 261,471 262,473 263,461 264,462 266,479 267,477 268,471 269,471 270,459 271,455 272,456 273,459 274,465 276,462 277,461 278,464 279,473 280,471 281,466 282,466 283,467 284,468 286,468 287,475 288,472 289,468 290,472 291,477 292,474 293,468 294,470 296,462 297,467 298,463 299,465 300,467 301,469 302,458 303,455 304,458 306,445 307,441 308,437 309,438 310,430 311,429 312,432 313,432 314,431 316,430 317,435 318,435 319,428 320,422 321,424 322,421 323,427 324,429 326,431 327,429 328,431 329,432 330,440 331,430 332,433 333,418 334,418 336,417 337,419 338,414 339,410 340,409 341,408 342,410 343,412 344,416 346,408 347,402 348,401 349,404 350,406 351,397 352,396 353,398 354,401 355,409 357,404 358,398 359,397 360,397 361,397 362,409 363,410 364,410 365,410 367,413 368,414 369,417 370,418 371,412 372,415 373,416 374,418 375,420 377,411 378,410 379,414 380,413 381,415 382,411 383,409 384,417 385,413 387,410 388,411 389,420 390,417 391,415 392,415 393,408 394,411 395,412 397,405 398,405 399,403 400,399 401,399 402,401 403,399 404,399 405,405 407,403 408,400 409,398 410,408 411,395 412,399 413,397 414,402 415,405 417,399 418,398 419,404 420,411 421,419 422,419 423,413 424,413 425,413 427,414 428,415 429,421 430,420 431,422 432,429 433,428 434,424 435,421 437,422 438,418 439,422 440,423 441,420 442,418 443,423 444,421 445,417 447,418 448,421 449,422 450,429 451,435 452,435 453,436 454,427 455,427 456,430 458,429 459,429 460,430 461,428 462,421 463,421 464,429 465,429 466,426 468,428 469,428 470,431 471,430 472,426 473,422 474,426 475,428 476,415 478,414 479,412 480,417 481,411 482,406 483,400 484,396 485,402 486,404 488,400 489,398 490,403 491,401 492,399 493,405 494,403 495,390 496,390 498,388 499,397 500,400 501,405 502,401 503,400 504,403 505,396 506,392 508,396 509,395 510,402 511,403 512,401 513,398 514,398 515,395 516,392 518,383 519,377 520,379 521,376 522,374 523,369 524,368 525,380 526,378 528,377 529,378 530,377 531,370 532,366 533,377 534,375 535,372 536,372 538,380 539,376 540,354 541,357 542,356 543,361 544,362 545,360 546,356 548,364 549,356 550,353 551,353 552,354 553,364 554,366 555,360 556,359 557,359 559,363 560,363 561,364 562,361 563,366 564,363 565,367 566,365 567,368 569,368 570,357 571,354 572,352 573,348 574,343 575,340 576,342 577,341 579,342 580,338 581,340 582,342 583,342 584,339 585,337 586,340 587,344 589,338 590,332 591,331 592,331 593,332 594,331 595,332 596,329 597,329 599,328 600,326 601,328 602,328 603,324 604,320 605,325 606,324 607,329 609,331 610,326 611,322 612,319 613,320 614,318 615,318 616,310 617,298 619,302 620,301 621,300 622,302 623,299 624,300 625,296 626,299 627,287 629,287 630,295 631,288 632,288 633,297 634,309 635,309 636,310 637,312 639,322 640,317 641,316 642,311 643,307 644,305 645,309 646,307 647,305 649,300 650,294 651,286 652,288 653,293 654,304 655,307 656,309 657,301 658,300 660,294 661,290 662,287 663,287 664,288 665,287 666,284 667,284 668,285 670,281 671,279 672,277 673,275 674,280 675,284 676,279 677,272 678,272 680,271 681,277 682,271 683,275 684,280 685,282 686,284 687,287 688,286 690,282 691,282 692,280 693,273 694,265 695,266 696,271 697,273 698,273 700,280 701,280 702,275 703,279 704,281 705,285 706,293 707,303 708,293 710,285 711,281 712,274 713,265 714,263 715,265 716,263 717,261 718,263 720,266 721,271 722,265 723,269 724,265 725,266 726,261 727,255 728,251 730,248 731,249 732,249 733,256 734,253 735,253 736,261 737,264 738,266 740,264 741,252 742,250 743,262 744,263 745,258 746,254 747,249 748,250 750,243 751,238 752,240 753,237 754,229 755,230 756,231 757,227 758,227 759,230 761,240 762,244 763,241 764,248 765,243 766,248 767,250 768,252 769,247 771,248 772,247 773,250 774,240 775,234 776,234 777,239 778,235 779,226 781,226 782,233 783,239 784,235 785,234 786,232 787,233 788,220 789,218 791,225 792,229 793,232 794,228 795,228 796,224 797,221 798,218 799,211 801,204 802,198 803,195 804,188 805,186 806,187 807,189 808,201 809,205 811,199 812,198 813,190 814,189 815,188 816,195 817,192 818,186 819,195 821,193 822,188 823,190 824,171 825,174 826,174 827,174 828,170 829,160 831,160 832,159 833,158 834,159 835,168 836,172 837,177 838,179 839,177 841,174 842,168 843,169 844,155 845,150 846,154 847,160 848,158 849,163 851,161 852,149 853,151 854,157 855,156 856,153 857,154 858,153 859,151 860,155 862,156 863,161 864,155 865,153 866,147 867,149 868,144 869,148 870,147 872,145 873,137 874,138 875,148 876,134 877,132 878,138 879,139 880,144 882,145 883,146 884,153 885,152 886,150 887,141 888,150 889,161 890,164 892,163 893,159 894,154 895,150 896,145 897,141 898,138 899,136 900,125 902,122 903,135 904,135 905,134 906,141 907,139 908,142 909,142 910,140 912,138 913,126 914,126 915,125 916,128 917,133 918,136 919,131 920,127 922,115 923,118 924,117 925,121 926,129 927,118 928,113 929,109 930,104 932,105 933,110 934,118 935,117 936,121 937,120 938,113 939,104 940,102 942,97 943,96 944,96 945,97 946,104 947,105 948,102 949,97 950,97 952,105 953,111 954,108 955,94 956,85 957,80 958,70 959,71 960,72 962,69 963,68 964,68 965,75 966,76 967,84 968,91 969,81 970,73 971,74 971,458 973,458 973,699 78,699 "/>
<polyline fill="none" opacity="1" stroke="#E6194B" stroke-width="1" points="78,520 79,515 80,517 81,518 82,516 84,507 85,504 86,511 87,510 88,513 89,505 90,499 91,499 92,503 94,502 95,508 96,502 97,494 98,494 99,497 100,494 101,498 102,497 104,491 105,488 106,485 107,488 108,489 109,485 110,483 111,485 112,486 114,490 115,488 116,490 117,488 118,478 119,479 120,479 121,484 122,486 124,480 125,483 126,486 127,488 128,487 129,496 130,499 131,492 132,491 134,489 135,481 136,479 137,482 138,485 139,483 140,474 141,477 142,481 144,481 145,489 146,488 147,490 148,494 149,494 150,499 151,496 152,493 153,491 155,487 156,490 157,487 158,489 159,489 160,489 161,479 162,474 163,469 165,468 166,464 167,462 168,465 169,464 170,455 171,451 172,442 173,442 175,452 176,457 177,457 178,458 179,458 180,453 181,453 182,445 183,449 185,454 186,455 187,458 188,452 189,450 190,456 191,458 192,459 193,462 195,463 196,469 197,469 198,474 199,472 200,471 201,467 202,466 203,469 205,471 206,474 207,474 208,474 209,481 210,492 211,484 212,489 213,491 215,486 216,487 217,492 218,489 219,487 220,482 221,477 222,478 223,476 225,482 226,484 227,480 228,479 229,472 230,471 231,472 232,475 233,478 235,482 236,479 237,476 238,473 239,467 240,462 241,461 242,464 243,467 245,462 246,467 247,465 248,466 249,461 250,454 251,449 252,448 253,439 254,441 256,448 257,453 258,463 259,464 260,475 261,471 262,473 263,461 264,462 266,479 267,477 268,471 269,471 270,459 271,455 272,456 273,459 274,465 276,462 277,461 278,464 279,473 280,471 281,466 282,466 283,467 284,468 286,468 287,475 288,472 289,468 290,472 291,477 292,474 293,468 294,470 296,462 297,467 298,463 299,465 300,467 301,469 302,458 303,455 304,458 306,445 307,441 308,437 309,438 310,430 311,429 312,432 313,432 314,431 316,430 317,435 318,435 319,428 320,422 321,424 322,421 323,427 324,429 326,431 327,429 328,431 329,432 330,440 331,430 332,433 333,418 334,418 336,417 337,419 338,414 339,410 340,409 341,408 342,410 343,412 344,416 346,408 347,402 348,401 349,404 350,406 351,397 352,396 353,398 354,401 355,409 357,404 358,398 359,397 360,397 361,397 362,409 363,410 364,410 365,410 367,413 368,414 369,417 370,418 371,412 372,415 373,416 374,418 375,420 377,411 378,410 379,414 380,413 381,415 382,411 383,409 384,417 385,413 387,410 388,411 389,420 390,417 391,415 392,415 393,408 394,411 395,412 397,405 398,405 399,403 400,399 401,399 402,401 403,399 404,399 405,405 407,403 408,400 409,398 410,408 411,395 412,399 413,397 414,402 415,405 417,399 418,398 419,404 420,411 421,419 422,419 423,413 424,413 425,413 427,414 428,415 429,421 430,420 431,422 432,429 433,428 434,424 435,421 437,422 438,418 439,422 440,423 441,420 442,418 443,423 444,421 445,417 447,418 448,421 449,422 450,429 451,435 452,435 453,436 454,427 455,427 456,430 458,429 459,429 460,430 461,428 462,421 463,421 464,429 465,429 466,426 468,428 469,428 470,431 471,430 472,426 473,422 474,426 475,428 476,415 478,414 479,412 480,417 481,411 482,406 483,400 484,396 485,402 486,404 488,400 489,398 490,403 491,401 492,399 493,405 494,403 495,390 496,390 498,388 499,397 500,400 501,405 502,401 503,400 504,403 505,396 506,392 508,396 509,395 510,402 511,403 512,401 513,398 514,398 515,395 516,392 518,383 519,377 520,379 521,376 522,374 523,369 524,368 525,380 526,378 528,377 529,378 530,377 531,370 532,366 533,377 534,375 535,372 536,372 538,380 539,376 540,354 541,357 542,356 543,361 544,362 545,360 546,356 548,364 549,356 550,353 551,353 552,354 553,364 554,366 555,360 556,359 557,359 559,363 560,363 561,364 562,361 563,366 564,363 565,367 566,365 567,368 569,368 570,357 571,354 572,352 573,348 574,343 575,340 576,342 577,341 579,342 580,338 581,340 582,342 583,342 584,339 585,337 586,340 587,344 589,338 590,332 591,331 592,331 593,332 594,331 595,332 596,329 597,329 599,328 600,326 601,328 602,328 603,324 604,320 605,325 606,324 607,329 609,331 610,326 611,322 612,319 613,320 614,318 615,318 616,310 617,298 619,302 620,301 621,300 622,302 623,299 624,300 625,296 626,299 627,287 629,287 630,295 631,288 632,288 633,297 634,309 635,309 636,310 637,312 639,322 640,317 641,316 642,311 643,307 644,305 645,309 646,307 647,305 649,300 650,294 651,286 652,288 653,293 654,304 655,307 656,309 657,301 658,300 660,294 661,290 662,287 663,287 664,288 665,287 666,284 667,284 668,285 670,281 671,279 672,277 673,275 674,280 675,284 676,279 677,272 678,272 680,271 681,277 682,271 683,275 684,280 685,282 686,284 687,287 688,286 690,282 691,282 692,280 693,273 694,265 695,266 696,271 697,273 698,273 700,280 701,280 702,275 703,279 704,281 705,285 706,293 707,303 708,293 710,285 711,281 712,274 713,265 714,263 715,265 716,263 717,261 718,263 720,266 721,271 722,265 723,269 724,265 725,266 726,261 727,255 728,251 730,248 731,249 732,249 733,256 734,253 735,253 736,261 737,264 738,266 740,264 741,252 742,250 743,262 744,263 745,258 746,254 747,249 748,250 750,243 751,238 752,240 753,237 754,229 755,230 756,231 757,227 758,227 759,230 761,240 762,244 763,241 764,248 765,243 766,248 767,250 768,252 769,247 771,248 772,247 773,250 774,240 775,234 776,234 777,239 778,235 779,226 781,226 782,233 783,239 784,235 785,234 786,232 787,233 788,220 789,218 791,225 792,229 793,232 794,228 795,228 796,224 797,221 798,218 799,211 801,204 802,198 803,195 804,188 805,186 806,187 807,189 808,201 809,205 811,199 812,198 813,190 814,189 815,188 816,195 817,192 818,186 819,195 821,193 822,188 823,190 824,171 825,174 826,174 827,174 828,170 829,160 831,160 832,159 833,158 834,159 835,168 836,172 837,177 838,179 839,177 841,174 842,168 843,169 844,155 845,150 846,154 847,160 848,158 849,163 851,161 852,149 853,151 854,157 855,156 856,153 857,154 858,153 859,151 860,155 862,156 863,161 864,155 865,153 866,147 867,149 868,144 869,148 870,147 872,145 873,137 874,138 875,148 876,134 877,132 878,138 879,139 880,144 882,145 883,146 884,153 885,152 886,150 887,141 888,150 889,161 890,164 892,163 893,159 894,154 895,150 896,145 897,141 898,138 899,136 900,125 902,122 903,135 904,135 905,134 906,141 907,139 908,142 909,142 910,140 912,138 913,126 914,126 915,125 916,128 917,133 918,136 919,131 920,127 922,115 923,118 924,117 925,121 926,129 927,118 928,113 929,109 930,104 932,105 933,110 934,118 935,117 936,121 937,120 938,113 939,104 940,102 942,97 943,96 944,96 945,97 946,104 947,105 948,102 949,97 950,97 952,105 953,111 954,108 955,94 956,85 957,80 958,70 959,71 960,72 962,69 963,68 964,68 965,75 966,76 967,84 968,91 969,81 970,73 971,74 971,458 973,458 "/>
<line opacity="0.1" stroke="#000000" stroke-width="1" x1="85" y1="699" x2="85" y2="68"/>
<line opacity="0.1" stroke="#000000" stroke-width="1" x1="96" y1="699" x2="96" y2="68"/>
<line opacity="0.1" stroke="#000000" stroke-width="1" x1="107" y1="699" x2="107" y2="68"/>
<line opacity="0.1" stroke="#000000" stroke-width="1" x1="118" y1="699" x2="118" y2="68"/>
<line opacity="0.1" stroke="#000000" stroke-width="1" x1="129" y1="699" x2="129" y2="68"/>
<line opacity="0.1" stroke="#000000" stroke-width="1" x1="140" y1="699" x2="140" y2="68"/>
<line opacity="0.1" stroke="#000000" stroke-width="1" x1="151" y1="699" x2="151" y2="68"/>
<line opacity="0.1" stroke="#000000" stroke-width="1" x1="162" y1="699" x2="162" y2="68"/>
<line opacity="0.1" stroke="#000000" stroke-width="1" x1="174" y1="699" x2="174" y2="68"/>
<line opacity="0.1" stroke="#000000" stroke-width="1" x1="185" y1="699" x2="185" y2="68"/>
<line opacity="0.1" stroke="#000000" stroke-width="1" x1="196" y1="699" x2="196" y2="68"/>
<line opacity="0.1" stroke="#000000" stroke-width="1" x1="207" y1="699" x2="207" y2="68"/>
<line opacity="0.1" stroke="#000000" stroke-width="1" x1="218" y1="699" x2="218" y2="68"/>
<line opacity="0.1" stroke="#000000" stroke-width="1" x1="229" y1="699" x2="229" y2="68"/>
<line opacity="0.1" stroke="#000000" stroke-width="1" x1="240" y1="699" x2="240" y2="68"/>
<line opacity="0.1" stroke="#000000" stroke-width="1" x1="251" y1="699" x2="251" y2="68"/>
<line opacity="0.1" stroke="#000000" stroke-width="1" x1="262" y1="699" x2="262" y2="68"/>
<line opacity="0.1" stroke="#000000" stroke-width="1" x1="273" y1="699" x2="273" y2="68"/>
<line opacity="0.1" stroke="#000000" stroke-width="1" x1="285" y1="699" x2="285" y2="68"/>
<line opacity="0.1" stroke="#000000" stroke-width="1" x1="296" y1="699" x2="296" y2="68"/>
<line opacity="0.1" stroke="#000000" stroke-width="1" x1="307" y1="699" x2="307" y2="68"/>
<line opacity="0.1" stroke="#000000" stroke-width="1" x1="318" y1="699" x2="318" y2="68"/>
<line opacity="0.1" stroke="#000000" stroke-width="1" x1="329" y1="699" x2="329" y2="68"/>
<line opacity="0.1" stroke="#000000" stroke-width="1" x1="340" y1="699" x2="340" y2="68"/>
<line opacity="0.1" stroke="#000000" stroke-width="1" x1="351" y1="699" x2="351" y2="68"/>
<line opacity="0.1" stroke="#000000" stroke-width="1" x1="362" y1="699" x2="362" y2="68"/>
<line opacity="0.1" stroke="#000000" stroke-width="1" x1="373" y1="699" x2="373" y2="68"/>
<line opacity="0.1" stroke="#000000" stroke-width="1" x1="384" y1="699" x2="384" y2="68"/>
<line opacity="0.1" stroke="#000000" stroke-width="1" x1="395" y1="699" x2="395" y2="68"/>
<line opacity="0.1" stroke="#000000" stroke-width="1" x1="407" y1="699" x2="407" y2="68"/>
<line opacity="0.1" stroke="#000000" stroke-width="1" x1="418" y1="699" x2="418" y2="68"/>
<line opacity="0.1" stroke="#000000" stroke-width="1" x1="429" y1="699" x2="429" y2="68"/>
<line opacity="0.1" stroke="#000000" stroke-width="1" x1="440" y1="699" x2="440" y2="68"/>
<line opacity="0.1" stroke="#000000" stroke-width="1" x1="451" y1="699" x2="451" y2="68"/>
<line opacity="0.1" stroke="#000000" stroke-width="1" x1="462" y1="699" x2="462" y2="68"/>
<line opacity="0.1" stroke="#000000" stroke-width="1" x1="473" y1="699" x2="473" y2="68"/>
<line opacity="0.1" stroke="#000000" stroke-width="1" x1="484" y1="699" x2="484" y2="68"/>
<line opacity="0.1" stroke="#000000" stroke-width="1" x1="495" y1="699" x2="495" y2="68"/>
<line opacity="0.1" stroke="#000000" stroke-width="1" x1="506" y1="699" x2="506" y2="68"/>
<line opacity="0.1" stroke="#000000" stroke-width="1" x1="518" y1="699" x2="518" y2="68"/>
<line opacity="0.1" stroke="#000000" stroke-width="1" x1="529" y1="699" x2="529" y2="68"/>
<line opacity="0.1" stroke="#000000" stroke-width="1" x1="540" y1="699" x2="540" y2="68"/>
<line opacity="0.1" stroke="#000000" stroke-width="1" x1="551" y1="699" x2="551" y2="68"/>
<line opacity="0.1" stroke="#000000" stroke-width="1" x1="562" y1="699" x2="562" y2="68"/>
<line opacity="0.1" stroke="#000000" stroke-width="1" x1="573" y1="699" x2="573" y2="68"/>
<line opacity="0.1" stroke="#000000" stroke-width="1" x1="584" y1="699" x2="584" y2="68"/>
<line opacity="0.1" stroke="#000000" stroke-width="1" x1="595" y1="699" x2="595" y2="68"/>
<line opacity="0.1" stroke="#000000" stroke-width="1" x1="606" y1="699" x2="606" y2="68"/>
<line opacity="0.1" stroke="#000000" stroke-width="1" x1="617" y1="699" x2="617" y2="68"/>
<line opacity="0.1" stroke="#000000" stroke-width="1" x1="629" y1="699" x2="629" y2="68"/>
<line opacity="0.1" stroke="#000000" stroke-width="1" x1="640" y1="699" x2="640" y2="68"/>
<line opacity="0.1" stroke="#000000" stroke-width="1" x1="651" y1="699" x2="651" y2="68"/>
<line opacity="0.1" stroke="#000000" stroke-width="1" x1="662" y1="699" x2="662" y2="68"/>
<line opacity="0.1" stroke="#000000" stroke-width="1" x1="673" y1="699" x2="673" y2="68"/>
<line opacity="0.1" stroke="#000000" stroke-width="1" x1="684" y1="699" x2="684" y2="68"/>
<line opacity="0.1" stroke="#000000" stroke-width="1" x1="695" y1="699" x2="695" y2="68"/>
<line opacity="0.1" stroke="#000000" stroke-width="1" x1="706" y1="699" x2="706" y2="68"/>
<line opacity="0.1" stroke="#000000" stroke-width="1" x1="717" y1="699" x2="717" y2="68"/>
<line opacity="0.1" stroke="#000000" stroke-width="1" x1="728" y1="699" x2="728" y2="68"/>
<line opacity="0.1" stroke="#000000" stroke-width="1" x1="739" y1="699" x2="739" y2="68"/>
<line opacity="0.1" stroke="#000000" stroke-width="1" x1="751" y1="699" x2="751" y2="68"/>
<line opacity="0.1" stroke="#000000" stroke-width="1" x1="762" y1="699" x2="762" y2="68"/>
<line opacity="0.1" stroke="#000000" stroke-width="1" x1="773" y1="699" x2="773" y2="68"/>
<line opacity="0.1" stroke="#000000" stroke-width="1" x1="784" y1="699" x2="784" y2="68"/>
<line opacity="0.1" stroke="#000000" stroke-width="1" x1="795" y1="699" x2="795" y2="68"/>
<line opacity="0.1" stroke="#000000" stroke-width="1" x1="806" y1="699" x2="806" y2="68"/>
<line opacity="0.1" stroke="#000000" stroke-width="1" x1="817" y1="699" x2="817" y2="68"/>
<line opacity="0.1" stroke="#000000" stroke-width="1" x1="828" y1="699" x2="828" y2="68"/>
<line opacity="0.1" stroke="#000000" stroke-width="1" x1="839" y1="699" x2="839" y2="68"/>
<line opacity="0.1" stroke="#000000" stroke-width="1" x1="850" y1="699" x2="850" y2="68"/>
<line opacity="0.1" stroke="#000000" stroke-width="1" x1="862" y1="699" x2="862" y2="68"/>
<line opacity="0.1" stroke="#000000" stroke-width="1" x1="873" y1="699" x2="873" y2="68"/>
<line opacity="0.1" stroke="#000000" stroke-width="1" x1="884" y1="699" x2="884" y2="68"/>
<line opacity="0.1" stroke="#000000" stroke-width="1" x1="895" y1="699" x2="895" y2="68"/>
<line opacity="0.1" stroke="#000000" stroke-width="1" x1="906" y1="699" x2="906" y2="68"/>
<line opacity="0.1" stroke="#000000" stroke-width="1" x1="917" y1="699" x2="917" y2="68"/>
<line opacity="0.1" stroke="#000000" stroke-width="1" x1="928" y1="699" x2="928" y2="68"/>
<line opacity="0.1" stroke="#000000" stroke-width="1" x1="939" y1="699" x2="939" y2="68"/>
<line opacity="0.1" stroke="#000000" stroke-width="1" x1="950" y1="699" x2="950" y2="68"/>
<line opacity="0.1" stroke="#000000" stroke-width="1" x1="961" y1="699" x2="961" y2="68"/>
<line opacity="0.1" stroke="#000000" stroke-width="1" x1="78" y1="699" x2="973" y2="699"/>
<line opacity="0.1" stroke="#000000" stroke-width="1" x1="78" y1="689" x2="973" y2="689"/>
<line opacity="0.1" stroke="#000000" stroke-width="1" x1="78" y1="679" x2="973" y2="679"/>
<line opacity="0.1" stroke="#000000" stroke-width="1" x1="78" y1="669" x2="973" y2="669"/>
<line opacity="0.1" stroke="#000000" stroke-width="1" x1="78" y1="660" x2="973" y2="660"/>
<line opacity="0.1" stroke="#000000" stroke-width="1" x1="78" y1="650" x2="973" y2="650"/>
<line opacity="0.1" stroke="#000000" stroke-width="1" x1="78" y1="640" x2="973" y2="640"/>
<line opacity="0.1" stroke="#000000" stroke-width="1" x1="78" y1="630" x2="973" y2="630"/>
<line opacity="0.1" stroke="#000000" stroke-width="1" x1="78" y1="621" x2="973" y2="621"/>
<line opacity="0.1" stroke="#000000" stroke-width="1" x1="78" y1="611" x2="973" y2="611"/>
<line opacity="0.1" stroke="#000000" stroke-width="1" x1="78" y1="601" x2="973" y2="601"/>
<line opacity="0.1" stroke="#000000" stroke-width="1" x1="78" y1="592" x2="973" y2="592"/>
<line opacity="0.1" stroke="#000000" stroke-width="1" x1="78" y1="582" x2="973" y2="582"/>
<line opacity="0.1" stroke="#000000" stroke-width="1" x1="78" y1="572" x2="973" y2="572"/>
<line opacity="0.1" stroke="#000000" stroke-width="1" x1="78" y1="562" x2="973" y2="562"/>
<line opacity="0.1" stroke="#000000" stroke-width="1" x1="78" y1="553" x2="973" y2="553"/>
<line opacity="0.1" stroke="#000000" stroke-width="1" x1="78" y1="543" x2="973" y2="543"/>
<line opacity="0.1" stroke="#000000" stroke-width="1" x1="78" y1="533" x2="973" y2="533"/>
<line opacity="0.1" stroke="#000000" stroke-width="1" x1="78" y1="524" x2="973" y2="524"/>
<line opacity="0.1" stroke="#000000" stroke-width="1" x1="78" y1="514" x2="973" y2="514"/>
<line opacity="0.1" stroke="#000000" stroke-width="1" x1="78" y1="504" x2="973" y2="504"/>
<line opacity="0.1" stroke="#000000" stroke-width="1" x1="78" y1="494" x2="973" y2="494"/>
<line opacity="0.1" stroke="#000000" stroke-width="1" x1="78" y1="485" x2="973" y2="485"/>
<line opacity="0.1" stroke="#000000" stroke-width="1" x1="78" y1="475" x2="973" y2="475"/>
<line opacity="0.1" stroke="#000000" stroke-width="1" x1="78" y1="465" x2="973" y2="465"/>
<line opacity="0.1" stroke="#000000" stroke-width="1" x1="78" y1="455" x2="973" y2="455"/>
<line opacity="0.1" stroke="#000000" stroke-width="1" x1="78" y1="446" x2="973" y2="446"/>
<line opacity="0.1" stroke="#000000" stroke-width="1" x1="78" y1="436" x2="973" y2="436"/>
<line opacity="0.1" stroke="#000000" stroke-width="1" x1="78" y1="426" x2="973" y2="426"/>
<line opacity="0.1" stroke="#000000" stroke-width="1" x1="78" y1="417" x2="973" y2="417"/>
<line opacity="0.1" stroke="#000000" stroke-width="1" x1="78" y1="407" x2="973" y2="407"/>
<line opacity="0.1" stroke="#000000" stroke-width="1" x1="78" y1="397" x2="973" y2="397"/>
<line opacity="0.1" stroke="#000000" stroke-width="1" x1="78" y1="387" x2="973" y2="387"/>
<line opacity="0.1" stroke="#000000" stroke-width="1" x1="78" y1="378" x2="973" y2="378"/>
<line opacity="0.1" stroke="#000000" stroke-width="1" x1="78" y1="368" x2="973" y2="368"/>
<line opacity="0.1" stroke="#000000" stroke-width="1" x1="78" y1="358" x2="973" y2="358"/>
<line opacity="0.1" stroke="#000000" stroke-width="1" x1="78" y1="349" x2="973" y2="349"/>
<line opacity="0.1" stroke="#000000" stroke-width="1" x1="78" y1="339" x2="973" y2="339"/>
<line opacity="0.1" stroke="#000000" stroke-width="1" x1="78" y1="329" x2="973" y2="329"/>
<line opacity="0.1" stroke="#000000" stroke-width="1" x1="78" y1="319" x2="973" y2="319"/>
<line opacity="0.1" stroke="#000000" stroke-width="1" x1="78" y1="310" x2="973" y2="310"/>
<line opacity="0.1" stroke="#000000" stroke-width="1" x1="78" y1="300" x2="973" y2="300"/>
<line opacity="0.1" stroke="#000000" stroke-width="1" x1="78" y1="290" x2="973" y2="290"/>
<line opacity="0.1" stroke="#000000" stroke-width="1" x1="78" y1="281" x2="973" y2="281"/>
<line opacity="0.1" stroke="#000000" stroke-width="1" x1="78" y1="271" x2="973" y2="271"/>
<line opacity="0.1" stroke="#000000" stroke-width="1" x1="78" y1="261" x2="973" y2="261"/>
<line opacity="0.1" stroke="#000000" stroke-width="1" x1="78" y1="251" x2="973" y2="251"/>
<line opacity="0.1" stroke="#000000" stroke-width="1" x1="78" y1="242" x2="973" y2="242"/>
<line opacity="0.1" stroke="#000000" stroke-width="1" x1="78" y1="232" x2="973" y2="232"/>
<line opacity="0.1" stroke="#000000" stroke-width="1" x1="78" y1="222" x2="973" y2="222"/>
<line opacity="0.1" stroke="#000000" stroke-width="1" x1="78" y1="212" x2="973" y2="212"/>
<line opacity="0.1" stroke="#000000" stroke-width="1" x1="78" y1="203" x2="973" y2="203"/>
<line opacity="0.1" stroke="#000000" stroke-width="1" x1="78" y1="193" x2="973" y2="193"/>
<line opacity="0.1" stroke="#000000" stroke-width="1" x1="78" y1="183" x2="973" y2="183"/>
<line opacity="0.1" stroke="#000000" stroke-width="1" x1="78" y1="174" x2="973" y2="174"/>
<line opacity="0.1" stroke="#000000" stroke-width="1" x1="78" y1="164" x2="973" y2="164"/>
<line opacity="0.1" stroke="#000000" stroke-width="1" x1="78" y1="154" x2="973" y2="154"/>
<line opacity="0.1" stroke="#000000" stroke-width="1" x1="78" y1="144" x2="973" y2="144"/>
<line opacity="0.1" stroke="#000000" stroke-width="1" x1="78" y1="135" x2="973" y2="135"/>
<line opacity="0.1" stroke="#000000" stroke-width="1" x1="78" y1="125" x2="973" y2="125"/>
<line opacity="0.1" stroke="#000000" stroke-width="1" x1="78" y1="115" x2="973" y2="115"/>
<line opacity="0.1" stroke="#000000" stroke-width="1" x1="78" y1="106" x2="973" y2="106"/>
<line opacity="0.1" stroke="#000000" stroke-width="1" x1="78" y1="96" x2="973" y2="96"/>
<line opacity="0.1" stroke="#000000" stroke-width="1" x1="78" y1="86" x2="973" y2="86"/>
<line opacity="0.1" stroke="#000000" stroke-width="1" x1="78" y1="76" x2="973" y2="76"/>
<text x="8" y="384" dy="0.76em" text-anchor="middle" font-family="sans-serif" font-size="9.67741935483871" opacity="1" fill="#000000" transform="rotate(270, 8, 384)">
Memory usage
</text>
<text x="526" y="760" dy="-0.5ex" text-anchor="middle" font-family="sans-serif" font-size="9.67741935483871" opacity="1" fill="#000000">
Time
</text>
<line opacity="0.2" stroke="#000000" stroke-width="1" x1="107" y1="699" x2="107" y2="68"/>
<line opacity="0.2" stroke="#000000" stroke-width="1" x1="218" y1="699" x2="218" y2="68"/>
<line opacity="0.2" stroke="#000000" stroke-width="1" x1="329" y1="699" x2="329" y2="68"/>
<line opacity="0.2" stroke="#000000" stroke-width="1" x1="440" y1="699" x2="440" y2="68"/>
<line opacity="0.2" stroke="#000000" stroke-width="1" x1="551" y1="699" x2="551" y2="68"/>
<line opacity="0.2" stroke="#000000" stroke-width="1" x1="662" y1="699" x2="662" y2="68"/>
<line opacity="0.2" stroke="#000000" stroke-width="1" x1="773" y1="699" x2="773" y2="68"/>
<line opacity="0.2" stroke="#000000" stroke-width="1" x1="884" y1="699" x2="884" y2="68"/>
<line opacity="0.2" stroke="#000000" stroke-width="1" x1="78" y1="699" x2="973" y2="699"/>
<line opacity="0.2" stroke="#000000" stroke-width="1" x1="78" y1="601" x2="973" y2="601"/>
<line opacity="0.2" stroke="#000000" stroke-width="1" x1="78" y1="504" x2="973" y2="504"/>
<line opacity="0.2" stroke="#000000" stroke-width="1" x1="78" y1="407" x2="973" y2="407"/>
<line opacity="0.2" stroke="#000000" stroke-width="1" x1="78" y1="310" x2="973" y2="310"/>
<line opacity="0.2" stroke="#000000" stroke-width="1" x1="78" y1="212" x2="973" y2="212"/>
<line opacity="0.2" stroke="#000000" stroke-width="1" x1="78" y1="115" x2="973" y2="115"/>
<polyline fill="none" opacity="1" stroke="#000000" stroke-width="1" points="77,68 77,699 "/>
<text x="68" y="699" dy="0.5ex" text-anchor="end" font-family="sans-serif" font-size="9.67741935483871" opacity="1" fill="#000000">
0.00 MB
</text>
<polyline fill="none" opacity="1" stroke="#000000" stroke-width="1" points="72,699 77,699 "/>
<text x="68" y="601" dy="0.5ex" text-anchor="end" font-family="sans-serif" font-size="9.67741935483871" opacity="1" fill="#000000">
0.19 MB
</text>
<polyline fill="none" opacity="1" stroke="#000000" stroke-width="1" points="72,601 77,601 "/>
<text x="68" y="504" dy="0.5ex" text-anchor="end" font-family="sans-serif" font-size="9.67741935483871" opacity="1" fill="#000000">
0.38 MB
</text>
<polyline fill="none" opacity="1" stroke="#000000" stroke-width="1" points="72,504 77,504 "/>
<text x="68" y="407" dy="0.5ex" text-anchor="end" font-family="sans-serif" font-size="9.67741935483871" opacity="1" fill="#000000">
0.57 MB
</text>
<polyline fill="none" opacity="1" stroke="#000000" stroke-width="1" points="72,407 77,407 "/>
<text x="68" y="310" dy="0.5ex" text-anchor="end" font-family="sans-serif" font-size="9.67741935483871" opacity="1" fill="#000000">
0.76 MB
</text>
<polyline fill="none" opacity="1" stroke="#000000" stroke-width="1" points="72,310 77,310 "/>
<text x="68" y="212" dy="0.5ex" text-anchor="end" font-family="sans-serif" font-size="9.67741935483871" opacity="1" fill="#000000">
0.95 MB
</text>
<polyline fill="none" opacity="1" stroke="#000000" stroke-width="1" points="72,212 77,212 "/>
<text x="68" y="115" dy="0.5ex" text-anchor="end" font-family="sans-serif" font-size="9.67741935483871" opacity="1" fill="#000000">
1.14 MB
</text>
<polyline fill="none" opacity="1" stroke="#000000" stroke-width="1" points="72,115 77,115 "/>
<polyline fill="none" opacity="1" stroke="#000000" stroke-width="1" points="78,700 973,700 "/>
<text x="107" y="710" dy="0.76em" text-anchor="middle" font-family="sans-serif" font-size="9.67741935483871" opacity="1" fill="#000000">
02:04:19
</text>
<polyline fill="none" opacity="1" stroke="#000000" stroke-width="1" points="107,700 107,705 "/>
<text x="218" y="710" dy="0.76em" text-anchor="middle" font-family="sans-serif" font-size="9.67741935483871" opacity="1" fill="#000000">
02:04:20
</text>
<polyline fill="none" opacity="1" stroke="#000000" stroke-width="1" points="218,700 218,705 "/>
<text x="329" y="710" dy="0.76em" text-anchor="middle" font-family="sans-serif" font-size="9.67741935483871" opacity="1" fill="#000000">
02:04:21
</text>
<polyline fill="none" opacity="1" stroke="#000000" stroke-width="1" points="329,700 329,705 "/>
<text x="440" y="710" dy="0.76em" text-anchor="middle" font-family="sans-serif" font-size="9.67741935483871" opacity="1" fill="#000000">
02:04:22
</text>
<polyline fill="none" opacity="1" stroke="#000000" stroke-width="1" points="440,700 440,705 "/>
<text x="551" y="710" dy="0.76em" text-anchor="middle" font-family="sans-serif" font-size="9.67741935483871" opacity="1" fill="#000000">
02:04:23
</text>
<polyline fill="none" opacity="1" stroke="#000000" stroke-width="1" points="551,700 551,705 "/>
<text x="662" y="710" dy="0.76em" text-anchor="middle" font-family="sans-serif" font-size="9.67741935483871" opacity="1" fill="#000000">
02:04:24
</text>
<polyline fill="none" opacity="1" stroke="#000000" stroke-width="1" points="662,700 662,705 "/>
<text x="773" y="710" dy="0.76em" text-anchor="middle" font-family="sans-serif" font-size="9.67741935483871" opacity="1" fill="#000000">
02:04:25
</text>
<polyline fill="none" opacity="1" stroke="#000000" stroke-width="1" points="773,700 773,705 "/>
<text x="884" y="710" dy="0.76em" text-anchor="middle" font-family="sans-serif" font-size="9.67741935483871" opacity="1" fill="#000000">
02:04:26
</text>
<polyline fill="none" opacity="1" stroke="#000000" stroke-width="1" points="884,700 884,705 "/>
<polyline fill="none" opacity="1" stroke="#000000" stroke-width="1" points="78,67 974,67 "/>
<text x="107" y="58" dy="-0.5ex" text-anchor="middle" font-family="sans-serif" font-size="9.67741935483871" opacity="1" fill="#000000">
+2s
</text>
<polyline fill="none" opacity="1" stroke="#000000" stroke-width="1" points="107,62 107,67 "/>
<text x="218" y="58" dy="-0.5ex" text-anchor="middle" font-family="sans-serif" font-size="9.67741935483871" opacity="1" fill="#000000">
+3s
</text>
<polyline fill="none" opacity="1" stroke="#000000" stroke-width="1" points="218,62 218,67 "/>
<text x="329" y="58" dy="-0.5ex" text-anchor="middle" font-family="sans-serif" font-size="9.67741935483871" opacity="1" fill="#000000">
+4s
</text>
<polyline fill="none" opacity="1" stroke="#000000" stroke-width="1" points="329,62 329,67 "/>
<text x="440" y="58" dy="-0.5ex" text-anchor="middle" font-family="sans-serif" font-size="9.67741935483871" opacity="1" fill="#000000">
+5s
</text>
<polyline fill="none" opacity="1" stroke="#000000" stroke-width="1" points="440,62 440,67 "/>
<text x="551" y="58" dy="-0.5ex" text-anchor="middle" font-family="sans-serif" font-size="9.67741935483871" opacity="1" fill="#000000">
+6s
</text>
<polyline fill="none" opacity="1" stroke="#000000" stroke-width="1" points="551,62 551,67 "/>
<text x="662" y="58" dy="-0.5ex" text-anchor="middle" font-family="sans-serif" font-size="9.67741935483871" opacity="1" fill="#000000">
+7s
</text>
<polyline fill="none" opacity="1" stroke="#000000" stroke-width="1" points="662,62 662,67 "/>
<text x="774" y="58" dy="-0.5ex" text-anchor="middle" font-family="sans-serif" font-size="9.67741935483871" opacity="1" fill="#000000">
+8s
</text>
<polyline fill="none" opacity="1" stroke="#000000" stroke-width="1" points="774,62 774,67 "/>
<text x="885" y="58" dy="-0.5ex" text-anchor="middle" font-family="sans-serif" font-size="9.67741935483871" opacity="1" fill="#000000">
+9s
</text>
<polyline fill="none" opacity="1" stroke="#000000" stroke-width="1" points="885,62 885,67 "/>
</svg>
