<svg width="1024" height="768" viewBox="0 0 1024 768" xmlns="http://www.w3.org/2000/svg">
<rect x="0" y="0" width="1024" height="768" opacity="1" fill="#FFFFFF" stroke="none"/>
<polygon opacity="1" fill="#E6194B" points="78,699 78,699 79,699 80,699 81,699 82,699 83,699 84,699 85,699 86,699 86,699 87,699 88,699 89,699 90,699 91,699 92,699 93,699 94,699 95,699 95,699 96,699 97,699 98,699 99,699 100,699 101,699 102,699 103,699 103,699 104,699 105,699 106,699 107,699 108,699 109,699 110,699 111,699 112,699 112,699 113,699 114,699 115,699 116,699 117,699 118,198 119,198 120,198 120,198 121,198 122,198 123,198 124,198 125,198 126,198 127,198 128,198 129,198 129,198 130,198 131,198 132,198 133,198 134,198 135,198 136,198 137,198 137,198 138,198 139,198 140,198 141,198 142,198 143,198 144,198 145,198 146,198 146,198 147,198 148,198 149,198 150,198 151,198 152,198 153,198 154,198 154,198 155,198 156,198 157,198 158,198 159,198 160,198 161,198 162,198 163,198 163,198 164,198 165,198 166,198 167,70 168,70 169,70 170,70 171,70 171,70 172,70 173,70 174,70 175,70 176,70 177,70 178,70 179,70 180,70 180,70 181,70 182,70 183,70 184,70 185,70 186,70 187,70 188,70 188,70 189,70 190,70 191,70 192,70 193,70 194,70 195,70 196,70 197,70 197,70 198,70 199,70 200,70 201,70 202,70 203,70 204,70 205,70 205,70 206,70 207,70 208,70 209,70 210,70 211,70 212,70 213,70 214,70 214,70 215,70 216,70 217,70 218,70 219,70 220,70 221,70 222,70 222,70 223,70 224,70 225,70 226,70 227,70 228,70 229,70 230,70 231,70 231,70 232,70 233,70 234,70 235,70 236,70 237,70 238,70 239,70 239,70 240,70 241,70 242,70 243,70 244,70 245,70 246,70 247,70 248,70 248,70 249,70 250,70 251,70 252,70 253,70 254,70 255,70 256,70 257,69 257,69 258,69 259,69 260,69 261,69 262,69 263,69 264,69 265,69 265,69 266,69 267,69 268,69 269,69 270,69 271,69 272,69 273,69 274,69 274,69 275,69 276,69 277,69 278,69 279,69 280,69 281,69 282,69 282,69 283,69 284,69 285,69 286,69 287,69 288,69 289,69 290,69 291,69 291,69 292,69 293,69 294,69 295,69 296,69 297,69 298,69 299,69 299,69 300,69 301,69 302,69 303,69 304,69 305,69 306,69 307,69 308,69 308,69 309,69 310,69 311,69 312,69 313,69 314,69 315,69 316,69 316,69 317,69 318,69 319,69 320,69 321,69 322,69 323,69 324,69 325,69 325,69 326,69 327,69 328,69 329,69 330,69 331,69 332,69 333,69 333,69 334,69 335,69 336,69 337,69 338,69 339,69 340,69 341,69 342,69 342,69 343,69 344,69 345,69 346,69 347,69 348,69 349,69 350,69 350,69 351,69 352,69 353,69 354,69 355,69 356,69 357,69 358,69 359,69 359,69 360,69 361,69 362,69 363,69 364,69 365,69 366,69 367,69 367,69 368,69 369,69 370,69 371,69 372,69 373,69 374,69 375,69 376,69 376,69 377,69 378,69 379,69 380,69 381,69 382,69 383,69 384,69 384,69 385,69 386,69 387,69 388,69 389,69 390,69 391,69 392,69 393,69 393,69 394,69 395,69 396,69 397,69 398,69 399,69 400,69 401,69 401,69 402,69 403,69 404,69 405,69 406,69 407,69 408,69 409,69 410,69 410,69 411,69 412,69 413,69 414,69 415,69 416,69 417,69 418,69 418,69 419,69 420,69 421,69 422,69 423,69 424,69 425,69 426,69 427,69 427,69 428,69 429,69 430,69 431,69 432,69 433,69 434,69 435,69 436,69 436,69 437,69 438,69 439,69 440,69 441,69 442,69 443,69 444,69 444,69 445,69 446,69 447,69 448,69 449,69 450,69 451,69 452,69 453,69 453,69 454,69 455,69 456,69 457,69 458,69 459,69 460,69 461,69 461,69 462,69 463,69 464,69 465,69 466,69 467,69 468,69 469,69 470,69 470,69 471,69 472,69 473,69 474,69 475,69 476,69 477,69 478,69 478,69 479,69 480,69 481,69 482,69 483,69 484,69 485,69 486,69 487,69 487,69 488,69 489,69 490,69 491,69 492,69 493,69 494,69 495,69 495,69 496,69 497,69 498,69 499,69 500,69 501,69 502,69 503,69 504,69 504,69 505,69 506,69 507,69 508,69 509,69 510,69 511,69 512,69 512,69 513,69 514,69 515,69 516,69 517,69 518,69 519,69 520,69 521,69 521,69 522,69 523,69 524,69 525,69 526,70 527,70 528,70 529,70 529,70 530,70 531,70 532,70 533,70 534,70 535,70 536,70 537,70 538,70 538,70 539,70 540,70 541,70 542,70 543,70 544,70 545,70 546,70 546,70 547,70 548,70 549,70 550,70 551,70 552,70 553,70 554,70 555,70 555,70 556,70 557,70 558,70 559,70 560,70 561,70 562,70 563,70 563,70 564,70 565,70 566,70 567,70 568,70 569,70 570,70 571,70 572,70 572,70 573,70 574,70 575,70 576,70 577,70 578,70 579,70 580,70 580,70 581,70 582,70 583,70 584,70 585,70 586,70 587,70 588,70 589,70 589,70 590,70 591,70 592,70 593,70 594,70 595,70 596,70 597,70 597,70 598,70 599,70 600,70 601,70 602,70 603,70 604,70 605,70 606,70 606,70 607,70 608,70 609,70 610,70 611,70 612,70 613,70 614,70 615,70 615,70 616,70 617,70 618,70 619,70 620,70 621,70 622,70 623,70 623,70 624,70 625,70 626,70 627,70 628,70 629,70 630,70 631,70 632,70 632,70 633,70 634,70 635,70 636,70 637,70 638,70 639,70 640,70 640,70 641,70 642,70 643,70 644,70 645,70 646,70 647,70 648,70 649,70 649,70 650,70 651,70 652,70 653,70 654,70 655,70 656,70 657,70 657,70 658,70 659,70 660,70 661,70 662,70 663,70 664,70 665,70 666,70 666,70 667,70 668,70 669,70 670,70 671,70 672,70 673,70 674,70 674,70 675,70 676,70 677,70 678,70 679,70 680,70 681,70 682,70 683,70 683,70 684,70 685,70 686,70 687,70 688,70 689,70 690,70 691,70 691,70 692,70 693,70 694,70 695,70 696,70 697,70 698,70 699,70 700,70 700,70 701,70 702,70 703,70 704,70 705,70 706,70 707,70 708,70 708,70 709,70 710,70 711,70 712,70 713,70 714,70 715,70 716,70 717,70 717,70 718,70 719,70 720,70 721,70 722,70 723,70 724,70 725,70 725,70 726,70 727,70 728,70 729,70 730,70 731,70 732,70 733,70 734,70 734,70 735,70 736,70 737,70 738,70 739,70 740,70 741,70 742,70 742,70 743,70 744,70 745,70 746,70 747,70 748,70 749,70 750,70 751,70 751,70 752,70 753,70 754,70 755,70 756,70 757,70 758,70 759,70 759,70 760,70 761,70 762,70 763,70 764,70 765,70 766,70 767,70 768,70 768,70 769,70 770,70 771,70 772,70 773,70 774,70 775,70 776,70 776,70 777,70 778,70 779,70 780,70 781,70 782,70 783,70 784,70 785,70 785,70 786,70 787,70 788,70 789,70 790,70 791,70 792,70 793,70 794,70 794,69 795,69 796,69 797,69 798,69 799,69 800,69 801,69 802,69 802,69 803,69 804,69 805,69 806,69 807,69 808,69 809,69 810,69 811,69 811,69 812,69 813,69 814,69 815,69 816,69 817,69 818,69 819,69 819,69 820,69 821,69 822,69 823,69 824,69 825,69 826,69 827,69 828,69 828,69 829,69 830,69 831,69 832,69 833,69 834,69 835,69 836,69 836,69 837,69 838,69 839,69 840,69 841,69 842,69 843,69 844,69 845,69 845,69 846,69 847,69 848,69 849,69 850,69 851,69 852,69 853,69 853,69 854,69 855,69 856,69 857,69 858,69 859,69 860,69 861,69 862,69 862,69 863,69 864,69 865,69 866,69 867,69 868,69 869,69 870,69 870,69 871,69 872,69 873,69 874,69 875,69 876,69 877,69 878,69 879,69 879,69 880,69 881,69 882,69 883,69 884,70 885,70 886,70 887,70 887,70 888,70 889,70 890,70 891,70 892,70 893,70 894,70 895,70 896,70 896,70 897,70 898,70 899,70 900,70 901,70 902,70 903,70 904,70 904,70 905,70 906,70 907,70 908,70 909,70 910,70 911,70 912,70 913,70 913,70 914,70 915,70 916,70 917,70 918,70 919,70 920,70 921,70 921,70 922,70 923,70 924,70 925,70 926,70 927,70 928,70 929,70 930,70 930,70 931,70 932,70 933,70 934,70 935,70 936,70 937,70 938,70 938,70 939,70 940,70 941,70 942,70 943,70 944,70 945,70 946,70 947,70 947,70 948,70 949,70 950,70 951,70 952,70 953,70 954,70 955,70 955,70 956,70 957,70 958,70 959,70 960,70 961,70 962,70 963,70 964,70 964,70 965,70 966,70 967,70 968,70 969,70 970,70 971,70 972,70 973,68 973,68 973,68 973,699 78,699 "/>
<polyline fill="none" opacity="1" stroke="#E6194B" stroke-width="1" points="78,699 78,699 79,699 80,699 81,699 82,699 83,699 84,699 85,699 86,699 86,699 87,699 88,699 89,699 90,699 91,699 92,699 93,699 94,699 95,699 95,699 96,699 97,699 98,699 99,699 100,699 101,699 102,699 103,699 103,699 104,699 105,699 106,699 107,699 108,699 109,699 110,699 111,699 112,699 112,699 113,699 114,699 115,699 116,699 117,699 118,198 119,198 120,198 120,198 121,198 122,198 123,198 124,198 125,198 126,198 127,198 128,198 129,198 129,198 130,198 131,198 132,198 133,198 134,198 135,198 136,198 137,198 137,198 138,198 139,198 140,198 141,198 142,198 143,198 144,198 145,198 146,198 146,198 147,198 148,198 149,198 150,198 151,198 152,198 153,198 154,198 154,198 155,198 156,198 157,198 158,198 159,198 160,198 161,198 162,198 163,198 163,198 164,198 165,198 166,198 167,70 168,70 169,70 170,70 171,70 171,70 172,70 173,70 174,70 175,70 176,70 177,70 178,70 179,70 180,70 180,70 181,70 182,70 183,70 184,70 185,70 186,70 187,70 188,70 188,70 189,70 190,70 191,70 192,70 193,70 194,70 195,70 196,70 197,70 197,70 198,70 199,70 200,70 201,70 202,70 203,70 204,70 205,70 205,70 206,70 207,70 208,70 209,70 210,70 211,70 212,70 213,70 214,70 214,70 215,70 216,70 217,70 218,70 219,70 220,70 221,70 222,70 222,70 223,70 224,70 225,70 226,70 227,70 228,70 229,70 230,70 231,70 231,70 232,70 233,70 234,70 235,70 236,70 237,70 238,70 239,70 239,70 240,70 241,70 242,70 243,70 244,70 245,70 246,70 247,70 248,70 248,70 249,70 250,70 251,70 252,70 253,70 254,70 255,70 256,70 257,69 257,69 258,69 259,69 260,69 261,69 262,69 263,69 264,69 265,69 265,69 266,69 267,69 268,69 269,69 270,69 271,69 272,69 273,69 274,69 274,69 275,69 276,69 277,69 278,69 279,69 280,69 281,69 282,69 282,69 283,69 284,69 285,69 286,69 287,69 288,69 289,69 290,69 291,69 291,69 292,69 293,69 294,69 295,69 296,69 297,69 298,69 299,69 299,69 300,69 301,69 302,69 303,69 304,69 305,69 306,69 307,69 308,69 308,69 309,69 310,69 311,69 312,69 313,69 314,69 315,69 316,69 316,69 317,69 318,69 319,69 320,69 321,69 322,69 323,69 324,69 325,69 325,69 326,69 327,69 328,69 329,69 330,69 331,69 332,69 333,69 333,69 334,69 335,69 336,69 337,69 338,69 339,69 340,69 341,69 342,69 342,69 343,69 344,69 345,69 346,69 347,69 348,69 349,69 350,69 350,69 351,69 352,69 353,69 354,69 355,69 356,69 357,69 358,69 359,69 359,69 360,69 361,69 362,69 363,69 364,69 365,69 366,69 367,69 367,69 368,69 369,69 370,69 371,69 372,69 373,69 374,69 375,69 376,69 376,69 377,69 378,69 379,69 380,69 381,69 382,69 383,69 384,69 384,69 385,69 386,69 387,69 388,69 389,69 390,69 391,69 392,69 393,69 393,69 394,69 395,69 396,69 397,69 398,69 399,69 400,69 401,69 401,69 402,69 403,69 404,69 405,69 406,69 407,69 408,69 409,69 410,69 410,69 411,69 412,69 413,69 414,69 415,69 416,69 417,69 418,69 418,69 419,69 420,69 421,69 422,69 423,69 424,69 425,69 426,69 427,69 427,69 428,69 429,69 430,69 431,69 432,69 433,69 434,69 435,69 436,69 436,69 437,69 438,69 439,69 440,69 441,69 442,69 443,69 444,69 444,69 445,69 446,69 447,69 448,69 449,69 450,69 451,69 452,69 453,69 453,69 454,69 455,69 456,69 457,69 458,69 459,69 460,69 461,69 461,69 462,69 463,69 464,69 465,69 466,69 467,69 468,69 469,69 470,69 470,69 471,69 472,69 473,69 474,69 475,69 476,69 477,69 478,69 478,69 479,69 480,69 481,69 482,69 483,69 484,69 485,69 486,69 487,69 487,69 488,69 489,69 490,69 491,69 492,69 493,69 494,69 495,69 495,69 496,69 497,69 498,69 499,69 500,69 501,69 502,69 503,69 504,69 504,69 505,69 506,69 507,69 508,69 509,69 510,69 511,69 512,69 512,69 513,69 514,69 515,69 516,69 517,69 518,69 519,69 520,69 521,69 521,69 522,69 523,69 524,69 525,69 526,70 527,70 528,70 529,70 529,70 530,70 531,70 532,70 533,70 534,70 535,70 536,70 537,70 538,70 538,70 539,70 540,70 541,70 542,70 543,70 544,70 545,70 546,70 546,70 547,70 548,70 549,70 550,70 551,70 552,70 553,70 554,70 555,70 555,70 556,70 557,70 558,70 559,70 560,70 561,70 562,70 563,70 563,70 564,70 565,70 566,70 567,70 568,70 569,70 570,70 571,70 572,70 572,70 573,70 574,70 575,70 576,70 577,70 578,70 579,70 580,70 580,70 581,70 582,70 583,70 584,70 585,70 586,70 587,70 588,70 589,70 589,70 590,70 591,70 592,70 593,70 594,70 595,70 596,70 597,70 597,70 598,70 599,70 600,70 601,70 602,70 603,70 604,70 605,70 606,70 606,70 607,70 608,70 609,70 610,70 611,70 612,70 613,70 614,70 615,70 615,70 616,70 617,70 618,70 619,70 620,70 621,70 622,70 623,70 623,70 624,70 625,70 626,70 627,70 628,70 629,70 630,70 631,70 632,70 632,70 633,70 634,70 635,70 636,70 637,70 638,70 639,70 640,70 640,70 641,70 642,70 643,70 644,70 645,70 646,70 647,70 648,70 649,70 649,70 650,70 651,70 652,70 653,70 654,70 655,70 656,70 657,70 657,70 658,70 659,70 660,70 661,70 662,70 663,70 664,70 665,70 666,70 666,70 667,70 668,70 669,70 670,70 671,70 672,70 673,70 674,70 674,70 675,70 676,70 677,70 678,70 679,70 680,70 681,70 682,70 683,70 683,70 684,70 685,70 686,70 687,70 688,70 689,70 690,70 691,70 691,70 692,70 693,70 694,70 695,70 696,70 697,70 698,70 699,70 700,70 700,70 701,70 702,70 703,70 704,70 705,70 706,70 707,70 708,70 708,70 709,70 710,70 711,70 712,70 713,70 714,70 715,70 716,70 717,70 717,70 718,70 719,70 720,70 721,70 722,70 723,70 724,70 725,70 725,70 726,70 727,70 728,70 729,70 730,70 731,70 732,70 733,70 734,70 734,70 735,70 736,70 737,70 738,70 739,70 740,70 741,70 742,70 742,70 743,70 744,70 745,70 746,70 747,70 748,70 749,70 750,70 751,70 751,70 752,70 753,70 754,70 755,70 756,70 757,70 758,70 759,70 759,70 760,70 761,70 762,70 763,70 764,70 765,70 766,70 767,70 768,70 768,70 769,70 770,70 771,70 772,70 773,70 774,70 775,70 776,70 776,70 777,70 778,70 779,70 780,70 781,70 782,70 783,70 784,70 785,70 785,70 786,70 787,70 788,70 789,70 790,70 791,70 792,70 793,70 794,70 794,69 795,69 796,69 797,69 798,69 799,69 800,69 801,69 802,69 802,69 803,69 804,69 805,69 806,69 807,69 808,69 809,69 810,69 811,69 811,69 812,69 813,69 814,69 815,69 816,69 817,69 818,69 819,69 819,69 820,69 821,69 822,69 823,69 824,69 825,69 826,69 827,69 828,69 828,69 829,69 830,69 831,69 832,69 833,69 834,69 835,69 836,69 836,69 837,69 838,69 839,69 840,69 841,69 842,69 843,69 844,69 845,69 845,69 846,69 847,69 848,69 849,69 850,69 851,69 852,69 853,69 853,69 854,69 855,69 856,69 857,69 858,69 859,69 860,69 861,69 862,69 862,69 863,69 864,69 865,69 866,69 867,69 868,69 869,69 870,69 870,69 871,69 872,69 873,69 874,69 875,69 876,69 877,69 878,69 879,69 879,69 880,69 881,69 882,69 883,69 884,70 885,70 886,70 887,70 887,70 888,70 889,70 890,70 891,70 892,70 893,70 894,70 895,70 896,70 896,70 897,70 898,70 899,70 900,70 901,70 902,70 903,70 904,70 904,70 905,70 906,70 907,70 908,70 909,70 910,70 911,70 912,70 913,70 913,70 914,70 915,70 916,70 917,70 918,70 919,70 920,70 921,70 921,70 922,70 923,70 924,70 925,70 926,70 927,70 928,70 929,70 930,70 930,70 931,70 932,70 933,70 934,70 935,70 936,70 937,70 938,70 938,70 939,70 940,70 941,70 942,70 943,70 944,70 945,70 946,70 947,70 947,70 948,70 949,70 950,70 951,70 952,70 953,70 954,70 955,70 955,70 956,70 957,70 958,70 959,70 960,70 961,70 962,70 963,70 964,70 964,70 965,70 966,70 967,70 968,70 969,70 970,70 971,70 972,70 973,68 973,68 973,68 "/>
<line opacity="0.1" stroke="#000000" stroke-width="1" x1="79" y1="699" x2="79" y2="68"/>
<line opacity="0.1" stroke="#000000" stroke-width="1" x1="87" y1="699" x2="87" y2="68"/>
<line opacity="0.1" stroke="#000000" stroke-width="1" x1="96" y1="699" x2="96" y2="68"/>
<line opacity="0.1" stroke="#000000" stroke-width="1" x1="105" y1="699" x2="105" y2="68"/>
<line opacity="0.1" stroke="#000000" stroke-width="1" x1="114" y1="699" x2="114" y2="68"/>
<line opacity="0.1" stroke="#000000" stroke-width="1" x1="123" y1="699" x2="123" y2="68"/>
<line opacity="0.1" stroke="#000000" stroke-width="1" x1="132" y1="699" x2="132" y2="68"/>
<line opacity="0.1" stroke="#000000" stroke-width="1" x1="141" y1="699" x2="141" y2="68"/>
<line opacity="0.1" stroke="#000000" stroke-width="1" x1="150" y1="699" x2="150" y2="68"/>
<line opacity="0.1" stroke="#000000" stroke-width="1" x1="159" y1="699" x2="159" y2="68"/>
<line opacity="0.1" stroke="#000000" stroke-width="1" x1="168" y1="699" x2="168" y2="68"/>
<line opacity="0.1" stroke="#000000" stroke-width="1" x1="177" y1="699" x2="177" y2="68"/>
<line opacity="0.1" stroke="#000000" stroke-width="1" x1="186" y1="699" x2="186" y2="68"/>
<line opacity="0.1" stroke="#000000" stroke-width="1" x1="195" y1="699" x2="195" y2="68"/>
<line opacity="0.1" stroke="#000000" stroke-width="1" x1="204" y1="699" x2="204" y2="68"/>
<line opacity="0.1" stroke="#000000" stroke-width="1" x1="213" y1="699" x2="213" y2="68"/>
<line opacity="0.1" stroke="#000000" stroke-width="1" x1="222" y1="699" x2="222" y2="68"/>
<line opacity="0.1" stroke="#000000" stroke-width="1" x1="231" y1="699" x2="231" y2="68"/>
<line opacity="0.1" stroke="#000000" stroke-width="1" x1="240" y1="699" x2="240" y2="68"/>
<line opacity="0.1" stroke="#000000" stroke-width="1" x1="249" y1="699" x2="249" y2="68"/>
<line opacity="0.1" stroke="#000000" stroke-width="1" x1="257" y1="699" x2="257" y2="68"/>
<line opacity="0.1" stroke="#000000" stroke-width="1" x1="266" y1="699" x2="266" y2="68"/>
<line opacity="0.1" stroke="#000000" stroke-width="1" x1="275" y1="699" x2="275" y2="68"/>
<line opacity="0.1" stroke="#000000" stroke-width="1" x1="284" y1="699" x2="284" y2="68"/>
<line opacity="0.1" stroke="#000000" stroke-width="1" x1="293" y1="699" x2="293" y2="68"/>
<line opacity="0.1" stroke="#000000" stroke-width="1" x1="302" y1="699" x2="302" y2="68"/>
<line opacity="0.1" stroke="#000000" stroke-width="1" x1="311" y1="699" x2="311" y2="68"/>
<line opacity="0.1" stroke="#000000" stroke-width="1" x1="320" y1="699" x2="320" y2="68"/>
<line opacity="0.1" stroke="#000000" stroke-width="1" x1="329" y1="699" x2="329" y2="68"/>
<line opacity="0.1" stroke="#000000" stroke-width="1" x1="338" y1="699" x2="338" y2="68"/>
<line opacity="0.1" stroke="#000000" stroke-width="1" x1="347" y1="699" x2="347" y2="68"/>
<line opacity="0.1" stroke="#000000" stroke-width="1" x1="356" y1="699" x2="356" y2="68"/>
<line opacity="0.1" stroke="#000000" stroke-width="1" x1="365" y1="699" x2="365" y2="68"/>
<line opacity="0.1" stroke="#000000" stroke-width="1" x1="374" y1="699" x2="374" y2="68"/>
<line opacity="0.1" stroke="#000000" stroke-width="1" x1="383" y1="699" x2="383" y2="68"/>
<line opacity="0.1" stroke="#000000" stroke-width="1" x1="392" y1="699" x2="392" y2="68"/>
<line opacity="0.1" stroke="#000000" stroke-width="1" x1="401" y1="699" x2="401" y2="68"/>
<line opacity="0.1" stroke="#000000" stroke-width="1" x1="410" y1="699" x2="410" y2="68"/>
<line opacity="0.1" stroke="#000000" stroke-width="1" x1="419" y1="699" x2="419" y2="68"/>
<line opacity="0.1" stroke="#000000" stroke-width="1" x1="427" y1="699" x2="427" y2="68"/>
<line opacity="0.1" stroke="#000000" stroke-width="1" x1="436" y1="699" x2="436" y2="68"/>
<line opacity="0.1" stroke="#000000" stroke-width="1" x1="445" y1="699" x2="445" y2="68"/>
<line opacity="0.1" stroke="#000000" stroke-width="1" x1="454" y1="699" x2="454" y2="68"/>
<line opacity="0.1" stroke="#000000" stroke-width="1" x1="463" y1="699" x2="463" y2="68"/>
<line opacity="0.1" stroke="#000000" stroke-width="1" x1="472" y1="699" x2="472" y2="68"/>
<line opacity="0.1" stroke="#000000" stroke-width="1" x1="481" y1="699" x2="481" y2="68"/>
<line opacity="0.1" stroke="#000000" stroke-width="1" x1="490" y1="699" x2="490" y2="68"/>
<line opacity="0.1" stroke="#000000" stroke-width="1" x1="499" y1="699" x2="499" y2="68"/>
<line opacity="0.1" stroke="#000000" stroke-width="1" x1="508" y1="699" x2="508" y2="68"/>
<line opacity="0.1" stroke="#000000" stroke-width="1" x1="517" y1="699" x2="517" y2="68"/>
<line opacity="0.1" stroke="#000000" stroke-width="1" x1="526" y1="699" x2="526" y2="68"/>
<line opacity="0.1" stroke="#000000" stroke-width="1" x1="535" y1="699" x2="535" y2="68"/>
<line opacity="0.1" stroke="#000000" stroke-width="1" x1="544" y1="699" x2="544" y2="68"/>
<line opacity="0.1" stroke="#000000" stroke-width="1" x1="553" y1="699" x2="553" y2="68"/>
<line opacity="0.1" stroke="#000000" stroke-width="1" x1="562" y1="699" x2="562" y2="68"/>
<line opacity="0.1" stroke="#000000" stroke-width="1" x1="571" y1="699" x2="571" y2="68"/>
<line opacity="0.1" stroke="#000000" stroke-width="1" x1="580" y1="699" x2="580" y2="68"/>
<line opacity="0.1" stroke="#000000" stroke-width="1" x1="589" y1="699" x2="589" y2="68"/>
<line opacity="0.1" stroke="#000000" stroke-width="1" x1="598" y1="699" x2="598" y2="68"/>
<line opacity="0.1" stroke="#000000" stroke-width="1" x1="606" y1="699" x2="606" y2="68"/>
<line opacity="0.1" stroke="#000000" stroke-width="1" x1="615" y1="699" x2="615" y2="68"/>
<line opacity="0.1" stroke="#000000" stroke-width="1" x1="624" y1="699" x2="624" y2="68"/>
<line opacity="0.1" stroke="#000000" stroke-width="1" x1="633" y1="699" x2="633" y2="68"/>
<line opacity="0.1" stroke="#000000" stroke-width="1" x1="642" y1="699" x2="642" y2="68"/>
<line opacity="0.1" stroke="#000000" stroke-width="1" x1="651" y1="699" x2="651" y2="68"/>
<line opacity="0.1" stroke="#000000" stroke-width="1" x1="660" y1="699" x2="660" y2="68"/>
<line opacity="0.1" stroke="#000000" stroke-width="1" x1="669" y1="699" x2="669" y2="68"/>
<line opacity="0.1" stroke="#000000" stroke-width="1" x1="678" y1="699" x2="678" y2="68"/>
<line opacity="0.1" stroke="#000000" stroke-width="1" x1="687" y1="699" x2="687" y2="68"/>
<line opacity="0.1" stroke="#000000" stroke-width="1" x1="696" y1="699" x2="696" y2="68"/>
<line opacity="0.1" stroke="#000000" stroke-width="1" x1="705" y1="699" x2="705" y2="68"/>
<line opacity="0.1" stroke="#000000" stroke-width="1" x1="714" y1="699" x2="714" y2="68"/>
<line opacity="0.1" stroke="#000000" stroke-width="1" x1="723" y1="699" x2="723" y2="68"/>
<line opacity="0.1" stroke="#000000" stroke-width="1" x1="732" y1="699" x2="732" y2="68"/>
<line opacity="0.1" stroke="#000000" stroke-width="1" x1="741" y1="699" x2="741" y2="68"/>
<line opacity="0.1" stroke="#000000" stroke-width="1" x1="750" y1="699" x2="750" y2="68"/>
<line opacity="0.1" stroke="#000000" stroke-width="1" x1="759" y1="699" x2="759" y2="68"/>
<line opacity="0.1" stroke="#000000" stroke-width="1" x1="768" y1="699" x2="768" y2="68"/>
<line opacity="0.1" stroke="#000000" stroke-width="1" x1="776" y1="699" x2="776" y2="68"/>
<line opacity="0.1" stroke="#000000" stroke-width="1" x1="785" y1="699" x2="785" y2="68"/>
<line opacity="0.1" stroke="#000000" stroke-width="1" x1="794" y1="699" x2="794" y2="68"/>
<line opacity="0.1" stroke="#000000" stroke-width="1" x1="803" y1="699" x2="803" y2="68"/>
<line opacity="0.1" stroke="#000000" stroke-width="1" x1="812" y1="699" x2="812" y2="68"/>
<line opacity="0.1" stroke="#000000" stroke-width="1" x1="821" y1="699" x2="821" y2="68"/>
<line opacity="0.1" stroke="#000000" stroke-width="1" x1="830" y1="699" x2="830" y2="68"/>
<line opacity="0.1" stroke="#000000" stroke-width="1" x1="839" y1="699" x2="839" y2="68"/>
<line opacity="0.1" stroke="#000000" stroke-width="1" x1="848" y1="699" x2="848" y2="68"/>
<line opacity="0.1" stroke="#000000" stroke-width="1" x1="857" y1="699" x2="857" y2="68"/>
<line opacity="0.1" stroke="#000000" stroke-width="1" x1="866" y1="699" x2="866" y2="68"/>
<line opacity="0.1" stroke="#000000" stroke-width="1" x1="875" y1="699" x2="875" y2="68"/>
<line opacity="0.1" stroke="#000000" stroke-width="1" x1="884" y1="699" x2="884" y2="68"/>
<line opacity="0.1" stroke="#000000" stroke-width="1" x1="893" y1="699" x2="893" y2="68"/>
<line opacity="0.1" stroke="#000000" stroke-width="1" x1="902" y1="699" x2="902" y2="68"/>
<line opacity="0.1" stroke="#000000" stroke-width="1" x1="911" y1="699" x2="911" y2="68"/>
<line opacity="0.1" stroke="#000000" stroke-width="1" x1="920" y1="699" x2="920" y2="68"/>
<line opacity="0.1" stroke="#000000" stroke-width="1" x1="929" y1="699" x2="929" y2="68"/>
<line opacity="0.1" stroke="#000000" stroke-width="1" x1="938" y1="699" x2="938" y2="68"/>
<line opacity="0.1" stroke="#000000" stroke-width="1" x1="946" y1="699" x2="946" y2="68"/>
<line opacity="0.1" stroke="#000000" stroke-width="1" x1="955" y1="699" x2="955" y2="68"/>
<line opacity="0.1" stroke="#000000" stroke-width="1" x1="964" y1="699" x2="964" y2="68"/>
<line opacity="0.1" stroke="#000000" stroke-width="1" x1="78" y1="699" x2="973" y2="699"/>
<line opacity="0.1" stroke="#000000" stroke-width="1" x1="78" y1="691" x2="973" y2="691"/>
<line opacity="0.1" stroke="#000000" stroke-width="1" x1="78" y1="683" x2="973" y2="683"/>
<line opacity="0.1" stroke="#000000" stroke-width="1" x1="78" y1="676" x2="973" y2="676"/>
<line opacity="0.1" stroke="#000000" stroke-width="1" x1="78" y1="668" x2="973" y2="668"/>
<line opacity="0.1" stroke="#000000" stroke-width="1" x1="78" y1="661" x2="973" y2="661"/>
<line opacity="0.1" stroke="#000000" stroke-width="1" x1="78" y1="653" x2="973" y2="653"/>
<line opacity="0.1" stroke="#000000" stroke-width="1" x1="78" y1="645" x2="973" y2="645"/>
<line opacity="0.1" stroke="#000000" stroke-width="1" x1="78" y1="638" x2="973" y2="638"/>
<line opacity="0.1" stroke="#000000" stroke-width="1" x1="78" y1="630" x2="973" y2="630"/>
<line opacity="0.1" stroke="#000000" stroke-width="1" x1="78" y1="623" x2="973" y2="623"/>
<line opacity="0.1" stroke="#000000" stroke-width="1" x1="78" y1="615" x2="973" y2="615"/>
<line opacity="0.1" stroke="#000000" stroke-width="1" x1="78" y1="608" x2="973" y2="608"/>
<line opacity="0.1" stroke="#000000" stroke-width="1" x1="78" y1="600" x2="973" y2="600"/>
<line opacity="0.1" stroke="#000000" stroke-width="1" x1="78" y1="592" x2="973" y2="592"/>
<line opacity="0.1" stroke="#000000" stroke-width="1" x1="78" y1="585" x2="973" y2="585"/>
<line opacity="0.1" stroke="#000000" stroke-width="1" x1="78" y1="577" x2="973" y2="577"/>
<line opacity="0.1" stroke="#000000" stroke-width="1" x1="78" y1="570" x2="973" y2="570"/>
<line opacity="0.1" stroke="#000000" stroke-width="1" x1="78" y1="562" x2="973" y2="562"/>
<line opacity="0.1" stroke="#000000" stroke-width="1" x1="78" y1="554" x2="973" y2="554"/>
<line opacity="0.1" stroke="#000000" stroke-width="1" x1="78" y1="547" x2="973" y2="547"/>
<line opacity="0.1" stroke="#000000" stroke-width="1" x1="78" y1="539" x2="973" y2="539"/>
<line opacity="0.1" stroke="#000000" stroke-width="1" x1="78" y1="532" x2="973" y2="532"/>
<line opacity="0.1" stroke="#000000" stroke-width="1" x1="78" y1="524" x2="973" y2="524"/>
<line opacity="0.1" stroke="#000000" stroke-width="1" x1="78" y1="517" x2="973" y2="517"/>
<line opacity="0.1" stroke="#000000" stroke-width="1" x1="78" y1="509" x2="973" y2="509"/>
<line opacity="0.1" stroke="#000000" stroke-width="1" x1="78" y1="501" x2="973" y2="501"/>
<line opacity="0.1" stroke="#000000" stroke-width="1" x1="78" y1="494" x2="973" y2="494"/>
<line opacity="0.1" stroke="#000000" stroke-width="1" x1="78" y1="486" x2="973" y2="486"/>
<line opacity="0.1" stroke="#000000" stroke-width="1" x1="78" y1="479" x2="973" y2="479"/>
<line opacity="0.1" stroke="#000000" stroke-width="1" x1="78" y1="471" x2="973" y2="471"/>
<line opacity="0.1" stroke="#000000" stroke-width="1" x1="78" y1="463" x2="973" y2="463"/>
<line opacity="0.1" stroke="#000000" stroke-width="1" x1="78" y1="456" x2="973" y2="456"/>
<line opacity="0.1" stroke="#000000" stroke-width="1" x1="78" y1="448" x2="973" y2="448"/>
<line opacity="0.1" stroke="#000000" stroke-width="1" x1="78" y1="441" x2="973" y2="441"/>
<line opacity="0.1" stroke="#000000" stroke-width="1" x1="78" y1="433" x2="973" y2="433"/>
<line opacity="0.1" stroke="#000000" stroke-width="1" x1="78" y1="426" x2="973" y2="426"/>
<line opacity="0.1" stroke="#000000" stroke-width="1" x1="78" y1="418" x2="973" y2="418"/>
<line opacity="0.1" stroke="#000000" stroke-width="1" x1="78" y1="410" x2="973" y2="410"/>
<line opacity="0.1" stroke="#000000" stroke-width="1" x1="78" y1="403" x2="973" y2="403"/>
<line opacity="0.1" stroke="#000000" stroke-width="1" x1="78" y1="395" x2="973" y2="395"/>
<line opacity="0.1" stroke="#000000" stroke-width="1" x1="78" y1="388" x2="973" y2="388"/>
<line opacity="0.1" stroke="#000000" stroke-width="1" x1="78" y1="380" x2="973" y2="380"/>
<line opacity="0.1" stroke="#000000" stroke-width="1" x1="78" y1="372" x2="973" y2="372"/>
<line opacity="0.1" stroke="#000000" stroke-width="1" x1="78" y1="365" x2="973" y2="365"/>
<line opacity="0.1" stroke="#000000" stroke-width="1" x1="78" y1="357" x2="973" y2="357"/>
<line opacity="0.1" stroke="#000000" stroke-width="1" x1="78" y1="350" x2="973" y2="350"/>
<line opacity="0.1" stroke="#000000" stroke-width="1" x1="78" y1="342" x2="973" y2="342"/>
<line opacity="0.1" stroke="#000000" stroke-width="1" x1="78" y1="335" x2="973" y2="335"/>
<line opacity="0.1" stroke="#000000" stroke-width="1" x1="78" y1="327" x2="973" y2="327"/>
<line opacity="0.1" stroke="#000000" stroke-width="1" x1="78" y1="319" x2="973" y2="319"/>
<line opacity="0.1" stroke="#000000" stroke-width="1" x1="78" y1="312" x2="973" y2="312"/>
<line opacity="0.1" stroke="#000000" stroke-width="1" x1="78" y1="304" x2="973" y2="304"/>
<line opacity="0.1" stroke="#000000" stroke-width="1" x1="78" y1="297" x2="973" y2="297"/>
<line opacity="0.1" stroke="#000000" stroke-width="1" x1="78" y1="289" x2="973" y2="289"/>
<line opacity="0.1" stroke="#000000" stroke-width="1" x1="78" y1="281" x2="973" y2="281"/>
<line opacity="0.1" stroke="#000000" stroke-width="1" x1="78" y1="274" x2="973" y2="274"/>
<line opacity="0.1" stroke="#000000" stroke-width="1" x1="78" y1="266" x2="973" y2="266"/>
<line opacity="0.1" stroke="#000000" stroke-width="1" x1="78" y1="259" x2="973" y2="259"/>
<line opacity="0.1" stroke="#000000" stroke-width="1" x1="78" y1="251" x2="973" y2="251"/>
<line opacity="0.1" stroke="#000000" stroke-width="1" x1="78" y1="244" x2="973" y2="244"/>
<line opacity="0.1" stroke="#000000" stroke-width="1" x1="78" y1="236" x2="973" y2="236"/>
<line opacity="0.1" stroke="#000000" stroke-width="1" x1="78" y1="228" x2="973" y2="228"/>
<line opacity="0.1" stroke="#000000" stroke-width="1" x1="78" y1="221" x2="973" y2="221"/>
<line opacity="0.1" stroke="#000000" stroke-width="1" x1="78" y1="213" x2="973" y2="213"/>
<line opacity="0.1" stroke="#000000" stroke-width="1" x1="78" y1="206" x2="973" y2="206"/>
<line opacity="0.1" stroke="#000000" stroke-width="1" x1="78" y1="198" x2="973" y2="198"/>
<line opacity="0.1" stroke="#000000" stroke-width="1" x1="78" y1="190" x2="973" y2="190"/>
<line opacity="0.1" stroke="#000000" stroke-width="1" x1="78" y1="183" x2="973" y2="183"/>
<line opacity="0.1" stroke="#000000" stroke-width="1" x1="78" y1="175" x2="973" y2="175"/>
<line opacity="0.1" stroke="#000000" stroke-width="1" x1="78" y1="168" x2="973" y2="168"/>
<line opacity="0.1" stroke="#000000" stroke-width="1" x1="78" y1="160" x2="973" y2="160"/>
<line opacity="0.1" stroke="#000000" stroke-width="1" x1="78" y1="153" x2="973" y2="153"/>
<line opacity="0.1" stroke="#000000" stroke-width="1" x1="78" y1="145" x2="973" y2="145"/>
<line opacity="0.1" stroke="#000000" stroke-width="1" x1="78" y1="137" x2="973" y2="137"/>
<line opacity="0.1" stroke="#000000" stroke-width="1" x1="78" y1="130" x2="973" y2="130"/>
<line opacity="0.1" stroke="#000000" stroke-width="1" x1="78" y1="122" x2="973" y2="122"/>
<line opacity="0.1" stroke="#000000" stroke-width="1" x1="78" y1="115" x2="973" y2="115"/>
<line opacity="0.1" stroke="#000000" stroke-width="1" x1="78" y1="107" x2="973" y2="107"/>
<line opacity="0.1" stroke="#000000" stroke-width="1" x1="78" y1="99" x2="973" y2="99"/>
<line opacity="0.1" stroke="#000000" stroke-width="1" x1="78" y1="92" x2="973" y2="92"/>
<line opacity="0.1" stroke="#000000" stroke-width="1" x1="78" y1="84" x2="973" y2="84"/>
<line opacity="0.1" stroke="#000000" stroke-width="1" x1="78" y1="77" x2="973" y2="77"/>
<line opacity="0.1" stroke="#000000" stroke-width="1" x1="78" y1="69" x2="973" y2="69"/>
<text x="8" y="384" dy="0.76em" text-anchor="middle" font-family="sans-serif" font-size="9.67741935483871" opacity="1" fill="#000000" transform="rotate(270, 8, 384)">
RSS
</text>
<text x="526" y="760" dy="-0.5ex" text-anchor="middle" font-family="sans-serif" font-size="9.67741935483871" opacity="1" fill="#000000">
Time
</text>
<line opacity="0.2" stroke="#000000" stroke-width="1" x1="96" y1="699" x2="96" y2="68"/>
<line opacity="0.2" stroke="#000000" stroke-width="1" x1="186" y1="699" x2="186" y2="68"/>
<line opacity="0.2" stroke="#000000" stroke-width="1" x1="275" y1="699" x2="275" y2="68"/>
<line opacity="0.2" stroke="#000000" stroke-width="1" x1="365" y1="699" x2="365" y2="68"/>
<line opacity="0.2" stroke="#000000" stroke-width="1" x1="454" y1="699" x2="454" y2="68"/>
<line opacity="0.2" stroke="#000000" stroke-width="1" x1="544" y1="699" x2="544" y2="68"/>
<line opacity="0.2" stroke="#000000" stroke-width="1" x1="633" y1="699" x2="633" y2="68"/>
<line opacity="0.2" stroke="#000000" stroke-width="1" x1="723" y1="699" x2="723" y2="68"/>
<line opacity="0.2" stroke="#000000" stroke-width="1" x1="812" y1="699" x2="812" y2="68"/>
<line opacity="0.2" stroke="#000000" stroke-width="1" x1="902" y1="699" x2="902" y2="68"/>
<line opacity="0.2" stroke="#000000" stroke-width="1" x1="78" y1="699" x2="973" y2="699"/>
<line opacity="0.2" stroke="#000000" stroke-width="1" x1="78" y1="623" x2="973" y2="623"/>
<line opacity="0.2" stroke="#000000" stroke-width="1" x1="78" y1="547" x2="973" y2="547"/>
<line opacity="0.2" stroke="#000000" stroke-width="1" x1="78" y1="471" x2="973" y2="471"/>
<line opacity="0.2" stroke="#000000" stroke-width="1" x1="78" y1="395" x2="973" y2="395"/>
<line opacity="0.2" stroke="#000000" stroke-width="1" x1="78" y1="319" x2="973" y2="319"/>
<line opacity="0.2" stroke="#000000" stroke-width="1" x1="78" y1="244" x2="973" y2="244"/>
<line opacity="0.2" stroke="#000000" stroke-width="1" x1="78" y1="168" x2="973" y2="168"/>
<line opacity="0.2" stroke="#000000" stroke-width="1" x1="78" y1="92" x2="973" y2="92"/>
<polyline fill="none" opacity="1" stroke="#000000" stroke-width="1" points="77,68 77,699 "/>
<text x="68" y="699" dy="0.5ex" text-anchor="end" font-family="sans-serif" font-size="9.67741935483871" opacity="1" fill="#000000">
0.0 MB
</text>
<polyline fill="none" opacity="1" stroke="#000000" stroke-width="1" points="72,699 77,699 "/>
<text x="68" y="623" dy="0.5ex" text-anchor="end" font-family="sans-serif" font-size="9.67741935483871" opacity="1" fill="#000000">
4.8 MB
</text>
<polyline fill="none" opacity="1" stroke="#000000" stroke-width="1" points="72,623 77,623 "/>
<text x="68" y="547" dy="0.5ex" text-anchor="end" font-family="sans-serif" font-size="9.67741935483871" opacity="1" fill="#000000">
9.5 MB
</text>
<polyline fill="none" opacity="1" stroke="#000000" stroke-width="1" points="72,547 77,547 "/>
<text x="68" y="471" dy="0.5ex" text-anchor="end" font-family="sans-serif" font-size="9.67741935483871" opacity="1" fill="#000000">
14.3 MB
</text>
<polyline fill="none" opacity="1" stroke="#000000" stroke-width="1" points="72,471 77,471 "/>
<text x="68" y="395" dy="0.5ex" text-anchor="end" font-family="sans-serif" font-size="9.67741935483871" opacity="1" fill="#000000">
19.1 MB
</text>
<polyline fill="none" opacity="1" stroke="#000000" stroke-width="1" points="72,395 77,395 "/>
<text x="68" y="319" dy="0.5ex" text-anchor="end" font-family="sans-serif" font-size="9.67741935483871" opacity="1" fill="#000000">
23.8 MB
</text>
<polyline fill="none" opacity="1" stroke="#000000" stroke-width="1" points="72,319 77,319 "/>
<text x="68" y="244" dy="0.5ex" text-anchor="end" font-family="sans-serif" font-size="9.67741935483871" opacity="1" fill="#000000">
28.6 MB
</text>
<polyline fill="none" opacity="1" stroke="#000000" stroke-width="1" points="72,244 77,244 "/>
<text x="68" y="168" dy="0.5ex" text-anchor="end" font-family="sans-serif" font-size="9.67741935483871" opacity="1" fill="#000000">
33.4 MB
</text>
<polyline fill="none" opacity="1" stroke="#000000" stroke-width="1" points="72,168 77,168 "/>
<text x="68" y="92" dy="0.5ex" text-anchor="end" font-family="sans-serif" font-size="9.67741935483871" opacity="1" fill="#000000">
38.1 MB
</text>
<polyline fill="none" opacity="1" stroke="#000000" stroke-width="1" points="72,92 77,92 "/>
<polyline fill="none" opacity="1" stroke="#000000" stroke-width="1" points="78,700 973,700 "/>
<text x="96" y="710" dy="0.76em" text-anchor="middle" font-family="sans-serif" font-size="9.67741935483871" opacity="1" fill="#000000">
02:04:17
</text>
<polyline fill="none" opacity="1" stroke="#000000" stroke-width="1" points="96,700 96,705 "/>
<text x="186" y="710" dy="0.76em" text-anchor="middle" font-family="sans-serif" font-size="9.67741935483871" opacity="1" fill="#000000">
02:04:18
</text>
<polyline fill="none" opacity="1" stroke="#000000" stroke-width="1" points="186,700 186,705 "/>
<text x="275" y="710" dy="0.76em" text-anchor="middle" font-family="sans-serif" font-size="9.67741935483871" opacity="1" fill="#000000">
02:04:19
</text>
<polyline fill="none" opacity="1" stroke="#000000" stroke-width="1" points="275,700 275,705 "/>
<text x="365" y="710" dy="0.76em" text-anchor="middle" font-family="sans-serif" font-size="9.67741935483871" opacity="1" fill="#000000">
02:04:20
</text>
<polyline fill="none" opacity="1" stroke="#000000" stroke-width="1" points="365,700 365,705 "/>
<text x="454" y="710" dy="0.76em" text-anchor="middle" font-family="sans-serif" font-size="9.67741935483871" opacity="1" fill="#000000">
02:04:21
</text>
<polyline fill="none" opacity="1" stroke="#000000" stroke-width="1" points="454,700 454,705 "/>
<text x="544" y="710" dy="0.76em" text-anchor="middle" font-family="sans-serif" font-size="9.67741935483871" opacity="1" fill="#000000">
02:04:22
</text>
<polyline fill="none" opacity="1" stroke="#000000" stroke-width="1" points="544,700 544,705 "/>
<text x="633" y="710" dy="0.76em" text-anchor="middle" font-family="sans-serif" font-size="9.67741935483871" opacity="1" fill="#000000">
02:04:23
</text>
<polyline fill="none" opacity="1" stroke="#000000" stroke-width="1" points="633,700 633,705 "/>
<text x="723" y="710" dy="0.76em" text-anchor="middle" font-family="sans-serif" font-size="9.67741935483871" opacity="1" fill="#000000">
02:04:24
</text>
<polyline fill="none" opacity="1" stroke="#000000" stroke-width="1" points="723,700 723,705 "/>
<text x="812" y="710" dy="0.76em" text-anchor="middle" font-family="sans-serif" font-size="9.67741935483871" opacity="1" fill="#000000">
02:04:25
</text>
<polyline fill="none" opacity="1" stroke="#000000" stroke-width="1" points="812,700 812,705 "/>
<text x="902" y="710" dy="0.76em" text-anchor="middle" font-family="sans-serif" font-size="9.67741935483871" opacity="1" fill="#000000">
02:04:26
</text>
<polyline fill="none" opacity="1" stroke="#000000" stroke-width="1" points="902,700 902,705 "/>
<polyline fill="none" opacity="1" stroke="#000000" stroke-width="1" points="78,67 974,67 "/>
<text x="96" y="58" dy="-0.5ex" text-anchor="middle" font-family="sans-serif" font-size="9.67741935483871" opacity="1" fill="#000000">
+265ms
</text>
<polyline fill="none" opacity="1" stroke="#000000" stroke-width="1" points="96,62 96,67 "/>
<text x="186" y="58" dy="-0.5ex" text-anchor="middle" font-family="sans-serif" font-size="9.67741935483871" opacity="1" fill="#000000">
+1s
</text>
<polyline fill="none" opacity="1" stroke="#000000" stroke-width="1" points="186,62 186,67 "/>
<text x="276" y="58" dy="-0.5ex" text-anchor="middle" font-family="sans-serif" font-size="9.67741935483871" opacity="1" fill="#000000">
+2s
</text>
<polyline fill="none" opacity="1" stroke="#000000" stroke-width="1" points="276,62 276,67 "/>
<text x="365" y="58" dy="-0.5ex" text-anchor="middle" font-family="sans-serif" font-size="9.67741935483871" opacity="1" fill="#000000">
+3s
</text>
<polyline fill="none" opacity="1" stroke="#000000" stroke-width="1" points="365,62 365,67 "/>
<text x="455" y="58" dy="-0.5ex" text-anchor="middle" font-family="sans-serif" font-size="9.67741935483871" opacity="1" fill="#000000">
+4s
</text>
<polyline fill="none" opacity="1" stroke="#000000" stroke-width="1" points="455,62 455,67 "/>
<text x="544" y="58" dy="-0.5ex" text-anchor="middle" font-family="sans-serif" font-size="9.67741935483871" opacity="1" fill="#000000">
+5s
</text>
<polyline fill="none" opacity="1" stroke="#000000" stroke-width="1" points="544,62 544,67 "/>
<text x="634" y="58" dy="-0.5ex" text-anchor="middle" font-family="sans-serif" font-size="9.67741935483871" opacity="1" fill="#000000">
+6s
</text>
<polyline fill="none" opacity="1" stroke="#000000" stroke-width="1" points="634,62 634,67 "/>
<text x="724" y="58" dy="-0.5ex" text-anchor="middle" font-family="sans-serif" font-size="9.67741935483871" opacity="1" fill="#000000">
+7s
</text>
<polyline fill="none" opacity="1" stroke="#000000" stroke-width="1" points="724,62 724,67 "/>
<text x="813" y="58" dy="-0.5ex" text-anchor="middle" font-family="sans-serif" font-size="9.67741935483871" opacity="1" fill="#000000">
+8s
</text>
<polyline fill="none" opacity="1" stroke="#000000" stroke-width="1" points="813,62 813,67 "/>
<text x="903" y="58" dy="-0.5ex" text-anchor="middle" font-family="sans-serif" font-size="9.67741935483871" opacity="1" fill="#000000">
+9s
</text>
<polyline fill="none" opacity="1" stroke="#000000" stroke-width="1" points="903,62 903,67 "/>
</svg>
