<svg width="1024" height="768" viewBox="0 0 1024 768" xmlns="http://www.w3.org/2000/svg">
<rect x="0" y="0" width="1023" height="767" opacity="1" fill="#FFFFFF" stroke="none"/>
<polygon opacity="1" fill="#E6194B" points="78,646 78,612 79,578 80,570 81,565 82,562 83,555 84,545 85,544 86,541 86,532 87,527 88,532 89,528 90,533 91,529 92,530 93,530 94,527 95,515 95,509 96,500 97,501 98,497 99,494 100,489 101,494 102,499 103,493 103,488 104,473 105,474 106,465 107,461 108,474 109,479 110,485 111,483 112,484 112,485 113,488 114,476 115,483 116,477 117,465 118,466 119,475 120,478 121,485 121,485 122,474 123,472 124,474 125,481 126,485 127,487 128,490 129,492 129,498 130,500 131,508 132,496 133,499 134,488 135,487 136,490 137,492 138,495 138,500 139,500 140,507 141,523 142,513 143,513 144,530 145,523 146,516 146,518 147,521 148,525 149,520 150,521 151,519 152,516 153,507 154,502 155,505 155,501 156,506 157,512 158,517 159,512 160,509 161,507 162,503 163,494 164,498 164,497 165,501 166,507 167,505 168,510 169,505 170,505 171,503 172,498 172,498 173,491 174,481 175,471 176,471 177,478 178,482 179,473 180,473 181,479 181,476 182,479 183,479 184,475 185,472 186,461 187,455 188,454 189,450 190,440 190,440 191,440 192,451 193,454 194,470 195,475 196,475 197,492 198,501 198,492 199,487 200,488 201,488 202,477 203,472 204,472 205,485 206,497 207,496 207,494 208,493 209,486 210,495 211,488 212,486 213,476 214,468 215,468 215,461 216,471 217,466 218,470 219,475 220,476 221,475 222,478 223,473 224,472 224,474 225,476 226,491 227,489 228,488 229,485 230,482 231,481 232,479 233,487 233,478 234,480 235,486 236,480 237,480 238,481 239,487 240,492 241,488 241,492 242,482 243,482 244,485 245,488 246,495 247,496 248,491 249,493 250,489 250,480 251,481 252,483 253,481 254,471 255,473 256,477 257,480 258,472 258,475 259,479 260,480 261,477 262,488 263,484 264,475 265,464 266,463 267,459 267,475 268,470 269,457 270,448 271,445 272,443 273,432 274,436 275,437 276,440 276,433 277,425 278,425 279,423 280,423 281,427 282,435 283,434 284,423 284,425 285,424 286,422 287,424 288,431 289,435 290,432 291,432 292,422 293,419 293,416 294,411 295,414 296,414 297,411 298,415 299,420 300,420 301,422 302,422 302,425 303,425 304,425 305,422 306,425 307,427 308,428 309,429 310,439 310,438 311,427 312,423 313,429 314,429 315,409 316,406 317,405 318,406 319,405 319,404 320,407 321,407 322,400 323,398 324,393 325,393 326,393 327,392 327,390 328,394 329,394 330,396 331,396 332,400 333,412 334,403 335,395 336,390 336,395 337,384 338,380 339,385 340,392 341,384 342,385 343,390 344,390 345,378 345,374 346,380 347,376 348,377 349,382 350,386 351,394 352,395 353,394 353,386 354,382 355,376 356,380 357,379 358,376 359,379 360,374 361,379 362,390 362,394 363,395 364,393 365,394 366,398 367,395 368,400 369,403 370,403 370,398 371,402 372,405 373,403 374,405 375,405 376,406 377,398 378,401 379,408 379,411 380,404 381,409 382,410 383,408 384,392 385,391 386,405 387,406 388,405 388,405 389,413 390,406 391,406 392,401 393,400 394,402 395,401 396,404 396,411 397,405 398,397 399,396 400,391 401,394 402,407 403,410 404,402 405,395 405,394 406,395 407,399 408,401 409,390 410,385 411,384 412,394 413,400 414,398 414,391 415,390 416,388 417,384 418,384 419,386 420,374 421,370 422,380 422,379 423,397 424,391 425,389 426,389 427,383 428,385 429,386 430,392 431,393 431,385 432,379 433,381 434,384 435,380 436,389 437,391 438,388 439,379 439,381 440,381 441,382 442,379 443,380 444,385 445,391 446,389 447,391 448,394 448,389 449,389 450,396 451,394 452,402 453,416 454,420 455,414 456,412 457,410 457,402 458,400 459,413 460,416 461,403 462,403 463,406 464,407 465,402 465,403 466,409 467,414 468,417 469,414 470,415 471,416 472,416 473,417 474,409 474,408 475,404 476,402 477,406 478,397 479,405 480,410 481,408 482,404 482,406 483,403 484,405 485,406 486,417 487,416 488,409 489,408 490,409 491,415 491,416 492,417 493,425 494,430 495,434 496,438 497,440 498,436 499,446 500,444 500,440 501,430 502,422 503,426 504,425 505,423 506,422 507,421 508,423 508,425 509,424 510,424 511,426 512,420 513,418 514,419 515,421 516,428 517,429 517,425 518,418 519,419 520,421 521,421 522,425 523,421 524,421 525,416 526,414 526,420 527,418 528,403 529,402 530,387 531,387 532,391 533,391 534,391 534,390 535,379 536,372 537,371 538,364 539,364 540,371 541,370 542,369 543,367 543,369 544,371 545,369 546,370 547,368 548,372 549,376 550,371 551,368 551,362 552,359 553,360 554,365 555,373 556,375 557,376 558,372 559,368 560,373 560,379 561,375 562,365 563,358 564,366 565,367 566,368 567,369 568,382 569,383 569,381 570,378 571,374 572,382 573,376 574,372 575,370 576,363 577,354 577,350 578,359 579,353 580,345 581,346 582,338 583,338 584,352 585,347 586,347 586,335 587,338 588,337 589,337 590,334 591,330 592,325 593,339 594,342 594,343 595,317 596,311 597,313 598,308 599,308 600,321 601,315 602,303 603,304 603,302 604,295 605,300 606,306 607,313 608,314 609,312 610,309 611,316 612,317 612,306 613,294 614,300 615,292 616,296 617,302 618,309 619,310 620,304 620,301 621,298 622,297 623,306 624,309 625,310 626,310 627,306 628,303 629,311 629,303 630,306 631,302 632,303 633,302 634,304 635,315 636,304 637,289 638,289 638,287 639,288 640,290 641,281 642,274 643,271 644,277 645,275 646,276 646,272 647,267 648,267 649,277 650,283 651,279 652,276 653,279 654,285 655,281 655,287 656,290 657,284 658,280 659,278 660,271 661,271 662,273 663,274 663,271 664,280 665,281 666,281 667,273 668,272 669,275 670,264 671,262 672,267 672,263 673,260 674,259 675,261 676,270 677,279 678,274 679,272 680,283 681,287 681,281 682,274 683,277 684,276 685,276 686,276 687,276 688,276 689,274 689,263 690,253 691,245 692,249 693,253 694,247 695,249 696,250 697,254 698,252 698,249 699,244 700,243 701,250 702,242 703,238 704,240 705,245 706,235 706,234 707,240 708,250 709,262 710,270 711,267 712,271 713,268 714,272 715,277 715,282 716,278 717,273 718,271 719,259 720,257 721,253 722,256 723,261 724,262 724,259 725,258 726,252 727,242 728,245 729,254 730,263 731,278 732,287 732,285 733,270 734,271 735,260 736,260 737,255 738,249 739,253 740,248 741,245 741,236 742,235 743,241 744,238 745,232 746,230 747,229 748,230 749,228 750,234 750,242 751,236 752,229 753,225 754,221 755,232 756,229 757,236 758,236 758,232 759,232 760,242 761,244 762,241 763,238 764,241 765,238 766,238 767,236 767,228 768,229 769,236 770,232 771,223 772,222 773,210 774,207 775,208 775,214 776,209 777,215 778,217 779,216 780,225 781,234 782,234 783,226 784,225 784,228 785,225 786,225 787,228 788,242 789,247 790,254 791,267 792,273 793,277 793,266 794,258 795,248 796,245 797,248 798,242 799,232 800,232 801,222 801,213 802,214 803,209 804,211 805,212 806,209 807,203 808,204 809,212 810,212 810,213 811,224 812,224 813,223 814,218 815,214 816,213 817,215 818,214 818,207 819,208 820,211 821,203 822,203 823,210 824,201 825,201 826,193 827,192 827,187 828,184 829,190 830,194 831,188 832,191 833,201 834,196 835,193 836,189 836,194 837,197 838,206 839,206 840,210 841,200 842,208 843,211 844,211 844,209 845,208 846,193 847,184 848,187 849,185 850,187 851,194 852,190 853,184 853,186 854,184 855,186 856,185 857,184 858,185 859,179 860,177 861,169 862,160 862,157 863,162 864,158 865,154 866,150 867,143 868,143 869,149 870,143 870,144 871,147 872,146 873,147 874,153 875,154 876,157 877,166 878,168 879,177 879,169 880,173 881,171 882,162 883,171 884,182 885,167 886,164 887,166 887,170 888,170 889,175 890,183 891,177 892,177 893,173 894,171 895,173 896,169 896,172 897,171 898,168 899,159 900,153 901,166 902,157 903,153 904,160 905,165 905,164 906,166 907,162 908,158 909,137 910,133 911,142 912,151 913,150 913,156 914,155 915,152 916,145 917,137 918,138 919,146 920,149 921,144 922,136 922,139 923,153 924,159 925,161 926,165 927,163 928,158 929,155 930,151 930,145 931,151 932,150 933,150 934,134 935,132 936,126 937,124 938,123 939,118 939,110 940,109 941,111 942,103 943,101 944,98 945,105 946,107 947,110 948,116 948,125 949,126 950,128 951,126 952,126 953,119 954,120 955,114 956,118 956,111 957,106 958,97 959,97 960,97 961,106 962,107 963,105 964,93 965,89 965,90 966,102 967,109 968,105 969,99 970,96 971,100 972,95 973,71 974,68 974,472 974,472 974,699 78,699 "/>
<polyline fill="none" opacity="1" stroke="#E6194B" stroke-width="1" points="78,646 78,612 79,578 80,570 81,565 82,562 83,555 84,545 85,544 86,541 86,532 87,527 88,532 89,528 90,533 91,529 92,530 93,530 94,527 95,515 95,509 96,500 97,501 98,497 99,494 100,489 101,494 102,499 103,493 103,488 104,473 105,474 106,465 107,461 108,474 109,479 110,485 111,483 112,484 112,485 113,488 114,476 115,483 116,477 117,465 118,466 119,475 120,478 121,485 121,485 122,474 123,472 124,474 125,481 126,485 127,487 128,490 129,492 129,498 130,500 131,508 132,496 133,499 134,488 135,487 136,490 137,492 138,495 138,500 139,500 140,507 141,523 142,513 143,513 144,530 145,523 146,516 146,518 147,521 148,525 149,520 150,521 151,519 152,516 153,507 154,502 155,505 155,501 156,506 157,512 158,517 159,512 160,509 161,507 162,503 163,494 164,498 164,497 165,501 166,507 167,505 168,510 169,505 170,505 171,503 172,498 172,498 173,491 174,481 175,471 176,471 177,478 178,482 179,473 180,473 181,479 181,476 182,479 183,479 184,475 185,472 186,461 187,455 188,454 189,450 190,440 190,440 191,440 192,451 193,454 194,470 195,475 196,475 197,492 198,501 198,492 199,487 200,488 201,488 202,477 203,472 204,472 205,485 206,497 207,496 207,494 208,493 209,486 210,495 211,488 212,486 213,476 214,468 215,468 215,461 216,471 217,466 218,470 219,475 220,476 221,475 222,478 223,473 224,472 224,474 225,476 226,491 227,489 228,488 229,485 230,482 231,481 232,479 233,487 233,478 234,480 235,486 236,480 237,480 238,481 239,487 240,492 241,488 241,492 242,482 243,482 244,485 245,488 246,495 247,496 248,491 249,493 250,489 250,480 251,481 252,483 253,481 254,471 255,473 256,477 257,480 258,472 258,475 259,479 260,480 261,477 262,488 263,484 264,475 265,464 266,463 267,459 267,475 268,470 269,457 270,448 271,445 272,443 273,432 274,436 275,437 276,440 276,433 277,425 278,425 279,423 280,423 281,427 282,435 283,434 284,423 284,425 285,424 286,422 287,424 288,431 289,435 290,432 291,432 292,422 293,419 293,416 294,411 295,414 296,414 297,411 298,415 299,420 300,420 301,422 302,422 302,425 303,425 304,425 305,422 306,425 307,427 308,428 309,429 310,439 310,438 311,427 312,423 313,429 314,429 315,409 316,406 317,405 318,406 319,405 319,404 320,407 321,407 322,400 323,398 324,393 325,393 326,393 327,392 327,390 328,394 329,394 330,396 331,396 332,400 333,412 334,403 335,395 336,390 336,395 337,384 338,380 339,385 340,392 341,384 342,385 343,390 344,390 345,378 345,374 346,380 347,376 348,377 349,382 350,386 351,394 352,395 353,394 353,386 354,382 355,376 356,380 357,379 358,376 359,379 360,374 361,379 362,390 362,394 363,395 364,393 365,394 366,398 367,395 368,400 369,403 370,403 370,398 371,402 372,405 373,403 374,405 375,405 376,406 377,398 378,401 379,408 379,411 380,404 381,409 382,410 383,408 384,392 385,391 386,405 387,406 388,405 388,405 389,413 390,406 391,406 392,401 393,400 394,402 395,401 396,404 396,411 397,405 398,397 399,396 400,391 401,394 402,407 403,410 404,402 405,395 405,394 406,395 407,399 408,401 409,390 410,385 411,384 412,394 413,400 414,398 414,391 415,390 416,388 417,384 418,384 419,386 420,374 421,370 422,380 422,379 423,397 424,391 425,389 426,389 427,383 428,385 429,386 430,392 431,393 431,385 432,379 433,381 434,384 435,380 436,389 437,391 438,388 439,379 439,381 440,381 441,382 442,379 443,380 444,385 445,391 446,389 447,391 448,394 448,389 449,389 450,396 451,394 452,402 453,416 454,420 455,414 456,412 457,410 457,402 458,400 459,413 460,416 461,403 462,403 463,406 464,407 465,402 465,403 466,409 467,414 468,417 469,414 470,415 471,416 472,416 473,417 474,409 474,408 475,404 476,402 477,406 478,397 479,405 480,410 481,408 482,404 482,406 483,403 484,405 485,406 486,417 487,416 488,409 489,408 490,409 491,415 491,416 492,417 493,425 494,430 495,434 496,438 497,440 498,436 499,446 500,444 500,440 501,430 502,422 503,426 504,425 505,423 506,422 507,421 508,423 508,425 509,424 510,424 511,426 512,420 513,418 514,419 515,421 516,428 517,429 517,425 518,418 519,419 520,421 521,421 522,425 523,421 524,421 525,416 526,414 526,420 527,418 528,403 529,402 530,387 531,387 532,391 533,391 534,391 534,390 535,379 536,372 537,371 538,364 539,364 540,371 541,370 542,369 543,367 543,369 544,371 545,369 546,370 547,368 548,372 549,376 550,371 551,368 551,362 552,359 553,360 554,365 555,373 556,375 557,376 558,372 559,368 560,373 560,379 561,375 562,365 563,358 564,366 565,367 566,368 567,369 568,382 569,383 569,381 570,378 571,374 572,382 573,376 574,372 575,370 576,363 577,354 577,350 578,359 579,353 580,345 581,346 582,338 583,338 584,352 585,347 586,347 586,335 587,338 588,337 589,337 590,334 591,330 592,325 593,339 594,342 594,343 595,317 596,311 597,313 598,308 599,308 600,321 601,315 602,303 603,304 603,302 604,295 605,300 606,306 607,313 608,314 609,312 610,309 611,316 612,317 612,306 613,294 614,300 615,292 616,296 617,302 618,309 619,310 620,304 620,301 621,298 622,297 623,306 624,309 625,310 626,310 627,306 628,303 629,311 629,303 630,306 631,302 632,303 633,302 634,304 635,315 636,304 637,289 638,289 638,287 639,288 640,290 641,281 642,274 643,271 644,277 645,275 646,276 646,272 647,267 648,267 649,277 650,283 651,279 652,276 653,279 654,285 655,281 655,287 656,290 657,284 658,280 659,278 660,271 661,271 662,273 663,274 663,271 664,280 665,281 666,281 667,273 668,272 669,275 670,264 671,262 672,267 672,263 673,260 674,259 675,261 676,270 677,279 678,274 679,272 680,283 681,287 681,281 682,274 683,277 684,276 685,276 686,276 687,276 688,276 689,274 689,263 690,253 691,245 692,249 693,253 694,247 695,249 696,250 697,254 698,252 698,249 699,244 700,243 701,250 702,242 703,238 704,240 705,245 706,235 706,234 707,240 708,250 709,262 710,270 711,267 712,271 713,268 714,272 715,277 715,282 716,278 717,273 718,271 719,259 720,257 721,253 722,256 723,261 724,262 724,259 725,258 726,252 727,242 728,245 729,254 730,263 731,278 732,287 732,285 733,270 734,271 735,260 736,260 737,255 738,249 739,253 740,248 741,245 741,236 742,235 743,241 744,238 745,232 746,230 747,229 748,230 749,228 750,234 750,242 751,236 752,229 753,225 754,221 755,232 756,229 757,236 758,236 758,232 759,232 760,242 761,244 762,241 763,238 764,241 765,238 766,238 767,236 767,228 768,229 769,236 770,232 771,223 772,222 773,210 774,207 775,208 775,214 776,209 777,215 778,217 779,216 780,225 781,234 782,234 783,226 784,225 784,228 785,225 786,225 787,228 788,242 789,247 790,254 791,267 792,273 793,277 793,266 794,258 795,248 796,245 797,248 798,242 799,232 800,232 801,222 801,213 802,214 803,209 804,211 805,212 806,209 807,203 808,204 809,212 810,212 810,213 811,224 812,224 813,223 814,218 815,214 816,213 817,215 818,214 818,207 819,208 820,211 821,203 822,203 823,210 824,201 825,201 826,193 827,192 827,187 828,184 829,190 830,194 831,188 832,191 833,201 834,196 835,193 836,189 836,194 837,197 838,206 839,206 840,210 841,200 842,208 843,211 844,211 844,209 845,208 846,193 847,184 848,187 849,185 850,187 851,194 852,190 853,184 853,186 854,184 855,186 856,185 857,184 858,185 859,179 860,177 861,169 862,160 862,157 863,162 864,158 865,154 866,150 867,143 868,143 869,149 870,143 870,144 871,147 872,146 873,147 874,153 875,154 876,157 877,166 878,168 879,177 879,169 880,173 881,171 882,162 883,171 884,182 885,167 886,164 887,166 887,170 888,170 889,175 890,183 891,177 892,177 893,173 894,171 895,173 896,169 896,172 897,171 898,168 899,159 900,153 901,166 902,157 903,153 904,160 905,165 905,164 906,166 907,162 908,158 909,137 910,133 911,142 912,151 913,150 913,156 914,155 915,152 916,145 917,137 918,138 919,146 920,149 921,144 922,136 922,139 923,153 924,159 925,161 926,165 927,163 928,158 929,155 930,151 930,145 931,151 932,150 933,150 934,134 935,132 936,126 937,124 938,123 939,118 939,110 940,109 941,111 942,103 943,101 944,98 945,105 946,107 947,110 948,116 948,125 949,126 950,128 951,126 952,126 953,119 954,120 955,114 956,118 956,111 957,106 958,97 959,97 960,97 961,106 962,107 963,105 964,93 965,89 965,90 966,102 967,109 968,105 969,99 970,96 971,100 972,95 973,71 974,68 974,472 974,472 "/>
<line opacity="0.1" stroke="#000000" stroke-width="1" x1="87" y1="699" x2="87" y2="67"/>
<line opacity="0.1" stroke="#000000" stroke-width="1" x1="99" y1="699" x2="99" y2="67"/>
<line opacity="0.1" stroke="#000000" stroke-width="1" x1="111" y1="699" x2="111" y2="67"/>
<line opacity="0.1" stroke="#000000" stroke-width="1" x1="123" y1="699" x2="123" y2="67"/>
<line opacity="0.1" stroke="#000000" stroke-width="1" x1="135" y1="699" x2="135" y2="67"/>
<line opacity="0.1" stroke="#000000" stroke-width="1" x1="147" y1="699" x2="147" y2="67"/>
<line opacity="0.1" stroke="#000000" stroke-width="1" x1="159" y1="699" x2="159" y2="67"/>
<line opacity="0.1" stroke="#000000" stroke-width="1" x1="171" y1="699" x2="171" y2="67"/>
<line opacity="0.1" stroke="#000000" stroke-width="1" x1="183" y1="699" x2="183" y2="67"/>
<line opacity="0.1" stroke="#000000" stroke-width="1" x1="195" y1="699" x2="195" y2="67"/>
<line opacity="0.1" stroke="#000000" stroke-width="1" x1="207" y1="699" x2="207" y2="67"/>
<line opacity="0.1" stroke="#000000" stroke-width="1" x1="219" y1="699" x2="219" y2="67"/>
<line opacity="0.1" stroke="#000000" stroke-width="1" x1="231" y1="699" x2="231" y2="67"/>
<line opacity="0.1" stroke="#000000" stroke-width="1" x1="243" y1="699" x2="243" y2="67"/>
<line opacity="0.1" stroke="#000000" stroke-width="1" x1="255" y1="699" x2="255" y2="67"/>
<line opacity="0.1" stroke="#000000" stroke-width="1" x1="267" y1="699" x2="267" y2="67"/>
<line opacity="0.1" stroke="#000000" stroke-width="1" x1="279" y1="699" x2="279" y2="67"/>
<line opacity="0.1" stroke="#000000" stroke-width="1" x1="290" y1="699" x2="290" y2="67"/>
<line opacity="0.1" stroke="#000000" stroke-width="1" x1="302" y1="699" x2="302" y2="67"/>
<line opacity="0.1" stroke="#000000" stroke-width="1" x1="314" y1="699" x2="314" y2="67"/>
<line opacity="0.1" stroke="#000000" stroke-width="1" x1="326" y1="699" x2="326" y2="67"/>
<line opacity="0.1" stroke="#000000" stroke-width="1" x1="338" y1="699" x2="338" y2="67"/>
<line opacity="0.1" stroke="#000000" stroke-width="1" x1="350" y1="699" x2="350" y2="67"/>
<line opacity="0.1" stroke="#000000" stroke-width="1" x1="362" y1="699" x2="362" y2="67"/>
<line opacity="0.1" stroke="#000000" stroke-width="1" x1="374" y1="699" x2="374" y2="67"/>
<line opacity="0.1" stroke="#000000" stroke-width="1" x1="386" y1="699" x2="386" y2="67"/>
<line opacity="0.1" stroke="#000000" stroke-width="1" x1="398" y1="699" x2="398" y2="67"/>
<line opacity="0.1" stroke="#000000" stroke-width="1" x1="410" y1="699" x2="410" y2="67"/>
<line opacity="0.1" stroke="#000000" stroke-width="1" x1="422" y1="699" x2="422" y2="67"/>
<line opacity="0.1" stroke="#000000" stroke-width="1" x1="434" y1="699" x2="434" y2="67"/>
<line opacity="0.1" stroke="#000000" stroke-width="1" x1="446" y1="699" x2="446" y2="67"/>
<line opacity="0.1" stroke="#000000" stroke-width="1" x1="458" y1="699" x2="458" y2="67"/>
<line opacity="0.1" stroke="#000000" stroke-width="1" x1="470" y1="699" x2="470" y2="67"/>
<line opacity="0.1" stroke="#000000" stroke-width="1" x1="482" y1="699" x2="482" y2="67"/>
<line opacity="0.1" stroke="#000000" stroke-width="1" x1="494" y1="699" x2="494" y2="67"/>
<line opacity="0.1" stroke="#000000" stroke-width="1" x1="505" y1="699" x2="505" y2="67"/>
<line opacity="0.1" stroke="#000000" stroke-width="1" x1="517" y1="699" x2="517" y2="67"/>
<line opacity="0.1" stroke="#000000" stroke-width="1" x1="529" y1="699" x2="529" y2="67"/>
<line opacity="0.1" stroke="#000000" stroke-width="1" x1="541" y1="699" x2="541" y2="67"/>
<line opacity="0.1" stroke="#000000" stroke-width="1" x1="553" y1="699" x2="553" y2="67"/>
<line opacity="0.1" stroke="#000000" stroke-width="1" x1="565" y1="699" x2="565" y2="67"/>
<line opacity="0.1" stroke="#000000" stroke-width="1" x1="577" y1="699" x2="577" y2="67"/>
<line opacity="0.1" stroke="#000000" stroke-width="1" x1="589" y1="699" x2="589" y2="67"/>
<line opacity="0.1" stroke="#000000" stroke-width="1" x1="601" y1="699" x2="601" y2="67"/>
<line opacity="0.1" stroke="#000000" stroke-width="1" x1="613" y1="699" x2="613" y2="67"/>
<line opacity="0.1" stroke="#000000" stroke-width="1" x1="625" y1="699" x2="625" y2="67"/>
<line opacity="0.1" stroke="#000000" stroke-width="1" x1="637" y1="699" x2="637" y2="67"/>
<line opacity="0.1" stroke="#000000" stroke-width="1" x1="649" y1="699" x2="649" y2="67"/>
<line opacity="0.1" stroke="#000000" stroke-width="1" x1="661" y1="699" x2="661" y2="67"/>
<line opacity="0.1" stroke="#000000" stroke-width="1" x1="673" y1="699" x2="673" y2="67"/>
<line opacity="0.1" stroke="#000000" stroke-width="1" x1="685" y1="699" x2="685" y2="67"/>
<line opacity="0.1" stroke="#000000" stroke-width="1" x1="697" y1="699" x2="697" y2="67"/>
<line opacity="0.1" stroke="#000000" stroke-width="1" x1="709" y1="699" x2="709" y2="67"/>
<line opacity="0.1" stroke="#000000" stroke-width="1" x1="721" y1="699" x2="721" y2="67"/>
<line opacity="0.1" stroke="#000000" stroke-width="1" x1="732" y1="699" x2="732" y2="67"/>
<line opacity="0.1" stroke="#000000" stroke-width="1" x1="744" y1="699" x2="744" y2="67"/>
<line opacity="0.1" stroke="#000000" stroke-width="1" x1="756" y1="699" x2="756" y2="67"/>
<line opacity="0.1" stroke="#000000" stroke-width="1" x1="768" y1="699" x2="768" y2="67"/>
<line opacity="0.1" stroke="#000000" stroke-width="1" x1="780" y1="699" x2="780" y2="67"/>
<line opacity="0.1" stroke="#000000" stroke-width="1" x1="792" y1="699" x2="792" y2="67"/>
<line opacity="0.1" stroke="#000000" stroke-width="1" x1="804" y1="699" x2="804" y2="67"/>
<line opacity="0.1" stroke="#000000" stroke-width="1" x1="816" y1="699" x2="816" y2="67"/>
<line opacity="0.1" stroke="#000000" stroke-width="1" x1="828" y1="699" x2="828" y2="67"/>
<line opacity="0.1" stroke="#000000" stroke-width="1" x1="840" y1="699" x2="840" y2="67"/>
<line opacity="0.1" stroke="#000000" stroke-width="1" x1="852" y1="699" x2="852" y2="67"/>
<line opacity="0.1" stroke="#000000" stroke-width="1" x1="864" y1="699" x2="864" y2="67"/>
<line opacity="0.1" stroke="#000000" stroke-width="1" x1="876" y1="699" x2="876" y2="67"/>
<line opacity="0.1" stroke="#000000" stroke-width="1" x1="888" y1="699" x2="888" y2="67"/>
<line opacity="0.1" stroke="#000000" stroke-width="1" x1="900" y1="699" x2="900" y2="67"/>
<line opacity="0.1" stroke="#000000" stroke-width="1" x1="912" y1="699" x2="912" y2="67"/>
<line opacity="0.1" stroke="#000000" stroke-width="1" x1="924" y1="699" x2="924" y2="67"/>
<line opacity="0.1" stroke="#000000" stroke-width="1" x1="936" y1="699" x2="936" y2="67"/>
<line opacity="0.1" stroke="#000000" stroke-width="1" x1="948" y1="699" x2="948" y2="67"/>
<line opacity="0.1" stroke="#000000" stroke-width="1" x1="959" y1="699" x2="959" y2="67"/>
<line opacity="0.1" stroke="#000000" stroke-width="1" x1="971" y1="699" x2="971" y2="67"/>
<line opacity="0.1" stroke="#000000" stroke-width="1" x1="78" y1="699" x2="974" y2="699"/>
<line opacity="0.1" stroke="#000000" stroke-width="1" x1="78" y1="691" x2="974" y2="691"/>
<line opacity="0.1" stroke="#000000" stroke-width="1" x1="78" y1="684" x2="974" y2="684"/>
<line opacity="0.1" stroke="#000000" stroke-width="1" x1="78" y1="677" x2="974" y2="677"/>
<line opacity="0.1" stroke="#000000" stroke-width="1" x1="78" y1="670" x2="974" y2="670"/>
<line opacity="0.1" stroke="#000000" stroke-width="1" x1="78" y1="663" x2="974" y2="663"/>
<line opacity="0.1" stroke="#000000" stroke-width="1" x1="78" y1="656" x2="974" y2="656"/>
<line opacity="0.1" stroke="#000000" stroke-width="1" x1="78" y1="648" x2="974" y2="648"/>
<line opacity="0.1" stroke="#000000" stroke-width="1" x1="78" y1="641" x2="974" y2="641"/>
<line opacity="0.1" stroke="#000000" stroke-width="1" x1="78" y1="634" x2="974" y2="634"/>
<line opacity="0.1" stroke="#000000" stroke-width="1" x1="78" y1="627" x2="974" y2="627"/>
<line opacity="0.1" stroke="#000000" stroke-width="1" x1="78" y1="620" x2="974" y2="620"/>
<line opacity="0.1" stroke="#000000" stroke-width="1" x1="78" y1="613" x2="974" y2="613"/>
<line opacity="0.1" stroke="#000000" stroke-width="1" x1="78" y1="605" x2="974" y2="605"/>
<line opacity="0.1" stroke="#000000" stroke-width="1" x1="78" y1="598" x2="974" y2="598"/>
<line opacity="0.1" stroke="#000000" stroke-width="1" x1="78" y1="591" x2="974" y2="591"/>
<line opacity="0.1" stroke="#000000" stroke-width="1" x1="78" y1="584" x2="974" y2="584"/>
<line opacity="0.1" stroke="#000000" stroke-width="1" x1="78" y1="577" x2="974" y2="577"/>
<line opacity="0.1" stroke="#000000" stroke-width="1" x1="78" y1="570" x2="974" y2="570"/>
<line opacity="0.1" stroke="#000000" stroke-width="1" x1="78" y1="563" x2="974" y2="563"/>
<line opacity="0.1" stroke="#000000" stroke-width="1" x1="78" y1="555" x2="974" y2="555"/>
<line opacity="0.1" stroke="#000000" stroke-width="1" x1="78" y1="548" x2="974" y2="548"/>
<line opacity="0.1" stroke="#000000" stroke-width="1" x1="78" y1="541" x2="974" y2="541"/>
<line opacity="0.1" stroke="#000000" stroke-width="1" x1="78" y1="534" x2="974" y2="534"/>
<line opacity="0.1" stroke="#000000" stroke-width="1" x1="78" y1="527" x2="974" y2="527"/>
<line opacity="0.1" stroke="#000000" stroke-width="1" x1="78" y1="520" x2="974" y2="520"/>
<line opacity="0.1" stroke="#000000" stroke-width="1" x1="78" y1="512" x2="974" y2="512"/>
<line opacity="0.1" stroke="#000000" stroke-width="1" x1="78" y1="505" x2="974" y2="505"/>
<line opacity="0.1" stroke="#000000" stroke-width="1" x1="78" y1="498" x2="974" y2="498"/>
<line opacity="0.1" stroke="#000000" stroke-width="1" x1="78" y1="491" x2="974" y2="491"/>
<line opacity="0.1" stroke="#000000" stroke-width="1" x1="78" y1="484" x2="974" y2="484"/>
<line opacity="0.1" stroke="#000000" stroke-width="1" x1="78" y1="477" x2="974" y2="477"/>
<line opacity="0.1" stroke="#000000" stroke-width="1" x1="78" y1="470" x2="974" y2="470"/>
<line opacity="0.1" stroke="#000000" stroke-width="1" x1="78" y1="462" x2="974" y2="462"/>
<line opacity="0.1" stroke="#000000" stroke-width="1" x1="78" y1="455" x2="974" y2="455"/>
<line opacity="0.1" stroke="#000000" stroke-width="1" x1="78" y1="448" x2="974" y2="448"/>
<line opacity="0.1" stroke="#000000" stroke-width="1" x1="78" y1="441" x2="974" y2="441"/>
<line opacity="0.1" stroke="#000000" stroke-width="1" x1="78" y1="434" x2="974" y2="434"/>
<line opacity="0.1" stroke="#000000" stroke-width="1" x1="78" y1="427" x2="974" y2="427"/>
<line opacity="0.1" stroke="#000000" stroke-width="1" x1="78" y1="419" x2="974" y2="419"/>
<line opacity="0.1" stroke="#000000" stroke-width="1" x1="78" y1="412" x2="974" y2="412"/>
<line opacity="0.1" stroke="#000000" stroke-width="1" x1="78" y1="405" x2="974" y2="405"/>
<line opacity="0.1" stroke="#000000" stroke-width="1" x1="78" y1="398" x2="974" y2="398"/>
<line opacity="0.1" stroke="#000000" stroke-width="1" x1="78" y1="391" x2="974" y2="391"/>
<line opacity="0.1" stroke="#000000" stroke-width="1" x1="78" y1="384" x2="974" y2="384"/>
<line opacity="0.1" stroke="#000000" stroke-width="1" x1="78" y1="376" x2="974" y2="376"/>
<line opacity="0.1" stroke="#000000" stroke-width="1" x1="78" y1="369" x2="974" y2="369"/>
<line opacity="0.1" stroke="#000000" stroke-width="1" x1="78" y1="362" x2="974" y2="362"/>
<line opacity="0.1" stroke="#000000" stroke-width="1" x1="78" y1="355" x2="974" y2="355"/>
<line opacity="0.1" stroke="#000000" stroke-width="1" x1="78" y1="348" x2="974" y2="348"/>
<line opacity="0.1" stroke="#000000" stroke-width="1" x1="78" y1="341" x2="974" y2="341"/>
<line opacity="0.1" stroke="#000000" stroke-width="1" x1="78" y1="334" x2="974" y2="334"/>
<line opacity="0.1" stroke="#000000" stroke-width="1" x1="78" y1="326" x2="974" y2="326"/>
<line opacity="0.1" stroke="#000000" stroke-width="1" x1="78" y1="319" x2="974" y2="319"/>
<line opacity="0.1" stroke="#000000" stroke-width="1" x1="78" y1="312" x2="974" y2="312"/>
<line opacity="0.1" stroke="#000000" stroke-width="1" x1="78" y1="305" x2="974" y2="305"/>
<line opacity="0.1" stroke="#000000" stroke-width="1" x1="78" y1="298" x2="974" y2="298"/>
<line opacity="0.1" stroke="#000000" stroke-width="1" x1="78" y1="291" x2="974" y2="291"/>
<line opacity="0.1" stroke="#000000" stroke-width="1" x1="78" y1="283" x2="974" y2="283"/>
<line opacity="0.1" stroke="#000000" stroke-width="1" x1="78" y1="276" x2="974" y2="276"/>
<line opacity="0.1" stroke="#000000" stroke-width="1" x1="78" y1="269" x2="974" y2="269"/>
<line opacity="0.1" stroke="#000000" stroke-width="1" x1="78" y1="262" x2="974" y2="262"/>
<line opacity="0.1" stroke="#000000" stroke-width="1" x1="78" y1="255" x2="974" y2="255"/>
<line opacity="0.1" stroke="#000000" stroke-width="1" x1="78" y1="248" x2="974" y2="248"/>
<line opacity="0.1" stroke="#000000" stroke-width="1" x1="78" y1="241" x2="974" y2="241"/>
<line opacity="0.1" stroke="#000000" stroke-width="1" x1="78" y1="233" x2="974" y2="233"/>
<line opacity="0.1" stroke="#000000" stroke-width="1" x1="78" y1="226" x2="974" y2="226"/>
<line opacity="0.1" stroke="#000000" stroke-width="1" x1="78" y1="219" x2="974" y2="219"/>
<line opacity="0.1" stroke="#000000" stroke-width="1" x1="78" y1="212" x2="974" y2="212"/>
<line opacity="0.1" stroke="#000000" stroke-width="1" x1="78" y1="205" x2="974" y2="205"/>
<line opacity="0.1" stroke="#000000" stroke-width="1" x1="78" y1="198" x2="974" y2="198"/>
<line opacity="0.1" stroke="#000000" stroke-width="1" x1="78" y1="190" x2="974" y2="190"/>
<line opacity="0.1" stroke="#000000" stroke-width="1" x1="78" y1="183" x2="974" y2="183"/>
<line opacity="0.1" stroke="#000000" stroke-width="1" x1="78" y1="176" x2="974" y2="176"/>
<line opacity="0.1" stroke="#000000" stroke-width="1" x1="78" y1="169" x2="974" y2="169"/>
<line opacity="0.1" stroke="#000000" stroke-width="1" x1="78" y1="162" x2="974" y2="162"/>
<line opacity="0.1" stroke="#000000" stroke-width="1" x1="78" y1="155" x2="974" y2="155"/>
<line opacity="0.1" stroke="#000000" stroke-width="1" x1="78" y1="148" x2="974" y2="148"/>
<line opacity="0.1" stroke="#000000" stroke-width="1" x1="78" y1="140" x2="974" y2="140"/>
<line opacity="0.1" stroke="#000000" stroke-width="1" x1="78" y1="133" x2="974" y2="133"/>
<line opacity="0.1" stroke="#000000" stroke-width="1" x1="78" y1="126" x2="974" y2="126"/>
<line opacity="0.1" stroke="#000000" stroke-width="1" x1="78" y1="119" x2="974" y2="119"/>
<line opacity="0.1" stroke="#000000" stroke-width="1" x1="78" y1="112" x2="974" y2="112"/>
<line opacity="0.1" stroke="#000000" stroke-width="1" x1="78" y1="105" x2="974" y2="105"/>
<line opacity="0.1" stroke="#000000" stroke-width="1" x1="78" y1="97" x2="974" y2="97"/>
<line opacity="0.1" stroke="#000000" stroke-width="1" x1="78" y1="90" x2="974" y2="90"/>
<line opacity="0.1" stroke="#000000" stroke-width="1" x1="78" y1="83" x2="974" y2="83"/>
<line opacity="0.1" stroke="#000000" stroke-width="1" x1="78" y1="76" x2="974" y2="76"/>
<line opacity="0.1" stroke="#000000" stroke-width="1" x1="78" y1="69" x2="974" y2="69"/>
<text x="8" y="384" dy="0.76em" text-anchor="middle" font-family="sans-serif" font-size="9.67741935483871" opacity="1" fill="#000000" transform="rotate(270, 8, 384)">
Memory usage
</text>
<text x="526" y="760" dy="-0.5ex" text-anchor="middle" font-family="sans-serif" font-size="9.67741935483871" opacity="1" fill="#000000">
Time
</text>
<line opacity="0.2" stroke="#000000" stroke-width="1" x1="171" y1="699" x2="171" y2="67"/>
<line opacity="0.2" stroke="#000000" stroke-width="1" x1="290" y1="699" x2="290" y2="67"/>
<line opacity="0.2" stroke="#000000" stroke-width="1" x1="410" y1="699" x2="410" y2="67"/>
<line opacity="0.2" stroke="#000000" stroke-width="1" x1="529" y1="699" x2="529" y2="67"/>
<line opacity="0.2" stroke="#000000" stroke-width="1" x1="649" y1="699" x2="649" y2="67"/>
<line opacity="0.2" stroke="#000000" stroke-width="1" x1="768" y1="699" x2="768" y2="67"/>
<line opacity="0.2" stroke="#000000" stroke-width="1" x1="888" y1="699" x2="888" y2="67"/>
<line opacity="0.2" stroke="#000000" stroke-width="1" x1="78" y1="699" x2="974" y2="699"/>
<line opacity="0.2" stroke="#000000" stroke-width="1" x1="78" y1="627" x2="974" y2="627"/>
<line opacity="0.2" stroke="#000000" stroke-width="1" x1="78" y1="555" x2="974" y2="555"/>
<line opacity="0.2" stroke="#000000" stroke-width="1" x1="78" y1="484" x2="974" y2="484"/>
<line opacity="0.2" stroke="#000000" stroke-width="1" x1="78" y1="412" x2="974" y2="412"/>
<line opacity="0.2" stroke="#000000" stroke-width="1" x1="78" y1="341" x2="974" y2="341"/>
<line opacity="0.2" stroke="#000000" stroke-width="1" x1="78" y1="269" x2="974" y2="269"/>
<line opacity="0.2" stroke="#000000" stroke-width="1" x1="78" y1="198" x2="974" y2="198"/>
<line opacity="0.2" stroke="#000000" stroke-width="1" x1="78" y1="126" x2="974" y2="126"/>
<polyline fill="none" opacity="1" stroke="#000000" stroke-width="1" points="77,68 77,700 "/>
<text x="68" y="699" dy="0.5ex" text-anchor="end" font-family="sans-serif" font-size="9.67741935483871" opacity="1" fill="#000000">
0 KB
</text>
<polyline fill="none" opacity="1" stroke="#000000" stroke-width="1" points="72,699 77,699 "/>
<text x="68" y="627" dy="0.5ex" text-anchor="end" font-family="sans-serif" font-size="9.67741935483871" opacity="1" fill="#000000">
97 KB
</text>
<polyline fill="none" opacity="1" stroke="#000000" stroke-width="1" points="72,627 77,627 "/>
<text x="68" y="555" dy="0.5ex" text-anchor="end" font-family="sans-serif" font-size="9.67741935483871" opacity="1" fill="#000000">
195 KB
</text>
<polyline fill="none" opacity="1" stroke="#000000" stroke-width="1" points="72,555 77,555 "/>
<text x="68" y="484" dy="0.5ex" text-anchor="end" font-family="sans-serif" font-size="9.67741935483871" opacity="1" fill="#000000">
292 KB
</text>
<polyline fill="none" opacity="1" stroke="#000000" stroke-width="1" points="72,484 77,484 "/>
<text x="68" y="412" dy="0.5ex" text-anchor="end" font-family="sans-serif" font-size="9.67741935483871" opacity="1" fill="#000000">
390 KB
</text>
<polyline fill="none" opacity="1" stroke="#000000" stroke-width="1" points="72,412 77,412 "/>
<text x="68" y="341" dy="0.5ex" text-anchor="end" font-family="sans-serif" font-size="9.67741935483871" opacity="1" fill="#000000">
488 KB
</text>
<polyline fill="none" opacity="1" stroke="#000000" stroke-width="1" points="72,341 77,341 "/>
<text x="68" y="269" dy="0.5ex" text-anchor="end" font-family="sans-serif" font-size="9.67741935483871" opacity="1" fill="#000000">
585 KB
</text>
<polyline fill="none" opacity="1" stroke="#000000" stroke-width="1" points="72,269 77,269 "/>
<text x="68" y="198" dy="0.5ex" text-anchor="end" font-family="sans-serif" font-size="9.67741935483871" opacity="1" fill="#000000">
683 KB
</text>
<polyline fill="none" opacity="1" stroke="#000000" stroke-width="1" points="72,198 77,198 "/>
<text x="68" y="126" dy="0.5ex" text-anchor="end" font-family="sans-serif" font-size="9.67741935483871" opacity="1" fill="#000000">
781 KB
</text>
<polyline fill="none" opacity="1" stroke="#000000" stroke-width="1" points="72,126 77,126 "/>
<polyline fill="none" opacity="1" stroke="#000000" stroke-width="1" points="78,700 974,700 "/>
<text x="171" y="710" dy="0.76em" text-anchor="middle" font-family="sans-serif" font-size="9.67741935483871" opacity="1" fill="#000000">
06:26:10
</text>
<polyline fill="none" opacity="1" stroke="#000000" stroke-width="1" points="171,700 171,705 "/>
<text x="290" y="710" dy="0.76em" text-anchor="middle" font-family="sans-serif" font-size="9.67741935483871" opacity="1" fill="#000000">
06:26:11
</text>
<polyline fill="none" opacity="1" stroke="#000000" stroke-width="1" points="290,700 290,705 "/>
<text x="410" y="710" dy="0.76em" text-anchor="middle" font-family="sans-serif" font-size="9.67741935483871" opacity="1" fill="#000000">
06:26:12
</text>
<polyline fill="none" opacity="1" stroke="#000000" stroke-width="1" points="410,700 410,705 "/>
<text x="529" y="710" dy="0.76em" text-anchor="middle" font-family="sans-serif" font-size="9.67741935483871" opacity="1" fill="#000000">
06:26:13
</text>
<polyline fill="none" opacity="1" stroke="#000000" stroke-width="1" points="529,700 529,705 "/>
<text x="649" y="710" dy="0.76em" text-anchor="middle" font-family="sans-serif" font-size="9.67741935483871" opacity="1" fill="#000000">
06:26:14
</text>
<polyline fill="none" opacity="1" stroke="#000000" stroke-width="1" points="649,700 649,705 "/>
<text x="768" y="710" dy="0.76em" text-anchor="middle" font-family="sans-serif" font-size="9.67741935483871" opacity="1" fill="#000000">
06:26:15
</text>
<polyline fill="none" opacity="1" stroke="#000000" stroke-width="1" points="768,700 768,705 "/>
<text x="888" y="710" dy="0.76em" text-anchor="middle" font-family="sans-serif" font-size="9.67741935483871" opacity="1" fill="#000000">
06:26:16
</text>
<polyline fill="none" opacity="1" stroke="#000000" stroke-width="1" points="888,700 888,705 "/>
<polyline fill="none" opacity="1" stroke="#000000" stroke-width="1" points="78,67 974,67 "/>
<text x="171" y="58" dy="-0.5ex" text-anchor="middle" font-family="sans-serif" font-size="9.67741935483871" opacity="1" fill="#000000">
+782ms
</text>
<polyline fill="none" opacity="1" stroke="#000000" stroke-width="1" points="171,62 171,67 "/>
<text x="290" y="58" dy="-0.5ex" text-anchor="middle" font-family="sans-serif" font-size="9.67741935483871" opacity="1" fill="#000000">
+1s
</text>
<polyline fill="none" opacity="1" stroke="#000000" stroke-width="1" points="290,62 290,67 "/>
<text x="410" y="58" dy="-0.5ex" text-anchor="middle" font-family="sans-serif" font-size="9.67741935483871" opacity="1" fill="#000000">
+2s
</text>
<polyline fill="none" opacity="1" stroke="#000000" stroke-width="1" points="410,62 410,67 "/>
<text x="529" y="58" dy="-0.5ex" text-anchor="middle" font-family="sans-serif" font-size="9.67741935483871" opacity="1" fill="#000000">
+3s
</text>
<polyline fill="none" opacity="1" stroke="#000000" stroke-width="1" points="529,62 529,67 "/>
<text x="649" y="58" dy="-0.5ex" text-anchor="middle" font-family="sans-serif" font-size="9.67741935483871" opacity="1" fill="#000000">
+4s
</text>
<polyline fill="none" opacity="1" stroke="#000000" stroke-width="1" points="649,62 649,67 "/>
<text x="768" y="58" dy="-0.5ex" text-anchor="middle" font-family="sans-serif" font-size="9.67741935483871" opacity="1" fill="#000000">
+5s
</text>
<polyline fill="none" opacity="1" stroke="#000000" stroke-width="1" points="768,62 768,67 "/>
<text x="888" y="58" dy="-0.5ex" text-anchor="middle" font-family="sans-serif" font-size="9.67741935483871" opacity="1" fill="#000000">
+6s
</text>
<polyline fill="none" opacity="1" stroke="#000000" stroke-width="1" points="888,62 888,67 "/>
</svg>
