<svg width="1024" height="768" viewBox="0 0 1024 768" xmlns="http://www.w3.org/2000/svg">
<rect x="0" y="0" width="1023" height="767" opacity="1" fill="#FFFFFF" stroke="none"/>
<polygon opacity="1" fill="#E6194B" points="78,671 78,669 79,660 79,605 80,605 81,619 81,605 82,599 82,573 83,584 84,603 84,611 85,596 86,606 86,614 87,638 87,635 88,649 89,642 89,656 90,658 90,660 91,647 92,651 92,679 93,661 94,654 94,653 95,646 95,648 96,651 97,655 97,634 98,623 98,611 99,590 100,584 100,597 101,608 102,617 102,640 103,617 103,619 104,586 105,575 105,540 106,523 107,561 107,587 108,598 108,609 109,612 110,608 110,602 111,575 111,556 112,541 113,529 113,530 114,530 115,526 115,529 116,560 116,561 117,553 118,539 118,529 119,523 119,531 120,542 121,519 121,500 122,480 123,473 123,466 124,472 124,468 125,440 126,437 126,416 127,408 128,414 128,394 129,367 129,356 130,347 131,348 131,312 132,297 132,293 133,297 134,325 134,311 135,304 136,288 136,298 137,314 137,299 138,286 139,272 139,266 140,260 140,252 141,282 142,293 142,288 143,261 144,245 144,248 145,241 145,237 146,212 147,209 147,187 148,202 149,204 149,213 150,230 150,236 151,231 152,244 152,231 153,195 153,181 154,183 155,184 155,190 156,192 157,186 157,195 158,176 158,173 159,162 160,179 160,186 161,222 161,229 162,226 163,227 163,192 164,176 165,183 165,170 166,169 166,188 167,191 168,171 168,172 169,186 170,184 170,179 171,167 171,152 172,161 173,145 173,133 174,146 174,150 175,167 176,152 176,134 177,136 178,131 178,134 179,138 179,141 180,145 181,161 181,172 182,188 182,213 183,215 184,213 184,186 185,180 186,166 186,138 187,164 187,216 188,234 189,245 189,210 190,212 190,244 191,242 192,227 192,239 193,233 194,217 194,178 195,166 195,166 196,187 197,181 197,180 198,180 199,196 199,200 200,211 200,228 201,236 202,224 202,211 203,220 203,207 204,203 205,209 205,220 206,236 207,233 207,217 208,235 208,247 209,237 210,234 210,243 211,246 211,247 212,239 213,217 213,224 214,209 215,185 215,189 216,204 216,230 217,215 218,212 218,240 219,229 220,233 220,284 221,251 221,246 222,266 223,259 223,245 224,253 224,262 225,258 226,253 226,239 227,218 228,209 228,216 229,237 229,233 230,229 231,264 231,233 232,200 232,199 233,198 234,218 234,214 235,214 236,229 236,239 237,232 237,196 238,185 239,184 239,218 240,200 241,190 241,192 242,209 242,207 243,206 244,193 244,183 245,174 245,164 246,171 247,175 247,182 248,173 249,157 249,158 250,166 250,170 251,169 252,182 252,199 253,190 253,179 254,194 255,184 255,155 256,156 257,158 257,151 258,152 258,171 259,181 260,180 260,161 261,172 262,171 262,184 263,202 263,188 264,191 265,225 265,230 266,240 266,230 267,207 268,208 268,202 269,200 270,180 270,165 271,167 271,181 272,184 273,189 273,192 274,172 274,151 275,170 276,175 276,177 277,175 278,215 278,217 279,208 279,212 280,236 281,227 281,235 282,246 282,250 283,254 284,237 284,239 285,234 286,223 286,205 287,210 287,222 288,211 289,226 289,217 290,221 291,224 291,221 292,192 292,175 293,167 294,152 294,159 295,143 295,139 296,126 297,137 297,153 298,145 299,136 299,130 300,93 300,89 301,68 302,68 302,99 303,111 303,124 304,123 305,127 305,127 306,130 307,139 307,110 308,128 308,121 309,101 310,86 310,99 311,122 312,119 312,139 313,140 313,112 314,108 315,112 315,130 316,141 316,141 317,155 318,158 318,161 319,179 320,185 320,200 321,208 321,249 322,253 323,223 323,222 324,230 324,236 325,283 326,449 326,524 327,569 328,603 328,622 329,635 329,647 330,649 331,649 331,649 332,649 333,649 333,649 334,649 334,649 335,649 336,649 336,649 337,649 337,651 338,651 339,651 339,651 340,651 341,651 341,651 342,651 342,651 343,651 344,651 344,651 345,651 345,651 346,651 347,651 347,651 348,651 349,651 349,651 350,651 350,651 351,651 352,651 352,651 353,651 354,651 354,651 355,674 355,674 356,674 357,674 357,674 358,674 358,674 359,674 360,674 360,674 361,674 362,674 362,674 363,674 363,674 364,674 365,674 365,674 366,674 366,674 367,674 368,674 368,674 369,674 370,674 370,674 371,674 371,674 372,674 373,674 373,674 374,674 375,674 375,674 376,674 376,674 377,674 378,674 378,674 379,674 379,674 380,674 381,674 381,674 382,674 383,674 383,674 384,674 384,674 385,674 386,674 386,674 387,674 387,674 388,674 389,674 389,674 390,674 391,674 391,674 392,674 392,674 393,674 394,674 394,674 395,674 395,674 396,674 397,674 397,674 398,674 399,674 399,674 400,674 400,674 401,674 402,674 402,674 403,674 404,674 404,674 405,674 405,674 406,674 407,674 407,674 408,674 408,674 409,674 410,674 410,679 411,679 412,679 412,679 413,679 413,679 414,679 415,679 415,679 416,679 416,679 417,679 418,679 418,679 419,679 420,679 420,679 421,679 421,679 422,679 423,679 423,679 424,679 425,679 425,679 426,679 426,679 427,679 428,679 428,679 429,679 429,679 430,679 431,679 431,679 432,679 433,679 433,679 434,679 434,679 435,679 436,679 436,679 437,679 437,679 438,679 439,679 439,679 440,679 441,679 441,679 442,679 442,679 443,679 444,679 444,679 445,679 446,679 446,679 447,679 447,679 448,679 449,679 449,679 450,679 450,679 451,679 452,679 452,679 453,679 454,679 454,679 455,679 455,679 456,679 457,679 457,679 458,679 458,679 459,679 460,679 460,679 461,679 462,679 462,679 463,679 463,679 464,679 465,679 465,679 466,679 467,679 467,679 468,679 468,679 469,679 470,679 470,679 471,679 471,679 472,679 473,679 473,679 474,679 475,679 475,679 476,679 476,679 477,679 478,679 478,679 479,679 479,679 480,679 481,679 481,679 482,679 483,679 483,679 484,679 484,679 485,679 486,679 486,679 487,679 487,679 488,679 489,679 489,679 490,679 491,679 491,679 492,679 492,679 493,679 494,679 494,679 495,679 496,679 496,679 497,679 497,679 498,679 499,679 499,679 500,679 500,679 501,679 502,679 502,679 503,679 504,679 504,679 505,679 505,679 506,679 507,679 507,679 508,679 508,679 509,679 510,679 510,679 511,680 512,680 512,680 513,680 513,680 514,680 515,680 515,680 516,680 517,680 517,680 518,680 518,680 519,680 520,680 520,680 521,680 521,681 522,681 523,681 523,681 524,681 525,681 525,682 526,682 526,682 527,682 528,682 528,682 529,682 529,682 530,682 531,682 531,682 532,682 533,682 533,682 534,682 534,682 535,682 536,682 536,682 537,683 538,683 538,683 539,683 539,683 540,683 541,683 541,683 542,683 542,683 543,683 544,683 544,683 545,683 546,684 546,684 547,684 547,684 548,684 549,684 549,684 550,684 550,684 551,684 552,684 552,684 553,684 554,684 554,685 555,685 555,685 556,685 557,685 557,685 558,685 559,685 559,685 560,685 560,686 561,686 562,686 562,686 563,686 563,686 564,686 565,686 565,686 566,686 567,686 567,686 568,687 568,687 569,687 570,687 570,687 571,687 571,687 572,687 573,687 573,687 574,687 575,687 575,687 576,687 576,687 577,687 578,687 578,687 579,688 580,688 580,688 581,688 581,688 582,688 583,688 583,688 584,688 584,688 585,688 586,688 586,688 587,688 588,688 588,688 589,688 589,688 590,688 591,688 591,689 592,689 592,689 593,689 594,689 594,689 595,689 596,689 596,690 597,690 597,690 598,690 599,690 599,690 600,690 600,690 601,690 602,690 602,690 603,690 604,690 604,690 605,690 605,690 606,690 607,690 607,690 608,690 609,690 609,690 610,690 610,690 611,690 612,690 612,690 613,690 613,690 614,691 615,691 615,691 616,691 617,691 617,691 618,691 618,691 619,691 620,691 620,691 621,691 621,691 622,691 623,691 623,691 624,691 625,691 625,691 626,692 626,692 627,692 628,692 628,692 629,692 630,692 630,692 631,693 631,693 632,693 633,693 633,693 634,693 634,693 635,693 636,693 636,693 637,693 638,693 638,693 639,693 639,693 640,693 641,693 641,693 642,693 642,693 643,694 644,694 644,694 645,694 646,694 646,694 647,694 647,694 648,694 649,694 649,694 650,694 651,694 651,694 652,694 652,694 653,694 654,694 654,694 655,694 655,694 656,694 657,695 657,695 658,695 659,695 659,695 660,695 660,695 661,695 662,695 662,695 663,695 663,695 664,695 665,695 665,695 666,695 667,695 667,695 668,696 668,696 669,696 670,696 670,696 671,696 672,696 672,696 673,696 673,696 674,696 675,696 675,696 676,696 676,696 677,696 678,697 678,697 679,697 680,697 680,697 681,697 681,697 682,697 683,697 683,697 684,697 684,697 685,697 686,697 686,697 687,697 688,698 688,698 689,698 689,698 690,698 691,698 691,698 692,698 692,698 693,698 694,698 694,698 695,699 695,699 974,699 974,699 78,699 "/>
<polyline fill="none" opacity="1" stroke="#E6194B" stroke-width="1" points="78,671 78,669 79,660 79,605 80,605 81,619 81,605 82,599 82,573 83,584 84,603 84,611 85,596 86,606 86,614 87,638 87,635 88,649 89,642 89,656 90,658 90,660 91,647 92,651 92,679 93,661 94,654 94,653 95,646 95,648 96,651 97,655 97,634 98,623 98,611 99,590 100,584 100,597 101,608 102,617 102,640 103,617 103,619 104,586 105,575 105,540 106,523 107,561 107,587 108,598 108,609 109,612 110,608 110,602 111,575 111,556 112,541 113,529 113,530 114,530 115,526 115,529 116,560 116,561 117,553 118,539 118,529 119,523 119,531 120,542 121,519 121,500 122,480 123,473 123,466 124,472 124,468 125,440 126,437 126,416 127,408 128,414 128,394 129,367 129,356 130,347 131,348 131,312 132,297 132,293 133,297 134,325 134,311 135,304 136,288 136,298 137,314 137,299 138,286 139,272 139,266 140,260 140,252 141,282 142,293 142,288 143,261 144,245 144,248 145,241 145,237 146,212 147,209 147,187 148,202 149,204 149,213 150,230 150,236 151,231 152,244 152,231 153,195 153,181 154,183 155,184 155,190 156,192 157,186 157,195 158,176 158,173 159,162 160,179 160,186 161,222 161,229 162,226 163,227 163,192 164,176 165,183 165,170 166,169 166,188 167,191 168,171 168,172 169,186 170,184 170,179 171,167 171,152 172,161 173,145 173,133 174,146 174,150 175,167 176,152 176,134 177,136 178,131 178,134 179,138 179,141 180,145 181,161 181,172 182,188 182,213 183,215 184,213 184,186 185,180 186,166 186,138 187,164 187,216 188,234 189,245 189,210 190,212 190,244 191,242 192,227 192,239 193,233 194,217 194,178 195,166 195,166 196,187 197,181 197,180 198,180 199,196 199,200 200,211 200,228 201,236 202,224 202,211 203,220 203,207 204,203 205,209 205,220 206,236 207,233 207,217 208,235 208,247 209,237 210,234 210,243 211,246 211,247 212,239 213,217 213,224 214,209 215,185 215,189 216,204 216,230 217,215 218,212 218,240 219,229 220,233 220,284 221,251 221,246 222,266 223,259 223,245 224,253 224,262 225,258 226,253 226,239 227,218 228,209 228,216 229,237 229,233 230,229 231,264 231,233 232,200 232,199 233,198 234,218 234,214 235,214 236,229 236,239 237,232 237,196 238,185 239,184 239,218 240,200 241,190 241,192 242,209 242,207 243,206 244,193 244,183 245,174 245,164 246,171 247,175 247,182 248,173 249,157 249,158 250,166 250,170 251,169 252,182 252,199 253,190 253,179 254,194 255,184 255,155 256,156 257,158 257,151 258,152 258,171 259,181 260,180 260,161 261,172 262,171 262,184 263,202 263,188 264,191 265,225 265,230 266,240 266,230 267,207 268,208 268,202 269,200 270,180 270,165 271,167 271,181 272,184 273,189 273,192 274,172 274,151 275,170 276,175 276,177 277,175 278,215 278,217 279,208 279,212 280,236 281,227 281,235 282,246 282,250 283,254 284,237 284,239 285,234 286,223 286,205 287,210 287,222 288,211 289,226 289,217 290,221 291,224 291,221 292,192 292,175 293,167 294,152 294,159 295,143 295,139 296,126 297,137 297,153 298,145 299,136 299,130 300,93 300,89 301,68 302,68 302,99 303,111 303,124 304,123 305,127 305,127 306,130 307,139 307,110 308,128 308,121 309,101 310,86 310,99 311,122 312,119 312,139 313,140 313,112 314,108 315,112 315,130 316,141 316,141 317,155 318,158 318,161 319,179 320,185 320,200 321,208 321,249 322,253 323,223 323,222 324,230 324,236 325,283 326,449 326,524 327,569 328,603 328,622 329,635 329,647 330,649 331,649 331,649 332,649 333,649 333,649 334,649 334,649 335,649 336,649 336,649 337,649 337,651 338,651 339,651 339,651 340,651 341,651 341,651 342,651 342,651 343,651 344,651 344,651 345,651 345,651 346,651 347,651 347,651 348,651 349,651 349,651 350,651 350,651 351,651 352,651 352,651 353,651 354,651 354,651 355,674 355,674 356,674 357,674 357,674 358,674 358,674 359,674 360,674 360,674 361,674 362,674 362,674 363,674 363,674 364,674 365,674 365,674 366,674 366,674 367,674 368,674 368,674 369,674 370,674 370,674 371,674 371,674 372,674 373,674 373,674 374,674 375,674 375,674 376,674 376,674 377,674 378,674 378,674 379,674 379,674 380,674 381,674 381,674 382,674 383,674 383,674 384,674 384,674 385,674 386,674 386,674 387,674 387,674 388,674 389,674 389,674 390,674 391,674 391,674 392,674 392,674 393,674 394,674 394,674 395,674 395,674 396,674 397,674 397,674 398,674 399,674 399,674 400,674 400,674 401,674 402,674 402,674 403,674 404,674 404,674 405,674 405,674 406,674 407,674 407,674 408,674 408,674 409,674 410,674 410,679 411,679 412,679 412,679 413,679 413,679 414,679 415,679 415,679 416,679 416,679 417,679 418,679 418,679 419,679 420,679 420,679 421,679 421,679 422,679 423,679 423,679 424,679 425,679 425,679 426,679 426,679 427,679 428,679 428,679 429,679 429,679 430,679 431,679 431,679 432,679 433,679 433,679 434,679 434,679 435,679 436,679 436,679 437,679 437,679 438,679 439,679 439,679 440,679 441,679 441,679 442,679 442,679 443,679 444,679 444,679 445,679 446,679 446,679 447,679 447,679 448,679 449,679 449,679 450,679 450,679 451,679 452,679 452,679 453,679 454,679 454,679 455,679 455,679 456,679 457,679 457,679 458,679 458,679 459,679 460,679 460,679 461,679 462,679 462,679 463,679 463,679 464,679 465,679 465,679 466,679 467,679 467,679 468,679 468,679 469,679 470,679 470,679 471,679 471,679 472,679 473,679 473,679 474,679 475,679 475,679 476,679 476,679 477,679 478,679 478,679 479,679 479,679 480,679 481,679 481,679 482,679 483,679 483,679 484,679 484,679 485,679 486,679 486,679 487,679 487,679 488,679 489,679 489,679 490,679 491,679 491,679 492,679 492,679 493,679 494,679 494,679 495,679 496,679 496,679 497,679 497,679 498,679 499,679 499,679 500,679 500,679 501,679 502,679 502,679 503,679 504,679 504,679 505,679 505,679 506,679 507,679 507,679 508,679 508,679 509,679 510,679 510,679 511,680 512,680 512,680 513,680 513,680 514,680 515,680 515,680 516,680 517,680 517,680 518,680 518,680 519,680 520,680 520,680 521,680 521,681 522,681 523,681 523,681 524,681 525,681 525,682 526,682 526,682 527,682 528,682 528,682 529,682 529,682 530,682 531,682 531,682 532,682 533,682 533,682 534,682 534,682 535,682 536,682 536,682 537,683 538,683 538,683 539,683 539,683 540,683 541,683 541,683 542,683 542,683 543,683 544,683 544,683 545,683 546,684 546,684 547,684 547,684 548,684 549,684 549,684 550,684 550,684 551,684 552,684 552,684 553,684 554,684 554,685 555,685 555,685 556,685 557,685 557,685 558,685 559,685 559,685 560,685 560,686 561,686 562,686 562,686 563,686 563,686 564,686 565,686 565,686 566,686 567,686 567,686 568,687 568,687 569,687 570,687 570,687 571,687 571,687 572,687 573,687 573,687 574,687 575,687 575,687 576,687 576,687 577,687 578,687 578,687 579,688 580,688 580,688 581,688 581,688 582,688 583,688 583,688 584,688 584,688 585,688 586,688 586,688 587,688 588,688 588,688 589,688 589,688 590,688 591,688 591,689 592,689 592,689 593,689 594,689 594,689 595,689 596,689 596,690 597,690 597,690 598,690 599,690 599,690 600,690 600,690 601,690 602,690 602,690 603,690 604,690 604,690 605,690 605,690 606,690 607,690 607,690 608,690 609,690 609,690 610,690 610,690 611,690 612,690 612,690 613,690 613,690 614,691 615,691 615,691 616,691 617,691 617,691 618,691 618,691 619,691 620,691 620,691 621,691 621,691 622,691 623,691 623,691 624,691 625,691 625,691 626,692 626,692 627,692 628,692 628,692 629,692 630,692 630,692 631,693 631,693 632,693 633,693 633,693 634,693 634,693 635,693 636,693 636,693 637,693 638,693 638,693 639,693 639,693 640,693 641,693 641,693 642,693 642,693 643,694 644,694 644,694 645,694 646,694 646,694 647,694 647,694 648,694 649,694 649,694 650,694 651,694 651,694 652,694 652,694 653,694 654,694 654,694 655,694 655,694 656,694 657,695 657,695 658,695 659,695 659,695 660,695 660,695 661,695 662,695 662,695 663,695 663,695 664,695 665,695 665,695 666,695 667,695 667,695 668,696 668,696 669,696 670,696 670,696 671,696 672,696 672,696 673,696 673,696 674,696 675,696 675,696 676,696 676,696 677,696 678,697 678,697 679,697 680,697 680,697 681,697 681,697 682,697 683,697 683,697 684,697 684,697 685,697 686,697 686,697 687,697 688,698 688,698 689,698 689,698 690,698 691,698 691,698 692,698 692,698 693,698 694,698 694,698 695,699 695,699 974,699 "/>
<line opacity="0.1" stroke="#000000" stroke-width="1" x1="83" y1="699" x2="83" y2="67"/>
<line opacity="0.1" stroke="#000000" stroke-width="1" x1="92" y1="699" x2="92" y2="67"/>
<line opacity="0.1" stroke="#000000" stroke-width="1" x1="101" y1="699" x2="101" y2="67"/>
<line opacity="0.1" stroke="#000000" stroke-width="1" x1="110" y1="699" x2="110" y2="67"/>
<line opacity="0.1" stroke="#000000" stroke-width="1" x1="120" y1="699" x2="120" y2="67"/>
<line opacity="0.1" stroke="#000000" stroke-width="1" x1="129" y1="699" x2="129" y2="67"/>
<line opacity="0.1" stroke="#000000" stroke-width="1" x1="138" y1="699" x2="138" y2="67"/>
<line opacity="0.1" stroke="#000000" stroke-width="1" x1="147" y1="699" x2="147" y2="67"/>
<line opacity="0.1" stroke="#000000" stroke-width="1" x1="157" y1="699" x2="157" y2="67"/>
<line opacity="0.1" stroke="#000000" stroke-width="1" x1="166" y1="699" x2="166" y2="67"/>
<line opacity="0.1" stroke="#000000" stroke-width="1" x1="175" y1="699" x2="175" y2="67"/>
<line opacity="0.1" stroke="#000000" stroke-width="1" x1="184" y1="699" x2="184" y2="67"/>
<line opacity="0.1" stroke="#000000" stroke-width="1" x1="194" y1="699" x2="194" y2="67"/>
<line opacity="0.1" stroke="#000000" stroke-width="1" x1="203" y1="699" x2="203" y2="67"/>
<line opacity="0.1" stroke="#000000" stroke-width="1" x1="212" y1="699" x2="212" y2="67"/>
<line opacity="0.1" stroke="#000000" stroke-width="1" x1="221" y1="699" x2="221" y2="67"/>
<line opacity="0.1" stroke="#000000" stroke-width="1" x1="231" y1="699" x2="231" y2="67"/>
<line opacity="0.1" stroke="#000000" stroke-width="1" x1="240" y1="699" x2="240" y2="67"/>
<line opacity="0.1" stroke="#000000" stroke-width="1" x1="249" y1="699" x2="249" y2="67"/>
<line opacity="0.1" stroke="#000000" stroke-width="1" x1="259" y1="699" x2="259" y2="67"/>
<line opacity="0.1" stroke="#000000" stroke-width="1" x1="268" y1="699" x2="268" y2="67"/>
<line opacity="0.1" stroke="#000000" stroke-width="1" x1="277" y1="699" x2="277" y2="67"/>
<line opacity="0.1" stroke="#000000" stroke-width="1" x1="286" y1="699" x2="286" y2="67"/>
<line opacity="0.1" stroke="#000000" stroke-width="1" x1="296" y1="699" x2="296" y2="67"/>
<line opacity="0.1" stroke="#000000" stroke-width="1" x1="305" y1="699" x2="305" y2="67"/>
<line opacity="0.1" stroke="#000000" stroke-width="1" x1="314" y1="699" x2="314" y2="67"/>
<line opacity="0.1" stroke="#000000" stroke-width="1" x1="323" y1="699" x2="323" y2="67"/>
<line opacity="0.1" stroke="#000000" stroke-width="1" x1="333" y1="699" x2="333" y2="67"/>
<line opacity="0.1" stroke="#000000" stroke-width="1" x1="342" y1="699" x2="342" y2="67"/>
<line opacity="0.1" stroke="#000000" stroke-width="1" x1="351" y1="699" x2="351" y2="67"/>
<line opacity="0.1" stroke="#000000" stroke-width="1" x1="360" y1="699" x2="360" y2="67"/>
<line opacity="0.1" stroke="#000000" stroke-width="1" x1="370" y1="699" x2="370" y2="67"/>
<line opacity="0.1" stroke="#000000" stroke-width="1" x1="379" y1="699" x2="379" y2="67"/>
<line opacity="0.1" stroke="#000000" stroke-width="1" x1="388" y1="699" x2="388" y2="67"/>
<line opacity="0.1" stroke="#000000" stroke-width="1" x1="397" y1="699" x2="397" y2="67"/>
<line opacity="0.1" stroke="#000000" stroke-width="1" x1="407" y1="699" x2="407" y2="67"/>
<line opacity="0.1" stroke="#000000" stroke-width="1" x1="416" y1="699" x2="416" y2="67"/>
<line opacity="0.1" stroke="#000000" stroke-width="1" x1="425" y1="699" x2="425" y2="67"/>
<line opacity="0.1" stroke="#000000" stroke-width="1" x1="434" y1="699" x2="434" y2="67"/>
<line opacity="0.1" stroke="#000000" stroke-width="1" x1="444" y1="699" x2="444" y2="67"/>
<line opacity="0.1" stroke="#000000" stroke-width="1" x1="453" y1="699" x2="453" y2="67"/>
<line opacity="0.1" stroke="#000000" stroke-width="1" x1="462" y1="699" x2="462" y2="67"/>
<line opacity="0.1" stroke="#000000" stroke-width="1" x1="472" y1="699" x2="472" y2="67"/>
<line opacity="0.1" stroke="#000000" stroke-width="1" x1="481" y1="699" x2="481" y2="67"/>
<line opacity="0.1" stroke="#000000" stroke-width="1" x1="490" y1="699" x2="490" y2="67"/>
<line opacity="0.1" stroke="#000000" stroke-width="1" x1="499" y1="699" x2="499" y2="67"/>
<line opacity="0.1" stroke="#000000" stroke-width="1" x1="509" y1="699" x2="509" y2="67"/>
<line opacity="0.1" stroke="#000000" stroke-width="1" x1="518" y1="699" x2="518" y2="67"/>
<line opacity="0.1" stroke="#000000" stroke-width="1" x1="527" y1="699" x2="527" y2="67"/>
<line opacity="0.1" stroke="#000000" stroke-width="1" x1="536" y1="699" x2="536" y2="67"/>
<line opacity="0.1" stroke="#000000" stroke-width="1" x1="546" y1="699" x2="546" y2="67"/>
<line opacity="0.1" stroke="#000000" stroke-width="1" x1="555" y1="699" x2="555" y2="67"/>
<line opacity="0.1" stroke="#000000" stroke-width="1" x1="564" y1="699" x2="564" y2="67"/>
<line opacity="0.1" stroke="#000000" stroke-width="1" x1="573" y1="699" x2="573" y2="67"/>
<line opacity="0.1" stroke="#000000" stroke-width="1" x1="583" y1="699" x2="583" y2="67"/>
<line opacity="0.1" stroke="#000000" stroke-width="1" x1="592" y1="699" x2="592" y2="67"/>
<line opacity="0.1" stroke="#000000" stroke-width="1" x1="601" y1="699" x2="601" y2="67"/>
<line opacity="0.1" stroke="#000000" stroke-width="1" x1="610" y1="699" x2="610" y2="67"/>
<line opacity="0.1" stroke="#000000" stroke-width="1" x1="620" y1="699" x2="620" y2="67"/>
<line opacity="0.1" stroke="#000000" stroke-width="1" x1="629" y1="699" x2="629" y2="67"/>
<line opacity="0.1" stroke="#000000" stroke-width="1" x1="638" y1="699" x2="638" y2="67"/>
<line opacity="0.1" stroke="#000000" stroke-width="1" x1="648" y1="699" x2="648" y2="67"/>
<line opacity="0.1" stroke="#000000" stroke-width="1" x1="657" y1="699" x2="657" y2="67"/>
<line opacity="0.1" stroke="#000000" stroke-width="1" x1="666" y1="699" x2="666" y2="67"/>
<line opacity="0.1" stroke="#000000" stroke-width="1" x1="675" y1="699" x2="675" y2="67"/>
<line opacity="0.1" stroke="#000000" stroke-width="1" x1="685" y1="699" x2="685" y2="67"/>
<line opacity="0.1" stroke="#000000" stroke-width="1" x1="694" y1="699" x2="694" y2="67"/>
<line opacity="0.1" stroke="#000000" stroke-width="1" x1="703" y1="699" x2="703" y2="67"/>
<line opacity="0.1" stroke="#000000" stroke-width="1" x1="712" y1="699" x2="712" y2="67"/>
<line opacity="0.1" stroke="#000000" stroke-width="1" x1="722" y1="699" x2="722" y2="67"/>
<line opacity="0.1" stroke="#000000" stroke-width="1" x1="731" y1="699" x2="731" y2="67"/>
<line opacity="0.1" stroke="#000000" stroke-width="1" x1="740" y1="699" x2="740" y2="67"/>
<line opacity="0.1" stroke="#000000" stroke-width="1" x1="749" y1="699" x2="749" y2="67"/>
<line opacity="0.1" stroke="#000000" stroke-width="1" x1="759" y1="699" x2="759" y2="67"/>
<line opacity="0.1" stroke="#000000" stroke-width="1" x1="768" y1="699" x2="768" y2="67"/>
<line opacity="0.1" stroke="#000000" stroke-width="1" x1="777" y1="699" x2="777" y2="67"/>
<line opacity="0.1" stroke="#000000" stroke-width="1" x1="786" y1="699" x2="786" y2="67"/>
<line opacity="0.1" stroke="#000000" stroke-width="1" x1="796" y1="699" x2="796" y2="67"/>
<line opacity="0.1" stroke="#000000" stroke-width="1" x1="805" y1="699" x2="805" y2="67"/>
<line opacity="0.1" stroke="#000000" stroke-width="1" x1="814" y1="699" x2="814" y2="67"/>
<line opacity="0.1" stroke="#000000" stroke-width="1" x1="823" y1="699" x2="823" y2="67"/>
<line opacity="0.1" stroke="#000000" stroke-width="1" x1="833" y1="699" x2="833" y2="67"/>
<line opacity="0.1" stroke="#000000" stroke-width="1" x1="842" y1="699" x2="842" y2="67"/>
<line opacity="0.1" stroke="#000000" stroke-width="1" x1="851" y1="699" x2="851" y2="67"/>
<line opacity="0.1" stroke="#000000" stroke-width="1" x1="861" y1="699" x2="861" y2="67"/>
<line opacity="0.1" stroke="#000000" stroke-width="1" x1="870" y1="699" x2="870" y2="67"/>
<line opacity="0.1" stroke="#000000" stroke-width="1" x1="879" y1="699" x2="879" y2="67"/>
<line opacity="0.1" stroke="#000000" stroke-width="1" x1="888" y1="699" x2="888" y2="67"/>
<line opacity="0.1" stroke="#000000" stroke-width="1" x1="898" y1="699" x2="898" y2="67"/>
<line opacity="0.1" stroke="#000000" stroke-width="1" x1="907" y1="699" x2="907" y2="67"/>
<line opacity="0.1" stroke="#000000" stroke-width="1" x1="916" y1="699" x2="916" y2="67"/>
<line opacity="0.1" stroke="#000000" stroke-width="1" x1="925" y1="699" x2="925" y2="67"/>
<line opacity="0.1" stroke="#000000" stroke-width="1" x1="935" y1="699" x2="935" y2="67"/>
<line opacity="0.1" stroke="#000000" stroke-width="1" x1="944" y1="699" x2="944" y2="67"/>
<line opacity="0.1" stroke="#000000" stroke-width="1" x1="953" y1="699" x2="953" y2="67"/>
<line opacity="0.1" stroke="#000000" stroke-width="1" x1="962" y1="699" x2="962" y2="67"/>
<line opacity="0.1" stroke="#000000" stroke-width="1" x1="972" y1="699" x2="972" y2="67"/>
<line opacity="0.1" stroke="#000000" stroke-width="1" x1="78" y1="699" x2="974" y2="699"/>
<line opacity="0.1" stroke="#000000" stroke-width="1" x1="78" y1="690" x2="974" y2="690"/>
<line opacity="0.1" stroke="#000000" stroke-width="1" x1="78" y1="681" x2="974" y2="681"/>
<line opacity="0.1" stroke="#000000" stroke-width="1" x1="78" y1="672" x2="974" y2="672"/>
<line opacity="0.1" stroke="#000000" stroke-width="1" x1="78" y1="663" x2="974" y2="663"/>
<line opacity="0.1" stroke="#000000" stroke-width="1" x1="78" y1="654" x2="974" y2="654"/>
<line opacity="0.1" stroke="#000000" stroke-width="1" x1="78" y1="645" x2="974" y2="645"/>
<line opacity="0.1" stroke="#000000" stroke-width="1" x1="78" y1="636" x2="974" y2="636"/>
<line opacity="0.1" stroke="#000000" stroke-width="1" x1="78" y1="627" x2="974" y2="627"/>
<line opacity="0.1" stroke="#000000" stroke-width="1" x1="78" y1="618" x2="974" y2="618"/>
<line opacity="0.1" stroke="#000000" stroke-width="1" x1="78" y1="609" x2="974" y2="609"/>
<line opacity="0.1" stroke="#000000" stroke-width="1" x1="78" y1="600" x2="974" y2="600"/>
<line opacity="0.1" stroke="#000000" stroke-width="1" x1="78" y1="591" x2="974" y2="591"/>
<line opacity="0.1" stroke="#000000" stroke-width="1" x1="78" y1="582" x2="974" y2="582"/>
<line opacity="0.1" stroke="#000000" stroke-width="1" x1="78" y1="573" x2="974" y2="573"/>
<line opacity="0.1" stroke="#000000" stroke-width="1" x1="78" y1="564" x2="974" y2="564"/>
<line opacity="0.1" stroke="#000000" stroke-width="1" x1="78" y1="555" x2="974" y2="555"/>
<line opacity="0.1" stroke="#000000" stroke-width="1" x1="78" y1="546" x2="974" y2="546"/>
<line opacity="0.1" stroke="#000000" stroke-width="1" x1="78" y1="537" x2="974" y2="537"/>
<line opacity="0.1" stroke="#000000" stroke-width="1" x1="78" y1="528" x2="974" y2="528"/>
<line opacity="0.1" stroke="#000000" stroke-width="1" x1="78" y1="519" x2="974" y2="519"/>
<line opacity="0.1" stroke="#000000" stroke-width="1" x1="78" y1="510" x2="974" y2="510"/>
<line opacity="0.1" stroke="#000000" stroke-width="1" x1="78" y1="501" x2="974" y2="501"/>
<line opacity="0.1" stroke="#000000" stroke-width="1" x1="78" y1="492" x2="974" y2="492"/>
<line opacity="0.1" stroke="#000000" stroke-width="1" x1="78" y1="483" x2="974" y2="483"/>
<line opacity="0.1" stroke="#000000" stroke-width="1" x1="78" y1="474" x2="974" y2="474"/>
<line opacity="0.1" stroke="#000000" stroke-width="1" x1="78" y1="465" x2="974" y2="465"/>
<line opacity="0.1" stroke="#000000" stroke-width="1" x1="78" y1="456" x2="974" y2="456"/>
<line opacity="0.1" stroke="#000000" stroke-width="1" x1="78" y1="447" x2="974" y2="447"/>
<line opacity="0.1" stroke="#000000" stroke-width="1" x1="78" y1="438" x2="974" y2="438"/>
<line opacity="0.1" stroke="#000000" stroke-width="1" x1="78" y1="429" x2="974" y2="429"/>
<line opacity="0.1" stroke="#000000" stroke-width="1" x1="78" y1="420" x2="974" y2="420"/>
<line opacity="0.1" stroke="#000000" stroke-width="1" x1="78" y1="411" x2="974" y2="411"/>
<line opacity="0.1" stroke="#000000" stroke-width="1" x1="78" y1="402" x2="974" y2="402"/>
<line opacity="0.1" stroke="#000000" stroke-width="1" x1="78" y1="394" x2="974" y2="394"/>
<line opacity="0.1" stroke="#000000" stroke-width="1" x1="78" y1="385" x2="974" y2="385"/>
<line opacity="0.1" stroke="#000000" stroke-width="1" x1="78" y1="376" x2="974" y2="376"/>
<line opacity="0.1" stroke="#000000" stroke-width="1" x1="78" y1="367" x2="974" y2="367"/>
<line opacity="0.1" stroke="#000000" stroke-width="1" x1="78" y1="358" x2="974" y2="358"/>
<line opacity="0.1" stroke="#000000" stroke-width="1" x1="78" y1="349" x2="974" y2="349"/>
<line opacity="0.1" stroke="#000000" stroke-width="1" x1="78" y1="340" x2="974" y2="340"/>
<line opacity="0.1" stroke="#000000" stroke-width="1" x1="78" y1="331" x2="974" y2="331"/>
<line opacity="0.1" stroke="#000000" stroke-width="1" x1="78" y1="322" x2="974" y2="322"/>
<line opacity="0.1" stroke="#000000" stroke-width="1" x1="78" y1="313" x2="974" y2="313"/>
<line opacity="0.1" stroke="#000000" stroke-width="1" x1="78" y1="304" x2="974" y2="304"/>
<line opacity="0.1" stroke="#000000" stroke-width="1" x1="78" y1="295" x2="974" y2="295"/>
<line opacity="0.1" stroke="#000000" stroke-width="1" x1="78" y1="286" x2="974" y2="286"/>
<line opacity="0.1" stroke="#000000" stroke-width="1" x1="78" y1="277" x2="974" y2="277"/>
<line opacity="0.1" stroke="#000000" stroke-width="1" x1="78" y1="268" x2="974" y2="268"/>
<line opacity="0.1" stroke="#000000" stroke-width="1" x1="78" y1="259" x2="974" y2="259"/>
<line opacity="0.1" stroke="#000000" stroke-width="1" x1="78" y1="250" x2="974" y2="250"/>
<line opacity="0.1" stroke="#000000" stroke-width="1" x1="78" y1="241" x2="974" y2="241"/>
<line opacity="0.1" stroke="#000000" stroke-width="1" x1="78" y1="232" x2="974" y2="232"/>
<line opacity="0.1" stroke="#000000" stroke-width="1" x1="78" y1="223" x2="974" y2="223"/>
<line opacity="0.1" stroke="#000000" stroke-width="1" x1="78" y1="214" x2="974" y2="214"/>
<line opacity="0.1" stroke="#000000" stroke-width="1" x1="78" y1="205" x2="974" y2="205"/>
<line opacity="0.1" stroke="#000000" stroke-width="1" x1="78" y1="196" x2="974" y2="196"/>
<line opacity="0.1" stroke="#000000" stroke-width="1" x1="78" y1="187" x2="974" y2="187"/>
<line opacity="0.1" stroke="#000000" stroke-width="1" x1="78" y1="178" x2="974" y2="178"/>
<line opacity="0.1" stroke="#000000" stroke-width="1" x1="78" y1="169" x2="974" y2="169"/>
<line opacity="0.1" stroke="#000000" stroke-width="1" x1="78" y1="160" x2="974" y2="160"/>
<line opacity="0.1" stroke="#000000" stroke-width="1" x1="78" y1="151" x2="974" y2="151"/>
<line opacity="0.1" stroke="#000000" stroke-width="1" x1="78" y1="142" x2="974" y2="142"/>
<line opacity="0.1" stroke="#000000" stroke-width="1" x1="78" y1="133" x2="974" y2="133"/>
<line opacity="0.1" stroke="#000000" stroke-width="1" x1="78" y1="124" x2="974" y2="124"/>
<line opacity="0.1" stroke="#000000" stroke-width="1" x1="78" y1="115" x2="974" y2="115"/>
<line opacity="0.1" stroke="#000000" stroke-width="1" x1="78" y1="106" x2="974" y2="106"/>
<line opacity="0.1" stroke="#000000" stroke-width="1" x1="78" y1="98" x2="974" y2="98"/>
<line opacity="0.1" stroke="#000000" stroke-width="1" x1="78" y1="89" x2="974" y2="89"/>
<line opacity="0.1" stroke="#000000" stroke-width="1" x1="78" y1="80" x2="974" y2="80"/>
<line opacity="0.1" stroke="#000000" stroke-width="1" x1="78" y1="71" x2="974" y2="71"/>
<text x="8" y="384" dy="0.76em" text-anchor="middle" font-family="sans-serif" font-size="9.67741935483871" opacity="1" fill="#000000" transform="rotate(270, 8, 384)">
Memory usage
</text>
<text x="526" y="760" dy="-0.5ex" text-anchor="middle" font-family="sans-serif" font-size="9.67741935483871" opacity="1" fill="#000000">
Time
</text>
<line opacity="0.2" stroke="#000000" stroke-width="1" x1="166" y1="699" x2="166" y2="67"/>
<line opacity="0.2" stroke="#000000" stroke-width="1" x1="259" y1="699" x2="259" y2="67"/>
<line opacity="0.2" stroke="#000000" stroke-width="1" x1="351" y1="699" x2="351" y2="67"/>
<line opacity="0.2" stroke="#000000" stroke-width="1" x1="444" y1="699" x2="444" y2="67"/>
<line opacity="0.2" stroke="#000000" stroke-width="1" x1="536" y1="699" x2="536" y2="67"/>
<line opacity="0.2" stroke="#000000" stroke-width="1" x1="629" y1="699" x2="629" y2="67"/>
<line opacity="0.2" stroke="#000000" stroke-width="1" x1="722" y1="699" x2="722" y2="67"/>
<line opacity="0.2" stroke="#000000" stroke-width="1" x1="814" y1="699" x2="814" y2="67"/>
<line opacity="0.2" stroke="#000000" stroke-width="1" x1="907" y1="699" x2="907" y2="67"/>
<line opacity="0.2" stroke="#000000" stroke-width="1" x1="78" y1="699" x2="974" y2="699"/>
<line opacity="0.2" stroke="#000000" stroke-width="1" x1="78" y1="609" x2="974" y2="609"/>
<line opacity="0.2" stroke="#000000" stroke-width="1" x1="78" y1="519" x2="974" y2="519"/>
<line opacity="0.2" stroke="#000000" stroke-width="1" x1="78" y1="429" x2="974" y2="429"/>
<line opacity="0.2" stroke="#000000" stroke-width="1" x1="78" y1="340" x2="974" y2="340"/>
<line opacity="0.2" stroke="#000000" stroke-width="1" x1="78" y1="250" x2="974" y2="250"/>
<line opacity="0.2" stroke="#000000" stroke-width="1" x1="78" y1="160" x2="974" y2="160"/>
<line opacity="0.2" stroke="#000000" stroke-width="1" x1="78" y1="71" x2="974" y2="71"/>
<polyline fill="none" opacity="1" stroke="#000000" stroke-width="1" points="77,68 77,700 "/>
<text x="68" y="699" dy="0.5ex" text-anchor="end" font-family="sans-serif" font-size="9.67741935483871" opacity="1" fill="#000000">
0 KB
</text>
<polyline fill="none" opacity="1" stroke="#000000" stroke-width="1" points="72,699 77,699 "/>
<text x="68" y="609" dy="0.5ex" text-anchor="end" font-family="sans-serif" font-size="9.67741935483871" opacity="1" fill="#000000">
48 KB
</text>
<polyline fill="none" opacity="1" stroke="#000000" stroke-width="1" points="72,609 77,609 "/>
<text x="68" y="519" dy="0.5ex" text-anchor="end" font-family="sans-serif" font-size="9.67741935483871" opacity="1" fill="#000000">
97 KB
</text>
<polyline fill="none" opacity="1" stroke="#000000" stroke-width="1" points="72,519 77,519 "/>
<text x="68" y="429" dy="0.5ex" text-anchor="end" font-family="sans-serif" font-size="9.67741935483871" opacity="1" fill="#000000">
146 KB
</text>
<polyline fill="none" opacity="1" stroke="#000000" stroke-width="1" points="72,429 77,429 "/>
<text x="68" y="340" dy="0.5ex" text-anchor="end" font-family="sans-serif" font-size="9.67741935483871" opacity="1" fill="#000000">
195 KB
</text>
<polyline fill="none" opacity="1" stroke="#000000" stroke-width="1" points="72,340 77,340 "/>
<text x="68" y="250" dy="0.5ex" text-anchor="end" font-family="sans-serif" font-size="9.67741935483871" opacity="1" fill="#000000">
244 KB
</text>
<polyline fill="none" opacity="1" stroke="#000000" stroke-width="1" points="72,250 77,250 "/>
<text x="68" y="160" dy="0.5ex" text-anchor="end" font-family="sans-serif" font-size="9.67741935483871" opacity="1" fill="#000000">
292 KB
</text>
<polyline fill="none" opacity="1" stroke="#000000" stroke-width="1" points="72,160 77,160 "/>
<text x="68" y="71" dy="0.5ex" text-anchor="end" font-family="sans-serif" font-size="9.67741935483871" opacity="1" fill="#000000">
341 KB
</text>
<polyline fill="none" opacity="1" stroke="#000000" stroke-width="1" points="72,71 77,71 "/>
<polyline fill="none" opacity="1" stroke="#000000" stroke-width="1" points="78,700 974,700 "/>
<text x="166" y="710" dy="0.76em" text-anchor="middle" font-family="sans-serif" font-size="9.67741935483871" opacity="1" fill="#000000">
06:26:08
</text>
<polyline fill="none" opacity="1" stroke="#000000" stroke-width="1" points="166,700 166,705 "/>
<text x="259" y="710" dy="0.76em" text-anchor="middle" font-family="sans-serif" font-size="9.67741935483871" opacity="1" fill="#000000">
06:26:09
</text>
<polyline fill="none" opacity="1" stroke="#000000" stroke-width="1" points="259,700 259,705 "/>
<text x="351" y="710" dy="0.76em" text-anchor="middle" font-family="sans-serif" font-size="9.67741935483871" opacity="1" fill="#000000">
06:26:10
</text>
<polyline fill="none" opacity="1" stroke="#000000" stroke-width="1" points="351,700 351,705 "/>
<text x="444" y="710" dy="0.76em" text-anchor="middle" font-family="sans-serif" font-size="9.67741935483871" opacity="1" fill="#000000">
06:26:11
</text>
<polyline fill="none" opacity="1" stroke="#000000" stroke-width="1" points="444,700 444,705 "/>
<text x="536" y="710" dy="0.76em" text-anchor="middle" font-family="sans-serif" font-size="9.67741935483871" opacity="1" fill="#000000">
06:26:12
</text>
<polyline fill="none" opacity="1" stroke="#000000" stroke-width="1" points="536,700 536,705 "/>
<text x="629" y="710" dy="0.76em" text-anchor="middle" font-family="sans-serif" font-size="9.67741935483871" opacity="1" fill="#000000">
06:26:13
</text>
<polyline fill="none" opacity="1" stroke="#000000" stroke-width="1" points="629,700 629,705 "/>
<text x="722" y="710" dy="0.76em" text-anchor="middle" font-family="sans-serif" font-size="9.67741935483871" opacity="1" fill="#000000">
06:26:14
</text>
<polyline fill="none" opacity="1" stroke="#000000" stroke-width="1" points="722,700 722,705 "/>
<text x="814" y="710" dy="0.76em" text-anchor="middle" font-family="sans-serif" font-size="9.67741935483871" opacity="1" fill="#000000">
06:26:15
</text>
<polyline fill="none" opacity="1" stroke="#000000" stroke-width="1" points="814,700 814,705 "/>
<text x="907" y="710" dy="0.76em" text-anchor="middle" font-family="sans-serif" font-size="9.67741935483871" opacity="1" fill="#000000">
06:26:16
</text>
<polyline fill="none" opacity="1" stroke="#000000" stroke-width="1" points="907,700 907,705 "/>
<polyline fill="none" opacity="1" stroke="#000000" stroke-width="1" points="78,67 974,67 "/>
<text x="166" y="58" dy="-0.5ex" text-anchor="middle" font-family="sans-serif" font-size="9.67741935483871" opacity="1" fill="#000000">
+954ms
</text>
<polyline fill="none" opacity="1" stroke="#000000" stroke-width="1" points="166,62 166,67 "/>
<text x="259" y="58" dy="-0.5ex" text-anchor="middle" font-family="sans-serif" font-size="9.67741935483871" opacity="1" fill="#000000">
+1s
</text>
<polyline fill="none" opacity="1" stroke="#000000" stroke-width="1" points="259,62 259,67 "/>
<text x="351" y="58" dy="-0.5ex" text-anchor="middle" font-family="sans-serif" font-size="9.67741935483871" opacity="1" fill="#000000">
+2s
</text>
<polyline fill="none" opacity="1" stroke="#000000" stroke-width="1" points="351,62 351,67 "/>
<text x="444" y="58" dy="-0.5ex" text-anchor="middle" font-family="sans-serif" font-size="9.67741935483871" opacity="1" fill="#000000">
+3s
</text>
<polyline fill="none" opacity="1" stroke="#000000" stroke-width="1" points="444,62 444,67 "/>
<text x="536" y="58" dy="-0.5ex" text-anchor="middle" font-family="sans-serif" font-size="9.67741935483871" opacity="1" fill="#000000">
+4s
</text>
<polyline fill="none" opacity="1" stroke="#000000" stroke-width="1" points="536,62 536,67 "/>
<text x="629" y="58" dy="-0.5ex" text-anchor="middle" font-family="sans-serif" font-size="9.67741935483871" opacity="1" fill="#000000">
+5s
</text>
<polyline fill="none" opacity="1" stroke="#000000" stroke-width="1" points="629,62 629,67 "/>
<text x="722" y="58" dy="-0.5ex" text-anchor="middle" font-family="sans-serif" font-size="9.67741935483871" opacity="1" fill="#000000">
+6s
</text>
<polyline fill="none" opacity="1" stroke="#000000" stroke-width="1" points="722,62 722,67 "/>
<text x="814" y="58" dy="-0.5ex" text-anchor="middle" font-family="sans-serif" font-size="9.67741935483871" opacity="1" fill="#000000">
+7s
</text>
<polyline fill="none" opacity="1" stroke="#000000" stroke-width="1" points="814,62 814,67 "/>
<text x="907" y="58" dy="-0.5ex" text-anchor="middle" font-family="sans-serif" font-size="9.67741935483871" opacity="1" fill="#000000">
+8s
</text>
<polyline fill="none" opacity="1" stroke="#000000" stroke-width="1" points="907,62 907,67 "/>
</svg>
