<svg width="1024" height="768" viewBox="0 0 1024 768" xmlns="http://www.w3.org/2000/svg">
<rect x="0" y="0" width="1023" height="767" opacity="1" fill="#FFFFFF" stroke="none"/>
<polygon opacity="1" fill="#E6194B" points="107,680 108,679 108,642 109,642 110,642 111,623 112,623 113,640 114,636 115,639 115,652 116,659 117,662 118,667 119,671 120,665 121,667 121,673 122,668 123,664 124,664 125,667 126,656 127,649 128,630 128,627 129,641 130,646 131,650 132,639 133,624 134,597 134,590 135,625 136,634 137,642 138,639 139,620 140,604 141,593 141,593 142,591 143,591 144,610 145,606 146,594 147,588 147,589 148,589 149,569 150,558 151,554 152,555 153,538 154,524 154,520 155,522 156,499 157,487 158,483 159,463 160,454 160,451 161,462 162,457 163,448 164,459 165,454 166,438 166,431 167,426 168,441 169,447 170,431 171,422 172,420 173,411 173,400 174,388 175,396 176,399 177,412 178,413 179,413 179,390 180,383 181,384 182,388 183,385 184,386 185,380 186,369 186,368 187,386 188,395 189,395 190,374 191,366 192,361 192,361 193,373 194,361 195,363 196,369 197,358 198,349 199,345 199,338 200,345 201,353 202,338 203,336 204,339 205,338 205,342 206,345 207,359 208,373 209,384 210,367 211,359 212,339 212,345 213,384 214,394 215,380 216,397 217,390 218,392 218,388 219,361 220,354 221,354 222,362 223,361 224,362 225,375 225,385 226,394 227,379 228,383 229,374 230,378 231,391 231,391 232,382 233,392 234,392 235,397 236,398 237,395 238,382 238,382 239,362 240,365 241,387 242,377 243,389 244,387 244,398 245,397 246,413 247,405 248,396 249,404 250,400 251,389 251,380 252,375 253,388 254,386 255,402 256,376 257,368 257,367 258,376 259,378 260,386 261,381 262,359 263,359 264,367 264,361 265,371 266,371 267,365 268,357 269,347 270,346 270,352 271,351 272,342 273,348 274,347 275,348 276,363 277,354 277,362 278,348 279,339 280,340 281,337 282,341 283,354 283,342 284,348 285,355 286,365 287,357 288,377 289,383 290,376 290,367 291,363 292,361 293,343 294,349 295,352 296,357 296,347 297,334 298,347 299,348 300,349 301,367 302,367 303,381 303,378 304,382 305,391 306,384 307,381 308,375 309,364 309,374 310,367 311,370 312,372 313,374 314,356 315,344 316,332 316,333 317,326 318,316 319,325 320,327 321,318 322,296 322,294 323,280 324,294 325,308 326,313 327,315 328,317 329,315 329,304 330,303 331,290 332,297 333,309 334,321 335,305 335,302 336,305 337,316 338,321 339,330 340,332 341,342 342,352 342,353 343,352 344,341 345,346 346,350 347,361 348,362 348,373 349,399 350,383 351,404 352,390 353,391 354,393 355,403 355,398 356,397 357,392 358,375 359,374 360,372 361,380 361,391 362,389 363,385 364,382 365,370 366,366 367,371 368,377 368,384 369,392 370,385 371,382 372,375 373,366 374,352 374,350 375,351 376,363 377,361 378,356 379,366 380,362 381,367 381,356 382,345 383,333 384,329 385,325 386,311 387,311 387,327 388,341 389,365 390,365 391,390 392,399 393,383 394,386 394,381 395,362 396,362 397,385 398,398 399,396 400,390 400,385 401,389 402,384 403,361 404,361 405,352 406,364 407,359 407,368 408,374 409,374 410,370 411,369 412,372 413,382 413,394 414,394 415,389 416,383 417,381 418,379 419,381 420,392 420,383 421,383 422,387 423,404 424,398 425,391 426,390 426,395 427,409 428,412 429,407 430,409 431,393 432,394 433,397 433,381 434,380 435,390 436,388 437,383 438,395 439,392 439,404 440,403 441,378 442,375 443,368 444,387 445,380 446,365 446,350 447,348 448,333 449,340 450,344 451,324 452,323 452,322 453,323 454,331 455,342 456,324 457,327 458,325 459,323 459,337 460,339 461,340 462,326 463,317 464,310 465,312 465,312 466,310 467,318 468,325 469,328 470,333 471,335 472,330 472,332 473,337 474,341 475,353 476,356 477,334 478,335 478,346 479,316 480,311 481,311 482,311 483,311 484,314 485,311 485,302 486,295 487,295 488,294 489,291 490,298 491,300 491,301 492,308 493,311 494,304 495,292 496,295 497,280 497,285 498,294 499,287 500,290 501,294 502,274 503,280 504,277 504,279 505,287 506,301 507,305 508,297 509,291 510,279 510,285 511,280 512,282 513,278 514,285 515,303 516,308 517,309 517,315 518,312 519,321 520,324 521,318 522,325 523,329 523,327 524,329 525,331 526,320 527,333 528,336 529,332 530,340 530,335 531,313 532,316 533,336 534,333 535,334 536,338 536,336 537,330 538,329 539,331 540,336 541,338 542,326 543,322 543,317 544,329 545,341 546,329 547,324 548,324 549,329 549,326 550,312 551,310 552,326 553,336 554,323 555,321 556,318 556,315 557,319 558,295 559,301 560,309 561,329 562,329 562,326 563,317 564,322 565,327 566,334 567,322 568,314 569,322 569,317 570,331 571,334 572,317 573,319 574,323 575,318 575,320 576,335 577,333 578,336 579,341 580,335 581,346 582,342 582,353 583,378 584,373 585,369 586,365 587,353 588,372 588,360 589,360 590,366 591,364 592,362 593,367 594,379 595,380 595,383 596,384 597,385 598,383 599,375 600,366 601,367 601,360 602,370 603,378 604,370 605,372 606,369 607,378 608,375 608,382 609,380 610,378 611,387 612,391 613,398 614,406 614,420 615,426 616,423 617,438 618,437 619,420 620,406 621,411 621,410 622,407 623,406 624,411 625,410 626,410 627,412 627,403 628,404 629,405 630,420 631,414 632,405 633,406 634,409 634,415 635,410 636,402 637,400 638,405 639,400 640,384 640,369 641,363 642,369 643,369 644,370 645,353 646,344 647,341 647,333 648,342 649,345 650,340 651,343 652,348 653,344 653,343 654,349 655,356 656,337 657,337 658,334 659,340 660,355 660,359 661,354 662,348 663,356 664,366 665,348 666,337 666,349 667,353 668,355 669,374 670,374 671,370 672,364 673,367 673,362 674,358 675,338 676,330 677,336 678,326 679,327 679,316 680,317 681,336 682,331 683,314 684,323 685,317 686,314 686,301 687,301 688,328 689,324 690,282 691,285 692,280 692,280 693,301 694,274 695,272 696,272 697,262 698,275 699,290 699,292 700,286 701,296 702,298 703,265 704,268 705,263 705,270 706,288 707,289 708,277 709,277 710,273 711,286 712,295 712,293 713,282 714,282 715,284 716,285 717,284 718,284 718,286 719,298 720,266 721,265 722,263 723,266 724,263 725,246 725,241 726,256 727,249 728,245 729,237 730,251 731,260 731,252 732,255 733,262 734,261 735,270 736,266 737,260 738,247 738,247 739,247 740,249 741,253 742,262 743,264 744,251 744,256 745,240 746,238 747,246 748,236 749,236 750,238 751,255 751,258 752,256 753,274 754,273 755,261 756,268 757,264 757,265 758,265 759,265 760,248 761,232 762,221 763,237 764,225 764,230 765,232 766,235 767,228 768,223 769,231 770,222 770,216 771,228 772,213 773,212 774,221 775,240 776,266 777,262 777,265 778,269 779,279 780,281 781,274 782,264 783,255 783,247 784,247 785,259 786,257 787,256 788,247 789,233 790,245 790,263 791,286 792,300 793,283 794,276 795,261 796,256 796,247 797,247 798,242 799,234 800,228 801,237 802,231 803,222 803,221 804,219 805,222 806,241 807,230 808,223 809,212 809,223 810,224 811,235 812,230 813,236 814,247 815,243 816,239 816,240 817,241 818,236 819,227 820,239 821,234 822,221 822,208 823,198 824,200 825,202 826,203 827,213 828,213 829,239 829,240 830,230 831,227 832,228 833,229 834,235 835,255 835,273 836,293 837,304 838,291 839,274 840,261 841,266 841,250 842,243 843,229 844,218 845,217 846,210 847,219 848,212 848,204 849,208 850,218 851,220 852,237 853,235 854,228 854,222 855,225 856,225 857,215 858,218 859,210 860,210 861,220 861,209 862,198 863,190 864,186 865,194 866,200 867,192 867,213 868,205 869,197 870,200 871,209 872,221 873,224 874,215 874,220 875,230 876,228 877,227 878,204 879,193 880,194 880,197 881,203 882,194 883,194 884,197 885,198 886,196 887,190 887,186 888,175 889,162 890,158 891,167 892,154 893,149 893,139 894,147 895,139 896,140 897,147 898,144 899,154 900,157 900,174 901,177 902,189 903,179 904,183 905,170 906,184 906,179 907,174 908,181 909,183 910,185 911,195 912,195 913,191 913,187 914,185 915,188 916,188 917,176 918,163 919,178 919,171 920,165 921,177 922,182 923,187 924,176 925,157 926,140 926,157 927,167 928,174 929,174 930,159 931,149 932,150 932,162 933,160 934,149 935,153 936,180 937,187 938,194 939,186 939,182 940,176 941,168 942,176 943,175 944,150 945,151 945,142 946,138 947,121 948,120 949,119 950,107 951,103 952,112 952,116 953,127 954,142 955,145 956,153 957,147 958,137 958,131 959,130 960,125 961,118 962,106 963,106 964,109 965,120 965,107 966,96 967,98 968,116 969,125 970,112 971,108 971,110 972,74 973,68 973,699 974,699 974,699 107,699 "/>
<polyline fill="none" opacity="1" stroke="#E6194B" stroke-width="1" points="107,680 108,679 108,642 109,642 110,642 111,623 112,623 113,640 114,636 115,639 115,652 116,659 117,662 118,667 119,671 120,665 121,667 121,673 122,668 123,664 124,664 125,667 126,656 127,649 128,630 128,627 129,641 130,646 131,650 132,639 133,624 134,597 134,590 135,625 136,634 137,642 138,639 139,620 140,604 141,593 141,593 142,591 143,591 144,610 145,606 146,594 147,588 147,589 148,589 149,569 150,558 151,554 152,555 153,538 154,524 154,520 155,522 156,499 157,487 158,483 159,463 160,454 160,451 161,462 162,457 163,448 164,459 165,454 166,438 166,431 167,426 168,441 169,447 170,431 171,422 172,420 173,411 173,400 174,388 175,396 176,399 177,412 178,413 179,413 179,390 180,383 181,384 182,388 183,385 184,386 185,380 186,369 186,368 187,386 188,395 189,395 190,374 191,366 192,361 192,361 193,373 194,361 195,363 196,369 197,358 198,349 199,345 199,338 200,345 201,353 202,338 203,336 204,339 205,338 205,342 206,345 207,359 208,373 209,384 210,367 211,359 212,339 212,345 213,384 214,394 215,380 216,397 217,390 218,392 218,388 219,361 220,354 221,354 222,362 223,361 224,362 225,375 225,385 226,394 227,379 228,383 229,374 230,378 231,391 231,391 232,382 233,392 234,392 235,397 236,398 237,395 238,382 238,382 239,362 240,365 241,387 242,377 243,389 244,387 244,398 245,397 246,413 247,405 248,396 249,404 250,400 251,389 251,380 252,375 253,388 254,386 255,402 256,376 257,368 257,367 258,376 259,378 260,386 261,381 262,359 263,359 264,367 264,361 265,371 266,371 267,365 268,357 269,347 270,346 270,352 271,351 272,342 273,348 274,347 275,348 276,363 277,354 277,362 278,348 279,339 280,340 281,337 282,341 283,354 283,342 284,348 285,355 286,365 287,357 288,377 289,383 290,376 290,367 291,363 292,361 293,343 294,349 295,352 296,357 296,347 297,334 298,347 299,348 300,349 301,367 302,367 303,381 303,378 304,382 305,391 306,384 307,381 308,375 309,364 309,374 310,367 311,370 312,372 313,374 314,356 315,344 316,332 316,333 317,326 318,316 319,325 320,327 321,318 322,296 322,294 323,280 324,294 325,308 326,313 327,315 328,317 329,315 329,304 330,303 331,290 332,297 333,309 334,321 335,305 335,302 336,305 337,316 338,321 339,330 340,332 341,342 342,352 342,353 343,352 344,341 345,346 346,350 347,361 348,362 348,373 349,399 350,383 351,404 352,390 353,391 354,393 355,403 355,398 356,397 357,392 358,375 359,374 360,372 361,380 361,391 362,389 363,385 364,382 365,370 366,366 367,371 368,377 368,384 369,392 370,385 371,382 372,375 373,366 374,352 374,350 375,351 376,363 377,361 378,356 379,366 380,362 381,367 381,356 382,345 383,333 384,329 385,325 386,311 387,311 387,327 388,341 389,365 390,365 391,390 392,399 393,383 394,386 394,381 395,362 396,362 397,385 398,398 399,396 400,390 400,385 401,389 402,384 403,361 404,361 405,352 406,364 407,359 407,368 408,374 409,374 410,370 411,369 412,372 413,382 413,394 414,394 415,389 416,383 417,381 418,379 419,381 420,392 420,383 421,383 422,387 423,404 424,398 425,391 426,390 426,395 427,409 428,412 429,407 430,409 431,393 432,394 433,397 433,381 434,380 435,390 436,388 437,383 438,395 439,392 439,404 440,403 441,378 442,375 443,368 444,387 445,380 446,365 446,350 447,348 448,333 449,340 450,344 451,324 452,323 452,322 453,323 454,331 455,342 456,324 457,327 458,325 459,323 459,337 460,339 461,340 462,326 463,317 464,310 465,312 465,312 466,310 467,318 468,325 469,328 470,333 471,335 472,330 472,332 473,337 474,341 475,353 476,356 477,334 478,335 478,346 479,316 480,311 481,311 482,311 483,311 484,314 485,311 485,302 486,295 487,295 488,294 489,291 490,298 491,300 491,301 492,308 493,311 494,304 495,292 496,295 497,280 497,285 498,294 499,287 500,290 501,294 502,274 503,280 504,277 504,279 505,287 506,301 507,305 508,297 509,291 510,279 510,285 511,280 512,282 513,278 514,285 515,303 516,308 517,309 517,315 518,312 519,321 520,324 521,318 522,325 523,329 523,327 524,329 525,331 526,320 527,333 528,336 529,332 530,340 530,335 531,313 532,316 533,336 534,333 535,334 536,338 536,336 537,330 538,329 539,331 540,336 541,338 542,326 543,322 543,317 544,329 545,341 546,329 547,324 548,324 549,329 549,326 550,312 551,310 552,326 553,336 554,323 555,321 556,318 556,315 557,319 558,295 559,301 560,309 561,329 562,329 562,326 563,317 564,322 565,327 566,334 567,322 568,314 569,322 569,317 570,331 571,334 572,317 573,319 574,323 575,318 575,320 576,335 577,333 578,336 579,341 580,335 581,346 582,342 582,353 583,378 584,373 585,369 586,365 587,353 588,372 588,360 589,360 590,366 591,364 592,362 593,367 594,379 595,380 595,383 596,384 597,385 598,383 599,375 600,366 601,367 601,360 602,370 603,378 604,370 605,372 606,369 607,378 608,375 608,382 609,380 610,378 611,387 612,391 613,398 614,406 614,420 615,426 616,423 617,438 618,437 619,420 620,406 621,411 621,410 622,407 623,406 624,411 625,410 626,410 627,412 627,403 628,404 629,405 630,420 631,414 632,405 633,406 634,409 634,415 635,410 636,402 637,400 638,405 639,400 640,384 640,369 641,363 642,369 643,369 644,370 645,353 646,344 647,341 647,333 648,342 649,345 650,340 651,343 652,348 653,344 653,343 654,349 655,356 656,337 657,337 658,334 659,340 660,355 660,359 661,354 662,348 663,356 664,366 665,348 666,337 666,349 667,353 668,355 669,374 670,374 671,370 672,364 673,367 673,362 674,358 675,338 676,330 677,336 678,326 679,327 679,316 680,317 681,336 682,331 683,314 684,323 685,317 686,314 686,301 687,301 688,328 689,324 690,282 691,285 692,280 692,280 693,301 694,274 695,272 696,272 697,262 698,275 699,290 699,292 700,286 701,296 702,298 703,265 704,268 705,263 705,270 706,288 707,289 708,277 709,277 710,273 711,286 712,295 712,293 713,282 714,282 715,284 716,285 717,284 718,284 718,286 719,298 720,266 721,265 722,263 723,266 724,263 725,246 725,241 726,256 727,249 728,245 729,237 730,251 731,260 731,252 732,255 733,262 734,261 735,270 736,266 737,260 738,247 738,247 739,247 740,249 741,253 742,262 743,264 744,251 744,256 745,240 746,238 747,246 748,236 749,236 750,238 751,255 751,258 752,256 753,274 754,273 755,261 756,268 757,264 757,265 758,265 759,265 760,248 761,232 762,221 763,237 764,225 764,230 765,232 766,235 767,228 768,223 769,231 770,222 770,216 771,228 772,213 773,212 774,221 775,240 776,266 777,262 777,265 778,269 779,279 780,281 781,274 782,264 783,255 783,247 784,247 785,259 786,257 787,256 788,247 789,233 790,245 790,263 791,286 792,300 793,283 794,276 795,261 796,256 796,247 797,247 798,242 799,234 800,228 801,237 802,231 803,222 803,221 804,219 805,222 806,241 807,230 808,223 809,212 809,223 810,224 811,235 812,230 813,236 814,247 815,243 816,239 816,240 817,241 818,236 819,227 820,239 821,234 822,221 822,208 823,198 824,200 825,202 826,203 827,213 828,213 829,239 829,240 830,230 831,227 832,228 833,229 834,235 835,255 835,273 836,293 837,304 838,291 839,274 840,261 841,266 841,250 842,243 843,229 844,218 845,217 846,210 847,219 848,212 848,204 849,208 850,218 851,220 852,237 853,235 854,228 854,222 855,225 856,225 857,215 858,218 859,210 860,210 861,220 861,209 862,198 863,190 864,186 865,194 866,200 867,192 867,213 868,205 869,197 870,200 871,209 872,221 873,224 874,215 874,220 875,230 876,228 877,227 878,204 879,193 880,194 880,197 881,203 882,194 883,194 884,197 885,198 886,196 887,190 887,186 888,175 889,162 890,158 891,167 892,154 893,149 893,139 894,147 895,139 896,140 897,147 898,144 899,154 900,157 900,174 901,177 902,189 903,179 904,183 905,170 906,184 906,179 907,174 908,181 909,183 910,185 911,195 912,195 913,191 913,187 914,185 915,188 916,188 917,176 918,163 919,178 919,171 920,165 921,177 922,182 923,187 924,176 925,157 926,140 926,157 927,167 928,174 929,174 930,159 931,149 932,150 932,162 933,160 934,149 935,153 936,180 937,187 938,194 939,186 939,182 940,176 941,168 942,176 943,175 944,150 945,151 945,142 946,138 947,121 948,120 949,119 950,107 951,103 952,112 952,116 953,127 954,142 955,145 956,153 957,147 958,137 958,131 959,130 960,125 961,118 962,106 963,106 964,109 965,120 965,107 966,96 967,98 968,116 969,125 970,112 971,108 971,110 972,74 973,68 973,699 974,699 "/>
<line opacity="0.1" stroke="#000000" stroke-width="1" x1="85" y1="699" x2="85" y2="67"/>
<line opacity="0.1" stroke="#000000" stroke-width="1" x1="103" y1="699" x2="103" y2="67"/>
<line opacity="0.1" stroke="#000000" stroke-width="1" x1="121" y1="699" x2="121" y2="67"/>
<line opacity="0.1" stroke="#000000" stroke-width="1" x1="139" y1="699" x2="139" y2="67"/>
<line opacity="0.1" stroke="#000000" stroke-width="1" x1="157" y1="699" x2="157" y2="67"/>
<line opacity="0.1" stroke="#000000" stroke-width="1" x1="174" y1="699" x2="174" y2="67"/>
<line opacity="0.1" stroke="#000000" stroke-width="1" x1="192" y1="699" x2="192" y2="67"/>
<line opacity="0.1" stroke="#000000" stroke-width="1" x1="210" y1="699" x2="210" y2="67"/>
<line opacity="0.1" stroke="#000000" stroke-width="1" x1="228" y1="699" x2="228" y2="67"/>
<line opacity="0.1" stroke="#000000" stroke-width="1" x1="246" y1="699" x2="246" y2="67"/>
<line opacity="0.1" stroke="#000000" stroke-width="1" x1="264" y1="699" x2="264" y2="67"/>
<line opacity="0.1" stroke="#000000" stroke-width="1" x1="282" y1="699" x2="282" y2="67"/>
<line opacity="0.1" stroke="#000000" stroke-width="1" x1="300" y1="699" x2="300" y2="67"/>
<line opacity="0.1" stroke="#000000" stroke-width="1" x1="318" y1="699" x2="318" y2="67"/>
<line opacity="0.1" stroke="#000000" stroke-width="1" x1="336" y1="699" x2="336" y2="67"/>
<line opacity="0.1" stroke="#000000" stroke-width="1" x1="354" y1="699" x2="354" y2="67"/>
<line opacity="0.1" stroke="#000000" stroke-width="1" x1="372" y1="699" x2="372" y2="67"/>
<line opacity="0.1" stroke="#000000" stroke-width="1" x1="389" y1="699" x2="389" y2="67"/>
<line opacity="0.1" stroke="#000000" stroke-width="1" x1="407" y1="699" x2="407" y2="67"/>
<line opacity="0.1" stroke="#000000" stroke-width="1" x1="425" y1="699" x2="425" y2="67"/>
<line opacity="0.1" stroke="#000000" stroke-width="1" x1="443" y1="699" x2="443" y2="67"/>
<line opacity="0.1" stroke="#000000" stroke-width="1" x1="461" y1="699" x2="461" y2="67"/>
<line opacity="0.1" stroke="#000000" stroke-width="1" x1="479" y1="699" x2="479" y2="67"/>
<line opacity="0.1" stroke="#000000" stroke-width="1" x1="497" y1="699" x2="497" y2="67"/>
<line opacity="0.1" stroke="#000000" stroke-width="1" x1="515" y1="699" x2="515" y2="67"/>
<line opacity="0.1" stroke="#000000" stroke-width="1" x1="533" y1="699" x2="533" y2="67"/>
<line opacity="0.1" stroke="#000000" stroke-width="1" x1="551" y1="699" x2="551" y2="67"/>
<line opacity="0.1" stroke="#000000" stroke-width="1" x1="569" y1="699" x2="569" y2="67"/>
<line opacity="0.1" stroke="#000000" stroke-width="1" x1="587" y1="699" x2="587" y2="67"/>
<line opacity="0.1" stroke="#000000" stroke-width="1" x1="604" y1="699" x2="604" y2="67"/>
<line opacity="0.1" stroke="#000000" stroke-width="1" x1="622" y1="699" x2="622" y2="67"/>
<line opacity="0.1" stroke="#000000" stroke-width="1" x1="640" y1="699" x2="640" y2="67"/>
<line opacity="0.1" stroke="#000000" stroke-width="1" x1="658" y1="699" x2="658" y2="67"/>
<line opacity="0.1" stroke="#000000" stroke-width="1" x1="676" y1="699" x2="676" y2="67"/>
<line opacity="0.1" stroke="#000000" stroke-width="1" x1="694" y1="699" x2="694" y2="67"/>
<line opacity="0.1" stroke="#000000" stroke-width="1" x1="712" y1="699" x2="712" y2="67"/>
<line opacity="0.1" stroke="#000000" stroke-width="1" x1="730" y1="699" x2="730" y2="67"/>
<line opacity="0.1" stroke="#000000" stroke-width="1" x1="748" y1="699" x2="748" y2="67"/>
<line opacity="0.1" stroke="#000000" stroke-width="1" x1="766" y1="699" x2="766" y2="67"/>
<line opacity="0.1" stroke="#000000" stroke-width="1" x1="784" y1="699" x2="784" y2="67"/>
<line opacity="0.1" stroke="#000000" stroke-width="1" x1="802" y1="699" x2="802" y2="67"/>
<line opacity="0.1" stroke="#000000" stroke-width="1" x1="819" y1="699" x2="819" y2="67"/>
<line opacity="0.1" stroke="#000000" stroke-width="1" x1="837" y1="699" x2="837" y2="67"/>
<line opacity="0.1" stroke="#000000" stroke-width="1" x1="855" y1="699" x2="855" y2="67"/>
<line opacity="0.1" stroke="#000000" stroke-width="1" x1="873" y1="699" x2="873" y2="67"/>
<line opacity="0.1" stroke="#000000" stroke-width="1" x1="891" y1="699" x2="891" y2="67"/>
<line opacity="0.1" stroke="#000000" stroke-width="1" x1="909" y1="699" x2="909" y2="67"/>
<line opacity="0.1" stroke="#000000" stroke-width="1" x1="927" y1="699" x2="927" y2="67"/>
<line opacity="0.1" stroke="#000000" stroke-width="1" x1="945" y1="699" x2="945" y2="67"/>
<line opacity="0.1" stroke="#000000" stroke-width="1" x1="963" y1="699" x2="963" y2="67"/>
<line opacity="0.1" stroke="#000000" stroke-width="1" x1="78" y1="699" x2="974" y2="699"/>
<line opacity="0.1" stroke="#000000" stroke-width="1" x1="78" y1="688" x2="974" y2="688"/>
<line opacity="0.1" stroke="#000000" stroke-width="1" x1="78" y1="678" x2="974" y2="678"/>
<line opacity="0.1" stroke="#000000" stroke-width="1" x1="78" y1="667" x2="974" y2="667"/>
<line opacity="0.1" stroke="#000000" stroke-width="1" x1="78" y1="657" x2="974" y2="657"/>
<line opacity="0.1" stroke="#000000" stroke-width="1" x1="78" y1="646" x2="974" y2="646"/>
<line opacity="0.1" stroke="#000000" stroke-width="1" x1="78" y1="636" x2="974" y2="636"/>
<line opacity="0.1" stroke="#000000" stroke-width="1" x1="78" y1="625" x2="974" y2="625"/>
<line opacity="0.1" stroke="#000000" stroke-width="1" x1="78" y1="615" x2="974" y2="615"/>
<line opacity="0.1" stroke="#000000" stroke-width="1" x1="78" y1="604" x2="974" y2="604"/>
<line opacity="0.1" stroke="#000000" stroke-width="1" x1="78" y1="594" x2="974" y2="594"/>
<line opacity="0.1" stroke="#000000" stroke-width="1" x1="78" y1="583" x2="974" y2="583"/>
<line opacity="0.1" stroke="#000000" stroke-width="1" x1="78" y1="573" x2="974" y2="573"/>
<line opacity="0.1" stroke="#000000" stroke-width="1" x1="78" y1="562" x2="974" y2="562"/>
<line opacity="0.1" stroke="#000000" stroke-width="1" x1="78" y1="552" x2="974" y2="552"/>
<line opacity="0.1" stroke="#000000" stroke-width="1" x1="78" y1="541" x2="974" y2="541"/>
<line opacity="0.1" stroke="#000000" stroke-width="1" x1="78" y1="531" x2="974" y2="531"/>
<line opacity="0.1" stroke="#000000" stroke-width="1" x1="78" y1="521" x2="974" y2="521"/>
<line opacity="0.1" stroke="#000000" stroke-width="1" x1="78" y1="510" x2="974" y2="510"/>
<line opacity="0.1" stroke="#000000" stroke-width="1" x1="78" y1="500" x2="974" y2="500"/>
<line opacity="0.1" stroke="#000000" stroke-width="1" x1="78" y1="489" x2="974" y2="489"/>
<line opacity="0.1" stroke="#000000" stroke-width="1" x1="78" y1="479" x2="974" y2="479"/>
<line opacity="0.1" stroke="#000000" stroke-width="1" x1="78" y1="468" x2="974" y2="468"/>
<line opacity="0.1" stroke="#000000" stroke-width="1" x1="78" y1="458" x2="974" y2="458"/>
<line opacity="0.1" stroke="#000000" stroke-width="1" x1="78" y1="447" x2="974" y2="447"/>
<line opacity="0.1" stroke="#000000" stroke-width="1" x1="78" y1="437" x2="974" y2="437"/>
<line opacity="0.1" stroke="#000000" stroke-width="1" x1="78" y1="426" x2="974" y2="426"/>
<line opacity="0.1" stroke="#000000" stroke-width="1" x1="78" y1="416" x2="974" y2="416"/>
<line opacity="0.1" stroke="#000000" stroke-width="1" x1="78" y1="405" x2="974" y2="405"/>
<line opacity="0.1" stroke="#000000" stroke-width="1" x1="78" y1="395" x2="974" y2="395"/>
<line opacity="0.1" stroke="#000000" stroke-width="1" x1="78" y1="384" x2="974" y2="384"/>
<line opacity="0.1" stroke="#000000" stroke-width="1" x1="78" y1="374" x2="974" y2="374"/>
<line opacity="0.1" stroke="#000000" stroke-width="1" x1="78" y1="364" x2="974" y2="364"/>
<line opacity="0.1" stroke="#000000" stroke-width="1" x1="78" y1="353" x2="974" y2="353"/>
<line opacity="0.1" stroke="#000000" stroke-width="1" x1="78" y1="343" x2="974" y2="343"/>
<line opacity="0.1" stroke="#000000" stroke-width="1" x1="78" y1="332" x2="974" y2="332"/>
<line opacity="0.1" stroke="#000000" stroke-width="1" x1="78" y1="322" x2="974" y2="322"/>
<line opacity="0.1" stroke="#000000" stroke-width="1" x1="78" y1="311" x2="974" y2="311"/>
<line opacity="0.1" stroke="#000000" stroke-width="1" x1="78" y1="301" x2="974" y2="301"/>
<line opacity="0.1" stroke="#000000" stroke-width="1" x1="78" y1="290" x2="974" y2="290"/>
<line opacity="0.1" stroke="#000000" stroke-width="1" x1="78" y1="280" x2="974" y2="280"/>
<line opacity="0.1" stroke="#000000" stroke-width="1" x1="78" y1="269" x2="974" y2="269"/>
<line opacity="0.1" stroke="#000000" stroke-width="1" x1="78" y1="259" x2="974" y2="259"/>
<line opacity="0.1" stroke="#000000" stroke-width="1" x1="78" y1="248" x2="974" y2="248"/>
<line opacity="0.1" stroke="#000000" stroke-width="1" x1="78" y1="238" x2="974" y2="238"/>
<line opacity="0.1" stroke="#000000" stroke-width="1" x1="78" y1="227" x2="974" y2="227"/>
<line opacity="0.1" stroke="#000000" stroke-width="1" x1="78" y1="217" x2="974" y2="217"/>
<line opacity="0.1" stroke="#000000" stroke-width="1" x1="78" y1="207" x2="974" y2="207"/>
<line opacity="0.1" stroke="#000000" stroke-width="1" x1="78" y1="196" x2="974" y2="196"/>
<line opacity="0.1" stroke="#000000" stroke-width="1" x1="78" y1="186" x2="974" y2="186"/>
<line opacity="0.1" stroke="#000000" stroke-width="1" x1="78" y1="175" x2="974" y2="175"/>
<line opacity="0.1" stroke="#000000" stroke-width="1" x1="78" y1="165" x2="974" y2="165"/>
<line opacity="0.1" stroke="#000000" stroke-width="1" x1="78" y1="154" x2="974" y2="154"/>
<line opacity="0.1" stroke="#000000" stroke-width="1" x1="78" y1="144" x2="974" y2="144"/>
<line opacity="0.1" stroke="#000000" stroke-width="1" x1="78" y1="133" x2="974" y2="133"/>
<line opacity="0.1" stroke="#000000" stroke-width="1" x1="78" y1="123" x2="974" y2="123"/>
<line opacity="0.1" stroke="#000000" stroke-width="1" x1="78" y1="112" x2="974" y2="112"/>
<line opacity="0.1" stroke="#000000" stroke-width="1" x1="78" y1="102" x2="974" y2="102"/>
<line opacity="0.1" stroke="#000000" stroke-width="1" x1="78" y1="91" x2="974" y2="91"/>
<line opacity="0.1" stroke="#000000" stroke-width="1" x1="78" y1="81" x2="974" y2="81"/>
<line opacity="0.1" stroke="#000000" stroke-width="1" x1="78" y1="70" x2="974" y2="70"/>
<text x="8" y="384" dy="0.76em" text-anchor="middle" font-family="sans-serif" font-size="9.67741935483871" opacity="1" fill="#000000" transform="rotate(270, 8, 384)">
Memory usage
</text>
<text x="526" y="760" dy="-0.5ex" text-anchor="middle" font-family="sans-serif" font-size="9.67741935483871" opacity="1" fill="#000000">
Time
</text>
<line opacity="0.2" stroke="#000000" stroke-width="1" x1="192" y1="699" x2="192" y2="67"/>
<line opacity="0.2" stroke="#000000" stroke-width="1" x1="372" y1="699" x2="372" y2="67"/>
<line opacity="0.2" stroke="#000000" stroke-width="1" x1="551" y1="699" x2="551" y2="67"/>
<line opacity="0.2" stroke="#000000" stroke-width="1" x1="730" y1="699" x2="730" y2="67"/>
<line opacity="0.2" stroke="#000000" stroke-width="1" x1="909" y1="699" x2="909" y2="67"/>
<line opacity="0.2" stroke="#000000" stroke-width="1" x1="78" y1="699" x2="974" y2="699"/>
<line opacity="0.2" stroke="#000000" stroke-width="1" x1="78" y1="594" x2="974" y2="594"/>
<line opacity="0.2" stroke="#000000" stroke-width="1" x1="78" y1="489" x2="974" y2="489"/>
<line opacity="0.2" stroke="#000000" stroke-width="1" x1="78" y1="384" x2="974" y2="384"/>
<line opacity="0.2" stroke="#000000" stroke-width="1" x1="78" y1="280" x2="974" y2="280"/>
<line opacity="0.2" stroke="#000000" stroke-width="1" x1="78" y1="175" x2="974" y2="175"/>
<line opacity="0.2" stroke="#000000" stroke-width="1" x1="78" y1="70" x2="974" y2="70"/>
<polyline fill="none" opacity="1" stroke="#000000" stroke-width="1" points="77,68 77,700 "/>
<text x="68" y="699" dy="0.5ex" text-anchor="end" font-family="sans-serif" font-size="9.67741935483871" opacity="1" fill="#000000">
0 KB
</text>
<polyline fill="none" opacity="1" stroke="#000000" stroke-width="1" points="72,699 77,699 "/>
<text x="68" y="594" dy="0.5ex" text-anchor="end" font-family="sans-serif" font-size="9.67741935483871" opacity="1" fill="#000000">
97 KB
</text>
<polyline fill="none" opacity="1" stroke="#000000" stroke-width="1" points="72,594 77,594 "/>
<text x="68" y="489" dy="0.5ex" text-anchor="end" font-family="sans-serif" font-size="9.67741935483871" opacity="1" fill="#000000">
195 KB
</text>
<polyline fill="none" opacity="1" stroke="#000000" stroke-width="1" points="72,489 77,489 "/>
<text x="68" y="384" dy="0.5ex" text-anchor="end" font-family="sans-serif" font-size="9.67741935483871" opacity="1" fill="#000000">
292 KB
</text>
<polyline fill="none" opacity="1" stroke="#000000" stroke-width="1" points="72,384 77,384 "/>
<text x="68" y="280" dy="0.5ex" text-anchor="end" font-family="sans-serif" font-size="9.67741935483871" opacity="1" fill="#000000">
390 KB
</text>
<polyline fill="none" opacity="1" stroke="#000000" stroke-width="1" points="72,280 77,280 "/>
<text x="68" y="175" dy="0.5ex" text-anchor="end" font-family="sans-serif" font-size="9.67741935483871" opacity="1" fill="#000000">
488 KB
</text>
<polyline fill="none" opacity="1" stroke="#000000" stroke-width="1" points="72,175 77,175 "/>
<text x="68" y="70" dy="0.5ex" text-anchor="end" font-family="sans-serif" font-size="9.67741935483871" opacity="1" fill="#000000">
585 KB
</text>
<polyline fill="none" opacity="1" stroke="#000000" stroke-width="1" points="72,70 77,70 "/>
<polyline fill="none" opacity="1" stroke="#000000" stroke-width="1" points="78,700 974,700 "/>
<text x="192" y="710" dy="0.76em" text-anchor="middle" font-family="sans-serif" font-size="9.67741935483871" opacity="1" fill="#000000">
06:26:08
</text>
<polyline fill="none" opacity="1" stroke="#000000" stroke-width="1" points="192,700 192,705 "/>
<text x="372" y="710" dy="0.76em" text-anchor="middle" font-family="sans-serif" font-size="9.67741935483871" opacity="1" fill="#000000">
06:26:10
</text>
<polyline fill="none" opacity="1" stroke="#000000" stroke-width="1" points="372,700 372,705 "/>
<text x="551" y="710" dy="0.76em" text-anchor="middle" font-family="sans-serif" font-size="9.67741935483871" opacity="1" fill="#000000">
06:26:12
</text>
<polyline fill="none" opacity="1" stroke="#000000" stroke-width="1" points="551,700 551,705 "/>
<text x="730" y="710" dy="0.76em" text-anchor="middle" font-family="sans-serif" font-size="9.67741935483871" opacity="1" fill="#000000">
06:26:14
</text>
<polyline fill="none" opacity="1" stroke="#000000" stroke-width="1" points="730,700 730,705 "/>
<text x="909" y="710" dy="0.76em" text-anchor="middle" font-family="sans-serif" font-size="9.67741935483871" opacity="1" fill="#000000">
06:26:16
</text>
<polyline fill="none" opacity="1" stroke="#000000" stroke-width="1" points="909,700 909,705 "/>
<polyline fill="none" opacity="1" stroke="#000000" stroke-width="1" points="78,67 974,67 "/>
<text x="192" y="58" dy="-0.5ex" text-anchor="middle" font-family="sans-serif" font-size="9.67741935483871" opacity="1" fill="#000000">
+1s
</text>
<polyline fill="none" opacity="1" stroke="#000000" stroke-width="1" points="192,62 192,67 "/>
<text x="372" y="58" dy="-0.5ex" text-anchor="middle" font-family="sans-serif" font-size="9.67741935483871" opacity="1" fill="#000000">
+3s
</text>
<polyline fill="none" opacity="1" stroke="#000000" stroke-width="1" points="372,62 372,67 "/>
<text x="551" y="58" dy="-0.5ex" text-anchor="middle" font-family="sans-serif" font-size="9.67741935483871" opacity="1" fill="#000000">
+5s
</text>
<polyline fill="none" opacity="1" stroke="#000000" stroke-width="1" points="551,62 551,67 "/>
<text x="730" y="58" dy="-0.5ex" text-anchor="middle" font-family="sans-serif" font-size="9.67741935483871" opacity="1" fill="#000000">
+7s
</text>
<polyline fill="none" opacity="1" stroke="#000000" stroke-width="1" points="730,62 730,67 "/>
<text x="909" y="58" dy="-0.5ex" text-anchor="middle" font-family="sans-serif" font-size="9.67741935483871" opacity="1" fill="#000000">
+9s
</text>
<polyline fill="none" opacity="1" stroke="#000000" stroke-width="1" points="909,62 909,67 "/>
</svg>
