<svg width="1024" height="768" viewBox="0 0 1024 768" xmlns="http://www.w3.org/2000/svg">
<rect x="0" y="0" width="1023" height="767" opacity="1" fill="#FFFFFF" stroke="none"/>
<polygon opacity="1" fill="#E6194B" points="436,657 436,596 437,575 437,556 438,533 438,530 439,519 439,530 440,530 441,527 441,518 442,494 442,491 443,489 443,483 444,487 444,517 445,501 445,480 446,472 446,462 447,459 448,460 448,442 449,447 449,450 450,453 450,455 451,444 451,431 452,431 452,438 453,429 453,433 454,437 454,459 455,452 456,447 456,432 457,434 457,435 458,438 458,430 459,438 459,447 460,452 460,450 461,448 461,450 462,434 463,431 463,424 464,419 464,415 465,422 465,424 466,418 466,416 467,424 467,433 468,432 468,436 469,436 470,442 470,443 471,446 471,444 472,439 472,440 473,445 473,447 474,449 474,451 475,454 475,469 476,476 477,456 477,443 478,445 478,454 479,460 479,427 480,419 480,416 481,421 481,416 482,417 482,417 483,416 484,421 484,421 485,423 485,406 486,406 486,398 487,401 487,398 488,410 488,397 489,394 489,395 490,401 491,405 491,404 492,405 492,410 493,428 493,432 494,417 494,408 495,395 495,401 496,403 496,387 497,381 497,387 498,403 499,399 499,389 500,390 500,394 501,399 501,398 502,381 502,374 503,384 503,386 504,377 504,379 505,388 506,396 506,405 507,409 507,410 508,409 508,400 509,396 509,386 510,380 510,388 511,385 511,385 512,381 513,386 513,378 514,386 514,394 515,407 515,418 516,426 516,413 517,414 517,417 518,423 518,418 519,423 520,428 520,432 521,433 521,425 522,433 522,435 523,438 523,435 524,438 524,437 525,440 525,440 526,427 527,433 527,444 528,452 528,445 529,440 529,449 530,453 530,447 531,444 531,420 532,419 532,439 533,446 534,445 534,442 535,443 535,455 536,459 536,444 537,446 537,438 538,435 538,435 539,438 539,444 540,443 540,454 541,446 542,439 542,432 543,429 543,421 544,424 544,436 545,454 545,454 546,447 546,435 547,429 547,429 548,430 549,435 549,443 550,440 550,424 551,415 551,413 552,423 552,436 553,444 553,440 554,427 554,432 555,425 556,423 556,418 557,417 557,424 558,422 558,403 559,395 559,413 560,411 560,430 561,444 561,433 562,434 563,430 563,430 564,419 564,423 565,425 565,433 566,441 566,439 567,427 567,420 568,416 568,429 569,425 570,419 570,429 571,435 571,438 572,433 572,419 573,421 573,423 574,427 574,425 575,420 575,421 576,422 577,439 577,440 578,436 578,441 579,442 579,446 580,438 580,438 581,452 581,446 582,450 582,460 583,484 583,489 584,488 585,479 585,478 586,474 586,476 587,458 587,459 588,482 588,487 589,467 589,467 590,469 590,473 591,479 592,470 592,468 593,471 593,479 594,488 594,495 595,489 595,490 596,492 596,493 597,495 597,500 598,497 599,483 599,482 600,483 600,473 601,475 601,480 602,465 602,478 603,479 603,488 604,485 604,477 605,479 606,481 606,475 607,485 607,482 608,494 608,499 609,489 609,488 610,486 610,487 611,491 611,499 612,500 613,502 613,516 614,517 614,528 615,533 615,541 616,540 616,537 617,548 617,554 618,553 618,552 619,535 620,522 620,516 621,523 621,522 622,529 622,517 623,517 623,516 624,518 624,533 625,521 625,521 626,522 626,534 627,521 628,513 628,513 629,516 629,515 630,529 630,541 631,532 631,525 632,514 632,515 633,527 633,519 634,519 635,526 635,523 636,520 636,520 637,511 637,508 638,514 638,516 639,515 639,501 640,490 640,482 641,465 642,474 642,473 643,472 643,474 644,476 644,473 645,461 645,445 646,442 646,440 647,430 647,431 648,442 649,441 649,447 650,441 650,438 651,441 651,445 652,455 652,442 653,445 653,441 654,441 654,448 655,456 656,456 656,442 657,434 657,441 658,431 658,433 659,441 659,453 660,459 660,459 661,460 661,455 662,448 662,447 663,456 664,467 664,469 665,458 665,446 666,433 666,448 667,447 667,452 668,451 668,464 669,475 669,479 670,475 671,477 671,471 672,464 672,475 673,467 673,466 674,461 674,459 675,448 675,433 676,425 676,426 677,441 678,435 678,420 679,420 679,422 680,417 680,408 681,431 681,430 682,424 682,424 683,410 683,404 684,413 685,407 685,408 686,408 686,403 687,395 687,389 688,413 688,418 689,425 689,346 690,347 690,336 691,340 692,340 692,332 693,343 693,354 694,356 694,330 695,324 695,325 696,323 696,322 697,311 697,319 698,331 699,343 699,353 700,347 700,342 701,338 701,350 702,350 702,352 703,322 703,315 704,325 704,318 705,311 705,320 706,338 707,341 707,341 708,341 708,328 709,328 709,328 710,323 710,338 711,341 711,348 712,354 712,345 713,347 714,333 714,334 715,347 715,341 716,334 716,336 717,334 717,339 718,334 718,337 719,345 719,359 720,348 721,314 721,315 722,310 722,310 723,313 723,321 724,316 724,301 725,290 725,285 726,291 726,304 727,294 728,294 728,289 729,290 729,280 730,295 730,297 731,307 731,306 732,297 732,301 733,303 733,313 734,306 735,309 735,320 736,322 736,312 737,310 737,305 738,291 738,290 739,291 739,291 740,298 740,292 741,297 742,307 742,309 743,309 743,306 744,296 744,294 745,301 745,295 746,282 746,280 747,288 747,288 748,280 748,277 749,277 750,279 750,282 751,309 751,310 752,302 752,300 753,319 753,326 754,326 754,317 755,305 755,307 756,313 757,308 757,309 758,310 758,309 759,314 759,309 760,308 760,290 761,286 761,263 762,258 762,266 763,277 764,262 764,263 765,274 765,271 766,277 766,274 767,274 767,266 768,261 768,260 769,279 769,267 770,259 771,252 771,256 772,266 772,258 773,249 773,248 774,258 774,266 775,284 775,304 776,309 776,305 777,308 778,314 778,308 779,315 779,324 780,341 780,328 781,324 781,318 782,322 782,300 783,296 783,291 784,287 785,293 785,301 786,303 786,304 787,298 787,297 788,291 788,282 789,270 789,285 790,291 790,305 791,323 791,331 792,347 793,343 793,335 794,320 794,320 795,302 795,303 796,298 796,287 797,286 797,293 798,285 798,282 799,277 800,264 800,265 801,276 801,274 802,268 802,260 803,257 803,260 804,255 804,254 805,256 805,265 806,279 807,280 807,268 808,258 808,252 809,245 809,258 810,258 810,259 811,271 811,271 812,269 812,265 813,273 814,283 814,287 815,284 815,276 816,283 816,281 817,276 817,279 818,277 818,273 819,261 819,262 820,275 821,285 821,257 822,254 822,254 823,243 823,227 824,228 824,232 825,239 825,232 826,233 826,241 827,246 828,244 828,259 829,275 829,277 830,276 830,265 831,261 831,262 832,262 832,263 833,263 833,268 834,289 834,293 835,305 836,313 836,330 837,345 837,349 838,352 838,336 839,328 839,310 840,305 840,300 841,305 841,294 842,286 843,278 843,279 844,262 844,253 845,248 845,253 846,240 846,244 847,250 847,243 848,250 848,232 849,234 850,243 850,249 851,252 851,253 852,270 852,273 853,270 853,269 854,261 854,258 855,253 855,257 856,257 857,256 857,244 858,244 858,251 859,254 859,238 860,239 860,252 861,250 861,237 862,237 862,225 863,224 864,215 864,210 865,223 865,220 866,227 866,228 867,218 867,237 868,241 868,236 869,232 869,222 870,225 871,231 871,236 872,249 872,252 873,252 873,258 874,242 874,244 875,263 875,259 876,260 876,257 877,261 877,251 878,231 879,220 879,216 880,218 880,219 881,225 881,235 882,228 882,232 883,218 883,222 884,219 884,222 885,225 886,221 886,220 887,224 887,211 888,208 888,209 889,195 889,183 890,178 890,175 891,186 891,177 892,170 893,166 893,155 894,153 894,154 895,163 895,153 896,156 896,155 897,167 897,159 898,161 898,164 899,179 900,174 900,179 901,193 901,195 902,198 902,213 903,200 903,201 904,208 904,200 905,189 905,205 906,216 907,221 907,199 908,193 908,198 909,210 909,204 910,204 910,224 911,229 911,218 912,218 912,218 913,211 914,208 914,209 915,206 915,206 916,214 916,209 917,213 917,195 918,183 918,180 919,202 919,189 920,190 920,183 921,195 922,204 922,201 923,206 923,208 924,202 924,194 925,174 925,153 926,155 926,173 927,184 927,184 928,195 929,192 929,199 930,190 930,175 931,168 931,163 932,166 932,178 933,182 933,179 934,175 934,163 935,168 936,185 936,199 937,207 937,209 938,215 938,219 939,205 939,207 940,200 940,194 941,184 941,193 942,194 943,193 943,194 944,180 944,164 945,169 945,154 946,158 946,149 947,145 947,141 948,129 948,129 949,127 950,123 950,114 951,115 951,110 952,119 952,133 953,125 953,137 954,141 954,161 955,158 955,162 956,171 956,164 957,160 958,155 958,148 959,150 959,140 960,147 960,144 961,132 961,127 962,112 962,114 963,112 963,113 964,129 965,131 965,129 966,121 966,107 967,101 967,103 968,124 968,139 969,135 969,129 970,119 970,117 971,115 972,122 972,113 973,75 973,68 973,699 974,699 974,699 436,699 "/>
<polyline fill="none" opacity="1" stroke="#E6194B" stroke-width="1" points="436,657 436,596 437,575 437,556 438,533 438,530 439,519 439,530 440,530 441,527 441,518 442,494 442,491 443,489 443,483 444,487 444,517 445,501 445,480 446,472 446,462 447,459 448,460 448,442 449,447 449,450 450,453 450,455 451,444 451,431 452,431 452,438 453,429 453,433 454,437 454,459 455,452 456,447 456,432 457,434 457,435 458,438 458,430 459,438 459,447 460,452 460,450 461,448 461,450 462,434 463,431 463,424 464,419 464,415 465,422 465,424 466,418 466,416 467,424 467,433 468,432 468,436 469,436 470,442 470,443 471,446 471,444 472,439 472,440 473,445 473,447 474,449 474,451 475,454 475,469 476,476 477,456 477,443 478,445 478,454 479,460 479,427 480,419 480,416 481,421 481,416 482,417 482,417 483,416 484,421 484,421 485,423 485,406 486,406 486,398 487,401 487,398 488,410 488,397 489,394 489,395 490,401 491,405 491,404 492,405 492,410 493,428 493,432 494,417 494,408 495,395 495,401 496,403 496,387 497,381 497,387 498,403 499,399 499,389 500,390 500,394 501,399 501,398 502,381 502,374 503,384 503,386 504,377 504,379 505,388 506,396 506,405 507,409 507,410 508,409 508,400 509,396 509,386 510,380 510,388 511,385 511,385 512,381 513,386 513,378 514,386 514,394 515,407 515,418 516,426 516,413 517,414 517,417 518,423 518,418 519,423 520,428 520,432 521,433 521,425 522,433 522,435 523,438 523,435 524,438 524,437 525,440 525,440 526,427 527,433 527,444 528,452 528,445 529,440 529,449 530,453 530,447 531,444 531,420 532,419 532,439 533,446 534,445 534,442 535,443 535,455 536,459 536,444 537,446 537,438 538,435 538,435 539,438 539,444 540,443 540,454 541,446 542,439 542,432 543,429 543,421 544,424 544,436 545,454 545,454 546,447 546,435 547,429 547,429 548,430 549,435 549,443 550,440 550,424 551,415 551,413 552,423 552,436 553,444 553,440 554,427 554,432 555,425 556,423 556,418 557,417 557,424 558,422 558,403 559,395 559,413 560,411 560,430 561,444 561,433 562,434 563,430 563,430 564,419 564,423 565,425 565,433 566,441 566,439 567,427 567,420 568,416 568,429 569,425 570,419 570,429 571,435 571,438 572,433 572,419 573,421 573,423 574,427 574,425 575,420 575,421 576,422 577,439 577,440 578,436 578,441 579,442 579,446 580,438 580,438 581,452 581,446 582,450 582,460 583,484 583,489 584,488 585,479 585,478 586,474 586,476 587,458 587,459 588,482 588,487 589,467 589,467 590,469 590,473 591,479 592,470 592,468 593,471 593,479 594,488 594,495 595,489 595,490 596,492 596,493 597,495 597,500 598,497 599,483 599,482 600,483 600,473 601,475 601,480 602,465 602,478 603,479 603,488 604,485 604,477 605,479 606,481 606,475 607,485 607,482 608,494 608,499 609,489 609,488 610,486 610,487 611,491 611,499 612,500 613,502 613,516 614,517 614,528 615,533 615,541 616,540 616,537 617,548 617,554 618,553 618,552 619,535 620,522 620,516 621,523 621,522 622,529 622,517 623,517 623,516 624,518 624,533 625,521 625,521 626,522 626,534 627,521 628,513 628,513 629,516 629,515 630,529 630,541 631,532 631,525 632,514 632,515 633,527 633,519 634,519 635,526 635,523 636,520 636,520 637,511 637,508 638,514 638,516 639,515 639,501 640,490 640,482 641,465 642,474 642,473 643,472 643,474 644,476 644,473 645,461 645,445 646,442 646,440 647,430 647,431 648,442 649,441 649,447 650,441 650,438 651,441 651,445 652,455 652,442 653,445 653,441 654,441 654,448 655,456 656,456 656,442 657,434 657,441 658,431 658,433 659,441 659,453 660,459 660,459 661,460 661,455 662,448 662,447 663,456 664,467 664,469 665,458 665,446 666,433 666,448 667,447 667,452 668,451 668,464 669,475 669,479 670,475 671,477 671,471 672,464 672,475 673,467 673,466 674,461 674,459 675,448 675,433 676,425 676,426 677,441 678,435 678,420 679,420 679,422 680,417 680,408 681,431 681,430 682,424 682,424 683,410 683,404 684,413 685,407 685,408 686,408 686,403 687,395 687,389 688,413 688,418 689,425 689,346 690,347 690,336 691,340 692,340 692,332 693,343 693,354 694,356 694,330 695,324 695,325 696,323 696,322 697,311 697,319 698,331 699,343 699,353 700,347 700,342 701,338 701,350 702,350 702,352 703,322 703,315 704,325 704,318 705,311 705,320 706,338 707,341 707,341 708,341 708,328 709,328 709,328 710,323 710,338 711,341 711,348 712,354 712,345 713,347 714,333 714,334 715,347 715,341 716,334 716,336 717,334 717,339 718,334 718,337 719,345 719,359 720,348 721,314 721,315 722,310 722,310 723,313 723,321 724,316 724,301 725,290 725,285 726,291 726,304 727,294 728,294 728,289 729,290 729,280 730,295 730,297 731,307 731,306 732,297 732,301 733,303 733,313 734,306 735,309 735,320 736,322 736,312 737,310 737,305 738,291 738,290 739,291 739,291 740,298 740,292 741,297 742,307 742,309 743,309 743,306 744,296 744,294 745,301 745,295 746,282 746,280 747,288 747,288 748,280 748,277 749,277 750,279 750,282 751,309 751,310 752,302 752,300 753,319 753,326 754,326 754,317 755,305 755,307 756,313 757,308 757,309 758,310 758,309 759,314 759,309 760,308 760,290 761,286 761,263 762,258 762,266 763,277 764,262 764,263 765,274 765,271 766,277 766,274 767,274 767,266 768,261 768,260 769,279 769,267 770,259 771,252 771,256 772,266 772,258 773,249 773,248 774,258 774,266 775,284 775,304 776,309 776,305 777,308 778,314 778,308 779,315 779,324 780,341 780,328 781,324 781,318 782,322 782,300 783,296 783,291 784,287 785,293 785,301 786,303 786,304 787,298 787,297 788,291 788,282 789,270 789,285 790,291 790,305 791,323 791,331 792,347 793,343 793,335 794,320 794,320 795,302 795,303 796,298 796,287 797,286 797,293 798,285 798,282 799,277 800,264 800,265 801,276 801,274 802,268 802,260 803,257 803,260 804,255 804,254 805,256 805,265 806,279 807,280 807,268 808,258 808,252 809,245 809,258 810,258 810,259 811,271 811,271 812,269 812,265 813,273 814,283 814,287 815,284 815,276 816,283 816,281 817,276 817,279 818,277 818,273 819,261 819,262 820,275 821,285 821,257 822,254 822,254 823,243 823,227 824,228 824,232 825,239 825,232 826,233 826,241 827,246 828,244 828,259 829,275 829,277 830,276 830,265 831,261 831,262 832,262 832,263 833,263 833,268 834,289 834,293 835,305 836,313 836,330 837,345 837,349 838,352 838,336 839,328 839,310 840,305 840,300 841,305 841,294 842,286 843,278 843,279 844,262 844,253 845,248 845,253 846,240 846,244 847,250 847,243 848,250 848,232 849,234 850,243 850,249 851,252 851,253 852,270 852,273 853,270 853,269 854,261 854,258 855,253 855,257 856,257 857,256 857,244 858,244 858,251 859,254 859,238 860,239 860,252 861,250 861,237 862,237 862,225 863,224 864,215 864,210 865,223 865,220 866,227 866,228 867,218 867,237 868,241 868,236 869,232 869,222 870,225 871,231 871,236 872,249 872,252 873,252 873,258 874,242 874,244 875,263 875,259 876,260 876,257 877,261 877,251 878,231 879,220 879,216 880,218 880,219 881,225 881,235 882,228 882,232 883,218 883,222 884,219 884,222 885,225 886,221 886,220 887,224 887,211 888,208 888,209 889,195 889,183 890,178 890,175 891,186 891,177 892,170 893,166 893,155 894,153 894,154 895,163 895,153 896,156 896,155 897,167 897,159 898,161 898,164 899,179 900,174 900,179 901,193 901,195 902,198 902,213 903,200 903,201 904,208 904,200 905,189 905,205 906,216 907,221 907,199 908,193 908,198 909,210 909,204 910,204 910,224 911,229 911,218 912,218 912,218 913,211 914,208 914,209 915,206 915,206 916,214 916,209 917,213 917,195 918,183 918,180 919,202 919,189 920,190 920,183 921,195 922,204 922,201 923,206 923,208 924,202 924,194 925,174 925,153 926,155 926,173 927,184 927,184 928,195 929,192 929,199 930,190 930,175 931,168 931,163 932,166 932,178 933,182 933,179 934,175 934,163 935,168 936,185 936,199 937,207 937,209 938,215 938,219 939,205 939,207 940,200 940,194 941,184 941,193 942,194 943,193 943,194 944,180 944,164 945,169 945,154 946,158 946,149 947,145 947,141 948,129 948,129 949,127 950,123 950,114 951,115 951,110 952,119 952,133 953,125 953,137 954,141 954,161 955,158 955,162 956,171 956,164 957,160 958,155 958,148 959,150 959,140 960,147 960,144 961,132 961,127 962,112 962,114 963,112 963,113 964,129 965,131 965,129 966,121 966,107 967,101 967,103 968,124 968,139 969,135 969,129 970,119 970,117 971,115 972,122 972,113 973,75 973,68 973,699 974,699 "/>
<line opacity="0.1" stroke="#000000" stroke-width="1" x1="85" y1="699" x2="85" y2="67"/>
<line opacity="0.1" stroke="#000000" stroke-width="1" x1="103" y1="699" x2="103" y2="67"/>
<line opacity="0.1" stroke="#000000" stroke-width="1" x1="121" y1="699" x2="121" y2="67"/>
<line opacity="0.1" stroke="#000000" stroke-width="1" x1="139" y1="699" x2="139" y2="67"/>
<line opacity="0.1" stroke="#000000" stroke-width="1" x1="157" y1="699" x2="157" y2="67"/>
<line opacity="0.1" stroke="#000000" stroke-width="1" x1="174" y1="699" x2="174" y2="67"/>
<line opacity="0.1" stroke="#000000" stroke-width="1" x1="192" y1="699" x2="192" y2="67"/>
<line opacity="0.1" stroke="#000000" stroke-width="1" x1="210" y1="699" x2="210" y2="67"/>
<line opacity="0.1" stroke="#000000" stroke-width="1" x1="228" y1="699" x2="228" y2="67"/>
<line opacity="0.1" stroke="#000000" stroke-width="1" x1="246" y1="699" x2="246" y2="67"/>
<line opacity="0.1" stroke="#000000" stroke-width="1" x1="264" y1="699" x2="264" y2="67"/>
<line opacity="0.1" stroke="#000000" stroke-width="1" x1="282" y1="699" x2="282" y2="67"/>
<line opacity="0.1" stroke="#000000" stroke-width="1" x1="300" y1="699" x2="300" y2="67"/>
<line opacity="0.1" stroke="#000000" stroke-width="1" x1="318" y1="699" x2="318" y2="67"/>
<line opacity="0.1" stroke="#000000" stroke-width="1" x1="336" y1="699" x2="336" y2="67"/>
<line opacity="0.1" stroke="#000000" stroke-width="1" x1="354" y1="699" x2="354" y2="67"/>
<line opacity="0.1" stroke="#000000" stroke-width="1" x1="372" y1="699" x2="372" y2="67"/>
<line opacity="0.1" stroke="#000000" stroke-width="1" x1="389" y1="699" x2="389" y2="67"/>
<line opacity="0.1" stroke="#000000" stroke-width="1" x1="407" y1="699" x2="407" y2="67"/>
<line opacity="0.1" stroke="#000000" stroke-width="1" x1="425" y1="699" x2="425" y2="67"/>
<line opacity="0.1" stroke="#000000" stroke-width="1" x1="443" y1="699" x2="443" y2="67"/>
<line opacity="0.1" stroke="#000000" stroke-width="1" x1="461" y1="699" x2="461" y2="67"/>
<line opacity="0.1" stroke="#000000" stroke-width="1" x1="479" y1="699" x2="479" y2="67"/>
<line opacity="0.1" stroke="#000000" stroke-width="1" x1="497" y1="699" x2="497" y2="67"/>
<line opacity="0.1" stroke="#000000" stroke-width="1" x1="515" y1="699" x2="515" y2="67"/>
<line opacity="0.1" stroke="#000000" stroke-width="1" x1="533" y1="699" x2="533" y2="67"/>
<line opacity="0.1" stroke="#000000" stroke-width="1" x1="551" y1="699" x2="551" y2="67"/>
<line opacity="0.1" stroke="#000000" stroke-width="1" x1="569" y1="699" x2="569" y2="67"/>
<line opacity="0.1" stroke="#000000" stroke-width="1" x1="587" y1="699" x2="587" y2="67"/>
<line opacity="0.1" stroke="#000000" stroke-width="1" x1="604" y1="699" x2="604" y2="67"/>
<line opacity="0.1" stroke="#000000" stroke-width="1" x1="622" y1="699" x2="622" y2="67"/>
<line opacity="0.1" stroke="#000000" stroke-width="1" x1="640" y1="699" x2="640" y2="67"/>
<line opacity="0.1" stroke="#000000" stroke-width="1" x1="658" y1="699" x2="658" y2="67"/>
<line opacity="0.1" stroke="#000000" stroke-width="1" x1="676" y1="699" x2="676" y2="67"/>
<line opacity="0.1" stroke="#000000" stroke-width="1" x1="694" y1="699" x2="694" y2="67"/>
<line opacity="0.1" stroke="#000000" stroke-width="1" x1="712" y1="699" x2="712" y2="67"/>
<line opacity="0.1" stroke="#000000" stroke-width="1" x1="730" y1="699" x2="730" y2="67"/>
<line opacity="0.1" stroke="#000000" stroke-width="1" x1="748" y1="699" x2="748" y2="67"/>
<line opacity="0.1" stroke="#000000" stroke-width="1" x1="766" y1="699" x2="766" y2="67"/>
<line opacity="0.1" stroke="#000000" stroke-width="1" x1="784" y1="699" x2="784" y2="67"/>
<line opacity="0.1" stroke="#000000" stroke-width="1" x1="802" y1="699" x2="802" y2="67"/>
<line opacity="0.1" stroke="#000000" stroke-width="1" x1="819" y1="699" x2="819" y2="67"/>
<line opacity="0.1" stroke="#000000" stroke-width="1" x1="837" y1="699" x2="837" y2="67"/>
<line opacity="0.1" stroke="#000000" stroke-width="1" x1="855" y1="699" x2="855" y2="67"/>
<line opacity="0.1" stroke="#000000" stroke-width="1" x1="873" y1="699" x2="873" y2="67"/>
<line opacity="0.1" stroke="#000000" stroke-width="1" x1="891" y1="699" x2="891" y2="67"/>
<line opacity="0.1" stroke="#000000" stroke-width="1" x1="909" y1="699" x2="909" y2="67"/>
<line opacity="0.1" stroke="#000000" stroke-width="1" x1="927" y1="699" x2="927" y2="67"/>
<line opacity="0.1" stroke="#000000" stroke-width="1" x1="945" y1="699" x2="945" y2="67"/>
<line opacity="0.1" stroke="#000000" stroke-width="1" x1="963" y1="699" x2="963" y2="67"/>
<line opacity="0.1" stroke="#000000" stroke-width="1" x1="78" y1="699" x2="974" y2="699"/>
<line opacity="0.1" stroke="#000000" stroke-width="1" x1="78" y1="686" x2="974" y2="686"/>
<line opacity="0.1" stroke="#000000" stroke-width="1" x1="78" y1="674" x2="974" y2="674"/>
<line opacity="0.1" stroke="#000000" stroke-width="1" x1="78" y1="662" x2="974" y2="662"/>
<line opacity="0.1" stroke="#000000" stroke-width="1" x1="78" y1="650" x2="974" y2="650"/>
<line opacity="0.1" stroke="#000000" stroke-width="1" x1="78" y1="638" x2="974" y2="638"/>
<line opacity="0.1" stroke="#000000" stroke-width="1" x1="78" y1="626" x2="974" y2="626"/>
<line opacity="0.1" stroke="#000000" stroke-width="1" x1="78" y1="614" x2="974" y2="614"/>
<line opacity="0.1" stroke="#000000" stroke-width="1" x1="78" y1="602" x2="974" y2="602"/>
<line opacity="0.1" stroke="#000000" stroke-width="1" x1="78" y1="590" x2="974" y2="590"/>
<line opacity="0.1" stroke="#000000" stroke-width="1" x1="78" y1="578" x2="974" y2="578"/>
<line opacity="0.1" stroke="#000000" stroke-width="1" x1="78" y1="566" x2="974" y2="566"/>
<line opacity="0.1" stroke="#000000" stroke-width="1" x1="78" y1="554" x2="974" y2="554"/>
<line opacity="0.1" stroke="#000000" stroke-width="1" x1="78" y1="542" x2="974" y2="542"/>
<line opacity="0.1" stroke="#000000" stroke-width="1" x1="78" y1="530" x2="974" y2="530"/>
<line opacity="0.1" stroke="#000000" stroke-width="1" x1="78" y1="518" x2="974" y2="518"/>
<line opacity="0.1" stroke="#000000" stroke-width="1" x1="78" y1="505" x2="974" y2="505"/>
<line opacity="0.1" stroke="#000000" stroke-width="1" x1="78" y1="493" x2="974" y2="493"/>
<line opacity="0.1" stroke="#000000" stroke-width="1" x1="78" y1="481" x2="974" y2="481"/>
<line opacity="0.1" stroke="#000000" stroke-width="1" x1="78" y1="469" x2="974" y2="469"/>
<line opacity="0.1" stroke="#000000" stroke-width="1" x1="78" y1="457" x2="974" y2="457"/>
<line opacity="0.1" stroke="#000000" stroke-width="1" x1="78" y1="445" x2="974" y2="445"/>
<line opacity="0.1" stroke="#000000" stroke-width="1" x1="78" y1="433" x2="974" y2="433"/>
<line opacity="0.1" stroke="#000000" stroke-width="1" x1="78" y1="421" x2="974" y2="421"/>
<line opacity="0.1" stroke="#000000" stroke-width="1" x1="78" y1="409" x2="974" y2="409"/>
<line opacity="0.1" stroke="#000000" stroke-width="1" x1="78" y1="397" x2="974" y2="397"/>
<line opacity="0.1" stroke="#000000" stroke-width="1" x1="78" y1="385" x2="974" y2="385"/>
<line opacity="0.1" stroke="#000000" stroke-width="1" x1="78" y1="373" x2="974" y2="373"/>
<line opacity="0.1" stroke="#000000" stroke-width="1" x1="78" y1="361" x2="974" y2="361"/>
<line opacity="0.1" stroke="#000000" stroke-width="1" x1="78" y1="349" x2="974" y2="349"/>
<line opacity="0.1" stroke="#000000" stroke-width="1" x1="78" y1="337" x2="974" y2="337"/>
<line opacity="0.1" stroke="#000000" stroke-width="1" x1="78" y1="324" x2="974" y2="324"/>
<line opacity="0.1" stroke="#000000" stroke-width="1" x1="78" y1="312" x2="974" y2="312"/>
<line opacity="0.1" stroke="#000000" stroke-width="1" x1="78" y1="300" x2="974" y2="300"/>
<line opacity="0.1" stroke="#000000" stroke-width="1" x1="78" y1="288" x2="974" y2="288"/>
<line opacity="0.1" stroke="#000000" stroke-width="1" x1="78" y1="276" x2="974" y2="276"/>
<line opacity="0.1" stroke="#000000" stroke-width="1" x1="78" y1="264" x2="974" y2="264"/>
<line opacity="0.1" stroke="#000000" stroke-width="1" x1="78" y1="252" x2="974" y2="252"/>
<line opacity="0.1" stroke="#000000" stroke-width="1" x1="78" y1="240" x2="974" y2="240"/>
<line opacity="0.1" stroke="#000000" stroke-width="1" x1="78" y1="228" x2="974" y2="228"/>
<line opacity="0.1" stroke="#000000" stroke-width="1" x1="78" y1="216" x2="974" y2="216"/>
<line opacity="0.1" stroke="#000000" stroke-width="1" x1="78" y1="204" x2="974" y2="204"/>
<line opacity="0.1" stroke="#000000" stroke-width="1" x1="78" y1="192" x2="974" y2="192"/>
<line opacity="0.1" stroke="#000000" stroke-width="1" x1="78" y1="180" x2="974" y2="180"/>
<line opacity="0.1" stroke="#000000" stroke-width="1" x1="78" y1="168" x2="974" y2="168"/>
<line opacity="0.1" stroke="#000000" stroke-width="1" x1="78" y1="156" x2="974" y2="156"/>
<line opacity="0.1" stroke="#000000" stroke-width="1" x1="78" y1="143" x2="974" y2="143"/>
<line opacity="0.1" stroke="#000000" stroke-width="1" x1="78" y1="131" x2="974" y2="131"/>
<line opacity="0.1" stroke="#000000" stroke-width="1" x1="78" y1="119" x2="974" y2="119"/>
<line opacity="0.1" stroke="#000000" stroke-width="1" x1="78" y1="107" x2="974" y2="107"/>
<line opacity="0.1" stroke="#000000" stroke-width="1" x1="78" y1="95" x2="974" y2="95"/>
<line opacity="0.1" stroke="#000000" stroke-width="1" x1="78" y1="83" x2="974" y2="83"/>
<line opacity="0.1" stroke="#000000" stroke-width="1" x1="78" y1="71" x2="974" y2="71"/>
<text x="8" y="384" dy="0.76em" text-anchor="middle" font-family="sans-serif" font-size="9.67741935483871" opacity="1" fill="#000000" transform="rotate(270, 8, 384)">
Memory usage
</text>
<text x="526" y="760" dy="-0.5ex" text-anchor="middle" font-family="sans-serif" font-size="9.67741935483871" opacity="1" fill="#000000">
Time
</text>
<line opacity="0.2" stroke="#000000" stroke-width="1" x1="192" y1="699" x2="192" y2="67"/>
<line opacity="0.2" stroke="#000000" stroke-width="1" x1="372" y1="699" x2="372" y2="67"/>
<line opacity="0.2" stroke="#000000" stroke-width="1" x1="551" y1="699" x2="551" y2="67"/>
<line opacity="0.2" stroke="#000000" stroke-width="1" x1="730" y1="699" x2="730" y2="67"/>
<line opacity="0.2" stroke="#000000" stroke-width="1" x1="909" y1="699" x2="909" y2="67"/>
<line opacity="0.2" stroke="#000000" stroke-width="1" x1="78" y1="699" x2="974" y2="699"/>
<line opacity="0.2" stroke="#000000" stroke-width="1" x1="78" y1="578" x2="974" y2="578"/>
<line opacity="0.2" stroke="#000000" stroke-width="1" x1="78" y1="457" x2="974" y2="457"/>
<line opacity="0.2" stroke="#000000" stroke-width="1" x1="78" y1="337" x2="974" y2="337"/>
<line opacity="0.2" stroke="#000000" stroke-width="1" x1="78" y1="216" x2="974" y2="216"/>
<line opacity="0.2" stroke="#000000" stroke-width="1" x1="78" y1="95" x2="974" y2="95"/>
<polyline fill="none" opacity="1" stroke="#000000" stroke-width="1" points="77,68 77,700 "/>
<text x="68" y="699" dy="0.5ex" text-anchor="end" font-family="sans-serif" font-size="9.67741935483871" opacity="1" fill="#000000">
0 KB
</text>
<polyline fill="none" opacity="1" stroke="#000000" stroke-width="1" points="72,699 77,699 "/>
<text x="68" y="578" dy="0.5ex" text-anchor="end" font-family="sans-serif" font-size="9.67741935483871" opacity="1" fill="#000000">
97 KB
</text>
<polyline fill="none" opacity="1" stroke="#000000" stroke-width="1" points="72,578 77,578 "/>
<text x="68" y="457" dy="0.5ex" text-anchor="end" font-family="sans-serif" font-size="9.67741935483871" opacity="1" fill="#000000">
195 KB
</text>
<polyline fill="none" opacity="1" stroke="#000000" stroke-width="1" points="72,457 77,457 "/>
<text x="68" y="337" dy="0.5ex" text-anchor="end" font-family="sans-serif" font-size="9.67741935483871" opacity="1" fill="#000000">
292 KB
</text>
<polyline fill="none" opacity="1" stroke="#000000" stroke-width="1" points="72,337 77,337 "/>
<text x="68" y="216" dy="0.5ex" text-anchor="end" font-family="sans-serif" font-size="9.67741935483871" opacity="1" fill="#000000">
390 KB
</text>
<polyline fill="none" opacity="1" stroke="#000000" stroke-width="1" points="72,216 77,216 "/>
<text x="68" y="95" dy="0.5ex" text-anchor="end" font-family="sans-serif" font-size="9.67741935483871" opacity="1" fill="#000000">
488 KB
</text>
<polyline fill="none" opacity="1" stroke="#000000" stroke-width="1" points="72,95 77,95 "/>
<polyline fill="none" opacity="1" stroke="#000000" stroke-width="1" points="78,700 974,700 "/>
<text x="192" y="710" dy="0.76em" text-anchor="middle" font-family="sans-serif" font-size="9.67741935483871" opacity="1" fill="#000000">
06:26:08
</text>
<polyline fill="none" opacity="1" stroke="#000000" stroke-width="1" points="192,700 192,705 "/>
<text x="372" y="710" dy="0.76em" text-anchor="middle" font-family="sans-serif" font-size="9.67741935483871" opacity="1" fill="#000000">
06:26:10
</text>
<polyline fill="none" opacity="1" stroke="#000000" stroke-width="1" points="372,700 372,705 "/>
<text x="551" y="710" dy="0.76em" text-anchor="middle" font-family="sans-serif" font-size="9.67741935483871" opacity="1" fill="#000000">
06:26:12
</text>
<polyline fill="none" opacity="1" stroke="#000000" stroke-width="1" points="551,700 551,705 "/>
<text x="730" y="710" dy="0.76em" text-anchor="middle" font-family="sans-serif" font-size="9.67741935483871" opacity="1" fill="#000000">
06:26:14
</text>
<polyline fill="none" opacity="1" stroke="#000000" stroke-width="1" points="730,700 730,705 "/>
<text x="909" y="710" dy="0.76em" text-anchor="middle" font-family="sans-serif" font-size="9.67741935483871" opacity="1" fill="#000000">
06:26:16
</text>
<polyline fill="none" opacity="1" stroke="#000000" stroke-width="1" points="909,700 909,705 "/>
<polyline fill="none" opacity="1" stroke="#000000" stroke-width="1" points="78,67 974,67 "/>
<text x="192" y="58" dy="-0.5ex" text-anchor="middle" font-family="sans-serif" font-size="9.67741935483871" opacity="1" fill="#000000">
+1s
</text>
<polyline fill="none" opacity="1" stroke="#000000" stroke-width="1" points="192,62 192,67 "/>
<text x="372" y="58" dy="-0.5ex" text-anchor="middle" font-family="sans-serif" font-size="9.67741935483871" opacity="1" fill="#000000">
+3s
</text>
<polyline fill="none" opacity="1" stroke="#000000" stroke-width="1" points="372,62 372,67 "/>
<text x="551" y="58" dy="-0.5ex" text-anchor="middle" font-family="sans-serif" font-size="9.67741935483871" opacity="1" fill="#000000">
+5s
</text>
<polyline fill="none" opacity="1" stroke="#000000" stroke-width="1" points="551,62 551,67 "/>
<text x="730" y="58" dy="-0.5ex" text-anchor="middle" font-family="sans-serif" font-size="9.67741935483871" opacity="1" fill="#000000">
+7s
</text>
<polyline fill="none" opacity="1" stroke="#000000" stroke-width="1" points="730,62 730,67 "/>
<text x="909" y="58" dy="-0.5ex" text-anchor="middle" font-family="sans-serif" font-size="9.67741935483871" opacity="1" fill="#000000">
+9s
</text>
<polyline fill="none" opacity="1" stroke="#000000" stroke-width="1" points="909,62 909,67 "/>
</svg>
