<svg width="1024" height="768" viewBox="0 0 1024 768" xmlns="http://www.w3.org/2000/svg">
<rect x="0" y="0" width="1023" height="767" opacity="1" fill="#FFFFFF" stroke="none"/>
<polygon opacity="1" fill="#3CB44B" points="107,684 108,684 109,680 109,680 110,678 111,676 112,676 113,673 114,672 115,671 115,667 116,666 117,662 118,658 119,656 120,653 121,652 122,652 122,652 123,649 124,647 125,647 126,643 127,641 128,641 128,641 129,639 130,637 131,636 132,636 133,633 134,633 135,631 135,630 136,628 137,627 138,626 139,625 140,625 141,623 141,621 142,621 143,620 144,617 145,617 146,617 147,616 148,615 148,615 149,614 150,611 151,610 152,609 153,609 154,607 154,606 155,604 156,601 157,601 158,600 159,599 160,599 160,598 161,597 162,596 163,595 164,594 165,594 166,592 167,592 167,590 168,587 169,585 170,583 171,583 172,581 173,579 173,578 174,573 175,571 176,566 177,565 178,563 179,560 180,558 180,557 181,557 182,556 183,556 184,553 185,553 186,550 186,547 187,546 188,544 189,542 190,541 191,538 192,535 193,534 193,531 194,530 195,527 196,526 197,524 198,524 199,523 199,523 200,521 201,520 202,518 203,517 204,517 205,515 206,512 206,506 207,503 208,500 209,499 210,499 211,496 212,494 212,493 213,491 214,490 215,488 216,486 217,486 218,484 219,484 219,483 220,482 221,481 222,479 223,479 224,478 225,477 225,477 226,475 227,475 228,475 229,473 230,471 231,471 232,471 232,468 233,468 234,466 235,464 236,463 237,462 238,460 238,459 239,458 240,458 241,456 242,452 243,452 244,452 245,450 245,450 246,446 247,446 248,444 249,444 250,441 251,440 251,440 252,439 253,438 254,438 255,438 256,436 257,435 258,434 258,432 259,431 260,429 261,429 262,424 263,423 264,423 264,422 265,422 266,418 267,417 268,417 269,417 270,413 271,411 271,410 272,407 273,406 274,406 275,403 276,399 277,398 277,396 278,395 279,394 280,393 281,392 282,390 283,390 284,385 284,385 285,383 286,383 287,383 288,380 289,380 290,377 290,376 291,373 292,373 293,373 294,371 295,371 296,369 297,369 297,367 298,366 299,366 300,366 301,366 302,365 303,364 303,361 304,359 305,357 306,357 307,357 308,357 309,354 310,351 310,349 311,348 312,346 313,345 314,344 315,342 316,337 316,335 317,335 318,334 319,333 320,332 321,327 322,325 323,323 323,319 324,319 325,316 326,315 327,313 328,313 329,308 329,308 330,307 331,307 332,305 333,305 334,304 335,304 335,303 336,302 337,301 338,300 339,299 340,298 341,297 342,295 342,293 343,291 344,289 345,289 346,288 347,288 348,285 348,283 349,279 350,277 351,276 352,276 353,276 354,276 355,275 355,275 356,273 357,273 358,272 359,269 360,269 361,269 361,269 362,267 363,267 364,267 365,265 366,265 367,265 368,263 368,262 369,262 370,261 371,259 372,258 373,258 374,258 374,258 375,257 376,256 377,254 378,252 379,250 380,250 381,250 381,249 382,246 383,243 384,241 385,240 386,240 387,239 387,238 388,237 389,237 390,235 391,234 392,234 393,234 394,234 394,234 395,234 396,233 397,230 398,228 399,227 400,223 400,221 401,221 402,220 403,218 404,217 405,213 406,213 407,213 407,212 408,210 409,208 410,206 411,205 412,202 413,202 413,202 414,200 415,198 416,197 417,197 418,197 419,192 420,190 420,190 421,190 422,189 423,189 424,189 425,188 426,188 426,186 427,184 428,181 429,179 430,178 431,177 432,177 433,176 433,174 434,174 435,173 436,173 437,171 438,171 439,171 439,169 440,167 441,167 442,165 443,164 444,164 445,162 446,161 446,160 447,158 448,158 449,157 450,155 451,155 452,155 452,154 453,154 454,152 455,152 456,151 457,149 458,147 459,147 459,147 460,145 461,145 462,142 463,140 464,140 465,139 465,135 466,134 467,132 468,132 469,132 470,131 471,131 472,129 472,128 473,126 474,125 475,123 476,122 477,121 478,120 478,119 479,119 480,119 481,116 482,116 483,116 484,116 485,114 485,114 486,113 487,112 488,112 489,111 490,109 491,107 491,107 492,107 493,106 494,103 495,103 496,101 497,99 497,99 498,99 499,98 500,98 501,96 502,96 503,95 504,94 504,93 505,92 506,89 507,86 508,86 509,86 510,86 510,85 511,84 512,84 513,83 514,80 515,80 516,79 517,78 517,77 518,77 519,76 520,75 521,75 522,73 523,72 523,71 524,71 525,70 526,69 527,69 528,70 529,69 530,70 530,70 531,70 532,70 533,70 534,70 535,70 536,70 536,69 537,70 538,69 539,71 540,71 541,70 542,70 543,70 543,70 544,70 545,70 546,70 547,70 548,70 549,70 549,70 550,69 551,70 552,69 553,68 554,70 555,70 556,70 556,70 557,70 558,70 559,68 560,69 561,69 562,70 562,70 563,70 564,70 565,70 566,68 567,68 568,70 569,70 569,70 570,70 571,70 572,71 573,70 574,70 575,69 575,70 576,70 577,69 578,71 579,71 580,70 581,70 582,70 582,71 583,70 584,70 585,69 586,69 587,70 588,70 588,70 589,70 590,71 591,70 592,70 593,70 594,69 595,69 595,71 596,70 597,70 598,70 599,69 600,69 601,69 601,70 602,70 603,70 604,70 605,70 606,71 607,71 608,71 608,71 609,70 610,71 611,70 612,70 613,70 614,71 614,71 615,71 616,71 617,71 618,71 619,71 620,70 621,70 621,69 622,69 623,69 624,71 625,68 626,70 627,70 627,70 628,70 629,70 630,70 631,70 632,71 633,71 634,71 634,71 635,70 636,69 637,70 638,70 639,70 640,69 640,68 641,71 642,70 643,70 644,70 645,70 646,70 647,69 647,69 648,71 649,70 650,70 651,70 652,70 653,71 653,70 654,71 655,70 656,71 657,70 658,70 659,71 659,70 660,70 661,68 662,68 663,68 664,71 665,71 666,71 666,70 667,71 668,71 669,69 670,69 671,71 672,71 672,70 673,70 674,70 675,70 676,70 677,70 678,69 679,70 679,71 680,71 681,70 682,71 683,71 684,70 685,70 685,70 686,70 687,71 688,71 689,70 690,71 691,70 692,70 692,69 693,69 694,69 695,71 696,71 697,71 698,71 698,70 699,69 700,71 701,71 702,71 703,70 704,69 705,69 705,70 706,70 707,70 708,70 709,71 710,70 711,70 711,71 712,71 713,71 714,69 715,68 716,70 717,69 718,69 718,70 719,70 720,70 721,70 722,69 723,69 724,69 724,69 725,71 726,70 727,70 728,70 729,70 730,70 731,70 731,69 732,68 733,71 734,70 735,70 736,70 737,71 737,71 738,71 739,71 740,70 741,70 742,70 743,71 744,71 744,71 745,71 746,70 747,70 748,71 749,69 750,70 750,70 751,71 752,69 753,71 754,70 755,71 756,71 757,71 757,71 758,70 759,70 760,70 761,70 762,70 763,70 763,71 764,70 765,71 766,71 767,71 768,71 769,71 770,70 770,71 771,71 772,71 773,71 774,70 775,70 776,70 776,70 777,71 778,69 779,70 780,70 781,69 782,69 783,71 783,71 784,70 785,69 786,69 787,70 788,68 789,71 789,70 790,70 791,71 792,71 793,71 794,68 795,70 796,69 796,71 797,71 798,70 799,69 800,68 801,68 802,68 802,71 803,70 804,70 805,70 806,72 807,71 808,71 809,71 809,71 810,71 811,71 812,71 813,70 814,71 815,71 815,71 816,68 817,68 818,68 819,68 820,70 821,70 822,70 822,70 823,70 824,70 825,69 826,72 827,71 828,71 828,71 829,70 830,72 831,72 832,72 833,71 834,71 834,70 835,70 836,70 837,70 838,69 839,69 840,69 841,68 841,69 842,70 843,70 844,71 845,71 846,71 847,71 847,71 848,70 849,70 850,69 851,69 852,71 853,70 854,69 854,70 855,70 856,69 857,69 858,69 859,70 860,70 860,70 861,70 862,70 863,70 864,70 865,70 866,68 867,70 867,68 868,70 869,70 870,70 871,70 872,69 873,71 873,69 874,69 875,70 876,69 877,69 878,68 879,70 880,71 880,71 881,71 882,70 883,70 884,70 885,70 886,70 886,70 887,70 888,71 889,71 890,71 891,71 892,71 893,70 893,70 894,70 895,69 896,69 897,69 898,69 899,69 899,69 900,69 901,69 902,69 903,70 904,70 905,70 906,70 906,70 907,69 908,71 909,71 910,70 911,68 912,70 912,70 913,70 914,69 915,68 916,71 917,70 918,71 919,71 919,71 920,70 921,70 922,70 923,70 924,70 925,70 925,70 926,70 927,70 928,71 929,70 930,70 931,70 932,70 932,68 933,68 934,70 935,68 936,69 937,68 938,68 938,68 939,68 940,68 941,70 942,71 943,71 944,71 945,70 945,68 946,68 947,70 948,69 949,71 950,71 951,69 951,69 952,70 953,71 954,71 955,70 956,70 957,70 958,69 958,69 959,69 960,69 961,71 962,71 963,71 964,71 964,70 965,71 966,69 967,69 968,69 969,68 970,68 971,68 971,70 972,68 973,70 973,70 974,70 974,699 107,699 "/>
<polyline fill="none" opacity="1" stroke="#3CB44B" stroke-width="1" points="107,684 108,684 109,680 109,680 110,678 111,676 112,676 113,673 114,672 115,671 115,667 116,666 117,662 118,658 119,656 120,653 121,652 122,652 122,652 123,649 124,647 125,647 126,643 127,641 128,641 128,641 129,639 130,637 131,636 132,636 133,633 134,633 135,631 135,630 136,628 137,627 138,626 139,625 140,625 141,623 141,621 142,621 143,620 144,617 145,617 146,617 147,616 148,615 148,615 149,614 150,611 151,610 152,609 153,609 154,607 154,606 155,604 156,601 157,601 158,600 159,599 160,599 160,598 161,597 162,596 163,595 164,594 165,594 166,592 167,592 167,590 168,587 169,585 170,583 171,583 172,581 173,579 173,578 174,573 175,571 176,566 177,565 178,563 179,560 180,558 180,557 181,557 182,556 183,556 184,553 185,553 186,550 186,547 187,546 188,544 189,542 190,541 191,538 192,535 193,534 193,531 194,530 195,527 196,526 197,524 198,524 199,523 199,523 200,521 201,520 202,518 203,517 204,517 205,515 206,512 206,506 207,503 208,500 209,499 210,499 211,496 212,494 212,493 213,491 214,490 215,488 216,486 217,486 218,484 219,484 219,483 220,482 221,481 222,479 223,479 224,478 225,477 225,477 226,475 227,475 228,475 229,473 230,471 231,471 232,471 232,468 233,468 234,466 235,464 236,463 237,462 238,460 238,459 239,458 240,458 241,456 242,452 243,452 244,452 245,450 245,450 246,446 247,446 248,444 249,444 250,441 251,440 251,440 252,439 253,438 254,438 255,438 256,436 257,435 258,434 258,432 259,431 260,429 261,429 262,424 263,423 264,423 264,422 265,422 266,418 267,417 268,417 269,417 270,413 271,411 271,410 272,407 273,406 274,406 275,403 276,399 277,398 277,396 278,395 279,394 280,393 281,392 282,390 283,390 284,385 284,385 285,383 286,383 287,383 288,380 289,380 290,377 290,376 291,373 292,373 293,373 294,371 295,371 296,369 297,369 297,367 298,366 299,366 300,366 301,366 302,365 303,364 303,361 304,359 305,357 306,357 307,357 308,357 309,354 310,351 310,349 311,348 312,346 313,345 314,344 315,342 316,337 316,335 317,335 318,334 319,333 320,332 321,327 322,325 323,323 323,319 324,319 325,316 326,315 327,313 328,313 329,308 329,308 330,307 331,307 332,305 333,305 334,304 335,304 335,303 336,302 337,301 338,300 339,299 340,298 341,297 342,295 342,293 343,291 344,289 345,289 346,288 347,288 348,285 348,283 349,279 350,277 351,276 352,276 353,276 354,276 355,275 355,275 356,273 357,273 358,272 359,269 360,269 361,269 361,269 362,267 363,267 364,267 365,265 366,265 367,265 368,263 368,262 369,262 370,261 371,259 372,258 373,258 374,258 374,258 375,257 376,256 377,254 378,252 379,250 380,250 381,250 381,249 382,246 383,243 384,241 385,240 386,240 387,239 387,238 388,237 389,237 390,235 391,234 392,234 393,234 394,234 394,234 395,234 396,233 397,230 398,228 399,227 400,223 400,221 401,221 402,220 403,218 404,217 405,213 406,213 407,213 407,212 408,210 409,208 410,206 411,205 412,202 413,202 413,202 414,200 415,198 416,197 417,197 418,197 419,192 420,190 420,190 421,190 422,189 423,189 424,189 425,188 426,188 426,186 427,184 428,181 429,179 430,178 431,177 432,177 433,176 433,174 434,174 435,173 436,173 437,171 438,171 439,171 439,169 440,167 441,167 442,165 443,164 444,164 445,162 446,161 446,160 447,158 448,158 449,157 450,155 451,155 452,155 452,154 453,154 454,152 455,152 456,151 457,149 458,147 459,147 459,147 460,145 461,145 462,142 463,140 464,140 465,139 465,135 466,134 467,132 468,132 469,132 470,131 471,131 472,129 472,128 473,126 474,125 475,123 476,122 477,121 478,120 478,119 479,119 480,119 481,116 482,116 483,116 484,116 485,114 485,114 486,113 487,112 488,112 489,111 490,109 491,107 491,107 492,107 493,106 494,103 495,103 496,101 497,99 497,99 498,99 499,98 500,98 501,96 502,96 503,95 504,94 504,93 505,92 506,89 507,86 508,86 509,86 510,86 510,85 511,84 512,84 513,83 514,80 515,80 516,79 517,78 517,77 518,77 519,76 520,75 521,75 522,73 523,72 523,71 524,71 525,70 526,69 527,69 528,70 529,69 530,70 530,70 531,70 532,70 533,70 534,70 535,70 536,70 536,69 537,70 538,69 539,71 540,71 541,70 542,70 543,70 543,70 544,70 545,70 546,70 547,70 548,70 549,70 549,70 550,69 551,70 552,69 553,68 554,70 555,70 556,70 556,70 557,70 558,70 559,68 560,69 561,69 562,70 562,70 563,70 564,70 565,70 566,68 567,68 568,70 569,70 569,70 570,70 571,70 572,71 573,70 574,70 575,69 575,70 576,70 577,69 578,71 579,71 580,70 581,70 582,70 582,71 583,70 584,70 585,69 586,69 587,70 588,70 588,70 589,70 590,71 591,70 592,70 593,70 594,69 595,69 595,71 596,70 597,70 598,70 599,69 600,69 601,69 601,70 602,70 603,70 604,70 605,70 606,71 607,71 608,71 608,71 609,70 610,71 611,70 612,70 613,70 614,71 614,71 615,71 616,71 617,71 618,71 619,71 620,70 621,70 621,69 622,69 623,69 624,71 625,68 626,70 627,70 627,70 628,70 629,70 630,70 631,70 632,71 633,71 634,71 634,71 635,70 636,69 637,70 638,70 639,70 640,69 640,68 641,71 642,70 643,70 644,70 645,70 646,70 647,69 647,69 648,71 649,70 650,70 651,70 652,70 653,71 653,70 654,71 655,70 656,71 657,70 658,70 659,71 659,70 660,70 661,68 662,68 663,68 664,71 665,71 666,71 666,70 667,71 668,71 669,69 670,69 671,71 672,71 672,70 673,70 674,70 675,70 676,70 677,70 678,69 679,70 679,71 680,71 681,70 682,71 683,71 684,70 685,70 685,70 686,70 687,71 688,71 689,70 690,71 691,70 692,70 692,69 693,69 694,69 695,71 696,71 697,71 698,71 698,70 699,69 700,71 701,71 702,71 703,70 704,69 705,69 705,70 706,70 707,70 708,70 709,71 710,70 711,70 711,71 712,71 713,71 714,69 715,68 716,70 717,69 718,69 718,70 719,70 720,70 721,70 722,69 723,69 724,69 724,69 725,71 726,70 727,70 728,70 729,70 730,70 731,70 731,69 732,68 733,71 734,70 735,70 736,70 737,71 737,71 738,71 739,71 740,70 741,70 742,70 743,71 744,71 744,71 745,71 746,70 747,70 748,71 749,69 750,70 750,70 751,71 752,69 753,71 754,70 755,71 756,71 757,71 757,71 758,70 759,70 760,70 761,70 762,70 763,70 763,71 764,70 765,71 766,71 767,71 768,71 769,71 770,70 770,71 771,71 772,71 773,71 774,70 775,70 776,70 776,70 777,71 778,69 779,70 780,70 781,69 782,69 783,71 783,71 784,70 785,69 786,69 787,70 788,68 789,71 789,70 790,70 791,71 792,71 793,71 794,68 795,70 796,69 796,71 797,71 798,70 799,69 800,68 801,68 802,68 802,71 803,70 804,70 805,70 806,72 807,71 808,71 809,71 809,71 810,71 811,71 812,71 813,70 814,71 815,71 815,71 816,68 817,68 818,68 819,68 820,70 821,70 822,70 822,70 823,70 824,70 825,69 826,72 827,71 828,71 828,71 829,70 830,72 831,72 832,72 833,71 834,71 834,70 835,70 836,70 837,70 838,69 839,69 840,69 841,68 841,69 842,70 843,70 844,71 845,71 846,71 847,71 847,71 848,70 849,70 850,69 851,69 852,71 853,70 854,69 854,70 855,70 856,69 857,69 858,69 859,70 860,70 860,70 861,70 862,70 863,70 864,70 865,70 866,68 867,70 867,68 868,70 869,70 870,70 871,70 872,69 873,71 873,69 874,69 875,70 876,69 877,69 878,68 879,70 880,71 880,71 881,71 882,70 883,70 884,70 885,70 886,70 886,70 887,70 888,71 889,71 890,71 891,71 892,71 893,70 893,70 894,70 895,69 896,69 897,69 898,69 899,69 899,69 900,69 901,69 902,69 903,70 904,70 905,70 906,70 906,70 907,69 908,71 909,71 910,70 911,68 912,70 912,70 913,70 914,69 915,68 916,71 917,70 918,71 919,71 919,71 920,70 921,70 922,70 923,70 924,70 925,70 925,70 926,70 927,70 928,71 929,70 930,70 931,70 932,70 932,68 933,68 934,70 935,68 936,69 937,68 938,68 938,68 939,68 940,68 941,70 942,71 943,71 944,71 945,70 945,68 946,68 947,70 948,69 949,71 950,71 951,69 951,69 952,70 953,71 954,71 955,70 956,70 957,70 958,69 958,69 959,69 960,69 961,71 962,71 963,71 964,71 964,70 965,71 966,69 967,69 968,69 969,68 970,68 971,68 971,70 972,68 973,70 973,70 974,70 "/>
<polygon opacity="1" fill="#E6194B" points="107,690 108,690 109,689 109,689 110,688 111,687 112,687 113,687 114,685 115,685 115,683 116,683 117,680 118,677 119,677 120,675 121,675 122,675 122,675 123,674 124,673 125,673 126,672 127,672 128,672 128,672 129,670 130,668 131,668 132,668 133,666 134,666 135,664 135,664 136,664 137,664 138,663 139,663 140,663 141,662 141,662 142,662 143,662 144,661 145,661 146,661 147,661 148,661 148,661 149,661 150,660 151,659 152,659 153,659 154,659 154,659 155,658 156,656 157,656 158,655 159,655 160,655 160,655 161,655 162,654 163,653 164,653 165,653 166,652 167,652 167,649 168,646 169,644 170,644 171,644 172,644 173,643 173,643 174,643 175,642 176,638 177,638 178,638 179,635 180,635 180,634 181,634 182,634 183,634 184,634 185,634 186,634 186,633 187,633 188,631 189,630 190,630 191,630 192,628 193,628 193,626 194,625 195,624 196,623 197,623 198,622 199,622 199,622 200,622 201,620 202,620 203,620 204,620 205,620 206,619 206,616 207,613 208,612 209,612 210,612 211,610 212,608 212,607 213,607 214,606 215,606 216,604 217,604 218,604 219,604 219,604 220,604 221,604 222,604 223,604 224,604 225,603 225,603 226,601 227,601 228,601 229,601 230,599 231,599 232,599 232,598 233,598 234,597 235,596 236,595 237,595 238,594 238,594 239,594 240,594 241,594 242,594 243,594 244,594 245,594 245,594 246,592 247,592 248,591 249,591 250,591 251,591 251,590 252,590 253,590 254,590 255,590 256,589 257,589 258,589 258,589 259,589 260,589 261,589 262,583 263,583 264,583 264,583 265,583 266,581 267,581 268,581 269,581 270,580 271,580 271,579 272,577 273,576 274,576 275,575 276,573 277,573 277,571 278,570 279,569 280,569 281,569 282,568 283,568 284,568 284,568 285,568 286,568 287,568 288,566 289,566 290,564 290,564 291,562 292,561 293,561 294,560 295,559 296,559 297,559 297,559 298,559 299,559 300,559 301,559 302,559 303,559 303,557 304,556 305,555 306,555 307,555 308,555 309,554 310,554 310,554 311,553 312,552 313,552 314,552 315,551 316,549 316,548 317,548 318,548 319,548 320,547 321,544 322,543 323,542 323,539 324,539 325,538 326,538 327,536 328,536 329,535 329,535 330,535 331,535 332,535 333,535 334,535 335,535 335,534 336,534 337,534 338,532 339,532 340,532 341,531 342,530 342,529 343,529 344,528 345,528 346,528 347,528 348,528 348,527 349,526 350,526 351,526 352,525 353,525 354,525 355,525 355,525 356,524 357,524 358,522 359,520 360,520 361,520 361,520 362,520 363,520 364,520 365,519 366,519 367,519 368,518 368,518 369,518 370,518 371,518 372,518 373,518 374,518 374,517 375,517 376,517 377,515 378,514 379,514 380,514 381,514 381,514 382,513 383,513 384,512 385,511 386,511 387,511 387,510 388,510 389,510 390,509 391,509 392,509 393,509 394,509 394,509 395,509 396,509 397,507 398,505 399,504 400,503 400,503 401,503 402,503 403,503 404,503 405,501 406,501 407,501 407,500 408,498 409,498 410,496 411,496 412,496 413,496 413,496 414,493 415,493 416,493 417,493 418,493 419,491 420,491 420,491 421,491 422,490 423,490 424,490 425,490 426,490 426,489 427,487 428,487 429,486 430,486 431,486 432,486 433,486 433,486 434,486 435,486 436,486 437,484 438,484 439,484 439,483 440,483 441,483 442,481 443,480 444,480 445,479 446,478 446,478 447,477 448,477 449,477 450,477 451,477 452,477 452,477 453,477 454,476 455,476 456,476 457,476 458,475 459,475 459,475 460,474 461,474 462,474 463,472 464,472 465,472 465,471 466,470 467,470 468,470 469,470 470,470 471,470 472,469 472,469 473,469 474,469 475,467 476,466 477,465 478,465 478,465 479,465 480,465 481,464 482,464 483,464 484,464 485,461 485,461 486,461 487,461 488,461 489,461 490,461 491,460 491,460 492,460 493,460 494,459 495,459 496,459 497,458 497,458 498,458 499,457 500,457 501,457 502,457 503,456 504,456 504,456 505,456 506,454 507,454 508,454 509,454 510,454 510,454 511,452 512,452 513,452 514,450 515,450 516,449 517,449 517,449 518,449 519,449 520,449 521,449 522,448 523,447 523,447 524,447 525,445 526,444 527,444 528,444 529,442 530,442 530,441 531,441 532,441 533,441 534,441 535,441 536,441 536,440 537,439 538,437 539,437 540,437 541,437 542,437 543,437 543,437 544,437 545,436 546,436 547,436 548,436 549,436 549,436 550,434 551,434 552,432 553,431 554,431 555,430 556,430 556,430 557,430 558,430 559,427 560,426 561,426 562,425 562,425 563,425 564,425 565,425 566,423 567,423 568,423 569,423 569,421 570,421 571,420 572,420 573,419 574,418 575,417 575,416 576,416 577,414 578,413 579,413 580,413 581,413 582,413 582,412 583,412 584,412 585,411 586,410 587,410 588,409 588,409 589,409 590,408 591,407 592,407 593,407 594,406 595,404 595,404 596,404 597,403 598,402 599,401 600,401 601,400 601,399 602,399 603,399 604,399 605,399 606,398 607,398 608,397 608,396 609,396 610,396 611,395 612,394 613,393 614,392 614,392 615,392 616,392 617,392 618,392 619,392 620,390 621,390 621,387 622,386 623,385 624,385 625,383 626,382 627,382 627,380 628,380 629,380 630,380 631,379 632,379 633,379 634,379 634,379 635,377 636,377 637,377 638,376 639,375 640,374 640,372 641,372 642,371 643,371 644,371 645,369 646,368 647,367 647,365 648,365 649,364 650,364 651,364 652,364 653,364 653,362 654,362 655,362 656,362 657,361 658,361 659,361 659,360 660,360 661,357 662,357 663,357 664,357 665,355 666,355 666,355 667,355 668,354 669,352 670,352 671,352 672,352 672,352 673,351 674,351 675,351 676,351 677,351 678,350 679,349 679,349 680,349 681,349 682,349 683,349 684,349 685,349 685,349 686,349 687,348 688,347 689,347 690,346 691,345 692,345 692,342 693,342 694,340 695,339 696,339 697,338 698,338 698,335 699,333 700,332 701,332 702,332 703,331 704,329 705,329 705,328 706,327 707,326 708,326 709,326 710,324 711,323 711,323 712,323 713,323 714,321 715,320 716,319 717,317 718,316 718,316 719,315 720,315 721,314 722,311 723,309 724,309 724,308 725,308 726,307 727,307 728,305 729,304 730,304 731,304 731,302 732,301 733,301 734,299 735,299 736,298 737,298 737,298 738,296 739,296 740,296 741,296 742,296 743,294 744,294 744,294 745,293 746,292 747,292 748,292 749,291 750,290 750,290 751,290 752,288 753,288 754,288 755,288 756,287 757,287 757,287 758,287 759,287 760,286 761,285 762,285 763,285 763,284 764,283 765,283 766,283 767,283 768,283 769,283 770,281 770,279 771,279 772,279 773,279 774,278 775,277 776,275 776,274 777,273 778,270 779,269 780,268 781,266 782,265 783,265 783,264 784,264 785,262 786,262 787,262 788,259 789,258 789,257 790,255 791,254 792,254 793,254 794,251 795,250 796,248 796,248 797,248 798,247 799,245 800,243 801,243 802,243 802,243 803,242 804,242 805,240 806,239 807,238 808,238 809,237 809,237 810,236 811,236 812,235 813,235 814,235 815,235 815,234 816,231 817,226 818,223 819,223 820,222 821,222 822,222 822,222 823,220 824,220 825,219 826,219 827,218 828,217 828,217 829,216 830,216 831,216 832,216 833,216 834,216 834,214 835,214 836,214 837,214 838,213 839,212 840,212 841,212 841,210 842,209 843,208 844,207 845,207 846,207 847,206 847,206 848,204 849,204 850,202 851,202 852,201 853,201 854,199 854,197 855,197 856,195 857,195 858,195 859,193 860,193 860,193 861,193 862,191 863,191 864,191 865,190 866,188 867,187 867,182 868,180 869,180 870,180 871,179 872,179 873,178 873,176 874,174 875,173 876,170 877,170 878,170 879,170 880,169 880,169 881,168 882,168 883,168 884,166 885,165 886,163 886,162 887,162 888,161 889,161 890,160 891,160 892,160 893,159 893,159 894,158 895,156 896,156 897,156 898,156 899,155 899,155 900,155 901,155 902,155 903,155 904,153 905,153 906,153 906,153 907,153 908,152 909,152 910,151 911,148 912,148 912,148 913,147 914,146 915,141 916,140 917,139 918,138 919,138 919,138 920,137 921,137 922,135 923,134 924,134 925,133 925,133 926,133 927,133 928,132 929,132 930,130 931,129 932,129 932,126 933,123 934,123 935,120 936,118 937,115 938,115 938,115 939,115 940,114 941,113 942,112 943,112 944,112 945,111 945,108 946,107 947,105 948,103 949,102 950,102 951,100 951,99 952,97 953,96 954,95 955,93 956,93 957,93 958,92 958,91 959,90 960,90 961,89 962,89 963,89 964,89 964,88 965,88 966,84 967,83 968,80 969,76 970,76 971,76 971,75 972,72 973,70 973,70 974,70 974,699 107,699 "/>
<polyline fill="none" opacity="1" stroke="#E6194B" stroke-width="1" points="107,690 108,690 109,689 109,689 110,688 111,687 112,687 113,687 114,685 115,685 115,683 116,683 117,680 118,677 119,677 120,675 121,675 122,675 122,675 123,674 124,673 125,673 126,672 127,672 128,672 128,672 129,670 130,668 131,668 132,668 133,666 134,666 135,664 135,664 136,664 137,664 138,663 139,663 140,663 141,662 141,662 142,662 143,662 144,661 145,661 146,661 147,661 148,661 148,661 149,661 150,660 151,659 152,659 153,659 154,659 154,659 155,658 156,656 157,656 158,655 159,655 160,655 160,655 161,655 162,654 163,653 164,653 165,653 166,652 167,652 167,649 168,646 169,644 170,644 171,644 172,644 173,643 173,643 174,643 175,642 176,638 177,638 178,638 179,635 180,635 180,634 181,634 182,634 183,634 184,634 185,634 186,634 186,633 187,633 188,631 189,630 190,630 191,630 192,628 193,628 193,626 194,625 195,624 196,623 197,623 198,622 199,622 199,622 200,622 201,620 202,620 203,620 204,620 205,620 206,619 206,616 207,613 208,612 209,612 210,612 211,610 212,608 212,607 213,607 214,606 215,606 216,604 217,604 218,604 219,604 219,604 220,604 221,604 222,604 223,604 224,604 225,603 225,603 226,601 227,601 228,601 229,601 230,599 231,599 232,599 232,598 233,598 234,597 235,596 236,595 237,595 238,594 238,594 239,594 240,594 241,594 242,594 243,594 244,594 245,594 245,594 246,592 247,592 248,591 249,591 250,591 251,591 251,590 252,590 253,590 254,590 255,590 256,589 257,589 258,589 258,589 259,589 260,589 261,589 262,583 263,583 264,583 264,583 265,583 266,581 267,581 268,581 269,581 270,580 271,580 271,579 272,577 273,576 274,576 275,575 276,573 277,573 277,571 278,570 279,569 280,569 281,569 282,568 283,568 284,568 284,568 285,568 286,568 287,568 288,566 289,566 290,564 290,564 291,562 292,561 293,561 294,560 295,559 296,559 297,559 297,559 298,559 299,559 300,559 301,559 302,559 303,559 303,557 304,556 305,555 306,555 307,555 308,555 309,554 310,554 310,554 311,553 312,552 313,552 314,552 315,551 316,549 316,548 317,548 318,548 319,548 320,547 321,544 322,543 323,542 323,539 324,539 325,538 326,538 327,536 328,536 329,535 329,535 330,535 331,535 332,535 333,535 334,535 335,535 335,534 336,534 337,534 338,532 339,532 340,532 341,531 342,530 342,529 343,529 344,528 345,528 346,528 347,528 348,528 348,527 349,526 350,526 351,526 352,525 353,525 354,525 355,525 355,525 356,524 357,524 358,522 359,520 360,520 361,520 361,520 362,520 363,520 364,520 365,519 366,519 367,519 368,518 368,518 369,518 370,518 371,518 372,518 373,518 374,518 374,517 375,517 376,517 377,515 378,514 379,514 380,514 381,514 381,514 382,513 383,513 384,512 385,511 386,511 387,511 387,510 388,510 389,510 390,509 391,509 392,509 393,509 394,509 394,509 395,509 396,509 397,507 398,505 399,504 400,503 400,503 401,503 402,503 403,503 404,503 405,501 406,501 407,501 407,500 408,498 409,498 410,496 411,496 412,496 413,496 413,496 414,493 415,493 416,493 417,493 418,493 419,491 420,491 420,491 421,491 422,490 423,490 424,490 425,490 426,490 426,489 427,487 428,487 429,486 430,486 431,486 432,486 433,486 433,486 434,486 435,486 436,486 437,484 438,484 439,484 439,483 440,483 441,483 442,481 443,480 444,480 445,479 446,478 446,478 447,477 448,477 449,477 450,477 451,477 452,477 452,477 453,477 454,476 455,476 456,476 457,476 458,475 459,475 459,475 460,474 461,474 462,474 463,472 464,472 465,472 465,471 466,470 467,470 468,470 469,470 470,470 471,470 472,469 472,469 473,469 474,469 475,467 476,466 477,465 478,465 478,465 479,465 480,465 481,464 482,464 483,464 484,464 485,461 485,461 486,461 487,461 488,461 489,461 490,461 491,460 491,460 492,460 493,460 494,459 495,459 496,459 497,458 497,458 498,458 499,457 500,457 501,457 502,457 503,456 504,456 504,456 505,456 506,454 507,454 508,454 509,454 510,454 510,454 511,452 512,452 513,452 514,450 515,450 516,449 517,449 517,449 518,449 519,449 520,449 521,449 522,448 523,447 523,447 524,447 525,445 526,444 527,444 528,444 529,442 530,442 530,441 531,441 532,441 533,441 534,441 535,441 536,441 536,440 537,439 538,437 539,437 540,437 541,437 542,437 543,437 543,437 544,437 545,436 546,436 547,436 548,436 549,436 549,436 550,434 551,434 552,432 553,431 554,431 555,430 556,430 556,430 557,430 558,430 559,427 560,426 561,426 562,425 562,425 563,425 564,425 565,425 566,423 567,423 568,423 569,423 569,421 570,421 571,420 572,420 573,419 574,418 575,417 575,416 576,416 577,414 578,413 579,413 580,413 581,413 582,413 582,412 583,412 584,412 585,411 586,410 587,410 588,409 588,409 589,409 590,408 591,407 592,407 593,407 594,406 595,404 595,404 596,404 597,403 598,402 599,401 600,401 601,400 601,399 602,399 603,399 604,399 605,399 606,398 607,398 608,397 608,396 609,396 610,396 611,395 612,394 613,393 614,392 614,392 615,392 616,392 617,392 618,392 619,392 620,390 621,390 621,387 622,386 623,385 624,385 625,383 626,382 627,382 627,380 628,380 629,380 630,380 631,379 632,379 633,379 634,379 634,379 635,377 636,377 637,377 638,376 639,375 640,374 640,372 641,372 642,371 643,371 644,371 645,369 646,368 647,367 647,365 648,365 649,364 650,364 651,364 652,364 653,364 653,362 654,362 655,362 656,362 657,361 658,361 659,361 659,360 660,360 661,357 662,357 663,357 664,357 665,355 666,355 666,355 667,355 668,354 669,352 670,352 671,352 672,352 672,352 673,351 674,351 675,351 676,351 677,351 678,350 679,349 679,349 680,349 681,349 682,349 683,349 684,349 685,349 685,349 686,349 687,348 688,347 689,347 690,346 691,345 692,345 692,342 693,342 694,340 695,339 696,339 697,338 698,338 698,335 699,333 700,332 701,332 702,332 703,331 704,329 705,329 705,328 706,327 707,326 708,326 709,326 710,324 711,323 711,323 712,323 713,323 714,321 715,320 716,319 717,317 718,316 718,316 719,315 720,315 721,314 722,311 723,309 724,309 724,308 725,308 726,307 727,307 728,305 729,304 730,304 731,304 731,302 732,301 733,301 734,299 735,299 736,298 737,298 737,298 738,296 739,296 740,296 741,296 742,296 743,294 744,294 744,294 745,293 746,292 747,292 748,292 749,291 750,290 750,290 751,290 752,288 753,288 754,288 755,288 756,287 757,287 757,287 758,287 759,287 760,286 761,285 762,285 763,285 763,284 764,283 765,283 766,283 767,283 768,283 769,283 770,281 770,279 771,279 772,279 773,279 774,278 775,277 776,275 776,274 777,273 778,270 779,269 780,268 781,266 782,265 783,265 783,264 784,264 785,262 786,262 787,262 788,259 789,258 789,257 790,255 791,254 792,254 793,254 794,251 795,250 796,248 796,248 797,248 798,247 799,245 800,243 801,243 802,243 802,243 803,242 804,242 805,240 806,239 807,238 808,238 809,237 809,237 810,236 811,236 812,235 813,235 814,235 815,235 815,234 816,231 817,226 818,223 819,223 820,222 821,222 822,222 822,222 823,220 824,220 825,219 826,219 827,218 828,217 828,217 829,216 830,216 831,216 832,216 833,216 834,216 834,214 835,214 836,214 837,214 838,213 839,212 840,212 841,212 841,210 842,209 843,208 844,207 845,207 846,207 847,206 847,206 848,204 849,204 850,202 851,202 852,201 853,201 854,199 854,197 855,197 856,195 857,195 858,195 859,193 860,193 860,193 861,193 862,191 863,191 864,191 865,190 866,188 867,187 867,182 868,180 869,180 870,180 871,179 872,179 873,178 873,176 874,174 875,173 876,170 877,170 878,170 879,170 880,169 880,169 881,168 882,168 883,168 884,166 885,165 886,163 886,162 887,162 888,161 889,161 890,160 891,160 892,160 893,159 893,159 894,158 895,156 896,156 897,156 898,156 899,155 899,155 900,155 901,155 902,155 903,155 904,153 905,153 906,153 906,153 907,153 908,152 909,152 910,151 911,148 912,148 912,148 913,147 914,146 915,141 916,140 917,139 918,138 919,138 919,138 920,137 921,137 922,135 923,134 924,134 925,133 925,133 926,133 927,133 928,132 929,132 930,130 931,129 932,129 932,126 933,123 934,123 935,120 936,118 937,115 938,115 938,115 939,115 940,114 941,113 942,112 943,112 944,112 945,111 945,108 946,107 947,105 948,103 949,102 950,102 951,100 951,99 952,97 953,96 954,95 955,93 956,93 957,93 958,92 958,91 959,90 960,90 961,89 962,89 963,89 964,89 964,88 965,88 966,84 967,83 968,80 969,76 970,76 971,76 971,75 972,72 973,70 973,70 974,70 "/>
<line opacity="0.1" stroke="#000000" stroke-width="1" x1="85" y1="699" x2="85" y2="67"/>
<line opacity="0.1" stroke="#000000" stroke-width="1" x1="103" y1="699" x2="103" y2="67"/>
<line opacity="0.1" stroke="#000000" stroke-width="1" x1="121" y1="699" x2="121" y2="67"/>
<line opacity="0.1" stroke="#000000" stroke-width="1" x1="139" y1="699" x2="139" y2="67"/>
<line opacity="0.1" stroke="#000000" stroke-width="1" x1="157" y1="699" x2="157" y2="67"/>
<line opacity="0.1" stroke="#000000" stroke-width="1" x1="174" y1="699" x2="174" y2="67"/>
<line opacity="0.1" stroke="#000000" stroke-width="1" x1="192" y1="699" x2="192" y2="67"/>
<line opacity="0.1" stroke="#000000" stroke-width="1" x1="210" y1="699" x2="210" y2="67"/>
<line opacity="0.1" stroke="#000000" stroke-width="1" x1="228" y1="699" x2="228" y2="67"/>
<line opacity="0.1" stroke="#000000" stroke-width="1" x1="246" y1="699" x2="246" y2="67"/>
<line opacity="0.1" stroke="#000000" stroke-width="1" x1="264" y1="699" x2="264" y2="67"/>
<line opacity="0.1" stroke="#000000" stroke-width="1" x1="282" y1="699" x2="282" y2="67"/>
<line opacity="0.1" stroke="#000000" stroke-width="1" x1="300" y1="699" x2="300" y2="67"/>
<line opacity="0.1" stroke="#000000" stroke-width="1" x1="318" y1="699" x2="318" y2="67"/>
<line opacity="0.1" stroke="#000000" stroke-width="1" x1="336" y1="699" x2="336" y2="67"/>
<line opacity="0.1" stroke="#000000" stroke-width="1" x1="354" y1="699" x2="354" y2="67"/>
<line opacity="0.1" stroke="#000000" stroke-width="1" x1="372" y1="699" x2="372" y2="67"/>
<line opacity="0.1" stroke="#000000" stroke-width="1" x1="389" y1="699" x2="389" y2="67"/>
<line opacity="0.1" stroke="#000000" stroke-width="1" x1="407" y1="699" x2="407" y2="67"/>
<line opacity="0.1" stroke="#000000" stroke-width="1" x1="425" y1="699" x2="425" y2="67"/>
<line opacity="0.1" stroke="#000000" stroke-width="1" x1="443" y1="699" x2="443" y2="67"/>
<line opacity="0.1" stroke="#000000" stroke-width="1" x1="461" y1="699" x2="461" y2="67"/>
<line opacity="0.1" stroke="#000000" stroke-width="1" x1="479" y1="699" x2="479" y2="67"/>
<line opacity="0.1" stroke="#000000" stroke-width="1" x1="497" y1="699" x2="497" y2="67"/>
<line opacity="0.1" stroke="#000000" stroke-width="1" x1="515" y1="699" x2="515" y2="67"/>
<line opacity="0.1" stroke="#000000" stroke-width="1" x1="533" y1="699" x2="533" y2="67"/>
<line opacity="0.1" stroke="#000000" stroke-width="1" x1="551" y1="699" x2="551" y2="67"/>
<line opacity="0.1" stroke="#000000" stroke-width="1" x1="569" y1="699" x2="569" y2="67"/>
<line opacity="0.1" stroke="#000000" stroke-width="1" x1="587" y1="699" x2="587" y2="67"/>
<line opacity="0.1" stroke="#000000" stroke-width="1" x1="604" y1="699" x2="604" y2="67"/>
<line opacity="0.1" stroke="#000000" stroke-width="1" x1="622" y1="699" x2="622" y2="67"/>
<line opacity="0.1" stroke="#000000" stroke-width="1" x1="640" y1="699" x2="640" y2="67"/>
<line opacity="0.1" stroke="#000000" stroke-width="1" x1="658" y1="699" x2="658" y2="67"/>
<line opacity="0.1" stroke="#000000" stroke-width="1" x1="676" y1="699" x2="676" y2="67"/>
<line opacity="0.1" stroke="#000000" stroke-width="1" x1="694" y1="699" x2="694" y2="67"/>
<line opacity="0.1" stroke="#000000" stroke-width="1" x1="712" y1="699" x2="712" y2="67"/>
<line opacity="0.1" stroke="#000000" stroke-width="1" x1="730" y1="699" x2="730" y2="67"/>
<line opacity="0.1" stroke="#000000" stroke-width="1" x1="748" y1="699" x2="748" y2="67"/>
<line opacity="0.1" stroke="#000000" stroke-width="1" x1="766" y1="699" x2="766" y2="67"/>
<line opacity="0.1" stroke="#000000" stroke-width="1" x1="784" y1="699" x2="784" y2="67"/>
<line opacity="0.1" stroke="#000000" stroke-width="1" x1="802" y1="699" x2="802" y2="67"/>
<line opacity="0.1" stroke="#000000" stroke-width="1" x1="819" y1="699" x2="819" y2="67"/>
<line opacity="0.1" stroke="#000000" stroke-width="1" x1="837" y1="699" x2="837" y2="67"/>
<line opacity="0.1" stroke="#000000" stroke-width="1" x1="855" y1="699" x2="855" y2="67"/>
<line opacity="0.1" stroke="#000000" stroke-width="1" x1="873" y1="699" x2="873" y2="67"/>
<line opacity="0.1" stroke="#000000" stroke-width="1" x1="891" y1="699" x2="891" y2="67"/>
<line opacity="0.1" stroke="#000000" stroke-width="1" x1="909" y1="699" x2="909" y2="67"/>
<line opacity="0.1" stroke="#000000" stroke-width="1" x1="927" y1="699" x2="927" y2="67"/>
<line opacity="0.1" stroke="#000000" stroke-width="1" x1="945" y1="699" x2="945" y2="67"/>
<line opacity="0.1" stroke="#000000" stroke-width="1" x1="963" y1="699" x2="963" y2="67"/>
<line opacity="0.1" stroke="#000000" stroke-width="1" x1="78" y1="699" x2="974" y2="699"/>
<line opacity="0.1" stroke="#000000" stroke-width="1" x1="78" y1="686" x2="974" y2="686"/>
<line opacity="0.1" stroke="#000000" stroke-width="1" x1="78" y1="674" x2="974" y2="674"/>
<line opacity="0.1" stroke="#000000" stroke-width="1" x1="78" y1="662" x2="974" y2="662"/>
<line opacity="0.1" stroke="#000000" stroke-width="1" x1="78" y1="650" x2="974" y2="650"/>
<line opacity="0.1" stroke="#000000" stroke-width="1" x1="78" y1="638" x2="974" y2="638"/>
<line opacity="0.1" stroke="#000000" stroke-width="1" x1="78" y1="625" x2="974" y2="625"/>
<line opacity="0.1" stroke="#000000" stroke-width="1" x1="78" y1="613" x2="974" y2="613"/>
<line opacity="0.1" stroke="#000000" stroke-width="1" x1="78" y1="601" x2="974" y2="601"/>
<line opacity="0.1" stroke="#000000" stroke-width="1" x1="78" y1="589" x2="974" y2="589"/>
<line opacity="0.1" stroke="#000000" stroke-width="1" x1="78" y1="577" x2="974" y2="577"/>
<line opacity="0.1" stroke="#000000" stroke-width="1" x1="78" y1="564" x2="974" y2="564"/>
<line opacity="0.1" stroke="#000000" stroke-width="1" x1="78" y1="552" x2="974" y2="552"/>
<line opacity="0.1" stroke="#000000" stroke-width="1" x1="78" y1="540" x2="974" y2="540"/>
<line opacity="0.1" stroke="#000000" stroke-width="1" x1="78" y1="528" x2="974" y2="528"/>
<line opacity="0.1" stroke="#000000" stroke-width="1" x1="78" y1="516" x2="974" y2="516"/>
<line opacity="0.1" stroke="#000000" stroke-width="1" x1="78" y1="504" x2="974" y2="504"/>
<line opacity="0.1" stroke="#000000" stroke-width="1" x1="78" y1="491" x2="974" y2="491"/>
<line opacity="0.1" stroke="#000000" stroke-width="1" x1="78" y1="479" x2="974" y2="479"/>
<line opacity="0.1" stroke="#000000" stroke-width="1" x1="78" y1="467" x2="974" y2="467"/>
<line opacity="0.1" stroke="#000000" stroke-width="1" x1="78" y1="455" x2="974" y2="455"/>
<line opacity="0.1" stroke="#000000" stroke-width="1" x1="78" y1="443" x2="974" y2="443"/>
<line opacity="0.1" stroke="#000000" stroke-width="1" x1="78" y1="430" x2="974" y2="430"/>
<line opacity="0.1" stroke="#000000" stroke-width="1" x1="78" y1="418" x2="974" y2="418"/>
<line opacity="0.1" stroke="#000000" stroke-width="1" x1="78" y1="406" x2="974" y2="406"/>
<line opacity="0.1" stroke="#000000" stroke-width="1" x1="78" y1="394" x2="974" y2="394"/>
<line opacity="0.1" stroke="#000000" stroke-width="1" x1="78" y1="382" x2="974" y2="382"/>
<line opacity="0.1" stroke="#000000" stroke-width="1" x1="78" y1="369" x2="974" y2="369"/>
<line opacity="0.1" stroke="#000000" stroke-width="1" x1="78" y1="357" x2="974" y2="357"/>
<line opacity="0.1" stroke="#000000" stroke-width="1" x1="78" y1="345" x2="974" y2="345"/>
<line opacity="0.1" stroke="#000000" stroke-width="1" x1="78" y1="333" x2="974" y2="333"/>
<line opacity="0.1" stroke="#000000" stroke-width="1" x1="78" y1="321" x2="974" y2="321"/>
<line opacity="0.1" stroke="#000000" stroke-width="1" x1="78" y1="309" x2="974" y2="309"/>
<line opacity="0.1" stroke="#000000" stroke-width="1" x1="78" y1="296" x2="974" y2="296"/>
<line opacity="0.1" stroke="#000000" stroke-width="1" x1="78" y1="284" x2="974" y2="284"/>
<line opacity="0.1" stroke="#000000" stroke-width="1" x1="78" y1="272" x2="974" y2="272"/>
<line opacity="0.1" stroke="#000000" stroke-width="1" x1="78" y1="260" x2="974" y2="260"/>
<line opacity="0.1" stroke="#000000" stroke-width="1" x1="78" y1="248" x2="974" y2="248"/>
<line opacity="0.1" stroke="#000000" stroke-width="1" x1="78" y1="235" x2="974" y2="235"/>
<line opacity="0.1" stroke="#000000" stroke-width="1" x1="78" y1="223" x2="974" y2="223"/>
<line opacity="0.1" stroke="#000000" stroke-width="1" x1="78" y1="211" x2="974" y2="211"/>
<line opacity="0.1" stroke="#000000" stroke-width="1" x1="78" y1="199" x2="974" y2="199"/>
<line opacity="0.1" stroke="#000000" stroke-width="1" x1="78" y1="187" x2="974" y2="187"/>
<line opacity="0.1" stroke="#000000" stroke-width="1" x1="78" y1="175" x2="974" y2="175"/>
<line opacity="0.1" stroke="#000000" stroke-width="1" x1="78" y1="162" x2="974" y2="162"/>
<line opacity="0.1" stroke="#000000" stroke-width="1" x1="78" y1="150" x2="974" y2="150"/>
<line opacity="0.1" stroke="#000000" stroke-width="1" x1="78" y1="138" x2="974" y2="138"/>
<line opacity="0.1" stroke="#000000" stroke-width="1" x1="78" y1="126" x2="974" y2="126"/>
<line opacity="0.1" stroke="#000000" stroke-width="1" x1="78" y1="114" x2="974" y2="114"/>
<line opacity="0.1" stroke="#000000" stroke-width="1" x1="78" y1="101" x2="974" y2="101"/>
<line opacity="0.1" stroke="#000000" stroke-width="1" x1="78" y1="89" x2="974" y2="89"/>
<line opacity="0.1" stroke="#000000" stroke-width="1" x1="78" y1="77" x2="974" y2="77"/>
<text x="8" y="384" dy="0.76em" text-anchor="middle" font-family="sans-serif" font-size="9.67741935483871" opacity="1" fill="#000000" transform="rotate(270, 8, 384)">
Memory usage
</text>
<text x="526" y="760" dy="-0.5ex" text-anchor="middle" font-family="sans-serif" font-size="9.67741935483871" opacity="1" fill="#000000">
Time
</text>
<line opacity="0.2" stroke="#000000" stroke-width="1" x1="192" y1="699" x2="192" y2="67"/>
<line opacity="0.2" stroke="#000000" stroke-width="1" x1="372" y1="699" x2="372" y2="67"/>
<line opacity="0.2" stroke="#000000" stroke-width="1" x1="551" y1="699" x2="551" y2="67"/>
<line opacity="0.2" stroke="#000000" stroke-width="1" x1="730" y1="699" x2="730" y2="67"/>
<line opacity="0.2" stroke="#000000" stroke-width="1" x1="909" y1="699" x2="909" y2="67"/>
<line opacity="0.2" stroke="#000000" stroke-width="1" x1="78" y1="699" x2="974" y2="699"/>
<line opacity="0.2" stroke="#000000" stroke-width="1" x1="78" y1="577" x2="974" y2="577"/>
<line opacity="0.2" stroke="#000000" stroke-width="1" x1="78" y1="455" x2="974" y2="455"/>
<line opacity="0.2" stroke="#000000" stroke-width="1" x1="78" y1="333" x2="974" y2="333"/>
<line opacity="0.2" stroke="#000000" stroke-width="1" x1="78" y1="211" x2="974" y2="211"/>
<line opacity="0.2" stroke="#000000" stroke-width="1" x1="78" y1="89" x2="974" y2="89"/>
<polyline fill="none" opacity="1" stroke="#000000" stroke-width="1" points="77,68 77,700 "/>
<text x="68" y="699" dy="0.5ex" text-anchor="end" font-family="sans-serif" font-size="9.67741935483871" opacity="1" fill="#000000">
0.0 KB
</text>
<polyline fill="none" opacity="1" stroke="#000000" stroke-width="1" points="72,699 77,699 "/>
<text x="68" y="577" dy="0.5ex" text-anchor="end" font-family="sans-serif" font-size="9.67741935483871" opacity="1" fill="#000000">
9.8 KB
</text>
<polyline fill="none" opacity="1" stroke="#000000" stroke-width="1" points="72,577 77,577 "/>
<text x="68" y="455" dy="0.5ex" text-anchor="end" font-family="sans-serif" font-size="9.67741935483871" opacity="1" fill="#000000">
19.5 KB
</text>
<polyline fill="none" opacity="1" stroke="#000000" stroke-width="1" points="72,455 77,455 "/>
<text x="68" y="333" dy="0.5ex" text-anchor="end" font-family="sans-serif" font-size="9.67741935483871" opacity="1" fill="#000000">
29.3 KB
</text>
<polyline fill="none" opacity="1" stroke="#000000" stroke-width="1" points="72,333 77,333 "/>
<text x="68" y="211" dy="0.5ex" text-anchor="end" font-family="sans-serif" font-size="9.67741935483871" opacity="1" fill="#000000">
39.1 KB
</text>
<polyline fill="none" opacity="1" stroke="#000000" stroke-width="1" points="72,211 77,211 "/>
<text x="68" y="89" dy="0.5ex" text-anchor="end" font-family="sans-serif" font-size="9.67741935483871" opacity="1" fill="#000000">
48.8 KB
</text>
<polyline fill="none" opacity="1" stroke="#000000" stroke-width="1" points="72,89 77,89 "/>
<polyline fill="none" opacity="1" stroke="#000000" stroke-width="1" points="78,700 974,700 "/>
<text x="192" y="710" dy="0.76em" text-anchor="middle" font-family="sans-serif" font-size="9.67741935483871" opacity="1" fill="#000000">
06:26:08
</text>
<polyline fill="none" opacity="1" stroke="#000000" stroke-width="1" points="192,700 192,705 "/>
<text x="372" y="710" dy="0.76em" text-anchor="middle" font-family="sans-serif" font-size="9.67741935483871" opacity="1" fill="#000000">
06:26:10
</text>
<polyline fill="none" opacity="1" stroke="#000000" stroke-width="1" points="372,700 372,705 "/>
<text x="551" y="710" dy="0.76em" text-anchor="middle" font-family="sans-serif" font-size="9.67741935483871" opacity="1" fill="#000000">
06:26:12
</text>
<polyline fill="none" opacity="1" stroke="#000000" stroke-width="1" points="551,700 551,705 "/>
<text x="730" y="710" dy="0.76em" text-anchor="middle" font-family="sans-serif" font-size="9.67741935483871" opacity="1" fill="#000000">
06:26:14
</text>
<polyline fill="none" opacity="1" stroke="#000000" stroke-width="1" points="730,700 730,705 "/>
<text x="909" y="710" dy="0.76em" text-anchor="middle" font-family="sans-serif" font-size="9.67741935483871" opacity="1" fill="#000000">
06:26:16
</text>
<polyline fill="none" opacity="1" stroke="#000000" stroke-width="1" points="909,700 909,705 "/>
<polyline fill="none" opacity="1" stroke="#000000" stroke-width="1" points="78,67 974,67 "/>
<text x="192" y="58" dy="-0.5ex" text-anchor="middle" font-family="sans-serif" font-size="9.67741935483871" opacity="1" fill="#000000">
+1s
</text>
<polyline fill="none" opacity="1" stroke="#000000" stroke-width="1" points="192,62 192,67 "/>
<text x="372" y="58" dy="-0.5ex" text-anchor="middle" font-family="sans-serif" font-size="9.67741935483871" opacity="1" fill="#000000">
+3s
</text>
<polyline fill="none" opacity="1" stroke="#000000" stroke-width="1" points="372,62 372,67 "/>
<text x="551" y="58" dy="-0.5ex" text-anchor="middle" font-family="sans-serif" font-size="9.67741935483871" opacity="1" fill="#000000">
+5s
</text>
<polyline fill="none" opacity="1" stroke="#000000" stroke-width="1" points="551,62 551,67 "/>
<text x="730" y="58" dy="-0.5ex" text-anchor="middle" font-family="sans-serif" font-size="9.67741935483871" opacity="1" fill="#000000">
+7s
</text>
<polyline fill="none" opacity="1" stroke="#000000" stroke-width="1" points="730,62 730,67 "/>
<text x="909" y="58" dy="-0.5ex" text-anchor="middle" font-family="sans-serif" font-size="9.67741935483871" opacity="1" fill="#000000">
+9s
</text>
<polyline fill="none" opacity="1" stroke="#000000" stroke-width="1" points="909,62 909,67 "/>
<rect x="83" y="73" width="99" height="45" opacity="0.75" fill="#FFFFFF" stroke="none"/>
<rect x="83" y="73" width="99" height="45" opacity="1" fill="none" stroke="#000000"/>
<text x="123" y="83" dy="0.76em" text-anchor="start" font-family="sans-serif" font-size="9.67741935483871" opacity="1" fill="#000000">
Temporary
</text>
<text x="123" y="98" dy="0.76em" text-anchor="start" font-family="sans-serif" font-size="9.67741935483871" opacity="1" fill="#000000">
Leaked
</text>
<rect x="93" y="83" width="10" height="10" opacity="1" fill="#3CB44B" stroke="none"/>
<rect x="93" y="98" width="10" height="10" opacity="1" fill="#E6194B" stroke="none"/>
</svg>
