<svg width="1024" height="768" viewBox="0 0 1024 768" xmlns="http://www.w3.org/2000/svg">
<rect x="0" y="0" width="1024" height="768" opacity="1" fill="#FFFFFF" stroke="none"/>
<polygon opacity="1" fill="#E6194B" points="78,697 78,688 79,674 80,674 81,669 82,674 83,677 84,682 85,679 86,683 86,686 87,681 88,682 89,651 90,659 91,648 92,638 93,648 94,647 94,648 95,653 96,666 97,667 98,670 99,673 100,673 101,677 102,674 103,681 103,680 104,676 105,677 106,674 107,674 108,676 109,665 110,662 111,650 111,642 112,647 113,654 114,666 115,665 116,660 117,645 118,638 119,620 120,614 120,631 121,648 122,653 123,656 124,654 125,640 126,629 127,622 128,616 128,617 129,615 130,618 131,632 132,631 133,625 134,619 135,615 136,615 137,623 137,612 138,597 139,590 140,589 141,590 142,578 143,574 144,564 145,558 145,561 146,551 147,536 148,532 149,529 150,514 151,507 152,507 153,521 154,512 154,507 155,504 156,509 157,510 158,498 159,496 160,487 161,487 162,498 162,502 163,498 164,489 165,482 166,482 167,479 168,467 169,455 170,467 170,462 171,466 172,476 173,476 174,485 175,474 176,457 177,452 178,453 179,456 179,457 180,455 181,456 182,451 183,444 184,452 185,459 186,472 187,473 187,475 188,457 189,451 190,446 191,445 192,451 193,456 194,445 195,447 196,455 196,452 197,440 198,437 199,436 200,429 201,433 202,444 203,441 204,431 204,428 205,427 206,431 207,435 208,431 209,440 210,450 211,457 212,467 213,470 213,454 214,449 215,432 216,435 217,470 218,478 219,474 220,464 221,482 221,479 222,475 223,477 224,472 225,449 226,445 227,454 228,451 229,451 230,464 230,472 231,480 232,467 233,470 234,465 235,467 236,478 237,478 238,471 238,479 239,477 240,481 241,484 242,474 243,472 244,468 245,457 246,459 247,471 247,468 248,481 249,476 250,487 251,485 252,491 253,484 254,488 255,489 255,486 256,472 257,466 258,478 259,478 260,484 261,471 262,461 263,462 263,470 264,468 265,478 266,468 267,455 268,456 269,463 270,458 271,466 272,465 272,454 273,450 274,445 275,450 276,453 277,446 278,443 279,447 280,449 280,457 281,454 282,457 283,455 284,439 285,440 286,440 287,449 288,453 289,444 289,449 290,456 291,461 292,459 293,476 294,481 295,469 296,467 297,463 297,451 298,448 299,454 300,458 301,455 302,440 303,446 304,453 305,453 306,469 306,466 307,469 308,478 309,478 310,487 311,483 312,478 313,474 314,467 314,474 315,468 316,472 317,473 318,474 319,457 320,449 321,441 322,440 323,433 323,429 324,436 325,436 326,421 327,414 328,399 329,399 330,418 331,426 331,426 332,429 333,430 334,422 335,423 336,410 337,416 338,425 339,426 339,434 340,423 341,420 342,431 343,434 344,437 345,442 346,444 347,455 348,457 348,466 349,470 350,482 351,475 352,474 353,480 354,484 355,489 356,491 356,492 357,503 358,523 359,510 360,519 361,525 362,515 363,517 364,528 365,522 365,520 366,513 367,503 368,506 369,503 370,514 371,519 372,512 373,511 373,499 374,498 375,501 376,506 377,512 378,519 379,514 380,510 381,505 382,496 382,487 383,491 384,512 385,521 386,513 387,520 388,519 389,521 390,512 390,500 391,493 392,491 393,476 394,479 395,492 396,503 397,520 398,522 399,542 399,536 400,539 401,518 402,521 403,551 404,548 405,539 406,540 407,521 407,515 408,515 409,521 410,533 411,529 412,527 413,532 414,550 415,546 416,539 416,539 417,541 418,544 419,544 420,559 421,554 422,547 423,555 424,566 424,565 425,556 426,559 427,547 428,556 429,550 430,554 431,559 432,563 432,544 433,538 434,545 435,523 436,517 437,510 438,512 439,499 440,499 441,505 441,505 442,503 443,502 444,512 445,512 446,501 447,491 448,494 449,490 449,502 450,505 451,510 452,507 453,511 454,513 455,528 456,510 457,517 458,491 458,492 459,491 460,493 461,485 462,478 463,477 464,476 465,481 466,484 466,491 467,478 468,469 469,467 470,473 471,476 472,462 473,460 474,464 475,469 475,484 476,475 477,465 478,465 479,465 480,466 481,486 482,488 483,492 483,492 484,498 485,500 486,504 487,506 488,497 489,502 490,505 491,509 492,512 492,497 493,494 494,503 495,500 496,504 497,498 498,495 499,509 500,502 500,499 501,500 502,515 503,511 504,508 505,509 506,497 507,502 508,507 508,494 509,494 510,493 511,486 512,487 513,490 514,488 515,488 516,499 517,495 517,490 518,488 519,506 520,485 521,492 522,489 523,497 524,503 525,493 525,492 526,502 527,514 528,528 529,528 530,519 531,521 532,522 533,525 534,527 534,538 535,536 536,541 537,554 538,552 539,546 540,541 541,542 542,536 542,543 543,545 544,541 545,536 546,547 547,542 548,536 549,537 550,543 551,546 551,560 552,570 553,570 554,574 555,559 556,559 557,564 558,562 559,562 559,564 560,562 561,549 562,551 563,565 564,564 565,560 566,563 567,564 568,570 568,568 569,560 570,555 571,560 572,564 573,543 574,541 575,538 576,549 576,538 577,530 578,519 579,513 580,525 581,528 582,522 583,518 584,527 585,525 585,521 586,532 587,530 588,508 589,509 590,504 591,520 592,526 593,535 593,528 594,528 595,534 596,521 597,515 598,523 599,522 600,534 601,535 601,533 602,528 603,528 604,523 605,519 606,503 607,493 608,497 609,493 610,490 610,481 611,481 612,501 613,498 614,496 615,499 616,497 617,485 618,478 618,499 619,495 620,490 621,490 622,504 623,498 624,438 625,443 626,441 627,451 627,454 628,450 629,444 630,459 631,445 632,439 633,439 634,442 635,459 635,462 636,453 637,452 638,451 639,458 640,460 641,461 642,456 643,465 644,460 644,467 645,465 646,470 647,470 648,451 649,445 650,443 651,436 652,427 652,423 653,428 654,425 655,427 656,421 657,423 658,426 659,427 660,422 661,419 661,423 662,432 663,421 664,412 665,409 666,411 667,411 668,410 669,413 669,407 670,407 671,405 672,402 673,405 674,407 675,400 676,393 677,402 677,400 678,411 679,415 680,407 681,399 682,395 683,396 684,394 685,395 686,381 686,360 687,367 688,365 689,363 690,369 691,364 692,367 693,359 694,364 694,345 695,344 696,359 697,347 698,347 699,364 700,384 701,385 702,387 703,391 703,408 704,399 705,398 706,390 707,383 708,381 709,389 710,385 711,382 711,373 712,363 713,349 714,353 715,362 716,381 717,385 718,390 719,377 720,375 720,366 721,357 722,354 723,353 724,355 725,354 726,349 727,349 728,351 728,345 729,342 730,338 731,335 732,343 733,350 734,343 735,330 736,330 737,329 737,340 738,330 739,336 740,346 741,350 742,353 743,359 744,358 745,351 745,351 746,348 747,336 748,321 749,324 750,333 751,337 752,337 753,350 754,352 754,342 755,349 756,354 757,361 758,376 759,394 760,376 761,362 762,356 762,345 763,329 764,325 765,329 766,327 767,323 768,328 769,333 770,343 770,333 771,340 772,333 773,336 774,327 775,319 776,313 777,307 778,308 779,310 779,322 780,318 781,318 782,332 783,337 784,342 785,338 786,318 787,314 787,336 788,338 789,330 790,322 791,314 792,317 793,304 794,296 795,299 796,293 796,280 797,283 798,285 799,277 800,278 801,282 802,301 803,308 804,304 804,316 805,309 806,317 807,321 808,326 809,317 810,319 811,317 812,323 813,305 813,297 814,295 815,307 816,302 817,287 818,287 819,300 820,311 821,304 821,301 822,299 823,301 824,278 825,275 826,288 827,295 828,301 829,296 830,295 830,290 831,285 832,280 833,268 834,255 835,245 836,241 837,230 838,225 838,227 839,231 840,253 841,261 842,251 843,249 844,235 845,233 846,232 847,245 847,240 848,230 849,246 850,242 851,234 852,237 853,205 854,210 855,212 855,211 856,204 857,187 858,188 859,187 860,186 861,188 862,204 863,211 863,220 864,224 865,222 866,218 867,208 868,212 869,188 870,179 871,185 872,196 872,194 873,203 874,199 875,180 876,182 877,194 878,193 879,187 880,190 880,187 881,184 882,192 883,193 884,203 885,193 886,189 887,180 888,183 889,174 889,181 890,181 891,177 892,164 893,165 894,183 895,160 896,157 897,167 897,170 898,178 899,180 900,182 901,194 902,194 903,189 904,175 905,191 906,210 906,215 907,213 908,207 909,200 910,192 911,185 912,177 913,173 914,170 914,151 915,146 916,169 917,170 918,169 919,181 920,179 921,183 922,184 923,181 923,178 924,157 925,156 926,155 927,161 928,170 929,176 930,169 931,161 931,130 932,134 933,134 934,141 935,156 936,136 937,128 938,122 939,112 939,116 940,125 941,140 942,138 943,146 944,146 945,134 946,116 947,115 948,106 948,104 949,105 950,106 951,119 952,123 953,117 954,110 955,110 956,123 956,135 957,131 958,106 959,92 960,84 961,68 962,70 963,72 964,69 965,68 965,69 966,83 967,83 968,98 969,111 970,96 971,82 972,84 972,699 973,699 973,699 78,699 "/>
<polyline fill="none" opacity="1" stroke="#E6194B" stroke-width="1" points="78,697 78,688 79,674 80,674 81,669 82,674 83,677 84,682 85,679 86,683 86,686 87,681 88,682 89,651 90,659 91,648 92,638 93,648 94,647 94,648 95,653 96,666 97,667 98,670 99,673 100,673 101,677 102,674 103,681 103,680 104,676 105,677 106,674 107,674 108,676 109,665 110,662 111,650 111,642 112,647 113,654 114,666 115,665 116,660 117,645 118,638 119,620 120,614 120,631 121,648 122,653 123,656 124,654 125,640 126,629 127,622 128,616 128,617 129,615 130,618 131,632 132,631 133,625 134,619 135,615 136,615 137,623 137,612 138,597 139,590 140,589 141,590 142,578 143,574 144,564 145,558 145,561 146,551 147,536 148,532 149,529 150,514 151,507 152,507 153,521 154,512 154,507 155,504 156,509 157,510 158,498 159,496 160,487 161,487 162,498 162,502 163,498 164,489 165,482 166,482 167,479 168,467 169,455 170,467 170,462 171,466 172,476 173,476 174,485 175,474 176,457 177,452 178,453 179,456 179,457 180,455 181,456 182,451 183,444 184,452 185,459 186,472 187,473 187,475 188,457 189,451 190,446 191,445 192,451 193,456 194,445 195,447 196,455 196,452 197,440 198,437 199,436 200,429 201,433 202,444 203,441 204,431 204,428 205,427 206,431 207,435 208,431 209,440 210,450 211,457 212,467 213,470 213,454 214,449 215,432 216,435 217,470 218,478 219,474 220,464 221,482 221,479 222,475 223,477 224,472 225,449 226,445 227,454 228,451 229,451 230,464 230,472 231,480 232,467 233,470 234,465 235,467 236,478 237,478 238,471 238,479 239,477 240,481 241,484 242,474 243,472 244,468 245,457 246,459 247,471 247,468 248,481 249,476 250,487 251,485 252,491 253,484 254,488 255,489 255,486 256,472 257,466 258,478 259,478 260,484 261,471 262,461 263,462 263,470 264,468 265,478 266,468 267,455 268,456 269,463 270,458 271,466 272,465 272,454 273,450 274,445 275,450 276,453 277,446 278,443 279,447 280,449 280,457 281,454 282,457 283,455 284,439 285,440 286,440 287,449 288,453 289,444 289,449 290,456 291,461 292,459 293,476 294,481 295,469 296,467 297,463 297,451 298,448 299,454 300,458 301,455 302,440 303,446 304,453 305,453 306,469 306,466 307,469 308,478 309,478 310,487 311,483 312,478 313,474 314,467 314,474 315,468 316,472 317,473 318,474 319,457 320,449 321,441 322,440 323,433 323,429 324,436 325,436 326,421 327,414 328,399 329,399 330,418 331,426 331,426 332,429 333,430 334,422 335,423 336,410 337,416 338,425 339,426 339,434 340,423 341,420 342,431 343,434 344,437 345,442 346,444 347,455 348,457 348,466 349,470 350,482 351,475 352,474 353,480 354,484 355,489 356,491 356,492 357,503 358,523 359,510 360,519 361,525 362,515 363,517 364,528 365,522 365,520 366,513 367,503 368,506 369,503 370,514 371,519 372,512 373,511 373,499 374,498 375,501 376,506 377,512 378,519 379,514 380,510 381,505 382,496 382,487 383,491 384,512 385,521 386,513 387,520 388,519 389,521 390,512 390,500 391,493 392,491 393,476 394,479 395,492 396,503 397,520 398,522 399,542 399,536 400,539 401,518 402,521 403,551 404,548 405,539 406,540 407,521 407,515 408,515 409,521 410,533 411,529 412,527 413,532 414,550 415,546 416,539 416,539 417,541 418,544 419,544 420,559 421,554 422,547 423,555 424,566 424,565 425,556 426,559 427,547 428,556 429,550 430,554 431,559 432,563 432,544 433,538 434,545 435,523 436,517 437,510 438,512 439,499 440,499 441,505 441,505 442,503 443,502 444,512 445,512 446,501 447,491 448,494 449,490 449,502 450,505 451,510 452,507 453,511 454,513 455,528 456,510 457,517 458,491 458,492 459,491 460,493 461,485 462,478 463,477 464,476 465,481 466,484 466,491 467,478 468,469 469,467 470,473 471,476 472,462 473,460 474,464 475,469 475,484 476,475 477,465 478,465 479,465 480,466 481,486 482,488 483,492 483,492 484,498 485,500 486,504 487,506 488,497 489,502 490,505 491,509 492,512 492,497 493,494 494,503 495,500 496,504 497,498 498,495 499,509 500,502 500,499 501,500 502,515 503,511 504,508 505,509 506,497 507,502 508,507 508,494 509,494 510,493 511,486 512,487 513,490 514,488 515,488 516,499 517,495 517,490 518,488 519,506 520,485 521,492 522,489 523,497 524,503 525,493 525,492 526,502 527,514 528,528 529,528 530,519 531,521 532,522 533,525 534,527 534,538 535,536 536,541 537,554 538,552 539,546 540,541 541,542 542,536 542,543 543,545 544,541 545,536 546,547 547,542 548,536 549,537 550,543 551,546 551,560 552,570 553,570 554,574 555,559 556,559 557,564 558,562 559,562 559,564 560,562 561,549 562,551 563,565 564,564 565,560 566,563 567,564 568,570 568,568 569,560 570,555 571,560 572,564 573,543 574,541 575,538 576,549 576,538 577,530 578,519 579,513 580,525 581,528 582,522 583,518 584,527 585,525 585,521 586,532 587,530 588,508 589,509 590,504 591,520 592,526 593,535 593,528 594,528 595,534 596,521 597,515 598,523 599,522 600,534 601,535 601,533 602,528 603,528 604,523 605,519 606,503 607,493 608,497 609,493 610,490 610,481 611,481 612,501 613,498 614,496 615,499 616,497 617,485 618,478 618,499 619,495 620,490 621,490 622,504 623,498 624,438 625,443 626,441 627,451 627,454 628,450 629,444 630,459 631,445 632,439 633,439 634,442 635,459 635,462 636,453 637,452 638,451 639,458 640,460 641,461 642,456 643,465 644,460 644,467 645,465 646,470 647,470 648,451 649,445 650,443 651,436 652,427 652,423 653,428 654,425 655,427 656,421 657,423 658,426 659,427 660,422 661,419 661,423 662,432 663,421 664,412 665,409 666,411 667,411 668,410 669,413 669,407 670,407 671,405 672,402 673,405 674,407 675,400 676,393 677,402 677,400 678,411 679,415 680,407 681,399 682,395 683,396 684,394 685,395 686,381 686,360 687,367 688,365 689,363 690,369 691,364 692,367 693,359 694,364 694,345 695,344 696,359 697,347 698,347 699,364 700,384 701,385 702,387 703,391 703,408 704,399 705,398 706,390 707,383 708,381 709,389 710,385 711,382 711,373 712,363 713,349 714,353 715,362 716,381 717,385 718,390 719,377 720,375 720,366 721,357 722,354 723,353 724,355 725,354 726,349 727,349 728,351 728,345 729,342 730,338 731,335 732,343 733,350 734,343 735,330 736,330 737,329 737,340 738,330 739,336 740,346 741,350 742,353 743,359 744,358 745,351 745,351 746,348 747,336 748,321 749,324 750,333 751,337 752,337 753,350 754,352 754,342 755,349 756,354 757,361 758,376 759,394 760,376 761,362 762,356 762,345 763,329 764,325 765,329 766,327 767,323 768,328 769,333 770,343 770,333 771,340 772,333 773,336 774,327 775,319 776,313 777,307 778,308 779,310 779,322 780,318 781,318 782,332 783,337 784,342 785,338 786,318 787,314 787,336 788,338 789,330 790,322 791,314 792,317 793,304 794,296 795,299 796,293 796,280 797,283 798,285 799,277 800,278 801,282 802,301 803,308 804,304 804,316 805,309 806,317 807,321 808,326 809,317 810,319 811,317 812,323 813,305 813,297 814,295 815,307 816,302 817,287 818,287 819,300 820,311 821,304 821,301 822,299 823,301 824,278 825,275 826,288 827,295 828,301 829,296 830,295 830,290 831,285 832,280 833,268 834,255 835,245 836,241 837,230 838,225 838,227 839,231 840,253 841,261 842,251 843,249 844,235 845,233 846,232 847,245 847,240 848,230 849,246 850,242 851,234 852,237 853,205 854,210 855,212 855,211 856,204 857,187 858,188 859,187 860,186 861,188 862,204 863,211 863,220 864,224 865,222 866,218 867,208 868,212 869,188 870,179 871,185 872,196 872,194 873,203 874,199 875,180 876,182 877,194 878,193 879,187 880,190 880,187 881,184 882,192 883,193 884,203 885,193 886,189 887,180 888,183 889,174 889,181 890,181 891,177 892,164 893,165 894,183 895,160 896,157 897,167 897,170 898,178 899,180 900,182 901,194 902,194 903,189 904,175 905,191 906,210 906,215 907,213 908,207 909,200 910,192 911,185 912,177 913,173 914,170 914,151 915,146 916,169 917,170 918,169 919,181 920,179 921,183 922,184 923,181 923,178 924,157 925,156 926,155 927,161 928,170 929,176 930,169 931,161 931,130 932,134 933,134 934,141 935,156 936,136 937,128 938,122 939,112 939,116 940,125 941,140 942,138 943,146 944,146 945,134 946,116 947,115 948,106 948,104 949,105 950,106 951,119 952,123 953,117 954,110 955,110 956,123 956,135 957,131 958,106 959,92 960,84 961,68 962,70 963,72 964,69 965,68 965,69 966,83 967,83 968,98 969,111 970,96 971,82 972,84 972,699 973,699 "/>
<line opacity="0.1" stroke="#000000" stroke-width="1" x1="79" y1="699" x2="79" y2="68"/>
<line opacity="0.1" stroke="#000000" stroke-width="1" x1="87" y1="699" x2="87" y2="68"/>
<line opacity="0.1" stroke="#000000" stroke-width="1" x1="96" y1="699" x2="96" y2="68"/>
<line opacity="0.1" stroke="#000000" stroke-width="1" x1="105" y1="699" x2="105" y2="68"/>
<line opacity="0.1" stroke="#000000" stroke-width="1" x1="114" y1="699" x2="114" y2="68"/>
<line opacity="0.1" stroke="#000000" stroke-width="1" x1="123" y1="699" x2="123" y2="68"/>
<line opacity="0.1" stroke="#000000" stroke-width="1" x1="132" y1="699" x2="132" y2="68"/>
<line opacity="0.1" stroke="#000000" stroke-width="1" x1="141" y1="699" x2="141" y2="68"/>
<line opacity="0.1" stroke="#000000" stroke-width="1" x1="150" y1="699" x2="150" y2="68"/>
<line opacity="0.1" stroke="#000000" stroke-width="1" x1="159" y1="699" x2="159" y2="68"/>
<line opacity="0.1" stroke="#000000" stroke-width="1" x1="168" y1="699" x2="168" y2="68"/>
<line opacity="0.1" stroke="#000000" stroke-width="1" x1="177" y1="699" x2="177" y2="68"/>
<line opacity="0.1" stroke="#000000" stroke-width="1" x1="186" y1="699" x2="186" y2="68"/>
<line opacity="0.1" stroke="#000000" stroke-width="1" x1="195" y1="699" x2="195" y2="68"/>
<line opacity="0.1" stroke="#000000" stroke-width="1" x1="204" y1="699" x2="204" y2="68"/>
<line opacity="0.1" stroke="#000000" stroke-width="1" x1="213" y1="699" x2="213" y2="68"/>
<line opacity="0.1" stroke="#000000" stroke-width="1" x1="222" y1="699" x2="222" y2="68"/>
<line opacity="0.1" stroke="#000000" stroke-width="1" x1="230" y1="699" x2="230" y2="68"/>
<line opacity="0.1" stroke="#000000" stroke-width="1" x1="239" y1="699" x2="239" y2="68"/>
<line opacity="0.1" stroke="#000000" stroke-width="1" x1="248" y1="699" x2="248" y2="68"/>
<line opacity="0.1" stroke="#000000" stroke-width="1" x1="257" y1="699" x2="257" y2="68"/>
<line opacity="0.1" stroke="#000000" stroke-width="1" x1="266" y1="699" x2="266" y2="68"/>
<line opacity="0.1" stroke="#000000" stroke-width="1" x1="275" y1="699" x2="275" y2="68"/>
<line opacity="0.1" stroke="#000000" stroke-width="1" x1="284" y1="699" x2="284" y2="68"/>
<line opacity="0.1" stroke="#000000" stroke-width="1" x1="293" y1="699" x2="293" y2="68"/>
<line opacity="0.1" stroke="#000000" stroke-width="1" x1="302" y1="699" x2="302" y2="68"/>
<line opacity="0.1" stroke="#000000" stroke-width="1" x1="311" y1="699" x2="311" y2="68"/>
<line opacity="0.1" stroke="#000000" stroke-width="1" x1="320" y1="699" x2="320" y2="68"/>
<line opacity="0.1" stroke="#000000" stroke-width="1" x1="329" y1="699" x2="329" y2="68"/>
<line opacity="0.1" stroke="#000000" stroke-width="1" x1="338" y1="699" x2="338" y2="68"/>
<line opacity="0.1" stroke="#000000" stroke-width="1" x1="347" y1="699" x2="347" y2="68"/>
<line opacity="0.1" stroke="#000000" stroke-width="1" x1="356" y1="699" x2="356" y2="68"/>
<line opacity="0.1" stroke="#000000" stroke-width="1" x1="365" y1="699" x2="365" y2="68"/>
<line opacity="0.1" stroke="#000000" stroke-width="1" x1="374" y1="699" x2="374" y2="68"/>
<line opacity="0.1" stroke="#000000" stroke-width="1" x1="382" y1="699" x2="382" y2="68"/>
<line opacity="0.1" stroke="#000000" stroke-width="1" x1="391" y1="699" x2="391" y2="68"/>
<line opacity="0.1" stroke="#000000" stroke-width="1" x1="400" y1="699" x2="400" y2="68"/>
<line opacity="0.1" stroke="#000000" stroke-width="1" x1="409" y1="699" x2="409" y2="68"/>
<line opacity="0.1" stroke="#000000" stroke-width="1" x1="418" y1="699" x2="418" y2="68"/>
<line opacity="0.1" stroke="#000000" stroke-width="1" x1="427" y1="699" x2="427" y2="68"/>
<line opacity="0.1" stroke="#000000" stroke-width="1" x1="436" y1="699" x2="436" y2="68"/>
<line opacity="0.1" stroke="#000000" stroke-width="1" x1="445" y1="699" x2="445" y2="68"/>
<line opacity="0.1" stroke="#000000" stroke-width="1" x1="454" y1="699" x2="454" y2="68"/>
<line opacity="0.1" stroke="#000000" stroke-width="1" x1="463" y1="699" x2="463" y2="68"/>
<line opacity="0.1" stroke="#000000" stroke-width="1" x1="472" y1="699" x2="472" y2="68"/>
<line opacity="0.1" stroke="#000000" stroke-width="1" x1="481" y1="699" x2="481" y2="68"/>
<line opacity="0.1" stroke="#000000" stroke-width="1" x1="490" y1="699" x2="490" y2="68"/>
<line opacity="0.1" stroke="#000000" stroke-width="1" x1="499" y1="699" x2="499" y2="68"/>
<line opacity="0.1" stroke="#000000" stroke-width="1" x1="508" y1="699" x2="508" y2="68"/>
<line opacity="0.1" stroke="#000000" stroke-width="1" x1="517" y1="699" x2="517" y2="68"/>
<line opacity="0.1" stroke="#000000" stroke-width="1" x1="526" y1="699" x2="526" y2="68"/>
<line opacity="0.1" stroke="#000000" stroke-width="1" x1="534" y1="699" x2="534" y2="68"/>
<line opacity="0.1" stroke="#000000" stroke-width="1" x1="543" y1="699" x2="543" y2="68"/>
<line opacity="0.1" stroke="#000000" stroke-width="1" x1="552" y1="699" x2="552" y2="68"/>
<line opacity="0.1" stroke="#000000" stroke-width="1" x1="561" y1="699" x2="561" y2="68"/>
<line opacity="0.1" stroke="#000000" stroke-width="1" x1="570" y1="699" x2="570" y2="68"/>
<line opacity="0.1" stroke="#000000" stroke-width="1" x1="579" y1="699" x2="579" y2="68"/>
<line opacity="0.1" stroke="#000000" stroke-width="1" x1="588" y1="699" x2="588" y2="68"/>
<line opacity="0.1" stroke="#000000" stroke-width="1" x1="597" y1="699" x2="597" y2="68"/>
<line opacity="0.1" stroke="#000000" stroke-width="1" x1="606" y1="699" x2="606" y2="68"/>
<line opacity="0.1" stroke="#000000" stroke-width="1" x1="615" y1="699" x2="615" y2="68"/>
<line opacity="0.1" stroke="#000000" stroke-width="1" x1="624" y1="699" x2="624" y2="68"/>
<line opacity="0.1" stroke="#000000" stroke-width="1" x1="633" y1="699" x2="633" y2="68"/>
<line opacity="0.1" stroke="#000000" stroke-width="1" x1="642" y1="699" x2="642" y2="68"/>
<line opacity="0.1" stroke="#000000" stroke-width="1" x1="651" y1="699" x2="651" y2="68"/>
<line opacity="0.1" stroke="#000000" stroke-width="1" x1="660" y1="699" x2="660" y2="68"/>
<line opacity="0.1" stroke="#000000" stroke-width="1" x1="669" y1="699" x2="669" y2="68"/>
<line opacity="0.1" stroke="#000000" stroke-width="1" x1="677" y1="699" x2="677" y2="68"/>
<line opacity="0.1" stroke="#000000" stroke-width="1" x1="686" y1="699" x2="686" y2="68"/>
<line opacity="0.1" stroke="#000000" stroke-width="1" x1="695" y1="699" x2="695" y2="68"/>
<line opacity="0.1" stroke="#000000" stroke-width="1" x1="704" y1="699" x2="704" y2="68"/>
<line opacity="0.1" stroke="#000000" stroke-width="1" x1="713" y1="699" x2="713" y2="68"/>
<line opacity="0.1" stroke="#000000" stroke-width="1" x1="722" y1="699" x2="722" y2="68"/>
<line opacity="0.1" stroke="#000000" stroke-width="1" x1="731" y1="699" x2="731" y2="68"/>
<line opacity="0.1" stroke="#000000" stroke-width="1" x1="740" y1="699" x2="740" y2="68"/>
<line opacity="0.1" stroke="#000000" stroke-width="1" x1="749" y1="699" x2="749" y2="68"/>
<line opacity="0.1" stroke="#000000" stroke-width="1" x1="758" y1="699" x2="758" y2="68"/>
<line opacity="0.1" stroke="#000000" stroke-width="1" x1="767" y1="699" x2="767" y2="68"/>
<line opacity="0.1" stroke="#000000" stroke-width="1" x1="776" y1="699" x2="776" y2="68"/>
<line opacity="0.1" stroke="#000000" stroke-width="1" x1="785" y1="699" x2="785" y2="68"/>
<line opacity="0.1" stroke="#000000" stroke-width="1" x1="794" y1="699" x2="794" y2="68"/>
<line opacity="0.1" stroke="#000000" stroke-width="1" x1="803" y1="699" x2="803" y2="68"/>
<line opacity="0.1" stroke="#000000" stroke-width="1" x1="812" y1="699" x2="812" y2="68"/>
<line opacity="0.1" stroke="#000000" stroke-width="1" x1="821" y1="699" x2="821" y2="68"/>
<line opacity="0.1" stroke="#000000" stroke-width="1" x1="829" y1="699" x2="829" y2="68"/>
<line opacity="0.1" stroke="#000000" stroke-width="1" x1="838" y1="699" x2="838" y2="68"/>
<line opacity="0.1" stroke="#000000" stroke-width="1" x1="847" y1="699" x2="847" y2="68"/>
<line opacity="0.1" stroke="#000000" stroke-width="1" x1="856" y1="699" x2="856" y2="68"/>
<line opacity="0.1" stroke="#000000" stroke-width="1" x1="865" y1="699" x2="865" y2="68"/>
<line opacity="0.1" stroke="#000000" stroke-width="1" x1="874" y1="699" x2="874" y2="68"/>
<line opacity="0.1" stroke="#000000" stroke-width="1" x1="883" y1="699" x2="883" y2="68"/>
<line opacity="0.1" stroke="#000000" stroke-width="1" x1="892" y1="699" x2="892" y2="68"/>
<line opacity="0.1" stroke="#000000" stroke-width="1" x1="901" y1="699" x2="901" y2="68"/>
<line opacity="0.1" stroke="#000000" stroke-width="1" x1="910" y1="699" x2="910" y2="68"/>
<line opacity="0.1" stroke="#000000" stroke-width="1" x1="919" y1="699" x2="919" y2="68"/>
<line opacity="0.1" stroke="#000000" stroke-width="1" x1="928" y1="699" x2="928" y2="68"/>
<line opacity="0.1" stroke="#000000" stroke-width="1" x1="937" y1="699" x2="937" y2="68"/>
<line opacity="0.1" stroke="#000000" stroke-width="1" x1="946" y1="699" x2="946" y2="68"/>
<line opacity="0.1" stroke="#000000" stroke-width="1" x1="955" y1="699" x2="955" y2="68"/>
<line opacity="0.1" stroke="#000000" stroke-width="1" x1="964" y1="699" x2="964" y2="68"/>
<line opacity="0.1" stroke="#000000" stroke-width="1" x1="78" y1="699" x2="973" y2="699"/>
<line opacity="0.1" stroke="#000000" stroke-width="1" x1="78" y1="690" x2="973" y2="690"/>
<line opacity="0.1" stroke="#000000" stroke-width="1" x1="78" y1="681" x2="973" y2="681"/>
<line opacity="0.1" stroke="#000000" stroke-width="1" x1="78" y1="673" x2="973" y2="673"/>
<line opacity="0.1" stroke="#000000" stroke-width="1" x1="78" y1="664" x2="973" y2="664"/>
<line opacity="0.1" stroke="#000000" stroke-width="1" x1="78" y1="656" x2="973" y2="656"/>
<line opacity="0.1" stroke="#000000" stroke-width="1" x1="78" y1="647" x2="973" y2="647"/>
<line opacity="0.1" stroke="#000000" stroke-width="1" x1="78" y1="639" x2="973" y2="639"/>
<line opacity="0.1" stroke="#000000" stroke-width="1" x1="78" y1="630" x2="973" y2="630"/>
<line opacity="0.1" stroke="#000000" stroke-width="1" x1="78" y1="622" x2="973" y2="622"/>
<line opacity="0.1" stroke="#000000" stroke-width="1" x1="78" y1="613" x2="973" y2="613"/>
<line opacity="0.1" stroke="#000000" stroke-width="1" x1="78" y1="605" x2="973" y2="605"/>
<line opacity="0.1" stroke="#000000" stroke-width="1" x1="78" y1="596" x2="973" y2="596"/>
<line opacity="0.1" stroke="#000000" stroke-width="1" x1="78" y1="588" x2="973" y2="588"/>
<line opacity="0.1" stroke="#000000" stroke-width="1" x1="78" y1="579" x2="973" y2="579"/>
<line opacity="0.1" stroke="#000000" stroke-width="1" x1="78" y1="570" x2="973" y2="570"/>
<line opacity="0.1" stroke="#000000" stroke-width="1" x1="78" y1="562" x2="973" y2="562"/>
<line opacity="0.1" stroke="#000000" stroke-width="1" x1="78" y1="553" x2="973" y2="553"/>
<line opacity="0.1" stroke="#000000" stroke-width="1" x1="78" y1="545" x2="973" y2="545"/>
<line opacity="0.1" stroke="#000000" stroke-width="1" x1="78" y1="536" x2="973" y2="536"/>
<line opacity="0.1" stroke="#000000" stroke-width="1" x1="78" y1="528" x2="973" y2="528"/>
<line opacity="0.1" stroke="#000000" stroke-width="1" x1="78" y1="519" x2="973" y2="519"/>
<line opacity="0.1" stroke="#000000" stroke-width="1" x1="78" y1="511" x2="973" y2="511"/>
<line opacity="0.1" stroke="#000000" stroke-width="1" x1="78" y1="502" x2="973" y2="502"/>
<line opacity="0.1" stroke="#000000" stroke-width="1" x1="78" y1="494" x2="973" y2="494"/>
<line opacity="0.1" stroke="#000000" stroke-width="1" x1="78" y1="485" x2="973" y2="485"/>
<line opacity="0.1" stroke="#000000" stroke-width="1" x1="78" y1="477" x2="973" y2="477"/>
<line opacity="0.1" stroke="#000000" stroke-width="1" x1="78" y1="468" x2="973" y2="468"/>
<line opacity="0.1" stroke="#000000" stroke-width="1" x1="78" y1="459" x2="973" y2="459"/>
<line opacity="0.1" stroke="#000000" stroke-width="1" x1="78" y1="451" x2="973" y2="451"/>
<line opacity="0.1" stroke="#000000" stroke-width="1" x1="78" y1="442" x2="973" y2="442"/>
<line opacity="0.1" stroke="#000000" stroke-width="1" x1="78" y1="434" x2="973" y2="434"/>
<line opacity="0.1" stroke="#000000" stroke-width="1" x1="78" y1="425" x2="973" y2="425"/>
<line opacity="0.1" stroke="#000000" stroke-width="1" x1="78" y1="417" x2="973" y2="417"/>
<line opacity="0.1" stroke="#000000" stroke-width="1" x1="78" y1="408" x2="973" y2="408"/>
<line opacity="0.1" stroke="#000000" stroke-width="1" x1="78" y1="400" x2="973" y2="400"/>
<line opacity="0.1" stroke="#000000" stroke-width="1" x1="78" y1="391" x2="973" y2="391"/>
<line opacity="0.1" stroke="#000000" stroke-width="1" x1="78" y1="383" x2="973" y2="383"/>
<line opacity="0.1" stroke="#000000" stroke-width="1" x1="78" y1="374" x2="973" y2="374"/>
<line opacity="0.1" stroke="#000000" stroke-width="1" x1="78" y1="366" x2="973" y2="366"/>
<line opacity="0.1" stroke="#000000" stroke-width="1" x1="78" y1="357" x2="973" y2="357"/>
<line opacity="0.1" stroke="#000000" stroke-width="1" x1="78" y1="348" x2="973" y2="348"/>
<line opacity="0.1" stroke="#000000" stroke-width="1" x1="78" y1="340" x2="973" y2="340"/>
<line opacity="0.1" stroke="#000000" stroke-width="1" x1="78" y1="331" x2="973" y2="331"/>
<line opacity="0.1" stroke="#000000" stroke-width="1" x1="78" y1="323" x2="973" y2="323"/>
<line opacity="0.1" stroke="#000000" stroke-width="1" x1="78" y1="314" x2="973" y2="314"/>
<line opacity="0.1" stroke="#000000" stroke-width="1" x1="78" y1="306" x2="973" y2="306"/>
<line opacity="0.1" stroke="#000000" stroke-width="1" x1="78" y1="297" x2="973" y2="297"/>
<line opacity="0.1" stroke="#000000" stroke-width="1" x1="78" y1="289" x2="973" y2="289"/>
<line opacity="0.1" stroke="#000000" stroke-width="1" x1="78" y1="280" x2="973" y2="280"/>
<line opacity="0.1" stroke="#000000" stroke-width="1" x1="78" y1="272" x2="973" y2="272"/>
<line opacity="0.1" stroke="#000000" stroke-width="1" x1="78" y1="263" x2="973" y2="263"/>
<line opacity="0.1" stroke="#000000" stroke-width="1" x1="78" y1="255" x2="973" y2="255"/>
<line opacity="0.1" stroke="#000000" stroke-width="1" x1="78" y1="246" x2="973" y2="246"/>
<line opacity="0.1" stroke="#000000" stroke-width="1" x1="78" y1="237" x2="973" y2="237"/>
<line opacity="0.1" stroke="#000000" stroke-width="1" x1="78" y1="229" x2="973" y2="229"/>
<line opacity="0.1" stroke="#000000" stroke-width="1" x1="78" y1="220" x2="973" y2="220"/>
<line opacity="0.1" stroke="#000000" stroke-width="1" x1="78" y1="212" x2="973" y2="212"/>
<line opacity="0.1" stroke="#000000" stroke-width="1" x1="78" y1="203" x2="973" y2="203"/>
<line opacity="0.1" stroke="#000000" stroke-width="1" x1="78" y1="195" x2="973" y2="195"/>
<line opacity="0.1" stroke="#000000" stroke-width="1" x1="78" y1="186" x2="973" y2="186"/>
<line opacity="0.1" stroke="#000000" stroke-width="1" x1="78" y1="178" x2="973" y2="178"/>
<line opacity="0.1" stroke="#000000" stroke-width="1" x1="78" y1="169" x2="973" y2="169"/>
<line opacity="0.1" stroke="#000000" stroke-width="1" x1="78" y1="161" x2="973" y2="161"/>
<line opacity="0.1" stroke="#000000" stroke-width="1" x1="78" y1="152" x2="973" y2="152"/>
<line opacity="0.1" stroke="#000000" stroke-width="1" x1="78" y1="144" x2="973" y2="144"/>
<line opacity="0.1" stroke="#000000" stroke-width="1" x1="78" y1="135" x2="973" y2="135"/>
<line opacity="0.1" stroke="#000000" stroke-width="1" x1="78" y1="126" x2="973" y2="126"/>
<line opacity="0.1" stroke="#000000" stroke-width="1" x1="78" y1="118" x2="973" y2="118"/>
<line opacity="0.1" stroke="#000000" stroke-width="1" x1="78" y1="109" x2="973" y2="109"/>
<line opacity="0.1" stroke="#000000" stroke-width="1" x1="78" y1="101" x2="973" y2="101"/>
<line opacity="0.1" stroke="#000000" stroke-width="1" x1="78" y1="92" x2="973" y2="92"/>
<line opacity="0.1" stroke="#000000" stroke-width="1" x1="78" y1="84" x2="973" y2="84"/>
<line opacity="0.1" stroke="#000000" stroke-width="1" x1="78" y1="75" x2="973" y2="75"/>
<text x="8" y="384" dy="0.76em" text-anchor="middle" font-family="sans-serif" font-size="9.67741935483871" opacity="1" fill="#000000" transform="rotate(270, 8, 384)">
Memory usage
</text>
<text x="526" y="760" dy="-0.5ex" text-anchor="middle" font-family="sans-serif" font-size="9.67741935483871" opacity="1" fill="#000000">
Time
</text>
<line opacity="0.2" stroke="#000000" stroke-width="1" x1="96" y1="699" x2="96" y2="68"/>
<line opacity="0.2" stroke="#000000" stroke-width="1" x1="186" y1="699" x2="186" y2="68"/>
<line opacity="0.2" stroke="#000000" stroke-width="1" x1="275" y1="699" x2="275" y2="68"/>
<line opacity="0.2" stroke="#000000" stroke-width="1" x1="365" y1="699" x2="365" y2="68"/>
<line opacity="0.2" stroke="#000000" stroke-width="1" x1="454" y1="699" x2="454" y2="68"/>
<line opacity="0.2" stroke="#000000" stroke-width="1" x1="543" y1="699" x2="543" y2="68"/>
<line opacity="0.2" stroke="#000000" stroke-width="1" x1="633" y1="699" x2="633" y2="68"/>
<line opacity="0.2" stroke="#000000" stroke-width="1" x1="722" y1="699" x2="722" y2="68"/>
<line opacity="0.2" stroke="#000000" stroke-width="1" x1="812" y1="699" x2="812" y2="68"/>
<line opacity="0.2" stroke="#000000" stroke-width="1" x1="901" y1="699" x2="901" y2="68"/>
<line opacity="0.2" stroke="#000000" stroke-width="1" x1="78" y1="699" x2="973" y2="699"/>
<line opacity="0.2" stroke="#000000" stroke-width="1" x1="78" y1="613" x2="973" y2="613"/>
<line opacity="0.2" stroke="#000000" stroke-width="1" x1="78" y1="528" x2="973" y2="528"/>
<line opacity="0.2" stroke="#000000" stroke-width="1" x1="78" y1="442" x2="973" y2="442"/>
<line opacity="0.2" stroke="#000000" stroke-width="1" x1="78" y1="357" x2="973" y2="357"/>
<line opacity="0.2" stroke="#000000" stroke-width="1" x1="78" y1="272" x2="973" y2="272"/>
<line opacity="0.2" stroke="#000000" stroke-width="1" x1="78" y1="186" x2="973" y2="186"/>
<line opacity="0.2" stroke="#000000" stroke-width="1" x1="78" y1="101" x2="973" y2="101"/>
<polyline fill="none" opacity="1" stroke="#000000" stroke-width="1" points="77,68 77,699 "/>
<text x="68" y="699" dy="0.5ex" text-anchor="end" font-family="sans-serif" font-size="9.67741935483871" opacity="1" fill="#000000">
0 KB
</text>
<polyline fill="none" opacity="1" stroke="#000000" stroke-width="1" points="72,699 77,699 "/>
<text x="68" y="613" dy="0.5ex" text-anchor="end" font-family="sans-serif" font-size="9.67741935483871" opacity="1" fill="#000000">
97 KB
</text>
<polyline fill="none" opacity="1" stroke="#000000" stroke-width="1" points="72,613 77,613 "/>
<text x="68" y="528" dy="0.5ex" text-anchor="end" font-family="sans-serif" font-size="9.67741935483871" opacity="1" fill="#000000">
195 KB
</text>
<polyline fill="none" opacity="1" stroke="#000000" stroke-width="1" points="72,528 77,528 "/>
<text x="68" y="442" dy="0.5ex" text-anchor="end" font-family="sans-serif" font-size="9.67741935483871" opacity="1" fill="#000000">
292 KB
</text>
<polyline fill="none" opacity="1" stroke="#000000" stroke-width="1" points="72,442 77,442 "/>
<text x="68" y="357" dy="0.5ex" text-anchor="end" font-family="sans-serif" font-size="9.67741935483871" opacity="1" fill="#000000">
390 KB
</text>
<polyline fill="none" opacity="1" stroke="#000000" stroke-width="1" points="72,357 77,357 "/>
<text x="68" y="272" dy="0.5ex" text-anchor="end" font-family="sans-serif" font-size="9.67741935483871" opacity="1" fill="#000000">
488 KB
</text>
<polyline fill="none" opacity="1" stroke="#000000" stroke-width="1" points="72,272 77,272 "/>
<text x="68" y="186" dy="0.5ex" text-anchor="end" font-family="sans-serif" font-size="9.67741935483871" opacity="1" fill="#000000">
585 KB
</text>
<polyline fill="none" opacity="1" stroke="#000000" stroke-width="1" points="72,186 77,186 "/>
<text x="68" y="101" dy="0.5ex" text-anchor="end" font-family="sans-serif" font-size="9.67741935483871" opacity="1" fill="#000000">
683 KB
</text>
<polyline fill="none" opacity="1" stroke="#000000" stroke-width="1" points="72,101 77,101 "/>
<polyline fill="none" opacity="1" stroke="#000000" stroke-width="1" points="78,700 973,700 "/>
<text x="96" y="710" dy="0.76em" text-anchor="middle" font-family="sans-serif" font-size="9.67741935483871" opacity="1" fill="#000000">
02:04:17
</text>
<polyline fill="none" opacity="1" stroke="#000000" stroke-width="1" points="96,700 96,705 "/>
<text x="186" y="710" dy="0.76em" text-anchor="middle" font-family="sans-serif" font-size="9.67741935483871" opacity="1" fill="#000000">
02:04:18
</text>
<polyline fill="none" opacity="1" stroke="#000000" stroke-width="1" points="186,700 186,705 "/>
<text x="275" y="710" dy="0.76em" text-anchor="middle" font-family="sans-serif" font-size="9.67741935483871" opacity="1" fill="#000000">
02:04:19
</text>
<polyline fill="none" opacity="1" stroke="#000000" stroke-width="1" points="275,700 275,705 "/>
<text x="365" y="710" dy="0.76em" text-anchor="middle" font-family="sans-serif" font-size="9.67741935483871" opacity="1" fill="#000000">
02:04:20
</text>
<polyline fill="none" opacity="1" stroke="#000000" stroke-width="1" points="365,700 365,705 "/>
<text x="454" y="710" dy="0.76em" text-anchor="middle" font-family="sans-serif" font-size="9.67741935483871" opacity="1" fill="#000000">
02:04:21
</text>
<polyline fill="none" opacity="1" stroke="#000000" stroke-width="1" points="454,700 454,705 "/>
<text x="543" y="710" dy="0.76em" text-anchor="middle" font-family="sans-serif" font-size="9.67741935483871" opacity="1" fill="#000000">
02:04:22
</text>
<polyline fill="none" opacity="1" stroke="#000000" stroke-width="1" points="543,700 543,705 "/>
<text x="633" y="710" dy="0.76em" text-anchor="middle" font-family="sans-serif" font-size="9.67741935483871" opacity="1" fill="#000000">
02:04:23
</text>
<polyline fill="none" opacity="1" stroke="#000000" stroke-width="1" points="633,700 633,705 "/>
<text x="722" y="710" dy="0.76em" text-anchor="middle" font-family="sans-serif" font-size="9.67741935483871" opacity="1" fill="#000000">
02:04:24
</text>
<polyline fill="none" opacity="1" stroke="#000000" stroke-width="1" points="722,700 722,705 "/>
<text x="812" y="710" dy="0.76em" text-anchor="middle" font-family="sans-serif" font-size="9.67741935483871" opacity="1" fill="#000000">
02:04:25
</text>
<polyline fill="none" opacity="1" stroke="#000000" stroke-width="1" points="812,700 812,705 "/>
<text x="901" y="710" dy="0.76em" text-anchor="middle" font-family="sans-serif" font-size="9.67741935483871" opacity="1" fill="#000000">
02:04:26
</text>
<polyline fill="none" opacity="1" stroke="#000000" stroke-width="1" points="901,700 901,705 "/>
<polyline fill="none" opacity="1" stroke="#000000" stroke-width="1" points="78,67 974,67 "/>
<text x="96" y="58" dy="-0.5ex" text-anchor="middle" font-family="sans-serif" font-size="9.67741935483871" opacity="1" fill="#000000">
+265ms
</text>
<polyline fill="none" opacity="1" stroke="#000000" stroke-width="1" points="96,62 96,67 "/>
<text x="186" y="58" dy="-0.5ex" text-anchor="middle" font-family="sans-serif" font-size="9.67741935483871" opacity="1" fill="#000000">
+1s
</text>
<polyline fill="none" opacity="1" stroke="#000000" stroke-width="1" points="186,62 186,67 "/>
<text x="275" y="58" dy="-0.5ex" text-anchor="middle" font-family="sans-serif" font-size="9.67741935483871" opacity="1" fill="#000000">
+2s
</text>
<polyline fill="none" opacity="1" stroke="#000000" stroke-width="1" points="275,62 275,67 "/>
<text x="365" y="58" dy="-0.5ex" text-anchor="middle" font-family="sans-serif" font-size="9.67741935483871" opacity="1" fill="#000000">
+3s
</text>
<polyline fill="none" opacity="1" stroke="#000000" stroke-width="1" points="365,62 365,67 "/>
<text x="454" y="58" dy="-0.5ex" text-anchor="middle" font-family="sans-serif" font-size="9.67741935483871" opacity="1" fill="#000000">
+4s
</text>
<polyline fill="none" opacity="1" stroke="#000000" stroke-width="1" points="454,62 454,67 "/>
<text x="544" y="58" dy="-0.5ex" text-anchor="middle" font-family="sans-serif" font-size="9.67741935483871" opacity="1" fill="#000000">
+5s
</text>
<polyline fill="none" opacity="1" stroke="#000000" stroke-width="1" points="544,62 544,67 "/>
<text x="633" y="58" dy="-0.5ex" text-anchor="middle" font-family="sans-serif" font-size="9.67741935483871" opacity="1" fill="#000000">
+6s
</text>
<polyline fill="none" opacity="1" stroke="#000000" stroke-width="1" points="633,62 633,67 "/>
<text x="723" y="58" dy="-0.5ex" text-anchor="middle" font-family="sans-serif" font-size="9.67741935483871" opacity="1" fill="#000000">
+7s
</text>
<polyline fill="none" opacity="1" stroke="#000000" stroke-width="1" points="723,62 723,67 "/>
<text x="812" y="58" dy="-0.5ex" text-anchor="middle" font-family="sans-serif" font-size="9.67741935483871" opacity="1" fill="#000000">
+8s
</text>
<polyline fill="none" opacity="1" stroke="#000000" stroke-width="1" points="812,62 812,67 "/>
<text x="902" y="58" dy="-0.5ex" text-anchor="middle" font-family="sans-serif" font-size="9.67741935483871" opacity="1" fill="#000000">
+9s
</text>
<polyline fill="none" opacity="1" stroke="#000000" stroke-width="1" points="902,62 902,67 "/>
</svg>
