<svg width="1024" height="768" viewBox="0 0 1024 768" xmlns="http://www.w3.org/2000/svg">
<rect x="0" y="0" width="1024" height="768" opacity="1" fill="#FFFFFF" stroke="none"/>
<polygon opacity="1" fill="#3CB44B" points="83,698 84,697 85,693 86,692 87,690 88,690 88,689 89,687 90,686 91,686 92,685 93,684 94,682 95,682 96,679 96,678 97,676 98,675 99,675 100,672 101,671 102,670 103,666 104,662 104,661 105,661 106,658 107,657 108,657 109,657 110,656 111,654 112,652 112,652 113,649 114,647 115,647 116,647 117,647 118,646 119,643 120,642 120,642 121,642 122,640 123,640 124,639 125,637 126,637 127,636 128,635 128,634 129,633 130,632 131,632 132,630 133,629 134,629 135,628 136,626 136,626 137,626 138,626 139,625 140,623 141,623 142,623 143,623 144,621 144,621 145,619 146,619 147,619 148,617 149,617 150,615 151,612 152,612 152,612 153,610 154,609 155,609 156,609 157,608 158,608 159,607 160,607 160,605 161,605 162,605 163,604 164,604 165,603 166,600 167,598 168,597 168,595 169,595 170,593 171,593 172,591 173,588 174,587 175,584 176,581 176,580 177,579 178,578 179,575 180,573 181,572 182,572 183,572 184,571 184,571 185,569 186,569 187,567 188,565 189,562 190,562 191,560 192,560 192,558 193,558 194,555 195,553 196,552 197,549 198,548 199,546 199,545 200,545 201,543 202,543 203,542 204,542 205,542 206,540 207,539 207,537 208,537 209,536 210,536 211,534 212,531 213,527 214,524 215,522 215,520 216,520 217,520 218,518 219,517 220,516 221,515 222,513 223,512 223,510 224,509 225,509 226,509 227,507 228,507 229,506 230,505 231,503 231,503 232,502 233,501 234,501 235,499 236,499 237,499 238,497 239,495 239,495 240,495 241,494 242,492 243,492 244,489 245,488 246,488 247,486 247,485 248,485 249,484 250,482 251,478 252,478 253,478 254,476 255,476 255,473 256,472 257,471 258,471 259,468 260,467 261,466 262,466 263,466 263,466 264,465 265,463 266,462 267,461 268,460 269,458 270,458 271,457 271,453 272,452 273,451 274,451 275,448 276,447 277,447 278,447 279,443 279,442 280,441 281,438 282,437 283,437 284,432 285,430 286,430 287,428 287,426 288,426 289,426 290,424 291,423 292,419 293,419 294,417 295,417 295,417 296,415 297,414 298,412 299,411 300,408 301,407 302,407 303,406 303,406 304,404 305,404 306,403 307,402 308,402 309,402 310,401 311,401 311,398 312,396 313,395 314,393 315,393 316,393 317,391 318,388 319,387 319,385 320,384 321,382 322,382 323,380 324,377 325,374 326,374 326,373 327,372 328,371 329,367 330,365 331,363 332,359 333,359 334,357 334,356 335,354 336,351 337,350 338,349 339,348 340,348 341,347 342,347 342,346 343,346 344,345 345,345 346,343 347,342 348,342 349,341 350,340 350,339 351,339 352,337 353,335 354,335 355,333 356,333 357,333 358,332 358,332 359,329 360,328 361,324 362,322 363,321 364,321 365,321 366,321 366,320 367,320 368,320 369,318 370,317 371,315 372,315 373,315 374,315 374,313 375,313 376,312 377,311 378,311 379,311 380,310 381,309 382,307 382,306 383,305 384,305 385,305 386,304 387,304 388,303 389,301 390,299 390,298 391,297 392,297 393,295 394,293 395,290 396,289 397,288 398,287 398,286 399,286 400,286 401,283 402,283 403,283 404,283 405,283 406,280 406,278 407,274 408,272 409,271 410,268 411,265 412,265 413,264 414,261 414,257 415,256 416,255 417,253 418,252 419,250 420,246 421,244 422,244 422,243 423,243 424,242 425,241 426,236 427,233 428,233 429,233 430,230 430,230 431,229 432,227 433,227 434,225 435,224 436,221 437,221 438,218 438,216 439,216 440,214 441,213 442,212 443,211 444,210 445,210 446,207 446,206 447,204 448,203 449,199 450,199 451,195 452,192 453,192 454,191 454,190 455,189 456,187 457,184 458,182 459,182 460,181 461,179 461,178 462,178 463,176 464,175 465,175 466,174 467,171 468,170 469,170 469,168 470,165 471,163 472,163 473,162 474,160 475,160 476,159 477,157 477,153 478,151 479,151 480,150 481,149 482,149 483,146 484,145 485,143 485,143 486,143 487,141 488,138 489,138 490,137 491,135 492,135 493,133 493,131 494,131 495,131 496,131 497,130 498,129 499,126 500,121 501,120 501,120 502,118 503,115 504,115 505,112 506,110 507,110 508,108 509,106 509,105 510,102 511,100 512,100 513,100 514,95 515,93 516,93 517,92 517,90 518,88 519,88 520,85 521,83 522,80 523,79 524,76 525,74 525,74 526,72 527,70 528,70 529,70 530,73 531,70 532,70 533,69 533,69 534,71 535,72 536,70 537,71 538,70 539,72 540,70 541,70 541,71 542,71 543,72 544,71 545,70 546,70 547,71 548,71 549,71 549,71 550,72 551,72 552,70 553,70 554,72 555,71 556,71 557,71 557,71 558,71 559,71 560,72 561,70 562,71 563,71 564,72 565,72 565,72 566,71 567,72 568,71 569,71 570,72 571,72 572,71 573,71 573,71 574,71 575,71 576,72 577,71 578,71 579,70 580,71 581,70 581,71 582,72 583,72 584,72 585,72 586,71 587,70 588,70 588,72 589,71 590,71 591,71 592,72 593,71 594,71 595,70 596,70 596,70 597,71 598,72 599,72 600,71 601,71 602,71 603,71 604,71 604,71 605,72 606,71 607,71 608,70 609,70 610,72 611,71 612,72 612,72 613,72 614,70 615,70 616,72 617,72 618,72 619,72 620,71 620,71 621,71 622,71 623,69 624,72 625,71 626,71 627,71 628,71 628,71 629,71 630,71 631,71 632,71 633,71 634,71 635,71 636,71 636,71 637,71 638,72 639,70 640,71 641,72 642,71 643,72 644,70 644,71 645,71 646,70 647,71 648,71 649,71 650,72 651,71 652,71 652,71 653,71 654,71 655,71 656,71 657,71 658,71 659,71 660,71 660,71 661,72 662,72 663,71 664,71 665,71 666,71 667,71 668,71 668,71 669,71 670,72 671,71 672,71 673,71 674,71 675,71 676,70 676,71 677,71 678,71 679,71 680,71 681,72 682,71 683,71 684,71 684,72 685,71 686,70 687,70 688,70 689,70 690,72 691,72 692,70 692,72 693,72 694,72 695,72 696,71 697,71 698,72 699,71 700,71 700,71 701,72 702,71 703,71 704,71 705,71 706,71 707,71 708,71 708,71 709,70 710,71 711,72 712,72 713,72 714,71 715,72 715,71 716,71 717,72 718,71 719,71 720,72 721,71 722,71 723,71 723,71 724,71 725,72 726,72 727,72 728,71 729,71 730,71 731,72 731,71 732,71 733,70 734,72 735,71 736,72 737,71 738,71 739,69 739,72 740,72 741,70 742,71 743,72 744,69 745,70 746,70 747,70 747,72 748,72 749,71 750,71 751,72 752,71 753,71 754,70 755,71 755,72 756,72 757,72 758,71 759,71 760,72 761,71 762,72 763,71 763,71 764,71 765,72 766,72 767,72 768,71 769,70 770,71 771,71 771,71 772,71 773,70 774,71 775,72 776,72 777,71 778,71 779,69 779,72 780,69 781,68 782,68 783,72 784,71 785,71 786,71 787,70 787,70 788,71 789,71 790,71 791,69 792,71 793,72 794,71 795,71 795,72 796,72 797,71 798,71 799,72 800,72 801,71 802,71 803,72 803,72 804,72 805,72 806,72 807,73 808,72 809,71 810,71 811,71 811,69 812,70 813,72 814,72 815,71 816,70 817,71 818,71 819,72 819,72 820,71 821,71 822,71 823,71 824,70 825,71 826,71 827,72 827,68 828,68 829,68 830,71 831,71 832,72 833,72 834,71 835,69 835,69 836,70 837,71 838,70 839,71 840,71 841,71 842,71 842,72 843,71 844,71 845,71 846,71 847,71 848,72 849,69 850,71 850,70 851,70 852,72 853,69 854,71 855,71 856,72 857,70 858,70 858,70 859,70 860,72 861,72 862,72 863,71 864,72 865,72 866,71 866,71 867,71 868,70 869,68 870,68 871,70 872,71 873,72 874,71 874,71 875,69 876,71 877,71 878,71 879,73 880,71 881,71 882,72 882,71 883,70 884,71 885,71 886,70 887,72 888,72 889,72 890,69 890,69 891,69 892,71 893,69 894,72 895,71 896,71 897,71 898,72 898,71 899,73 900,73 901,70 902,71 903,69 904,69 905,72 906,73 906,70 907,70 908,71 909,70 910,69 911,70 912,70 913,69 914,72 914,71 915,71 916,69 917,69 918,73 919,71 920,71 921,71 922,71 922,71 923,71 924,68 925,71 926,72 927,71 928,70 929,70 930,70 930,73 931,72 932,72 933,71 934,71 935,72 936,72 937,73 938,73 938,72 939,72 940,72 941,72 942,72 943,69 944,69 945,70 946,70 946,71 947,70 948,70 949,73 950,73 951,72 952,71 953,70 954,72 954,72 955,71 956,71 957,72 958,71 959,70 960,70 961,68 962,69 962,69 963,71 964,71 965,68 966,68 967,70 968,70 969,72 969,71 970,72 971,71 971,72 973,72 973,699 83,699 "/>
<polyline fill="none" opacity="1" stroke="#3CB44B" stroke-width="1" points="83,698 84,697 85,693 86,692 87,690 88,690 88,689 89,687 90,686 91,686 92,685 93,684 94,682 95,682 96,679 96,678 97,676 98,675 99,675 100,672 101,671 102,670 103,666 104,662 104,661 105,661 106,658 107,657 108,657 109,657 110,656 111,654 112,652 112,652 113,649 114,647 115,647 116,647 117,647 118,646 119,643 120,642 120,642 121,642 122,640 123,640 124,639 125,637 126,637 127,636 128,635 128,634 129,633 130,632 131,632 132,630 133,629 134,629 135,628 136,626 136,626 137,626 138,626 139,625 140,623 141,623 142,623 143,623 144,621 144,621 145,619 146,619 147,619 148,617 149,617 150,615 151,612 152,612 152,612 153,610 154,609 155,609 156,609 157,608 158,608 159,607 160,607 160,605 161,605 162,605 163,604 164,604 165,603 166,600 167,598 168,597 168,595 169,595 170,593 171,593 172,591 173,588 174,587 175,584 176,581 176,580 177,579 178,578 179,575 180,573 181,572 182,572 183,572 184,571 184,571 185,569 186,569 187,567 188,565 189,562 190,562 191,560 192,560 192,558 193,558 194,555 195,553 196,552 197,549 198,548 199,546 199,545 200,545 201,543 202,543 203,542 204,542 205,542 206,540 207,539 207,537 208,537 209,536 210,536 211,534 212,531 213,527 214,524 215,522 215,520 216,520 217,520 218,518 219,517 220,516 221,515 222,513 223,512 223,510 224,509 225,509 226,509 227,507 228,507 229,506 230,505 231,503 231,503 232,502 233,501 234,501 235,499 236,499 237,499 238,497 239,495 239,495 240,495 241,494 242,492 243,492 244,489 245,488 246,488 247,486 247,485 248,485 249,484 250,482 251,478 252,478 253,478 254,476 255,476 255,473 256,472 257,471 258,471 259,468 260,467 261,466 262,466 263,466 263,466 264,465 265,463 266,462 267,461 268,460 269,458 270,458 271,457 271,453 272,452 273,451 274,451 275,448 276,447 277,447 278,447 279,443 279,442 280,441 281,438 282,437 283,437 284,432 285,430 286,430 287,428 287,426 288,426 289,426 290,424 291,423 292,419 293,419 294,417 295,417 295,417 296,415 297,414 298,412 299,411 300,408 301,407 302,407 303,406 303,406 304,404 305,404 306,403 307,402 308,402 309,402 310,401 311,401 311,398 312,396 313,395 314,393 315,393 316,393 317,391 318,388 319,387 319,385 320,384 321,382 322,382 323,380 324,377 325,374 326,374 326,373 327,372 328,371 329,367 330,365 331,363 332,359 333,359 334,357 334,356 335,354 336,351 337,350 338,349 339,348 340,348 341,347 342,347 342,346 343,346 344,345 345,345 346,343 347,342 348,342 349,341 350,340 350,339 351,339 352,337 353,335 354,335 355,333 356,333 357,333 358,332 358,332 359,329 360,328 361,324 362,322 363,321 364,321 365,321 366,321 366,320 367,320 368,320 369,318 370,317 371,315 372,315 373,315 374,315 374,313 375,313 376,312 377,311 378,311 379,311 380,310 381,309 382,307 382,306 383,305 384,305 385,305 386,304 387,304 388,303 389,301 390,299 390,298 391,297 392,297 393,295 394,293 395,290 396,289 397,288 398,287 398,286 399,286 400,286 401,283 402,283 403,283 404,283 405,283 406,280 406,278 407,274 408,272 409,271 410,268 411,265 412,265 413,264 414,261 414,257 415,256 416,255 417,253 418,252 419,250 420,246 421,244 422,244 422,243 423,243 424,242 425,241 426,236 427,233 428,233 429,233 430,230 430,230 431,229 432,227 433,227 434,225 435,224 436,221 437,221 438,218 438,216 439,216 440,214 441,213 442,212 443,211 444,210 445,210 446,207 446,206 447,204 448,203 449,199 450,199 451,195 452,192 453,192 454,191 454,190 455,189 456,187 457,184 458,182 459,182 460,181 461,179 461,178 462,178 463,176 464,175 465,175 466,174 467,171 468,170 469,170 469,168 470,165 471,163 472,163 473,162 474,160 475,160 476,159 477,157 477,153 478,151 479,151 480,150 481,149 482,149 483,146 484,145 485,143 485,143 486,143 487,141 488,138 489,138 490,137 491,135 492,135 493,133 493,131 494,131 495,131 496,131 497,130 498,129 499,126 500,121 501,120 501,120 502,118 503,115 504,115 505,112 506,110 507,110 508,108 509,106 509,105 510,102 511,100 512,100 513,100 514,95 515,93 516,93 517,92 517,90 518,88 519,88 520,85 521,83 522,80 523,79 524,76 525,74 525,74 526,72 527,70 528,70 529,70 530,73 531,70 532,70 533,69 533,69 534,71 535,72 536,70 537,71 538,70 539,72 540,70 541,70 541,71 542,71 543,72 544,71 545,70 546,70 547,71 548,71 549,71 549,71 550,72 551,72 552,70 553,70 554,72 555,71 556,71 557,71 557,71 558,71 559,71 560,72 561,70 562,71 563,71 564,72 565,72 565,72 566,71 567,72 568,71 569,71 570,72 571,72 572,71 573,71 573,71 574,71 575,71 576,72 577,71 578,71 579,70 580,71 581,70 581,71 582,72 583,72 584,72 585,72 586,71 587,70 588,70 588,72 589,71 590,71 591,71 592,72 593,71 594,71 595,70 596,70 596,70 597,71 598,72 599,72 600,71 601,71 602,71 603,71 604,71 604,71 605,72 606,71 607,71 608,70 609,70 610,72 611,71 612,72 612,72 613,72 614,70 615,70 616,72 617,72 618,72 619,72 620,71 620,71 621,71 622,71 623,69 624,72 625,71 626,71 627,71 628,71 628,71 629,71 630,71 631,71 632,71 633,71 634,71 635,71 636,71 636,71 637,71 638,72 639,70 640,71 641,72 642,71 643,72 644,70 644,71 645,71 646,70 647,71 648,71 649,71 650,72 651,71 652,71 652,71 653,71 654,71 655,71 656,71 657,71 658,71 659,71 660,71 660,71 661,72 662,72 663,71 664,71 665,71 666,71 667,71 668,71 668,71 669,71 670,72 671,71 672,71 673,71 674,71 675,71 676,70 676,71 677,71 678,71 679,71 680,71 681,72 682,71 683,71 684,71 684,72 685,71 686,70 687,70 688,70 689,70 690,72 691,72 692,70 692,72 693,72 694,72 695,72 696,71 697,71 698,72 699,71 700,71 700,71 701,72 702,71 703,71 704,71 705,71 706,71 707,71 708,71 708,71 709,70 710,71 711,72 712,72 713,72 714,71 715,72 715,71 716,71 717,72 718,71 719,71 720,72 721,71 722,71 723,71 723,71 724,71 725,72 726,72 727,72 728,71 729,71 730,71 731,72 731,71 732,71 733,70 734,72 735,71 736,72 737,71 738,71 739,69 739,72 740,72 741,70 742,71 743,72 744,69 745,70 746,70 747,70 747,72 748,72 749,71 750,71 751,72 752,71 753,71 754,70 755,71 755,72 756,72 757,72 758,71 759,71 760,72 761,71 762,72 763,71 763,71 764,71 765,72 766,72 767,72 768,71 769,70 770,71 771,71 771,71 772,71 773,70 774,71 775,72 776,72 777,71 778,71 779,69 779,72 780,69 781,68 782,68 783,72 784,71 785,71 786,71 787,70 787,70 788,71 789,71 790,71 791,69 792,71 793,72 794,71 795,71 795,72 796,72 797,71 798,71 799,72 800,72 801,71 802,71 803,72 803,72 804,72 805,72 806,72 807,73 808,72 809,71 810,71 811,71 811,69 812,70 813,72 814,72 815,71 816,70 817,71 818,71 819,72 819,72 820,71 821,71 822,71 823,71 824,70 825,71 826,71 827,72 827,68 828,68 829,68 830,71 831,71 832,72 833,72 834,71 835,69 835,69 836,70 837,71 838,70 839,71 840,71 841,71 842,71 842,72 843,71 844,71 845,71 846,71 847,71 848,72 849,69 850,71 850,70 851,70 852,72 853,69 854,71 855,71 856,72 857,70 858,70 858,70 859,70 860,72 861,72 862,72 863,71 864,72 865,72 866,71 866,71 867,71 868,70 869,68 870,68 871,70 872,71 873,72 874,71 874,71 875,69 876,71 877,71 878,71 879,73 880,71 881,71 882,72 882,71 883,70 884,71 885,71 886,70 887,72 888,72 889,72 890,69 890,69 891,69 892,71 893,69 894,72 895,71 896,71 897,71 898,72 898,71 899,73 900,73 901,70 902,71 903,69 904,69 905,72 906,73 906,70 907,70 908,71 909,70 910,69 911,70 912,70 913,69 914,72 914,71 915,71 916,69 917,69 918,73 919,71 920,71 921,71 922,71 922,71 923,71 924,68 925,71 926,72 927,71 928,70 929,70 930,70 930,73 931,72 932,72 933,71 934,71 935,72 936,72 937,73 938,73 938,72 939,72 940,72 941,72 942,72 943,69 944,69 945,70 946,70 946,71 947,70 948,70 949,73 950,73 951,72 952,71 953,70 954,72 954,72 955,71 956,71 957,72 958,71 959,70 960,70 961,68 962,69 962,69 963,71 964,71 965,68 966,68 967,70 968,70 969,72 969,71 970,72 971,71 971,72 973,72 "/>
<polygon opacity="1" fill="#E6194B" points="83,698 84,698 85,697 86,697 87,697 88,697 88,697 89,696 90,696 91,696 92,696 93,695 94,695 95,694 96,694 96,693 97,693 98,693 99,693 100,693 101,691 102,690 103,690 104,688 104,686 105,686 106,685 107,685 108,685 109,685 110,684 111,684 112,683 112,683 113,682 114,682 115,682 116,682 117,682 118,681 119,680 120,679 120,679 121,679 122,679 123,679 124,679 125,676 126,676 127,675 128,675 128,674 129,674 130,674 131,674 132,673 133,673 134,673 135,671 136,670 136,670 137,670 138,670 139,669 140,669 141,669 142,669 143,668 144,668 144,668 145,668 146,668 147,668 148,668 149,668 150,668 151,667 152,667 152,667 153,666 154,666 155,666 156,666 157,666 158,666 159,665 160,665 160,665 161,665 162,665 163,664 164,664 165,664 166,663 167,662 168,662 168,661 169,661 170,661 171,661 172,661 173,659 174,658 175,658 176,656 176,656 177,656 178,655 179,654 180,651 181,651 182,651 183,651 184,651 184,651 185,648 186,648 187,648 188,647 189,644 190,644 191,644 192,643 192,642 193,642 194,642 195,641 196,641 197,640 198,639 199,638 199,637 200,636 201,636 202,635 203,635 204,635 205,635 206,635 207,634 207,633 208,633 209,633 210,633 211,632 212,632 213,628 214,628 215,627 215,626 216,626 217,626 218,626 219,626 220,626 221,626 222,626 223,626 223,625 224,625 225,625 226,625 227,624 228,624 229,623 230,623 231,622 231,622 232,622 233,621 234,621 235,621 236,621 237,621 238,620 239,620 239,620 240,620 241,620 242,618 243,618 244,616 245,616 246,616 247,616 247,616 248,616 249,616 250,616 251,615 252,615 253,615 254,615 255,615 255,615 256,615 257,614 258,614 259,612 260,612 261,612 262,612 263,612 263,612 264,612 265,610 266,610 267,610 268,610 269,610 270,610 271,610 271,606 272,606 273,606 274,606 275,606 276,605 277,605 278,605 279,604 279,604 280,604 281,604 282,603 283,603 284,601 285,600 286,600 287,600 287,600 288,599 289,599 290,599 291,598 292,597 293,597 294,597 295,597 295,597 296,597 297,597 298,596 299,596 300,594 301,594 302,594 303,594 303,594 304,593 305,593 306,593 307,593 308,593 309,593 310,593 311,593 311,592 312,590 313,590 314,589 315,589 316,589 317,587 318,587 319,587 319,587 320,586 321,585 322,585 323,585 324,583 325,582 326,582 326,582 327,581 328,581 329,578 330,577 331,577 332,576 333,576 334,574 334,574 335,573 336,570 337,569 338,569 339,569 340,569 341,568 342,568 342,568 343,568 344,568 345,568 346,568 347,567 348,567 349,566 350,566 350,565 351,565 352,564 353,564 354,564 355,562 356,562 357,562 358,562 358,562 359,560 360,560 361,557 362,556 363,556 364,556 365,556 366,556 366,556 367,556 368,556 369,556 370,556 371,554 372,554 373,554 374,554 374,554 375,554 376,553 377,553 378,553 379,553 380,552 381,552 382,551 382,551 383,551 384,551 385,551 386,551 387,551 388,550 389,549 390,547 390,547 391,547 392,547 393,546 394,546 395,546 396,545 397,545 398,545 398,545 399,545 400,545 401,545 402,544 403,544 404,544 405,544 406,544 406,544 407,543 408,542 409,542 410,542 411,541 412,541 413,541 414,541 414,540 415,540 416,540 417,539 418,539 419,539 420,538 421,538 422,538 422,538 423,538 424,538 425,538 426,537 427,536 428,536 429,536 430,535 430,535 431,534 432,532 433,532 434,531 435,530 436,529 437,529 438,528 438,528 439,528 440,528 441,527 442,526 443,526 444,524 445,524 446,524 446,524 447,524 448,524 449,522 450,522 451,522 452,521 453,521 454,521 454,520 455,520 456,518 457,517 458,517 459,517 460,517 461,517 461,517 462,517 463,516 464,516 465,515 466,514 467,513 468,513 469,513 469,513 470,511 471,511 472,511 473,511 474,509 475,509 476,509 477,509 477,507 478,507 479,507 480,507 481,506 482,506 483,505 484,505 485,505 485,505 486,505 487,505 488,504 489,504 490,503 491,502 492,502 493,502 493,502 494,502 495,502 496,502 497,502 498,502 499,499 500,498 501,497 501,497 502,497 503,496 504,495 505,494 506,494 507,494 508,493 509,493 509,492 510,489 511,488 512,488 513,488 514,487 515,487 516,487 517,487 517,486 518,485 519,485 520,484 521,482 522,482 523,482 524,480 525,480 525,480 526,479 527,479 528,479 529,479 530,478 531,477 532,477 533,475 533,475 534,475 535,474 536,474 537,474 538,474 539,474 540,473 541,473 541,473 542,473 543,473 544,472 545,472 546,472 547,472 548,471 549,471 549,471 550,471 551,471 552,469 553,467 554,467 555,467 556,467 557,467 557,467 558,467 559,466 560,465 561,464 562,463 563,463 564,462 565,462 565,462 566,461 567,461 568,461 569,461 570,460 571,460 572,460 573,459 573,459 574,459 575,457 576,457 577,455 578,454 579,453 580,453 581,453 581,453 582,453 583,452 584,452 585,452 586,452 587,451 588,450 588,450 589,449 590,449 591,449 592,449 593,449 594,449 595,447 596,447 596,447 597,446 598,446 599,446 600,446 601,446 602,445 603,444 604,444 604,444 605,444 606,444 607,444 608,441 609,441 610,441 611,439 612,438 612,437 613,437 614,435 615,433 616,433 617,433 618,433 619,433 620,433 620,432 621,432 622,432 623,431 624,430 625,429 626,429 627,429 628,429 628,427 629,426 630,426 631,426 632,426 633,425 634,424 635,424 636,423 636,423 637,423 638,423 639,422 640,420 641,420 642,418 643,417 644,415 644,415 645,415 646,413 647,413 648,412 649,412 650,411 651,411 652,409 652,409 653,409 654,408 655,408 656,408 657,408 658,408 659,408 660,408 660,408 661,406 662,405 663,405 664,405 665,405 666,405 667,405 668,405 668,405 669,405 670,405 671,405 672,405 673,405 674,405 675,405 676,403 676,403 677,403 678,403 679,403 680,403 681,402 682,402 683,401 684,401 684,401 685,401 686,399 687,398 688,398 689,398 690,398 691,398 692,395 692,395 693,395 694,395 695,395 696,394 697,393 698,393 699,393 700,393 700,391 701,390 702,390 703,390 704,388 705,388 706,388 707,386 708,384 708,384 709,383 710,382 711,382 712,382 713,381 714,380 715,379 715,379 716,379 717,377 718,376 719,376 720,376 721,375 722,374 723,374 723,372 724,372 725,371 726,370 727,370 728,368 729,368 730,368 731,368 731,368 732,368 733,367 734,367 735,367 736,366 737,366 738,365 739,362 739,362 740,361 741,361 742,360 743,359 744,355 745,354 746,351 747,351 747,351 748,351 749,350 750,350 751,349 752,348 753,347 754,347 755,347 755,347 756,347 757,346 758,346 759,346 760,346 761,346 762,346 763,344 763,343 764,341 765,341 766,340 767,340 768,340 769,340 770,339 771,337 771,337 772,336 773,334 774,334 775,334 776,334 777,332 778,332 779,328 779,327 780,324 781,322 782,322 783,322 784,320 785,320 786,317 787,317 787,314 788,314 789,314 790,314 791,312 792,312 793,311 794,310 795,309 795,309 796,309 797,308 798,307 799,307 800,307 801,307 802,307 803,306 803,306 804,305 805,305 806,305 807,304 808,304 809,303 810,303 811,303 811,300 812,299 813,299 814,299 815,298 816,297 817,296 818,295 819,294 819,294 820,294 821,294 822,292 823,292 824,291 825,289 826,287 827,287 827,284 828,284 829,284 830,284 831,282 832,281 833,281 834,280 835,278 835,278 836,275 837,275 838,274 839,274 840,273 841,270 842,270 842,268 843,268 844,268 845,268 846,268 847,268 848,268 849,266 850,263 850,261 851,261 852,261 853,258 854,257 855,256 856,255 857,254 858,250 858,250 859,248 860,247 861,247 862,247 863,247 864,245 865,245 866,243 866,243 867,242 868,240 869,236 870,236 871,235 872,235 873,233 874,232 874,231 875,226 876,225 877,224 878,223 879,222 880,220 881,220 882,219 882,217 883,214 884,212 885,211 886,207 887,207 888,206 889,206 890,203 890,203 891,203 892,201 893,197 894,196 895,194 896,194 897,194 898,193 898,192 899,191 900,190 901,187 902,186 903,182 904,180 905,179 906,179 906,175 907,175 908,173 909,173 910,171 911,168 912,168 913,167 914,166 914,165 915,165 916,161 917,161 918,161 919,159 920,157 921,156 922,156 922,156 923,156 924,151 925,150 926,149 927,147 928,144 929,144 930,144 930,143 931,142 932,141 933,140 934,140 935,139 936,139 937,138 938,138 938,136 939,136 940,136 941,136 942,136 943,133 944,129 945,127 946,126 946,125 947,122 948,119 949,118 950,118 951,118 952,117 953,114 954,113 954,112 955,109 956,107 957,106 958,104 959,101 960,100 961,94 962,89 962,85 963,85 964,85 965,81 966,81 967,78 968,78 969,77 969,76 970,74 971,72 971,72 973,72 973,699 83,699 "/>
<polyline fill="none" opacity="1" stroke="#E6194B" stroke-width="1" points="83,698 84,698 85,697 86,697 87,697 88,697 88,697 89,696 90,696 91,696 92,696 93,695 94,695 95,694 96,694 96,693 97,693 98,693 99,693 100,693 101,691 102,690 103,690 104,688 104,686 105,686 106,685 107,685 108,685 109,685 110,684 111,684 112,683 112,683 113,682 114,682 115,682 116,682 117,682 118,681 119,680 120,679 120,679 121,679 122,679 123,679 124,679 125,676 126,676 127,675 128,675 128,674 129,674 130,674 131,674 132,673 133,673 134,673 135,671 136,670 136,670 137,670 138,670 139,669 140,669 141,669 142,669 143,668 144,668 144,668 145,668 146,668 147,668 148,668 149,668 150,668 151,667 152,667 152,667 153,666 154,666 155,666 156,666 157,666 158,666 159,665 160,665 160,665 161,665 162,665 163,664 164,664 165,664 166,663 167,662 168,662 168,661 169,661 170,661 171,661 172,661 173,659 174,658 175,658 176,656 176,656 177,656 178,655 179,654 180,651 181,651 182,651 183,651 184,651 184,651 185,648 186,648 187,648 188,647 189,644 190,644 191,644 192,643 192,642 193,642 194,642 195,641 196,641 197,640 198,639 199,638 199,637 200,636 201,636 202,635 203,635 204,635 205,635 206,635 207,634 207,633 208,633 209,633 210,633 211,632 212,632 213,628 214,628 215,627 215,626 216,626 217,626 218,626 219,626 220,626 221,626 222,626 223,626 223,625 224,625 225,625 226,625 227,624 228,624 229,623 230,623 231,622 231,622 232,622 233,621 234,621 235,621 236,621 237,621 238,620 239,620 239,620 240,620 241,620 242,618 243,618 244,616 245,616 246,616 247,616 247,616 248,616 249,616 250,616 251,615 252,615 253,615 254,615 255,615 255,615 256,615 257,614 258,614 259,612 260,612 261,612 262,612 263,612 263,612 264,612 265,610 266,610 267,610 268,610 269,610 270,610 271,610 271,606 272,606 273,606 274,606 275,606 276,605 277,605 278,605 279,604 279,604 280,604 281,604 282,603 283,603 284,601 285,600 286,600 287,600 287,600 288,599 289,599 290,599 291,598 292,597 293,597 294,597 295,597 295,597 296,597 297,597 298,596 299,596 300,594 301,594 302,594 303,594 303,594 304,593 305,593 306,593 307,593 308,593 309,593 310,593 311,593 311,592 312,590 313,590 314,589 315,589 316,589 317,587 318,587 319,587 319,587 320,586 321,585 322,585 323,585 324,583 325,582 326,582 326,582 327,581 328,581 329,578 330,577 331,577 332,576 333,576 334,574 334,574 335,573 336,570 337,569 338,569 339,569 340,569 341,568 342,568 342,568 343,568 344,568 345,568 346,568 347,567 348,567 349,566 350,566 350,565 351,565 352,564 353,564 354,564 355,562 356,562 357,562 358,562 358,562 359,560 360,560 361,557 362,556 363,556 364,556 365,556 366,556 366,556 367,556 368,556 369,556 370,556 371,554 372,554 373,554 374,554 374,554 375,554 376,553 377,553 378,553 379,553 380,552 381,552 382,551 382,551 383,551 384,551 385,551 386,551 387,551 388,550 389,549 390,547 390,547 391,547 392,547 393,546 394,546 395,546 396,545 397,545 398,545 398,545 399,545 400,545 401,545 402,544 403,544 404,544 405,544 406,544 406,544 407,543 408,542 409,542 410,542 411,541 412,541 413,541 414,541 414,540 415,540 416,540 417,539 418,539 419,539 420,538 421,538 422,538 422,538 423,538 424,538 425,538 426,537 427,536 428,536 429,536 430,535 430,535 431,534 432,532 433,532 434,531 435,530 436,529 437,529 438,528 438,528 439,528 440,528 441,527 442,526 443,526 444,524 445,524 446,524 446,524 447,524 448,524 449,522 450,522 451,522 452,521 453,521 454,521 454,520 455,520 456,518 457,517 458,517 459,517 460,517 461,517 461,517 462,517 463,516 464,516 465,515 466,514 467,513 468,513 469,513 469,513 470,511 471,511 472,511 473,511 474,509 475,509 476,509 477,509 477,507 478,507 479,507 480,507 481,506 482,506 483,505 484,505 485,505 485,505 486,505 487,505 488,504 489,504 490,503 491,502 492,502 493,502 493,502 494,502 495,502 496,502 497,502 498,502 499,499 500,498 501,497 501,497 502,497 503,496 504,495 505,494 506,494 507,494 508,493 509,493 509,492 510,489 511,488 512,488 513,488 514,487 515,487 516,487 517,487 517,486 518,485 519,485 520,484 521,482 522,482 523,482 524,480 525,480 525,480 526,479 527,479 528,479 529,479 530,478 531,477 532,477 533,475 533,475 534,475 535,474 536,474 537,474 538,474 539,474 540,473 541,473 541,473 542,473 543,473 544,472 545,472 546,472 547,472 548,471 549,471 549,471 550,471 551,471 552,469 553,467 554,467 555,467 556,467 557,467 557,467 558,467 559,466 560,465 561,464 562,463 563,463 564,462 565,462 565,462 566,461 567,461 568,461 569,461 570,460 571,460 572,460 573,459 573,459 574,459 575,457 576,457 577,455 578,454 579,453 580,453 581,453 581,453 582,453 583,452 584,452 585,452 586,452 587,451 588,450 588,450 589,449 590,449 591,449 592,449 593,449 594,449 595,447 596,447 596,447 597,446 598,446 599,446 600,446 601,446 602,445 603,444 604,444 604,444 605,444 606,444 607,444 608,441 609,441 610,441 611,439 612,438 612,437 613,437 614,435 615,433 616,433 617,433 618,433 619,433 620,433 620,432 621,432 622,432 623,431 624,430 625,429 626,429 627,429 628,429 628,427 629,426 630,426 631,426 632,426 633,425 634,424 635,424 636,423 636,423 637,423 638,423 639,422 640,420 641,420 642,418 643,417 644,415 644,415 645,415 646,413 647,413 648,412 649,412 650,411 651,411 652,409 652,409 653,409 654,408 655,408 656,408 657,408 658,408 659,408 660,408 660,408 661,406 662,405 663,405 664,405 665,405 666,405 667,405 668,405 668,405 669,405 670,405 671,405 672,405 673,405 674,405 675,405 676,403 676,403 677,403 678,403 679,403 680,403 681,402 682,402 683,401 684,401 684,401 685,401 686,399 687,398 688,398 689,398 690,398 691,398 692,395 692,395 693,395 694,395 695,395 696,394 697,393 698,393 699,393 700,393 700,391 701,390 702,390 703,390 704,388 705,388 706,388 707,386 708,384 708,384 709,383 710,382 711,382 712,382 713,381 714,380 715,379 715,379 716,379 717,377 718,376 719,376 720,376 721,375 722,374 723,374 723,372 724,372 725,371 726,370 727,370 728,368 729,368 730,368 731,368 731,368 732,368 733,367 734,367 735,367 736,366 737,366 738,365 739,362 739,362 740,361 741,361 742,360 743,359 744,355 745,354 746,351 747,351 747,351 748,351 749,350 750,350 751,349 752,348 753,347 754,347 755,347 755,347 756,347 757,346 758,346 759,346 760,346 761,346 762,346 763,344 763,343 764,341 765,341 766,340 767,340 768,340 769,340 770,339 771,337 771,337 772,336 773,334 774,334 775,334 776,334 777,332 778,332 779,328 779,327 780,324 781,322 782,322 783,322 784,320 785,320 786,317 787,317 787,314 788,314 789,314 790,314 791,312 792,312 793,311 794,310 795,309 795,309 796,309 797,308 798,307 799,307 800,307 801,307 802,307 803,306 803,306 804,305 805,305 806,305 807,304 808,304 809,303 810,303 811,303 811,300 812,299 813,299 814,299 815,298 816,297 817,296 818,295 819,294 819,294 820,294 821,294 822,292 823,292 824,291 825,289 826,287 827,287 827,284 828,284 829,284 830,284 831,282 832,281 833,281 834,280 835,278 835,278 836,275 837,275 838,274 839,274 840,273 841,270 842,270 842,268 843,268 844,268 845,268 846,268 847,268 848,268 849,266 850,263 850,261 851,261 852,261 853,258 854,257 855,256 856,255 857,254 858,250 858,250 859,248 860,247 861,247 862,247 863,247 864,245 865,245 866,243 866,243 867,242 868,240 869,236 870,236 871,235 872,235 873,233 874,232 874,231 875,226 876,225 877,224 878,223 879,222 880,220 881,220 882,219 882,217 883,214 884,212 885,211 886,207 887,207 888,206 889,206 890,203 890,203 891,203 892,201 893,197 894,196 895,194 896,194 897,194 898,193 898,192 899,191 900,190 901,187 902,186 903,182 904,180 905,179 906,179 906,175 907,175 908,173 909,173 910,171 911,168 912,168 913,167 914,166 914,165 915,165 916,161 917,161 918,161 919,159 920,157 921,156 922,156 922,156 923,156 924,151 925,150 926,149 927,147 928,144 929,144 930,144 930,143 931,142 932,141 933,140 934,140 935,139 936,139 937,138 938,138 938,136 939,136 940,136 941,136 942,136 943,133 944,129 945,127 946,126 946,125 947,122 948,119 949,118 950,118 951,118 952,117 953,114 954,113 954,112 955,109 956,107 957,106 958,104 959,101 960,100 961,94 962,89 962,85 963,85 964,85 965,81 966,81 967,78 968,78 969,77 969,76 970,74 971,72 971,72 973,72 "/>
<line opacity="0.1" stroke="#000000" stroke-width="1" x1="83" y1="699" x2="83" y2="68"/>
<line opacity="0.1" stroke="#000000" stroke-width="1" x1="92" y1="699" x2="92" y2="68"/>
<line opacity="0.1" stroke="#000000" stroke-width="1" x1="101" y1="699" x2="101" y2="68"/>
<line opacity="0.1" stroke="#000000" stroke-width="1" x1="110" y1="699" x2="110" y2="68"/>
<line opacity="0.1" stroke="#000000" stroke-width="1" x1="119" y1="699" x2="119" y2="68"/>
<line opacity="0.1" stroke="#000000" stroke-width="1" x1="128" y1="699" x2="128" y2="68"/>
<line opacity="0.1" stroke="#000000" stroke-width="1" x1="137" y1="699" x2="137" y2="68"/>
<line opacity="0.1" stroke="#000000" stroke-width="1" x1="146" y1="699" x2="146" y2="68"/>
<line opacity="0.1" stroke="#000000" stroke-width="1" x1="154" y1="699" x2="154" y2="68"/>
<line opacity="0.1" stroke="#000000" stroke-width="1" x1="163" y1="699" x2="163" y2="68"/>
<line opacity="0.1" stroke="#000000" stroke-width="1" x1="172" y1="699" x2="172" y2="68"/>
<line opacity="0.1" stroke="#000000" stroke-width="1" x1="181" y1="699" x2="181" y2="68"/>
<line opacity="0.1" stroke="#000000" stroke-width="1" x1="190" y1="699" x2="190" y2="68"/>
<line opacity="0.1" stroke="#000000" stroke-width="1" x1="199" y1="699" x2="199" y2="68"/>
<line opacity="0.1" stroke="#000000" stroke-width="1" x1="208" y1="699" x2="208" y2="68"/>
<line opacity="0.1" stroke="#000000" stroke-width="1" x1="217" y1="699" x2="217" y2="68"/>
<line opacity="0.1" stroke="#000000" stroke-width="1" x1="226" y1="699" x2="226" y2="68"/>
<line opacity="0.1" stroke="#000000" stroke-width="1" x1="234" y1="699" x2="234" y2="68"/>
<line opacity="0.1" stroke="#000000" stroke-width="1" x1="243" y1="699" x2="243" y2="68"/>
<line opacity="0.1" stroke="#000000" stroke-width="1" x1="252" y1="699" x2="252" y2="68"/>
<line opacity="0.1" stroke="#000000" stroke-width="1" x1="261" y1="699" x2="261" y2="68"/>
<line opacity="0.1" stroke="#000000" stroke-width="1" x1="270" y1="699" x2="270" y2="68"/>
<line opacity="0.1" stroke="#000000" stroke-width="1" x1="279" y1="699" x2="279" y2="68"/>
<line opacity="0.1" stroke="#000000" stroke-width="1" x1="288" y1="699" x2="288" y2="68"/>
<line opacity="0.1" stroke="#000000" stroke-width="1" x1="297" y1="699" x2="297" y2="68"/>
<line opacity="0.1" stroke="#000000" stroke-width="1" x1="306" y1="699" x2="306" y2="68"/>
<line opacity="0.1" stroke="#000000" stroke-width="1" x1="315" y1="699" x2="315" y2="68"/>
<line opacity="0.1" stroke="#000000" stroke-width="1" x1="323" y1="699" x2="323" y2="68"/>
<line opacity="0.1" stroke="#000000" stroke-width="1" x1="332" y1="699" x2="332" y2="68"/>
<line opacity="0.1" stroke="#000000" stroke-width="1" x1="341" y1="699" x2="341" y2="68"/>
<line opacity="0.1" stroke="#000000" stroke-width="1" x1="350" y1="699" x2="350" y2="68"/>
<line opacity="0.1" stroke="#000000" stroke-width="1" x1="359" y1="699" x2="359" y2="68"/>
<line opacity="0.1" stroke="#000000" stroke-width="1" x1="368" y1="699" x2="368" y2="68"/>
<line opacity="0.1" stroke="#000000" stroke-width="1" x1="377" y1="699" x2="377" y2="68"/>
<line opacity="0.1" stroke="#000000" stroke-width="1" x1="386" y1="699" x2="386" y2="68"/>
<line opacity="0.1" stroke="#000000" stroke-width="1" x1="395" y1="699" x2="395" y2="68"/>
<line opacity="0.1" stroke="#000000" stroke-width="1" x1="403" y1="699" x2="403" y2="68"/>
<line opacity="0.1" stroke="#000000" stroke-width="1" x1="412" y1="699" x2="412" y2="68"/>
<line opacity="0.1" stroke="#000000" stroke-width="1" x1="421" y1="699" x2="421" y2="68"/>
<line opacity="0.1" stroke="#000000" stroke-width="1" x1="430" y1="699" x2="430" y2="68"/>
<line opacity="0.1" stroke="#000000" stroke-width="1" x1="439" y1="699" x2="439" y2="68"/>
<line opacity="0.1" stroke="#000000" stroke-width="1" x1="448" y1="699" x2="448" y2="68"/>
<line opacity="0.1" stroke="#000000" stroke-width="1" x1="457" y1="699" x2="457" y2="68"/>
<line opacity="0.1" stroke="#000000" stroke-width="1" x1="466" y1="699" x2="466" y2="68"/>
<line opacity="0.1" stroke="#000000" stroke-width="1" x1="475" y1="699" x2="475" y2="68"/>
<line opacity="0.1" stroke="#000000" stroke-width="1" x1="483" y1="699" x2="483" y2="68"/>
<line opacity="0.1" stroke="#000000" stroke-width="1" x1="492" y1="699" x2="492" y2="68"/>
<line opacity="0.1" stroke="#000000" stroke-width="1" x1="501" y1="699" x2="501" y2="68"/>
<line opacity="0.1" stroke="#000000" stroke-width="1" x1="510" y1="699" x2="510" y2="68"/>
<line opacity="0.1" stroke="#000000" stroke-width="1" x1="519" y1="699" x2="519" y2="68"/>
<line opacity="0.1" stroke="#000000" stroke-width="1" x1="528" y1="699" x2="528" y2="68"/>
<line opacity="0.1" stroke="#000000" stroke-width="1" x1="537" y1="699" x2="537" y2="68"/>
<line opacity="0.1" stroke="#000000" stroke-width="1" x1="546" y1="699" x2="546" y2="68"/>
<line opacity="0.1" stroke="#000000" stroke-width="1" x1="555" y1="699" x2="555" y2="68"/>
<line opacity="0.1" stroke="#000000" stroke-width="1" x1="563" y1="699" x2="563" y2="68"/>
<line opacity="0.1" stroke="#000000" stroke-width="1" x1="572" y1="699" x2="572" y2="68"/>
<line opacity="0.1" stroke="#000000" stroke-width="1" x1="581" y1="699" x2="581" y2="68"/>
<line opacity="0.1" stroke="#000000" stroke-width="1" x1="590" y1="699" x2="590" y2="68"/>
<line opacity="0.1" stroke="#000000" stroke-width="1" x1="599" y1="699" x2="599" y2="68"/>
<line opacity="0.1" stroke="#000000" stroke-width="1" x1="608" y1="699" x2="608" y2="68"/>
<line opacity="0.1" stroke="#000000" stroke-width="1" x1="617" y1="699" x2="617" y2="68"/>
<line opacity="0.1" stroke="#000000" stroke-width="1" x1="626" y1="699" x2="626" y2="68"/>
<line opacity="0.1" stroke="#000000" stroke-width="1" x1="635" y1="699" x2="635" y2="68"/>
<line opacity="0.1" stroke="#000000" stroke-width="1" x1="644" y1="699" x2="644" y2="68"/>
<line opacity="0.1" stroke="#000000" stroke-width="1" x1="652" y1="699" x2="652" y2="68"/>
<line opacity="0.1" stroke="#000000" stroke-width="1" x1="661" y1="699" x2="661" y2="68"/>
<line opacity="0.1" stroke="#000000" stroke-width="1" x1="670" y1="699" x2="670" y2="68"/>
<line opacity="0.1" stroke="#000000" stroke-width="1" x1="679" y1="699" x2="679" y2="68"/>
<line opacity="0.1" stroke="#000000" stroke-width="1" x1="688" y1="699" x2="688" y2="68"/>
<line opacity="0.1" stroke="#000000" stroke-width="1" x1="697" y1="699" x2="697" y2="68"/>
<line opacity="0.1" stroke="#000000" stroke-width="1" x1="706" y1="699" x2="706" y2="68"/>
<line opacity="0.1" stroke="#000000" stroke-width="1" x1="715" y1="699" x2="715" y2="68"/>
<line opacity="0.1" stroke="#000000" stroke-width="1" x1="724" y1="699" x2="724" y2="68"/>
<line opacity="0.1" stroke="#000000" stroke-width="1" x1="732" y1="699" x2="732" y2="68"/>
<line opacity="0.1" stroke="#000000" stroke-width="1" x1="741" y1="699" x2="741" y2="68"/>
<line opacity="0.1" stroke="#000000" stroke-width="1" x1="750" y1="699" x2="750" y2="68"/>
<line opacity="0.1" stroke="#000000" stroke-width="1" x1="759" y1="699" x2="759" y2="68"/>
<line opacity="0.1" stroke="#000000" stroke-width="1" x1="768" y1="699" x2="768" y2="68"/>
<line opacity="0.1" stroke="#000000" stroke-width="1" x1="777" y1="699" x2="777" y2="68"/>
<line opacity="0.1" stroke="#000000" stroke-width="1" x1="786" y1="699" x2="786" y2="68"/>
<line opacity="0.1" stroke="#000000" stroke-width="1" x1="795" y1="699" x2="795" y2="68"/>
<line opacity="0.1" stroke="#000000" stroke-width="1" x1="804" y1="699" x2="804" y2="68"/>
<line opacity="0.1" stroke="#000000" stroke-width="1" x1="812" y1="699" x2="812" y2="68"/>
<line opacity="0.1" stroke="#000000" stroke-width="1" x1="821" y1="699" x2="821" y2="68"/>
<line opacity="0.1" stroke="#000000" stroke-width="1" x1="830" y1="699" x2="830" y2="68"/>
<line opacity="0.1" stroke="#000000" stroke-width="1" x1="839" y1="699" x2="839" y2="68"/>
<line opacity="0.1" stroke="#000000" stroke-width="1" x1="848" y1="699" x2="848" y2="68"/>
<line opacity="0.1" stroke="#000000" stroke-width="1" x1="857" y1="699" x2="857" y2="68"/>
<line opacity="0.1" stroke="#000000" stroke-width="1" x1="866" y1="699" x2="866" y2="68"/>
<line opacity="0.1" stroke="#000000" stroke-width="1" x1="875" y1="699" x2="875" y2="68"/>
<line opacity="0.1" stroke="#000000" stroke-width="1" x1="884" y1="699" x2="884" y2="68"/>
<line opacity="0.1" stroke="#000000" stroke-width="1" x1="892" y1="699" x2="892" y2="68"/>
<line opacity="0.1" stroke="#000000" stroke-width="1" x1="901" y1="699" x2="901" y2="68"/>
<line opacity="0.1" stroke="#000000" stroke-width="1" x1="910" y1="699" x2="910" y2="68"/>
<line opacity="0.1" stroke="#000000" stroke-width="1" x1="919" y1="699" x2="919" y2="68"/>
<line opacity="0.1" stroke="#000000" stroke-width="1" x1="928" y1="699" x2="928" y2="68"/>
<line opacity="0.1" stroke="#000000" stroke-width="1" x1="937" y1="699" x2="937" y2="68"/>
<line opacity="0.1" stroke="#000000" stroke-width="1" x1="946" y1="699" x2="946" y2="68"/>
<line opacity="0.1" stroke="#000000" stroke-width="1" x1="955" y1="699" x2="955" y2="68"/>
<line opacity="0.1" stroke="#000000" stroke-width="1" x1="964" y1="699" x2="964" y2="68"/>
<line opacity="0.1" stroke="#000000" stroke-width="1" x1="78" y1="699" x2="973" y2="699"/>
<line opacity="0.1" stroke="#000000" stroke-width="1" x1="78" y1="688" x2="973" y2="688"/>
<line opacity="0.1" stroke="#000000" stroke-width="1" x1="78" y1="677" x2="973" y2="677"/>
<line opacity="0.1" stroke="#000000" stroke-width="1" x1="78" y1="666" x2="973" y2="666"/>
<line opacity="0.1" stroke="#000000" stroke-width="1" x1="78" y1="655" x2="973" y2="655"/>
<line opacity="0.1" stroke="#000000" stroke-width="1" x1="78" y1="644" x2="973" y2="644"/>
<line opacity="0.1" stroke="#000000" stroke-width="1" x1="78" y1="633" x2="973" y2="633"/>
<line opacity="0.1" stroke="#000000" stroke-width="1" x1="78" y1="622" x2="973" y2="622"/>
<line opacity="0.1" stroke="#000000" stroke-width="1" x1="78" y1="611" x2="973" y2="611"/>
<line opacity="0.1" stroke="#000000" stroke-width="1" x1="78" y1="601" x2="973" y2="601"/>
<line opacity="0.1" stroke="#000000" stroke-width="1" x1="78" y1="590" x2="973" y2="590"/>
<line opacity="0.1" stroke="#000000" stroke-width="1" x1="78" y1="579" x2="973" y2="579"/>
<line opacity="0.1" stroke="#000000" stroke-width="1" x1="78" y1="568" x2="973" y2="568"/>
<line opacity="0.1" stroke="#000000" stroke-width="1" x1="78" y1="557" x2="973" y2="557"/>
<line opacity="0.1" stroke="#000000" stroke-width="1" x1="78" y1="546" x2="973" y2="546"/>
<line opacity="0.1" stroke="#000000" stroke-width="1" x1="78" y1="535" x2="973" y2="535"/>
<line opacity="0.1" stroke="#000000" stroke-width="1" x1="78" y1="524" x2="973" y2="524"/>
<line opacity="0.1" stroke="#000000" stroke-width="1" x1="78" y1="513" x2="973" y2="513"/>
<line opacity="0.1" stroke="#000000" stroke-width="1" x1="78" y1="503" x2="973" y2="503"/>
<line opacity="0.1" stroke="#000000" stroke-width="1" x1="78" y1="492" x2="973" y2="492"/>
<line opacity="0.1" stroke="#000000" stroke-width="1" x1="78" y1="481" x2="973" y2="481"/>
<line opacity="0.1" stroke="#000000" stroke-width="1" x1="78" y1="470" x2="973" y2="470"/>
<line opacity="0.1" stroke="#000000" stroke-width="1" x1="78" y1="459" x2="973" y2="459"/>
<line opacity="0.1" stroke="#000000" stroke-width="1" x1="78" y1="448" x2="973" y2="448"/>
<line opacity="0.1" stroke="#000000" stroke-width="1" x1="78" y1="437" x2="973" y2="437"/>
<line opacity="0.1" stroke="#000000" stroke-width="1" x1="78" y1="426" x2="973" y2="426"/>
<line opacity="0.1" stroke="#000000" stroke-width="1" x1="78" y1="415" x2="973" y2="415"/>
<line opacity="0.1" stroke="#000000" stroke-width="1" x1="78" y1="405" x2="973" y2="405"/>
<line opacity="0.1" stroke="#000000" stroke-width="1" x1="78" y1="394" x2="973" y2="394"/>
<line opacity="0.1" stroke="#000000" stroke-width="1" x1="78" y1="383" x2="973" y2="383"/>
<line opacity="0.1" stroke="#000000" stroke-width="1" x1="78" y1="372" x2="973" y2="372"/>
<line opacity="0.1" stroke="#000000" stroke-width="1" x1="78" y1="361" x2="973" y2="361"/>
<line opacity="0.1" stroke="#000000" stroke-width="1" x1="78" y1="350" x2="973" y2="350"/>
<line opacity="0.1" stroke="#000000" stroke-width="1" x1="78" y1="339" x2="973" y2="339"/>
<line opacity="0.1" stroke="#000000" stroke-width="1" x1="78" y1="328" x2="973" y2="328"/>
<line opacity="0.1" stroke="#000000" stroke-width="1" x1="78" y1="317" x2="973" y2="317"/>
<line opacity="0.1" stroke="#000000" stroke-width="1" x1="78" y1="307" x2="973" y2="307"/>
<line opacity="0.1" stroke="#000000" stroke-width="1" x1="78" y1="296" x2="973" y2="296"/>
<line opacity="0.1" stroke="#000000" stroke-width="1" x1="78" y1="285" x2="973" y2="285"/>
<line opacity="0.1" stroke="#000000" stroke-width="1" x1="78" y1="274" x2="973" y2="274"/>
<line opacity="0.1" stroke="#000000" stroke-width="1" x1="78" y1="263" x2="973" y2="263"/>
<line opacity="0.1" stroke="#000000" stroke-width="1" x1="78" y1="252" x2="973" y2="252"/>
<line opacity="0.1" stroke="#000000" stroke-width="1" x1="78" y1="241" x2="973" y2="241"/>
<line opacity="0.1" stroke="#000000" stroke-width="1" x1="78" y1="230" x2="973" y2="230"/>
<line opacity="0.1" stroke="#000000" stroke-width="1" x1="78" y1="219" x2="973" y2="219"/>
<line opacity="0.1" stroke="#000000" stroke-width="1" x1="78" y1="209" x2="973" y2="209"/>
<line opacity="0.1" stroke="#000000" stroke-width="1" x1="78" y1="198" x2="973" y2="198"/>
<line opacity="0.1" stroke="#000000" stroke-width="1" x1="78" y1="187" x2="973" y2="187"/>
<line opacity="0.1" stroke="#000000" stroke-width="1" x1="78" y1="176" x2="973" y2="176"/>
<line opacity="0.1" stroke="#000000" stroke-width="1" x1="78" y1="165" x2="973" y2="165"/>
<line opacity="0.1" stroke="#000000" stroke-width="1" x1="78" y1="154" x2="973" y2="154"/>
<line opacity="0.1" stroke="#000000" stroke-width="1" x1="78" y1="143" x2="973" y2="143"/>
<line opacity="0.1" stroke="#000000" stroke-width="1" x1="78" y1="132" x2="973" y2="132"/>
<line opacity="0.1" stroke="#000000" stroke-width="1" x1="78" y1="121" x2="973" y2="121"/>
<line opacity="0.1" stroke="#000000" stroke-width="1" x1="78" y1="111" x2="973" y2="111"/>
<line opacity="0.1" stroke="#000000" stroke-width="1" x1="78" y1="100" x2="973" y2="100"/>
<line opacity="0.1" stroke="#000000" stroke-width="1" x1="78" y1="89" x2="973" y2="89"/>
<line opacity="0.1" stroke="#000000" stroke-width="1" x1="78" y1="78" x2="973" y2="78"/>
<text x="8" y="384" dy="0.76em" text-anchor="middle" font-family="sans-serif" font-size="9.67741935483871" opacity="1" fill="#000000" transform="rotate(270, 8, 384)">
Memory usage
</text>
<text x="526" y="760" dy="-0.5ex" text-anchor="middle" font-family="sans-serif" font-size="9.67741935483871" opacity="1" fill="#000000">
Time
</text>
<line opacity="0.2" stroke="#000000" stroke-width="1" x1="101" y1="699" x2="101" y2="68"/>
<line opacity="0.2" stroke="#000000" stroke-width="1" x1="190" y1="699" x2="190" y2="68"/>
<line opacity="0.2" stroke="#000000" stroke-width="1" x1="279" y1="699" x2="279" y2="68"/>
<line opacity="0.2" stroke="#000000" stroke-width="1" x1="368" y1="699" x2="368" y2="68"/>
<line opacity="0.2" stroke="#000000" stroke-width="1" x1="457" y1="699" x2="457" y2="68"/>
<line opacity="0.2" stroke="#000000" stroke-width="1" x1="546" y1="699" x2="546" y2="68"/>
<line opacity="0.2" stroke="#000000" stroke-width="1" x1="635" y1="699" x2="635" y2="68"/>
<line opacity="0.2" stroke="#000000" stroke-width="1" x1="724" y1="699" x2="724" y2="68"/>
<line opacity="0.2" stroke="#000000" stroke-width="1" x1="812" y1="699" x2="812" y2="68"/>
<line opacity="0.2" stroke="#000000" stroke-width="1" x1="901" y1="699" x2="901" y2="68"/>
<line opacity="0.2" stroke="#000000" stroke-width="1" x1="78" y1="699" x2="973" y2="699"/>
<line opacity="0.2" stroke="#000000" stroke-width="1" x1="78" y1="590" x2="973" y2="590"/>
<line opacity="0.2" stroke="#000000" stroke-width="1" x1="78" y1="481" x2="973" y2="481"/>
<line opacity="0.2" stroke="#000000" stroke-width="1" x1="78" y1="372" x2="973" y2="372"/>
<line opacity="0.2" stroke="#000000" stroke-width="1" x1="78" y1="263" x2="973" y2="263"/>
<line opacity="0.2" stroke="#000000" stroke-width="1" x1="78" y1="154" x2="973" y2="154"/>
<polyline fill="none" opacity="1" stroke="#000000" stroke-width="1" points="77,68 77,699 "/>
<text x="68" y="699" dy="0.5ex" text-anchor="end" font-family="sans-serif" font-size="9.67741935483871" opacity="1" fill="#000000">
0.0 KB
</text>
<polyline fill="none" opacity="1" stroke="#000000" stroke-width="1" points="72,699 77,699 "/>
<text x="68" y="590" dy="0.5ex" text-anchor="end" font-family="sans-serif" font-size="9.67741935483871" opacity="1" fill="#000000">
9.8 KB
</text>
<polyline fill="none" opacity="1" stroke="#000000" stroke-width="1" points="72,590 77,590 "/>
<text x="68" y="481" dy="0.5ex" text-anchor="end" font-family="sans-serif" font-size="9.67741935483871" opacity="1" fill="#000000">
19.5 KB
</text>
<polyline fill="none" opacity="1" stroke="#000000" stroke-width="1" points="72,481 77,481 "/>
<text x="68" y="372" dy="0.5ex" text-anchor="end" font-family="sans-serif" font-size="9.67741935483871" opacity="1" fill="#000000">
29.3 KB
</text>
<polyline fill="none" opacity="1" stroke="#000000" stroke-width="1" points="72,372 77,372 "/>
<text x="68" y="263" dy="0.5ex" text-anchor="end" font-family="sans-serif" font-size="9.67741935483871" opacity="1" fill="#000000">
39.1 KB
</text>
<polyline fill="none" opacity="1" stroke="#000000" stroke-width="1" points="72,263 77,263 "/>
<text x="68" y="154" dy="0.5ex" text-anchor="end" font-family="sans-serif" font-size="9.67741935483871" opacity="1" fill="#000000">
48.8 KB
</text>
<polyline fill="none" opacity="1" stroke="#000000" stroke-width="1" points="72,154 77,154 "/>
<polyline fill="none" opacity="1" stroke="#000000" stroke-width="1" points="78,700 973,700 "/>
<text x="101" y="710" dy="0.76em" text-anchor="middle" font-family="sans-serif" font-size="9.67741935483871" opacity="1" fill="#000000">
02:04:17
</text>
<polyline fill="none" opacity="1" stroke="#000000" stroke-width="1" points="101,700 101,705 "/>
<text x="190" y="710" dy="0.76em" text-anchor="middle" font-family="sans-serif" font-size="9.67741935483871" opacity="1" fill="#000000">
02:04:18
</text>
<polyline fill="none" opacity="1" stroke="#000000" stroke-width="1" points="190,700 190,705 "/>
<text x="279" y="710" dy="0.76em" text-anchor="middle" font-family="sans-serif" font-size="9.67741935483871" opacity="1" fill="#000000">
02:04:19
</text>
<polyline fill="none" opacity="1" stroke="#000000" stroke-width="1" points="279,700 279,705 "/>
<text x="368" y="710" dy="0.76em" text-anchor="middle" font-family="sans-serif" font-size="9.67741935483871" opacity="1" fill="#000000">
02:04:20
</text>
<polyline fill="none" opacity="1" stroke="#000000" stroke-width="1" points="368,700 368,705 "/>
<text x="457" y="710" dy="0.76em" text-anchor="middle" font-family="sans-serif" font-size="9.67741935483871" opacity="1" fill="#000000">
02:04:21
</text>
<polyline fill="none" opacity="1" stroke="#000000" stroke-width="1" points="457,700 457,705 "/>
<text x="546" y="710" dy="0.76em" text-anchor="middle" font-family="sans-serif" font-size="9.67741935483871" opacity="1" fill="#000000">
02:04:22
</text>
<polyline fill="none" opacity="1" stroke="#000000" stroke-width="1" points="546,700 546,705 "/>
<text x="635" y="710" dy="0.76em" text-anchor="middle" font-family="sans-serif" font-size="9.67741935483871" opacity="1" fill="#000000">
02:04:23
</text>
<polyline fill="none" opacity="1" stroke="#000000" stroke-width="1" points="635,700 635,705 "/>
<text x="724" y="710" dy="0.76em" text-anchor="middle" font-family="sans-serif" font-size="9.67741935483871" opacity="1" fill="#000000">
02:04:24
</text>
<polyline fill="none" opacity="1" stroke="#000000" stroke-width="1" points="724,700 724,705 "/>
<text x="812" y="710" dy="0.76em" text-anchor="middle" font-family="sans-serif" font-size="9.67741935483871" opacity="1" fill="#000000">
02:04:25
</text>
<polyline fill="none" opacity="1" stroke="#000000" stroke-width="1" points="812,700 812,705 "/>
<text x="901" y="710" dy="0.76em" text-anchor="middle" font-family="sans-serif" font-size="9.67741935483871" opacity="1" fill="#000000">
02:04:26
</text>
<polyline fill="none" opacity="1" stroke="#000000" stroke-width="1" points="901,700 901,705 "/>
<polyline fill="none" opacity="1" stroke="#000000" stroke-width="1" points="78,67 974,67 "/>
<text x="101" y="58" dy="-0.5ex" text-anchor="middle" font-family="sans-serif" font-size="9.67741935483871" opacity="1" fill="#000000">
+265ms
</text>
<polyline fill="none" opacity="1" stroke="#000000" stroke-width="1" points="101,62 101,67 "/>
<text x="190" y="58" dy="-0.5ex" text-anchor="middle" font-family="sans-serif" font-size="9.67741935483871" opacity="1" fill="#000000">
+1s
</text>
<polyline fill="none" opacity="1" stroke="#000000" stroke-width="1" points="190,62 190,67 "/>
<text x="279" y="58" dy="-0.5ex" text-anchor="middle" font-family="sans-serif" font-size="9.67741935483871" opacity="1" fill="#000000">
+2s
</text>
<polyline fill="none" opacity="1" stroke="#000000" stroke-width="1" points="279,62 279,67 "/>
<text x="368" y="58" dy="-0.5ex" text-anchor="middle" font-family="sans-serif" font-size="9.67741935483871" opacity="1" fill="#000000">
+3s
</text>
<polyline fill="none" opacity="1" stroke="#000000" stroke-width="1" points="368,62 368,67 "/>
<text x="457" y="58" dy="-0.5ex" text-anchor="middle" font-family="sans-serif" font-size="9.67741935483871" opacity="1" fill="#000000">
+4s
</text>
<polyline fill="none" opacity="1" stroke="#000000" stroke-width="1" points="457,62 457,67 "/>
<text x="546" y="58" dy="-0.5ex" text-anchor="middle" font-family="sans-serif" font-size="9.67741935483871" opacity="1" fill="#000000">
+5s
</text>
<polyline fill="none" opacity="1" stroke="#000000" stroke-width="1" points="546,62 546,67 "/>
<text x="635" y="58" dy="-0.5ex" text-anchor="middle" font-family="sans-serif" font-size="9.67741935483871" opacity="1" fill="#000000">
+6s
</text>
<polyline fill="none" opacity="1" stroke="#000000" stroke-width="1" points="635,62 635,67 "/>
<text x="724" y="58" dy="-0.5ex" text-anchor="middle" font-family="sans-serif" font-size="9.67741935483871" opacity="1" fill="#000000">
+7s
</text>
<polyline fill="none" opacity="1" stroke="#000000" stroke-width="1" points="724,62 724,67 "/>
<text x="813" y="58" dy="-0.5ex" text-anchor="middle" font-family="sans-serif" font-size="9.67741935483871" opacity="1" fill="#000000">
+8s
</text>
<polyline fill="none" opacity="1" stroke="#000000" stroke-width="1" points="813,62 813,67 "/>
<text x="902" y="58" dy="-0.5ex" text-anchor="middle" font-family="sans-serif" font-size="9.67741935483871" opacity="1" fill="#000000">
+9s
</text>
<polyline fill="none" opacity="1" stroke="#000000" stroke-width="1" points="902,62 902,67 "/>
<rect x="83" y="73" width="99" height="45" opacity="0.75" fill="#FFFFFF" stroke="none"/>
<rect x="83" y="73" width="99" height="45" opacity="1" fill="none" stroke="#000000"/>
<text x="123" y="83" dy="0.76em" text-anchor="start" font-family="sans-serif" font-size="9.67741935483871" opacity="1" fill="#000000">
Temporary
</text>
<text x="123" y="98" dy="0.76em" text-anchor="start" font-family="sans-serif" font-size="9.67741935483871" opacity="1" fill="#000000">
Leaked
</text>
<rect x="93" y="83" width="10" height="10" opacity="1" fill="#3CB44B" stroke="none"/>
<rect x="93" y="98" width="10" height="10" opacity="1" fill="#E6194B" stroke="none"/>
</svg>
