<svg width="1024" height="768" viewBox="0 0 1024 768" xmlns="http://www.w3.org/2000/svg">
<rect x="0" y="0" width="1023" height="767" opacity="1" fill="#FFFFFF" stroke="none"/>
<polygon opacity="1" fill="#E6194B" points="78,611 78,500 79,457 80,393 81,359 82,344 83,329 84,333 85,322 86,307 86,300 87,288 88,273 89,264 90,265 91,252 92,240 93,227 94,242 95,243 95,231 96,245 97,248 98,234 99,239 100,258 101,242 102,239 103,234 103,198 104,188 105,185 106,162 107,163 108,171 109,164 110,152 111,145 112,133 112,145 113,157 114,175 115,154 116,152 117,137 118,116 119,96 120,100 121,92 121,68 122,68 123,103 124,115 125,127 126,134 127,137 128,130 129,134 129,137 130,137 131,150 132,139 133,115 134,135 135,139 136,121 137,105 138,88 138,102 139,117 140,131 141,124 142,149 143,148 144,150 145,117 146,121 146,113 147,118 148,137 149,150 150,152 151,149 152,165 153,168 154,168 155,183 155,191 156,204 157,198 158,220 159,224 160,236 161,244 162,245 163,217 164,215 164,215 165,224 166,230 167,237 168,252 169,254 170,256 171,257 172,276 172,290 173,327 174,312 175,297 176,314 177,344 178,340 179,327 180,310 181,314 181,316 182,326 183,343 184,336 185,328 186,326 187,331 188,328 189,317 190,319 190,293 191,292 192,280 193,301 194,286 195,278 196,292 197,301 198,314 198,325 199,323 200,311 201,303 202,313 203,302 204,298 205,283 206,267 207,277 207,291 208,276 209,288 210,291 211,307 212,303 213,319 214,317 215,314 215,304 216,316 217,300 218,296 219,285 220,301 221,270 222,270 223,243 224,243 224,215 225,215 226,223 227,239 228,258 229,253 230,239 231,229 232,232 233,248 233,240 234,250 235,249 236,255 237,251 238,239 239,231 240,217 241,202 241,186 242,183 243,184 244,181 245,173 246,150 247,145 248,146 249,150 250,177 250,185 251,204 252,218 253,249 254,248 255,249 256,276 257,300 258,324 258,329 259,300 260,291 261,285 262,290 263,292 264,285 265,263 266,245 267,246 267,252 268,283 269,317 270,317 271,315 272,315 273,310 274,308 275,299 276,289 276,314 277,308 278,298 279,294 280,290 281,268 282,245 283,245 284,250 284,229 285,233 286,255 287,251 288,243 289,258 290,269 291,272 292,275 293,287 293,272 294,279 295,265 296,267 297,263 298,270 299,272 300,289 301,317 302,340 302,313 303,315 304,312 305,304 306,304 307,296 308,292 309,288 310,298 310,312 311,285 312,292 313,307 314,310 315,319 316,303 317,294 318,293 319,300 319,316 320,330 321,336 322,333 323,321 324,334 325,316 326,307 327,307 327,317 328,319 329,343 330,346 331,350 332,350 333,348 334,348 335,359 336,352 336,344 337,320 338,322 339,323 340,335 341,323 342,327 343,297 344,303 345,324 345,316 346,324 347,323 348,301 349,312 350,315 351,325 352,333 353,319 353,334 354,350 355,353 356,341 357,333 358,293 359,288 360,290 361,276 362,275 362,310 363,332 364,306 365,298 366,269 367,249 368,242 369,237 370,238 370,232 371,208 372,222 373,223 374,227 375,230 376,213 377,192 378,195 379,191 379,217 380,189 381,189 382,196 383,206 384,239 385,227 386,235 387,199 388,194 388,206 389,199 390,204 391,192 392,194 393,217 394,220 395,229 396,227 396,223 397,232 398,203 399,199 400,194 401,188 402,183 403,169 404,174 405,180 405,183 406,175 407,171 408,182 409,184 410,209 411,199 412,205 413,206 414,207 414,232 415,217 416,228 417,220 418,224 419,212 420,220 421,225 422,230 422,228 423,237 424,233 425,260 426,267 427,274 428,246 429,230 430,220 431,233 431,256 432,249 433,213 434,191 435,177 436,201 437,184 438,178 439,179 439,179 440,186 441,178 442,189 443,187 444,190 445,168 446,162 447,154 448,148 448,158 449,149 450,164 451,172 452,143 453,142 454,154 455,155 456,162 457,161 457,162 458,164 459,175 460,201 461,206 462,187 463,181 464,167 465,145 465,156 466,161 467,150 468,125 469,123 470,138 471,160 472,157 473,145 474,136 474,143 475,156 476,154 477,158 478,146 479,114 480,114 481,129 482,134 482,119 483,122 484,138 485,136 486,150 487,166 488,171 489,183 490,175 491,173 491,159 492,152 493,141 494,125 495,126 496,138 497,134 498,135 499,127 500,144 500,137 501,124 502,137 503,151 504,172 505,176 506,197 507,185 508,182 508,184 509,188 510,196 511,200 512,190 513,199 514,207 515,215 516,229 517,206 517,203 518,216 519,221 520,225 521,228 522,221 523,233 524,224 525,229 526,234 526,226 527,208 528,218 529,236 530,249 531,246 532,231 533,234 534,245 534,252 535,243 536,242 537,226 538,197 539,195 540,229 541,237 542,239 543,240 543,235 544,236 545,256 546,263 547,243 548,239 549,240 550,228 551,226 551,226 552,233 553,231 554,240 555,239 556,257 557,247 558,241 559,228 560,220 560,217 561,204 562,207 563,227 564,237 565,268 566,258 567,247 568,228 569,219 569,234 570,218 571,220 572,232 573,242 574,249 575,223 576,211 577,196 577,193 578,205 579,227 580,241 581,247 582,239 583,218 584,227 585,219 586,215 586,211 587,203 588,203 589,213 590,216 591,199 592,166 593,169 594,196 594,194 595,219 596,246 597,231 598,232 599,233 600,226 601,226 602,218 603,209 603,226 604,219 605,232 606,240 607,247 608,237 609,220 610,221 611,205 612,214 612,227 613,210 614,212 615,229 616,236 617,242 618,246 619,226 620,211 620,214 621,218 622,222 623,225 624,217 625,213 626,220 627,217 628,246 629,247 629,250 630,242 631,250 632,251 633,258 634,262 635,245 636,265 637,268 638,258 638,262 639,281 640,285 641,327 642,331 643,332 644,318 645,313 646,310 646,307 647,309 648,286 649,281 650,312 651,334 652,329 653,295 654,295 655,298 655,317 656,307 657,316 658,301 659,298 660,302 661,313 662,320 663,350 663,348 664,341 665,332 666,340 667,338 668,342 669,343 670,352 671,348 672,348 672,325 673,324 674,325 675,313 676,308 677,321 678,320 679,296 680,316 681,319 681,332 682,338 683,317 684,318 685,323 686,324 687,314 688,318 689,333 689,327 690,347 691,365 692,356 693,336 694,339 695,333 696,335 697,342 698,355 698,363 699,358 700,368 701,385 702,386 703,402 704,413 705,418 706,428 706,425 707,420 708,423 709,448 710,446 711,446 712,446 713,423 714,412 715,386 715,394 716,398 717,396 718,396 719,391 720,389 721,396 722,387 723,392 724,416 724,400 725,396 726,396 727,398 728,418 729,399 730,389 731,384 732,386 732,389 733,387 734,411 735,431 736,418 737,405 738,409 739,387 740,389 741,407 741,410 742,396 743,407 744,407 745,407 746,398 747,397 748,390 749,383 750,378 750,382 751,398 752,390 753,380 754,350 755,348 756,341 757,320 758,309 758,328 759,321 760,321 761,324 762,324 763,324 764,323 765,294 766,278 767,273 767,273 768,270 769,253 770,254 771,273 772,271 773,276 774,279 775,266 775,268 776,272 777,278 778,295 779,282 780,273 781,279 782,273 783,273 784,285 784,288 785,297 786,299 787,277 788,262 789,262 790,258 791,260 792,264 793,275 793,295 794,300 795,306 796,305 797,311 798,299 799,291 800,286 801,300 801,313 802,320 803,325 804,306 805,285 806,277 807,264 808,290 809,287 810,296 810,295 811,299 812,331 813,335 814,348 815,339 816,335 817,343 818,326 818,317 819,337 820,339 821,324 822,317 823,310 824,310 825,292 826,285 827,267 827,255 828,265 829,289 830,273 831,263 832,248 833,256 834,253 835,244 836,229 836,261 837,273 838,266 839,257 840,257 841,236 842,226 843,242 844,243 844,232 845,233 846,233 847,225 848,215 849,202 850,222 851,267 852,252 853,264 853,255 854,246 855,265 856,269 857,273 858,275 859,260 860,260 861,296 862,297 862,300 863,262 864,251 865,248 866,247 867,247 868,245 869,227 870,240 870,253 871,260 872,284 873,300 874,287 875,281 876,274 877,282 878,295 879,294 879,302 880,267 881,239 882,236 883,255 884,241 885,231 886,243 887,257 887,286 888,279 889,281 890,292 891,278 892,258 893,263 894,253 895,250 896,277 896,275 897,281 898,293 899,291 900,289 901,298 902,281 903,269 904,280 905,294 905,282 906,272 907,283 908,272 909,277 910,275 911,273 912,277 913,287 913,311 914,316 915,287 916,239 917,241 918,238 919,233 920,234 921,239 922,252 922,244 923,226 924,201 925,201 926,193 927,203 928,224 929,218 930,208 930,209 931,200 932,203 933,185 934,191 935,215 936,221 937,232 938,230 939,215 939,216 940,222 941,234 942,242 943,232 944,233 945,251 946,261 947,255 948,242 948,248 949,231 950,236 951,207 952,209 953,209 954,210 955,221 956,225 956,214 957,246 958,245 959,261 960,248 961,258 962,245 963,237 964,251 965,266 965,273 966,272 967,279 968,295 969,334 970,376 971,421 972,488 973,560 974,654 974,699 974,699 974,699 78,699 "/>
<polyline fill="none" opacity="1" stroke="#E6194B" stroke-width="1" points="78,611 78,500 79,457 80,393 81,359 82,344 83,329 84,333 85,322 86,307 86,300 87,288 88,273 89,264 90,265 91,252 92,240 93,227 94,242 95,243 95,231 96,245 97,248 98,234 99,239 100,258 101,242 102,239 103,234 103,198 104,188 105,185 106,162 107,163 108,171 109,164 110,152 111,145 112,133 112,145 113,157 114,175 115,154 116,152 117,137 118,116 119,96 120,100 121,92 121,68 122,68 123,103 124,115 125,127 126,134 127,137 128,130 129,134 129,137 130,137 131,150 132,139 133,115 134,135 135,139 136,121 137,105 138,88 138,102 139,117 140,131 141,124 142,149 143,148 144,150 145,117 146,121 146,113 147,118 148,137 149,150 150,152 151,149 152,165 153,168 154,168 155,183 155,191 156,204 157,198 158,220 159,224 160,236 161,244 162,245 163,217 164,215 164,215 165,224 166,230 167,237 168,252 169,254 170,256 171,257 172,276 172,290 173,327 174,312 175,297 176,314 177,344 178,340 179,327 180,310 181,314 181,316 182,326 183,343 184,336 185,328 186,326 187,331 188,328 189,317 190,319 190,293 191,292 192,280 193,301 194,286 195,278 196,292 197,301 198,314 198,325 199,323 200,311 201,303 202,313 203,302 204,298 205,283 206,267 207,277 207,291 208,276 209,288 210,291 211,307 212,303 213,319 214,317 215,314 215,304 216,316 217,300 218,296 219,285 220,301 221,270 222,270 223,243 224,243 224,215 225,215 226,223 227,239 228,258 229,253 230,239 231,229 232,232 233,248 233,240 234,250 235,249 236,255 237,251 238,239 239,231 240,217 241,202 241,186 242,183 243,184 244,181 245,173 246,150 247,145 248,146 249,150 250,177 250,185 251,204 252,218 253,249 254,248 255,249 256,276 257,300 258,324 258,329 259,300 260,291 261,285 262,290 263,292 264,285 265,263 266,245 267,246 267,252 268,283 269,317 270,317 271,315 272,315 273,310 274,308 275,299 276,289 276,314 277,308 278,298 279,294 280,290 281,268 282,245 283,245 284,250 284,229 285,233 286,255 287,251 288,243 289,258 290,269 291,272 292,275 293,287 293,272 294,279 295,265 296,267 297,263 298,270 299,272 300,289 301,317 302,340 302,313 303,315 304,312 305,304 306,304 307,296 308,292 309,288 310,298 310,312 311,285 312,292 313,307 314,310 315,319 316,303 317,294 318,293 319,300 319,316 320,330 321,336 322,333 323,321 324,334 325,316 326,307 327,307 327,317 328,319 329,343 330,346 331,350 332,350 333,348 334,348 335,359 336,352 336,344 337,320 338,322 339,323 340,335 341,323 342,327 343,297 344,303 345,324 345,316 346,324 347,323 348,301 349,312 350,315 351,325 352,333 353,319 353,334 354,350 355,353 356,341 357,333 358,293 359,288 360,290 361,276 362,275 362,310 363,332 364,306 365,298 366,269 367,249 368,242 369,237 370,238 370,232 371,208 372,222 373,223 374,227 375,230 376,213 377,192 378,195 379,191 379,217 380,189 381,189 382,196 383,206 384,239 385,227 386,235 387,199 388,194 388,206 389,199 390,204 391,192 392,194 393,217 394,220 395,229 396,227 396,223 397,232 398,203 399,199 400,194 401,188 402,183 403,169 404,174 405,180 405,183 406,175 407,171 408,182 409,184 410,209 411,199 412,205 413,206 414,207 414,232 415,217 416,228 417,220 418,224 419,212 420,220 421,225 422,230 422,228 423,237 424,233 425,260 426,267 427,274 428,246 429,230 430,220 431,233 431,256 432,249 433,213 434,191 435,177 436,201 437,184 438,178 439,179 439,179 440,186 441,178 442,189 443,187 444,190 445,168 446,162 447,154 448,148 448,158 449,149 450,164 451,172 452,143 453,142 454,154 455,155 456,162 457,161 457,162 458,164 459,175 460,201 461,206 462,187 463,181 464,167 465,145 465,156 466,161 467,150 468,125 469,123 470,138 471,160 472,157 473,145 474,136 474,143 475,156 476,154 477,158 478,146 479,114 480,114 481,129 482,134 482,119 483,122 484,138 485,136 486,150 487,166 488,171 489,183 490,175 491,173 491,159 492,152 493,141 494,125 495,126 496,138 497,134 498,135 499,127 500,144 500,137 501,124 502,137 503,151 504,172 505,176 506,197 507,185 508,182 508,184 509,188 510,196 511,200 512,190 513,199 514,207 515,215 516,229 517,206 517,203 518,216 519,221 520,225 521,228 522,221 523,233 524,224 525,229 526,234 526,226 527,208 528,218 529,236 530,249 531,246 532,231 533,234 534,245 534,252 535,243 536,242 537,226 538,197 539,195 540,229 541,237 542,239 543,240 543,235 544,236 545,256 546,263 547,243 548,239 549,240 550,228 551,226 551,226 552,233 553,231 554,240 555,239 556,257 557,247 558,241 559,228 560,220 560,217 561,204 562,207 563,227 564,237 565,268 566,258 567,247 568,228 569,219 569,234 570,218 571,220 572,232 573,242 574,249 575,223 576,211 577,196 577,193 578,205 579,227 580,241 581,247 582,239 583,218 584,227 585,219 586,215 586,211 587,203 588,203 589,213 590,216 591,199 592,166 593,169 594,196 594,194 595,219 596,246 597,231 598,232 599,233 600,226 601,226 602,218 603,209 603,226 604,219 605,232 606,240 607,247 608,237 609,220 610,221 611,205 612,214 612,227 613,210 614,212 615,229 616,236 617,242 618,246 619,226 620,211 620,214 621,218 622,222 623,225 624,217 625,213 626,220 627,217 628,246 629,247 629,250 630,242 631,250 632,251 633,258 634,262 635,245 636,265 637,268 638,258 638,262 639,281 640,285 641,327 642,331 643,332 644,318 645,313 646,310 646,307 647,309 648,286 649,281 650,312 651,334 652,329 653,295 654,295 655,298 655,317 656,307 657,316 658,301 659,298 660,302 661,313 662,320 663,350 663,348 664,341 665,332 666,340 667,338 668,342 669,343 670,352 671,348 672,348 672,325 673,324 674,325 675,313 676,308 677,321 678,320 679,296 680,316 681,319 681,332 682,338 683,317 684,318 685,323 686,324 687,314 688,318 689,333 689,327 690,347 691,365 692,356 693,336 694,339 695,333 696,335 697,342 698,355 698,363 699,358 700,368 701,385 702,386 703,402 704,413 705,418 706,428 706,425 707,420 708,423 709,448 710,446 711,446 712,446 713,423 714,412 715,386 715,394 716,398 717,396 718,396 719,391 720,389 721,396 722,387 723,392 724,416 724,400 725,396 726,396 727,398 728,418 729,399 730,389 731,384 732,386 732,389 733,387 734,411 735,431 736,418 737,405 738,409 739,387 740,389 741,407 741,410 742,396 743,407 744,407 745,407 746,398 747,397 748,390 749,383 750,378 750,382 751,398 752,390 753,380 754,350 755,348 756,341 757,320 758,309 758,328 759,321 760,321 761,324 762,324 763,324 764,323 765,294 766,278 767,273 767,273 768,270 769,253 770,254 771,273 772,271 773,276 774,279 775,266 775,268 776,272 777,278 778,295 779,282 780,273 781,279 782,273 783,273 784,285 784,288 785,297 786,299 787,277 788,262 789,262 790,258 791,260 792,264 793,275 793,295 794,300 795,306 796,305 797,311 798,299 799,291 800,286 801,300 801,313 802,320 803,325 804,306 805,285 806,277 807,264 808,290 809,287 810,296 810,295 811,299 812,331 813,335 814,348 815,339 816,335 817,343 818,326 818,317 819,337 820,339 821,324 822,317 823,310 824,310 825,292 826,285 827,267 827,255 828,265 829,289 830,273 831,263 832,248 833,256 834,253 835,244 836,229 836,261 837,273 838,266 839,257 840,257 841,236 842,226 843,242 844,243 844,232 845,233 846,233 847,225 848,215 849,202 850,222 851,267 852,252 853,264 853,255 854,246 855,265 856,269 857,273 858,275 859,260 860,260 861,296 862,297 862,300 863,262 864,251 865,248 866,247 867,247 868,245 869,227 870,240 870,253 871,260 872,284 873,300 874,287 875,281 876,274 877,282 878,295 879,294 879,302 880,267 881,239 882,236 883,255 884,241 885,231 886,243 887,257 887,286 888,279 889,281 890,292 891,278 892,258 893,263 894,253 895,250 896,277 896,275 897,281 898,293 899,291 900,289 901,298 902,281 903,269 904,280 905,294 905,282 906,272 907,283 908,272 909,277 910,275 911,273 912,277 913,287 913,311 914,316 915,287 916,239 917,241 918,238 919,233 920,234 921,239 922,252 922,244 923,226 924,201 925,201 926,193 927,203 928,224 929,218 930,208 930,209 931,200 932,203 933,185 934,191 935,215 936,221 937,232 938,230 939,215 939,216 940,222 941,234 942,242 943,232 944,233 945,251 946,261 947,255 948,242 948,248 949,231 950,236 951,207 952,209 953,209 954,210 955,221 956,225 956,214 957,246 958,245 959,261 960,248 961,258 962,245 963,237 964,251 965,266 965,273 966,272 967,279 968,295 969,334 970,376 971,421 972,488 973,560 974,654 974,699 974,699 "/>
<line opacity="0.1" stroke="#000000" stroke-width="1" x1="92" y1="699" x2="92" y2="67"/>
<line opacity="0.1" stroke="#000000" stroke-width="1" x1="110" y1="699" x2="110" y2="67"/>
<line opacity="0.1" stroke="#000000" stroke-width="1" x1="128" y1="699" x2="128" y2="67"/>
<line opacity="0.1" stroke="#000000" stroke-width="1" x1="146" y1="699" x2="146" y2="67"/>
<line opacity="0.1" stroke="#000000" stroke-width="1" x1="164" y1="699" x2="164" y2="67"/>
<line opacity="0.1" stroke="#000000" stroke-width="1" x1="182" y1="699" x2="182" y2="67"/>
<line opacity="0.1" stroke="#000000" stroke-width="1" x1="200" y1="699" x2="200" y2="67"/>
<line opacity="0.1" stroke="#000000" stroke-width="1" x1="218" y1="699" x2="218" y2="67"/>
<line opacity="0.1" stroke="#000000" stroke-width="1" x1="236" y1="699" x2="236" y2="67"/>
<line opacity="0.1" stroke="#000000" stroke-width="1" x1="254" y1="699" x2="254" y2="67"/>
<line opacity="0.1" stroke="#000000" stroke-width="1" x1="272" y1="699" x2="272" y2="67"/>
<line opacity="0.1" stroke="#000000" stroke-width="1" x1="289" y1="699" x2="289" y2="67"/>
<line opacity="0.1" stroke="#000000" stroke-width="1" x1="307" y1="699" x2="307" y2="67"/>
<line opacity="0.1" stroke="#000000" stroke-width="1" x1="325" y1="699" x2="325" y2="67"/>
<line opacity="0.1" stroke="#000000" stroke-width="1" x1="343" y1="699" x2="343" y2="67"/>
<line opacity="0.1" stroke="#000000" stroke-width="1" x1="361" y1="699" x2="361" y2="67"/>
<line opacity="0.1" stroke="#000000" stroke-width="1" x1="379" y1="699" x2="379" y2="67"/>
<line opacity="0.1" stroke="#000000" stroke-width="1" x1="397" y1="699" x2="397" y2="67"/>
<line opacity="0.1" stroke="#000000" stroke-width="1" x1="415" y1="699" x2="415" y2="67"/>
<line opacity="0.1" stroke="#000000" stroke-width="1" x1="433" y1="699" x2="433" y2="67"/>
<line opacity="0.1" stroke="#000000" stroke-width="1" x1="451" y1="699" x2="451" y2="67"/>
<line opacity="0.1" stroke="#000000" stroke-width="1" x1="469" y1="699" x2="469" y2="67"/>
<line opacity="0.1" stroke="#000000" stroke-width="1" x1="487" y1="699" x2="487" y2="67"/>
<line opacity="0.1" stroke="#000000" stroke-width="1" x1="505" y1="699" x2="505" y2="67"/>
<line opacity="0.1" stroke="#000000" stroke-width="1" x1="522" y1="699" x2="522" y2="67"/>
<line opacity="0.1" stroke="#000000" stroke-width="1" x1="540" y1="699" x2="540" y2="67"/>
<line opacity="0.1" stroke="#000000" stroke-width="1" x1="558" y1="699" x2="558" y2="67"/>
<line opacity="0.1" stroke="#000000" stroke-width="1" x1="576" y1="699" x2="576" y2="67"/>
<line opacity="0.1" stroke="#000000" stroke-width="1" x1="594" y1="699" x2="594" y2="67"/>
<line opacity="0.1" stroke="#000000" stroke-width="1" x1="612" y1="699" x2="612" y2="67"/>
<line opacity="0.1" stroke="#000000" stroke-width="1" x1="630" y1="699" x2="630" y2="67"/>
<line opacity="0.1" stroke="#000000" stroke-width="1" x1="648" y1="699" x2="648" y2="67"/>
<line opacity="0.1" stroke="#000000" stroke-width="1" x1="666" y1="699" x2="666" y2="67"/>
<line opacity="0.1" stroke="#000000" stroke-width="1" x1="684" y1="699" x2="684" y2="67"/>
<line opacity="0.1" stroke="#000000" stroke-width="1" x1="702" y1="699" x2="702" y2="67"/>
<line opacity="0.1" stroke="#000000" stroke-width="1" x1="720" y1="699" x2="720" y2="67"/>
<line opacity="0.1" stroke="#000000" stroke-width="1" x1="738" y1="699" x2="738" y2="67"/>
<line opacity="0.1" stroke="#000000" stroke-width="1" x1="755" y1="699" x2="755" y2="67"/>
<line opacity="0.1" stroke="#000000" stroke-width="1" x1="773" y1="699" x2="773" y2="67"/>
<line opacity="0.1" stroke="#000000" stroke-width="1" x1="791" y1="699" x2="791" y2="67"/>
<line opacity="0.1" stroke="#000000" stroke-width="1" x1="809" y1="699" x2="809" y2="67"/>
<line opacity="0.1" stroke="#000000" stroke-width="1" x1="827" y1="699" x2="827" y2="67"/>
<line opacity="0.1" stroke="#000000" stroke-width="1" x1="845" y1="699" x2="845" y2="67"/>
<line opacity="0.1" stroke="#000000" stroke-width="1" x1="863" y1="699" x2="863" y2="67"/>
<line opacity="0.1" stroke="#000000" stroke-width="1" x1="881" y1="699" x2="881" y2="67"/>
<line opacity="0.1" stroke="#000000" stroke-width="1" x1="899" y1="699" x2="899" y2="67"/>
<line opacity="0.1" stroke="#000000" stroke-width="1" x1="917" y1="699" x2="917" y2="67"/>
<line opacity="0.1" stroke="#000000" stroke-width="1" x1="935" y1="699" x2="935" y2="67"/>
<line opacity="0.1" stroke="#000000" stroke-width="1" x1="953" y1="699" x2="953" y2="67"/>
<line opacity="0.1" stroke="#000000" stroke-width="1" x1="971" y1="699" x2="971" y2="67"/>
<line opacity="0.1" stroke="#000000" stroke-width="1" x1="78" y1="699" x2="974" y2="699"/>
<line opacity="0.1" stroke="#000000" stroke-width="1" x1="78" y1="689" x2="974" y2="689"/>
<line opacity="0.1" stroke="#000000" stroke-width="1" x1="78" y1="679" x2="974" y2="679"/>
<line opacity="0.1" stroke="#000000" stroke-width="1" x1="78" y1="669" x2="974" y2="669"/>
<line opacity="0.1" stroke="#000000" stroke-width="1" x1="78" y1="659" x2="974" y2="659"/>
<line opacity="0.1" stroke="#000000" stroke-width="1" x1="78" y1="649" x2="974" y2="649"/>
<line opacity="0.1" stroke="#000000" stroke-width="1" x1="78" y1="639" x2="974" y2="639"/>
<line opacity="0.1" stroke="#000000" stroke-width="1" x1="78" y1="629" x2="974" y2="629"/>
<line opacity="0.1" stroke="#000000" stroke-width="1" x1="78" y1="619" x2="974" y2="619"/>
<line opacity="0.1" stroke="#000000" stroke-width="1" x1="78" y1="609" x2="974" y2="609"/>
<line opacity="0.1" stroke="#000000" stroke-width="1" x1="78" y1="599" x2="974" y2="599"/>
<line opacity="0.1" stroke="#000000" stroke-width="1" x1="78" y1="589" x2="974" y2="589"/>
<line opacity="0.1" stroke="#000000" stroke-width="1" x1="78" y1="579" x2="974" y2="579"/>
<line opacity="0.1" stroke="#000000" stroke-width="1" x1="78" y1="569" x2="974" y2="569"/>
<line opacity="0.1" stroke="#000000" stroke-width="1" x1="78" y1="559" x2="974" y2="559"/>
<line opacity="0.1" stroke="#000000" stroke-width="1" x1="78" y1="549" x2="974" y2="549"/>
<line opacity="0.1" stroke="#000000" stroke-width="1" x1="78" y1="539" x2="974" y2="539"/>
<line opacity="0.1" stroke="#000000" stroke-width="1" x1="78" y1="529" x2="974" y2="529"/>
<line opacity="0.1" stroke="#000000" stroke-width="1" x1="78" y1="519" x2="974" y2="519"/>
<line opacity="0.1" stroke="#000000" stroke-width="1" x1="78" y1="509" x2="974" y2="509"/>
<line opacity="0.1" stroke="#000000" stroke-width="1" x1="78" y1="499" x2="974" y2="499"/>
<line opacity="0.1" stroke="#000000" stroke-width="1" x1="78" y1="489" x2="974" y2="489"/>
<line opacity="0.1" stroke="#000000" stroke-width="1" x1="78" y1="479" x2="974" y2="479"/>
<line opacity="0.1" stroke="#000000" stroke-width="1" x1="78" y1="469" x2="974" y2="469"/>
<line opacity="0.1" stroke="#000000" stroke-width="1" x1="78" y1="459" x2="974" y2="459"/>
<line opacity="0.1" stroke="#000000" stroke-width="1" x1="78" y1="449" x2="974" y2="449"/>
<line opacity="0.1" stroke="#000000" stroke-width="1" x1="78" y1="439" x2="974" y2="439"/>
<line opacity="0.1" stroke="#000000" stroke-width="1" x1="78" y1="429" x2="974" y2="429"/>
<line opacity="0.1" stroke="#000000" stroke-width="1" x1="78" y1="419" x2="974" y2="419"/>
<line opacity="0.1" stroke="#000000" stroke-width="1" x1="78" y1="409" x2="974" y2="409"/>
<line opacity="0.1" stroke="#000000" stroke-width="1" x1="78" y1="399" x2="974" y2="399"/>
<line opacity="0.1" stroke="#000000" stroke-width="1" x1="78" y1="389" x2="974" y2="389"/>
<line opacity="0.1" stroke="#000000" stroke-width="1" x1="78" y1="379" x2="974" y2="379"/>
<line opacity="0.1" stroke="#000000" stroke-width="1" x1="78" y1="369" x2="974" y2="369"/>
<line opacity="0.1" stroke="#000000" stroke-width="1" x1="78" y1="359" x2="974" y2="359"/>
<line opacity="0.1" stroke="#000000" stroke-width="1" x1="78" y1="349" x2="974" y2="349"/>
<line opacity="0.1" stroke="#000000" stroke-width="1" x1="78" y1="339" x2="974" y2="339"/>
<line opacity="0.1" stroke="#000000" stroke-width="1" x1="78" y1="329" x2="974" y2="329"/>
<line opacity="0.1" stroke="#000000" stroke-width="1" x1="78" y1="319" x2="974" y2="319"/>
<line opacity="0.1" stroke="#000000" stroke-width="1" x1="78" y1="309" x2="974" y2="309"/>
<line opacity="0.1" stroke="#000000" stroke-width="1" x1="78" y1="299" x2="974" y2="299"/>
<line opacity="0.1" stroke="#000000" stroke-width="1" x1="78" y1="289" x2="974" y2="289"/>
<line opacity="0.1" stroke="#000000" stroke-width="1" x1="78" y1="279" x2="974" y2="279"/>
<line opacity="0.1" stroke="#000000" stroke-width="1" x1="78" y1="269" x2="974" y2="269"/>
<line opacity="0.1" stroke="#000000" stroke-width="1" x1="78" y1="259" x2="974" y2="259"/>
<line opacity="0.1" stroke="#000000" stroke-width="1" x1="78" y1="249" x2="974" y2="249"/>
<line opacity="0.1" stroke="#000000" stroke-width="1" x1="78" y1="239" x2="974" y2="239"/>
<line opacity="0.1" stroke="#000000" stroke-width="1" x1="78" y1="229" x2="974" y2="229"/>
<line opacity="0.1" stroke="#000000" stroke-width="1" x1="78" y1="219" x2="974" y2="219"/>
<line opacity="0.1" stroke="#000000" stroke-width="1" x1="78" y1="209" x2="974" y2="209"/>
<line opacity="0.1" stroke="#000000" stroke-width="1" x1="78" y1="199" x2="974" y2="199"/>
<line opacity="0.1" stroke="#000000" stroke-width="1" x1="78" y1="189" x2="974" y2="189"/>
<line opacity="0.1" stroke="#000000" stroke-width="1" x1="78" y1="179" x2="974" y2="179"/>
<line opacity="0.1" stroke="#000000" stroke-width="1" x1="78" y1="169" x2="974" y2="169"/>
<line opacity="0.1" stroke="#000000" stroke-width="1" x1="78" y1="159" x2="974" y2="159"/>
<line opacity="0.1" stroke="#000000" stroke-width="1" x1="78" y1="149" x2="974" y2="149"/>
<line opacity="0.1" stroke="#000000" stroke-width="1" x1="78" y1="139" x2="974" y2="139"/>
<line opacity="0.1" stroke="#000000" stroke-width="1" x1="78" y1="129" x2="974" y2="129"/>
<line opacity="0.1" stroke="#000000" stroke-width="1" x1="78" y1="119" x2="974" y2="119"/>
<line opacity="0.1" stroke="#000000" stroke-width="1" x1="78" y1="109" x2="974" y2="109"/>
<line opacity="0.1" stroke="#000000" stroke-width="1" x1="78" y1="99" x2="974" y2="99"/>
<line opacity="0.1" stroke="#000000" stroke-width="1" x1="78" y1="89" x2="974" y2="89"/>
<line opacity="0.1" stroke="#000000" stroke-width="1" x1="78" y1="79" x2="974" y2="79"/>
<line opacity="0.1" stroke="#000000" stroke-width="1" x1="78" y1="69" x2="974" y2="69"/>
<text x="8" y="384" dy="0.76em" text-anchor="middle" font-family="sans-serif" font-size="9.67741935483871" opacity="1" fill="#000000" transform="rotate(270, 8, 384)">
Memory usage
</text>
<text x="526" y="760" dy="-0.5ex" text-anchor="middle" font-family="sans-serif" font-size="9.67741935483871" opacity="1" fill="#000000">
Time
</text>
<line opacity="0.2" stroke="#000000" stroke-width="1" x1="218" y1="699" x2="218" y2="67"/>
<line opacity="0.2" stroke="#000000" stroke-width="1" x1="397" y1="699" x2="397" y2="67"/>
<line opacity="0.2" stroke="#000000" stroke-width="1" x1="576" y1="699" x2="576" y2="67"/>
<line opacity="0.2" stroke="#000000" stroke-width="1" x1="755" y1="699" x2="755" y2="67"/>
<line opacity="0.2" stroke="#000000" stroke-width="1" x1="935" y1="699" x2="935" y2="67"/>
<line opacity="0.2" stroke="#000000" stroke-width="1" x1="78" y1="699" x2="974" y2="699"/>
<line opacity="0.2" stroke="#000000" stroke-width="1" x1="78" y1="599" x2="974" y2="599"/>
<line opacity="0.2" stroke="#000000" stroke-width="1" x1="78" y1="499" x2="974" y2="499"/>
<line opacity="0.2" stroke="#000000" stroke-width="1" x1="78" y1="399" x2="974" y2="399"/>
<line opacity="0.2" stroke="#000000" stroke-width="1" x1="78" y1="299" x2="974" y2="299"/>
<line opacity="0.2" stroke="#000000" stroke-width="1" x1="78" y1="199" x2="974" y2="199"/>
<line opacity="0.2" stroke="#000000" stroke-width="1" x1="78" y1="99" x2="974" y2="99"/>
<polyline fill="none" opacity="1" stroke="#000000" stroke-width="1" points="77,68 77,700 "/>
<text x="68" y="699" dy="0.5ex" text-anchor="end" font-family="sans-serif" font-size="9.67741935483871" opacity="1" fill="#000000">
0 KB
</text>
<polyline fill="none" opacity="1" stroke="#000000" stroke-width="1" points="72,699 77,699 "/>
<text x="68" y="599" dy="0.5ex" text-anchor="end" font-family="sans-serif" font-size="9.67741935483871" opacity="1" fill="#000000">
48 KB
</text>
<polyline fill="none" opacity="1" stroke="#000000" stroke-width="1" points="72,599 77,599 "/>
<text x="68" y="499" dy="0.5ex" text-anchor="end" font-family="sans-serif" font-size="9.67741935483871" opacity="1" fill="#000000">
97 KB
</text>
<polyline fill="none" opacity="1" stroke="#000000" stroke-width="1" points="72,499 77,499 "/>
<text x="68" y="399" dy="0.5ex" text-anchor="end" font-family="sans-serif" font-size="9.67741935483871" opacity="1" fill="#000000">
146 KB
</text>
<polyline fill="none" opacity="1" stroke="#000000" stroke-width="1" points="72,399 77,399 "/>
<text x="68" y="299" dy="0.5ex" text-anchor="end" font-family="sans-serif" font-size="9.67741935483871" opacity="1" fill="#000000">
195 KB
</text>
<polyline fill="none" opacity="1" stroke="#000000" stroke-width="1" points="72,299 77,299 "/>
<text x="68" y="199" dy="0.5ex" text-anchor="end" font-family="sans-serif" font-size="9.67741935483871" opacity="1" fill="#000000">
244 KB
</text>
<polyline fill="none" opacity="1" stroke="#000000" stroke-width="1" points="72,199 77,199 "/>
<text x="68" y="99" dy="0.5ex" text-anchor="end" font-family="sans-serif" font-size="9.67741935483871" opacity="1" fill="#000000">
292 KB
</text>
<polyline fill="none" opacity="1" stroke="#000000" stroke-width="1" points="72,99 77,99 "/>
<polyline fill="none" opacity="1" stroke="#000000" stroke-width="1" points="78,700 974,700 "/>
<text x="218" y="710" dy="0.76em" text-anchor="middle" font-family="sans-serif" font-size="9.67741935483871" opacity="1" fill="#000000">
06:26:10
</text>
<polyline fill="none" opacity="1" stroke="#000000" stroke-width="1" points="218,700 218,705 "/>
<text x="397" y="710" dy="0.76em" text-anchor="middle" font-family="sans-serif" font-size="9.67741935483871" opacity="1" fill="#000000">
06:26:11
</text>
<polyline fill="none" opacity="1" stroke="#000000" stroke-width="1" points="397,700 397,705 "/>
<text x="576" y="710" dy="0.76em" text-anchor="middle" font-family="sans-serif" font-size="9.67741935483871" opacity="1" fill="#000000">
06:26:12
</text>
<polyline fill="none" opacity="1" stroke="#000000" stroke-width="1" points="576,700 576,705 "/>
<text x="755" y="710" dy="0.76em" text-anchor="middle" font-family="sans-serif" font-size="9.67741935483871" opacity="1" fill="#000000">
06:26:13
</text>
<polyline fill="none" opacity="1" stroke="#000000" stroke-width="1" points="755,700 755,705 "/>
<text x="935" y="710" dy="0.76em" text-anchor="middle" font-family="sans-serif" font-size="9.67741935483871" opacity="1" fill="#000000">
06:26:14
</text>
<polyline fill="none" opacity="1" stroke="#000000" stroke-width="1" points="935,700 935,705 "/>
<polyline fill="none" opacity="1" stroke="#000000" stroke-width="1" points="78,67 974,67 "/>
<text x="218" y="58" dy="-0.5ex" text-anchor="middle" font-family="sans-serif" font-size="9.67741935483871" opacity="1" fill="#000000">
+782ms
</text>
<polyline fill="none" opacity="1" stroke="#000000" stroke-width="1" points="218,62 218,67 "/>
<text x="397" y="58" dy="-0.5ex" text-anchor="middle" font-family="sans-serif" font-size="9.67741935483871" opacity="1" fill="#000000">
+1s
</text>
<polyline fill="none" opacity="1" stroke="#000000" stroke-width="1" points="397,62 397,67 "/>
<text x="576" y="58" dy="-0.5ex" text-anchor="middle" font-family="sans-serif" font-size="9.67741935483871" opacity="1" fill="#000000">
+2s
</text>
<polyline fill="none" opacity="1" stroke="#000000" stroke-width="1" points="576,62 576,67 "/>
<text x="755" y="58" dy="-0.5ex" text-anchor="middle" font-family="sans-serif" font-size="9.67741935483871" opacity="1" fill="#000000">
+3s
</text>
<polyline fill="none" opacity="1" stroke="#000000" stroke-width="1" points="755,62 755,67 "/>
<text x="935" y="58" dy="-0.5ex" text-anchor="middle" font-family="sans-serif" font-size="9.67741935483871" opacity="1" fill="#000000">
+4s
</text>
<polyline fill="none" opacity="1" stroke="#000000" stroke-width="1" points="935,62 935,67 "/>
</svg>
