<svg width="1024" height="768" viewBox="0 0 1024 768" xmlns="http://www.w3.org/2000/svg">
<rect x="0" y="0" width="1024" height="768" opacity="1" fill="#FFFFFF" stroke="none"/>
<polygon opacity="1" fill="#E6194B" points="0,765 1,759 2,749 3,748 4,744 5,748 6,749 7,752 8,750 9,752 10,754 11,750 12,751 13,728 14,734 15,725 16,718 17,725 18,723 19,723 20,727 21,735 22,736 23,737 24,739 25,739 26,741 27,739 28,744 29,742 30,739 31,740 32,737 33,737 34,738 35,730 36,728 37,719 38,713 39,717 40,722 41,729 42,728 43,724 45,714 46,709 47,696 48,692 49,703 50,715 51,718 52,720 53,719 54,708 55,701 56,696 57,692 58,692 59,690 60,692 61,701 62,700 63,696 64,691 65,689 66,688 67,694 68,686 69,675 70,670 71,669 72,669 73,661 74,658 75,650 76,646 77,647 78,640 79,629 80,627 81,624 82,613 83,609 84,608 85,618 86,612 87,607 89,605 90,608 91,608 92,600 93,599 94,592 95,592 96,599 97,602 98,599 99,592 100,587 101,586 102,585 103,575 104,567 105,575 106,571 107,573 108,580 109,579 110,585 111,577 112,565 113,561 114,561 115,563 116,563 117,562 118,562 119,558 120,549 121,551 122,556 123,564 124,564 125,565 126,552 127,548 128,544 129,544 130,547 131,550 132,542 134,543 135,547 136,545 137,536 138,534 139,533 140,528 141,530 142,538 143,535 144,528 145,525 146,525 147,527 148,529 149,526 150,532 151,538 152,543 153,550 154,551 155,540 156,536 157,524 158,526 159,549 160,555 161,551 162,544 163,555 164,553 165,550 166,551 167,548 168,532 169,528 170,534 171,532 172,532 173,540 174,546 175,551 176,542 178,543 179,540 180,541 181,548 182,547 183,542 184,547 185,546 186,548 187,550 188,542 189,540 190,537 191,529 192,530 193,538 194,536 195,544 196,540 197,547 198,546 199,550 200,544 201,546 202,547 203,544 204,534 205,530 206,538 207,537 208,541 209,531 210,524 211,525 212,529 213,528 214,534 215,527 216,518 217,518 218,522 219,518 220,523 221,522 223,514 224,511 225,507 226,510 227,512 228,507 229,505 230,507 231,508 232,513 233,511 234,513 235,511 236,499 237,500 238,500 239,505 240,508 241,501 242,504 243,508 244,511 245,509 246,521 247,524 248,516 249,514 250,511 251,502 252,500 253,504 254,506 255,504 256,493 257,498 258,502 259,502 260,512 261,511 262,513 263,518 264,518 265,524 267,520 268,517 269,514 270,509 271,513 272,509 273,511 274,512 275,512 276,500 277,494 278,488 279,487 280,481 281,479 282,482 283,481 284,471 285,466 286,455 287,455 288,467 289,473 290,472 291,474 292,474 293,468 294,468 295,459 296,463 297,469 298,470 299,474 300,467 301,464 302,472 303,474 304,476 305,479 306,480 307,487 308,488 309,494 310,492 312,490 313,485 314,484 315,487 316,490 317,493 318,493 319,494 320,502 321,515 322,505 323,512 324,515 325,508 326,509 327,516 328,511 329,510 330,503 331,497 332,499 333,496 334,504 335,506 336,501 337,500 338,492 339,491 340,492 341,495 342,499 343,503 344,499 345,496 346,493 347,485 348,479 349,478 350,481 351,486 352,480 353,485 354,483 356,484 357,478 358,469 359,464 360,462 361,451 362,453 363,462 364,469 365,480 366,481 367,495 368,490 369,492 370,477 371,479 372,500 373,497 374,490 375,489 376,476 377,471 378,471 379,475 380,483 381,479 382,478 383,481 384,492 385,489 386,484 387,484 388,485 389,486 390,486 391,495 392,491 393,486 394,491 395,497 396,493 397,486 398,488 399,479 401,485 402,481 403,483 404,486 405,488 406,474 407,470 408,474 409,458 410,453 411,448 412,450 413,440 414,439 415,443 416,442 417,441 418,440 419,446 420,446 421,437 422,430 423,433 424,429 425,437 426,439 427,441 428,439 429,441 430,443 431,452 432,440 433,444 434,426 435,426 436,425 437,426 438,420 439,415 440,415 441,413 442,416 443,418 445,423 446,414 447,406 448,405 449,409 450,411 451,400 452,399 453,401 454,405 455,415 456,408 457,401 458,400 459,400 460,401 461,414 462,415 463,416 464,416 465,420 466,421 467,424 468,425 469,418 470,422 471,423 472,426 473,427 474,417 475,415 476,421 477,419 478,422 479,416 480,415 481,424 482,419 483,416 484,417 485,427 486,424 487,422 488,422 490,413 491,417 492,419 493,410 494,410 495,408 496,402 497,403 498,405 499,403 500,403 501,410 502,407 503,403 504,401 505,413 506,398 507,402 508,400 509,406 510,409 511,403 512,401 513,408 514,417 515,426 516,426 517,419 518,420 519,420 520,421 521,422 522,429 523,428 524,431 525,440 526,437 527,433 528,430 529,430 530,426 531,430 532,431 534,429 535,425 536,432 537,429 538,425 539,425 540,429 541,430 542,439 543,446 544,446 545,448 546,437 547,437 548,440 549,439 550,438 551,440 552,437 553,429 554,430 555,439 556,439 557,435 558,437 559,438 560,442 561,440 562,435 563,431 564,435 565,437 566,421 567,420 568,418 569,424 570,417 571,411 572,404 573,399 574,407 575,409 576,404 577,402 579,407 580,405 581,402 582,410 583,408 584,392 585,392 586,389 587,400 588,404 589,410 590,405 591,404 592,408 593,398 594,394 595,399 596,398 597,407 598,407 599,405 600,401 601,401 602,397 603,394 604,383 605,376 606,378 607,375 608,372 609,366 610,365 611,379 612,377 613,375 614,377 615,376 616,367 617,362 618,376 619,373 620,370 621,370 623,379 624,375 625,348 626,351 627,350 628,356 629,358 630,355 631,350 632,360 633,351 634,347 635,346 636,348 637,360 638,362 639,356 640,354 641,353 642,358 643,359 644,360 645,356 646,362 647,358 648,363 649,361 650,365 651,365 652,352 653,348 654,346 655,341 656,335 657,331 658,334 659,332 660,333 661,329 662,330 663,333 664,333 665,329 666,327 668,330 669,336 670,328 671,322 672,320 673,320 674,320 675,320 676,322 677,318 678,318 679,316 680,314 681,316 682,316 683,311 684,306 685,312 686,311 687,318 688,320 689,314 690,309 691,305 692,306 693,304 694,304 695,294 696,280 697,285 698,283 699,282 700,284 701,281 702,282 703,277 704,280 705,267 706,266 707,276 708,268 709,268 710,279 712,293 713,293 714,294 715,296 716,308 717,302 718,301 719,295 720,290 721,288 722,293 723,290 724,288 725,282 726,275 727,265 728,268 729,274 730,287 731,290 732,293 733,283 734,282 735,275 736,269 737,267 738,266 739,267 740,267 741,262 742,262 743,264 744,259 745,257 746,254 747,252 748,258 749,262 750,257 751,248 752,248 753,247 754,254 755,247 757,251 758,258 759,261 760,262 761,266 762,265 763,260 764,260 765,258 766,249 767,239 768,241 769,247 770,249 771,249 772,258 773,258 774,252 775,256 776,259 777,264 778,273 779,286 780,274 781,263 782,259 783,251 784,240 785,237 786,239 787,237 788,234 789,237 790,241 791,247 792,240 793,244 794,239 795,241 796,234 797,228 798,223 799,219 801,220 802,221 803,229 804,225 805,225 806,234 807,238 808,241 809,238 810,224 811,221 812,236 813,237 814,231 815,226 816,220 817,222 818,213 819,207 820,209 821,205 822,196 823,197 824,199 825,193 826,194 827,197 828,209 829,214 830,211 831,219 832,213 833,219 834,222 835,224 836,218 837,219 838,217 839,222 840,209 841,202 842,201 843,208 844,203 846,193 847,192 848,201 849,208 850,203 851,201 852,200 853,201 854,185 855,182 856,191 857,195 858,199 859,195 860,194 861,190 862,187 863,183 864,174 865,165 866,158 867,155 868,147 869,143 870,144 871,148 872,161 873,167 874,160 875,158 876,148 877,147 878,146 879,155 880,151 881,144 882,155 883,152 884,146 885,148 886,126 887,129 888,129 890,129 891,124 892,111 893,112 894,111 895,110 896,111 897,122 898,126 899,132 900,134 901,132 902,129 903,121 904,123 905,106 906,100 907,105 908,112 909,110 910,116 911,113 912,99 913,101 914,108 915,108 916,104 917,105 918,103 919,101 920,106 921,106 922,113 923,106 924,103 925,97 926,99 927,92 928,97 929,96 930,94 931,84 932,85 933,97 935,80 936,78 937,85 938,87 939,93 940,94 941,95 942,103 943,103 944,99 945,89 946,100 947,114 948,117 949,116 950,110 951,105 952,100 953,94 954,88 955,85 956,83 957,69 958,66 959,81 960,82 961,81 962,89 963,87 964,89 965,90 966,88 967,86 968,71 969,70 970,69 971,73 972,79 973,83 974,77 975,72 976,57 977,61 979,60 980,65 981,75 982,61 983,55 984,50 985,43 986,46 987,51 988,61 989,59 990,65 991,64 992,55 993,43 994,42 995,36 996,34 997,34 998,35 999,44 1000,45 1001,41 1002,36 1003,36 1004,45 1005,53 1006,49 1007,31 1008,21 1009,14 1010,2 1011,4 1012,5 1013,1 1014,0 1015,0 1016,9 1017,9 1018,20 1019,27 1020,16 1021,6 1023,8 1023,475 1023,475 1023,767 0,767 "/>
<polyline fill="none" opacity="1" stroke="#E6194B" stroke-width="1" points="0,765 1,759 2,749 3,748 4,744 5,748 6,749 7,752 8,750 9,752 10,754 11,750 12,751 13,728 14,734 15,725 16,718 17,725 18,723 19,723 20,727 21,735 22,736 23,737 24,739 25,739 26,741 27,739 28,744 29,742 30,739 31,740 32,737 33,737 34,738 35,730 36,728 37,719 38,713 39,717 40,722 41,729 42,728 43,724 45,714 46,709 47,696 48,692 49,703 50,715 51,718 52,720 53,719 54,708 55,701 56,696 57,692 58,692 59,690 60,692 61,701 62,700 63,696 64,691 65,689 66,688 67,694 68,686 69,675 70,670 71,669 72,669 73,661 74,658 75,650 76,646 77,647 78,640 79,629 80,627 81,624 82,613 83,609 84,608 85,618 86,612 87,607 89,605 90,608 91,608 92,600 93,599 94,592 95,592 96,599 97,602 98,599 99,592 100,587 101,586 102,585 103,575 104,567 105,575 106,571 107,573 108,580 109,579 110,585 111,577 112,565 113,561 114,561 115,563 116,563 117,562 118,562 119,558 120,549 121,551 122,556 123,564 124,564 125,565 126,552 127,548 128,544 129,544 130,547 131,550 132,542 134,543 135,547 136,545 137,536 138,534 139,533 140,528 141,530 142,538 143,535 144,528 145,525 146,525 147,527 148,529 149,526 150,532 151,538 152,543 153,550 154,551 155,540 156,536 157,524 158,526 159,549 160,555 161,551 162,544 163,555 164,553 165,550 166,551 167,548 168,532 169,528 170,534 171,532 172,532 173,540 174,546 175,551 176,542 178,543 179,540 180,541 181,548 182,547 183,542 184,547 185,546 186,548 187,550 188,542 189,540 190,537 191,529 192,530 193,538 194,536 195,544 196,540 197,547 198,546 199,550 200,544 201,546 202,547 203,544 204,534 205,530 206,538 207,537 208,541 209,531 210,524 211,525 212,529 213,528 214,534 215,527 216,518 217,518 218,522 219,518 220,523 221,522 223,514 224,511 225,507 226,510 227,512 228,507 229,505 230,507 231,508 232,513 233,511 234,513 235,511 236,499 237,500 238,500 239,505 240,508 241,501 242,504 243,508 244,511 245,509 246,521 247,524 248,516 249,514 250,511 251,502 252,500 253,504 254,506 255,504 256,493 257,498 258,502 259,502 260,512 261,511 262,513 263,518 264,518 265,524 267,520 268,517 269,514 270,509 271,513 272,509 273,511 274,512 275,512 276,500 277,494 278,488 279,487 280,481 281,479 282,482 283,481 284,471 285,466 286,455 287,455 288,467 289,473 290,472 291,474 292,474 293,468 294,468 295,459 296,463 297,469 298,470 299,474 300,467 301,464 302,472 303,474 304,476 305,479 306,480 307,487 308,488 309,494 310,492 312,490 313,485 314,484 315,487 316,490 317,493 318,493 319,494 320,502 321,515 322,505 323,512 324,515 325,508 326,509 327,516 328,511 329,510 330,503 331,497 332,499 333,496 334,504 335,506 336,501 337,500 338,492 339,491 340,492 341,495 342,499 343,503 344,499 345,496 346,493 347,485 348,479 349,478 350,481 351,486 352,480 353,485 354,483 356,484 357,478 358,469 359,464 360,462 361,451 362,453 363,462 364,469 365,480 366,481 367,495 368,490 369,492 370,477 371,479 372,500 373,497 374,490 375,489 376,476 377,471 378,471 379,475 380,483 381,479 382,478 383,481 384,492 385,489 386,484 387,484 388,485 389,486 390,486 391,495 392,491 393,486 394,491 395,497 396,493 397,486 398,488 399,479 401,485 402,481 403,483 404,486 405,488 406,474 407,470 408,474 409,458 410,453 411,448 412,450 413,440 414,439 415,443 416,442 417,441 418,440 419,446 420,446 421,437 422,430 423,433 424,429 425,437 426,439 427,441 428,439 429,441 430,443 431,452 432,440 433,444 434,426 435,426 436,425 437,426 438,420 439,415 440,415 441,413 442,416 443,418 445,423 446,414 447,406 448,405 449,409 450,411 451,400 452,399 453,401 454,405 455,415 456,408 457,401 458,400 459,400 460,401 461,414 462,415 463,416 464,416 465,420 466,421 467,424 468,425 469,418 470,422 471,423 472,426 473,427 474,417 475,415 476,421 477,419 478,422 479,416 480,415 481,424 482,419 483,416 484,417 485,427 486,424 487,422 488,422 490,413 491,417 492,419 493,410 494,410 495,408 496,402 497,403 498,405 499,403 500,403 501,410 502,407 503,403 504,401 505,413 506,398 507,402 508,400 509,406 510,409 511,403 512,401 513,408 514,417 515,426 516,426 517,419 518,420 519,420 520,421 521,422 522,429 523,428 524,431 525,440 526,437 527,433 528,430 529,430 530,426 531,430 532,431 534,429 535,425 536,432 537,429 538,425 539,425 540,429 541,430 542,439 543,446 544,446 545,448 546,437 547,437 548,440 549,439 550,438 551,440 552,437 553,429 554,430 555,439 556,439 557,435 558,437 559,438 560,442 561,440 562,435 563,431 564,435 565,437 566,421 567,420 568,418 569,424 570,417 571,411 572,404 573,399 574,407 575,409 576,404 577,402 579,407 580,405 581,402 582,410 583,408 584,392 585,392 586,389 587,400 588,404 589,410 590,405 591,404 592,408 593,398 594,394 595,399 596,398 597,407 598,407 599,405 600,401 601,401 602,397 603,394 604,383 605,376 606,378 607,375 608,372 609,366 610,365 611,379 612,377 613,375 614,377 615,376 616,367 617,362 618,376 619,373 620,370 621,370 623,379 624,375 625,348 626,351 627,350 628,356 629,358 630,355 631,350 632,360 633,351 634,347 635,346 636,348 637,360 638,362 639,356 640,354 641,353 642,358 643,359 644,360 645,356 646,362 647,358 648,363 649,361 650,365 651,365 652,352 653,348 654,346 655,341 656,335 657,331 658,334 659,332 660,333 661,329 662,330 663,333 664,333 665,329 666,327 668,330 669,336 670,328 671,322 672,320 673,320 674,320 675,320 676,322 677,318 678,318 679,316 680,314 681,316 682,316 683,311 684,306 685,312 686,311 687,318 688,320 689,314 690,309 691,305 692,306 693,304 694,304 695,294 696,280 697,285 698,283 699,282 700,284 701,281 702,282 703,277 704,280 705,267 706,266 707,276 708,268 709,268 710,279 712,293 713,293 714,294 715,296 716,308 717,302 718,301 719,295 720,290 721,288 722,293 723,290 724,288 725,282 726,275 727,265 728,268 729,274 730,287 731,290 732,293 733,283 734,282 735,275 736,269 737,267 738,266 739,267 740,267 741,262 742,262 743,264 744,259 745,257 746,254 747,252 748,258 749,262 750,257 751,248 752,248 753,247 754,254 755,247 757,251 758,258 759,261 760,262 761,266 762,265 763,260 764,260 765,258 766,249 767,239 768,241 769,247 770,249 771,249 772,258 773,258 774,252 775,256 776,259 777,264 778,273 779,286 780,274 781,263 782,259 783,251 784,240 785,237 786,239 787,237 788,234 789,237 790,241 791,247 792,240 793,244 794,239 795,241 796,234 797,228 798,223 799,219 801,220 802,221 803,229 804,225 805,225 806,234 807,238 808,241 809,238 810,224 811,221 812,236 813,237 814,231 815,226 816,220 817,222 818,213 819,207 820,209 821,205 822,196 823,197 824,199 825,193 826,194 827,197 828,209 829,214 830,211 831,219 832,213 833,219 834,222 835,224 836,218 837,219 838,217 839,222 840,209 841,202 842,201 843,208 844,203 846,193 847,192 848,201 849,208 850,203 851,201 852,200 853,201 854,185 855,182 856,191 857,195 858,199 859,195 860,194 861,190 862,187 863,183 864,174 865,165 866,158 867,155 868,147 869,143 870,144 871,148 872,161 873,167 874,160 875,158 876,148 877,147 878,146 879,155 880,151 881,144 882,155 883,152 884,146 885,148 886,126 887,129 888,129 890,129 891,124 892,111 893,112 894,111 895,110 896,111 897,122 898,126 899,132 900,134 901,132 902,129 903,121 904,123 905,106 906,100 907,105 908,112 909,110 910,116 911,113 912,99 913,101 914,108 915,108 916,104 917,105 918,103 919,101 920,106 921,106 922,113 923,106 924,103 925,97 926,99 927,92 928,97 929,96 930,94 931,84 932,85 933,97 935,80 936,78 937,85 938,87 939,93 940,94 941,95 942,103 943,103 944,99 945,89 946,100 947,114 948,117 949,116 950,110 951,105 952,100 953,94 954,88 955,85 956,83 957,69 958,66 959,81 960,82 961,81 962,89 963,87 964,89 965,90 966,88 967,86 968,71 969,70 970,69 971,73 972,79 973,83 974,77 975,72 976,57 977,61 979,60 980,65 981,75 982,61 983,55 984,50 985,43 986,46 987,51 988,61 989,59 990,65 991,64 992,55 993,43 994,42 995,36 996,34 997,34 998,35 999,44 1000,45 1001,41 1002,36 1003,36 1004,45 1005,53 1006,49 1007,31 1008,21 1009,14 1010,2 1011,4 1012,5 1013,1 1014,0 1015,0 1016,9 1017,9 1018,20 1019,27 1020,16 1021,6 1023,8 1023,475 1023,475 "/>
<line opacity="0.1" stroke="#000000" stroke-width="1" x1="1" y1="767" x2="1" y2="0"/>
<line opacity="0.1" stroke="#000000" stroke-width="1" x1="11" y1="767" x2="11" y2="0"/>
<line opacity="0.1" stroke="#000000" stroke-width="1" x1="21" y1="767" x2="21" y2="0"/>
<line opacity="0.1" stroke="#000000" stroke-width="1" x1="31" y1="767" x2="31" y2="0"/>
<line opacity="0.1" stroke="#000000" stroke-width="1" x1="42" y1="767" x2="42" y2="0"/>
<line opacity="0.1" stroke="#000000" stroke-width="1" x1="52" y1="767" x2="52" y2="0"/>
<line opacity="0.1" stroke="#000000" stroke-width="1" x1="62" y1="767" x2="62" y2="0"/>
<line opacity="0.1" stroke="#000000" stroke-width="1" x1="72" y1="767" x2="72" y2="0"/>
<line opacity="0.1" stroke="#000000" stroke-width="1" x1="82" y1="767" x2="82" y2="0"/>
<line opacity="0.1" stroke="#000000" stroke-width="1" x1="93" y1="767" x2="93" y2="0"/>
<line opacity="0.1" stroke="#000000" stroke-width="1" x1="103" y1="767" x2="103" y2="0"/>
<line opacity="0.1" stroke="#000000" stroke-width="1" x1="113" y1="767" x2="113" y2="0"/>
<line opacity="0.1" stroke="#000000" stroke-width="1" x1="123" y1="767" x2="123" y2="0"/>
<line opacity="0.1" stroke="#000000" stroke-width="1" x1="134" y1="767" x2="134" y2="0"/>
<line opacity="0.1" stroke="#000000" stroke-width="1" x1="144" y1="767" x2="144" y2="0"/>
<line opacity="0.1" stroke="#000000" stroke-width="1" x1="154" y1="767" x2="154" y2="0"/>
<line opacity="0.1" stroke="#000000" stroke-width="1" x1="164" y1="767" x2="164" y2="0"/>
<line opacity="0.1" stroke="#000000" stroke-width="1" x1="175" y1="767" x2="175" y2="0"/>
<line opacity="0.1" stroke="#000000" stroke-width="1" x1="185" y1="767" x2="185" y2="0"/>
<line opacity="0.1" stroke="#000000" stroke-width="1" x1="195" y1="767" x2="195" y2="0"/>
<line opacity="0.1" stroke="#000000" stroke-width="1" x1="205" y1="767" x2="205" y2="0"/>
<line opacity="0.1" stroke="#000000" stroke-width="1" x1="215" y1="767" x2="215" y2="0"/>
<line opacity="0.1" stroke="#000000" stroke-width="1" x1="226" y1="767" x2="226" y2="0"/>
<line opacity="0.1" stroke="#000000" stroke-width="1" x1="236" y1="767" x2="236" y2="0"/>
<line opacity="0.1" stroke="#000000" stroke-width="1" x1="246" y1="767" x2="246" y2="0"/>
<line opacity="0.1" stroke="#000000" stroke-width="1" x1="256" y1="767" x2="256" y2="0"/>
<line opacity="0.1" stroke="#000000" stroke-width="1" x1="267" y1="767" x2="267" y2="0"/>
<line opacity="0.1" stroke="#000000" stroke-width="1" x1="277" y1="767" x2="277" y2="0"/>
<line opacity="0.1" stroke="#000000" stroke-width="1" x1="287" y1="767" x2="287" y2="0"/>
<line opacity="0.1" stroke="#000000" stroke-width="1" x1="297" y1="767" x2="297" y2="0"/>
<line opacity="0.1" stroke="#000000" stroke-width="1" x1="307" y1="767" x2="307" y2="0"/>
<line opacity="0.1" stroke="#000000" stroke-width="1" x1="318" y1="767" x2="318" y2="0"/>
<line opacity="0.1" stroke="#000000" stroke-width="1" x1="328" y1="767" x2="328" y2="0"/>
<line opacity="0.1" stroke="#000000" stroke-width="1" x1="338" y1="767" x2="338" y2="0"/>
<line opacity="0.1" stroke="#000000" stroke-width="1" x1="348" y1="767" x2="348" y2="0"/>
<line opacity="0.1" stroke="#000000" stroke-width="1" x1="359" y1="767" x2="359" y2="0"/>
<line opacity="0.1" stroke="#000000" stroke-width="1" x1="369" y1="767" x2="369" y2="0"/>
<line opacity="0.1" stroke="#000000" stroke-width="1" x1="379" y1="767" x2="379" y2="0"/>
<line opacity="0.1" stroke="#000000" stroke-width="1" x1="389" y1="767" x2="389" y2="0"/>
<line opacity="0.1" stroke="#000000" stroke-width="1" x1="400" y1="767" x2="400" y2="0"/>
<line opacity="0.1" stroke="#000000" stroke-width="1" x1="410" y1="767" x2="410" y2="0"/>
<line opacity="0.1" stroke="#000000" stroke-width="1" x1="420" y1="767" x2="420" y2="0"/>
<line opacity="0.1" stroke="#000000" stroke-width="1" x1="430" y1="767" x2="430" y2="0"/>
<line opacity="0.1" stroke="#000000" stroke-width="1" x1="440" y1="767" x2="440" y2="0"/>
<line opacity="0.1" stroke="#000000" stroke-width="1" x1="451" y1="767" x2="451" y2="0"/>
<line opacity="0.1" stroke="#000000" stroke-width="1" x1="461" y1="767" x2="461" y2="0"/>
<line opacity="0.1" stroke="#000000" stroke-width="1" x1="471" y1="767" x2="471" y2="0"/>
<line opacity="0.1" stroke="#000000" stroke-width="1" x1="481" y1="767" x2="481" y2="0"/>
<line opacity="0.1" stroke="#000000" stroke-width="1" x1="492" y1="767" x2="492" y2="0"/>
<line opacity="0.1" stroke="#000000" stroke-width="1" x1="502" y1="767" x2="502" y2="0"/>
<line opacity="0.1" stroke="#000000" stroke-width="1" x1="512" y1="767" x2="512" y2="0"/>
<line opacity="0.1" stroke="#000000" stroke-width="1" x1="522" y1="767" x2="522" y2="0"/>
<line opacity="0.1" stroke="#000000" stroke-width="1" x1="533" y1="767" x2="533" y2="0"/>
<line opacity="0.1" stroke="#000000" stroke-width="1" x1="543" y1="767" x2="543" y2="0"/>
<line opacity="0.1" stroke="#000000" stroke-width="1" x1="553" y1="767" x2="553" y2="0"/>
<line opacity="0.1" stroke="#000000" stroke-width="1" x1="563" y1="767" x2="563" y2="0"/>
<line opacity="0.1" stroke="#000000" stroke-width="1" x1="573" y1="767" x2="573" y2="0"/>
<line opacity="0.1" stroke="#000000" stroke-width="1" x1="584" y1="767" x2="584" y2="0"/>
<line opacity="0.1" stroke="#000000" stroke-width="1" x1="594" y1="767" x2="594" y2="0"/>
<line opacity="0.1" stroke="#000000" stroke-width="1" x1="604" y1="767" x2="604" y2="0"/>
<line opacity="0.1" stroke="#000000" stroke-width="1" x1="614" y1="767" x2="614" y2="0"/>
<line opacity="0.1" stroke="#000000" stroke-width="1" x1="625" y1="767" x2="625" y2="0"/>
<line opacity="0.1" stroke="#000000" stroke-width="1" x1="635" y1="767" x2="635" y2="0"/>
<line opacity="0.1" stroke="#000000" stroke-width="1" x1="645" y1="767" x2="645" y2="0"/>
<line opacity="0.1" stroke="#000000" stroke-width="1" x1="655" y1="767" x2="655" y2="0"/>
<line opacity="0.1" stroke="#000000" stroke-width="1" x1="665" y1="767" x2="665" y2="0"/>
<line opacity="0.1" stroke="#000000" stroke-width="1" x1="676" y1="767" x2="676" y2="0"/>
<line opacity="0.1" stroke="#000000" stroke-width="1" x1="686" y1="767" x2="686" y2="0"/>
<line opacity="0.1" stroke="#000000" stroke-width="1" x1="696" y1="767" x2="696" y2="0"/>
<line opacity="0.1" stroke="#000000" stroke-width="1" x1="706" y1="767" x2="706" y2="0"/>
<line opacity="0.1" stroke="#000000" stroke-width="1" x1="717" y1="767" x2="717" y2="0"/>
<line opacity="0.1" stroke="#000000" stroke-width="1" x1="727" y1="767" x2="727" y2="0"/>
<line opacity="0.1" stroke="#000000" stroke-width="1" x1="737" y1="767" x2="737" y2="0"/>
<line opacity="0.1" stroke="#000000" stroke-width="1" x1="747" y1="767" x2="747" y2="0"/>
<line opacity="0.1" stroke="#000000" stroke-width="1" x1="758" y1="767" x2="758" y2="0"/>
<line opacity="0.1" stroke="#000000" stroke-width="1" x1="768" y1="767" x2="768" y2="0"/>
<line opacity="0.1" stroke="#000000" stroke-width="1" x1="778" y1="767" x2="778" y2="0"/>
<line opacity="0.1" stroke="#000000" stroke-width="1" x1="788" y1="767" x2="788" y2="0"/>
<line opacity="0.1" stroke="#000000" stroke-width="1" x1="798" y1="767" x2="798" y2="0"/>
<line opacity="0.1" stroke="#000000" stroke-width="1" x1="809" y1="767" x2="809" y2="0"/>
<line opacity="0.1" stroke="#000000" stroke-width="1" x1="819" y1="767" x2="819" y2="0"/>
<line opacity="0.1" stroke="#000000" stroke-width="1" x1="829" y1="767" x2="829" y2="0"/>
<line opacity="0.1" stroke="#000000" stroke-width="1" x1="839" y1="767" x2="839" y2="0"/>
<line opacity="0.1" stroke="#000000" stroke-width="1" x1="850" y1="767" x2="850" y2="0"/>
<line opacity="0.1" stroke="#000000" stroke-width="1" x1="860" y1="767" x2="860" y2="0"/>
<line opacity="0.1" stroke="#000000" stroke-width="1" x1="870" y1="767" x2="870" y2="0"/>
<line opacity="0.1" stroke="#000000" stroke-width="1" x1="880" y1="767" x2="880" y2="0"/>
<line opacity="0.1" stroke="#000000" stroke-width="1" x1="890" y1="767" x2="890" y2="0"/>
<line opacity="0.1" stroke="#000000" stroke-width="1" x1="901" y1="767" x2="901" y2="0"/>
<line opacity="0.1" stroke="#000000" stroke-width="1" x1="911" y1="767" x2="911" y2="0"/>
<line opacity="0.1" stroke="#000000" stroke-width="1" x1="921" y1="767" x2="921" y2="0"/>
<line opacity="0.1" stroke="#000000" stroke-width="1" x1="931" y1="767" x2="931" y2="0"/>
<line opacity="0.1" stroke="#000000" stroke-width="1" x1="942" y1="767" x2="942" y2="0"/>
<line opacity="0.1" stroke="#000000" stroke-width="1" x1="952" y1="767" x2="952" y2="0"/>
<line opacity="0.1" stroke="#000000" stroke-width="1" x1="962" y1="767" x2="962" y2="0"/>
<line opacity="0.1" stroke="#000000" stroke-width="1" x1="972" y1="767" x2="972" y2="0"/>
<line opacity="0.1" stroke="#000000" stroke-width="1" x1="983" y1="767" x2="983" y2="0"/>
<line opacity="0.1" stroke="#000000" stroke-width="1" x1="993" y1="767" x2="993" y2="0"/>
<line opacity="0.1" stroke="#000000" stroke-width="1" x1="1003" y1="767" x2="1003" y2="0"/>
<line opacity="0.1" stroke="#000000" stroke-width="1" x1="1013" y1="767" x2="1013" y2="0"/>
<line opacity="0.1" stroke="#000000" stroke-width="1" x1="0" y1="767" x2="1023" y2="767"/>
<line opacity="0.1" stroke="#000000" stroke-width="1" x1="0" y1="755" x2="1023" y2="755"/>
<line opacity="0.1" stroke="#000000" stroke-width="1" x1="0" y1="743" x2="1023" y2="743"/>
<line opacity="0.1" stroke="#000000" stroke-width="1" x1="0" y1="731" x2="1023" y2="731"/>
<line opacity="0.1" stroke="#000000" stroke-width="1" x1="0" y1="719" x2="1023" y2="719"/>
<line opacity="0.1" stroke="#000000" stroke-width="1" x1="0" y1="707" x2="1023" y2="707"/>
<line opacity="0.1" stroke="#000000" stroke-width="1" x1="0" y1="696" x2="1023" y2="696"/>
<line opacity="0.1" stroke="#000000" stroke-width="1" x1="0" y1="684" x2="1023" y2="684"/>
<line opacity="0.1" stroke="#000000" stroke-width="1" x1="0" y1="672" x2="1023" y2="672"/>
<line opacity="0.1" stroke="#000000" stroke-width="1" x1="0" y1="660" x2="1023" y2="660"/>
<line opacity="0.1" stroke="#000000" stroke-width="1" x1="0" y1="648" x2="1023" y2="648"/>
<line opacity="0.1" stroke="#000000" stroke-width="1" x1="0" y1="637" x2="1023" y2="637"/>
<line opacity="0.1" stroke="#000000" stroke-width="1" x1="0" y1="625" x2="1023" y2="625"/>
<line opacity="0.1" stroke="#000000" stroke-width="1" x1="0" y1="613" x2="1023" y2="613"/>
<line opacity="0.1" stroke="#000000" stroke-width="1" x1="0" y1="601" x2="1023" y2="601"/>
<line opacity="0.1" stroke="#000000" stroke-width="1" x1="0" y1="589" x2="1023" y2="589"/>
<line opacity="0.1" stroke="#000000" stroke-width="1" x1="0" y1="577" x2="1023" y2="577"/>
<line opacity="0.1" stroke="#000000" stroke-width="1" x1="0" y1="566" x2="1023" y2="566"/>
<line opacity="0.1" stroke="#000000" stroke-width="1" x1="0" y1="554" x2="1023" y2="554"/>
<line opacity="0.1" stroke="#000000" stroke-width="1" x1="0" y1="542" x2="1023" y2="542"/>
<line opacity="0.1" stroke="#000000" stroke-width="1" x1="0" y1="530" x2="1023" y2="530"/>
<line opacity="0.1" stroke="#000000" stroke-width="1" x1="0" y1="518" x2="1023" y2="518"/>
<line opacity="0.1" stroke="#000000" stroke-width="1" x1="0" y1="507" x2="1023" y2="507"/>
<line opacity="0.1" stroke="#000000" stroke-width="1" x1="0" y1="495" x2="1023" y2="495"/>
<line opacity="0.1" stroke="#000000" stroke-width="1" x1="0" y1="483" x2="1023" y2="483"/>
<line opacity="0.1" stroke="#000000" stroke-width="1" x1="0" y1="471" x2="1023" y2="471"/>
<line opacity="0.1" stroke="#000000" stroke-width="1" x1="0" y1="459" x2="1023" y2="459"/>
<line opacity="0.1" stroke="#000000" stroke-width="1" x1="0" y1="447" x2="1023" y2="447"/>
<line opacity="0.1" stroke="#000000" stroke-width="1" x1="0" y1="436" x2="1023" y2="436"/>
<line opacity="0.1" stroke="#000000" stroke-width="1" x1="0" y1="424" x2="1023" y2="424"/>
<line opacity="0.1" stroke="#000000" stroke-width="1" x1="0" y1="412" x2="1023" y2="412"/>
<line opacity="0.1" stroke="#000000" stroke-width="1" x1="0" y1="400" x2="1023" y2="400"/>
<line opacity="0.1" stroke="#000000" stroke-width="1" x1="0" y1="388" x2="1023" y2="388"/>
<line opacity="0.1" stroke="#000000" stroke-width="1" x1="0" y1="377" x2="1023" y2="377"/>
<line opacity="0.1" stroke="#000000" stroke-width="1" x1="0" y1="365" x2="1023" y2="365"/>
<line opacity="0.1" stroke="#000000" stroke-width="1" x1="0" y1="353" x2="1023" y2="353"/>
<line opacity="0.1" stroke="#000000" stroke-width="1" x1="0" y1="341" x2="1023" y2="341"/>
<line opacity="0.1" stroke="#000000" stroke-width="1" x1="0" y1="329" x2="1023" y2="329"/>
<line opacity="0.1" stroke="#000000" stroke-width="1" x1="0" y1="318" x2="1023" y2="318"/>
<line opacity="0.1" stroke="#000000" stroke-width="1" x1="0" y1="306" x2="1023" y2="306"/>
<line opacity="0.1" stroke="#000000" stroke-width="1" x1="0" y1="294" x2="1023" y2="294"/>
<line opacity="0.1" stroke="#000000" stroke-width="1" x1="0" y1="282" x2="1023" y2="282"/>
<line opacity="0.1" stroke="#000000" stroke-width="1" x1="0" y1="270" x2="1023" y2="270"/>
<line opacity="0.1" stroke="#000000" stroke-width="1" x1="0" y1="258" x2="1023" y2="258"/>
<line opacity="0.1" stroke="#000000" stroke-width="1" x1="0" y1="247" x2="1023" y2="247"/>
<line opacity="0.1" stroke="#000000" stroke-width="1" x1="0" y1="235" x2="1023" y2="235"/>
<line opacity="0.1" stroke="#000000" stroke-width="1" x1="0" y1="223" x2="1023" y2="223"/>
<line opacity="0.1" stroke="#000000" stroke-width="1" x1="0" y1="211" x2="1023" y2="211"/>
<line opacity="0.1" stroke="#000000" stroke-width="1" x1="0" y1="199" x2="1023" y2="199"/>
<line opacity="0.1" stroke="#000000" stroke-width="1" x1="0" y1="188" x2="1023" y2="188"/>
<line opacity="0.1" stroke="#000000" stroke-width="1" x1="0" y1="176" x2="1023" y2="176"/>
<line opacity="0.1" stroke="#000000" stroke-width="1" x1="0" y1="164" x2="1023" y2="164"/>
<line opacity="0.1" stroke="#000000" stroke-width="1" x1="0" y1="152" x2="1023" y2="152"/>
<line opacity="0.1" stroke="#000000" stroke-width="1" x1="0" y1="140" x2="1023" y2="140"/>
<line opacity="0.1" stroke="#000000" stroke-width="1" x1="0" y1="128" x2="1023" y2="128"/>
<line opacity="0.1" stroke="#000000" stroke-width="1" x1="0" y1="117" x2="1023" y2="117"/>
<line opacity="0.1" stroke="#000000" stroke-width="1" x1="0" y1="105" x2="1023" y2="105"/>
<line opacity="0.1" stroke="#000000" stroke-width="1" x1="0" y1="93" x2="1023" y2="93"/>
<line opacity="0.1" stroke="#000000" stroke-width="1" x1="0" y1="81" x2="1023" y2="81"/>
<line opacity="0.1" stroke="#000000" stroke-width="1" x1="0" y1="69" x2="1023" y2="69"/>
<line opacity="0.1" stroke="#000000" stroke-width="1" x1="0" y1="58" x2="1023" y2="58"/>
<line opacity="0.1" stroke="#000000" stroke-width="1" x1="0" y1="46" x2="1023" y2="46"/>
<line opacity="0.1" stroke="#000000" stroke-width="1" x1="0" y1="34" x2="1023" y2="34"/>
<line opacity="0.1" stroke="#000000" stroke-width="1" x1="0" y1="22" x2="1023" y2="22"/>
<line opacity="0.1" stroke="#000000" stroke-width="1" x1="0" y1="10" x2="1023" y2="10"/>
<line opacity="0.2" stroke="#000000" stroke-width="1" x1="21" y1="767" x2="21" y2="0"/>
<line opacity="0.2" stroke="#000000" stroke-width="1" x1="123" y1="767" x2="123" y2="0"/>
<line opacity="0.2" stroke="#000000" stroke-width="1" x1="226" y1="767" x2="226" y2="0"/>
<line opacity="0.2" stroke="#000000" stroke-width="1" x1="328" y1="767" x2="328" y2="0"/>
<line opacity="0.2" stroke="#000000" stroke-width="1" x1="430" y1="767" x2="430" y2="0"/>
<line opacity="0.2" stroke="#000000" stroke-width="1" x1="533" y1="767" x2="533" y2="0"/>
<line opacity="0.2" stroke="#000000" stroke-width="1" x1="635" y1="767" x2="635" y2="0"/>
<line opacity="0.2" stroke="#000000" stroke-width="1" x1="737" y1="767" x2="737" y2="0"/>
<line opacity="0.2" stroke="#000000" stroke-width="1" x1="839" y1="767" x2="839" y2="0"/>
<line opacity="0.2" stroke="#000000" stroke-width="1" x1="942" y1="767" x2="942" y2="0"/>
<line opacity="0.2" stroke="#000000" stroke-width="1" x1="0" y1="767" x2="1023" y2="767"/>
<line opacity="0.2" stroke="#000000" stroke-width="1" x1="0" y1="648" x2="1023" y2="648"/>
<line opacity="0.2" stroke="#000000" stroke-width="1" x1="0" y1="530" x2="1023" y2="530"/>
<line opacity="0.2" stroke="#000000" stroke-width="1" x1="0" y1="412" x2="1023" y2="412"/>
<line opacity="0.2" stroke="#000000" stroke-width="1" x1="0" y1="294" x2="1023" y2="294"/>
<line opacity="0.2" stroke="#000000" stroke-width="1" x1="0" y1="176" x2="1023" y2="176"/>
<line opacity="0.2" stroke="#000000" stroke-width="1" x1="0" y1="58" x2="1023" y2="58"/>
</svg>
