<svg width="1024" height="768" viewBox="0 0 1024 768" xmlns="http://www.w3.org/2000/svg">
<rect x="0" y="0" width="1023" height="767" opacity="1" fill="#FFFFFF" stroke="none"/>
<polygon opacity="1" fill="#E6194B" points="78,68 78,650 79,653 80,645 81,652 82,655 83,650 84,647 85,651 86,650 86,644 87,646 88,645 89,659 90,642 91,651 92,649 93,652 94,646 95,655 95,651 96,648 97,653 98,650 99,652 100,655 101,650 102,645 103,651 103,652 104,651 105,651 106,639 107,650 108,650 109,651 110,651 111,651 112,650 112,656 113,644 114,651 115,645 116,649 117,651 118,653 119,651 120,645 121,657 121,651 122,649 123,650 124,650 125,650 126,652 127,650 128,646 129,652 129,651 130,651 131,656 132,651 133,645 134,651 135,652 136,655 137,641 138,650 138,652 139,652 140,650 141,651 142,650 143,653 144,651 145,652 146,651 146,646 147,650 148,647 149,645 150,645 151,650 152,650 153,647 154,651 155,648 155,646 156,651 157,647 158,654 159,649 160,651 161,648 162,652 163,649 164,652 164,650 165,644 166,650 167,653 168,646 169,645 170,650 171,655 172,645 172,651 173,650 174,649 175,651 176,649 177,646 178,651 179,650 180,651 181,650 181,651 182,649 183,645 184,651 185,655 186,645 187,644 188,647 189,650 190,646 190,652 191,654 192,645 193,652 194,661 195,659 196,659 197,660 198,660 198,659 199,666 200,660 201,661 202,660 203,660 204,660 205,661 206,660 207,656 207,659 208,660 209,654 210,660 211,656 212,656 213,660 214,660 215,662 215,656 216,660 217,657 218,659 219,660 220,660 221,661 222,660 223,666 224,650 224,660 225,660 226,660 227,660 228,661 229,654 230,661 231,660 232,661 233,655 233,659 234,654 235,659 236,660 237,666 238,652 239,656 240,660 241,655 241,665 242,661 243,659 244,661 245,661 246,660 247,660 248,665 249,656 250,660 250,659 251,654 252,660 253,660 254,661 255,660 256,661 257,660 258,660 258,654 259,655 260,662 261,660 262,659 263,655 264,665 265,655 266,656 267,654 267,659 268,662 269,666 270,655 271,665 272,659 273,656 274,662 275,660 276,655 276,660 277,660 278,660 279,655 280,658 281,655 282,655 283,659 284,662 284,661 285,661 286,655 287,660 288,660 289,661 290,660 291,657 292,659 293,655 293,660 294,655 295,660 296,660 297,655 298,666 299,655 300,661 301,667 302,659 302,656 303,654 304,661 305,659 306,660 307,666 308,656 309,661 310,652 310,649 311,660 312,665 313,661 314,662 315,652 316,655 317,651 318,655 319,647 319,644 320,646 321,650 322,651 323,646 324,650 325,646 326,645 327,650 327,649 328,644 329,650 330,646 331,666 332,665 333,657 334,665 335,660 336,660 336,660 337,666 338,660 339,664 340,661 341,661 342,662 343,665 344,661 345,666 345,661 346,665 347,656 348,666 349,655 350,664 351,660 352,665 353,666 353,660 354,660 355,660 356,661 357,662 358,660 359,666 360,660 361,661 362,667 362,662 363,662 364,660 365,663 366,665 367,665 368,659 369,655 370,665 370,655 371,660 372,660 373,666 374,660 375,666 376,661 377,660 378,660 379,661 379,659 380,665 381,660 382,661 383,661 384,661 385,664 386,661 387,661 388,660 388,660 389,660 390,660 391,665 392,661 393,666 394,655 395,661 396,664 396,659 397,661 398,661 399,662 400,659 401,660 402,662 403,660 404,660 405,661 405,660 406,665 407,665 408,661 409,665 410,656 411,662 412,656 413,662 414,665 414,660 415,667 416,655 417,659 418,665 419,656 420,660 421,660 422,665 422,656 423,672 424,661 425,659 426,658 427,667 428,667 429,661 430,666 431,660 431,661 432,660 433,666 434,665 435,661 436,660 437,660 438,661 439,665 439,661 440,661 441,658 442,659 443,662 444,665 445,662 446,665 447,666 448,661 448,667 449,656 450,662 451,665 452,660 453,660 454,660 455,660 456,662 457,658 457,658 458,661 459,667 460,661 461,659 462,666 463,666 464,666 465,666 465,661 466,665 467,661 468,665 469,665 470,661 471,659 472,666 473,660 474,665 474,659 475,665 476,659 477,660 478,665 479,660 480,661 481,666 482,661 482,661 483,664 484,660 485,666 486,661 487,665 488,666 489,656 490,659 491,661 491,665 492,659 493,664 494,660 495,659 496,665 497,660 498,666 499,665 500,655 500,665 501,660 502,660 503,665 504,660 505,664 506,660 507,666 508,659 508,654 509,664 510,660 511,660 512,660 513,666 514,660 515,665 516,660 517,666 517,655 518,659 519,660 520,664 521,661 522,668 523,665 524,654 525,660 526,661 526,664 527,660 528,666 529,658 530,664 531,660 532,665 533,660 534,666 534,661 535,661 536,666 537,660 538,660 539,660 540,666 541,665 542,659 543,661 543,660 544,661 545,661 546,654 547,661 548,659 549,659 550,663 551,663 551,660 552,660 553,661 554,665 555,660 556,655 557,665 558,661 559,661 560,661 560,660 561,660 562,666 563,659 564,660 565,662 566,665 567,662 568,660 569,663 569,654 570,660 571,666 572,661 573,656 574,660 575,665 576,660 577,664 577,661 578,664 579,661 580,670 581,656 582,666 583,661 584,665 585,660 586,661 586,661 587,660 588,660 589,660 590,661 591,661 592,660 593,661 594,666 594,666 595,660 596,660 597,666 598,665 599,660 600,660 601,660 602,653 603,660 603,660 604,654 605,665 606,660 607,661 608,660 609,660 610,659 611,665 612,657 612,664 613,664 614,661 615,661 616,660 617,664 618,666 619,661 620,660 620,665 621,660 622,654 623,660 624,665 625,660 626,665 627,661 628,655 629,665 629,665 630,665 631,661 632,661 633,662 634,665 635,661 636,660 637,656 638,660 638,666 639,662 640,660 641,666 642,658 643,661 644,659 645,662 646,662 646,663 647,661 648,659 649,659 650,665 651,661 652,660 653,658 654,662 655,667 655,661 656,660 657,658 658,659 659,661 660,666 661,661 662,659 663,665 663,661 664,661 665,666 666,665 667,656 668,666 669,659 670,661 671,664 672,653 672,661 673,660 674,666 675,660 676,665 677,661 678,658 679,661 680,665 681,661 681,660 682,664 683,654 684,661 685,667 686,661 687,660 688,660 689,656 689,666 690,660 691,661 692,661 693,666 694,667 695,659 696,660 697,661 698,664 698,660 699,662 700,665 701,655 702,666 703,662 704,660 705,664 706,660 706,661 707,665 708,659 709,659 710,659 711,661 712,662 713,661 714,660 715,661 715,664 716,661 717,655 718,660 719,666 720,659 721,661 722,659 723,661 724,662 724,660 725,658 726,664 727,664 728,658 729,661 730,665 731,655 732,664 732,661 733,660 734,660 735,661 736,660 737,659 738,661 739,655 740,665 741,661 741,665 742,659 743,660 744,661 745,658 746,660 747,664 748,665 749,661 750,660 750,660 751,661 752,660 753,663 754,666 755,659 756,661 757,661 758,660 758,665 759,654 760,671 761,661 762,661 763,665 764,661 765,660 766,660 767,662 767,659 768,654 769,661 770,659 771,661 772,665 773,660 774,661 775,664 775,661 776,661 777,666 778,660 779,661 780,666 781,651 782,645 783,644 784,648 784,654 785,650 786,650 787,650 788,649 789,650 790,656 791,650 792,656 793,661 793,665 794,661 795,661 796,666 797,656 798,660 799,661 800,660 801,660 801,660 802,664 803,655 804,664 805,659 806,670 807,645 808,665 809,660 810,666 810,660 811,661 812,660 813,660 814,654 815,664 816,661 817,666 818,665 818,659 819,664 820,665 821,660 822,661 823,654 824,664 825,661 826,665 827,661 827,664 828,660 829,665 830,655 831,659 832,660 833,661 834,664 835,661 836,661 836,661 837,661 838,660 839,666 840,665 841,661 842,660 843,666 844,660 844,665 845,660 846,660 847,659 848,664 849,661 850,660 851,665 852,660 853,662 853,666 854,661 855,662 856,658 857,661 858,661 859,656 860,670 861,665 862,660 862,660 863,661 864,660 865,659 866,665 867,665 868,659 869,660 870,660 870,661 871,659 872,660 873,661 874,666 875,666 876,661 877,666 878,660 879,666 879,665 880,660 881,665 882,661 883,665 884,661 885,659 886,666 887,660 887,665 888,661 889,657 890,667 891,666 892,659 893,659 894,659 895,666 896,654 896,659 897,660 898,659 899,660 900,660 901,665 902,661 903,665 904,655 905,667 905,660 906,658 907,665 908,655 909,660 910,664 911,661 912,665 913,661 913,660 914,663 915,661 916,660 917,665 918,660 919,661 920,656 921,665 922,660 922,661 923,666 924,656 925,660 926,660 927,661 928,661 929,666 930,657 930,665 931,657 932,666 933,665 934,654 935,661 936,659 937,660 938,665 939,660 939,667 940,666 941,659 942,660 943,662 944,665 945,658 946,660 947,659 948,660 948,660 949,666 950,660 951,664 952,665 953,666 954,660 955,663 956,666 956,666 957,670 958,662 959,669 960,665 961,665 962,666 963,665 964,665 965,666 965,666 966,665 967,660 968,665 969,665 970,666 971,666 972,665 973,668 974,405 974,699 974,699 974,699 78,699 "/>
<polyline fill="none" opacity="1" stroke="#E6194B" stroke-width="1" points="78,68 78,650 79,653 80,645 81,652 82,655 83,650 84,647 85,651 86,650 86,644 87,646 88,645 89,659 90,642 91,651 92,649 93,652 94,646 95,655 95,651 96,648 97,653 98,650 99,652 100,655 101,650 102,645 103,651 103,652 104,651 105,651 106,639 107,650 108,650 109,651 110,651 111,651 112,650 112,656 113,644 114,651 115,645 116,649 117,651 118,653 119,651 120,645 121,657 121,651 122,649 123,650 124,650 125,650 126,652 127,650 128,646 129,652 129,651 130,651 131,656 132,651 133,645 134,651 135,652 136,655 137,641 138,650 138,652 139,652 140,650 141,651 142,650 143,653 144,651 145,652 146,651 146,646 147,650 148,647 149,645 150,645 151,650 152,650 153,647 154,651 155,648 155,646 156,651 157,647 158,654 159,649 160,651 161,648 162,652 163,649 164,652 164,650 165,644 166,650 167,653 168,646 169,645 170,650 171,655 172,645 172,651 173,650 174,649 175,651 176,649 177,646 178,651 179,650 180,651 181,650 181,651 182,649 183,645 184,651 185,655 186,645 187,644 188,647 189,650 190,646 190,652 191,654 192,645 193,652 194,661 195,659 196,659 197,660 198,660 198,659 199,666 200,660 201,661 202,660 203,660 204,660 205,661 206,660 207,656 207,659 208,660 209,654 210,660 211,656 212,656 213,660 214,660 215,662 215,656 216,660 217,657 218,659 219,660 220,660 221,661 222,660 223,666 224,650 224,660 225,660 226,660 227,660 228,661 229,654 230,661 231,660 232,661 233,655 233,659 234,654 235,659 236,660 237,666 238,652 239,656 240,660 241,655 241,665 242,661 243,659 244,661 245,661 246,660 247,660 248,665 249,656 250,660 250,659 251,654 252,660 253,660 254,661 255,660 256,661 257,660 258,660 258,654 259,655 260,662 261,660 262,659 263,655 264,665 265,655 266,656 267,654 267,659 268,662 269,666 270,655 271,665 272,659 273,656 274,662 275,660 276,655 276,660 277,660 278,660 279,655 280,658 281,655 282,655 283,659 284,662 284,661 285,661 286,655 287,660 288,660 289,661 290,660 291,657 292,659 293,655 293,660 294,655 295,660 296,660 297,655 298,666 299,655 300,661 301,667 302,659 302,656 303,654 304,661 305,659 306,660 307,666 308,656 309,661 310,652 310,649 311,660 312,665 313,661 314,662 315,652 316,655 317,651 318,655 319,647 319,644 320,646 321,650 322,651 323,646 324,650 325,646 326,645 327,650 327,649 328,644 329,650 330,646 331,666 332,665 333,657 334,665 335,660 336,660 336,660 337,666 338,660 339,664 340,661 341,661 342,662 343,665 344,661 345,666 345,661 346,665 347,656 348,666 349,655 350,664 351,660 352,665 353,666 353,660 354,660 355,660 356,661 357,662 358,660 359,666 360,660 361,661 362,667 362,662 363,662 364,660 365,663 366,665 367,665 368,659 369,655 370,665 370,655 371,660 372,660 373,666 374,660 375,666 376,661 377,660 378,660 379,661 379,659 380,665 381,660 382,661 383,661 384,661 385,664 386,661 387,661 388,660 388,660 389,660 390,660 391,665 392,661 393,666 394,655 395,661 396,664 396,659 397,661 398,661 399,662 400,659 401,660 402,662 403,660 404,660 405,661 405,660 406,665 407,665 408,661 409,665 410,656 411,662 412,656 413,662 414,665 414,660 415,667 416,655 417,659 418,665 419,656 420,660 421,660 422,665 422,656 423,672 424,661 425,659 426,658 427,667 428,667 429,661 430,666 431,660 431,661 432,660 433,666 434,665 435,661 436,660 437,660 438,661 439,665 439,661 440,661 441,658 442,659 443,662 444,665 445,662 446,665 447,666 448,661 448,667 449,656 450,662 451,665 452,660 453,660 454,660 455,660 456,662 457,658 457,658 458,661 459,667 460,661 461,659 462,666 463,666 464,666 465,666 465,661 466,665 467,661 468,665 469,665 470,661 471,659 472,666 473,660 474,665 474,659 475,665 476,659 477,660 478,665 479,660 480,661 481,666 482,661 482,661 483,664 484,660 485,666 486,661 487,665 488,666 489,656 490,659 491,661 491,665 492,659 493,664 494,660 495,659 496,665 497,660 498,666 499,665 500,655 500,665 501,660 502,660 503,665 504,660 505,664 506,660 507,666 508,659 508,654 509,664 510,660 511,660 512,660 513,666 514,660 515,665 516,660 517,666 517,655 518,659 519,660 520,664 521,661 522,668 523,665 524,654 525,660 526,661 526,664 527,660 528,666 529,658 530,664 531,660 532,665 533,660 534,666 534,661 535,661 536,666 537,660 538,660 539,660 540,666 541,665 542,659 543,661 543,660 544,661 545,661 546,654 547,661 548,659 549,659 550,663 551,663 551,660 552,660 553,661 554,665 555,660 556,655 557,665 558,661 559,661 560,661 560,660 561,660 562,666 563,659 564,660 565,662 566,665 567,662 568,660 569,663 569,654 570,660 571,666 572,661 573,656 574,660 575,665 576,660 577,664 577,661 578,664 579,661 580,670 581,656 582,666 583,661 584,665 585,660 586,661 586,661 587,660 588,660 589,660 590,661 591,661 592,660 593,661 594,666 594,666 595,660 596,660 597,666 598,665 599,660 600,660 601,660 602,653 603,660 603,660 604,654 605,665 606,660 607,661 608,660 609,660 610,659 611,665 612,657 612,664 613,664 614,661 615,661 616,660 617,664 618,666 619,661 620,660 620,665 621,660 622,654 623,660 624,665 625,660 626,665 627,661 628,655 629,665 629,665 630,665 631,661 632,661 633,662 634,665 635,661 636,660 637,656 638,660 638,666 639,662 640,660 641,666 642,658 643,661 644,659 645,662 646,662 646,663 647,661 648,659 649,659 650,665 651,661 652,660 653,658 654,662 655,667 655,661 656,660 657,658 658,659 659,661 660,666 661,661 662,659 663,665 663,661 664,661 665,666 666,665 667,656 668,666 669,659 670,661 671,664 672,653 672,661 673,660 674,666 675,660 676,665 677,661 678,658 679,661 680,665 681,661 681,660 682,664 683,654 684,661 685,667 686,661 687,660 688,660 689,656 689,666 690,660 691,661 692,661 693,666 694,667 695,659 696,660 697,661 698,664 698,660 699,662 700,665 701,655 702,666 703,662 704,660 705,664 706,660 706,661 707,665 708,659 709,659 710,659 711,661 712,662 713,661 714,660 715,661 715,664 716,661 717,655 718,660 719,666 720,659 721,661 722,659 723,661 724,662 724,660 725,658 726,664 727,664 728,658 729,661 730,665 731,655 732,664 732,661 733,660 734,660 735,661 736,660 737,659 738,661 739,655 740,665 741,661 741,665 742,659 743,660 744,661 745,658 746,660 747,664 748,665 749,661 750,660 750,660 751,661 752,660 753,663 754,666 755,659 756,661 757,661 758,660 758,665 759,654 760,671 761,661 762,661 763,665 764,661 765,660 766,660 767,662 767,659 768,654 769,661 770,659 771,661 772,665 773,660 774,661 775,664 775,661 776,661 777,666 778,660 779,661 780,666 781,651 782,645 783,644 784,648 784,654 785,650 786,650 787,650 788,649 789,650 790,656 791,650 792,656 793,661 793,665 794,661 795,661 796,666 797,656 798,660 799,661 800,660 801,660 801,660 802,664 803,655 804,664 805,659 806,670 807,645 808,665 809,660 810,666 810,660 811,661 812,660 813,660 814,654 815,664 816,661 817,666 818,665 818,659 819,664 820,665 821,660 822,661 823,654 824,664 825,661 826,665 827,661 827,664 828,660 829,665 830,655 831,659 832,660 833,661 834,664 835,661 836,661 836,661 837,661 838,660 839,666 840,665 841,661 842,660 843,666 844,660 844,665 845,660 846,660 847,659 848,664 849,661 850,660 851,665 852,660 853,662 853,666 854,661 855,662 856,658 857,661 858,661 859,656 860,670 861,665 862,660 862,660 863,661 864,660 865,659 866,665 867,665 868,659 869,660 870,660 870,661 871,659 872,660 873,661 874,666 875,666 876,661 877,666 878,660 879,666 879,665 880,660 881,665 882,661 883,665 884,661 885,659 886,666 887,660 887,665 888,661 889,657 890,667 891,666 892,659 893,659 894,659 895,666 896,654 896,659 897,660 898,659 899,660 900,660 901,665 902,661 903,665 904,655 905,667 905,660 906,658 907,665 908,655 909,660 910,664 911,661 912,665 913,661 913,660 914,663 915,661 916,660 917,665 918,660 919,661 920,656 921,665 922,660 922,661 923,666 924,656 925,660 926,660 927,661 928,661 929,666 930,657 930,665 931,657 932,666 933,665 934,654 935,661 936,659 937,660 938,665 939,660 939,667 940,666 941,659 942,660 943,662 944,665 945,658 946,660 947,659 948,660 948,660 949,666 950,660 951,664 952,665 953,666 954,660 955,663 956,666 956,666 957,670 958,662 959,669 960,665 961,665 962,666 963,665 964,665 965,666 965,666 966,665 967,660 968,665 969,665 970,666 971,666 972,665 973,668 974,405 974,699 974,699 "/>
<line opacity="0.1" stroke="#000000" stroke-width="1" x1="83" y1="699" x2="83" y2="67"/>
<line opacity="0.1" stroke="#000000" stroke-width="1" x1="92" y1="699" x2="92" y2="67"/>
<line opacity="0.1" stroke="#000000" stroke-width="1" x1="101" y1="699" x2="101" y2="67"/>
<line opacity="0.1" stroke="#000000" stroke-width="1" x1="111" y1="699" x2="111" y2="67"/>
<line opacity="0.1" stroke="#000000" stroke-width="1" x1="120" y1="699" x2="120" y2="67"/>
<line opacity="0.1" stroke="#000000" stroke-width="1" x1="129" y1="699" x2="129" y2="67"/>
<line opacity="0.1" stroke="#000000" stroke-width="1" x1="138" y1="699" x2="138" y2="67"/>
<line opacity="0.1" stroke="#000000" stroke-width="1" x1="148" y1="699" x2="148" y2="67"/>
<line opacity="0.1" stroke="#000000" stroke-width="1" x1="157" y1="699" x2="157" y2="67"/>
<line opacity="0.1" stroke="#000000" stroke-width="1" x1="166" y1="699" x2="166" y2="67"/>
<line opacity="0.1" stroke="#000000" stroke-width="1" x1="175" y1="699" x2="175" y2="67"/>
<line opacity="0.1" stroke="#000000" stroke-width="1" x1="185" y1="699" x2="185" y2="67"/>
<line opacity="0.1" stroke="#000000" stroke-width="1" x1="194" y1="699" x2="194" y2="67"/>
<line opacity="0.1" stroke="#000000" stroke-width="1" x1="203" y1="699" x2="203" y2="67"/>
<line opacity="0.1" stroke="#000000" stroke-width="1" x1="212" y1="699" x2="212" y2="67"/>
<line opacity="0.1" stroke="#000000" stroke-width="1" x1="222" y1="699" x2="222" y2="67"/>
<line opacity="0.1" stroke="#000000" stroke-width="1" x1="231" y1="699" x2="231" y2="67"/>
<line opacity="0.1" stroke="#000000" stroke-width="1" x1="240" y1="699" x2="240" y2="67"/>
<line opacity="0.1" stroke="#000000" stroke-width="1" x1="249" y1="699" x2="249" y2="67"/>
<line opacity="0.1" stroke="#000000" stroke-width="1" x1="259" y1="699" x2="259" y2="67"/>
<line opacity="0.1" stroke="#000000" stroke-width="1" x1="268" y1="699" x2="268" y2="67"/>
<line opacity="0.1" stroke="#000000" stroke-width="1" x1="277" y1="699" x2="277" y2="67"/>
<line opacity="0.1" stroke="#000000" stroke-width="1" x1="287" y1="699" x2="287" y2="67"/>
<line opacity="0.1" stroke="#000000" stroke-width="1" x1="296" y1="699" x2="296" y2="67"/>
<line opacity="0.1" stroke="#000000" stroke-width="1" x1="305" y1="699" x2="305" y2="67"/>
<line opacity="0.1" stroke="#000000" stroke-width="1" x1="314" y1="699" x2="314" y2="67"/>
<line opacity="0.1" stroke="#000000" stroke-width="1" x1="324" y1="699" x2="324" y2="67"/>
<line opacity="0.1" stroke="#000000" stroke-width="1" x1="333" y1="699" x2="333" y2="67"/>
<line opacity="0.1" stroke="#000000" stroke-width="1" x1="342" y1="699" x2="342" y2="67"/>
<line opacity="0.1" stroke="#000000" stroke-width="1" x1="351" y1="699" x2="351" y2="67"/>
<line opacity="0.1" stroke="#000000" stroke-width="1" x1="361" y1="699" x2="361" y2="67"/>
<line opacity="0.1" stroke="#000000" stroke-width="1" x1="370" y1="699" x2="370" y2="67"/>
<line opacity="0.1" stroke="#000000" stroke-width="1" x1="379" y1="699" x2="379" y2="67"/>
<line opacity="0.1" stroke="#000000" stroke-width="1" x1="388" y1="699" x2="388" y2="67"/>
<line opacity="0.1" stroke="#000000" stroke-width="1" x1="398" y1="699" x2="398" y2="67"/>
<line opacity="0.1" stroke="#000000" stroke-width="1" x1="407" y1="699" x2="407" y2="67"/>
<line opacity="0.1" stroke="#000000" stroke-width="1" x1="416" y1="699" x2="416" y2="67"/>
<line opacity="0.1" stroke="#000000" stroke-width="1" x1="425" y1="699" x2="425" y2="67"/>
<line opacity="0.1" stroke="#000000" stroke-width="1" x1="435" y1="699" x2="435" y2="67"/>
<line opacity="0.1" stroke="#000000" stroke-width="1" x1="444" y1="699" x2="444" y2="67"/>
<line opacity="0.1" stroke="#000000" stroke-width="1" x1="453" y1="699" x2="453" y2="67"/>
<line opacity="0.1" stroke="#000000" stroke-width="1" x1="463" y1="699" x2="463" y2="67"/>
<line opacity="0.1" stroke="#000000" stroke-width="1" x1="472" y1="699" x2="472" y2="67"/>
<line opacity="0.1" stroke="#000000" stroke-width="1" x1="481" y1="699" x2="481" y2="67"/>
<line opacity="0.1" stroke="#000000" stroke-width="1" x1="490" y1="699" x2="490" y2="67"/>
<line opacity="0.1" stroke="#000000" stroke-width="1" x1="500" y1="699" x2="500" y2="67"/>
<line opacity="0.1" stroke="#000000" stroke-width="1" x1="509" y1="699" x2="509" y2="67"/>
<line opacity="0.1" stroke="#000000" stroke-width="1" x1="518" y1="699" x2="518" y2="67"/>
<line opacity="0.1" stroke="#000000" stroke-width="1" x1="527" y1="699" x2="527" y2="67"/>
<line opacity="0.1" stroke="#000000" stroke-width="1" x1="537" y1="699" x2="537" y2="67"/>
<line opacity="0.1" stroke="#000000" stroke-width="1" x1="546" y1="699" x2="546" y2="67"/>
<line opacity="0.1" stroke="#000000" stroke-width="1" x1="555" y1="699" x2="555" y2="67"/>
<line opacity="0.1" stroke="#000000" stroke-width="1" x1="564" y1="699" x2="564" y2="67"/>
<line opacity="0.1" stroke="#000000" stroke-width="1" x1="574" y1="699" x2="574" y2="67"/>
<line opacity="0.1" stroke="#000000" stroke-width="1" x1="583" y1="699" x2="583" y2="67"/>
<line opacity="0.1" stroke="#000000" stroke-width="1" x1="592" y1="699" x2="592" y2="67"/>
<line opacity="0.1" stroke="#000000" stroke-width="1" x1="601" y1="699" x2="601" y2="67"/>
<line opacity="0.1" stroke="#000000" stroke-width="1" x1="611" y1="699" x2="611" y2="67"/>
<line opacity="0.1" stroke="#000000" stroke-width="1" x1="620" y1="699" x2="620" y2="67"/>
<line opacity="0.1" stroke="#000000" stroke-width="1" x1="629" y1="699" x2="629" y2="67"/>
<line opacity="0.1" stroke="#000000" stroke-width="1" x1="639" y1="699" x2="639" y2="67"/>
<line opacity="0.1" stroke="#000000" stroke-width="1" x1="648" y1="699" x2="648" y2="67"/>
<line opacity="0.1" stroke="#000000" stroke-width="1" x1="657" y1="699" x2="657" y2="67"/>
<line opacity="0.1" stroke="#000000" stroke-width="1" x1="666" y1="699" x2="666" y2="67"/>
<line opacity="0.1" stroke="#000000" stroke-width="1" x1="676" y1="699" x2="676" y2="67"/>
<line opacity="0.1" stroke="#000000" stroke-width="1" x1="685" y1="699" x2="685" y2="67"/>
<line opacity="0.1" stroke="#000000" stroke-width="1" x1="694" y1="699" x2="694" y2="67"/>
<line opacity="0.1" stroke="#000000" stroke-width="1" x1="703" y1="699" x2="703" y2="67"/>
<line opacity="0.1" stroke="#000000" stroke-width="1" x1="713" y1="699" x2="713" y2="67"/>
<line opacity="0.1" stroke="#000000" stroke-width="1" x1="722" y1="699" x2="722" y2="67"/>
<line opacity="0.1" stroke="#000000" stroke-width="1" x1="731" y1="699" x2="731" y2="67"/>
<line opacity="0.1" stroke="#000000" stroke-width="1" x1="740" y1="699" x2="740" y2="67"/>
<line opacity="0.1" stroke="#000000" stroke-width="1" x1="750" y1="699" x2="750" y2="67"/>
<line opacity="0.1" stroke="#000000" stroke-width="1" x1="759" y1="699" x2="759" y2="67"/>
<line opacity="0.1" stroke="#000000" stroke-width="1" x1="768" y1="699" x2="768" y2="67"/>
<line opacity="0.1" stroke="#000000" stroke-width="1" x1="777" y1="699" x2="777" y2="67"/>
<line opacity="0.1" stroke="#000000" stroke-width="1" x1="787" y1="699" x2="787" y2="67"/>
<line opacity="0.1" stroke="#000000" stroke-width="1" x1="796" y1="699" x2="796" y2="67"/>
<line opacity="0.1" stroke="#000000" stroke-width="1" x1="805" y1="699" x2="805" y2="67"/>
<line opacity="0.1" stroke="#000000" stroke-width="1" x1="815" y1="699" x2="815" y2="67"/>
<line opacity="0.1" stroke="#000000" stroke-width="1" x1="824" y1="699" x2="824" y2="67"/>
<line opacity="0.1" stroke="#000000" stroke-width="1" x1="833" y1="699" x2="833" y2="67"/>
<line opacity="0.1" stroke="#000000" stroke-width="1" x1="842" y1="699" x2="842" y2="67"/>
<line opacity="0.1" stroke="#000000" stroke-width="1" x1="852" y1="699" x2="852" y2="67"/>
<line opacity="0.1" stroke="#000000" stroke-width="1" x1="861" y1="699" x2="861" y2="67"/>
<line opacity="0.1" stroke="#000000" stroke-width="1" x1="870" y1="699" x2="870" y2="67"/>
<line opacity="0.1" stroke="#000000" stroke-width="1" x1="879" y1="699" x2="879" y2="67"/>
<line opacity="0.1" stroke="#000000" stroke-width="1" x1="889" y1="699" x2="889" y2="67"/>
<line opacity="0.1" stroke="#000000" stroke-width="1" x1="898" y1="699" x2="898" y2="67"/>
<line opacity="0.1" stroke="#000000" stroke-width="1" x1="907" y1="699" x2="907" y2="67"/>
<line opacity="0.1" stroke="#000000" stroke-width="1" x1="916" y1="699" x2="916" y2="67"/>
<line opacity="0.1" stroke="#000000" stroke-width="1" x1="926" y1="699" x2="926" y2="67"/>
<line opacity="0.1" stroke="#000000" stroke-width="1" x1="935" y1="699" x2="935" y2="67"/>
<line opacity="0.1" stroke="#000000" stroke-width="1" x1="944" y1="699" x2="944" y2="67"/>
<line opacity="0.1" stroke="#000000" stroke-width="1" x1="953" y1="699" x2="953" y2="67"/>
<line opacity="0.1" stroke="#000000" stroke-width="1" x1="963" y1="699" x2="963" y2="67"/>
<line opacity="0.1" stroke="#000000" stroke-width="1" x1="972" y1="699" x2="972" y2="67"/>
<line opacity="0.1" stroke="#000000" stroke-width="1" x1="78" y1="699" x2="974" y2="699"/>
<line opacity="0.1" stroke="#000000" stroke-width="1" x1="78" y1="691" x2="974" y2="691"/>
<line opacity="0.1" stroke="#000000" stroke-width="1" x1="78" y1="684" x2="974" y2="684"/>
<line opacity="0.1" stroke="#000000" stroke-width="1" x1="78" y1="677" x2="974" y2="677"/>
<line opacity="0.1" stroke="#000000" stroke-width="1" x1="78" y1="669" x2="974" y2="669"/>
<line opacity="0.1" stroke="#000000" stroke-width="1" x1="78" y1="662" x2="974" y2="662"/>
<line opacity="0.1" stroke="#000000" stroke-width="1" x1="78" y1="655" x2="974" y2="655"/>
<line opacity="0.1" stroke="#000000" stroke-width="1" x1="78" y1="647" x2="974" y2="647"/>
<line opacity="0.1" stroke="#000000" stroke-width="1" x1="78" y1="640" x2="974" y2="640"/>
<line opacity="0.1" stroke="#000000" stroke-width="1" x1="78" y1="633" x2="974" y2="633"/>
<line opacity="0.1" stroke="#000000" stroke-width="1" x1="78" y1="625" x2="974" y2="625"/>
<line opacity="0.1" stroke="#000000" stroke-width="1" x1="78" y1="618" x2="974" y2="618"/>
<line opacity="0.1" stroke="#000000" stroke-width="1" x1="78" y1="611" x2="974" y2="611"/>
<line opacity="0.1" stroke="#000000" stroke-width="1" x1="78" y1="603" x2="974" y2="603"/>
<line opacity="0.1" stroke="#000000" stroke-width="1" x1="78" y1="596" x2="974" y2="596"/>
<line opacity="0.1" stroke="#000000" stroke-width="1" x1="78" y1="589" x2="974" y2="589"/>
<line opacity="0.1" stroke="#000000" stroke-width="1" x1="78" y1="581" x2="974" y2="581"/>
<line opacity="0.1" stroke="#000000" stroke-width="1" x1="78" y1="574" x2="974" y2="574"/>
<line opacity="0.1" stroke="#000000" stroke-width="1" x1="78" y1="567" x2="974" y2="567"/>
<line opacity="0.1" stroke="#000000" stroke-width="1" x1="78" y1="559" x2="974" y2="559"/>
<line opacity="0.1" stroke="#000000" stroke-width="1" x1="78" y1="552" x2="974" y2="552"/>
<line opacity="0.1" stroke="#000000" stroke-width="1" x1="78" y1="545" x2="974" y2="545"/>
<line opacity="0.1" stroke="#000000" stroke-width="1" x1="78" y1="537" x2="974" y2="537"/>
<line opacity="0.1" stroke="#000000" stroke-width="1" x1="78" y1="530" x2="974" y2="530"/>
<line opacity="0.1" stroke="#000000" stroke-width="1" x1="78" y1="523" x2="974" y2="523"/>
<line opacity="0.1" stroke="#000000" stroke-width="1" x1="78" y1="515" x2="974" y2="515"/>
<line opacity="0.1" stroke="#000000" stroke-width="1" x1="78" y1="508" x2="974" y2="508"/>
<line opacity="0.1" stroke="#000000" stroke-width="1" x1="78" y1="501" x2="974" y2="501"/>
<line opacity="0.1" stroke="#000000" stroke-width="1" x1="78" y1="493" x2="974" y2="493"/>
<line opacity="0.1" stroke="#000000" stroke-width="1" x1="78" y1="486" x2="974" y2="486"/>
<line opacity="0.1" stroke="#000000" stroke-width="1" x1="78" y1="479" x2="974" y2="479"/>
<line opacity="0.1" stroke="#000000" stroke-width="1" x1="78" y1="472" x2="974" y2="472"/>
<line opacity="0.1" stroke="#000000" stroke-width="1" x1="78" y1="464" x2="974" y2="464"/>
<line opacity="0.1" stroke="#000000" stroke-width="1" x1="78" y1="457" x2="974" y2="457"/>
<line opacity="0.1" stroke="#000000" stroke-width="1" x1="78" y1="450" x2="974" y2="450"/>
<line opacity="0.1" stroke="#000000" stroke-width="1" x1="78" y1="442" x2="974" y2="442"/>
<line opacity="0.1" stroke="#000000" stroke-width="1" x1="78" y1="435" x2="974" y2="435"/>
<line opacity="0.1" stroke="#000000" stroke-width="1" x1="78" y1="428" x2="974" y2="428"/>
<line opacity="0.1" stroke="#000000" stroke-width="1" x1="78" y1="420" x2="974" y2="420"/>
<line opacity="0.1" stroke="#000000" stroke-width="1" x1="78" y1="413" x2="974" y2="413"/>
<line opacity="0.1" stroke="#000000" stroke-width="1" x1="78" y1="406" x2="974" y2="406"/>
<line opacity="0.1" stroke="#000000" stroke-width="1" x1="78" y1="398" x2="974" y2="398"/>
<line opacity="0.1" stroke="#000000" stroke-width="1" x1="78" y1="391" x2="974" y2="391"/>
<line opacity="0.1" stroke="#000000" stroke-width="1" x1="78" y1="384" x2="974" y2="384"/>
<line opacity="0.1" stroke="#000000" stroke-width="1" x1="78" y1="376" x2="974" y2="376"/>
<line opacity="0.1" stroke="#000000" stroke-width="1" x1="78" y1="369" x2="974" y2="369"/>
<line opacity="0.1" stroke="#000000" stroke-width="1" x1="78" y1="362" x2="974" y2="362"/>
<line opacity="0.1" stroke="#000000" stroke-width="1" x1="78" y1="354" x2="974" y2="354"/>
<line opacity="0.1" stroke="#000000" stroke-width="1" x1="78" y1="347" x2="974" y2="347"/>
<line opacity="0.1" stroke="#000000" stroke-width="1" x1="78" y1="340" x2="974" y2="340"/>
<line opacity="0.1" stroke="#000000" stroke-width="1" x1="78" y1="332" x2="974" y2="332"/>
<line opacity="0.1" stroke="#000000" stroke-width="1" x1="78" y1="325" x2="974" y2="325"/>
<line opacity="0.1" stroke="#000000" stroke-width="1" x1="78" y1="318" x2="974" y2="318"/>
<line opacity="0.1" stroke="#000000" stroke-width="1" x1="78" y1="310" x2="974" y2="310"/>
<line opacity="0.1" stroke="#000000" stroke-width="1" x1="78" y1="303" x2="974" y2="303"/>
<line opacity="0.1" stroke="#000000" stroke-width="1" x1="78" y1="296" x2="974" y2="296"/>
<line opacity="0.1" stroke="#000000" stroke-width="1" x1="78" y1="288" x2="974" y2="288"/>
<line opacity="0.1" stroke="#000000" stroke-width="1" x1="78" y1="281" x2="974" y2="281"/>
<line opacity="0.1" stroke="#000000" stroke-width="1" x1="78" y1="274" x2="974" y2="274"/>
<line opacity="0.1" stroke="#000000" stroke-width="1" x1="78" y1="267" x2="974" y2="267"/>
<line opacity="0.1" stroke="#000000" stroke-width="1" x1="78" y1="259" x2="974" y2="259"/>
<line opacity="0.1" stroke="#000000" stroke-width="1" x1="78" y1="252" x2="974" y2="252"/>
<line opacity="0.1" stroke="#000000" stroke-width="1" x1="78" y1="245" x2="974" y2="245"/>
<line opacity="0.1" stroke="#000000" stroke-width="1" x1="78" y1="237" x2="974" y2="237"/>
<line opacity="0.1" stroke="#000000" stroke-width="1" x1="78" y1="230" x2="974" y2="230"/>
<line opacity="0.1" stroke="#000000" stroke-width="1" x1="78" y1="223" x2="974" y2="223"/>
<line opacity="0.1" stroke="#000000" stroke-width="1" x1="78" y1="215" x2="974" y2="215"/>
<line opacity="0.1" stroke="#000000" stroke-width="1" x1="78" y1="208" x2="974" y2="208"/>
<line opacity="0.1" stroke="#000000" stroke-width="1" x1="78" y1="201" x2="974" y2="201"/>
<line opacity="0.1" stroke="#000000" stroke-width="1" x1="78" y1="193" x2="974" y2="193"/>
<line opacity="0.1" stroke="#000000" stroke-width="1" x1="78" y1="186" x2="974" y2="186"/>
<line opacity="0.1" stroke="#000000" stroke-width="1" x1="78" y1="179" x2="974" y2="179"/>
<line opacity="0.1" stroke="#000000" stroke-width="1" x1="78" y1="171" x2="974" y2="171"/>
<line opacity="0.1" stroke="#000000" stroke-width="1" x1="78" y1="164" x2="974" y2="164"/>
<line opacity="0.1" stroke="#000000" stroke-width="1" x1="78" y1="157" x2="974" y2="157"/>
<line opacity="0.1" stroke="#000000" stroke-width="1" x1="78" y1="149" x2="974" y2="149"/>
<line opacity="0.1" stroke="#000000" stroke-width="1" x1="78" y1="142" x2="974" y2="142"/>
<line opacity="0.1" stroke="#000000" stroke-width="1" x1="78" y1="135" x2="974" y2="135"/>
<line opacity="0.1" stroke="#000000" stroke-width="1" x1="78" y1="127" x2="974" y2="127"/>
<line opacity="0.1" stroke="#000000" stroke-width="1" x1="78" y1="120" x2="974" y2="120"/>
<line opacity="0.1" stroke="#000000" stroke-width="1" x1="78" y1="113" x2="974" y2="113"/>
<line opacity="0.1" stroke="#000000" stroke-width="1" x1="78" y1="105" x2="974" y2="105"/>
<line opacity="0.1" stroke="#000000" stroke-width="1" x1="78" y1="98" x2="974" y2="98"/>
<line opacity="0.1" stroke="#000000" stroke-width="1" x1="78" y1="91" x2="974" y2="91"/>
<line opacity="0.1" stroke="#000000" stroke-width="1" x1="78" y1="83" x2="974" y2="83"/>
<line opacity="0.1" stroke="#000000" stroke-width="1" x1="78" y1="76" x2="974" y2="76"/>
<line opacity="0.1" stroke="#000000" stroke-width="1" x1="78" y1="69" x2="974" y2="69"/>
<text x="8" y="384" dy="0.76em" text-anchor="middle" font-family="sans-serif" font-size="9.67741935483871" opacity="1" fill="#000000" transform="rotate(270, 8, 384)">
Deallocations
</text>
<text x="526" y="760" dy="-0.5ex" text-anchor="middle" font-family="sans-serif" font-size="9.67741935483871" opacity="1" fill="#000000">
Time
</text>
<line opacity="0.2" stroke="#000000" stroke-width="1" x1="166" y1="699" x2="166" y2="67"/>
<line opacity="0.2" stroke="#000000" stroke-width="1" x1="259" y1="699" x2="259" y2="67"/>
<line opacity="0.2" stroke="#000000" stroke-width="1" x1="351" y1="699" x2="351" y2="67"/>
<line opacity="0.2" stroke="#000000" stroke-width="1" x1="444" y1="699" x2="444" y2="67"/>
<line opacity="0.2" stroke="#000000" stroke-width="1" x1="537" y1="699" x2="537" y2="67"/>
<line opacity="0.2" stroke="#000000" stroke-width="1" x1="629" y1="699" x2="629" y2="67"/>
<line opacity="0.2" stroke="#000000" stroke-width="1" x1="722" y1="699" x2="722" y2="67"/>
<line opacity="0.2" stroke="#000000" stroke-width="1" x1="815" y1="699" x2="815" y2="67"/>
<line opacity="0.2" stroke="#000000" stroke-width="1" x1="907" y1="699" x2="907" y2="67"/>
<line opacity="0.2" stroke="#000000" stroke-width="1" x1="78" y1="699" x2="974" y2="699"/>
<line opacity="0.2" stroke="#000000" stroke-width="1" x1="78" y1="625" x2="974" y2="625"/>
<line opacity="0.2" stroke="#000000" stroke-width="1" x1="78" y1="552" x2="974" y2="552"/>
<line opacity="0.2" stroke="#000000" stroke-width="1" x1="78" y1="479" x2="974" y2="479"/>
<line opacity="0.2" stroke="#000000" stroke-width="1" x1="78" y1="406" x2="974" y2="406"/>
<line opacity="0.2" stroke="#000000" stroke-width="1" x1="78" y1="332" x2="974" y2="332"/>
<line opacity="0.2" stroke="#000000" stroke-width="1" x1="78" y1="259" x2="974" y2="259"/>
<line opacity="0.2" stroke="#000000" stroke-width="1" x1="78" y1="186" x2="974" y2="186"/>
<line opacity="0.2" stroke="#000000" stroke-width="1" x1="78" y1="113" x2="974" y2="113"/>
<polyline fill="none" opacity="1" stroke="#000000" stroke-width="1" points="77,68 77,700 "/>
<text x="68" y="699" dy="0.5ex" text-anchor="end" font-family="sans-serif" font-size="9.67741935483871" opacity="1" fill="#000000">
0.00 K
</text>
<polyline fill="none" opacity="1" stroke="#000000" stroke-width="1" points="72,699 77,699 "/>
<text x="68" y="625" dy="0.5ex" text-anchor="end" font-family="sans-serif" font-size="9.67741935483871" opacity="1" fill="#000000">
0.50 K
</text>
<polyline fill="none" opacity="1" stroke="#000000" stroke-width="1" points="72,625 77,625 "/>
<text x="68" y="552" dy="0.5ex" text-anchor="end" font-family="sans-serif" font-size="9.67741935483871" opacity="1" fill="#000000">
1.00 K
</text>
<polyline fill="none" opacity="1" stroke="#000000" stroke-width="1" points="72,552 77,552 "/>
<text x="68" y="479" dy="0.5ex" text-anchor="end" font-family="sans-serif" font-size="9.67741935483871" opacity="1" fill="#000000">
1.50 K
</text>
<polyline fill="none" opacity="1" stroke="#000000" stroke-width="1" points="72,479 77,479 "/>
<text x="68" y="406" dy="0.5ex" text-anchor="end" font-family="sans-serif" font-size="9.67741935483871" opacity="1" fill="#000000">
2.00 K
</text>
<polyline fill="none" opacity="1" stroke="#000000" stroke-width="1" points="72,406 77,406 "/>
<text x="68" y="332" dy="0.5ex" text-anchor="end" font-family="sans-serif" font-size="9.67741935483871" opacity="1" fill="#000000">
2.50 K
</text>
<polyline fill="none" opacity="1" stroke="#000000" stroke-width="1" points="72,332 77,332 "/>
<text x="68" y="259" dy="0.5ex" text-anchor="end" font-family="sans-serif" font-size="9.67741935483871" opacity="1" fill="#000000">
3.00 K
</text>
<polyline fill="none" opacity="1" stroke="#000000" stroke-width="1" points="72,259 77,259 "/>
<text x="68" y="186" dy="0.5ex" text-anchor="end" font-family="sans-serif" font-size="9.67741935483871" opacity="1" fill="#000000">
3.50 K
</text>
<polyline fill="none" opacity="1" stroke="#000000" stroke-width="1" points="72,186 77,186 "/>
<text x="68" y="113" dy="0.5ex" text-anchor="end" font-family="sans-serif" font-size="9.67741935483871" opacity="1" fill="#000000">
4.00 K
</text>
<polyline fill="none" opacity="1" stroke="#000000" stroke-width="1" points="72,113 77,113 "/>
<polyline fill="none" opacity="1" stroke="#000000" stroke-width="1" points="78,700 974,700 "/>
<text x="166" y="710" dy="0.76em" text-anchor="middle" font-family="sans-serif" font-size="9.67741935483871" opacity="1" fill="#000000">
06:26:08
</text>
<polyline fill="none" opacity="1" stroke="#000000" stroke-width="1" points="166,700 166,705 "/>
<text x="259" y="710" dy="0.76em" text-anchor="middle" font-family="sans-serif" font-size="9.67741935483871" opacity="1" fill="#000000">
06:26:09
</text>
<polyline fill="none" opacity="1" stroke="#000000" stroke-width="1" points="259,700 259,705 "/>
<text x="351" y="710" dy="0.76em" text-anchor="middle" font-family="sans-serif" font-size="9.67741935483871" opacity="1" fill="#000000">
06:26:10
</text>
<polyline fill="none" opacity="1" stroke="#000000" stroke-width="1" points="351,700 351,705 "/>
<text x="444" y="710" dy="0.76em" text-anchor="middle" font-family="sans-serif" font-size="9.67741935483871" opacity="1" fill="#000000">
06:26:11
</text>
<polyline fill="none" opacity="1" stroke="#000000" stroke-width="1" points="444,700 444,705 "/>
<text x="537" y="710" dy="0.76em" text-anchor="middle" font-family="sans-serif" font-size="9.67741935483871" opacity="1" fill="#000000">
06:26:12
</text>
<polyline fill="none" opacity="1" stroke="#000000" stroke-width="1" points="537,700 537,705 "/>
<text x="629" y="710" dy="0.76em" text-anchor="middle" font-family="sans-serif" font-size="9.67741935483871" opacity="1" fill="#000000">
06:26:13
</text>
<polyline fill="none" opacity="1" stroke="#000000" stroke-width="1" points="629,700 629,705 "/>
<text x="722" y="710" dy="0.76em" text-anchor="middle" font-family="sans-serif" font-size="9.67741935483871" opacity="1" fill="#000000">
06:26:14
</text>
<polyline fill="none" opacity="1" stroke="#000000" stroke-width="1" points="722,700 722,705 "/>
<text x="815" y="710" dy="0.76em" text-anchor="middle" font-family="sans-serif" font-size="9.67741935483871" opacity="1" fill="#000000">
06:26:15
</text>
<polyline fill="none" opacity="1" stroke="#000000" stroke-width="1" points="815,700 815,705 "/>
<text x="907" y="710" dy="0.76em" text-anchor="middle" font-family="sans-serif" font-size="9.67741935483871" opacity="1" fill="#000000">
06:26:16
</text>
<polyline fill="none" opacity="1" stroke="#000000" stroke-width="1" points="907,700 907,705 "/>
<polyline fill="none" opacity="1" stroke="#000000" stroke-width="1" points="78,67 974,67 "/>
<text x="166" y="58" dy="-0.5ex" text-anchor="middle" font-family="sans-serif" font-size="9.67741935483871" opacity="1" fill="#000000">
+956ms
</text>
<polyline fill="none" opacity="1" stroke="#000000" stroke-width="1" points="166,62 166,67 "/>
<text x="259" y="58" dy="-0.5ex" text-anchor="middle" font-family="sans-serif" font-size="9.67741935483871" opacity="1" fill="#000000">
+1s
</text>
<polyline fill="none" opacity="1" stroke="#000000" stroke-width="1" points="259,62 259,67 "/>
<text x="351" y="58" dy="-0.5ex" text-anchor="middle" font-family="sans-serif" font-size="9.67741935483871" opacity="1" fill="#000000">
+2s
</text>
<polyline fill="none" opacity="1" stroke="#000000" stroke-width="1" points="351,62 351,67 "/>
<text x="444" y="58" dy="-0.5ex" text-anchor="middle" font-family="sans-serif" font-size="9.67741935483871" opacity="1" fill="#000000">
+3s
</text>
<polyline fill="none" opacity="1" stroke="#000000" stroke-width="1" points="444,62 444,67 "/>
<text x="537" y="58" dy="-0.5ex" text-anchor="middle" font-family="sans-serif" font-size="9.67741935483871" opacity="1" fill="#000000">
+4s
</text>
<polyline fill="none" opacity="1" stroke="#000000" stroke-width="1" points="537,62 537,67 "/>
<text x="629" y="58" dy="-0.5ex" text-anchor="middle" font-family="sans-serif" font-size="9.67741935483871" opacity="1" fill="#000000">
+5s
</text>
<polyline fill="none" opacity="1" stroke="#000000" stroke-width="1" points="629,62 629,67 "/>
<text x="722" y="58" dy="-0.5ex" text-anchor="middle" font-family="sans-serif" font-size="9.67741935483871" opacity="1" fill="#000000">
+6s
</text>
<polyline fill="none" opacity="1" stroke="#000000" stroke-width="1" points="722,62 722,67 "/>
<text x="815" y="58" dy="-0.5ex" text-anchor="middle" font-family="sans-serif" font-size="9.67741935483871" opacity="1" fill="#000000">
+7s
</text>
<polyline fill="none" opacity="1" stroke="#000000" stroke-width="1" points="815,62 815,67 "/>
<text x="907" y="58" dy="-0.5ex" text-anchor="middle" font-family="sans-serif" font-size="9.67741935483871" opacity="1" fill="#000000">
+8s
</text>
<polyline fill="none" opacity="1" stroke="#000000" stroke-width="1" points="907,62 907,67 "/>
</svg>
