<svg width="1024" height="768" viewBox="0 0 1024 768" xmlns="http://www.w3.org/2000/svg">
<rect x="0" y="0" width="1024" height="768" opacity="1" fill="#FFFFFF" stroke="none"/>
<polygon opacity="1" fill="#E6194B" points="78,661 78,137 79,126 80,133 81,148 82,166 83,173 84,191 85,155 86,168 86,151 87,120 88,147 89,107 90,170 91,165 92,190 93,148 94,306 95,323 95,314 96,284 97,303 98,287 99,323 100,332 101,302 102,303 103,323 103,294 104,286 105,332 106,343 107,281 108,301 109,288 110,284 111,313 112,324 112,347 113,308 114,346 115,328 116,316 117,316 118,334 119,317 120,283 120,332 121,317 122,330 123,295 124,305 125,276 126,291 127,303 128,314 129,250 129,334 130,331 131,345 132,349 133,309 134,336 135,340 136,320 137,330 137,328 138,336 139,323 140,331 141,319 142,297 143,306 144,305 145,309 146,284 146,302 147,299 148,317 149,310 150,323 151,308 152,314 153,291 154,301 154,323 155,314 156,280 157,317 158,314 159,316 160,330 161,321 162,276 163,323 163,319 164,302 165,325 166,295 167,327 168,283 169,305 170,290 171,286 171,294 172,279 173,302 174,316 175,297 176,303 177,291 178,340 179,290 180,310 180,283 181,327 182,312 183,317 184,298 185,291 186,323 187,299 188,330 188,321 189,295 190,313 191,309 192,297 193,301 194,287 195,283 196,308 197,324 197,338 198,309 199,306 200,312 201,317 202,308 203,292 204,308 205,297 205,306 206,319 207,340 208,323 209,321 210,319 211,306 212,280 213,316 214,305 214,354 215,303 216,273 217,314 218,258 219,295 220,313 221,299 222,323 222,338 223,268 224,319 225,284 226,298 227,271 228,327 229,306 230,324 231,332 231,323 232,331 233,346 234,328 235,346 236,343 237,299 238,312 239,309 239,309 240,297 241,308 242,281 243,299 244,309 245,302 246,330 247,268 248,306 248,321 249,299 250,306 251,331 252,312 253,298 254,324 255,317 256,332 257,336 257,319 258,313 259,298 260,297 261,308 262,319 263,299 264,294 265,314 265,283 266,294 267,284 268,266 269,290 270,317 271,316 272,295 273,339 274,346 274,332 275,346 276,327 277,310 278,290 279,314 280,302 281,291 282,339 282,336 283,316 284,290 285,306 286,313 287,302 288,273 289,298 290,295 291,319 291,343 292,343 293,324 294,288 295,277 296,299 297,308 298,299 299,302 299,353 300,331 301,327 302,332 303,302 304,288 305,323 306,303 307,316 308,286 308,310 309,272 310,297 311,305 312,310 313,302 314,291 315,294 316,305 316,316 317,319 318,317 319,340 320,297 321,316 322,294 323,297 324,276 325,313 325,301 326,317 327,343 328,335 329,335 330,331 331,281 332,303 333,258 333,303 334,313 335,299 336,336 337,321 338,323 339,331 340,349 341,340 342,306 342,292 343,312 344,328 345,356 346,297 347,319 348,340 349,336 350,347 350,305 351,324 352,343 353,339 354,288 355,310 356,303 357,317 358,325 359,294 359,338 360,303 361,303 362,335 363,309 364,305 365,292 366,312 367,292 367,309 368,308 369,316 370,305 371,303 372,335 373,319 374,354 375,345 376,356 376,330 377,321 378,316 379,321 380,338 381,324 382,339 383,331 384,297 384,302 385,309 386,324 387,321 388,321 389,298 390,308 391,290 392,283 393,313 393,336 394,303 395,312 396,312 397,368 398,268 399,239 400,155 401,166 401,213 402,198 403,185 404,154 405,165 406,137 407,113 408,125 409,148 410,165 410,126 411,181 412,164 413,166 414,136 415,135 416,158 417,110 418,153 418,133 419,144 420,144 421,158 422,142 423,183 424,110 425,72 426,177 427,147 427,140 428,144 429,128 430,169 431,157 432,129 433,177 434,142 435,142 436,143 436,162 437,162 438,157 439,190 440,139 441,109 442,192 443,157 444,132 444,135 445,161 446,161 447,172 448,161 449,84 450,148 451,181 452,106 453,146 453,143 454,151 455,147 456,164 457,172 458,194 459,159 460,139 461,166 461,166 462,133 463,164 464,165 465,158 466,155 467,166 468,155 469,143 470,162 470,136 471,174 472,161 473,142 474,154 475,122 476,135 477,143 478,159 478,169 479,164 480,176 481,117 482,172 483,176 484,151 485,170 486,155 487,140 487,154 488,247 489,272 490,292 491,269 492,349 493,302 494,214 495,154 495,159 496,172 497,158 498,144 499,131 500,143 501,176 502,217 503,147 504,148 504,147 505,166 506,147 507,176 508,159 509,201 510,135 511,80 512,124 512,139 513,126 514,177 515,155 516,165 517,135 518,140 519,135 520,154 521,103 521,157 522,170 523,143 524,172 525,195 526,146 527,157 528,131 529,153 529,94 530,133 531,183 532,187 533,142 534,183 535,221 536,180 537,281 538,313 538,313 539,323 540,277 541,281 542,258 543,250 544,257 545,292 546,281 546,273 547,309 548,305 549,290 550,220 551,128 552,120 553,118 554,150 555,129 555,120 556,118 557,140 558,168 559,288 560,295 561,319 562,330 563,314 563,313 564,290 565,305 566,294 567,258 568,319 569,331 570,327 571,301 572,290 572,313 573,312 574,317 575,292 576,305 577,281 578,328 579,325 580,317 580,312 581,380 582,321 583,349 584,312 585,316 586,321 587,305 588,290 589,331 589,332 590,313 591,295 592,299 593,291 594,308 595,331 596,291 597,325 597,349 598,305 599,310 600,330 601,292 602,334 603,349 604,336 605,321 606,325 606,354 607,347 608,275 609,346 610,330 611,325 612,340 613,312 614,312 615,317 615,324 616,308 617,334 618,271 619,207 620,257 621,229 622,290 623,273 623,319 624,302 625,273 626,309 627,295 628,312 629,310 630,281 631,295 632,331 632,321 633,324 634,299 635,312 636,327 637,305 638,308 639,302 640,308 640,305 641,340 642,314 643,305 644,316 645,308 646,294 647,302 648,294 649,297 649,314 650,279 651,310 652,319 653,277 654,303 655,312 656,324 657,306 657,262 658,316 659,299 660,316 661,327 662,324 663,246 664,287 665,299 666,292 666,330 667,319 668,314 669,342 670,320 671,313 672,301 673,287 674,292 674,290 675,321 676,328 677,313 678,338 679,347 680,346 681,313 682,298 683,294 683,302 684,283 685,306 686,308 687,350 688,313 689,334 690,320 691,303 691,288 692,345 693,321 694,319 695,360 696,323 697,338 698,317 699,317 700,309 700,281 701,269 702,324 703,334 704,316 705,345 706,343 707,314 708,313 708,317 709,297 710,295 711,338 712,305 713,319 714,306 715,330 716,339 717,332 717,325 718,319 719,321 720,317 721,345 722,350 723,342 724,316 725,314 725,362 726,317 727,338 728,288 729,335 730,310 731,342 732,310 733,319 734,324 734,319 735,357 736,316 737,324 738,324 739,287 740,294 741,314 742,340 742,291 743,287 744,279 745,260 746,268 747,239 748,280 749,295 750,264 751,249 751,239 752,235 753,262 754,214 755,262 756,192 757,203 758,153 759,155 759,165 760,187 761,131 762,180 763,107 764,154 765,188 766,184 767,147 768,188 768,129 769,162 770,188 771,155 772,147 773,147 774,172 775,121 776,109 776,154 777,199 778,155 779,165 780,151 781,184 782,187 783,136 784,100 785,153 785,147 786,177 787,179 788,168 789,206 790,181 791,121 792,162 793,147 794,173 794,155 795,129 796,136 797,168 798,121 799,155 800,118 801,140 802,126 802,143 803,154 804,174 805,142 806,137 807,179 808,69 809,151 810,164 811,172 811,161 812,102 813,174 814,120 815,131 816,169 817,128 818,154 819,110 819,176 820,196 821,312 822,295 823,283 824,283 825,298 826,286 827,291 828,223 828,271 829,266 830,249 831,258 832,229 833,229 834,249 835,229 836,221 836,147 837,142 838,136 839,185 840,128 841,144 842,170 843,170 844,328 845,306 845,254 846,236 847,240 848,268 849,253 850,223 851,249 852,254 853,284 853,275 854,277 855,233 856,254 857,255 858,254 859,223 860,264 861,240 862,273 862,320 863,231 864,239 865,246 866,225 867,277 868,262 869,264 870,264 870,294 871,280 872,269 873,209 874,225 875,257 876,254 877,227 878,207 879,255 879,283 880,303 881,262 882,273 883,295 884,269 885,238 886,254 887,242 887,229 888,273 889,303 890,266 891,235 892,255 893,240 894,275 895,238 896,224 896,251 897,254 898,275 899,328 900,316 901,309 902,298 903,320 904,353 904,308 905,321 906,297 907,302 908,261 909,266 910,295 911,291 912,292 913,302 913,288 914,302 915,301 916,309 917,283 918,255 919,281 920,251 921,299 921,286 922,288 923,345 924,284 925,287 926,284 927,264 928,281 929,306 930,286 930,283 931,316 932,284 933,251 934,231 935,272 936,244 937,255 938,261 938,247 939,253 940,243 941,243 942,261 943,257 944,212 945,276 946,223 947,268 947,254 948,299 949,254 950,387 951,227 952,144 953,151 954,132 955,146 955,162 956,111 957,121 958,151 959,165 960,146 961,157 962,148 963,140 964,146 964,165 965,140 966,194 967,166 968,172 969,146 970,173 971,188 972,166 973,271 973,699 973,699 973,699 78,699 "/>
<polyline fill="none" opacity="1" stroke="#E6194B" stroke-width="1" points="78,661 78,137 79,126 80,133 81,148 82,166 83,173 84,191 85,155 86,168 86,151 87,120 88,147 89,107 90,170 91,165 92,190 93,148 94,306 95,323 95,314 96,284 97,303 98,287 99,323 100,332 101,302 102,303 103,323 103,294 104,286 105,332 106,343 107,281 108,301 109,288 110,284 111,313 112,324 112,347 113,308 114,346 115,328 116,316 117,316 118,334 119,317 120,283 120,332 121,317 122,330 123,295 124,305 125,276 126,291 127,303 128,314 129,250 129,334 130,331 131,345 132,349 133,309 134,336 135,340 136,320 137,330 137,328 138,336 139,323 140,331 141,319 142,297 143,306 144,305 145,309 146,284 146,302 147,299 148,317 149,310 150,323 151,308 152,314 153,291 154,301 154,323 155,314 156,280 157,317 158,314 159,316 160,330 161,321 162,276 163,323 163,319 164,302 165,325 166,295 167,327 168,283 169,305 170,290 171,286 171,294 172,279 173,302 174,316 175,297 176,303 177,291 178,340 179,290 180,310 180,283 181,327 182,312 183,317 184,298 185,291 186,323 187,299 188,330 188,321 189,295 190,313 191,309 192,297 193,301 194,287 195,283 196,308 197,324 197,338 198,309 199,306 200,312 201,317 202,308 203,292 204,308 205,297 205,306 206,319 207,340 208,323 209,321 210,319 211,306 212,280 213,316 214,305 214,354 215,303 216,273 217,314 218,258 219,295 220,313 221,299 222,323 222,338 223,268 224,319 225,284 226,298 227,271 228,327 229,306 230,324 231,332 231,323 232,331 233,346 234,328 235,346 236,343 237,299 238,312 239,309 239,309 240,297 241,308 242,281 243,299 244,309 245,302 246,330 247,268 248,306 248,321 249,299 250,306 251,331 252,312 253,298 254,324 255,317 256,332 257,336 257,319 258,313 259,298 260,297 261,308 262,319 263,299 264,294 265,314 265,283 266,294 267,284 268,266 269,290 270,317 271,316 272,295 273,339 274,346 274,332 275,346 276,327 277,310 278,290 279,314 280,302 281,291 282,339 282,336 283,316 284,290 285,306 286,313 287,302 288,273 289,298 290,295 291,319 291,343 292,343 293,324 294,288 295,277 296,299 297,308 298,299 299,302 299,353 300,331 301,327 302,332 303,302 304,288 305,323 306,303 307,316 308,286 308,310 309,272 310,297 311,305 312,310 313,302 314,291 315,294 316,305 316,316 317,319 318,317 319,340 320,297 321,316 322,294 323,297 324,276 325,313 325,301 326,317 327,343 328,335 329,335 330,331 331,281 332,303 333,258 333,303 334,313 335,299 336,336 337,321 338,323 339,331 340,349 341,340 342,306 342,292 343,312 344,328 345,356 346,297 347,319 348,340 349,336 350,347 350,305 351,324 352,343 353,339 354,288 355,310 356,303 357,317 358,325 359,294 359,338 360,303 361,303 362,335 363,309 364,305 365,292 366,312 367,292 367,309 368,308 369,316 370,305 371,303 372,335 373,319 374,354 375,345 376,356 376,330 377,321 378,316 379,321 380,338 381,324 382,339 383,331 384,297 384,302 385,309 386,324 387,321 388,321 389,298 390,308 391,290 392,283 393,313 393,336 394,303 395,312 396,312 397,368 398,268 399,239 400,155 401,166 401,213 402,198 403,185 404,154 405,165 406,137 407,113 408,125 409,148 410,165 410,126 411,181 412,164 413,166 414,136 415,135 416,158 417,110 418,153 418,133 419,144 420,144 421,158 422,142 423,183 424,110 425,72 426,177 427,147 427,140 428,144 429,128 430,169 431,157 432,129 433,177 434,142 435,142 436,143 436,162 437,162 438,157 439,190 440,139 441,109 442,192 443,157 444,132 444,135 445,161 446,161 447,172 448,161 449,84 450,148 451,181 452,106 453,146 453,143 454,151 455,147 456,164 457,172 458,194 459,159 460,139 461,166 461,166 462,133 463,164 464,165 465,158 466,155 467,166 468,155 469,143 470,162 470,136 471,174 472,161 473,142 474,154 475,122 476,135 477,143 478,159 478,169 479,164 480,176 481,117 482,172 483,176 484,151 485,170 486,155 487,140 487,154 488,247 489,272 490,292 491,269 492,349 493,302 494,214 495,154 495,159 496,172 497,158 498,144 499,131 500,143 501,176 502,217 503,147 504,148 504,147 505,166 506,147 507,176 508,159 509,201 510,135 511,80 512,124 512,139 513,126 514,177 515,155 516,165 517,135 518,140 519,135 520,154 521,103 521,157 522,170 523,143 524,172 525,195 526,146 527,157 528,131 529,153 529,94 530,133 531,183 532,187 533,142 534,183 535,221 536,180 537,281 538,313 538,313 539,323 540,277 541,281 542,258 543,250 544,257 545,292 546,281 546,273 547,309 548,305 549,290 550,220 551,128 552,120 553,118 554,150 555,129 555,120 556,118 557,140 558,168 559,288 560,295 561,319 562,330 563,314 563,313 564,290 565,305 566,294 567,258 568,319 569,331 570,327 571,301 572,290 572,313 573,312 574,317 575,292 576,305 577,281 578,328 579,325 580,317 580,312 581,380 582,321 583,349 584,312 585,316 586,321 587,305 588,290 589,331 589,332 590,313 591,295 592,299 593,291 594,308 595,331 596,291 597,325 597,349 598,305 599,310 600,330 601,292 602,334 603,349 604,336 605,321 606,325 606,354 607,347 608,275 609,346 610,330 611,325 612,340 613,312 614,312 615,317 615,324 616,308 617,334 618,271 619,207 620,257 621,229 622,290 623,273 623,319 624,302 625,273 626,309 627,295 628,312 629,310 630,281 631,295 632,331 632,321 633,324 634,299 635,312 636,327 637,305 638,308 639,302 640,308 640,305 641,340 642,314 643,305 644,316 645,308 646,294 647,302 648,294 649,297 649,314 650,279 651,310 652,319 653,277 654,303 655,312 656,324 657,306 657,262 658,316 659,299 660,316 661,327 662,324 663,246 664,287 665,299 666,292 666,330 667,319 668,314 669,342 670,320 671,313 672,301 673,287 674,292 674,290 675,321 676,328 677,313 678,338 679,347 680,346 681,313 682,298 683,294 683,302 684,283 685,306 686,308 687,350 688,313 689,334 690,320 691,303 691,288 692,345 693,321 694,319 695,360 696,323 697,338 698,317 699,317 700,309 700,281 701,269 702,324 703,334 704,316 705,345 706,343 707,314 708,313 708,317 709,297 710,295 711,338 712,305 713,319 714,306 715,330 716,339 717,332 717,325 718,319 719,321 720,317 721,345 722,350 723,342 724,316 725,314 725,362 726,317 727,338 728,288 729,335 730,310 731,342 732,310 733,319 734,324 734,319 735,357 736,316 737,324 738,324 739,287 740,294 741,314 742,340 742,291 743,287 744,279 745,260 746,268 747,239 748,280 749,295 750,264 751,249 751,239 752,235 753,262 754,214 755,262 756,192 757,203 758,153 759,155 759,165 760,187 761,131 762,180 763,107 764,154 765,188 766,184 767,147 768,188 768,129 769,162 770,188 771,155 772,147 773,147 774,172 775,121 776,109 776,154 777,199 778,155 779,165 780,151 781,184 782,187 783,136 784,100 785,153 785,147 786,177 787,179 788,168 789,206 790,181 791,121 792,162 793,147 794,173 794,155 795,129 796,136 797,168 798,121 799,155 800,118 801,140 802,126 802,143 803,154 804,174 805,142 806,137 807,179 808,69 809,151 810,164 811,172 811,161 812,102 813,174 814,120 815,131 816,169 817,128 818,154 819,110 819,176 820,196 821,312 822,295 823,283 824,283 825,298 826,286 827,291 828,223 828,271 829,266 830,249 831,258 832,229 833,229 834,249 835,229 836,221 836,147 837,142 838,136 839,185 840,128 841,144 842,170 843,170 844,328 845,306 845,254 846,236 847,240 848,268 849,253 850,223 851,249 852,254 853,284 853,275 854,277 855,233 856,254 857,255 858,254 859,223 860,264 861,240 862,273 862,320 863,231 864,239 865,246 866,225 867,277 868,262 869,264 870,264 870,294 871,280 872,269 873,209 874,225 875,257 876,254 877,227 878,207 879,255 879,283 880,303 881,262 882,273 883,295 884,269 885,238 886,254 887,242 887,229 888,273 889,303 890,266 891,235 892,255 893,240 894,275 895,238 896,224 896,251 897,254 898,275 899,328 900,316 901,309 902,298 903,320 904,353 904,308 905,321 906,297 907,302 908,261 909,266 910,295 911,291 912,292 913,302 913,288 914,302 915,301 916,309 917,283 918,255 919,281 920,251 921,299 921,286 922,288 923,345 924,284 925,287 926,284 927,264 928,281 929,306 930,286 930,283 931,316 932,284 933,251 934,231 935,272 936,244 937,255 938,261 938,247 939,253 940,243 941,243 942,261 943,257 944,212 945,276 946,223 947,268 947,254 948,299 949,254 950,387 951,227 952,144 953,151 954,132 955,146 955,162 956,111 957,121 958,151 959,165 960,146 961,157 962,148 963,140 964,146 964,165 965,140 966,194 967,166 968,172 969,146 970,173 971,188 972,166 973,271 973,699 973,699 "/>
<line opacity="0.1" stroke="#000000" stroke-width="1" x1="79" y1="699" x2="79" y2="68"/>
<line opacity="0.1" stroke="#000000" stroke-width="1" x1="87" y1="699" x2="87" y2="68"/>
<line opacity="0.1" stroke="#000000" stroke-width="1" x1="96" y1="699" x2="96" y2="68"/>
<line opacity="0.1" stroke="#000000" stroke-width="1" x1="105" y1="699" x2="105" y2="68"/>
<line opacity="0.1" stroke="#000000" stroke-width="1" x1="114" y1="699" x2="114" y2="68"/>
<line opacity="0.1" stroke="#000000" stroke-width="1" x1="123" y1="699" x2="123" y2="68"/>
<line opacity="0.1" stroke="#000000" stroke-width="1" x1="132" y1="699" x2="132" y2="68"/>
<line opacity="0.1" stroke="#000000" stroke-width="1" x1="141" y1="699" x2="141" y2="68"/>
<line opacity="0.1" stroke="#000000" stroke-width="1" x1="150" y1="699" x2="150" y2="68"/>
<line opacity="0.1" stroke="#000000" stroke-width="1" x1="159" y1="699" x2="159" y2="68"/>
<line opacity="0.1" stroke="#000000" stroke-width="1" x1="168" y1="699" x2="168" y2="68"/>
<line opacity="0.1" stroke="#000000" stroke-width="1" x1="177" y1="699" x2="177" y2="68"/>
<line opacity="0.1" stroke="#000000" stroke-width="1" x1="186" y1="699" x2="186" y2="68"/>
<line opacity="0.1" stroke="#000000" stroke-width="1" x1="195" y1="699" x2="195" y2="68"/>
<line opacity="0.1" stroke="#000000" stroke-width="1" x1="204" y1="699" x2="204" y2="68"/>
<line opacity="0.1" stroke="#000000" stroke-width="1" x1="213" y1="699" x2="213" y2="68"/>
<line opacity="0.1" stroke="#000000" stroke-width="1" x1="222" y1="699" x2="222" y2="68"/>
<line opacity="0.1" stroke="#000000" stroke-width="1" x1="231" y1="699" x2="231" y2="68"/>
<line opacity="0.1" stroke="#000000" stroke-width="1" x1="240" y1="699" x2="240" y2="68"/>
<line opacity="0.1" stroke="#000000" stroke-width="1" x1="249" y1="699" x2="249" y2="68"/>
<line opacity="0.1" stroke="#000000" stroke-width="1" x1="257" y1="699" x2="257" y2="68"/>
<line opacity="0.1" stroke="#000000" stroke-width="1" x1="266" y1="699" x2="266" y2="68"/>
<line opacity="0.1" stroke="#000000" stroke-width="1" x1="275" y1="699" x2="275" y2="68"/>
<line opacity="0.1" stroke="#000000" stroke-width="1" x1="284" y1="699" x2="284" y2="68"/>
<line opacity="0.1" stroke="#000000" stroke-width="1" x1="293" y1="699" x2="293" y2="68"/>
<line opacity="0.1" stroke="#000000" stroke-width="1" x1="302" y1="699" x2="302" y2="68"/>
<line opacity="0.1" stroke="#000000" stroke-width="1" x1="311" y1="699" x2="311" y2="68"/>
<line opacity="0.1" stroke="#000000" stroke-width="1" x1="320" y1="699" x2="320" y2="68"/>
<line opacity="0.1" stroke="#000000" stroke-width="1" x1="329" y1="699" x2="329" y2="68"/>
<line opacity="0.1" stroke="#000000" stroke-width="1" x1="338" y1="699" x2="338" y2="68"/>
<line opacity="0.1" stroke="#000000" stroke-width="1" x1="347" y1="699" x2="347" y2="68"/>
<line opacity="0.1" stroke="#000000" stroke-width="1" x1="356" y1="699" x2="356" y2="68"/>
<line opacity="0.1" stroke="#000000" stroke-width="1" x1="365" y1="699" x2="365" y2="68"/>
<line opacity="0.1" stroke="#000000" stroke-width="1" x1="374" y1="699" x2="374" y2="68"/>
<line opacity="0.1" stroke="#000000" stroke-width="1" x1="383" y1="699" x2="383" y2="68"/>
<line opacity="0.1" stroke="#000000" stroke-width="1" x1="392" y1="699" x2="392" y2="68"/>
<line opacity="0.1" stroke="#000000" stroke-width="1" x1="401" y1="699" x2="401" y2="68"/>
<line opacity="0.1" stroke="#000000" stroke-width="1" x1="410" y1="699" x2="410" y2="68"/>
<line opacity="0.1" stroke="#000000" stroke-width="1" x1="419" y1="699" x2="419" y2="68"/>
<line opacity="0.1" stroke="#000000" stroke-width="1" x1="427" y1="699" x2="427" y2="68"/>
<line opacity="0.1" stroke="#000000" stroke-width="1" x1="436" y1="699" x2="436" y2="68"/>
<line opacity="0.1" stroke="#000000" stroke-width="1" x1="445" y1="699" x2="445" y2="68"/>
<line opacity="0.1" stroke="#000000" stroke-width="1" x1="454" y1="699" x2="454" y2="68"/>
<line opacity="0.1" stroke="#000000" stroke-width="1" x1="463" y1="699" x2="463" y2="68"/>
<line opacity="0.1" stroke="#000000" stroke-width="1" x1="472" y1="699" x2="472" y2="68"/>
<line opacity="0.1" stroke="#000000" stroke-width="1" x1="481" y1="699" x2="481" y2="68"/>
<line opacity="0.1" stroke="#000000" stroke-width="1" x1="490" y1="699" x2="490" y2="68"/>
<line opacity="0.1" stroke="#000000" stroke-width="1" x1="499" y1="699" x2="499" y2="68"/>
<line opacity="0.1" stroke="#000000" stroke-width="1" x1="508" y1="699" x2="508" y2="68"/>
<line opacity="0.1" stroke="#000000" stroke-width="1" x1="517" y1="699" x2="517" y2="68"/>
<line opacity="0.1" stroke="#000000" stroke-width="1" x1="526" y1="699" x2="526" y2="68"/>
<line opacity="0.1" stroke="#000000" stroke-width="1" x1="535" y1="699" x2="535" y2="68"/>
<line opacity="0.1" stroke="#000000" stroke-width="1" x1="544" y1="699" x2="544" y2="68"/>
<line opacity="0.1" stroke="#000000" stroke-width="1" x1="553" y1="699" x2="553" y2="68"/>
<line opacity="0.1" stroke="#000000" stroke-width="1" x1="562" y1="699" x2="562" y2="68"/>
<line opacity="0.1" stroke="#000000" stroke-width="1" x1="571" y1="699" x2="571" y2="68"/>
<line opacity="0.1" stroke="#000000" stroke-width="1" x1="580" y1="699" x2="580" y2="68"/>
<line opacity="0.1" stroke="#000000" stroke-width="1" x1="589" y1="699" x2="589" y2="68"/>
<line opacity="0.1" stroke="#000000" stroke-width="1" x1="598" y1="699" x2="598" y2="68"/>
<line opacity="0.1" stroke="#000000" stroke-width="1" x1="606" y1="699" x2="606" y2="68"/>
<line opacity="0.1" stroke="#000000" stroke-width="1" x1="615" y1="699" x2="615" y2="68"/>
<line opacity="0.1" stroke="#000000" stroke-width="1" x1="624" y1="699" x2="624" y2="68"/>
<line opacity="0.1" stroke="#000000" stroke-width="1" x1="633" y1="699" x2="633" y2="68"/>
<line opacity="0.1" stroke="#000000" stroke-width="1" x1="642" y1="699" x2="642" y2="68"/>
<line opacity="0.1" stroke="#000000" stroke-width="1" x1="651" y1="699" x2="651" y2="68"/>
<line opacity="0.1" stroke="#000000" stroke-width="1" x1="660" y1="699" x2="660" y2="68"/>
<line opacity="0.1" stroke="#000000" stroke-width="1" x1="669" y1="699" x2="669" y2="68"/>
<line opacity="0.1" stroke="#000000" stroke-width="1" x1="678" y1="699" x2="678" y2="68"/>
<line opacity="0.1" stroke="#000000" stroke-width="1" x1="687" y1="699" x2="687" y2="68"/>
<line opacity="0.1" stroke="#000000" stroke-width="1" x1="696" y1="699" x2="696" y2="68"/>
<line opacity="0.1" stroke="#000000" stroke-width="1" x1="705" y1="699" x2="705" y2="68"/>
<line opacity="0.1" stroke="#000000" stroke-width="1" x1="714" y1="699" x2="714" y2="68"/>
<line opacity="0.1" stroke="#000000" stroke-width="1" x1="723" y1="699" x2="723" y2="68"/>
<line opacity="0.1" stroke="#000000" stroke-width="1" x1="732" y1="699" x2="732" y2="68"/>
<line opacity="0.1" stroke="#000000" stroke-width="1" x1="741" y1="699" x2="741" y2="68"/>
<line opacity="0.1" stroke="#000000" stroke-width="1" x1="750" y1="699" x2="750" y2="68"/>
<line opacity="0.1" stroke="#000000" stroke-width="1" x1="759" y1="699" x2="759" y2="68"/>
<line opacity="0.1" stroke="#000000" stroke-width="1" x1="768" y1="699" x2="768" y2="68"/>
<line opacity="0.1" stroke="#000000" stroke-width="1" x1="776" y1="699" x2="776" y2="68"/>
<line opacity="0.1" stroke="#000000" stroke-width="1" x1="785" y1="699" x2="785" y2="68"/>
<line opacity="0.1" stroke="#000000" stroke-width="1" x1="794" y1="699" x2="794" y2="68"/>
<line opacity="0.1" stroke="#000000" stroke-width="1" x1="803" y1="699" x2="803" y2="68"/>
<line opacity="0.1" stroke="#000000" stroke-width="1" x1="812" y1="699" x2="812" y2="68"/>
<line opacity="0.1" stroke="#000000" stroke-width="1" x1="821" y1="699" x2="821" y2="68"/>
<line opacity="0.1" stroke="#000000" stroke-width="1" x1="830" y1="699" x2="830" y2="68"/>
<line opacity="0.1" stroke="#000000" stroke-width="1" x1="839" y1="699" x2="839" y2="68"/>
<line opacity="0.1" stroke="#000000" stroke-width="1" x1="848" y1="699" x2="848" y2="68"/>
<line opacity="0.1" stroke="#000000" stroke-width="1" x1="857" y1="699" x2="857" y2="68"/>
<line opacity="0.1" stroke="#000000" stroke-width="1" x1="866" y1="699" x2="866" y2="68"/>
<line opacity="0.1" stroke="#000000" stroke-width="1" x1="875" y1="699" x2="875" y2="68"/>
<line opacity="0.1" stroke="#000000" stroke-width="1" x1="884" y1="699" x2="884" y2="68"/>
<line opacity="0.1" stroke="#000000" stroke-width="1" x1="893" y1="699" x2="893" y2="68"/>
<line opacity="0.1" stroke="#000000" stroke-width="1" x1="902" y1="699" x2="902" y2="68"/>
<line opacity="0.1" stroke="#000000" stroke-width="1" x1="911" y1="699" x2="911" y2="68"/>
<line opacity="0.1" stroke="#000000" stroke-width="1" x1="920" y1="699" x2="920" y2="68"/>
<line opacity="0.1" stroke="#000000" stroke-width="1" x1="929" y1="699" x2="929" y2="68"/>
<line opacity="0.1" stroke="#000000" stroke-width="1" x1="938" y1="699" x2="938" y2="68"/>
<line opacity="0.1" stroke="#000000" stroke-width="1" x1="946" y1="699" x2="946" y2="68"/>
<line opacity="0.1" stroke="#000000" stroke-width="1" x1="955" y1="699" x2="955" y2="68"/>
<line opacity="0.1" stroke="#000000" stroke-width="1" x1="964" y1="699" x2="964" y2="68"/>
<line opacity="0.1" stroke="#000000" stroke-width="1" x1="78" y1="699" x2="973" y2="699"/>
<line opacity="0.1" stroke="#000000" stroke-width="1" x1="78" y1="692" x2="973" y2="692"/>
<line opacity="0.1" stroke="#000000" stroke-width="1" x1="78" y1="685" x2="973" y2="685"/>
<line opacity="0.1" stroke="#000000" stroke-width="1" x1="78" y1="678" x2="973" y2="678"/>
<line opacity="0.1" stroke="#000000" stroke-width="1" x1="78" y1="671" x2="973" y2="671"/>
<line opacity="0.1" stroke="#000000" stroke-width="1" x1="78" y1="664" x2="973" y2="664"/>
<line opacity="0.1" stroke="#000000" stroke-width="1" x1="78" y1="657" x2="973" y2="657"/>
<line opacity="0.1" stroke="#000000" stroke-width="1" x1="78" y1="650" x2="973" y2="650"/>
<line opacity="0.1" stroke="#000000" stroke-width="1" x1="78" y1="644" x2="973" y2="644"/>
<line opacity="0.1" stroke="#000000" stroke-width="1" x1="78" y1="637" x2="973" y2="637"/>
<line opacity="0.1" stroke="#000000" stroke-width="1" x1="78" y1="630" x2="973" y2="630"/>
<line opacity="0.1" stroke="#000000" stroke-width="1" x1="78" y1="623" x2="973" y2="623"/>
<line opacity="0.1" stroke="#000000" stroke-width="1" x1="78" y1="616" x2="973" y2="616"/>
<line opacity="0.1" stroke="#000000" stroke-width="1" x1="78" y1="609" x2="973" y2="609"/>
<line opacity="0.1" stroke="#000000" stroke-width="1" x1="78" y1="602" x2="973" y2="602"/>
<line opacity="0.1" stroke="#000000" stroke-width="1" x1="78" y1="596" x2="973" y2="596"/>
<line opacity="0.1" stroke="#000000" stroke-width="1" x1="78" y1="589" x2="973" y2="589"/>
<line opacity="0.1" stroke="#000000" stroke-width="1" x1="78" y1="582" x2="973" y2="582"/>
<line opacity="0.1" stroke="#000000" stroke-width="1" x1="78" y1="575" x2="973" y2="575"/>
<line opacity="0.1" stroke="#000000" stroke-width="1" x1="78" y1="568" x2="973" y2="568"/>
<line opacity="0.1" stroke="#000000" stroke-width="1" x1="78" y1="561" x2="973" y2="561"/>
<line opacity="0.1" stroke="#000000" stroke-width="1" x1="78" y1="554" x2="973" y2="554"/>
<line opacity="0.1" stroke="#000000" stroke-width="1" x1="78" y1="548" x2="973" y2="548"/>
<line opacity="0.1" stroke="#000000" stroke-width="1" x1="78" y1="541" x2="973" y2="541"/>
<line opacity="0.1" stroke="#000000" stroke-width="1" x1="78" y1="534" x2="973" y2="534"/>
<line opacity="0.1" stroke="#000000" stroke-width="1" x1="78" y1="527" x2="973" y2="527"/>
<line opacity="0.1" stroke="#000000" stroke-width="1" x1="78" y1="520" x2="973" y2="520"/>
<line opacity="0.1" stroke="#000000" stroke-width="1" x1="78" y1="513" x2="973" y2="513"/>
<line opacity="0.1" stroke="#000000" stroke-width="1" x1="78" y1="506" x2="973" y2="506"/>
<line opacity="0.1" stroke="#000000" stroke-width="1" x1="78" y1="500" x2="973" y2="500"/>
<line opacity="0.1" stroke="#000000" stroke-width="1" x1="78" y1="493" x2="973" y2="493"/>
<line opacity="0.1" stroke="#000000" stroke-width="1" x1="78" y1="486" x2="973" y2="486"/>
<line opacity="0.1" stroke="#000000" stroke-width="1" x1="78" y1="479" x2="973" y2="479"/>
<line opacity="0.1" stroke="#000000" stroke-width="1" x1="78" y1="472" x2="973" y2="472"/>
<line opacity="0.1" stroke="#000000" stroke-width="1" x1="78" y1="465" x2="973" y2="465"/>
<line opacity="0.1" stroke="#000000" stroke-width="1" x1="78" y1="458" x2="973" y2="458"/>
<line opacity="0.1" stroke="#000000" stroke-width="1" x1="78" y1="452" x2="973" y2="452"/>
<line opacity="0.1" stroke="#000000" stroke-width="1" x1="78" y1="445" x2="973" y2="445"/>
<line opacity="0.1" stroke="#000000" stroke-width="1" x1="78" y1="438" x2="973" y2="438"/>
<line opacity="0.1" stroke="#000000" stroke-width="1" x1="78" y1="431" x2="973" y2="431"/>
<line opacity="0.1" stroke="#000000" stroke-width="1" x1="78" y1="424" x2="973" y2="424"/>
<line opacity="0.1" stroke="#000000" stroke-width="1" x1="78" y1="417" x2="973" y2="417"/>
<line opacity="0.1" stroke="#000000" stroke-width="1" x1="78" y1="410" x2="973" y2="410"/>
<line opacity="0.1" stroke="#000000" stroke-width="1" x1="78" y1="404" x2="973" y2="404"/>
<line opacity="0.1" stroke="#000000" stroke-width="1" x1="78" y1="397" x2="973" y2="397"/>
<line opacity="0.1" stroke="#000000" stroke-width="1" x1="78" y1="390" x2="973" y2="390"/>
<line opacity="0.1" stroke="#000000" stroke-width="1" x1="78" y1="383" x2="973" y2="383"/>
<line opacity="0.1" stroke="#000000" stroke-width="1" x1="78" y1="376" x2="973" y2="376"/>
<line opacity="0.1" stroke="#000000" stroke-width="1" x1="78" y1="369" x2="973" y2="369"/>
<line opacity="0.1" stroke="#000000" stroke-width="1" x1="78" y1="362" x2="973" y2="362"/>
<line opacity="0.1" stroke="#000000" stroke-width="1" x1="78" y1="356" x2="973" y2="356"/>
<line opacity="0.1" stroke="#000000" stroke-width="1" x1="78" y1="349" x2="973" y2="349"/>
<line opacity="0.1" stroke="#000000" stroke-width="1" x1="78" y1="342" x2="973" y2="342"/>
<line opacity="0.1" stroke="#000000" stroke-width="1" x1="78" y1="335" x2="973" y2="335"/>
<line opacity="0.1" stroke="#000000" stroke-width="1" x1="78" y1="328" x2="973" y2="328"/>
<line opacity="0.1" stroke="#000000" stroke-width="1" x1="78" y1="321" x2="973" y2="321"/>
<line opacity="0.1" stroke="#000000" stroke-width="1" x1="78" y1="314" x2="973" y2="314"/>
<line opacity="0.1" stroke="#000000" stroke-width="1" x1="78" y1="308" x2="973" y2="308"/>
<line opacity="0.1" stroke="#000000" stroke-width="1" x1="78" y1="301" x2="973" y2="301"/>
<line opacity="0.1" stroke="#000000" stroke-width="1" x1="78" y1="294" x2="973" y2="294"/>
<line opacity="0.1" stroke="#000000" stroke-width="1" x1="78" y1="287" x2="973" y2="287"/>
<line opacity="0.1" stroke="#000000" stroke-width="1" x1="78" y1="280" x2="973" y2="280"/>
<line opacity="0.1" stroke="#000000" stroke-width="1" x1="78" y1="273" x2="973" y2="273"/>
<line opacity="0.1" stroke="#000000" stroke-width="1" x1="78" y1="266" x2="973" y2="266"/>
<line opacity="0.1" stroke="#000000" stroke-width="1" x1="78" y1="260" x2="973" y2="260"/>
<line opacity="0.1" stroke="#000000" stroke-width="1" x1="78" y1="253" x2="973" y2="253"/>
<line opacity="0.1" stroke="#000000" stroke-width="1" x1="78" y1="246" x2="973" y2="246"/>
<line opacity="0.1" stroke="#000000" stroke-width="1" x1="78" y1="239" x2="973" y2="239"/>
<line opacity="0.1" stroke="#000000" stroke-width="1" x1="78" y1="232" x2="973" y2="232"/>
<line opacity="0.1" stroke="#000000" stroke-width="1" x1="78" y1="225" x2="973" y2="225"/>
<line opacity="0.1" stroke="#000000" stroke-width="1" x1="78" y1="218" x2="973" y2="218"/>
<line opacity="0.1" stroke="#000000" stroke-width="1" x1="78" y1="212" x2="973" y2="212"/>
<line opacity="0.1" stroke="#000000" stroke-width="1" x1="78" y1="205" x2="973" y2="205"/>
<line opacity="0.1" stroke="#000000" stroke-width="1" x1="78" y1="198" x2="973" y2="198"/>
<line opacity="0.1" stroke="#000000" stroke-width="1" x1="78" y1="191" x2="973" y2="191"/>
<line opacity="0.1" stroke="#000000" stroke-width="1" x1="78" y1="184" x2="973" y2="184"/>
<line opacity="0.1" stroke="#000000" stroke-width="1" x1="78" y1="177" x2="973" y2="177"/>
<line opacity="0.1" stroke="#000000" stroke-width="1" x1="78" y1="170" x2="973" y2="170"/>
<line opacity="0.1" stroke="#000000" stroke-width="1" x1="78" y1="164" x2="973" y2="164"/>
<line opacity="0.1" stroke="#000000" stroke-width="1" x1="78" y1="157" x2="973" y2="157"/>
<line opacity="0.1" stroke="#000000" stroke-width="1" x1="78" y1="150" x2="973" y2="150"/>
<line opacity="0.1" stroke="#000000" stroke-width="1" x1="78" y1="143" x2="973" y2="143"/>
<line opacity="0.1" stroke="#000000" stroke-width="1" x1="78" y1="136" x2="973" y2="136"/>
<line opacity="0.1" stroke="#000000" stroke-width="1" x1="78" y1="129" x2="973" y2="129"/>
<line opacity="0.1" stroke="#000000" stroke-width="1" x1="78" y1="122" x2="973" y2="122"/>
<line opacity="0.1" stroke="#000000" stroke-width="1" x1="78" y1="116" x2="973" y2="116"/>
<line opacity="0.1" stroke="#000000" stroke-width="1" x1="78" y1="109" x2="973" y2="109"/>
<line opacity="0.1" stroke="#000000" stroke-width="1" x1="78" y1="102" x2="973" y2="102"/>
<line opacity="0.1" stroke="#000000" stroke-width="1" x1="78" y1="95" x2="973" y2="95"/>
<line opacity="0.1" stroke="#000000" stroke-width="1" x1="78" y1="88" x2="973" y2="88"/>
<line opacity="0.1" stroke="#000000" stroke-width="1" x1="78" y1="81" x2="973" y2="81"/>
<line opacity="0.1" stroke="#000000" stroke-width="1" x1="78" y1="74" x2="973" y2="74"/>
<line opacity="0.1" stroke="#000000" stroke-width="1" x1="78" y1="68" x2="973" y2="68"/>
<text x="8" y="384" dy="0.76em" text-anchor="middle" font-family="sans-serif" font-size="9.67741935483871" opacity="1" fill="#000000" transform="rotate(270, 8, 384)">
New allocations
</text>
<text x="526" y="760" dy="-0.5ex" text-anchor="middle" font-family="sans-serif" font-size="9.67741935483871" opacity="1" fill="#000000">
Time
</text>
<line opacity="0.2" stroke="#000000" stroke-width="1" x1="96" y1="699" x2="96" y2="68"/>
<line opacity="0.2" stroke="#000000" stroke-width="1" x1="186" y1="699" x2="186" y2="68"/>
<line opacity="0.2" stroke="#000000" stroke-width="1" x1="275" y1="699" x2="275" y2="68"/>
<line opacity="0.2" stroke="#000000" stroke-width="1" x1="365" y1="699" x2="365" y2="68"/>
<line opacity="0.2" stroke="#000000" stroke-width="1" x1="454" y1="699" x2="454" y2="68"/>
<line opacity="0.2" stroke="#000000" stroke-width="1" x1="544" y1="699" x2="544" y2="68"/>
<line opacity="0.2" stroke="#000000" stroke-width="1" x1="633" y1="699" x2="633" y2="68"/>
<line opacity="0.2" stroke="#000000" stroke-width="1" x1="723" y1="699" x2="723" y2="68"/>
<line opacity="0.2" stroke="#000000" stroke-width="1" x1="812" y1="699" x2="812" y2="68"/>
<line opacity="0.2" stroke="#000000" stroke-width="1" x1="902" y1="699" x2="902" y2="68"/>
<line opacity="0.2" stroke="#000000" stroke-width="1" x1="78" y1="699" x2="973" y2="699"/>
<line opacity="0.2" stroke="#000000" stroke-width="1" x1="78" y1="630" x2="973" y2="630"/>
<line opacity="0.2" stroke="#000000" stroke-width="1" x1="78" y1="561" x2="973" y2="561"/>
<line opacity="0.2" stroke="#000000" stroke-width="1" x1="78" y1="493" x2="973" y2="493"/>
<line opacity="0.2" stroke="#000000" stroke-width="1" x1="78" y1="424" x2="973" y2="424"/>
<line opacity="0.2" stroke="#000000" stroke-width="1" x1="78" y1="356" x2="973" y2="356"/>
<line opacity="0.2" stroke="#000000" stroke-width="1" x1="78" y1="287" x2="973" y2="287"/>
<line opacity="0.2" stroke="#000000" stroke-width="1" x1="78" y1="218" x2="973" y2="218"/>
<line opacity="0.2" stroke="#000000" stroke-width="1" x1="78" y1="150" x2="973" y2="150"/>
<line opacity="0.2" stroke="#000000" stroke-width="1" x1="78" y1="81" x2="973" y2="81"/>
<polyline fill="none" opacity="1" stroke="#000000" stroke-width="1" points="77,68 77,699 "/>
<text x="68" y="699" dy="0.5ex" text-anchor="end" font-family="sans-serif" font-size="9.67741935483871" opacity="1" fill="#000000">
0
</text>
<polyline fill="none" opacity="1" stroke="#000000" stroke-width="1" points="72,699 77,699 "/>
<text x="68" y="630" dy="0.5ex" text-anchor="end" font-family="sans-serif" font-size="9.67741935483871" opacity="1" fill="#000000">
50
</text>
<polyline fill="none" opacity="1" stroke="#000000" stroke-width="1" points="72,630 77,630 "/>
<text x="68" y="561" dy="0.5ex" text-anchor="end" font-family="sans-serif" font-size="9.67741935483871" opacity="1" fill="#000000">
100
</text>
<polyline fill="none" opacity="1" stroke="#000000" stroke-width="1" points="72,561 77,561 "/>
<text x="68" y="493" dy="0.5ex" text-anchor="end" font-family="sans-serif" font-size="9.67741935483871" opacity="1" fill="#000000">
150
</text>
<polyline fill="none" opacity="1" stroke="#000000" stroke-width="1" points="72,493 77,493 "/>
<text x="68" y="424" dy="0.5ex" text-anchor="end" font-family="sans-serif" font-size="9.67741935483871" opacity="1" fill="#000000">
200
</text>
<polyline fill="none" opacity="1" stroke="#000000" stroke-width="1" points="72,424 77,424 "/>
<text x="68" y="356" dy="0.5ex" text-anchor="end" font-family="sans-serif" font-size="9.67741935483871" opacity="1" fill="#000000">
250
</text>
<polyline fill="none" opacity="1" stroke="#000000" stroke-width="1" points="72,356 77,356 "/>
<text x="68" y="287" dy="0.5ex" text-anchor="end" font-family="sans-serif" font-size="9.67741935483871" opacity="1" fill="#000000">
300
</text>
<polyline fill="none" opacity="1" stroke="#000000" stroke-width="1" points="72,287 77,287 "/>
<text x="68" y="218" dy="0.5ex" text-anchor="end" font-family="sans-serif" font-size="9.67741935483871" opacity="1" fill="#000000">
350
</text>
<polyline fill="none" opacity="1" stroke="#000000" stroke-width="1" points="72,218 77,218 "/>
<text x="68" y="150" dy="0.5ex" text-anchor="end" font-family="sans-serif" font-size="9.67741935483871" opacity="1" fill="#000000">
400
</text>
<polyline fill="none" opacity="1" stroke="#000000" stroke-width="1" points="72,150 77,150 "/>
<text x="68" y="81" dy="0.5ex" text-anchor="end" font-family="sans-serif" font-size="9.67741935483871" opacity="1" fill="#000000">
450
</text>
<polyline fill="none" opacity="1" stroke="#000000" stroke-width="1" points="72,81 77,81 "/>
<polyline fill="none" opacity="1" stroke="#000000" stroke-width="1" points="78,700 973,700 "/>
<text x="96" y="710" dy="0.76em" text-anchor="middle" font-family="sans-serif" font-size="9.67741935483871" opacity="1" fill="#000000">
02:04:17
</text>
<polyline fill="none" opacity="1" stroke="#000000" stroke-width="1" points="96,700 96,705 "/>
<text x="186" y="710" dy="0.76em" text-anchor="middle" font-family="sans-serif" font-size="9.67741935483871" opacity="1" fill="#000000">
02:04:18
</text>
<polyline fill="none" opacity="1" stroke="#000000" stroke-width="1" points="186,700 186,705 "/>
<text x="275" y="710" dy="0.76em" text-anchor="middle" font-family="sans-serif" font-size="9.67741935483871" opacity="1" fill="#000000">
02:04:19
</text>
<polyline fill="none" opacity="1" stroke="#000000" stroke-width="1" points="275,700 275,705 "/>
<text x="365" y="710" dy="0.76em" text-anchor="middle" font-family="sans-serif" font-size="9.67741935483871" opacity="1" fill="#000000">
02:04:20
</text>
<polyline fill="none" opacity="1" stroke="#000000" stroke-width="1" points="365,700 365,705 "/>
<text x="454" y="710" dy="0.76em" text-anchor="middle" font-family="sans-serif" font-size="9.67741935483871" opacity="1" fill="#000000">
02:04:21
</text>
<polyline fill="none" opacity="1" stroke="#000000" stroke-width="1" points="454,700 454,705 "/>
<text x="544" y="710" dy="0.76em" text-anchor="middle" font-family="sans-serif" font-size="9.67741935483871" opacity="1" fill="#000000">
02:04:22
</text>
<polyline fill="none" opacity="1" stroke="#000000" stroke-width="1" points="544,700 544,705 "/>
<text x="633" y="710" dy="0.76em" text-anchor="middle" font-family="sans-serif" font-size="9.67741935483871" opacity="1" fill="#000000">
02:04:23
</text>
<polyline fill="none" opacity="1" stroke="#000000" stroke-width="1" points="633,700 633,705 "/>
<text x="723" y="710" dy="0.76em" text-anchor="middle" font-family="sans-serif" font-size="9.67741935483871" opacity="1" fill="#000000">
02:04:24
</text>
<polyline fill="none" opacity="1" stroke="#000000" stroke-width="1" points="723,700 723,705 "/>
<text x="812" y="710" dy="0.76em" text-anchor="middle" font-family="sans-serif" font-size="9.67741935483871" opacity="1" fill="#000000">
02:04:25
</text>
<polyline fill="none" opacity="1" stroke="#000000" stroke-width="1" points="812,700 812,705 "/>
<text x="902" y="710" dy="0.76em" text-anchor="middle" font-family="sans-serif" font-size="9.67741935483871" opacity="1" fill="#000000">
02:04:26
</text>
<polyline fill="none" opacity="1" stroke="#000000" stroke-width="1" points="902,700 902,705 "/>
<polyline fill="none" opacity="1" stroke="#000000" stroke-width="1" points="78,67 974,67 "/>
<text x="96" y="58" dy="-0.5ex" text-anchor="middle" font-family="sans-serif" font-size="9.67741935483871" opacity="1" fill="#000000">
+265ms
</text>
<polyline fill="none" opacity="1" stroke="#000000" stroke-width="1" points="96,62 96,67 "/>
<text x="186" y="58" dy="-0.5ex" text-anchor="middle" font-family="sans-serif" font-size="9.67741935483871" opacity="1" fill="#000000">
+1s
</text>
<polyline fill="none" opacity="1" stroke="#000000" stroke-width="1" points="186,62 186,67 "/>
<text x="276" y="58" dy="-0.5ex" text-anchor="middle" font-family="sans-serif" font-size="9.67741935483871" opacity="1" fill="#000000">
+2s
</text>
<polyline fill="none" opacity="1" stroke="#000000" stroke-width="1" points="276,62 276,67 "/>
<text x="365" y="58" dy="-0.5ex" text-anchor="middle" font-family="sans-serif" font-size="9.67741935483871" opacity="1" fill="#000000">
+3s
</text>
<polyline fill="none" opacity="1" stroke="#000000" stroke-width="1" points="365,62 365,67 "/>
<text x="455" y="58" dy="-0.5ex" text-anchor="middle" font-family="sans-serif" font-size="9.67741935483871" opacity="1" fill="#000000">
+4s
</text>
<polyline fill="none" opacity="1" stroke="#000000" stroke-width="1" points="455,62 455,67 "/>
<text x="544" y="58" dy="-0.5ex" text-anchor="middle" font-family="sans-serif" font-size="9.67741935483871" opacity="1" fill="#000000">
+5s
</text>
<polyline fill="none" opacity="1" stroke="#000000" stroke-width="1" points="544,62 544,67 "/>
<text x="634" y="58" dy="-0.5ex" text-anchor="middle" font-family="sans-serif" font-size="9.67741935483871" opacity="1" fill="#000000">
+6s
</text>
<polyline fill="none" opacity="1" stroke="#000000" stroke-width="1" points="634,62 634,67 "/>
<text x="724" y="58" dy="-0.5ex" text-anchor="middle" font-family="sans-serif" font-size="9.67741935483871" opacity="1" fill="#000000">
+7s
</text>
<polyline fill="none" opacity="1" stroke="#000000" stroke-width="1" points="724,62 724,67 "/>
<text x="813" y="58" dy="-0.5ex" text-anchor="middle" font-family="sans-serif" font-size="9.67741935483871" opacity="1" fill="#000000">
+8s
</text>
<polyline fill="none" opacity="1" stroke="#000000" stroke-width="1" points="813,62 813,67 "/>
<text x="903" y="58" dy="-0.5ex" text-anchor="middle" font-family="sans-serif" font-size="9.67741935483871" opacity="1" fill="#000000">
+9s
</text>
<polyline fill="none" opacity="1" stroke="#000000" stroke-width="1" points="903,62 903,67 "/>
</svg>
