<svg width="1024" height="768" viewBox="0 0 1024 768" xmlns="http://www.w3.org/2000/svg">
<rect x="0" y="0" width="1024" height="768" opacity="1" fill="#FFFFFF" stroke="none"/>
<polygon opacity="1" fill="#E6194B" points="301,642 301,548 302,469 302,426 303,392 303,347 304,331 304,297 305,274 305,267 305,228 306,200 306,203 307,204 307,208 308,221 308,205 309,216 309,239 310,244 310,232 310,237 311,238 311,264 312,256 312,259 313,256 313,268 314,276 314,278 314,279 315,267 315,266 316,255 316,262 317,246 317,230 318,234 318,247 318,246 319,232 319,252 320,255 320,241 321,252 321,248 322,245 322,245 323,228 323,205 323,192 324,187 324,169 325,170 325,174 326,165 326,158 327,151 327,142 327,155 328,164 328,179 329,158 329,161 330,143 330,123 331,108 331,103 331,96 332,73 332,75 333,112 333,116 334,122 334,142 335,152 335,141 335,135 336,144 336,144 337,155 337,142 338,126 338,145 339,133 339,121 340,104 340,97 340,114 341,121 341,139 342,136 342,143 343,158 343,157 344,136 344,127 344,122 345,120 345,161 346,147 346,154 347,157 347,157 348,168 348,175 348,176 349,172 349,188 350,196 350,202 351,208 351,205 352,225 352,230 352,237 353,244 353,250 354,238 354,252 355,226 355,221 356,224 356,236 357,235 357,239 357,253 358,243 358,268 359,262 359,271 360,259 360,273 361,280 361,305 361,328 362,334 362,307 363,302 363,320 364,346 364,354 365,337 365,314 365,316 366,320 366,325 367,349 367,344 368,336 368,331 369,336 369,334 369,326 370,315 370,299 371,287 371,303 372,293 372,287 373,298 373,309 374,320 374,337 374,323 375,314 375,307 376,314 376,305 377,298 377,282 378,275 378,291 378,282 379,285 379,293 380,309 380,308 381,309 381,323 382,335 382,316 382,313 383,310 383,303 384,292 384,300 385,285 385,270 386,253 386,251 386,223 387,224 387,235 388,251 388,266 389,254 389,236 390,237 390,259 391,254 391,251 391,255 392,256 392,261 393,249 393,236 394,226 394,207 395,198 395,191 395,188 396,184 396,170 397,152 397,160 398,160 398,189 399,189 399,217 399,245 400,254 400,257 401,262 401,287 402,315 402,332 403,294 403,289 403,299 404,288 404,258 405,249 405,254 406,292 406,324 407,322 407,324 408,317 408,297 408,311 409,306 409,297 410,276 410,251 411,256 411,240 412,256 412,253 412,262 413,274 413,281 414,278 414,285 415,271 415,268 416,279 416,283 416,320 417,319 417,320 418,313 418,310 419,300 419,294 420,319 420,294 420,299 421,318 421,307 422,306 422,305 423,326 423,340 424,331 424,337 425,313 425,319 425,330 426,349 426,356 427,354 427,348 428,363 428,356 429,325 429,333 429,345 430,335 430,305 431,330 431,327 432,335 432,313 433,321 433,333 433,333 434,344 434,355 435,347 435,305 436,299 436,289 437,286 437,334 437,313 438,280 438,253 439,247 439,247 440,222 440,232 441,239 441,237 442,209 442,199 442,206 443,199 443,209 444,255 444,240 445,213 445,209 446,213 446,216 446,207 447,232 447,231 448,236 448,230 449,210 449,205 450,195 450,184 450,188 451,200 451,181 452,187 452,201 453,215 453,222 454,219 454,230 454,230 455,232 455,223 456,232 456,236 457,239 457,248 458,265 458,273 459,250 459,233 459,248 460,256 460,204 461,191 461,198 462,192 462,190 463,192 463,197 463,197 464,178 464,173 465,162 465,165 466,176 466,161 467,157 467,170 467,170 468,173 468,177 469,203 469,220 470,192 470,163 471,165 471,163 471,139 472,144 472,170 473,161 473,154 474,160 474,164 475,165 475,125 476,138 476,144 476,133 477,147 477,154 478,176 478,192 479,187 479,161 480,161 480,139 480,155 481,150 481,139 482,157 482,140 483,148 483,163 484,188 484,197 484,195 485,201 485,209 486,203 486,216 487,223 487,232 488,217 488,230 489,232 489,234 489,241 490,238 490,240 491,223 491,217 492,243 492,265 493,242 493,236 493,256 494,258 494,251 495,258 495,236 496,216 496,212 497,243 497,252 497,226 498,234 498,247 499,245 499,236 500,221 500,216 501,216 501,244 501,249 502,254 502,233 503,236 503,225 504,231 504,229 505,268 505,269 506,264 506,263 506,248 507,254 507,268 508,262 508,236 509,228 509,224 510,257 510,268 510,263 511,246 511,218 512,219 512,228 513,236 513,228 514,200 514,215 514,203 515,238 515,211 516,214 516,230 517,219 517,207 518,234 518,235 518,245 519,233 519,224 520,213 520,231 521,208 521,220 522,248 522,253 523,204 523,201 523,217 524,226 524,225 525,212 525,225 526,249 526,248 527,245 527,223 527,233 528,219 528,246 529,243 529,253 530,270 530,316 531,312 531,304 531,304 532,307 532,283 533,308 533,314 534,288 534,291 535,307 535,297 535,297 536,300 536,310 537,339 537,324 538,322 538,333 539,333 539,360 540,364 540,379 540,381 541,355 541,346 542,351 542,338 543,336 543,337 544,331 544,325 544,345 545,340 545,352 546,354 546,346 547,349 547,326 548,326 548,360 548,350 549,371 549,361 550,331 550,326 551,326 551,328 552,338 552,343 552,351 553,356 553,348 554,382 554,412 555,402 555,403 556,435 556,431 557,430 557,397 557,378 558,378 558,378 559,399 559,391 560,388 560,386 561,411 561,387 561,400 562,392 562,414 563,385 563,377 564,358 564,365 565,361 565,386 565,393 566,393 566,398 567,395 567,383 568,384 568,410 569,399 569,393 569,419 570,406 570,401 571,404 571,391 572,390 572,371 573,375 573,385 574,387 574,393 574,402 575,392 575,351 576,344 576,341 577,334 577,344 578,361 578,361 578,357 579,346 579,321 580,319 580,312 581,292 581,278 582,282 582,306 582,309 583,304 583,312 584,305 584,297 585,290 585,296 586,305 586,325 586,319 587,323 587,296 588,310 588,322 589,329 589,339 590,320 590,298 591,268 591,279 591,273 592,259 592,266 593,288 593,303 594,313 594,311 595,332 595,331 595,318 596,316 596,315 597,345 597,329 598,336 598,332 599,303 599,286 599,304 600,306 600,307 601,302 601,321 602,332 602,340 603,347 603,334 603,328 604,334 604,322 605,316 605,325 606,319 606,308 607,306 607,308 608,299 608,283 608,262 609,247 609,238 610,250 610,274 611,245 611,240 612,236 612,232 612,227 613,211 613,211 614,253 614,257 615,273 615,273 616,251 616,246 616,266 617,258 617,254 618,249 618,250 619,243 619,216 620,206 620,240 620,254 621,255 621,264 622,246 622,237 623,249 623,246 624,238 624,275 625,283 625,284 625,242 626,223 626,271 627,277 627,287 628,272 628,281 629,296 629,303 629,310 630,303 630,309 631,296 631,283 632,318 632,317 633,327 633,313 633,279 634,274 634,290 635,283 635,273 636,280 636,291 637,329 637,327 637,335 638,332 638,306 639,308 639,310 640,302 640,327 641,325 641,319 642,325 642,324 642,330 643,336 643,317 644,314 644,338 645,346 645,324 646,340 646,343 646,341 647,345 647,336 648,341 648,352 649,390 649,359 650,321 650,307 650,318 651,297 651,294 652,293 652,281 653,272 653,253 654,256 654,243 655,250 655,257 655,263 656,249 656,256 657,253 657,253 658,239 658,243 659,247 659,245 659,253 660,253 660,256 661,256 661,256 662,244 662,238 663,238 663,248 663,258 664,271 664,268 665,253 665,243 666,236 666,230 667,217 667,224 667,221 668,221 668,222 669,229 669,221 670,236 670,229 671,230 671,216 672,213 672,214 672,225 673,225 673,210 674,202 674,204 675,211 675,214 676,222 676,214 676,198 677,200 677,182 678,190 678,203 679,204 679,200 680,201 680,230 680,250 681,238 681,234 682,216 682,216 683,203 683,192 684,188 684,197 684,193 685,190 685,190 686,188 686,202 687,188 687,165 688,149 688,112 689,116 689,127 689,159 690,136 690,122 691,119 691,148 692,146 692,122 693,126 693,122 693,135 694,128 694,111 695,117 695,126 696,121 696,93 697,78 697,81 697,103 698,118 698,99 699,85 699,86 700,90 700,117 701,137 701,148 701,178 702,184 702,172 703,176 703,179 704,181 704,194 705,200 705,227 706,231 706,226 706,208 707,205 707,206 708,201 708,180 709,174 709,165 710,168 710,178 710,190 711,175 711,180 712,169 712,170 713,170 713,150 714,148 714,130 714,104 715,95 715,103 716,113 716,116 717,135 717,154 718,173 718,180 718,178 719,200 719,189 720,178 720,186 721,155 721,164 722,152 722,134 723,132 723,119 723,115 724,107 724,121 725,107 725,111 726,122 726,116 727,110 727,116 727,106 728,98 728,98 729,106 729,103 730,105 730,90 731,82 731,88 731,80 732,74 732,72 733,68 733,83 734,91 734,103 735,106 735,101 735,89 736,92 736,77 737,68 737,84 738,79 738,68 739,83 739,93 740,84 740,72 740,85 741,100 741,114 742,127 742,127 743,151 743,153 744,149 744,179 744,198 745,221 745,227 746,264 746,310 747,323 747,397 748,439 748,524 748,615 748,699 973,699 973,699 301,699 "/>
<polyline fill="none" opacity="1" stroke="#E6194B" stroke-width="1" points="301,642 301,548 302,469 302,426 303,392 303,347 304,331 304,297 305,274 305,267 305,228 306,200 306,203 307,204 307,208 308,221 308,205 309,216 309,239 310,244 310,232 310,237 311,238 311,264 312,256 312,259 313,256 313,268 314,276 314,278 314,279 315,267 315,266 316,255 316,262 317,246 317,230 318,234 318,247 318,246 319,232 319,252 320,255 320,241 321,252 321,248 322,245 322,245 323,228 323,205 323,192 324,187 324,169 325,170 325,174 326,165 326,158 327,151 327,142 327,155 328,164 328,179 329,158 329,161 330,143 330,123 331,108 331,103 331,96 332,73 332,75 333,112 333,116 334,122 334,142 335,152 335,141 335,135 336,144 336,144 337,155 337,142 338,126 338,145 339,133 339,121 340,104 340,97 340,114 341,121 341,139 342,136 342,143 343,158 343,157 344,136 344,127 344,122 345,120 345,161 346,147 346,154 347,157 347,157 348,168 348,175 348,176 349,172 349,188 350,196 350,202 351,208 351,205 352,225 352,230 352,237 353,244 353,250 354,238 354,252 355,226 355,221 356,224 356,236 357,235 357,239 357,253 358,243 358,268 359,262 359,271 360,259 360,273 361,280 361,305 361,328 362,334 362,307 363,302 363,320 364,346 364,354 365,337 365,314 365,316 366,320 366,325 367,349 367,344 368,336 368,331 369,336 369,334 369,326 370,315 370,299 371,287 371,303 372,293 372,287 373,298 373,309 374,320 374,337 374,323 375,314 375,307 376,314 376,305 377,298 377,282 378,275 378,291 378,282 379,285 379,293 380,309 380,308 381,309 381,323 382,335 382,316 382,313 383,310 383,303 384,292 384,300 385,285 385,270 386,253 386,251 386,223 387,224 387,235 388,251 388,266 389,254 389,236 390,237 390,259 391,254 391,251 391,255 392,256 392,261 393,249 393,236 394,226 394,207 395,198 395,191 395,188 396,184 396,170 397,152 397,160 398,160 398,189 399,189 399,217 399,245 400,254 400,257 401,262 401,287 402,315 402,332 403,294 403,289 403,299 404,288 404,258 405,249 405,254 406,292 406,324 407,322 407,324 408,317 408,297 408,311 409,306 409,297 410,276 410,251 411,256 411,240 412,256 412,253 412,262 413,274 413,281 414,278 414,285 415,271 415,268 416,279 416,283 416,320 417,319 417,320 418,313 418,310 419,300 419,294 420,319 420,294 420,299 421,318 421,307 422,306 422,305 423,326 423,340 424,331 424,337 425,313 425,319 425,330 426,349 426,356 427,354 427,348 428,363 428,356 429,325 429,333 429,345 430,335 430,305 431,330 431,327 432,335 432,313 433,321 433,333 433,333 434,344 434,355 435,347 435,305 436,299 436,289 437,286 437,334 437,313 438,280 438,253 439,247 439,247 440,222 440,232 441,239 441,237 442,209 442,199 442,206 443,199 443,209 444,255 444,240 445,213 445,209 446,213 446,216 446,207 447,232 447,231 448,236 448,230 449,210 449,205 450,195 450,184 450,188 451,200 451,181 452,187 452,201 453,215 453,222 454,219 454,230 454,230 455,232 455,223 456,232 456,236 457,239 457,248 458,265 458,273 459,250 459,233 459,248 460,256 460,204 461,191 461,198 462,192 462,190 463,192 463,197 463,197 464,178 464,173 465,162 465,165 466,176 466,161 467,157 467,170 467,170 468,173 468,177 469,203 469,220 470,192 470,163 471,165 471,163 471,139 472,144 472,170 473,161 473,154 474,160 474,164 475,165 475,125 476,138 476,144 476,133 477,147 477,154 478,176 478,192 479,187 479,161 480,161 480,139 480,155 481,150 481,139 482,157 482,140 483,148 483,163 484,188 484,197 484,195 485,201 485,209 486,203 486,216 487,223 487,232 488,217 488,230 489,232 489,234 489,241 490,238 490,240 491,223 491,217 492,243 492,265 493,242 493,236 493,256 494,258 494,251 495,258 495,236 496,216 496,212 497,243 497,252 497,226 498,234 498,247 499,245 499,236 500,221 500,216 501,216 501,244 501,249 502,254 502,233 503,236 503,225 504,231 504,229 505,268 505,269 506,264 506,263 506,248 507,254 507,268 508,262 508,236 509,228 509,224 510,257 510,268 510,263 511,246 511,218 512,219 512,228 513,236 513,228 514,200 514,215 514,203 515,238 515,211 516,214 516,230 517,219 517,207 518,234 518,235 518,245 519,233 519,224 520,213 520,231 521,208 521,220 522,248 522,253 523,204 523,201 523,217 524,226 524,225 525,212 525,225 526,249 526,248 527,245 527,223 527,233 528,219 528,246 529,243 529,253 530,270 530,316 531,312 531,304 531,304 532,307 532,283 533,308 533,314 534,288 534,291 535,307 535,297 535,297 536,300 536,310 537,339 537,324 538,322 538,333 539,333 539,360 540,364 540,379 540,381 541,355 541,346 542,351 542,338 543,336 543,337 544,331 544,325 544,345 545,340 545,352 546,354 546,346 547,349 547,326 548,326 548,360 548,350 549,371 549,361 550,331 550,326 551,326 551,328 552,338 552,343 552,351 553,356 553,348 554,382 554,412 555,402 555,403 556,435 556,431 557,430 557,397 557,378 558,378 558,378 559,399 559,391 560,388 560,386 561,411 561,387 561,400 562,392 562,414 563,385 563,377 564,358 564,365 565,361 565,386 565,393 566,393 566,398 567,395 567,383 568,384 568,410 569,399 569,393 569,419 570,406 570,401 571,404 571,391 572,390 572,371 573,375 573,385 574,387 574,393 574,402 575,392 575,351 576,344 576,341 577,334 577,344 578,361 578,361 578,357 579,346 579,321 580,319 580,312 581,292 581,278 582,282 582,306 582,309 583,304 583,312 584,305 584,297 585,290 585,296 586,305 586,325 586,319 587,323 587,296 588,310 588,322 589,329 589,339 590,320 590,298 591,268 591,279 591,273 592,259 592,266 593,288 593,303 594,313 594,311 595,332 595,331 595,318 596,316 596,315 597,345 597,329 598,336 598,332 599,303 599,286 599,304 600,306 600,307 601,302 601,321 602,332 602,340 603,347 603,334 603,328 604,334 604,322 605,316 605,325 606,319 606,308 607,306 607,308 608,299 608,283 608,262 609,247 609,238 610,250 610,274 611,245 611,240 612,236 612,232 612,227 613,211 613,211 614,253 614,257 615,273 615,273 616,251 616,246 616,266 617,258 617,254 618,249 618,250 619,243 619,216 620,206 620,240 620,254 621,255 621,264 622,246 622,237 623,249 623,246 624,238 624,275 625,283 625,284 625,242 626,223 626,271 627,277 627,287 628,272 628,281 629,296 629,303 629,310 630,303 630,309 631,296 631,283 632,318 632,317 633,327 633,313 633,279 634,274 634,290 635,283 635,273 636,280 636,291 637,329 637,327 637,335 638,332 638,306 639,308 639,310 640,302 640,327 641,325 641,319 642,325 642,324 642,330 643,336 643,317 644,314 644,338 645,346 645,324 646,340 646,343 646,341 647,345 647,336 648,341 648,352 649,390 649,359 650,321 650,307 650,318 651,297 651,294 652,293 652,281 653,272 653,253 654,256 654,243 655,250 655,257 655,263 656,249 656,256 657,253 657,253 658,239 658,243 659,247 659,245 659,253 660,253 660,256 661,256 661,256 662,244 662,238 663,238 663,248 663,258 664,271 664,268 665,253 665,243 666,236 666,230 667,217 667,224 667,221 668,221 668,222 669,229 669,221 670,236 670,229 671,230 671,216 672,213 672,214 672,225 673,225 673,210 674,202 674,204 675,211 675,214 676,222 676,214 676,198 677,200 677,182 678,190 678,203 679,204 679,200 680,201 680,230 680,250 681,238 681,234 682,216 682,216 683,203 683,192 684,188 684,197 684,193 685,190 685,190 686,188 686,202 687,188 687,165 688,149 688,112 689,116 689,127 689,159 690,136 690,122 691,119 691,148 692,146 692,122 693,126 693,122 693,135 694,128 694,111 695,117 695,126 696,121 696,93 697,78 697,81 697,103 698,118 698,99 699,85 699,86 700,90 700,117 701,137 701,148 701,178 702,184 702,172 703,176 703,179 704,181 704,194 705,200 705,227 706,231 706,226 706,208 707,205 707,206 708,201 708,180 709,174 709,165 710,168 710,178 710,190 711,175 711,180 712,169 712,170 713,170 713,150 714,148 714,130 714,104 715,95 715,103 716,113 716,116 717,135 717,154 718,173 718,180 718,178 719,200 719,189 720,178 720,186 721,155 721,164 722,152 722,134 723,132 723,119 723,115 724,107 724,121 725,107 725,111 726,122 726,116 727,110 727,116 727,106 728,98 728,98 729,106 729,103 730,105 730,90 731,82 731,88 731,80 732,74 732,72 733,68 733,83 734,91 734,103 735,106 735,101 735,89 736,92 736,77 737,68 737,84 738,79 738,68 739,83 739,93 740,84 740,72 740,85 741,100 741,114 742,127 742,127 743,151 743,153 744,149 744,179 744,198 745,221 745,227 746,264 746,310 747,323 747,397 748,439 748,524 748,615 748,699 973,699 "/>
<line opacity="0.1" stroke="#000000" stroke-width="1" x1="83" y1="699" x2="83" y2="68"/>
<line opacity="0.1" stroke="#000000" stroke-width="1" x1="92" y1="699" x2="92" y2="68"/>
<line opacity="0.1" stroke="#000000" stroke-width="1" x1="101" y1="699" x2="101" y2="68"/>
<line opacity="0.1" stroke="#000000" stroke-width="1" x1="110" y1="699" x2="110" y2="68"/>
<line opacity="0.1" stroke="#000000" stroke-width="1" x1="119" y1="699" x2="119" y2="68"/>
<line opacity="0.1" stroke="#000000" stroke-width="1" x1="128" y1="699" x2="128" y2="68"/>
<line opacity="0.1" stroke="#000000" stroke-width="1" x1="137" y1="699" x2="137" y2="68"/>
<line opacity="0.1" stroke="#000000" stroke-width="1" x1="146" y1="699" x2="146" y2="68"/>
<line opacity="0.1" stroke="#000000" stroke-width="1" x1="154" y1="699" x2="154" y2="68"/>
<line opacity="0.1" stroke="#000000" stroke-width="1" x1="163" y1="699" x2="163" y2="68"/>
<line opacity="0.1" stroke="#000000" stroke-width="1" x1="172" y1="699" x2="172" y2="68"/>
<line opacity="0.1" stroke="#000000" stroke-width="1" x1="181" y1="699" x2="181" y2="68"/>
<line opacity="0.1" stroke="#000000" stroke-width="1" x1="190" y1="699" x2="190" y2="68"/>
<line opacity="0.1" stroke="#000000" stroke-width="1" x1="199" y1="699" x2="199" y2="68"/>
<line opacity="0.1" stroke="#000000" stroke-width="1" x1="208" y1="699" x2="208" y2="68"/>
<line opacity="0.1" stroke="#000000" stroke-width="1" x1="217" y1="699" x2="217" y2="68"/>
<line opacity="0.1" stroke="#000000" stroke-width="1" x1="226" y1="699" x2="226" y2="68"/>
<line opacity="0.1" stroke="#000000" stroke-width="1" x1="234" y1="699" x2="234" y2="68"/>
<line opacity="0.1" stroke="#000000" stroke-width="1" x1="243" y1="699" x2="243" y2="68"/>
<line opacity="0.1" stroke="#000000" stroke-width="1" x1="252" y1="699" x2="252" y2="68"/>
<line opacity="0.1" stroke="#000000" stroke-width="1" x1="261" y1="699" x2="261" y2="68"/>
<line opacity="0.1" stroke="#000000" stroke-width="1" x1="270" y1="699" x2="270" y2="68"/>
<line opacity="0.1" stroke="#000000" stroke-width="1" x1="279" y1="699" x2="279" y2="68"/>
<line opacity="0.1" stroke="#000000" stroke-width="1" x1="288" y1="699" x2="288" y2="68"/>
<line opacity="0.1" stroke="#000000" stroke-width="1" x1="297" y1="699" x2="297" y2="68"/>
<line opacity="0.1" stroke="#000000" stroke-width="1" x1="306" y1="699" x2="306" y2="68"/>
<line opacity="0.1" stroke="#000000" stroke-width="1" x1="315" y1="699" x2="315" y2="68"/>
<line opacity="0.1" stroke="#000000" stroke-width="1" x1="323" y1="699" x2="323" y2="68"/>
<line opacity="0.1" stroke="#000000" stroke-width="1" x1="332" y1="699" x2="332" y2="68"/>
<line opacity="0.1" stroke="#000000" stroke-width="1" x1="341" y1="699" x2="341" y2="68"/>
<line opacity="0.1" stroke="#000000" stroke-width="1" x1="350" y1="699" x2="350" y2="68"/>
<line opacity="0.1" stroke="#000000" stroke-width="1" x1="359" y1="699" x2="359" y2="68"/>
<line opacity="0.1" stroke="#000000" stroke-width="1" x1="368" y1="699" x2="368" y2="68"/>
<line opacity="0.1" stroke="#000000" stroke-width="1" x1="377" y1="699" x2="377" y2="68"/>
<line opacity="0.1" stroke="#000000" stroke-width="1" x1="386" y1="699" x2="386" y2="68"/>
<line opacity="0.1" stroke="#000000" stroke-width="1" x1="395" y1="699" x2="395" y2="68"/>
<line opacity="0.1" stroke="#000000" stroke-width="1" x1="403" y1="699" x2="403" y2="68"/>
<line opacity="0.1" stroke="#000000" stroke-width="1" x1="412" y1="699" x2="412" y2="68"/>
<line opacity="0.1" stroke="#000000" stroke-width="1" x1="421" y1="699" x2="421" y2="68"/>
<line opacity="0.1" stroke="#000000" stroke-width="1" x1="430" y1="699" x2="430" y2="68"/>
<line opacity="0.1" stroke="#000000" stroke-width="1" x1="439" y1="699" x2="439" y2="68"/>
<line opacity="0.1" stroke="#000000" stroke-width="1" x1="448" y1="699" x2="448" y2="68"/>
<line opacity="0.1" stroke="#000000" stroke-width="1" x1="457" y1="699" x2="457" y2="68"/>
<line opacity="0.1" stroke="#000000" stroke-width="1" x1="466" y1="699" x2="466" y2="68"/>
<line opacity="0.1" stroke="#000000" stroke-width="1" x1="475" y1="699" x2="475" y2="68"/>
<line opacity="0.1" stroke="#000000" stroke-width="1" x1="483" y1="699" x2="483" y2="68"/>
<line opacity="0.1" stroke="#000000" stroke-width="1" x1="492" y1="699" x2="492" y2="68"/>
<line opacity="0.1" stroke="#000000" stroke-width="1" x1="501" y1="699" x2="501" y2="68"/>
<line opacity="0.1" stroke="#000000" stroke-width="1" x1="510" y1="699" x2="510" y2="68"/>
<line opacity="0.1" stroke="#000000" stroke-width="1" x1="519" y1="699" x2="519" y2="68"/>
<line opacity="0.1" stroke="#000000" stroke-width="1" x1="528" y1="699" x2="528" y2="68"/>
<line opacity="0.1" stroke="#000000" stroke-width="1" x1="537" y1="699" x2="537" y2="68"/>
<line opacity="0.1" stroke="#000000" stroke-width="1" x1="546" y1="699" x2="546" y2="68"/>
<line opacity="0.1" stroke="#000000" stroke-width="1" x1="555" y1="699" x2="555" y2="68"/>
<line opacity="0.1" stroke="#000000" stroke-width="1" x1="563" y1="699" x2="563" y2="68"/>
<line opacity="0.1" stroke="#000000" stroke-width="1" x1="572" y1="699" x2="572" y2="68"/>
<line opacity="0.1" stroke="#000000" stroke-width="1" x1="581" y1="699" x2="581" y2="68"/>
<line opacity="0.1" stroke="#000000" stroke-width="1" x1="590" y1="699" x2="590" y2="68"/>
<line opacity="0.1" stroke="#000000" stroke-width="1" x1="599" y1="699" x2="599" y2="68"/>
<line opacity="0.1" stroke="#000000" stroke-width="1" x1="608" y1="699" x2="608" y2="68"/>
<line opacity="0.1" stroke="#000000" stroke-width="1" x1="617" y1="699" x2="617" y2="68"/>
<line opacity="0.1" stroke="#000000" stroke-width="1" x1="626" y1="699" x2="626" y2="68"/>
<line opacity="0.1" stroke="#000000" stroke-width="1" x1="635" y1="699" x2="635" y2="68"/>
<line opacity="0.1" stroke="#000000" stroke-width="1" x1="644" y1="699" x2="644" y2="68"/>
<line opacity="0.1" stroke="#000000" stroke-width="1" x1="652" y1="699" x2="652" y2="68"/>
<line opacity="0.1" stroke="#000000" stroke-width="1" x1="661" y1="699" x2="661" y2="68"/>
<line opacity="0.1" stroke="#000000" stroke-width="1" x1="670" y1="699" x2="670" y2="68"/>
<line opacity="0.1" stroke="#000000" stroke-width="1" x1="679" y1="699" x2="679" y2="68"/>
<line opacity="0.1" stroke="#000000" stroke-width="1" x1="688" y1="699" x2="688" y2="68"/>
<line opacity="0.1" stroke="#000000" stroke-width="1" x1="697" y1="699" x2="697" y2="68"/>
<line opacity="0.1" stroke="#000000" stroke-width="1" x1="706" y1="699" x2="706" y2="68"/>
<line opacity="0.1" stroke="#000000" stroke-width="1" x1="715" y1="699" x2="715" y2="68"/>
<line opacity="0.1" stroke="#000000" stroke-width="1" x1="724" y1="699" x2="724" y2="68"/>
<line opacity="0.1" stroke="#000000" stroke-width="1" x1="732" y1="699" x2="732" y2="68"/>
<line opacity="0.1" stroke="#000000" stroke-width="1" x1="741" y1="699" x2="741" y2="68"/>
<line opacity="0.1" stroke="#000000" stroke-width="1" x1="750" y1="699" x2="750" y2="68"/>
<line opacity="0.1" stroke="#000000" stroke-width="1" x1="759" y1="699" x2="759" y2="68"/>
<line opacity="0.1" stroke="#000000" stroke-width="1" x1="768" y1="699" x2="768" y2="68"/>
<line opacity="0.1" stroke="#000000" stroke-width="1" x1="777" y1="699" x2="777" y2="68"/>
<line opacity="0.1" stroke="#000000" stroke-width="1" x1="786" y1="699" x2="786" y2="68"/>
<line opacity="0.1" stroke="#000000" stroke-width="1" x1="795" y1="699" x2="795" y2="68"/>
<line opacity="0.1" stroke="#000000" stroke-width="1" x1="804" y1="699" x2="804" y2="68"/>
<line opacity="0.1" stroke="#000000" stroke-width="1" x1="812" y1="699" x2="812" y2="68"/>
<line opacity="0.1" stroke="#000000" stroke-width="1" x1="821" y1="699" x2="821" y2="68"/>
<line opacity="0.1" stroke="#000000" stroke-width="1" x1="830" y1="699" x2="830" y2="68"/>
<line opacity="0.1" stroke="#000000" stroke-width="1" x1="839" y1="699" x2="839" y2="68"/>
<line opacity="0.1" stroke="#000000" stroke-width="1" x1="848" y1="699" x2="848" y2="68"/>
<line opacity="0.1" stroke="#000000" stroke-width="1" x1="857" y1="699" x2="857" y2="68"/>
<line opacity="0.1" stroke="#000000" stroke-width="1" x1="866" y1="699" x2="866" y2="68"/>
<line opacity="0.1" stroke="#000000" stroke-width="1" x1="875" y1="699" x2="875" y2="68"/>
<line opacity="0.1" stroke="#000000" stroke-width="1" x1="884" y1="699" x2="884" y2="68"/>
<line opacity="0.1" stroke="#000000" stroke-width="1" x1="892" y1="699" x2="892" y2="68"/>
<line opacity="0.1" stroke="#000000" stroke-width="1" x1="901" y1="699" x2="901" y2="68"/>
<line opacity="0.1" stroke="#000000" stroke-width="1" x1="910" y1="699" x2="910" y2="68"/>
<line opacity="0.1" stroke="#000000" stroke-width="1" x1="919" y1="699" x2="919" y2="68"/>
<line opacity="0.1" stroke="#000000" stroke-width="1" x1="928" y1="699" x2="928" y2="68"/>
<line opacity="0.1" stroke="#000000" stroke-width="1" x1="937" y1="699" x2="937" y2="68"/>
<line opacity="0.1" stroke="#000000" stroke-width="1" x1="946" y1="699" x2="946" y2="68"/>
<line opacity="0.1" stroke="#000000" stroke-width="1" x1="955" y1="699" x2="955" y2="68"/>
<line opacity="0.1" stroke="#000000" stroke-width="1" x1="964" y1="699" x2="964" y2="68"/>
<line opacity="0.1" stroke="#000000" stroke-width="1" x1="78" y1="699" x2="973" y2="699"/>
<line opacity="0.1" stroke="#000000" stroke-width="1" x1="78" y1="689" x2="973" y2="689"/>
<line opacity="0.1" stroke="#000000" stroke-width="1" x1="78" y1="679" x2="973" y2="679"/>
<line opacity="0.1" stroke="#000000" stroke-width="1" x1="78" y1="669" x2="973" y2="669"/>
<line opacity="0.1" stroke="#000000" stroke-width="1" x1="78" y1="659" x2="973" y2="659"/>
<line opacity="0.1" stroke="#000000" stroke-width="1" x1="78" y1="650" x2="973" y2="650"/>
<line opacity="0.1" stroke="#000000" stroke-width="1" x1="78" y1="640" x2="973" y2="640"/>
<line opacity="0.1" stroke="#000000" stroke-width="1" x1="78" y1="630" x2="973" y2="630"/>
<line opacity="0.1" stroke="#000000" stroke-width="1" x1="78" y1="620" x2="973" y2="620"/>
<line opacity="0.1" stroke="#000000" stroke-width="1" x1="78" y1="610" x2="973" y2="610"/>
<line opacity="0.1" stroke="#000000" stroke-width="1" x1="78" y1="601" x2="973" y2="601"/>
<line opacity="0.1" stroke="#000000" stroke-width="1" x1="78" y1="591" x2="973" y2="591"/>
<line opacity="0.1" stroke="#000000" stroke-width="1" x1="78" y1="581" x2="973" y2="581"/>
<line opacity="0.1" stroke="#000000" stroke-width="1" x1="78" y1="571" x2="973" y2="571"/>
<line opacity="0.1" stroke="#000000" stroke-width="1" x1="78" y1="561" x2="973" y2="561"/>
<line opacity="0.1" stroke="#000000" stroke-width="1" x1="78" y1="552" x2="973" y2="552"/>
<line opacity="0.1" stroke="#000000" stroke-width="1" x1="78" y1="542" x2="973" y2="542"/>
<line opacity="0.1" stroke="#000000" stroke-width="1" x1="78" y1="532" x2="973" y2="532"/>
<line opacity="0.1" stroke="#000000" stroke-width="1" x1="78" y1="522" x2="973" y2="522"/>
<line opacity="0.1" stroke="#000000" stroke-width="1" x1="78" y1="513" x2="973" y2="513"/>
<line opacity="0.1" stroke="#000000" stroke-width="1" x1="78" y1="503" x2="973" y2="503"/>
<line opacity="0.1" stroke="#000000" stroke-width="1" x1="78" y1="493" x2="973" y2="493"/>
<line opacity="0.1" stroke="#000000" stroke-width="1" x1="78" y1="483" x2="973" y2="483"/>
<line opacity="0.1" stroke="#000000" stroke-width="1" x1="78" y1="473" x2="973" y2="473"/>
<line opacity="0.1" stroke="#000000" stroke-width="1" x1="78" y1="464" x2="973" y2="464"/>
<line opacity="0.1" stroke="#000000" stroke-width="1" x1="78" y1="454" x2="973" y2="454"/>
<line opacity="0.1" stroke="#000000" stroke-width="1" x1="78" y1="444" x2="973" y2="444"/>
<line opacity="0.1" stroke="#000000" stroke-width="1" x1="78" y1="434" x2="973" y2="434"/>
<line opacity="0.1" stroke="#000000" stroke-width="1" x1="78" y1="424" x2="973" y2="424"/>
<line opacity="0.1" stroke="#000000" stroke-width="1" x1="78" y1="415" x2="973" y2="415"/>
<line opacity="0.1" stroke="#000000" stroke-width="1" x1="78" y1="405" x2="973" y2="405"/>
<line opacity="0.1" stroke="#000000" stroke-width="1" x1="78" y1="395" x2="973" y2="395"/>
<line opacity="0.1" stroke="#000000" stroke-width="1" x1="78" y1="385" x2="973" y2="385"/>
<line opacity="0.1" stroke="#000000" stroke-width="1" x1="78" y1="375" x2="973" y2="375"/>
<line opacity="0.1" stroke="#000000" stroke-width="1" x1="78" y1="366" x2="973" y2="366"/>
<line opacity="0.1" stroke="#000000" stroke-width="1" x1="78" y1="356" x2="973" y2="356"/>
<line opacity="0.1" stroke="#000000" stroke-width="1" x1="78" y1="346" x2="973" y2="346"/>
<line opacity="0.1" stroke="#000000" stroke-width="1" x1="78" y1="336" x2="973" y2="336"/>
<line opacity="0.1" stroke="#000000" stroke-width="1" x1="78" y1="327" x2="973" y2="327"/>
<line opacity="0.1" stroke="#000000" stroke-width="1" x1="78" y1="317" x2="973" y2="317"/>
<line opacity="0.1" stroke="#000000" stroke-width="1" x1="78" y1="307" x2="973" y2="307"/>
<line opacity="0.1" stroke="#000000" stroke-width="1" x1="78" y1="297" x2="973" y2="297"/>
<line opacity="0.1" stroke="#000000" stroke-width="1" x1="78" y1="287" x2="973" y2="287"/>
<line opacity="0.1" stroke="#000000" stroke-width="1" x1="78" y1="278" x2="973" y2="278"/>
<line opacity="0.1" stroke="#000000" stroke-width="1" x1="78" y1="268" x2="973" y2="268"/>
<line opacity="0.1" stroke="#000000" stroke-width="1" x1="78" y1="258" x2="973" y2="258"/>
<line opacity="0.1" stroke="#000000" stroke-width="1" x1="78" y1="248" x2="973" y2="248"/>
<line opacity="0.1" stroke="#000000" stroke-width="1" x1="78" y1="238" x2="973" y2="238"/>
<line opacity="0.1" stroke="#000000" stroke-width="1" x1="78" y1="229" x2="973" y2="229"/>
<line opacity="0.1" stroke="#000000" stroke-width="1" x1="78" y1="219" x2="973" y2="219"/>
<line opacity="0.1" stroke="#000000" stroke-width="1" x1="78" y1="209" x2="973" y2="209"/>
<line opacity="0.1" stroke="#000000" stroke-width="1" x1="78" y1="199" x2="973" y2="199"/>
<line opacity="0.1" stroke="#000000" stroke-width="1" x1="78" y1="189" x2="973" y2="189"/>
<line opacity="0.1" stroke="#000000" stroke-width="1" x1="78" y1="180" x2="973" y2="180"/>
<line opacity="0.1" stroke="#000000" stroke-width="1" x1="78" y1="170" x2="973" y2="170"/>
<line opacity="0.1" stroke="#000000" stroke-width="1" x1="78" y1="160" x2="973" y2="160"/>
<line opacity="0.1" stroke="#000000" stroke-width="1" x1="78" y1="150" x2="973" y2="150"/>
<line opacity="0.1" stroke="#000000" stroke-width="1" x1="78" y1="141" x2="973" y2="141"/>
<line opacity="0.1" stroke="#000000" stroke-width="1" x1="78" y1="131" x2="973" y2="131"/>
<line opacity="0.1" stroke="#000000" stroke-width="1" x1="78" y1="121" x2="973" y2="121"/>
<line opacity="0.1" stroke="#000000" stroke-width="1" x1="78" y1="111" x2="973" y2="111"/>
<line opacity="0.1" stroke="#000000" stroke-width="1" x1="78" y1="101" x2="973" y2="101"/>
<line opacity="0.1" stroke="#000000" stroke-width="1" x1="78" y1="92" x2="973" y2="92"/>
<line opacity="0.1" stroke="#000000" stroke-width="1" x1="78" y1="82" x2="973" y2="82"/>
<line opacity="0.1" stroke="#000000" stroke-width="1" x1="78" y1="72" x2="973" y2="72"/>
<text x="8" y="384" dy="0.76em" text-anchor="middle" font-family="sans-serif" font-size="9.67741935483871" opacity="1" fill="#000000" transform="rotate(270, 8, 384)">
Memory usage
</text>
<text x="526" y="760" dy="-0.5ex" text-anchor="middle" font-family="sans-serif" font-size="9.67741935483871" opacity="1" fill="#000000">
Time
</text>
<line opacity="0.2" stroke="#000000" stroke-width="1" x1="101" y1="699" x2="101" y2="68"/>
<line opacity="0.2" stroke="#000000" stroke-width="1" x1="190" y1="699" x2="190" y2="68"/>
<line opacity="0.2" stroke="#000000" stroke-width="1" x1="279" y1="699" x2="279" y2="68"/>
<line opacity="0.2" stroke="#000000" stroke-width="1" x1="368" y1="699" x2="368" y2="68"/>
<line opacity="0.2" stroke="#000000" stroke-width="1" x1="457" y1="699" x2="457" y2="68"/>
<line opacity="0.2" stroke="#000000" stroke-width="1" x1="546" y1="699" x2="546" y2="68"/>
<line opacity="0.2" stroke="#000000" stroke-width="1" x1="635" y1="699" x2="635" y2="68"/>
<line opacity="0.2" stroke="#000000" stroke-width="1" x1="724" y1="699" x2="724" y2="68"/>
<line opacity="0.2" stroke="#000000" stroke-width="1" x1="812" y1="699" x2="812" y2="68"/>
<line opacity="0.2" stroke="#000000" stroke-width="1" x1="901" y1="699" x2="901" y2="68"/>
<line opacity="0.2" stroke="#000000" stroke-width="1" x1="78" y1="699" x2="973" y2="699"/>
<line opacity="0.2" stroke="#000000" stroke-width="1" x1="78" y1="601" x2="973" y2="601"/>
<line opacity="0.2" stroke="#000000" stroke-width="1" x1="78" y1="503" x2="973" y2="503"/>
<line opacity="0.2" stroke="#000000" stroke-width="1" x1="78" y1="405" x2="973" y2="405"/>
<line opacity="0.2" stroke="#000000" stroke-width="1" x1="78" y1="307" x2="973" y2="307"/>
<line opacity="0.2" stroke="#000000" stroke-width="1" x1="78" y1="209" x2="973" y2="209"/>
<line opacity="0.2" stroke="#000000" stroke-width="1" x1="78" y1="111" x2="973" y2="111"/>
<polyline fill="none" opacity="1" stroke="#000000" stroke-width="1" points="77,68 77,699 "/>
<text x="68" y="699" dy="0.5ex" text-anchor="end" font-family="sans-serif" font-size="9.67741935483871" opacity="1" fill="#000000">
0 KB
</text>
<polyline fill="none" opacity="1" stroke="#000000" stroke-width="1" points="72,699 77,699 "/>
<text x="68" y="601" dy="0.5ex" text-anchor="end" font-family="sans-serif" font-size="9.67741935483871" opacity="1" fill="#000000">
48 KB
</text>
<polyline fill="none" opacity="1" stroke="#000000" stroke-width="1" points="72,601 77,601 "/>
<text x="68" y="503" dy="0.5ex" text-anchor="end" font-family="sans-serif" font-size="9.67741935483871" opacity="1" fill="#000000">
97 KB
</text>
<polyline fill="none" opacity="1" stroke="#000000" stroke-width="1" points="72,503 77,503 "/>
<text x="68" y="405" dy="0.5ex" text-anchor="end" font-family="sans-serif" font-size="9.67741935483871" opacity="1" fill="#000000">
146 KB
</text>
<polyline fill="none" opacity="1" stroke="#000000" stroke-width="1" points="72,405 77,405 "/>
<text x="68" y="307" dy="0.5ex" text-anchor="end" font-family="sans-serif" font-size="9.67741935483871" opacity="1" fill="#000000">
195 KB
</text>
<polyline fill="none" opacity="1" stroke="#000000" stroke-width="1" points="72,307 77,307 "/>
<text x="68" y="209" dy="0.5ex" text-anchor="end" font-family="sans-serif" font-size="9.67741935483871" opacity="1" fill="#000000">
244 KB
</text>
<polyline fill="none" opacity="1" stroke="#000000" stroke-width="1" points="72,209 77,209 "/>
<text x="68" y="111" dy="0.5ex" text-anchor="end" font-family="sans-serif" font-size="9.67741935483871" opacity="1" fill="#000000">
292 KB
</text>
<polyline fill="none" opacity="1" stroke="#000000" stroke-width="1" points="72,111 77,111 "/>
<polyline fill="none" opacity="1" stroke="#000000" stroke-width="1" points="78,700 973,700 "/>
<text x="101" y="710" dy="0.76em" text-anchor="middle" font-family="sans-serif" font-size="9.67741935483871" opacity="1" fill="#000000">
02:04:17
</text>
<polyline fill="none" opacity="1" stroke="#000000" stroke-width="1" points="101,700 101,705 "/>
<text x="190" y="710" dy="0.76em" text-anchor="middle" font-family="sans-serif" font-size="9.67741935483871" opacity="1" fill="#000000">
02:04:18
</text>
<polyline fill="none" opacity="1" stroke="#000000" stroke-width="1" points="190,700 190,705 "/>
<text x="279" y="710" dy="0.76em" text-anchor="middle" font-family="sans-serif" font-size="9.67741935483871" opacity="1" fill="#000000">
02:04:19
</text>
<polyline fill="none" opacity="1" stroke="#000000" stroke-width="1" points="279,700 279,705 "/>
<text x="368" y="710" dy="0.76em" text-anchor="middle" font-family="sans-serif" font-size="9.67741935483871" opacity="1" fill="#000000">
02:04:20
</text>
<polyline fill="none" opacity="1" stroke="#000000" stroke-width="1" points="368,700 368,705 "/>
<text x="457" y="710" dy="0.76em" text-anchor="middle" font-family="sans-serif" font-size="9.67741935483871" opacity="1" fill="#000000">
02:04:21
</text>
<polyline fill="none" opacity="1" stroke="#000000" stroke-width="1" points="457,700 457,705 "/>
<text x="546" y="710" dy="0.76em" text-anchor="middle" font-family="sans-serif" font-size="9.67741935483871" opacity="1" fill="#000000">
02:04:22
</text>
<polyline fill="none" opacity="1" stroke="#000000" stroke-width="1" points="546,700 546,705 "/>
<text x="635" y="710" dy="0.76em" text-anchor="middle" font-family="sans-serif" font-size="9.67741935483871" opacity="1" fill="#000000">
02:04:23
</text>
<polyline fill="none" opacity="1" stroke="#000000" stroke-width="1" points="635,700 635,705 "/>
<text x="724" y="710" dy="0.76em" text-anchor="middle" font-family="sans-serif" font-size="9.67741935483871" opacity="1" fill="#000000">
02:04:24
</text>
<polyline fill="none" opacity="1" stroke="#000000" stroke-width="1" points="724,700 724,705 "/>
<text x="812" y="710" dy="0.76em" text-anchor="middle" font-family="sans-serif" font-size="9.67741935483871" opacity="1" fill="#000000">
02:04:25
</text>
<polyline fill="none" opacity="1" stroke="#000000" stroke-width="1" points="812,700 812,705 "/>
<text x="901" y="710" dy="0.76em" text-anchor="middle" font-family="sans-serif" font-size="9.67741935483871" opacity="1" fill="#000000">
02:04:26
</text>
<polyline fill="none" opacity="1" stroke="#000000" stroke-width="1" points="901,700 901,705 "/>
<polyline fill="none" opacity="1" stroke="#000000" stroke-width="1" points="78,67 974,67 "/>
<text x="101" y="58" dy="-0.5ex" text-anchor="middle" font-family="sans-serif" font-size="9.67741935483871" opacity="1" fill="#000000">
+265ms
</text>
<polyline fill="none" opacity="1" stroke="#000000" stroke-width="1" points="101,62 101,67 "/>
<text x="190" y="58" dy="-0.5ex" text-anchor="middle" font-family="sans-serif" font-size="9.67741935483871" opacity="1" fill="#000000">
+1s
</text>
<polyline fill="none" opacity="1" stroke="#000000" stroke-width="1" points="190,62 190,67 "/>
<text x="279" y="58" dy="-0.5ex" text-anchor="middle" font-family="sans-serif" font-size="9.67741935483871" opacity="1" fill="#000000">
+2s
</text>
<polyline fill="none" opacity="1" stroke="#000000" stroke-width="1" points="279,62 279,67 "/>
<text x="368" y="58" dy="-0.5ex" text-anchor="middle" font-family="sans-serif" font-size="9.67741935483871" opacity="1" fill="#000000">
+3s
</text>
<polyline fill="none" opacity="1" stroke="#000000" stroke-width="1" points="368,62 368,67 "/>
<text x="457" y="58" dy="-0.5ex" text-anchor="middle" font-family="sans-serif" font-size="9.67741935483871" opacity="1" fill="#000000">
+4s
</text>
<polyline fill="none" opacity="1" stroke="#000000" stroke-width="1" points="457,62 457,67 "/>
<text x="546" y="58" dy="-0.5ex" text-anchor="middle" font-family="sans-serif" font-size="9.67741935483871" opacity="1" fill="#000000">
+5s
</text>
<polyline fill="none" opacity="1" stroke="#000000" stroke-width="1" points="546,62 546,67 "/>
<text x="635" y="58" dy="-0.5ex" text-anchor="middle" font-family="sans-serif" font-size="9.67741935483871" opacity="1" fill="#000000">
+6s
</text>
<polyline fill="none" opacity="1" stroke="#000000" stroke-width="1" points="635,62 635,67 "/>
<text x="724" y="58" dy="-0.5ex" text-anchor="middle" font-family="sans-serif" font-size="9.67741935483871" opacity="1" fill="#000000">
+7s
</text>
<polyline fill="none" opacity="1" stroke="#000000" stroke-width="1" points="724,62 724,67 "/>
<text x="813" y="58" dy="-0.5ex" text-anchor="middle" font-family="sans-serif" font-size="9.67741935483871" opacity="1" fill="#000000">
+8s
</text>
<polyline fill="none" opacity="1" stroke="#000000" stroke-width="1" points="813,62 813,67 "/>
<text x="902" y="58" dy="-0.5ex" text-anchor="middle" font-family="sans-serif" font-size="9.67741935483871" opacity="1" fill="#000000">
+9s
</text>
<polyline fill="none" opacity="1" stroke="#000000" stroke-width="1" points="902,62 902,67 "/>
</svg>
