<svg width="1024" height="768" viewBox="0 0 1024 768" xmlns="http://www.w3.org/2000/svg">
<rect x="0" y="0" width="1024" height="768" opacity="1" fill="#FFFFFF" stroke="none"/>
<polygon opacity="1" fill="#E6194B" points="78,642 78,548 79,469 80,426 81,392 82,347 83,331 84,297 85,274 86,267 86,228 87,200 88,203 89,204 90,208 91,221 92,205 93,216 94,239 95,244 95,232 96,237 97,238 98,264 99,256 100,259 101,256 102,268 103,276 103,278 104,279 105,267 106,266 107,255 108,262 109,246 110,230 111,234 112,247 112,246 113,232 114,252 115,255 116,241 117,252 118,248 119,245 120,245 120,228 121,205 122,192 123,187 124,169 125,170 126,174 127,165 128,158 129,151 129,142 130,155 131,164 132,179 133,158 134,161 135,143 136,123 137,108 137,103 138,96 139,73 140,75 141,112 142,116 143,122 144,142 145,152 146,141 146,135 147,144 148,144 149,155 150,142 151,126 152,145 153,133 154,121 154,104 155,97 156,114 157,121 158,139 159,136 160,143 161,158 162,157 163,136 163,127 164,122 165,120 166,161 167,147 168,154 169,157 170,157 171,168 171,175 172,176 173,172 174,188 175,196 176,202 177,208 178,205 179,225 180,230 180,237 181,244 182,250 183,238 184,252 185,226 186,221 187,224 188,236 188,235 189,239 190,253 191,243 192,268 193,262 194,271 195,259 196,273 197,280 197,305 198,328 199,334 200,307 201,302 202,320 203,346 204,354 205,337 205,314 206,316 207,320 208,325 209,349 210,344 211,336 212,331 213,336 214,334 214,326 215,315 216,299 217,287 218,303 219,293 220,287 221,298 222,309 222,320 223,337 224,323 225,314 226,307 227,314 228,305 229,298 230,282 231,275 231,291 232,282 233,285 234,293 235,309 236,308 237,309 238,323 239,335 239,316 240,313 241,310 242,303 243,292 244,300 245,285 246,270 247,253 248,251 248,223 249,224 250,235 251,251 252,266 253,254 254,236 255,237 256,259 257,254 257,251 258,255 259,256 260,261 261,249 262,236 263,226 264,207 265,198 265,191 266,188 267,184 268,170 269,152 270,160 271,160 272,189 273,189 274,217 274,245 275,254 276,257 277,262 278,287 279,315 280,332 281,294 282,289 282,299 283,288 284,258 285,249 286,254 287,292 288,324 289,322 290,324 291,317 291,297 292,311 293,306 294,297 295,276 296,251 297,256 298,240 299,256 299,253 300,262 301,274 302,281 303,278 304,285 305,271 306,268 307,279 308,283 308,320 309,319 310,320 311,313 312,310 313,300 314,294 315,319 316,294 316,299 317,318 318,307 319,306 320,305 321,326 322,340 323,331 324,337 325,313 325,319 326,330 327,349 328,356 329,354 330,348 331,363 332,356 333,325 333,333 334,345 335,335 336,305 337,330 338,327 339,335 340,313 341,321 342,333 342,333 343,344 344,355 345,347 346,305 347,299 348,289 349,286 350,334 350,313 351,280 352,253 353,247 354,247 355,222 356,232 357,239 358,237 359,209 359,199 360,206 361,199 362,209 363,255 364,240 365,213 366,209 367,213 367,216 368,207 369,232 370,231 371,236 372,230 373,210 374,205 375,195 376,184 376,188 377,200 378,181 379,187 380,201 381,215 382,222 383,219 384,230 384,230 385,232 386,223 387,232 388,236 389,239 390,248 391,265 392,273 393,250 393,233 394,248 395,256 396,204 397,191 398,198 399,192 400,190 401,192 401,197 402,197 403,178 404,173 405,162 406,165 407,176 408,161 409,157 410,170 410,170 411,173 412,177 413,203 414,220 415,192 416,163 417,165 418,163 418,139 419,144 420,170 421,161 422,154 423,160 424,164 425,165 426,125 427,138 427,144 428,133 429,147 430,154 431,176 432,192 433,187 434,161 435,161 436,139 436,155 437,150 438,139 439,157 440,140 441,148 442,163 443,188 444,197 444,195 445,201 446,209 447,203 448,216 449,223 450,232 451,217 452,230 453,232 453,234 454,241 455,238 456,240 457,223 458,217 459,243 460,265 461,242 461,236 462,256 463,258 464,251 465,258 466,236 467,216 468,212 469,243 470,252 470,226 471,234 472,247 473,245 474,236 475,221 476,216 477,216 478,244 478,249 479,254 480,233 481,236 482,225 483,231 484,229 485,268 486,269 487,264 487,263 488,248 489,254 490,268 491,262 492,236 493,228 494,224 495,257 495,268 496,263 497,246 498,218 499,219 500,228 501,236 502,228 503,200 504,215 504,203 505,238 506,211 507,214 508,230 509,219 510,207 511,234 512,235 512,245 513,233 514,224 515,213 516,231 517,208 518,220 519,248 520,253 521,204 521,201 522,217 523,226 524,225 525,212 526,225 527,249 528,248 529,245 529,223 530,233 531,219 532,246 533,243 534,253 535,270 536,316 537,312 538,304 538,304 539,307 540,283 541,308 542,314 543,288 544,291 545,307 546,297 546,297 547,300 548,310 549,339 550,324 551,322 552,333 553,333 554,360 555,364 555,379 556,381 557,355 558,346 559,351 560,338 561,336 562,337 563,331 563,325 564,345 565,340 566,352 567,354 568,346 569,349 570,326 571,326 572,360 572,350 573,371 574,361 575,331 576,326 577,326 578,328 579,338 580,343 580,351 581,356 582,348 583,382 584,412 585,402 586,403 587,435 588,431 589,430 589,397 590,378 591,378 592,378 593,399 594,391 595,388 596,386 597,411 597,387 598,400 599,392 600,414 601,385 602,377 603,358 604,365 605,361 606,386 606,393 607,393 608,398 609,395 610,383 611,384 612,410 613,399 614,393 615,419 615,406 616,401 617,404 618,391 619,390 620,371 621,375 622,385 623,387 623,393 624,402 625,392 626,351 627,344 628,341 629,334 630,344 631,361 632,361 632,357 633,346 634,321 635,319 636,312 637,292 638,278 639,282 640,306 640,309 641,304 642,312 643,305 644,297 645,290 646,296 647,305 648,325 649,319 649,323 650,296 651,310 652,322 653,329 654,339 655,320 656,298 657,268 657,279 658,273 659,259 660,266 661,288 662,303 663,313 664,311 665,332 666,331 666,318 667,316 668,315 669,345 670,329 671,336 672,332 673,303 674,286 674,304 675,306 676,307 677,302 678,321 679,332 680,340 681,347 682,334 683,328 683,334 684,322 685,316 686,325 687,319 688,308 689,306 690,308 691,299 691,283 692,262 693,247 694,238 695,250 696,274 697,245 698,240 699,236 700,232 700,227 701,211 702,211 703,253 704,257 705,273 706,273 707,251 708,246 708,266 709,258 710,254 711,249 712,250 713,243 714,216 715,206 716,240 717,254 717,255 718,264 719,246 720,237 721,249 722,246 723,238 724,275 725,283 725,284 726,242 727,223 728,271 729,277 730,287 731,272 732,281 733,296 734,303 734,310 735,303 736,309 737,296 738,283 739,318 740,317 741,327 742,313 742,279 743,274 744,290 745,283 746,273 747,280 748,291 749,329 750,327 751,335 751,332 752,306 753,308 754,310 755,302 756,327 757,325 758,319 759,325 759,324 760,330 761,336 762,317 763,314 764,338 765,346 766,324 767,340 768,343 768,341 769,345 770,336 771,341 772,352 773,390 774,359 775,321 776,307 776,318 777,297 778,294 779,293 780,281 781,272 782,253 783,256 784,243 785,250 785,257 786,263 787,249 788,256 789,253 790,253 791,239 792,243 793,247 794,245 794,253 795,253 796,256 797,256 798,256 799,244 800,238 801,238 802,248 802,258 803,271 804,268 805,253 806,243 807,236 808,230 809,217 810,224 811,221 811,221 812,222 813,229 814,221 815,236 816,229 817,230 818,216 819,213 819,214 820,225 821,225 822,210 823,202 824,204 825,211 826,214 827,222 828,214 828,198 829,200 830,182 831,190 832,203 833,204 834,200 835,201 836,230 836,250 837,238 838,234 839,216 840,216 841,203 842,192 843,188 844,197 845,193 845,190 846,190 847,188 848,202 849,188 850,165 851,149 852,112 853,116 853,127 854,159 855,136 856,122 857,119 858,148 859,146 860,122 861,126 862,122 862,135 863,128 864,111 865,117 866,126 867,121 868,93 869,78 870,81 870,103 871,118 872,99 873,85 874,86 875,90 876,117 877,137 878,148 879,178 879,184 880,172 881,176 882,179 883,181 884,194 885,200 886,227 887,231 887,226 888,208 889,205 890,206 891,201 892,180 893,174 894,165 895,168 896,178 896,190 897,175 898,180 899,169 900,170 901,170 902,150 903,148 904,130 904,104 905,95 906,103 907,113 908,116 909,135 910,154 911,173 912,180 913,178 913,200 914,189 915,178 916,186 917,155 918,164 919,152 920,134 921,132 921,119 922,115 923,107 924,121 925,107 926,111 927,122 928,116 929,110 930,116 930,106 931,98 932,98 933,106 934,103 935,105 936,90 937,82 938,88 938,80 939,74 940,72 941,68 942,83 943,91 944,103 945,106 946,101 947,89 947,92 948,77 949,68 950,84 951,79 952,68 953,83 954,93 955,84 955,72 956,85 957,100 958,114 959,127 960,127 961,151 962,153 963,149 964,179 964,198 965,221 966,227 967,264 968,310 969,323 970,397 971,439 972,524 973,615 973,699 973,699 973,699 78,699 "/>
<polyline fill="none" opacity="1" stroke="#E6194B" stroke-width="1" points="78,642 78,548 79,469 80,426 81,392 82,347 83,331 84,297 85,274 86,267 86,228 87,200 88,203 89,204 90,208 91,221 92,205 93,216 94,239 95,244 95,232 96,237 97,238 98,264 99,256 100,259 101,256 102,268 103,276 103,278 104,279 105,267 106,266 107,255 108,262 109,246 110,230 111,234 112,247 112,246 113,232 114,252 115,255 116,241 117,252 118,248 119,245 120,245 120,228 121,205 122,192 123,187 124,169 125,170 126,174 127,165 128,158 129,151 129,142 130,155 131,164 132,179 133,158 134,161 135,143 136,123 137,108 137,103 138,96 139,73 140,75 141,112 142,116 143,122 144,142 145,152 146,141 146,135 147,144 148,144 149,155 150,142 151,126 152,145 153,133 154,121 154,104 155,97 156,114 157,121 158,139 159,136 160,143 161,158 162,157 163,136 163,127 164,122 165,120 166,161 167,147 168,154 169,157 170,157 171,168 171,175 172,176 173,172 174,188 175,196 176,202 177,208 178,205 179,225 180,230 180,237 181,244 182,250 183,238 184,252 185,226 186,221 187,224 188,236 188,235 189,239 190,253 191,243 192,268 193,262 194,271 195,259 196,273 197,280 197,305 198,328 199,334 200,307 201,302 202,320 203,346 204,354 205,337 205,314 206,316 207,320 208,325 209,349 210,344 211,336 212,331 213,336 214,334 214,326 215,315 216,299 217,287 218,303 219,293 220,287 221,298 222,309 222,320 223,337 224,323 225,314 226,307 227,314 228,305 229,298 230,282 231,275 231,291 232,282 233,285 234,293 235,309 236,308 237,309 238,323 239,335 239,316 240,313 241,310 242,303 243,292 244,300 245,285 246,270 247,253 248,251 248,223 249,224 250,235 251,251 252,266 253,254 254,236 255,237 256,259 257,254 257,251 258,255 259,256 260,261 261,249 262,236 263,226 264,207 265,198 265,191 266,188 267,184 268,170 269,152 270,160 271,160 272,189 273,189 274,217 274,245 275,254 276,257 277,262 278,287 279,315 280,332 281,294 282,289 282,299 283,288 284,258 285,249 286,254 287,292 288,324 289,322 290,324 291,317 291,297 292,311 293,306 294,297 295,276 296,251 297,256 298,240 299,256 299,253 300,262 301,274 302,281 303,278 304,285 305,271 306,268 307,279 308,283 308,320 309,319 310,320 311,313 312,310 313,300 314,294 315,319 316,294 316,299 317,318 318,307 319,306 320,305 321,326 322,340 323,331 324,337 325,313 325,319 326,330 327,349 328,356 329,354 330,348 331,363 332,356 333,325 333,333 334,345 335,335 336,305 337,330 338,327 339,335 340,313 341,321 342,333 342,333 343,344 344,355 345,347 346,305 347,299 348,289 349,286 350,334 350,313 351,280 352,253 353,247 354,247 355,222 356,232 357,239 358,237 359,209 359,199 360,206 361,199 362,209 363,255 364,240 365,213 366,209 367,213 367,216 368,207 369,232 370,231 371,236 372,230 373,210 374,205 375,195 376,184 376,188 377,200 378,181 379,187 380,201 381,215 382,222 383,219 384,230 384,230 385,232 386,223 387,232 388,236 389,239 390,248 391,265 392,273 393,250 393,233 394,248 395,256 396,204 397,191 398,198 399,192 400,190 401,192 401,197 402,197 403,178 404,173 405,162 406,165 407,176 408,161 409,157 410,170 410,170 411,173 412,177 413,203 414,220 415,192 416,163 417,165 418,163 418,139 419,144 420,170 421,161 422,154 423,160 424,164 425,165 426,125 427,138 427,144 428,133 429,147 430,154 431,176 432,192 433,187 434,161 435,161 436,139 436,155 437,150 438,139 439,157 440,140 441,148 442,163 443,188 444,197 444,195 445,201 446,209 447,203 448,216 449,223 450,232 451,217 452,230 453,232 453,234 454,241 455,238 456,240 457,223 458,217 459,243 460,265 461,242 461,236 462,256 463,258 464,251 465,258 466,236 467,216 468,212 469,243 470,252 470,226 471,234 472,247 473,245 474,236 475,221 476,216 477,216 478,244 478,249 479,254 480,233 481,236 482,225 483,231 484,229 485,268 486,269 487,264 487,263 488,248 489,254 490,268 491,262 492,236 493,228 494,224 495,257 495,268 496,263 497,246 498,218 499,219 500,228 501,236 502,228 503,200 504,215 504,203 505,238 506,211 507,214 508,230 509,219 510,207 511,234 512,235 512,245 513,233 514,224 515,213 516,231 517,208 518,220 519,248 520,253 521,204 521,201 522,217 523,226 524,225 525,212 526,225 527,249 528,248 529,245 529,223 530,233 531,219 532,246 533,243 534,253 535,270 536,316 537,312 538,304 538,304 539,307 540,283 541,308 542,314 543,288 544,291 545,307 546,297 546,297 547,300 548,310 549,339 550,324 551,322 552,333 553,333 554,360 555,364 555,379 556,381 557,355 558,346 559,351 560,338 561,336 562,337 563,331 563,325 564,345 565,340 566,352 567,354 568,346 569,349 570,326 571,326 572,360 572,350 573,371 574,361 575,331 576,326 577,326 578,328 579,338 580,343 580,351 581,356 582,348 583,382 584,412 585,402 586,403 587,435 588,431 589,430 589,397 590,378 591,378 592,378 593,399 594,391 595,388 596,386 597,411 597,387 598,400 599,392 600,414 601,385 602,377 603,358 604,365 605,361 606,386 606,393 607,393 608,398 609,395 610,383 611,384 612,410 613,399 614,393 615,419 615,406 616,401 617,404 618,391 619,390 620,371 621,375 622,385 623,387 623,393 624,402 625,392 626,351 627,344 628,341 629,334 630,344 631,361 632,361 632,357 633,346 634,321 635,319 636,312 637,292 638,278 639,282 640,306 640,309 641,304 642,312 643,305 644,297 645,290 646,296 647,305 648,325 649,319 649,323 650,296 651,310 652,322 653,329 654,339 655,320 656,298 657,268 657,279 658,273 659,259 660,266 661,288 662,303 663,313 664,311 665,332 666,331 666,318 667,316 668,315 669,345 670,329 671,336 672,332 673,303 674,286 674,304 675,306 676,307 677,302 678,321 679,332 680,340 681,347 682,334 683,328 683,334 684,322 685,316 686,325 687,319 688,308 689,306 690,308 691,299 691,283 692,262 693,247 694,238 695,250 696,274 697,245 698,240 699,236 700,232 700,227 701,211 702,211 703,253 704,257 705,273 706,273 707,251 708,246 708,266 709,258 710,254 711,249 712,250 713,243 714,216 715,206 716,240 717,254 717,255 718,264 719,246 720,237 721,249 722,246 723,238 724,275 725,283 725,284 726,242 727,223 728,271 729,277 730,287 731,272 732,281 733,296 734,303 734,310 735,303 736,309 737,296 738,283 739,318 740,317 741,327 742,313 742,279 743,274 744,290 745,283 746,273 747,280 748,291 749,329 750,327 751,335 751,332 752,306 753,308 754,310 755,302 756,327 757,325 758,319 759,325 759,324 760,330 761,336 762,317 763,314 764,338 765,346 766,324 767,340 768,343 768,341 769,345 770,336 771,341 772,352 773,390 774,359 775,321 776,307 776,318 777,297 778,294 779,293 780,281 781,272 782,253 783,256 784,243 785,250 785,257 786,263 787,249 788,256 789,253 790,253 791,239 792,243 793,247 794,245 794,253 795,253 796,256 797,256 798,256 799,244 800,238 801,238 802,248 802,258 803,271 804,268 805,253 806,243 807,236 808,230 809,217 810,224 811,221 811,221 812,222 813,229 814,221 815,236 816,229 817,230 818,216 819,213 819,214 820,225 821,225 822,210 823,202 824,204 825,211 826,214 827,222 828,214 828,198 829,200 830,182 831,190 832,203 833,204 834,200 835,201 836,230 836,250 837,238 838,234 839,216 840,216 841,203 842,192 843,188 844,197 845,193 845,190 846,190 847,188 848,202 849,188 850,165 851,149 852,112 853,116 853,127 854,159 855,136 856,122 857,119 858,148 859,146 860,122 861,126 862,122 862,135 863,128 864,111 865,117 866,126 867,121 868,93 869,78 870,81 870,103 871,118 872,99 873,85 874,86 875,90 876,117 877,137 878,148 879,178 879,184 880,172 881,176 882,179 883,181 884,194 885,200 886,227 887,231 887,226 888,208 889,205 890,206 891,201 892,180 893,174 894,165 895,168 896,178 896,190 897,175 898,180 899,169 900,170 901,170 902,150 903,148 904,130 904,104 905,95 906,103 907,113 908,116 909,135 910,154 911,173 912,180 913,178 913,200 914,189 915,178 916,186 917,155 918,164 919,152 920,134 921,132 921,119 922,115 923,107 924,121 925,107 926,111 927,122 928,116 929,110 930,116 930,106 931,98 932,98 933,106 934,103 935,105 936,90 937,82 938,88 938,80 939,74 940,72 941,68 942,83 943,91 944,103 945,106 946,101 947,89 947,92 948,77 949,68 950,84 951,79 952,68 953,83 954,93 955,84 955,72 956,85 957,100 958,114 959,127 960,127 961,151 962,153 963,149 964,179 964,198 965,221 966,227 967,264 968,310 969,323 970,397 971,439 972,524 973,615 973,699 973,699 "/>
<line opacity="0.1" stroke="#000000" stroke-width="1" x1="78" y1="699" x2="78" y2="68"/>
<line opacity="0.1" stroke="#000000" stroke-width="1" x1="87" y1="699" x2="87" y2="68"/>
<line opacity="0.1" stroke="#000000" stroke-width="1" x1="96" y1="699" x2="96" y2="68"/>
<line opacity="0.1" stroke="#000000" stroke-width="1" x1="104" y1="699" x2="104" y2="68"/>
<line opacity="0.1" stroke="#000000" stroke-width="1" x1="113" y1="699" x2="113" y2="68"/>
<line opacity="0.1" stroke="#000000" stroke-width="1" x1="122" y1="699" x2="122" y2="68"/>
<line opacity="0.1" stroke="#000000" stroke-width="1" x1="131" y1="699" x2="131" y2="68"/>
<line opacity="0.1" stroke="#000000" stroke-width="1" x1="140" y1="699" x2="140" y2="68"/>
<line opacity="0.1" stroke="#000000" stroke-width="1" x1="149" y1="699" x2="149" y2="68"/>
<line opacity="0.1" stroke="#000000" stroke-width="1" x1="158" y1="699" x2="158" y2="68"/>
<line opacity="0.1" stroke="#000000" stroke-width="1" x1="167" y1="699" x2="167" y2="68"/>
<line opacity="0.1" stroke="#000000" stroke-width="1" x1="176" y1="699" x2="176" y2="68"/>
<line opacity="0.1" stroke="#000000" stroke-width="1" x1="185" y1="699" x2="185" y2="68"/>
<line opacity="0.1" stroke="#000000" stroke-width="1" x1="193" y1="699" x2="193" y2="68"/>
<line opacity="0.1" stroke="#000000" stroke-width="1" x1="202" y1="699" x2="202" y2="68"/>
<line opacity="0.1" stroke="#000000" stroke-width="1" x1="211" y1="699" x2="211" y2="68"/>
<line opacity="0.1" stroke="#000000" stroke-width="1" x1="220" y1="699" x2="220" y2="68"/>
<line opacity="0.1" stroke="#000000" stroke-width="1" x1="229" y1="699" x2="229" y2="68"/>
<line opacity="0.1" stroke="#000000" stroke-width="1" x1="238" y1="699" x2="238" y2="68"/>
<line opacity="0.1" stroke="#000000" stroke-width="1" x1="247" y1="699" x2="247" y2="68"/>
<line opacity="0.1" stroke="#000000" stroke-width="1" x1="256" y1="699" x2="256" y2="68"/>
<line opacity="0.1" stroke="#000000" stroke-width="1" x1="265" y1="699" x2="265" y2="68"/>
<line opacity="0.1" stroke="#000000" stroke-width="1" x1="273" y1="699" x2="273" y2="68"/>
<line opacity="0.1" stroke="#000000" stroke-width="1" x1="282" y1="699" x2="282" y2="68"/>
<line opacity="0.1" stroke="#000000" stroke-width="1" x1="291" y1="699" x2="291" y2="68"/>
<line opacity="0.1" stroke="#000000" stroke-width="1" x1="300" y1="699" x2="300" y2="68"/>
<line opacity="0.1" stroke="#000000" stroke-width="1" x1="309" y1="699" x2="309" y2="68"/>
<line opacity="0.1" stroke="#000000" stroke-width="1" x1="318" y1="699" x2="318" y2="68"/>
<line opacity="0.1" stroke="#000000" stroke-width="1" x1="327" y1="699" x2="327" y2="68"/>
<line opacity="0.1" stroke="#000000" stroke-width="1" x1="336" y1="699" x2="336" y2="68"/>
<line opacity="0.1" stroke="#000000" stroke-width="1" x1="345" y1="699" x2="345" y2="68"/>
<line opacity="0.1" stroke="#000000" stroke-width="1" x1="354" y1="699" x2="354" y2="68"/>
<line opacity="0.1" stroke="#000000" stroke-width="1" x1="362" y1="699" x2="362" y2="68"/>
<line opacity="0.1" stroke="#000000" stroke-width="1" x1="371" y1="699" x2="371" y2="68"/>
<line opacity="0.1" stroke="#000000" stroke-width="1" x1="380" y1="699" x2="380" y2="68"/>
<line opacity="0.1" stroke="#000000" stroke-width="1" x1="389" y1="699" x2="389" y2="68"/>
<line opacity="0.1" stroke="#000000" stroke-width="1" x1="398" y1="699" x2="398" y2="68"/>
<line opacity="0.1" stroke="#000000" stroke-width="1" x1="407" y1="699" x2="407" y2="68"/>
<line opacity="0.1" stroke="#000000" stroke-width="1" x1="416" y1="699" x2="416" y2="68"/>
<line opacity="0.1" stroke="#000000" stroke-width="1" x1="425" y1="699" x2="425" y2="68"/>
<line opacity="0.1" stroke="#000000" stroke-width="1" x1="434" y1="699" x2="434" y2="68"/>
<line opacity="0.1" stroke="#000000" stroke-width="1" x1="442" y1="699" x2="442" y2="68"/>
<line opacity="0.1" stroke="#000000" stroke-width="1" x1="451" y1="699" x2="451" y2="68"/>
<line opacity="0.1" stroke="#000000" stroke-width="1" x1="460" y1="699" x2="460" y2="68"/>
<line opacity="0.1" stroke="#000000" stroke-width="1" x1="469" y1="699" x2="469" y2="68"/>
<line opacity="0.1" stroke="#000000" stroke-width="1" x1="478" y1="699" x2="478" y2="68"/>
<line opacity="0.1" stroke="#000000" stroke-width="1" x1="487" y1="699" x2="487" y2="68"/>
<line opacity="0.1" stroke="#000000" stroke-width="1" x1="496" y1="699" x2="496" y2="68"/>
<line opacity="0.1" stroke="#000000" stroke-width="1" x1="505" y1="699" x2="505" y2="68"/>
<line opacity="0.1" stroke="#000000" stroke-width="1" x1="514" y1="699" x2="514" y2="68"/>
<line opacity="0.1" stroke="#000000" stroke-width="1" x1="522" y1="699" x2="522" y2="68"/>
<line opacity="0.1" stroke="#000000" stroke-width="1" x1="531" y1="699" x2="531" y2="68"/>
<line opacity="0.1" stroke="#000000" stroke-width="1" x1="540" y1="699" x2="540" y2="68"/>
<line opacity="0.1" stroke="#000000" stroke-width="1" x1="549" y1="699" x2="549" y2="68"/>
<line opacity="0.1" stroke="#000000" stroke-width="1" x1="558" y1="699" x2="558" y2="68"/>
<line opacity="0.1" stroke="#000000" stroke-width="1" x1="567" y1="699" x2="567" y2="68"/>
<line opacity="0.1" stroke="#000000" stroke-width="1" x1="576" y1="699" x2="576" y2="68"/>
<line opacity="0.1" stroke="#000000" stroke-width="1" x1="585" y1="699" x2="585" y2="68"/>
<line opacity="0.1" stroke="#000000" stroke-width="1" x1="594" y1="699" x2="594" y2="68"/>
<line opacity="0.1" stroke="#000000" stroke-width="1" x1="603" y1="699" x2="603" y2="68"/>
<line opacity="0.1" stroke="#000000" stroke-width="1" x1="611" y1="699" x2="611" y2="68"/>
<line opacity="0.1" stroke="#000000" stroke-width="1" x1="620" y1="699" x2="620" y2="68"/>
<line opacity="0.1" stroke="#000000" stroke-width="1" x1="629" y1="699" x2="629" y2="68"/>
<line opacity="0.1" stroke="#000000" stroke-width="1" x1="638" y1="699" x2="638" y2="68"/>
<line opacity="0.1" stroke="#000000" stroke-width="1" x1="647" y1="699" x2="647" y2="68"/>
<line opacity="0.1" stroke="#000000" stroke-width="1" x1="656" y1="699" x2="656" y2="68"/>
<line opacity="0.1" stroke="#000000" stroke-width="1" x1="665" y1="699" x2="665" y2="68"/>
<line opacity="0.1" stroke="#000000" stroke-width="1" x1="674" y1="699" x2="674" y2="68"/>
<line opacity="0.1" stroke="#000000" stroke-width="1" x1="683" y1="699" x2="683" y2="68"/>
<line opacity="0.1" stroke="#000000" stroke-width="1" x1="691" y1="699" x2="691" y2="68"/>
<line opacity="0.1" stroke="#000000" stroke-width="1" x1="700" y1="699" x2="700" y2="68"/>
<line opacity="0.1" stroke="#000000" stroke-width="1" x1="709" y1="699" x2="709" y2="68"/>
<line opacity="0.1" stroke="#000000" stroke-width="1" x1="718" y1="699" x2="718" y2="68"/>
<line opacity="0.1" stroke="#000000" stroke-width="1" x1="727" y1="699" x2="727" y2="68"/>
<line opacity="0.1" stroke="#000000" stroke-width="1" x1="736" y1="699" x2="736" y2="68"/>
<line opacity="0.1" stroke="#000000" stroke-width="1" x1="745" y1="699" x2="745" y2="68"/>
<line opacity="0.1" stroke="#000000" stroke-width="1" x1="754" y1="699" x2="754" y2="68"/>
<line opacity="0.1" stroke="#000000" stroke-width="1" x1="763" y1="699" x2="763" y2="68"/>
<line opacity="0.1" stroke="#000000" stroke-width="1" x1="771" y1="699" x2="771" y2="68"/>
<line opacity="0.1" stroke="#000000" stroke-width="1" x1="780" y1="699" x2="780" y2="68"/>
<line opacity="0.1" stroke="#000000" stroke-width="1" x1="789" y1="699" x2="789" y2="68"/>
<line opacity="0.1" stroke="#000000" stroke-width="1" x1="798" y1="699" x2="798" y2="68"/>
<line opacity="0.1" stroke="#000000" stroke-width="1" x1="807" y1="699" x2="807" y2="68"/>
<line opacity="0.1" stroke="#000000" stroke-width="1" x1="816" y1="699" x2="816" y2="68"/>
<line opacity="0.1" stroke="#000000" stroke-width="1" x1="825" y1="699" x2="825" y2="68"/>
<line opacity="0.1" stroke="#000000" stroke-width="1" x1="834" y1="699" x2="834" y2="68"/>
<line opacity="0.1" stroke="#000000" stroke-width="1" x1="843" y1="699" x2="843" y2="68"/>
<line opacity="0.1" stroke="#000000" stroke-width="1" x1="852" y1="699" x2="852" y2="68"/>
<line opacity="0.1" stroke="#000000" stroke-width="1" x1="860" y1="699" x2="860" y2="68"/>
<line opacity="0.1" stroke="#000000" stroke-width="1" x1="869" y1="699" x2="869" y2="68"/>
<line opacity="0.1" stroke="#000000" stroke-width="1" x1="878" y1="699" x2="878" y2="68"/>
<line opacity="0.1" stroke="#000000" stroke-width="1" x1="887" y1="699" x2="887" y2="68"/>
<line opacity="0.1" stroke="#000000" stroke-width="1" x1="896" y1="699" x2="896" y2="68"/>
<line opacity="0.1" stroke="#000000" stroke-width="1" x1="905" y1="699" x2="905" y2="68"/>
<line opacity="0.1" stroke="#000000" stroke-width="1" x1="914" y1="699" x2="914" y2="68"/>
<line opacity="0.1" stroke="#000000" stroke-width="1" x1="923" y1="699" x2="923" y2="68"/>
<line opacity="0.1" stroke="#000000" stroke-width="1" x1="932" y1="699" x2="932" y2="68"/>
<line opacity="0.1" stroke="#000000" stroke-width="1" x1="940" y1="699" x2="940" y2="68"/>
<line opacity="0.1" stroke="#000000" stroke-width="1" x1="949" y1="699" x2="949" y2="68"/>
<line opacity="0.1" stroke="#000000" stroke-width="1" x1="958" y1="699" x2="958" y2="68"/>
<line opacity="0.1" stroke="#000000" stroke-width="1" x1="967" y1="699" x2="967" y2="68"/>
<line opacity="0.1" stroke="#000000" stroke-width="1" x1="78" y1="699" x2="973" y2="699"/>
<line opacity="0.1" stroke="#000000" stroke-width="1" x1="78" y1="689" x2="973" y2="689"/>
<line opacity="0.1" stroke="#000000" stroke-width="1" x1="78" y1="679" x2="973" y2="679"/>
<line opacity="0.1" stroke="#000000" stroke-width="1" x1="78" y1="669" x2="973" y2="669"/>
<line opacity="0.1" stroke="#000000" stroke-width="1" x1="78" y1="659" x2="973" y2="659"/>
<line opacity="0.1" stroke="#000000" stroke-width="1" x1="78" y1="650" x2="973" y2="650"/>
<line opacity="0.1" stroke="#000000" stroke-width="1" x1="78" y1="640" x2="973" y2="640"/>
<line opacity="0.1" stroke="#000000" stroke-width="1" x1="78" y1="630" x2="973" y2="630"/>
<line opacity="0.1" stroke="#000000" stroke-width="1" x1="78" y1="620" x2="973" y2="620"/>
<line opacity="0.1" stroke="#000000" stroke-width="1" x1="78" y1="610" x2="973" y2="610"/>
<line opacity="0.1" stroke="#000000" stroke-width="1" x1="78" y1="601" x2="973" y2="601"/>
<line opacity="0.1" stroke="#000000" stroke-width="1" x1="78" y1="591" x2="973" y2="591"/>
<line opacity="0.1" stroke="#000000" stroke-width="1" x1="78" y1="581" x2="973" y2="581"/>
<line opacity="0.1" stroke="#000000" stroke-width="1" x1="78" y1="571" x2="973" y2="571"/>
<line opacity="0.1" stroke="#000000" stroke-width="1" x1="78" y1="561" x2="973" y2="561"/>
<line opacity="0.1" stroke="#000000" stroke-width="1" x1="78" y1="552" x2="973" y2="552"/>
<line opacity="0.1" stroke="#000000" stroke-width="1" x1="78" y1="542" x2="973" y2="542"/>
<line opacity="0.1" stroke="#000000" stroke-width="1" x1="78" y1="532" x2="973" y2="532"/>
<line opacity="0.1" stroke="#000000" stroke-width="1" x1="78" y1="522" x2="973" y2="522"/>
<line opacity="0.1" stroke="#000000" stroke-width="1" x1="78" y1="513" x2="973" y2="513"/>
<line opacity="0.1" stroke="#000000" stroke-width="1" x1="78" y1="503" x2="973" y2="503"/>
<line opacity="0.1" stroke="#000000" stroke-width="1" x1="78" y1="493" x2="973" y2="493"/>
<line opacity="0.1" stroke="#000000" stroke-width="1" x1="78" y1="483" x2="973" y2="483"/>
<line opacity="0.1" stroke="#000000" stroke-width="1" x1="78" y1="473" x2="973" y2="473"/>
<line opacity="0.1" stroke="#000000" stroke-width="1" x1="78" y1="464" x2="973" y2="464"/>
<line opacity="0.1" stroke="#000000" stroke-width="1" x1="78" y1="454" x2="973" y2="454"/>
<line opacity="0.1" stroke="#000000" stroke-width="1" x1="78" y1="444" x2="973" y2="444"/>
<line opacity="0.1" stroke="#000000" stroke-width="1" x1="78" y1="434" x2="973" y2="434"/>
<line opacity="0.1" stroke="#000000" stroke-width="1" x1="78" y1="424" x2="973" y2="424"/>
<line opacity="0.1" stroke="#000000" stroke-width="1" x1="78" y1="415" x2="973" y2="415"/>
<line opacity="0.1" stroke="#000000" stroke-width="1" x1="78" y1="405" x2="973" y2="405"/>
<line opacity="0.1" stroke="#000000" stroke-width="1" x1="78" y1="395" x2="973" y2="395"/>
<line opacity="0.1" stroke="#000000" stroke-width="1" x1="78" y1="385" x2="973" y2="385"/>
<line opacity="0.1" stroke="#000000" stroke-width="1" x1="78" y1="375" x2="973" y2="375"/>
<line opacity="0.1" stroke="#000000" stroke-width="1" x1="78" y1="366" x2="973" y2="366"/>
<line opacity="0.1" stroke="#000000" stroke-width="1" x1="78" y1="356" x2="973" y2="356"/>
<line opacity="0.1" stroke="#000000" stroke-width="1" x1="78" y1="346" x2="973" y2="346"/>
<line opacity="0.1" stroke="#000000" stroke-width="1" x1="78" y1="336" x2="973" y2="336"/>
<line opacity="0.1" stroke="#000000" stroke-width="1" x1="78" y1="327" x2="973" y2="327"/>
<line opacity="0.1" stroke="#000000" stroke-width="1" x1="78" y1="317" x2="973" y2="317"/>
<line opacity="0.1" stroke="#000000" stroke-width="1" x1="78" y1="307" x2="973" y2="307"/>
<line opacity="0.1" stroke="#000000" stroke-width="1" x1="78" y1="297" x2="973" y2="297"/>
<line opacity="0.1" stroke="#000000" stroke-width="1" x1="78" y1="287" x2="973" y2="287"/>
<line opacity="0.1" stroke="#000000" stroke-width="1" x1="78" y1="278" x2="973" y2="278"/>
<line opacity="0.1" stroke="#000000" stroke-width="1" x1="78" y1="268" x2="973" y2="268"/>
<line opacity="0.1" stroke="#000000" stroke-width="1" x1="78" y1="258" x2="973" y2="258"/>
<line opacity="0.1" stroke="#000000" stroke-width="1" x1="78" y1="248" x2="973" y2="248"/>
<line opacity="0.1" stroke="#000000" stroke-width="1" x1="78" y1="238" x2="973" y2="238"/>
<line opacity="0.1" stroke="#000000" stroke-width="1" x1="78" y1="229" x2="973" y2="229"/>
<line opacity="0.1" stroke="#000000" stroke-width="1" x1="78" y1="219" x2="973" y2="219"/>
<line opacity="0.1" stroke="#000000" stroke-width="1" x1="78" y1="209" x2="973" y2="209"/>
<line opacity="0.1" stroke="#000000" stroke-width="1" x1="78" y1="199" x2="973" y2="199"/>
<line opacity="0.1" stroke="#000000" stroke-width="1" x1="78" y1="189" x2="973" y2="189"/>
<line opacity="0.1" stroke="#000000" stroke-width="1" x1="78" y1="180" x2="973" y2="180"/>
<line opacity="0.1" stroke="#000000" stroke-width="1" x1="78" y1="170" x2="973" y2="170"/>
<line opacity="0.1" stroke="#000000" stroke-width="1" x1="78" y1="160" x2="973" y2="160"/>
<line opacity="0.1" stroke="#000000" stroke-width="1" x1="78" y1="150" x2="973" y2="150"/>
<line opacity="0.1" stroke="#000000" stroke-width="1" x1="78" y1="141" x2="973" y2="141"/>
<line opacity="0.1" stroke="#000000" stroke-width="1" x1="78" y1="131" x2="973" y2="131"/>
<line opacity="0.1" stroke="#000000" stroke-width="1" x1="78" y1="121" x2="973" y2="121"/>
<line opacity="0.1" stroke="#000000" stroke-width="1" x1="78" y1="111" x2="973" y2="111"/>
<line opacity="0.1" stroke="#000000" stroke-width="1" x1="78" y1="101" x2="973" y2="101"/>
<line opacity="0.1" stroke="#000000" stroke-width="1" x1="78" y1="92" x2="973" y2="92"/>
<line opacity="0.1" stroke="#000000" stroke-width="1" x1="78" y1="82" x2="973" y2="82"/>
<line opacity="0.1" stroke="#000000" stroke-width="1" x1="78" y1="72" x2="973" y2="72"/>
<text x="8" y="384" dy="0.76em" text-anchor="middle" font-family="sans-serif" font-size="9.67741935483871" opacity="1" fill="#000000" transform="rotate(270, 8, 384)">
Memory usage
</text>
<text x="526" y="760" dy="-0.5ex" text-anchor="middle" font-family="sans-serif" font-size="9.67741935483871" opacity="1" fill="#000000">
Time
</text>
<line opacity="0.2" stroke="#000000" stroke-width="1" x1="211" y1="699" x2="211" y2="68"/>
<line opacity="0.2" stroke="#000000" stroke-width="1" x1="389" y1="699" x2="389" y2="68"/>
<line opacity="0.2" stroke="#000000" stroke-width="1" x1="567" y1="699" x2="567" y2="68"/>
<line opacity="0.2" stroke="#000000" stroke-width="1" x1="745" y1="699" x2="745" y2="68"/>
<line opacity="0.2" stroke="#000000" stroke-width="1" x1="923" y1="699" x2="923" y2="68"/>
<line opacity="0.2" stroke="#000000" stroke-width="1" x1="78" y1="699" x2="973" y2="699"/>
<line opacity="0.2" stroke="#000000" stroke-width="1" x1="78" y1="601" x2="973" y2="601"/>
<line opacity="0.2" stroke="#000000" stroke-width="1" x1="78" y1="503" x2="973" y2="503"/>
<line opacity="0.2" stroke="#000000" stroke-width="1" x1="78" y1="405" x2="973" y2="405"/>
<line opacity="0.2" stroke="#000000" stroke-width="1" x1="78" y1="307" x2="973" y2="307"/>
<line opacity="0.2" stroke="#000000" stroke-width="1" x1="78" y1="209" x2="973" y2="209"/>
<line opacity="0.2" stroke="#000000" stroke-width="1" x1="78" y1="111" x2="973" y2="111"/>
<polyline fill="none" opacity="1" stroke="#000000" stroke-width="1" points="77,68 77,699 "/>
<text x="68" y="699" dy="0.5ex" text-anchor="end" font-family="sans-serif" font-size="9.67741935483871" opacity="1" fill="#000000">
0 KB
</text>
<polyline fill="none" opacity="1" stroke="#000000" stroke-width="1" points="72,699 77,699 "/>
<text x="68" y="601" dy="0.5ex" text-anchor="end" font-family="sans-serif" font-size="9.67741935483871" opacity="1" fill="#000000">
48 KB
</text>
<polyline fill="none" opacity="1" stroke="#000000" stroke-width="1" points="72,601 77,601 "/>
<text x="68" y="503" dy="0.5ex" text-anchor="end" font-family="sans-serif" font-size="9.67741935483871" opacity="1" fill="#000000">
97 KB
</text>
<polyline fill="none" opacity="1" stroke="#000000" stroke-width="1" points="72,503 77,503 "/>
<text x="68" y="405" dy="0.5ex" text-anchor="end" font-family="sans-serif" font-size="9.67741935483871" opacity="1" fill="#000000">
146 KB
</text>
<polyline fill="none" opacity="1" stroke="#000000" stroke-width="1" points="72,405 77,405 "/>
<text x="68" y="307" dy="0.5ex" text-anchor="end" font-family="sans-serif" font-size="9.67741935483871" opacity="1" fill="#000000">
195 KB
</text>
<polyline fill="none" opacity="1" stroke="#000000" stroke-width="1" points="72,307 77,307 "/>
<text x="68" y="209" dy="0.5ex" text-anchor="end" font-family="sans-serif" font-size="9.67741935483871" opacity="1" fill="#000000">
244 KB
</text>
<polyline fill="none" opacity="1" stroke="#000000" stroke-width="1" points="72,209 77,209 "/>
<text x="68" y="111" dy="0.5ex" text-anchor="end" font-family="sans-serif" font-size="9.67741935483871" opacity="1" fill="#000000">
292 KB
</text>
<polyline fill="none" opacity="1" stroke="#000000" stroke-width="1" points="72,111 77,111 "/>
<polyline fill="none" opacity="1" stroke="#000000" stroke-width="1" points="78,700 973,700 "/>
<text x="211" y="710" dy="0.76em" text-anchor="middle" font-family="sans-serif" font-size="9.67741935483871" opacity="1" fill="#000000">
02:04:20
</text>
<polyline fill="none" opacity="1" stroke="#000000" stroke-width="1" points="211,700 211,705 "/>
<text x="389" y="710" dy="0.76em" text-anchor="middle" font-family="sans-serif" font-size="9.67741935483871" opacity="1" fill="#000000">
02:04:21
</text>
<polyline fill="none" opacity="1" stroke="#000000" stroke-width="1" points="389,700 389,705 "/>
<text x="567" y="710" dy="0.76em" text-anchor="middle" font-family="sans-serif" font-size="9.67741935483871" opacity="1" fill="#000000">
02:04:22
</text>
<polyline fill="none" opacity="1" stroke="#000000" stroke-width="1" points="567,700 567,705 "/>
<text x="745" y="710" dy="0.76em" text-anchor="middle" font-family="sans-serif" font-size="9.67741935483871" opacity="1" fill="#000000">
02:04:23
</text>
<polyline fill="none" opacity="1" stroke="#000000" stroke-width="1" points="745,700 745,705 "/>
<text x="923" y="710" dy="0.76em" text-anchor="middle" font-family="sans-serif" font-size="9.67741935483871" opacity="1" fill="#000000">
02:04:24
</text>
<polyline fill="none" opacity="1" stroke="#000000" stroke-width="1" points="923,700 923,705 "/>
<polyline fill="none" opacity="1" stroke="#000000" stroke-width="1" points="78,67 974,67 "/>
<text x="211" y="58" dy="-0.5ex" text-anchor="middle" font-family="sans-serif" font-size="9.67741935483871" opacity="1" fill="#000000">
+3s
</text>
<polyline fill="none" opacity="1" stroke="#000000" stroke-width="1" points="211,62 211,67 "/>
<text x="389" y="58" dy="-0.5ex" text-anchor="middle" font-family="sans-serif" font-size="9.67741935483871" opacity="1" fill="#000000">
+4s
</text>
<polyline fill="none" opacity="1" stroke="#000000" stroke-width="1" points="389,62 389,67 "/>
<text x="567" y="58" dy="-0.5ex" text-anchor="middle" font-family="sans-serif" font-size="9.67741935483871" opacity="1" fill="#000000">
+5s
</text>
<polyline fill="none" opacity="1" stroke="#000000" stroke-width="1" points="567,62 567,67 "/>
<text x="746" y="58" dy="-0.5ex" text-anchor="middle" font-family="sans-serif" font-size="9.67741935483871" opacity="1" fill="#000000">
+6s
</text>
<polyline fill="none" opacity="1" stroke="#000000" stroke-width="1" points="746,62 746,67 "/>
<text x="924" y="58" dy="-0.5ex" text-anchor="middle" font-family="sans-serif" font-size="9.67741935483871" opacity="1" fill="#000000">
+7s
</text>
<polyline fill="none" opacity="1" stroke="#000000" stroke-width="1" points="924,62 924,67 "/>
</svg>
