<svg width="1024" height="768" viewBox="0 0 1024 768" xmlns="http://www.w3.org/2000/svg">
<rect x="0" y="0" width="1024" height="768" opacity="1" fill="#FFFFFF" stroke="none"/>
<polygon opacity="1" fill="#E6194B" points="435,624 436,586 437,580 437,577 438,552 438,535 439,531 439,530 440,518 440,522 441,526 441,510 442,506 442,507 443,505 444,511 444,523 445,511 445,509 446,511 446,508 447,512 447,519 448,518 448,515 449,509 449,502 450,497 451,500 451,501 452,496 452,501 453,511 453,512 454,513 454,516 455,517 455,513 456,517 456,520 457,523 457,529 458,534 459,519 459,516 460,528 460,503 461,498 461,498 462,497 462,499 463,498 463,500 464,491 464,484 465,485 466,486 466,482 467,482 467,487 468,487 468,488 469,495 469,499 470,496 470,484 471,484 471,473 472,475 473,488 473,479 474,482 474,483 475,474 475,466 476,472 476,470 477,476 477,478 478,490 478,492 479,481 480,479 480,471 481,476 481,471 482,472 482,471 483,476 483,492 484,499 484,495 485,497 485,504 486,498 486,504 487,510 488,504 488,510 489,510 489,511 490,513 490,514 491,503 491,507 492,515 492,515 493,512 493,520 494,518 495,521 495,511 496,502 496,501 497,517 497,506 498,510 498,515 499,511 499,506 500,504 500,501 501,510 502,515 502,509 503,510 503,505 504,505 504,508 505,526 505,521 506,521 506,514 507,518 507,523 508,510 509,505 509,503 510,518 510,526 511,513 511,500 512,501 512,505 513,510 513,494 514,492 514,493 515,509 515,496 516,497 517,501 517,494 518,506 518,510 519,505 519,502 520,496 520,498 521,494 521,511 522,513 522,492 523,491 524,498 524,501 525,495 525,501 526,510 526,509 527,499 527,503 528,498 528,508 529,512 529,519 530,536 531,538 531,534 532,534 532,525 533,525 533,538 534,527 534,529 535,530 535,530 536,532 536,538 537,550 538,541 538,545 539,546 539,557 540,559 540,566 541,555 541,551 542,553 542,546 543,546 543,545 544,541 544,550 545,548 546,552 546,550 547,551 547,541 548,546 548,551 549,556 549,556 550,540 550,543 551,540 551,542 552,547 553,551 553,550 554,556 554,576 555,573 555,573 556,586 556,585 557,571 557,562 558,562 558,568 559,568 560,566 560,565 561,565 561,566 562,567 562,569 563,564 563,556 564,552 564,554 565,558 565,567 566,567 567,568 567,563 568,563 568,572 569,567 569,573 570,573 570,572 571,570 571,565 572,562 572,557 573,563 573,564 574,566 575,567 575,552 576,545 576,543 577,540 577,547 578,552 578,549 579,542 579,534 580,531 580,521 581,515 582,516 582,530 583,526 583,529 584,528 584,523 585,520 585,522 586,530 586,532 587,530 587,522 588,528 589,536 589,540 590,531 590,518 591,509 591,511 592,505 592,508 593,520 593,524 594,527 594,532 595,536 595,529 596,528 597,538 597,535 598,534 598,529 599,516 599,516 600,524 600,524 601,522 601,532 602,539 602,542 603,536 604,533 604,537 605,528 605,532 606,529 606,523 607,524 607,522 608,513 608,503 609,493 609,495 610,505 611,496 611,492 612,493 612,488 613,481 613,481 614,499 614,501 615,508 615,500 616,496 616,503 617,499 618,497 618,497 619,495 619,478 620,478 620,498 621,499 621,502 622,490 622,493 623,494 623,490 624,504 624,508 625,506 626,484 626,438 627,443 627,446 628,441 628,447 629,451 629,460 630,454 630,454 631,444 631,447 632,459 633,462 633,447 634,439 634,442 635,444 635,439 636,442 636,453 637,462 637,466 638,464 638,453 639,454 640,451 640,456 641,458 641,458 642,461 642,460 643,465 643,456 644,459 644,468 645,460 645,461 646,467 647,468 647,465 648,467 648,470 649,488 649,470 650,451 650,454 651,447 651,445 652,443 652,437 653,433 653,427 654,423 655,426 655,429 656,425 656,429 657,427 657,427 658,421 658,424 659,423 659,426 660,426 660,431 661,427 662,423 662,419 663,419 663,423 664,433 664,432 665,425 665,421 666,416 666,409 667,412 667,411 668,411 669,411 669,412 670,410 670,414 671,413 671,408 672,407 672,412 673,412 673,405 674,402 674,407 675,405 676,409 676,404 677,400 677,393 678,395 678,402 679,403 679,400 680,402 680,420 681,417 681,412 682,407 682,406 683,397 684,395 684,397 685,397 685,395 686,394 686,397 687,390 687,381 688,366 688,360 689,367 689,380 690,367 691,363 691,376 692,374 692,364 693,364 693,373 694,367 694,359 695,362 695,368 696,354 696,345 697,344 698,357 698,359 699,347 699,347 700,349 700,361 701,370 701,384 702,390 702,385 703,392 703,387 704,391 705,394 705,408 706,411 706,399 707,399 707,398 708,393 708,385 709,383 709,381 710,383 710,391 711,385 711,386 712,382 713,383 713,373 714,370 714,363 715,349 715,353 716,357 716,358 717,368 717,381 718,387 718,385 719,395 720,387 720,385 721,375 721,379 722,369 722,366 723,362 723,357 724,354 724,354 725,353 725,357 726,357 727,354 727,356 728,349 728,349 729,352 729,351 730,347 730,345 731,342 731,342 732,338 732,335 733,337 734,345 734,349 735,352 735,348 736,343 736,334 737,330 737,336 738,331 738,329 739,340 739,336 740,330 740,336 741,346 742,353 742,350 743,358 743,353 744,356 744,359 745,360 745,358 746,359 746,351 747,357 747,354 748,345 749,338 749,336 750,321 750,324 751,326 751,340 752,333 752,337 753,337 753,340 754,356 754,359 755,355 756,342 756,346 757,349 757,350 758,355 758,361 759,367 759,377 760,394 760,394 761,381 761,372 762,362 762,363 763,356 764,346 764,342 765,332 765,325 766,333 766,329 767,332 767,330 768,323 768,329 769,331 769,328 770,337 771,340 771,346 772,336 772,333 773,349 773,341 774,333 774,339 775,327 775,338 776,329 776,319 777,317 778,307 778,308 779,308 779,315 780,310 780,315 781,322 781,325 782,318 782,318 783,337 783,332 784,337 785,339 785,344 786,348 786,338 787,330 787,314 788,318 788,333 789,336 789,338 790,344 790,335 791,325 791,322 792,321 793,314 793,317 794,315 794,304 795,300 795,296 796,304 796,294 797,292 797,280 798,282 798,283 799,285 800,288 800,277 801,278 801,278 802,279 802,292 803,301 803,313 804,308 804,317 805,304 805,316 806,320 807,309 807,312 808,322 808,321 809,331 809,326 810,327 810,317 811,322 811,317 812,318 812,324 813,319 814,305 814,305 815,297 815,295 816,310 816,307 817,309 817,302 818,298 818,287 819,287 819,300 820,305 820,311 821,317 822,304 822,304 823,301 823,299 824,302 824,302 825,289 825,278 826,275 826,282 827,292 827,295 828,296 829,301 829,301 830,296 830,295 831,295 831,293 832,288 832,285 833,294 833,279 834,280 834,268 835,256 836,251 836,243 837,241 837,239 838,232 838,228 839,225 839,227 840,227 840,232 841,250 841,263 842,261 843,252 843,251 844,249 844,251 845,239 845,235 846,233 846,232 847,238 847,245 848,249 848,240 849,231 849,230 850,251 851,255 851,242 852,238 852,234 853,239 853,235 854,205 854,210 855,215 855,212 856,215 856,211 857,205 858,202 858,187 859,187 859,194 860,194 860,186 861,191 861,188 862,189 862,206 863,209 863,213 864,220 865,224 865,226 866,222 866,222 867,219 867,213 868,208 868,218 869,212 869,199 870,187 870,179 871,189 872,185 872,193 873,194 873,194 874,201 874,203 875,199 875,201 876,184 876,180 877,192 877,194 878,196 878,194 879,193 880,187 880,192 881,190 881,187 882,184 882,185 883,192 883,193 884,197 884,203 885,204 885,198 886,193 887,189 887,180 888,182 888,184 889,183 889,174 890,177 890,182 891,181 891,182 892,182 892,167 893,164 894,170 894,172 895,185 895,181 896,157 896,157 897,168 897,167 898,170 898,176 899,178 899,184 900,180 901,182 901,190 902,199 902,195 903,194 903,189 904,186 904,175 905,178 905,193 906,210 906,213 907,218 907,213 908,214 909,209 909,207 910,201 910,199 911,192 911,188 912,185 912,177 913,178 913,173 914,175 914,168 915,156 916,146 916,153 917,170 917,170 918,170 918,172 919,169 919,181 920,186 920,179 921,185 921,183 922,184 923,191 923,182 924,181 924,173 925,162 925,156 926,160 926,155 927,159 927,167 928,174 928,170 929,176 929,180 930,172 931,165 931,161 932,130 932,130 933,134 933,136 934,134 934,141 935,157 935,163 936,141 936,136 937,128 938,124 938,122 939,122 939,112 940,116 940,131 941,125 941,136 942,143 942,138 943,146 943,147 944,150 945,145 945,136 946,132 946,120 947,115 947,121 948,114 948,104 949,108 949,113 950,105 950,110 951,122 952,119 952,123 953,123 953,120 954,110 954,110 955,110 955,118 956,126 956,134 957,135 957,131 958,126 958,108 959,97 960,94 960,84 961,81 961,73 962,68 962,71 963,72 963,72 964,70 964,68 965,71 965,69 966,75 967,83 967,83 968,88 968,98 969,104 969,112 970,109 970,96 971,82 971,83 972,88 972,145 972,699 973,699 973,699 435,699 "/>
<polyline fill="none" opacity="1" stroke="#E6194B" stroke-width="1" points="435,624 436,586 437,580 437,577 438,552 438,535 439,531 439,530 440,518 440,522 441,526 441,510 442,506 442,507 443,505 444,511 444,523 445,511 445,509 446,511 446,508 447,512 447,519 448,518 448,515 449,509 449,502 450,497 451,500 451,501 452,496 452,501 453,511 453,512 454,513 454,516 455,517 455,513 456,517 456,520 457,523 457,529 458,534 459,519 459,516 460,528 460,503 461,498 461,498 462,497 462,499 463,498 463,500 464,491 464,484 465,485 466,486 466,482 467,482 467,487 468,487 468,488 469,495 469,499 470,496 470,484 471,484 471,473 472,475 473,488 473,479 474,482 474,483 475,474 475,466 476,472 476,470 477,476 477,478 478,490 478,492 479,481 480,479 480,471 481,476 481,471 482,472 482,471 483,476 483,492 484,499 484,495 485,497 485,504 486,498 486,504 487,510 488,504 488,510 489,510 489,511 490,513 490,514 491,503 491,507 492,515 492,515 493,512 493,520 494,518 495,521 495,511 496,502 496,501 497,517 497,506 498,510 498,515 499,511 499,506 500,504 500,501 501,510 502,515 502,509 503,510 503,505 504,505 504,508 505,526 505,521 506,521 506,514 507,518 507,523 508,510 509,505 509,503 510,518 510,526 511,513 511,500 512,501 512,505 513,510 513,494 514,492 514,493 515,509 515,496 516,497 517,501 517,494 518,506 518,510 519,505 519,502 520,496 520,498 521,494 521,511 522,513 522,492 523,491 524,498 524,501 525,495 525,501 526,510 526,509 527,499 527,503 528,498 528,508 529,512 529,519 530,536 531,538 531,534 532,534 532,525 533,525 533,538 534,527 534,529 535,530 535,530 536,532 536,538 537,550 538,541 538,545 539,546 539,557 540,559 540,566 541,555 541,551 542,553 542,546 543,546 543,545 544,541 544,550 545,548 546,552 546,550 547,551 547,541 548,546 548,551 549,556 549,556 550,540 550,543 551,540 551,542 552,547 553,551 553,550 554,556 554,576 555,573 555,573 556,586 556,585 557,571 557,562 558,562 558,568 559,568 560,566 560,565 561,565 561,566 562,567 562,569 563,564 563,556 564,552 564,554 565,558 565,567 566,567 567,568 567,563 568,563 568,572 569,567 569,573 570,573 570,572 571,570 571,565 572,562 572,557 573,563 573,564 574,566 575,567 575,552 576,545 576,543 577,540 577,547 578,552 578,549 579,542 579,534 580,531 580,521 581,515 582,516 582,530 583,526 583,529 584,528 584,523 585,520 585,522 586,530 586,532 587,530 587,522 588,528 589,536 589,540 590,531 590,518 591,509 591,511 592,505 592,508 593,520 593,524 594,527 594,532 595,536 595,529 596,528 597,538 597,535 598,534 598,529 599,516 599,516 600,524 600,524 601,522 601,532 602,539 602,542 603,536 604,533 604,537 605,528 605,532 606,529 606,523 607,524 607,522 608,513 608,503 609,493 609,495 610,505 611,496 611,492 612,493 612,488 613,481 613,481 614,499 614,501 615,508 615,500 616,496 616,503 617,499 618,497 618,497 619,495 619,478 620,478 620,498 621,499 621,502 622,490 622,493 623,494 623,490 624,504 624,508 625,506 626,484 626,438 627,443 627,446 628,441 628,447 629,451 629,460 630,454 630,454 631,444 631,447 632,459 633,462 633,447 634,439 634,442 635,444 635,439 636,442 636,453 637,462 637,466 638,464 638,453 639,454 640,451 640,456 641,458 641,458 642,461 642,460 643,465 643,456 644,459 644,468 645,460 645,461 646,467 647,468 647,465 648,467 648,470 649,488 649,470 650,451 650,454 651,447 651,445 652,443 652,437 653,433 653,427 654,423 655,426 655,429 656,425 656,429 657,427 657,427 658,421 658,424 659,423 659,426 660,426 660,431 661,427 662,423 662,419 663,419 663,423 664,433 664,432 665,425 665,421 666,416 666,409 667,412 667,411 668,411 669,411 669,412 670,410 670,414 671,413 671,408 672,407 672,412 673,412 673,405 674,402 674,407 675,405 676,409 676,404 677,400 677,393 678,395 678,402 679,403 679,400 680,402 680,420 681,417 681,412 682,407 682,406 683,397 684,395 684,397 685,397 685,395 686,394 686,397 687,390 687,381 688,366 688,360 689,367 689,380 690,367 691,363 691,376 692,374 692,364 693,364 693,373 694,367 694,359 695,362 695,368 696,354 696,345 697,344 698,357 698,359 699,347 699,347 700,349 700,361 701,370 701,384 702,390 702,385 703,392 703,387 704,391 705,394 705,408 706,411 706,399 707,399 707,398 708,393 708,385 709,383 709,381 710,383 710,391 711,385 711,386 712,382 713,383 713,373 714,370 714,363 715,349 715,353 716,357 716,358 717,368 717,381 718,387 718,385 719,395 720,387 720,385 721,375 721,379 722,369 722,366 723,362 723,357 724,354 724,354 725,353 725,357 726,357 727,354 727,356 728,349 728,349 729,352 729,351 730,347 730,345 731,342 731,342 732,338 732,335 733,337 734,345 734,349 735,352 735,348 736,343 736,334 737,330 737,336 738,331 738,329 739,340 739,336 740,330 740,336 741,346 742,353 742,350 743,358 743,353 744,356 744,359 745,360 745,358 746,359 746,351 747,357 747,354 748,345 749,338 749,336 750,321 750,324 751,326 751,340 752,333 752,337 753,337 753,340 754,356 754,359 755,355 756,342 756,346 757,349 757,350 758,355 758,361 759,367 759,377 760,394 760,394 761,381 761,372 762,362 762,363 763,356 764,346 764,342 765,332 765,325 766,333 766,329 767,332 767,330 768,323 768,329 769,331 769,328 770,337 771,340 771,346 772,336 772,333 773,349 773,341 774,333 774,339 775,327 775,338 776,329 776,319 777,317 778,307 778,308 779,308 779,315 780,310 780,315 781,322 781,325 782,318 782,318 783,337 783,332 784,337 785,339 785,344 786,348 786,338 787,330 787,314 788,318 788,333 789,336 789,338 790,344 790,335 791,325 791,322 792,321 793,314 793,317 794,315 794,304 795,300 795,296 796,304 796,294 797,292 797,280 798,282 798,283 799,285 800,288 800,277 801,278 801,278 802,279 802,292 803,301 803,313 804,308 804,317 805,304 805,316 806,320 807,309 807,312 808,322 808,321 809,331 809,326 810,327 810,317 811,322 811,317 812,318 812,324 813,319 814,305 814,305 815,297 815,295 816,310 816,307 817,309 817,302 818,298 818,287 819,287 819,300 820,305 820,311 821,317 822,304 822,304 823,301 823,299 824,302 824,302 825,289 825,278 826,275 826,282 827,292 827,295 828,296 829,301 829,301 830,296 830,295 831,295 831,293 832,288 832,285 833,294 833,279 834,280 834,268 835,256 836,251 836,243 837,241 837,239 838,232 838,228 839,225 839,227 840,227 840,232 841,250 841,263 842,261 843,252 843,251 844,249 844,251 845,239 845,235 846,233 846,232 847,238 847,245 848,249 848,240 849,231 849,230 850,251 851,255 851,242 852,238 852,234 853,239 853,235 854,205 854,210 855,215 855,212 856,215 856,211 857,205 858,202 858,187 859,187 859,194 860,194 860,186 861,191 861,188 862,189 862,206 863,209 863,213 864,220 865,224 865,226 866,222 866,222 867,219 867,213 868,208 868,218 869,212 869,199 870,187 870,179 871,189 872,185 872,193 873,194 873,194 874,201 874,203 875,199 875,201 876,184 876,180 877,192 877,194 878,196 878,194 879,193 880,187 880,192 881,190 881,187 882,184 882,185 883,192 883,193 884,197 884,203 885,204 885,198 886,193 887,189 887,180 888,182 888,184 889,183 889,174 890,177 890,182 891,181 891,182 892,182 892,167 893,164 894,170 894,172 895,185 895,181 896,157 896,157 897,168 897,167 898,170 898,176 899,178 899,184 900,180 901,182 901,190 902,199 902,195 903,194 903,189 904,186 904,175 905,178 905,193 906,210 906,213 907,218 907,213 908,214 909,209 909,207 910,201 910,199 911,192 911,188 912,185 912,177 913,178 913,173 914,175 914,168 915,156 916,146 916,153 917,170 917,170 918,170 918,172 919,169 919,181 920,186 920,179 921,185 921,183 922,184 923,191 923,182 924,181 924,173 925,162 925,156 926,160 926,155 927,159 927,167 928,174 928,170 929,176 929,180 930,172 931,165 931,161 932,130 932,130 933,134 933,136 934,134 934,141 935,157 935,163 936,141 936,136 937,128 938,124 938,122 939,122 939,112 940,116 940,131 941,125 941,136 942,143 942,138 943,146 943,147 944,150 945,145 945,136 946,132 946,120 947,115 947,121 948,114 948,104 949,108 949,113 950,105 950,110 951,122 952,119 952,123 953,123 953,120 954,110 954,110 955,110 955,118 956,126 956,134 957,135 957,131 958,126 958,108 959,97 960,94 960,84 961,81 961,73 962,68 962,71 963,72 963,72 964,70 964,68 965,71 965,69 966,75 967,83 967,83 968,88 968,98 969,104 969,112 970,109 970,96 971,82 971,83 972,88 972,145 972,699 973,699 "/>
<line opacity="0.1" stroke="#000000" stroke-width="1" x1="83" y1="699" x2="83" y2="68"/>
<line opacity="0.1" stroke="#000000" stroke-width="1" x1="92" y1="699" x2="92" y2="68"/>
<line opacity="0.1" stroke="#000000" stroke-width="1" x1="101" y1="699" x2="101" y2="68"/>
<line opacity="0.1" stroke="#000000" stroke-width="1" x1="110" y1="699" x2="110" y2="68"/>
<line opacity="0.1" stroke="#000000" stroke-width="1" x1="119" y1="699" x2="119" y2="68"/>
<line opacity="0.1" stroke="#000000" stroke-width="1" x1="128" y1="699" x2="128" y2="68"/>
<line opacity="0.1" stroke="#000000" stroke-width="1" x1="137" y1="699" x2="137" y2="68"/>
<line opacity="0.1" stroke="#000000" stroke-width="1" x1="146" y1="699" x2="146" y2="68"/>
<line opacity="0.1" stroke="#000000" stroke-width="1" x1="154" y1="699" x2="154" y2="68"/>
<line opacity="0.1" stroke="#000000" stroke-width="1" x1="163" y1="699" x2="163" y2="68"/>
<line opacity="0.1" stroke="#000000" stroke-width="1" x1="172" y1="699" x2="172" y2="68"/>
<line opacity="0.1" stroke="#000000" stroke-width="1" x1="181" y1="699" x2="181" y2="68"/>
<line opacity="0.1" stroke="#000000" stroke-width="1" x1="190" y1="699" x2="190" y2="68"/>
<line opacity="0.1" stroke="#000000" stroke-width="1" x1="199" y1="699" x2="199" y2="68"/>
<line opacity="0.1" stroke="#000000" stroke-width="1" x1="208" y1="699" x2="208" y2="68"/>
<line opacity="0.1" stroke="#000000" stroke-width="1" x1="217" y1="699" x2="217" y2="68"/>
<line opacity="0.1" stroke="#000000" stroke-width="1" x1="226" y1="699" x2="226" y2="68"/>
<line opacity="0.1" stroke="#000000" stroke-width="1" x1="234" y1="699" x2="234" y2="68"/>
<line opacity="0.1" stroke="#000000" stroke-width="1" x1="243" y1="699" x2="243" y2="68"/>
<line opacity="0.1" stroke="#000000" stroke-width="1" x1="252" y1="699" x2="252" y2="68"/>
<line opacity="0.1" stroke="#000000" stroke-width="1" x1="261" y1="699" x2="261" y2="68"/>
<line opacity="0.1" stroke="#000000" stroke-width="1" x1="270" y1="699" x2="270" y2="68"/>
<line opacity="0.1" stroke="#000000" stroke-width="1" x1="279" y1="699" x2="279" y2="68"/>
<line opacity="0.1" stroke="#000000" stroke-width="1" x1="288" y1="699" x2="288" y2="68"/>
<line opacity="0.1" stroke="#000000" stroke-width="1" x1="297" y1="699" x2="297" y2="68"/>
<line opacity="0.1" stroke="#000000" stroke-width="1" x1="306" y1="699" x2="306" y2="68"/>
<line opacity="0.1" stroke="#000000" stroke-width="1" x1="315" y1="699" x2="315" y2="68"/>
<line opacity="0.1" stroke="#000000" stroke-width="1" x1="323" y1="699" x2="323" y2="68"/>
<line opacity="0.1" stroke="#000000" stroke-width="1" x1="332" y1="699" x2="332" y2="68"/>
<line opacity="0.1" stroke="#000000" stroke-width="1" x1="341" y1="699" x2="341" y2="68"/>
<line opacity="0.1" stroke="#000000" stroke-width="1" x1="350" y1="699" x2="350" y2="68"/>
<line opacity="0.1" stroke="#000000" stroke-width="1" x1="359" y1="699" x2="359" y2="68"/>
<line opacity="0.1" stroke="#000000" stroke-width="1" x1="368" y1="699" x2="368" y2="68"/>
<line opacity="0.1" stroke="#000000" stroke-width="1" x1="377" y1="699" x2="377" y2="68"/>
<line opacity="0.1" stroke="#000000" stroke-width="1" x1="386" y1="699" x2="386" y2="68"/>
<line opacity="0.1" stroke="#000000" stroke-width="1" x1="395" y1="699" x2="395" y2="68"/>
<line opacity="0.1" stroke="#000000" stroke-width="1" x1="403" y1="699" x2="403" y2="68"/>
<line opacity="0.1" stroke="#000000" stroke-width="1" x1="412" y1="699" x2="412" y2="68"/>
<line opacity="0.1" stroke="#000000" stroke-width="1" x1="421" y1="699" x2="421" y2="68"/>
<line opacity="0.1" stroke="#000000" stroke-width="1" x1="430" y1="699" x2="430" y2="68"/>
<line opacity="0.1" stroke="#000000" stroke-width="1" x1="439" y1="699" x2="439" y2="68"/>
<line opacity="0.1" stroke="#000000" stroke-width="1" x1="448" y1="699" x2="448" y2="68"/>
<line opacity="0.1" stroke="#000000" stroke-width="1" x1="457" y1="699" x2="457" y2="68"/>
<line opacity="0.1" stroke="#000000" stroke-width="1" x1="466" y1="699" x2="466" y2="68"/>
<line opacity="0.1" stroke="#000000" stroke-width="1" x1="475" y1="699" x2="475" y2="68"/>
<line opacity="0.1" stroke="#000000" stroke-width="1" x1="483" y1="699" x2="483" y2="68"/>
<line opacity="0.1" stroke="#000000" stroke-width="1" x1="492" y1="699" x2="492" y2="68"/>
<line opacity="0.1" stroke="#000000" stroke-width="1" x1="501" y1="699" x2="501" y2="68"/>
<line opacity="0.1" stroke="#000000" stroke-width="1" x1="510" y1="699" x2="510" y2="68"/>
<line opacity="0.1" stroke="#000000" stroke-width="1" x1="519" y1="699" x2="519" y2="68"/>
<line opacity="0.1" stroke="#000000" stroke-width="1" x1="528" y1="699" x2="528" y2="68"/>
<line opacity="0.1" stroke="#000000" stroke-width="1" x1="537" y1="699" x2="537" y2="68"/>
<line opacity="0.1" stroke="#000000" stroke-width="1" x1="546" y1="699" x2="546" y2="68"/>
<line opacity="0.1" stroke="#000000" stroke-width="1" x1="555" y1="699" x2="555" y2="68"/>
<line opacity="0.1" stroke="#000000" stroke-width="1" x1="563" y1="699" x2="563" y2="68"/>
<line opacity="0.1" stroke="#000000" stroke-width="1" x1="572" y1="699" x2="572" y2="68"/>
<line opacity="0.1" stroke="#000000" stroke-width="1" x1="581" y1="699" x2="581" y2="68"/>
<line opacity="0.1" stroke="#000000" stroke-width="1" x1="590" y1="699" x2="590" y2="68"/>
<line opacity="0.1" stroke="#000000" stroke-width="1" x1="599" y1="699" x2="599" y2="68"/>
<line opacity="0.1" stroke="#000000" stroke-width="1" x1="608" y1="699" x2="608" y2="68"/>
<line opacity="0.1" stroke="#000000" stroke-width="1" x1="617" y1="699" x2="617" y2="68"/>
<line opacity="0.1" stroke="#000000" stroke-width="1" x1="626" y1="699" x2="626" y2="68"/>
<line opacity="0.1" stroke="#000000" stroke-width="1" x1="635" y1="699" x2="635" y2="68"/>
<line opacity="0.1" stroke="#000000" stroke-width="1" x1="644" y1="699" x2="644" y2="68"/>
<line opacity="0.1" stroke="#000000" stroke-width="1" x1="652" y1="699" x2="652" y2="68"/>
<line opacity="0.1" stroke="#000000" stroke-width="1" x1="661" y1="699" x2="661" y2="68"/>
<line opacity="0.1" stroke="#000000" stroke-width="1" x1="670" y1="699" x2="670" y2="68"/>
<line opacity="0.1" stroke="#000000" stroke-width="1" x1="679" y1="699" x2="679" y2="68"/>
<line opacity="0.1" stroke="#000000" stroke-width="1" x1="688" y1="699" x2="688" y2="68"/>
<line opacity="0.1" stroke="#000000" stroke-width="1" x1="697" y1="699" x2="697" y2="68"/>
<line opacity="0.1" stroke="#000000" stroke-width="1" x1="706" y1="699" x2="706" y2="68"/>
<line opacity="0.1" stroke="#000000" stroke-width="1" x1="715" y1="699" x2="715" y2="68"/>
<line opacity="0.1" stroke="#000000" stroke-width="1" x1="724" y1="699" x2="724" y2="68"/>
<line opacity="0.1" stroke="#000000" stroke-width="1" x1="732" y1="699" x2="732" y2="68"/>
<line opacity="0.1" stroke="#000000" stroke-width="1" x1="741" y1="699" x2="741" y2="68"/>
<line opacity="0.1" stroke="#000000" stroke-width="1" x1="750" y1="699" x2="750" y2="68"/>
<line opacity="0.1" stroke="#000000" stroke-width="1" x1="759" y1="699" x2="759" y2="68"/>
<line opacity="0.1" stroke="#000000" stroke-width="1" x1="768" y1="699" x2="768" y2="68"/>
<line opacity="0.1" stroke="#000000" stroke-width="1" x1="777" y1="699" x2="777" y2="68"/>
<line opacity="0.1" stroke="#000000" stroke-width="1" x1="786" y1="699" x2="786" y2="68"/>
<line opacity="0.1" stroke="#000000" stroke-width="1" x1="795" y1="699" x2="795" y2="68"/>
<line opacity="0.1" stroke="#000000" stroke-width="1" x1="804" y1="699" x2="804" y2="68"/>
<line opacity="0.1" stroke="#000000" stroke-width="1" x1="812" y1="699" x2="812" y2="68"/>
<line opacity="0.1" stroke="#000000" stroke-width="1" x1="821" y1="699" x2="821" y2="68"/>
<line opacity="0.1" stroke="#000000" stroke-width="1" x1="830" y1="699" x2="830" y2="68"/>
<line opacity="0.1" stroke="#000000" stroke-width="1" x1="839" y1="699" x2="839" y2="68"/>
<line opacity="0.1" stroke="#000000" stroke-width="1" x1="848" y1="699" x2="848" y2="68"/>
<line opacity="0.1" stroke="#000000" stroke-width="1" x1="857" y1="699" x2="857" y2="68"/>
<line opacity="0.1" stroke="#000000" stroke-width="1" x1="866" y1="699" x2="866" y2="68"/>
<line opacity="0.1" stroke="#000000" stroke-width="1" x1="875" y1="699" x2="875" y2="68"/>
<line opacity="0.1" stroke="#000000" stroke-width="1" x1="884" y1="699" x2="884" y2="68"/>
<line opacity="0.1" stroke="#000000" stroke-width="1" x1="892" y1="699" x2="892" y2="68"/>
<line opacity="0.1" stroke="#000000" stroke-width="1" x1="901" y1="699" x2="901" y2="68"/>
<line opacity="0.1" stroke="#000000" stroke-width="1" x1="910" y1="699" x2="910" y2="68"/>
<line opacity="0.1" stroke="#000000" stroke-width="1" x1="919" y1="699" x2="919" y2="68"/>
<line opacity="0.1" stroke="#000000" stroke-width="1" x1="928" y1="699" x2="928" y2="68"/>
<line opacity="0.1" stroke="#000000" stroke-width="1" x1="937" y1="699" x2="937" y2="68"/>
<line opacity="0.1" stroke="#000000" stroke-width="1" x1="946" y1="699" x2="946" y2="68"/>
<line opacity="0.1" stroke="#000000" stroke-width="1" x1="955" y1="699" x2="955" y2="68"/>
<line opacity="0.1" stroke="#000000" stroke-width="1" x1="964" y1="699" x2="964" y2="68"/>
<line opacity="0.1" stroke="#000000" stroke-width="1" x1="78" y1="699" x2="973" y2="699"/>
<line opacity="0.1" stroke="#000000" stroke-width="1" x1="78" y1="690" x2="973" y2="690"/>
<line opacity="0.1" stroke="#000000" stroke-width="1" x1="78" y1="681" x2="973" y2="681"/>
<line opacity="0.1" stroke="#000000" stroke-width="1" x1="78" y1="673" x2="973" y2="673"/>
<line opacity="0.1" stroke="#000000" stroke-width="1" x1="78" y1="664" x2="973" y2="664"/>
<line opacity="0.1" stroke="#000000" stroke-width="1" x1="78" y1="656" x2="973" y2="656"/>
<line opacity="0.1" stroke="#000000" stroke-width="1" x1="78" y1="647" x2="973" y2="647"/>
<line opacity="0.1" stroke="#000000" stroke-width="1" x1="78" y1="639" x2="973" y2="639"/>
<line opacity="0.1" stroke="#000000" stroke-width="1" x1="78" y1="630" x2="973" y2="630"/>
<line opacity="0.1" stroke="#000000" stroke-width="1" x1="78" y1="622" x2="973" y2="622"/>
<line opacity="0.1" stroke="#000000" stroke-width="1" x1="78" y1="613" x2="973" y2="613"/>
<line opacity="0.1" stroke="#000000" stroke-width="1" x1="78" y1="605" x2="973" y2="605"/>
<line opacity="0.1" stroke="#000000" stroke-width="1" x1="78" y1="596" x2="973" y2="596"/>
<line opacity="0.1" stroke="#000000" stroke-width="1" x1="78" y1="588" x2="973" y2="588"/>
<line opacity="0.1" stroke="#000000" stroke-width="1" x1="78" y1="579" x2="973" y2="579"/>
<line opacity="0.1" stroke="#000000" stroke-width="1" x1="78" y1="570" x2="973" y2="570"/>
<line opacity="0.1" stroke="#000000" stroke-width="1" x1="78" y1="562" x2="973" y2="562"/>
<line opacity="0.1" stroke="#000000" stroke-width="1" x1="78" y1="553" x2="973" y2="553"/>
<line opacity="0.1" stroke="#000000" stroke-width="1" x1="78" y1="545" x2="973" y2="545"/>
<line opacity="0.1" stroke="#000000" stroke-width="1" x1="78" y1="536" x2="973" y2="536"/>
<line opacity="0.1" stroke="#000000" stroke-width="1" x1="78" y1="528" x2="973" y2="528"/>
<line opacity="0.1" stroke="#000000" stroke-width="1" x1="78" y1="519" x2="973" y2="519"/>
<line opacity="0.1" stroke="#000000" stroke-width="1" x1="78" y1="511" x2="973" y2="511"/>
<line opacity="0.1" stroke="#000000" stroke-width="1" x1="78" y1="502" x2="973" y2="502"/>
<line opacity="0.1" stroke="#000000" stroke-width="1" x1="78" y1="494" x2="973" y2="494"/>
<line opacity="0.1" stroke="#000000" stroke-width="1" x1="78" y1="485" x2="973" y2="485"/>
<line opacity="0.1" stroke="#000000" stroke-width="1" x1="78" y1="477" x2="973" y2="477"/>
<line opacity="0.1" stroke="#000000" stroke-width="1" x1="78" y1="468" x2="973" y2="468"/>
<line opacity="0.1" stroke="#000000" stroke-width="1" x1="78" y1="459" x2="973" y2="459"/>
<line opacity="0.1" stroke="#000000" stroke-width="1" x1="78" y1="451" x2="973" y2="451"/>
<line opacity="0.1" stroke="#000000" stroke-width="1" x1="78" y1="442" x2="973" y2="442"/>
<line opacity="0.1" stroke="#000000" stroke-width="1" x1="78" y1="434" x2="973" y2="434"/>
<line opacity="0.1" stroke="#000000" stroke-width="1" x1="78" y1="425" x2="973" y2="425"/>
<line opacity="0.1" stroke="#000000" stroke-width="1" x1="78" y1="417" x2="973" y2="417"/>
<line opacity="0.1" stroke="#000000" stroke-width="1" x1="78" y1="408" x2="973" y2="408"/>
<line opacity="0.1" stroke="#000000" stroke-width="1" x1="78" y1="400" x2="973" y2="400"/>
<line opacity="0.1" stroke="#000000" stroke-width="1" x1="78" y1="391" x2="973" y2="391"/>
<line opacity="0.1" stroke="#000000" stroke-width="1" x1="78" y1="383" x2="973" y2="383"/>
<line opacity="0.1" stroke="#000000" stroke-width="1" x1="78" y1="374" x2="973" y2="374"/>
<line opacity="0.1" stroke="#000000" stroke-width="1" x1="78" y1="366" x2="973" y2="366"/>
<line opacity="0.1" stroke="#000000" stroke-width="1" x1="78" y1="357" x2="973" y2="357"/>
<line opacity="0.1" stroke="#000000" stroke-width="1" x1="78" y1="348" x2="973" y2="348"/>
<line opacity="0.1" stroke="#000000" stroke-width="1" x1="78" y1="340" x2="973" y2="340"/>
<line opacity="0.1" stroke="#000000" stroke-width="1" x1="78" y1="331" x2="973" y2="331"/>
<line opacity="0.1" stroke="#000000" stroke-width="1" x1="78" y1="323" x2="973" y2="323"/>
<line opacity="0.1" stroke="#000000" stroke-width="1" x1="78" y1="314" x2="973" y2="314"/>
<line opacity="0.1" stroke="#000000" stroke-width="1" x1="78" y1="306" x2="973" y2="306"/>
<line opacity="0.1" stroke="#000000" stroke-width="1" x1="78" y1="297" x2="973" y2="297"/>
<line opacity="0.1" stroke="#000000" stroke-width="1" x1="78" y1="289" x2="973" y2="289"/>
<line opacity="0.1" stroke="#000000" stroke-width="1" x1="78" y1="280" x2="973" y2="280"/>
<line opacity="0.1" stroke="#000000" stroke-width="1" x1="78" y1="272" x2="973" y2="272"/>
<line opacity="0.1" stroke="#000000" stroke-width="1" x1="78" y1="263" x2="973" y2="263"/>
<line opacity="0.1" stroke="#000000" stroke-width="1" x1="78" y1="255" x2="973" y2="255"/>
<line opacity="0.1" stroke="#000000" stroke-width="1" x1="78" y1="246" x2="973" y2="246"/>
<line opacity="0.1" stroke="#000000" stroke-width="1" x1="78" y1="237" x2="973" y2="237"/>
<line opacity="0.1" stroke="#000000" stroke-width="1" x1="78" y1="229" x2="973" y2="229"/>
<line opacity="0.1" stroke="#000000" stroke-width="1" x1="78" y1="220" x2="973" y2="220"/>
<line opacity="0.1" stroke="#000000" stroke-width="1" x1="78" y1="212" x2="973" y2="212"/>
<line opacity="0.1" stroke="#000000" stroke-width="1" x1="78" y1="203" x2="973" y2="203"/>
<line opacity="0.1" stroke="#000000" stroke-width="1" x1="78" y1="195" x2="973" y2="195"/>
<line opacity="0.1" stroke="#000000" stroke-width="1" x1="78" y1="186" x2="973" y2="186"/>
<line opacity="0.1" stroke="#000000" stroke-width="1" x1="78" y1="178" x2="973" y2="178"/>
<line opacity="0.1" stroke="#000000" stroke-width="1" x1="78" y1="169" x2="973" y2="169"/>
<line opacity="0.1" stroke="#000000" stroke-width="1" x1="78" y1="161" x2="973" y2="161"/>
<line opacity="0.1" stroke="#000000" stroke-width="1" x1="78" y1="152" x2="973" y2="152"/>
<line opacity="0.1" stroke="#000000" stroke-width="1" x1="78" y1="144" x2="973" y2="144"/>
<line opacity="0.1" stroke="#000000" stroke-width="1" x1="78" y1="135" x2="973" y2="135"/>
<line opacity="0.1" stroke="#000000" stroke-width="1" x1="78" y1="126" x2="973" y2="126"/>
<line opacity="0.1" stroke="#000000" stroke-width="1" x1="78" y1="118" x2="973" y2="118"/>
<line opacity="0.1" stroke="#000000" stroke-width="1" x1="78" y1="109" x2="973" y2="109"/>
<line opacity="0.1" stroke="#000000" stroke-width="1" x1="78" y1="101" x2="973" y2="101"/>
<line opacity="0.1" stroke="#000000" stroke-width="1" x1="78" y1="92" x2="973" y2="92"/>
<line opacity="0.1" stroke="#000000" stroke-width="1" x1="78" y1="84" x2="973" y2="84"/>
<line opacity="0.1" stroke="#000000" stroke-width="1" x1="78" y1="75" x2="973" y2="75"/>
<text x="8" y="384" dy="0.76em" text-anchor="middle" font-family="sans-serif" font-size="9.67741935483871" opacity="1" fill="#000000" transform="rotate(270, 8, 384)">
Memory usage
</text>
<text x="526" y="760" dy="-0.5ex" text-anchor="middle" font-family="sans-serif" font-size="9.67741935483871" opacity="1" fill="#000000">
Time
</text>
<line opacity="0.2" stroke="#000000" stroke-width="1" x1="101" y1="699" x2="101" y2="68"/>
<line opacity="0.2" stroke="#000000" stroke-width="1" x1="190" y1="699" x2="190" y2="68"/>
<line opacity="0.2" stroke="#000000" stroke-width="1" x1="279" y1="699" x2="279" y2="68"/>
<line opacity="0.2" stroke="#000000" stroke-width="1" x1="368" y1="699" x2="368" y2="68"/>
<line opacity="0.2" stroke="#000000" stroke-width="1" x1="457" y1="699" x2="457" y2="68"/>
<line opacity="0.2" stroke="#000000" stroke-width="1" x1="546" y1="699" x2="546" y2="68"/>
<line opacity="0.2" stroke="#000000" stroke-width="1" x1="635" y1="699" x2="635" y2="68"/>
<line opacity="0.2" stroke="#000000" stroke-width="1" x1="724" y1="699" x2="724" y2="68"/>
<line opacity="0.2" stroke="#000000" stroke-width="1" x1="812" y1="699" x2="812" y2="68"/>
<line opacity="0.2" stroke="#000000" stroke-width="1" x1="901" y1="699" x2="901" y2="68"/>
<line opacity="0.2" stroke="#000000" stroke-width="1" x1="78" y1="699" x2="973" y2="699"/>
<line opacity="0.2" stroke="#000000" stroke-width="1" x1="78" y1="613" x2="973" y2="613"/>
<line opacity="0.2" stroke="#000000" stroke-width="1" x1="78" y1="528" x2="973" y2="528"/>
<line opacity="0.2" stroke="#000000" stroke-width="1" x1="78" y1="442" x2="973" y2="442"/>
<line opacity="0.2" stroke="#000000" stroke-width="1" x1="78" y1="357" x2="973" y2="357"/>
<line opacity="0.2" stroke="#000000" stroke-width="1" x1="78" y1="272" x2="973" y2="272"/>
<line opacity="0.2" stroke="#000000" stroke-width="1" x1="78" y1="186" x2="973" y2="186"/>
<line opacity="0.2" stroke="#000000" stroke-width="1" x1="78" y1="101" x2="973" y2="101"/>
<polyline fill="none" opacity="1" stroke="#000000" stroke-width="1" points="77,68 77,699 "/>
<text x="68" y="699" dy="0.5ex" text-anchor="end" font-family="sans-serif" font-size="9.67741935483871" opacity="1" fill="#000000">
0 KB
</text>
<polyline fill="none" opacity="1" stroke="#000000" stroke-width="1" points="72,699 77,699 "/>
<text x="68" y="613" dy="0.5ex" text-anchor="end" font-family="sans-serif" font-size="9.67741935483871" opacity="1" fill="#000000">
97 KB
</text>
<polyline fill="none" opacity="1" stroke="#000000" stroke-width="1" points="72,613 77,613 "/>
<text x="68" y="528" dy="0.5ex" text-anchor="end" font-family="sans-serif" font-size="9.67741935483871" opacity="1" fill="#000000">
195 KB
</text>
<polyline fill="none" opacity="1" stroke="#000000" stroke-width="1" points="72,528 77,528 "/>
<text x="68" y="442" dy="0.5ex" text-anchor="end" font-family="sans-serif" font-size="9.67741935483871" opacity="1" fill="#000000">
292 KB
</text>
<polyline fill="none" opacity="1" stroke="#000000" stroke-width="1" points="72,442 77,442 "/>
<text x="68" y="357" dy="0.5ex" text-anchor="end" font-family="sans-serif" font-size="9.67741935483871" opacity="1" fill="#000000">
390 KB
</text>
<polyline fill="none" opacity="1" stroke="#000000" stroke-width="1" points="72,357 77,357 "/>
<text x="68" y="272" dy="0.5ex" text-anchor="end" font-family="sans-serif" font-size="9.67741935483871" opacity="1" fill="#000000">
488 KB
</text>
<polyline fill="none" opacity="1" stroke="#000000" stroke-width="1" points="72,272 77,272 "/>
<text x="68" y="186" dy="0.5ex" text-anchor="end" font-family="sans-serif" font-size="9.67741935483871" opacity="1" fill="#000000">
585 KB
</text>
<polyline fill="none" opacity="1" stroke="#000000" stroke-width="1" points="72,186 77,186 "/>
<text x="68" y="101" dy="0.5ex" text-anchor="end" font-family="sans-serif" font-size="9.67741935483871" opacity="1" fill="#000000">
683 KB
</text>
<polyline fill="none" opacity="1" stroke="#000000" stroke-width="1" points="72,101 77,101 "/>
<polyline fill="none" opacity="1" stroke="#000000" stroke-width="1" points="78,700 973,700 "/>
<text x="101" y="710" dy="0.76em" text-anchor="middle" font-family="sans-serif" font-size="9.67741935483871" opacity="1" fill="#000000">
02:04:17
</text>
<polyline fill="none" opacity="1" stroke="#000000" stroke-width="1" points="101,700 101,705 "/>
<text x="190" y="710" dy="0.76em" text-anchor="middle" font-family="sans-serif" font-size="9.67741935483871" opacity="1" fill="#000000">
02:04:18
</text>
<polyline fill="none" opacity="1" stroke="#000000" stroke-width="1" points="190,700 190,705 "/>
<text x="279" y="710" dy="0.76em" text-anchor="middle" font-family="sans-serif" font-size="9.67741935483871" opacity="1" fill="#000000">
02:04:19
</text>
<polyline fill="none" opacity="1" stroke="#000000" stroke-width="1" points="279,700 279,705 "/>
<text x="368" y="710" dy="0.76em" text-anchor="middle" font-family="sans-serif" font-size="9.67741935483871" opacity="1" fill="#000000">
02:04:20
</text>
<polyline fill="none" opacity="1" stroke="#000000" stroke-width="1" points="368,700 368,705 "/>
<text x="457" y="710" dy="0.76em" text-anchor="middle" font-family="sans-serif" font-size="9.67741935483871" opacity="1" fill="#000000">
02:04:21
</text>
<polyline fill="none" opacity="1" stroke="#000000" stroke-width="1" points="457,700 457,705 "/>
<text x="546" y="710" dy="0.76em" text-anchor="middle" font-family="sans-serif" font-size="9.67741935483871" opacity="1" fill="#000000">
02:04:22
</text>
<polyline fill="none" opacity="1" stroke="#000000" stroke-width="1" points="546,700 546,705 "/>
<text x="635" y="710" dy="0.76em" text-anchor="middle" font-family="sans-serif" font-size="9.67741935483871" opacity="1" fill="#000000">
02:04:23
</text>
<polyline fill="none" opacity="1" stroke="#000000" stroke-width="1" points="635,700 635,705 "/>
<text x="724" y="710" dy="0.76em" text-anchor="middle" font-family="sans-serif" font-size="9.67741935483871" opacity="1" fill="#000000">
02:04:24
</text>
<polyline fill="none" opacity="1" stroke="#000000" stroke-width="1" points="724,700 724,705 "/>
<text x="812" y="710" dy="0.76em" text-anchor="middle" font-family="sans-serif" font-size="9.67741935483871" opacity="1" fill="#000000">
02:04:25
</text>
<polyline fill="none" opacity="1" stroke="#000000" stroke-width="1" points="812,700 812,705 "/>
<text x="901" y="710" dy="0.76em" text-anchor="middle" font-family="sans-serif" font-size="9.67741935483871" opacity="1" fill="#000000">
02:04:26
</text>
<polyline fill="none" opacity="1" stroke="#000000" stroke-width="1" points="901,700 901,705 "/>
<polyline fill="none" opacity="1" stroke="#000000" stroke-width="1" points="78,67 974,67 "/>
<text x="101" y="58" dy="-0.5ex" text-anchor="middle" font-family="sans-serif" font-size="9.67741935483871" opacity="1" fill="#000000">
+265ms
</text>
<polyline fill="none" opacity="1" stroke="#000000" stroke-width="1" points="101,62 101,67 "/>
<text x="190" y="58" dy="-0.5ex" text-anchor="middle" font-family="sans-serif" font-size="9.67741935483871" opacity="1" fill="#000000">
+1s
</text>
<polyline fill="none" opacity="1" stroke="#000000" stroke-width="1" points="190,62 190,67 "/>
<text x="279" y="58" dy="-0.5ex" text-anchor="middle" font-family="sans-serif" font-size="9.67741935483871" opacity="1" fill="#000000">
+2s
</text>
<polyline fill="none" opacity="1" stroke="#000000" stroke-width="1" points="279,62 279,67 "/>
<text x="368" y="58" dy="-0.5ex" text-anchor="middle" font-family="sans-serif" font-size="9.67741935483871" opacity="1" fill="#000000">
+3s
</text>
<polyline fill="none" opacity="1" stroke="#000000" stroke-width="1" points="368,62 368,67 "/>
<text x="457" y="58" dy="-0.5ex" text-anchor="middle" font-family="sans-serif" font-size="9.67741935483871" opacity="1" fill="#000000">
+4s
</text>
<polyline fill="none" opacity="1" stroke="#000000" stroke-width="1" points="457,62 457,67 "/>
<text x="546" y="58" dy="-0.5ex" text-anchor="middle" font-family="sans-serif" font-size="9.67741935483871" opacity="1" fill="#000000">
+5s
</text>
<polyline fill="none" opacity="1" stroke="#000000" stroke-width="1" points="546,62 546,67 "/>
<text x="635" y="58" dy="-0.5ex" text-anchor="middle" font-family="sans-serif" font-size="9.67741935483871" opacity="1" fill="#000000">
+6s
</text>
<polyline fill="none" opacity="1" stroke="#000000" stroke-width="1" points="635,62 635,67 "/>
<text x="724" y="58" dy="-0.5ex" text-anchor="middle" font-family="sans-serif" font-size="9.67741935483871" opacity="1" fill="#000000">
+7s
</text>
<polyline fill="none" opacity="1" stroke="#000000" stroke-width="1" points="724,62 724,67 "/>
<text x="813" y="58" dy="-0.5ex" text-anchor="middle" font-family="sans-serif" font-size="9.67741935483871" opacity="1" fill="#000000">
+8s
</text>
<polyline fill="none" opacity="1" stroke="#000000" stroke-width="1" points="813,62 813,67 "/>
<text x="902" y="58" dy="-0.5ex" text-anchor="middle" font-family="sans-serif" font-size="9.67741935483871" opacity="1" fill="#000000">
+9s
</text>
<polyline fill="none" opacity="1" stroke="#000000" stroke-width="1" points="902,62 902,67 "/>
</svg>
