<svg width="1024" height="768" viewBox="0 0 1024 768" xmlns="http://www.w3.org/2000/svg">
<rect x="0" y="0" width="1024" height="768" opacity="1" fill="#FFFFFF" stroke="none"/>
<polygon opacity="1" fill="#E6194B" points="82,698 83,693 84,684 85,684 86,680 87,683 88,684 89,687 89,685 90,686 91,688 92,685 93,686 94,667 95,671 96,664 97,658 97,664 98,663 99,663 100,666 101,673 102,674 103,674 104,676 105,676 105,678 106,676 107,680 108,678 109,676 110,676 111,674 112,674 113,675 113,668 114,667 115,660 116,655 117,658 118,662 119,667 120,667 121,664 121,655 122,651 123,640 124,637 125,647 126,656 127,659 128,660 129,659 129,651 130,645 131,640 132,637 133,637 134,636 135,637 136,645 137,644 137,641 138,636 139,635 140,634 141,639 142,632 143,623 144,619 145,618 145,619 146,612 147,609 148,603 149,599 150,600 151,595 152,586 153,583 153,582 154,572 155,569 156,568 157,576 158,571 159,568 160,566 161,568 161,568 162,562 163,561 164,555 165,555 166,561 167,563 168,560 169,555 169,551 170,550 171,549 172,541 173,534 174,541 175,537 176,540 177,545 177,544 178,549 179,542 180,533 181,530 182,530 183,531 184,531 185,530 185,530 186,527 187,519 188,521 189,525 190,532 191,532 192,533 193,522 193,519 194,516 195,515 196,518 197,520 198,514 199,515 200,518 201,516 202,509 202,508 203,507 204,503 205,504 206,510 207,508 208,502 209,500 210,500 210,501 211,503 212,501 213,506 214,511 215,515 216,520 217,521 218,512 218,509 219,499 220,501 221,520 222,524 223,521 224,515 225,525 226,523 226,520 227,521 228,518 229,505 230,502 231,507 232,506 233,506 234,512 234,517 235,521 236,513 237,515 238,512 239,513 240,519 241,518 242,514 242,518 243,517 244,519 245,520 246,514 247,512 248,509 249,503 250,504 250,510 251,509 252,515 253,512 254,518 255,517 256,520 257,515 258,517 258,518 259,516 260,507 261,504 262,511 263,510 264,513 265,505 266,499 266,499 267,503 268,502 269,508 270,502 271,494 272,494 273,497 274,494 274,498 275,497 276,491 277,488 278,485 279,488 280,489 281,485 282,483 282,485 283,486 284,490 285,488 286,490 287,488 288,478 289,479 290,479 290,484 291,486 292,480 293,483 294,486 295,488 296,487 297,496 298,499 298,492 299,491 300,489 301,481 302,479 303,482 304,485 305,483 306,474 306,477 307,481 308,481 309,489 310,488 311,490 312,494 313,494 314,499 314,496 315,493 316,491 317,487 318,490 319,487 320,489 321,489 322,489 322,479 323,474 324,469 325,468 326,464 327,462 328,465 329,464 330,455 330,451 331,442 332,442 333,452 334,457 335,457 336,458 337,458 338,453 338,453 339,445 340,449 341,454 342,455 343,458 344,452 345,450 346,456 346,458 347,459 348,462 349,463 350,469 351,469 352,474 353,472 354,471 354,467 355,466 356,469 357,471 358,474 359,474 360,474 361,481 362,492 362,484 363,489 364,491 365,486 366,487 367,492 368,489 369,487 370,482 370,477 371,478 372,476 373,482 374,484 375,480 376,479 377,472 378,471 378,472 379,475 380,478 381,482 382,479 383,476 384,473 385,467 386,462 386,461 387,464 388,467 389,462 390,467 391,465 392,466 393,461 394,454 394,449 395,448 396,439 397,441 398,448 399,453 400,463 401,464 402,475 402,471 403,473 404,461 405,462 406,479 407,477 408,471 409,471 410,459 411,455 411,456 412,459 413,465 414,462 415,461 416,464 417,473 418,471 419,466 419,466 420,467 421,468 422,468 423,475 424,472 425,468 426,472 427,477 427,474 428,468 429,470 430,462 431,467 432,463 433,465 434,467 435,469 435,458 436,455 437,458 438,445 439,441 440,437 441,438 442,430 443,429 443,432 444,432 445,431 446,430 447,435 448,435 449,428 450,422 451,424 451,421 452,427 453,429 454,431 455,429 456,431 457,432 458,440 459,430 459,433 460,418 461,418 462,417 463,419 464,414 465,410 466,409 467,408 467,410 468,412 469,416 470,408 471,402 472,401 473,404 474,406 475,397 475,396 476,398 477,401 478,409 479,404 480,398 481,397 482,397 483,397 483,409 484,410 485,410 486,410 487,413 488,414 489,417 490,418 491,412 491,415 492,416 493,418 494,420 495,411 496,410 497,414 498,413 499,415 499,411 500,409 501,417 502,413 503,410 504,411 505,420 506,417 507,415 507,415 508,408 509,411 510,412 511,405 512,405 513,403 514,399 515,399 515,401 516,399 517,399 518,405 519,403 520,400 521,398 522,408 523,395 523,399 524,397 525,402 526,405 527,399 528,398 529,404 530,411 531,419 531,419 532,413 533,413 534,413 535,414 536,415 537,421 538,420 539,422 539,429 540,428 541,424 542,421 543,422 544,418 545,422 546,423 547,420 547,418 548,423 549,421 550,417 551,418 552,421 553,422 554,429 555,435 555,435 556,436 557,427 558,427 559,430 560,429 561,429 562,430 563,428 563,421 564,421 565,429 566,429 567,426 568,428 569,428 570,431 571,430 571,426 572,422 573,426 574,428 575,415 576,414 577,412 578,417 579,411 579,406 580,400 581,396 582,402 583,404 584,400 585,398 586,403 587,401 587,399 588,405 589,403 590,390 591,390 592,388 593,397 594,400 595,405 595,401 596,400 597,403 598,396 599,392 600,396 601,395 602,402 603,403 603,401 604,398 605,398 606,395 607,392 608,383 609,377 610,379 611,376 611,374 612,369 613,368 614,380 615,378 616,377 617,378 618,377 619,370 620,366 620,377 621,375 622,372 623,372 624,380 625,376 626,354 627,357 628,356 628,361 629,362 630,360 631,356 632,364 633,356 634,353 635,353 636,354 636,364 637,366 638,360 639,359 640,359 641,363 642,363 643,364 644,361 644,366 645,363 646,367 647,365 648,368 649,368 650,357 651,354 652,352 652,348 653,343 654,340 655,342 656,341 657,342 658,338 659,340 660,342 660,342 661,339 662,337 663,340 664,344 665,338 666,332 667,331 668,331 668,332 669,331 670,332 671,329 672,329 673,328 674,326 675,328 676,328 676,324 677,320 678,325 679,324 680,329 681,331 682,326 683,322 684,319 684,320 685,318 686,318 687,310 688,298 689,302 690,301 691,300 692,302 692,299 693,300 694,296 695,299 696,287 697,287 698,295 699,288 700,288 700,297 701,309 702,309 703,310 704,312 705,322 706,317 707,316 708,311 708,307 709,305 710,309 711,307 712,305 713,300 714,294 715,286 716,288 716,293 717,304 718,307 719,309 720,301 721,300 722,294 723,290 724,287 724,287 725,288 726,287 727,284 728,284 729,285 730,281 731,279 732,277 732,275 733,280 734,284 735,279 736,272 737,272 738,271 739,277 740,271 740,275 741,280 742,282 743,284 744,287 745,286 746,282 747,282 748,280 748,273 749,265 750,266 751,271 752,273 753,273 754,280 755,280 756,275 756,279 757,281 758,285 759,293 760,303 761,293 762,285 763,281 764,274 764,265 765,263 766,265 767,263 768,261 769,263 770,266 771,271 772,265 772,269 773,265 774,266 775,261 776,255 777,251 778,248 779,249 780,249 780,256 781,253 782,253 783,261 784,264 785,266 786,264 787,252 788,250 788,262 789,263 790,258 791,254 792,249 793,250 794,243 795,238 796,240 796,237 797,229 798,230 799,231 800,227 801,227 802,230 803,240 804,244 804,241 805,248 806,243 807,248 808,250 809,252 810,247 811,248 812,247 812,250 813,240 814,234 815,234 816,239 817,235 818,226 819,226 820,233 820,239 821,235 822,234 823,232 824,233 825,220 826,218 827,225 828,229 829,232 829,228 830,228 831,224 832,221 833,218 834,211 835,204 836,198 837,195 837,188 838,186 839,187 840,189 841,201 842,205 843,199 844,198 845,190 845,189 846,188 847,195 848,192 849,186 850,195 851,193 852,188 853,190 853,171 854,174 855,174 856,174 857,170 858,160 859,160 860,159 861,158 861,159 862,168 863,172 864,177 865,179 866,177 867,174 868,168 869,169 869,155 870,150 871,154 872,160 873,158 874,163 875,161 876,149 877,151 877,157 878,156 879,153 880,154 881,153 882,151 883,155 884,156 885,161 885,155 886,153 887,147 888,149 889,144 890,148 891,147 892,145 893,137 893,138 894,148 895,134 896,132 897,138 898,139 899,144 900,145 901,146 901,153 902,152 903,150 904,141 905,150 906,161 907,164 908,163 909,159 909,154 910,150 911,145 912,141 913,138 914,136 915,125 916,122 917,135 917,135 918,134 919,141 920,139 921,142 922,142 923,140 924,138 925,126 925,126 926,125 927,128 928,133 929,136 930,131 931,127 932,115 933,118 933,117 934,121 935,129 936,118 937,113 938,109 939,104 940,105 941,110 941,118 942,117 943,121 944,120 945,113 946,104 947,102 948,97 949,96 949,96 950,97 951,104 952,105 953,102 954,97 955,97 956,105 957,111 957,108 958,94 959,85 960,80 961,70 962,71 963,72 964,69 965,68 965,68 966,75 967,76 968,84 969,91 970,81 971,73 972,74 972,458 973,458 973,699 82,699 "/>
<polyline fill="none" opacity="1" stroke="#E6194B" stroke-width="1" points="82,698 83,693 84,684 85,684 86,680 87,683 88,684 89,687 89,685 90,686 91,688 92,685 93,686 94,667 95,671 96,664 97,658 97,664 98,663 99,663 100,666 101,673 102,674 103,674 104,676 105,676 105,678 106,676 107,680 108,678 109,676 110,676 111,674 112,674 113,675 113,668 114,667 115,660 116,655 117,658 118,662 119,667 120,667 121,664 121,655 122,651 123,640 124,637 125,647 126,656 127,659 128,660 129,659 129,651 130,645 131,640 132,637 133,637 134,636 135,637 136,645 137,644 137,641 138,636 139,635 140,634 141,639 142,632 143,623 144,619 145,618 145,619 146,612 147,609 148,603 149,599 150,600 151,595 152,586 153,583 153,582 154,572 155,569 156,568 157,576 158,571 159,568 160,566 161,568 161,568 162,562 163,561 164,555 165,555 166,561 167,563 168,560 169,555 169,551 170,550 171,549 172,541 173,534 174,541 175,537 176,540 177,545 177,544 178,549 179,542 180,533 181,530 182,530 183,531 184,531 185,530 185,530 186,527 187,519 188,521 189,525 190,532 191,532 192,533 193,522 193,519 194,516 195,515 196,518 197,520 198,514 199,515 200,518 201,516 202,509 202,508 203,507 204,503 205,504 206,510 207,508 208,502 209,500 210,500 210,501 211,503 212,501 213,506 214,511 215,515 216,520 217,521 218,512 218,509 219,499 220,501 221,520 222,524 223,521 224,515 225,525 226,523 226,520 227,521 228,518 229,505 230,502 231,507 232,506 233,506 234,512 234,517 235,521 236,513 237,515 238,512 239,513 240,519 241,518 242,514 242,518 243,517 244,519 245,520 246,514 247,512 248,509 249,503 250,504 250,510 251,509 252,515 253,512 254,518 255,517 256,520 257,515 258,517 258,518 259,516 260,507 261,504 262,511 263,510 264,513 265,505 266,499 266,499 267,503 268,502 269,508 270,502 271,494 272,494 273,497 274,494 274,498 275,497 276,491 277,488 278,485 279,488 280,489 281,485 282,483 282,485 283,486 284,490 285,488 286,490 287,488 288,478 289,479 290,479 290,484 291,486 292,480 293,483 294,486 295,488 296,487 297,496 298,499 298,492 299,491 300,489 301,481 302,479 303,482 304,485 305,483 306,474 306,477 307,481 308,481 309,489 310,488 311,490 312,494 313,494 314,499 314,496 315,493 316,491 317,487 318,490 319,487 320,489 321,489 322,489 322,479 323,474 324,469 325,468 326,464 327,462 328,465 329,464 330,455 330,451 331,442 332,442 333,452 334,457 335,457 336,458 337,458 338,453 338,453 339,445 340,449 341,454 342,455 343,458 344,452 345,450 346,456 346,458 347,459 348,462 349,463 350,469 351,469 352,474 353,472 354,471 354,467 355,466 356,469 357,471 358,474 359,474 360,474 361,481 362,492 362,484 363,489 364,491 365,486 366,487 367,492 368,489 369,487 370,482 370,477 371,478 372,476 373,482 374,484 375,480 376,479 377,472 378,471 378,472 379,475 380,478 381,482 382,479 383,476 384,473 385,467 386,462 386,461 387,464 388,467 389,462 390,467 391,465 392,466 393,461 394,454 394,449 395,448 396,439 397,441 398,448 399,453 400,463 401,464 402,475 402,471 403,473 404,461 405,462 406,479 407,477 408,471 409,471 410,459 411,455 411,456 412,459 413,465 414,462 415,461 416,464 417,473 418,471 419,466 419,466 420,467 421,468 422,468 423,475 424,472 425,468 426,472 427,477 427,474 428,468 429,470 430,462 431,467 432,463 433,465 434,467 435,469 435,458 436,455 437,458 438,445 439,441 440,437 441,438 442,430 443,429 443,432 444,432 445,431 446,430 447,435 448,435 449,428 450,422 451,424 451,421 452,427 453,429 454,431 455,429 456,431 457,432 458,440 459,430 459,433 460,418 461,418 462,417 463,419 464,414 465,410 466,409 467,408 467,410 468,412 469,416 470,408 471,402 472,401 473,404 474,406 475,397 475,396 476,398 477,401 478,409 479,404 480,398 481,397 482,397 483,397 483,409 484,410 485,410 486,410 487,413 488,414 489,417 490,418 491,412 491,415 492,416 493,418 494,420 495,411 496,410 497,414 498,413 499,415 499,411 500,409 501,417 502,413 503,410 504,411 505,420 506,417 507,415 507,415 508,408 509,411 510,412 511,405 512,405 513,403 514,399 515,399 515,401 516,399 517,399 518,405 519,403 520,400 521,398 522,408 523,395 523,399 524,397 525,402 526,405 527,399 528,398 529,404 530,411 531,419 531,419 532,413 533,413 534,413 535,414 536,415 537,421 538,420 539,422 539,429 540,428 541,424 542,421 543,422 544,418 545,422 546,423 547,420 547,418 548,423 549,421 550,417 551,418 552,421 553,422 554,429 555,435 555,435 556,436 557,427 558,427 559,430 560,429 561,429 562,430 563,428 563,421 564,421 565,429 566,429 567,426 568,428 569,428 570,431 571,430 571,426 572,422 573,426 574,428 575,415 576,414 577,412 578,417 579,411 579,406 580,400 581,396 582,402 583,404 584,400 585,398 586,403 587,401 587,399 588,405 589,403 590,390 591,390 592,388 593,397 594,400 595,405 595,401 596,400 597,403 598,396 599,392 600,396 601,395 602,402 603,403 603,401 604,398 605,398 606,395 607,392 608,383 609,377 610,379 611,376 611,374 612,369 613,368 614,380 615,378 616,377 617,378 618,377 619,370 620,366 620,377 621,375 622,372 623,372 624,380 625,376 626,354 627,357 628,356 628,361 629,362 630,360 631,356 632,364 633,356 634,353 635,353 636,354 636,364 637,366 638,360 639,359 640,359 641,363 642,363 643,364 644,361 644,366 645,363 646,367 647,365 648,368 649,368 650,357 651,354 652,352 652,348 653,343 654,340 655,342 656,341 657,342 658,338 659,340 660,342 660,342 661,339 662,337 663,340 664,344 665,338 666,332 667,331 668,331 668,332 669,331 670,332 671,329 672,329 673,328 674,326 675,328 676,328 676,324 677,320 678,325 679,324 680,329 681,331 682,326 683,322 684,319 684,320 685,318 686,318 687,310 688,298 689,302 690,301 691,300 692,302 692,299 693,300 694,296 695,299 696,287 697,287 698,295 699,288 700,288 700,297 701,309 702,309 703,310 704,312 705,322 706,317 707,316 708,311 708,307 709,305 710,309 711,307 712,305 713,300 714,294 715,286 716,288 716,293 717,304 718,307 719,309 720,301 721,300 722,294 723,290 724,287 724,287 725,288 726,287 727,284 728,284 729,285 730,281 731,279 732,277 732,275 733,280 734,284 735,279 736,272 737,272 738,271 739,277 740,271 740,275 741,280 742,282 743,284 744,287 745,286 746,282 747,282 748,280 748,273 749,265 750,266 751,271 752,273 753,273 754,280 755,280 756,275 756,279 757,281 758,285 759,293 760,303 761,293 762,285 763,281 764,274 764,265 765,263 766,265 767,263 768,261 769,263 770,266 771,271 772,265 772,269 773,265 774,266 775,261 776,255 777,251 778,248 779,249 780,249 780,256 781,253 782,253 783,261 784,264 785,266 786,264 787,252 788,250 788,262 789,263 790,258 791,254 792,249 793,250 794,243 795,238 796,240 796,237 797,229 798,230 799,231 800,227 801,227 802,230 803,240 804,244 804,241 805,248 806,243 807,248 808,250 809,252 810,247 811,248 812,247 812,250 813,240 814,234 815,234 816,239 817,235 818,226 819,226 820,233 820,239 821,235 822,234 823,232 824,233 825,220 826,218 827,225 828,229 829,232 829,228 830,228 831,224 832,221 833,218 834,211 835,204 836,198 837,195 837,188 838,186 839,187 840,189 841,201 842,205 843,199 844,198 845,190 845,189 846,188 847,195 848,192 849,186 850,195 851,193 852,188 853,190 853,171 854,174 855,174 856,174 857,170 858,160 859,160 860,159 861,158 861,159 862,168 863,172 864,177 865,179 866,177 867,174 868,168 869,169 869,155 870,150 871,154 872,160 873,158 874,163 875,161 876,149 877,151 877,157 878,156 879,153 880,154 881,153 882,151 883,155 884,156 885,161 885,155 886,153 887,147 888,149 889,144 890,148 891,147 892,145 893,137 893,138 894,148 895,134 896,132 897,138 898,139 899,144 900,145 901,146 901,153 902,152 903,150 904,141 905,150 906,161 907,164 908,163 909,159 909,154 910,150 911,145 912,141 913,138 914,136 915,125 916,122 917,135 917,135 918,134 919,141 920,139 921,142 922,142 923,140 924,138 925,126 925,126 926,125 927,128 928,133 929,136 930,131 931,127 932,115 933,118 933,117 934,121 935,129 936,118 937,113 938,109 939,104 940,105 941,110 941,118 942,117 943,121 944,120 945,113 946,104 947,102 948,97 949,96 949,96 950,97 951,104 952,105 953,102 954,97 955,97 956,105 957,111 957,108 958,94 959,85 960,80 961,70 962,71 963,72 964,69 965,68 965,68 966,75 967,76 968,84 969,91 970,81 971,73 972,74 972,458 973,458 "/>
<line opacity="0.1" stroke="#000000" stroke-width="1" x1="83" y1="699" x2="83" y2="68"/>
<line opacity="0.1" stroke="#000000" stroke-width="1" x1="92" y1="699" x2="92" y2="68"/>
<line opacity="0.1" stroke="#000000" stroke-width="1" x1="101" y1="699" x2="101" y2="68"/>
<line opacity="0.1" stroke="#000000" stroke-width="1" x1="110" y1="699" x2="110" y2="68"/>
<line opacity="0.1" stroke="#000000" stroke-width="1" x1="119" y1="699" x2="119" y2="68"/>
<line opacity="0.1" stroke="#000000" stroke-width="1" x1="128" y1="699" x2="128" y2="68"/>
<line opacity="0.1" stroke="#000000" stroke-width="1" x1="137" y1="699" x2="137" y2="68"/>
<line opacity="0.1" stroke="#000000" stroke-width="1" x1="146" y1="699" x2="146" y2="68"/>
<line opacity="0.1" stroke="#000000" stroke-width="1" x1="154" y1="699" x2="154" y2="68"/>
<line opacity="0.1" stroke="#000000" stroke-width="1" x1="163" y1="699" x2="163" y2="68"/>
<line opacity="0.1" stroke="#000000" stroke-width="1" x1="172" y1="699" x2="172" y2="68"/>
<line opacity="0.1" stroke="#000000" stroke-width="1" x1="181" y1="699" x2="181" y2="68"/>
<line opacity="0.1" stroke="#000000" stroke-width="1" x1="190" y1="699" x2="190" y2="68"/>
<line opacity="0.1" stroke="#000000" stroke-width="1" x1="199" y1="699" x2="199" y2="68"/>
<line opacity="0.1" stroke="#000000" stroke-width="1" x1="208" y1="699" x2="208" y2="68"/>
<line opacity="0.1" stroke="#000000" stroke-width="1" x1="217" y1="699" x2="217" y2="68"/>
<line opacity="0.1" stroke="#000000" stroke-width="1" x1="226" y1="699" x2="226" y2="68"/>
<line opacity="0.1" stroke="#000000" stroke-width="1" x1="234" y1="699" x2="234" y2="68"/>
<line opacity="0.1" stroke="#000000" stroke-width="1" x1="243" y1="699" x2="243" y2="68"/>
<line opacity="0.1" stroke="#000000" stroke-width="1" x1="252" y1="699" x2="252" y2="68"/>
<line opacity="0.1" stroke="#000000" stroke-width="1" x1="261" y1="699" x2="261" y2="68"/>
<line opacity="0.1" stroke="#000000" stroke-width="1" x1="270" y1="699" x2="270" y2="68"/>
<line opacity="0.1" stroke="#000000" stroke-width="1" x1="279" y1="699" x2="279" y2="68"/>
<line opacity="0.1" stroke="#000000" stroke-width="1" x1="288" y1="699" x2="288" y2="68"/>
<line opacity="0.1" stroke="#000000" stroke-width="1" x1="297" y1="699" x2="297" y2="68"/>
<line opacity="0.1" stroke="#000000" stroke-width="1" x1="306" y1="699" x2="306" y2="68"/>
<line opacity="0.1" stroke="#000000" stroke-width="1" x1="315" y1="699" x2="315" y2="68"/>
<line opacity="0.1" stroke="#000000" stroke-width="1" x1="323" y1="699" x2="323" y2="68"/>
<line opacity="0.1" stroke="#000000" stroke-width="1" x1="332" y1="699" x2="332" y2="68"/>
<line opacity="0.1" stroke="#000000" stroke-width="1" x1="341" y1="699" x2="341" y2="68"/>
<line opacity="0.1" stroke="#000000" stroke-width="1" x1="350" y1="699" x2="350" y2="68"/>
<line opacity="0.1" stroke="#000000" stroke-width="1" x1="359" y1="699" x2="359" y2="68"/>
<line opacity="0.1" stroke="#000000" stroke-width="1" x1="368" y1="699" x2="368" y2="68"/>
<line opacity="0.1" stroke="#000000" stroke-width="1" x1="377" y1="699" x2="377" y2="68"/>
<line opacity="0.1" stroke="#000000" stroke-width="1" x1="386" y1="699" x2="386" y2="68"/>
<line opacity="0.1" stroke="#000000" stroke-width="1" x1="395" y1="699" x2="395" y2="68"/>
<line opacity="0.1" stroke="#000000" stroke-width="1" x1="403" y1="699" x2="403" y2="68"/>
<line opacity="0.1" stroke="#000000" stroke-width="1" x1="412" y1="699" x2="412" y2="68"/>
<line opacity="0.1" stroke="#000000" stroke-width="1" x1="421" y1="699" x2="421" y2="68"/>
<line opacity="0.1" stroke="#000000" stroke-width="1" x1="430" y1="699" x2="430" y2="68"/>
<line opacity="0.1" stroke="#000000" stroke-width="1" x1="439" y1="699" x2="439" y2="68"/>
<line opacity="0.1" stroke="#000000" stroke-width="1" x1="448" y1="699" x2="448" y2="68"/>
<line opacity="0.1" stroke="#000000" stroke-width="1" x1="457" y1="699" x2="457" y2="68"/>
<line opacity="0.1" stroke="#000000" stroke-width="1" x1="466" y1="699" x2="466" y2="68"/>
<line opacity="0.1" stroke="#000000" stroke-width="1" x1="475" y1="699" x2="475" y2="68"/>
<line opacity="0.1" stroke="#000000" stroke-width="1" x1="483" y1="699" x2="483" y2="68"/>
<line opacity="0.1" stroke="#000000" stroke-width="1" x1="492" y1="699" x2="492" y2="68"/>
<line opacity="0.1" stroke="#000000" stroke-width="1" x1="501" y1="699" x2="501" y2="68"/>
<line opacity="0.1" stroke="#000000" stroke-width="1" x1="510" y1="699" x2="510" y2="68"/>
<line opacity="0.1" stroke="#000000" stroke-width="1" x1="519" y1="699" x2="519" y2="68"/>
<line opacity="0.1" stroke="#000000" stroke-width="1" x1="528" y1="699" x2="528" y2="68"/>
<line opacity="0.1" stroke="#000000" stroke-width="1" x1="537" y1="699" x2="537" y2="68"/>
<line opacity="0.1" stroke="#000000" stroke-width="1" x1="546" y1="699" x2="546" y2="68"/>
<line opacity="0.1" stroke="#000000" stroke-width="1" x1="555" y1="699" x2="555" y2="68"/>
<line opacity="0.1" stroke="#000000" stroke-width="1" x1="563" y1="699" x2="563" y2="68"/>
<line opacity="0.1" stroke="#000000" stroke-width="1" x1="572" y1="699" x2="572" y2="68"/>
<line opacity="0.1" stroke="#000000" stroke-width="1" x1="581" y1="699" x2="581" y2="68"/>
<line opacity="0.1" stroke="#000000" stroke-width="1" x1="590" y1="699" x2="590" y2="68"/>
<line opacity="0.1" stroke="#000000" stroke-width="1" x1="599" y1="699" x2="599" y2="68"/>
<line opacity="0.1" stroke="#000000" stroke-width="1" x1="608" y1="699" x2="608" y2="68"/>
<line opacity="0.1" stroke="#000000" stroke-width="1" x1="617" y1="699" x2="617" y2="68"/>
<line opacity="0.1" stroke="#000000" stroke-width="1" x1="626" y1="699" x2="626" y2="68"/>
<line opacity="0.1" stroke="#000000" stroke-width="1" x1="635" y1="699" x2="635" y2="68"/>
<line opacity="0.1" stroke="#000000" stroke-width="1" x1="644" y1="699" x2="644" y2="68"/>
<line opacity="0.1" stroke="#000000" stroke-width="1" x1="652" y1="699" x2="652" y2="68"/>
<line opacity="0.1" stroke="#000000" stroke-width="1" x1="661" y1="699" x2="661" y2="68"/>
<line opacity="0.1" stroke="#000000" stroke-width="1" x1="670" y1="699" x2="670" y2="68"/>
<line opacity="0.1" stroke="#000000" stroke-width="1" x1="679" y1="699" x2="679" y2="68"/>
<line opacity="0.1" stroke="#000000" stroke-width="1" x1="688" y1="699" x2="688" y2="68"/>
<line opacity="0.1" stroke="#000000" stroke-width="1" x1="697" y1="699" x2="697" y2="68"/>
<line opacity="0.1" stroke="#000000" stroke-width="1" x1="706" y1="699" x2="706" y2="68"/>
<line opacity="0.1" stroke="#000000" stroke-width="1" x1="715" y1="699" x2="715" y2="68"/>
<line opacity="0.1" stroke="#000000" stroke-width="1" x1="724" y1="699" x2="724" y2="68"/>
<line opacity="0.1" stroke="#000000" stroke-width="1" x1="732" y1="699" x2="732" y2="68"/>
<line opacity="0.1" stroke="#000000" stroke-width="1" x1="741" y1="699" x2="741" y2="68"/>
<line opacity="0.1" stroke="#000000" stroke-width="1" x1="750" y1="699" x2="750" y2="68"/>
<line opacity="0.1" stroke="#000000" stroke-width="1" x1="759" y1="699" x2="759" y2="68"/>
<line opacity="0.1" stroke="#000000" stroke-width="1" x1="768" y1="699" x2="768" y2="68"/>
<line opacity="0.1" stroke="#000000" stroke-width="1" x1="777" y1="699" x2="777" y2="68"/>
<line opacity="0.1" stroke="#000000" stroke-width="1" x1="786" y1="699" x2="786" y2="68"/>
<line opacity="0.1" stroke="#000000" stroke-width="1" x1="795" y1="699" x2="795" y2="68"/>
<line opacity="0.1" stroke="#000000" stroke-width="1" x1="804" y1="699" x2="804" y2="68"/>
<line opacity="0.1" stroke="#000000" stroke-width="1" x1="812" y1="699" x2="812" y2="68"/>
<line opacity="0.1" stroke="#000000" stroke-width="1" x1="821" y1="699" x2="821" y2="68"/>
<line opacity="0.1" stroke="#000000" stroke-width="1" x1="830" y1="699" x2="830" y2="68"/>
<line opacity="0.1" stroke="#000000" stroke-width="1" x1="839" y1="699" x2="839" y2="68"/>
<line opacity="0.1" stroke="#000000" stroke-width="1" x1="848" y1="699" x2="848" y2="68"/>
<line opacity="0.1" stroke="#000000" stroke-width="1" x1="857" y1="699" x2="857" y2="68"/>
<line opacity="0.1" stroke="#000000" stroke-width="1" x1="866" y1="699" x2="866" y2="68"/>
<line opacity="0.1" stroke="#000000" stroke-width="1" x1="875" y1="699" x2="875" y2="68"/>
<line opacity="0.1" stroke="#000000" stroke-width="1" x1="884" y1="699" x2="884" y2="68"/>
<line opacity="0.1" stroke="#000000" stroke-width="1" x1="892" y1="699" x2="892" y2="68"/>
<line opacity="0.1" stroke="#000000" stroke-width="1" x1="901" y1="699" x2="901" y2="68"/>
<line opacity="0.1" stroke="#000000" stroke-width="1" x1="910" y1="699" x2="910" y2="68"/>
<line opacity="0.1" stroke="#000000" stroke-width="1" x1="919" y1="699" x2="919" y2="68"/>
<line opacity="0.1" stroke="#000000" stroke-width="1" x1="928" y1="699" x2="928" y2="68"/>
<line opacity="0.1" stroke="#000000" stroke-width="1" x1="937" y1="699" x2="937" y2="68"/>
<line opacity="0.1" stroke="#000000" stroke-width="1" x1="946" y1="699" x2="946" y2="68"/>
<line opacity="0.1" stroke="#000000" stroke-width="1" x1="955" y1="699" x2="955" y2="68"/>
<line opacity="0.1" stroke="#000000" stroke-width="1" x1="964" y1="699" x2="964" y2="68"/>
<line opacity="0.1" stroke="#000000" stroke-width="1" x1="78" y1="699" x2="973" y2="699"/>
<line opacity="0.1" stroke="#000000" stroke-width="1" x1="78" y1="689" x2="973" y2="689"/>
<line opacity="0.1" stroke="#000000" stroke-width="1" x1="78" y1="679" x2="973" y2="679"/>
<line opacity="0.1" stroke="#000000" stroke-width="1" x1="78" y1="669" x2="973" y2="669"/>
<line opacity="0.1" stroke="#000000" stroke-width="1" x1="78" y1="660" x2="973" y2="660"/>
<line opacity="0.1" stroke="#000000" stroke-width="1" x1="78" y1="650" x2="973" y2="650"/>
<line opacity="0.1" stroke="#000000" stroke-width="1" x1="78" y1="640" x2="973" y2="640"/>
<line opacity="0.1" stroke="#000000" stroke-width="1" x1="78" y1="630" x2="973" y2="630"/>
<line opacity="0.1" stroke="#000000" stroke-width="1" x1="78" y1="621" x2="973" y2="621"/>
<line opacity="0.1" stroke="#000000" stroke-width="1" x1="78" y1="611" x2="973" y2="611"/>
<line opacity="0.1" stroke="#000000" stroke-width="1" x1="78" y1="601" x2="973" y2="601"/>
<line opacity="0.1" stroke="#000000" stroke-width="1" x1="78" y1="592" x2="973" y2="592"/>
<line opacity="0.1" stroke="#000000" stroke-width="1" x1="78" y1="582" x2="973" y2="582"/>
<line opacity="0.1" stroke="#000000" stroke-width="1" x1="78" y1="572" x2="973" y2="572"/>
<line opacity="0.1" stroke="#000000" stroke-width="1" x1="78" y1="562" x2="973" y2="562"/>
<line opacity="0.1" stroke="#000000" stroke-width="1" x1="78" y1="553" x2="973" y2="553"/>
<line opacity="0.1" stroke="#000000" stroke-width="1" x1="78" y1="543" x2="973" y2="543"/>
<line opacity="0.1" stroke="#000000" stroke-width="1" x1="78" y1="533" x2="973" y2="533"/>
<line opacity="0.1" stroke="#000000" stroke-width="1" x1="78" y1="524" x2="973" y2="524"/>
<line opacity="0.1" stroke="#000000" stroke-width="1" x1="78" y1="514" x2="973" y2="514"/>
<line opacity="0.1" stroke="#000000" stroke-width="1" x1="78" y1="504" x2="973" y2="504"/>
<line opacity="0.1" stroke="#000000" stroke-width="1" x1="78" y1="494" x2="973" y2="494"/>
<line opacity="0.1" stroke="#000000" stroke-width="1" x1="78" y1="485" x2="973" y2="485"/>
<line opacity="0.1" stroke="#000000" stroke-width="1" x1="78" y1="475" x2="973" y2="475"/>
<line opacity="0.1" stroke="#000000" stroke-width="1" x1="78" y1="465" x2="973" y2="465"/>
<line opacity="0.1" stroke="#000000" stroke-width="1" x1="78" y1="455" x2="973" y2="455"/>
<line opacity="0.1" stroke="#000000" stroke-width="1" x1="78" y1="446" x2="973" y2="446"/>
<line opacity="0.1" stroke="#000000" stroke-width="1" x1="78" y1="436" x2="973" y2="436"/>
<line opacity="0.1" stroke="#000000" stroke-width="1" x1="78" y1="426" x2="973" y2="426"/>
<line opacity="0.1" stroke="#000000" stroke-width="1" x1="78" y1="417" x2="973" y2="417"/>
<line opacity="0.1" stroke="#000000" stroke-width="1" x1="78" y1="407" x2="973" y2="407"/>
<line opacity="0.1" stroke="#000000" stroke-width="1" x1="78" y1="397" x2="973" y2="397"/>
<line opacity="0.1" stroke="#000000" stroke-width="1" x1="78" y1="387" x2="973" y2="387"/>
<line opacity="0.1" stroke="#000000" stroke-width="1" x1="78" y1="378" x2="973" y2="378"/>
<line opacity="0.1" stroke="#000000" stroke-width="1" x1="78" y1="368" x2="973" y2="368"/>
<line opacity="0.1" stroke="#000000" stroke-width="1" x1="78" y1="358" x2="973" y2="358"/>
<line opacity="0.1" stroke="#000000" stroke-width="1" x1="78" y1="349" x2="973" y2="349"/>
<line opacity="0.1" stroke="#000000" stroke-width="1" x1="78" y1="339" x2="973" y2="339"/>
<line opacity="0.1" stroke="#000000" stroke-width="1" x1="78" y1="329" x2="973" y2="329"/>
<line opacity="0.1" stroke="#000000" stroke-width="1" x1="78" y1="319" x2="973" y2="319"/>
<line opacity="0.1" stroke="#000000" stroke-width="1" x1="78" y1="310" x2="973" y2="310"/>
<line opacity="0.1" stroke="#000000" stroke-width="1" x1="78" y1="300" x2="973" y2="300"/>
<line opacity="0.1" stroke="#000000" stroke-width="1" x1="78" y1="290" x2="973" y2="290"/>
<line opacity="0.1" stroke="#000000" stroke-width="1" x1="78" y1="281" x2="973" y2="281"/>
<line opacity="0.1" stroke="#000000" stroke-width="1" x1="78" y1="271" x2="973" y2="271"/>
<line opacity="0.1" stroke="#000000" stroke-width="1" x1="78" y1="261" x2="973" y2="261"/>
<line opacity="0.1" stroke="#000000" stroke-width="1" x1="78" y1="251" x2="973" y2="251"/>
<line opacity="0.1" stroke="#000000" stroke-width="1" x1="78" y1="242" x2="973" y2="242"/>
<line opacity="0.1" stroke="#000000" stroke-width="1" x1="78" y1="232" x2="973" y2="232"/>
<line opacity="0.1" stroke="#000000" stroke-width="1" x1="78" y1="222" x2="973" y2="222"/>
<line opacity="0.1" stroke="#000000" stroke-width="1" x1="78" y1="212" x2="973" y2="212"/>
<line opacity="0.1" stroke="#000000" stroke-width="1" x1="78" y1="203" x2="973" y2="203"/>
<line opacity="0.1" stroke="#000000" stroke-width="1" x1="78" y1="193" x2="973" y2="193"/>
<line opacity="0.1" stroke="#000000" stroke-width="1" x1="78" y1="183" x2="973" y2="183"/>
<line opacity="0.1" stroke="#000000" stroke-width="1" x1="78" y1="174" x2="973" y2="174"/>
<line opacity="0.1" stroke="#000000" stroke-width="1" x1="78" y1="164" x2="973" y2="164"/>
<line opacity="0.1" stroke="#000000" stroke-width="1" x1="78" y1="154" x2="973" y2="154"/>
<line opacity="0.1" stroke="#000000" stroke-width="1" x1="78" y1="144" x2="973" y2="144"/>
<line opacity="0.1" stroke="#000000" stroke-width="1" x1="78" y1="135" x2="973" y2="135"/>
<line opacity="0.1" stroke="#000000" stroke-width="1" x1="78" y1="125" x2="973" y2="125"/>
<line opacity="0.1" stroke="#000000" stroke-width="1" x1="78" y1="115" x2="973" y2="115"/>
<line opacity="0.1" stroke="#000000" stroke-width="1" x1="78" y1="106" x2="973" y2="106"/>
<line opacity="0.1" stroke="#000000" stroke-width="1" x1="78" y1="96" x2="973" y2="96"/>
<line opacity="0.1" stroke="#000000" stroke-width="1" x1="78" y1="86" x2="973" y2="86"/>
<line opacity="0.1" stroke="#000000" stroke-width="1" x1="78" y1="76" x2="973" y2="76"/>
<text x="8" y="384" dy="0.76em" text-anchor="middle" font-family="sans-serif" font-size="9.67741935483871" opacity="1" fill="#000000" transform="rotate(270, 8, 384)">
Memory usage
</text>
<text x="526" y="760" dy="-0.5ex" text-anchor="middle" font-family="sans-serif" font-size="9.67741935483871" opacity="1" fill="#000000">
Time
</text>
<line opacity="0.2" stroke="#000000" stroke-width="1" x1="101" y1="699" x2="101" y2="68"/>
<line opacity="0.2" stroke="#000000" stroke-width="1" x1="190" y1="699" x2="190" y2="68"/>
<line opacity="0.2" stroke="#000000" stroke-width="1" x1="279" y1="699" x2="279" y2="68"/>
<line opacity="0.2" stroke="#000000" stroke-width="1" x1="368" y1="699" x2="368" y2="68"/>
<line opacity="0.2" stroke="#000000" stroke-width="1" x1="457" y1="699" x2="457" y2="68"/>
<line opacity="0.2" stroke="#000000" stroke-width="1" x1="546" y1="699" x2="546" y2="68"/>
<line opacity="0.2" stroke="#000000" stroke-width="1" x1="635" y1="699" x2="635" y2="68"/>
<line opacity="0.2" stroke="#000000" stroke-width="1" x1="724" y1="699" x2="724" y2="68"/>
<line opacity="0.2" stroke="#000000" stroke-width="1" x1="812" y1="699" x2="812" y2="68"/>
<line opacity="0.2" stroke="#000000" stroke-width="1" x1="901" y1="699" x2="901" y2="68"/>
<line opacity="0.2" stroke="#000000" stroke-width="1" x1="78" y1="699" x2="973" y2="699"/>
<line opacity="0.2" stroke="#000000" stroke-width="1" x1="78" y1="601" x2="973" y2="601"/>
<line opacity="0.2" stroke="#000000" stroke-width="1" x1="78" y1="504" x2="973" y2="504"/>
<line opacity="0.2" stroke="#000000" stroke-width="1" x1="78" y1="407" x2="973" y2="407"/>
<line opacity="0.2" stroke="#000000" stroke-width="1" x1="78" y1="310" x2="973" y2="310"/>
<line opacity="0.2" stroke="#000000" stroke-width="1" x1="78" y1="212" x2="973" y2="212"/>
<line opacity="0.2" stroke="#000000" stroke-width="1" x1="78" y1="115" x2="973" y2="115"/>
<polyline fill="none" opacity="1" stroke="#000000" stroke-width="1" points="77,68 77,699 "/>
<text x="68" y="699" dy="0.5ex" text-anchor="end" font-family="sans-serif" font-size="9.67741935483871" opacity="1" fill="#000000">
0.00 MB
</text>
<polyline fill="none" opacity="1" stroke="#000000" stroke-width="1" points="72,699 77,699 "/>
<text x="68" y="601" dy="0.5ex" text-anchor="end" font-family="sans-serif" font-size="9.67741935483871" opacity="1" fill="#000000">
0.19 MB
</text>
<polyline fill="none" opacity="1" stroke="#000000" stroke-width="1" points="72,601 77,601 "/>
<text x="68" y="504" dy="0.5ex" text-anchor="end" font-family="sans-serif" font-size="9.67741935483871" opacity="1" fill="#000000">
0.38 MB
</text>
<polyline fill="none" opacity="1" stroke="#000000" stroke-width="1" points="72,504 77,504 "/>
<text x="68" y="407" dy="0.5ex" text-anchor="end" font-family="sans-serif" font-size="9.67741935483871" opacity="1" fill="#000000">
0.57 MB
</text>
<polyline fill="none" opacity="1" stroke="#000000" stroke-width="1" points="72,407 77,407 "/>
<text x="68" y="310" dy="0.5ex" text-anchor="end" font-family="sans-serif" font-size="9.67741935483871" opacity="1" fill="#000000">
0.76 MB
</text>
<polyline fill="none" opacity="1" stroke="#000000" stroke-width="1" points="72,310 77,310 "/>
<text x="68" y="212" dy="0.5ex" text-anchor="end" font-family="sans-serif" font-size="9.67741935483871" opacity="1" fill="#000000">
0.95 MB
</text>
<polyline fill="none" opacity="1" stroke="#000000" stroke-width="1" points="72,212 77,212 "/>
<text x="68" y="115" dy="0.5ex" text-anchor="end" font-family="sans-serif" font-size="9.67741935483871" opacity="1" fill="#000000">
1.14 MB
</text>
<polyline fill="none" opacity="1" stroke="#000000" stroke-width="1" points="72,115 77,115 "/>
<polyline fill="none" opacity="1" stroke="#000000" stroke-width="1" points="78,700 973,700 "/>
<text x="101" y="710" dy="0.76em" text-anchor="middle" font-family="sans-serif" font-size="9.67741935483871" opacity="1" fill="#000000">
02:04:17
</text>
<polyline fill="none" opacity="1" stroke="#000000" stroke-width="1" points="101,700 101,705 "/>
<text x="190" y="710" dy="0.76em" text-anchor="middle" font-family="sans-serif" font-size="9.67741935483871" opacity="1" fill="#000000">
02:04:18
</text>
<polyline fill="none" opacity="1" stroke="#000000" stroke-width="1" points="190,700 190,705 "/>
<text x="279" y="710" dy="0.76em" text-anchor="middle" font-family="sans-serif" font-size="9.67741935483871" opacity="1" fill="#000000">
02:04:19
</text>
<polyline fill="none" opacity="1" stroke="#000000" stroke-width="1" points="279,700 279,705 "/>
<text x="368" y="710" dy="0.76em" text-anchor="middle" font-family="sans-serif" font-size="9.67741935483871" opacity="1" fill="#000000">
02:04:20
</text>
<polyline fill="none" opacity="1" stroke="#000000" stroke-width="1" points="368,700 368,705 "/>
<text x="457" y="710" dy="0.76em" text-anchor="middle" font-family="sans-serif" font-size="9.67741935483871" opacity="1" fill="#000000">
02:04:21
</text>
<polyline fill="none" opacity="1" stroke="#000000" stroke-width="1" points="457,700 457,705 "/>
<text x="546" y="710" dy="0.76em" text-anchor="middle" font-family="sans-serif" font-size="9.67741935483871" opacity="1" fill="#000000">
02:04:22
</text>
<polyline fill="none" opacity="1" stroke="#000000" stroke-width="1" points="546,700 546,705 "/>
<text x="635" y="710" dy="0.76em" text-anchor="middle" font-family="sans-serif" font-size="9.67741935483871" opacity="1" fill="#000000">
02:04:23
</text>
<polyline fill="none" opacity="1" stroke="#000000" stroke-width="1" points="635,700 635,705 "/>
<text x="724" y="710" dy="0.76em" text-anchor="middle" font-family="sans-serif" font-size="9.67741935483871" opacity="1" fill="#000000">
02:04:24
</text>
<polyline fill="none" opacity="1" stroke="#000000" stroke-width="1" points="724,700 724,705 "/>
<text x="812" y="710" dy="0.76em" text-anchor="middle" font-family="sans-serif" font-size="9.67741935483871" opacity="1" fill="#000000">
02:04:25
</text>
<polyline fill="none" opacity="1" stroke="#000000" stroke-width="1" points="812,700 812,705 "/>
<text x="901" y="710" dy="0.76em" text-anchor="middle" font-family="sans-serif" font-size="9.67741935483871" opacity="1" fill="#000000">
02:04:26
</text>
<polyline fill="none" opacity="1" stroke="#000000" stroke-width="1" points="901,700 901,705 "/>
<polyline fill="none" opacity="1" stroke="#000000" stroke-width="1" points="78,67 974,67 "/>
<text x="101" y="58" dy="-0.5ex" text-anchor="middle" font-family="sans-serif" font-size="9.67741935483871" opacity="1" fill="#000000">
+265ms
</text>
<polyline fill="none" opacity="1" stroke="#000000" stroke-width="1" points="101,62 101,67 "/>
<text x="190" y="58" dy="-0.5ex" text-anchor="middle" font-family="sans-serif" font-size="9.67741935483871" opacity="1" fill="#000000">
+1s
</text>
<polyline fill="none" opacity="1" stroke="#000000" stroke-width="1" points="190,62 190,67 "/>
<text x="279" y="58" dy="-0.5ex" text-anchor="middle" font-family="sans-serif" font-size="9.67741935483871" opacity="1" fill="#000000">
+2s
</text>
<polyline fill="none" opacity="1" stroke="#000000" stroke-width="1" points="279,62 279,67 "/>
<text x="368" y="58" dy="-0.5ex" text-anchor="middle" font-family="sans-serif" font-size="9.67741935483871" opacity="1" fill="#000000">
+3s
</text>
<polyline fill="none" opacity="1" stroke="#000000" stroke-width="1" points="368,62 368,67 "/>
<text x="457" y="58" dy="-0.5ex" text-anchor="middle" font-family="sans-serif" font-size="9.67741935483871" opacity="1" fill="#000000">
+4s
</text>
<polyline fill="none" opacity="1" stroke="#000000" stroke-width="1" points="457,62 457,67 "/>
<text x="546" y="58" dy="-0.5ex" text-anchor="middle" font-family="sans-serif" font-size="9.67741935483871" opacity="1" fill="#000000">
+5s
</text>
<polyline fill="none" opacity="1" stroke="#000000" stroke-width="1" points="546,62 546,67 "/>
<text x="635" y="58" dy="-0.5ex" text-anchor="middle" font-family="sans-serif" font-size="9.67741935483871" opacity="1" fill="#000000">
+6s
</text>
<polyline fill="none" opacity="1" stroke="#000000" stroke-width="1" points="635,62 635,67 "/>
<text x="724" y="58" dy="-0.5ex" text-anchor="middle" font-family="sans-serif" font-size="9.67741935483871" opacity="1" fill="#000000">
+7s
</text>
<polyline fill="none" opacity="1" stroke="#000000" stroke-width="1" points="724,62 724,67 "/>
<text x="813" y="58" dy="-0.5ex" text-anchor="middle" font-family="sans-serif" font-size="9.67741935483871" opacity="1" fill="#000000">
+8s
</text>
<polyline fill="none" opacity="1" stroke="#000000" stroke-width="1" points="813,62 813,67 "/>
<text x="902" y="58" dy="-0.5ex" text-anchor="middle" font-family="sans-serif" font-size="9.67741935483871" opacity="1" fill="#000000">
+9s
</text>
<polyline fill="none" opacity="1" stroke="#000000" stroke-width="1" points="902,62 902,67 "/>
</svg>
