<svg width="1024" height="768" viewBox="0 0 1024 768" xmlns="http://www.w3.org/2000/svg">
<rect x="0" y="0" width="1024" height="768" opacity="1" fill="#FFFFFF" stroke="none"/>
<polygon opacity="1" fill="#3CB44B" points="86,696 87,696 88,694 89,694 90,694 90,689 91,689 92,689 93,689 94,689 95,689 96,689 97,689 97,679 98,679 99,679 100,679 101,679 102,679 103,679 104,679 105,679 105,679 106,679 107,679 108,679 109,679 110,679 111,679 112,679 113,679 113,679 114,659 115,659 116,659 117,659 118,659 119,659 120,659 121,659 121,659 122,659 123,659 124,659 125,659 126,659 127,659 128,659 128,659 129,659 130,659 131,659 132,659 133,659 134,659 135,659 136,659 136,659 137,659 138,659 139,659 140,659 141,659 142,659 143,659 144,659 144,659 145,659 146,659 147,659 148,659 149,659 150,659 151,659 152,620 152,620 153,620 154,620 155,620 156,620 157,620 158,620 159,620 159,620 160,620 161,620 162,620 163,620 164,620 165,620 166,620 167,620 167,620 168,620 169,620 170,620 171,620 172,620 173,620 174,620 175,620 175,620 176,620 177,620 178,620 179,620 180,620 181,620 182,620 183,620 183,620 184,620 185,620 186,620 187,620 188,620 189,620 190,620 190,620 191,620 192,620 193,620 194,620 195,620 196,620 197,620 198,620 198,620 199,620 200,620 201,620 202,620 203,620 204,620 205,620 206,620 206,620 207,620 208,620 209,620 210,620 211,620 212,620 213,620 213,620 214,620 215,620 216,620 217,620 218,620 219,620 220,620 221,620 221,620 222,620 223,620 224,620 225,620 226,620 227,620 228,541 229,541 229,541 230,541 231,541 232,541 233,541 234,541 235,541 236,541 237,541 237,541 238,541 239,541 240,541 241,541 242,541 243,541 244,541 244,541 245,541 246,541 247,541 248,541 249,541 250,541 251,541 252,541 252,541 253,541 254,541 255,541 256,541 257,541 258,541 259,541 260,541 260,541 261,541 262,541 263,541 264,541 265,541 266,541 267,541 268,541 268,541 269,541 270,541 271,541 272,541 273,541 274,541 275,541 275,541 276,541 277,541 278,541 279,541 280,541 281,541 282,541 283,541 283,541 284,541 285,541 286,541 287,541 288,541 289,541 290,541 291,541 291,541 292,541 293,541 294,541 295,541 296,541 297,541 298,541 299,541 299,541 300,541 301,541 302,541 303,541 304,541 305,541 306,541 306,541 307,541 308,541 309,541 310,541 311,541 312,541 313,541 314,541 314,541 315,541 316,541 317,541 318,541 319,541 320,541 321,541 322,541 322,541 323,541 324,541 325,541 326,541 327,541 328,541 329,541 330,541 330,541 331,541 332,541 333,541 334,541 335,541 336,541 337,541 337,541 338,541 339,541 340,541 341,541 342,541 343,541 344,541 345,541 345,541 346,541 347,541 348,541 349,541 350,541 351,541 352,541 353,541 353,541 354,541 355,541 356,541 357,541 358,541 359,541 360,541 361,541 361,541 362,541 363,541 364,541 365,541 366,541 367,541 368,541 368,541 369,541 370,541 371,541 372,541 373,541 374,541 375,541 376,541 376,541 377,541 378,541 379,541 380,541 381,541 382,541 383,541 384,541 384,541 385,541 386,383 387,383 388,383 389,383 390,383 391,383 392,383 392,383 393,383 394,383 395,383 396,383 397,383 398,383 399,383 399,383 400,383 401,383 402,383 403,383 404,383 405,383 406,383 407,383 407,383 408,383 409,383 410,383 411,383 412,383 413,383 414,383 415,383 415,383 416,383 417,383 418,383 419,383 420,383 421,383 422,383 423,383 423,383 424,383 425,383 426,383 427,383 428,383 429,383 430,383 430,383 431,383 432,383 433,383 434,383 435,383 436,383 437,383 438,383 438,383 439,383 440,383 441,383 442,383 443,383 444,383 445,383 446,383 446,383 447,383 448,383 449,383 450,383 451,383 452,383 453,383 454,383 454,383 455,383 456,383 457,383 458,383 459,383 460,383 461,383 461,383 462,383 463,383 464,383 465,383 466,383 467,383 468,383 469,383 469,383 470,383 471,383 472,383 473,383 474,383 475,383 476,383 477,383 477,383 478,383 479,383 480,383 481,383 482,383 483,383 484,383 485,383 485,383 486,383 487,383 488,383 489,383 490,383 491,383 492,383 492,383 493,383 494,383 495,383 496,383 497,383 498,383 499,383 500,383 500,383 501,383 502,383 503,383 504,383 505,383 506,383 507,383 508,383 508,383 509,383 510,383 511,383 512,383 513,383 514,383 515,383 515,383 516,383 517,383 518,383 519,383 520,383 521,383 522,383 523,383 523,383 524,383 525,383 526,383 527,383 528,383 529,383 530,383 531,383 531,383 532,383 533,383 534,383 535,383 536,383 537,383 538,383 539,383 539,383 540,383 541,383 542,383 543,383 544,383 545,383 546,383 546,383 547,383 548,383 549,383 550,383 551,383 552,383 553,383 554,383 554,383 555,383 556,383 557,383 558,383 559,383 560,383 561,383 562,383 562,383 563,383 564,383 565,383 566,383 567,383 568,383 569,383 570,383 570,383 571,383 572,383 573,383 574,383 575,383 576,383 577,383 577,383 578,383 579,383 580,383 581,383 582,383 583,383 584,383 585,383 585,383 586,383 587,383 588,383 589,383 590,383 591,383 592,383 593,383 593,383 594,383 595,383 596,383 597,383 598,383 599,383 600,383 601,383 601,383 602,383 603,383 604,383 605,383 606,383 607,383 608,383 608,383 609,383 610,383 611,383 612,383 613,383 614,383 615,383 616,383 616,383 617,383 618,383 619,383 620,383 621,383 622,383 623,383 624,383 624,383 625,68 625,68 626,68 627,68 628,68 629,68 630,68 631,68 632,68 632,68 633,68 634,68 635,68 636,68 637,68 638,68 639,68 639,68 640,68 641,68 642,68 643,68 644,68 645,68 646,68 647,68 647,68 648,68 649,68 650,68 651,68 652,68 653,68 654,68 655,68 655,68 656,68 657,68 658,68 659,68 660,68 661,68 662,68 663,68 663,68 664,68 665,68 666,68 667,68 668,68 669,68 670,68 670,68 671,68 672,68 673,68 674,68 675,68 676,68 677,68 678,68 678,68 679,68 680,68 681,68 682,68 683,68 684,68 685,68 686,68 686,68 687,68 688,68 689,68 690,68 691,68 692,68 693,68 694,68 694,68 695,68 696,68 697,68 698,68 699,68 700,68 701,68 701,68 702,68 703,68 704,68 705,68 706,68 707,68 708,68 709,68 709,68 710,68 711,68 712,68 713,68 714,68 715,68 716,68 717,68 717,68 718,68 719,68 720,68 721,68 722,68 723,68 724,68 725,68 725,68 726,68 727,68 728,68 729,68 730,68 731,68 732,68 732,68 733,68 734,68 735,68 736,68 737,68 738,68 739,68 740,68 740,68 741,68 742,68 743,68 744,68 745,68 746,68 747,68 748,68 748,68 749,68 750,68 751,68 752,68 753,68 754,68 755,68 756,68 756,68 757,68 758,68 759,68 760,68 761,68 762,68 763,68 763,68 764,68 765,68 766,68 767,68 768,68 769,68 770,68 771,68 771,68 772,68 773,68 774,68 775,68 776,68 777,68 778,68 779,68 779,68 780,68 781,68 782,68 783,68 784,68 785,68 786,68 787,68 787,68 788,68 789,68 790,68 791,68 792,68 793,68 794,68 794,68 795,68 796,68 797,68 798,68 799,68 800,68 801,68 802,68 802,68 803,68 804,68 805,68 806,68 807,68 808,68 809,68 810,68 810,68 811,68 812,68 813,68 814,68 815,68 816,68 817,68 817,68 818,68 819,68 820,68 821,68 822,68 823,68 824,68 825,68 825,68 826,68 827,68 828,68 829,68 830,68 831,68 832,68 833,68 833,68 834,68 835,68 836,68 837,68 838,68 839,68 840,68 841,68 841,68 842,68 843,68 844,68 845,68 846,68 847,68 848,68 848,68 849,68 850,68 851,68 852,68 853,68 854,68 855,68 856,68 856,68 857,68 858,68 859,68 860,68 861,68 862,68 863,68 864,68 864,68 865,68 866,68 867,68 868,68 869,68 870,68 871,68 872,68 872,68 873,68 874,68 875,68 876,68 877,68 878,68 879,68 879,68 880,68 881,68 882,68 883,68 884,68 885,68 886,68 887,68 887,68 888,68 889,68 890,68 891,68 892,68 893,68 894,68 895,68 895,68 896,68 897,68 898,68 899,68 900,68 901,68 902,68 903,68 903,68 904,68 905,68 906,68 907,68 908,68 909,68 910,68 910,68 911,68 912,68 913,68 914,68 915,68 916,68 917,68 918,68 918,68 919,68 920,68 921,68 922,68 923,68 924,68 925,68 926,68 926,68 927,68 928,68 929,68 930,68 931,68 932,68 933,68 934,68 934,68 935,68 936,68 937,68 938,68 939,68 940,68 941,68 941,68 942,68 943,68 944,68 945,68 946,68 947,68 948,68 949,68 949,68 950,68 951,68 952,68 953,68 954,68 955,68 956,68 957,68 957,68 958,68 959,68 960,68 961,68 962,68 963,68 964,68 965,68 965,68 966,68 967,68 968,68 969,68 970,68 971,68 972,699 972,699 973,699 973,699 86,699 "/>
<polyline fill="none" opacity="1" stroke="#3CB44B" stroke-width="1" points="86,696 87,696 88,694 89,694 90,694 90,689 91,689 92,689 93,689 94,689 95,689 96,689 97,689 97,679 98,679 99,679 100,679 101,679 102,679 103,679 104,679 105,679 105,679 106,679 107,679 108,679 109,679 110,679 111,679 112,679 113,679 113,679 114,659 115,659 116,659 117,659 118,659 119,659 120,659 121,659 121,659 122,659 123,659 124,659 125,659 126,659 127,659 128,659 128,659 129,659 130,659 131,659 132,659 133,659 134,659 135,659 136,659 136,659 137,659 138,659 139,659 140,659 141,659 142,659 143,659 144,659 144,659 145,659 146,659 147,659 148,659 149,659 150,659 151,659 152,620 152,620 153,620 154,620 155,620 156,620 157,620 158,620 159,620 159,620 160,620 161,620 162,620 163,620 164,620 165,620 166,620 167,620 167,620 168,620 169,620 170,620 171,620 172,620 173,620 174,620 175,620 175,620 176,620 177,620 178,620 179,620 180,620 181,620 182,620 183,620 183,620 184,620 185,620 186,620 187,620 188,620 189,620 190,620 190,620 191,620 192,620 193,620 194,620 195,620 196,620 197,620 198,620 198,620 199,620 200,620 201,620 202,620 203,620 204,620 205,620 206,620 206,620 207,620 208,620 209,620 210,620 211,620 212,620 213,620 213,620 214,620 215,620 216,620 217,620 218,620 219,620 220,620 221,620 221,620 222,620 223,620 224,620 225,620 226,620 227,620 228,541 229,541 229,541 230,541 231,541 232,541 233,541 234,541 235,541 236,541 237,541 237,541 238,541 239,541 240,541 241,541 242,541 243,541 244,541 244,541 245,541 246,541 247,541 248,541 249,541 250,541 251,541 252,541 252,541 253,541 254,541 255,541 256,541 257,541 258,541 259,541 260,541 260,541 261,541 262,541 263,541 264,541 265,541 266,541 267,541 268,541 268,541 269,541 270,541 271,541 272,541 273,541 274,541 275,541 275,541 276,541 277,541 278,541 279,541 280,541 281,541 282,541 283,541 283,541 284,541 285,541 286,541 287,541 288,541 289,541 290,541 291,541 291,541 292,541 293,541 294,541 295,541 296,541 297,541 298,541 299,541 299,541 300,541 301,541 302,541 303,541 304,541 305,541 306,541 306,541 307,541 308,541 309,541 310,541 311,541 312,541 313,541 314,541 314,541 315,541 316,541 317,541 318,541 319,541 320,541 321,541 322,541 322,541 323,541 324,541 325,541 326,541 327,541 328,541 329,541 330,541 330,541 331,541 332,541 333,541 334,541 335,541 336,541 337,541 337,541 338,541 339,541 340,541 341,541 342,541 343,541 344,541 345,541 345,541 346,541 347,541 348,541 349,541 350,541 351,541 352,541 353,541 353,541 354,541 355,541 356,541 357,541 358,541 359,541 360,541 361,541 361,541 362,541 363,541 364,541 365,541 366,541 367,541 368,541 368,541 369,541 370,541 371,541 372,541 373,541 374,541 375,541 376,541 376,541 377,541 378,541 379,541 380,541 381,541 382,541 383,541 384,541 384,541 385,541 386,383 387,383 388,383 389,383 390,383 391,383 392,383 392,383 393,383 394,383 395,383 396,383 397,383 398,383 399,383 399,383 400,383 401,383 402,383 403,383 404,383 405,383 406,383 407,383 407,383 408,383 409,383 410,383 411,383 412,383 413,383 414,383 415,383 415,383 416,383 417,383 418,383 419,383 420,383 421,383 422,383 423,383 423,383 424,383 425,383 426,383 427,383 428,383 429,383 430,383 430,383 431,383 432,383 433,383 434,383 435,383 436,383 437,383 438,383 438,383 439,383 440,383 441,383 442,383 443,383 444,383 445,383 446,383 446,383 447,383 448,383 449,383 450,383 451,383 452,383 453,383 454,383 454,383 455,383 456,383 457,383 458,383 459,383 460,383 461,383 461,383 462,383 463,383 464,383 465,383 466,383 467,383 468,383 469,383 469,383 470,383 471,383 472,383 473,383 474,383 475,383 476,383 477,383 477,383 478,383 479,383 480,383 481,383 482,383 483,383 484,383 485,383 485,383 486,383 487,383 488,383 489,383 490,383 491,383 492,383 492,383 493,383 494,383 495,383 496,383 497,383 498,383 499,383 500,383 500,383 501,383 502,383 503,383 504,383 505,383 506,383 507,383 508,383 508,383 509,383 510,383 511,383 512,383 513,383 514,383 515,383 515,383 516,383 517,383 518,383 519,383 520,383 521,383 522,383 523,383 523,383 524,383 525,383 526,383 527,383 528,383 529,383 530,383 531,383 531,383 532,383 533,383 534,383 535,383 536,383 537,383 538,383 539,383 539,383 540,383 541,383 542,383 543,383 544,383 545,383 546,383 546,383 547,383 548,383 549,383 550,383 551,383 552,383 553,383 554,383 554,383 555,383 556,383 557,383 558,383 559,383 560,383 561,383 562,383 562,383 563,383 564,383 565,383 566,383 567,383 568,383 569,383 570,383 570,383 571,383 572,383 573,383 574,383 575,383 576,383 577,383 577,383 578,383 579,383 580,383 581,383 582,383 583,383 584,383 585,383 585,383 586,383 587,383 588,383 589,383 590,383 591,383 592,383 593,383 593,383 594,383 595,383 596,383 597,383 598,383 599,383 600,383 601,383 601,383 602,383 603,383 604,383 605,383 606,383 607,383 608,383 608,383 609,383 610,383 611,383 612,383 613,383 614,383 615,383 616,383 616,383 617,383 618,383 619,383 620,383 621,383 622,383 623,383 624,383 624,383 625,68 625,68 626,68 627,68 628,68 629,68 630,68 631,68 632,68 632,68 633,68 634,68 635,68 636,68 637,68 638,68 639,68 639,68 640,68 641,68 642,68 643,68 644,68 645,68 646,68 647,68 647,68 648,68 649,68 650,68 651,68 652,68 653,68 654,68 655,68 655,68 656,68 657,68 658,68 659,68 660,68 661,68 662,68 663,68 663,68 664,68 665,68 666,68 667,68 668,68 669,68 670,68 670,68 671,68 672,68 673,68 674,68 675,68 676,68 677,68 678,68 678,68 679,68 680,68 681,68 682,68 683,68 684,68 685,68 686,68 686,68 687,68 688,68 689,68 690,68 691,68 692,68 693,68 694,68 694,68 695,68 696,68 697,68 698,68 699,68 700,68 701,68 701,68 702,68 703,68 704,68 705,68 706,68 707,68 708,68 709,68 709,68 710,68 711,68 712,68 713,68 714,68 715,68 716,68 717,68 717,68 718,68 719,68 720,68 721,68 722,68 723,68 724,68 725,68 725,68 726,68 727,68 728,68 729,68 730,68 731,68 732,68 732,68 733,68 734,68 735,68 736,68 737,68 738,68 739,68 740,68 740,68 741,68 742,68 743,68 744,68 745,68 746,68 747,68 748,68 748,68 749,68 750,68 751,68 752,68 753,68 754,68 755,68 756,68 756,68 757,68 758,68 759,68 760,68 761,68 762,68 763,68 763,68 764,68 765,68 766,68 767,68 768,68 769,68 770,68 771,68 771,68 772,68 773,68 774,68 775,68 776,68 777,68 778,68 779,68 779,68 780,68 781,68 782,68 783,68 784,68 785,68 786,68 787,68 787,68 788,68 789,68 790,68 791,68 792,68 793,68 794,68 794,68 795,68 796,68 797,68 798,68 799,68 800,68 801,68 802,68 802,68 803,68 804,68 805,68 806,68 807,68 808,68 809,68 810,68 810,68 811,68 812,68 813,68 814,68 815,68 816,68 817,68 817,68 818,68 819,68 820,68 821,68 822,68 823,68 824,68 825,68 825,68 826,68 827,68 828,68 829,68 830,68 831,68 832,68 833,68 833,68 834,68 835,68 836,68 837,68 838,68 839,68 840,68 841,68 841,68 842,68 843,68 844,68 845,68 846,68 847,68 848,68 848,68 849,68 850,68 851,68 852,68 853,68 854,68 855,68 856,68 856,68 857,68 858,68 859,68 860,68 861,68 862,68 863,68 864,68 864,68 865,68 866,68 867,68 868,68 869,68 870,68 871,68 872,68 872,68 873,68 874,68 875,68 876,68 877,68 878,68 879,68 879,68 880,68 881,68 882,68 883,68 884,68 885,68 886,68 887,68 887,68 888,68 889,68 890,68 891,68 892,68 893,68 894,68 895,68 895,68 896,68 897,68 898,68 899,68 900,68 901,68 902,68 903,68 903,68 904,68 905,68 906,68 907,68 908,68 909,68 910,68 910,68 911,68 912,68 913,68 914,68 915,68 916,68 917,68 918,68 918,68 919,68 920,68 921,68 922,68 923,68 924,68 925,68 926,68 926,68 927,68 928,68 929,68 930,68 931,68 932,68 933,68 934,68 934,68 935,68 936,68 937,68 938,68 939,68 940,68 941,68 941,68 942,68 943,68 944,68 945,68 946,68 947,68 948,68 949,68 949,68 950,68 951,68 952,68 953,68 954,68 955,68 956,68 957,68 957,68 958,68 959,68 960,68 961,68 962,68 963,68 964,68 965,68 965,68 966,68 967,68 968,68 969,68 970,68 971,68 972,699 972,699 973,699 "/>
<polygon opacity="1" fill="#E6194B" points="86,699 87,699 88,699 89,699 90,699 90,699 91,699 92,699 93,699 94,699 95,699 96,699 97,699 97,699 98,699 99,699 100,699 101,699 102,699 103,699 104,699 105,699 105,699 106,699 107,699 108,699 109,699 110,699 111,699 112,699 113,699 113,699 114,699 115,699 116,699 117,699 118,699 119,699 120,699 121,699 121,699 122,699 123,699 124,699 125,699 126,699 127,699 128,699 128,699 129,699 130,699 131,699 132,699 133,699 134,699 135,699 136,699 136,699 137,699 138,699 139,699 140,699 141,699 142,699 143,699 144,699 144,699 145,699 146,699 147,699 148,699 149,699 150,699 151,699 152,699 152,699 153,699 154,699 155,699 156,699 157,699 158,699 159,699 159,699 160,699 161,699 162,699 163,699 164,699 165,699 166,699 167,699 167,699 168,699 169,699 170,699 171,699 172,699 173,699 174,699 175,699 175,699 176,699 177,699 178,699 179,699 180,699 181,699 182,699 183,699 183,699 184,699 185,699 186,699 187,699 188,699 189,699 190,699 190,699 191,699 192,699 193,699 194,699 195,699 196,699 197,699 198,699 198,699 199,699 200,699 201,699 202,699 203,699 204,699 205,699 206,699 206,699 207,699 208,699 209,699 210,699 211,699 212,699 213,699 213,699 214,699 215,699 216,699 217,699 218,699 219,699 220,699 221,699 221,699 222,699 223,699 224,699 225,699 226,699 227,699 228,699 229,699 229,699 230,699 231,699 232,699 233,699 234,699 235,699 236,699 237,699 237,699 238,699 239,699 240,699 241,699 242,699 243,699 244,699 244,699 245,699 246,699 247,699 248,699 249,699 250,699 251,699 252,699 252,699 253,699 254,699 255,699 256,699 257,699 258,699 259,699 260,699 260,699 261,699 262,699 263,699 264,699 265,699 266,699 267,699 268,699 268,699 269,699 270,699 271,699 272,699 273,699 274,699 275,699 275,699 276,699 277,699 278,699 279,699 280,699 281,699 282,699 283,699 283,699 284,699 285,699 286,699 287,699 288,699 289,699 290,699 291,699 291,699 292,699 293,699 294,699 295,699 296,699 297,699 298,699 299,699 299,699 300,699 301,699 302,699 303,699 304,699 305,699 306,699 306,699 307,699 308,699 309,699 310,699 311,699 312,699 313,699 314,699 314,699 315,699 316,699 317,699 318,699 319,699 320,699 321,699 322,699 322,699 323,699 324,699 325,699 326,699 327,699 328,699 329,699 330,699 330,699 331,699 332,699 333,699 334,699 335,699 336,699 337,699 337,699 338,699 339,699 340,699 341,699 342,699 343,699 344,699 345,699 345,699 346,699 347,699 348,699 349,699 350,699 351,699 352,699 353,699 353,699 354,699 355,699 356,699 357,699 358,699 359,699 360,699 361,699 361,699 362,699 363,699 364,699 365,699 366,699 367,699 368,699 368,699 369,699 370,699 371,699 372,699 373,699 374,699 375,699 376,699 376,699 377,699 378,699 379,699 380,699 381,699 382,699 383,699 384,699 384,699 385,699 386,699 387,699 388,699 389,699 390,699 391,699 392,699 392,699 393,699 394,699 395,699 396,699 397,699 398,699 399,699 399,699 400,699 401,699 402,699 403,699 404,699 405,699 406,699 407,699 407,699 408,699 409,699 410,699 411,699 412,699 413,699 414,699 415,699 415,699 416,699 417,699 418,699 419,699 420,699 421,699 422,699 423,699 423,699 424,699 425,699 426,699 427,699 428,699 429,699 430,699 430,699 431,699 432,699 433,699 434,699 435,699 436,699 437,699 438,699 438,699 439,699 440,699 441,699 442,699 443,699 444,699 445,699 446,699 446,699 447,699 448,699 449,699 450,699 451,699 452,699 453,699 454,699 454,699 455,699 456,699 457,699 458,699 459,699 460,699 461,699 461,699 462,699 463,699 464,699 465,699 466,699 467,699 468,699 469,699 469,699 470,699 471,699 472,699 473,699 474,699 475,699 476,699 477,699 477,699 478,699 479,699 480,699 481,699 482,699 483,699 484,699 485,699 485,699 486,699 487,699 488,699 489,699 490,699 491,699 492,699 492,699 493,699 494,699 495,699 496,699 497,699 498,699 499,699 500,699 500,699 501,699 502,699 503,699 504,699 505,699 506,699 507,699 508,699 508,699 509,699 510,699 511,699 512,699 513,699 514,699 515,699 515,699 516,699 517,699 518,699 519,699 520,699 521,699 522,699 523,699 523,699 524,699 525,699 526,699 527,699 528,699 529,699 530,699 531,699 531,699 532,699 533,699 534,699 535,699 536,699 537,699 538,699 539,699 539,699 540,699 541,699 542,699 543,699 544,699 545,699 546,699 546,699 547,699 548,699 549,699 550,699 551,699 552,699 553,699 554,699 554,699 555,699 556,699 557,699 558,699 559,699 560,699 561,699 562,699 562,699 563,699 564,699 565,699 566,699 567,699 568,699 569,699 570,699 570,699 571,699 572,699 573,699 574,699 575,699 576,699 577,699 577,699 578,699 579,699 580,699 581,699 582,699 583,699 584,699 585,699 585,699 586,699 587,699 588,699 589,699 590,699 591,699 592,699 593,699 593,699 594,699 595,699 596,699 597,699 598,699 599,699 600,699 601,699 601,699 602,699 603,699 604,699 605,699 606,699 607,699 608,699 608,699 609,699 610,699 611,699 612,699 613,699 614,699 615,699 616,699 616,699 617,699 618,699 619,699 620,699 621,699 622,699 623,699 624,699 624,699 625,68 625,68 626,68 627,68 628,68 629,68 630,68 631,68 632,68 632,68 633,68 634,68 635,68 636,68 637,68 638,68 639,68 639,68 640,68 641,68 642,68 643,68 644,68 645,68 646,68 647,68 647,68 648,68 649,68 650,68 651,68 652,68 653,68 654,68 655,68 655,68 656,68 657,68 658,68 659,68 660,68 661,68 662,68 663,68 663,68 664,68 665,68 666,68 667,68 668,68 669,68 670,68 670,68 671,68 672,68 673,68 674,68 675,68 676,68 677,68 678,68 678,68 679,68 680,68 681,68 682,68 683,68 684,68 685,68 686,68 686,68 687,68 688,68 689,68 690,68 691,68 692,68 693,68 694,68 694,68 695,68 696,68 697,68 698,68 699,68 700,68 701,68 701,68 702,68 703,68 704,68 705,68 706,68 707,68 708,68 709,68 709,68 710,68 711,68 712,68 713,68 714,68 715,68 716,68 717,68 717,68 718,68 719,68 720,68 721,68 722,68 723,68 724,68 725,68 725,68 726,68 727,68 728,68 729,68 730,68 731,68 732,68 732,68 733,68 734,68 735,68 736,68 737,68 738,68 739,68 740,68 740,68 741,68 742,68 743,68 744,68 745,68 746,68 747,68 748,68 748,68 749,68 750,68 751,68 752,68 753,68 754,68 755,68 756,68 756,68 757,68 758,68 759,68 760,68 761,68 762,68 763,68 763,68 764,68 765,68 766,68 767,68 768,68 769,68 770,68 771,68 771,68 772,68 773,68 774,68 775,68 776,68 777,68 778,68 779,68 779,68 780,68 781,68 782,68 783,68 784,68 785,68 786,68 787,68 787,68 788,68 789,68 790,68 791,68 792,68 793,68 794,68 794,68 795,68 796,68 797,68 798,68 799,68 800,68 801,68 802,68 802,68 803,68 804,68 805,68 806,68 807,68 808,68 809,68 810,68 810,68 811,68 812,68 813,68 814,68 815,68 816,68 817,68 817,68 818,68 819,68 820,68 821,68 822,68 823,68 824,68 825,68 825,68 826,68 827,68 828,68 829,68 830,68 831,68 832,68 833,68 833,68 834,68 835,68 836,68 837,68 838,68 839,68 840,68 841,68 841,68 842,68 843,68 844,68 845,68 846,68 847,68 848,68 848,68 849,68 850,68 851,68 852,68 853,68 854,68 855,68 856,68 856,68 857,68 858,68 859,68 860,68 861,68 862,68 863,68 864,68 864,68 865,68 866,68 867,68 868,68 869,68 870,68 871,68 872,68 872,68 873,68 874,68 875,68 876,68 877,68 878,68 879,68 879,68 880,68 881,68 882,68 883,68 884,68 885,68 886,68 887,68 887,68 888,68 889,68 890,68 891,68 892,68 893,68 894,68 895,68 895,68 896,68 897,68 898,68 899,68 900,68 901,68 902,68 903,68 903,68 904,68 905,68 906,68 907,68 908,68 909,68 910,68 910,68 911,68 912,68 913,68 914,68 915,68 916,68 917,68 918,68 918,68 919,68 920,68 921,68 922,68 923,68 924,68 925,68 926,68 926,68 927,68 928,68 929,68 930,68 931,68 932,68 933,68 934,68 934,68 935,68 936,68 937,68 938,68 939,68 940,68 941,68 941,68 942,68 943,68 944,68 945,68 946,68 947,68 948,68 949,68 949,68 950,68 951,68 952,68 953,68 954,68 955,68 956,68 957,68 957,68 958,68 959,68 960,68 961,68 962,68 963,68 964,68 965,68 965,68 966,68 967,68 968,68 969,68 970,68 971,68 972,699 972,699 973,699 973,699 86,699 "/>
<polyline fill="none" opacity="1" stroke="#E6194B" stroke-width="1" points="86,699 87,699 88,699 89,699 90,699 90,699 91,699 92,699 93,699 94,699 95,699 96,699 97,699 97,699 98,699 99,699 100,699 101,699 102,699 103,699 104,699 105,699 105,699 106,699 107,699 108,699 109,699 110,699 111,699 112,699 113,699 113,699 114,699 115,699 116,699 117,699 118,699 119,699 120,699 121,699 121,699 122,699 123,699 124,699 125,699 126,699 127,699 128,699 128,699 129,699 130,699 131,699 132,699 133,699 134,699 135,699 136,699 136,699 137,699 138,699 139,699 140,699 141,699 142,699 143,699 144,699 144,699 145,699 146,699 147,699 148,699 149,699 150,699 151,699 152,699 152,699 153,699 154,699 155,699 156,699 157,699 158,699 159,699 159,699 160,699 161,699 162,699 163,699 164,699 165,699 166,699 167,699 167,699 168,699 169,699 170,699 171,699 172,699 173,699 174,699 175,699 175,699 176,699 177,699 178,699 179,699 180,699 181,699 182,699 183,699 183,699 184,699 185,699 186,699 187,699 188,699 189,699 190,699 190,699 191,699 192,699 193,699 194,699 195,699 196,699 197,699 198,699 198,699 199,699 200,699 201,699 202,699 203,699 204,699 205,699 206,699 206,699 207,699 208,699 209,699 210,699 211,699 212,699 213,699 213,699 214,699 215,699 216,699 217,699 218,699 219,699 220,699 221,699 221,699 222,699 223,699 224,699 225,699 226,699 227,699 228,699 229,699 229,699 230,699 231,699 232,699 233,699 234,699 235,699 236,699 237,699 237,699 238,699 239,699 240,699 241,699 242,699 243,699 244,699 244,699 245,699 246,699 247,699 248,699 249,699 250,699 251,699 252,699 252,699 253,699 254,699 255,699 256,699 257,699 258,699 259,699 260,699 260,699 261,699 262,699 263,699 264,699 265,699 266,699 267,699 268,699 268,699 269,699 270,699 271,699 272,699 273,699 274,699 275,699 275,699 276,699 277,699 278,699 279,699 280,699 281,699 282,699 283,699 283,699 284,699 285,699 286,699 287,699 288,699 289,699 290,699 291,699 291,699 292,699 293,699 294,699 295,699 296,699 297,699 298,699 299,699 299,699 300,699 301,699 302,699 303,699 304,699 305,699 306,699 306,699 307,699 308,699 309,699 310,699 311,699 312,699 313,699 314,699 314,699 315,699 316,699 317,699 318,699 319,699 320,699 321,699 322,699 322,699 323,699 324,699 325,699 326,699 327,699 328,699 329,699 330,699 330,699 331,699 332,699 333,699 334,699 335,699 336,699 337,699 337,699 338,699 339,699 340,699 341,699 342,699 343,699 344,699 345,699 345,699 346,699 347,699 348,699 349,699 350,699 351,699 352,699 353,699 353,699 354,699 355,699 356,699 357,699 358,699 359,699 360,699 361,699 361,699 362,699 363,699 364,699 365,699 366,699 367,699 368,699 368,699 369,699 370,699 371,699 372,699 373,699 374,699 375,699 376,699 376,699 377,699 378,699 379,699 380,699 381,699 382,699 383,699 384,699 384,699 385,699 386,699 387,699 388,699 389,699 390,699 391,699 392,699 392,699 393,699 394,699 395,699 396,699 397,699 398,699 399,699 399,699 400,699 401,699 402,699 403,699 404,699 405,699 406,699 407,699 407,699 408,699 409,699 410,699 411,699 412,699 413,699 414,699 415,699 415,699 416,699 417,699 418,699 419,699 420,699 421,699 422,699 423,699 423,699 424,699 425,699 426,699 427,699 428,699 429,699 430,699 430,699 431,699 432,699 433,699 434,699 435,699 436,699 437,699 438,699 438,699 439,699 440,699 441,699 442,699 443,699 444,699 445,699 446,699 446,699 447,699 448,699 449,699 450,699 451,699 452,699 453,699 454,699 454,699 455,699 456,699 457,699 458,699 459,699 460,699 461,699 461,699 462,699 463,699 464,699 465,699 466,699 467,699 468,699 469,699 469,699 470,699 471,699 472,699 473,699 474,699 475,699 476,699 477,699 477,699 478,699 479,699 480,699 481,699 482,699 483,699 484,699 485,699 485,699 486,699 487,699 488,699 489,699 490,699 491,699 492,699 492,699 493,699 494,699 495,699 496,699 497,699 498,699 499,699 500,699 500,699 501,699 502,699 503,699 504,699 505,699 506,699 507,699 508,699 508,699 509,699 510,699 511,699 512,699 513,699 514,699 515,699 515,699 516,699 517,699 518,699 519,699 520,699 521,699 522,699 523,699 523,699 524,699 525,699 526,699 527,699 528,699 529,699 530,699 531,699 531,699 532,699 533,699 534,699 535,699 536,699 537,699 538,699 539,699 539,699 540,699 541,699 542,699 543,699 544,699 545,699 546,699 546,699 547,699 548,699 549,699 550,699 551,699 552,699 553,699 554,699 554,699 555,699 556,699 557,699 558,699 559,699 560,699 561,699 562,699 562,699 563,699 564,699 565,699 566,699 567,699 568,699 569,699 570,699 570,699 571,699 572,699 573,699 574,699 575,699 576,699 577,699 577,699 578,699 579,699 580,699 581,699 582,699 583,699 584,699 585,699 585,699 586,699 587,699 588,699 589,699 590,699 591,699 592,699 593,699 593,699 594,699 595,699 596,699 597,699 598,699 599,699 600,699 601,699 601,699 602,699 603,699 604,699 605,699 606,699 607,699 608,699 608,699 609,699 610,699 611,699 612,699 613,699 614,699 615,699 616,699 616,699 617,699 618,699 619,699 620,699 621,699 622,699 623,699 624,699 624,699 625,68 625,68 626,68 627,68 628,68 629,68 630,68 631,68 632,68 632,68 633,68 634,68 635,68 636,68 637,68 638,68 639,68 639,68 640,68 641,68 642,68 643,68 644,68 645,68 646,68 647,68 647,68 648,68 649,68 650,68 651,68 652,68 653,68 654,68 655,68 655,68 656,68 657,68 658,68 659,68 660,68 661,68 662,68 663,68 663,68 664,68 665,68 666,68 667,68 668,68 669,68 670,68 670,68 671,68 672,68 673,68 674,68 675,68 676,68 677,68 678,68 678,68 679,68 680,68 681,68 682,68 683,68 684,68 685,68 686,68 686,68 687,68 688,68 689,68 690,68 691,68 692,68 693,68 694,68 694,68 695,68 696,68 697,68 698,68 699,68 700,68 701,68 701,68 702,68 703,68 704,68 705,68 706,68 707,68 708,68 709,68 709,68 710,68 711,68 712,68 713,68 714,68 715,68 716,68 717,68 717,68 718,68 719,68 720,68 721,68 722,68 723,68 724,68 725,68 725,68 726,68 727,68 728,68 729,68 730,68 731,68 732,68 732,68 733,68 734,68 735,68 736,68 737,68 738,68 739,68 740,68 740,68 741,68 742,68 743,68 744,68 745,68 746,68 747,68 748,68 748,68 749,68 750,68 751,68 752,68 753,68 754,68 755,68 756,68 756,68 757,68 758,68 759,68 760,68 761,68 762,68 763,68 763,68 764,68 765,68 766,68 767,68 768,68 769,68 770,68 771,68 771,68 772,68 773,68 774,68 775,68 776,68 777,68 778,68 779,68 779,68 780,68 781,68 782,68 783,68 784,68 785,68 786,68 787,68 787,68 788,68 789,68 790,68 791,68 792,68 793,68 794,68 794,68 795,68 796,68 797,68 798,68 799,68 800,68 801,68 802,68 802,68 803,68 804,68 805,68 806,68 807,68 808,68 809,68 810,68 810,68 811,68 812,68 813,68 814,68 815,68 816,68 817,68 817,68 818,68 819,68 820,68 821,68 822,68 823,68 824,68 825,68 825,68 826,68 827,68 828,68 829,68 830,68 831,68 832,68 833,68 833,68 834,68 835,68 836,68 837,68 838,68 839,68 840,68 841,68 841,68 842,68 843,68 844,68 845,68 846,68 847,68 848,68 848,68 849,68 850,68 851,68 852,68 853,68 854,68 855,68 856,68 856,68 857,68 858,68 859,68 860,68 861,68 862,68 863,68 864,68 864,68 865,68 866,68 867,68 868,68 869,68 870,68 871,68 872,68 872,68 873,68 874,68 875,68 876,68 877,68 878,68 879,68 879,68 880,68 881,68 882,68 883,68 884,68 885,68 886,68 887,68 887,68 888,68 889,68 890,68 891,68 892,68 893,68 894,68 895,68 895,68 896,68 897,68 898,68 899,68 900,68 901,68 902,68 903,68 903,68 904,68 905,68 906,68 907,68 908,68 909,68 910,68 910,68 911,68 912,68 913,68 914,68 915,68 916,68 917,68 918,68 918,68 919,68 920,68 921,68 922,68 923,68 924,68 925,68 926,68 926,68 927,68 928,68 929,68 930,68 931,68 932,68 933,68 934,68 934,68 935,68 936,68 937,68 938,68 939,68 940,68 941,68 941,68 942,68 943,68 944,68 945,68 946,68 947,68 948,68 949,68 949,68 950,68 951,68 952,68 953,68 954,68 955,68 956,68 957,68 957,68 958,68 959,68 960,68 961,68 962,68 963,68 964,68 965,68 965,68 966,68 967,68 968,68 969,68 970,68 971,68 972,699 972,699 973,699 "/>
<line opacity="0.1" stroke="#000000" stroke-width="1" x1="83" y1="699" x2="83" y2="68"/>
<line opacity="0.1" stroke="#000000" stroke-width="1" x1="92" y1="699" x2="92" y2="68"/>
<line opacity="0.1" stroke="#000000" stroke-width="1" x1="101" y1="699" x2="101" y2="68"/>
<line opacity="0.1" stroke="#000000" stroke-width="1" x1="110" y1="699" x2="110" y2="68"/>
<line opacity="0.1" stroke="#000000" stroke-width="1" x1="119" y1="699" x2="119" y2="68"/>
<line opacity="0.1" stroke="#000000" stroke-width="1" x1="128" y1="699" x2="128" y2="68"/>
<line opacity="0.1" stroke="#000000" stroke-width="1" x1="137" y1="699" x2="137" y2="68"/>
<line opacity="0.1" stroke="#000000" stroke-width="1" x1="146" y1="699" x2="146" y2="68"/>
<line opacity="0.1" stroke="#000000" stroke-width="1" x1="154" y1="699" x2="154" y2="68"/>
<line opacity="0.1" stroke="#000000" stroke-width="1" x1="163" y1="699" x2="163" y2="68"/>
<line opacity="0.1" stroke="#000000" stroke-width="1" x1="172" y1="699" x2="172" y2="68"/>
<line opacity="0.1" stroke="#000000" stroke-width="1" x1="181" y1="699" x2="181" y2="68"/>
<line opacity="0.1" stroke="#000000" stroke-width="1" x1="190" y1="699" x2="190" y2="68"/>
<line opacity="0.1" stroke="#000000" stroke-width="1" x1="199" y1="699" x2="199" y2="68"/>
<line opacity="0.1" stroke="#000000" stroke-width="1" x1="208" y1="699" x2="208" y2="68"/>
<line opacity="0.1" stroke="#000000" stroke-width="1" x1="217" y1="699" x2="217" y2="68"/>
<line opacity="0.1" stroke="#000000" stroke-width="1" x1="226" y1="699" x2="226" y2="68"/>
<line opacity="0.1" stroke="#000000" stroke-width="1" x1="234" y1="699" x2="234" y2="68"/>
<line opacity="0.1" stroke="#000000" stroke-width="1" x1="243" y1="699" x2="243" y2="68"/>
<line opacity="0.1" stroke="#000000" stroke-width="1" x1="252" y1="699" x2="252" y2="68"/>
<line opacity="0.1" stroke="#000000" stroke-width="1" x1="261" y1="699" x2="261" y2="68"/>
<line opacity="0.1" stroke="#000000" stroke-width="1" x1="270" y1="699" x2="270" y2="68"/>
<line opacity="0.1" stroke="#000000" stroke-width="1" x1="279" y1="699" x2="279" y2="68"/>
<line opacity="0.1" stroke="#000000" stroke-width="1" x1="288" y1="699" x2="288" y2="68"/>
<line opacity="0.1" stroke="#000000" stroke-width="1" x1="297" y1="699" x2="297" y2="68"/>
<line opacity="0.1" stroke="#000000" stroke-width="1" x1="306" y1="699" x2="306" y2="68"/>
<line opacity="0.1" stroke="#000000" stroke-width="1" x1="315" y1="699" x2="315" y2="68"/>
<line opacity="0.1" stroke="#000000" stroke-width="1" x1="323" y1="699" x2="323" y2="68"/>
<line opacity="0.1" stroke="#000000" stroke-width="1" x1="332" y1="699" x2="332" y2="68"/>
<line opacity="0.1" stroke="#000000" stroke-width="1" x1="341" y1="699" x2="341" y2="68"/>
<line opacity="0.1" stroke="#000000" stroke-width="1" x1="350" y1="699" x2="350" y2="68"/>
<line opacity="0.1" stroke="#000000" stroke-width="1" x1="359" y1="699" x2="359" y2="68"/>
<line opacity="0.1" stroke="#000000" stroke-width="1" x1="368" y1="699" x2="368" y2="68"/>
<line opacity="0.1" stroke="#000000" stroke-width="1" x1="377" y1="699" x2="377" y2="68"/>
<line opacity="0.1" stroke="#000000" stroke-width="1" x1="386" y1="699" x2="386" y2="68"/>
<line opacity="0.1" stroke="#000000" stroke-width="1" x1="395" y1="699" x2="395" y2="68"/>
<line opacity="0.1" stroke="#000000" stroke-width="1" x1="403" y1="699" x2="403" y2="68"/>
<line opacity="0.1" stroke="#000000" stroke-width="1" x1="412" y1="699" x2="412" y2="68"/>
<line opacity="0.1" stroke="#000000" stroke-width="1" x1="421" y1="699" x2="421" y2="68"/>
<line opacity="0.1" stroke="#000000" stroke-width="1" x1="430" y1="699" x2="430" y2="68"/>
<line opacity="0.1" stroke="#000000" stroke-width="1" x1="439" y1="699" x2="439" y2="68"/>
<line opacity="0.1" stroke="#000000" stroke-width="1" x1="448" y1="699" x2="448" y2="68"/>
<line opacity="0.1" stroke="#000000" stroke-width="1" x1="457" y1="699" x2="457" y2="68"/>
<line opacity="0.1" stroke="#000000" stroke-width="1" x1="466" y1="699" x2="466" y2="68"/>
<line opacity="0.1" stroke="#000000" stroke-width="1" x1="475" y1="699" x2="475" y2="68"/>
<line opacity="0.1" stroke="#000000" stroke-width="1" x1="483" y1="699" x2="483" y2="68"/>
<line opacity="0.1" stroke="#000000" stroke-width="1" x1="492" y1="699" x2="492" y2="68"/>
<line opacity="0.1" stroke="#000000" stroke-width="1" x1="501" y1="699" x2="501" y2="68"/>
<line opacity="0.1" stroke="#000000" stroke-width="1" x1="510" y1="699" x2="510" y2="68"/>
<line opacity="0.1" stroke="#000000" stroke-width="1" x1="519" y1="699" x2="519" y2="68"/>
<line opacity="0.1" stroke="#000000" stroke-width="1" x1="528" y1="699" x2="528" y2="68"/>
<line opacity="0.1" stroke="#000000" stroke-width="1" x1="537" y1="699" x2="537" y2="68"/>
<line opacity="0.1" stroke="#000000" stroke-width="1" x1="546" y1="699" x2="546" y2="68"/>
<line opacity="0.1" stroke="#000000" stroke-width="1" x1="555" y1="699" x2="555" y2="68"/>
<line opacity="0.1" stroke="#000000" stroke-width="1" x1="563" y1="699" x2="563" y2="68"/>
<line opacity="0.1" stroke="#000000" stroke-width="1" x1="572" y1="699" x2="572" y2="68"/>
<line opacity="0.1" stroke="#000000" stroke-width="1" x1="581" y1="699" x2="581" y2="68"/>
<line opacity="0.1" stroke="#000000" stroke-width="1" x1="590" y1="699" x2="590" y2="68"/>
<line opacity="0.1" stroke="#000000" stroke-width="1" x1="599" y1="699" x2="599" y2="68"/>
<line opacity="0.1" stroke="#000000" stroke-width="1" x1="608" y1="699" x2="608" y2="68"/>
<line opacity="0.1" stroke="#000000" stroke-width="1" x1="617" y1="699" x2="617" y2="68"/>
<line opacity="0.1" stroke="#000000" stroke-width="1" x1="626" y1="699" x2="626" y2="68"/>
<line opacity="0.1" stroke="#000000" stroke-width="1" x1="635" y1="699" x2="635" y2="68"/>
<line opacity="0.1" stroke="#000000" stroke-width="1" x1="644" y1="699" x2="644" y2="68"/>
<line opacity="0.1" stroke="#000000" stroke-width="1" x1="652" y1="699" x2="652" y2="68"/>
<line opacity="0.1" stroke="#000000" stroke-width="1" x1="661" y1="699" x2="661" y2="68"/>
<line opacity="0.1" stroke="#000000" stroke-width="1" x1="670" y1="699" x2="670" y2="68"/>
<line opacity="0.1" stroke="#000000" stroke-width="1" x1="679" y1="699" x2="679" y2="68"/>
<line opacity="0.1" stroke="#000000" stroke-width="1" x1="688" y1="699" x2="688" y2="68"/>
<line opacity="0.1" stroke="#000000" stroke-width="1" x1="697" y1="699" x2="697" y2="68"/>
<line opacity="0.1" stroke="#000000" stroke-width="1" x1="706" y1="699" x2="706" y2="68"/>
<line opacity="0.1" stroke="#000000" stroke-width="1" x1="715" y1="699" x2="715" y2="68"/>
<line opacity="0.1" stroke="#000000" stroke-width="1" x1="724" y1="699" x2="724" y2="68"/>
<line opacity="0.1" stroke="#000000" stroke-width="1" x1="732" y1="699" x2="732" y2="68"/>
<line opacity="0.1" stroke="#000000" stroke-width="1" x1="741" y1="699" x2="741" y2="68"/>
<line opacity="0.1" stroke="#000000" stroke-width="1" x1="750" y1="699" x2="750" y2="68"/>
<line opacity="0.1" stroke="#000000" stroke-width="1" x1="759" y1="699" x2="759" y2="68"/>
<line opacity="0.1" stroke="#000000" stroke-width="1" x1="768" y1="699" x2="768" y2="68"/>
<line opacity="0.1" stroke="#000000" stroke-width="1" x1="777" y1="699" x2="777" y2="68"/>
<line opacity="0.1" stroke="#000000" stroke-width="1" x1="786" y1="699" x2="786" y2="68"/>
<line opacity="0.1" stroke="#000000" stroke-width="1" x1="795" y1="699" x2="795" y2="68"/>
<line opacity="0.1" stroke="#000000" stroke-width="1" x1="804" y1="699" x2="804" y2="68"/>
<line opacity="0.1" stroke="#000000" stroke-width="1" x1="812" y1="699" x2="812" y2="68"/>
<line opacity="0.1" stroke="#000000" stroke-width="1" x1="821" y1="699" x2="821" y2="68"/>
<line opacity="0.1" stroke="#000000" stroke-width="1" x1="830" y1="699" x2="830" y2="68"/>
<line opacity="0.1" stroke="#000000" stroke-width="1" x1="839" y1="699" x2="839" y2="68"/>
<line opacity="0.1" stroke="#000000" stroke-width="1" x1="848" y1="699" x2="848" y2="68"/>
<line opacity="0.1" stroke="#000000" stroke-width="1" x1="857" y1="699" x2="857" y2="68"/>
<line opacity="0.1" stroke="#000000" stroke-width="1" x1="866" y1="699" x2="866" y2="68"/>
<line opacity="0.1" stroke="#000000" stroke-width="1" x1="875" y1="699" x2="875" y2="68"/>
<line opacity="0.1" stroke="#000000" stroke-width="1" x1="884" y1="699" x2="884" y2="68"/>
<line opacity="0.1" stroke="#000000" stroke-width="1" x1="892" y1="699" x2="892" y2="68"/>
<line opacity="0.1" stroke="#000000" stroke-width="1" x1="901" y1="699" x2="901" y2="68"/>
<line opacity="0.1" stroke="#000000" stroke-width="1" x1="910" y1="699" x2="910" y2="68"/>
<line opacity="0.1" stroke="#000000" stroke-width="1" x1="919" y1="699" x2="919" y2="68"/>
<line opacity="0.1" stroke="#000000" stroke-width="1" x1="928" y1="699" x2="928" y2="68"/>
<line opacity="0.1" stroke="#000000" stroke-width="1" x1="937" y1="699" x2="937" y2="68"/>
<line opacity="0.1" stroke="#000000" stroke-width="1" x1="946" y1="699" x2="946" y2="68"/>
<line opacity="0.1" stroke="#000000" stroke-width="1" x1="955" y1="699" x2="955" y2="68"/>
<line opacity="0.1" stroke="#000000" stroke-width="1" x1="964" y1="699" x2="964" y2="68"/>
<line opacity="0.1" stroke="#000000" stroke-width="1" x1="78" y1="699" x2="973" y2="699"/>
<line opacity="0.1" stroke="#000000" stroke-width="1" x1="78" y1="692" x2="973" y2="692"/>
<line opacity="0.1" stroke="#000000" stroke-width="1" x1="78" y1="686" x2="973" y2="686"/>
<line opacity="0.1" stroke="#000000" stroke-width="1" x1="78" y1="679" x2="973" y2="679"/>
<line opacity="0.1" stroke="#000000" stroke-width="1" x1="78" y1="673" x2="973" y2="673"/>
<line opacity="0.1" stroke="#000000" stroke-width="1" x1="78" y1="666" x2="973" y2="666"/>
<line opacity="0.1" stroke="#000000" stroke-width="1" x1="78" y1="660" x2="973" y2="660"/>
<line opacity="0.1" stroke="#000000" stroke-width="1" x1="78" y1="654" x2="973" y2="654"/>
<line opacity="0.1" stroke="#000000" stroke-width="1" x1="78" y1="647" x2="973" y2="647"/>
<line opacity="0.1" stroke="#000000" stroke-width="1" x1="78" y1="641" x2="973" y2="641"/>
<line opacity="0.1" stroke="#000000" stroke-width="1" x1="78" y1="634" x2="973" y2="634"/>
<line opacity="0.1" stroke="#000000" stroke-width="1" x1="78" y1="628" x2="973" y2="628"/>
<line opacity="0.1" stroke="#000000" stroke-width="1" x1="78" y1="621" x2="973" y2="621"/>
<line opacity="0.1" stroke="#000000" stroke-width="1" x1="78" y1="615" x2="973" y2="615"/>
<line opacity="0.1" stroke="#000000" stroke-width="1" x1="78" y1="609" x2="973" y2="609"/>
<line opacity="0.1" stroke="#000000" stroke-width="1" x1="78" y1="602" x2="973" y2="602"/>
<line opacity="0.1" stroke="#000000" stroke-width="1" x1="78" y1="596" x2="973" y2="596"/>
<line opacity="0.1" stroke="#000000" stroke-width="1" x1="78" y1="589" x2="973" y2="589"/>
<line opacity="0.1" stroke="#000000" stroke-width="1" x1="78" y1="583" x2="973" y2="583"/>
<line opacity="0.1" stroke="#000000" stroke-width="1" x1="78" y1="577" x2="973" y2="577"/>
<line opacity="0.1" stroke="#000000" stroke-width="1" x1="78" y1="570" x2="973" y2="570"/>
<line opacity="0.1" stroke="#000000" stroke-width="1" x1="78" y1="564" x2="973" y2="564"/>
<line opacity="0.1" stroke="#000000" stroke-width="1" x1="78" y1="557" x2="973" y2="557"/>
<line opacity="0.1" stroke="#000000" stroke-width="1" x1="78" y1="551" x2="973" y2="551"/>
<line opacity="0.1" stroke="#000000" stroke-width="1" x1="78" y1="544" x2="973" y2="544"/>
<line opacity="0.1" stroke="#000000" stroke-width="1" x1="78" y1="538" x2="973" y2="538"/>
<line opacity="0.1" stroke="#000000" stroke-width="1" x1="78" y1="532" x2="973" y2="532"/>
<line opacity="0.1" stroke="#000000" stroke-width="1" x1="78" y1="525" x2="973" y2="525"/>
<line opacity="0.1" stroke="#000000" stroke-width="1" x1="78" y1="519" x2="973" y2="519"/>
<line opacity="0.1" stroke="#000000" stroke-width="1" x1="78" y1="512" x2="973" y2="512"/>
<line opacity="0.1" stroke="#000000" stroke-width="1" x1="78" y1="506" x2="973" y2="506"/>
<line opacity="0.1" stroke="#000000" stroke-width="1" x1="78" y1="500" x2="973" y2="500"/>
<line opacity="0.1" stroke="#000000" stroke-width="1" x1="78" y1="493" x2="973" y2="493"/>
<line opacity="0.1" stroke="#000000" stroke-width="1" x1="78" y1="487" x2="973" y2="487"/>
<line opacity="0.1" stroke="#000000" stroke-width="1" x1="78" y1="480" x2="973" y2="480"/>
<line opacity="0.1" stroke="#000000" stroke-width="1" x1="78" y1="474" x2="973" y2="474"/>
<line opacity="0.1" stroke="#000000" stroke-width="1" x1="78" y1="467" x2="973" y2="467"/>
<line opacity="0.1" stroke="#000000" stroke-width="1" x1="78" y1="461" x2="973" y2="461"/>
<line opacity="0.1" stroke="#000000" stroke-width="1" x1="78" y1="455" x2="973" y2="455"/>
<line opacity="0.1" stroke="#000000" stroke-width="1" x1="78" y1="448" x2="973" y2="448"/>
<line opacity="0.1" stroke="#000000" stroke-width="1" x1="78" y1="442" x2="973" y2="442"/>
<line opacity="0.1" stroke="#000000" stroke-width="1" x1="78" y1="435" x2="973" y2="435"/>
<line opacity="0.1" stroke="#000000" stroke-width="1" x1="78" y1="429" x2="973" y2="429"/>
<line opacity="0.1" stroke="#000000" stroke-width="1" x1="78" y1="422" x2="973" y2="422"/>
<line opacity="0.1" stroke="#000000" stroke-width="1" x1="78" y1="416" x2="973" y2="416"/>
<line opacity="0.1" stroke="#000000" stroke-width="1" x1="78" y1="410" x2="973" y2="410"/>
<line opacity="0.1" stroke="#000000" stroke-width="1" x1="78" y1="403" x2="973" y2="403"/>
<line opacity="0.1" stroke="#000000" stroke-width="1" x1="78" y1="397" x2="973" y2="397"/>
<line opacity="0.1" stroke="#000000" stroke-width="1" x1="78" y1="390" x2="973" y2="390"/>
<line opacity="0.1" stroke="#000000" stroke-width="1" x1="78" y1="384" x2="973" y2="384"/>
<line opacity="0.1" stroke="#000000" stroke-width="1" x1="78" y1="378" x2="973" y2="378"/>
<line opacity="0.1" stroke="#000000" stroke-width="1" x1="78" y1="371" x2="973" y2="371"/>
<line opacity="0.1" stroke="#000000" stroke-width="1" x1="78" y1="365" x2="973" y2="365"/>
<line opacity="0.1" stroke="#000000" stroke-width="1" x1="78" y1="358" x2="973" y2="358"/>
<line opacity="0.1" stroke="#000000" stroke-width="1" x1="78" y1="352" x2="973" y2="352"/>
<line opacity="0.1" stroke="#000000" stroke-width="1" x1="78" y1="345" x2="973" y2="345"/>
<line opacity="0.1" stroke="#000000" stroke-width="1" x1="78" y1="339" x2="973" y2="339"/>
<line opacity="0.1" stroke="#000000" stroke-width="1" x1="78" y1="333" x2="973" y2="333"/>
<line opacity="0.1" stroke="#000000" stroke-width="1" x1="78" y1="326" x2="973" y2="326"/>
<line opacity="0.1" stroke="#000000" stroke-width="1" x1="78" y1="320" x2="973" y2="320"/>
<line opacity="0.1" stroke="#000000" stroke-width="1" x1="78" y1="313" x2="973" y2="313"/>
<line opacity="0.1" stroke="#000000" stroke-width="1" x1="78" y1="307" x2="973" y2="307"/>
<line opacity="0.1" stroke="#000000" stroke-width="1" x1="78" y1="301" x2="973" y2="301"/>
<line opacity="0.1" stroke="#000000" stroke-width="1" x1="78" y1="294" x2="973" y2="294"/>
<line opacity="0.1" stroke="#000000" stroke-width="1" x1="78" y1="288" x2="973" y2="288"/>
<line opacity="0.1" stroke="#000000" stroke-width="1" x1="78" y1="281" x2="973" y2="281"/>
<line opacity="0.1" stroke="#000000" stroke-width="1" x1="78" y1="275" x2="973" y2="275"/>
<line opacity="0.1" stroke="#000000" stroke-width="1" x1="78" y1="268" x2="973" y2="268"/>
<line opacity="0.1" stroke="#000000" stroke-width="1" x1="78" y1="262" x2="973" y2="262"/>
<line opacity="0.1" stroke="#000000" stroke-width="1" x1="78" y1="256" x2="973" y2="256"/>
<line opacity="0.1" stroke="#000000" stroke-width="1" x1="78" y1="249" x2="973" y2="249"/>
<line opacity="0.1" stroke="#000000" stroke-width="1" x1="78" y1="243" x2="973" y2="243"/>
<line opacity="0.1" stroke="#000000" stroke-width="1" x1="78" y1="236" x2="973" y2="236"/>
<line opacity="0.1" stroke="#000000" stroke-width="1" x1="78" y1="230" x2="973" y2="230"/>
<line opacity="0.1" stroke="#000000" stroke-width="1" x1="78" y1="224" x2="973" y2="224"/>
<line opacity="0.1" stroke="#000000" stroke-width="1" x1="78" y1="217" x2="973" y2="217"/>
<line opacity="0.1" stroke="#000000" stroke-width="1" x1="78" y1="211" x2="973" y2="211"/>
<line opacity="0.1" stroke="#000000" stroke-width="1" x1="78" y1="204" x2="973" y2="204"/>
<line opacity="0.1" stroke="#000000" stroke-width="1" x1="78" y1="198" x2="973" y2="198"/>
<line opacity="0.1" stroke="#000000" stroke-width="1" x1="78" y1="191" x2="973" y2="191"/>
<line opacity="0.1" stroke="#000000" stroke-width="1" x1="78" y1="185" x2="973" y2="185"/>
<line opacity="0.1" stroke="#000000" stroke-width="1" x1="78" y1="179" x2="973" y2="179"/>
<line opacity="0.1" stroke="#000000" stroke-width="1" x1="78" y1="172" x2="973" y2="172"/>
<line opacity="0.1" stroke="#000000" stroke-width="1" x1="78" y1="166" x2="973" y2="166"/>
<line opacity="0.1" stroke="#000000" stroke-width="1" x1="78" y1="159" x2="973" y2="159"/>
<line opacity="0.1" stroke="#000000" stroke-width="1" x1="78" y1="153" x2="973" y2="153"/>
<line opacity="0.1" stroke="#000000" stroke-width="1" x1="78" y1="146" x2="973" y2="146"/>
<line opacity="0.1" stroke="#000000" stroke-width="1" x1="78" y1="140" x2="973" y2="140"/>
<line opacity="0.1" stroke="#000000" stroke-width="1" x1="78" y1="134" x2="973" y2="134"/>
<line opacity="0.1" stroke="#000000" stroke-width="1" x1="78" y1="127" x2="973" y2="127"/>
<line opacity="0.1" stroke="#000000" stroke-width="1" x1="78" y1="121" x2="973" y2="121"/>
<line opacity="0.1" stroke="#000000" stroke-width="1" x1="78" y1="114" x2="973" y2="114"/>
<line opacity="0.1" stroke="#000000" stroke-width="1" x1="78" y1="108" x2="973" y2="108"/>
<line opacity="0.1" stroke="#000000" stroke-width="1" x1="78" y1="102" x2="973" y2="102"/>
<line opacity="0.1" stroke="#000000" stroke-width="1" x1="78" y1="95" x2="973" y2="95"/>
<line opacity="0.1" stroke="#000000" stroke-width="1" x1="78" y1="89" x2="973" y2="89"/>
<line opacity="0.1" stroke="#000000" stroke-width="1" x1="78" y1="82" x2="973" y2="82"/>
<line opacity="0.1" stroke="#000000" stroke-width="1" x1="78" y1="76" x2="973" y2="76"/>
<line opacity="0.1" stroke="#000000" stroke-width="1" x1="78" y1="69" x2="973" y2="69"/>
<text x="8" y="384" dy="0.76em" text-anchor="middle" font-family="sans-serif" font-size="9.67741935483871" opacity="1" fill="#000000" transform="rotate(270, 8, 384)">
Memory usage
</text>
<text x="526" y="760" dy="-0.5ex" text-anchor="middle" font-family="sans-serif" font-size="9.67741935483871" opacity="1" fill="#000000">
Time
</text>
<line opacity="0.2" stroke="#000000" stroke-width="1" x1="101" y1="699" x2="101" y2="68"/>
<line opacity="0.2" stroke="#000000" stroke-width="1" x1="190" y1="699" x2="190" y2="68"/>
<line opacity="0.2" stroke="#000000" stroke-width="1" x1="279" y1="699" x2="279" y2="68"/>
<line opacity="0.2" stroke="#000000" stroke-width="1" x1="368" y1="699" x2="368" y2="68"/>
<line opacity="0.2" stroke="#000000" stroke-width="1" x1="457" y1="699" x2="457" y2="68"/>
<line opacity="0.2" stroke="#000000" stroke-width="1" x1="546" y1="699" x2="546" y2="68"/>
<line opacity="0.2" stroke="#000000" stroke-width="1" x1="635" y1="699" x2="635" y2="68"/>
<line opacity="0.2" stroke="#000000" stroke-width="1" x1="724" y1="699" x2="724" y2="68"/>
<line opacity="0.2" stroke="#000000" stroke-width="1" x1="812" y1="699" x2="812" y2="68"/>
<line opacity="0.2" stroke="#000000" stroke-width="1" x1="901" y1="699" x2="901" y2="68"/>
<line opacity="0.2" stroke="#000000" stroke-width="1" x1="78" y1="699" x2="973" y2="699"/>
<line opacity="0.2" stroke="#000000" stroke-width="1" x1="78" y1="634" x2="973" y2="634"/>
<line opacity="0.2" stroke="#000000" stroke-width="1" x1="78" y1="570" x2="973" y2="570"/>
<line opacity="0.2" stroke="#000000" stroke-width="1" x1="78" y1="506" x2="973" y2="506"/>
<line opacity="0.2" stroke="#000000" stroke-width="1" x1="78" y1="442" x2="973" y2="442"/>
<line opacity="0.2" stroke="#000000" stroke-width="1" x1="78" y1="378" x2="973" y2="378"/>
<line opacity="0.2" stroke="#000000" stroke-width="1" x1="78" y1="313" x2="973" y2="313"/>
<line opacity="0.2" stroke="#000000" stroke-width="1" x1="78" y1="249" x2="973" y2="249"/>
<line opacity="0.2" stroke="#000000" stroke-width="1" x1="78" y1="185" x2="973" y2="185"/>
<line opacity="0.2" stroke="#000000" stroke-width="1" x1="78" y1="121" x2="973" y2="121"/>
<polyline fill="none" opacity="1" stroke="#000000" stroke-width="1" points="77,68 77,699 "/>
<text x="68" y="699" dy="0.5ex" text-anchor="end" font-family="sans-serif" font-size="9.67741935483871" opacity="1" fill="#000000">
0.0 KB
</text>
<polyline fill="none" opacity="1" stroke="#000000" stroke-width="1" points="72,699 77,699 "/>
<text x="68" y="634" dy="0.5ex" text-anchor="end" font-family="sans-serif" font-size="9.67741935483871" opacity="1" fill="#000000">
4.9 KB
</text>
<polyline fill="none" opacity="1" stroke="#000000" stroke-width="1" points="72,634 77,634 "/>
<text x="68" y="570" dy="0.5ex" text-anchor="end" font-family="sans-serif" font-size="9.67741935483871" opacity="1" fill="#000000">
9.8 KB
</text>
<polyline fill="none" opacity="1" stroke="#000000" stroke-width="1" points="72,570 77,570 "/>
<text x="68" y="506" dy="0.5ex" text-anchor="end" font-family="sans-serif" font-size="9.67741935483871" opacity="1" fill="#000000">
14.6 KB
</text>
<polyline fill="none" opacity="1" stroke="#000000" stroke-width="1" points="72,506 77,506 "/>
<text x="68" y="442" dy="0.5ex" text-anchor="end" font-family="sans-serif" font-size="9.67741935483871" opacity="1" fill="#000000">
19.5 KB
</text>
<polyline fill="none" opacity="1" stroke="#000000" stroke-width="1" points="72,442 77,442 "/>
<text x="68" y="378" dy="0.5ex" text-anchor="end" font-family="sans-serif" font-size="9.67741935483871" opacity="1" fill="#000000">
24.4 KB
</text>
<polyline fill="none" opacity="1" stroke="#000000" stroke-width="1" points="72,378 77,378 "/>
<text x="68" y="313" dy="0.5ex" text-anchor="end" font-family="sans-serif" font-size="9.67741935483871" opacity="1" fill="#000000">
29.3 KB
</text>
<polyline fill="none" opacity="1" stroke="#000000" stroke-width="1" points="72,313 77,313 "/>
<text x="68" y="249" dy="0.5ex" text-anchor="end" font-family="sans-serif" font-size="9.67741935483871" opacity="1" fill="#000000">
34.2 KB
</text>
<polyline fill="none" opacity="1" stroke="#000000" stroke-width="1" points="72,249 77,249 "/>
<text x="68" y="185" dy="0.5ex" text-anchor="end" font-family="sans-serif" font-size="9.67741935483871" opacity="1" fill="#000000">
39.1 KB
</text>
<polyline fill="none" opacity="1" stroke="#000000" stroke-width="1" points="72,185 77,185 "/>
<text x="68" y="121" dy="0.5ex" text-anchor="end" font-family="sans-serif" font-size="9.67741935483871" opacity="1" fill="#000000">
43.9 KB
</text>
<polyline fill="none" opacity="1" stroke="#000000" stroke-width="1" points="72,121 77,121 "/>
<polyline fill="none" opacity="1" stroke="#000000" stroke-width="1" points="78,700 973,700 "/>
<text x="101" y="710" dy="0.76em" text-anchor="middle" font-family="sans-serif" font-size="9.67741935483871" opacity="1" fill="#000000">
02:04:17
</text>
<polyline fill="none" opacity="1" stroke="#000000" stroke-width="1" points="101,700 101,705 "/>
<text x="190" y="710" dy="0.76em" text-anchor="middle" font-family="sans-serif" font-size="9.67741935483871" opacity="1" fill="#000000">
02:04:18
</text>
<polyline fill="none" opacity="1" stroke="#000000" stroke-width="1" points="190,700 190,705 "/>
<text x="279" y="710" dy="0.76em" text-anchor="middle" font-family="sans-serif" font-size="9.67741935483871" opacity="1" fill="#000000">
02:04:19
</text>
<polyline fill="none" opacity="1" stroke="#000000" stroke-width="1" points="279,700 279,705 "/>
<text x="368" y="710" dy="0.76em" text-anchor="middle" font-family="sans-serif" font-size="9.67741935483871" opacity="1" fill="#000000">
02:04:20
</text>
<polyline fill="none" opacity="1" stroke="#000000" stroke-width="1" points="368,700 368,705 "/>
<text x="457" y="710" dy="0.76em" text-anchor="middle" font-family="sans-serif" font-size="9.67741935483871" opacity="1" fill="#000000">
02:04:21
</text>
<polyline fill="none" opacity="1" stroke="#000000" stroke-width="1" points="457,700 457,705 "/>
<text x="546" y="710" dy="0.76em" text-anchor="middle" font-family="sans-serif" font-size="9.67741935483871" opacity="1" fill="#000000">
02:04:22
</text>
<polyline fill="none" opacity="1" stroke="#000000" stroke-width="1" points="546,700 546,705 "/>
<text x="635" y="710" dy="0.76em" text-anchor="middle" font-family="sans-serif" font-size="9.67741935483871" opacity="1" fill="#000000">
02:04:23
</text>
<polyline fill="none" opacity="1" stroke="#000000" stroke-width="1" points="635,700 635,705 "/>
<text x="724" y="710" dy="0.76em" text-anchor="middle" font-family="sans-serif" font-size="9.67741935483871" opacity="1" fill="#000000">
02:04:24
</text>
<polyline fill="none" opacity="1" stroke="#000000" stroke-width="1" points="724,700 724,705 "/>
<text x="812" y="710" dy="0.76em" text-anchor="middle" font-family="sans-serif" font-size="9.67741935483871" opacity="1" fill="#000000">
02:04:25
</text>
<polyline fill="none" opacity="1" stroke="#000000" stroke-width="1" points="812,700 812,705 "/>
<text x="901" y="710" dy="0.76em" text-anchor="middle" font-family="sans-serif" font-size="9.67741935483871" opacity="1" fill="#000000">
02:04:26
</text>
<polyline fill="none" opacity="1" stroke="#000000" stroke-width="1" points="901,700 901,705 "/>
<polyline fill="none" opacity="1" stroke="#000000" stroke-width="1" points="78,67 974,67 "/>
<text x="101" y="58" dy="-0.5ex" text-anchor="middle" font-family="sans-serif" font-size="9.67741935483871" opacity="1" fill="#000000">
+265ms
</text>
<polyline fill="none" opacity="1" stroke="#000000" stroke-width="1" points="101,62 101,67 "/>
<text x="190" y="58" dy="-0.5ex" text-anchor="middle" font-family="sans-serif" font-size="9.67741935483871" opacity="1" fill="#000000">
+1s
</text>
<polyline fill="none" opacity="1" stroke="#000000" stroke-width="1" points="190,62 190,67 "/>
<text x="279" y="58" dy="-0.5ex" text-anchor="middle" font-family="sans-serif" font-size="9.67741935483871" opacity="1" fill="#000000">
+2s
</text>
<polyline fill="none" opacity="1" stroke="#000000" stroke-width="1" points="279,62 279,67 "/>
<text x="368" y="58" dy="-0.5ex" text-anchor="middle" font-family="sans-serif" font-size="9.67741935483871" opacity="1" fill="#000000">
+3s
</text>
<polyline fill="none" opacity="1" stroke="#000000" stroke-width="1" points="368,62 368,67 "/>
<text x="457" y="58" dy="-0.5ex" text-anchor="middle" font-family="sans-serif" font-size="9.67741935483871" opacity="1" fill="#000000">
+4s
</text>
<polyline fill="none" opacity="1" stroke="#000000" stroke-width="1" points="457,62 457,67 "/>
<text x="546" y="58" dy="-0.5ex" text-anchor="middle" font-family="sans-serif" font-size="9.67741935483871" opacity="1" fill="#000000">
+5s
</text>
<polyline fill="none" opacity="1" stroke="#000000" stroke-width="1" points="546,62 546,67 "/>
<text x="635" y="58" dy="-0.5ex" text-anchor="middle" font-family="sans-serif" font-size="9.67741935483871" opacity="1" fill="#000000">
+6s
</text>
<polyline fill="none" opacity="1" stroke="#000000" stroke-width="1" points="635,62 635,67 "/>
<text x="724" y="58" dy="-0.5ex" text-anchor="middle" font-family="sans-serif" font-size="9.67741935483871" opacity="1" fill="#000000">
+7s
</text>
<polyline fill="none" opacity="1" stroke="#000000" stroke-width="1" points="724,62 724,67 "/>
<text x="813" y="58" dy="-0.5ex" text-anchor="middle" font-family="sans-serif" font-size="9.67741935483871" opacity="1" fill="#000000">
+8s
</text>
<polyline fill="none" opacity="1" stroke="#000000" stroke-width="1" points="813,62 813,67 "/>
<text x="902" y="58" dy="-0.5ex" text-anchor="middle" font-family="sans-serif" font-size="9.67741935483871" opacity="1" fill="#000000">
+9s
</text>
<polyline fill="none" opacity="1" stroke="#000000" stroke-width="1" points="902,62 902,67 "/>
<rect x="83" y="73" width="170" height="45" opacity="0.75" fill="#FFFFFF" stroke="none"/>
<rect x="83" y="73" width="170" height="45" opacity="1" fill="none" stroke="#000000"/>
<text x="123" y="83" dy="0.76em" text-anchor="start" font-family="sans-serif" font-size="9.67741935483871" opacity="1" fill="#000000">
Deallocated before 98%
</text>
<text x="123" y="98" dy="0.76em" text-anchor="start" font-family="sans-serif" font-size="9.67741935483871" opacity="1" fill="#000000">
Deallocated after 98%
</text>
<rect x="93" y="83" width="10" height="10" opacity="1" fill="#3CB44B" stroke="none"/>
<rect x="93" y="98" width="10" height="10" opacity="1" fill="#E6194B" stroke="none"/>
</svg>
