<svg width="1024" height="768" viewBox="0 0 1024 768" xmlns="http://www.w3.org/2000/svg">
<rect x="0" y="0" width="1023" height="767" opacity="1" fill="#FFFFFF" stroke="none"/>
<polygon opacity="1" fill="#E6194B" points="0,700 1,700 2,674 3,674 4,673 5,660 6,660 7,671 8,667 9,668 10,677 11,682 12,683 13,686 14,689 15,684 16,686 17,688 18,685 19,682 20,682 21,683 22,676 23,671 24,658 25,656 26,665 27,668 28,670 29,662 30,652 31,634 32,630 33,652 34,658 35,663 36,661 37,648 38,637 39,630 40,630 41,628 43,628 44,641 45,638 46,629 47,625 48,625 49,625 50,611 51,604 52,601 53,602 54,590 55,580 56,577 57,578 58,563 59,554 60,551 61,537 62,532 63,530 64,536 65,533 66,527 67,533 68,530 69,519 70,514 71,511 72,521 73,524 74,513 75,506 76,505 77,498 78,491 79,483 80,488 81,489 82,497 83,497 84,496 86,481 87,476 88,477 89,479 90,476 91,476 92,472 93,464 94,463 95,475 96,480 97,480 98,466 99,460 100,457 101,456 102,464 103,456 104,456 105,459 106,452 107,446 108,442 109,438 110,442 111,446 112,436 113,435 114,436 115,435 116,437 117,439 118,448 119,457 120,464 121,452 122,446 123,432 124,436 125,462 126,468 128,458 129,468 130,463 131,464 132,461 133,443 134,438 135,439 136,444 137,443 138,443 139,451 140,458 141,464 142,453 143,455 144,449 145,451 146,460 147,459 148,452 149,459 150,459 151,462 152,462 153,459 154,450 155,450 156,437 157,438 158,453 159,445 160,454 161,451 162,459 163,457 164,468 165,462 166,455 167,460 168,457 169,449 171,444 172,440 173,449 174,447 175,456 176,439 177,433 178,433 179,438 180,439 181,444 182,441 183,426 184,425 185,429 186,425 187,431 188,431 189,426 190,421 191,414 192,413 193,417 194,416 195,409 196,413 197,412 198,413 199,422 200,416 201,421 202,411 203,405 204,405 205,403 206,405 207,414 208,406 209,409 210,413 211,420 212,414 214,427 215,431 216,426 217,420 218,417 219,415 220,403 221,407 222,409 223,411 224,404 225,396 226,405 227,405 228,405 229,418 230,417 231,426 232,424 233,426 234,431 235,427 236,425 237,420 238,413 239,420 240,415 241,417 242,418 243,419 244,406 245,398 246,390 247,390 248,385 249,378 250,383 251,383 252,377 253,363 254,361 256,352 257,360 258,369 259,372 260,373 261,374 262,372 263,365 264,364 265,355 266,360 267,368 268,375 269,364 270,362 271,364 272,371 273,374 274,380 275,381 276,387 277,394 278,394 279,393 280,385 281,388 282,390 283,398 284,397 285,404 286,422 287,411 288,424 289,414 290,414 291,415 292,422 293,418 294,416 295,412 296,401 297,400 299,399 300,404 301,411 302,409 303,406 304,403 305,395 306,392 307,395 308,398 309,403 310,407 311,402 312,400 313,395 314,389 315,379 316,378 317,378 318,386 319,384 320,380 321,386 322,383 323,386 324,379 325,371 326,363 327,361 328,358 329,348 330,348 331,359 332,367 333,382 334,382 335,398 336,404 337,394 338,395 339,391 340,379 342,379 343,394 344,402 345,400 346,396 347,392 348,394 349,391 350,375 351,375 352,369 353,377 354,373 355,379 356,383 357,382 358,380 359,379 360,381 361,387 362,395 363,395 364,392 365,388 366,386 367,385 368,385 369,392 370,387 371,386 372,389 373,399 374,395 375,390 376,389 377,392 378,401 379,402 380,399 381,400 382,389 384,390 385,392 386,380 387,380 388,386 389,384 390,381 391,388 392,386 393,394 394,393 395,376 396,373 397,369 398,381 399,375 400,365 401,355 402,353 403,343 404,348 405,350 406,336 407,335 408,333 409,334 410,339 411,346 412,334 413,335 414,334 415,332 416,341 417,342 418,342 419,333 420,327 421,322 422,323 423,323 424,322 425,326 427,331 428,332 429,335 430,335 431,332 432,334 433,337 434,339 435,347 436,348 437,334 438,335 439,340 440,320 441,317 442,316 443,316 444,315 445,318 446,315 447,309 448,304 449,304 450,304 451,301 452,306 453,307 454,308 455,312 456,314 457,309 458,301 459,302 460,292 461,295 462,301 463,296 464,298 465,300 466,286 467,290 468,288 470,289 471,294 472,303 473,306 474,300 475,296 476,288 477,292 478,288 479,289 480,286 481,290 482,302 483,305 484,305 485,308 486,306 487,311 488,314 489,309 490,314 491,316 492,315 493,316 494,317 495,309 496,317 497,318 498,316 499,321 500,317 501,303 502,305 503,318 504,316 505,316 506,318 507,317 508,313 509,312 510,313 512,316 513,318 514,309 515,307 516,303 517,311 518,319 519,311 520,307 521,306 522,310 523,307 524,297 525,297 526,306 527,312 528,303 529,302 530,299 531,297 532,299 533,283 534,287 535,292 536,304 537,304 538,302 539,296 540,299 541,302 542,306 543,298 544,293 545,298 546,294 547,303 548,304 549,293 550,294 551,296 552,293 553,294 555,304 556,302 557,304 558,307 559,303 560,310 561,308 562,315 563,331 564,327 565,324 566,321 567,313 568,326 569,317 570,317 571,320 572,318 573,316 574,320 575,327 576,327 577,329 578,329 579,330 580,328 581,321 582,316 583,317 584,311 585,318 586,323 587,318 588,319 589,317 590,323 591,320 592,324 593,323 594,322 595,328 596,330 598,334 599,339 600,348 601,352 602,349 603,359 604,358 605,346 606,336 607,340 608,339 609,336 610,335 611,339 612,338 613,338 614,339 615,333 616,333 617,334 618,344 619,339 620,333 621,333 622,336 623,339 624,335 625,330 626,328 627,332 628,329 629,317 630,307 631,303 632,307 633,306 634,306 635,295 636,288 637,286 638,281 640,286 641,288 642,284 643,286 644,288 645,285 646,285 647,289 648,293 649,278 650,278 651,276 652,280 653,290 654,292 655,288 656,285 657,290 658,296 659,282 660,275 661,283 662,285 663,286 664,299 665,298 666,295 667,291 668,293 669,289 670,286 671,272 672,268 673,271 674,263 675,263 676,256 677,256 678,268 679,265 680,254 681,259 683,256 684,253 685,244 686,244 687,261 688,258 689,230 690,232 691,228 692,228 693,241 694,224 695,222 696,222 697,215 698,224 699,232 700,233 701,229 702,235 703,236 704,215 705,216 706,213 707,218 708,229 709,230 710,222 711,221 712,218 713,227 714,232 715,231 716,223 717,223 718,223 719,224 720,223 721,223 722,224 723,232 724,210 726,210 727,208 728,210 729,208 730,196 731,193 732,202 733,197 734,194 735,189 736,198 737,204 738,198 739,200 740,204 741,203 742,209 743,206 744,202 745,193 746,193 747,193 748,193 749,196 750,201 751,203 752,194 753,197 754,186 755,185 756,190 757,183 758,182 759,184 760,194 761,196 762,195 763,206 764,205 765,197 766,201 768,198 769,199 770,199 771,198 772,186 773,175 774,168 775,179 776,170 777,174 778,174 779,175 780,170 781,167 782,172 783,166 784,161 785,169 786,159 787,158 788,164 789,177 790,193 791,190 792,191 793,194 794,200 795,201 796,196 797,188 798,182 799,176 800,177 801,184 802,182 803,182 804,175 805,166 806,174 807,186 808,201 809,210 811,198 812,193 813,183 814,179 815,173 816,173 817,169 818,164 819,160 820,165 821,161 822,155 823,154 824,153 825,154 826,166 827,158 828,154 829,146 830,154 831,154 832,161 833,157 834,162 835,168 836,165 837,163 838,163 839,163 840,159 841,153 842,161 843,158 844,148 845,140 846,133 847,134 848,135 849,136 850,142 851,142 852,159 854,159 855,152 856,150 857,150 858,151 859,154 860,168 861,179 862,192 863,199 864,191 865,179 866,170 867,173 868,163 869,158 870,148 871,140 872,140 873,135 874,140 875,135 876,130 877,133 878,139 879,139 880,150 881,148 882,144 883,139 884,141 885,140 886,133 887,135 888,129 889,130 890,135 891,127 892,120 893,114 894,111 896,117 897,121 898,115 899,128 900,123 901,117 902,118 903,124 904,132 905,134 906,127 907,131 908,137 909,135 910,135 911,119 912,111 913,112 914,113 915,117 916,112 917,112 918,113 919,113 920,112 921,108 922,105 923,97 924,88 925,85 926,91 927,82 928,79 929,72 930,77 931,72 932,72 933,76 934,75 935,82 936,83 937,94 939,96 940,103 941,97 942,99 943,90 944,99 945,95 946,92 947,96 948,98 949,99 950,105 951,105 952,102 953,99 954,97 955,99 956,99 957,90 958,81 959,92 960,86 961,82 962,89 963,92 964,95 965,86 966,73 967,62 968,73 969,79 970,83 971,83 972,74 973,67 974,67 975,75 976,73 977,66 978,68 979,85 980,89 982,94 983,87 984,84 985,80 986,75 987,80 988,79 989,62 990,62 991,56 992,53 993,42 994,40 995,40 996,32 997,29 998,34 999,37 1000,44 1001,53 1002,55 1003,60 1004,56 1005,49 1006,45 1007,44 1008,41 1009,36 1010,28 1011,28 1012,30 1013,37 1014,28 1015,20 1016,21 1017,33 1018,38 1019,30 1020,27 1021,28 1022,3 1024,0 1024,418 1024,418 1024,767 0,767 "/>
<polyline fill="none" opacity="1" stroke="#E6194B" stroke-width="1" points="0,700 1,700 2,674 3,674 4,673 5,660 6,660 7,671 8,667 9,668 10,677 11,682 12,683 13,686 14,689 15,684 16,686 17,688 18,685 19,682 20,682 21,683 22,676 23,671 24,658 25,656 26,665 27,668 28,670 29,662 30,652 31,634 32,630 33,652 34,658 35,663 36,661 37,648 38,637 39,630 40,630 41,628 43,628 44,641 45,638 46,629 47,625 48,625 49,625 50,611 51,604 52,601 53,602 54,590 55,580 56,577 57,578 58,563 59,554 60,551 61,537 62,532 63,530 64,536 65,533 66,527 67,533 68,530 69,519 70,514 71,511 72,521 73,524 74,513 75,506 76,505 77,498 78,491 79,483 80,488 81,489 82,497 83,497 84,496 86,481 87,476 88,477 89,479 90,476 91,476 92,472 93,464 94,463 95,475 96,480 97,480 98,466 99,460 100,457 101,456 102,464 103,456 104,456 105,459 106,452 107,446 108,442 109,438 110,442 111,446 112,436 113,435 114,436 115,435 116,437 117,439 118,448 119,457 120,464 121,452 122,446 123,432 124,436 125,462 126,468 128,458 129,468 130,463 131,464 132,461 133,443 134,438 135,439 136,444 137,443 138,443 139,451 140,458 141,464 142,453 143,455 144,449 145,451 146,460 147,459 148,452 149,459 150,459 151,462 152,462 153,459 154,450 155,450 156,437 157,438 158,453 159,445 160,454 161,451 162,459 163,457 164,468 165,462 166,455 167,460 168,457 169,449 171,444 172,440 173,449 174,447 175,456 176,439 177,433 178,433 179,438 180,439 181,444 182,441 183,426 184,425 185,429 186,425 187,431 188,431 189,426 190,421 191,414 192,413 193,417 194,416 195,409 196,413 197,412 198,413 199,422 200,416 201,421 202,411 203,405 204,405 205,403 206,405 207,414 208,406 209,409 210,413 211,420 212,414 214,427 215,431 216,426 217,420 218,417 219,415 220,403 221,407 222,409 223,411 224,404 225,396 226,405 227,405 228,405 229,418 230,417 231,426 232,424 233,426 234,431 235,427 236,425 237,420 238,413 239,420 240,415 241,417 242,418 243,419 244,406 245,398 246,390 247,390 248,385 249,378 250,383 251,383 252,377 253,363 254,361 256,352 257,360 258,369 259,372 260,373 261,374 262,372 263,365 264,364 265,355 266,360 267,368 268,375 269,364 270,362 271,364 272,371 273,374 274,380 275,381 276,387 277,394 278,394 279,393 280,385 281,388 282,390 283,398 284,397 285,404 286,422 287,411 288,424 289,414 290,414 291,415 292,422 293,418 294,416 295,412 296,401 297,400 299,399 300,404 301,411 302,409 303,406 304,403 305,395 306,392 307,395 308,398 309,403 310,407 311,402 312,400 313,395 314,389 315,379 316,378 317,378 318,386 319,384 320,380 321,386 322,383 323,386 324,379 325,371 326,363 327,361 328,358 329,348 330,348 331,359 332,367 333,382 334,382 335,398 336,404 337,394 338,395 339,391 340,379 342,379 343,394 344,402 345,400 346,396 347,392 348,394 349,391 350,375 351,375 352,369 353,377 354,373 355,379 356,383 357,382 358,380 359,379 360,381 361,387 362,395 363,395 364,392 365,388 366,386 367,385 368,385 369,392 370,387 371,386 372,389 373,399 374,395 375,390 376,389 377,392 378,401 379,402 380,399 381,400 382,389 384,390 385,392 386,380 387,380 388,386 389,384 390,381 391,388 392,386 393,394 394,393 395,376 396,373 397,369 398,381 399,375 400,365 401,355 402,353 403,343 404,348 405,350 406,336 407,335 408,333 409,334 410,339 411,346 412,334 413,335 414,334 415,332 416,341 417,342 418,342 419,333 420,327 421,322 422,323 423,323 424,322 425,326 427,331 428,332 429,335 430,335 431,332 432,334 433,337 434,339 435,347 436,348 437,334 438,335 439,340 440,320 441,317 442,316 443,316 444,315 445,318 446,315 447,309 448,304 449,304 450,304 451,301 452,306 453,307 454,308 455,312 456,314 457,309 458,301 459,302 460,292 461,295 462,301 463,296 464,298 465,300 466,286 467,290 468,288 470,289 471,294 472,303 473,306 474,300 475,296 476,288 477,292 478,288 479,289 480,286 481,290 482,302 483,305 484,305 485,308 486,306 487,311 488,314 489,309 490,314 491,316 492,315 493,316 494,317 495,309 496,317 497,318 498,316 499,321 500,317 501,303 502,305 503,318 504,316 505,316 506,318 507,317 508,313 509,312 510,313 512,316 513,318 514,309 515,307 516,303 517,311 518,319 519,311 520,307 521,306 522,310 523,307 524,297 525,297 526,306 527,312 528,303 529,302 530,299 531,297 532,299 533,283 534,287 535,292 536,304 537,304 538,302 539,296 540,299 541,302 542,306 543,298 544,293 545,298 546,294 547,303 548,304 549,293 550,294 551,296 552,293 553,294 555,304 556,302 557,304 558,307 559,303 560,310 561,308 562,315 563,331 564,327 565,324 566,321 567,313 568,326 569,317 570,317 571,320 572,318 573,316 574,320 575,327 576,327 577,329 578,329 579,330 580,328 581,321 582,316 583,317 584,311 585,318 586,323 587,318 588,319 589,317 590,323 591,320 592,324 593,323 594,322 595,328 596,330 598,334 599,339 600,348 601,352 602,349 603,359 604,358 605,346 606,336 607,340 608,339 609,336 610,335 611,339 612,338 613,338 614,339 615,333 616,333 617,334 618,344 619,339 620,333 621,333 622,336 623,339 624,335 625,330 626,328 627,332 628,329 629,317 630,307 631,303 632,307 633,306 634,306 635,295 636,288 637,286 638,281 640,286 641,288 642,284 643,286 644,288 645,285 646,285 647,289 648,293 649,278 650,278 651,276 652,280 653,290 654,292 655,288 656,285 657,290 658,296 659,282 660,275 661,283 662,285 663,286 664,299 665,298 666,295 667,291 668,293 669,289 670,286 671,272 672,268 673,271 674,263 675,263 676,256 677,256 678,268 679,265 680,254 681,259 683,256 684,253 685,244 686,244 687,261 688,258 689,230 690,232 691,228 692,228 693,241 694,224 695,222 696,222 697,215 698,224 699,232 700,233 701,229 702,235 703,236 704,215 705,216 706,213 707,218 708,229 709,230 710,222 711,221 712,218 713,227 714,232 715,231 716,223 717,223 718,223 719,224 720,223 721,223 722,224 723,232 724,210 726,210 727,208 728,210 729,208 730,196 731,193 732,202 733,197 734,194 735,189 736,198 737,204 738,198 739,200 740,204 741,203 742,209 743,206 744,202 745,193 746,193 747,193 748,193 749,196 750,201 751,203 752,194 753,197 754,186 755,185 756,190 757,183 758,182 759,184 760,194 761,196 762,195 763,206 764,205 765,197 766,201 768,198 769,199 770,199 771,198 772,186 773,175 774,168 775,179 776,170 777,174 778,174 779,175 780,170 781,167 782,172 783,166 784,161 785,169 786,159 787,158 788,164 789,177 790,193 791,190 792,191 793,194 794,200 795,201 796,196 797,188 798,182 799,176 800,177 801,184 802,182 803,182 804,175 805,166 806,174 807,186 808,201 809,210 811,198 812,193 813,183 814,179 815,173 816,173 817,169 818,164 819,160 820,165 821,161 822,155 823,154 824,153 825,154 826,166 827,158 828,154 829,146 830,154 831,154 832,161 833,157 834,162 835,168 836,165 837,163 838,163 839,163 840,159 841,153 842,161 843,158 844,148 845,140 846,133 847,134 848,135 849,136 850,142 851,142 852,159 854,159 855,152 856,150 857,150 858,151 859,154 860,168 861,179 862,192 863,199 864,191 865,179 866,170 867,173 868,163 869,158 870,148 871,140 872,140 873,135 874,140 875,135 876,130 877,133 878,139 879,139 880,150 881,148 882,144 883,139 884,141 885,140 886,133 887,135 888,129 889,130 890,135 891,127 892,120 893,114 894,111 896,117 897,121 898,115 899,128 900,123 901,117 902,118 903,124 904,132 905,134 906,127 907,131 908,137 909,135 910,135 911,119 912,111 913,112 914,113 915,117 916,112 917,112 918,113 919,113 920,112 921,108 922,105 923,97 924,88 925,85 926,91 927,82 928,79 929,72 930,77 931,72 932,72 933,76 934,75 935,82 936,83 937,94 939,96 940,103 941,97 942,99 943,90 944,99 945,95 946,92 947,96 948,98 949,99 950,105 951,105 952,102 953,99 954,97 955,99 956,99 957,90 958,81 959,92 960,86 961,82 962,89 963,92 964,95 965,86 966,73 967,62 968,73 969,79 970,83 971,83 972,74 973,67 974,67 975,75 976,73 977,66 978,68 979,85 980,89 982,94 983,87 984,84 985,80 986,75 987,80 988,79 989,62 990,62 991,56 992,53 993,42 994,40 995,40 996,32 997,29 998,34 999,37 1000,44 1001,53 1002,55 1003,60 1004,56 1005,49 1006,45 1007,44 1008,41 1009,36 1010,28 1011,28 1012,30 1013,37 1014,28 1015,20 1016,21 1017,33 1018,38 1019,30 1020,27 1021,28 1022,3 1024,0 1024,418 1024,418 "/>
<line opacity="0.1" stroke="#000000" stroke-width="1" x1="5" y1="767" x2="5" y2="-1"/>
<line opacity="0.1" stroke="#000000" stroke-width="1" x1="16" y1="767" x2="16" y2="-1"/>
<line opacity="0.1" stroke="#000000" stroke-width="1" x1="27" y1="767" x2="27" y2="-1"/>
<line opacity="0.1" stroke="#000000" stroke-width="1" x1="37" y1="767" x2="37" y2="-1"/>
<line opacity="0.1" stroke="#000000" stroke-width="1" x1="48" y1="767" x2="48" y2="-1"/>
<line opacity="0.1" stroke="#000000" stroke-width="1" x1="58" y1="767" x2="58" y2="-1"/>
<line opacity="0.1" stroke="#000000" stroke-width="1" x1="69" y1="767" x2="69" y2="-1"/>
<line opacity="0.1" stroke="#000000" stroke-width="1" x1="80" y1="767" x2="80" y2="-1"/>
<line opacity="0.1" stroke="#000000" stroke-width="1" x1="90" y1="767" x2="90" y2="-1"/>
<line opacity="0.1" stroke="#000000" stroke-width="1" x1="101" y1="767" x2="101" y2="-1"/>
<line opacity="0.1" stroke="#000000" stroke-width="1" x1="111" y1="767" x2="111" y2="-1"/>
<line opacity="0.1" stroke="#000000" stroke-width="1" x1="122" y1="767" x2="122" y2="-1"/>
<line opacity="0.1" stroke="#000000" stroke-width="1" x1="133" y1="767" x2="133" y2="-1"/>
<line opacity="0.1" stroke="#000000" stroke-width="1" x1="143" y1="767" x2="143" y2="-1"/>
<line opacity="0.1" stroke="#000000" stroke-width="1" x1="154" y1="767" x2="154" y2="-1"/>
<line opacity="0.1" stroke="#000000" stroke-width="1" x1="164" y1="767" x2="164" y2="-1"/>
<line opacity="0.1" stroke="#000000" stroke-width="1" x1="175" y1="767" x2="175" y2="-1"/>
<line opacity="0.1" stroke="#000000" stroke-width="1" x1="185" y1="767" x2="185" y2="-1"/>
<line opacity="0.1" stroke="#000000" stroke-width="1" x1="196" y1="767" x2="196" y2="-1"/>
<line opacity="0.1" stroke="#000000" stroke-width="1" x1="207" y1="767" x2="207" y2="-1"/>
<line opacity="0.1" stroke="#000000" stroke-width="1" x1="217" y1="767" x2="217" y2="-1"/>
<line opacity="0.1" stroke="#000000" stroke-width="1" x1="228" y1="767" x2="228" y2="-1"/>
<line opacity="0.1" stroke="#000000" stroke-width="1" x1="238" y1="767" x2="238" y2="-1"/>
<line opacity="0.1" stroke="#000000" stroke-width="1" x1="249" y1="767" x2="249" y2="-1"/>
<line opacity="0.1" stroke="#000000" stroke-width="1" x1="260" y1="767" x2="260" y2="-1"/>
<line opacity="0.1" stroke="#000000" stroke-width="1" x1="270" y1="767" x2="270" y2="-1"/>
<line opacity="0.1" stroke="#000000" stroke-width="1" x1="281" y1="767" x2="281" y2="-1"/>
<line opacity="0.1" stroke="#000000" stroke-width="1" x1="291" y1="767" x2="291" y2="-1"/>
<line opacity="0.1" stroke="#000000" stroke-width="1" x1="302" y1="767" x2="302" y2="-1"/>
<line opacity="0.1" stroke="#000000" stroke-width="1" x1="312" y1="767" x2="312" y2="-1"/>
<line opacity="0.1" stroke="#000000" stroke-width="1" x1="323" y1="767" x2="323" y2="-1"/>
<line opacity="0.1" stroke="#000000" stroke-width="1" x1="334" y1="767" x2="334" y2="-1"/>
<line opacity="0.1" stroke="#000000" stroke-width="1" x1="344" y1="767" x2="344" y2="-1"/>
<line opacity="0.1" stroke="#000000" stroke-width="1" x1="355" y1="767" x2="355" y2="-1"/>
<line opacity="0.1" stroke="#000000" stroke-width="1" x1="365" y1="767" x2="365" y2="-1"/>
<line opacity="0.1" stroke="#000000" stroke-width="1" x1="376" y1="767" x2="376" y2="-1"/>
<line opacity="0.1" stroke="#000000" stroke-width="1" x1="387" y1="767" x2="387" y2="-1"/>
<line opacity="0.1" stroke="#000000" stroke-width="1" x1="397" y1="767" x2="397" y2="-1"/>
<line opacity="0.1" stroke="#000000" stroke-width="1" x1="408" y1="767" x2="408" y2="-1"/>
<line opacity="0.1" stroke="#000000" stroke-width="1" x1="418" y1="767" x2="418" y2="-1"/>
<line opacity="0.1" stroke="#000000" stroke-width="1" x1="429" y1="767" x2="429" y2="-1"/>
<line opacity="0.1" stroke="#000000" stroke-width="1" x1="440" y1="767" x2="440" y2="-1"/>
<line opacity="0.1" stroke="#000000" stroke-width="1" x1="450" y1="767" x2="450" y2="-1"/>
<line opacity="0.1" stroke="#000000" stroke-width="1" x1="461" y1="767" x2="461" y2="-1"/>
<line opacity="0.1" stroke="#000000" stroke-width="1" x1="471" y1="767" x2="471" y2="-1"/>
<line opacity="0.1" stroke="#000000" stroke-width="1" x1="482" y1="767" x2="482" y2="-1"/>
<line opacity="0.1" stroke="#000000" stroke-width="1" x1="492" y1="767" x2="492" y2="-1"/>
<line opacity="0.1" stroke="#000000" stroke-width="1" x1="503" y1="767" x2="503" y2="-1"/>
<line opacity="0.1" stroke="#000000" stroke-width="1" x1="514" y1="767" x2="514" y2="-1"/>
<line opacity="0.1" stroke="#000000" stroke-width="1" x1="524" y1="767" x2="524" y2="-1"/>
<line opacity="0.1" stroke="#000000" stroke-width="1" x1="535" y1="767" x2="535" y2="-1"/>
<line opacity="0.1" stroke="#000000" stroke-width="1" x1="545" y1="767" x2="545" y2="-1"/>
<line opacity="0.1" stroke="#000000" stroke-width="1" x1="556" y1="767" x2="556" y2="-1"/>
<line opacity="0.1" stroke="#000000" stroke-width="1" x1="567" y1="767" x2="567" y2="-1"/>
<line opacity="0.1" stroke="#000000" stroke-width="1" x1="577" y1="767" x2="577" y2="-1"/>
<line opacity="0.1" stroke="#000000" stroke-width="1" x1="588" y1="767" x2="588" y2="-1"/>
<line opacity="0.1" stroke="#000000" stroke-width="1" x1="598" y1="767" x2="598" y2="-1"/>
<line opacity="0.1" stroke="#000000" stroke-width="1" x1="609" y1="767" x2="609" y2="-1"/>
<line opacity="0.1" stroke="#000000" stroke-width="1" x1="619" y1="767" x2="619" y2="-1"/>
<line opacity="0.1" stroke="#000000" stroke-width="1" x1="630" y1="767" x2="630" y2="-1"/>
<line opacity="0.1" stroke="#000000" stroke-width="1" x1="641" y1="767" x2="641" y2="-1"/>
<line opacity="0.1" stroke="#000000" stroke-width="1" x1="651" y1="767" x2="651" y2="-1"/>
<line opacity="0.1" stroke="#000000" stroke-width="1" x1="662" y1="767" x2="662" y2="-1"/>
<line opacity="0.1" stroke="#000000" stroke-width="1" x1="672" y1="767" x2="672" y2="-1"/>
<line opacity="0.1" stroke="#000000" stroke-width="1" x1="683" y1="767" x2="683" y2="-1"/>
<line opacity="0.1" stroke="#000000" stroke-width="1" x1="694" y1="767" x2="694" y2="-1"/>
<line opacity="0.1" stroke="#000000" stroke-width="1" x1="704" y1="767" x2="704" y2="-1"/>
<line opacity="0.1" stroke="#000000" stroke-width="1" x1="715" y1="767" x2="715" y2="-1"/>
<line opacity="0.1" stroke="#000000" stroke-width="1" x1="725" y1="767" x2="725" y2="-1"/>
<line opacity="0.1" stroke="#000000" stroke-width="1" x1="736" y1="767" x2="736" y2="-1"/>
<line opacity="0.1" stroke="#000000" stroke-width="1" x1="747" y1="767" x2="747" y2="-1"/>
<line opacity="0.1" stroke="#000000" stroke-width="1" x1="757" y1="767" x2="757" y2="-1"/>
<line opacity="0.1" stroke="#000000" stroke-width="1" x1="768" y1="767" x2="768" y2="-1"/>
<line opacity="0.1" stroke="#000000" stroke-width="1" x1="778" y1="767" x2="778" y2="-1"/>
<line opacity="0.1" stroke="#000000" stroke-width="1" x1="789" y1="767" x2="789" y2="-1"/>
<line opacity="0.1" stroke="#000000" stroke-width="1" x1="799" y1="767" x2="799" y2="-1"/>
<line opacity="0.1" stroke="#000000" stroke-width="1" x1="810" y1="767" x2="810" y2="-1"/>
<line opacity="0.1" stroke="#000000" stroke-width="1" x1="821" y1="767" x2="821" y2="-1"/>
<line opacity="0.1" stroke="#000000" stroke-width="1" x1="831" y1="767" x2="831" y2="-1"/>
<line opacity="0.1" stroke="#000000" stroke-width="1" x1="842" y1="767" x2="842" y2="-1"/>
<line opacity="0.1" stroke="#000000" stroke-width="1" x1="852" y1="767" x2="852" y2="-1"/>
<line opacity="0.1" stroke="#000000" stroke-width="1" x1="863" y1="767" x2="863" y2="-1"/>
<line opacity="0.1" stroke="#000000" stroke-width="1" x1="874" y1="767" x2="874" y2="-1"/>
<line opacity="0.1" stroke="#000000" stroke-width="1" x1="884" y1="767" x2="884" y2="-1"/>
<line opacity="0.1" stroke="#000000" stroke-width="1" x1="895" y1="767" x2="895" y2="-1"/>
<line opacity="0.1" stroke="#000000" stroke-width="1" x1="905" y1="767" x2="905" y2="-1"/>
<line opacity="0.1" stroke="#000000" stroke-width="1" x1="916" y1="767" x2="916" y2="-1"/>
<line opacity="0.1" stroke="#000000" stroke-width="1" x1="926" y1="767" x2="926" y2="-1"/>
<line opacity="0.1" stroke="#000000" stroke-width="1" x1="937" y1="767" x2="937" y2="-1"/>
<line opacity="0.1" stroke="#000000" stroke-width="1" x1="948" y1="767" x2="948" y2="-1"/>
<line opacity="0.1" stroke="#000000" stroke-width="1" x1="958" y1="767" x2="958" y2="-1"/>
<line opacity="0.1" stroke="#000000" stroke-width="1" x1="969" y1="767" x2="969" y2="-1"/>
<line opacity="0.1" stroke="#000000" stroke-width="1" x1="979" y1="767" x2="979" y2="-1"/>
<line opacity="0.1" stroke="#000000" stroke-width="1" x1="990" y1="767" x2="990" y2="-1"/>
<line opacity="0.1" stroke="#000000" stroke-width="1" x1="1001" y1="767" x2="1001" y2="-1"/>
<line opacity="0.1" stroke="#000000" stroke-width="1" x1="1011" y1="767" x2="1011" y2="-1"/>
<line opacity="0.1" stroke="#000000" stroke-width="1" x1="1022" y1="767" x2="1022" y2="-1"/>
<line opacity="0.1" stroke="#000000" stroke-width="1" x1="0" y1="767" x2="1024" y2="767"/>
<line opacity="0.1" stroke="#000000" stroke-width="1" x1="0" y1="753" x2="1024" y2="753"/>
<line opacity="0.1" stroke="#000000" stroke-width="1" x1="0" y1="739" x2="1024" y2="739"/>
<line opacity="0.1" stroke="#000000" stroke-width="1" x1="0" y1="725" x2="1024" y2="725"/>
<line opacity="0.1" stroke="#000000" stroke-width="1" x1="0" y1="711" x2="1024" y2="711"/>
<line opacity="0.1" stroke="#000000" stroke-width="1" x1="0" y1="697" x2="1024" y2="697"/>
<line opacity="0.1" stroke="#000000" stroke-width="1" x1="0" y1="683" x2="1024" y2="683"/>
<line opacity="0.1" stroke="#000000" stroke-width="1" x1="0" y1="669" x2="1024" y2="669"/>
<line opacity="0.1" stroke="#000000" stroke-width="1" x1="0" y1="655" x2="1024" y2="655"/>
<line opacity="0.1" stroke="#000000" stroke-width="1" x1="0" y1="641" x2="1024" y2="641"/>
<line opacity="0.1" stroke="#000000" stroke-width="1" x1="0" y1="628" x2="1024" y2="628"/>
<line opacity="0.1" stroke="#000000" stroke-width="1" x1="0" y1="614" x2="1024" y2="614"/>
<line opacity="0.1" stroke="#000000" stroke-width="1" x1="0" y1="600" x2="1024" y2="600"/>
<line opacity="0.1" stroke="#000000" stroke-width="1" x1="0" y1="586" x2="1024" y2="586"/>
<line opacity="0.1" stroke="#000000" stroke-width="1" x1="0" y1="572" x2="1024" y2="572"/>
<line opacity="0.1" stroke="#000000" stroke-width="1" x1="0" y1="558" x2="1024" y2="558"/>
<line opacity="0.1" stroke="#000000" stroke-width="1" x1="0" y1="544" x2="1024" y2="544"/>
<line opacity="0.1" stroke="#000000" stroke-width="1" x1="0" y1="530" x2="1024" y2="530"/>
<line opacity="0.1" stroke="#000000" stroke-width="1" x1="0" y1="516" x2="1024" y2="516"/>
<line opacity="0.1" stroke="#000000" stroke-width="1" x1="0" y1="503" x2="1024" y2="503"/>
<line opacity="0.1" stroke="#000000" stroke-width="1" x1="0" y1="489" x2="1024" y2="489"/>
<line opacity="0.1" stroke="#000000" stroke-width="1" x1="0" y1="475" x2="1024" y2="475"/>
<line opacity="0.1" stroke="#000000" stroke-width="1" x1="0" y1="461" x2="1024" y2="461"/>
<line opacity="0.1" stroke="#000000" stroke-width="1" x1="0" y1="447" x2="1024" y2="447"/>
<line opacity="0.1" stroke="#000000" stroke-width="1" x1="0" y1="433" x2="1024" y2="433"/>
<line opacity="0.1" stroke="#000000" stroke-width="1" x1="0" y1="419" x2="1024" y2="419"/>
<line opacity="0.1" stroke="#000000" stroke-width="1" x1="0" y1="405" x2="1024" y2="405"/>
<line opacity="0.1" stroke="#000000" stroke-width="1" x1="0" y1="391" x2="1024" y2="391"/>
<line opacity="0.1" stroke="#000000" stroke-width="1" x1="0" y1="377" x2="1024" y2="377"/>
<line opacity="0.1" stroke="#000000" stroke-width="1" x1="0" y1="364" x2="1024" y2="364"/>
<line opacity="0.1" stroke="#000000" stroke-width="1" x1="0" y1="350" x2="1024" y2="350"/>
<line opacity="0.1" stroke="#000000" stroke-width="1" x1="0" y1="336" x2="1024" y2="336"/>
<line opacity="0.1" stroke="#000000" stroke-width="1" x1="0" y1="322" x2="1024" y2="322"/>
<line opacity="0.1" stroke="#000000" stroke-width="1" x1="0" y1="308" x2="1024" y2="308"/>
<line opacity="0.1" stroke="#000000" stroke-width="1" x1="0" y1="294" x2="1024" y2="294"/>
<line opacity="0.1" stroke="#000000" stroke-width="1" x1="0" y1="280" x2="1024" y2="280"/>
<line opacity="0.1" stroke="#000000" stroke-width="1" x1="0" y1="266" x2="1024" y2="266"/>
<line opacity="0.1" stroke="#000000" stroke-width="1" x1="0" y1="252" x2="1024" y2="252"/>
<line opacity="0.1" stroke="#000000" stroke-width="1" x1="0" y1="239" x2="1024" y2="239"/>
<line opacity="0.1" stroke="#000000" stroke-width="1" x1="0" y1="225" x2="1024" y2="225"/>
<line opacity="0.1" stroke="#000000" stroke-width="1" x1="0" y1="211" x2="1024" y2="211"/>
<line opacity="0.1" stroke="#000000" stroke-width="1" x1="0" y1="197" x2="1024" y2="197"/>
<line opacity="0.1" stroke="#000000" stroke-width="1" x1="0" y1="183" x2="1024" y2="183"/>
<line opacity="0.1" stroke="#000000" stroke-width="1" x1="0" y1="169" x2="1024" y2="169"/>
<line opacity="0.1" stroke="#000000" stroke-width="1" x1="0" y1="155" x2="1024" y2="155"/>
<line opacity="0.1" stroke="#000000" stroke-width="1" x1="0" y1="141" x2="1024" y2="141"/>
<line opacity="0.1" stroke="#000000" stroke-width="1" x1="0" y1="127" x2="1024" y2="127"/>
<line opacity="0.1" stroke="#000000" stroke-width="1" x1="0" y1="114" x2="1024" y2="114"/>
<line opacity="0.1" stroke="#000000" stroke-width="1" x1="0" y1="100" x2="1024" y2="100"/>
<line opacity="0.1" stroke="#000000" stroke-width="1" x1="0" y1="86" x2="1024" y2="86"/>
<line opacity="0.1" stroke="#000000" stroke-width="1" x1="0" y1="72" x2="1024" y2="72"/>
<line opacity="0.1" stroke="#000000" stroke-width="1" x1="0" y1="58" x2="1024" y2="58"/>
<line opacity="0.1" stroke="#000000" stroke-width="1" x1="0" y1="44" x2="1024" y2="44"/>
<line opacity="0.1" stroke="#000000" stroke-width="1" x1="0" y1="30" x2="1024" y2="30"/>
<line opacity="0.1" stroke="#000000" stroke-width="1" x1="0" y1="16" x2="1024" y2="16"/>
<line opacity="0.1" stroke="#000000" stroke-width="1" x1="0" y1="2" x2="1024" y2="2"/>
<line opacity="0.2" stroke="#000000" stroke-width="1" x1="101" y1="767" x2="101" y2="-1"/>
<line opacity="0.2" stroke="#000000" stroke-width="1" x1="207" y1="767" x2="207" y2="-1"/>
<line opacity="0.2" stroke="#000000" stroke-width="1" x1="312" y1="767" x2="312" y2="-1"/>
<line opacity="0.2" stroke="#000000" stroke-width="1" x1="418" y1="767" x2="418" y2="-1"/>
<line opacity="0.2" stroke="#000000" stroke-width="1" x1="524" y1="767" x2="524" y2="-1"/>
<line opacity="0.2" stroke="#000000" stroke-width="1" x1="630" y1="767" x2="630" y2="-1"/>
<line opacity="0.2" stroke="#000000" stroke-width="1" x1="736" y1="767" x2="736" y2="-1"/>
<line opacity="0.2" stroke="#000000" stroke-width="1" x1="842" y1="767" x2="842" y2="-1"/>
<line opacity="0.2" stroke="#000000" stroke-width="1" x1="948" y1="767" x2="948" y2="-1"/>
<line opacity="0.2" stroke="#000000" stroke-width="1" x1="0" y1="767" x2="1024" y2="767"/>
<line opacity="0.2" stroke="#000000" stroke-width="1" x1="0" y1="628" x2="1024" y2="628"/>
<line opacity="0.2" stroke="#000000" stroke-width="1" x1="0" y1="489" x2="1024" y2="489"/>
<line opacity="0.2" stroke="#000000" stroke-width="1" x1="0" y1="350" x2="1024" y2="350"/>
<line opacity="0.2" stroke="#000000" stroke-width="1" x1="0" y1="211" x2="1024" y2="211"/>
<line opacity="0.2" stroke="#000000" stroke-width="1" x1="0" y1="72" x2="1024" y2="72"/>
</svg>
