<svg width="1024" height="768" viewBox="0 0 1024 768" xmlns="http://www.w3.org/2000/svg">
<rect x="0" y="0" width="1024" height="768" opacity="1" fill="#FFFFFF" stroke="none"/>
<polygon opacity="1" fill="#E6194B" points="435,649 436,576 436,506 436,470 436,443 436,396 436,372 437,363 437,378 437,382 437,374 437,369 438,329 438,322 438,295 438,267 438,266 438,245 439,232 439,231 439,229 439,223 439,235 440,223 440,204 440,189 440,195 440,201 440,206 441,210 441,210 441,217 441,213 441,213 442,193 442,171 442,167 442,163 442,155 442,193 443,188 443,163 443,155 443,159 443,166 443,173 444,185 444,230 444,230 444,206 444,206 445,215 445,203 445,172 445,171 445,168 445,179 446,182 446,173 446,176 446,185 446,168 447,165 447,171 447,196 447,202 447,195 447,204 448,220 448,230 448,207 448,193 448,205 448,206 449,199 449,171 449,169 449,176 449,163 450,161 450,151 450,166 450,139 450,136 450,142 451,147 451,150 451,158 451,162 451,148 452,141 452,134 452,153 452,152 452,150 452,189 453,182 453,177 453,189 453,185 453,189 453,184 454,181 454,195 454,215 454,196 454,195 455,214 455,203 455,197 455,200 455,207 455,187 456,193 456,198 456,202 456,203 456,211 457,214 457,206 457,212 457,236 457,217 457,239 458,233 458,251 458,260 458,264 458,249 458,243 459,225 459,212 459,200 459,206 459,218 460,249 460,240 460,239 460,228 460,196 460,169 461,163 461,148 461,156 461,176 461,159 462,149 462,155 462,165 462,152 462,147 462,158 463,163 463,149 463,155 463,164 463,155 464,165 464,170 464,164 464,140 464,131 464,141 465,132 465,114 465,112 465,114 465,132 465,116 466,121 466,140 466,139 466,134 466,111 467,106 467,129 467,122 467,128 467,122 467,125 468,127 468,122 468,128 468,126 468,131 469,130 469,145 469,168 469,175 469,185 469,184 470,178 470,150 470,156 470,156 470,118 470,114 471,121 471,135 471,133 471,133 471,114 472,95 472,85 472,88 472,98 472,105 472,125 473,135 473,134 473,128 473,103 473,103 474,116 474,110 474,118 474,115 474,120 474,130 475,124 475,116 475,102 475,86 475,68 475,86 476,88 476,84 476,95 476,95 476,78 477,85 477,111 477,99 477,95 477,100 477,116 478,123 478,131 478,137 478,151 478,152 479,144 479,149 479,146 479,145 479,126 479,113 480,131 480,114 480,96 480,85 480,88 481,111 481,105 481,100 481,104 481,98 481,95 482,85 482,107 482,113 482,98 482,90 482,86 483,96 483,101 483,115 483,131 483,145 484,146 484,163 484,169 484,196 484,168 484,154 485,166 485,158 485,163 485,174 485,172 486,188 486,181 486,168 486,164 486,184 486,180 487,181 487,189 487,197 487,209 487,207 487,191 488,182 488,188 488,198 488,208 488,199 489,206 489,201 489,210 489,207 489,203 489,222 490,225 490,208 490,213 490,221 490,224 491,216 491,211 491,198 491,182 491,191 491,197 492,204 492,216 492,217 492,245 492,248 492,231 493,221 493,212 493,207 493,216 493,232 494,232 494,231 494,244 494,238 494,225 494,231 495,234 495,236 495,233 495,232 495,214 496,207 496,183 496,181 496,177 496,182 496,209 497,214 497,228 497,232 497,230 497,226 497,197 498,194 498,214 498,204 498,224 498,230 499,225 499,218 499,234 499,209 499,207 499,214 500,194 500,194 500,188 500,191 500,183 501,182 501,181 501,196 501,216 501,220 501,229 502,223 502,222 502,235 502,229 502,209 503,203 503,228 503,211 503,206 503,197 503,197 504,193 504,211 504,200 504,197 504,215 504,228 505,246 505,262 505,260 505,251 505,241 506,252 506,245 506,251 506,242 506,238 506,227 507,222 507,229 507,234 507,253 507,253 508,246 508,265 508,263 508,238 508,212 508,207 509,196 509,199 509,198 509,192 509,206 509,234 510,233 510,240 510,251 510,273 510,259 511,258 511,235 511,220 511,224 511,214 511,204 512,185 512,199 512,185 512,192 512,197 513,198 513,206 513,216 513,216 513,211 513,184 514,168 514,163 514,169 514,185 514,175 514,165 515,167 515,205 515,223 515,224 515,215 516,187 516,176 516,179 516,188 516,200 516,199 517,201 517,200 517,176 517,171 517,170 518,202 518,211 518,205 518,206 518,216 518,215 519,220 519,203 519,203 519,214 519,201 520,193 520,206 520,179 520,178 520,202 520,211 521,198 521,179 521,173 521,185 521,199 521,228 522,222 522,230 522,226 522,236 522,226 523,199 523,175 523,164 523,165 523,181 523,184 524,188 524,197 524,196 524,215 524,201 525,197 525,181 525,180 525,193 525,203 525,221 526,229 526,233 526,225 526,224 526,227 526,221 527,222 527,221 527,193 527,196 527,204 528,215 528,206 528,189 528,196 528,217 528,223 529,218 529,233 529,233 529,231 529,253 530,252 530,256 530,296 530,309 530,327 530,325 531,321 531,304 531,300 531,296 531,294 531,299 532,297 532,295 532,314 532,298 532,278 533,268 533,294 533,302 533,309 533,323 533,307 534,314 534,286 534,274 534,282 534,280 535,300 535,304 535,285 535,285 535,303 535,290 536,291 536,285 536,289 536,289 536,298 536,305 537,312 537,344 537,341 537,354 537,335 538,318 538,316 538,325 538,355 538,344 538,330 539,332 539,335 539,365 539,363 539,370 540,369 540,377 540,383 540,397 540,393 540,390 541,389 541,382 541,370 541,356 541,348 542,347 542,345 542,355 542,353 542,349 542,335 543,333 543,339 543,344 543,335 543,335 543,356 544,340 544,320 544,320 544,342 544,352 545,345 545,350 545,342 545,339 545,365 545,353 546,362 546,357 546,357 546,356 546,345 547,352 547,358 547,349 547,339 547,337 547,321 548,321 548,346 548,369 548,363 548,368 548,358 549,350 549,368 549,377 549,380 549,365 550,364 550,368 550,346 550,321 550,321 550,332 551,327 551,321 551,323 551,328 551,324 552,333 552,343 552,340 552,341 552,347 552,360 553,352 553,351 553,362 553,364 553,352 553,348 554,384 554,393 554,411 554,427 554,432 555,435 555,424 555,415 555,425 555,431 555,415 556,456 556,457 556,451 556,451 556,449 557,456 557,452 557,448 557,425 557,408 557,398 558,396 558,385 558,399 558,384 558,389 559,403 559,403 559,415 559,410 559,402 559,401 560,406 560,406 560,397 560,397 560,416 560,428 561,432 561,422 561,398 561,409 561,422 562,414 562,416 562,415 562,405 562,431 562,431 563,432 563,414 563,397 563,398 563,401 564,382 564,368 564,363 564,380 564,386 564,371 565,367 565,378 565,392 565,405 565,409 565,407 566,421 566,415 566,424 566,406 566,413 567,420 567,408 567,420 567,417 567,395 567,393 568,395 568,396 568,419 568,428 568,433 569,425 569,419 569,413 569,406 569,430 569,437 570,439 570,443 570,446 570,424 570,421 570,426 571,415 571,427 571,426 571,420 571,426 572,402 572,405 572,404 572,403 572,392 572,379 573,386 573,391 573,396 573,396 573,397 574,399 574,414 574,406 574,406 574,411 574,420 575,419 575,410 575,421 575,404 575,380 576,359 576,354 576,345 576,346 576,341 576,350 577,346 577,334 577,333 577,345 577,354 577,359 578,367 578,368 578,367 578,376 578,364 579,362 579,374 579,369 579,365 579,341 579,326 580,318 580,318 580,318 580,316 580,311 581,307 581,304 581,282 581,287 581,282 581,264 582,269 582,279 582,291 582,314 582,318 582,322 583,317 583,297 583,306 583,308 583,306 584,312 584,315 584,310 584,295 584,289 584,291 585,308 585,297 585,280 585,290 585,287 586,298 586,303 586,310 586,323 586,332 586,318 587,315 587,316 587,326 587,334 587,298 587,287 588,292 588,308 588,304 588,317 588,320 589,337 589,328 589,340 589,339 589,346 589,340 590,346 590,338 590,311 590,289 590,289 591,269 591,255 591,252 591,271 591,280 591,274 592,259 592,250 592,245 592,242 592,251 592,273 593,267 593,287 593,297 593,296 593,302 594,311 594,307 594,309 594,305 594,319 594,324 595,343 595,344 595,335 595,331 595,322 596,315 596,314 596,312 596,331 596,314 596,310 597,336 597,351 597,358 597,344 597,332 598,327 598,336 598,344 598,346 598,339 598,331 599,310 599,307 599,282 599,274 599,282 599,300 600,308 600,305 600,299 600,298 600,299 601,301 601,300 601,294 601,317 601,317 601,322 602,323 602,356 602,357 602,341 602,342 603,349 603,357 603,353 603,350 603,337 603,333 604,329 604,326 604,333 604,341 604,337 604,336 605,319 605,312 605,312 605,325 605,323 606,327 606,324 606,315 606,315 606,302 606,309 607,299 607,304 607,303 607,305 607,301 608,311 608,302 608,295 608,282 608,276 608,277 609,258 609,254 609,240 609,244 609,231 609,241 610,246 610,251 610,283 610,307 610,306 611,301 611,292 611,282 611,295 611,288 611,289 612,306 612,322 612,324 612,330 612,334 613,341 613,355 613,369 613,382 613,401 613,429 614,476 614,527 614,569 614,608 614,645 614,699 973,699 973,699 435,699 "/>
<polyline fill="none" opacity="1" stroke="#E6194B" stroke-width="1" points="435,649 436,576 436,506 436,470 436,443 436,396 436,372 437,363 437,378 437,382 437,374 437,369 438,329 438,322 438,295 438,267 438,266 438,245 439,232 439,231 439,229 439,223 439,235 440,223 440,204 440,189 440,195 440,201 440,206 441,210 441,210 441,217 441,213 441,213 442,193 442,171 442,167 442,163 442,155 442,193 443,188 443,163 443,155 443,159 443,166 443,173 444,185 444,230 444,230 444,206 444,206 445,215 445,203 445,172 445,171 445,168 445,179 446,182 446,173 446,176 446,185 446,168 447,165 447,171 447,196 447,202 447,195 447,204 448,220 448,230 448,207 448,193 448,205 448,206 449,199 449,171 449,169 449,176 449,163 450,161 450,151 450,166 450,139 450,136 450,142 451,147 451,150 451,158 451,162 451,148 452,141 452,134 452,153 452,152 452,150 452,189 453,182 453,177 453,189 453,185 453,189 453,184 454,181 454,195 454,215 454,196 454,195 455,214 455,203 455,197 455,200 455,207 455,187 456,193 456,198 456,202 456,203 456,211 457,214 457,206 457,212 457,236 457,217 457,239 458,233 458,251 458,260 458,264 458,249 458,243 459,225 459,212 459,200 459,206 459,218 460,249 460,240 460,239 460,228 460,196 460,169 461,163 461,148 461,156 461,176 461,159 462,149 462,155 462,165 462,152 462,147 462,158 463,163 463,149 463,155 463,164 463,155 464,165 464,170 464,164 464,140 464,131 464,141 465,132 465,114 465,112 465,114 465,132 465,116 466,121 466,140 466,139 466,134 466,111 467,106 467,129 467,122 467,128 467,122 467,125 468,127 468,122 468,128 468,126 468,131 469,130 469,145 469,168 469,175 469,185 469,184 470,178 470,150 470,156 470,156 470,118 470,114 471,121 471,135 471,133 471,133 471,114 472,95 472,85 472,88 472,98 472,105 472,125 473,135 473,134 473,128 473,103 473,103 474,116 474,110 474,118 474,115 474,120 474,130 475,124 475,116 475,102 475,86 475,68 475,86 476,88 476,84 476,95 476,95 476,78 477,85 477,111 477,99 477,95 477,100 477,116 478,123 478,131 478,137 478,151 478,152 479,144 479,149 479,146 479,145 479,126 479,113 480,131 480,114 480,96 480,85 480,88 481,111 481,105 481,100 481,104 481,98 481,95 482,85 482,107 482,113 482,98 482,90 482,86 483,96 483,101 483,115 483,131 483,145 484,146 484,163 484,169 484,196 484,168 484,154 485,166 485,158 485,163 485,174 485,172 486,188 486,181 486,168 486,164 486,184 486,180 487,181 487,189 487,197 487,209 487,207 487,191 488,182 488,188 488,198 488,208 488,199 489,206 489,201 489,210 489,207 489,203 489,222 490,225 490,208 490,213 490,221 490,224 491,216 491,211 491,198 491,182 491,191 491,197 492,204 492,216 492,217 492,245 492,248 492,231 493,221 493,212 493,207 493,216 493,232 494,232 494,231 494,244 494,238 494,225 494,231 495,234 495,236 495,233 495,232 495,214 496,207 496,183 496,181 496,177 496,182 496,209 497,214 497,228 497,232 497,230 497,226 497,197 498,194 498,214 498,204 498,224 498,230 499,225 499,218 499,234 499,209 499,207 499,214 500,194 500,194 500,188 500,191 500,183 501,182 501,181 501,196 501,216 501,220 501,229 502,223 502,222 502,235 502,229 502,209 503,203 503,228 503,211 503,206 503,197 503,197 504,193 504,211 504,200 504,197 504,215 504,228 505,246 505,262 505,260 505,251 505,241 506,252 506,245 506,251 506,242 506,238 506,227 507,222 507,229 507,234 507,253 507,253 508,246 508,265 508,263 508,238 508,212 508,207 509,196 509,199 509,198 509,192 509,206 509,234 510,233 510,240 510,251 510,273 510,259 511,258 511,235 511,220 511,224 511,214 511,204 512,185 512,199 512,185 512,192 512,197 513,198 513,206 513,216 513,216 513,211 513,184 514,168 514,163 514,169 514,185 514,175 514,165 515,167 515,205 515,223 515,224 515,215 516,187 516,176 516,179 516,188 516,200 516,199 517,201 517,200 517,176 517,171 517,170 518,202 518,211 518,205 518,206 518,216 518,215 519,220 519,203 519,203 519,214 519,201 520,193 520,206 520,179 520,178 520,202 520,211 521,198 521,179 521,173 521,185 521,199 521,228 522,222 522,230 522,226 522,236 522,226 523,199 523,175 523,164 523,165 523,181 523,184 524,188 524,197 524,196 524,215 524,201 525,197 525,181 525,180 525,193 525,203 525,221 526,229 526,233 526,225 526,224 526,227 526,221 527,222 527,221 527,193 527,196 527,204 528,215 528,206 528,189 528,196 528,217 528,223 529,218 529,233 529,233 529,231 529,253 530,252 530,256 530,296 530,309 530,327 530,325 531,321 531,304 531,300 531,296 531,294 531,299 532,297 532,295 532,314 532,298 532,278 533,268 533,294 533,302 533,309 533,323 533,307 534,314 534,286 534,274 534,282 534,280 535,300 535,304 535,285 535,285 535,303 535,290 536,291 536,285 536,289 536,289 536,298 536,305 537,312 537,344 537,341 537,354 537,335 538,318 538,316 538,325 538,355 538,344 538,330 539,332 539,335 539,365 539,363 539,370 540,369 540,377 540,383 540,397 540,393 540,390 541,389 541,382 541,370 541,356 541,348 542,347 542,345 542,355 542,353 542,349 542,335 543,333 543,339 543,344 543,335 543,335 543,356 544,340 544,320 544,320 544,342 544,352 545,345 545,350 545,342 545,339 545,365 545,353 546,362 546,357 546,357 546,356 546,345 547,352 547,358 547,349 547,339 547,337 547,321 548,321 548,346 548,369 548,363 548,368 548,358 549,350 549,368 549,377 549,380 549,365 550,364 550,368 550,346 550,321 550,321 550,332 551,327 551,321 551,323 551,328 551,324 552,333 552,343 552,340 552,341 552,347 552,360 553,352 553,351 553,362 553,364 553,352 553,348 554,384 554,393 554,411 554,427 554,432 555,435 555,424 555,415 555,425 555,431 555,415 556,456 556,457 556,451 556,451 556,449 557,456 557,452 557,448 557,425 557,408 557,398 558,396 558,385 558,399 558,384 558,389 559,403 559,403 559,415 559,410 559,402 559,401 560,406 560,406 560,397 560,397 560,416 560,428 561,432 561,422 561,398 561,409 561,422 562,414 562,416 562,415 562,405 562,431 562,431 563,432 563,414 563,397 563,398 563,401 564,382 564,368 564,363 564,380 564,386 564,371 565,367 565,378 565,392 565,405 565,409 565,407 566,421 566,415 566,424 566,406 566,413 567,420 567,408 567,420 567,417 567,395 567,393 568,395 568,396 568,419 568,428 568,433 569,425 569,419 569,413 569,406 569,430 569,437 570,439 570,443 570,446 570,424 570,421 570,426 571,415 571,427 571,426 571,420 571,426 572,402 572,405 572,404 572,403 572,392 572,379 573,386 573,391 573,396 573,396 573,397 574,399 574,414 574,406 574,406 574,411 574,420 575,419 575,410 575,421 575,404 575,380 576,359 576,354 576,345 576,346 576,341 576,350 577,346 577,334 577,333 577,345 577,354 577,359 578,367 578,368 578,367 578,376 578,364 579,362 579,374 579,369 579,365 579,341 579,326 580,318 580,318 580,318 580,316 580,311 581,307 581,304 581,282 581,287 581,282 581,264 582,269 582,279 582,291 582,314 582,318 582,322 583,317 583,297 583,306 583,308 583,306 584,312 584,315 584,310 584,295 584,289 584,291 585,308 585,297 585,280 585,290 585,287 586,298 586,303 586,310 586,323 586,332 586,318 587,315 587,316 587,326 587,334 587,298 587,287 588,292 588,308 588,304 588,317 588,320 589,337 589,328 589,340 589,339 589,346 589,340 590,346 590,338 590,311 590,289 590,289 591,269 591,255 591,252 591,271 591,280 591,274 592,259 592,250 592,245 592,242 592,251 592,273 593,267 593,287 593,297 593,296 593,302 594,311 594,307 594,309 594,305 594,319 594,324 595,343 595,344 595,335 595,331 595,322 596,315 596,314 596,312 596,331 596,314 596,310 597,336 597,351 597,358 597,344 597,332 598,327 598,336 598,344 598,346 598,339 598,331 599,310 599,307 599,282 599,274 599,282 599,300 600,308 600,305 600,299 600,298 600,299 601,301 601,300 601,294 601,317 601,317 601,322 602,323 602,356 602,357 602,341 602,342 603,349 603,357 603,353 603,350 603,337 603,333 604,329 604,326 604,333 604,341 604,337 604,336 605,319 605,312 605,312 605,325 605,323 606,327 606,324 606,315 606,315 606,302 606,309 607,299 607,304 607,303 607,305 607,301 608,311 608,302 608,295 608,282 608,276 608,277 609,258 609,254 609,240 609,244 609,231 609,241 610,246 610,251 610,283 610,307 610,306 611,301 611,292 611,282 611,295 611,288 611,289 612,306 612,322 612,324 612,330 612,334 613,341 613,355 613,369 613,382 613,401 613,429 614,476 614,527 614,569 614,608 614,645 614,699 973,699 "/>
<line opacity="0.1" stroke="#000000" stroke-width="1" x1="83" y1="699" x2="83" y2="68"/>
<line opacity="0.1" stroke="#000000" stroke-width="1" x1="92" y1="699" x2="92" y2="68"/>
<line opacity="0.1" stroke="#000000" stroke-width="1" x1="101" y1="699" x2="101" y2="68"/>
<line opacity="0.1" stroke="#000000" stroke-width="1" x1="110" y1="699" x2="110" y2="68"/>
<line opacity="0.1" stroke="#000000" stroke-width="1" x1="119" y1="699" x2="119" y2="68"/>
<line opacity="0.1" stroke="#000000" stroke-width="1" x1="128" y1="699" x2="128" y2="68"/>
<line opacity="0.1" stroke="#000000" stroke-width="1" x1="137" y1="699" x2="137" y2="68"/>
<line opacity="0.1" stroke="#000000" stroke-width="1" x1="146" y1="699" x2="146" y2="68"/>
<line opacity="0.1" stroke="#000000" stroke-width="1" x1="154" y1="699" x2="154" y2="68"/>
<line opacity="0.1" stroke="#000000" stroke-width="1" x1="163" y1="699" x2="163" y2="68"/>
<line opacity="0.1" stroke="#000000" stroke-width="1" x1="172" y1="699" x2="172" y2="68"/>
<line opacity="0.1" stroke="#000000" stroke-width="1" x1="181" y1="699" x2="181" y2="68"/>
<line opacity="0.1" stroke="#000000" stroke-width="1" x1="190" y1="699" x2="190" y2="68"/>
<line opacity="0.1" stroke="#000000" stroke-width="1" x1="199" y1="699" x2="199" y2="68"/>
<line opacity="0.1" stroke="#000000" stroke-width="1" x1="208" y1="699" x2="208" y2="68"/>
<line opacity="0.1" stroke="#000000" stroke-width="1" x1="217" y1="699" x2="217" y2="68"/>
<line opacity="0.1" stroke="#000000" stroke-width="1" x1="226" y1="699" x2="226" y2="68"/>
<line opacity="0.1" stroke="#000000" stroke-width="1" x1="234" y1="699" x2="234" y2="68"/>
<line opacity="0.1" stroke="#000000" stroke-width="1" x1="243" y1="699" x2="243" y2="68"/>
<line opacity="0.1" stroke="#000000" stroke-width="1" x1="252" y1="699" x2="252" y2="68"/>
<line opacity="0.1" stroke="#000000" stroke-width="1" x1="261" y1="699" x2="261" y2="68"/>
<line opacity="0.1" stroke="#000000" stroke-width="1" x1="270" y1="699" x2="270" y2="68"/>
<line opacity="0.1" stroke="#000000" stroke-width="1" x1="279" y1="699" x2="279" y2="68"/>
<line opacity="0.1" stroke="#000000" stroke-width="1" x1="288" y1="699" x2="288" y2="68"/>
<line opacity="0.1" stroke="#000000" stroke-width="1" x1="297" y1="699" x2="297" y2="68"/>
<line opacity="0.1" stroke="#000000" stroke-width="1" x1="306" y1="699" x2="306" y2="68"/>
<line opacity="0.1" stroke="#000000" stroke-width="1" x1="315" y1="699" x2="315" y2="68"/>
<line opacity="0.1" stroke="#000000" stroke-width="1" x1="323" y1="699" x2="323" y2="68"/>
<line opacity="0.1" stroke="#000000" stroke-width="1" x1="332" y1="699" x2="332" y2="68"/>
<line opacity="0.1" stroke="#000000" stroke-width="1" x1="341" y1="699" x2="341" y2="68"/>
<line opacity="0.1" stroke="#000000" stroke-width="1" x1="350" y1="699" x2="350" y2="68"/>
<line opacity="0.1" stroke="#000000" stroke-width="1" x1="359" y1="699" x2="359" y2="68"/>
<line opacity="0.1" stroke="#000000" stroke-width="1" x1="368" y1="699" x2="368" y2="68"/>
<line opacity="0.1" stroke="#000000" stroke-width="1" x1="377" y1="699" x2="377" y2="68"/>
<line opacity="0.1" stroke="#000000" stroke-width="1" x1="386" y1="699" x2="386" y2="68"/>
<line opacity="0.1" stroke="#000000" stroke-width="1" x1="395" y1="699" x2="395" y2="68"/>
<line opacity="0.1" stroke="#000000" stroke-width="1" x1="403" y1="699" x2="403" y2="68"/>
<line opacity="0.1" stroke="#000000" stroke-width="1" x1="412" y1="699" x2="412" y2="68"/>
<line opacity="0.1" stroke="#000000" stroke-width="1" x1="421" y1="699" x2="421" y2="68"/>
<line opacity="0.1" stroke="#000000" stroke-width="1" x1="430" y1="699" x2="430" y2="68"/>
<line opacity="0.1" stroke="#000000" stroke-width="1" x1="439" y1="699" x2="439" y2="68"/>
<line opacity="0.1" stroke="#000000" stroke-width="1" x1="448" y1="699" x2="448" y2="68"/>
<line opacity="0.1" stroke="#000000" stroke-width="1" x1="457" y1="699" x2="457" y2="68"/>
<line opacity="0.1" stroke="#000000" stroke-width="1" x1="466" y1="699" x2="466" y2="68"/>
<line opacity="0.1" stroke="#000000" stroke-width="1" x1="475" y1="699" x2="475" y2="68"/>
<line opacity="0.1" stroke="#000000" stroke-width="1" x1="483" y1="699" x2="483" y2="68"/>
<line opacity="0.1" stroke="#000000" stroke-width="1" x1="492" y1="699" x2="492" y2="68"/>
<line opacity="0.1" stroke="#000000" stroke-width="1" x1="501" y1="699" x2="501" y2="68"/>
<line opacity="0.1" stroke="#000000" stroke-width="1" x1="510" y1="699" x2="510" y2="68"/>
<line opacity="0.1" stroke="#000000" stroke-width="1" x1="519" y1="699" x2="519" y2="68"/>
<line opacity="0.1" stroke="#000000" stroke-width="1" x1="528" y1="699" x2="528" y2="68"/>
<line opacity="0.1" stroke="#000000" stroke-width="1" x1="537" y1="699" x2="537" y2="68"/>
<line opacity="0.1" stroke="#000000" stroke-width="1" x1="546" y1="699" x2="546" y2="68"/>
<line opacity="0.1" stroke="#000000" stroke-width="1" x1="555" y1="699" x2="555" y2="68"/>
<line opacity="0.1" stroke="#000000" stroke-width="1" x1="563" y1="699" x2="563" y2="68"/>
<line opacity="0.1" stroke="#000000" stroke-width="1" x1="572" y1="699" x2="572" y2="68"/>
<line opacity="0.1" stroke="#000000" stroke-width="1" x1="581" y1="699" x2="581" y2="68"/>
<line opacity="0.1" stroke="#000000" stroke-width="1" x1="590" y1="699" x2="590" y2="68"/>
<line opacity="0.1" stroke="#000000" stroke-width="1" x1="599" y1="699" x2="599" y2="68"/>
<line opacity="0.1" stroke="#000000" stroke-width="1" x1="608" y1="699" x2="608" y2="68"/>
<line opacity="0.1" stroke="#000000" stroke-width="1" x1="617" y1="699" x2="617" y2="68"/>
<line opacity="0.1" stroke="#000000" stroke-width="1" x1="626" y1="699" x2="626" y2="68"/>
<line opacity="0.1" stroke="#000000" stroke-width="1" x1="635" y1="699" x2="635" y2="68"/>
<line opacity="0.1" stroke="#000000" stroke-width="1" x1="644" y1="699" x2="644" y2="68"/>
<line opacity="0.1" stroke="#000000" stroke-width="1" x1="652" y1="699" x2="652" y2="68"/>
<line opacity="0.1" stroke="#000000" stroke-width="1" x1="661" y1="699" x2="661" y2="68"/>
<line opacity="0.1" stroke="#000000" stroke-width="1" x1="670" y1="699" x2="670" y2="68"/>
<line opacity="0.1" stroke="#000000" stroke-width="1" x1="679" y1="699" x2="679" y2="68"/>
<line opacity="0.1" stroke="#000000" stroke-width="1" x1="688" y1="699" x2="688" y2="68"/>
<line opacity="0.1" stroke="#000000" stroke-width="1" x1="697" y1="699" x2="697" y2="68"/>
<line opacity="0.1" stroke="#000000" stroke-width="1" x1="706" y1="699" x2="706" y2="68"/>
<line opacity="0.1" stroke="#000000" stroke-width="1" x1="715" y1="699" x2="715" y2="68"/>
<line opacity="0.1" stroke="#000000" stroke-width="1" x1="724" y1="699" x2="724" y2="68"/>
<line opacity="0.1" stroke="#000000" stroke-width="1" x1="732" y1="699" x2="732" y2="68"/>
<line opacity="0.1" stroke="#000000" stroke-width="1" x1="741" y1="699" x2="741" y2="68"/>
<line opacity="0.1" stroke="#000000" stroke-width="1" x1="750" y1="699" x2="750" y2="68"/>
<line opacity="0.1" stroke="#000000" stroke-width="1" x1="759" y1="699" x2="759" y2="68"/>
<line opacity="0.1" stroke="#000000" stroke-width="1" x1="768" y1="699" x2="768" y2="68"/>
<line opacity="0.1" stroke="#000000" stroke-width="1" x1="777" y1="699" x2="777" y2="68"/>
<line opacity="0.1" stroke="#000000" stroke-width="1" x1="786" y1="699" x2="786" y2="68"/>
<line opacity="0.1" stroke="#000000" stroke-width="1" x1="795" y1="699" x2="795" y2="68"/>
<line opacity="0.1" stroke="#000000" stroke-width="1" x1="804" y1="699" x2="804" y2="68"/>
<line opacity="0.1" stroke="#000000" stroke-width="1" x1="812" y1="699" x2="812" y2="68"/>
<line opacity="0.1" stroke="#000000" stroke-width="1" x1="821" y1="699" x2="821" y2="68"/>
<line opacity="0.1" stroke="#000000" stroke-width="1" x1="830" y1="699" x2="830" y2="68"/>
<line opacity="0.1" stroke="#000000" stroke-width="1" x1="839" y1="699" x2="839" y2="68"/>
<line opacity="0.1" stroke="#000000" stroke-width="1" x1="848" y1="699" x2="848" y2="68"/>
<line opacity="0.1" stroke="#000000" stroke-width="1" x1="857" y1="699" x2="857" y2="68"/>
<line opacity="0.1" stroke="#000000" stroke-width="1" x1="866" y1="699" x2="866" y2="68"/>
<line opacity="0.1" stroke="#000000" stroke-width="1" x1="875" y1="699" x2="875" y2="68"/>
<line opacity="0.1" stroke="#000000" stroke-width="1" x1="884" y1="699" x2="884" y2="68"/>
<line opacity="0.1" stroke="#000000" stroke-width="1" x1="892" y1="699" x2="892" y2="68"/>
<line opacity="0.1" stroke="#000000" stroke-width="1" x1="901" y1="699" x2="901" y2="68"/>
<line opacity="0.1" stroke="#000000" stroke-width="1" x1="910" y1="699" x2="910" y2="68"/>
<line opacity="0.1" stroke="#000000" stroke-width="1" x1="919" y1="699" x2="919" y2="68"/>
<line opacity="0.1" stroke="#000000" stroke-width="1" x1="928" y1="699" x2="928" y2="68"/>
<line opacity="0.1" stroke="#000000" stroke-width="1" x1="937" y1="699" x2="937" y2="68"/>
<line opacity="0.1" stroke="#000000" stroke-width="1" x1="946" y1="699" x2="946" y2="68"/>
<line opacity="0.1" stroke="#000000" stroke-width="1" x1="955" y1="699" x2="955" y2="68"/>
<line opacity="0.1" stroke="#000000" stroke-width="1" x1="964" y1="699" x2="964" y2="68"/>
<line opacity="0.1" stroke="#000000" stroke-width="1" x1="78" y1="699" x2="973" y2="699"/>
<line opacity="0.1" stroke="#000000" stroke-width="1" x1="78" y1="686" x2="973" y2="686"/>
<line opacity="0.1" stroke="#000000" stroke-width="1" x1="78" y1="674" x2="973" y2="674"/>
<line opacity="0.1" stroke="#000000" stroke-width="1" x1="78" y1="662" x2="973" y2="662"/>
<line opacity="0.1" stroke="#000000" stroke-width="1" x1="78" y1="650" x2="973" y2="650"/>
<line opacity="0.1" stroke="#000000" stroke-width="1" x1="78" y1="638" x2="973" y2="638"/>
<line opacity="0.1" stroke="#000000" stroke-width="1" x1="78" y1="626" x2="973" y2="626"/>
<line opacity="0.1" stroke="#000000" stroke-width="1" x1="78" y1="614" x2="973" y2="614"/>
<line opacity="0.1" stroke="#000000" stroke-width="1" x1="78" y1="602" x2="973" y2="602"/>
<line opacity="0.1" stroke="#000000" stroke-width="1" x1="78" y1="589" x2="973" y2="589"/>
<line opacity="0.1" stroke="#000000" stroke-width="1" x1="78" y1="577" x2="973" y2="577"/>
<line opacity="0.1" stroke="#000000" stroke-width="1" x1="78" y1="565" x2="973" y2="565"/>
<line opacity="0.1" stroke="#000000" stroke-width="1" x1="78" y1="553" x2="973" y2="553"/>
<line opacity="0.1" stroke="#000000" stroke-width="1" x1="78" y1="541" x2="973" y2="541"/>
<line opacity="0.1" stroke="#000000" stroke-width="1" x1="78" y1="529" x2="973" y2="529"/>
<line opacity="0.1" stroke="#000000" stroke-width="1" x1="78" y1="517" x2="973" y2="517"/>
<line opacity="0.1" stroke="#000000" stroke-width="1" x1="78" y1="505" x2="973" y2="505"/>
<line opacity="0.1" stroke="#000000" stroke-width="1" x1="78" y1="492" x2="973" y2="492"/>
<line opacity="0.1" stroke="#000000" stroke-width="1" x1="78" y1="480" x2="973" y2="480"/>
<line opacity="0.1" stroke="#000000" stroke-width="1" x1="78" y1="468" x2="973" y2="468"/>
<line opacity="0.1" stroke="#000000" stroke-width="1" x1="78" y1="456" x2="973" y2="456"/>
<line opacity="0.1" stroke="#000000" stroke-width="1" x1="78" y1="444" x2="973" y2="444"/>
<line opacity="0.1" stroke="#000000" stroke-width="1" x1="78" y1="432" x2="973" y2="432"/>
<line opacity="0.1" stroke="#000000" stroke-width="1" x1="78" y1="420" x2="973" y2="420"/>
<line opacity="0.1" stroke="#000000" stroke-width="1" x1="78" y1="408" x2="973" y2="408"/>
<line opacity="0.1" stroke="#000000" stroke-width="1" x1="78" y1="396" x2="973" y2="396"/>
<line opacity="0.1" stroke="#000000" stroke-width="1" x1="78" y1="383" x2="973" y2="383"/>
<line opacity="0.1" stroke="#000000" stroke-width="1" x1="78" y1="371" x2="973" y2="371"/>
<line opacity="0.1" stroke="#000000" stroke-width="1" x1="78" y1="359" x2="973" y2="359"/>
<line opacity="0.1" stroke="#000000" stroke-width="1" x1="78" y1="347" x2="973" y2="347"/>
<line opacity="0.1" stroke="#000000" stroke-width="1" x1="78" y1="335" x2="973" y2="335"/>
<line opacity="0.1" stroke="#000000" stroke-width="1" x1="78" y1="323" x2="973" y2="323"/>
<line opacity="0.1" stroke="#000000" stroke-width="1" x1="78" y1="311" x2="973" y2="311"/>
<line opacity="0.1" stroke="#000000" stroke-width="1" x1="78" y1="299" x2="973" y2="299"/>
<line opacity="0.1" stroke="#000000" stroke-width="1" x1="78" y1="286" x2="973" y2="286"/>
<line opacity="0.1" stroke="#000000" stroke-width="1" x1="78" y1="274" x2="973" y2="274"/>
<line opacity="0.1" stroke="#000000" stroke-width="1" x1="78" y1="262" x2="973" y2="262"/>
<line opacity="0.1" stroke="#000000" stroke-width="1" x1="78" y1="250" x2="973" y2="250"/>
<line opacity="0.1" stroke="#000000" stroke-width="1" x1="78" y1="238" x2="973" y2="238"/>
<line opacity="0.1" stroke="#000000" stroke-width="1" x1="78" y1="226" x2="973" y2="226"/>
<line opacity="0.1" stroke="#000000" stroke-width="1" x1="78" y1="214" x2="973" y2="214"/>
<line opacity="0.1" stroke="#000000" stroke-width="1" x1="78" y1="202" x2="973" y2="202"/>
<line opacity="0.1" stroke="#000000" stroke-width="1" x1="78" y1="190" x2="973" y2="190"/>
<line opacity="0.1" stroke="#000000" stroke-width="1" x1="78" y1="177" x2="973" y2="177"/>
<line opacity="0.1" stroke="#000000" stroke-width="1" x1="78" y1="165" x2="973" y2="165"/>
<line opacity="0.1" stroke="#000000" stroke-width="1" x1="78" y1="153" x2="973" y2="153"/>
<line opacity="0.1" stroke="#000000" stroke-width="1" x1="78" y1="141" x2="973" y2="141"/>
<line opacity="0.1" stroke="#000000" stroke-width="1" x1="78" y1="129" x2="973" y2="129"/>
<line opacity="0.1" stroke="#000000" stroke-width="1" x1="78" y1="117" x2="973" y2="117"/>
<line opacity="0.1" stroke="#000000" stroke-width="1" x1="78" y1="105" x2="973" y2="105"/>
<line opacity="0.1" stroke="#000000" stroke-width="1" x1="78" y1="93" x2="973" y2="93"/>
<line opacity="0.1" stroke="#000000" stroke-width="1" x1="78" y1="80" x2="973" y2="80"/>
<line opacity="0.1" stroke="#000000" stroke-width="1" x1="78" y1="68" x2="973" y2="68"/>
<text x="8" y="384" dy="0.76em" text-anchor="middle" font-family="sans-serif" font-size="9.67741935483871" opacity="1" fill="#000000" transform="rotate(270, 8, 384)">
Memory usage
</text>
<text x="526" y="760" dy="-0.5ex" text-anchor="middle" font-family="sans-serif" font-size="9.67741935483871" opacity="1" fill="#000000">
Time
</text>
<line opacity="0.2" stroke="#000000" stroke-width="1" x1="101" y1="699" x2="101" y2="68"/>
<line opacity="0.2" stroke="#000000" stroke-width="1" x1="190" y1="699" x2="190" y2="68"/>
<line opacity="0.2" stroke="#000000" stroke-width="1" x1="279" y1="699" x2="279" y2="68"/>
<line opacity="0.2" stroke="#000000" stroke-width="1" x1="368" y1="699" x2="368" y2="68"/>
<line opacity="0.2" stroke="#000000" stroke-width="1" x1="457" y1="699" x2="457" y2="68"/>
<line opacity="0.2" stroke="#000000" stroke-width="1" x1="546" y1="699" x2="546" y2="68"/>
<line opacity="0.2" stroke="#000000" stroke-width="1" x1="635" y1="699" x2="635" y2="68"/>
<line opacity="0.2" stroke="#000000" stroke-width="1" x1="724" y1="699" x2="724" y2="68"/>
<line opacity="0.2" stroke="#000000" stroke-width="1" x1="812" y1="699" x2="812" y2="68"/>
<line opacity="0.2" stroke="#000000" stroke-width="1" x1="901" y1="699" x2="901" y2="68"/>
<line opacity="0.2" stroke="#000000" stroke-width="1" x1="78" y1="699" x2="973" y2="699"/>
<line opacity="0.2" stroke="#000000" stroke-width="1" x1="78" y1="577" x2="973" y2="577"/>
<line opacity="0.2" stroke="#000000" stroke-width="1" x1="78" y1="456" x2="973" y2="456"/>
<line opacity="0.2" stroke="#000000" stroke-width="1" x1="78" y1="335" x2="973" y2="335"/>
<line opacity="0.2" stroke="#000000" stroke-width="1" x1="78" y1="214" x2="973" y2="214"/>
<line opacity="0.2" stroke="#000000" stroke-width="1" x1="78" y1="93" x2="973" y2="93"/>
<polyline fill="none" opacity="1" stroke="#000000" stroke-width="1" points="77,68 77,699 "/>
<text x="68" y="699" dy="0.5ex" text-anchor="end" font-family="sans-serif" font-size="9.67741935483871" opacity="1" fill="#000000">
0 KB
</text>
<polyline fill="none" opacity="1" stroke="#000000" stroke-width="1" points="72,699 77,699 "/>
<text x="68" y="577" dy="0.5ex" text-anchor="end" font-family="sans-serif" font-size="9.67741935483871" opacity="1" fill="#000000">
48 KB
</text>
<polyline fill="none" opacity="1" stroke="#000000" stroke-width="1" points="72,577 77,577 "/>
<text x="68" y="456" dy="0.5ex" text-anchor="end" font-family="sans-serif" font-size="9.67741935483871" opacity="1" fill="#000000">
97 KB
</text>
<polyline fill="none" opacity="1" stroke="#000000" stroke-width="1" points="72,456 77,456 "/>
<text x="68" y="335" dy="0.5ex" text-anchor="end" font-family="sans-serif" font-size="9.67741935483871" opacity="1" fill="#000000">
146 KB
</text>
<polyline fill="none" opacity="1" stroke="#000000" stroke-width="1" points="72,335 77,335 "/>
<text x="68" y="214" dy="0.5ex" text-anchor="end" font-family="sans-serif" font-size="9.67741935483871" opacity="1" fill="#000000">
195 KB
</text>
<polyline fill="none" opacity="1" stroke="#000000" stroke-width="1" points="72,214 77,214 "/>
<text x="68" y="93" dy="0.5ex" text-anchor="end" font-family="sans-serif" font-size="9.67741935483871" opacity="1" fill="#000000">
244 KB
</text>
<polyline fill="none" opacity="1" stroke="#000000" stroke-width="1" points="72,93 77,93 "/>
<polyline fill="none" opacity="1" stroke="#000000" stroke-width="1" points="78,700 973,700 "/>
<text x="101" y="710" dy="0.76em" text-anchor="middle" font-family="sans-serif" font-size="9.67741935483871" opacity="1" fill="#000000">
02:04:17
</text>
<polyline fill="none" opacity="1" stroke="#000000" stroke-width="1" points="101,700 101,705 "/>
<text x="190" y="710" dy="0.76em" text-anchor="middle" font-family="sans-serif" font-size="9.67741935483871" opacity="1" fill="#000000">
02:04:18
</text>
<polyline fill="none" opacity="1" stroke="#000000" stroke-width="1" points="190,700 190,705 "/>
<text x="279" y="710" dy="0.76em" text-anchor="middle" font-family="sans-serif" font-size="9.67741935483871" opacity="1" fill="#000000">
02:04:19
</text>
<polyline fill="none" opacity="1" stroke="#000000" stroke-width="1" points="279,700 279,705 "/>
<text x="368" y="710" dy="0.76em" text-anchor="middle" font-family="sans-serif" font-size="9.67741935483871" opacity="1" fill="#000000">
02:04:20
</text>
<polyline fill="none" opacity="1" stroke="#000000" stroke-width="1" points="368,700 368,705 "/>
<text x="457" y="710" dy="0.76em" text-anchor="middle" font-family="sans-serif" font-size="9.67741935483871" opacity="1" fill="#000000">
02:04:21
</text>
<polyline fill="none" opacity="1" stroke="#000000" stroke-width="1" points="457,700 457,705 "/>
<text x="546" y="710" dy="0.76em" text-anchor="middle" font-family="sans-serif" font-size="9.67741935483871" opacity="1" fill="#000000">
02:04:22
</text>
<polyline fill="none" opacity="1" stroke="#000000" stroke-width="1" points="546,700 546,705 "/>
<text x="635" y="710" dy="0.76em" text-anchor="middle" font-family="sans-serif" font-size="9.67741935483871" opacity="1" fill="#000000">
02:04:23
</text>
<polyline fill="none" opacity="1" stroke="#000000" stroke-width="1" points="635,700 635,705 "/>
<text x="724" y="710" dy="0.76em" text-anchor="middle" font-family="sans-serif" font-size="9.67741935483871" opacity="1" fill="#000000">
02:04:24
</text>
<polyline fill="none" opacity="1" stroke="#000000" stroke-width="1" points="724,700 724,705 "/>
<text x="812" y="710" dy="0.76em" text-anchor="middle" font-family="sans-serif" font-size="9.67741935483871" opacity="1" fill="#000000">
02:04:25
</text>
<polyline fill="none" opacity="1" stroke="#000000" stroke-width="1" points="812,700 812,705 "/>
<text x="901" y="710" dy="0.76em" text-anchor="middle" font-family="sans-serif" font-size="9.67741935483871" opacity="1" fill="#000000">
02:04:26
</text>
<polyline fill="none" opacity="1" stroke="#000000" stroke-width="1" points="901,700 901,705 "/>
<polyline fill="none" opacity="1" stroke="#000000" stroke-width="1" points="78,67 974,67 "/>
<text x="101" y="58" dy="-0.5ex" text-anchor="middle" font-family="sans-serif" font-size="9.67741935483871" opacity="1" fill="#000000">
+265ms
</text>
<polyline fill="none" opacity="1" stroke="#000000" stroke-width="1" points="101,62 101,67 "/>
<text x="190" y="58" dy="-0.5ex" text-anchor="middle" font-family="sans-serif" font-size="9.67741935483871" opacity="1" fill="#000000">
+1s
</text>
<polyline fill="none" opacity="1" stroke="#000000" stroke-width="1" points="190,62 190,67 "/>
<text x="279" y="58" dy="-0.5ex" text-anchor="middle" font-family="sans-serif" font-size="9.67741935483871" opacity="1" fill="#000000">
+2s
</text>
<polyline fill="none" opacity="1" stroke="#000000" stroke-width="1" points="279,62 279,67 "/>
<text x="368" y="58" dy="-0.5ex" text-anchor="middle" font-family="sans-serif" font-size="9.67741935483871" opacity="1" fill="#000000">
+3s
</text>
<polyline fill="none" opacity="1" stroke="#000000" stroke-width="1" points="368,62 368,67 "/>
<text x="457" y="58" dy="-0.5ex" text-anchor="middle" font-family="sans-serif" font-size="9.67741935483871" opacity="1" fill="#000000">
+4s
</text>
<polyline fill="none" opacity="1" stroke="#000000" stroke-width="1" points="457,62 457,67 "/>
<text x="546" y="58" dy="-0.5ex" text-anchor="middle" font-family="sans-serif" font-size="9.67741935483871" opacity="1" fill="#000000">
+5s
</text>
<polyline fill="none" opacity="1" stroke="#000000" stroke-width="1" points="546,62 546,67 "/>
<text x="635" y="58" dy="-0.5ex" text-anchor="middle" font-family="sans-serif" font-size="9.67741935483871" opacity="1" fill="#000000">
+6s
</text>
<polyline fill="none" opacity="1" stroke="#000000" stroke-width="1" points="635,62 635,67 "/>
<text x="724" y="58" dy="-0.5ex" text-anchor="middle" font-family="sans-serif" font-size="9.67741935483871" opacity="1" fill="#000000">
+7s
</text>
<polyline fill="none" opacity="1" stroke="#000000" stroke-width="1" points="724,62 724,67 "/>
<text x="813" y="58" dy="-0.5ex" text-anchor="middle" font-family="sans-serif" font-size="9.67741935483871" opacity="1" fill="#000000">
+8s
</text>
<polyline fill="none" opacity="1" stroke="#000000" stroke-width="1" points="813,62 813,67 "/>
<text x="902" y="58" dy="-0.5ex" text-anchor="middle" font-family="sans-serif" font-size="9.67741935483871" opacity="1" fill="#000000">
+9s
</text>
<polyline fill="none" opacity="1" stroke="#000000" stroke-width="1" points="902,62 902,67 "/>
</svg>
