<svg width="1024" height="768" viewBox="0 0 1024 768" xmlns="http://www.w3.org/2000/svg">
<rect x="0" y="0" width="1024" height="768" opacity="1" fill="#FFFFFF" stroke="none"/>
<polygon opacity="1" fill="#E6194B" points="83,698 83,698 84,698 85,698 86,698 87,698 88,698 89,698 90,698 91,698 91,698 92,698 93,698 94,697 95,697 96,697 97,697 98,697 99,697 99,697 100,697 101,697 102,696 103,696 104,696 105,696 106,696 107,696 107,696 108,696 109,696 110,696 111,696 112,696 113,696 114,696 115,696 115,696 116,696 117,696 118,695 119,695 120,695 121,695 122,695 123,695 123,695 124,695 125,695 126,695 127,695 128,695 129,695 130,695 131,694 131,694 132,694 133,694 134,694 135,694 136,694 137,694 138,694 139,693 139,693 140,693 141,693 142,693 143,693 144,693 145,693 146,693 147,693 147,693 148,693 149,693 150,693 151,693 152,693 153,692 154,692 155,692 155,692 156,692 157,692 158,692 159,692 160,692 161,692 162,692 163,691 163,691 164,691 165,691 166,691 167,691 168,691 169,691 170,691 171,691 171,691 172,691 173,691 174,691 175,691 176,691 177,691 178,691 179,691 179,691 180,691 181,691 182,690 183,690 184,690 185,690 186,690 187,690 187,690 188,690 189,690 190,690 191,690 192,690 193,690 194,689 195,689 195,689 196,689 197,689 198,689 199,689 200,689 201,688 202,688 203,688 203,688 204,688 205,688 206,688 207,688 208,688 209,688 210,688 211,688 211,688 212,688 213,688 214,688 215,688 216,687 217,687 218,687 219,687 219,687 220,687 221,687 222,686 223,686 224,686 225,686 226,686 227,686 227,686 228,686 229,686 230,686 231,686 232,686 233,686 234,686 235,686 235,686 236,686 237,686 238,686 239,685 240,685 241,685 242,685 243,685 243,685 244,685 245,685 246,685 247,685 248,685 249,685 250,684 251,684 251,684 252,684 253,684 254,684 255,684 256,684 257,684 258,684 259,684 259,684 260,684 261,684 262,684 263,683 264,683 265,683 266,683 267,683 267,683 268,683 269,683 270,683 271,683 272,683 273,683 274,683 275,683 275,682 276,682 277,682 278,682 279,682 280,682 281,682 282,682 283,682 283,682 284,682 285,682 286,682 287,682 288,682 289,682 290,681 291,681 291,681 292,681 293,681 294,681 295,681 296,681 297,680 298,680 299,680 300,680 300,680 301,680 302,680 303,680 304,680 305,680 306,680 307,680 308,680 308,680 309,680 310,680 311,679 312,679 313,679 314,679 315,679 316,679 316,679 317,679 318,679 319,679 320,679 321,679 322,679 323,679 324,679 324,678 325,678 326,678 327,678 328,678 329,678 330,678 331,678 332,678 332,678 333,678 334,678 335,678 336,678 337,678 338,678 339,678 340,678 340,677 341,677 342,677 343,677 344,677 345,677 346,677 347,677 348,677 348,677 349,677 350,676 351,676 352,657 353,657 354,657 355,657 356,657 356,657 357,657 358,657 359,657 360,657 361,657 362,656 363,656 364,656 364,656 365,656 366,656 367,656 368,656 369,656 370,656 371,656 372,656 372,656 373,656 374,655 375,655 376,655 377,655 378,655 379,655 380,655 380,655 381,655 382,655 383,655 384,655 385,655 386,655 387,655 388,654 388,654 389,654 390,654 391,654 392,654 393,654 394,654 395,654 396,654 396,654 397,654 398,654 399,654 400,654 401,654 402,653 403,653 404,653 404,653 405,653 406,653 407,653 408,653 409,653 410,652 411,652 412,652 412,652 413,652 414,652 415,652 416,652 417,652 418,651 419,651 420,651 420,651 421,651 422,651 423,651 424,651 425,651 426,651 427,646 428,646 428,646 429,646 430,645 431,645 432,645 433,645 434,645 435,645 436,645 436,645 437,645 438,645 439,645 440,645 441,644 442,644 443,644 444,644 444,644 445,644 446,644 447,644 448,643 449,643 450,643 451,643 452,643 452,643 453,642 454,642 455,642 456,642 457,642 458,641 459,641 460,641 460,641 461,641 462,641 463,640 464,640 465,640 466,640 467,640 468,640 468,640 469,640 470,640 471,640 472,639 473,639 474,639 475,639 476,639 476,638 477,638 478,638 479,638 480,638 481,638 482,638 483,638 484,637 484,637 485,637 486,637 487,637 488,637 489,637 490,637 491,637 492,637 492,636 493,636 494,636 495,636 496,636 497,636 498,636 499,636 500,636 500,636 501,635 502,635 503,635 504,635 505,635 506,635 507,635 508,634 508,634 509,634 510,634 511,634 512,634 513,634 514,634 515,634 516,633 516,633 517,633 518,633 519,633 520,633 521,633 522,633 523,633 524,632 524,632 525,632 526,632 527,632 528,632 529,632 530,632 531,632 532,632 532,632 533,632 534,632 535,632 536,632 537,632 538,632 539,631 540,631 540,631 541,631 542,631 543,631 544,631 545,630 546,630 547,630 548,630 548,630 549,630 550,630 551,630 552,630 553,630 554,630 555,630 556,630 557,630 557,630 558,629 559,629 560,629 561,629 562,629 563,629 564,629 565,629 565,629 566,629 567,629 568,629 569,629 570,629 571,628 572,628 573,628 573,628 574,628 575,628 576,628 577,628 578,628 579,628 580,628 581,628 581,628 582,628 583,628 584,628 585,627 586,627 587,627 588,627 589,627 589,627 590,627 591,627 592,627 593,627 594,626 595,626 596,626 597,626 597,626 598,626 599,626 600,626 601,626 602,626 603,626 604,625 605,625 605,625 606,625 607,625 608,625 609,625 610,625 611,624 612,624 613,624 613,624 614,624 615,624 616,624 617,624 618,624 619,624 620,624 621,624 621,624 622,624 623,624 624,623 625,623 626,585 627,584 628,584 629,584 629,584 630,584 631,584 632,584 633,584 634,584 635,584 636,584 637,584 637,584 638,584 639,583 640,583 641,583 642,583 643,583 644,583 645,583 645,583 646,583 647,583 648,583 649,583 650,583 651,583 652,583 653,583 653,583 654,583 655,582 656,582 657,582 658,582 659,582 660,582 661,582 661,582 662,582 663,581 664,581 665,581 666,581 667,581 668,581 669,581 669,581 670,581 671,581 672,581 673,581 674,581 675,581 676,580 677,580 677,580 678,580 679,580 680,580 681,580 682,580 683,580 684,580 685,580 685,580 686,579 687,579 688,579 689,579 690,579 691,579 692,579 693,579 693,579 694,578 695,578 696,578 697,578 698,578 699,578 700,578 701,578 701,578 702,578 703,578 704,578 705,577 706,577 707,577 708,577 709,577 709,577 710,577 711,577 712,577 713,577 714,577 715,577 716,577 717,577 717,577 718,577 719,577 720,576 721,576 722,576 723,576 724,576 725,576 725,576 726,576 727,576 728,575 729,575 730,575 731,575 732,575 733,575 733,575 734,575 735,575 736,575 737,575 738,575 739,574 740,574 741,574 741,574 742,574 743,574 744,574 745,574 746,574 747,574 748,574 749,574 749,574 750,573 751,573 752,573 753,573 754,573 755,573 756,573 757,573 757,573 758,572 759,572 760,572 761,572 762,572 763,572 764,572 765,572 765,572 766,572 767,571 768,571 769,571 770,571 771,571 772,571 773,571 773,571 774,571 775,570 776,570 777,570 778,570 779,570 780,570 781,570 781,570 782,570 783,570 784,570 785,569 786,569 787,569 788,569 789,569 789,569 790,569 791,569 792,569 793,569 794,568 795,568 796,568 797,568 797,568 798,568 799,568 800,568 801,568 802,568 803,568 804,568 805,568 805,568 806,568 807,568 808,567 809,567 810,567 811,567 812,567 813,567 814,567 814,567 815,566 816,566 817,566 818,566 819,566 820,566 821,566 822,566 822,566 823,566 824,566 825,566 826,566 827,565 828,565 829,565 830,565 830,565 831,565 832,565 833,565 834,565 835,565 836,565 837,565 838,565 838,564 839,564 840,564 841,564 842,564 843,564 844,564 845,564 846,564 846,564 847,564 848,564 849,564 850,563 851,563 852,563 853,563 854,563 854,563 855,563 856,563 857,562 858,562 859,562 860,562 861,562 862,562 862,562 863,562 864,562 865,562 866,562 867,562 868,562 869,561 870,561 870,561 871,561 872,561 873,560 874,560 875,560 876,560 877,560 878,560 878,560 879,560 880,560 881,560 882,560 883,559 884,559 885,559 886,559 886,559 887,559 888,559 889,559 890,558 891,558 892,558 893,558 894,558 894,558 895,558 896,558 897,558 898,558 899,558 900,558 901,558 902,557 902,557 903,557 904,557 905,557 906,557 907,557 908,557 909,557 910,556 910,556 911,556 912,556 913,556 914,556 915,556 916,556 917,556 918,556 918,555 919,555 920,555 921,555 922,555 923,555 924,555 925,555 926,555 926,555 927,555 928,555 929,555 930,555 931,554 932,535 933,535 934,535 934,534 935,534 936,534 937,533 938,533 939,532 940,530 941,526 942,525 942,524 943,519 944,516 945,511 946,501 947,492 948,474 949,450 950,434 950,408 951,355 952,291 953,197 954,113 955,109 956,122 957,132 958,125 958,105 959,91 960,85 961,69 962,72 963,74 964,69 965,68 966,68 966,81 967,81 968,98 969,107 970,93 971,80 972,83 972,699 973,699 973,699 83,699 "/>
<polyline fill="none" opacity="1" stroke="#E6194B" stroke-width="1" points="83,698 83,698 84,698 85,698 86,698 87,698 88,698 89,698 90,698 91,698 91,698 92,698 93,698 94,697 95,697 96,697 97,697 98,697 99,697 99,697 100,697 101,697 102,696 103,696 104,696 105,696 106,696 107,696 107,696 108,696 109,696 110,696 111,696 112,696 113,696 114,696 115,696 115,696 116,696 117,696 118,695 119,695 120,695 121,695 122,695 123,695 123,695 124,695 125,695 126,695 127,695 128,695 129,695 130,695 131,694 131,694 132,694 133,694 134,694 135,694 136,694 137,694 138,694 139,693 139,693 140,693 141,693 142,693 143,693 144,693 145,693 146,693 147,693 147,693 148,693 149,693 150,693 151,693 152,693 153,692 154,692 155,692 155,692 156,692 157,692 158,692 159,692 160,692 161,692 162,692 163,691 163,691 164,691 165,691 166,691 167,691 168,691 169,691 170,691 171,691 171,691 172,691 173,691 174,691 175,691 176,691 177,691 178,691 179,691 179,691 180,691 181,691 182,690 183,690 184,690 185,690 186,690 187,690 187,690 188,690 189,690 190,690 191,690 192,690 193,690 194,689 195,689 195,689 196,689 197,689 198,689 199,689 200,689 201,688 202,688 203,688 203,688 204,688 205,688 206,688 207,688 208,688 209,688 210,688 211,688 211,688 212,688 213,688 214,688 215,688 216,687 217,687 218,687 219,687 219,687 220,687 221,687 222,686 223,686 224,686 225,686 226,686 227,686 227,686 228,686 229,686 230,686 231,686 232,686 233,686 234,686 235,686 235,686 236,686 237,686 238,686 239,685 240,685 241,685 242,685 243,685 243,685 244,685 245,685 246,685 247,685 248,685 249,685 250,684 251,684 251,684 252,684 253,684 254,684 255,684 256,684 257,684 258,684 259,684 259,684 260,684 261,684 262,684 263,683 264,683 265,683 266,683 267,683 267,683 268,683 269,683 270,683 271,683 272,683 273,683 274,683 275,683 275,682 276,682 277,682 278,682 279,682 280,682 281,682 282,682 283,682 283,682 284,682 285,682 286,682 287,682 288,682 289,682 290,681 291,681 291,681 292,681 293,681 294,681 295,681 296,681 297,680 298,680 299,680 300,680 300,680 301,680 302,680 303,680 304,680 305,680 306,680 307,680 308,680 308,680 309,680 310,680 311,679 312,679 313,679 314,679 315,679 316,679 316,679 317,679 318,679 319,679 320,679 321,679 322,679 323,679 324,679 324,678 325,678 326,678 327,678 328,678 329,678 330,678 331,678 332,678 332,678 333,678 334,678 335,678 336,678 337,678 338,678 339,678 340,678 340,677 341,677 342,677 343,677 344,677 345,677 346,677 347,677 348,677 348,677 349,677 350,676 351,676 352,657 353,657 354,657 355,657 356,657 356,657 357,657 358,657 359,657 360,657 361,657 362,656 363,656 364,656 364,656 365,656 366,656 367,656 368,656 369,656 370,656 371,656 372,656 372,656 373,656 374,655 375,655 376,655 377,655 378,655 379,655 380,655 380,655 381,655 382,655 383,655 384,655 385,655 386,655 387,655 388,654 388,654 389,654 390,654 391,654 392,654 393,654 394,654 395,654 396,654 396,654 397,654 398,654 399,654 400,654 401,654 402,653 403,653 404,653 404,653 405,653 406,653 407,653 408,653 409,653 410,652 411,652 412,652 412,652 413,652 414,652 415,652 416,652 417,652 418,651 419,651 420,651 420,651 421,651 422,651 423,651 424,651 425,651 426,651 427,646 428,646 428,646 429,646 430,645 431,645 432,645 433,645 434,645 435,645 436,645 436,645 437,645 438,645 439,645 440,645 441,644 442,644 443,644 444,644 444,644 445,644 446,644 447,644 448,643 449,643 450,643 451,643 452,643 452,643 453,642 454,642 455,642 456,642 457,642 458,641 459,641 460,641 460,641 461,641 462,641 463,640 464,640 465,640 466,640 467,640 468,640 468,640 469,640 470,640 471,640 472,639 473,639 474,639 475,639 476,639 476,638 477,638 478,638 479,638 480,638 481,638 482,638 483,638 484,637 484,637 485,637 486,637 487,637 488,637 489,637 490,637 491,637 492,637 492,636 493,636 494,636 495,636 496,636 497,636 498,636 499,636 500,636 500,636 501,635 502,635 503,635 504,635 505,635 506,635 507,635 508,634 508,634 509,634 510,634 511,634 512,634 513,634 514,634 515,634 516,633 516,633 517,633 518,633 519,633 520,633 521,633 522,633 523,633 524,632 524,632 525,632 526,632 527,632 528,632 529,632 530,632 531,632 532,632 532,632 533,632 534,632 535,632 536,632 537,632 538,632 539,631 540,631 540,631 541,631 542,631 543,631 544,631 545,630 546,630 547,630 548,630 548,630 549,630 550,630 551,630 552,630 553,630 554,630 555,630 556,630 557,630 557,630 558,629 559,629 560,629 561,629 562,629 563,629 564,629 565,629 565,629 566,629 567,629 568,629 569,629 570,629 571,628 572,628 573,628 573,628 574,628 575,628 576,628 577,628 578,628 579,628 580,628 581,628 581,628 582,628 583,628 584,628 585,627 586,627 587,627 588,627 589,627 589,627 590,627 591,627 592,627 593,627 594,626 595,626 596,626 597,626 597,626 598,626 599,626 600,626 601,626 602,626 603,626 604,625 605,625 605,625 606,625 607,625 608,625 609,625 610,625 611,624 612,624 613,624 613,624 614,624 615,624 616,624 617,624 618,624 619,624 620,624 621,624 621,624 622,624 623,624 624,623 625,623 626,585 627,584 628,584 629,584 629,584 630,584 631,584 632,584 633,584 634,584 635,584 636,584 637,584 637,584 638,584 639,583 640,583 641,583 642,583 643,583 644,583 645,583 645,583 646,583 647,583 648,583 649,583 650,583 651,583 652,583 653,583 653,583 654,583 655,582 656,582 657,582 658,582 659,582 660,582 661,582 661,582 662,582 663,581 664,581 665,581 666,581 667,581 668,581 669,581 669,581 670,581 671,581 672,581 673,581 674,581 675,581 676,580 677,580 677,580 678,580 679,580 680,580 681,580 682,580 683,580 684,580 685,580 685,580 686,579 687,579 688,579 689,579 690,579 691,579 692,579 693,579 693,579 694,578 695,578 696,578 697,578 698,578 699,578 700,578 701,578 701,578 702,578 703,578 704,578 705,577 706,577 707,577 708,577 709,577 709,577 710,577 711,577 712,577 713,577 714,577 715,577 716,577 717,577 717,577 718,577 719,577 720,576 721,576 722,576 723,576 724,576 725,576 725,576 726,576 727,576 728,575 729,575 730,575 731,575 732,575 733,575 733,575 734,575 735,575 736,575 737,575 738,575 739,574 740,574 741,574 741,574 742,574 743,574 744,574 745,574 746,574 747,574 748,574 749,574 749,574 750,573 751,573 752,573 753,573 754,573 755,573 756,573 757,573 757,573 758,572 759,572 760,572 761,572 762,572 763,572 764,572 765,572 765,572 766,572 767,571 768,571 769,571 770,571 771,571 772,571 773,571 773,571 774,571 775,570 776,570 777,570 778,570 779,570 780,570 781,570 781,570 782,570 783,570 784,570 785,569 786,569 787,569 788,569 789,569 789,569 790,569 791,569 792,569 793,569 794,568 795,568 796,568 797,568 797,568 798,568 799,568 800,568 801,568 802,568 803,568 804,568 805,568 805,568 806,568 807,568 808,567 809,567 810,567 811,567 812,567 813,567 814,567 814,567 815,566 816,566 817,566 818,566 819,566 820,566 821,566 822,566 822,566 823,566 824,566 825,566 826,566 827,565 828,565 829,565 830,565 830,565 831,565 832,565 833,565 834,565 835,565 836,565 837,565 838,565 838,564 839,564 840,564 841,564 842,564 843,564 844,564 845,564 846,564 846,564 847,564 848,564 849,564 850,563 851,563 852,563 853,563 854,563 854,563 855,563 856,563 857,562 858,562 859,562 860,562 861,562 862,562 862,562 863,562 864,562 865,562 866,562 867,562 868,562 869,561 870,561 870,561 871,561 872,561 873,560 874,560 875,560 876,560 877,560 878,560 878,560 879,560 880,560 881,560 882,560 883,559 884,559 885,559 886,559 886,559 887,559 888,559 889,559 890,558 891,558 892,558 893,558 894,558 894,558 895,558 896,558 897,558 898,558 899,558 900,558 901,558 902,557 902,557 903,557 904,557 905,557 906,557 907,557 908,557 909,557 910,556 910,556 911,556 912,556 913,556 914,556 915,556 916,556 917,556 918,556 918,555 919,555 920,555 921,555 922,555 923,555 924,555 925,555 926,555 926,555 927,555 928,555 929,555 930,555 931,554 932,535 933,535 934,535 934,534 935,534 936,534 937,533 938,533 939,532 940,530 941,526 942,525 942,524 943,519 944,516 945,511 946,501 947,492 948,474 949,450 950,434 950,408 951,355 952,291 953,197 954,113 955,109 956,122 957,132 958,125 958,105 959,91 960,85 961,69 962,72 963,74 964,69 965,68 966,68 966,81 967,81 968,98 969,107 970,93 971,80 972,83 972,699 973,699 "/>
<line opacity="0.1" stroke="#000000" stroke-width="1" x1="83" y1="699" x2="83" y2="68"/>
<line opacity="0.1" stroke="#000000" stroke-width="1" x1="92" y1="699" x2="92" y2="68"/>
<line opacity="0.1" stroke="#000000" stroke-width="1" x1="101" y1="699" x2="101" y2="68"/>
<line opacity="0.1" stroke="#000000" stroke-width="1" x1="110" y1="699" x2="110" y2="68"/>
<line opacity="0.1" stroke="#000000" stroke-width="1" x1="119" y1="699" x2="119" y2="68"/>
<line opacity="0.1" stroke="#000000" stroke-width="1" x1="128" y1="699" x2="128" y2="68"/>
<line opacity="0.1" stroke="#000000" stroke-width="1" x1="137" y1="699" x2="137" y2="68"/>
<line opacity="0.1" stroke="#000000" stroke-width="1" x1="146" y1="699" x2="146" y2="68"/>
<line opacity="0.1" stroke="#000000" stroke-width="1" x1="154" y1="699" x2="154" y2="68"/>
<line opacity="0.1" stroke="#000000" stroke-width="1" x1="163" y1="699" x2="163" y2="68"/>
<line opacity="0.1" stroke="#000000" stroke-width="1" x1="172" y1="699" x2="172" y2="68"/>
<line opacity="0.1" stroke="#000000" stroke-width="1" x1="181" y1="699" x2="181" y2="68"/>
<line opacity="0.1" stroke="#000000" stroke-width="1" x1="190" y1="699" x2="190" y2="68"/>
<line opacity="0.1" stroke="#000000" stroke-width="1" x1="199" y1="699" x2="199" y2="68"/>
<line opacity="0.1" stroke="#000000" stroke-width="1" x1="208" y1="699" x2="208" y2="68"/>
<line opacity="0.1" stroke="#000000" stroke-width="1" x1="217" y1="699" x2="217" y2="68"/>
<line opacity="0.1" stroke="#000000" stroke-width="1" x1="226" y1="699" x2="226" y2="68"/>
<line opacity="0.1" stroke="#000000" stroke-width="1" x1="234" y1="699" x2="234" y2="68"/>
<line opacity="0.1" stroke="#000000" stroke-width="1" x1="243" y1="699" x2="243" y2="68"/>
<line opacity="0.1" stroke="#000000" stroke-width="1" x1="252" y1="699" x2="252" y2="68"/>
<line opacity="0.1" stroke="#000000" stroke-width="1" x1="261" y1="699" x2="261" y2="68"/>
<line opacity="0.1" stroke="#000000" stroke-width="1" x1="270" y1="699" x2="270" y2="68"/>
<line opacity="0.1" stroke="#000000" stroke-width="1" x1="279" y1="699" x2="279" y2="68"/>
<line opacity="0.1" stroke="#000000" stroke-width="1" x1="288" y1="699" x2="288" y2="68"/>
<line opacity="0.1" stroke="#000000" stroke-width="1" x1="297" y1="699" x2="297" y2="68"/>
<line opacity="0.1" stroke="#000000" stroke-width="1" x1="306" y1="699" x2="306" y2="68"/>
<line opacity="0.1" stroke="#000000" stroke-width="1" x1="315" y1="699" x2="315" y2="68"/>
<line opacity="0.1" stroke="#000000" stroke-width="1" x1="323" y1="699" x2="323" y2="68"/>
<line opacity="0.1" stroke="#000000" stroke-width="1" x1="332" y1="699" x2="332" y2="68"/>
<line opacity="0.1" stroke="#000000" stroke-width="1" x1="341" y1="699" x2="341" y2="68"/>
<line opacity="0.1" stroke="#000000" stroke-width="1" x1="350" y1="699" x2="350" y2="68"/>
<line opacity="0.1" stroke="#000000" stroke-width="1" x1="359" y1="699" x2="359" y2="68"/>
<line opacity="0.1" stroke="#000000" stroke-width="1" x1="368" y1="699" x2="368" y2="68"/>
<line opacity="0.1" stroke="#000000" stroke-width="1" x1="377" y1="699" x2="377" y2="68"/>
<line opacity="0.1" stroke="#000000" stroke-width="1" x1="386" y1="699" x2="386" y2="68"/>
<line opacity="0.1" stroke="#000000" stroke-width="1" x1="395" y1="699" x2="395" y2="68"/>
<line opacity="0.1" stroke="#000000" stroke-width="1" x1="403" y1="699" x2="403" y2="68"/>
<line opacity="0.1" stroke="#000000" stroke-width="1" x1="412" y1="699" x2="412" y2="68"/>
<line opacity="0.1" stroke="#000000" stroke-width="1" x1="421" y1="699" x2="421" y2="68"/>
<line opacity="0.1" stroke="#000000" stroke-width="1" x1="430" y1="699" x2="430" y2="68"/>
<line opacity="0.1" stroke="#000000" stroke-width="1" x1="439" y1="699" x2="439" y2="68"/>
<line opacity="0.1" stroke="#000000" stroke-width="1" x1="448" y1="699" x2="448" y2="68"/>
<line opacity="0.1" stroke="#000000" stroke-width="1" x1="457" y1="699" x2="457" y2="68"/>
<line opacity="0.1" stroke="#000000" stroke-width="1" x1="466" y1="699" x2="466" y2="68"/>
<line opacity="0.1" stroke="#000000" stroke-width="1" x1="475" y1="699" x2="475" y2="68"/>
<line opacity="0.1" stroke="#000000" stroke-width="1" x1="483" y1="699" x2="483" y2="68"/>
<line opacity="0.1" stroke="#000000" stroke-width="1" x1="492" y1="699" x2="492" y2="68"/>
<line opacity="0.1" stroke="#000000" stroke-width="1" x1="501" y1="699" x2="501" y2="68"/>
<line opacity="0.1" stroke="#000000" stroke-width="1" x1="510" y1="699" x2="510" y2="68"/>
<line opacity="0.1" stroke="#000000" stroke-width="1" x1="519" y1="699" x2="519" y2="68"/>
<line opacity="0.1" stroke="#000000" stroke-width="1" x1="528" y1="699" x2="528" y2="68"/>
<line opacity="0.1" stroke="#000000" stroke-width="1" x1="537" y1="699" x2="537" y2="68"/>
<line opacity="0.1" stroke="#000000" stroke-width="1" x1="546" y1="699" x2="546" y2="68"/>
<line opacity="0.1" stroke="#000000" stroke-width="1" x1="555" y1="699" x2="555" y2="68"/>
<line opacity="0.1" stroke="#000000" stroke-width="1" x1="563" y1="699" x2="563" y2="68"/>
<line opacity="0.1" stroke="#000000" stroke-width="1" x1="572" y1="699" x2="572" y2="68"/>
<line opacity="0.1" stroke="#000000" stroke-width="1" x1="581" y1="699" x2="581" y2="68"/>
<line opacity="0.1" stroke="#000000" stroke-width="1" x1="590" y1="699" x2="590" y2="68"/>
<line opacity="0.1" stroke="#000000" stroke-width="1" x1="599" y1="699" x2="599" y2="68"/>
<line opacity="0.1" stroke="#000000" stroke-width="1" x1="608" y1="699" x2="608" y2="68"/>
<line opacity="0.1" stroke="#000000" stroke-width="1" x1="617" y1="699" x2="617" y2="68"/>
<line opacity="0.1" stroke="#000000" stroke-width="1" x1="626" y1="699" x2="626" y2="68"/>
<line opacity="0.1" stroke="#000000" stroke-width="1" x1="635" y1="699" x2="635" y2="68"/>
<line opacity="0.1" stroke="#000000" stroke-width="1" x1="644" y1="699" x2="644" y2="68"/>
<line opacity="0.1" stroke="#000000" stroke-width="1" x1="652" y1="699" x2="652" y2="68"/>
<line opacity="0.1" stroke="#000000" stroke-width="1" x1="661" y1="699" x2="661" y2="68"/>
<line opacity="0.1" stroke="#000000" stroke-width="1" x1="670" y1="699" x2="670" y2="68"/>
<line opacity="0.1" stroke="#000000" stroke-width="1" x1="679" y1="699" x2="679" y2="68"/>
<line opacity="0.1" stroke="#000000" stroke-width="1" x1="688" y1="699" x2="688" y2="68"/>
<line opacity="0.1" stroke="#000000" stroke-width="1" x1="697" y1="699" x2="697" y2="68"/>
<line opacity="0.1" stroke="#000000" stroke-width="1" x1="706" y1="699" x2="706" y2="68"/>
<line opacity="0.1" stroke="#000000" stroke-width="1" x1="715" y1="699" x2="715" y2="68"/>
<line opacity="0.1" stroke="#000000" stroke-width="1" x1="724" y1="699" x2="724" y2="68"/>
<line opacity="0.1" stroke="#000000" stroke-width="1" x1="732" y1="699" x2="732" y2="68"/>
<line opacity="0.1" stroke="#000000" stroke-width="1" x1="741" y1="699" x2="741" y2="68"/>
<line opacity="0.1" stroke="#000000" stroke-width="1" x1="750" y1="699" x2="750" y2="68"/>
<line opacity="0.1" stroke="#000000" stroke-width="1" x1="759" y1="699" x2="759" y2="68"/>
<line opacity="0.1" stroke="#000000" stroke-width="1" x1="768" y1="699" x2="768" y2="68"/>
<line opacity="0.1" stroke="#000000" stroke-width="1" x1="777" y1="699" x2="777" y2="68"/>
<line opacity="0.1" stroke="#000000" stroke-width="1" x1="786" y1="699" x2="786" y2="68"/>
<line opacity="0.1" stroke="#000000" stroke-width="1" x1="795" y1="699" x2="795" y2="68"/>
<line opacity="0.1" stroke="#000000" stroke-width="1" x1="804" y1="699" x2="804" y2="68"/>
<line opacity="0.1" stroke="#000000" stroke-width="1" x1="812" y1="699" x2="812" y2="68"/>
<line opacity="0.1" stroke="#000000" stroke-width="1" x1="821" y1="699" x2="821" y2="68"/>
<line opacity="0.1" stroke="#000000" stroke-width="1" x1="830" y1="699" x2="830" y2="68"/>
<line opacity="0.1" stroke="#000000" stroke-width="1" x1="839" y1="699" x2="839" y2="68"/>
<line opacity="0.1" stroke="#000000" stroke-width="1" x1="848" y1="699" x2="848" y2="68"/>
<line opacity="0.1" stroke="#000000" stroke-width="1" x1="857" y1="699" x2="857" y2="68"/>
<line opacity="0.1" stroke="#000000" stroke-width="1" x1="866" y1="699" x2="866" y2="68"/>
<line opacity="0.1" stroke="#000000" stroke-width="1" x1="875" y1="699" x2="875" y2="68"/>
<line opacity="0.1" stroke="#000000" stroke-width="1" x1="884" y1="699" x2="884" y2="68"/>
<line opacity="0.1" stroke="#000000" stroke-width="1" x1="892" y1="699" x2="892" y2="68"/>
<line opacity="0.1" stroke="#000000" stroke-width="1" x1="901" y1="699" x2="901" y2="68"/>
<line opacity="0.1" stroke="#000000" stroke-width="1" x1="910" y1="699" x2="910" y2="68"/>
<line opacity="0.1" stroke="#000000" stroke-width="1" x1="919" y1="699" x2="919" y2="68"/>
<line opacity="0.1" stroke="#000000" stroke-width="1" x1="928" y1="699" x2="928" y2="68"/>
<line opacity="0.1" stroke="#000000" stroke-width="1" x1="937" y1="699" x2="937" y2="68"/>
<line opacity="0.1" stroke="#000000" stroke-width="1" x1="946" y1="699" x2="946" y2="68"/>
<line opacity="0.1" stroke="#000000" stroke-width="1" x1="955" y1="699" x2="955" y2="68"/>
<line opacity="0.1" stroke="#000000" stroke-width="1" x1="964" y1="699" x2="964" y2="68"/>
<line opacity="0.1" stroke="#000000" stroke-width="1" x1="78" y1="699" x2="973" y2="699"/>
<line opacity="0.1" stroke="#000000" stroke-width="1" x1="78" y1="691" x2="973" y2="691"/>
<line opacity="0.1" stroke="#000000" stroke-width="1" x1="78" y1="683" x2="973" y2="683"/>
<line opacity="0.1" stroke="#000000" stroke-width="1" x1="78" y1="675" x2="973" y2="675"/>
<line opacity="0.1" stroke="#000000" stroke-width="1" x1="78" y1="667" x2="973" y2="667"/>
<line opacity="0.1" stroke="#000000" stroke-width="1" x1="78" y1="659" x2="973" y2="659"/>
<line opacity="0.1" stroke="#000000" stroke-width="1" x1="78" y1="651" x2="973" y2="651"/>
<line opacity="0.1" stroke="#000000" stroke-width="1" x1="78" y1="644" x2="973" y2="644"/>
<line opacity="0.1" stroke="#000000" stroke-width="1" x1="78" y1="636" x2="973" y2="636"/>
<line opacity="0.1" stroke="#000000" stroke-width="1" x1="78" y1="628" x2="973" y2="628"/>
<line opacity="0.1" stroke="#000000" stroke-width="1" x1="78" y1="620" x2="973" y2="620"/>
<line opacity="0.1" stroke="#000000" stroke-width="1" x1="78" y1="612" x2="973" y2="612"/>
<line opacity="0.1" stroke="#000000" stroke-width="1" x1="78" y1="604" x2="973" y2="604"/>
<line opacity="0.1" stroke="#000000" stroke-width="1" x1="78" y1="597" x2="973" y2="597"/>
<line opacity="0.1" stroke="#000000" stroke-width="1" x1="78" y1="589" x2="973" y2="589"/>
<line opacity="0.1" stroke="#000000" stroke-width="1" x1="78" y1="581" x2="973" y2="581"/>
<line opacity="0.1" stroke="#000000" stroke-width="1" x1="78" y1="573" x2="973" y2="573"/>
<line opacity="0.1" stroke="#000000" stroke-width="1" x1="78" y1="565" x2="973" y2="565"/>
<line opacity="0.1" stroke="#000000" stroke-width="1" x1="78" y1="557" x2="973" y2="557"/>
<line opacity="0.1" stroke="#000000" stroke-width="1" x1="78" y1="550" x2="973" y2="550"/>
<line opacity="0.1" stroke="#000000" stroke-width="1" x1="78" y1="542" x2="973" y2="542"/>
<line opacity="0.1" stroke="#000000" stroke-width="1" x1="78" y1="534" x2="973" y2="534"/>
<line opacity="0.1" stroke="#000000" stroke-width="1" x1="78" y1="526" x2="973" y2="526"/>
<line opacity="0.1" stroke="#000000" stroke-width="1" x1="78" y1="518" x2="973" y2="518"/>
<line opacity="0.1" stroke="#000000" stroke-width="1" x1="78" y1="510" x2="973" y2="510"/>
<line opacity="0.1" stroke="#000000" stroke-width="1" x1="78" y1="503" x2="973" y2="503"/>
<line opacity="0.1" stroke="#000000" stroke-width="1" x1="78" y1="495" x2="973" y2="495"/>
<line opacity="0.1" stroke="#000000" stroke-width="1" x1="78" y1="487" x2="973" y2="487"/>
<line opacity="0.1" stroke="#000000" stroke-width="1" x1="78" y1="479" x2="973" y2="479"/>
<line opacity="0.1" stroke="#000000" stroke-width="1" x1="78" y1="471" x2="973" y2="471"/>
<line opacity="0.1" stroke="#000000" stroke-width="1" x1="78" y1="463" x2="973" y2="463"/>
<line opacity="0.1" stroke="#000000" stroke-width="1" x1="78" y1="456" x2="973" y2="456"/>
<line opacity="0.1" stroke="#000000" stroke-width="1" x1="78" y1="448" x2="973" y2="448"/>
<line opacity="0.1" stroke="#000000" stroke-width="1" x1="78" y1="440" x2="973" y2="440"/>
<line opacity="0.1" stroke="#000000" stroke-width="1" x1="78" y1="432" x2="973" y2="432"/>
<line opacity="0.1" stroke="#000000" stroke-width="1" x1="78" y1="424" x2="973" y2="424"/>
<line opacity="0.1" stroke="#000000" stroke-width="1" x1="78" y1="416" x2="973" y2="416"/>
<line opacity="0.1" stroke="#000000" stroke-width="1" x1="78" y1="409" x2="973" y2="409"/>
<line opacity="0.1" stroke="#000000" stroke-width="1" x1="78" y1="401" x2="973" y2="401"/>
<line opacity="0.1" stroke="#000000" stroke-width="1" x1="78" y1="393" x2="973" y2="393"/>
<line opacity="0.1" stroke="#000000" stroke-width="1" x1="78" y1="385" x2="973" y2="385"/>
<line opacity="0.1" stroke="#000000" stroke-width="1" x1="78" y1="377" x2="973" y2="377"/>
<line opacity="0.1" stroke="#000000" stroke-width="1" x1="78" y1="369" x2="973" y2="369"/>
<line opacity="0.1" stroke="#000000" stroke-width="1" x1="78" y1="362" x2="973" y2="362"/>
<line opacity="0.1" stroke="#000000" stroke-width="1" x1="78" y1="354" x2="973" y2="354"/>
<line opacity="0.1" stroke="#000000" stroke-width="1" x1="78" y1="346" x2="973" y2="346"/>
<line opacity="0.1" stroke="#000000" stroke-width="1" x1="78" y1="338" x2="973" y2="338"/>
<line opacity="0.1" stroke="#000000" stroke-width="1" x1="78" y1="330" x2="973" y2="330"/>
<line opacity="0.1" stroke="#000000" stroke-width="1" x1="78" y1="322" x2="973" y2="322"/>
<line opacity="0.1" stroke="#000000" stroke-width="1" x1="78" y1="315" x2="973" y2="315"/>
<line opacity="0.1" stroke="#000000" stroke-width="1" x1="78" y1="307" x2="973" y2="307"/>
<line opacity="0.1" stroke="#000000" stroke-width="1" x1="78" y1="299" x2="973" y2="299"/>
<line opacity="0.1" stroke="#000000" stroke-width="1" x1="78" y1="291" x2="973" y2="291"/>
<line opacity="0.1" stroke="#000000" stroke-width="1" x1="78" y1="283" x2="973" y2="283"/>
<line opacity="0.1" stroke="#000000" stroke-width="1" x1="78" y1="275" x2="973" y2="275"/>
<line opacity="0.1" stroke="#000000" stroke-width="1" x1="78" y1="268" x2="973" y2="268"/>
<line opacity="0.1" stroke="#000000" stroke-width="1" x1="78" y1="260" x2="973" y2="260"/>
<line opacity="0.1" stroke="#000000" stroke-width="1" x1="78" y1="252" x2="973" y2="252"/>
<line opacity="0.1" stroke="#000000" stroke-width="1" x1="78" y1="244" x2="973" y2="244"/>
<line opacity="0.1" stroke="#000000" stroke-width="1" x1="78" y1="236" x2="973" y2="236"/>
<line opacity="0.1" stroke="#000000" stroke-width="1" x1="78" y1="228" x2="973" y2="228"/>
<line opacity="0.1" stroke="#000000" stroke-width="1" x1="78" y1="221" x2="973" y2="221"/>
<line opacity="0.1" stroke="#000000" stroke-width="1" x1="78" y1="213" x2="973" y2="213"/>
<line opacity="0.1" stroke="#000000" stroke-width="1" x1="78" y1="205" x2="973" y2="205"/>
<line opacity="0.1" stroke="#000000" stroke-width="1" x1="78" y1="197" x2="973" y2="197"/>
<line opacity="0.1" stroke="#000000" stroke-width="1" x1="78" y1="189" x2="973" y2="189"/>
<line opacity="0.1" stroke="#000000" stroke-width="1" x1="78" y1="181" x2="973" y2="181"/>
<line opacity="0.1" stroke="#000000" stroke-width="1" x1="78" y1="174" x2="973" y2="174"/>
<line opacity="0.1" stroke="#000000" stroke-width="1" x1="78" y1="166" x2="973" y2="166"/>
<line opacity="0.1" stroke="#000000" stroke-width="1" x1="78" y1="158" x2="973" y2="158"/>
<line opacity="0.1" stroke="#000000" stroke-width="1" x1="78" y1="150" x2="973" y2="150"/>
<line opacity="0.1" stroke="#000000" stroke-width="1" x1="78" y1="142" x2="973" y2="142"/>
<line opacity="0.1" stroke="#000000" stroke-width="1" x1="78" y1="134" x2="973" y2="134"/>
<line opacity="0.1" stroke="#000000" stroke-width="1" x1="78" y1="127" x2="973" y2="127"/>
<line opacity="0.1" stroke="#000000" stroke-width="1" x1="78" y1="119" x2="973" y2="119"/>
<line opacity="0.1" stroke="#000000" stroke-width="1" x1="78" y1="111" x2="973" y2="111"/>
<line opacity="0.1" stroke="#000000" stroke-width="1" x1="78" y1="103" x2="973" y2="103"/>
<line opacity="0.1" stroke="#000000" stroke-width="1" x1="78" y1="95" x2="973" y2="95"/>
<line opacity="0.1" stroke="#000000" stroke-width="1" x1="78" y1="87" x2="973" y2="87"/>
<line opacity="0.1" stroke="#000000" stroke-width="1" x1="78" y1="80" x2="973" y2="80"/>
<line opacity="0.1" stroke="#000000" stroke-width="1" x1="78" y1="72" x2="973" y2="72"/>
<text x="8" y="384" dy="0.76em" text-anchor="middle" font-family="sans-serif" font-size="9.67741935483871" opacity="1" fill="#000000" transform="rotate(270, 8, 384)">
Memory usage
</text>
<text x="526" y="760" dy="-0.5ex" text-anchor="middle" font-family="sans-serif" font-size="9.67741935483871" opacity="1" fill="#000000">
Time
</text>
<line opacity="0.2" stroke="#000000" stroke-width="1" x1="101" y1="699" x2="101" y2="68"/>
<line opacity="0.2" stroke="#000000" stroke-width="1" x1="190" y1="699" x2="190" y2="68"/>
<line opacity="0.2" stroke="#000000" stroke-width="1" x1="279" y1="699" x2="279" y2="68"/>
<line opacity="0.2" stroke="#000000" stroke-width="1" x1="368" y1="699" x2="368" y2="68"/>
<line opacity="0.2" stroke="#000000" stroke-width="1" x1="457" y1="699" x2="457" y2="68"/>
<line opacity="0.2" stroke="#000000" stroke-width="1" x1="546" y1="699" x2="546" y2="68"/>
<line opacity="0.2" stroke="#000000" stroke-width="1" x1="635" y1="699" x2="635" y2="68"/>
<line opacity="0.2" stroke="#000000" stroke-width="1" x1="724" y1="699" x2="724" y2="68"/>
<line opacity="0.2" stroke="#000000" stroke-width="1" x1="812" y1="699" x2="812" y2="68"/>
<line opacity="0.2" stroke="#000000" stroke-width="1" x1="901" y1="699" x2="901" y2="68"/>
<line opacity="0.2" stroke="#000000" stroke-width="1" x1="78" y1="699" x2="973" y2="699"/>
<line opacity="0.2" stroke="#000000" stroke-width="1" x1="78" y1="620" x2="973" y2="620"/>
<line opacity="0.2" stroke="#000000" stroke-width="1" x1="78" y1="542" x2="973" y2="542"/>
<line opacity="0.2" stroke="#000000" stroke-width="1" x1="78" y1="463" x2="973" y2="463"/>
<line opacity="0.2" stroke="#000000" stroke-width="1" x1="78" y1="385" x2="973" y2="385"/>
<line opacity="0.2" stroke="#000000" stroke-width="1" x1="78" y1="307" x2="973" y2="307"/>
<line opacity="0.2" stroke="#000000" stroke-width="1" x1="78" y1="228" x2="973" y2="228"/>
<line opacity="0.2" stroke="#000000" stroke-width="1" x1="78" y1="150" x2="973" y2="150"/>
<line opacity="0.2" stroke="#000000" stroke-width="1" x1="78" y1="72" x2="973" y2="72"/>
<polyline fill="none" opacity="1" stroke="#000000" stroke-width="1" points="77,68 77,699 "/>
<text x="68" y="699" dy="0.5ex" text-anchor="end" font-family="sans-serif" font-size="9.67741935483871" opacity="1" fill="#000000">
0 KB
</text>
<polyline fill="none" opacity="1" stroke="#000000" stroke-width="1" points="72,699 77,699 "/>
<text x="68" y="620" dy="0.5ex" text-anchor="end" font-family="sans-serif" font-size="9.67741935483871" opacity="1" fill="#000000">
97 KB
</text>
<polyline fill="none" opacity="1" stroke="#000000" stroke-width="1" points="72,620 77,620 "/>
<text x="68" y="542" dy="0.5ex" text-anchor="end" font-family="sans-serif" font-size="9.67741935483871" opacity="1" fill="#000000">
195 KB
</text>
<polyline fill="none" opacity="1" stroke="#000000" stroke-width="1" points="72,542 77,542 "/>
<text x="68" y="463" dy="0.5ex" text-anchor="end" font-family="sans-serif" font-size="9.67741935483871" opacity="1" fill="#000000">
292 KB
</text>
<polyline fill="none" opacity="1" stroke="#000000" stroke-width="1" points="72,463 77,463 "/>
<text x="68" y="385" dy="0.5ex" text-anchor="end" font-family="sans-serif" font-size="9.67741935483871" opacity="1" fill="#000000">
390 KB
</text>
<polyline fill="none" opacity="1" stroke="#000000" stroke-width="1" points="72,385 77,385 "/>
<text x="68" y="307" dy="0.5ex" text-anchor="end" font-family="sans-serif" font-size="9.67741935483871" opacity="1" fill="#000000">
488 KB
</text>
<polyline fill="none" opacity="1" stroke="#000000" stroke-width="1" points="72,307 77,307 "/>
<text x="68" y="228" dy="0.5ex" text-anchor="end" font-family="sans-serif" font-size="9.67741935483871" opacity="1" fill="#000000">
585 KB
</text>
<polyline fill="none" opacity="1" stroke="#000000" stroke-width="1" points="72,228 77,228 "/>
<text x="68" y="150" dy="0.5ex" text-anchor="end" font-family="sans-serif" font-size="9.67741935483871" opacity="1" fill="#000000">
683 KB
</text>
<polyline fill="none" opacity="1" stroke="#000000" stroke-width="1" points="72,150 77,150 "/>
<text x="68" y="72" dy="0.5ex" text-anchor="end" font-family="sans-serif" font-size="9.67741935483871" opacity="1" fill="#000000">
781 KB
</text>
<polyline fill="none" opacity="1" stroke="#000000" stroke-width="1" points="72,72 77,72 "/>
<polyline fill="none" opacity="1" stroke="#000000" stroke-width="1" points="78,700 973,700 "/>
<text x="101" y="710" dy="0.76em" text-anchor="middle" font-family="sans-serif" font-size="9.67741935483871" opacity="1" fill="#000000">
02:04:17
</text>
<polyline fill="none" opacity="1" stroke="#000000" stroke-width="1" points="101,700 101,705 "/>
<text x="190" y="710" dy="0.76em" text-anchor="middle" font-family="sans-serif" font-size="9.67741935483871" opacity="1" fill="#000000">
02:04:18
</text>
<polyline fill="none" opacity="1" stroke="#000000" stroke-width="1" points="190,700 190,705 "/>
<text x="279" y="710" dy="0.76em" text-anchor="middle" font-family="sans-serif" font-size="9.67741935483871" opacity="1" fill="#000000">
02:04:19
</text>
<polyline fill="none" opacity="1" stroke="#000000" stroke-width="1" points="279,700 279,705 "/>
<text x="368" y="710" dy="0.76em" text-anchor="middle" font-family="sans-serif" font-size="9.67741935483871" opacity="1" fill="#000000">
02:04:20
</text>
<polyline fill="none" opacity="1" stroke="#000000" stroke-width="1" points="368,700 368,705 "/>
<text x="457" y="710" dy="0.76em" text-anchor="middle" font-family="sans-serif" font-size="9.67741935483871" opacity="1" fill="#000000">
02:04:21
</text>
<polyline fill="none" opacity="1" stroke="#000000" stroke-width="1" points="457,700 457,705 "/>
<text x="546" y="710" dy="0.76em" text-anchor="middle" font-family="sans-serif" font-size="9.67741935483871" opacity="1" fill="#000000">
02:04:22
</text>
<polyline fill="none" opacity="1" stroke="#000000" stroke-width="1" points="546,700 546,705 "/>
<text x="635" y="710" dy="0.76em" text-anchor="middle" font-family="sans-serif" font-size="9.67741935483871" opacity="1" fill="#000000">
02:04:23
</text>
<polyline fill="none" opacity="1" stroke="#000000" stroke-width="1" points="635,700 635,705 "/>
<text x="724" y="710" dy="0.76em" text-anchor="middle" font-family="sans-serif" font-size="9.67741935483871" opacity="1" fill="#000000">
02:04:24
</text>
<polyline fill="none" opacity="1" stroke="#000000" stroke-width="1" points="724,700 724,705 "/>
<text x="812" y="710" dy="0.76em" text-anchor="middle" font-family="sans-serif" font-size="9.67741935483871" opacity="1" fill="#000000">
02:04:25
</text>
<polyline fill="none" opacity="1" stroke="#000000" stroke-width="1" points="812,700 812,705 "/>
<text x="901" y="710" dy="0.76em" text-anchor="middle" font-family="sans-serif" font-size="9.67741935483871" opacity="1" fill="#000000">
02:04:26
</text>
<polyline fill="none" opacity="1" stroke="#000000" stroke-width="1" points="901,700 901,705 "/>
<polyline fill="none" opacity="1" stroke="#000000" stroke-width="1" points="78,67 974,67 "/>
<text x="101" y="58" dy="-0.5ex" text-anchor="middle" font-family="sans-serif" font-size="9.67741935483871" opacity="1" fill="#000000">
+265ms
</text>
<polyline fill="none" opacity="1" stroke="#000000" stroke-width="1" points="101,62 101,67 "/>
<text x="190" y="58" dy="-0.5ex" text-anchor="middle" font-family="sans-serif" font-size="9.67741935483871" opacity="1" fill="#000000">
+1s
</text>
<polyline fill="none" opacity="1" stroke="#000000" stroke-width="1" points="190,62 190,67 "/>
<text x="279" y="58" dy="-0.5ex" text-anchor="middle" font-family="sans-serif" font-size="9.67741935483871" opacity="1" fill="#000000">
+2s
</text>
<polyline fill="none" opacity="1" stroke="#000000" stroke-width="1" points="279,62 279,67 "/>
<text x="368" y="58" dy="-0.5ex" text-anchor="middle" font-family="sans-serif" font-size="9.67741935483871" opacity="1" fill="#000000">
+3s
</text>
<polyline fill="none" opacity="1" stroke="#000000" stroke-width="1" points="368,62 368,67 "/>
<text x="457" y="58" dy="-0.5ex" text-anchor="middle" font-family="sans-serif" font-size="9.67741935483871" opacity="1" fill="#000000">
+4s
</text>
<polyline fill="none" opacity="1" stroke="#000000" stroke-width="1" points="457,62 457,67 "/>
<text x="546" y="58" dy="-0.5ex" text-anchor="middle" font-family="sans-serif" font-size="9.67741935483871" opacity="1" fill="#000000">
+5s
</text>
<polyline fill="none" opacity="1" stroke="#000000" stroke-width="1" points="546,62 546,67 "/>
<text x="635" y="58" dy="-0.5ex" text-anchor="middle" font-family="sans-serif" font-size="9.67741935483871" opacity="1" fill="#000000">
+6s
</text>
<polyline fill="none" opacity="1" stroke="#000000" stroke-width="1" points="635,62 635,67 "/>
<text x="724" y="58" dy="-0.5ex" text-anchor="middle" font-family="sans-serif" font-size="9.67741935483871" opacity="1" fill="#000000">
+7s
</text>
<polyline fill="none" opacity="1" stroke="#000000" stroke-width="1" points="724,62 724,67 "/>
<text x="813" y="58" dy="-0.5ex" text-anchor="middle" font-family="sans-serif" font-size="9.67741935483871" opacity="1" fill="#000000">
+8s
</text>
<polyline fill="none" opacity="1" stroke="#000000" stroke-width="1" points="813,62 813,67 "/>
<text x="902" y="58" dy="-0.5ex" text-anchor="middle" font-family="sans-serif" font-size="9.67741935483871" opacity="1" fill="#000000">
+9s
</text>
<polyline fill="none" opacity="1" stroke="#000000" stroke-width="1" points="902,62 902,67 "/>
</svg>
