<svg width="1024" height="768" viewBox="0 0 1024 768" xmlns="http://www.w3.org/2000/svg">
<rect x="0" y="0" width="1023" height="767" opacity="1" fill="#FFFFFF" stroke="none"/>
<polygon opacity="1" fill="#E6194B" points="78,644 78,643 79,623 80,622 81,621 82,610 83,611 84,620 85,617 86,618 86,625 87,629 88,630 89,632 90,634 91,631 92,632 93,634 94,632 95,629 95,629 96,630 97,624 98,620 99,609 100,607 101,615 102,618 103,619 103,613 104,604 105,589 106,586 107,604 108,609 109,614 110,612 111,601 112,592 112,586 113,586 114,584 115,585 116,595 117,592 118,585 119,582 120,582 121,582 121,571 122,565 123,563 124,563 125,554 126,545 127,542 128,543 129,531 129,524 130,522 131,510 132,505 133,504 134,509 135,507 136,501 137,507 138,504 138,495 139,491 140,488 141,496 142,499 143,490 144,484 145,483 146,478 146,472 147,465 148,469 149,470 150,477 151,476 152,476 153,463 154,460 155,460 155,462 156,460 157,460 158,456 159,450 160,449 161,459 162,463 163,463 164,451 164,447 165,444 166,443 167,449 168,443 169,443 170,446 171,439 172,435 172,432 173,428 174,431 175,435 176,427 177,425 178,427 179,425 180,427 181,429 181,436 182,443 183,449 184,440 185,435 186,424 187,427 188,448 189,453 190,444 190,453 191,448 192,449 193,447 194,432 195,428 196,429 197,433 198,432 198,432 199,439 200,445 201,449 202,440 203,442 204,438 205,439 206,446 207,445 207,440 208,446 209,445 210,448 211,448 212,445 213,438 214,438 215,427 215,428 216,440 217,434 218,441 219,439 220,445 221,444 222,453 223,448 224,442 224,447 225,444 226,438 227,433 228,430 229,437 230,435 231,443 232,429 233,424 233,424 234,428 235,429 236,433 237,431 238,418 239,417 240,421 241,418 241,423 242,422 243,418 244,414 245,408 246,408 247,411 248,410 249,404 250,408 250,407 251,407 252,415 253,410 254,414 255,406 256,401 257,401 258,399 258,401 259,408 260,402 261,404 262,408 263,413 264,408 265,419 266,422 267,418 267,413 268,411 269,409 270,399 271,402 272,404 273,406 274,400 275,394 276,401 276,401 277,401 278,411 279,411 280,419 281,416 282,418 283,423 284,419 284,417 285,414 286,408 287,413 288,409 289,411 290,412 291,412 292,402 293,395 293,388 294,388 295,385 296,379 297,383 298,383 299,378 300,366 301,365 302,357 302,364 303,372 304,374 305,375 306,376 307,374 308,368 309,368 310,360 310,364 311,370 312,376 313,367 314,366 315,367 316,373 317,376 318,380 319,381 319,387 320,392 321,392 322,391 323,384 324,387 325,389 326,395 327,395 327,400 328,415 329,406 330,417 331,408 332,409 333,409 334,415 335,411 336,410 336,407 337,398 338,397 339,396 340,400 341,406 342,404 343,402 344,400 345,393 345,391 346,392 347,396 348,399 349,403 350,399 351,397 352,393 353,388 353,380 354,379 355,379 356,385 357,384 358,381 359,385 360,383 361,385 362,380 362,373 363,366 364,364 365,362 366,354 367,354 368,363 369,370 370,382 370,382 371,395 372,400 373,392 374,393 375,390 376,379 377,380 378,392 379,399 379,397 380,393 381,391 382,392 383,389 384,376 385,376 386,371 387,378 388,375 388,380 389,383 390,382 391,380 392,380 393,381 394,386 395,393 396,392 396,390 397,387 398,386 399,384 400,385 401,391 402,386 403,386 404,388 405,396 405,393 406,389 407,387 408,390 409,398 410,399 411,396 412,397 413,388 414,389 414,390 415,380 416,380 417,385 418,384 419,381 420,387 421,385 422,392 422,391 423,377 424,375 425,371 426,381 427,377 428,368 429,360 430,358 431,350 431,354 432,355 433,344 434,344 435,342 436,343 437,347 438,352 439,342 439,343 440,342 441,341 442,349 443,349 444,350 445,342 446,337 447,332 448,334 448,334 449,332 450,336 451,340 452,341 453,344 454,344 455,341 456,342 457,345 457,347 458,353 459,354 460,342 461,343 462,348 463,331 464,328 465,328 465,328 466,327 467,329 468,327 469,322 470,318 471,318 472,318 473,315 474,319 474,321 475,321 476,324 477,326 478,322 479,316 480,316 481,308 482,311 482,315 483,311 484,313 485,315 486,303 487,306 488,304 489,305 490,310 491,317 491,319 492,315 493,312 494,304 495,308 496,304 497,306 498,303 499,307 500,317 500,318 501,319 502,322 503,320 504,324 505,326 506,322 507,326 508,328 508,327 509,328 510,328 511,322 512,329 513,330 514,327 515,332 516,329 517,317 517,319 518,329 519,328 520,328 521,330 522,329 523,325 524,324 525,326 526,328 526,329 527,322 528,320 529,317 530,324 531,330 532,323 533,320 534,320 534,323 535,320 536,313 537,312 538,320 539,325 540,317 541,316 542,314 543,312 543,314 544,300 545,304 546,308 547,318 548,318 549,316 550,311 551,314 551,316 552,320 553,313 554,308 555,313 556,309 557,317 558,318 559,309 560,310 560,311 561,309 562,310 563,318 564,316 565,318 566,321 567,317 568,323 569,321 569,327 570,340 571,337 572,335 573,332 574,326 575,336 576,329 577,328 577,331 578,329 579,328 580,331 581,337 582,337 583,338 584,339 585,339 586,337 586,332 587,328 588,328 589,324 590,330 591,334 592,329 593,330 594,328 594,333 595,331 596,335 597,334 598,333 599,337 600,339 601,343 602,347 603,354 603,357 604,355 605,363 606,362 607,353 608,344 609,347 610,347 611,344 612,344 612,346 613,346 614,346 615,346 616,342 617,342 618,342 619,350 620,347 620,342 621,342 622,344 623,347 624,344 625,339 626,338 627,341 628,338 629,329 629,320 630,317 631,320 632,320 633,320 634,310 635,305 636,303 637,299 638,303 638,304 639,301 640,303 641,305 642,302 643,302 644,305 645,309 646,297 646,297 647,295 648,298 649,306 650,308 651,305 652,302 653,306 654,311 655,300 655,294 656,300 657,302 658,303 659,314 660,313 661,311 662,307 663,309 663,306 664,303 665,292 666,288 667,291 668,284 669,285 670,278 671,279 672,288 672,286 673,276 674,281 675,278 676,276 677,268 678,268 679,282 680,280 681,257 681,259 682,255 683,255 684,266 685,252 686,251 687,251 688,245 689,252 689,259 690,260 691,256 692,261 693,262 694,244 695,246 696,243 697,247 698,257 698,257 699,250 700,250 701,247 702,254 703,259 704,258 705,252 706,252 706,252 707,252 708,251 709,251 710,252 711,259 712,241 713,240 714,239 715,240 715,239 716,229 717,226 718,234 719,230 720,227 721,223 722,230 723,235 724,231 724,232 725,236 726,235 727,240 728,237 729,234 730,227 731,226 732,226 732,226 733,229 734,234 735,235 736,227 737,230 738,221 739,220 740,224 741,218 741,218 742,219 743,228 744,229 745,228 746,238 747,236 748,230 749,233 750,231 750,231 751,231 752,231 753,221 754,212 755,206 756,215 757,208 758,211 758,211 759,212 760,208 761,205 762,209 763,204 764,200 765,207 766,198 767,198 767,203 768,213 769,226 770,224 771,225 772,227 773,232 774,233 775,229 775,223 776,218 777,213 778,213 779,219 780,218 781,217 782,212 783,204 784,211 784,221 785,233 786,240 787,231 788,227 789,219 790,215 791,210 792,210 793,207 793,203 794,199 795,204 796,200 797,195 798,194 799,193 800,194 801,205 801,198 802,195 803,188 804,194 805,195 806,200 807,197 808,201 809,206 810,204 810,202 811,202 812,202 813,199 814,194 815,200 816,197 817,190 818,183 818,177 819,178 820,179 821,179 822,185 823,185 824,199 825,199 826,193 827,191 827,191 828,192 829,195 830,206 831,215 832,226 833,232 834,225 835,215 836,208 836,210 837,202 838,198 839,189 840,183 841,183 842,179 843,183 844,179 844,174 845,177 846,182 847,182 848,191 849,190 850,186 851,182 852,184 853,183 853,178 854,179 855,174 856,175 857,179 858,173 859,166 860,162 861,159 862,164 862,167 863,163 864,173 865,169 866,164 867,165 868,170 869,176 870,178 870,173 871,175 872,181 873,179 874,179 875,166 876,159 877,160 878,161 879,164 879,160 880,159 881,160 882,161 883,160 884,156 885,154 886,148 887,140 887,138 888,143 889,135 890,132 891,127 892,131 893,127 894,127 895,131 896,129 896,135 897,136 898,145 899,146 900,152 901,147 902,149 903,142 904,149 905,146 905,143 906,147 907,148 908,149 909,154 910,154 911,151 912,149 913,148 913,149 914,149 915,142 916,135 917,143 918,138 919,135 920,141 921,143 922,146 922,139 923,128 924,119 925,128 926,133 927,136 928,136 929,128 930,123 930,123 931,129 932,128 933,122 934,124 935,138 936,141 937,145 938,139 939,137 939,134 940,129 941,133 942,133 943,119 944,119 945,114 946,111 947,102 948,101 948,100 949,94 950,91 951,96 952,98 953,104 954,112 955,113 956,117 956,114 957,108 958,105 959,104 960,102 961,97 962,91 963,91 964,92 965,98 965,91 966,84 967,85 968,95 969,99 970,92 971,90 972,91 973,70 974,68 974,412 974,412 974,699 78,699 "/>
<polyline fill="none" opacity="1" stroke="#E6194B" stroke-width="1" points="78,644 78,643 79,623 80,622 81,621 82,610 83,611 84,620 85,617 86,618 86,625 87,629 88,630 89,632 90,634 91,631 92,632 93,634 94,632 95,629 95,629 96,630 97,624 98,620 99,609 100,607 101,615 102,618 103,619 103,613 104,604 105,589 106,586 107,604 108,609 109,614 110,612 111,601 112,592 112,586 113,586 114,584 115,585 116,595 117,592 118,585 119,582 120,582 121,582 121,571 122,565 123,563 124,563 125,554 126,545 127,542 128,543 129,531 129,524 130,522 131,510 132,505 133,504 134,509 135,507 136,501 137,507 138,504 138,495 139,491 140,488 141,496 142,499 143,490 144,484 145,483 146,478 146,472 147,465 148,469 149,470 150,477 151,476 152,476 153,463 154,460 155,460 155,462 156,460 157,460 158,456 159,450 160,449 161,459 162,463 163,463 164,451 164,447 165,444 166,443 167,449 168,443 169,443 170,446 171,439 172,435 172,432 173,428 174,431 175,435 176,427 177,425 178,427 179,425 180,427 181,429 181,436 182,443 183,449 184,440 185,435 186,424 187,427 188,448 189,453 190,444 190,453 191,448 192,449 193,447 194,432 195,428 196,429 197,433 198,432 198,432 199,439 200,445 201,449 202,440 203,442 204,438 205,439 206,446 207,445 207,440 208,446 209,445 210,448 211,448 212,445 213,438 214,438 215,427 215,428 216,440 217,434 218,441 219,439 220,445 221,444 222,453 223,448 224,442 224,447 225,444 226,438 227,433 228,430 229,437 230,435 231,443 232,429 233,424 233,424 234,428 235,429 236,433 237,431 238,418 239,417 240,421 241,418 241,423 242,422 243,418 244,414 245,408 246,408 247,411 248,410 249,404 250,408 250,407 251,407 252,415 253,410 254,414 255,406 256,401 257,401 258,399 258,401 259,408 260,402 261,404 262,408 263,413 264,408 265,419 266,422 267,418 267,413 268,411 269,409 270,399 271,402 272,404 273,406 274,400 275,394 276,401 276,401 277,401 278,411 279,411 280,419 281,416 282,418 283,423 284,419 284,417 285,414 286,408 287,413 288,409 289,411 290,412 291,412 292,402 293,395 293,388 294,388 295,385 296,379 297,383 298,383 299,378 300,366 301,365 302,357 302,364 303,372 304,374 305,375 306,376 307,374 308,368 309,368 310,360 310,364 311,370 312,376 313,367 314,366 315,367 316,373 317,376 318,380 319,381 319,387 320,392 321,392 322,391 323,384 324,387 325,389 326,395 327,395 327,400 328,415 329,406 330,417 331,408 332,409 333,409 334,415 335,411 336,410 336,407 337,398 338,397 339,396 340,400 341,406 342,404 343,402 344,400 345,393 345,391 346,392 347,396 348,399 349,403 350,399 351,397 352,393 353,388 353,380 354,379 355,379 356,385 357,384 358,381 359,385 360,383 361,385 362,380 362,373 363,366 364,364 365,362 366,354 367,354 368,363 369,370 370,382 370,382 371,395 372,400 373,392 374,393 375,390 376,379 377,380 378,392 379,399 379,397 380,393 381,391 382,392 383,389 384,376 385,376 386,371 387,378 388,375 388,380 389,383 390,382 391,380 392,380 393,381 394,386 395,393 396,392 396,390 397,387 398,386 399,384 400,385 401,391 402,386 403,386 404,388 405,396 405,393 406,389 407,387 408,390 409,398 410,399 411,396 412,397 413,388 414,389 414,390 415,380 416,380 417,385 418,384 419,381 420,387 421,385 422,392 422,391 423,377 424,375 425,371 426,381 427,377 428,368 429,360 430,358 431,350 431,354 432,355 433,344 434,344 435,342 436,343 437,347 438,352 439,342 439,343 440,342 441,341 442,349 443,349 444,350 445,342 446,337 447,332 448,334 448,334 449,332 450,336 451,340 452,341 453,344 454,344 455,341 456,342 457,345 457,347 458,353 459,354 460,342 461,343 462,348 463,331 464,328 465,328 465,328 466,327 467,329 468,327 469,322 470,318 471,318 472,318 473,315 474,319 474,321 475,321 476,324 477,326 478,322 479,316 480,316 481,308 482,311 482,315 483,311 484,313 485,315 486,303 487,306 488,304 489,305 490,310 491,317 491,319 492,315 493,312 494,304 495,308 496,304 497,306 498,303 499,307 500,317 500,318 501,319 502,322 503,320 504,324 505,326 506,322 507,326 508,328 508,327 509,328 510,328 511,322 512,329 513,330 514,327 515,332 516,329 517,317 517,319 518,329 519,328 520,328 521,330 522,329 523,325 524,324 525,326 526,328 526,329 527,322 528,320 529,317 530,324 531,330 532,323 533,320 534,320 534,323 535,320 536,313 537,312 538,320 539,325 540,317 541,316 542,314 543,312 543,314 544,300 545,304 546,308 547,318 548,318 549,316 550,311 551,314 551,316 552,320 553,313 554,308 555,313 556,309 557,317 558,318 559,309 560,310 560,311 561,309 562,310 563,318 564,316 565,318 566,321 567,317 568,323 569,321 569,327 570,340 571,337 572,335 573,332 574,326 575,336 576,329 577,328 577,331 578,329 579,328 580,331 581,337 582,337 583,338 584,339 585,339 586,337 586,332 587,328 588,328 589,324 590,330 591,334 592,329 593,330 594,328 594,333 595,331 596,335 597,334 598,333 599,337 600,339 601,343 602,347 603,354 603,357 604,355 605,363 606,362 607,353 608,344 609,347 610,347 611,344 612,344 612,346 613,346 614,346 615,346 616,342 617,342 618,342 619,350 620,347 620,342 621,342 622,344 623,347 624,344 625,339 626,338 627,341 628,338 629,329 629,320 630,317 631,320 632,320 633,320 634,310 635,305 636,303 637,299 638,303 638,304 639,301 640,303 641,305 642,302 643,302 644,305 645,309 646,297 646,297 647,295 648,298 649,306 650,308 651,305 652,302 653,306 654,311 655,300 655,294 656,300 657,302 658,303 659,314 660,313 661,311 662,307 663,309 663,306 664,303 665,292 666,288 667,291 668,284 669,285 670,278 671,279 672,288 672,286 673,276 674,281 675,278 676,276 677,268 678,268 679,282 680,280 681,257 681,259 682,255 683,255 684,266 685,252 686,251 687,251 688,245 689,252 689,259 690,260 691,256 692,261 693,262 694,244 695,246 696,243 697,247 698,257 698,257 699,250 700,250 701,247 702,254 703,259 704,258 705,252 706,252 706,252 707,252 708,251 709,251 710,252 711,259 712,241 713,240 714,239 715,240 715,239 716,229 717,226 718,234 719,230 720,227 721,223 722,230 723,235 724,231 724,232 725,236 726,235 727,240 728,237 729,234 730,227 731,226 732,226 732,226 733,229 734,234 735,235 736,227 737,230 738,221 739,220 740,224 741,218 741,218 742,219 743,228 744,229 745,228 746,238 747,236 748,230 749,233 750,231 750,231 751,231 752,231 753,221 754,212 755,206 756,215 757,208 758,211 758,211 759,212 760,208 761,205 762,209 763,204 764,200 765,207 766,198 767,198 767,203 768,213 769,226 770,224 771,225 772,227 773,232 774,233 775,229 775,223 776,218 777,213 778,213 779,219 780,218 781,217 782,212 783,204 784,211 784,221 785,233 786,240 787,231 788,227 789,219 790,215 791,210 792,210 793,207 793,203 794,199 795,204 796,200 797,195 798,194 799,193 800,194 801,205 801,198 802,195 803,188 804,194 805,195 806,200 807,197 808,201 809,206 810,204 810,202 811,202 812,202 813,199 814,194 815,200 816,197 817,190 818,183 818,177 819,178 820,179 821,179 822,185 823,185 824,199 825,199 826,193 827,191 827,191 828,192 829,195 830,206 831,215 832,226 833,232 834,225 835,215 836,208 836,210 837,202 838,198 839,189 840,183 841,183 842,179 843,183 844,179 844,174 845,177 846,182 847,182 848,191 849,190 850,186 851,182 852,184 853,183 853,178 854,179 855,174 856,175 857,179 858,173 859,166 860,162 861,159 862,164 862,167 863,163 864,173 865,169 866,164 867,165 868,170 869,176 870,178 870,173 871,175 872,181 873,179 874,179 875,166 876,159 877,160 878,161 879,164 879,160 880,159 881,160 882,161 883,160 884,156 885,154 886,148 887,140 887,138 888,143 889,135 890,132 891,127 892,131 893,127 894,127 895,131 896,129 896,135 897,136 898,145 899,146 900,152 901,147 902,149 903,142 904,149 905,146 905,143 906,147 907,148 908,149 909,154 910,154 911,151 912,149 913,148 913,149 914,149 915,142 916,135 917,143 918,138 919,135 920,141 921,143 922,146 922,139 923,128 924,119 925,128 926,133 927,136 928,136 929,128 930,123 930,123 931,129 932,128 933,122 934,124 935,138 936,141 937,145 938,139 939,137 939,134 940,129 941,133 942,133 943,119 944,119 945,114 946,111 947,102 948,101 948,100 949,94 950,91 951,96 952,98 953,104 954,112 955,113 956,117 956,114 957,108 958,105 959,104 960,102 961,97 962,91 963,91 964,92 965,98 965,91 966,84 967,85 968,95 969,99 970,92 971,90 972,91 973,70 974,68 974,412 974,412 "/>
<line opacity="0.1" stroke="#000000" stroke-width="1" x1="83" y1="699" x2="83" y2="67"/>
<line opacity="0.1" stroke="#000000" stroke-width="1" x1="92" y1="699" x2="92" y2="67"/>
<line opacity="0.1" stroke="#000000" stroke-width="1" x1="101" y1="699" x2="101" y2="67"/>
<line opacity="0.1" stroke="#000000" stroke-width="1" x1="111" y1="699" x2="111" y2="67"/>
<line opacity="0.1" stroke="#000000" stroke-width="1" x1="120" y1="699" x2="120" y2="67"/>
<line opacity="0.1" stroke="#000000" stroke-width="1" x1="129" y1="699" x2="129" y2="67"/>
<line opacity="0.1" stroke="#000000" stroke-width="1" x1="138" y1="699" x2="138" y2="67"/>
<line opacity="0.1" stroke="#000000" stroke-width="1" x1="148" y1="699" x2="148" y2="67"/>
<line opacity="0.1" stroke="#000000" stroke-width="1" x1="157" y1="699" x2="157" y2="67"/>
<line opacity="0.1" stroke="#000000" stroke-width="1" x1="166" y1="699" x2="166" y2="67"/>
<line opacity="0.1" stroke="#000000" stroke-width="1" x1="175" y1="699" x2="175" y2="67"/>
<line opacity="0.1" stroke="#000000" stroke-width="1" x1="185" y1="699" x2="185" y2="67"/>
<line opacity="0.1" stroke="#000000" stroke-width="1" x1="194" y1="699" x2="194" y2="67"/>
<line opacity="0.1" stroke="#000000" stroke-width="1" x1="203" y1="699" x2="203" y2="67"/>
<line opacity="0.1" stroke="#000000" stroke-width="1" x1="212" y1="699" x2="212" y2="67"/>
<line opacity="0.1" stroke="#000000" stroke-width="1" x1="222" y1="699" x2="222" y2="67"/>
<line opacity="0.1" stroke="#000000" stroke-width="1" x1="231" y1="699" x2="231" y2="67"/>
<line opacity="0.1" stroke="#000000" stroke-width="1" x1="240" y1="699" x2="240" y2="67"/>
<line opacity="0.1" stroke="#000000" stroke-width="1" x1="249" y1="699" x2="249" y2="67"/>
<line opacity="0.1" stroke="#000000" stroke-width="1" x1="259" y1="699" x2="259" y2="67"/>
<line opacity="0.1" stroke="#000000" stroke-width="1" x1="268" y1="699" x2="268" y2="67"/>
<line opacity="0.1" stroke="#000000" stroke-width="1" x1="277" y1="699" x2="277" y2="67"/>
<line opacity="0.1" stroke="#000000" stroke-width="1" x1="287" y1="699" x2="287" y2="67"/>
<line opacity="0.1" stroke="#000000" stroke-width="1" x1="296" y1="699" x2="296" y2="67"/>
<line opacity="0.1" stroke="#000000" stroke-width="1" x1="305" y1="699" x2="305" y2="67"/>
<line opacity="0.1" stroke="#000000" stroke-width="1" x1="314" y1="699" x2="314" y2="67"/>
<line opacity="0.1" stroke="#000000" stroke-width="1" x1="324" y1="699" x2="324" y2="67"/>
<line opacity="0.1" stroke="#000000" stroke-width="1" x1="333" y1="699" x2="333" y2="67"/>
<line opacity="0.1" stroke="#000000" stroke-width="1" x1="342" y1="699" x2="342" y2="67"/>
<line opacity="0.1" stroke="#000000" stroke-width="1" x1="351" y1="699" x2="351" y2="67"/>
<line opacity="0.1" stroke="#000000" stroke-width="1" x1="361" y1="699" x2="361" y2="67"/>
<line opacity="0.1" stroke="#000000" stroke-width="1" x1="370" y1="699" x2="370" y2="67"/>
<line opacity="0.1" stroke="#000000" stroke-width="1" x1="379" y1="699" x2="379" y2="67"/>
<line opacity="0.1" stroke="#000000" stroke-width="1" x1="388" y1="699" x2="388" y2="67"/>
<line opacity="0.1" stroke="#000000" stroke-width="1" x1="398" y1="699" x2="398" y2="67"/>
<line opacity="0.1" stroke="#000000" stroke-width="1" x1="407" y1="699" x2="407" y2="67"/>
<line opacity="0.1" stroke="#000000" stroke-width="1" x1="416" y1="699" x2="416" y2="67"/>
<line opacity="0.1" stroke="#000000" stroke-width="1" x1="425" y1="699" x2="425" y2="67"/>
<line opacity="0.1" stroke="#000000" stroke-width="1" x1="435" y1="699" x2="435" y2="67"/>
<line opacity="0.1" stroke="#000000" stroke-width="1" x1="444" y1="699" x2="444" y2="67"/>
<line opacity="0.1" stroke="#000000" stroke-width="1" x1="453" y1="699" x2="453" y2="67"/>
<line opacity="0.1" stroke="#000000" stroke-width="1" x1="463" y1="699" x2="463" y2="67"/>
<line opacity="0.1" stroke="#000000" stroke-width="1" x1="472" y1="699" x2="472" y2="67"/>
<line opacity="0.1" stroke="#000000" stroke-width="1" x1="481" y1="699" x2="481" y2="67"/>
<line opacity="0.1" stroke="#000000" stroke-width="1" x1="490" y1="699" x2="490" y2="67"/>
<line opacity="0.1" stroke="#000000" stroke-width="1" x1="500" y1="699" x2="500" y2="67"/>
<line opacity="0.1" stroke="#000000" stroke-width="1" x1="509" y1="699" x2="509" y2="67"/>
<line opacity="0.1" stroke="#000000" stroke-width="1" x1="518" y1="699" x2="518" y2="67"/>
<line opacity="0.1" stroke="#000000" stroke-width="1" x1="527" y1="699" x2="527" y2="67"/>
<line opacity="0.1" stroke="#000000" stroke-width="1" x1="537" y1="699" x2="537" y2="67"/>
<line opacity="0.1" stroke="#000000" stroke-width="1" x1="546" y1="699" x2="546" y2="67"/>
<line opacity="0.1" stroke="#000000" stroke-width="1" x1="555" y1="699" x2="555" y2="67"/>
<line opacity="0.1" stroke="#000000" stroke-width="1" x1="564" y1="699" x2="564" y2="67"/>
<line opacity="0.1" stroke="#000000" stroke-width="1" x1="574" y1="699" x2="574" y2="67"/>
<line opacity="0.1" stroke="#000000" stroke-width="1" x1="583" y1="699" x2="583" y2="67"/>
<line opacity="0.1" stroke="#000000" stroke-width="1" x1="592" y1="699" x2="592" y2="67"/>
<line opacity="0.1" stroke="#000000" stroke-width="1" x1="601" y1="699" x2="601" y2="67"/>
<line opacity="0.1" stroke="#000000" stroke-width="1" x1="611" y1="699" x2="611" y2="67"/>
<line opacity="0.1" stroke="#000000" stroke-width="1" x1="620" y1="699" x2="620" y2="67"/>
<line opacity="0.1" stroke="#000000" stroke-width="1" x1="629" y1="699" x2="629" y2="67"/>
<line opacity="0.1" stroke="#000000" stroke-width="1" x1="639" y1="699" x2="639" y2="67"/>
<line opacity="0.1" stroke="#000000" stroke-width="1" x1="648" y1="699" x2="648" y2="67"/>
<line opacity="0.1" stroke="#000000" stroke-width="1" x1="657" y1="699" x2="657" y2="67"/>
<line opacity="0.1" stroke="#000000" stroke-width="1" x1="666" y1="699" x2="666" y2="67"/>
<line opacity="0.1" stroke="#000000" stroke-width="1" x1="676" y1="699" x2="676" y2="67"/>
<line opacity="0.1" stroke="#000000" stroke-width="1" x1="685" y1="699" x2="685" y2="67"/>
<line opacity="0.1" stroke="#000000" stroke-width="1" x1="694" y1="699" x2="694" y2="67"/>
<line opacity="0.1" stroke="#000000" stroke-width="1" x1="703" y1="699" x2="703" y2="67"/>
<line opacity="0.1" stroke="#000000" stroke-width="1" x1="713" y1="699" x2="713" y2="67"/>
<line opacity="0.1" stroke="#000000" stroke-width="1" x1="722" y1="699" x2="722" y2="67"/>
<line opacity="0.1" stroke="#000000" stroke-width="1" x1="731" y1="699" x2="731" y2="67"/>
<line opacity="0.1" stroke="#000000" stroke-width="1" x1="740" y1="699" x2="740" y2="67"/>
<line opacity="0.1" stroke="#000000" stroke-width="1" x1="750" y1="699" x2="750" y2="67"/>
<line opacity="0.1" stroke="#000000" stroke-width="1" x1="759" y1="699" x2="759" y2="67"/>
<line opacity="0.1" stroke="#000000" stroke-width="1" x1="768" y1="699" x2="768" y2="67"/>
<line opacity="0.1" stroke="#000000" stroke-width="1" x1="777" y1="699" x2="777" y2="67"/>
<line opacity="0.1" stroke="#000000" stroke-width="1" x1="787" y1="699" x2="787" y2="67"/>
<line opacity="0.1" stroke="#000000" stroke-width="1" x1="796" y1="699" x2="796" y2="67"/>
<line opacity="0.1" stroke="#000000" stroke-width="1" x1="805" y1="699" x2="805" y2="67"/>
<line opacity="0.1" stroke="#000000" stroke-width="1" x1="815" y1="699" x2="815" y2="67"/>
<line opacity="0.1" stroke="#000000" stroke-width="1" x1="824" y1="699" x2="824" y2="67"/>
<line opacity="0.1" stroke="#000000" stroke-width="1" x1="833" y1="699" x2="833" y2="67"/>
<line opacity="0.1" stroke="#000000" stroke-width="1" x1="842" y1="699" x2="842" y2="67"/>
<line opacity="0.1" stroke="#000000" stroke-width="1" x1="852" y1="699" x2="852" y2="67"/>
<line opacity="0.1" stroke="#000000" stroke-width="1" x1="861" y1="699" x2="861" y2="67"/>
<line opacity="0.1" stroke="#000000" stroke-width="1" x1="870" y1="699" x2="870" y2="67"/>
<line opacity="0.1" stroke="#000000" stroke-width="1" x1="879" y1="699" x2="879" y2="67"/>
<line opacity="0.1" stroke="#000000" stroke-width="1" x1="889" y1="699" x2="889" y2="67"/>
<line opacity="0.1" stroke="#000000" stroke-width="1" x1="898" y1="699" x2="898" y2="67"/>
<line opacity="0.1" stroke="#000000" stroke-width="1" x1="907" y1="699" x2="907" y2="67"/>
<line opacity="0.1" stroke="#000000" stroke-width="1" x1="916" y1="699" x2="916" y2="67"/>
<line opacity="0.1" stroke="#000000" stroke-width="1" x1="926" y1="699" x2="926" y2="67"/>
<line opacity="0.1" stroke="#000000" stroke-width="1" x1="935" y1="699" x2="935" y2="67"/>
<line opacity="0.1" stroke="#000000" stroke-width="1" x1="944" y1="699" x2="944" y2="67"/>
<line opacity="0.1" stroke="#000000" stroke-width="1" x1="953" y1="699" x2="953" y2="67"/>
<line opacity="0.1" stroke="#000000" stroke-width="1" x1="963" y1="699" x2="963" y2="67"/>
<line opacity="0.1" stroke="#000000" stroke-width="1" x1="972" y1="699" x2="972" y2="67"/>
<line opacity="0.1" stroke="#000000" stroke-width="1" x1="78" y1="699" x2="974" y2="699"/>
<line opacity="0.1" stroke="#000000" stroke-width="1" x1="78" y1="687" x2="974" y2="687"/>
<line opacity="0.1" stroke="#000000" stroke-width="1" x1="78" y1="676" x2="974" y2="676"/>
<line opacity="0.1" stroke="#000000" stroke-width="1" x1="78" y1="664" x2="974" y2="664"/>
<line opacity="0.1" stroke="#000000" stroke-width="1" x1="78" y1="653" x2="974" y2="653"/>
<line opacity="0.1" stroke="#000000" stroke-width="1" x1="78" y1="641" x2="974" y2="641"/>
<line opacity="0.1" stroke="#000000" stroke-width="1" x1="78" y1="630" x2="974" y2="630"/>
<line opacity="0.1" stroke="#000000" stroke-width="1" x1="78" y1="618" x2="974" y2="618"/>
<line opacity="0.1" stroke="#000000" stroke-width="1" x1="78" y1="607" x2="974" y2="607"/>
<line opacity="0.1" stroke="#000000" stroke-width="1" x1="78" y1="596" x2="974" y2="596"/>
<line opacity="0.1" stroke="#000000" stroke-width="1" x1="78" y1="584" x2="974" y2="584"/>
<line opacity="0.1" stroke="#000000" stroke-width="1" x1="78" y1="573" x2="974" y2="573"/>
<line opacity="0.1" stroke="#000000" stroke-width="1" x1="78" y1="561" x2="974" y2="561"/>
<line opacity="0.1" stroke="#000000" stroke-width="1" x1="78" y1="550" x2="974" y2="550"/>
<line opacity="0.1" stroke="#000000" stroke-width="1" x1="78" y1="538" x2="974" y2="538"/>
<line opacity="0.1" stroke="#000000" stroke-width="1" x1="78" y1="527" x2="974" y2="527"/>
<line opacity="0.1" stroke="#000000" stroke-width="1" x1="78" y1="516" x2="974" y2="516"/>
<line opacity="0.1" stroke="#000000" stroke-width="1" x1="78" y1="504" x2="974" y2="504"/>
<line opacity="0.1" stroke="#000000" stroke-width="1" x1="78" y1="493" x2="974" y2="493"/>
<line opacity="0.1" stroke="#000000" stroke-width="1" x1="78" y1="481" x2="974" y2="481"/>
<line opacity="0.1" stroke="#000000" stroke-width="1" x1="78" y1="470" x2="974" y2="470"/>
<line opacity="0.1" stroke="#000000" stroke-width="1" x1="78" y1="458" x2="974" y2="458"/>
<line opacity="0.1" stroke="#000000" stroke-width="1" x1="78" y1="447" x2="974" y2="447"/>
<line opacity="0.1" stroke="#000000" stroke-width="1" x1="78" y1="436" x2="974" y2="436"/>
<line opacity="0.1" stroke="#000000" stroke-width="1" x1="78" y1="424" x2="974" y2="424"/>
<line opacity="0.1" stroke="#000000" stroke-width="1" x1="78" y1="413" x2="974" y2="413"/>
<line opacity="0.1" stroke="#000000" stroke-width="1" x1="78" y1="401" x2="974" y2="401"/>
<line opacity="0.1" stroke="#000000" stroke-width="1" x1="78" y1="390" x2="974" y2="390"/>
<line opacity="0.1" stroke="#000000" stroke-width="1" x1="78" y1="378" x2="974" y2="378"/>
<line opacity="0.1" stroke="#000000" stroke-width="1" x1="78" y1="367" x2="974" y2="367"/>
<line opacity="0.1" stroke="#000000" stroke-width="1" x1="78" y1="356" x2="974" y2="356"/>
<line opacity="0.1" stroke="#000000" stroke-width="1" x1="78" y1="344" x2="974" y2="344"/>
<line opacity="0.1" stroke="#000000" stroke-width="1" x1="78" y1="333" x2="974" y2="333"/>
<line opacity="0.1" stroke="#000000" stroke-width="1" x1="78" y1="321" x2="974" y2="321"/>
<line opacity="0.1" stroke="#000000" stroke-width="1" x1="78" y1="310" x2="974" y2="310"/>
<line opacity="0.1" stroke="#000000" stroke-width="1" x1="78" y1="298" x2="974" y2="298"/>
<line opacity="0.1" stroke="#000000" stroke-width="1" x1="78" y1="287" x2="974" y2="287"/>
<line opacity="0.1" stroke="#000000" stroke-width="1" x1="78" y1="275" x2="974" y2="275"/>
<line opacity="0.1" stroke="#000000" stroke-width="1" x1="78" y1="264" x2="974" y2="264"/>
<line opacity="0.1" stroke="#000000" stroke-width="1" x1="78" y1="253" x2="974" y2="253"/>
<line opacity="0.1" stroke="#000000" stroke-width="1" x1="78" y1="241" x2="974" y2="241"/>
<line opacity="0.1" stroke="#000000" stroke-width="1" x1="78" y1="230" x2="974" y2="230"/>
<line opacity="0.1" stroke="#000000" stroke-width="1" x1="78" y1="218" x2="974" y2="218"/>
<line opacity="0.1" stroke="#000000" stroke-width="1" x1="78" y1="207" x2="974" y2="207"/>
<line opacity="0.1" stroke="#000000" stroke-width="1" x1="78" y1="195" x2="974" y2="195"/>
<line opacity="0.1" stroke="#000000" stroke-width="1" x1="78" y1="184" x2="974" y2="184"/>
<line opacity="0.1" stroke="#000000" stroke-width="1" x1="78" y1="173" x2="974" y2="173"/>
<line opacity="0.1" stroke="#000000" stroke-width="1" x1="78" y1="161" x2="974" y2="161"/>
<line opacity="0.1" stroke="#000000" stroke-width="1" x1="78" y1="150" x2="974" y2="150"/>
<line opacity="0.1" stroke="#000000" stroke-width="1" x1="78" y1="138" x2="974" y2="138"/>
<line opacity="0.1" stroke="#000000" stroke-width="1" x1="78" y1="127" x2="974" y2="127"/>
<line opacity="0.1" stroke="#000000" stroke-width="1" x1="78" y1="115" x2="974" y2="115"/>
<line opacity="0.1" stroke="#000000" stroke-width="1" x1="78" y1="104" x2="974" y2="104"/>
<line opacity="0.1" stroke="#000000" stroke-width="1" x1="78" y1="93" x2="974" y2="93"/>
<line opacity="0.1" stroke="#000000" stroke-width="1" x1="78" y1="81" x2="974" y2="81"/>
<line opacity="0.1" stroke="#000000" stroke-width="1" x1="78" y1="70" x2="974" y2="70"/>
<text x="8" y="384" dy="0.76em" text-anchor="middle" font-family="sans-serif" font-size="9.67741935483871" opacity="1" fill="#000000" transform="rotate(270, 8, 384)">
Memory usage
</text>
<text x="526" y="760" dy="-0.5ex" text-anchor="middle" font-family="sans-serif" font-size="9.67741935483871" opacity="1" fill="#000000">
Time
</text>
<line opacity="0.2" stroke="#000000" stroke-width="1" x1="166" y1="699" x2="166" y2="67"/>
<line opacity="0.2" stroke="#000000" stroke-width="1" x1="259" y1="699" x2="259" y2="67"/>
<line opacity="0.2" stroke="#000000" stroke-width="1" x1="351" y1="699" x2="351" y2="67"/>
<line opacity="0.2" stroke="#000000" stroke-width="1" x1="444" y1="699" x2="444" y2="67"/>
<line opacity="0.2" stroke="#000000" stroke-width="1" x1="537" y1="699" x2="537" y2="67"/>
<line opacity="0.2" stroke="#000000" stroke-width="1" x1="629" y1="699" x2="629" y2="67"/>
<line opacity="0.2" stroke="#000000" stroke-width="1" x1="722" y1="699" x2="722" y2="67"/>
<line opacity="0.2" stroke="#000000" stroke-width="1" x1="815" y1="699" x2="815" y2="67"/>
<line opacity="0.2" stroke="#000000" stroke-width="1" x1="907" y1="699" x2="907" y2="67"/>
<line opacity="0.2" stroke="#000000" stroke-width="1" x1="78" y1="699" x2="974" y2="699"/>
<line opacity="0.2" stroke="#000000" stroke-width="1" x1="78" y1="584" x2="974" y2="584"/>
<line opacity="0.2" stroke="#000000" stroke-width="1" x1="78" y1="470" x2="974" y2="470"/>
<line opacity="0.2" stroke="#000000" stroke-width="1" x1="78" y1="356" x2="974" y2="356"/>
<line opacity="0.2" stroke="#000000" stroke-width="1" x1="78" y1="241" x2="974" y2="241"/>
<line opacity="0.2" stroke="#000000" stroke-width="1" x1="78" y1="127" x2="974" y2="127"/>
<polyline fill="none" opacity="1" stroke="#000000" stroke-width="1" points="77,68 77,700 "/>
<text x="68" y="699" dy="0.5ex" text-anchor="end" font-family="sans-serif" font-size="9.67741935483871" opacity="1" fill="#000000">
0.00 MB
</text>
<polyline fill="none" opacity="1" stroke="#000000" stroke-width="1" points="72,699 77,699 "/>
<text x="68" y="584" dy="0.5ex" text-anchor="end" font-family="sans-serif" font-size="9.67741935483871" opacity="1" fill="#000000">
0.19 MB
</text>
<polyline fill="none" opacity="1" stroke="#000000" stroke-width="1" points="72,584 77,584 "/>
<text x="68" y="470" dy="0.5ex" text-anchor="end" font-family="sans-serif" font-size="9.67741935483871" opacity="1" fill="#000000">
0.38 MB
</text>
<polyline fill="none" opacity="1" stroke="#000000" stroke-width="1" points="72,470 77,470 "/>
<text x="68" y="356" dy="0.5ex" text-anchor="end" font-family="sans-serif" font-size="9.67741935483871" opacity="1" fill="#000000">
0.57 MB
</text>
<polyline fill="none" opacity="1" stroke="#000000" stroke-width="1" points="72,356 77,356 "/>
<text x="68" y="241" dy="0.5ex" text-anchor="end" font-family="sans-serif" font-size="9.67741935483871" opacity="1" fill="#000000">
0.76 MB
</text>
<polyline fill="none" opacity="1" stroke="#000000" stroke-width="1" points="72,241 77,241 "/>
<text x="68" y="127" dy="0.5ex" text-anchor="end" font-family="sans-serif" font-size="9.67741935483871" opacity="1" fill="#000000">
0.95 MB
</text>
<polyline fill="none" opacity="1" stroke="#000000" stroke-width="1" points="72,127 77,127 "/>
<polyline fill="none" opacity="1" stroke="#000000" stroke-width="1" points="78,700 974,700 "/>
<text x="166" y="710" dy="0.76em" text-anchor="middle" font-family="sans-serif" font-size="9.67741935483871" opacity="1" fill="#000000">
06:26:08
</text>
<polyline fill="none" opacity="1" stroke="#000000" stroke-width="1" points="166,700 166,705 "/>
<text x="259" y="710" dy="0.76em" text-anchor="middle" font-family="sans-serif" font-size="9.67741935483871" opacity="1" fill="#000000">
06:26:09
</text>
<polyline fill="none" opacity="1" stroke="#000000" stroke-width="1" points="259,700 259,705 "/>
<text x="351" y="710" dy="0.76em" text-anchor="middle" font-family="sans-serif" font-size="9.67741935483871" opacity="1" fill="#000000">
06:26:10
</text>
<polyline fill="none" opacity="1" stroke="#000000" stroke-width="1" points="351,700 351,705 "/>
<text x="444" y="710" dy="0.76em" text-anchor="middle" font-family="sans-serif" font-size="9.67741935483871" opacity="1" fill="#000000">
06:26:11
</text>
<polyline fill="none" opacity="1" stroke="#000000" stroke-width="1" points="444,700 444,705 "/>
<text x="537" y="710" dy="0.76em" text-anchor="middle" font-family="sans-serif" font-size="9.67741935483871" opacity="1" fill="#000000">
06:26:12
</text>
<polyline fill="none" opacity="1" stroke="#000000" stroke-width="1" points="537,700 537,705 "/>
<text x="629" y="710" dy="0.76em" text-anchor="middle" font-family="sans-serif" font-size="9.67741935483871" opacity="1" fill="#000000">
06:26:13
</text>
<polyline fill="none" opacity="1" stroke="#000000" stroke-width="1" points="629,700 629,705 "/>
<text x="722" y="710" dy="0.76em" text-anchor="middle" font-family="sans-serif" font-size="9.67741935483871" opacity="1" fill="#000000">
06:26:14
</text>
<polyline fill="none" opacity="1" stroke="#000000" stroke-width="1" points="722,700 722,705 "/>
<text x="815" y="710" dy="0.76em" text-anchor="middle" font-family="sans-serif" font-size="9.67741935483871" opacity="1" fill="#000000">
06:26:15
</text>
<polyline fill="none" opacity="1" stroke="#000000" stroke-width="1" points="815,700 815,705 "/>
<text x="907" y="710" dy="0.76em" text-anchor="middle" font-family="sans-serif" font-size="9.67741935483871" opacity="1" fill="#000000">
06:26:16
</text>
<polyline fill="none" opacity="1" stroke="#000000" stroke-width="1" points="907,700 907,705 "/>
<polyline fill="none" opacity="1" stroke="#000000" stroke-width="1" points="78,67 974,67 "/>
<text x="166" y="58" dy="-0.5ex" text-anchor="middle" font-family="sans-serif" font-size="9.67741935483871" opacity="1" fill="#000000">
+956ms
</text>
<polyline fill="none" opacity="1" stroke="#000000" stroke-width="1" points="166,62 166,67 "/>
<text x="259" y="58" dy="-0.5ex" text-anchor="middle" font-family="sans-serif" font-size="9.67741935483871" opacity="1" fill="#000000">
+1s
</text>
<polyline fill="none" opacity="1" stroke="#000000" stroke-width="1" points="259,62 259,67 "/>
<text x="351" y="58" dy="-0.5ex" text-anchor="middle" font-family="sans-serif" font-size="9.67741935483871" opacity="1" fill="#000000">
+2s
</text>
<polyline fill="none" opacity="1" stroke="#000000" stroke-width="1" points="351,62 351,67 "/>
<text x="444" y="58" dy="-0.5ex" text-anchor="middle" font-family="sans-serif" font-size="9.67741935483871" opacity="1" fill="#000000">
+3s
</text>
<polyline fill="none" opacity="1" stroke="#000000" stroke-width="1" points="444,62 444,67 "/>
<text x="537" y="58" dy="-0.5ex" text-anchor="middle" font-family="sans-serif" font-size="9.67741935483871" opacity="1" fill="#000000">
+4s
</text>
<polyline fill="none" opacity="1" stroke="#000000" stroke-width="1" points="537,62 537,67 "/>
<text x="629" y="58" dy="-0.5ex" text-anchor="middle" font-family="sans-serif" font-size="9.67741935483871" opacity="1" fill="#000000">
+5s
</text>
<polyline fill="none" opacity="1" stroke="#000000" stroke-width="1" points="629,62 629,67 "/>
<text x="722" y="58" dy="-0.5ex" text-anchor="middle" font-family="sans-serif" font-size="9.67741935483871" opacity="1" fill="#000000">
+6s
</text>
<polyline fill="none" opacity="1" stroke="#000000" stroke-width="1" points="722,62 722,67 "/>
<text x="815" y="58" dy="-0.5ex" text-anchor="middle" font-family="sans-serif" font-size="9.67741935483871" opacity="1" fill="#000000">
+7s
</text>
<polyline fill="none" opacity="1" stroke="#000000" stroke-width="1" points="815,62 815,67 "/>
<text x="907" y="58" dy="-0.5ex" text-anchor="middle" font-family="sans-serif" font-size="9.67741935483871" opacity="1" fill="#000000">
+8s
</text>
<polyline fill="none" opacity="1" stroke="#000000" stroke-width="1" points="907,62 907,67 "/>
</svg>
