<svg width="1024" height="768" viewBox="0 0 1024 768" xmlns="http://www.w3.org/2000/svg">
<rect x="0" y="0" width="1023" height="767" opacity="1" fill="#FFFFFF" stroke="none"/>
<polygon opacity="1" fill="#E6194B" points="78,679 78,679 79,636 80,636 81,636 82,614 83,615 84,635 85,630 86,633 86,649 87,657 88,661 89,667 90,672 91,665 92,667 93,674 94,669 95,664 95,664 96,667 97,656 98,648 99,626 100,622 101,639 102,645 103,650 103,638 104,620 105,589 106,581 107,621 108,632 109,641 110,638 111,616 112,598 112,585 113,586 114,583 115,584 116,606 117,602 118,588 119,582 120,583 120,583 121,560 122,548 123,543 124,545 125,526 126,510 127,505 128,508 129,481 129,468 130,463 131,440 132,430 133,427 134,439 135,435 136,424 137,437 138,432 138,413 139,405 140,400 141,417 142,424 143,406 144,395 145,393 146,383 146,371 147,356 148,366 149,370 150,386 151,386 152,386 153,360 154,352 155,354 155,359 156,356 157,357 158,350 159,340 160,351 161,373 162,383 163,383 163,359 164,350 165,345 166,345 167,359 168,346 169,348 170,355 171,343 172,333 172,329 173,321 174,329 175,338 176,321 177,320 178,323 179,321 180,327 181,330 181,347 182,362 183,375 184,357 185,348 186,324 187,331 188,377 189,389 189,373 190,393 191,385 192,387 193,383 194,352 195,344 196,344 197,354 198,353 198,353 199,368 200,381 201,391 202,374 203,378 204,369 205,373 206,388 206,389 207,378 208,390 209,389 210,396 211,397 212,393 213,378 214,379 215,357 215,360 216,386 217,375 218,389 219,387 220,399 221,398 222,416 223,407 223,397 224,406 225,403 226,389 227,379 228,374 229,389 230,386 231,406 232,376 232,367 233,366 234,377 235,379 236,388 237,383 238,357 239,357 240,367 241,361 241,371 242,372 243,365 244,356 245,345 246,343 247,351 248,349 249,339 249,346 250,345 251,347 252,364 253,354 254,364 255,347 256,338 257,339 258,335 258,340 259,355 260,342 261,349 262,357 263,369 264,360 265,383 266,391 266,382 267,373 268,368 269,365 270,345 271,352 272,356 273,361 274,350 275,335 275,351 276,351 277,352 278,374 279,374 280,389 281,386 282,392 283,402 284,395 284,391 285,384 286,371 287,383 288,376 289,380 290,382 291,384 292,363 292,350 293,336 294,338 295,330 296,319 297,329 298,331 299,321 300,297 301,294 301,279 302,295 303,311 304,317 305,319 306,322 307,320 308,308 309,308 309,292 310,301 311,314 312,328 313,310 314,307 315,310 316,323 317,329 318,341 318,343 319,355 320,366 321,379 322,396 323,384 324,389 325,394 326,408 327,409 327,421 328,452 329,434 330,458 331,441 332,443 333,445 334,457 335,451 335,450 336,444 337,426 338,424 339,423 340,431 341,444 342,443 343,438 344,434 344,421 345,416 346,422 347,429 348,438 349,446 350,439 351,436 352,427 352,418 353,402 354,401 355,430 356,444 357,444 358,438 359,449 360,445 361,451 361,439 362,427 363,412 364,409 365,404 366,387 367,388 368,407 369,423 369,450 370,450 371,479 372,490 373,472 374,475 375,469 376,448 377,449 378,475 378,490 379,487 380,481 381,475 382,480 383,475 384,448 385,449 386,438 387,453 387,447 388,458 389,465 390,464 391,460 392,460 393,464 394,475 395,490 395,490 396,485 397,478 398,475 399,474 400,476 401,489 402,481 403,480 404,485 404,504 405,497 406,491 407,489 408,495 409,511 410,515 411,518 412,520 412,501 413,503 414,506 415,488 416,487 417,499 418,496 419,490 420,504 421,500 421,515 422,514 423,485 424,482 425,474 426,495 427,487 428,470 429,453 430,450 430,432 431,441 432,445 433,422 434,421 435,420 436,421 437,430 438,443 438,423 439,425 440,423 441,421 442,438 443,439 444,440 445,425 446,415 447,406 447,409 448,409 449,407 450,415 451,423 452,427 453,433 454,435 455,430 455,432 456,438 457,442 458,456 459,459 460,434 461,435 462,448 463,413 464,407 464,407 465,408 466,407 467,411 468,407 469,397 470,389 471,389 472,388 473,384 473,392 474,395 475,396 476,404 477,407 478,399 479,386 480,389 481,372 481,377 482,388 483,380 484,384 485,388 486,365 487,372 488,368 489,370 490,380 490,396 491,401 492,391 493,385 494,371 495,378 496,372 497,374 498,369 498,377 499,398 500,404 501,405 502,412 503,408 504,419 505,423 506,416 507,424 507,429 508,426 509,428 510,431 511,418 512,433 513,436 514,431 515,441 515,435 516,410 517,413 518,436 519,433 520,434 521,438 522,436 523,429 524,428 524,431 525,436 526,439 527,425 528,421 529,414 530,429 531,442 532,429 533,423 533,422 534,429 535,425 536,408 537,407 538,425 539,437 540,421 541,420 541,416 542,412 543,416 544,389 545,396 546,406 547,428 548,429 549,425 550,414 550,420 551,426 552,434 553,421 554,411 555,421 556,415 557,430 558,434 558,415 559,417 560,421 561,416 562,418 563,435 564,433 565,436 566,443 567,435 567,448 568,443 569,457 570,485 571,478 572,474 573,470 574,456 575,478 576,464 576,465 577,471 578,469 579,466 580,472 581,486 582,487 583,490 584,492 584,493 585,491 586,481 587,471 588,472 589,464 590,476 591,485 592,476 593,478 593,474 594,485 595,481 596,489 597,487 598,485 599,495 600,500 601,508 601,517 602,533 603,540 604,537 605,554 606,552 607,532 608,516 609,523 610,522 610,517 611,516 612,522 613,521 614,521 615,523 616,513 617,514 618,515 619,532 619,525 620,514 621,515 622,519 623,526 624,520 625,511 626,508 627,514 627,509 628,490 629,472 630,465 631,473 632,472 633,473 634,453 635,442 636,440 636,430 637,441 638,444 639,438 640,441 641,447 642,442 643,441 644,448 644,456 645,434 646,434 647,431 648,438 649,454 650,459 651,453 652,447 653,456 653,467 654,446 655,433 656,447 657,451 658,454 659,475 660,475 661,471 661,464 662,467 663,461 664,456 665,433 666,425 667,431 668,420 669,420 670,408 670,409 671,430 672,424 673,404 674,413 675,407 676,403 677,389 678,389 679,418 679,414 680,336 681,339 682,332 683,334 684,356 685,326 686,324 687,323 687,311 688,326 689,343 690,346 691,338 692,350 693,352 694,315 695,317 696,311 696,320 697,341 698,341 699,328 700,328 701,323 702,338 703,348 704,345 704,333 705,334 706,334 707,336 708,334 709,334 710,337 711,351 712,314 713,313 713,310 714,313 715,310 716,290 717,285 718,302 719,294 720,289 721,280 722,295 722,306 723,297 724,301 725,308 726,306 727,318 728,312 729,305 730,291 730,290 731,291 732,292 733,297 734,307 735,310 736,294 737,301 738,282 739,280 739,288 740,277 741,277 742,279 743,298 744,302 745,300 746,321 747,319 747,305 748,313 749,308 750,309 751,309 752,309 753,289 754,270 755,258 756,276 756,262 757,269 758,271 759,274 760,266 761,260 762,269 763,259 764,252 765,266 765,249 766,248 767,258 768,280 769,309 770,305 771,308 772,313 773,324 773,327 774,318 775,306 776,296 777,287 778,287 779,301 780,298 781,297 782,287 782,270 783,285 784,305 785,331 786,347 787,328 788,320 789,302 790,296 790,286 791,286 792,280 793,271 794,264 795,274 796,268 797,257 798,255 799,254 799,256 800,279 801,265 802,258 803,245 804,258 805,259 806,271 807,265 807,273 808,285 809,280 810,276 811,276 812,277 813,271 814,261 815,275 816,269 816,254 817,239 818,227 819,230 820,232 821,233 822,244 823,245 824,275 825,276 825,264 826,261 827,262 828,263 829,270 830,293 831,313 832,336 833,349 833,335 834,314 835,300 836,305 837,286 838,278 839,262 840,250 841,248 842,240 842,250 843,243 844,232 845,238 846,249 847,252 848,271 849,269 850,261 850,253 851,257 852,256 853,244 854,247 855,238 856,239 857,250 858,237 859,225 859,215 860,210 861,220 862,227 863,218 864,241 865,232 866,222 867,225 868,236 868,249 869,253 870,242 871,248 872,259 873,257 874,256 875,229 876,216 876,218 877,220 878,228 879,218 880,218 881,221 882,222 883,220 884,213 885,208 885,195 886,180 887,175 888,186 889,170 890,165 891,153 892,163 893,153 893,155 894,162 895,159 896,171 897,174 898,193 899,196 900,210 901,200 902,203 902,189 903,205 904,199 905,193 906,201 907,204 908,206 909,218 910,218 910,213 911,208 912,206 913,209 914,209 915,195 916,180 917,197 918,189 919,183 919,196 920,201 921,208 922,194 923,172 924,153 925,173 926,184 927,192 928,192 928,175 929,163 930,164 931,178 932,175 933,163 934,168 935,199 936,207 936,215 937,205 938,200 939,194 940,184 941,194 942,193 943,164 944,164 945,154 945,149 946,131 947,129 948,127 949,114 950,110 951,119 952,125 953,137 953,154 954,158 955,166 956,160 957,148 958,141 959,140 960,135 961,126 962,112 962,112 963,115 964,129 965,113 966,101 967,103 968,124 969,134 970,119 971,115 971,117 972,75 973,68 973,699 974,699 974,699 78,699 "/>
<polyline fill="none" opacity="1" stroke="#E6194B" stroke-width="1" points="78,679 78,679 79,636 80,636 81,636 82,614 83,615 84,635 85,630 86,633 86,649 87,657 88,661 89,667 90,672 91,665 92,667 93,674 94,669 95,664 95,664 96,667 97,656 98,648 99,626 100,622 101,639 102,645 103,650 103,638 104,620 105,589 106,581 107,621 108,632 109,641 110,638 111,616 112,598 112,585 113,586 114,583 115,584 116,606 117,602 118,588 119,582 120,583 120,583 121,560 122,548 123,543 124,545 125,526 126,510 127,505 128,508 129,481 129,468 130,463 131,440 132,430 133,427 134,439 135,435 136,424 137,437 138,432 138,413 139,405 140,400 141,417 142,424 143,406 144,395 145,393 146,383 146,371 147,356 148,366 149,370 150,386 151,386 152,386 153,360 154,352 155,354 155,359 156,356 157,357 158,350 159,340 160,351 161,373 162,383 163,383 163,359 164,350 165,345 166,345 167,359 168,346 169,348 170,355 171,343 172,333 172,329 173,321 174,329 175,338 176,321 177,320 178,323 179,321 180,327 181,330 181,347 182,362 183,375 184,357 185,348 186,324 187,331 188,377 189,389 189,373 190,393 191,385 192,387 193,383 194,352 195,344 196,344 197,354 198,353 198,353 199,368 200,381 201,391 202,374 203,378 204,369 205,373 206,388 206,389 207,378 208,390 209,389 210,396 211,397 212,393 213,378 214,379 215,357 215,360 216,386 217,375 218,389 219,387 220,399 221,398 222,416 223,407 223,397 224,406 225,403 226,389 227,379 228,374 229,389 230,386 231,406 232,376 232,367 233,366 234,377 235,379 236,388 237,383 238,357 239,357 240,367 241,361 241,371 242,372 243,365 244,356 245,345 246,343 247,351 248,349 249,339 249,346 250,345 251,347 252,364 253,354 254,364 255,347 256,338 257,339 258,335 258,340 259,355 260,342 261,349 262,357 263,369 264,360 265,383 266,391 266,382 267,373 268,368 269,365 270,345 271,352 272,356 273,361 274,350 275,335 275,351 276,351 277,352 278,374 279,374 280,389 281,386 282,392 283,402 284,395 284,391 285,384 286,371 287,383 288,376 289,380 290,382 291,384 292,363 292,350 293,336 294,338 295,330 296,319 297,329 298,331 299,321 300,297 301,294 301,279 302,295 303,311 304,317 305,319 306,322 307,320 308,308 309,308 309,292 310,301 311,314 312,328 313,310 314,307 315,310 316,323 317,329 318,341 318,343 319,355 320,366 321,379 322,396 323,384 324,389 325,394 326,408 327,409 327,421 328,452 329,434 330,458 331,441 332,443 333,445 334,457 335,451 335,450 336,444 337,426 338,424 339,423 340,431 341,444 342,443 343,438 344,434 344,421 345,416 346,422 347,429 348,438 349,446 350,439 351,436 352,427 352,418 353,402 354,401 355,430 356,444 357,444 358,438 359,449 360,445 361,451 361,439 362,427 363,412 364,409 365,404 366,387 367,388 368,407 369,423 369,450 370,450 371,479 372,490 373,472 374,475 375,469 376,448 377,449 378,475 378,490 379,487 380,481 381,475 382,480 383,475 384,448 385,449 386,438 387,453 387,447 388,458 389,465 390,464 391,460 392,460 393,464 394,475 395,490 395,490 396,485 397,478 398,475 399,474 400,476 401,489 402,481 403,480 404,485 404,504 405,497 406,491 407,489 408,495 409,511 410,515 411,518 412,520 412,501 413,503 414,506 415,488 416,487 417,499 418,496 419,490 420,504 421,500 421,515 422,514 423,485 424,482 425,474 426,495 427,487 428,470 429,453 430,450 430,432 431,441 432,445 433,422 434,421 435,420 436,421 437,430 438,443 438,423 439,425 440,423 441,421 442,438 443,439 444,440 445,425 446,415 447,406 447,409 448,409 449,407 450,415 451,423 452,427 453,433 454,435 455,430 455,432 456,438 457,442 458,456 459,459 460,434 461,435 462,448 463,413 464,407 464,407 465,408 466,407 467,411 468,407 469,397 470,389 471,389 472,388 473,384 473,392 474,395 475,396 476,404 477,407 478,399 479,386 480,389 481,372 481,377 482,388 483,380 484,384 485,388 486,365 487,372 488,368 489,370 490,380 490,396 491,401 492,391 493,385 494,371 495,378 496,372 497,374 498,369 498,377 499,398 500,404 501,405 502,412 503,408 504,419 505,423 506,416 507,424 507,429 508,426 509,428 510,431 511,418 512,433 513,436 514,431 515,441 515,435 516,410 517,413 518,436 519,433 520,434 521,438 522,436 523,429 524,428 524,431 525,436 526,439 527,425 528,421 529,414 530,429 531,442 532,429 533,423 533,422 534,429 535,425 536,408 537,407 538,425 539,437 540,421 541,420 541,416 542,412 543,416 544,389 545,396 546,406 547,428 548,429 549,425 550,414 550,420 551,426 552,434 553,421 554,411 555,421 556,415 557,430 558,434 558,415 559,417 560,421 561,416 562,418 563,435 564,433 565,436 566,443 567,435 567,448 568,443 569,457 570,485 571,478 572,474 573,470 574,456 575,478 576,464 576,465 577,471 578,469 579,466 580,472 581,486 582,487 583,490 584,492 584,493 585,491 586,481 587,471 588,472 589,464 590,476 591,485 592,476 593,478 593,474 594,485 595,481 596,489 597,487 598,485 599,495 600,500 601,508 601,517 602,533 603,540 604,537 605,554 606,552 607,532 608,516 609,523 610,522 610,517 611,516 612,522 613,521 614,521 615,523 616,513 617,514 618,515 619,532 619,525 620,514 621,515 622,519 623,526 624,520 625,511 626,508 627,514 627,509 628,490 629,472 630,465 631,473 632,472 633,473 634,453 635,442 636,440 636,430 637,441 638,444 639,438 640,441 641,447 642,442 643,441 644,448 644,456 645,434 646,434 647,431 648,438 649,454 650,459 651,453 652,447 653,456 653,467 654,446 655,433 656,447 657,451 658,454 659,475 660,475 661,471 661,464 662,467 663,461 664,456 665,433 666,425 667,431 668,420 669,420 670,408 670,409 671,430 672,424 673,404 674,413 675,407 676,403 677,389 678,389 679,418 679,414 680,336 681,339 682,332 683,334 684,356 685,326 686,324 687,323 687,311 688,326 689,343 690,346 691,338 692,350 693,352 694,315 695,317 696,311 696,320 697,341 698,341 699,328 700,328 701,323 702,338 703,348 704,345 704,333 705,334 706,334 707,336 708,334 709,334 710,337 711,351 712,314 713,313 713,310 714,313 715,310 716,290 717,285 718,302 719,294 720,289 721,280 722,295 722,306 723,297 724,301 725,308 726,306 727,318 728,312 729,305 730,291 730,290 731,291 732,292 733,297 734,307 735,310 736,294 737,301 738,282 739,280 739,288 740,277 741,277 742,279 743,298 744,302 745,300 746,321 747,319 747,305 748,313 749,308 750,309 751,309 752,309 753,289 754,270 755,258 756,276 756,262 757,269 758,271 759,274 760,266 761,260 762,269 763,259 764,252 765,266 765,249 766,248 767,258 768,280 769,309 770,305 771,308 772,313 773,324 773,327 774,318 775,306 776,296 777,287 778,287 779,301 780,298 781,297 782,287 782,270 783,285 784,305 785,331 786,347 787,328 788,320 789,302 790,296 790,286 791,286 792,280 793,271 794,264 795,274 796,268 797,257 798,255 799,254 799,256 800,279 801,265 802,258 803,245 804,258 805,259 806,271 807,265 807,273 808,285 809,280 810,276 811,276 812,277 813,271 814,261 815,275 816,269 816,254 817,239 818,227 819,230 820,232 821,233 822,244 823,245 824,275 825,276 825,264 826,261 827,262 828,263 829,270 830,293 831,313 832,336 833,349 833,335 834,314 835,300 836,305 837,286 838,278 839,262 840,250 841,248 842,240 842,250 843,243 844,232 845,238 846,249 847,252 848,271 849,269 850,261 850,253 851,257 852,256 853,244 854,247 855,238 856,239 857,250 858,237 859,225 859,215 860,210 861,220 862,227 863,218 864,241 865,232 866,222 867,225 868,236 868,249 869,253 870,242 871,248 872,259 873,257 874,256 875,229 876,216 876,218 877,220 878,228 879,218 880,218 881,221 882,222 883,220 884,213 885,208 885,195 886,180 887,175 888,186 889,170 890,165 891,153 892,163 893,153 893,155 894,162 895,159 896,171 897,174 898,193 899,196 900,210 901,200 902,203 902,189 903,205 904,199 905,193 906,201 907,204 908,206 909,218 910,218 910,213 911,208 912,206 913,209 914,209 915,195 916,180 917,197 918,189 919,183 919,196 920,201 921,208 922,194 923,172 924,153 925,173 926,184 927,192 928,192 928,175 929,163 930,164 931,178 932,175 933,163 934,168 935,199 936,207 936,215 937,205 938,200 939,194 940,184 941,194 942,193 943,164 944,164 945,154 945,149 946,131 947,129 948,127 949,114 950,110 951,119 952,125 953,137 953,154 954,158 955,166 956,160 957,148 958,141 959,140 960,135 961,126 962,112 962,112 963,115 964,129 965,113 966,101 967,103 968,124 969,134 970,119 971,115 971,117 972,75 973,68 973,699 974,699 "/>
<line opacity="0.1" stroke="#000000" stroke-width="1" x1="83" y1="699" x2="83" y2="67"/>
<line opacity="0.1" stroke="#000000" stroke-width="1" x1="92" y1="699" x2="92" y2="67"/>
<line opacity="0.1" stroke="#000000" stroke-width="1" x1="101" y1="699" x2="101" y2="67"/>
<line opacity="0.1" stroke="#000000" stroke-width="1" x1="111" y1="699" x2="111" y2="67"/>
<line opacity="0.1" stroke="#000000" stroke-width="1" x1="120" y1="699" x2="120" y2="67"/>
<line opacity="0.1" stroke="#000000" stroke-width="1" x1="129" y1="699" x2="129" y2="67"/>
<line opacity="0.1" stroke="#000000" stroke-width="1" x1="138" y1="699" x2="138" y2="67"/>
<line opacity="0.1" stroke="#000000" stroke-width="1" x1="148" y1="699" x2="148" y2="67"/>
<line opacity="0.1" stroke="#000000" stroke-width="1" x1="157" y1="699" x2="157" y2="67"/>
<line opacity="0.1" stroke="#000000" stroke-width="1" x1="166" y1="699" x2="166" y2="67"/>
<line opacity="0.1" stroke="#000000" stroke-width="1" x1="175" y1="699" x2="175" y2="67"/>
<line opacity="0.1" stroke="#000000" stroke-width="1" x1="185" y1="699" x2="185" y2="67"/>
<line opacity="0.1" stroke="#000000" stroke-width="1" x1="194" y1="699" x2="194" y2="67"/>
<line opacity="0.1" stroke="#000000" stroke-width="1" x1="203" y1="699" x2="203" y2="67"/>
<line opacity="0.1" stroke="#000000" stroke-width="1" x1="212" y1="699" x2="212" y2="67"/>
<line opacity="0.1" stroke="#000000" stroke-width="1" x1="222" y1="699" x2="222" y2="67"/>
<line opacity="0.1" stroke="#000000" stroke-width="1" x1="231" y1="699" x2="231" y2="67"/>
<line opacity="0.1" stroke="#000000" stroke-width="1" x1="240" y1="699" x2="240" y2="67"/>
<line opacity="0.1" stroke="#000000" stroke-width="1" x1="249" y1="699" x2="249" y2="67"/>
<line opacity="0.1" stroke="#000000" stroke-width="1" x1="259" y1="699" x2="259" y2="67"/>
<line opacity="0.1" stroke="#000000" stroke-width="1" x1="268" y1="699" x2="268" y2="67"/>
<line opacity="0.1" stroke="#000000" stroke-width="1" x1="277" y1="699" x2="277" y2="67"/>
<line opacity="0.1" stroke="#000000" stroke-width="1" x1="286" y1="699" x2="286" y2="67"/>
<line opacity="0.1" stroke="#000000" stroke-width="1" x1="296" y1="699" x2="296" y2="67"/>
<line opacity="0.1" stroke="#000000" stroke-width="1" x1="305" y1="699" x2="305" y2="67"/>
<line opacity="0.1" stroke="#000000" stroke-width="1" x1="314" y1="699" x2="314" y2="67"/>
<line opacity="0.1" stroke="#000000" stroke-width="1" x1="323" y1="699" x2="323" y2="67"/>
<line opacity="0.1" stroke="#000000" stroke-width="1" x1="333" y1="699" x2="333" y2="67"/>
<line opacity="0.1" stroke="#000000" stroke-width="1" x1="342" y1="699" x2="342" y2="67"/>
<line opacity="0.1" stroke="#000000" stroke-width="1" x1="351" y1="699" x2="351" y2="67"/>
<line opacity="0.1" stroke="#000000" stroke-width="1" x1="361" y1="699" x2="361" y2="67"/>
<line opacity="0.1" stroke="#000000" stroke-width="1" x1="370" y1="699" x2="370" y2="67"/>
<line opacity="0.1" stroke="#000000" stroke-width="1" x1="379" y1="699" x2="379" y2="67"/>
<line opacity="0.1" stroke="#000000" stroke-width="1" x1="388" y1="699" x2="388" y2="67"/>
<line opacity="0.1" stroke="#000000" stroke-width="1" x1="398" y1="699" x2="398" y2="67"/>
<line opacity="0.1" stroke="#000000" stroke-width="1" x1="407" y1="699" x2="407" y2="67"/>
<line opacity="0.1" stroke="#000000" stroke-width="1" x1="416" y1="699" x2="416" y2="67"/>
<line opacity="0.1" stroke="#000000" stroke-width="1" x1="425" y1="699" x2="425" y2="67"/>
<line opacity="0.1" stroke="#000000" stroke-width="1" x1="435" y1="699" x2="435" y2="67"/>
<line opacity="0.1" stroke="#000000" stroke-width="1" x1="444" y1="699" x2="444" y2="67"/>
<line opacity="0.1" stroke="#000000" stroke-width="1" x1="453" y1="699" x2="453" y2="67"/>
<line opacity="0.1" stroke="#000000" stroke-width="1" x1="462" y1="699" x2="462" y2="67"/>
<line opacity="0.1" stroke="#000000" stroke-width="1" x1="472" y1="699" x2="472" y2="67"/>
<line opacity="0.1" stroke="#000000" stroke-width="1" x1="481" y1="699" x2="481" y2="67"/>
<line opacity="0.1" stroke="#000000" stroke-width="1" x1="490" y1="699" x2="490" y2="67"/>
<line opacity="0.1" stroke="#000000" stroke-width="1" x1="499" y1="699" x2="499" y2="67"/>
<line opacity="0.1" stroke="#000000" stroke-width="1" x1="509" y1="699" x2="509" y2="67"/>
<line opacity="0.1" stroke="#000000" stroke-width="1" x1="518" y1="699" x2="518" y2="67"/>
<line opacity="0.1" stroke="#000000" stroke-width="1" x1="527" y1="699" x2="527" y2="67"/>
<line opacity="0.1" stroke="#000000" stroke-width="1" x1="536" y1="699" x2="536" y2="67"/>
<line opacity="0.1" stroke="#000000" stroke-width="1" x1="546" y1="699" x2="546" y2="67"/>
<line opacity="0.1" stroke="#000000" stroke-width="1" x1="555" y1="699" x2="555" y2="67"/>
<line opacity="0.1" stroke="#000000" stroke-width="1" x1="564" y1="699" x2="564" y2="67"/>
<line opacity="0.1" stroke="#000000" stroke-width="1" x1="573" y1="699" x2="573" y2="67"/>
<line opacity="0.1" stroke="#000000" stroke-width="1" x1="583" y1="699" x2="583" y2="67"/>
<line opacity="0.1" stroke="#000000" stroke-width="1" x1="592" y1="699" x2="592" y2="67"/>
<line opacity="0.1" stroke="#000000" stroke-width="1" x1="601" y1="699" x2="601" y2="67"/>
<line opacity="0.1" stroke="#000000" stroke-width="1" x1="611" y1="699" x2="611" y2="67"/>
<line opacity="0.1" stroke="#000000" stroke-width="1" x1="620" y1="699" x2="620" y2="67"/>
<line opacity="0.1" stroke="#000000" stroke-width="1" x1="629" y1="699" x2="629" y2="67"/>
<line opacity="0.1" stroke="#000000" stroke-width="1" x1="638" y1="699" x2="638" y2="67"/>
<line opacity="0.1" stroke="#000000" stroke-width="1" x1="648" y1="699" x2="648" y2="67"/>
<line opacity="0.1" stroke="#000000" stroke-width="1" x1="657" y1="699" x2="657" y2="67"/>
<line opacity="0.1" stroke="#000000" stroke-width="1" x1="666" y1="699" x2="666" y2="67"/>
<line opacity="0.1" stroke="#000000" stroke-width="1" x1="675" y1="699" x2="675" y2="67"/>
<line opacity="0.1" stroke="#000000" stroke-width="1" x1="685" y1="699" x2="685" y2="67"/>
<line opacity="0.1" stroke="#000000" stroke-width="1" x1="694" y1="699" x2="694" y2="67"/>
<line opacity="0.1" stroke="#000000" stroke-width="1" x1="703" y1="699" x2="703" y2="67"/>
<line opacity="0.1" stroke="#000000" stroke-width="1" x1="712" y1="699" x2="712" y2="67"/>
<line opacity="0.1" stroke="#000000" stroke-width="1" x1="722" y1="699" x2="722" y2="67"/>
<line opacity="0.1" stroke="#000000" stroke-width="1" x1="731" y1="699" x2="731" y2="67"/>
<line opacity="0.1" stroke="#000000" stroke-width="1" x1="740" y1="699" x2="740" y2="67"/>
<line opacity="0.1" stroke="#000000" stroke-width="1" x1="749" y1="699" x2="749" y2="67"/>
<line opacity="0.1" stroke="#000000" stroke-width="1" x1="759" y1="699" x2="759" y2="67"/>
<line opacity="0.1" stroke="#000000" stroke-width="1" x1="768" y1="699" x2="768" y2="67"/>
<line opacity="0.1" stroke="#000000" stroke-width="1" x1="777" y1="699" x2="777" y2="67"/>
<line opacity="0.1" stroke="#000000" stroke-width="1" x1="786" y1="699" x2="786" y2="67"/>
<line opacity="0.1" stroke="#000000" stroke-width="1" x1="796" y1="699" x2="796" y2="67"/>
<line opacity="0.1" stroke="#000000" stroke-width="1" x1="805" y1="699" x2="805" y2="67"/>
<line opacity="0.1" stroke="#000000" stroke-width="1" x1="814" y1="699" x2="814" y2="67"/>
<line opacity="0.1" stroke="#000000" stroke-width="1" x1="824" y1="699" x2="824" y2="67"/>
<line opacity="0.1" stroke="#000000" stroke-width="1" x1="833" y1="699" x2="833" y2="67"/>
<line opacity="0.1" stroke="#000000" stroke-width="1" x1="842" y1="699" x2="842" y2="67"/>
<line opacity="0.1" stroke="#000000" stroke-width="1" x1="851" y1="699" x2="851" y2="67"/>
<line opacity="0.1" stroke="#000000" stroke-width="1" x1="861" y1="699" x2="861" y2="67"/>
<line opacity="0.1" stroke="#000000" stroke-width="1" x1="870" y1="699" x2="870" y2="67"/>
<line opacity="0.1" stroke="#000000" stroke-width="1" x1="879" y1="699" x2="879" y2="67"/>
<line opacity="0.1" stroke="#000000" stroke-width="1" x1="888" y1="699" x2="888" y2="67"/>
<line opacity="0.1" stroke="#000000" stroke-width="1" x1="898" y1="699" x2="898" y2="67"/>
<line opacity="0.1" stroke="#000000" stroke-width="1" x1="907" y1="699" x2="907" y2="67"/>
<line opacity="0.1" stroke="#000000" stroke-width="1" x1="916" y1="699" x2="916" y2="67"/>
<line opacity="0.1" stroke="#000000" stroke-width="1" x1="925" y1="699" x2="925" y2="67"/>
<line opacity="0.1" stroke="#000000" stroke-width="1" x1="935" y1="699" x2="935" y2="67"/>
<line opacity="0.1" stroke="#000000" stroke-width="1" x1="944" y1="699" x2="944" y2="67"/>
<line opacity="0.1" stroke="#000000" stroke-width="1" x1="953" y1="699" x2="953" y2="67"/>
<line opacity="0.1" stroke="#000000" stroke-width="1" x1="962" y1="699" x2="962" y2="67"/>
<line opacity="0.1" stroke="#000000" stroke-width="1" x1="972" y1="699" x2="972" y2="67"/>
<line opacity="0.1" stroke="#000000" stroke-width="1" x1="78" y1="699" x2="974" y2="699"/>
<line opacity="0.1" stroke="#000000" stroke-width="1" x1="78" y1="686" x2="974" y2="686"/>
<line opacity="0.1" stroke="#000000" stroke-width="1" x1="78" y1="674" x2="974" y2="674"/>
<line opacity="0.1" stroke="#000000" stroke-width="1" x1="78" y1="662" x2="974" y2="662"/>
<line opacity="0.1" stroke="#000000" stroke-width="1" x1="78" y1="650" x2="974" y2="650"/>
<line opacity="0.1" stroke="#000000" stroke-width="1" x1="78" y1="638" x2="974" y2="638"/>
<line opacity="0.1" stroke="#000000" stroke-width="1" x1="78" y1="626" x2="974" y2="626"/>
<line opacity="0.1" stroke="#000000" stroke-width="1" x1="78" y1="614" x2="974" y2="614"/>
<line opacity="0.1" stroke="#000000" stroke-width="1" x1="78" y1="602" x2="974" y2="602"/>
<line opacity="0.1" stroke="#000000" stroke-width="1" x1="78" y1="590" x2="974" y2="590"/>
<line opacity="0.1" stroke="#000000" stroke-width="1" x1="78" y1="578" x2="974" y2="578"/>
<line opacity="0.1" stroke="#000000" stroke-width="1" x1="78" y1="566" x2="974" y2="566"/>
<line opacity="0.1" stroke="#000000" stroke-width="1" x1="78" y1="554" x2="974" y2="554"/>
<line opacity="0.1" stroke="#000000" stroke-width="1" x1="78" y1="542" x2="974" y2="542"/>
<line opacity="0.1" stroke="#000000" stroke-width="1" x1="78" y1="530" x2="974" y2="530"/>
<line opacity="0.1" stroke="#000000" stroke-width="1" x1="78" y1="518" x2="974" y2="518"/>
<line opacity="0.1" stroke="#000000" stroke-width="1" x1="78" y1="505" x2="974" y2="505"/>
<line opacity="0.1" stroke="#000000" stroke-width="1" x1="78" y1="493" x2="974" y2="493"/>
<line opacity="0.1" stroke="#000000" stroke-width="1" x1="78" y1="481" x2="974" y2="481"/>
<line opacity="0.1" stroke="#000000" stroke-width="1" x1="78" y1="469" x2="974" y2="469"/>
<line opacity="0.1" stroke="#000000" stroke-width="1" x1="78" y1="457" x2="974" y2="457"/>
<line opacity="0.1" stroke="#000000" stroke-width="1" x1="78" y1="445" x2="974" y2="445"/>
<line opacity="0.1" stroke="#000000" stroke-width="1" x1="78" y1="433" x2="974" y2="433"/>
<line opacity="0.1" stroke="#000000" stroke-width="1" x1="78" y1="421" x2="974" y2="421"/>
<line opacity="0.1" stroke="#000000" stroke-width="1" x1="78" y1="409" x2="974" y2="409"/>
<line opacity="0.1" stroke="#000000" stroke-width="1" x1="78" y1="397" x2="974" y2="397"/>
<line opacity="0.1" stroke="#000000" stroke-width="1" x1="78" y1="385" x2="974" y2="385"/>
<line opacity="0.1" stroke="#000000" stroke-width="1" x1="78" y1="373" x2="974" y2="373"/>
<line opacity="0.1" stroke="#000000" stroke-width="1" x1="78" y1="361" x2="974" y2="361"/>
<line opacity="0.1" stroke="#000000" stroke-width="1" x1="78" y1="349" x2="974" y2="349"/>
<line opacity="0.1" stroke="#000000" stroke-width="1" x1="78" y1="337" x2="974" y2="337"/>
<line opacity="0.1" stroke="#000000" stroke-width="1" x1="78" y1="324" x2="974" y2="324"/>
<line opacity="0.1" stroke="#000000" stroke-width="1" x1="78" y1="312" x2="974" y2="312"/>
<line opacity="0.1" stroke="#000000" stroke-width="1" x1="78" y1="300" x2="974" y2="300"/>
<line opacity="0.1" stroke="#000000" stroke-width="1" x1="78" y1="288" x2="974" y2="288"/>
<line opacity="0.1" stroke="#000000" stroke-width="1" x1="78" y1="276" x2="974" y2="276"/>
<line opacity="0.1" stroke="#000000" stroke-width="1" x1="78" y1="264" x2="974" y2="264"/>
<line opacity="0.1" stroke="#000000" stroke-width="1" x1="78" y1="252" x2="974" y2="252"/>
<line opacity="0.1" stroke="#000000" stroke-width="1" x1="78" y1="240" x2="974" y2="240"/>
<line opacity="0.1" stroke="#000000" stroke-width="1" x1="78" y1="228" x2="974" y2="228"/>
<line opacity="0.1" stroke="#000000" stroke-width="1" x1="78" y1="216" x2="974" y2="216"/>
<line opacity="0.1" stroke="#000000" stroke-width="1" x1="78" y1="204" x2="974" y2="204"/>
<line opacity="0.1" stroke="#000000" stroke-width="1" x1="78" y1="192" x2="974" y2="192"/>
<line opacity="0.1" stroke="#000000" stroke-width="1" x1="78" y1="180" x2="974" y2="180"/>
<line opacity="0.1" stroke="#000000" stroke-width="1" x1="78" y1="168" x2="974" y2="168"/>
<line opacity="0.1" stroke="#000000" stroke-width="1" x1="78" y1="156" x2="974" y2="156"/>
<line opacity="0.1" stroke="#000000" stroke-width="1" x1="78" y1="143" x2="974" y2="143"/>
<line opacity="0.1" stroke="#000000" stroke-width="1" x1="78" y1="131" x2="974" y2="131"/>
<line opacity="0.1" stroke="#000000" stroke-width="1" x1="78" y1="119" x2="974" y2="119"/>
<line opacity="0.1" stroke="#000000" stroke-width="1" x1="78" y1="107" x2="974" y2="107"/>
<line opacity="0.1" stroke="#000000" stroke-width="1" x1="78" y1="95" x2="974" y2="95"/>
<line opacity="0.1" stroke="#000000" stroke-width="1" x1="78" y1="83" x2="974" y2="83"/>
<line opacity="0.1" stroke="#000000" stroke-width="1" x1="78" y1="71" x2="974" y2="71"/>
<text x="8" y="384" dy="0.76em" text-anchor="middle" font-family="sans-serif" font-size="9.67741935483871" opacity="1" fill="#000000" transform="rotate(270, 8, 384)">
Memory usage
</text>
<text x="526" y="760" dy="-0.5ex" text-anchor="middle" font-family="sans-serif" font-size="9.67741935483871" opacity="1" fill="#000000">
Time
</text>
<line opacity="0.2" stroke="#000000" stroke-width="1" x1="166" y1="699" x2="166" y2="67"/>
<line opacity="0.2" stroke="#000000" stroke-width="1" x1="259" y1="699" x2="259" y2="67"/>
<line opacity="0.2" stroke="#000000" stroke-width="1" x1="351" y1="699" x2="351" y2="67"/>
<line opacity="0.2" stroke="#000000" stroke-width="1" x1="444" y1="699" x2="444" y2="67"/>
<line opacity="0.2" stroke="#000000" stroke-width="1" x1="536" y1="699" x2="536" y2="67"/>
<line opacity="0.2" stroke="#000000" stroke-width="1" x1="629" y1="699" x2="629" y2="67"/>
<line opacity="0.2" stroke="#000000" stroke-width="1" x1="722" y1="699" x2="722" y2="67"/>
<line opacity="0.2" stroke="#000000" stroke-width="1" x1="814" y1="699" x2="814" y2="67"/>
<line opacity="0.2" stroke="#000000" stroke-width="1" x1="907" y1="699" x2="907" y2="67"/>
<line opacity="0.2" stroke="#000000" stroke-width="1" x1="78" y1="699" x2="974" y2="699"/>
<line opacity="0.2" stroke="#000000" stroke-width="1" x1="78" y1="578" x2="974" y2="578"/>
<line opacity="0.2" stroke="#000000" stroke-width="1" x1="78" y1="457" x2="974" y2="457"/>
<line opacity="0.2" stroke="#000000" stroke-width="1" x1="78" y1="337" x2="974" y2="337"/>
<line opacity="0.2" stroke="#000000" stroke-width="1" x1="78" y1="216" x2="974" y2="216"/>
<line opacity="0.2" stroke="#000000" stroke-width="1" x1="78" y1="95" x2="974" y2="95"/>
<polyline fill="none" opacity="1" stroke="#000000" stroke-width="1" points="77,68 77,700 "/>
<text x="68" y="699" dy="0.5ex" text-anchor="end" font-family="sans-serif" font-size="9.67741935483871" opacity="1" fill="#000000">
0 KB
</text>
<polyline fill="none" opacity="1" stroke="#000000" stroke-width="1" points="72,699 77,699 "/>
<text x="68" y="578" dy="0.5ex" text-anchor="end" font-family="sans-serif" font-size="9.67741935483871" opacity="1" fill="#000000">
97 KB
</text>
<polyline fill="none" opacity="1" stroke="#000000" stroke-width="1" points="72,578 77,578 "/>
<text x="68" y="457" dy="0.5ex" text-anchor="end" font-family="sans-serif" font-size="9.67741935483871" opacity="1" fill="#000000">
195 KB
</text>
<polyline fill="none" opacity="1" stroke="#000000" stroke-width="1" points="72,457 77,457 "/>
<text x="68" y="337" dy="0.5ex" text-anchor="end" font-family="sans-serif" font-size="9.67741935483871" opacity="1" fill="#000000">
292 KB
</text>
<polyline fill="none" opacity="1" stroke="#000000" stroke-width="1" points="72,337 77,337 "/>
<text x="68" y="216" dy="0.5ex" text-anchor="end" font-family="sans-serif" font-size="9.67741935483871" opacity="1" fill="#000000">
390 KB
</text>
<polyline fill="none" opacity="1" stroke="#000000" stroke-width="1" points="72,216 77,216 "/>
<text x="68" y="95" dy="0.5ex" text-anchor="end" font-family="sans-serif" font-size="9.67741935483871" opacity="1" fill="#000000">
488 KB
</text>
<polyline fill="none" opacity="1" stroke="#000000" stroke-width="1" points="72,95 77,95 "/>
<polyline fill="none" opacity="1" stroke="#000000" stroke-width="1" points="78,700 974,700 "/>
<text x="166" y="710" dy="0.76em" text-anchor="middle" font-family="sans-serif" font-size="9.67741935483871" opacity="1" fill="#000000">
06:26:08
</text>
<polyline fill="none" opacity="1" stroke="#000000" stroke-width="1" points="166,700 166,705 "/>
<text x="259" y="710" dy="0.76em" text-anchor="middle" font-family="sans-serif" font-size="9.67741935483871" opacity="1" fill="#000000">
06:26:09
</text>
<polyline fill="none" opacity="1" stroke="#000000" stroke-width="1" points="259,700 259,705 "/>
<text x="351" y="710" dy="0.76em" text-anchor="middle" font-family="sans-serif" font-size="9.67741935483871" opacity="1" fill="#000000">
06:26:10
</text>
<polyline fill="none" opacity="1" stroke="#000000" stroke-width="1" points="351,700 351,705 "/>
<text x="444" y="710" dy="0.76em" text-anchor="middle" font-family="sans-serif" font-size="9.67741935483871" opacity="1" fill="#000000">
06:26:11
</text>
<polyline fill="none" opacity="1" stroke="#000000" stroke-width="1" points="444,700 444,705 "/>
<text x="536" y="710" dy="0.76em" text-anchor="middle" font-family="sans-serif" font-size="9.67741935483871" opacity="1" fill="#000000">
06:26:12
</text>
<polyline fill="none" opacity="1" stroke="#000000" stroke-width="1" points="536,700 536,705 "/>
<text x="629" y="710" dy="0.76em" text-anchor="middle" font-family="sans-serif" font-size="9.67741935483871" opacity="1" fill="#000000">
06:26:13
</text>
<polyline fill="none" opacity="1" stroke="#000000" stroke-width="1" points="629,700 629,705 "/>
<text x="722" y="710" dy="0.76em" text-anchor="middle" font-family="sans-serif" font-size="9.67741935483871" opacity="1" fill="#000000">
06:26:14
</text>
<polyline fill="none" opacity="1" stroke="#000000" stroke-width="1" points="722,700 722,705 "/>
<text x="814" y="710" dy="0.76em" text-anchor="middle" font-family="sans-serif" font-size="9.67741935483871" opacity="1" fill="#000000">
06:26:15
</text>
<polyline fill="none" opacity="1" stroke="#000000" stroke-width="1" points="814,700 814,705 "/>
<text x="907" y="710" dy="0.76em" text-anchor="middle" font-family="sans-serif" font-size="9.67741935483871" opacity="1" fill="#000000">
06:26:16
</text>
<polyline fill="none" opacity="1" stroke="#000000" stroke-width="1" points="907,700 907,705 "/>
<polyline fill="none" opacity="1" stroke="#000000" stroke-width="1" points="78,67 974,67 "/>
<text x="166" y="58" dy="-0.5ex" text-anchor="middle" font-family="sans-serif" font-size="9.67741935483871" opacity="1" fill="#000000">
+956ms
</text>
<polyline fill="none" opacity="1" stroke="#000000" stroke-width="1" points="166,62 166,67 "/>
<text x="259" y="58" dy="-0.5ex" text-anchor="middle" font-family="sans-serif" font-size="9.67741935483871" opacity="1" fill="#000000">
+1s
</text>
<polyline fill="none" opacity="1" stroke="#000000" stroke-width="1" points="259,62 259,67 "/>
<text x="351" y="58" dy="-0.5ex" text-anchor="middle" font-family="sans-serif" font-size="9.67741935483871" opacity="1" fill="#000000">
+2s
</text>
<polyline fill="none" opacity="1" stroke="#000000" stroke-width="1" points="351,62 351,67 "/>
<text x="444" y="58" dy="-0.5ex" text-anchor="middle" font-family="sans-serif" font-size="9.67741935483871" opacity="1" fill="#000000">
+3s
</text>
<polyline fill="none" opacity="1" stroke="#000000" stroke-width="1" points="444,62 444,67 "/>
<text x="536" y="58" dy="-0.5ex" text-anchor="middle" font-family="sans-serif" font-size="9.67741935483871" opacity="1" fill="#000000">
+4s
</text>
<polyline fill="none" opacity="1" stroke="#000000" stroke-width="1" points="536,62 536,67 "/>
<text x="629" y="58" dy="-0.5ex" text-anchor="middle" font-family="sans-serif" font-size="9.67741935483871" opacity="1" fill="#000000">
+5s
</text>
<polyline fill="none" opacity="1" stroke="#000000" stroke-width="1" points="629,62 629,67 "/>
<text x="722" y="58" dy="-0.5ex" text-anchor="middle" font-family="sans-serif" font-size="9.67741935483871" opacity="1" fill="#000000">
+6s
</text>
<polyline fill="none" opacity="1" stroke="#000000" stroke-width="1" points="722,62 722,67 "/>
<text x="814" y="58" dy="-0.5ex" text-anchor="middle" font-family="sans-serif" font-size="9.67741935483871" opacity="1" fill="#000000">
+7s
</text>
<polyline fill="none" opacity="1" stroke="#000000" stroke-width="1" points="814,62 814,67 "/>
<text x="907" y="58" dy="-0.5ex" text-anchor="middle" font-family="sans-serif" font-size="9.67741935483871" opacity="1" fill="#000000">
+8s
</text>
<polyline fill="none" opacity="1" stroke="#000000" stroke-width="1" points="907,62 907,67 "/>
</svg>
