<svg width="1024" height="768" viewBox="0 0 1024 768" xmlns="http://www.w3.org/2000/svg">
<rect x="0" y="0" width="1023" height="767" opacity="1" fill="#FFFFFF" stroke="none"/>
<polygon opacity="1" fill="#E6194B" points="78,676 78,669 79,670 79,631 80,605 81,613 81,617 82,604 82,573 83,575 84,590 84,611 85,596 86,596 86,606 87,637 87,635 88,646 89,642 89,644 90,658 90,660 91,657 92,647 92,675 93,670 94,656 94,653 95,646 95,647 96,651 97,656 97,638 98,627 99,623 99,601 100,588 100,584 101,608 102,608 102,631 103,633 103,617 104,605 105,580 105,544 106,523 107,530 107,582 108,598 108,604 109,612 110,614 110,608 111,579 111,562 112,541 113,529 113,530 114,530 115,526 115,527 116,551 116,567 117,560 118,544 118,533 119,529 120,523 120,534 121,535 121,512 122,483 123,473 123,466 124,472 124,468 125,440 126,440 126,416 127,408 128,411 128,413 129,384 129,356 130,349 131,347 131,328 132,299 132,297 133,293 134,324 134,311 135,313 136,288 136,298 137,307 137,299 138,302 139,272 139,271 140,260 141,252 141,276 142,297 142,288 143,261 144,258 144,245 145,244 145,237 146,220 147,211 147,187 148,207 149,202 149,207 150,230 150,236 151,231 152,251 152,231 153,205 153,181 154,183 155,184 155,184 156,195 157,186 157,202 158,185 158,176 159,162 160,189 160,179 161,211 162,232 162,226 163,227 163,217 164,176 165,177 165,170 166,171 166,169 167,194 168,171 168,172 169,173 170,184 170,190 171,179 171,152 172,159 173,145 173,133 174,142 174,146 175,160 176,157 176,134 177,137 178,131 178,142 179,134 179,141 180,142 181,146 181,172 182,180 183,204 183,213 184,219 184,186 185,186 186,171 186,138 187,143 187,207 188,217 189,234 189,211 190,210 191,240 191,248 192,227 192,241 193,233 194,225 194,178 195,168 195,166 196,188 197,187 197,181 198,180 199,180 199,198 200,206 200,224 201,236 202,232 202,211 203,223 204,217 204,203 205,209 205,219 206,233 207,233 207,217 208,220 208,235 209,240 210,234 210,243 211,246 212,247 212,239 213,217 213,224 214,218 215,203 215,185 216,191 216,228 217,220 218,212 218,239 219,241 220,229 220,264 221,251 221,246 222,280 223,259 223,245 224,253 225,258 225,262 226,253 226,239 227,233 228,212 228,209 229,237 229,233 230,229 231,249 231,233 232,214 233,199 233,198 234,209 234,222 235,214 236,221 236,235 237,237 237,201 238,185 239,184 239,200 240,200 241,199 241,190 242,209 242,207 243,206 244,193 244,183 245,174 246,164 246,166 247,171 247,181 248,173 249,163 249,157 250,169 250,166 251,169 252,171 252,199 253,194 254,179 254,194 255,194 255,155 256,158 257,156 257,153 258,151 258,158 259,179 260,184 260,161 261,172 262,171 262,184 263,186 263,196 264,188 265,218 265,230 266,235 267,243 267,210 268,207 268,217 269,200 270,189 270,175 271,165 271,189 272,181 273,189 273,190 274,173 275,151 275,169 276,174 276,187 277,175 278,214 278,216 279,208 280,212 280,236 281,227 281,227 282,244 283,252 283,250 284,239 284,237 285,234 286,223 286,205 287,210 288,222 288,211 289,226 289,217 290,221 291,224 291,221 292,207 292,175 293,173 294,152 294,159 295,143 296,146 296,126 297,129 297,147 298,145 299,143 299,130 300,93 301,97 301,77 302,68 302,90 303,110 304,120 304,123 305,123 305,127 306,130 307,141 307,115 308,110 309,127 309,101 310,86 310,99 311,120 312,119 312,139 313,140 313,112 314,108 315,110 315,130 316,141 317,141 317,147 318,158 318,158 319,174 320,185 320,196 321,208 322,245 322,254 323,224 323,222 324,230 325,235 325,242 326,258 326,259 327,261 328,277 328,320 329,296 330,296 330,332 331,323 331,307 332,309 333,313 333,325 334,331 334,322 335,323 336,324 336,314 337,302 338,284 338,281 339,286 339,279 340,291 341,306 341,318 342,314 343,302 343,303 344,297 344,286 345,269 346,278 346,277 347,279 347,295 348,301 349,312 349,314 350,302 351,304 351,298 352,285 352,299 353,272 354,247 354,247 355,244 355,245 356,263 357,278 357,266 358,257 359,272 359,267 360,270 360,275 361,277 362,259 362,259 363,234 364,219 364,216 365,214 365,207 366,182 367,183 367,186 368,214 368,220 369,248 370,276 370,275 371,300 372,328 372,345 373,313 373,308 374,312 375,314 375,304 376,272 376,273 377,278 378,333 378,337 379,335 380,330 380,329 381,312 381,320 382,328 383,316 383,312 384,293 385,272 385,273 386,257 386,274 387,277 388,270 388,284 389,296 389,299 390,296 391,302 391,290 392,289 393,291 393,296 394,319 394,340 395,333 396,332 396,325 397,322 397,315 398,311 399,320 399,325 400,309 401,328 401,331 402,324 402,316 403,316 404,322 404,349 405,357 406,341 406,348 407,329 407,328 408,337 409,342 409,363 410,366 410,366 411,370 412,380 412,367 413,345 414,347 414,348 415,348 415,332 416,324 417,347 417,342 418,350 418,329 419,338 420,350 420,352 421,344 422,366 422,373 423,357 423,343 424,317 425,314 425,305 426,311 427,357 427,328 428,300 428,276 429,275 430,271 430,261 431,245 431,258 432,262 433,265 433,230 434,230 435,238 435,228 436,228 436,239 437,273 438,262 438,237 439,233 439,243 440,237 441,231 441,232 442,255 443,264 443,261 444,259 444,241 445,237 446,228 446,222 447,210 448,215 448,223 449,215 449,212 450,224 451,237 451,240 452,243 452,244 453,253 454,258 454,255 455,248 456,252 456,261 457,264 457,267 458,269 459,294 459,304 460,275 460,256 461,265 462,289 462,259 463,226 464,217 464,224 465,218 465,219 466,224 467,219 467,226 468,229 469,209 469,204 470,192 470,197 471,192 472,211 472,187 473,186 473,198 474,203 475,203 475,204 476,211 477,239 477,244 478,221 478,189 479,190 480,203 480,177 481,169 481,177 482,202 483,193 483,181 484,187 485,197 485,201 486,178 486,161 487,175 488,175 488,166 489,182 490,181 490,196 491,213 491,216 492,214 493,195 493,196 494,171 494,172 495,183 496,179 496,173 497,182 498,170 498,182 499,194 499,213 500,233 501,222 501,224 502,227 503,238 503,230 504,238 504,245 505,255 506,241 506,244 507,256 507,261 508,257 509,257 509,260 510,265 511,264 511,245 512,255 512,273 513,280 514,266 514,279 515,281 515,277 516,262 517,235 517,240 518,272 519,274 519,270 520,271 520,289 521,296 522,275 522,271 523,265 524,263 524,268 525,270 525,276 526,291 527,277 527,266 528,259 528,253 529,244 530,257 530,287 531,293 532,283 532,258 533,262 533,257 534,259 535,273 535,279 536,251 536,237 537,235 538,250 538,278 539,283 540,264 540,258 541,257 541,252 542,244 543,244 543,256 544,240 545,211 545,222 546,236 546,237 547,285 548,270 548,271 549,265 549,258 550,250 551,259 551,267 552,278 553,280 553,261 554,252 554,247 555,267 556,252 556,258 557,275 557,281 558,273 559,253 559,256 560,259 561,266 561,257 562,255 562,259 563,285 564,286 564,282 565,289 566,290 566,297 567,285 567,302 568,297 569,300 569,317 570,354 570,362 571,358 572,346 572,342 573,341 574,322 574,317 575,352 575,361 576,331 577,331 577,350 578,341 578,338 579,333 580,337 580,350 581,363 582,373 582,364 583,372 583,370 584,374 585,375 585,378 586,358 587,357 587,358 588,343 588,350 589,335 590,332 590,353 591,364 591,363 592,351 593,357 593,350 594,349 595,366 595,361 596,388 596,372 597,370 598,367 598,369 599,384 599,392 600,390 601,406 601,413 602,429 603,439 603,450 604,453 604,445 605,469 606,468 606,469 607,448 608,423 608,415 609,425 609,424 610,425 611,418 611,423 612,416 612,433 613,424 614,424 614,426 615,440 616,425 616,413 617,415 617,417 618,437 619,456 619,432 620,434 620,417 621,418 622,437 622,425 623,435 624,434 624,426 625,419 625,413 626,409 627,427 627,420 628,410 629,383 629,371 630,347 630,360 631,359 632,359 632,362 633,361 633,354 634,332 635,316 635,316 636,298 637,299 637,316 638,314 638,321 639,310 640,315 640,319 641,336 641,317 642,322 643,316 643,317 644,327 645,339 645,320 646,307 646,318 647,303 648,306 648,318 649,339 650,345 650,345 651,340 651,331 652,329 653,343 653,360 654,360 654,337 655,309 656,314 656,330 657,339 658,338 658,356 659,374 659,379 660,374 661,380 661,358 662,363 662,377 663,362 664,355 664,351 665,336 666,313 666,302 667,311 667,318 668,296 669,298 669,301 670,279 671,281 671,319 672,313 672,305 673,286 674,277 674,292 675,283 675,284 676,277 677,270 677,256 678,274 679,301 679,307 680,295 680,328 681,312 682,319 682,319 683,308 683,341 684,345 685,306 685,298 686,297 687,297 687,281 688,290 688,304 689,318 690,353 690,355 691,355 692,359 692,395 693,407 693,463 694,476 695,523 695,612 695,699 974,699 974,699 78,699 "/>
<polyline fill="none" opacity="1" stroke="#E6194B" stroke-width="1" points="78,676 78,669 79,670 79,631 80,605 81,613 81,617 82,604 82,573 83,575 84,590 84,611 85,596 86,596 86,606 87,637 87,635 88,646 89,642 89,644 90,658 90,660 91,657 92,647 92,675 93,670 94,656 94,653 95,646 95,647 96,651 97,656 97,638 98,627 99,623 99,601 100,588 100,584 101,608 102,608 102,631 103,633 103,617 104,605 105,580 105,544 106,523 107,530 107,582 108,598 108,604 109,612 110,614 110,608 111,579 111,562 112,541 113,529 113,530 114,530 115,526 115,527 116,551 116,567 117,560 118,544 118,533 119,529 120,523 120,534 121,535 121,512 122,483 123,473 123,466 124,472 124,468 125,440 126,440 126,416 127,408 128,411 128,413 129,384 129,356 130,349 131,347 131,328 132,299 132,297 133,293 134,324 134,311 135,313 136,288 136,298 137,307 137,299 138,302 139,272 139,271 140,260 141,252 141,276 142,297 142,288 143,261 144,258 144,245 145,244 145,237 146,220 147,211 147,187 148,207 149,202 149,207 150,230 150,236 151,231 152,251 152,231 153,205 153,181 154,183 155,184 155,184 156,195 157,186 157,202 158,185 158,176 159,162 160,189 160,179 161,211 162,232 162,226 163,227 163,217 164,176 165,177 165,170 166,171 166,169 167,194 168,171 168,172 169,173 170,184 170,190 171,179 171,152 172,159 173,145 173,133 174,142 174,146 175,160 176,157 176,134 177,137 178,131 178,142 179,134 179,141 180,142 181,146 181,172 182,180 183,204 183,213 184,219 184,186 185,186 186,171 186,138 187,143 187,207 188,217 189,234 189,211 190,210 191,240 191,248 192,227 192,241 193,233 194,225 194,178 195,168 195,166 196,188 197,187 197,181 198,180 199,180 199,198 200,206 200,224 201,236 202,232 202,211 203,223 204,217 204,203 205,209 205,219 206,233 207,233 207,217 208,220 208,235 209,240 210,234 210,243 211,246 212,247 212,239 213,217 213,224 214,218 215,203 215,185 216,191 216,228 217,220 218,212 218,239 219,241 220,229 220,264 221,251 221,246 222,280 223,259 223,245 224,253 225,258 225,262 226,253 226,239 227,233 228,212 228,209 229,237 229,233 230,229 231,249 231,233 232,214 233,199 233,198 234,209 234,222 235,214 236,221 236,235 237,237 237,201 238,185 239,184 239,200 240,200 241,199 241,190 242,209 242,207 243,206 244,193 244,183 245,174 246,164 246,166 247,171 247,181 248,173 249,163 249,157 250,169 250,166 251,169 252,171 252,199 253,194 254,179 254,194 255,194 255,155 256,158 257,156 257,153 258,151 258,158 259,179 260,184 260,161 261,172 262,171 262,184 263,186 263,196 264,188 265,218 265,230 266,235 267,243 267,210 268,207 268,217 269,200 270,189 270,175 271,165 271,189 272,181 273,189 273,190 274,173 275,151 275,169 276,174 276,187 277,175 278,214 278,216 279,208 280,212 280,236 281,227 281,227 282,244 283,252 283,250 284,239 284,237 285,234 286,223 286,205 287,210 288,222 288,211 289,226 289,217 290,221 291,224 291,221 292,207 292,175 293,173 294,152 294,159 295,143 296,146 296,126 297,129 297,147 298,145 299,143 299,130 300,93 301,97 301,77 302,68 302,90 303,110 304,120 304,123 305,123 305,127 306,130 307,141 307,115 308,110 309,127 309,101 310,86 310,99 311,120 312,119 312,139 313,140 313,112 314,108 315,110 315,130 316,141 317,141 317,147 318,158 318,158 319,174 320,185 320,196 321,208 322,245 322,254 323,224 323,222 324,230 325,235 325,242 326,258 326,259 327,261 328,277 328,320 329,296 330,296 330,332 331,323 331,307 332,309 333,313 333,325 334,331 334,322 335,323 336,324 336,314 337,302 338,284 338,281 339,286 339,279 340,291 341,306 341,318 342,314 343,302 343,303 344,297 344,286 345,269 346,278 346,277 347,279 347,295 348,301 349,312 349,314 350,302 351,304 351,298 352,285 352,299 353,272 354,247 354,247 355,244 355,245 356,263 357,278 357,266 358,257 359,272 359,267 360,270 360,275 361,277 362,259 362,259 363,234 364,219 364,216 365,214 365,207 366,182 367,183 367,186 368,214 368,220 369,248 370,276 370,275 371,300 372,328 372,345 373,313 373,308 374,312 375,314 375,304 376,272 376,273 377,278 378,333 378,337 379,335 380,330 380,329 381,312 381,320 382,328 383,316 383,312 384,293 385,272 385,273 386,257 386,274 387,277 388,270 388,284 389,296 389,299 390,296 391,302 391,290 392,289 393,291 393,296 394,319 394,340 395,333 396,332 396,325 397,322 397,315 398,311 399,320 399,325 400,309 401,328 401,331 402,324 402,316 403,316 404,322 404,349 405,357 406,341 406,348 407,329 407,328 408,337 409,342 409,363 410,366 410,366 411,370 412,380 412,367 413,345 414,347 414,348 415,348 415,332 416,324 417,347 417,342 418,350 418,329 419,338 420,350 420,352 421,344 422,366 422,373 423,357 423,343 424,317 425,314 425,305 426,311 427,357 427,328 428,300 428,276 429,275 430,271 430,261 431,245 431,258 432,262 433,265 433,230 434,230 435,238 435,228 436,228 436,239 437,273 438,262 438,237 439,233 439,243 440,237 441,231 441,232 442,255 443,264 443,261 444,259 444,241 445,237 446,228 446,222 447,210 448,215 448,223 449,215 449,212 450,224 451,237 451,240 452,243 452,244 453,253 454,258 454,255 455,248 456,252 456,261 457,264 457,267 458,269 459,294 459,304 460,275 460,256 461,265 462,289 462,259 463,226 464,217 464,224 465,218 465,219 466,224 467,219 467,226 468,229 469,209 469,204 470,192 470,197 471,192 472,211 472,187 473,186 473,198 474,203 475,203 475,204 476,211 477,239 477,244 478,221 478,189 479,190 480,203 480,177 481,169 481,177 482,202 483,193 483,181 484,187 485,197 485,201 486,178 486,161 487,175 488,175 488,166 489,182 490,181 490,196 491,213 491,216 492,214 493,195 493,196 494,171 494,172 495,183 496,179 496,173 497,182 498,170 498,182 499,194 499,213 500,233 501,222 501,224 502,227 503,238 503,230 504,238 504,245 505,255 506,241 506,244 507,256 507,261 508,257 509,257 509,260 510,265 511,264 511,245 512,255 512,273 513,280 514,266 514,279 515,281 515,277 516,262 517,235 517,240 518,272 519,274 519,270 520,271 520,289 521,296 522,275 522,271 523,265 524,263 524,268 525,270 525,276 526,291 527,277 527,266 528,259 528,253 529,244 530,257 530,287 531,293 532,283 532,258 533,262 533,257 534,259 535,273 535,279 536,251 536,237 537,235 538,250 538,278 539,283 540,264 540,258 541,257 541,252 542,244 543,244 543,256 544,240 545,211 545,222 546,236 546,237 547,285 548,270 548,271 549,265 549,258 550,250 551,259 551,267 552,278 553,280 553,261 554,252 554,247 555,267 556,252 556,258 557,275 557,281 558,273 559,253 559,256 560,259 561,266 561,257 562,255 562,259 563,285 564,286 564,282 565,289 566,290 566,297 567,285 567,302 568,297 569,300 569,317 570,354 570,362 571,358 572,346 572,342 573,341 574,322 574,317 575,352 575,361 576,331 577,331 577,350 578,341 578,338 579,333 580,337 580,350 581,363 582,373 582,364 583,372 583,370 584,374 585,375 585,378 586,358 587,357 587,358 588,343 588,350 589,335 590,332 590,353 591,364 591,363 592,351 593,357 593,350 594,349 595,366 595,361 596,388 596,372 597,370 598,367 598,369 599,384 599,392 600,390 601,406 601,413 602,429 603,439 603,450 604,453 604,445 605,469 606,468 606,469 607,448 608,423 608,415 609,425 609,424 610,425 611,418 611,423 612,416 612,433 613,424 614,424 614,426 615,440 616,425 616,413 617,415 617,417 618,437 619,456 619,432 620,434 620,417 621,418 622,437 622,425 623,435 624,434 624,426 625,419 625,413 626,409 627,427 627,420 628,410 629,383 629,371 630,347 630,360 631,359 632,359 632,362 633,361 633,354 634,332 635,316 635,316 636,298 637,299 637,316 638,314 638,321 639,310 640,315 640,319 641,336 641,317 642,322 643,316 643,317 644,327 645,339 645,320 646,307 646,318 647,303 648,306 648,318 649,339 650,345 650,345 651,340 651,331 652,329 653,343 653,360 654,360 654,337 655,309 656,314 656,330 657,339 658,338 658,356 659,374 659,379 660,374 661,380 661,358 662,363 662,377 663,362 664,355 664,351 665,336 666,313 666,302 667,311 667,318 668,296 669,298 669,301 670,279 671,281 671,319 672,313 672,305 673,286 674,277 674,292 675,283 675,284 676,277 677,270 677,256 678,274 679,301 679,307 680,295 680,328 681,312 682,319 682,319 683,308 683,341 684,345 685,306 685,298 686,297 687,297 687,281 688,290 688,304 689,318 690,353 690,355 691,355 692,359 692,395 693,407 693,463 694,476 695,523 695,612 695,699 974,699 "/>
<line opacity="0.1" stroke="#000000" stroke-width="1" x1="83" y1="699" x2="83" y2="67"/>
<line opacity="0.1" stroke="#000000" stroke-width="1" x1="92" y1="699" x2="92" y2="67"/>
<line opacity="0.1" stroke="#000000" stroke-width="1" x1="101" y1="699" x2="101" y2="67"/>
<line opacity="0.1" stroke="#000000" stroke-width="1" x1="111" y1="699" x2="111" y2="67"/>
<line opacity="0.1" stroke="#000000" stroke-width="1" x1="120" y1="699" x2="120" y2="67"/>
<line opacity="0.1" stroke="#000000" stroke-width="1" x1="129" y1="699" x2="129" y2="67"/>
<line opacity="0.1" stroke="#000000" stroke-width="1" x1="138" y1="699" x2="138" y2="67"/>
<line opacity="0.1" stroke="#000000" stroke-width="1" x1="148" y1="699" x2="148" y2="67"/>
<line opacity="0.1" stroke="#000000" stroke-width="1" x1="157" y1="699" x2="157" y2="67"/>
<line opacity="0.1" stroke="#000000" stroke-width="1" x1="166" y1="699" x2="166" y2="67"/>
<line opacity="0.1" stroke="#000000" stroke-width="1" x1="175" y1="699" x2="175" y2="67"/>
<line opacity="0.1" stroke="#000000" stroke-width="1" x1="185" y1="699" x2="185" y2="67"/>
<line opacity="0.1" stroke="#000000" stroke-width="1" x1="194" y1="699" x2="194" y2="67"/>
<line opacity="0.1" stroke="#000000" stroke-width="1" x1="203" y1="699" x2="203" y2="67"/>
<line opacity="0.1" stroke="#000000" stroke-width="1" x1="212" y1="699" x2="212" y2="67"/>
<line opacity="0.1" stroke="#000000" stroke-width="1" x1="222" y1="699" x2="222" y2="67"/>
<line opacity="0.1" stroke="#000000" stroke-width="1" x1="231" y1="699" x2="231" y2="67"/>
<line opacity="0.1" stroke="#000000" stroke-width="1" x1="240" y1="699" x2="240" y2="67"/>
<line opacity="0.1" stroke="#000000" stroke-width="1" x1="249" y1="699" x2="249" y2="67"/>
<line opacity="0.1" stroke="#000000" stroke-width="1" x1="259" y1="699" x2="259" y2="67"/>
<line opacity="0.1" stroke="#000000" stroke-width="1" x1="268" y1="699" x2="268" y2="67"/>
<line opacity="0.1" stroke="#000000" stroke-width="1" x1="277" y1="699" x2="277" y2="67"/>
<line opacity="0.1" stroke="#000000" stroke-width="1" x1="287" y1="699" x2="287" y2="67"/>
<line opacity="0.1" stroke="#000000" stroke-width="1" x1="296" y1="699" x2="296" y2="67"/>
<line opacity="0.1" stroke="#000000" stroke-width="1" x1="305" y1="699" x2="305" y2="67"/>
<line opacity="0.1" stroke="#000000" stroke-width="1" x1="314" y1="699" x2="314" y2="67"/>
<line opacity="0.1" stroke="#000000" stroke-width="1" x1="324" y1="699" x2="324" y2="67"/>
<line opacity="0.1" stroke="#000000" stroke-width="1" x1="333" y1="699" x2="333" y2="67"/>
<line opacity="0.1" stroke="#000000" stroke-width="1" x1="342" y1="699" x2="342" y2="67"/>
<line opacity="0.1" stroke="#000000" stroke-width="1" x1="351" y1="699" x2="351" y2="67"/>
<line opacity="0.1" stroke="#000000" stroke-width="1" x1="361" y1="699" x2="361" y2="67"/>
<line opacity="0.1" stroke="#000000" stroke-width="1" x1="370" y1="699" x2="370" y2="67"/>
<line opacity="0.1" stroke="#000000" stroke-width="1" x1="379" y1="699" x2="379" y2="67"/>
<line opacity="0.1" stroke="#000000" stroke-width="1" x1="388" y1="699" x2="388" y2="67"/>
<line opacity="0.1" stroke="#000000" stroke-width="1" x1="398" y1="699" x2="398" y2="67"/>
<line opacity="0.1" stroke="#000000" stroke-width="1" x1="407" y1="699" x2="407" y2="67"/>
<line opacity="0.1" stroke="#000000" stroke-width="1" x1="416" y1="699" x2="416" y2="67"/>
<line opacity="0.1" stroke="#000000" stroke-width="1" x1="425" y1="699" x2="425" y2="67"/>
<line opacity="0.1" stroke="#000000" stroke-width="1" x1="435" y1="699" x2="435" y2="67"/>
<line opacity="0.1" stroke="#000000" stroke-width="1" x1="444" y1="699" x2="444" y2="67"/>
<line opacity="0.1" stroke="#000000" stroke-width="1" x1="453" y1="699" x2="453" y2="67"/>
<line opacity="0.1" stroke="#000000" stroke-width="1" x1="462" y1="699" x2="462" y2="67"/>
<line opacity="0.1" stroke="#000000" stroke-width="1" x1="472" y1="699" x2="472" y2="67"/>
<line opacity="0.1" stroke="#000000" stroke-width="1" x1="481" y1="699" x2="481" y2="67"/>
<line opacity="0.1" stroke="#000000" stroke-width="1" x1="490" y1="699" x2="490" y2="67"/>
<line opacity="0.1" stroke="#000000" stroke-width="1" x1="499" y1="699" x2="499" y2="67"/>
<line opacity="0.1" stroke="#000000" stroke-width="1" x1="509" y1="699" x2="509" y2="67"/>
<line opacity="0.1" stroke="#000000" stroke-width="1" x1="518" y1="699" x2="518" y2="67"/>
<line opacity="0.1" stroke="#000000" stroke-width="1" x1="527" y1="699" x2="527" y2="67"/>
<line opacity="0.1" stroke="#000000" stroke-width="1" x1="537" y1="699" x2="537" y2="67"/>
<line opacity="0.1" stroke="#000000" stroke-width="1" x1="546" y1="699" x2="546" y2="67"/>
<line opacity="0.1" stroke="#000000" stroke-width="1" x1="555" y1="699" x2="555" y2="67"/>
<line opacity="0.1" stroke="#000000" stroke-width="1" x1="564" y1="699" x2="564" y2="67"/>
<line opacity="0.1" stroke="#000000" stroke-width="1" x1="574" y1="699" x2="574" y2="67"/>
<line opacity="0.1" stroke="#000000" stroke-width="1" x1="583" y1="699" x2="583" y2="67"/>
<line opacity="0.1" stroke="#000000" stroke-width="1" x1="592" y1="699" x2="592" y2="67"/>
<line opacity="0.1" stroke="#000000" stroke-width="1" x1="601" y1="699" x2="601" y2="67"/>
<line opacity="0.1" stroke="#000000" stroke-width="1" x1="611" y1="699" x2="611" y2="67"/>
<line opacity="0.1" stroke="#000000" stroke-width="1" x1="620" y1="699" x2="620" y2="67"/>
<line opacity="0.1" stroke="#000000" stroke-width="1" x1="629" y1="699" x2="629" y2="67"/>
<line opacity="0.1" stroke="#000000" stroke-width="1" x1="638" y1="699" x2="638" y2="67"/>
<line opacity="0.1" stroke="#000000" stroke-width="1" x1="648" y1="699" x2="648" y2="67"/>
<line opacity="0.1" stroke="#000000" stroke-width="1" x1="657" y1="699" x2="657" y2="67"/>
<line opacity="0.1" stroke="#000000" stroke-width="1" x1="666" y1="699" x2="666" y2="67"/>
<line opacity="0.1" stroke="#000000" stroke-width="1" x1="675" y1="699" x2="675" y2="67"/>
<line opacity="0.1" stroke="#000000" stroke-width="1" x1="685" y1="699" x2="685" y2="67"/>
<line opacity="0.1" stroke="#000000" stroke-width="1" x1="694" y1="699" x2="694" y2="67"/>
<line opacity="0.1" stroke="#000000" stroke-width="1" x1="703" y1="699" x2="703" y2="67"/>
<line opacity="0.1" stroke="#000000" stroke-width="1" x1="712" y1="699" x2="712" y2="67"/>
<line opacity="0.1" stroke="#000000" stroke-width="1" x1="722" y1="699" x2="722" y2="67"/>
<line opacity="0.1" stroke="#000000" stroke-width="1" x1="731" y1="699" x2="731" y2="67"/>
<line opacity="0.1" stroke="#000000" stroke-width="1" x1="740" y1="699" x2="740" y2="67"/>
<line opacity="0.1" stroke="#000000" stroke-width="1" x1="749" y1="699" x2="749" y2="67"/>
<line opacity="0.1" stroke="#000000" stroke-width="1" x1="759" y1="699" x2="759" y2="67"/>
<line opacity="0.1" stroke="#000000" stroke-width="1" x1="768" y1="699" x2="768" y2="67"/>
<line opacity="0.1" stroke="#000000" stroke-width="1" x1="777" y1="699" x2="777" y2="67"/>
<line opacity="0.1" stroke="#000000" stroke-width="1" x1="786" y1="699" x2="786" y2="67"/>
<line opacity="0.1" stroke="#000000" stroke-width="1" x1="796" y1="699" x2="796" y2="67"/>
<line opacity="0.1" stroke="#000000" stroke-width="1" x1="805" y1="699" x2="805" y2="67"/>
<line opacity="0.1" stroke="#000000" stroke-width="1" x1="814" y1="699" x2="814" y2="67"/>
<line opacity="0.1" stroke="#000000" stroke-width="1" x1="824" y1="699" x2="824" y2="67"/>
<line opacity="0.1" stroke="#000000" stroke-width="1" x1="833" y1="699" x2="833" y2="67"/>
<line opacity="0.1" stroke="#000000" stroke-width="1" x1="842" y1="699" x2="842" y2="67"/>
<line opacity="0.1" stroke="#000000" stroke-width="1" x1="851" y1="699" x2="851" y2="67"/>
<line opacity="0.1" stroke="#000000" stroke-width="1" x1="861" y1="699" x2="861" y2="67"/>
<line opacity="0.1" stroke="#000000" stroke-width="1" x1="870" y1="699" x2="870" y2="67"/>
<line opacity="0.1" stroke="#000000" stroke-width="1" x1="879" y1="699" x2="879" y2="67"/>
<line opacity="0.1" stroke="#000000" stroke-width="1" x1="888" y1="699" x2="888" y2="67"/>
<line opacity="0.1" stroke="#000000" stroke-width="1" x1="898" y1="699" x2="898" y2="67"/>
<line opacity="0.1" stroke="#000000" stroke-width="1" x1="907" y1="699" x2="907" y2="67"/>
<line opacity="0.1" stroke="#000000" stroke-width="1" x1="916" y1="699" x2="916" y2="67"/>
<line opacity="0.1" stroke="#000000" stroke-width="1" x1="925" y1="699" x2="925" y2="67"/>
<line opacity="0.1" stroke="#000000" stroke-width="1" x1="935" y1="699" x2="935" y2="67"/>
<line opacity="0.1" stroke="#000000" stroke-width="1" x1="944" y1="699" x2="944" y2="67"/>
<line opacity="0.1" stroke="#000000" stroke-width="1" x1="953" y1="699" x2="953" y2="67"/>
<line opacity="0.1" stroke="#000000" stroke-width="1" x1="962" y1="699" x2="962" y2="67"/>
<line opacity="0.1" stroke="#000000" stroke-width="1" x1="972" y1="699" x2="972" y2="67"/>
<line opacity="0.1" stroke="#000000" stroke-width="1" x1="78" y1="699" x2="974" y2="699"/>
<line opacity="0.1" stroke="#000000" stroke-width="1" x1="78" y1="690" x2="974" y2="690"/>
<line opacity="0.1" stroke="#000000" stroke-width="1" x1="78" y1="681" x2="974" y2="681"/>
<line opacity="0.1" stroke="#000000" stroke-width="1" x1="78" y1="672" x2="974" y2="672"/>
<line opacity="0.1" stroke="#000000" stroke-width="1" x1="78" y1="663" x2="974" y2="663"/>
<line opacity="0.1" stroke="#000000" stroke-width="1" x1="78" y1="654" x2="974" y2="654"/>
<line opacity="0.1" stroke="#000000" stroke-width="1" x1="78" y1="645" x2="974" y2="645"/>
<line opacity="0.1" stroke="#000000" stroke-width="1" x1="78" y1="636" x2="974" y2="636"/>
<line opacity="0.1" stroke="#000000" stroke-width="1" x1="78" y1="627" x2="974" y2="627"/>
<line opacity="0.1" stroke="#000000" stroke-width="1" x1="78" y1="618" x2="974" y2="618"/>
<line opacity="0.1" stroke="#000000" stroke-width="1" x1="78" y1="609" x2="974" y2="609"/>
<line opacity="0.1" stroke="#000000" stroke-width="1" x1="78" y1="600" x2="974" y2="600"/>
<line opacity="0.1" stroke="#000000" stroke-width="1" x1="78" y1="591" x2="974" y2="591"/>
<line opacity="0.1" stroke="#000000" stroke-width="1" x1="78" y1="582" x2="974" y2="582"/>
<line opacity="0.1" stroke="#000000" stroke-width="1" x1="78" y1="573" x2="974" y2="573"/>
<line opacity="0.1" stroke="#000000" stroke-width="1" x1="78" y1="564" x2="974" y2="564"/>
<line opacity="0.1" stroke="#000000" stroke-width="1" x1="78" y1="555" x2="974" y2="555"/>
<line opacity="0.1" stroke="#000000" stroke-width="1" x1="78" y1="546" x2="974" y2="546"/>
<line opacity="0.1" stroke="#000000" stroke-width="1" x1="78" y1="537" x2="974" y2="537"/>
<line opacity="0.1" stroke="#000000" stroke-width="1" x1="78" y1="528" x2="974" y2="528"/>
<line opacity="0.1" stroke="#000000" stroke-width="1" x1="78" y1="519" x2="974" y2="519"/>
<line opacity="0.1" stroke="#000000" stroke-width="1" x1="78" y1="510" x2="974" y2="510"/>
<line opacity="0.1" stroke="#000000" stroke-width="1" x1="78" y1="501" x2="974" y2="501"/>
<line opacity="0.1" stroke="#000000" stroke-width="1" x1="78" y1="492" x2="974" y2="492"/>
<line opacity="0.1" stroke="#000000" stroke-width="1" x1="78" y1="483" x2="974" y2="483"/>
<line opacity="0.1" stroke="#000000" stroke-width="1" x1="78" y1="474" x2="974" y2="474"/>
<line opacity="0.1" stroke="#000000" stroke-width="1" x1="78" y1="465" x2="974" y2="465"/>
<line opacity="0.1" stroke="#000000" stroke-width="1" x1="78" y1="456" x2="974" y2="456"/>
<line opacity="0.1" stroke="#000000" stroke-width="1" x1="78" y1="447" x2="974" y2="447"/>
<line opacity="0.1" stroke="#000000" stroke-width="1" x1="78" y1="438" x2="974" y2="438"/>
<line opacity="0.1" stroke="#000000" stroke-width="1" x1="78" y1="429" x2="974" y2="429"/>
<line opacity="0.1" stroke="#000000" stroke-width="1" x1="78" y1="420" x2="974" y2="420"/>
<line opacity="0.1" stroke="#000000" stroke-width="1" x1="78" y1="411" x2="974" y2="411"/>
<line opacity="0.1" stroke="#000000" stroke-width="1" x1="78" y1="402" x2="974" y2="402"/>
<line opacity="0.1" stroke="#000000" stroke-width="1" x1="78" y1="394" x2="974" y2="394"/>
<line opacity="0.1" stroke="#000000" stroke-width="1" x1="78" y1="385" x2="974" y2="385"/>
<line opacity="0.1" stroke="#000000" stroke-width="1" x1="78" y1="376" x2="974" y2="376"/>
<line opacity="0.1" stroke="#000000" stroke-width="1" x1="78" y1="367" x2="974" y2="367"/>
<line opacity="0.1" stroke="#000000" stroke-width="1" x1="78" y1="358" x2="974" y2="358"/>
<line opacity="0.1" stroke="#000000" stroke-width="1" x1="78" y1="349" x2="974" y2="349"/>
<line opacity="0.1" stroke="#000000" stroke-width="1" x1="78" y1="340" x2="974" y2="340"/>
<line opacity="0.1" stroke="#000000" stroke-width="1" x1="78" y1="331" x2="974" y2="331"/>
<line opacity="0.1" stroke="#000000" stroke-width="1" x1="78" y1="322" x2="974" y2="322"/>
<line opacity="0.1" stroke="#000000" stroke-width="1" x1="78" y1="313" x2="974" y2="313"/>
<line opacity="0.1" stroke="#000000" stroke-width="1" x1="78" y1="304" x2="974" y2="304"/>
<line opacity="0.1" stroke="#000000" stroke-width="1" x1="78" y1="295" x2="974" y2="295"/>
<line opacity="0.1" stroke="#000000" stroke-width="1" x1="78" y1="286" x2="974" y2="286"/>
<line opacity="0.1" stroke="#000000" stroke-width="1" x1="78" y1="277" x2="974" y2="277"/>
<line opacity="0.1" stroke="#000000" stroke-width="1" x1="78" y1="268" x2="974" y2="268"/>
<line opacity="0.1" stroke="#000000" stroke-width="1" x1="78" y1="259" x2="974" y2="259"/>
<line opacity="0.1" stroke="#000000" stroke-width="1" x1="78" y1="250" x2="974" y2="250"/>
<line opacity="0.1" stroke="#000000" stroke-width="1" x1="78" y1="241" x2="974" y2="241"/>
<line opacity="0.1" stroke="#000000" stroke-width="1" x1="78" y1="232" x2="974" y2="232"/>
<line opacity="0.1" stroke="#000000" stroke-width="1" x1="78" y1="223" x2="974" y2="223"/>
<line opacity="0.1" stroke="#000000" stroke-width="1" x1="78" y1="214" x2="974" y2="214"/>
<line opacity="0.1" stroke="#000000" stroke-width="1" x1="78" y1="205" x2="974" y2="205"/>
<line opacity="0.1" stroke="#000000" stroke-width="1" x1="78" y1="196" x2="974" y2="196"/>
<line opacity="0.1" stroke="#000000" stroke-width="1" x1="78" y1="187" x2="974" y2="187"/>
<line opacity="0.1" stroke="#000000" stroke-width="1" x1="78" y1="178" x2="974" y2="178"/>
<line opacity="0.1" stroke="#000000" stroke-width="1" x1="78" y1="169" x2="974" y2="169"/>
<line opacity="0.1" stroke="#000000" stroke-width="1" x1="78" y1="160" x2="974" y2="160"/>
<line opacity="0.1" stroke="#000000" stroke-width="1" x1="78" y1="151" x2="974" y2="151"/>
<line opacity="0.1" stroke="#000000" stroke-width="1" x1="78" y1="142" x2="974" y2="142"/>
<line opacity="0.1" stroke="#000000" stroke-width="1" x1="78" y1="133" x2="974" y2="133"/>
<line opacity="0.1" stroke="#000000" stroke-width="1" x1="78" y1="124" x2="974" y2="124"/>
<line opacity="0.1" stroke="#000000" stroke-width="1" x1="78" y1="115" x2="974" y2="115"/>
<line opacity="0.1" stroke="#000000" stroke-width="1" x1="78" y1="106" x2="974" y2="106"/>
<line opacity="0.1" stroke="#000000" stroke-width="1" x1="78" y1="98" x2="974" y2="98"/>
<line opacity="0.1" stroke="#000000" stroke-width="1" x1="78" y1="89" x2="974" y2="89"/>
<line opacity="0.1" stroke="#000000" stroke-width="1" x1="78" y1="80" x2="974" y2="80"/>
<line opacity="0.1" stroke="#000000" stroke-width="1" x1="78" y1="71" x2="974" y2="71"/>
<text x="8" y="384" dy="0.76em" text-anchor="middle" font-family="sans-serif" font-size="9.67741935483871" opacity="1" fill="#000000" transform="rotate(270, 8, 384)">
Memory usage
</text>
<text x="526" y="760" dy="-0.5ex" text-anchor="middle" font-family="sans-serif" font-size="9.67741935483871" opacity="1" fill="#000000">
Time
</text>
<line opacity="0.2" stroke="#000000" stroke-width="1" x1="166" y1="699" x2="166" y2="67"/>
<line opacity="0.2" stroke="#000000" stroke-width="1" x1="259" y1="699" x2="259" y2="67"/>
<line opacity="0.2" stroke="#000000" stroke-width="1" x1="351" y1="699" x2="351" y2="67"/>
<line opacity="0.2" stroke="#000000" stroke-width="1" x1="444" y1="699" x2="444" y2="67"/>
<line opacity="0.2" stroke="#000000" stroke-width="1" x1="537" y1="699" x2="537" y2="67"/>
<line opacity="0.2" stroke="#000000" stroke-width="1" x1="629" y1="699" x2="629" y2="67"/>
<line opacity="0.2" stroke="#000000" stroke-width="1" x1="722" y1="699" x2="722" y2="67"/>
<line opacity="0.2" stroke="#000000" stroke-width="1" x1="814" y1="699" x2="814" y2="67"/>
<line opacity="0.2" stroke="#000000" stroke-width="1" x1="907" y1="699" x2="907" y2="67"/>
<line opacity="0.2" stroke="#000000" stroke-width="1" x1="78" y1="699" x2="974" y2="699"/>
<line opacity="0.2" stroke="#000000" stroke-width="1" x1="78" y1="609" x2="974" y2="609"/>
<line opacity="0.2" stroke="#000000" stroke-width="1" x1="78" y1="519" x2="974" y2="519"/>
<line opacity="0.2" stroke="#000000" stroke-width="1" x1="78" y1="429" x2="974" y2="429"/>
<line opacity="0.2" stroke="#000000" stroke-width="1" x1="78" y1="340" x2="974" y2="340"/>
<line opacity="0.2" stroke="#000000" stroke-width="1" x1="78" y1="250" x2="974" y2="250"/>
<line opacity="0.2" stroke="#000000" stroke-width="1" x1="78" y1="160" x2="974" y2="160"/>
<line opacity="0.2" stroke="#000000" stroke-width="1" x1="78" y1="71" x2="974" y2="71"/>
<polyline fill="none" opacity="1" stroke="#000000" stroke-width="1" points="77,68 77,700 "/>
<text x="68" y="699" dy="0.5ex" text-anchor="end" font-family="sans-serif" font-size="9.67741935483871" opacity="1" fill="#000000">
0 KB
</text>
<polyline fill="none" opacity="1" stroke="#000000" stroke-width="1" points="72,699 77,699 "/>
<text x="68" y="609" dy="0.5ex" text-anchor="end" font-family="sans-serif" font-size="9.67741935483871" opacity="1" fill="#000000">
48 KB
</text>
<polyline fill="none" opacity="1" stroke="#000000" stroke-width="1" points="72,609 77,609 "/>
<text x="68" y="519" dy="0.5ex" text-anchor="end" font-family="sans-serif" font-size="9.67741935483871" opacity="1" fill="#000000">
97 KB
</text>
<polyline fill="none" opacity="1" stroke="#000000" stroke-width="1" points="72,519 77,519 "/>
<text x="68" y="429" dy="0.5ex" text-anchor="end" font-family="sans-serif" font-size="9.67741935483871" opacity="1" fill="#000000">
146 KB
</text>
<polyline fill="none" opacity="1" stroke="#000000" stroke-width="1" points="72,429 77,429 "/>
<text x="68" y="340" dy="0.5ex" text-anchor="end" font-family="sans-serif" font-size="9.67741935483871" opacity="1" fill="#000000">
195 KB
</text>
<polyline fill="none" opacity="1" stroke="#000000" stroke-width="1" points="72,340 77,340 "/>
<text x="68" y="250" dy="0.5ex" text-anchor="end" font-family="sans-serif" font-size="9.67741935483871" opacity="1" fill="#000000">
244 KB
</text>
<polyline fill="none" opacity="1" stroke="#000000" stroke-width="1" points="72,250 77,250 "/>
<text x="68" y="160" dy="0.5ex" text-anchor="end" font-family="sans-serif" font-size="9.67741935483871" opacity="1" fill="#000000">
292 KB
</text>
<polyline fill="none" opacity="1" stroke="#000000" stroke-width="1" points="72,160 77,160 "/>
<text x="68" y="71" dy="0.5ex" text-anchor="end" font-family="sans-serif" font-size="9.67741935483871" opacity="1" fill="#000000">
341 KB
</text>
<polyline fill="none" opacity="1" stroke="#000000" stroke-width="1" points="72,71 77,71 "/>
<polyline fill="none" opacity="1" stroke="#000000" stroke-width="1" points="78,700 974,700 "/>
<text x="166" y="710" dy="0.76em" text-anchor="middle" font-family="sans-serif" font-size="9.67741935483871" opacity="1" fill="#000000">
06:26:08
</text>
<polyline fill="none" opacity="1" stroke="#000000" stroke-width="1" points="166,700 166,705 "/>
<text x="259" y="710" dy="0.76em" text-anchor="middle" font-family="sans-serif" font-size="9.67741935483871" opacity="1" fill="#000000">
06:26:09
</text>
<polyline fill="none" opacity="1" stroke="#000000" stroke-width="1" points="259,700 259,705 "/>
<text x="351" y="710" dy="0.76em" text-anchor="middle" font-family="sans-serif" font-size="9.67741935483871" opacity="1" fill="#000000">
06:26:10
</text>
<polyline fill="none" opacity="1" stroke="#000000" stroke-width="1" points="351,700 351,705 "/>
<text x="444" y="710" dy="0.76em" text-anchor="middle" font-family="sans-serif" font-size="9.67741935483871" opacity="1" fill="#000000">
06:26:11
</text>
<polyline fill="none" opacity="1" stroke="#000000" stroke-width="1" points="444,700 444,705 "/>
<text x="537" y="710" dy="0.76em" text-anchor="middle" font-family="sans-serif" font-size="9.67741935483871" opacity="1" fill="#000000">
06:26:12
</text>
<polyline fill="none" opacity="1" stroke="#000000" stroke-width="1" points="537,700 537,705 "/>
<text x="629" y="710" dy="0.76em" text-anchor="middle" font-family="sans-serif" font-size="9.67741935483871" opacity="1" fill="#000000">
06:26:13
</text>
<polyline fill="none" opacity="1" stroke="#000000" stroke-width="1" points="629,700 629,705 "/>
<text x="722" y="710" dy="0.76em" text-anchor="middle" font-family="sans-serif" font-size="9.67741935483871" opacity="1" fill="#000000">
06:26:14
</text>
<polyline fill="none" opacity="1" stroke="#000000" stroke-width="1" points="722,700 722,705 "/>
<text x="814" y="710" dy="0.76em" text-anchor="middle" font-family="sans-serif" font-size="9.67741935483871" opacity="1" fill="#000000">
06:26:15
</text>
<polyline fill="none" opacity="1" stroke="#000000" stroke-width="1" points="814,700 814,705 "/>
<text x="907" y="710" dy="0.76em" text-anchor="middle" font-family="sans-serif" font-size="9.67741935483871" opacity="1" fill="#000000">
06:26:16
</text>
<polyline fill="none" opacity="1" stroke="#000000" stroke-width="1" points="907,700 907,705 "/>
<polyline fill="none" opacity="1" stroke="#000000" stroke-width="1" points="78,67 974,67 "/>
<text x="166" y="58" dy="-0.5ex" text-anchor="middle" font-family="sans-serif" font-size="9.67741935483871" opacity="1" fill="#000000">
+957ms
</text>
<polyline fill="none" opacity="1" stroke="#000000" stroke-width="1" points="166,62 166,67 "/>
<text x="259" y="58" dy="-0.5ex" text-anchor="middle" font-family="sans-serif" font-size="9.67741935483871" opacity="1" fill="#000000">
+1s
</text>
<polyline fill="none" opacity="1" stroke="#000000" stroke-width="1" points="259,62 259,67 "/>
<text x="351" y="58" dy="-0.5ex" text-anchor="middle" font-family="sans-serif" font-size="9.67741935483871" opacity="1" fill="#000000">
+2s
</text>
<polyline fill="none" opacity="1" stroke="#000000" stroke-width="1" points="351,62 351,67 "/>
<text x="444" y="58" dy="-0.5ex" text-anchor="middle" font-family="sans-serif" font-size="9.67741935483871" opacity="1" fill="#000000">
+3s
</text>
<polyline fill="none" opacity="1" stroke="#000000" stroke-width="1" points="444,62 444,67 "/>
<text x="537" y="58" dy="-0.5ex" text-anchor="middle" font-family="sans-serif" font-size="9.67741935483871" opacity="1" fill="#000000">
+4s
</text>
<polyline fill="none" opacity="1" stroke="#000000" stroke-width="1" points="537,62 537,67 "/>
<text x="629" y="58" dy="-0.5ex" text-anchor="middle" font-family="sans-serif" font-size="9.67741935483871" opacity="1" fill="#000000">
+5s
</text>
<polyline fill="none" opacity="1" stroke="#000000" stroke-width="1" points="629,62 629,67 "/>
<text x="722" y="58" dy="-0.5ex" text-anchor="middle" font-family="sans-serif" font-size="9.67741935483871" opacity="1" fill="#000000">
+6s
</text>
<polyline fill="none" opacity="1" stroke="#000000" stroke-width="1" points="722,62 722,67 "/>
<text x="814" y="58" dy="-0.5ex" text-anchor="middle" font-family="sans-serif" font-size="9.67741935483871" opacity="1" fill="#000000">
+7s
</text>
<polyline fill="none" opacity="1" stroke="#000000" stroke-width="1" points="814,62 814,67 "/>
<text x="907" y="58" dy="-0.5ex" text-anchor="middle" font-family="sans-serif" font-size="9.67741935483871" opacity="1" fill="#000000">
+8s
</text>
<polyline fill="none" opacity="1" stroke="#000000" stroke-width="1" points="907,62 907,67 "/>
</svg>
