<svg width="1024" height="768" viewBox="0 0 1024 768" xmlns="http://www.w3.org/2000/svg">
<rect x="0" y="0" width="1024" height="768" opacity="1" fill="#FFFFFF" stroke="none"/>
<polygon opacity="1" fill="#E6194B" points="78,677 78,678 79,647 79,655 80,647 81,637 81,647 82,655 82,653 83,663 84,666 84,658 85,665 86,672 86,675 87,662 87,663 88,628 89,598 89,620 90,602 91,583 91,571 92,588 92,605 93,591 94,592 94,603 95,623 96,635 96,629 97,645 97,642 98,638 99,648 99,645 100,655 101,653 101,646 102,663 102,674 103,658 104,650 104,652 105,648 106,646 106,652 107,646 107,650 108,636 109,624 109,621 110,597 111,586 111,580 112,599 112,605 113,619 114,629 114,631 115,617 116,620 116,601 117,575 117,558 118,536 119,522 119,547 120,577 121,588 121,599 122,608 122,608 123,604 124,602 124,584 125,559 126,538 126,541 127,526 127,526 128,528 129,526 129,524 130,549 131,559 131,565 132,556 132,545 133,534 134,524 134,528 135,524 136,525 136,536 137,517 137,508 138,481 139,471 139,469 140,475 141,471 141,458 142,438 142,436 143,428 144,413 144,405 145,423 146,403 146,388 147,358 147,355 148,344 149,353 149,325 150,300 151,299 151,298 152,318 152,326 153,310 154,311 154,292 155,299 156,301 156,314 157,304 157,289 158,276 159,270 159,261 160,256 161,257 161,284 162,293 162,288 163,271 164,262 164,246 165,265 166,247 166,239 167,230 167,214 168,190 169,189 169,207 170,203 171,205 171,230 172,238 172,237 173,232 174,254 174,233 175,208 176,191 176,183 177,186 177,184 178,190 179,200 179,189 180,204 181,195 181,191 182,175 182,166 183,190 184,183 184,207 185,224 186,232 186,227 187,230 187,224 188,193 189,181 189,186 190,168 191,178 191,172 192,195 192,191 193,176 194,168 194,194 195,188 196,192 196,183 197,158 197,151 198,170 199,150 199,140 200,135 201,143 201,166 202,172 202,160 203,149 204,139 204,131 205,143 206,139 206,140 207,147 207,138 208,150 209,176 209,177 210,186 211,216 211,214 212,224 212,202 213,186 214,181 214,174 215,141 216,150 216,207 217,219 217,237 218,250 219,206 219,214 220,245 221,246 221,234 222,230 222,257 223,235 224,226 224,185 225,167 226,169 226,191 227,183 227,180 228,180 229,201 229,208 230,225 231,234 231,236 232,214 232,226 233,220 234,209 234,213 235,225 236,237 236,236 237,222 237,233 238,244 239,239 239,235 240,243 241,248 241,249 242,227 242,222 243,228 244,208 244,191 245,195 246,229 246,223 247,215 247,235 248,242 249,231 249,263 250,253 251,250 251,274 252,261 252,247 253,255 254,265 254,257 255,254 256,230 256,222 257,211 257,220 258,234 259,234 259,234 260,246 261,217 261,200 262,201 262,204 263,224 264,214 264,226 265,234 266,234 266,193 267,187 267,188 268,217 269,202 269,193 270,208 271,213 271,208 272,198 272,185 273,176 274,169 274,167 275,176 276,183 276,177 277,165 277,162 278,169 279,173 279,173 280,190 281,200 281,185 282,195 282,196 283,170 284,158 284,152 285,165 286,156 286,170 287,184 287,182 288,164 289,174 289,178 290,187 291,200 291,194 292,201 292,229 293,233 294,242 294,225 295,211 296,223 296,203 297,197 297,177 298,171 299,198 299,182 300,193 301,193 301,175 302,154 302,168 303,176 304,185 304,181 305,214 306,210 306,208 307,214 307,232 308,233 309,234 309,252 310,254 311,255 311,242 312,232 312,224 313,210 314,214 314,222 315,212 316,230 316,220 317,239 317,224 318,222 319,189 319,175 320,155 321,156 321,158 322,145 322,139 323,130 324,145 324,151 325,145 326,132 326,99 327,105 327,85 328,68 329,90 329,107 330,124 330,134 331,124 332,126 332,133 333,132 334,116 334,134 335,112 335,90 336,91 337,105 337,128 338,125 339,145 339,141 340,117 340,111 341,117 342,140 342,215 343,317 344,392 344,464 345,508 345,534 346,564 347,588 347,600 348,607 349,640 349,647 350,648 350,648 351,648 352,648 352,648 353,648 354,648 354,648 355,648 355,648 356,650 357,650 357,651 358,651 359,652 359,652 360,653 360,653 361,653 362,653 362,653 363,653 364,653 364,653 365,653 365,653 366,653 367,653 367,653 368,653 369,653 369,653 370,653 370,653 371,653 372,653 372,653 373,653 374,653 374,653 375,653 375,653 376,653 377,653 377,653 378,653 379,653 379,653 380,653 380,653 381,653 382,653 382,653 383,676 384,676 384,676 385,676 385,676 386,676 387,676 387,676 388,676 389,676 389,676 390,676 390,676 391,676 392,676 392,676 393,676 394,676 394,676 395,676 395,676 396,676 397,676 397,676 398,676 399,676 399,676 400,676 400,676 401,676 402,676 402,676 403,676 404,676 404,676 405,676 405,676 406,676 407,676 407,676 408,676 409,676 409,676 410,676 410,676 411,676 412,676 412,676 413,676 414,676 414,676 415,676 415,676 416,676 417,676 417,676 418,676 419,676 419,676 420,676 420,676 421,676 422,676 422,676 423,676 424,681 424,681 425,681 425,681 426,681 427,681 427,681 428,681 429,681 429,681 430,681 430,681 431,681 432,681 432,681 433,681 434,681 434,681 435,681 435,681 436,681 437,681 437,681 438,681 439,681 439,681 440,681 440,681 441,681 442,681 442,681 443,681 444,681 444,681 445,681 445,681 446,681 447,681 447,681 448,681 449,681 449,681 450,681 450,681 451,681 452,681 452,681 453,681 454,681 454,681 455,681 455,681 456,681 457,681 457,681 458,681 459,681 459,681 460,681 460,681 461,681 462,681 462,681 463,681 464,681 464,681 465,681 465,681 466,681 467,681 467,681 468,681 469,681 469,681 470,681 470,681 471,681 472,681 472,681 473,681 474,681 474,681 475,681 475,681 476,681 477,681 477,681 478,681 479,681 479,681 480,681 480,681 481,681 482,681 482,681 483,681 484,681 484,681 485,681 485,681 486,681 487,681 487,681 488,681 489,681 489,681 490,681 490,681 491,681 492,681 492,681 493,681 494,681 494,681 495,681 495,681 496,681 497,681 497,681 498,681 499,681 499,681 500,681 500,681 501,681 502,681 502,681 503,681 504,681 504,681 505,681 505,681 506,681 507,681 507,681 508,681 509,681 509,681 510,681 510,681 511,681 512,681 512,681 513,681 514,681 514,681 515,681 515,681 516,681 517,681 517,681 518,681 519,681 519,681 520,681 520,681 521,681 522,681 522,681 523,681 524,681 524,681 525,681 525,682 526,682 527,682 527,682 528,682 529,682 529,682 530,683 530,683 531,683 532,683 532,683 533,683 534,683 534,683 535,683 535,683 536,683 537,683 537,683 538,683 539,683 539,683 540,683 540,683 541,684 542,684 542,684 543,684 544,684 544,684 545,684 545,684 546,684 547,685 547,685 548,685 549,685 549,685 550,685 550,685 551,685 552,685 552,686 553,686 554,686 554,686 555,686 555,686 556,686 557,686 557,686 558,686 559,687 559,687 560,687 560,687 561,687 562,687 562,687 563,687 564,687 564,687 565,687 565,687 566,687 567,687 567,687 568,687 569,687 569,687 570,687 570,687 571,687 572,688 572,688 573,688 574,688 574,688 575,688 575,689 576,689 577,689 577,689 578,689 578,689 579,689 580,689 580,689 581,689 582,689 582,689 583,689 583,689 584,689 585,689 585,689 586,689 587,689 587,689 588,689 588,690 589,690 590,690 590,690 591,690 592,690 592,690 593,690 593,690 594,690 595,690 595,690 596,690 597,690 597,690 598,690 598,690 599,690 600,690 600,690 601,690 602,690 602,690 603,690 603,690 604,690 605,690 605,691 606,691 607,691 607,691 608,691 608,691 609,691 610,691 610,691 611,691 612,691 612,691 613,691 613,692 614,692 615,692 615,692 616,692 617,692 617,692 618,692 618,692 619,692 620,692 620,692 621,692 622,693 622,693 623,693 623,693 624,693 625,693 625,693 626,693 627,693 627,693 628,693 628,693 629,693 630,693 630,693 631,693 632,693 632,693 633,693 633,693 634,693 635,693 635,693 636,693 637,693 637,693 638,693 638,694 639,694 640,694 640,694 641,694 642,694 642,694 643,694 643,694 644,694 645,694 645,695 646,695 647,695 647,695 648,695 648,695 649,695 650,695 650,695 651,695 652,695 652,695 653,695 653,695 654,695 655,695 655,696 656,696 657,696 657,696 658,696 658,696 659,696 660,696 660,696 661,696 662,696 662,696 663,696 663,696 664,696 665,696 665,696 666,696 667,696 667,696 668,696 668,696 669,696 670,696 670,696 671,697 672,697 672,697 673,697 673,697 674,697 675,697 675,697 676,697 677,697 677,697 678,697 678,697 679,697 680,697 680,697 681,697 682,697 682,697 683,697 683,697 684,697 685,697 685,697 686,697 687,697 687,697 688,697 688,697 689,697 690,698 690,698 691,698 692,698 692,698 693,698 693,698 694,698 695,698 695,698 696,698 697,698 697,698 698,698 698,698 699,698 700,698 700,698 701,698 702,698 702,699 702,699 973,699 973,699 78,699 "/>
<polyline fill="none" opacity="1" stroke="#E6194B" stroke-width="1" points="78,677 78,678 79,647 79,655 80,647 81,637 81,647 82,655 82,653 83,663 84,666 84,658 85,665 86,672 86,675 87,662 87,663 88,628 89,598 89,620 90,602 91,583 91,571 92,588 92,605 93,591 94,592 94,603 95,623 96,635 96,629 97,645 97,642 98,638 99,648 99,645 100,655 101,653 101,646 102,663 102,674 103,658 104,650 104,652 105,648 106,646 106,652 107,646 107,650 108,636 109,624 109,621 110,597 111,586 111,580 112,599 112,605 113,619 114,629 114,631 115,617 116,620 116,601 117,575 117,558 118,536 119,522 119,547 120,577 121,588 121,599 122,608 122,608 123,604 124,602 124,584 125,559 126,538 126,541 127,526 127,526 128,528 129,526 129,524 130,549 131,559 131,565 132,556 132,545 133,534 134,524 134,528 135,524 136,525 136,536 137,517 137,508 138,481 139,471 139,469 140,475 141,471 141,458 142,438 142,436 143,428 144,413 144,405 145,423 146,403 146,388 147,358 147,355 148,344 149,353 149,325 150,300 151,299 151,298 152,318 152,326 153,310 154,311 154,292 155,299 156,301 156,314 157,304 157,289 158,276 159,270 159,261 160,256 161,257 161,284 162,293 162,288 163,271 164,262 164,246 165,265 166,247 166,239 167,230 167,214 168,190 169,189 169,207 170,203 171,205 171,230 172,238 172,237 173,232 174,254 174,233 175,208 176,191 176,183 177,186 177,184 178,190 179,200 179,189 180,204 181,195 181,191 182,175 182,166 183,190 184,183 184,207 185,224 186,232 186,227 187,230 187,224 188,193 189,181 189,186 190,168 191,178 191,172 192,195 192,191 193,176 194,168 194,194 195,188 196,192 196,183 197,158 197,151 198,170 199,150 199,140 200,135 201,143 201,166 202,172 202,160 203,149 204,139 204,131 205,143 206,139 206,140 207,147 207,138 208,150 209,176 209,177 210,186 211,216 211,214 212,224 212,202 213,186 214,181 214,174 215,141 216,150 216,207 217,219 217,237 218,250 219,206 219,214 220,245 221,246 221,234 222,230 222,257 223,235 224,226 224,185 225,167 226,169 226,191 227,183 227,180 228,180 229,201 229,208 230,225 231,234 231,236 232,214 232,226 233,220 234,209 234,213 235,225 236,237 236,236 237,222 237,233 238,244 239,239 239,235 240,243 241,248 241,249 242,227 242,222 243,228 244,208 244,191 245,195 246,229 246,223 247,215 247,235 248,242 249,231 249,263 250,253 251,250 251,274 252,261 252,247 253,255 254,265 254,257 255,254 256,230 256,222 257,211 257,220 258,234 259,234 259,234 260,246 261,217 261,200 262,201 262,204 263,224 264,214 264,226 265,234 266,234 266,193 267,187 267,188 268,217 269,202 269,193 270,208 271,213 271,208 272,198 272,185 273,176 274,169 274,167 275,176 276,183 276,177 277,165 277,162 278,169 279,173 279,173 280,190 281,200 281,185 282,195 282,196 283,170 284,158 284,152 285,165 286,156 286,170 287,184 287,182 288,164 289,174 289,178 290,187 291,200 291,194 292,201 292,229 293,233 294,242 294,225 295,211 296,223 296,203 297,197 297,177 298,171 299,198 299,182 300,193 301,193 301,175 302,154 302,168 303,176 304,185 304,181 305,214 306,210 306,208 307,214 307,232 308,233 309,234 309,252 310,254 311,255 311,242 312,232 312,224 313,210 314,214 314,222 315,212 316,230 316,220 317,239 317,224 318,222 319,189 319,175 320,155 321,156 321,158 322,145 322,139 323,130 324,145 324,151 325,145 326,132 326,99 327,105 327,85 328,68 329,90 329,107 330,124 330,134 331,124 332,126 332,133 333,132 334,116 334,134 335,112 335,90 336,91 337,105 337,128 338,125 339,145 339,141 340,117 340,111 341,117 342,140 342,215 343,317 344,392 344,464 345,508 345,534 346,564 347,588 347,600 348,607 349,640 349,647 350,648 350,648 351,648 352,648 352,648 353,648 354,648 354,648 355,648 355,648 356,650 357,650 357,651 358,651 359,652 359,652 360,653 360,653 361,653 362,653 362,653 363,653 364,653 364,653 365,653 365,653 366,653 367,653 367,653 368,653 369,653 369,653 370,653 370,653 371,653 372,653 372,653 373,653 374,653 374,653 375,653 375,653 376,653 377,653 377,653 378,653 379,653 379,653 380,653 380,653 381,653 382,653 382,653 383,676 384,676 384,676 385,676 385,676 386,676 387,676 387,676 388,676 389,676 389,676 390,676 390,676 391,676 392,676 392,676 393,676 394,676 394,676 395,676 395,676 396,676 397,676 397,676 398,676 399,676 399,676 400,676 400,676 401,676 402,676 402,676 403,676 404,676 404,676 405,676 405,676 406,676 407,676 407,676 408,676 409,676 409,676 410,676 410,676 411,676 412,676 412,676 413,676 414,676 414,676 415,676 415,676 416,676 417,676 417,676 418,676 419,676 419,676 420,676 420,676 421,676 422,676 422,676 423,676 424,681 424,681 425,681 425,681 426,681 427,681 427,681 428,681 429,681 429,681 430,681 430,681 431,681 432,681 432,681 433,681 434,681 434,681 435,681 435,681 436,681 437,681 437,681 438,681 439,681 439,681 440,681 440,681 441,681 442,681 442,681 443,681 444,681 444,681 445,681 445,681 446,681 447,681 447,681 448,681 449,681 449,681 450,681 450,681 451,681 452,681 452,681 453,681 454,681 454,681 455,681 455,681 456,681 457,681 457,681 458,681 459,681 459,681 460,681 460,681 461,681 462,681 462,681 463,681 464,681 464,681 465,681 465,681 466,681 467,681 467,681 468,681 469,681 469,681 470,681 470,681 471,681 472,681 472,681 473,681 474,681 474,681 475,681 475,681 476,681 477,681 477,681 478,681 479,681 479,681 480,681 480,681 481,681 482,681 482,681 483,681 484,681 484,681 485,681 485,681 486,681 487,681 487,681 488,681 489,681 489,681 490,681 490,681 491,681 492,681 492,681 493,681 494,681 494,681 495,681 495,681 496,681 497,681 497,681 498,681 499,681 499,681 500,681 500,681 501,681 502,681 502,681 503,681 504,681 504,681 505,681 505,681 506,681 507,681 507,681 508,681 509,681 509,681 510,681 510,681 511,681 512,681 512,681 513,681 514,681 514,681 515,681 515,681 516,681 517,681 517,681 518,681 519,681 519,681 520,681 520,681 521,681 522,681 522,681 523,681 524,681 524,681 525,681 525,682 526,682 527,682 527,682 528,682 529,682 529,682 530,683 530,683 531,683 532,683 532,683 533,683 534,683 534,683 535,683 535,683 536,683 537,683 537,683 538,683 539,683 539,683 540,683 540,683 541,684 542,684 542,684 543,684 544,684 544,684 545,684 545,684 546,684 547,685 547,685 548,685 549,685 549,685 550,685 550,685 551,685 552,685 552,686 553,686 554,686 554,686 555,686 555,686 556,686 557,686 557,686 558,686 559,687 559,687 560,687 560,687 561,687 562,687 562,687 563,687 564,687 564,687 565,687 565,687 566,687 567,687 567,687 568,687 569,687 569,687 570,687 570,687 571,687 572,688 572,688 573,688 574,688 574,688 575,688 575,689 576,689 577,689 577,689 578,689 578,689 579,689 580,689 580,689 581,689 582,689 582,689 583,689 583,689 584,689 585,689 585,689 586,689 587,689 587,689 588,689 588,690 589,690 590,690 590,690 591,690 592,690 592,690 593,690 593,690 594,690 595,690 595,690 596,690 597,690 597,690 598,690 598,690 599,690 600,690 600,690 601,690 602,690 602,690 603,690 603,690 604,690 605,690 605,691 606,691 607,691 607,691 608,691 608,691 609,691 610,691 610,691 611,691 612,691 612,691 613,691 613,692 614,692 615,692 615,692 616,692 617,692 617,692 618,692 618,692 619,692 620,692 620,692 621,692 622,693 622,693 623,693 623,693 624,693 625,693 625,693 626,693 627,693 627,693 628,693 628,693 629,693 630,693 630,693 631,693 632,693 632,693 633,693 633,693 634,693 635,693 635,693 636,693 637,693 637,693 638,693 638,694 639,694 640,694 640,694 641,694 642,694 642,694 643,694 643,694 644,694 645,694 645,695 646,695 647,695 647,695 648,695 648,695 649,695 650,695 650,695 651,695 652,695 652,695 653,695 653,695 654,695 655,695 655,696 656,696 657,696 657,696 658,696 658,696 659,696 660,696 660,696 661,696 662,696 662,696 663,696 663,696 664,696 665,696 665,696 666,696 667,696 667,696 668,696 668,696 669,696 670,696 670,696 671,697 672,697 672,697 673,697 673,697 674,697 675,697 675,697 676,697 677,697 677,697 678,697 678,697 679,697 680,697 680,697 681,697 682,697 682,697 683,697 683,697 684,697 685,697 685,697 686,697 687,697 687,697 688,697 688,697 689,697 690,698 690,698 691,698 692,698 692,698 693,698 693,698 694,698 695,698 695,698 696,698 697,698 697,698 698,698 698,698 699,698 700,698 700,698 701,698 702,698 702,699 702,699 973,699 "/>
<line opacity="0.1" stroke="#000000" stroke-width="1" x1="78" y1="699" x2="78" y2="68"/>
<line opacity="0.1" stroke="#000000" stroke-width="1" x1="87" y1="699" x2="87" y2="68"/>
<line opacity="0.1" stroke="#000000" stroke-width="1" x1="96" y1="699" x2="96" y2="68"/>
<line opacity="0.1" stroke="#000000" stroke-width="1" x1="105" y1="699" x2="105" y2="68"/>
<line opacity="0.1" stroke="#000000" stroke-width="1" x1="114" y1="699" x2="114" y2="68"/>
<line opacity="0.1" stroke="#000000" stroke-width="1" x1="123" y1="699" x2="123" y2="68"/>
<line opacity="0.1" stroke="#000000" stroke-width="1" x1="131" y1="699" x2="131" y2="68"/>
<line opacity="0.1" stroke="#000000" stroke-width="1" x1="140" y1="699" x2="140" y2="68"/>
<line opacity="0.1" stroke="#000000" stroke-width="1" x1="149" y1="699" x2="149" y2="68"/>
<line opacity="0.1" stroke="#000000" stroke-width="1" x1="158" y1="699" x2="158" y2="68"/>
<line opacity="0.1" stroke="#000000" stroke-width="1" x1="167" y1="699" x2="167" y2="68"/>
<line opacity="0.1" stroke="#000000" stroke-width="1" x1="176" y1="699" x2="176" y2="68"/>
<line opacity="0.1" stroke="#000000" stroke-width="1" x1="185" y1="699" x2="185" y2="68"/>
<line opacity="0.1" stroke="#000000" stroke-width="1" x1="194" y1="699" x2="194" y2="68"/>
<line opacity="0.1" stroke="#000000" stroke-width="1" x1="203" y1="699" x2="203" y2="68"/>
<line opacity="0.1" stroke="#000000" stroke-width="1" x1="212" y1="699" x2="212" y2="68"/>
<line opacity="0.1" stroke="#000000" stroke-width="1" x1="221" y1="699" x2="221" y2="68"/>
<line opacity="0.1" stroke="#000000" stroke-width="1" x1="230" y1="699" x2="230" y2="68"/>
<line opacity="0.1" stroke="#000000" stroke-width="1" x1="239" y1="699" x2="239" y2="68"/>
<line opacity="0.1" stroke="#000000" stroke-width="1" x1="248" y1="699" x2="248" y2="68"/>
<line opacity="0.1" stroke="#000000" stroke-width="1" x1="257" y1="699" x2="257" y2="68"/>
<line opacity="0.1" stroke="#000000" stroke-width="1" x1="266" y1="699" x2="266" y2="68"/>
<line opacity="0.1" stroke="#000000" stroke-width="1" x1="275" y1="699" x2="275" y2="68"/>
<line opacity="0.1" stroke="#000000" stroke-width="1" x1="284" y1="699" x2="284" y2="68"/>
<line opacity="0.1" stroke="#000000" stroke-width="1" x1="293" y1="699" x2="293" y2="68"/>
<line opacity="0.1" stroke="#000000" stroke-width="1" x1="301" y1="699" x2="301" y2="68"/>
<line opacity="0.1" stroke="#000000" stroke-width="1" x1="310" y1="699" x2="310" y2="68"/>
<line opacity="0.1" stroke="#000000" stroke-width="1" x1="319" y1="699" x2="319" y2="68"/>
<line opacity="0.1" stroke="#000000" stroke-width="1" x1="328" y1="699" x2="328" y2="68"/>
<line opacity="0.1" stroke="#000000" stroke-width="1" x1="337" y1="699" x2="337" y2="68"/>
<line opacity="0.1" stroke="#000000" stroke-width="1" x1="346" y1="699" x2="346" y2="68"/>
<line opacity="0.1" stroke="#000000" stroke-width="1" x1="355" y1="699" x2="355" y2="68"/>
<line opacity="0.1" stroke="#000000" stroke-width="1" x1="364" y1="699" x2="364" y2="68"/>
<line opacity="0.1" stroke="#000000" stroke-width="1" x1="373" y1="699" x2="373" y2="68"/>
<line opacity="0.1" stroke="#000000" stroke-width="1" x1="382" y1="699" x2="382" y2="68"/>
<line opacity="0.1" stroke="#000000" stroke-width="1" x1="391" y1="699" x2="391" y2="68"/>
<line opacity="0.1" stroke="#000000" stroke-width="1" x1="400" y1="699" x2="400" y2="68"/>
<line opacity="0.1" stroke="#000000" stroke-width="1" x1="409" y1="699" x2="409" y2="68"/>
<line opacity="0.1" stroke="#000000" stroke-width="1" x1="418" y1="699" x2="418" y2="68"/>
<line opacity="0.1" stroke="#000000" stroke-width="1" x1="427" y1="699" x2="427" y2="68"/>
<line opacity="0.1" stroke="#000000" stroke-width="1" x1="436" y1="699" x2="436" y2="68"/>
<line opacity="0.1" stroke="#000000" stroke-width="1" x1="445" y1="699" x2="445" y2="68"/>
<line opacity="0.1" stroke="#000000" stroke-width="1" x1="454" y1="699" x2="454" y2="68"/>
<line opacity="0.1" stroke="#000000" stroke-width="1" x1="463" y1="699" x2="463" y2="68"/>
<line opacity="0.1" stroke="#000000" stroke-width="1" x1="471" y1="699" x2="471" y2="68"/>
<line opacity="0.1" stroke="#000000" stroke-width="1" x1="480" y1="699" x2="480" y2="68"/>
<line opacity="0.1" stroke="#000000" stroke-width="1" x1="489" y1="699" x2="489" y2="68"/>
<line opacity="0.1" stroke="#000000" stroke-width="1" x1="498" y1="699" x2="498" y2="68"/>
<line opacity="0.1" stroke="#000000" stroke-width="1" x1="507" y1="699" x2="507" y2="68"/>
<line opacity="0.1" stroke="#000000" stroke-width="1" x1="516" y1="699" x2="516" y2="68"/>
<line opacity="0.1" stroke="#000000" stroke-width="1" x1="525" y1="699" x2="525" y2="68"/>
<line opacity="0.1" stroke="#000000" stroke-width="1" x1="534" y1="699" x2="534" y2="68"/>
<line opacity="0.1" stroke="#000000" stroke-width="1" x1="543" y1="699" x2="543" y2="68"/>
<line opacity="0.1" stroke="#000000" stroke-width="1" x1="552" y1="699" x2="552" y2="68"/>
<line opacity="0.1" stroke="#000000" stroke-width="1" x1="561" y1="699" x2="561" y2="68"/>
<line opacity="0.1" stroke="#000000" stroke-width="1" x1="570" y1="699" x2="570" y2="68"/>
<line opacity="0.1" stroke="#000000" stroke-width="1" x1="579" y1="699" x2="579" y2="68"/>
<line opacity="0.1" stroke="#000000" stroke-width="1" x1="588" y1="699" x2="588" y2="68"/>
<line opacity="0.1" stroke="#000000" stroke-width="1" x1="597" y1="699" x2="597" y2="68"/>
<line opacity="0.1" stroke="#000000" stroke-width="1" x1="606" y1="699" x2="606" y2="68"/>
<line opacity="0.1" stroke="#000000" stroke-width="1" x1="615" y1="699" x2="615" y2="68"/>
<line opacity="0.1" stroke="#000000" stroke-width="1" x1="624" y1="699" x2="624" y2="68"/>
<line opacity="0.1" stroke="#000000" stroke-width="1" x1="633" y1="699" x2="633" y2="68"/>
<line opacity="0.1" stroke="#000000" stroke-width="1" x1="641" y1="699" x2="641" y2="68"/>
<line opacity="0.1" stroke="#000000" stroke-width="1" x1="650" y1="699" x2="650" y2="68"/>
<line opacity="0.1" stroke="#000000" stroke-width="1" x1="659" y1="699" x2="659" y2="68"/>
<line opacity="0.1" stroke="#000000" stroke-width="1" x1="668" y1="699" x2="668" y2="68"/>
<line opacity="0.1" stroke="#000000" stroke-width="1" x1="677" y1="699" x2="677" y2="68"/>
<line opacity="0.1" stroke="#000000" stroke-width="1" x1="686" y1="699" x2="686" y2="68"/>
<line opacity="0.1" stroke="#000000" stroke-width="1" x1="695" y1="699" x2="695" y2="68"/>
<line opacity="0.1" stroke="#000000" stroke-width="1" x1="704" y1="699" x2="704" y2="68"/>
<line opacity="0.1" stroke="#000000" stroke-width="1" x1="713" y1="699" x2="713" y2="68"/>
<line opacity="0.1" stroke="#000000" stroke-width="1" x1="722" y1="699" x2="722" y2="68"/>
<line opacity="0.1" stroke="#000000" stroke-width="1" x1="731" y1="699" x2="731" y2="68"/>
<line opacity="0.1" stroke="#000000" stroke-width="1" x1="740" y1="699" x2="740" y2="68"/>
<line opacity="0.1" stroke="#000000" stroke-width="1" x1="749" y1="699" x2="749" y2="68"/>
<line opacity="0.1" stroke="#000000" stroke-width="1" x1="758" y1="699" x2="758" y2="68"/>
<line opacity="0.1" stroke="#000000" stroke-width="1" x1="767" y1="699" x2="767" y2="68"/>
<line opacity="0.1" stroke="#000000" stroke-width="1" x1="776" y1="699" x2="776" y2="68"/>
<line opacity="0.1" stroke="#000000" stroke-width="1" x1="785" y1="699" x2="785" y2="68"/>
<line opacity="0.1" stroke="#000000" stroke-width="1" x1="794" y1="699" x2="794" y2="68"/>
<line opacity="0.1" stroke="#000000" stroke-width="1" x1="803" y1="699" x2="803" y2="68"/>
<line opacity="0.1" stroke="#000000" stroke-width="1" x1="811" y1="699" x2="811" y2="68"/>
<line opacity="0.1" stroke="#000000" stroke-width="1" x1="820" y1="699" x2="820" y2="68"/>
<line opacity="0.1" stroke="#000000" stroke-width="1" x1="829" y1="699" x2="829" y2="68"/>
<line opacity="0.1" stroke="#000000" stroke-width="1" x1="838" y1="699" x2="838" y2="68"/>
<line opacity="0.1" stroke="#000000" stroke-width="1" x1="847" y1="699" x2="847" y2="68"/>
<line opacity="0.1" stroke="#000000" stroke-width="1" x1="856" y1="699" x2="856" y2="68"/>
<line opacity="0.1" stroke="#000000" stroke-width="1" x1="865" y1="699" x2="865" y2="68"/>
<line opacity="0.1" stroke="#000000" stroke-width="1" x1="874" y1="699" x2="874" y2="68"/>
<line opacity="0.1" stroke="#000000" stroke-width="1" x1="883" y1="699" x2="883" y2="68"/>
<line opacity="0.1" stroke="#000000" stroke-width="1" x1="892" y1="699" x2="892" y2="68"/>
<line opacity="0.1" stroke="#000000" stroke-width="1" x1="901" y1="699" x2="901" y2="68"/>
<line opacity="0.1" stroke="#000000" stroke-width="1" x1="910" y1="699" x2="910" y2="68"/>
<line opacity="0.1" stroke="#000000" stroke-width="1" x1="919" y1="699" x2="919" y2="68"/>
<line opacity="0.1" stroke="#000000" stroke-width="1" x1="928" y1="699" x2="928" y2="68"/>
<line opacity="0.1" stroke="#000000" stroke-width="1" x1="937" y1="699" x2="937" y2="68"/>
<line opacity="0.1" stroke="#000000" stroke-width="1" x1="946" y1="699" x2="946" y2="68"/>
<line opacity="0.1" stroke="#000000" stroke-width="1" x1="955" y1="699" x2="955" y2="68"/>
<line opacity="0.1" stroke="#000000" stroke-width="1" x1="964" y1="699" x2="964" y2="68"/>
<line opacity="0.1" stroke="#000000" stroke-width="1" x1="78" y1="699" x2="973" y2="699"/>
<line opacity="0.1" stroke="#000000" stroke-width="1" x1="78" y1="690" x2="973" y2="690"/>
<line opacity="0.1" stroke="#000000" stroke-width="1" x1="78" y1="681" x2="973" y2="681"/>
<line opacity="0.1" stroke="#000000" stroke-width="1" x1="78" y1="672" x2="973" y2="672"/>
<line opacity="0.1" stroke="#000000" stroke-width="1" x1="78" y1="663" x2="973" y2="663"/>
<line opacity="0.1" stroke="#000000" stroke-width="1" x1="78" y1="654" x2="973" y2="654"/>
<line opacity="0.1" stroke="#000000" stroke-width="1" x1="78" y1="645" x2="973" y2="645"/>
<line opacity="0.1" stroke="#000000" stroke-width="1" x1="78" y1="636" x2="973" y2="636"/>
<line opacity="0.1" stroke="#000000" stroke-width="1" x1="78" y1="627" x2="973" y2="627"/>
<line opacity="0.1" stroke="#000000" stroke-width="1" x1="78" y1="619" x2="973" y2="619"/>
<line opacity="0.1" stroke="#000000" stroke-width="1" x1="78" y1="610" x2="973" y2="610"/>
<line opacity="0.1" stroke="#000000" stroke-width="1" x1="78" y1="601" x2="973" y2="601"/>
<line opacity="0.1" stroke="#000000" stroke-width="1" x1="78" y1="592" x2="973" y2="592"/>
<line opacity="0.1" stroke="#000000" stroke-width="1" x1="78" y1="583" x2="973" y2="583"/>
<line opacity="0.1" stroke="#000000" stroke-width="1" x1="78" y1="574" x2="973" y2="574"/>
<line opacity="0.1" stroke="#000000" stroke-width="1" x1="78" y1="565" x2="973" y2="565"/>
<line opacity="0.1" stroke="#000000" stroke-width="1" x1="78" y1="556" x2="973" y2="556"/>
<line opacity="0.1" stroke="#000000" stroke-width="1" x1="78" y1="547" x2="973" y2="547"/>
<line opacity="0.1" stroke="#000000" stroke-width="1" x1="78" y1="539" x2="973" y2="539"/>
<line opacity="0.1" stroke="#000000" stroke-width="1" x1="78" y1="530" x2="973" y2="530"/>
<line opacity="0.1" stroke="#000000" stroke-width="1" x1="78" y1="521" x2="973" y2="521"/>
<line opacity="0.1" stroke="#000000" stroke-width="1" x1="78" y1="512" x2="973" y2="512"/>
<line opacity="0.1" stroke="#000000" stroke-width="1" x1="78" y1="503" x2="973" y2="503"/>
<line opacity="0.1" stroke="#000000" stroke-width="1" x1="78" y1="494" x2="973" y2="494"/>
<line opacity="0.1" stroke="#000000" stroke-width="1" x1="78" y1="485" x2="973" y2="485"/>
<line opacity="0.1" stroke="#000000" stroke-width="1" x1="78" y1="476" x2="973" y2="476"/>
<line opacity="0.1" stroke="#000000" stroke-width="1" x1="78" y1="468" x2="973" y2="468"/>
<line opacity="0.1" stroke="#000000" stroke-width="1" x1="78" y1="459" x2="973" y2="459"/>
<line opacity="0.1" stroke="#000000" stroke-width="1" x1="78" y1="450" x2="973" y2="450"/>
<line opacity="0.1" stroke="#000000" stroke-width="1" x1="78" y1="441" x2="973" y2="441"/>
<line opacity="0.1" stroke="#000000" stroke-width="1" x1="78" y1="432" x2="973" y2="432"/>
<line opacity="0.1" stroke="#000000" stroke-width="1" x1="78" y1="423" x2="973" y2="423"/>
<line opacity="0.1" stroke="#000000" stroke-width="1" x1="78" y1="414" x2="973" y2="414"/>
<line opacity="0.1" stroke="#000000" stroke-width="1" x1="78" y1="405" x2="973" y2="405"/>
<line opacity="0.1" stroke="#000000" stroke-width="1" x1="78" y1="396" x2="973" y2="396"/>
<line opacity="0.1" stroke="#000000" stroke-width="1" x1="78" y1="388" x2="973" y2="388"/>
<line opacity="0.1" stroke="#000000" stroke-width="1" x1="78" y1="379" x2="973" y2="379"/>
<line opacity="0.1" stroke="#000000" stroke-width="1" x1="78" y1="370" x2="973" y2="370"/>
<line opacity="0.1" stroke="#000000" stroke-width="1" x1="78" y1="361" x2="973" y2="361"/>
<line opacity="0.1" stroke="#000000" stroke-width="1" x1="78" y1="352" x2="973" y2="352"/>
<line opacity="0.1" stroke="#000000" stroke-width="1" x1="78" y1="343" x2="973" y2="343"/>
<line opacity="0.1" stroke="#000000" stroke-width="1" x1="78" y1="334" x2="973" y2="334"/>
<line opacity="0.1" stroke="#000000" stroke-width="1" x1="78" y1="325" x2="973" y2="325"/>
<line opacity="0.1" stroke="#000000" stroke-width="1" x1="78" y1="317" x2="973" y2="317"/>
<line opacity="0.1" stroke="#000000" stroke-width="1" x1="78" y1="308" x2="973" y2="308"/>
<line opacity="0.1" stroke="#000000" stroke-width="1" x1="78" y1="299" x2="973" y2="299"/>
<line opacity="0.1" stroke="#000000" stroke-width="1" x1="78" y1="290" x2="973" y2="290"/>
<line opacity="0.1" stroke="#000000" stroke-width="1" x1="78" y1="281" x2="973" y2="281"/>
<line opacity="0.1" stroke="#000000" stroke-width="1" x1="78" y1="272" x2="973" y2="272"/>
<line opacity="0.1" stroke="#000000" stroke-width="1" x1="78" y1="263" x2="973" y2="263"/>
<line opacity="0.1" stroke="#000000" stroke-width="1" x1="78" y1="254" x2="973" y2="254"/>
<line opacity="0.1" stroke="#000000" stroke-width="1" x1="78" y1="245" x2="973" y2="245"/>
<line opacity="0.1" stroke="#000000" stroke-width="1" x1="78" y1="237" x2="973" y2="237"/>
<line opacity="0.1" stroke="#000000" stroke-width="1" x1="78" y1="228" x2="973" y2="228"/>
<line opacity="0.1" stroke="#000000" stroke-width="1" x1="78" y1="219" x2="973" y2="219"/>
<line opacity="0.1" stroke="#000000" stroke-width="1" x1="78" y1="210" x2="973" y2="210"/>
<line opacity="0.1" stroke="#000000" stroke-width="1" x1="78" y1="201" x2="973" y2="201"/>
<line opacity="0.1" stroke="#000000" stroke-width="1" x1="78" y1="192" x2="973" y2="192"/>
<line opacity="0.1" stroke="#000000" stroke-width="1" x1="78" y1="183" x2="973" y2="183"/>
<line opacity="0.1" stroke="#000000" stroke-width="1" x1="78" y1="174" x2="973" y2="174"/>
<line opacity="0.1" stroke="#000000" stroke-width="1" x1="78" y1="166" x2="973" y2="166"/>
<line opacity="0.1" stroke="#000000" stroke-width="1" x1="78" y1="157" x2="973" y2="157"/>
<line opacity="0.1" stroke="#000000" stroke-width="1" x1="78" y1="148" x2="973" y2="148"/>
<line opacity="0.1" stroke="#000000" stroke-width="1" x1="78" y1="139" x2="973" y2="139"/>
<line opacity="0.1" stroke="#000000" stroke-width="1" x1="78" y1="130" x2="973" y2="130"/>
<line opacity="0.1" stroke="#000000" stroke-width="1" x1="78" y1="121" x2="973" y2="121"/>
<line opacity="0.1" stroke="#000000" stroke-width="1" x1="78" y1="112" x2="973" y2="112"/>
<line opacity="0.1" stroke="#000000" stroke-width="1" x1="78" y1="103" x2="973" y2="103"/>
<line opacity="0.1" stroke="#000000" stroke-width="1" x1="78" y1="94" x2="973" y2="94"/>
<line opacity="0.1" stroke="#000000" stroke-width="1" x1="78" y1="86" x2="973" y2="86"/>
<line opacity="0.1" stroke="#000000" stroke-width="1" x1="78" y1="77" x2="973" y2="77"/>
<line opacity="0.1" stroke="#000000" stroke-width="1" x1="78" y1="68" x2="973" y2="68"/>
<text x="8" y="384" dy="0.76em" text-anchor="middle" font-family="sans-serif" font-size="9.67741935483871" opacity="1" fill="#000000" transform="rotate(270, 8, 384)">
Memory usage
</text>
<text x="526" y="760" dy="-0.5ex" text-anchor="middle" font-family="sans-serif" font-size="9.67741935483871" opacity="1" fill="#000000">
Time
</text>
<line opacity="0.2" stroke="#000000" stroke-width="1" x1="96" y1="699" x2="96" y2="68"/>
<line opacity="0.2" stroke="#000000" stroke-width="1" x1="185" y1="699" x2="185" y2="68"/>
<line opacity="0.2" stroke="#000000" stroke-width="1" x1="275" y1="699" x2="275" y2="68"/>
<line opacity="0.2" stroke="#000000" stroke-width="1" x1="364" y1="699" x2="364" y2="68"/>
<line opacity="0.2" stroke="#000000" stroke-width="1" x1="454" y1="699" x2="454" y2="68"/>
<line opacity="0.2" stroke="#000000" stroke-width="1" x1="543" y1="699" x2="543" y2="68"/>
<line opacity="0.2" stroke="#000000" stroke-width="1" x1="633" y1="699" x2="633" y2="68"/>
<line opacity="0.2" stroke="#000000" stroke-width="1" x1="722" y1="699" x2="722" y2="68"/>
<line opacity="0.2" stroke="#000000" stroke-width="1" x1="811" y1="699" x2="811" y2="68"/>
<line opacity="0.2" stroke="#000000" stroke-width="1" x1="901" y1="699" x2="901" y2="68"/>
<line opacity="0.2" stroke="#000000" stroke-width="1" x1="78" y1="699" x2="973" y2="699"/>
<line opacity="0.2" stroke="#000000" stroke-width="1" x1="78" y1="610" x2="973" y2="610"/>
<line opacity="0.2" stroke="#000000" stroke-width="1" x1="78" y1="521" x2="973" y2="521"/>
<line opacity="0.2" stroke="#000000" stroke-width="1" x1="78" y1="432" x2="973" y2="432"/>
<line opacity="0.2" stroke="#000000" stroke-width="1" x1="78" y1="343" x2="973" y2="343"/>
<line opacity="0.2" stroke="#000000" stroke-width="1" x1="78" y1="254" x2="973" y2="254"/>
<line opacity="0.2" stroke="#000000" stroke-width="1" x1="78" y1="166" x2="973" y2="166"/>
<line opacity="0.2" stroke="#000000" stroke-width="1" x1="78" y1="77" x2="973" y2="77"/>
<polyline fill="none" opacity="1" stroke="#000000" stroke-width="1" points="77,68 77,699 "/>
<text x="68" y="699" dy="0.5ex" text-anchor="end" font-family="sans-serif" font-size="9.67741935483871" opacity="1" fill="#000000">
0 KB
</text>
<polyline fill="none" opacity="1" stroke="#000000" stroke-width="1" points="72,699 77,699 "/>
<text x="68" y="610" dy="0.5ex" text-anchor="end" font-family="sans-serif" font-size="9.67741935483871" opacity="1" fill="#000000">
48 KB
</text>
<polyline fill="none" opacity="1" stroke="#000000" stroke-width="1" points="72,610 77,610 "/>
<text x="68" y="521" dy="0.5ex" text-anchor="end" font-family="sans-serif" font-size="9.67741935483871" opacity="1" fill="#000000">
97 KB
</text>
<polyline fill="none" opacity="1" stroke="#000000" stroke-width="1" points="72,521 77,521 "/>
<text x="68" y="432" dy="0.5ex" text-anchor="end" font-family="sans-serif" font-size="9.67741935483871" opacity="1" fill="#000000">
146 KB
</text>
<polyline fill="none" opacity="1" stroke="#000000" stroke-width="1" points="72,432 77,432 "/>
<text x="68" y="343" dy="0.5ex" text-anchor="end" font-family="sans-serif" font-size="9.67741935483871" opacity="1" fill="#000000">
195 KB
</text>
<polyline fill="none" opacity="1" stroke="#000000" stroke-width="1" points="72,343 77,343 "/>
<text x="68" y="254" dy="0.5ex" text-anchor="end" font-family="sans-serif" font-size="9.67741935483871" opacity="1" fill="#000000">
244 KB
</text>
<polyline fill="none" opacity="1" stroke="#000000" stroke-width="1" points="72,254 77,254 "/>
<text x="68" y="166" dy="0.5ex" text-anchor="end" font-family="sans-serif" font-size="9.67741935483871" opacity="1" fill="#000000">
292 KB
</text>
<polyline fill="none" opacity="1" stroke="#000000" stroke-width="1" points="72,166 77,166 "/>
<text x="68" y="77" dy="0.5ex" text-anchor="end" font-family="sans-serif" font-size="9.67741935483871" opacity="1" fill="#000000">
341 KB
</text>
<polyline fill="none" opacity="1" stroke="#000000" stroke-width="1" points="72,77 77,77 "/>
<polyline fill="none" opacity="1" stroke="#000000" stroke-width="1" points="78,700 973,700 "/>
<text x="96" y="710" dy="0.76em" text-anchor="middle" font-family="sans-serif" font-size="9.67741935483871" opacity="1" fill="#000000">
02:04:17
</text>
<polyline fill="none" opacity="1" stroke="#000000" stroke-width="1" points="96,700 96,705 "/>
<text x="185" y="710" dy="0.76em" text-anchor="middle" font-family="sans-serif" font-size="9.67741935483871" opacity="1" fill="#000000">
02:04:18
</text>
<polyline fill="none" opacity="1" stroke="#000000" stroke-width="1" points="185,700 185,705 "/>
<text x="275" y="710" dy="0.76em" text-anchor="middle" font-family="sans-serif" font-size="9.67741935483871" opacity="1" fill="#000000">
02:04:19
</text>
<polyline fill="none" opacity="1" stroke="#000000" stroke-width="1" points="275,700 275,705 "/>
<text x="364" y="710" dy="0.76em" text-anchor="middle" font-family="sans-serif" font-size="9.67741935483871" opacity="1" fill="#000000">
02:04:20
</text>
<polyline fill="none" opacity="1" stroke="#000000" stroke-width="1" points="364,700 364,705 "/>
<text x="454" y="710" dy="0.76em" text-anchor="middle" font-family="sans-serif" font-size="9.67741935483871" opacity="1" fill="#000000">
02:04:21
</text>
<polyline fill="none" opacity="1" stroke="#000000" stroke-width="1" points="454,700 454,705 "/>
<text x="543" y="710" dy="0.76em" text-anchor="middle" font-family="sans-serif" font-size="9.67741935483871" opacity="1" fill="#000000">
02:04:22
</text>
<polyline fill="none" opacity="1" stroke="#000000" stroke-width="1" points="543,700 543,705 "/>
<text x="633" y="710" dy="0.76em" text-anchor="middle" font-family="sans-serif" font-size="9.67741935483871" opacity="1" fill="#000000">
02:04:23
</text>
<polyline fill="none" opacity="1" stroke="#000000" stroke-width="1" points="633,700 633,705 "/>
<text x="722" y="710" dy="0.76em" text-anchor="middle" font-family="sans-serif" font-size="9.67741935483871" opacity="1" fill="#000000">
02:04:24
</text>
<polyline fill="none" opacity="1" stroke="#000000" stroke-width="1" points="722,700 722,705 "/>
<text x="811" y="710" dy="0.76em" text-anchor="middle" font-family="sans-serif" font-size="9.67741935483871" opacity="1" fill="#000000">
02:04:25
</text>
<polyline fill="none" opacity="1" stroke="#000000" stroke-width="1" points="811,700 811,705 "/>
<text x="901" y="710" dy="0.76em" text-anchor="middle" font-family="sans-serif" font-size="9.67741935483871" opacity="1" fill="#000000">
02:04:26
</text>
<polyline fill="none" opacity="1" stroke="#000000" stroke-width="1" points="901,700 901,705 "/>
<polyline fill="none" opacity="1" stroke="#000000" stroke-width="1" points="78,67 974,67 "/>
<text x="96" y="58" dy="-0.5ex" text-anchor="middle" font-family="sans-serif" font-size="9.67741935483871" opacity="1" fill="#000000">
+265ms
</text>
<polyline fill="none" opacity="1" stroke="#000000" stroke-width="1" points="96,62 96,67 "/>
<text x="185" y="58" dy="-0.5ex" text-anchor="middle" font-family="sans-serif" font-size="9.67741935483871" opacity="1" fill="#000000">
+1s
</text>
<polyline fill="none" opacity="1" stroke="#000000" stroke-width="1" points="185,62 185,67 "/>
<text x="275" y="58" dy="-0.5ex" text-anchor="middle" font-family="sans-serif" font-size="9.67741935483871" opacity="1" fill="#000000">
+2s
</text>
<polyline fill="none" opacity="1" stroke="#000000" stroke-width="1" points="275,62 275,67 "/>
<text x="364" y="58" dy="-0.5ex" text-anchor="middle" font-family="sans-serif" font-size="9.67741935483871" opacity="1" fill="#000000">
+3s
</text>
<polyline fill="none" opacity="1" stroke="#000000" stroke-width="1" points="364,62 364,67 "/>
<text x="454" y="58" dy="-0.5ex" text-anchor="middle" font-family="sans-serif" font-size="9.67741935483871" opacity="1" fill="#000000">
+4s
</text>
<polyline fill="none" opacity="1" stroke="#000000" stroke-width="1" points="454,62 454,67 "/>
<text x="544" y="58" dy="-0.5ex" text-anchor="middle" font-family="sans-serif" font-size="9.67741935483871" opacity="1" fill="#000000">
+5s
</text>
<polyline fill="none" opacity="1" stroke="#000000" stroke-width="1" points="544,62 544,67 "/>
<text x="633" y="58" dy="-0.5ex" text-anchor="middle" font-family="sans-serif" font-size="9.67741935483871" opacity="1" fill="#000000">
+6s
</text>
<polyline fill="none" opacity="1" stroke="#000000" stroke-width="1" points="633,62 633,67 "/>
<text x="723" y="58" dy="-0.5ex" text-anchor="middle" font-family="sans-serif" font-size="9.67741935483871" opacity="1" fill="#000000">
+7s
</text>
<polyline fill="none" opacity="1" stroke="#000000" stroke-width="1" points="723,62 723,67 "/>
<text x="812" y="58" dy="-0.5ex" text-anchor="middle" font-family="sans-serif" font-size="9.67741935483871" opacity="1" fill="#000000">
+8s
</text>
<polyline fill="none" opacity="1" stroke="#000000" stroke-width="1" points="812,62 812,67 "/>
<text x="902" y="58" dy="-0.5ex" text-anchor="middle" font-family="sans-serif" font-size="9.67741935483871" opacity="1" fill="#000000">
+9s
</text>
<polyline fill="none" opacity="1" stroke="#000000" stroke-width="1" points="902,62 902,67 "/>
</svg>
