<svg width="1024" height="768" viewBox="0 0 1024 768" xmlns="http://www.w3.org/2000/svg">
<rect x="0" y="0" width="1024" height="768" opacity="1" fill="#FFFFFF" stroke="none"/>
<polygon opacity="1" fill="#E6194B" points="83,698 83,698 84,698 85,698 86,697 87,697 88,696 89,696 90,696 91,695 91,695 92,695 93,695 94,694 95,694 96,694 97,693 98,693 99,693 99,692 100,692 101,691 102,691 103,691 104,690 105,690 106,690 107,690 107,690 108,689 109,689 110,689 111,689 112,689 113,688 114,688 115,688 115,688 116,688 117,688 118,687 119,687 120,687 121,687 122,686 123,686 123,686 124,686 125,685 126,685 127,685 128,684 129,684 130,684 131,684 131,683 132,682 133,682 134,682 135,682 136,682 137,682 138,681 139,680 139,680 140,680 141,680 142,679 143,679 144,679 145,678 146,678 147,678 147,677 148,677 149,677 150,677 151,677 152,677 153,676 154,675 155,675 155,675 156,674 157,674 158,674 159,674 160,674 161,673 162,673 163,673 163,672 164,672 165,672 166,672 167,672 168,671 169,671 170,671 171,671 171,671 172,671 173,671 174,671 175,670 176,670 177,670 178,670 179,670 179,669 180,669 181,669 182,669 183,668 184,668 185,668 186,668 187,668 187,667 188,667 189,667 190,666 191,666 192,666 193,666 194,665 195,665 195,664 196,664 197,663 198,663 199,662 200,662 201,662 202,661 203,661 203,661 204,661 205,661 206,660 207,659 208,659 209,659 210,659 211,658 211,658 212,658 213,658 214,658 215,658 216,658 217,658 218,657 219,656 219,656 220,656 221,655 222,654 223,654 224,653 225,653 226,653 227,653 227,653 228,653 229,653 230,652 231,652 232,652 233,652 234,652 235,652 235,651 236,651 237,651 238,651 239,650 240,650 241,649 242,649 243,649 243,649 244,649 245,648 246,648 247,647 248,647 249,647 250,647 251,647 251,647 252,647 253,646 254,646 255,646 256,646 257,646 258,646 259,645 259,645 260,645 261,644 262,644 263,643 264,643 265,643 266,642 267,642 267,642 268,642 269,642 270,641 271,641 272,640 273,640 274,640 275,640 275,640 276,639 277,639 278,639 279,639 280,639 281,639 282,638 283,638 283,638 284,637 285,637 286,637 287,637 288,637 289,637 290,636 291,635 291,635 292,635 293,634 294,634 295,633 296,633 297,632 298,632 299,632 300,632 300,631 301,631 302,631 303,631 304,631 305,630 306,630 307,630 308,630 308,629 309,629 310,629 311,629 312,629 313,628 314,628 315,628 316,628 316,628 317,627 318,627 319,627 320,627 321,626 322,626 323,626 324,625 324,625 325,625 326,625 327,624 328,624 329,624 330,624 331,623 332,623 332,623 333,623 334,623 335,623 336,623 337,623 338,622 339,622 340,622 340,621 341,621 342,621 343,621 344,621 345,620 346,620 347,620 348,619 348,619 349,618 350,618 351,617 352,546 353,546 354,546 355,546 356,545 356,545 357,545 358,545 359,545 360,545 361,545 362,544 363,544 364,544 364,543 365,543 366,543 367,543 368,543 369,543 370,542 371,542 372,542 372,541 373,541 374,540 375,540 376,540 377,540 378,540 379,540 380,539 380,539 381,539 382,538 383,538 384,538 385,538 386,538 387,537 388,537 388,537 389,537 390,537 391,536 392,536 393,536 394,535 395,535 396,535 396,534 397,534 398,534 399,534 400,534 401,534 402,533 403,532 404,532 404,531 405,531 406,531 407,531 408,531 409,530 410,529 411,529 412,528 412,528 413,527 414,527 415,527 416,527 417,526 418,526 419,526 420,526 420,526 421,525 422,525 423,525 424,524 425,523 426,523 427,505 428,505 428,505 429,505 430,504 431,504 432,504 433,503 434,503 435,503 436,503 436,502 437,502 438,501 439,501 440,501 441,500 442,499 443,499 444,499 444,498 445,498 446,497 447,497 448,497 449,496 450,495 451,495 452,494 452,494 453,492 454,491 455,491 456,491 457,490 458,489 459,488 460,488 460,487 461,486 462,486 463,485 464,485 465,485 466,485 467,483 468,483 468,483 469,483 470,483 471,482 472,482 473,481 474,480 475,480 476,479 476,478 477,478 478,477 479,477 480,477 481,477 482,476 483,476 484,475 484,475 485,474 486,474 487,473 488,473 489,472 490,472 491,472 492,471 492,471 493,471 494,471 495,470 496,470 497,470 498,469 499,468 500,468 500,468 501,468 502,468 503,466 504,466 505,465 506,465 507,464 508,464 508,464 509,463 510,463 511,463 512,462 513,461 514,461 515,461 516,460 516,460 517,460 518,459 519,458 520,458 521,458 522,458 523,457 524,457 524,456 525,455 526,455 527,455 528,455 529,455 530,454 531,454 532,454 532,454 533,454 534,453 535,453 536,453 537,453 538,453 539,452 540,452 540,451 541,451 542,450 543,450 544,450 545,449 546,449 547,448 548,448 548,448 549,448 550,448 551,448 552,448 553,448 554,447 555,447 556,447 557,447 557,446 558,445 559,445 560,445 561,445 562,445 563,444 564,444 565,443 565,443 566,443 567,442 568,442 569,442 570,442 571,442 572,442 573,441 573,441 574,441 575,441 576,441 577,440 578,439 579,439 580,439 581,439 581,439 582,439 583,438 584,438 585,438 586,438 587,438 588,437 589,437 589,436 590,435 591,435 592,435 593,435 594,434 595,433 596,433 597,433 597,432 598,432 599,432 600,432 601,432 602,432 603,431 604,431 605,430 605,429 606,429 607,429 608,429 609,429 610,428 611,427 612,427 613,427 613,427 614,427 615,426 616,426 617,425 618,425 619,425 620,425 621,425 621,424 622,424 623,424 624,423 625,422 626,281 627,280 628,280 629,280 629,279 630,279 631,279 632,278 633,278 634,278 635,278 636,277 637,277 637,277 638,277 639,277 640,277 641,277 642,276 643,276 644,276 645,275 645,275 646,275 647,275 648,274 649,274 650,274 651,274 652,274 653,274 653,273 654,273 655,273 656,273 657,273 658,272 659,271 660,271 661,271 661,270 662,270 663,269 664,269 665,268 666,268 667,268 668,268 669,267 669,267 670,267 671,267 672,267 673,267 674,266 675,266 676,266 677,266 677,266 678,265 679,265 680,264 681,264 682,264 683,263 684,263 685,263 685,263 686,262 687,262 688,261 689,261 690,261 691,260 692,260 693,260 693,259 694,258 695,258 696,258 697,258 698,257 699,257 700,257 701,257 701,256 702,256 703,255 704,255 705,255 706,255 707,254 708,254 709,254 709,253 710,253 711,253 712,253 713,253 714,252 715,252 716,252 717,251 717,251 718,251 719,251 720,251 721,251 722,251 723,250 724,250 725,249 725,248 726,248 727,248 728,248 729,247 730,247 731,247 732,247 733,247 733,247 734,246 735,246 736,246 737,244 738,244 739,244 740,244 741,244 741,243 742,243 743,242 744,242 745,242 746,241 747,241 748,241 749,241 749,240 750,240 751,239 752,239 753,238 754,238 755,238 756,237 757,237 757,237 758,236 759,236 760,235 761,235 762,235 763,234 764,233 765,233 765,233 766,233 767,233 768,233 769,232 770,232 771,231 772,231 773,231 773,230 774,229 775,229 776,229 777,228 778,228 779,228 780,227 781,227 781,226 782,226 783,226 784,226 785,225 786,224 787,224 788,224 789,223 789,223 790,223 791,222 792,222 793,222 794,222 795,222 796,222 797,221 797,221 798,221 799,221 800,220 801,220 802,219 803,219 804,219 805,219 805,219 806,219 807,218 808,218 809,217 810,217 811,216 812,216 813,215 814,215 814,215 815,214 816,214 817,214 818,213 819,213 820,212 821,212 822,212 822,212 823,212 824,212 825,211 826,211 827,211 828,210 829,210 830,210 830,209 831,209 832,209 833,209 834,208 835,208 836,208 837,208 838,207 838,207 839,207 840,207 841,207 842,207 843,206 844,205 845,205 846,205 846,204 847,204 848,204 849,204 850,203 851,202 852,201 853,201 854,201 854,201 855,201 856,200 857,200 858,200 859,199 860,199 861,199 862,199 862,199 863,199 864,197 865,197 866,197 867,196 868,196 869,195 870,195 870,194 871,193 872,193 873,192 874,192 875,192 876,191 877,190 878,190 878,190 879,189 880,189 881,189 882,189 883,189 884,188 885,188 886,188 886,187 887,187 888,187 889,186 890,185 891,185 892,185 893,184 894,184 894,183 895,183 896,183 897,183 898,182 899,182 900,182 901,182 902,181 902,181 903,180 904,180 905,179 906,179 907,178 908,178 909,178 910,178 910,177 911,177 912,176 913,175 914,175 915,175 916,175 917,175 918,174 918,174 919,174 920,173 921,173 922,173 923,173 924,173 925,172 926,172 926,172 927,172 928,171 929,171 930,171 931,170 932,99 933,99 934,97 934,97 935,97 936,97 937,92 938,91 939,91 940,90 941,85 942,84 942,81 943,81 944,80 945,80 946,80 947,76 948,76 949,72 950,70 950,69 951,69 952,68 953,68 954,68 955,72 956,72 957,72 958,72 958,72 959,72 960,72 961,72 962,77 963,80 964,80 965,80 966,80 966,80 967,83 968,83 969,83 970,83 971,83 972,158 972,699 973,699 973,699 83,699 "/>
<polyline fill="none" opacity="1" stroke="#E6194B" stroke-width="1" points="83,698 83,698 84,698 85,698 86,697 87,697 88,696 89,696 90,696 91,695 91,695 92,695 93,695 94,694 95,694 96,694 97,693 98,693 99,693 99,692 100,692 101,691 102,691 103,691 104,690 105,690 106,690 107,690 107,690 108,689 109,689 110,689 111,689 112,689 113,688 114,688 115,688 115,688 116,688 117,688 118,687 119,687 120,687 121,687 122,686 123,686 123,686 124,686 125,685 126,685 127,685 128,684 129,684 130,684 131,684 131,683 132,682 133,682 134,682 135,682 136,682 137,682 138,681 139,680 139,680 140,680 141,680 142,679 143,679 144,679 145,678 146,678 147,678 147,677 148,677 149,677 150,677 151,677 152,677 153,676 154,675 155,675 155,675 156,674 157,674 158,674 159,674 160,674 161,673 162,673 163,673 163,672 164,672 165,672 166,672 167,672 168,671 169,671 170,671 171,671 171,671 172,671 173,671 174,671 175,670 176,670 177,670 178,670 179,670 179,669 180,669 181,669 182,669 183,668 184,668 185,668 186,668 187,668 187,667 188,667 189,667 190,666 191,666 192,666 193,666 194,665 195,665 195,664 196,664 197,663 198,663 199,662 200,662 201,662 202,661 203,661 203,661 204,661 205,661 206,660 207,659 208,659 209,659 210,659 211,658 211,658 212,658 213,658 214,658 215,658 216,658 217,658 218,657 219,656 219,656 220,656 221,655 222,654 223,654 224,653 225,653 226,653 227,653 227,653 228,653 229,653 230,652 231,652 232,652 233,652 234,652 235,652 235,651 236,651 237,651 238,651 239,650 240,650 241,649 242,649 243,649 243,649 244,649 245,648 246,648 247,647 248,647 249,647 250,647 251,647 251,647 252,647 253,646 254,646 255,646 256,646 257,646 258,646 259,645 259,645 260,645 261,644 262,644 263,643 264,643 265,643 266,642 267,642 267,642 268,642 269,642 270,641 271,641 272,640 273,640 274,640 275,640 275,640 276,639 277,639 278,639 279,639 280,639 281,639 282,638 283,638 283,638 284,637 285,637 286,637 287,637 288,637 289,637 290,636 291,635 291,635 292,635 293,634 294,634 295,633 296,633 297,632 298,632 299,632 300,632 300,631 301,631 302,631 303,631 304,631 305,630 306,630 307,630 308,630 308,629 309,629 310,629 311,629 312,629 313,628 314,628 315,628 316,628 316,628 317,627 318,627 319,627 320,627 321,626 322,626 323,626 324,625 324,625 325,625 326,625 327,624 328,624 329,624 330,624 331,623 332,623 332,623 333,623 334,623 335,623 336,623 337,623 338,622 339,622 340,622 340,621 341,621 342,621 343,621 344,621 345,620 346,620 347,620 348,619 348,619 349,618 350,618 351,617 352,546 353,546 354,546 355,546 356,545 356,545 357,545 358,545 359,545 360,545 361,545 362,544 363,544 364,544 364,543 365,543 366,543 367,543 368,543 369,543 370,542 371,542 372,542 372,541 373,541 374,540 375,540 376,540 377,540 378,540 379,540 380,539 380,539 381,539 382,538 383,538 384,538 385,538 386,538 387,537 388,537 388,537 389,537 390,537 391,536 392,536 393,536 394,535 395,535 396,535 396,534 397,534 398,534 399,534 400,534 401,534 402,533 403,532 404,532 404,531 405,531 406,531 407,531 408,531 409,530 410,529 411,529 412,528 412,528 413,527 414,527 415,527 416,527 417,526 418,526 419,526 420,526 420,526 421,525 422,525 423,525 424,524 425,523 426,523 427,505 428,505 428,505 429,505 430,504 431,504 432,504 433,503 434,503 435,503 436,503 436,502 437,502 438,501 439,501 440,501 441,500 442,499 443,499 444,499 444,498 445,498 446,497 447,497 448,497 449,496 450,495 451,495 452,494 452,494 453,492 454,491 455,491 456,491 457,490 458,489 459,488 460,488 460,487 461,486 462,486 463,485 464,485 465,485 466,485 467,483 468,483 468,483 469,483 470,483 471,482 472,482 473,481 474,480 475,480 476,479 476,478 477,478 478,477 479,477 480,477 481,477 482,476 483,476 484,475 484,475 485,474 486,474 487,473 488,473 489,472 490,472 491,472 492,471 492,471 493,471 494,471 495,470 496,470 497,470 498,469 499,468 500,468 500,468 501,468 502,468 503,466 504,466 505,465 506,465 507,464 508,464 508,464 509,463 510,463 511,463 512,462 513,461 514,461 515,461 516,460 516,460 517,460 518,459 519,458 520,458 521,458 522,458 523,457 524,457 524,456 525,455 526,455 527,455 528,455 529,455 530,454 531,454 532,454 532,454 533,454 534,453 535,453 536,453 537,453 538,453 539,452 540,452 540,451 541,451 542,450 543,450 544,450 545,449 546,449 547,448 548,448 548,448 549,448 550,448 551,448 552,448 553,448 554,447 555,447 556,447 557,447 557,446 558,445 559,445 560,445 561,445 562,445 563,444 564,444 565,443 565,443 566,443 567,442 568,442 569,442 570,442 571,442 572,442 573,441 573,441 574,441 575,441 576,441 577,440 578,439 579,439 580,439 581,439 581,439 582,439 583,438 584,438 585,438 586,438 587,438 588,437 589,437 589,436 590,435 591,435 592,435 593,435 594,434 595,433 596,433 597,433 597,432 598,432 599,432 600,432 601,432 602,432 603,431 604,431 605,430 605,429 606,429 607,429 608,429 609,429 610,428 611,427 612,427 613,427 613,427 614,427 615,426 616,426 617,425 618,425 619,425 620,425 621,425 621,424 622,424 623,424 624,423 625,422 626,281 627,280 628,280 629,280 629,279 630,279 631,279 632,278 633,278 634,278 635,278 636,277 637,277 637,277 638,277 639,277 640,277 641,277 642,276 643,276 644,276 645,275 645,275 646,275 647,275 648,274 649,274 650,274 651,274 652,274 653,274 653,273 654,273 655,273 656,273 657,273 658,272 659,271 660,271 661,271 661,270 662,270 663,269 664,269 665,268 666,268 667,268 668,268 669,267 669,267 670,267 671,267 672,267 673,267 674,266 675,266 676,266 677,266 677,266 678,265 679,265 680,264 681,264 682,264 683,263 684,263 685,263 685,263 686,262 687,262 688,261 689,261 690,261 691,260 692,260 693,260 693,259 694,258 695,258 696,258 697,258 698,257 699,257 700,257 701,257 701,256 702,256 703,255 704,255 705,255 706,255 707,254 708,254 709,254 709,253 710,253 711,253 712,253 713,253 714,252 715,252 716,252 717,251 717,251 718,251 719,251 720,251 721,251 722,251 723,250 724,250 725,249 725,248 726,248 727,248 728,248 729,247 730,247 731,247 732,247 733,247 733,247 734,246 735,246 736,246 737,244 738,244 739,244 740,244 741,244 741,243 742,243 743,242 744,242 745,242 746,241 747,241 748,241 749,241 749,240 750,240 751,239 752,239 753,238 754,238 755,238 756,237 757,237 757,237 758,236 759,236 760,235 761,235 762,235 763,234 764,233 765,233 765,233 766,233 767,233 768,233 769,232 770,232 771,231 772,231 773,231 773,230 774,229 775,229 776,229 777,228 778,228 779,228 780,227 781,227 781,226 782,226 783,226 784,226 785,225 786,224 787,224 788,224 789,223 789,223 790,223 791,222 792,222 793,222 794,222 795,222 796,222 797,221 797,221 798,221 799,221 800,220 801,220 802,219 803,219 804,219 805,219 805,219 806,219 807,218 808,218 809,217 810,217 811,216 812,216 813,215 814,215 814,215 815,214 816,214 817,214 818,213 819,213 820,212 821,212 822,212 822,212 823,212 824,212 825,211 826,211 827,211 828,210 829,210 830,210 830,209 831,209 832,209 833,209 834,208 835,208 836,208 837,208 838,207 838,207 839,207 840,207 841,207 842,207 843,206 844,205 845,205 846,205 846,204 847,204 848,204 849,204 850,203 851,202 852,201 853,201 854,201 854,201 855,201 856,200 857,200 858,200 859,199 860,199 861,199 862,199 862,199 863,199 864,197 865,197 866,197 867,196 868,196 869,195 870,195 870,194 871,193 872,193 873,192 874,192 875,192 876,191 877,190 878,190 878,190 879,189 880,189 881,189 882,189 883,189 884,188 885,188 886,188 886,187 887,187 888,187 889,186 890,185 891,185 892,185 893,184 894,184 894,183 895,183 896,183 897,183 898,182 899,182 900,182 901,182 902,181 902,181 903,180 904,180 905,179 906,179 907,178 908,178 909,178 910,178 910,177 911,177 912,176 913,175 914,175 915,175 916,175 917,175 918,174 918,174 919,174 920,173 921,173 922,173 923,173 924,173 925,172 926,172 926,172 927,172 928,171 929,171 930,171 931,170 932,99 933,99 934,97 934,97 935,97 936,97 937,92 938,91 939,91 940,90 941,85 942,84 942,81 943,81 944,80 945,80 946,80 947,76 948,76 949,72 950,70 950,69 951,69 952,68 953,68 954,68 955,72 956,72 957,72 958,72 958,72 959,72 960,72 961,72 962,77 963,80 964,80 965,80 966,80 966,80 967,83 968,83 969,83 970,83 971,83 972,158 972,699 973,699 "/>
<line opacity="0.1" stroke="#000000" stroke-width="1" x1="83" y1="699" x2="83" y2="68"/>
<line opacity="0.1" stroke="#000000" stroke-width="1" x1="92" y1="699" x2="92" y2="68"/>
<line opacity="0.1" stroke="#000000" stroke-width="1" x1="101" y1="699" x2="101" y2="68"/>
<line opacity="0.1" stroke="#000000" stroke-width="1" x1="110" y1="699" x2="110" y2="68"/>
<line opacity="0.1" stroke="#000000" stroke-width="1" x1="119" y1="699" x2="119" y2="68"/>
<line opacity="0.1" stroke="#000000" stroke-width="1" x1="128" y1="699" x2="128" y2="68"/>
<line opacity="0.1" stroke="#000000" stroke-width="1" x1="137" y1="699" x2="137" y2="68"/>
<line opacity="0.1" stroke="#000000" stroke-width="1" x1="146" y1="699" x2="146" y2="68"/>
<line opacity="0.1" stroke="#000000" stroke-width="1" x1="154" y1="699" x2="154" y2="68"/>
<line opacity="0.1" stroke="#000000" stroke-width="1" x1="163" y1="699" x2="163" y2="68"/>
<line opacity="0.1" stroke="#000000" stroke-width="1" x1="172" y1="699" x2="172" y2="68"/>
<line opacity="0.1" stroke="#000000" stroke-width="1" x1="181" y1="699" x2="181" y2="68"/>
<line opacity="0.1" stroke="#000000" stroke-width="1" x1="190" y1="699" x2="190" y2="68"/>
<line opacity="0.1" stroke="#000000" stroke-width="1" x1="199" y1="699" x2="199" y2="68"/>
<line opacity="0.1" stroke="#000000" stroke-width="1" x1="208" y1="699" x2="208" y2="68"/>
<line opacity="0.1" stroke="#000000" stroke-width="1" x1="217" y1="699" x2="217" y2="68"/>
<line opacity="0.1" stroke="#000000" stroke-width="1" x1="226" y1="699" x2="226" y2="68"/>
<line opacity="0.1" stroke="#000000" stroke-width="1" x1="234" y1="699" x2="234" y2="68"/>
<line opacity="0.1" stroke="#000000" stroke-width="1" x1="243" y1="699" x2="243" y2="68"/>
<line opacity="0.1" stroke="#000000" stroke-width="1" x1="252" y1="699" x2="252" y2="68"/>
<line opacity="0.1" stroke="#000000" stroke-width="1" x1="261" y1="699" x2="261" y2="68"/>
<line opacity="0.1" stroke="#000000" stroke-width="1" x1="270" y1="699" x2="270" y2="68"/>
<line opacity="0.1" stroke="#000000" stroke-width="1" x1="279" y1="699" x2="279" y2="68"/>
<line opacity="0.1" stroke="#000000" stroke-width="1" x1="288" y1="699" x2="288" y2="68"/>
<line opacity="0.1" stroke="#000000" stroke-width="1" x1="297" y1="699" x2="297" y2="68"/>
<line opacity="0.1" stroke="#000000" stroke-width="1" x1="306" y1="699" x2="306" y2="68"/>
<line opacity="0.1" stroke="#000000" stroke-width="1" x1="315" y1="699" x2="315" y2="68"/>
<line opacity="0.1" stroke="#000000" stroke-width="1" x1="323" y1="699" x2="323" y2="68"/>
<line opacity="0.1" stroke="#000000" stroke-width="1" x1="332" y1="699" x2="332" y2="68"/>
<line opacity="0.1" stroke="#000000" stroke-width="1" x1="341" y1="699" x2="341" y2="68"/>
<line opacity="0.1" stroke="#000000" stroke-width="1" x1="350" y1="699" x2="350" y2="68"/>
<line opacity="0.1" stroke="#000000" stroke-width="1" x1="359" y1="699" x2="359" y2="68"/>
<line opacity="0.1" stroke="#000000" stroke-width="1" x1="368" y1="699" x2="368" y2="68"/>
<line opacity="0.1" stroke="#000000" stroke-width="1" x1="377" y1="699" x2="377" y2="68"/>
<line opacity="0.1" stroke="#000000" stroke-width="1" x1="386" y1="699" x2="386" y2="68"/>
<line opacity="0.1" stroke="#000000" stroke-width="1" x1="395" y1="699" x2="395" y2="68"/>
<line opacity="0.1" stroke="#000000" stroke-width="1" x1="403" y1="699" x2="403" y2="68"/>
<line opacity="0.1" stroke="#000000" stroke-width="1" x1="412" y1="699" x2="412" y2="68"/>
<line opacity="0.1" stroke="#000000" stroke-width="1" x1="421" y1="699" x2="421" y2="68"/>
<line opacity="0.1" stroke="#000000" stroke-width="1" x1="430" y1="699" x2="430" y2="68"/>
<line opacity="0.1" stroke="#000000" stroke-width="1" x1="439" y1="699" x2="439" y2="68"/>
<line opacity="0.1" stroke="#000000" stroke-width="1" x1="448" y1="699" x2="448" y2="68"/>
<line opacity="0.1" stroke="#000000" stroke-width="1" x1="457" y1="699" x2="457" y2="68"/>
<line opacity="0.1" stroke="#000000" stroke-width="1" x1="466" y1="699" x2="466" y2="68"/>
<line opacity="0.1" stroke="#000000" stroke-width="1" x1="475" y1="699" x2="475" y2="68"/>
<line opacity="0.1" stroke="#000000" stroke-width="1" x1="483" y1="699" x2="483" y2="68"/>
<line opacity="0.1" stroke="#000000" stroke-width="1" x1="492" y1="699" x2="492" y2="68"/>
<line opacity="0.1" stroke="#000000" stroke-width="1" x1="501" y1="699" x2="501" y2="68"/>
<line opacity="0.1" stroke="#000000" stroke-width="1" x1="510" y1="699" x2="510" y2="68"/>
<line opacity="0.1" stroke="#000000" stroke-width="1" x1="519" y1="699" x2="519" y2="68"/>
<line opacity="0.1" stroke="#000000" stroke-width="1" x1="528" y1="699" x2="528" y2="68"/>
<line opacity="0.1" stroke="#000000" stroke-width="1" x1="537" y1="699" x2="537" y2="68"/>
<line opacity="0.1" stroke="#000000" stroke-width="1" x1="546" y1="699" x2="546" y2="68"/>
<line opacity="0.1" stroke="#000000" stroke-width="1" x1="555" y1="699" x2="555" y2="68"/>
<line opacity="0.1" stroke="#000000" stroke-width="1" x1="563" y1="699" x2="563" y2="68"/>
<line opacity="0.1" stroke="#000000" stroke-width="1" x1="572" y1="699" x2="572" y2="68"/>
<line opacity="0.1" stroke="#000000" stroke-width="1" x1="581" y1="699" x2="581" y2="68"/>
<line opacity="0.1" stroke="#000000" stroke-width="1" x1="590" y1="699" x2="590" y2="68"/>
<line opacity="0.1" stroke="#000000" stroke-width="1" x1="599" y1="699" x2="599" y2="68"/>
<line opacity="0.1" stroke="#000000" stroke-width="1" x1="608" y1="699" x2="608" y2="68"/>
<line opacity="0.1" stroke="#000000" stroke-width="1" x1="617" y1="699" x2="617" y2="68"/>
<line opacity="0.1" stroke="#000000" stroke-width="1" x1="626" y1="699" x2="626" y2="68"/>
<line opacity="0.1" stroke="#000000" stroke-width="1" x1="635" y1="699" x2="635" y2="68"/>
<line opacity="0.1" stroke="#000000" stroke-width="1" x1="644" y1="699" x2="644" y2="68"/>
<line opacity="0.1" stroke="#000000" stroke-width="1" x1="652" y1="699" x2="652" y2="68"/>
<line opacity="0.1" stroke="#000000" stroke-width="1" x1="661" y1="699" x2="661" y2="68"/>
<line opacity="0.1" stroke="#000000" stroke-width="1" x1="670" y1="699" x2="670" y2="68"/>
<line opacity="0.1" stroke="#000000" stroke-width="1" x1="679" y1="699" x2="679" y2="68"/>
<line opacity="0.1" stroke="#000000" stroke-width="1" x1="688" y1="699" x2="688" y2="68"/>
<line opacity="0.1" stroke="#000000" stroke-width="1" x1="697" y1="699" x2="697" y2="68"/>
<line opacity="0.1" stroke="#000000" stroke-width="1" x1="706" y1="699" x2="706" y2="68"/>
<line opacity="0.1" stroke="#000000" stroke-width="1" x1="715" y1="699" x2="715" y2="68"/>
<line opacity="0.1" stroke="#000000" stroke-width="1" x1="724" y1="699" x2="724" y2="68"/>
<line opacity="0.1" stroke="#000000" stroke-width="1" x1="732" y1="699" x2="732" y2="68"/>
<line opacity="0.1" stroke="#000000" stroke-width="1" x1="741" y1="699" x2="741" y2="68"/>
<line opacity="0.1" stroke="#000000" stroke-width="1" x1="750" y1="699" x2="750" y2="68"/>
<line opacity="0.1" stroke="#000000" stroke-width="1" x1="759" y1="699" x2="759" y2="68"/>
<line opacity="0.1" stroke="#000000" stroke-width="1" x1="768" y1="699" x2="768" y2="68"/>
<line opacity="0.1" stroke="#000000" stroke-width="1" x1="777" y1="699" x2="777" y2="68"/>
<line opacity="0.1" stroke="#000000" stroke-width="1" x1="786" y1="699" x2="786" y2="68"/>
<line opacity="0.1" stroke="#000000" stroke-width="1" x1="795" y1="699" x2="795" y2="68"/>
<line opacity="0.1" stroke="#000000" stroke-width="1" x1="804" y1="699" x2="804" y2="68"/>
<line opacity="0.1" stroke="#000000" stroke-width="1" x1="812" y1="699" x2="812" y2="68"/>
<line opacity="0.1" stroke="#000000" stroke-width="1" x1="821" y1="699" x2="821" y2="68"/>
<line opacity="0.1" stroke="#000000" stroke-width="1" x1="830" y1="699" x2="830" y2="68"/>
<line opacity="0.1" stroke="#000000" stroke-width="1" x1="839" y1="699" x2="839" y2="68"/>
<line opacity="0.1" stroke="#000000" stroke-width="1" x1="848" y1="699" x2="848" y2="68"/>
<line opacity="0.1" stroke="#000000" stroke-width="1" x1="857" y1="699" x2="857" y2="68"/>
<line opacity="0.1" stroke="#000000" stroke-width="1" x1="866" y1="699" x2="866" y2="68"/>
<line opacity="0.1" stroke="#000000" stroke-width="1" x1="875" y1="699" x2="875" y2="68"/>
<line opacity="0.1" stroke="#000000" stroke-width="1" x1="884" y1="699" x2="884" y2="68"/>
<line opacity="0.1" stroke="#000000" stroke-width="1" x1="892" y1="699" x2="892" y2="68"/>
<line opacity="0.1" stroke="#000000" stroke-width="1" x1="901" y1="699" x2="901" y2="68"/>
<line opacity="0.1" stroke="#000000" stroke-width="1" x1="910" y1="699" x2="910" y2="68"/>
<line opacity="0.1" stroke="#000000" stroke-width="1" x1="919" y1="699" x2="919" y2="68"/>
<line opacity="0.1" stroke="#000000" stroke-width="1" x1="928" y1="699" x2="928" y2="68"/>
<line opacity="0.1" stroke="#000000" stroke-width="1" x1="937" y1="699" x2="937" y2="68"/>
<line opacity="0.1" stroke="#000000" stroke-width="1" x1="946" y1="699" x2="946" y2="68"/>
<line opacity="0.1" stroke="#000000" stroke-width="1" x1="955" y1="699" x2="955" y2="68"/>
<line opacity="0.1" stroke="#000000" stroke-width="1" x1="964" y1="699" x2="964" y2="68"/>
<line opacity="0.1" stroke="#000000" stroke-width="1" x1="78" y1="699" x2="973" y2="699"/>
<line opacity="0.1" stroke="#000000" stroke-width="1" x1="78" y1="684" x2="973" y2="684"/>
<line opacity="0.1" stroke="#000000" stroke-width="1" x1="78" y1="670" x2="973" y2="670"/>
<line opacity="0.1" stroke="#000000" stroke-width="1" x1="78" y1="655" x2="973" y2="655"/>
<line opacity="0.1" stroke="#000000" stroke-width="1" x1="78" y1="641" x2="973" y2="641"/>
<line opacity="0.1" stroke="#000000" stroke-width="1" x1="78" y1="627" x2="973" y2="627"/>
<line opacity="0.1" stroke="#000000" stroke-width="1" x1="78" y1="612" x2="973" y2="612"/>
<line opacity="0.1" stroke="#000000" stroke-width="1" x1="78" y1="598" x2="973" y2="598"/>
<line opacity="0.1" stroke="#000000" stroke-width="1" x1="78" y1="584" x2="973" y2="584"/>
<line opacity="0.1" stroke="#000000" stroke-width="1" x1="78" y1="569" x2="973" y2="569"/>
<line opacity="0.1" stroke="#000000" stroke-width="1" x1="78" y1="555" x2="973" y2="555"/>
<line opacity="0.1" stroke="#000000" stroke-width="1" x1="78" y1="541" x2="973" y2="541"/>
<line opacity="0.1" stroke="#000000" stroke-width="1" x1="78" y1="526" x2="973" y2="526"/>
<line opacity="0.1" stroke="#000000" stroke-width="1" x1="78" y1="512" x2="973" y2="512"/>
<line opacity="0.1" stroke="#000000" stroke-width="1" x1="78" y1="497" x2="973" y2="497"/>
<line opacity="0.1" stroke="#000000" stroke-width="1" x1="78" y1="483" x2="973" y2="483"/>
<line opacity="0.1" stroke="#000000" stroke-width="1" x1="78" y1="469" x2="973" y2="469"/>
<line opacity="0.1" stroke="#000000" stroke-width="1" x1="78" y1="454" x2="973" y2="454"/>
<line opacity="0.1" stroke="#000000" stroke-width="1" x1="78" y1="440" x2="973" y2="440"/>
<line opacity="0.1" stroke="#000000" stroke-width="1" x1="78" y1="426" x2="973" y2="426"/>
<line opacity="0.1" stroke="#000000" stroke-width="1" x1="78" y1="411" x2="973" y2="411"/>
<line opacity="0.1" stroke="#000000" stroke-width="1" x1="78" y1="397" x2="973" y2="397"/>
<line opacity="0.1" stroke="#000000" stroke-width="1" x1="78" y1="383" x2="973" y2="383"/>
<line opacity="0.1" stroke="#000000" stroke-width="1" x1="78" y1="368" x2="973" y2="368"/>
<line opacity="0.1" stroke="#000000" stroke-width="1" x1="78" y1="354" x2="973" y2="354"/>
<line opacity="0.1" stroke="#000000" stroke-width="1" x1="78" y1="339" x2="973" y2="339"/>
<line opacity="0.1" stroke="#000000" stroke-width="1" x1="78" y1="325" x2="973" y2="325"/>
<line opacity="0.1" stroke="#000000" stroke-width="1" x1="78" y1="311" x2="973" y2="311"/>
<line opacity="0.1" stroke="#000000" stroke-width="1" x1="78" y1="296" x2="973" y2="296"/>
<line opacity="0.1" stroke="#000000" stroke-width="1" x1="78" y1="282" x2="973" y2="282"/>
<line opacity="0.1" stroke="#000000" stroke-width="1" x1="78" y1="268" x2="973" y2="268"/>
<line opacity="0.1" stroke="#000000" stroke-width="1" x1="78" y1="253" x2="973" y2="253"/>
<line opacity="0.1" stroke="#000000" stroke-width="1" x1="78" y1="239" x2="973" y2="239"/>
<line opacity="0.1" stroke="#000000" stroke-width="1" x1="78" y1="225" x2="973" y2="225"/>
<line opacity="0.1" stroke="#000000" stroke-width="1" x1="78" y1="210" x2="973" y2="210"/>
<line opacity="0.1" stroke="#000000" stroke-width="1" x1="78" y1="196" x2="973" y2="196"/>
<line opacity="0.1" stroke="#000000" stroke-width="1" x1="78" y1="182" x2="973" y2="182"/>
<line opacity="0.1" stroke="#000000" stroke-width="1" x1="78" y1="167" x2="973" y2="167"/>
<line opacity="0.1" stroke="#000000" stroke-width="1" x1="78" y1="153" x2="973" y2="153"/>
<line opacity="0.1" stroke="#000000" stroke-width="1" x1="78" y1="138" x2="973" y2="138"/>
<line opacity="0.1" stroke="#000000" stroke-width="1" x1="78" y1="124" x2="973" y2="124"/>
<line opacity="0.1" stroke="#000000" stroke-width="1" x1="78" y1="110" x2="973" y2="110"/>
<line opacity="0.1" stroke="#000000" stroke-width="1" x1="78" y1="95" x2="973" y2="95"/>
<line opacity="0.1" stroke="#000000" stroke-width="1" x1="78" y1="81" x2="973" y2="81"/>
<text x="8" y="384" dy="0.76em" text-anchor="middle" font-family="sans-serif" font-size="9.67741935483871" opacity="1" fill="#000000" transform="rotate(270, 8, 384)">
Memory usage
</text>
<text x="526" y="760" dy="-0.5ex" text-anchor="middle" font-family="sans-serif" font-size="9.67741935483871" opacity="1" fill="#000000">
Time
</text>
<line opacity="0.2" stroke="#000000" stroke-width="1" x1="101" y1="699" x2="101" y2="68"/>
<line opacity="0.2" stroke="#000000" stroke-width="1" x1="190" y1="699" x2="190" y2="68"/>
<line opacity="0.2" stroke="#000000" stroke-width="1" x1="279" y1="699" x2="279" y2="68"/>
<line opacity="0.2" stroke="#000000" stroke-width="1" x1="368" y1="699" x2="368" y2="68"/>
<line opacity="0.2" stroke="#000000" stroke-width="1" x1="457" y1="699" x2="457" y2="68"/>
<line opacity="0.2" stroke="#000000" stroke-width="1" x1="546" y1="699" x2="546" y2="68"/>
<line opacity="0.2" stroke="#000000" stroke-width="1" x1="635" y1="699" x2="635" y2="68"/>
<line opacity="0.2" stroke="#000000" stroke-width="1" x1="724" y1="699" x2="724" y2="68"/>
<line opacity="0.2" stroke="#000000" stroke-width="1" x1="812" y1="699" x2="812" y2="68"/>
<line opacity="0.2" stroke="#000000" stroke-width="1" x1="901" y1="699" x2="901" y2="68"/>
<line opacity="0.2" stroke="#000000" stroke-width="1" x1="78" y1="699" x2="973" y2="699"/>
<line opacity="0.2" stroke="#000000" stroke-width="1" x1="78" y1="555" x2="973" y2="555"/>
<line opacity="0.2" stroke="#000000" stroke-width="1" x1="78" y1="411" x2="973" y2="411"/>
<line opacity="0.2" stroke="#000000" stroke-width="1" x1="78" y1="268" x2="973" y2="268"/>
<line opacity="0.2" stroke="#000000" stroke-width="1" x1="78" y1="124" x2="973" y2="124"/>
<polyline fill="none" opacity="1" stroke="#000000" stroke-width="1" points="77,68 77,699 "/>
<text x="68" y="699" dy="0.5ex" text-anchor="end" font-family="sans-serif" font-size="9.67741935483871" opacity="1" fill="#000000">
0 KB
</text>
<polyline fill="none" opacity="1" stroke="#000000" stroke-width="1" points="72,699 77,699 "/>
<text x="68" y="555" dy="0.5ex" text-anchor="end" font-family="sans-serif" font-size="9.67741935483871" opacity="1" fill="#000000">
48 KB
</text>
<polyline fill="none" opacity="1" stroke="#000000" stroke-width="1" points="72,555 77,555 "/>
<text x="68" y="411" dy="0.5ex" text-anchor="end" font-family="sans-serif" font-size="9.67741935483871" opacity="1" fill="#000000">
97 KB
</text>
<polyline fill="none" opacity="1" stroke="#000000" stroke-width="1" points="72,411 77,411 "/>
<text x="68" y="268" dy="0.5ex" text-anchor="end" font-family="sans-serif" font-size="9.67741935483871" opacity="1" fill="#000000">
146 KB
</text>
<polyline fill="none" opacity="1" stroke="#000000" stroke-width="1" points="72,268 77,268 "/>
<text x="68" y="124" dy="0.5ex" text-anchor="end" font-family="sans-serif" font-size="9.67741935483871" opacity="1" fill="#000000">
195 KB
</text>
<polyline fill="none" opacity="1" stroke="#000000" stroke-width="1" points="72,124 77,124 "/>
<polyline fill="none" opacity="1" stroke="#000000" stroke-width="1" points="78,700 973,700 "/>
<text x="101" y="710" dy="0.76em" text-anchor="middle" font-family="sans-serif" font-size="9.67741935483871" opacity="1" fill="#000000">
02:04:17
</text>
<polyline fill="none" opacity="1" stroke="#000000" stroke-width="1" points="101,700 101,705 "/>
<text x="190" y="710" dy="0.76em" text-anchor="middle" font-family="sans-serif" font-size="9.67741935483871" opacity="1" fill="#000000">
02:04:18
</text>
<polyline fill="none" opacity="1" stroke="#000000" stroke-width="1" points="190,700 190,705 "/>
<text x="279" y="710" dy="0.76em" text-anchor="middle" font-family="sans-serif" font-size="9.67741935483871" opacity="1" fill="#000000">
02:04:19
</text>
<polyline fill="none" opacity="1" stroke="#000000" stroke-width="1" points="279,700 279,705 "/>
<text x="368" y="710" dy="0.76em" text-anchor="middle" font-family="sans-serif" font-size="9.67741935483871" opacity="1" fill="#000000">
02:04:20
</text>
<polyline fill="none" opacity="1" stroke="#000000" stroke-width="1" points="368,700 368,705 "/>
<text x="457" y="710" dy="0.76em" text-anchor="middle" font-family="sans-serif" font-size="9.67741935483871" opacity="1" fill="#000000">
02:04:21
</text>
<polyline fill="none" opacity="1" stroke="#000000" stroke-width="1" points="457,700 457,705 "/>
<text x="546" y="710" dy="0.76em" text-anchor="middle" font-family="sans-serif" font-size="9.67741935483871" opacity="1" fill="#000000">
02:04:22
</text>
<polyline fill="none" opacity="1" stroke="#000000" stroke-width="1" points="546,700 546,705 "/>
<text x="635" y="710" dy="0.76em" text-anchor="middle" font-family="sans-serif" font-size="9.67741935483871" opacity="1" fill="#000000">
02:04:23
</text>
<polyline fill="none" opacity="1" stroke="#000000" stroke-width="1" points="635,700 635,705 "/>
<text x="724" y="710" dy="0.76em" text-anchor="middle" font-family="sans-serif" font-size="9.67741935483871" opacity="1" fill="#000000">
02:04:24
</text>
<polyline fill="none" opacity="1" stroke="#000000" stroke-width="1" points="724,700 724,705 "/>
<text x="812" y="710" dy="0.76em" text-anchor="middle" font-family="sans-serif" font-size="9.67741935483871" opacity="1" fill="#000000">
02:04:25
</text>
<polyline fill="none" opacity="1" stroke="#000000" stroke-width="1" points="812,700 812,705 "/>
<text x="901" y="710" dy="0.76em" text-anchor="middle" font-family="sans-serif" font-size="9.67741935483871" opacity="1" fill="#000000">
02:04:26
</text>
<polyline fill="none" opacity="1" stroke="#000000" stroke-width="1" points="901,700 901,705 "/>
<polyline fill="none" opacity="1" stroke="#000000" stroke-width="1" points="78,67 974,67 "/>
<text x="101" y="58" dy="-0.5ex" text-anchor="middle" font-family="sans-serif" font-size="9.67741935483871" opacity="1" fill="#000000">
+265ms
</text>
<polyline fill="none" opacity="1" stroke="#000000" stroke-width="1" points="101,62 101,67 "/>
<text x="190" y="58" dy="-0.5ex" text-anchor="middle" font-family="sans-serif" font-size="9.67741935483871" opacity="1" fill="#000000">
+1s
</text>
<polyline fill="none" opacity="1" stroke="#000000" stroke-width="1" points="190,62 190,67 "/>
<text x="279" y="58" dy="-0.5ex" text-anchor="middle" font-family="sans-serif" font-size="9.67741935483871" opacity="1" fill="#000000">
+2s
</text>
<polyline fill="none" opacity="1" stroke="#000000" stroke-width="1" points="279,62 279,67 "/>
<text x="368" y="58" dy="-0.5ex" text-anchor="middle" font-family="sans-serif" font-size="9.67741935483871" opacity="1" fill="#000000">
+3s
</text>
<polyline fill="none" opacity="1" stroke="#000000" stroke-width="1" points="368,62 368,67 "/>
<text x="457" y="58" dy="-0.5ex" text-anchor="middle" font-family="sans-serif" font-size="9.67741935483871" opacity="1" fill="#000000">
+4s
</text>
<polyline fill="none" opacity="1" stroke="#000000" stroke-width="1" points="457,62 457,67 "/>
<text x="546" y="58" dy="-0.5ex" text-anchor="middle" font-family="sans-serif" font-size="9.67741935483871" opacity="1" fill="#000000">
+5s
</text>
<polyline fill="none" opacity="1" stroke="#000000" stroke-width="1" points="546,62 546,67 "/>
<text x="635" y="58" dy="-0.5ex" text-anchor="middle" font-family="sans-serif" font-size="9.67741935483871" opacity="1" fill="#000000">
+6s
</text>
<polyline fill="none" opacity="1" stroke="#000000" stroke-width="1" points="635,62 635,67 "/>
<text x="724" y="58" dy="-0.5ex" text-anchor="middle" font-family="sans-serif" font-size="9.67741935483871" opacity="1" fill="#000000">
+7s
</text>
<polyline fill="none" opacity="1" stroke="#000000" stroke-width="1" points="724,62 724,67 "/>
<text x="813" y="58" dy="-0.5ex" text-anchor="middle" font-family="sans-serif" font-size="9.67741935483871" opacity="1" fill="#000000">
+8s
</text>
<polyline fill="none" opacity="1" stroke="#000000" stroke-width="1" points="813,62 813,67 "/>
<text x="902" y="58" dy="-0.5ex" text-anchor="middle" font-family="sans-serif" font-size="9.67741935483871" opacity="1" fill="#000000">
+9s
</text>
<polyline fill="none" opacity="1" stroke="#000000" stroke-width="1" points="902,62 902,67 "/>
</svg>
